<?xml version="1.0" encoding="UTF-8" standalone="no"?>
<!-- Created with Inkscape (http://www.inkscape.org/) -->

<svg
   version="1.1"
   id="svg1"
   width="500.01599"
   height="577.26666"
   viewBox="0 0 500.016 577.26666"
   sodipodi:docname="ugrc-logo.svg"
   inkscape:version="1.4.3 (0d15f75, 2025-12-25)"
   xmlns:inkscape="http://www.inkscape.org/namespaces/inkscape"
   xmlns:sodipodi="http://sodipodi.sourceforge.net/DTD/sodipodi-0.dtd"
   xmlns="http://www.w3.org/2000/svg"
   xmlns:svg="http://www.w3.org/2000/svg">
  <sodipodi:namedview
     id="namedview1"
     pagecolor="#ffffff"
     bordercolor="#000000"
     borderopacity="0.25"
     inkscape:showpageshadow="2"
     inkscape:pageopacity="0.0"
     inkscape:pagecheckerboard="0"
     inkscape:deskcolor="#d1d1d1"
     inkscape:zoom="0.39615395"
     inkscape:cx="1110.6793"
     inkscape:cy="289.02905"
     inkscape:window-width="1920"
     inkscape:window-height="1022"
     inkscape:window-x="0"
     inkscape:window-y="30"
     inkscape:window-maximized="0"
     inkscape:current-layer="svg1" />
  <defs
     id="defs1">
    <clipPath
       clipPathUnits="userSpaceOnUse"
       id="clipPath2">
      <path
         d="m -299.53251,289.81301 0.025,-432.94001 375.000009,0.022 -0.025,432.93901 z"
         id="path2" />
    </clipPath>
  </defs>
  <path
     id="path1"
     d="m 0,0 c -9.777,-10.185 -40.292,-16.53 -75.929,-19.039 -9.875,0.077 -16.195,6.85 -17.903,14.928 -4.158,19.87 -31.997,19.881 -36.153,-0.002 -1.706,-8.125 -8.069,-14.919 -18.026,-14.942 -35.672,2.51 -66.219,8.848 -76.009,19.03 -2.531,2.633 -3.445,6.406 -2.677,9.957 l 4.37,20.059 c 6.68,-3.581 17.126,-6.327 31.931,-8.541 20.738,-3.109 48.574,-4.814 78.379,-4.812 29.805,10e-4 57.629,1.71 78.367,4.821 14.805,2.216 25.262,4.974 31.941,8.545 L 2.663,9.945 C 3.445,6.394 2.531,2.621 -0.012,-0.012 Z m -213.512,70.355 c 7.879,-3.156 15.406,-4.737 27.804,-6.589 19.498,-2.779 45.669,-4.305 73.701,-4.303 28.027,10e-4 54.203,1.53 73.698,4.312 10.094,1.434 20.312,3.357 27.769,6.622 L -5.01,45.058 -6.355,44.09 C -31.944,26.396 -192.284,26.446 -217.703,44.078 l -1.336,1.015 5.515,25.262 z m 12.295,41.208 c 6.828,-3.539 16.285,-5.551 25.058,-6.983 17.008,-2.769 39.828,-4.307 64.239,-4.305 24.414,10e-4 47.23,1.529 64.242,4.312 8.691,1.423 18.07,3.411 24.886,6.896 3.821,-8.636 6.861,-17.609 9.087,-26.808 -18.713,-14.119 -177.374,-14.299 -196.632,0.008 2.238,9.223 5.288,18.219 9.12,26.88 m 23.427,37.118 c 5.028,-2.613 12.239,-4.014 19.766,-5.053 12.219,-1.695 28.594,-2.62 46.102,-2.619 17.507,0.001 33.882,0.928 46.101,2.624 7.449,1.028 14.602,2.411 19.621,4.973 6.543,-7.557 12.238,-15.776 17.087,-24.456 -20.862,-12.446 -144.854,-12.543 -165.789,0.069 4.851,8.68 10.558,16.888 17.101,24.451 z m 120.703,11.058 c -8.622,-2.228 -27.317,-4.443 -54.836,-4.444 -27.52,-0.002 -46.442,2.247 -54.997,4.485 31.756,29.817 78.061,29.809 109.833,-0.041 m -54.945,130.165 -187.494,-108.265 0.012,-216.516 187.506,-108.239 187.494,108.26 -0.012,216.516 z"
     style="fill:#000000;fill-opacity:1;fill-rule:nonzero;stroke:none"
     transform="matrix(1.3333333,0,0,-1.3333333,399.36799,386.44534)"
     clip-path="url(#clipPath2)" />
</svg>
