<?xml version="1.0" encoding="UTF-8" standalone="no"?>
<!-- Created with Inkscape (http://www.inkscape.org/) -->

<svg
   version="1.1"
   id="svg1"
   width="2168.6533"
   height="577.37469"
   viewBox="0 0 2168.6533 577.37469"
   sodipodi:docname="ugrc-logo.svg"
   inkscape:version="1.4.4 (dcaf3e7, 2026-05-05)"
   xmlns:inkscape="http://www.inkscape.org/namespaces/inkscape"
   xmlns:sodipodi="http://sodipodi.sourceforge.net/DTD/sodipodi-0.dtd"
   xmlns="http://www.w3.org/2000/svg"
   xmlns:svg="http://www.w3.org/2000/svg">
  <defs
     id="defs1">
    <clipPath
       clipPathUnits="userSpaceOnUse"
       id="clipPath3">
      <path
         d="m -199.0135,-109.94571 h 374.881 v 432.98002 h -374.881 z"
         id="path3" />
    </clipPath>
  </defs>
  <sodipodi:namedview
     id="namedview1"
     pagecolor="#ffffff"
     bordercolor="#000000"
     borderopacity="0.25"
     inkscape:showpageshadow="2"
     inkscape:pageopacity="0.0"
     inkscape:pagecheckerboard="0"
     inkscape:deskcolor="#d1d1d1"
     inkscape:zoom="0.40578177"
     inkscape:cx="1083.0945"
     inkscape:cy="289.56451"
     inkscape:window-width="1747"
     inkscape:window-height="1022"
     inkscape:window-x="0"
     inkscape:window-y="30"
     inkscape:window-maximized="0"
     inkscape:current-layer="layer-MC0">
    <inkscape:page
       x="0"
       y="0"
       inkscape:label="3"
       id="page1"
       width="2168.6533"
       height="577.37469"
       margin="0.01019287 26.733334 0 0.0152588"
       bleed="0" />
  </sodipodi:namedview>
  <g
     id="layer-MC0"
     inkscape:groupmode="layer"
     inkscape:label="Templates">
    <path
       id="path1"
       d="M 56.906766,1.7039299 C 43.781766,1.7031406 33.542684,-1.2066548 26.192448,-7.0283859 18.839282,-12.847187 15.165973,-21.481197 15.166661,-32.927486 l 0.003,-49.054688 c 1.31e-4,-2.170898 -0.521258,-3.76175 -1.558307,-4.769625 -1.031189,-1.013734 -2.753814,-1.523603 -5.1678768,-1.523748 l -4.9570312,-2.98e-4 5.652e-4,-9.398438 49.1367188,0.003 -5.65e-4,9.398438 -5.039063,-3.03e-4 c -2.414062,-1.46e-4 -4.13089,0.509517 -5.144623,1.523128 -1.007873,1.007752 -1.511875,2.598542 -1.512005,4.76944 l -0.0029,48.832031 c -4.12e-4,6.861328 1.947526,11.906367 5.846746,15.140977 3.89629,3.22875 9.374709,4.840407 16.429396,4.840832 7.148438,4.29e-4 12.802832,-1.622277 16.969044,-4.87398 4.17207,-3.257562 6.258311,-8.290639 6.25872,-15.105092 l 0.0029,-48.832032 c 1.3e-4,-2.170898 -0.521258,-3.76175 -1.558307,-4.769624 -1.031189,-1.013734 -2.806549,-1.523607 -5.320221,-1.523758 l -10.066406,-6.05e-4 5.65e-4,-9.398438 39.738279,0.0024 -5.6e-4,9.398437 -5.02735,-3.02e-4 c -2.42285,-1.46e-4 -4.15432,0.509516 -5.191495,1.523125 -1.03131,1.007751 -1.547031,2.59854 -1.547161,4.769439 l -0.0029,49.054687 c -6.89e-4,11.446289 -3.593005,20.079862 -10.771089,25.8977898 -7.172225,5.8208578 -17.098181,8.7294406 -29.777869,8.7286781 z m 88.945304,0.078591 c -6.75878,-4.064e-4 -12.07607,-1.64428085 -15.94892,-4.9228341 -3.86699,-3.2814825 -5.80028,-8.3265208 -5.79987,-15.1409738 l 0.002,-39.515625 -10.06641,-6.05e-4 5.2e-4,-8.648438 4.88674,-0.374706 c 2.95314,-0.248846 5.24129,-1.335622 6.86739,-3.257399 1.63195,-1.921777 2.72198,-5.027181 3.27009,-9.31621 l 1.10208,-8.66009 18.43359,0.0011 -0.001,20.859375 19.45312,0.0012 -5.6e-4,9.398438 -19.45313,-0.0012 -0.002,36.632812 c -1.4e-4,2.414063 0.6267,4.277382 1.88638,5.589957 1.25676,1.306717 2.99403,1.957212 5.21473,1.957345 2.11523,1.28e-4 3.87894,-0.615001 5.28527,-1.851244 1.40632,-1.233314 2.55488,-3.204925 3.44567,-5.917762 l 5.47251,2.437829 c -1.37737,6.81437 -4.09936,11.9733866 -8.1689,15.4799778 -4.07248,3.49780201 -9.3636,5.249437 -15.87923,5.2490451 z m 48.17286,-3.28e-5 c -3.84375,-2.311e-4 -7.09859,-0.7562862 -9.76159,-2.26230574 -2.66592,-1.50601966 -4.66385,-3.50418676 -5.99964,-5.98864206 -1.32993,-2.4903143 -1.99187,-5.2442603 -1.99169,-8.2618383 2.9e-4,-4.78125 1.43021,-8.686438 4.28977,-11.718492 2.85956,-3.037914 7.5472,-5.393101 14.06292,-7.065561 l 18.35185,-4.662959 4.3e-4,-7.183594 c 2.8e-4,-4.6875 -0.90184,-8.311577 -2.70638,-10.875162 -1.79867,-2.560655 -4.40016,-3.844015 -7.80445,-3.84422 -2.17383,-1.3e-4 -3.87601,0.509533 -5.10947,1.523131 -1.23639,1.007738 -1.85171,2.399302 -1.85181,4.171763 -4e-5,0.641602 0.19912,1.652356 0.59747,3.035192 0.14645,0.594736 0.29582,1.236346 0.4452,1.921902 0.14644,0.688486 0.22257,1.353529 0.22253,1.992201 -1.3e-4,2.226563 -0.92602,4.078069 -2.77767,5.55452 -1.85166,1.476452 -4.06068,2.2146 -6.62123,2.214446 -2.91504,-1.75e-4 -5.34956,-0.800126 -7.30064,-2.402783 -1.94521,-1.599726 -2.91773,-4.002128 -2.91753,-7.207206 2.3e-4,-3.802735 1.49164,-7.198153 4.47717,-10.183325 2.9826,-2.982242 6.99056,-5.311103 12.02386,-6.983652 5.03916,-1.678408 10.54117,-2.518897 16.51187,-2.518538 8.97656,5.4e-4 15.76747,1.840792 20.37857,5.520757 4.61697,3.674105 6.92523,9.184986 6.92479,16.535572 l -0.002,29.8125 c -1.1e-4,1.828125 0.28106,3.16408 0.84351,4.007863 0.56831,0.837925 1.44426,1.253994 2.62492,1.254065 2.12402,1.27e-4 3.80284,-1.70192 5.03937,-5.109072 l 4.73426,1.992472 c -0.74439,4.001908 -2.16255,7.2361979 -4.25449,9.702869 -2.09488,2.4608115 -4.5237,4.2243374 -7.28938,5.28471792 -2.76569,1.06038058 -5.57822,1.59341458 -8.4376,1.59324258 -4.3916,-2.641e-4 -7.91889,-0.87645274 -10.58187,-2.62563632 -2.66591,-1.74918378 -4.83664,-4.59990028 -6.51511,-8.55507928 l -0.65625,-3.95e-5 c -2.32054,3.7498605 -4.96329,6.5797797 -7.92239,8.4838986 -2.96203,1.89532971 -6.63884,2.847257 -11.02751,2.8469931 z m 6.14193,-21.6910371 c -1.5e-4,2.367188 0.53001,4.230501 1.59341,5.58994 1.06046,1.359438 2.578,2.039217 4.54675,2.039336 2.07715,1.25e-4 3.70609,-0.638449 4.88684,-1.921582 1.1866,-1.288991 1.78143,-2.991103 1.78155,-5.109267 l 7.6e-4,-12.65625 -4.59383,1.476286 c -3.1114,1.142391 -5.25895,2.551441 -6.44557,4.230081 -1.18077,1.672781 -1.76976,3.790909 -1.76991,6.351456 z m 52.61655,10.5090237 2.51953,1.515e-4 c 1.92188,1.156e-4 3.27542,-0.4040999 4.06648,-1.2185052 0.78814,-0.811476 1.18373,-2.156179 1.18384,-4.031179 l 0.004,-68.378906 c 1.1e-4,-1.875 -0.39531,-3.216821 -1.18335,-4.031321 -0.79097,-0.811571 -2.14446,-1.218879 -4.06633,-1.218995 l -2.51954,-1.52e-4 5.7e-4,-9.398437 32.10937,0.0019 -0.003,42.398437 0.66797,4e-5 c 2.71901,-4.341633 5.83933,-7.710586 9.36389,-10.100999 3.53042,-2.390413 7.81076,-3.585468 12.84397,-3.585165 6.80273,4.09e-4 12.21374,2.001711 16.23011,6.000976 4.02222,3.993406 6.03456,9.785519 6.03411,17.379269 l -0.002,30.9375 c -1.2e-4,1.875 0.38066,3.219749 1.14819,4.031319 0.7646,0.8144993 2.1093,1.218877 4.03118,1.2189926 l 2.51953,1.515e-4 -5.7e-4,9.3984375 -39.22265,-0.00235866 5.6e-4,-9.39843744 2.07422,1.247e-4 c 1.82813,1.099e-4 3.12307,-0.4041091 3.8907,-1.2185162 0.7647,-0.811477 1.14857,-2.156181 1.14868,-4.031181 l 0.002,-26.34375 c 2.4e-4,-3.896484 -0.87849,-6.77349 -2.6362,-8.625158 -1.75184,-1.851668 -4.20393,-2.777597 -7.3592,-2.777787 -7.15723,-4.3e-4 -10.73462,3.972011 -10.7351,11.917324 l -0.002,25.828124 c -1.1e-4,1.822266 0.38067,3.152367 1.1482,3.996163 0.7646,0.837937 2.08586,1.2540321 3.96086,1.2541448 l 2.00391,1.205e-4 -5.7e-4,9.39843753 -39.22265,-0.00235866 z M 431.0425,1.7850224 c -9.66503,-5.812e-4 -18.60633,-1.78822831 -26.82389,-5.3688006 -8.2117,-3.5776423 -14.80903,-9.0155388 -19.79199,-16.3136898 -4.9771,-7.304011 -7.46386,-16.283652 -7.46322,-26.941856 6.6e-4,-11.05371 2.66139,-20.548668 7.98218,-28.487801 5.32665,-7.944992 12.39342,-13.950426 21.2003,-18.022162 8.81275,-4.068806 18.36951,-6.104365 28.67615,-6.103745 11.74219,7.06e-4 23.06528,2.567794 33.97219,7.701262 l 1.69766,25.968852 -8.50781,-5.12e-4 -1.55832,-4.582125 c -2.17344,-6.460091 -5.36651,-11.232744 -9.58508,-14.320888 -4.2127,-3.085215 -9.52413,-4.629479 -15.93722,-4.629865 -5.92383,-3.56e-4 -11.25009,1.519831 -15.98465,4.557632 -4.73455,3.031942 -8.46139,7.531718 -11.1805,13.499328 -2.71325,5.97054 -4.0672,13.247802 -4.06772,21.831787 -5e-4,8.384765 1.29105,15.673906 3.8776,21.86742 2.5924,6.187656 6.25715,10.933971 10.99133,14.238943 4.73417,3.304972 10.25946,4.9576479 16.58173,4.9580281 10.16309,6.112e-4 15.24633,-3.9190051 15.2468,-11.7647081 l 8.6e-4,-14.355469 c 1.3e-4,-2.162109 -0.50954,-3.738312 -1.52315,-4.722748 -1.00775,-0.990295 -2.74796,-1.488446 -5.21475,-1.488594 l -9.91407,-5.97e-4 5.3e-4,-8.800781 48.38672,0.0029 -5.3e-4,8.800781 -3.17578,-1.91e-4 c -2.46973,-1.48e-4 -4.21292,0.497794 -5.22665,1.487967 -1.00787,0.984314 -1.51187,2.560456 -1.512,4.722565 l -0.002,26.5664066 c -6.50997,3.304296 -13.10777,5.7501883 -19.79341,7.33474725 -6.67978,1.57577019 -13.79897,2.36635765 -21.35171,2.36590355 z m 91.47071,-3.588e-4 c -6.31348,-3.797e-4 -12.01164,-1.32201139 -17.09742,-3.9619657 -5.07992,-2.6399539 -9.09922,-6.4634378 -12.0579,-11.4733809 -2.96162,-5.007014 -4.44075,-10.913353 -4.44034,-17.719017 4.3e-4,-7.256836 1.52719,-13.734284 4.58319,-19.429412 3.06187,-5.695129 7.30433,-10.142139 12.72737,-13.346891 5.4289,-3.210611 11.54912,-4.815712 18.36357,-4.815302 5.625,3.38e-4 10.6054,1.125637 14.9412,3.375898 4.34167,2.244402 7.73405,5.549293 10.17128,9.914674 2.4431,4.359522 3.66739,9.621315 3.66702,15.785377 -9e-5,1.485352 -0.0763,3.041011 -0.22293,4.664049 l -41.28516,-0.0025 c 0.4918,6.36917 2.53643,11.329254 6.13973,14.883181 3.60037,3.548068 8.38445,5.320817 14.35515,5.321176 4.0459,2.43e-4 7.60845,-0.811066 10.68764,-2.436857 3.08506,-1.631651 5.61351,-3.752592 7.58242,-6.362826 l 3.48036,1.851772 c -0.98463,4.189394 -2.76318,8.071123 -5.33274,11.648117 -2.56369,3.5799241 -6.05312,6.4918236 -10.46537,8.7415583 -4.41517,2.24094543 -9.67988,3.3626992 -15.79707,3.3623313 z m 10.20976,-45.4446986 c 0.0999,-5.373041 -0.6381,-9.468788 -2.2141,-12.281383 -1.57894,-2.812595 -3.84936,-4.218982 -6.80834,-4.21916 -3.21094,-1.93e-4 -5.84188,1.359024 -7.88697,4.077651 -2.04801,2.712768 -3.31682,6.85234 -3.80934,12.421646 z m 67.78731,45.4435296 c -6.81445,-4.098e-4 -13.11905,-1.50664831 -18.91379,-4.5128562 -5.79767,-3.014997 -10.43512,-7.2105884 -13.9094,-12.5867744 -3.47722,-5.373256 -5.21416,-11.46711 -5.21375,-18.281563 4.1e-4,-6.802734 1.73808,-12.881732 5.21594,-18.234061 3.47493,-5.349401 8.1246,-9.529785 13.94607,-12.538224 5.82733,-3.014298 12.12039,-4.522709 18.87918,-4.522303 6.80273,4.1e-4 13.12784,1.509579 18.97238,4.524579 5.85041,3.009141 10.51422,7.190085 13.99144,12.539904 3.47428,5.352748 5.21415,11.431954 5.21374,18.234688 -4.1e-4,6.814453 -1.74101,12.908099 -5.21594,18.280937 -3.47786,5.3757671 -8.14218,9.5707992 -13.99294,12.5850958 -5.84491,3.00550786 -12.1702,4.5109869 -18.97293,4.5105778 z m 6.1e-4,-10.1484375 c 8.53125,5.13e-4 12.79738,-8.4074331 12.79839,-25.2296991 0.001,-16.772461 -4.26411,-25.160413 -12.79536,-25.160926 -8.48438,-5.1e-4 -12.72707,8.38693 -12.72808,25.159391 -5.4e-4,9.032227 1.11821,15.498114 3.36212,19.394734 2.24098,3.890759 5.36098,5.8362594 9.36293,5.8365001 z m 75.18104,9.9947554 c -7.99219,-4.806e-4 -16.15714,-1.50683097 -24.49192,-4.5131916 l -3.54965,-18.7970889 5.02734,3.03e-4 2.9646,4.066584 c 2.90603,3.79705 6.01132,6.621456 9.3159,8.4732168 3.31044,1.8517615 6.69417,2.7777463 10.14827,2.777954 2.8125,1.691e-4 5.2266,-0.6383576 7.2423,-1.9214395 2.02157,-1.2801519 3.03536,-3.2517703 3.03552,-5.9177863 1.1e-4,-1.875 -0.59453,-3.377965 -1.78098,-4.511826 -1.1806,-1.139719 -3.19909,-2.150583 -6.05841,-3.03552 l -9.84358,-2.965436 c -6.16394,-1.875371 -10.83957,-4.442058 -14.02688,-7.700062 -3.18144,-3.258004 -4.76907,-7.596967 -4.76874,-13.019818 2.8e-4,-4.6875 1.29252,-8.803634 3.87964,-12.35133 2.59299,-3.553555 6.15859,-6.292598 10.69972,-8.2142 4.5382,-1.927461 9.62127,-2.893953 15.24627,-2.893614 7.24804,4.36e-4 15.21668,1.82611 23.90592,5.474094 l -10e-4,17.472656 -4.88672,-2.94e-4 -1.47637,-3.328214 c -3.5562,-7.303925 -9.18098,-10.957583 -16.87434,-10.958046 -3.06445,-1.84e-4 -5.45804,0.655922 -7.18371,1.968318 -1.72859,1.306537 -2.59002,2.917813 -2.59013,4.839688 -1.2e-4,1.921875 0.65018,3.439492 1.95675,4.546993 1.31244,1.11043 3.69421,2.185769 7.14825,3.223086 l 8.7303,2.742712 c 6.11708,1.875368 10.73997,4.36881 13.87455,7.477397 3.13165,3.102728 4.69877,7.465127 4.69843,13.090127 -3.1e-4,5.179687 -1.31014,9.57121 -3.92657,13.1716384 -2.61057,3.6033587 -6.21132,6.304314 -10.80517,8.1087253 -4.588,1.79562253 -9.79118,2.6947237 -15.60954,2.6943738 z m 37.74498,18.5735585 2.50781,1.51e-4 c 1.92773,1.16e-4 3.27248,-0.409959 4.03132,-1.230226 0.7647,-0.814407 1.14857,-2.153251 1.14868,-4.019462 l 0.004,-67.488281 c 1.1e-4,-1.875 -0.3836,-3.21682 -1.1482,-4.031319 -0.75874,-0.820359 -2.10344,-1.230596 -4.03117,-1.230712 l -2.50781,-1.5e-4 5.6e-4,-9.398438 31.88672,0.0019 -5.6e-4,9.257812 0.59766,3.6e-5 c 5.27388,-7.303394 12.00652,-10.956309 20.20378,-10.955816 4.78125,2.87e-4 9.17864,1.286684 13.19508,3.856262 4.02231,2.563718 7.23009,6.32563 9.62042,11.285735 2.39619,4.954245 3.597,10.884005 3.59659,17.789279 -4.4e-4,7.250976 -1.53306,13.740142 -4.59493,19.464567 -3.056,5.718566 -7.27502,10.194875 -12.65705,13.4289264 -5.37617,3.23112203 -11.44365,4.8508743 -18.19951,4.8504681 -3.94629,-2.373e-4 -7.7695,-0.5951938 -11.47255,-1.78193992 l -9e-4,14.95312542 c -1.1e-4,1.86621 0.38066,3.205101 1.14819,4.0196 0.7646,0.820358 2.11223,1.230596 4.0429,1.230712 l 5.17969,3.11e-4 -5.7e-4,9.398438 -42.55078,-0.0026 z m 32.18219,-41.740252 c -2.9e-4,4.790039 0.91356,8.378961 2.74154,10.769696 1.82798,2.3907352 4.2449,3.586193 7.25369,3.586374 2.36719,1.423e-4 4.45904,-0.8346928 6.2814,-2.5074348 1.82823,-1.6786012 3.28444,-4.2683572 4.37156,-7.7692682 1.0842,-3.506771 1.62938,-7.851465 1.62969,-13.031152 3.1e-4,-5.124024 -0.59415,-9.509802 -1.78045,-13.160264 -1.18045,-3.656321 -2.80626,-6.404465 -4.87451,-8.250293 -2.07118,-1.851687 -4.43831,-2.77761 -7.10139,-2.777771 -1.68164,-1.01e-4 -3.21096,0.310354 -4.59381,0.925506 -1.38285,0.609291 -2.69248,1.605306 -3.92596,2.988045 z m 72.0777,23.3187877 c -3.84375,-2.312e-4 -7.09859,-0.7562863 -9.76158,-2.26230578 -2.66593,-1.50601972 -4.66385,-3.50418672 -5.99964,-5.98864202 -1.32993,-2.4903144 -1.99187,-5.2442609 -1.99169,-8.2618389 2.9e-4,-4.78125 1.43021,-8.686437 4.28977,-11.718492 2.85955,-3.037914 7.5472,-5.393101 14.06292,-7.06556 l 18.35184,-4.662959 4.4e-4,-7.183594 c 2.8e-4,-4.6875 -0.90185,-8.311578 -2.70638,-10.875163 -1.79868,-2.560655 -4.40016,-3.844014 -7.80446,-3.844219 -2.17383,-1.31e-4 -3.876,0.509532 -5.10946,1.52313 -1.23639,1.007738 -1.85171,2.399303 -1.85182,4.171764 -4e-5,0.641601 0.19912,1.652356 0.59748,3.035192 0.14644,0.594735 0.29582,1.236346 0.44519,1.921902 0.14645,0.688485 0.22258,1.353529 0.22254,1.992201 -1.3e-4,2.226562 -0.92603,4.078069 -2.77768,5.55452 -1.85165,1.476451 -4.06068,2.2146 -6.62123,2.214446 -2.91503,-1.76e-4 -5.34956,-0.800127 -7.30063,-2.402783 -1.94522,-1.599726 -2.91773,-4.002129 -2.91754,-7.207207 2.3e-4,-3.802734 1.49165,-7.198152 4.47718,-10.183324 2.9826,-2.982243 6.99055,-5.311103 12.02385,-6.983652 5.03917,-1.678408 10.54117,-2.518898 16.51188,-2.518539 8.97656,5.4e-4 15.76746,1.840792 20.37857,5.520757 4.61697,3.674106 6.92523,9.184987 6.92479,16.535573 l -0.002,29.8125 c -1.1e-4,1.828125 0.28106,3.164079 0.84351,4.007863 0.56831,0.837925 1.44426,1.253993 2.62493,1.254064 2.12402,1.28e-4 3.80283,-1.70192 5.03937,-5.109072 l 4.73425,1.992472 c -0.74438,4.001909 -2.16254,7.2361985 -4.25449,9.7028696 -2.09487,2.4608115 -4.52369,4.2243373 -7.28938,5.28471788 C 860.07184,1.098908 857.25931,1.631942 854.39994,1.6317701 850.00833,1.631506 846.48104,0.75531732 843.81806,-0.99386626 841.15215,-2.74305 838.98143,-5.5937665 837.30295,-9.5489456 l -0.65625,-3.94e-5 c -2.32054,3.7498604 -4.96328,6.5797796 -7.92238,8.4838986 -2.96203,1.89532967 -6.63885,2.847257 -11.02752,2.8469931 z m 6.14193,-21.6910367 c -1.4e-4,2.367187 0.53002,4.2305 1.59342,5.589939 1.06046,1.359439 2.578,2.039218 4.54675,2.039336 2.07715,1.25e-4 3.70609,-0.638449 4.88683,-1.921581 1.1866,-1.288991 1.78143,-2.991104 1.78156,-5.109268 l 7.6e-4,-12.65625 -4.59384,1.476287 c -3.1114,1.142391 -5.25894,2.551441 -6.44557,4.230081 -1.18076,1.67278 -1.76975,3.790909 -1.76991,6.351456 z m 80.43913,21.6933136 c -6.75879,-4.065e-4 -12.07608,-1.64428093 -15.94893,-4.9228341 -3.86699,-3.2814826 -5.80028,-8.3265205 -5.79987,-15.1409735 l 0.002,-39.515625 -10.06641,-6.06e-4 5.2e-4,-8.648437 4.88674,-0.374706 c 2.95314,-0.248846 5.2413,-1.335623 6.86739,-3.2574 1.63195,-1.921777 2.72198,-5.02718 3.27009,-9.316209 l 1.10208,-8.66009 18.4336,0.0011 -10e-4,20.859375 19.45313,0.0012 -5.7e-4,9.398437 -19.45312,-0.0012 -0.002,36.632812 c -1.4e-4,2.414063 0.6267,4.277381 1.88639,5.589957 1.25675,1.306716 2.99402,1.957212 5.21472,1.957345 2.11524,1.27e-4 3.87895,-0.615001 5.28527,-1.851245 1.40632,-1.233313 2.55488,-3.204924 3.44567,-5.917761 l 5.47251,2.437829 c -1.37736,6.81437 -4.09935,11.9733862 -8.1689,15.4799775 -4.07248,3.49780193 -9.3636,5.2494369 -15.87922,5.2490451 z m 28.79364,-11.1838154 2.50781,1.508e-4 c 1.92774,1.159e-4 3.27249,-0.4041001 4.03132,-1.218508 0.7647,-0.811477 1.14857,-2.156181 1.14868,-4.031181 l 0.002,-37.886718 c 1.1e-4,-1.875 -0.38359,-3.21682 -1.14819,-4.031319 -0.75874,-0.820358 -2.10344,-1.230596 -4.03118,-1.230711 l -2.50781,-1.51e-4 5.6e-4,-9.398438 32.17969,0.0019 -0.003,52.546875 c -1.1e-4,1.875 0.38067,3.21975 1.1482,4.031319 0.7646,0.8144995 2.11223,1.2188774 4.04289,1.2189935 l 2.50781,1.508e-4 -5.6e-4,9.39843748 -39.87891,-0.00239812 z m 18.4961,-65.1199812 c -2.85937,-1.72e-4 -5.3525,-0.565752 -7.47646,-1.699669 -2.11809,-1.130987 -3.73226,-2.672099 -4.83956,-4.617478 -1.11024,-1.951239 -1.66382,-4.136819 -1.66367,-6.550882 1.4e-4,-2.373046 0.55398,-4.535123 1.66445,-6.480368 1.10754,-1.945246 2.72189,-3.483235 4.84012,-4.616897 2.12409,-1.13952 4.61729,-1.710663 7.47667,-1.710483 2.91211,1.7e-4 5.42867,0.571611 7.54677,1.711387 2.12395,1.133916 3.74105,2.660381 4.85128,4.582323 1.10731,1.921941 1.66382,4.095803 1.66368,6.515725 -1.5e-4,2.414062 -0.55692,4.599576 -1.66446,6.550681 -1.11047,1.945246 -2.72775,3.486164 -4.85184,4.616896 -2.11823,1.133661 -4.63487,1.69894 -7.54698,1.698765 z m 45.87725,76.3035398 c -3.84375,-2.311e-4 -7.09859,-0.7562863 -9.76158,-2.26230577 -2.66593,-1.50601973 -4.66386,-3.50418673 -5.99964,-5.98864203 -1.32993,-2.4903144 -1.99188,-5.24426 -1.99169,-8.261839 2.8e-4,-4.78125 1.43021,-8.686437 4.28976,-11.718492 2.85956,-3.037914 7.5472,-5.3931 14.06293,-7.06556 l 18.35187,-4.662959 4e-4,-7.183594 c 3e-4,-4.6875 -0.9018,-8.311578 -2.7064,-10.875163 -1.7986,-2.560655 -4.4001,-3.844014 -7.8044,-3.844219 -2.1739,-1.31e-4 -3.876,0.509533 -5.1095,1.52313 -1.23639,1.007738 -1.8517,2.399303 -1.85181,4.171764 -4e-5,0.641602 0.19912,1.652356 0.59747,3.035192 0.14645,0.594735 0.29583,1.236346 0.4452,1.921902 0.14644,0.688485 0.22254,1.353529 0.22254,1.992201 -1e-4,2.226562 -0.92603,4.078069 -2.77768,5.55452 -1.85165,1.476451 -4.06068,2.2146 -6.62123,2.214446 -2.91504,-1.75e-4 -5.34956,-0.800127 -7.30063,-2.402783 -1.94522,-1.599726 -2.91773,-4.002129 -2.91754,-7.207207 2.3e-4,-3.802734 1.49164,-7.198152 4.47717,-10.183324 2.98261,-2.982243 6.99056,-5.311103 12.02386,-6.983652 5.03915,-1.678408 10.54115,-2.518897 16.51185,-2.518538 8.9766,5.39e-4 15.7675,1.840791 20.3786,5.520756 4.617,3.674106 6.9252,9.184987 6.9248,16.535573 v 29.8125 c -10e-5,1.828125 0.2811,3.164079 0.8435,4.007863 0.5683,0.837925 1.4443,1.253993 2.6249,1.254064 2.124,1.28e-4 3.8029,-1.701919 5.0394,-5.109072 l 4.7342,1.992473 c -0.7443,4.001908 -2.1625,7.2361976 -4.2544,9.7028687 -2.0949,2.4608115 -4.5237,4.2243373 -7.2894,5.28471789 -2.7657,1.06038051 -5.5782,1.59341451 -8.4376,1.59324261 -4.3916,-2.641e-4 -7.9189,-0.87645277 -10.5819,-2.62563635 -2.6659,-1.74918375 -4.8366,-4.59990025 -6.5151,-8.55507935 l -0.6563,-3.94e-5 c -2.3205,3.7498604 -4.9632,6.5797796 -7.9223,8.4838986 -2.9621,1.89532968 -6.6389,2.847257 -11.02755,2.8469931 z m 6.14195,-21.6910368 c -2e-4,2.367187 0.53,4.2305 1.5934,5.589939 1.0605,1.359439 2.578,2.039218 4.5467,2.039336 2.0772,1.25e-4 3.7061,-0.638449 4.8869,-1.921581 1.1866,-1.288991 1.7814,-2.991104 1.7815,-5.109268 l 8e-4,-12.65625 -4.5938,1.476287 c -3.1114,1.142391 -5.259,2.551441 -6.4456,4.230081 -1.1808,1.67278 -1.7698,3.790909 -1.7699,6.351456 z m 52.6165,10.5090234 2.5196,1.515e-4 c 1.9218,1.155e-4 3.2754,-0.4040999 4.0664,-1.2185059 0.7882,-0.811476 1.1838,-2.156178 1.1839,-4.031178 v -68.378907 c 1e-4,-1.875 -0.3953,-3.21682 -1.1834,-4.031321 -0.7909,-0.811571 -2.1444,-1.218879 -4.0663,-1.218994 l -2.5195,-1.52e-4 5e-4,-9.398437 32.1094,0.0019 v 83.027343 c -1e-4,1.875 0.3924,3.21975 1.1834,4.031321 0.7968,0.8145015 2.1562,1.2188801 4.078,1.2189957 l 2.5196,1.515e-4 -6e-4,9.39843746 -39.8906,-0.002398826 z M 3.4797618,168.20072 l 4.9570312,3e-4 c 2.414063,1.4e-4 4.136749,-0.50366 5.16806,-1.51141 1.03717,-1.01361 1.55875,-2.60733 1.558881,-4.78116 l 0.004,-66.292967 c 1.31e-4,-2.170899 -0.521258,-3.761751 -1.558306,-4.769625 -1.031189,-1.013734 -2.753815,-1.523603 -5.1678776,-1.523749 l -4.9570312,-2.98e-4 5.652e-4,-9.398437 54.9023436,0.0033 c 10.655273,6.41e-4 19.27723,1.887878 25.862941,5.661712 6.58571,3.773833 9.878321,9.733016 9.877831,17.871684 -2.9e-4,4.83692 -1.345263,8.92961 -4.031988,12.28101 -2.689655,3.3514 -6.032584,5.94105 -10.031717,7.76893 -3.993274,1.82789 -8.086121,3.04053 -12.281469,3.63207 l -4e-6,0.0703 c 3.703098,0.44553 7.045783,1.91644 10.030985,4.40685 2.982272,2.48455 5.779883,6.49253 8.389902,12.02394 l 8.436428,17.82473 c 1.186378,2.42292 2.431391,4.15444 3.737969,5.19163 1.303649,1.03133 3.093654,1.54706 5.367094,1.5472 l 3.03515,1.8e-4 -5.6e-4,9.39844 -17.23828,-10e-4 c -4.743164,-2.8e-4 -8.572234,-0.51614 -11.484281,-1.54757 -2.906188,-1.03728 -5.261558,-2.68976 -7.066109,-4.95745 -1.798691,-2.27355 -3.409829,-5.43185 -4.839273,-9.48076 l -7.100401,-19.31293 c -1.133618,-2.85944 -2.15595,-4.99232 -3.069928,-6.39862 -0.913978,-1.40631 -2.126806,-2.44056 -3.632626,-3.10569 -1.49996,-0.67099 -3.55951,-1.00802 -6.175721,-1.00818 l -5.249999,-3.2e-4 -0.0018,30.11719 c -1.3e-4,2.17383 0.50368,3.76761 1.511432,4.78134 1.013611,1.00787 2.730377,1.51188 5.14444,1.51203 l 5.332031,3.2e-4 -5.65e-4,9.39844 -49.4296874,-0.003 z M 51.505931,122.77001 c 5.522461,3.3e-4 9.71492,-1.26797 12.574448,-3.80784 2.865387,-2.53693 4.301188,-6.76732 4.301545,-12.69114 3.67e-4,-6.11719 -1.446637,-10.467864 -4.335153,-13.054952 -2.882656,-2.592947 -7.113047,-3.891053 -12.691172,-3.891388 l -10.429688,-6.27e-4 -0.002,33.445317 z m 89.981949,56.61283 c -6.31348,-3.8e-4 -12.01164,-1.32201 -17.09742,-3.96196 -5.07992,-2.63995 -9.09922,-6.46344 -12.0579,-11.47338 -2.96162,-5.00702 -4.44075,-10.91336 -4.44034,-17.71902 4.3e-4,-7.25684 1.52719,-13.73428 4.5832,-19.42941 3.06186,-5.69513 7.30432,-10.14214 12.72736,-13.34689 5.4289,-3.21061 11.54912,-4.81571 18.36357,-4.8153 5.625,3.3e-4 10.6054,1.12563 14.94121,3.37589 4.34166,2.24441 7.73404,5.5493 10.17127,9.91468 2.4431,4.35952 3.66739,9.62131 3.66702,15.78538 -9e-5,1.48535 -0.0764,3.04101 -0.22293,4.66404 l -41.28516,-0.002 c 0.4918,6.36917 2.53643,11.32926 6.13973,14.88318 3.60037,3.54807 8.38445,5.32082 14.35515,5.32118 4.0459,2.4e-4 7.60845,-0.81107 10.68765,-2.43686 3.08505,-1.63165 5.6135,-3.75259 7.58241,-6.36282 l 3.48036,1.85177 c -0.98463,4.18939 -2.76318,8.07112 -5.33273,11.64812 -2.5637,3.57992 -6.05313,6.49182 -10.46537,8.74155 -4.41518,2.24095 -9.67989,3.3627 -15.79708,3.36233 z m 10.20976,-45.44469 c 0.0999,-5.37304 -0.6381,-9.46879 -2.2141,-12.28139 -1.57893,-2.81259 -3.84936,-4.21898 -6.80834,-4.21916 -3.21094,-1.9e-4 -5.84188,1.35903 -7.88697,4.07765 -2.04801,2.71277 -3.31681,6.85234 -3.80934,12.42165 z m 58.75509,45.29357 c -7.99219,-4.8e-4 -16.15713,-1.50683 -24.49191,-4.51319 l -3.54966,-18.79709 5.02735,3e-4 2.9646,4.06659 c 2.90602,3.79704 6.01132,6.62145 9.31589,8.47321 3.31044,1.85176 6.69417,2.77775 10.14827,2.77796 2.8125,1.6e-4 5.22661,-0.63836 7.24231,-1.92144 2.02156,-1.28016 3.03535,-3.25177 3.03551,-5.91779 1.1e-4,-1.875 -0.59452,-3.37797 -1.78098,-4.51183 -1.18059,-1.13972 -3.19909,-2.15058 -6.05841,-3.03552 l -9.84357,-2.96543 c -6.16395,-1.87537 -10.83958,-4.44206 -14.02688,-7.70006 -3.18145,-3.25801 -4.76908,-7.59697 -4.76875,-13.01982 2.8e-4,-4.6875 1.29252,-8.80364 3.87965,-12.35133 2.59299,-3.55356 6.15858,-6.2926 10.69971,-8.2142 4.5382,-1.92746 9.62127,-2.89395 15.24627,-2.89362 7.24805,4.4e-4 15.21669,1.82611 23.90592,5.4741 l -0.001,17.47265 -4.88672,-2.9e-4 -1.47636,-3.32821 c -3.5562,-7.30393 -9.18098,-10.95759 -16.87434,-10.95805 -3.06446,-1.8e-4 -5.45805,0.65592 -7.18372,1.96832 -1.72859,1.30653 -2.59001,2.91781 -2.59013,4.83969 -1.2e-4,1.92187 0.65018,3.43949 1.95676,4.54699 1.31243,1.11043 3.6942,2.18577 7.14824,3.22308 l 8.73031,2.74272 c 6.11707,1.87537 10.73997,4.36881 13.87455,7.47739 3.13164,3.10273 4.69877,7.46513 4.69843,13.09013 -3.1e-4,5.17969 -1.31015,9.57121 -3.92658,13.17164 -2.61056,3.60336 -6.21131,6.30431 -10.80517,8.10872 -4.588,1.79563 -9.79118,2.69473 -15.60954,2.69438 z m 77.99999,0.15117 c -6.81445,-4.1e-4 -13.11905,-1.50664 -18.91379,-4.51285 -5.79767,-3.015 -10.43511,-7.21059 -13.9094,-12.58678 -3.47721,-5.37325 -5.21415,-11.46711 -5.21374,-18.28156 4.1e-4,-6.80273 1.73808,-12.88173 5.21594,-18.23406 3.47493,-5.3494 8.12459,-9.52979 13.94606,-12.53823 5.82733,-3.01429 12.12039,-4.5227 18.87918,-4.5223 6.80274,4.1e-4 13.12784,1.50958 18.97239,4.52458 5.8504,3.00914 10.51421,7.19009 13.99143,12.5399 3.47429,5.35275 5.21416,11.43196 5.21375,18.23469 -4.1e-4,6.81446 -1.74101,12.9081 -5.21595,18.28094 -3.47786,5.37577 -8.14217,9.5708 -13.99294,12.5851 -5.84491,3.0055 -12.17019,4.51098 -18.97293,4.51057 z m 6.1e-4,-10.14843 c 8.53125,5.1e-4 12.79738,-8.40744 12.7984,-25.2297 10e-4,-16.77246 -4.26412,-25.16042 -12.79537,-25.16093 -8.48437,-5.1e-4 -12.72706,8.38693 -12.72807,25.15939 -5.5e-4,9.03223 1.11821,15.49812 3.36211,19.39474 2.24098,3.89076 5.36098,5.83626 9.36293,5.8365 z m 72.81092,10.14988 c -6.65625,-4e-4 -11.90028,-1.94896 -15.72621,-5.8486 -3.82008,-3.89671 -5.72989,-9.62144 -5.72944,-17.16831 l 0.002,-31.30078 c 1.1e-4,-1.875 -0.38359,-3.21682 -1.14819,-4.03132 -0.76753,-0.82036 -2.1093,-1.2306 -4.03118,-1.23071 l -2.51953,-1.6e-4 5.6e-4,-9.39843 32.19141,0.002 -0.002,41.36719 c -2.3e-4,3.89941 0.71444,6.70024 2.14403,8.40247 1.42958,1.70517 3.65024,2.55491 6.66781,2.55509 6.26368,3.8e-4 9.39866,-3.67326 9.3991,-11.02678 l 0.002,-26.63672 c 1.1e-4,-1.875 -0.39532,-3.21682 -1.18336,-4.03132 -0.79096,-0.82036 -2.15031,-1.2306 -4.07805,-1.23071 l -2.28515,-1.4e-4 5.6e-4,-9.39844 31.88672,0.002 -0.003,52.54688 c -1.1e-4,1.875 0.39239,3.21975 1.18335,4.03132 0.78804,0.8145 2.14446,1.21888 4.06634,1.21899 l 2.51953,1.5e-4 -5.7e-4,9.39844 -30.11719,-0.002 -1.69855,-11.09776 -0.89062,-5e-5 c -2.56375,4.4852 -5.4116,7.75456 -8.54356,9.80808 -3.13489,2.04473 -7.16913,3.06988 -12.10565,3.06958 z m 58.46844,-11.18203 2.50781,1.5e-4 c 1.92774,1.2e-4 3.27249,-0.4041 4.03133,-1.21851 0.7647,-0.81147 1.14857,-2.15618 1.14868,-4.03118 l 0.002,-37.88672 c 1.1e-4,-1.875 -0.3836,-3.21682 -1.1482,-4.03131 -0.75874,-0.82036 -2.10344,-1.2306 -4.03117,-1.23072 l -2.50782,-1.5e-4 5.7e-4,-9.39843 31.96875,0.002 -8.5e-4,14.14453 0.58593,4e-5 c 3.15559,-5.23224 6.27595,-9.19299 9.364,-11.88225 3.08512,-2.68634 6.6477,-4.03085 10.68774,-4.03061 1.78125,1.1e-4 3.42185,0.44552 4.9218,1.33623 1.5058,0.88486 2.70104,2.15348 3.58571,3.80881 0.89052,1.64947 1.33572,3.55965 1.33559,5.73055 -1.1e-4,1.875 -0.38401,3.66502 -1.14876,5.36712 -0.76768,1.70503 -1.82831,3.0995 -3.18775,4.1834 -1.35358,1.08683 -2.8917,1.62873 -4.61729,1.62863 -1.08691,-7e-5 -2.12108,-0.17005 -3.10544,-0.51581 -0.98435,-0.35162 -2.0478,-0.8468 -3.18741,-1.48848 -1.18063,-0.59186 -2.17962,-1.03431 -2.99992,-1.32439 -0.81443,-0.29595 -1.68747,-0.44542 -2.62497,-0.44547 -1.47656,-9e-5 -2.92972,0.48029 -4.35946,1.44114 -1.42975,0.96085 -2.63102,2.57797 -3.59795,4.85135 -0.96107,2.26752 -1.44172,5.27335 -1.44195,9.02335 l -10e-4,20.71875 c -1.2e-4,1.875 0.38066,3.21975 1.14819,4.03132 0.7646,0.81449 2.11223,1.21887 4.0429,1.21899 l 5.17968,3.1e-4 -5.6e-4,9.39844 -42.55078,-0.003 z m 98.41632,11.17975 c -6.16406,-3.7e-4 -11.72746,-1.34543 -16.68726,-4.03226 -4.96272,-2.69561 -8.85898,-6.55717 -11.69461,-11.59054 -2.83564,-5.03045 -4.25325,-10.92506 -4.25284,-17.68385 4.4e-4,-7.30371 1.65317,-13.80459 4.9582,-19.4997 3.30503,-5.69512 7.74084,-10.10696 13.3133,-13.24139 5.57831,-3.1315 11.64872,-4.69852 18.21122,-4.69812 4.53808,2.7e-4 8.73042,0.8179 12.57407,2.44997 3.84951,1.62621 6.90797,3.8969 9.17537,6.80915 2.27326,2.90638 3.40978,6.18477 3.40956,9.83223 -2e-4,3.35156 -1.01402,5.87982 -3.03561,7.58185 -2.02451,1.70496 -4.39175,2.55442 -7.10171,2.55426 -2.71289,-1.6e-4 -4.90718,-0.75029 -6.58581,-2.25039 -1.68155,-1.50597 -2.51932,-3.46891 -2.51917,-5.88297 5e-5,-0.84375 0.19933,-1.95702 0.59785,-3.33981 0.38973,-1.28025 0.58608,-2.29098 0.58612,-3.03512 1.2e-4,-1.92187 -0.57987,-3.37503 -1.73411,-4.35948 -1.15717,-0.98444 -2.70108,-1.47672 -4.62882,-1.47684 -2.26757,-1.3e-4 -4.36528,0.85228 -6.29312,2.55431 -1.92198,1.69617 -3.43969,4.0369 -4.5473,7.01926 -1.11053,2.98528 -1.66444,6.35146 -1.66467,10.10146 -2.6e-4,4.3916 0.71434,8.43754 2.14381,12.14076 1.42946,3.69735 3.62362,6.6799 6.58539,8.95352 2.95885,2.26775 6.6121,3.39883 10.95683,3.39909 6.31055,3.8e-4 11.39372,-2.6624 15.24658,-7.99127 l 3.55066,2.00412 c -1.97798,7.20398 -5.58477,12.95474 -10.81745,17.24935 -5.22682,4.28875 -11.80995,6.43288 -19.74648,6.43241 z m 71.18555,0.001 c -6.31348,-3.8e-4 -12.01164,-1.32201 -17.09742,-3.96197 -5.07992,-2.63995 -9.09922,-6.46343 -12.0579,-11.47338 -2.96162,-5.00701 -4.44075,-10.91335 -4.44034,-17.71902 4.3e-4,-7.25683 1.52719,-13.73428 4.5832,-19.42941 3.06186,-5.69513 7.30432,-10.14214 12.72736,-13.34689 5.42891,-3.21061 11.54912,-4.81571 18.36357,-4.8153 5.625,3.4e-4 10.6054,1.12564 14.94121,3.3759 4.34166,2.2444 7.73404,5.54929 10.17127,9.91467 2.4431,4.35952 3.66739,9.62132 3.66702,15.78538 -9e-5,1.48535 -0.0764,3.04101 -0.22293,4.66405 l -41.28516,-0.002 c 0.49181,6.36917 2.53643,11.32925 6.13973,14.88318 3.60037,3.54807 8.38445,5.32081 14.35515,5.32117 4.0459,2.5e-4 7.60845,-0.81106 10.68765,-2.43685 3.08506,-1.63165 5.6135,-3.7526 7.58241,-6.36283 l 3.48036,1.85177 c -0.98463,4.1894 -2.76318,8.07113 -5.33273,11.64812 -2.5637,3.57992 -6.05313,6.49182 -10.46537,8.74156 -4.41518,2.24094 -9.67989,3.3627 -15.79708,3.36233 z m 10.20976,-45.4447 c 0.0999,-5.37304 -0.6381,-9.46879 -2.2141,-12.28138 -1.57893,-2.8126 -3.84936,-4.21898 -6.80834,-4.21916 -3.21094,-2e-4 -5.84188,1.35902 -7.88697,4.07765 -2.04801,2.71277 -3.31681,6.85234 -3.80934,12.42164 z m 116.33223,45.44645 c -9.22851,-5.6e-4 -17.84755,-1.78818 -25.86296,-5.36874 -8.01541,-3.57763 -14.50434,-9.02724 -19.46386,-16.34883 -4.95366,-7.32745 -7.42871,-16.29537 -7.42807,-26.9067 6.7e-4,-11.05371 2.61452,-20.54867 7.84156,-28.48781 5.22704,-7.944995 12.11803,-13.95044 20.67296,-18.022191 8.56079,-4.068821 17.75427,-6.104401 27.57458,-6.103811 5.2793,3.18e-4 10.72848,0.645177 16.34754,1.934577 5.62493,1.283541 11.20294,3.205752 16.73403,5.766631 l 1.69766,25.968854 -8.50781,-5.1e-4 -1.55832,-4.58213 c -2.12657,-6.36634 -5.28449,-11.100902 -9.47962,-14.203693 -4.18926,-3.108651 -9.16964,-4.664614 -14.94112,-4.664961 -5.52539,-3.33e-4 -10.53232,1.505226 -15.02371,4.510815 -4.48553,3.008519 -8.0483,7.511239 -10.68831,13.511079 -2.64294,5.99398 -3.96174,13.25367 -3.96225,21.78492 -5e-4,8.33789 1.26762,15.60359 3.80728,21.7971 2.53674,6.18765 6.07552,10.93396 10.61633,14.23892 4.53789,3.30496 9.69404,4.95761 15.46846,4.95796 4.29492,2.6e-4 7.98343,-0.62647 11.06261,-1.88605 3.08504,-1.25665 5.77168,-3.25161 8.06286,-5.9878 2.29704,-2.74205 4.45644,-6.42747 6.48113,-11.06211 l 2.0745,-4.66394 8.50782,5.1e-4 -3.18898,24.492 c -11.49354,6.21904 -23.77497,9.32669 -36.84431,9.32591 z m 82.73145,-8.9e-4 c -6.31348,-3.7e-4 -12.01164,-1.32201 -17.09742,-3.96196 -5.07992,-2.63995 -9.09922,-6.46344 -12.0579,-11.47338 -2.96162,-5.00702 -4.44075,-10.91336 -4.44035,-17.71902 4.4e-4,-7.25684 1.5272,-13.73428 4.5832,-19.42941 3.06187,-5.69513 7.30432,-10.14214 12.72737,-13.34689 5.4289,-3.21061 11.54912,-4.81571 18.36357,-4.8153 5.625,3.3e-4 10.6054,1.12563 14.9412,3.37589 4.34167,2.24441 7.73404,5.5493 10.17128,9.91468 2.4431,4.35952 3.66739,9.62131 3.66702,15.78538 -9e-5,1.48535 -0.0763,3.04101 -0.22294,4.66404 l -41.28515,-0.002 c 0.4918,6.36917 2.53643,11.32926 6.13973,14.88318 3.60037,3.54807 8.38444,5.32082 14.35515,5.32118 4.0459,2.4e-4 7.60844,-0.81107 10.68764,-2.43686 3.08506,-1.63165 5.61351,-3.75259 7.58242,-6.36282 l 3.48036,1.85177 c -0.98463,4.18939 -2.76319,8.07112 -5.33274,11.64812 -2.56369,3.57992 -6.05312,6.49182 -10.46537,8.74155 -4.41517,2.24095 -9.67989,3.3627 -15.79707,3.36233 z m 10.20976,-45.44469 c 0.0999,-5.37304 -0.6381,-9.46879 -2.2141,-12.28139 -1.57894,-2.81259 -3.84936,-4.21898 -6.80834,-4.21916 -3.21094,-1.9e-4 -5.84188,1.35903 -7.88697,4.07765 -2.04801,2.71277 -3.31682,6.85234 -3.80934,12.42165 z m 74.74013,34.26426 2.07422,1.2e-4 c 1.81933,1.1e-4 3.11135,-0.40411 3.87898,-1.21852 0.76469,-0.81147 1.14856,-2.15618 1.14868,-4.03118 l 0.002,-26.34375 c 2.3e-4,-3.89648 -0.87557,-6.77349 -2.62448,-8.62515 -1.75184,-1.85167 -4.20394,-2.7776 -7.35921,-2.77779 -7.11035,-4.3e-4 -10.6643,3.97201 -10.66478,11.91733 l -0.002,25.82812 c -1.1e-4,1.875 0.36895,3.21975 1.11304,4.03132 0.74116,0.8145 2.02727,1.21887 3.85539,1.21898 l 2.0625,1.2e-4 -5.6e-4,9.39844 -39.21094,-0.002 5.7e-4,-9.39843 2.50781,1.5e-4 c 1.92773,1.1e-4 3.27248,-0.4041 4.03132,-1.21851 0.7647,-0.81148 1.14857,-2.15618 1.14868,-4.03118 l 0.002,-37.88672 c 1.1e-4,-1.875 -0.3836,-3.21682 -1.1482,-4.03132 -0.75874,-0.82036 -2.10344,-1.23059 -4.03117,-1.23071 l -2.50781,-1.5e-4 5.6e-4,-9.39844 31.88672,0.002 -7.2e-4,11.91797 0.59766,3e-5 c 2.7571,-4.34163 5.92429,-7.71058 9.50451,-10.10099 3.5773,-2.39041 7.88108,-3.58546 12.91428,-3.58516 6.8584,4.1e-4 12.29578,2.00172 16.31214,6.00098 4.02222,3.99341 6.03457,9.78552 6.03411,17.37927 l -0.002,30.9375 c -1.1e-4,1.875 0.38067,3.21975 1.1482,4.03132 0.7646,0.8145 2.1093,1.21888 4.03117,1.21899 l 2.51953,1.5e-4 -5.6e-4,9.39844 -39.22266,-0.002 z m 71.09991,11.1781 c -6.75879,-4.1e-4 -12.07607,-1.64428 -15.94892,-4.92283 -3.86699,-3.28149 -5.80028,-8.32652 -5.79987,-15.14098 l 0.002,-39.51562 -10.0664,-6.1e-4 5.2e-4,-8.64844 4.88674,-0.3747 c 2.95314,-0.24885 5.24129,-1.33562 6.86738,-3.2574 1.63195,-1.92178 2.72199,-5.02718 3.27009,-9.316211 l 1.10209,-8.66009 18.43359,0.0011 -0.001,20.859371 19.45312,0.001 -5.6e-4,9.39844 -19.45313,-0.001 -0.002,36.63281 c -1.5e-4,2.41406 0.6267,4.27738 1.88638,5.58996 1.25676,1.30672 2.99402,1.95721 5.21473,1.95734 2.11523,1.3e-4 3.87894,-0.615 5.28527,-1.85124 1.40632,-1.23331 2.55488,-3.20492 3.44566,-5.91776 l 5.47251,2.43783 c -1.37736,6.81437 -4.09935,11.97338 -8.1689,15.47997 -4.07247,3.49781 -9.36359,5.24944 -15.87922,5.24905 z m 62.9004,8.5e-4 c -6.3135,-3.8e-4 -12.0116,-1.32201 -17.0974,-3.96196 -5.07994,-2.63996 -9.09925,-6.46344 -12.05793,-11.47338 -2.96161,-5.00702 -4.44075,-10.91336 -4.44034,-17.71902 4.4e-4,-7.25684 1.52719,-13.73428 4.5832,-19.42941 3.06187,-5.69513 7.30432,-10.14214 12.72737,-13.34689 5.4289,-3.21062 11.5491,-4.81572 18.3636,-4.81531 5.625,3.4e-4 10.6054,1.12564 14.9412,3.3759 4.3416,2.2444 7.734,5.5493 10.1712,9.91468 2.4431,4.35952 3.6674,9.62131 3.6671,15.78537 -10e-5,1.48536 -0.076,3.04101 -0.223,4.66405 l -41.2851,-0.002 c 0.4918,6.36917 2.5364,11.32925 6.1397,14.88318 3.6004,3.54807 8.3845,5.32082 14.3552,5.32118 4.0459,2.4e-4 7.6084,-0.81107 10.6876,-2.43686 3.0851,-1.63165 5.6135,-3.75259 7.5824,-6.36283 l 3.4804,1.85178 c -0.9847,4.18939 -2.7632,8.07112 -5.3328,11.64811 -2.5637,3.57993 -6.0531,6.49183 -10.4653,8.74156 -4.4152,2.24095 -9.6799,3.3627 -15.7971,3.36233 z m 10.2098,-45.4447 c 0.1,-5.37304 -0.6381,-9.46878 -2.2141,-12.28138 -1.579,-2.81259 -3.8494,-4.21898 -6.8084,-4.21916 -3.2109,-1.9e-4 -5.8419,1.35903 -7.887,4.07765 -2.048,2.71277 -3.3168,6.85234 -3.8093,12.42165 z m 29.0165,34.26444 2.5078,1.6e-4 c 1.9277,1.1e-4 3.2724,-0.4041 4.0313,-1.21851 0.7647,-0.81148 1.1486,-2.15618 1.1487,-4.03118 v -37.88672 c 2e-4,-1.875 -0.3836,-3.21682 -1.1481,-4.03132 -0.7588,-0.82036 -2.1035,-1.2306 -4.0312,-1.23071 l -2.5078,-1.5e-4 5e-4,-9.39844 31.9688,0.002 -9e-4,14.14453 0.586,4e-5 c 3.1556,-5.23223 6.2759,-9.19298 9.364,-11.88225 3.0851,-2.68634 6.6477,-4.03085 10.6877,-4.03061 1.7813,1.1e-4 3.4218,0.44552 4.9218,1.33624 1.5058,0.88485 2.701,2.15348 3.5857,3.8088 0.8905,1.64947 1.3357,3.55966 1.3356,5.73055 -10e-5,1.875 -0.384,3.66502 -1.1488,5.36712 -0.7676,1.70503 -1.8283,3.0995 -3.1877,4.1834 -1.3536,1.08684 -2.8917,1.62874 -4.6173,1.62863 -1.0869,-6e-5 -2.1211,-0.17005 -3.1054,-0.51581 -0.9844,-0.35162 -2.0478,-0.8468 -3.1874,-1.48847 -1.1807,-0.59187 -2.1797,-1.03431 -3,-1.3244 -0.8144,-0.29595 -1.6874,-0.44541 -2.6249,-0.44547 -1.4766,-9e-5 -2.9298,0.48029 -4.3595,1.44114 -1.4297,0.96085 -2.631,2.57797 -3.598,4.85135 -0.961,2.26752 -1.4417,5.27335 -1.4419,9.02335 v 20.71875 c -2e-4,1.875 0.3806,3.21975 1.1481,4.03132 0.7646,0.8145 2.1123,1.21888 4.0429,1.21899 l 5.1797,3.1e-4 -5e-4,9.39844 -42.5508,-0.003 z m 0,0"
       style="fill:#071d49;fill-opacity:1;fill-rule:nonzero;stroke:none"
       aria-label="U&#10;ta&#10;h Ge&#10;osp&#10;a&#10;tia&#10;l &#10;R&#10;eso&#10;ur&#10;c&#10;e C&#10;en&#10;t&#10;er"
       transform="matrix(1.3333333,-8.018018e-5,8.018018e-5,1.3333333,633.0148,243.76)" />
    <path
       id="path2"
       d="m 0,0 c -2.578,0 -4.16,-2.274 -4.16,-6.832 0,-4.278 1.582,-6.485 4.16,-6.485 2.574,0 4.133,2.231 4.133,6.555 C 4.133,-2.438 2.59,0 0,0 m 30.898,-6.184 c -2.554,0 -4.16,-2.23 -4.16,-6.019 0,-4.004 1.567,-6.325 4.16,-6.325 2.59,0 4.157,2.274 4.157,6.325 0,3.812 -1.59,6.019 -4.157,6.019 m -62.222,5.016 5.515,-1.844 c 1.102,1.238 1.473,2.531 1.473,4.004 0,3.398 -2.328,5.445 -6.07,5.445 -3.747,0 -5.243,-1.582 -5.243,-3.683 0,-1.793 1.356,-2.946 4.325,-3.93 z m 2.343,-9.196 -5.539,1.934 c -1.449,-1.379 -2.09,-2.734 -2.09,-4.371 0,-3.609 2.348,-5.727 6.688,-5.727 4.113,0 6.023,2.118 6.023,4.184 0,2.066 -1.379,2.688 -5.082,3.98 M 165.699,208.945 -11.633,311.324 -188.957,208.945 V 4.179 L -11.625,-98.199 165.707,4.179 v 204.766 z m 10.168,5.875 V -1.696 l -187.5,-108.253 -187.5,108.253 V 214.82 l 187.5,108.254 z M -7.332,204.953 c 3.086,-1.317 5.371,-2.195 8.457,-2.414 5.351,-0.375 10.808,2.297 11.219,8.043 0.289,4.066 -2.032,5.922 -5.446,7.394 l -3.562,1.543 c -2.211,0.95 -3.227,1.785 -3.094,3.668 0.117,1.707 1.691,2.746 3.977,2.582 2.304,-0.164 3.808,-1.41 4.722,-4.535 l 0.34,-1.183 2.434,-0.168 0.445,6.57 c -2.91,1.324 -5.191,2.004 -7.68,2.183 -5.461,0.383 -10.488,-2.355 -10.883,-7.91 -0.265,-3.75 2.18,-6.203 5.938,-7.761 l 3.613,-1.489 c 2.074,-0.863 2.684,-1.707 2.582,-3.164 -0.156,-2.226 -1.832,-3.086 -4.172,-2.922 -2.492,0.18 -4.781,1.575 -5.937,5.309 l -0.379,1.238 -2.41,0.172 -0.164,-7.164 z m 26.23,13.219 2.395,-0.477 1.152,2.617 c 1.082,2.489 2.422,2.891 4.699,2.434 l 1.246,-0.25 -3.593,-18.055 c -0.215,-1.055 -0.731,-1.504 -2.016,-1.246 l -1.125,0.231 -0.527,-2.625 13.011,-2.594 0.555,2.789 -1.129,0.226 c -1.281,0.258 -1.629,0.7 -1.414,1.754 l 3.594,18.063 1.246,-0.25 c 2.277,-0.453 3.359,-1.332 3.406,-4.051 l 0.055,-2.852 2.394,-0.476 1.711,8.594 -23.937,4.761 -1.715,-8.593 z m 25.692,-19.582 -0.895,-2.512 12.492,-4.442 0.895,2.516 -1.09,0.383 c -1.23,0.437 -1.449,1.086 -1.09,2.098 l 2.524,7.097 0.925,-0.328 c 1.848,-0.66 2.028,-1.519 1.989,-3.363 l -0.133,-5.254 c -0.086,-3.336 0.906,-4.91 4.433,-6.164 l 4.637,-1.645 0.891,2.512 -0.633,0.231 c -1.051,0.375 -1.418,1.07 -1.504,2.246 l -0.375,4.964 c -0.266,3.504 -1.551,4.938 -3.234,5.696 l 0.011,0.039 c 2.633,-0.524 7.223,-0.445 8.618,3.461 1.527,4.293 -2.067,7.16 -6.844,8.851 l -14.012,4.981 -0.894,-2.512 1.066,-0.375 c 1.227,-0.441 1.465,-1.098 1.102,-2.109 L 47.847,199.14 c -0.363,-1.019 -0.957,-1.371 -2.187,-0.933 l -1.063,0.375 z m 32.605,-15.649 11.707,-6.164 1.324,2.516 -1,0.523 c -1.175,0.621 -1.363,1.129 -0.863,2.086 l 3.274,6.219 10.668,5.496 c 1.371,0.715 1.957,0.707 2.96,0.18 l 0.625,-0.328 1.247,2.367 -8.903,4.691 -1.246,-2.359 1.582,-0.828 c 0.914,-0.489 0.891,-1.192 -0.062,-1.723 l -6.461,-3.613 -0.746,7.41 c -0.125,1.09 0.468,1.512 1.386,1.027 l 1.567,-0.824 1.246,2.367 -12.918,6.805 -1.242,-2.363 0.625,-0.332 c 0.988,-0.516 1.34,-1.008 1.527,-2.543 l 1.504,-11.907 -3.274,-6.218 c -0.503,-0.957 -1.128,-1.231 -2.281,-0.625 l -1,0.531 -1.246,-2.367 z M 71.508,51.074 67.992,67.183 c -24.586,-13.109 -134.578,-13.156 -159.328,0 l -3.516,-16.109 c -0.566,-2.578 0.102,-5.312 1.942,-7.223 7.097,-7.386 29.261,-11.992 55.125,-13.808 7.222,0.015 11.836,4.941 13.074,10.832 3.019,14.414 23.207,14.414 26.23,0 1.227,-5.867 5.817,-10.77 12.985,-10.832 24.742,2.058 59.871,6.453 57.011,21.023 z M 42.922,-11.61 c 0,4.965 -3.84,8.805 -9.102,8.805 -3.683,0 -6.418,-1.656 -7.723,-3.933 0.024,8.328 5.926,14.367 16.665,13.699 l -0.415,2.16 c -1.519,0.394 -3.054,0.527 -4.418,0.527 -10.621,0 -19.675,-7.426 -19.675,-18.164 0,-7.176 3.683,-13.269 12.738,-13.269 7.258,0 11.93,4.574 11.93,10.16 z m -30.344,1.426 c 0,6.555 -3.426,13.426 -12.559,13.426 -7.375,0 -12.043,-4.574 -12.043,-10.668 0,-5.453 3.836,-9.293 9.102,-9.293 3.742,0 6.531,1.727 7.816,4.551 -0.14,-5.84 -3.496,-12.297 -14.136,-15.61 l 0.461,-2.089 c 14.41,2.386 21.359,9.265 21.359,19.675 z m -30.25,-1.238 c 0,4.301 -3.445,6.808 -6.828,7.98 2.644,0.809 5.535,2.461 5.535,5.797 0,4.301 -4.348,7.332 -11.145,7.332 -6.796,0 -11.75,-3.445 -11.75,-9.793 0,-3.492 2.625,-6.273 5.907,-7.746 -3.36,-0.781 -6.594,-2.66 -6.594,-6.344 0,-4.324 4.871,-7.566 11.906,-7.566 7.031,0 12.961,3.426 12.961,10.348 z m -29.856,-6.875 h -3.769 c -1.543,0 -2.066,0.641 -2.066,1.957 V 2.691 h -5.61 C -61.5,-0.09 -63.711,-1.285 -68.356,-1.93 v -2.711 c 2.532,0.16 4.325,0.371 5.657,0.574 0.984,0.164 1.519,-0.226 1.519,-1.285 V -16.34 c 0,-1.309 -0.523,-1.957 -2.094,-1.957 h -3.789 v -2.922 h 19.543 v 2.922 z m -51.585,203.332 9.867,3.773 -0.953,2.493 -2.657,-1.02 c -1.222,-0.469 -1.808,-0.117 -2.191,0.895 l -5.375,14.05 0.164,0.063 18.273,-13.707 5.727,2.191 -7.535,19.692 c -0.383,1.011 -0.18,1.66 1.043,2.132 l 1.055,0.407 -0.954,2.5 -9.855,-3.77 0.957,-2.492 2.656,1.02 c 1.219,0.468 1.809,0.117 2.192,-0.883 l 4.191,-10.953 -0.164,-0.063 -15.125,11.352 -10.371,-3.973 0.957,-2.496 1.055,0.406 c 1.222,0.469 1.828,0.125 2.211,-0.887 l 6,-15.687 c 0.382,-1.004 0.164,-1.668 -1.059,-2.129 l -1.059,-0.41 0.957,-2.496 z m -3.68,-2.133 -1.246,2.367 -1.004,-0.535 c -1.156,-0.609 -1.778,-0.328 -2.285,0.621 l -7.84,14.86 c -0.504,0.945 -0.379,1.621 0.773,2.23 l 1.004,0.531 -1.246,2.368 -11.711,-6.18 1.246,-2.367 1.004,0.535 c 1.16,0.609 1.793,0.336 2.301,-0.613 l 7.84,-14.86 c 0.504,-0.953 0.363,-1.633 -0.789,-2.238 l -1.004,-0.524 1.246,-2.367 11.711,6.18 z m 17.84,-86.508 -4.66,-21.336 0.023,-0.015 c 15.703,-13.731 139.98,-13.778 155.852,0 l 0.023,0.015 -4.66,21.328 C 35.308,85.75 -58.528,85.719 -84.953,96.394 m 9.195,29.746 c -3.297,-7.183 -5.824,-14.718 -7.59,-22.449 15.305,-10.258 128.383,-10.164 143.36,-0.008 -1.766,7.715 -4.286,15.235 -7.567,22.403 -3.91,-1.989 -9.73,-3.578 -17.687,-4.879 -23.934,-4.106 -68.77,-4.106 -92.696,0 -8.043,1.316 -13.902,2.922 -17.812,4.941 z m 0.77,94.657 0.554,-2.618 1.113,0.239 c 1.278,0.273 1.825,-0.168 2.043,-1.215 l 3.5,-16.418 c 0.231,-1.051 -0.093,-1.668 -1.367,-1.941 l -1.105,-0.239 0.555,-2.613 11.515,2.457 c 7.59,1.621 15.305,5.977 13.203,15.785 -2.09,9.805 -10.894,10.637 -18.5,9.016 l -11.511,-2.461 z m 34.257,6.757 0.157,-2.66 1.129,0.071 c 1.3,0.078 1.777,-0.43 1.839,-1.504 l 0.754,-12.469 c 0.375,-6.195 4.879,-8.758 11.551,-8.352 6.445,0.391 10.574,3.469 10.199,9.668 l -0.754,12.469 c -0.062,1.07 0.321,1.637 1.629,1.715 l 1.129,0.07 -0.164,2.66 -10.316,-0.625 0.164,-2.664 2.609,0.157 c 1.309,0.082 1.762,-0.43 1.824,-1.5 l 0.746,-12.371 c 0.211,-3.547 -2.148,-4.997 -5.382,-5.192 -3.219,-0.195 -5.543,0.973 -5.758,4.52 l -0.742,12.367 c -0.063,1.074 0.328,1.637 1.629,1.715 l 1.128,0.07 -0.164,2.664 -13.214,-0.801 z m 29.137,-79.914 c -12.633,0 -24.437,0.676 -33.234,1.887 -6.196,0.856 -10.594,1.93 -13.508,3.34 -5.508,-6.156 -10.215,-12.934 -14.125,-20.148 21.367,-9.782 100.094,-9.766 121.625,-0.063 -3.926,7.246 -8.641,14.047 -14.172,20.234 -5.723,-2.726 -18.414,-5.242 -46.578,-5.242 z m -41.184,10.918 c 6.071,-1.746 20.153,-3.57 41.184,-3.57 21.031,0 34.934,1.801 41.066,3.539 -23.71,23.235 -58.539,23.235 -82.25,0.031 m 41.145,136.75 163.453,-94.375 V 12.187 L -11.633,-82.188 -175.086,12.187 v 188.746 z m -46.789,-94.179 0.805,0.172 c 3.476,0.746 6.839,3.855 5.238,11.351 -1.652,7.738 -5.934,8.969 -9.414,8.223 l -2.496,-0.531 3.844,-18 c 0.226,-1.051 0.675,-1.504 2.031,-1.215 z m 118.941,4.199 -2.246,0.797 2.793,7.859 2.227,-0.793 c 2.277,-0.812 3.508,-2.183 2.386,-5.332 -1.07,-3.023 -2.898,-3.34 -5.16,-2.531"
       style="fill:#071d49;fill-opacity:1;fill-rule:nonzero;stroke:none"
       transform="matrix(1.3333333,0,0,-1.3333333,265.526,430.76573)"
       clip-path="url(#clipPath3)" />
  </g>
</svg>
