<?xml version="1.0" encoding="UTF-8" standalone="no"?>
<!-- Created with Inkscape (http://www.inkscape.org/) -->

<svg
   width="132.2495mm"
   height="152.74573mm"
   viewBox="0 0 132.2495 152.74573"
   version="1.1"
   id="svg1"
   inkscape:version="1.4.3 (0d15f75, 2025-12-25)"
   sodipodi:docname="ugrc-logo.svg"
   xmlns:inkscape="http://www.inkscape.org/namespaces/inkscape"
   xmlns:sodipodi="http://sodipodi.sourceforge.net/DTD/sodipodi-0.dtd"
   xmlns="http://www.w3.org/2000/svg"
   xmlns:svg="http://www.w3.org/2000/svg">
  <sodipodi:namedview
     id="namedview1"
     pagecolor="#ffffff"
     bordercolor="#000000"
     borderopacity="0.25"
     inkscape:showpageshadow="2"
     inkscape:pageopacity="0.0"
     inkscape:pagecheckerboard="0"
     inkscape:deskcolor="#d1d1d1"
     inkscape:document-units="mm"
     inkscape:zoom="0.38835017"
     inkscape:cx="284.53702"
     inkscape:cy="311.57448"
     inkscape:window-width="1361"
     inkscape:window-height="745"
     inkscape:window-x="0"
     inkscape:window-y="29"
     inkscape:window-maximized="0"
     inkscape:current-layer="layer1" />
  <defs
     id="defs1">
    <clipPath
       clipPathUnits="userSpaceOnUse"
       id="clipPath11">
      <path
         d="M -199.01348,-109.94571 H 175.86753 V 323.03431 H -199.01348 Z"
         id="path11" />
    </clipPath>
  </defs>
  <g
     inkscape:label="Layer 1"
     inkscape:groupmode="layer"
     id="layer1"
     transform="translate(-48.15234,-67.53756)">
    <path
       id="path10"
       d="m 0,0 c -2.578,0 -4.16,-2.274 -4.16,-6.832 0,-4.278 1.582,-6.485 4.16,-6.485 2.574,0 4.133,2.231 4.133,6.555 C 4.133,-2.438 2.59,0 0,0 m 30.898,-6.184 c -2.554,0 -4.16,-2.23 -4.16,-6.019 0,-4.004 1.567,-6.325 4.16,-6.325 2.59,0 4.157,2.274 4.157,6.325 0,3.812 -1.59,6.019 -4.157,6.019 m -62.222,5.016 5.515,-1.844 c 1.102,1.238 1.473,2.531 1.473,4.004 0,3.398 -2.328,5.445 -6.07,5.445 -3.747,0 -5.243,-1.582 -5.243,-3.683 0,-1.793 1.356,-2.946 4.325,-3.93 z m 2.343,-9.196 -5.539,1.934 c -1.449,-1.379 -2.09,-2.734 -2.09,-4.371 0,-3.609 2.348,-5.727 6.688,-5.727 4.113,0 6.023,2.118 6.023,4.184 0,2.066 -1.379,2.688 -5.082,3.98 M 165.699,208.945 -11.633,311.324 -188.957,208.945 V 4.179 L -11.625,-98.199 165.707,4.179 v 204.766 z m 10.168,5.875 V -1.696 l -187.5,-108.253 -187.5,108.253 V 214.82 l 187.5,108.254 z M -7.332,204.953 c 3.086,-1.317 5.371,-2.195 8.457,-2.414 5.351,-0.375 10.808,2.297 11.219,8.043 0.289,4.066 -2.032,5.922 -5.446,7.394 l -3.562,1.543 c -2.211,0.95 -3.227,1.785 -3.094,3.668 0.117,1.707 1.691,2.746 3.977,2.582 2.304,-0.164 3.808,-1.41 4.722,-4.535 l 0.34,-1.183 2.434,-0.168 0.445,6.57 c -2.91,1.324 -5.191,2.004 -7.68,2.183 -5.461,0.383 -10.488,-2.355 -10.883,-7.91 -0.265,-3.75 2.18,-6.203 5.938,-7.761 l 3.613,-1.489 c 2.074,-0.863 2.684,-1.707 2.582,-3.164 -0.156,-2.226 -1.832,-3.086 -4.172,-2.922 -2.492,0.18 -4.781,1.575 -5.937,5.309 l -0.379,1.238 -2.41,0.172 -0.164,-7.164 z m 26.23,13.219 2.395,-0.477 1.152,2.617 c 1.082,2.489 2.422,2.891 4.699,2.434 l 1.246,-0.25 -3.593,-18.055 c -0.215,-1.055 -0.731,-1.504 -2.016,-1.246 l -1.125,0.231 -0.527,-2.625 13.011,-2.594 0.555,2.789 -1.129,0.226 c -1.281,0.258 -1.629,0.7 -1.414,1.754 l 3.594,18.063 1.246,-0.25 c 2.277,-0.453 3.359,-1.332 3.406,-4.051 l 0.055,-2.852 2.394,-0.476 1.711,8.594 -23.937,4.761 -1.715,-8.593 z m 25.692,-19.582 -0.895,-2.512 12.492,-4.442 0.895,2.516 -1.09,0.383 c -1.23,0.437 -1.449,1.086 -1.09,2.098 l 2.524,7.097 0.925,-0.328 c 1.848,-0.66 2.028,-1.519 1.989,-3.363 l -0.133,-5.254 c -0.086,-3.336 0.906,-4.91 4.433,-6.164 l 4.637,-1.645 0.891,2.512 -0.633,0.231 c -1.051,0.375 -1.418,1.07 -1.504,2.246 l -0.375,4.964 c -0.266,3.504 -1.551,4.938 -3.234,5.696 l 0.011,0.039 c 2.633,-0.524 7.223,-0.445 8.618,3.461 1.527,4.293 -2.067,7.16 -6.844,8.851 l -14.012,4.981 -0.894,-2.512 1.066,-0.375 c 1.227,-0.441 1.465,-1.098 1.102,-2.109 L 47.847,199.14 c -0.363,-1.019 -0.957,-1.371 -2.187,-0.933 l -1.063,0.375 z m 32.605,-15.649 11.707,-6.164 1.324,2.516 -1,0.523 c -1.175,0.621 -1.363,1.129 -0.863,2.086 l 3.274,6.219 10.668,5.496 c 1.371,0.715 1.957,0.707 2.96,0.18 l 0.625,-0.328 1.247,2.367 -8.903,4.691 -1.246,-2.359 1.582,-0.828 c 0.914,-0.489 0.891,-1.192 -0.062,-1.723 l -6.461,-3.613 -0.746,7.41 c -0.125,1.09 0.468,1.512 1.386,1.027 l 1.567,-0.824 1.246,2.367 -12.918,6.805 -1.242,-2.363 0.625,-0.332 c 0.988,-0.516 1.34,-1.008 1.527,-2.543 l 1.504,-11.907 -3.274,-6.218 c -0.503,-0.957 -1.128,-1.231 -2.281,-0.625 l -1,0.531 -1.246,-2.367 z M 71.508,51.074 67.992,67.183 c -24.586,-13.109 -134.578,-13.156 -159.328,0 l -3.516,-16.109 c -0.566,-2.578 0.102,-5.312 1.942,-7.223 7.097,-7.386 29.261,-11.992 55.125,-13.808 7.222,0.015 11.836,4.941 13.074,10.832 3.019,14.414 23.207,14.414 26.23,0 1.227,-5.867 5.817,-10.77 12.985,-10.832 24.742,2.058 59.871,6.453 57.011,21.023 z M 42.922,-11.61 c 0,4.965 -3.84,8.805 -9.102,8.805 -3.683,0 -6.418,-1.656 -7.723,-3.933 0.024,8.328 5.926,14.367 16.665,13.699 l -0.415,2.16 c -1.519,0.394 -3.054,0.527 -4.418,0.527 -10.621,0 -19.675,-7.426 -19.675,-18.164 0,-7.176 3.683,-13.269 12.738,-13.269 7.258,0 11.93,4.574 11.93,10.16 z m -30.344,1.426 c 0,6.555 -3.426,13.426 -12.559,13.426 -7.375,0 -12.043,-4.574 -12.043,-10.668 0,-5.453 3.836,-9.293 9.102,-9.293 3.742,0 6.531,1.727 7.816,4.551 -0.14,-5.84 -3.496,-12.297 -14.136,-15.61 l 0.461,-2.089 c 14.41,2.386 21.359,9.265 21.359,19.675 z m -30.25,-1.238 c 0,4.301 -3.445,6.808 -6.828,7.98 2.644,0.809 5.535,2.461 5.535,5.797 0,4.301 -4.348,7.332 -11.145,7.332 -6.796,0 -11.75,-3.445 -11.75,-9.793 0,-3.492 2.625,-6.273 5.907,-7.746 -3.36,-0.781 -6.594,-2.66 -6.594,-6.344 0,-4.324 4.871,-7.566 11.906,-7.566 7.031,0 12.961,3.426 12.961,10.348 z m -29.856,-6.875 h -3.769 c -1.543,0 -2.066,0.641 -2.066,1.957 V 2.691 h -5.61 C -61.5,-0.09 -63.711,-1.285 -68.356,-1.93 v -2.711 c 2.532,0.16 4.325,0.371 5.657,0.574 0.984,0.164 1.519,-0.226 1.519,-1.285 V -16.34 c 0,-1.309 -0.523,-1.957 -2.094,-1.957 h -3.789 v -2.922 h 19.543 v 2.922 z m -51.585,203.332 9.867,3.773 -0.953,2.493 -2.657,-1.02 c -1.222,-0.469 -1.808,-0.117 -2.191,0.895 l -5.375,14.05 0.164,0.063 18.273,-13.707 5.727,2.191 -7.535,19.692 c -0.383,1.011 -0.18,1.66 1.043,2.132 l 1.055,0.407 -0.954,2.5 -9.855,-3.77 0.957,-2.492 2.656,1.02 c 1.219,0.468 1.809,0.117 2.192,-0.883 l 4.191,-10.953 -0.164,-0.063 -15.125,11.352 -10.371,-3.973 0.957,-2.496 1.055,0.406 c 1.222,0.469 1.828,0.125 2.211,-0.887 l 6,-15.687 c 0.382,-1.004 0.164,-1.668 -1.059,-2.129 l -1.059,-0.41 0.957,-2.496 z m -3.68,-2.133 -1.246,2.367 -1.004,-0.535 c -1.156,-0.609 -1.778,-0.328 -2.285,0.621 l -7.84,14.86 c -0.504,0.945 -0.379,1.621 0.773,2.23 l 1.004,0.531 -1.246,2.368 -11.711,-6.18 1.246,-2.367 1.004,0.535 c 1.16,0.609 1.793,0.336 2.301,-0.613 l 7.84,-14.86 c 0.504,-0.953 0.363,-1.633 -0.789,-2.238 l -1.004,-0.524 1.246,-2.367 11.711,6.18 z m 17.84,-86.508 -4.66,-21.336 0.023,-0.015 c 15.703,-13.731 139.98,-13.778 155.852,0 l 0.023,0.015 -4.66,21.328 C 35.308,85.75 -58.528,85.719 -84.953,96.394 m 9.195,29.746 c -3.297,-7.183 -5.824,-14.718 -7.59,-22.449 15.305,-10.258 128.383,-10.164 143.36,-0.008 -1.766,7.715 -4.286,15.235 -7.567,22.403 -3.91,-1.989 -9.73,-3.578 -17.687,-4.879 -23.934,-4.106 -68.77,-4.106 -92.696,0 -8.043,1.316 -13.902,2.922 -17.812,4.941 z m 0.77,94.657 0.554,-2.618 1.113,0.239 c 1.278,0.273 1.825,-0.168 2.043,-1.215 l 3.5,-16.418 c 0.231,-1.051 -0.093,-1.668 -1.367,-1.941 l -1.105,-0.239 0.555,-2.613 11.515,2.457 c 7.59,1.621 15.305,5.977 13.203,15.785 -2.09,9.805 -10.894,10.637 -18.5,9.016 l -11.511,-2.461 z m 34.257,6.757 0.157,-2.66 1.129,0.071 c 1.3,0.078 1.777,-0.43 1.839,-1.504 l 0.754,-12.469 c 0.375,-6.195 4.879,-8.758 11.551,-8.352 6.445,0.391 10.574,3.469 10.199,9.668 l -0.754,12.469 c -0.062,1.07 0.321,1.637 1.629,1.715 l 1.129,0.07 -0.164,2.66 -10.316,-0.625 0.164,-2.664 2.609,0.157 c 1.309,0.082 1.762,-0.43 1.824,-1.5 l 0.746,-12.371 c 0.211,-3.547 -2.148,-4.997 -5.382,-5.192 -3.219,-0.195 -5.543,0.973 -5.758,4.52 l -0.742,12.367 c -0.063,1.074 0.328,1.637 1.629,1.715 l 1.128,0.07 -0.164,2.664 -13.214,-0.801 z m 29.137,-79.914 c -12.633,0 -24.437,0.676 -33.234,1.887 -6.196,0.856 -10.594,1.93 -13.508,3.34 -5.508,-6.156 -10.215,-12.934 -14.125,-20.148 21.367,-9.782 100.094,-9.766 121.625,-0.063 -3.926,7.246 -8.641,14.047 -14.172,20.234 -5.723,-2.726 -18.414,-5.242 -46.578,-5.242 z m -41.184,10.918 c 6.071,-1.746 20.153,-3.57 41.184,-3.57 21.031,0 34.934,1.801 41.066,3.539 -23.71,23.235 -58.539,23.235 -82.25,0.031 m 41.145,136.75 163.453,-94.375 V 12.187 L -11.633,-82.188 -175.086,12.187 v 188.746 z m -46.789,-94.179 0.805,0.172 c 3.476,0.746 6.839,3.855 5.238,11.351 -1.652,7.738 -5.934,8.969 -9.414,8.223 l -2.496,-0.531 3.844,-18 c 0.226,-1.051 0.675,-1.504 2.031,-1.215 z m 118.941,4.199 -2.246,0.797 2.793,7.859 2.227,-0.793 c 2.277,-0.812 3.508,-2.183 2.386,-5.332 -1.07,-3.023 -2.898,-3.34 -5.16,-2.531"
       style="fill:#071d49;fill-opacity:1;fill-rule:nonzero;stroke:none"
       transform="matrix(0.35277776,0,0,-0.35277776,118.35987,181.49688)"
       clip-path="url(#clipPath11)" />
  </g>
</svg>
