<svg xmlns="http://www.w3.org/2000/svg" xmlns:xlink="http://www.w3.org/1999/xlink" viewBox="0 0 2186.7 712.08"><defs><style>.cls-1,.cls-3{fill:none;}.cls-1{stroke:#292b2a;stroke-miterlimit:10;stroke-width:2px;}.cls-2{fill:#fff;}.cls-3{stroke:#231f20;stroke-width:5px;}</style><clipPath id="clip-path"><polygon id="Inside" class="cls-1" points="-611.1 332.37 -649.36 332.37 -600.89 248.43 -635.01 189.34 -703.25 189.34 -737.36 248.43 -688.9 332.37 -727.16 332.37 -775.63 248.43 -722.38 156.2 -615.88 156.2 -562.63 248.43 -611.1 332.37"/></clipPath></defs><g id="SGID_with_text" data-name="SGID with text"><polygon class="cls-2" points="552.21 600.42 270.03 600.42 128.94 356.04 270.03 111.66 348.26 111.66 348.26 159.34 297.56 159.34 183.99 356.04 297.56 552.74 524.68 552.74 638.24 356.04 524.68 159.34 473.98 159.34 473.98 111.66 552.21 111.66 693.3 356.04 552.21 600.42"/><polygon class="cls-2" points="494.62 476.83 439.56 476.83 509.3 356.04 460.21 271.01 362.02 271.01 312.93 356.04 382.67 476.83 327.61 476.83 257.87 356.04 334.5 223.33 487.74 223.33 564.36 356.04 494.62 476.83"/><polygon class="cls-2" points="616.68 712.08 473.98 712.08 473.98 664.4 589.15 664.4 767.18 356.04 589.15 47.68 233.09 47.68 55.06 356.04 233.09 664.4 348.26 664.4 348.26 712.08 205.56 712.08 0 356.04 205.56 0 616.68 0 822.24 356.04 616.68 712.08"/><path class="cls-2" d="M1153.62,63.72q40.61,28.26,51,78.18L1115.77,160q-4.95-24.69-23-38.13a67.25,67.25,0,0,0-41.15-13.44q-21.93,0-35.65,10.7t-13.72,26.6q0,24.15,29.63,30.73l76.25,17q101,22.49,101,107,0,56.51-43.34,87.78t-108.08,31.27q-64.18,0-108.9-29.35t-51.85-82L990.13,290q13.17,54.3,72.42,54.31,25.23,0,39.77-10.42t14.54-27.43q0-13.17-7.4-20.85t-26.61-11.52L1006,257.67q-98.76-22.5-98.75-106.44,0-53.22,40.05-84.49t105.33-31.27Q1113,35.47,1153.62,63.72Z"/><path class="cls-2" d="M1632.59,194.57a270.82,270.82,0,0,1,2.19,33.47q0,83.4-53.77,137.43t-136.61,54q-83.39,0-140.72-55.41t-57.33-136.61q0-80.66,56.78-136.33t139.63-55.69q63.09,0,111.92,28.8t67.48,81.47L1534.93,171q-26.9-52.66-92.17-52.67-45,0-75.16,31.28t-30.18,77.9q0,46.63,31,78.18t77.08,31.55q35.67,0,61.17-17.56t35.94-48.28H1430.14V194.57Z"/><path class="cls-2" d="M1685.81,411.28V43.7h90.52V411.28Z"/><path class="cls-2" d="M1985.36,43.7q90.51,0,145.93,50.75t55.41,133q0,82.29-55.41,133.05t-145.93,50.74H1840V43.7Zm-3.3,289.13q51.57,0,82.57-28.8t31-76.54q0-47.73-31-76.53t-82.57-28.81h-51.57V332.83Z"/><path class="cls-2" d="M973.82,513.83a17.61,17.61,0,0,1,7.38,11.32l-12.87,2.62a8.69,8.69,0,0,0-3.34-5.52,9.7,9.7,0,0,0-6-2,8.19,8.19,0,0,0-5.16,1.55,4.71,4.71,0,0,0-2,3.85c0,2.33,1.42,3.82,4.28,4.45l11.05,2.47q14.63,3.25,14.62,15.49,0,8.19-6.28,12.71t-15.65,4.53q-9.3,0-15.77-4.25a16.2,16.2,0,0,1-7.51-11.88l13.5-2.62q1.92,7.88,10.49,7.87a9.75,9.75,0,0,0,5.76-1.51,4.66,4.66,0,0,0,2.11-4,4.23,4.23,0,0,0-1.07-3,7.41,7.41,0,0,0-3.86-1.66l-11.12-2.39q-14.3-3.25-14.3-15.41a14.71,14.71,0,0,1,5.8-12.24q5.79-4.53,15.26-4.53Q967.93,509.73,973.82,513.83Z"/><path class="cls-2" d="M1021.58,522.37v41.79h-13V522.37H991.3V510.92h47.52v11.45Z"/><path class="cls-2" d="M1084.75,564.16l-3.73-9.69h-22.41l-3.74,9.69h-14.06l22.25-53.24h13.43l22.25,53.24Zm-14.94-38.46-6.75,17.48h13.59Z"/><path class="cls-2" d="M1131,522.37v41.79h-13V522.37h-17.24V510.92h47.51v11.45Z"/><path class="cls-2" d="M1201.89,564.16h-41.48V510.92h41.24v11.29h-28.13v10h25.82v10.65h-25.82v10h28.37Z"/><path class="cls-2" d="M1294.54,532.78a39.42,39.42,0,0,1,.32,4.84q0,12.07-7.79,19.91t-19.79,7.82a28.19,28.19,0,0,1-20.37-8,27.75,27.75,0,0,1-.08-39.53,27.75,27.75,0,0,1,20.22-8.07,31.33,31.33,0,0,1,16.21,4.17,21.83,21.83,0,0,1,9.77,11.8l-12.63,3.66q-3.9-7.64-13.35-7.63a14.53,14.53,0,0,0-10.89,4.53,16.64,16.64,0,0,0,.12,22.61,15.05,15.05,0,0,0,11.17,4.57,15.23,15.23,0,0,0,8.86-2.55,13.49,13.49,0,0,0,5.2-7h-16.29V532.78Z"/><path class="cls-2" d="M1349.69,564.16h-41.48V510.92h41.25v11.29h-28.13v10h25.82v10.65h-25.82v10h28.36Z"/><path class="cls-2" d="M1409.73,517.84a27.75,27.75,0,0,1,0,39.45,29.19,29.19,0,0,1-40.28,0,27.75,27.75,0,0,1,0-39.45,29.06,29.06,0,0,1,40.28,0Zm-9.25,31a15.5,15.5,0,0,0,4.37-11.25,15.73,15.73,0,0,0-4.37-11.36,15.35,15.35,0,0,0-21.78,0,15.73,15.73,0,0,0-4.37,11.36,15.5,15.5,0,0,0,4.37,11.25,15.45,15.45,0,0,0,21.78,0Z"/><path class="cls-2" d="M1485.42,532.78a37.54,37.54,0,0,1,.32,4.84q0,12.07-7.79,19.91t-19.78,7.82a28.18,28.18,0,0,1-20.38-8,27.75,27.75,0,0,1-.08-39.53,27.75,27.75,0,0,1,20.22-8.07,31.3,31.3,0,0,1,16.21,4.17,21.83,21.83,0,0,1,9.77,11.8l-12.63,3.66q-3.9-7.64-13.35-7.63a14.52,14.52,0,0,0-10.89,4.53,16.64,16.64,0,0,0,.12,22.61,15.07,15.07,0,0,0,11.17,4.57,15.23,15.23,0,0,0,8.86-2.55,13.49,13.49,0,0,0,5.2-7H1456.1V532.78Z"/><path class="cls-2" d="M1532.07,564.16l-16-18.27h-3.82v18.27h-13.1V510.92H1526q8.67,0,13.91,4.81a16.31,16.31,0,0,1,5.24,12.6,16.67,16.67,0,0,1-3.73,11,17.83,17.83,0,0,1-10.26,5.92l16.69,18.91Zm-7.47-29.24a8.46,8.46,0,0,0,5.6-1.75,5.76,5.76,0,0,0,2.11-4.69,5.67,5.67,0,0,0-2.11-4.6,8.46,8.46,0,0,0-5.6-1.75h-12.4v12.79Z"/><path class="cls-2" d="M1598.9,564.16l-3.73-9.69h-22.41l-3.73,9.69H1555l22.25-53.24h13.43l22.25,53.24ZM1584,525.7l-6.75,17.48h13.59Z"/><path class="cls-2" d="M1649.68,510.92q9,0,14.27,5.05t5.28,13.31q0,8.41-5.45,13.51t-14.65,5.08h-12.56v16.29h-13.11V510.92Zm-1.51,26a8.48,8.48,0,0,0,6-2,7,7,0,0,0,2.19-5.44,6.81,6.81,0,0,0-2.23-5.28,8.47,8.47,0,0,0-6-2h-11.6v14.78Z"/><path class="cls-2" d="M1730.74,564.16h-13V543.1H1695.3v21.06h-13.11V510.92h13.11v20.74h22.41V510.92h13Z"/><path class="cls-2" d="M1746,564.16V510.92h13.11v53.24Z"/><path class="cls-2" d="M1827.61,544.22a24.43,24.43,0,0,1-9.14,15.49q-7.31,5.64-17.72,5.64a27.64,27.64,0,0,1-20.06-8,27.85,27.85,0,0,1,0-39.53,27.56,27.56,0,0,1,20.06-8.07,28.29,28.29,0,0,1,17.44,5.57,23.93,23.93,0,0,1,9.34,14.85l-12.87,3a13.36,13.36,0,0,0-13.91-11.44,14.42,14.42,0,0,0-10.76,4.53,16.67,16.67,0,0,0,0,22.61,14.38,14.38,0,0,0,10.76,4.57,13.79,13.79,0,0,0,8.94-3,15.27,15.27,0,0,0,5-8.77Z"/><path class="cls-2" d="M938.3,675.42V622.18h13.11v53.24Z"/><path class="cls-2" d="M1017.44,675.42h-10.81L979.7,644.59v30.83H966.59V622.18h10.88L1004.41,654V622.18h13Z"/><path class="cls-2" d="M1045.81,644.9h25v11.45h-25v19.07H1032.7V622.18h41.16V633.7h-28Z"/><path class="cls-2" d="M1132.86,629.09a27.75,27.75,0,0,1,0,39.45,29.17,29.17,0,0,1-40.28,0,27.78,27.78,0,0,1,0-39.45,29.09,29.09,0,0,1,40.28,0Zm-9.25,31a15.48,15.48,0,0,0,4.37-11.24,15.7,15.7,0,0,0-4.37-11.36,15.34,15.34,0,0,0-21.77,0,15.65,15.65,0,0,0-4.37,11.36,15.44,15.44,0,0,0,4.37,11.24,15.44,15.44,0,0,0,21.77,0Z"/><path class="cls-2" d="M1187.42,675.42l-16.05-18.28h-3.82v18.28h-13.1V622.18h26.93q8.67,0,13.91,4.81a16.29,16.29,0,0,1,5.24,12.59,16.66,16.66,0,0,1-3.73,11,17.89,17.89,0,0,1-10.25,5.92l16.68,18.91ZM1180,646.18a8.51,8.51,0,0,0,5.6-1.75,5.78,5.78,0,0,0,2.11-4.69,5.69,5.69,0,0,0-2.11-4.61,8.51,8.51,0,0,0-5.6-1.75h-12.4v12.8Z"/><path class="cls-2" d="M1275.78,675.42h-12.71V648.88l-13.9,26.54h-8.11l-14-26.7v26.7h-12.72V622.18h12.88l17.88,33,17.87-33h12.79Z"/><path class="cls-2" d="M1330.3,675.42l-3.74-9.7h-22.4l-3.73,9.7h-14.07l22.25-53.24H1322l22.25,53.24ZM1315.36,637l-6.75,17.48h13.58Z"/><path class="cls-2" d="M1376.55,633.62v41.8h-13v-41.8h-17.24V622.18h47.51v11.44Z"/><path class="cls-2" d="M1406,675.42V622.18h13.11v53.24Z"/><path class="cls-2" d="M1480.93,629.09a27.78,27.78,0,0,1,0,39.45,29.18,29.18,0,0,1-40.29,0,27.78,27.78,0,0,1,0-39.45,29.1,29.1,0,0,1,40.29,0Zm-9.26,31a15.44,15.44,0,0,0,4.37-11.24,15.65,15.65,0,0,0-4.37-11.36,15.34,15.34,0,0,0-21.77,0,15.65,15.65,0,0,0-4.37,11.36,15.44,15.44,0,0,0,4.37,11.24,15.44,15.44,0,0,0,21.77,0Z"/><path class="cls-2" d="M1553.37,675.42h-10.81l-26.94-30.83v30.83h-13.11V622.18h10.89L1540.33,654V622.18h13Z"/><path class="cls-2" d="M1614.08,622.18q13.11,0,21.14,7.35t8,19.27q0,11.91-8,19.27t-21.14,7.35h-21V622.18Zm-.48,41.87q7.47,0,12-4.17a15.93,15.93,0,0,0,0-22.17q-4.49-4.17-12-4.17h-7.47v30.51Z"/><path class="cls-2" d="M1693.87,675.42l-3.74-9.7h-22.41l-3.73,9.7h-14.07l22.25-53.24h13.43l22.25,53.24ZM1678.93,637l-6.76,17.48h13.59Z"/><path class="cls-2" d="M1740.11,633.62v41.8h-13v-41.8h-17.24V622.18h47.51v11.44Z"/><path class="cls-2" d="M1803.29,675.42l-3.74-9.7h-22.4l-3.73,9.7h-14.07l22.25-53.24H1795l22.25,53.24ZM1788.35,637l-6.75,17.48h13.58Z"/><path class="cls-2" d="M1862,625.08a17.68,17.68,0,0,1,7.38,11.32L1856.53,639a8.76,8.76,0,0,0-3.33-5.53,9.81,9.81,0,0,0-6-1.94,8.17,8.17,0,0,0-5.16,1.54,4.74,4.74,0,0,0-2,3.86q0,3.49,4.29,4.45l11.05,2.46q14.63,3.25,14.62,15.5a14.76,14.76,0,0,1-6.28,12.71q-6.27,4.53-15.65,4.53t-15.77-4.25a16.24,16.24,0,0,1-7.51-11.88l13.5-2.62q1.92,7.86,10.49,7.86a9.73,9.73,0,0,0,5.77-1.51,4.66,4.66,0,0,0,2.1-4,4.19,4.19,0,0,0-1.07-3,7.41,7.41,0,0,0-3.86-1.67l-11.12-2.38q-14.31-3.25-14.3-15.42a14.69,14.69,0,0,1,5.8-12.23q5.8-4.53,15.26-4.53Q1856.13,621,1862,625.08Z"/><path class="cls-2" d="M1929.92,629.09a27.78,27.78,0,0,1,0,39.45,29.18,29.18,0,0,1-40.29,0,27.78,27.78,0,0,1,0-39.45,29.1,29.1,0,0,1,40.29,0Zm-9.26,31a15.44,15.44,0,0,0,4.37-11.24,15.65,15.65,0,0,0-4.37-11.36,15.34,15.34,0,0,0-21.77,0,15.7,15.7,0,0,0-4.37,11.36,15.48,15.48,0,0,0,4.37,11.24,15.44,15.44,0,0,0,21.77,0Z"/><path class="cls-2" d="M1999.1,651.42q0,11.45-6.48,18.32t-17.12,6.87q-10.89,0-17.52-6.87t-6.64-18.32V622.18h13.11v29.24q0,6,3,9.58a10.06,10.06,0,0,0,8,3.53,9.33,9.33,0,0,0,7.63-3.53q2.85-3.54,2.86-9.58V622.18h13.11Z"/><path class="cls-2" d="M2047.1,675.42,2031,657.14h-3.81v18.28h-13.11V622.18h26.94q8.66,0,13.9,4.81a16.26,16.26,0,0,1,5.25,12.59,16.67,16.67,0,0,1-3.74,11,17.85,17.85,0,0,1-10.25,5.92l16.69,18.91Zm-7.47-29.24a8.51,8.51,0,0,0,5.6-1.75,5.8,5.8,0,0,0,2.1-4.69,5.71,5.71,0,0,0-2.1-4.61,8.51,8.51,0,0,0-5.6-1.75h-12.4v12.8Z"/><path class="cls-2" d="M2126.56,655.47a24.45,24.45,0,0,1-9.14,15.5q-7.3,5.64-17.72,5.64a27.64,27.64,0,0,1-20.06-8,27.85,27.85,0,0,1,0-39.53A27.59,27.59,0,0,1,2099.7,621a28.26,28.26,0,0,1,17.44,5.56,24,24,0,0,1,9.34,14.86l-12.88,3A13.34,13.34,0,0,0,2099.7,633a14.4,14.4,0,0,0-10.76,4.53,15.51,15.51,0,0,0-4.41,11.28,15.67,15.67,0,0,0,4.41,11.32,14.36,14.36,0,0,0,10.76,4.57,13.76,13.76,0,0,0,8.94-3,15.26,15.26,0,0,0,5.05-8.78Z"/><path class="cls-2" d="M2181.4,675.42h-41.48V622.18h41.24v11.28H2153v10h25.82v10.65H2153v10h28.37Z"/><rect class="cls-2" x="1867.56" y="528.82" width="305.91" height="8.72"/></g><g id="SGID_30" data-name="SGID 30"><polygon id="Inside-2" data-name="Inside" class="cls-1" points="-611.1 332.37 -649.36 332.37 -600.89 248.43 -635.01 189.34 -703.25 189.34 -737.36 248.43 -688.9 332.37 -727.16 332.37 -775.63 248.43 -722.38 156.2 -615.88 156.2 -562.63 248.43 -611.1 332.37"/><polygon id="Middle" class="cls-1" points="-473.03 248.43 -571.08 78.6 -625.45 78.6 -625.45 111.74 -590.21 111.74 -511.29 248.43 -590.21 385.12 -748.05 385.12 -826.97 248.43 -748.05 111.74 -712.81 111.74 -712.81 78.6 -767.18 78.6 -865.23 248.43 -767.18 418.26 -571.08 418.26 -473.03 248.43"/><polygon id="Outside" class="cls-1" points="-383.42 248.43 -526.27 1 -811.98 1 -954.83 248.43 -811.98 495.86 -732.12 495.86 -732.12 462.73 -792.85 462.73 -916.57 248.43 -792.85 34.14 -545.4 34.14 -421.68 248.43 -545.4 462.73 -616.75 462.73 -616.75 495.86 -526.27 495.86 -383.42 248.43"/></g><g id="SGID_wavy" data-name="SGID wavy"><path id="SGID_clipping_mask" data-name="SGID clipping mask" class="cls-3" d="M7337.56-5066.26H7282.5L7352.24-5187l-49.09-85H7205l-49.09,85,69.74,120.79h-55.06L7100.81-5187l76.62-132.72h153.25L7407.3-5187ZM7536.24-5187l-141.1-244.38h-78.23v47.68h50.71L7481.18-5187l-113.56,196.69H7140.49L7026.93-5187l113.56-196.7h50.71v-47.68H7113L6971.87-5187,7113-4942.68h282.18Zm128.93,0-205.55-356H7048.49l-205.55,356,205.55,356h140.74v-47.68H7076L6898-5187l178-308.36h356.07l178,308.36-178,308.36H7314.22V-4831h145.4Z"/></g></svg>