<svg xmlns="http://www.w3.org/2000/svg" viewBox="0 0 500 500"><g id="freepik--background-complete--inject-102"><path d="M459.48,153H351.8s10.68-29.16,27.11-29.16,21.58,20.12,21.58,20.12S411.57,133,420.68,133s17,14.45,17,14.45S450.57,139.66,459.48,153Z" style="fill:#ebebeb"></path><path d="M328.33,95.28H278S289.26,79,298.12,79s11.47,10.86,11.47,10.86,6.25-5.07,12.05-4.16S328.33,95.28,328.33,95.28Z" style="fill:#ebebeb"></path><path d="M248.24,188.7H197.92s11.24-16.29,20.1-16.29,11.48,10.86,11.48,10.86,6.25-5.07,12-4.16S248.24,188.7,248.24,188.7Z" style="fill:#ebebeb"></path><path d="M138.53,124.75h-98s13.42-30,27.78-31.84,21.23,22.27,21.23,22.27,9.26-8.53,16.54-8.53S119,117.89,119,117.89,133.54,110.19,138.53,124.75Z" style="fill:#ebebeb"></path><path d="M206.06,70.13H139.85s11.37-21.71,23.71-22,18.82,16.43,18.82,16.43S201.58,49.14,206.06,70.13Z" style="fill:#ebebeb"></path><path d="M40.52,337.51S120.15,288,178.3,288c56.92,0,134.13,25,155.12,30.63,55.11,14.73,126.06,18.91,126.06,18.91Z" style="fill:#dbdbdb"></path><path d="M459.48,337.51S416.07,304.3,367,304.3c-34.22,0-83.34,13.37-129.61,20.89-17.61,2.86-109.31,12.32-109.31,12.32Z" style="fill:#c7c7c7"></path><polygon points="370 337.53 369.3 337.53 353.66 283 354.32 282.81 370 337.53" style="fill:#ebebeb"></polygon><polygon points="351.19 281.95 351.33 282.01 353.78 283.38 352.14 277.66 349.54 276.19 351.19 281.95" style="fill:#ebebeb"></polygon><path d="M354.15,274.86l-1.36,2.61,1.64,5.73a13.12,13.12,0,0,1,1.37-2.59Z" style="fill:#ebebeb"></path><path d="M175.44,372.3c-.07-.86-1.41-.87-1.35,0,.17,2.11.33,4.21.49,6.32.07.86,1.41.87,1.35,0C175.77,376.51,175.6,374.41,175.44,372.3Z" style="fill:#ebebeb"></path><path d="M179.21,373a8.68,8.68,0,0,0-2.59,5.67c-.06.87,1.29.86,1.35,0a7.15,7.15,0,0,1,2.19-4.71C180.78,373.3,179.82,372.35,179.21,373Z" style="fill:#ebebeb"></path><path d="M344.83,440.87c-.07-.86-1.41-.86-1.35,0q.25,3.17.49,6.32c.07.86,1.41.87,1.35,0Q345.06,444,344.83,440.87Z" style="fill:#ebebeb"></path><path d="M348.6,441.53a8.63,8.63,0,0,0-2.59,5.66c-.06.87,1.29.86,1.35,0a7.17,7.17,0,0,1,2.19-4.71C350.17,441.87,349.21,440.92,348.6,441.53Z" style="fill:#ebebeb"></path><path d="M454.56,398.27c-.07-.85-1.41-.86-1.35,0,.16,2.11.33,4.22.49,6.32.06.86,1.41.87,1.35,0Q454.79,401.44,454.56,398.27Z" style="fill:#ebebeb"></path><path d="M458.32,398.93a8.67,8.67,0,0,0-2.58,5.67c-.06.86,1.29.86,1.35,0a7.2,7.2,0,0,1,2.19-4.72C459.89,399.27,458.94,398.32,458.32,398.93Z" style="fill:#ebebeb"></path><path d="M293.27,368.49c.07-.86,1.41-.86,1.35,0q-.25,3.17-.49,6.32c-.07.86-1.41.87-1.35,0Q293,371.66,293.27,368.49Z" style="fill:#ebebeb"></path><path d="M289.5,369.15a8.63,8.63,0,0,1,2.59,5.66c.06.87-1.29.86-1.35,0a7.17,7.17,0,0,0-2.19-4.71C287.93,369.49,288.89,368.54,289.5,369.15Z" style="fill:#ebebeb"></path><path d="M41.59,375.57c-.74-.46-1.51.65-.77,1.1a4.26,4.26,0,0,1,2.07,3.6c0,.86,1.34,1,1.34.1A5.57,5.57,0,0,0,41.59,375.57Z" style="fill:#ebebeb"></path><path d="M46.3,380.42l-.66-8.05c-.07-.87-1.39-.61-1.32.25l.66,8.06C45.05,381.54,46.37,381.28,46.3,380.42Z" style="fill:#ebebeb"></path><path d="M48.22,375.79A6.18,6.18,0,0,0,47,380.16c.07.86,1.39.6,1.32-.26a4.76,4.76,0,0,1,1-3.34C49.86,375.87,48.75,375.11,48.22,375.79Z" style="fill:#ebebeb"></path><path d="M215.32,409.17c-.74-.45-1.51.65-.77,1.1a4.22,4.22,0,0,1,2.06,3.6c0,.86,1.35,1,1.35.1A5.59,5.59,0,0,0,215.32,409.17Z" style="fill:#ebebeb"></path><path d="M220,414l-.66-8c-.07-.87-1.39-.61-1.32.25l.66,8.06C218.78,415.14,220.1,414.88,220,414Z" style="fill:#ebebeb"></path><path d="M222,409.39a6.23,6.23,0,0,0-1.26,4.37c.07.86,1.4.6,1.33-.26a4.76,4.76,0,0,1,1-3.34C223.59,409.47,222.48,408.71,222,409.39Z" style="fill:#ebebeb"></path><path d="M96.48,418.23a13.89,13.89,0,0,0-2.29-5.74c-.49-.71-1.65,0-1.16.68a13,13,0,0,1,2.15,5.42C95.31,419.44,96.61,419.08,96.48,418.23Z" style="fill:#ebebeb"></path><path d="M98.21,413.05a13.34,13.34,0,0,0-.93,5.86c.06.86,1.38.63,1.33-.23a11.6,11.6,0,0,1,.86-5.14A.68.68,0,0,0,98.21,413.05Z" style="fill:#ebebeb"></path><path d="M107.09,354.5l-.87-6.25c-.12-.86-1.42-.49-1.3.36l.87,6.24C105.91,355.71,107.21,355.34,107.09,354.5Z" style="fill:#ebebeb"></path><path d="M105,355.39a6.44,6.44,0,0,0-3-4.55c-.74-.46-1.42.7-.68,1.16a5.22,5.22,0,0,1,2.38,3.75C103.8,356.6,105.09,356.24,105,355.39Z" style="fill:#ebebeb"></path><path d="M109.34,351.47a6.49,6.49,0,0,0-1.67,5.48c.13.85,1.43.49,1.3-.36a5,5,0,0,1,1.32-4.17C110.88,351.79,109.93,350.83,109.34,351.47Z" style="fill:#ebebeb"></path><path d="M321.36,390.12l-.87-6.25c-.12-.85-1.42-.49-1.3.36l.87,6.24C320.18,391.33,321.48,391,321.36,390.12Z" style="fill:#ebebeb"></path><path d="M319.25,391a6.51,6.51,0,0,0-3-4.55c-.74-.46-1.42.7-.68,1.16a5.24,5.24,0,0,1,2.38,3.75C318.07,392.22,319.37,391.86,319.25,391Z" style="fill:#ebebeb"></path><path d="M323.61,387.09a6.49,6.49,0,0,0-1.67,5.48c.13.85,1.43.49,1.3-.36a5,5,0,0,1,1.32-4.17C325.15,387.41,324.2,386.46,323.61,387.09Z" style="fill:#ebebeb"></path><path d="M429.72,417.53l-.87-6.25c-.11-.85-1.41-.49-1.29.36q.44,3.12.86,6.25C428.54,418.74,429.84,418.38,429.72,417.53Z" style="fill:#ebebeb"></path><path d="M427.61,418.42a6.45,6.45,0,0,0-3-4.55c-.73-.46-1.41.7-.68,1.16a5.21,5.21,0,0,1,2.38,3.75C426.43,419.63,427.73,419.27,427.61,418.42Z" style="fill:#ebebeb"></path><path d="M432,414.5a6.46,6.46,0,0,0-1.67,5.48c.13.85,1.42.49,1.3-.36a5,5,0,0,1,1.32-4.17C433.52,414.82,432.57,413.87,432,414.5Z" style="fill:#ebebeb"></path></g><g id="freepik--Shadow--inject-102"><ellipse cx="143.5" cy="432.57" rx="95.73" ry="18.22" style="fill:#ebebeb"></ellipse></g><g id="freepik--Floor--inject-102"><polygon points="35.73 337.46 89.3 337.22 142.86 337.13 250 336.96 357.14 337.13 410.7 337.22 464.27 337.46 410.7 337.71 357.14 337.79 250 337.96 142.86 337.79 89.3 337.7 35.73 337.46" style="fill:#263238"></polygon></g><g id="freepik--Trees--inject-102"><path d="M57.13,283.26s14.63,32.5-9.26,32.53-8.44-33.61-8.44-33.61-5.53-2.43.86-20.58,9.26-18.14,11.93-18.15c3.36,0,6.51,7.85,4.22,19.91C56.44,263.36,64.86,278.39,57.13,283.26Z" style="fill:#37474f"></path><polygon points="45.78 337.35 48.02 288.37 50.38 337.35 45.78 337.35" style="fill:#263238"></polygon><polygon points="47.11 308.91 55.78 298.76 48.98 310.25 47.11 308.91" style="fill:#263238"></polygon><path d="M62.5,287.37s-6.73-2.66-12.06,6.64c-5.47,9.53,1.4,15.8,6.85,12.06,0,0,4.28,9,12.82,6.82s9.92-9,9.92-9,7.59.52,7.8-5.14-5.36-10.67-5.36-10.67-.33-14.1-9.52-14S62.5,287.37,62.5,287.37Z" style="fill:#455a64"></path><polygon points="68.8 337.33 70.68 295.37 72.65 337.32 68.8 337.33" style="fill:#263238"></polygon><polygon points="70.13 311.14 64.22 299.38 71.09 309.3 70.13 311.14" style="fill:#263238"></polygon><path d="M291.5,277.11s16.23,36.05-10.27,36.07-9.36-37.27-9.36-37.27-6.13-2.69,1-22.82S283.1,233,286.05,233c3.74,0,7.22,8.71,4.69,22.08C290.74,255,300.08,271.71,291.5,277.11Z" style="fill:#37474f"></path><polygon points="278.91 337.1 281.4 282.78 284.02 337.1 278.91 337.1" style="fill:#263238"></polygon><polygon points="280.39 305.55 290.01 294.3 282.47 307.04 280.39 305.55" style="fill:#263238"></polygon><path d="M180.75,284.77s-14.14,31.6,9.06,31.57,8.13-32.67,8.13-32.67,5.37-2.36-.88-20-9-17.61-11.62-17.6c-3.27,0-6.31,7.63-4.06,19.34C181.38,265.43,173.23,280.05,180.75,284.77Z" style="fill:#37474f"></path><polygon points="191.9 337.29 189.61 289.71 187.42 337.29 191.9 337.29" style="fill:#263238"></polygon><polygon points="190.54 309.66 182.09 299.82 188.72 310.96 190.54 309.66" style="fill:#263238"></polygon><path d="M250.47,281s-7.56-3-13.54,7.45c-6.14,10.7,1.57,17.74,7.68,13.54,0,0,4.81,10.07,14.4,7.66s11.15-10.09,11.15-10.09,8.51.59,8.74-5.76-6-12-6-12-.37-15.83-10.69-15.7S250.47,281,250.47,281Z" style="fill:#455a64"></path><polygon points="257.55 337.13 259.65 290.02 261.86 337.12 257.55 337.13" style="fill:#263238"></polygon><polygon points="259 307.67 252.4 294.52 260.31 305.64 259 307.67" style="fill:#263238"></polygon></g><g id="freepik--Target--inject-102"><rect x="375.21" y="327.87" width="42.9" height="1.8" transform="translate(793.31 657.54) rotate(180)" style="fill:#455a64"></rect><polygon points="416.48 329.67 437.54 325.59 437.54 323.79 416.48 327.87 416.48 329.67" style="fill:#455a64"></polygon><polygon points="368.46 367.46 365.17 367.46 383.33 275.03 391.53 275.03 368.46 367.46" style="fill:#455a64"></polygon><path d="M383.33,275h8.2l-4.88,19.55A43,43,0,0,1,380,292Z" style="fill:#37474f"></path><polygon points="425.91 367.46 429.2 367.46 406.13 275.03 397.93 275.03 425.91 367.46" style="fill:#455a64"></polygon><path d="M406.13,275l4.93,19.75a44,44,0,0,1-6.74,1.35L397.94,275Z" style="fill:#37474f"></path><polygon points="453.24 367.46 456.53 367.46 416.68 270.01 408.48 270.01 453.24 367.46" style="fill:#455a64"></polygon><path d="M424.26,288.58a46.63,46.63,0,0,1-5.68,3.33L408.48,270h8.2Z" style="fill:#37474f"></path><ellipse cx="406.52" cy="241.03" rx="51.65" ry="43.75" transform="translate(31.29 528.35) rotate(-68.11)" style="fill:#FFC727"></ellipse><polygon points="404.51 189.75 414.91 190.52 397.85 291.5 387.45 290.73 404.51 189.75" style="fill:#FFC727"></polygon><g style="opacity:0.1"><ellipse cx="406.52" cy="241.03" rx="51.65" ry="43.75" transform="translate(31.29 528.35) rotate(-68.11)"></ellipse><polygon points="404.51 189.75 414.91 190.52 397.85 291.5 387.45 290.73 404.51 189.75"></polygon></g><ellipse cx="396.95" cy="240.31" rx="51.65" ry="43.75" transform="translate(25.95 519.03) rotate(-68.11)" style="fill:#FFC727"></ellipse><ellipse cx="396.95" cy="240.31" rx="40.29" ry="34.13" transform="translate(25.95 519.03) rotate(-68.11)" style="fill:#fff"></ellipse><ellipse cx="396.95" cy="240.31" rx="29.05" ry="24.61" transform="translate(25.96 519.03) rotate(-68.11)" style="fill:#FFC727"></ellipse><ellipse cx="396.95" cy="240.31" rx="17.69" ry="14.98" transform="translate(25.96 519.03) rotate(-68.11)" style="fill:#fff"></ellipse><path d="M403.8,239.47c0,4.24-3.1,8.05-6.89,8.51s-6.83-2.59-6.81-6.82,3.11-8,6.89-8.52S403.82,235.23,403.8,239.47Z" style="fill:#FFC727"></path></g><g id="freepik--Arrows--inject-102"><rect x="355.14" y="178.65" width="0.8" height="76.85" transform="translate(21.54 466.03) rotate(-68.11)" style="fill:#263238"></rect><polygon points="317 204.64 317.16 204.56 320.17 203.29 313.74 200.7 310.52 202.04 317 204.64" style="fill:#263238"></polygon><path d="M312.61,196.85,314,200l6.44,2.58a14.74,14.74,0,0,1-1.41-3.1Z" style="fill:#263238"></path><polygon points="392.8 230.65 391.75 233.07 388.32 233.12 390.37 231.07 390.31 228.18 392.8 230.65" style="fill:#263238"></polygon><rect x="404.6" y="173.65" width="0.8" height="76.85" transform="matrix(0.65, -0.76, 0.76, 0.65, -18.72, 383.73)" style="fill:#263238"></rect><polygon points="372.36 188.1 372.55 188.08 375.81 187.82 370.52 183.34 367.04 183.59 372.36 188.1" style="fill:#263238"></polygon><path d="M370.66,179.33l.37,3.4,5.29,4.49a15.31,15.31,0,0,1-.36-3.39Z" style="fill:#263238"></path><polygon points="436.41 237.4 435.04 238.91 431.04 237.66 433.63 236.36 434.49 233.59 436.41 237.4" style="fill:#263238"></polygon><rect x="346.6" y="292.11" width="0.69" height="66.02" transform="translate(-111.35 198.45) rotate(-27.69)" style="fill:#263238"></rect><polygon points="328.66 295.52 328.81 295.56 331.49 296.4 328.72 291.13 325.87 290.21 328.66 295.52" style="fill:#263238"></polygon><path d="M330.12,288l-.8,2.83,2.77,5.28a12.7,12.7,0,0,1,.81-2.81Z" style="fill:#263238"></path><polygon points="363.73 354.45 360.14 354.45 359.44 353.88 361.93 353.68 363.5 351.75 363.73 354.45" style="fill:#263238"></polygon></g><g id="freepik--Character--inject-102"><path d="M181.69,435.29c-2.07.67-62.79.12-65-1.33-.86-.54,3.62-58.1,3.62-58.1l38.63.26-4,38.51s22.53,10.33,24.82,12.19S183.76,434.62,181.69,435.29Z" style="fill:#d3766a"></path><path d="M181.69,435.29c-2.07.67-62.79.12-65-1.33-.27-.17-.42-6,.45-13.62,11,1.71,50.39,7.25,53.43,5.41,2.11-1.28.2-3.22-1.56-4.51,5,2.44,9.76,4.78,10.73,5.58C182,428.66,183.76,434.62,181.69,435.29Z" style="fill:#263238"></path><path d="M157.91,405.37H115.35s8-90.63,7.68-92.36c-.43-2.23-2.94-12.29-6.29-25.44-1-4.11-2.17-8.52-3.35-13.1-3.17-12.37-6.67-25.88-9.72-37.64-4.57-17.63-8.15-31.31-8.15-31.31H131.6s4.2,13.32,9.5,30.66c8.64,28.18,20.17,67,21.31,76.4C164.26,327.81,157.91,405.37,157.91,405.37Z" style="fill:#263238"></path><path d="M156,398.11c-6.5-.14-4.63-.19-11.14-.25-3.18,0-24.09-.21-27.06.28-.06,0-.06.12,0,.13,3,.49,23.88.31,27.06.28,6.51-.06,4.64-.11,11.14-.25A.1.1,0,0,0,156,398.11Z" style="fill:#37474f"></path><path d="M131,306.93c-1.4-6.15-3.48-12.18-5.3-18.22q-5.53-18.4-11.13-36.8-2.81-9.19-5.62-18.38c-.95-3.09-1.9-6.19-2.87-9.27s-2-6-2.88-9.07c-.35-1.24-.54-.56-.09,1,.9,3.17,1.78,6.35,2.71,9.52q2.74,9.41,5.53,18.8,5.53,18.71,11.17,37.38,2.81,9.38,5.63,18.74a74.2,74.2,0,0,1,2.3,9.06,41.9,41.9,0,0,1,.38,9.69c-.41,6.51-1.16,13-1.76,19.51s-1.21,13-1.81,19.54c-1.2,12.95-1.84,17.13-3,30.09q-.23,2.46-.42,4.92c0,.55.79.51.85,0,1.4-12.81,1.92-16.88,3.12-29.71s2.4-25.54,3.59-38.31c.3-3.2.64-6.41.64-9.64A39.34,39.34,0,0,0,131,306.93Z" style="fill:#37474f"></path><path d="M127.5,205.52c-2.5,19.37-7.28,55.7-10.76,82-8.13-31.93-21.22-82-21.22-82Z" style="fill:#37474f"></path><path d="M136.36,436c-2.07.67-62.78.12-65-1.33-.86-.54,1-58.1,1-58.1l38.63.26-1.36,38.51s22.53,10.33,24.82,12.19S138.44,435.33,136.36,436Z" style="fill:#d3766a"></path><path d="M136.36,436c-2.06.67-62.78.12-65-1.33-.27-.17-.28-5.85-.16-13.62,11,1.71,51,7.25,54,5.41,2.12-1.28.2-3.22-1.56-4.51,5.05,2.43,9.76,4.78,10.73,5.58C136.67,429.37,138.43,435.33,136.36,436Z" style="fill:#263238"></path><path d="M130.43,205.52s-.83,17.26-4.78,30.93c-.32,1.13-.66,2.24-1,3.3a65.06,65.06,0,0,0-10.4,5.35s-.41,13.89-.83,29.37c-.46,17.32-.94,36.63-.84,40.72.36,15.33-1.5,90-1.5,90l-42.56.17s7.28-84.52,7.23-90.13c-.09-9,2.11-74.06,1.71-75.51-5.17-19.12,6.21-34.21,6.21-34.21Z" style="fill:#263238"></path><path d="M109.59,397.63c-6.5-.11-4.64-.17-11.14-.2-3.18,0-24.09-.11-27.06.39-.06,0-.06.12,0,.13,3,.48,23.88.21,27.06.17,6.51-.09,4.64-.14,11.14-.3A.1.1,0,0,0,109.59,397.63Z" style="fill:#37474f"></path><path d="M126.39,238.73a78.71,78.71,0,0,0-12.17,6.37.14.14,0,0,0,.13.25c4.1-2,8.3-3.92,12.29-6.13A.28.28,0,0,0,126.39,238.73Z" style="fill:#37474f"></path><path d="M120,232.94q.19-2.92.45-5.84c.39-4.43.85-8.88,1.63-13.27.06-.34.54-.21.52.12-.3,3.44-.7,6.88-1,10.32s-.74,6.87-.8,10.3c0,1,.06,2.78,1.32,3.07,1.71.38,2.51-1.86,2.92-3.08a57.92,57.92,0,0,0,2.14-9.38c.56-3.61.85-7.28,1.2-10.91,0-.13.23-.12.23,0,0,7.22-.08,14.77-2.78,21.59-.52,1.33-1.44,2.68-3,2.86h-.08a.25.25,0,0,1,0,.12c0,.21-.08.41-.12.61a4,4,0,0,1-.1.5c-.07.35-.12.71-.21,1.06a.26.26,0,0,1-.52-.06.23.23,0,0,1-.15-.22,5.57,5.57,0,0,1,.47-2,2.57,2.57,0,0,1-1.87-1.57A9,9,0,0,1,120,232.94Z" style="fill:#37474f"></path><path d="M84,242.24a84,84,0,0,0-1.81-8.62c-1.41-6.5,0-13,1.5-19.35a.13.13,0,0,0-.25-.07c-1.53,5.41-3.08,10.89-2.49,16.57a74,74,0,0,0,1.63,7.94,36.74,36.74,0,0,1,.75,8.69c-.13,5.78-.51,11.56-.77,17.32q-.4,8.91-.8,17.82-1.59,35.28-3,70.55c-.55,13.18-1.06,26.36-1.44,39.54,0,.12.18.12.18,0,1.4-23.51,2.44-47,3.51-70.56s2.09-46.8,3.09-70.2A65.86,65.86,0,0,0,84,242.24Z" style="fill:#37474f"></path><path d="M102.57,214.72c-.44,2-.77,4.06-1.32,6.05a8.27,8.27,0,0,1-2.89,4.67,12.28,12.28,0,0,1-5.1,2.12,22.21,22.21,0,0,1-7.41.11c-.11,0-.15.13,0,.16,1.29.27,2.55.71,3.86.87a17.53,17.53,0,0,0,3.83.21,10.78,10.78,0,0,0,5.87-2.19,9,9,0,0,0,2.95-5.27,34.2,34.2,0,0,0,.57-6.7C102.89,214.59,102.61,214.56,102.57,214.72Z" style="fill:#37474f"></path><path d="M95.49,118.61c-5,7-5.08,17-5.08,17s-4.1,10.84-1.61,15.92a9.94,9.94,0,0,0,7.32,5.58l-1.06-2.88s2.56,3.49,9.25,4,14.86-2.93,18.91-5.91a17.2,17.2,0,0,0,5.55-6.8l-.94,4.58a13,13,0,0,0,8.81-8.51c2.6-7.26-9.64-15-10.89-16.94s-4.89-16.69-20.22-11.48C105.53,113.17,98.92,113.82,95.49,118.61Z" style="fill:#263238"></path><path d="M93.78,157.14a10.23,10.23,0,0,1-4.89-3.67,9.23,9.23,0,0,1-2-5.74,20.43,20.43,0,0,1,1.85-7.14c.92-2.37,2-4.68,2.91-7.07,0-.13-.15-.2-.22-.09a56.38,56.38,0,0,0-3,5.81,27.1,27.1,0,0,0-2.22,5.81,10.11,10.11,0,0,0,.2,5.64A9.71,9.71,0,0,0,89,154.51a20.62,20.62,0,0,0,4.68,2.77C93.82,157.34,93.89,157.17,93.78,157.14Z" style="fill:#263238"></path><path d="M136.83,134.53c-2.81-5.2-8.35-7.87-12.17-12.18-2.07-2.33-3.82-5-6.32-6.91a.08.08,0,0,0-.09.12c2.08,1.74,3.5,4,5.15,6.15a41,41,0,0,0,5.77,5.71c3.75,3.23,8.23,7,8.39,12.4.07,2.48-.91,5.39-3.27,6.56a.08.08,0,0,0,.08.14,7.86,7.86,0,0,0,3.61-5.07A10.09,10.09,0,0,0,136.83,134.53Z" style="fill:#263238"></path><path d="M137.3,136a10.3,10.3,0,0,0-2.37-5.75,14.52,14.52,0,0,0-5.21-3.45c-2.19-1-4.47-1.89-6.07-3.76-.07-.07-.18,0-.12.12,2.56,3.09,6.61,4.06,9.64,6.52,3.47,2.81,4.28,7.62,2.9,11.72a16.9,16.9,0,0,1-4.31,6.6,0,0,0,1,0,.05.06C135.12,145,137.78,140.66,137.3,136Z" style="fill:#263238"></path><path d="M112.37,164.38c7.4,16.85,25.15,38.27,29.85,40.36,4.52,2,33.91,1.14,42.18-1,3.36-.84.26-25.22-3.42-24.83-12.11,1.28-32.28,1.48-33.17,1-2.19-1.24-17-12.85-26.77-22C109.16,146.86,109.38,157.6,112.37,164.38Z" style="fill:#d3766a"></path><path d="M175.32,178l2,30.13s-29,.43-36.25-3-25.74-32.52-29.18-41.21-1.51-15.54,8.46-7.21,27,22.39,27.8,22.53S175.32,178,175.32,178Z" style="fill:#FFC727"></path><path d="M112,158.44a1.2,1.2,0,0,1-1.15,1.24,1.27,1.27,0,0,1-.28,0,12.71,12.71,0,0,1-.27-2.26,1.11,1.11,0,0,1,.45-.11A1.2,1.2,0,0,1,112,158.44Zm9.79-.49v.1a1.2,1.2,0,0,0,1.25,1.15.76.76,0,0,0,.21,0ZM123.7,175a1.2,1.2,0,1,0,1.25,1.15A1.2,1.2,0,0,0,123.7,175Zm12.2-.48A1.2,1.2,0,0,0,136,177a1.2,1.2,0,0,0,1.15-1.25A1.19,1.19,0,0,0,135.9,174.56Zm-18.64-8.23a1.2,1.2,0,1,0,1.24,1.15A1.2,1.2,0,0,0,117.26,166.33Zm12.19-.48a1.2,1.2,0,1,0,1.24,1.15A1.19,1.19,0,0,0,129.45,165.85Zm7.16,26.94a1.2,1.2,0,1,0,1.25,1.15A1.21,1.21,0,0,0,136.61,192.79Zm12.2-.48a1.2,1.2,0,1,0,1.24,1.15A1.2,1.2,0,0,0,148.81,192.31Zm12.19-.48a1.2,1.2,0,1,0,1.24,1.15A1.2,1.2,0,0,0,161,191.83Zm12.19-.48a1.2,1.2,0,0,0,.1,2.4,1.2,1.2,0,1,0-.1-2.4Zm-43-7.27a1.2,1.2,0,0,0,.09,2.4,1.2,1.2,0,0,0,1.15-1.25A1.19,1.19,0,0,0,130.17,184.08Zm12.19-.48a1.2,1.2,0,1,0,1.24,1.15A1.19,1.19,0,0,0,142.36,183.6Zm12.19-.48a1.2,1.2,0,1,0,1.25,1.15A1.2,1.2,0,0,0,154.55,183.12Zm12.19-.48a1.2,1.2,0,1,0,1.25,1.15A1.2,1.2,0,0,0,166.74,182.64Zm-23.66,19.19a1.2,1.2,0,1,0,1.24,1.15A1.2,1.2,0,0,0,143.08,201.83Zm12.19-.48a1.2,1.2,0,1,0,1.24,1.15A1.2,1.2,0,0,0,155.27,201.35Zm12.19-.48a1.2,1.2,0,0,0,.1,2.4,1.2,1.2,0,1,0-.1-2.4Z" style="fill:#fff"></path><path d="M156,207.63c-6.26-.43-12.17-1.18-14.94-2.48-7.26-3.45-25.74-32.53-29.18-41.22-2.23-5.66-2.2-10.53.85-11Z" style="opacity:0.1"></path><path d="M170.05,206.51c-.29-2.75-.88-10.78-1-12.93-.16-4.37-.39-8.78-.21-13.15,0-.09.14-.11.15,0,.56,4.28.73,8.62.95,12.93.11,2.15.36,12,.2,13.16C170.17,206.56,170.06,206.59,170.05,206.51Z" style="fill:#263238"></path><path d="M130,192.59l7.2,22.68s-2.37.15-8.44.49l-4.16-8.27-3.89,8.72c-15.44.84-37.24,1.91-44.83,1.72,0,0,8.23-45.45,20.69-60.29,6.24-7.42,14-7.23,19.09-2.48,1.3,1.2,14.72,16,16.62,23.43C134,185.13,130,192.59,130,192.59Z" style="fill:#FFC727"></path><path d="M132.72,180.11a22.24,22.24,0,0,0-3-7.87h0a5.28,5.28,0,0,0-.36-.76c-.12-.26-.24-.52-.37-.78q-.77-1.53-1.56-3s-.08,0-.06,0c.35.79.72,1.56,1.09,2.34l.45.92c-.25-.4-.52-.79-.79-1.17a58.84,58.84,0,0,0-4.14-5.19.05.05,0,0,0-.08.06,74.83,74.83,0,0,1,6,9.49,21.89,21.89,0,0,1,2.22,10.7,20.69,20.69,0,0,1-1.41,6.21.08.08,0,0,0,.14.06A17.55,17.55,0,0,0,132.72,180.11Z" style="fill:#263238"></path><path d="M99.85,158.92a1.2,1.2,0,1,1-1.25-1.15A1.2,1.2,0,0,1,99.85,158.92Zm10.94-1.63a1.2,1.2,0,1,0,1.25,1.15A1.2,1.2,0,0,0,110.79,157.29ZM87.13,176.48a1.6,1.6,0,0,0-.23,0c-.23.62-.46,1.25-.68,1.89a1.2,1.2,0,1,0,.91-1.92ZM99.32,176a1.2,1.2,0,1,0,1.24,1.15A1.2,1.2,0,0,0,99.32,176Zm12.19-.48a1.2,1.2,0,0,0,.1,2.4,1.2,1.2,0,1,0-.1-2.4ZM123.7,175a1.2,1.2,0,1,0,1.25,1.15A1.2,1.2,0,0,0,123.7,175Zm-30.83-7.75a1.2,1.2,0,1,0,1.25,1.15A1.2,1.2,0,0,0,92.87,167.29Zm12.19-.48a1.2,1.2,0,1,0,1.25,1.15A1.2,1.2,0,0,0,105.06,166.81Zm12.2-.48a1.2,1.2,0,1,0,1.24,1.15A1.2,1.2,0,0,0,117.26,166.33ZM87.85,194.71a1.2,1.2,0,1,0,1.24,1.16A1.2,1.2,0,0,0,87.85,194.71Zm12.19-.48a1.2,1.2,0,0,0-1.15,1.25,1.2,1.2,0,1,0,1.15-1.25Zm12.19-.48a1.2,1.2,0,1,0,1.25,1.15A1.2,1.2,0,0,0,112.23,193.75Zm12.19-.48a1.2,1.2,0,1,0,1.25,1.15A1.21,1.21,0,0,0,124.42,193.27Zm-30.83-7.75a1.2,1.2,0,1,0,1.24,1.15A1.2,1.2,0,0,0,93.59,185.52Zm12.19-.48a1.2,1.2,0,0,0,.1,2.4,1.2,1.2,0,1,0-.1-2.4Zm12.19-.48a1.2,1.2,0,1,0,1.25,1.15A1.2,1.2,0,0,0,118,184.56Zm12.2-.48a1.2,1.2,0,0,0,.09,2.4,1.2,1.2,0,0,0,1.15-1.25A1.19,1.19,0,0,0,130.17,184.08ZM76.79,213.49c-.18.9-.34,1.68-.46,2.32h.14a1.19,1.19,0,0,0,.32-2.33ZM88.56,213a1.2,1.2,0,1,0,1.25,1.15A1.2,1.2,0,0,0,88.56,213Zm12.2-.48a1.2,1.2,0,1,0,1.24,1.15A1.19,1.19,0,0,0,100.76,212.47ZM113,212a1.2,1.2,0,1,0,1.24,1.15A1.19,1.19,0,0,0,113,212Zm23.25,0a1.23,1.23,0,0,0,0,.27,1.19,1.19,0,0,0,.36.8Zm-54.08-7.77a1.2,1.2,0,1,0,1.24,1.16A1.2,1.2,0,0,0,82.12,204.23Zm12.19-.48A1.2,1.2,0,0,0,93.16,205a1.2,1.2,0,1,0,1.15-1.25Zm12.19-.48a1.2,1.2,0,1,0,1.25,1.15A1.2,1.2,0,0,0,106.5,203.27Zm12.19-.48a1.2,1.2,0,1,0,1.25,1.15A1.21,1.21,0,0,0,118.69,202.79Zm12.19-.48a1.2,1.2,0,1,0,1.25,1.15A1.21,1.21,0,0,0,130.88,202.31Z" style="fill:#fff"></path><path d="M112.82,158.63c1.47,2.61,2.9,5.24,4.26,7.91s2.67,5.35,3.82,8.12a39.06,39.06,0,0,1,1.53,4.25,18,18,0,0,1,.52,4.5,26.14,26.14,0,0,1-1.55,8.88v-.13c.57,2.55,1.11,5.1,1.65,7.66s1,5.11,1.58,7.67c-.62-2.53-1.28-5.06-1.87-7.61s-1.22-5.07-1.8-7.62v-.06l0-.07a26.1,26.1,0,0,0,1.47-8.72A17.35,17.35,0,0,0,122,179a37.39,37.39,0,0,0-1.48-4.2c-1.13-2.76-2.38-5.48-3.68-8.17S114.21,161.29,112.82,158.63Z" style="fill:#263238"></path><path d="M117.44,170.46a.78.78,0,1,1-1.51.38.8.8,0,0,1,.57-1A.78.78,0,0,1,117.44,170.46Z" style="fill:#263238"></path><path d="M120.3,178.22a.78.78,0,1,1-1.51.37.77.77,0,0,1,.57-.94A.78.78,0,0,1,120.3,178.22Z" style="fill:#263238"></path><path d="M120.9,186.15a.79.79,0,0,1-.57.94.78.78,0,0,1-.94-.57.77.77,0,0,1,.57-.94A.78.78,0,0,1,120.9,186.15Z" style="fill:#263238"></path><path d="M119.79,194.2a.77.77,0,0,1-.57.94.78.78,0,1,1,.57-.94Z" style="fill:#263238"></path><path d="M121.7,202a.78.78,0,1,1-1.51.37.78.78,0,0,1,1.51-.37Z" style="fill:#263238"></path><path d="M104.44,162.8c-3.49,4.49-40,29.32-41.7,30.54-4.67,3.42-25.08,4.06-21.33-9s40.12-26,55.79-30.18C108.41,151.22,110.91,154.45,104.44,162.8Z" style="fill:#FFC727"></path><path d="M87.65,159.4a1.2,1.2,0,1,1-1.24-1.15A1.19,1.19,0,0,1,87.65,159.4Zm10.95-1.63a1.2,1.2,0,1,0,1.25,1.15A1.2,1.2,0,0,0,98.6,157.77Zm-48,20.15a1.2,1.2,0,1,0,1.25,1.15A1.2,1.2,0,0,0,50.55,177.92Zm12.19-.48A1.2,1.2,0,1,0,64,178.59,1.21,1.21,0,0,0,62.74,177.44Zm12.2-.48a1.2,1.2,0,1,0,1.24,1.15A1.21,1.21,0,0,0,74.94,177Zm11.33-.05.5-.35A1.11,1.11,0,0,0,86.27,176.91Zm-28.76-7.24c-.67.37-1.34.75-2,1.13a1.2,1.2,0,0,0,2-.92A.76.76,0,0,0,57.51,169.67Zm11-1.42a1.2,1.2,0,0,0,.09,2.4,1.2,1.2,0,0,0,1.15-1.25A1.19,1.19,0,0,0,68.49,168.25Zm12.19-.48a1.2,1.2,0,1,0,1.24,1.15A1.2,1.2,0,0,0,80.68,167.77Zm12.19-.48a1.2,1.2,0,1,0,1.25,1.15A1.2,1.2,0,0,0,92.87,167.29ZM44.82,187.44a1.2,1.2,0,1,0,1.25,1.15A1.2,1.2,0,0,0,44.82,187.44ZM57,187a1.2,1.2,0,1,0,1.25,1.15A1.21,1.21,0,0,0,57,187Zm12.19-.48a1.21,1.21,0,0,0-1.15,1.25,1.19,1.19,0,0,0,1.13,1.14h0l1.18-.81h0a1,1,0,0,0,.06-.43A1.2,1.2,0,0,0,69.2,186.48Z" style="fill:#fff"></path><path d="M104.54,154.18c.32,1,5.6,6.89,10.07,6.27,1.45-.21.68-8.2.68-8.2l.08-.6,1.08-8.44-10.29-5.34-1.48-.69s-.15,2.33-.3,5.23c0,.13,0,.27,0,.41s0,.32,0,.48c0,.43-.06.87-.07,1.31s0,.66,0,1,0,.7,0,1.05A55.1,55.1,0,0,0,104.54,154.18Z" style="fill:#d3766a"></path><path d="M104.38,142.41a17.09,17.09,0,0,0,11,9.24l1.08-8.44-10.29-5.34-1.48-.69S104.53,139.51,104.38,142.41Z" style="fill:#263238"></path><path d="M127.5,130.68c1.05,14.9-7.75,17.21-11,17.43-2.91.2-12.87.52-15.45-14.19s4-19.91,10.65-20.72S126.45,115.78,127.5,130.68Z" style="fill:#d3766a"></path><path d="M125.79,129.59a9,9,0,0,1-1,.42,1.62,1.62,0,0,1-1,.24.53.53,0,0,1-.38-.53,1.33,1.33,0,0,1,.88-1,2,2,0,0,1,1.4-.16A.57.57,0,0,1,125.79,129.59Z" style="fill:#263238"></path><path d="M115.48,128.05a9,9,0,0,0,1-.1,1.72,1.72,0,0,0,1-.3.56.56,0,0,0,.07-.66,1.35,1.35,0,0,0-1.27-.45,2,2,0,0,0-1.29.55A.57.57,0,0,0,115.48,128.05Z" style="fill:#263238"></path><path d="M117.56,131.76s-.08.05-.08.09c0,1-.07,2.21-1,2.56a0,0,0,0,0,0,.06C117.63,134.29,117.77,132.72,117.56,131.76Z" style="fill:#263238"></path><path d="M116.62,130.7c-1.65-.1-1.73,3.21-.2,3.3S118,130.78,116.62,130.7Z" style="fill:#263238"></path><path d="M116,130.86c-.29.18-.59.51-.94.53s-.7-.32-1-.66c0,0-.06,0-.06,0,0,.63.21,1.29.88,1.4s1.08-.45,1.25-1.09C116.19,131,116.09,130.79,116,130.86Z" style="fill:#263238"></path><path d="M116.9,139.82c.23.25.45.6.82.66a2.89,2.89,0,0,0,1.12-.18,0,0,0,0,1,0,0,1.39,1.39,0,0,1-1.34.47,1.08,1.08,0,0,1-.74-1C116.79,139.8,116.87,139.78,116.9,139.82Z" style="fill:#263238"></path><path d="M121.7,136s.19,1.54.19,2.26a3.9,3.9,0,0,1-3.79-1.21c-.06-.07,0-.15.11-.1a5.21,5.21,0,0,0,3.14.94c.05-.2-.42-2.63-.31-2.64a6.27,6.27,0,0,1,1.64.39c-.31-3.22-1.14-6.37-1.4-9.58a.1.1,0,0,1,.19,0,52.37,52.37,0,0,1,2,10.25C123.48,136.69,122,136.12,121.7,136Z" style="fill:#263238"></path><path d="M120.9,138.18a3.82,3.82,0,0,1-1.54,1.12,1.69,1.69,0,0,1-1,0c-.74-.22-.74-.9-.59-1.48a4.48,4.48,0,0,1,.36-.88A4.89,4.89,0,0,0,120.9,138.18Z" style="fill:#263238"></path><path d="M119.36,139.3a1.69,1.69,0,0,1-1,0c-.74-.22-.74-.9-.59-1.48A1.74,1.74,0,0,1,119.36,139.3Z" style="fill:#ff9abb"></path><path d="M126.6,131.24a2.88,2.88,0,0,0-.78-.1,2.74,2.74,0,0,0-.79.14,2.21,2.21,0,0,0-.73.41,1.87,1.87,0,0,0-.5.71l-.2.49.52-.11a5.2,5.2,0,0,1,1.12-.13,2.4,2.4,0,0,1,1.13.26,1.71,1.71,0,0,0-1.08-.67,3.12,3.12,0,0,0-1.29,0l.32.37a1.89,1.89,0,0,1,.89-.9A5.83,5.83,0,0,1,126.6,131.24Z" style="fill:#263238"></path><path d="M125.32,133.5a5,5,0,0,1-1.19-.31c-.08,0-.43-.24-.42-.31a2.19,2.19,0,0,1,.14-.59,1.44,1.44,0,0,0-.26.59.79.79,0,0,0,.47.48A2.54,2.54,0,0,0,125.32,133.5Z" style="fill:#263238"></path><path d="M101.5,134.64c1.65-.16,5.79-4.86,5.63-12.85,0,0-.36,7.18-.86,8.25s2.32-2.64,2.28-9.08a26,26,0,0,0,6.72,3.18c3.07.74,4.93.64,5.14.42s-4.31-1.48-5.57-2.83c0,0,8.22,3.46,12,3.61.43,0,.62-8.86-5.28-12.41s-14.88.84-17.24,3.3c0,0-2.87.51-5.84,4.89S99.72,134.81,101.5,134.64Z" style="fill:#263238"></path><path d="M103.52,134.9s-3.18-4.72-5.31-3.59.2,7.93,2.67,8.89a2.53,2.53,0,0,0,3.41-1.3Z" style="fill:#d3766a"></path><path d="M98.93,133.24a0,0,0,0,0,0,.07c1.73.73,2.62,2.36,3.24,4.05a1.39,1.39,0,0,0-2.08-.42s0,.11,0,.1a1.53,1.53,0,0,1,1.7.57,7.37,7.37,0,0,1,.8,1.39c.08.16.36.08.3-.1v0C103,136.64,101.31,133.51,98.93,133.24Z" style="fill:#263238"></path><path d="M115.34,152.32l-1.83,7.05-9.42-7.4-2,3S112,167.41,112,166.8l2-6.14,4.51,3.5-1.64-10Z" style="fill:#FFC727"></path><path d="M117.94,159.15c-.32-1.65-.61-3.32-1-5,0-.06-.11-.07-.11,0-.13,1.65,1.15,8,1.34,9.48l0,0c-.19-.15-4.15-3.06-4.18-3-.48,1-2,5.47-2,5.87-1.57-2-8.13-9.7-9.91-11.53,0-.05-.14,0-.1.07,1.43,2.11,9.94,12.33,10,12.29a67.2,67.2,0,0,0,2.09-6.48,44.47,44.47,0,0,0,4.73,3.73A53.27,53.27,0,0,0,117.94,159.15Z" style="fill:#263238"></path><path d="M180.91,203c-2.88-1.18-3.12-21.67-.62-23.66a12.57,12.57,0,0,1,2.89-1.38h0a45.35,45.35,0,0,0,8.43-10.19c2.59-4.61,5.91-11.75,8.44-10.45,3.69,1.88.59,11.42-1.53,16.78,3.1-.43,5.82-.51,7.42,0,5.3,1.78.38,26.46-5,28.42C195.83,204.39,183.8,204.13,180.91,203Z" style="fill:#d3766a"></path><rect x="109.58" y="168.1" width="96.1" height="1" transform="translate(-12.23 12.33) rotate(-4.31)" style="fill:#263238"></rect><polygon points="107.53 175.94 107.67 175.75 110.34 172.67 101.69 173.32 98.83 176.6 107.53 175.94" style="fill:#263238"></polygon><path d="M98.3,169.63l3.32,2.71,8.65-.66A18.46,18.46,0,0,1,107,169Z" style="fill:#263238"></path><polygon points="203.28 168.49 204.44 165.06 202.77 161.84 210.9 164.57 203.28 168.49" style="fill:#263238"></polygon><polygon points="174.5 90.09 158.43 110.7 142.29 131.25 110.02 172.37 110 172.03 148.16 208.87 167.24 227.29 186.27 245.77 167.07 227.47 147.93 209.11 109.66 172.39 109.49 172.24 109.63 172.06 142.03 131.05 158.24 110.55 174.5 90.09" style="fill:#263238"></polygon><path d="M182.85,243.67c-.64-4.07,2.22-7.07,3.33-12,1.16-5.14,10.06-34.13,12.58-52.25,1-7.19-3.28-12-3.42-13.9-.12-1.61,3-7.42,1.46-12.8-5-16.9-18.34-44.89-20.38-50.11-1.84-4.71-5.11-7.18-5.1-11.3,0-6.67,6.57-7.83,7.21.58s21.73,52.34,22.34,60.41-2.26,13.22-2.26,13.22,3.46,2.59,4.07,10.67-13.42,57.63-12.79,66S183.85,250.27,182.85,243.67Z" style="fill:#FFC727"></path><path d="M182.85,243.67c-.64-4.07,2.22-7.07,3.33-12,1.16-5.14,10.06-34.13,12.58-52.25,1-7.19-3.28-12-3.42-13.9-.12-1.61,3-7.42,1.46-12.8-5-16.9-18.34-44.89-20.38-50.11-1.84-4.71-5.11-7.18-5.1-11.3,0-6.67,6.57-7.83,7.21.58s21.73,52.34,22.34,60.41-2.26,13.22-2.26,13.22,3.46,2.59,4.07,10.67-13.42,57.63-12.79,66S183.85,250.27,182.85,243.67Z" style="opacity:0.30000000000000004"></path><path d="M197.22,173c-1.82,2.27,1.9,3.11,1.9,3.11s-5.64.08-6.61,3.14,3.59,3.81,3.92,3.88c-.3,0-5.48.21-6.14,3.39s4,3.39,4.31,3.39c-.28.1-3.95,1.41-3.9,3.94.09,4.34,9.58,1.24,12.65,3,0,0-2.33,5.53-2.36,5.7,0,0,9.09-2.76,11.18-7a3,3,0,0,0-.77-3.72s3-.57,3.62-3.05c.31-1.28-1.47-2.9-1.47-2.9a3.81,3.81,0,0,0,2.8-2.8c.32-1.79-1.51-3.14-1.51-3.14s2.07-1.6,1.8-3.54C216.1,172.41,201.11,168.11,197.22,173Z" style="fill:#d3766a"></path><path d="M214.59,179.6a0,0,0,0,0,0-.08,27.11,27.11,0,0,0-15.7-3.51c-.17,0-.22.31,0,.33A55.54,55.54,0,0,1,214.59,179.6Z" style="fill:#263238"></path><path d="M213.64,185.78c.05,0,.09-.07,0-.1a25.33,25.33,0,0,0-17.37-2.77c-.2.05-.34.3-.1.26C200.27,182.56,208.93,184,213.64,185.78Z" style="fill:#263238"></path><path d="M194.22,190.12c5.81-1.1,11.39-.22,17,1.5.07,0,.1-.09,0-.12-2.51-1.59-6.19-2.31-9.11-2.64a15.68,15.68,0,0,0-8,1.06C194.08,190,194.09,190.15,194.22,190.12Z" style="fill:#263238"></path><path d="M199.05,176c-.21,0,0,.3-.15.33-.87.12-6.05,1.32-6.19,3.21-.11,1.51,1.85,2.71,2.78,2.87l2.35.42-2.35.42a9.69,9.69,0,0,0-3,1,3.48,3.48,0,0,0-1.86,2.16,2,2,0,0,0,1,2.31,6,6,0,0,0,3,.64h2.83l-2.66.93a9.1,9.1,0,0,0-2.09,1,3.8,3.8,0,0,0-1.44,1.63,1.8,1.8,0,0,0,.32,1.87,4,4,0,0,0,2,.9,31.33,31.33,0,0,0,4.88.34c.83,0,1.66,0,2.48.11a5.76,5.76,0,0,1,2.42.56,6.4,6.4,0,0,0-2.42-.34c-.83,0-1.65.05-2.48.09a27,27,0,0,1-5-.09,4.67,4.67,0,0,1-2.47-1,2.53,2.53,0,0,1-.57-2.73,4.6,4.6,0,0,1,1.73-2.07,9.76,9.76,0,0,1,2.31-1.2l.18.91a6.86,6.86,0,0,1-3.5-.72,2.91,2.91,0,0,1-1.31-1.45,3.27,3.27,0,0,1-.1-1.93,4.39,4.39,0,0,1,2.35-2.74,10.68,10.68,0,0,1,3.3-1.09v.84c-1.18-.25-3.52-1.35-3.65-3.72C192,176.43,198,176,199.05,176Z" style="fill:#263238"></path><path d="M199.12,176.08a5.92,5.92,0,0,1-1.51-1,1.35,1.35,0,0,1-.45-1.29,2.75,2.75,0,0,1,.9-1.27c.44-.39.93-.77,1.44-1.14a4.59,4.59,0,0,0-1.81.62,2.74,2.74,0,0,0-1.33,1.61,2,2,0,0,0,.13,1.15,2,2,0,0,0,.73.81A3.12,3.12,0,0,0,199.12,176.08Z" style="fill:#263238"></path><path d="M75.91,172.45c3.18.45,16.24,21.15,11.75,22.62-21.12,6.9-37.93,2.33-41.89.42-5.19-2.49-5.78-9.66-3.69-12.8C45.11,178.15,72.76,172,75.91,172.45Z" style="fill:#d3766a"></path><path d="M108.7,166.3a3.89,3.89,0,0,1-.34,4.44,5.86,5.86,0,0,1,2.78,2.81c.89,2.21-2.18,4.59-2.18,4.59a7.14,7.14,0,0,1,2.45,3.42c.64,2.2-2.12,5.05-2.12,5.05a6.24,6.24,0,0,1,.26,4.36c-1.33,3.8-7.33,5.15-11.13,6.05s-15.43-.12-17.67-.09l-6-24.36s15.91-8.88,20.53-9.3C99.21,162.92,107.06,163.73,108.7,166.3Z" style="fill:#d3766a"></path><path d="M108.1,170.39c-4.23-.61-8.41.05-12.62.48a.08.08,0,0,0,0,.15c4.19-.48,8.41-.12,12.61-.42C108.21,170.59,108.21,170.41,108.1,170.39Z" style="fill:#263238"></path><path d="M108.8,177.84a10.91,10.91,0,0,0-2.9.24c-1,.15-2,.33-3.06.52-2,.38-4,.8-6.06,1.29-.09,0-.08.16,0,.14,2-.37,4.06-.72,6.1-1l3.07-.4a13.28,13.28,0,0,0,2.87-.5A.15.15,0,0,0,108.8,177.84Z" style="fill:#263238"></path><path d="M109.21,186.62a7.81,7.81,0,0,0-2.61.36l-2.77.56c-1.84.36-3.69.72-5.55,1a.08.08,0,0,0,0,.15c1.89-.3,3.79-.57,5.68-.88l2.78-.47a7.22,7.22,0,0,0,2.48-.65S109.25,186.63,109.21,186.62Z" style="fill:#263238"></path><path d="M72.75,172.09l5.18,29s-27.35,1.28-34.85-7.38c-5-5.76-1.93-10.24-.64-11.67C44.14,180.23,55.31,175.08,72.75,172.09Z" style="fill:#FFC727"></path><path d="M51.8,179.07a1.2,1.2,0,0,1-2.4.1,1.17,1.17,0,0,1,.41-.95h0l.77-.3A1.21,1.21,0,0,1,51.8,179.07Zm10.94-1.63A1.2,1.2,0,1,0,64,178.59,1.21,1.21,0,0,0,62.74,177.44ZM73.8,178a1,1,0,0,0,0,.24,1.13,1.13,0,0,0,.15.52ZM51.27,196.16a1.19,1.19,0,0,0-1.15,1.24,1.16,1.16,0,0,0,.31.76c.37.12.74.25,1.13.36h0a1.17,1.17,0,0,0,.93-1.21A1.19,1.19,0,0,0,51.27,196.16Zm12.19-.48a1.2,1.2,0,1,0,1.25,1.15A1.2,1.2,0,0,0,63.46,195.68Zm12.19-.48a1.2,1.2,0,1,0,1.25,1.15A1.2,1.2,0,0,0,75.65,195.2Zm-30.83-7.76a1.2,1.2,0,1,0,1.25,1.15A1.2,1.2,0,0,0,44.82,187.44ZM57,187a1.2,1.2,0,1,0,1.25,1.15A1.21,1.21,0,0,0,57,187Zm12.19-.48a1.2,1.2,0,0,0,.1,2.4,1.2,1.2,0,1,0-.1-2.4Z" style="fill:#fff"></path><path d="M48.9,178.26c10.87-4.83,23.62-6.17,23.64-6.18.22-.06.32.24.19.26a140,140,0,0,0-23.81,6.11C48.84,178.48,48.83,178.29,48.9,178.26Z" style="fill:#263238"></path><path d="M70.75,200c-.56-2.59-1.94-10.18-2.23-12.22-.6-4.15-1.26-8.33-1.54-12.51,0-.08.13-.12.15,0,1,4,1.57,8.14,2.22,12.22.32,2,1.56,11.43,1.53,12.52C70.87,200.07,70.77,200.11,70.75,200Z" style="fill:#263238"></path></g></svg>