<svg xmlns="http://www.w3.org/2000/svg" viewBox="0 0 500 500"><g id="freepik--background-complete--inject-119"><rect x="355.54" y="66.52" width="66.33" height="66.33" style="fill:#fff"></rect><path d="M352.09,63.07v73.24h73.23V63.07Zm69.78,69.79H355.54V66.52h66.33Z" style="fill:#dbdbdb"></path><rect x="379.78" y="82.7" width="22.93" height="51.7" transform="translate(499.79 -282.7) rotate(90)" style="fill:#ebebeb"></rect><rect x="375.46" y="86.45" width="26.49" height="26.49" transform="translate(488.4 -289.02) rotate(90)" style="fill:#c7c7c7"></rect><rect x="425.32" y="63.07" width="2.83" height="73.24" style="fill:#c7c7c7"></rect><rect x="355.54" y="160.71" width="66.33" height="66.33" style="fill:#fff"></rect><rect x="366.94" y="171.32" width="17.32" height="50.03" style="fill:#c7c7c7"></rect><path d="M352.09,157.26v73.23h73.23V157.26ZM421.87,227H355.54V160.71h66.33Z" style="fill:#dbdbdb"></path><rect x="375.46" y="180.63" width="26.49" height="26.49" style="fill:#ebebeb"></rect><rect x="425.32" y="157.26" width="2.83" height="73.24" style="fill:#c7c7c7"></rect><rect x="355.54" y="254.9" width="66.33" height="66.33" style="fill:#fff"></rect><rect x="362.9" y="263.94" width="36.4" height="21.76" style="fill:#ebebeb"></rect><path d="M352.09,251.45v73.23h73.23V251.45Zm69.78,69.78H355.54V254.9h66.33Z" style="fill:#dbdbdb"></path><rect x="375.46" y="274.82" width="26.49" height="26.49" style="fill:#c7c7c7"></rect><rect x="425.32" y="251.45" width="2.83" height="73.24" style="fill:#c7c7c7"></rect><rect x="57.06" y="131.7" width="157.8" height="9.37" transform="translate(271.91 272.77) rotate(180)" style="fill:#ebebeb"></rect><rect x="193.5" y="141.07" width="9.37" height="30.99" style="fill:#ebebeb"></rect><rect x="193.5" y="141.07" width="9.37" height="9.58" style="fill:#dbdbdb"></rect><rect x="69.03" y="141.07" width="9.37" height="30.99" style="fill:#ebebeb"></rect><rect x="69.03" y="141.07" width="9.37" height="9.58" style="fill:#dbdbdb"></rect><rect x="137.6" y="94.33" width="59.72" height="15.04" transform="translate(269.3 -65.61) rotate(90)" style="fill:#c7c7c7"></rect><rect x="164.17" y="64.56" width="6.56" height="15.04" transform="translate(239.53 -95.38) rotate(90)" style="fill:#dbdbdb"></rect><rect x="166.24" y="77.46" width="2.44" height="15.04" transform="translate(252.44 -82.47) rotate(90)" style="fill:#dbdbdb"></rect><rect x="163.23" y="112.13" width="6.56" height="16.91" transform="translate(287.1 -45.93) rotate(90)" style="fill:#dbdbdb"></rect><rect x="119.85" y="91.62" width="69.66" height="10.51" transform="translate(251.55 -57.8) rotate(90)" style="fill:#dbdbdb"></rect><rect x="141.33" y="78.84" width="26.79" height="6.31" transform="translate(236.71 -72.73) rotate(90)" style="fill:#ebebeb"></rect><rect x="68.29" y="98.24" width="69.66" height="10.51" transform="translate(249.21 104.61) rotate(135.33)" style="fill:#c7c7c7"></rect><rect x="86.08" y="103.89" width="26.79" height="6.31" transform="translate(245.48 113.25) rotate(135.33)" style="fill:#dbdbdb"></rect><rect x="114.05" y="96.34" width="52.91" height="17.85" transform="translate(245.77 -35.25) rotate(90)" style="fill:#a6a6a6"></rect><rect x="138.04" y="114.72" width="4.93" height="17.85" transform="translate(264.15 -16.87) rotate(90)" style="fill:#c7c7c7"></rect><rect x="139.55" y="108.06" width="1.91" height="17.85" transform="translate(257.49 -23.53) rotate(90)" style="fill:#c7c7c7"></rect><rect x="156.27" y="100.69" width="49.73" height="12.33" transform="translate(287.99 -74.28) rotate(90)" style="fill:#a6a6a6"></rect><rect x="178.82" y="117.96" width="4.63" height="12.33" transform="translate(305.26 -57.01) rotate(90)" style="fill:#c7c7c7"></rect><rect x="178.82" y="88.39" width="4.63" height="12.33" transform="translate(275.69 -86.58) rotate(90)" style="fill:#c7c7c7"></rect><rect x="180.24" y="94.78" width="1.8" height="12.33" transform="translate(282.08 -80.19) rotate(90)" style="fill:#c7c7c7"></rect><rect x="362.2" y="313.54" width="85.34" height="100.8" transform="translate(809.74 727.88) rotate(180)" style="fill:#ebebeb"></rect><rect x="329.77" y="313.54" width="32.43" height="100.8" transform="translate(691.97 727.88) rotate(180)" style="fill:#c7c7c7"></rect><polygon points="447.54 375.08 362.2 375.08 428.85 377.11 447.54 375.08" style="fill:#c7c7c7"></polygon><polygon points="362.2 404.85 447.54 404.85 380.89 406.87 362.2 404.85" style="fill:#c7c7c7"></polygon><polygon points="447.54 353.14 393.48 353.14 441.54 354.79 447.54 353.14" style="fill:#c7c7c7"></polygon><polygon points="362.2 393.3 416.26 393.3 368.2 394.95 362.2 393.3" style="fill:#c7c7c7"></polygon><polygon points="362.2 340.46 416.26 340.46 368.2 342.11 362.2 340.46" style="fill:#c7c7c7"></polygon><polygon points="427.07 344.4 366.1 344.4 376.26 345.39 427.07 344.4" style="fill:#c7c7c7"></polygon><polygon points="439.24 383.5 378.28 383.5 388.44 384.49 439.24 383.5" style="fill:#c7c7c7"></polygon><polygon points="447.48 324.64 386.51 324.64 396.68 325.63 447.48 324.64" style="fill:#c7c7c7"></polygon><polygon points="401.75 360.62 362.2 360.62 355.14 363.26 401.75 360.62" style="fill:#ebebeb"></polygon><polygon points="392.22 386.94 352.67 386.94 345.61 389.58 392.22 386.94" style="fill:#ebebeb"></polygon><polygon points="400.92 398.54 361.37 398.54 354.3 401.18 400.92 398.54" style="fill:#ebebeb"></polygon><polygon points="400.92 329.79 361.37 329.79 354.3 332.43 400.92 329.79" style="fill:#ebebeb"></polygon><polygon points="458.43 360.62 418.88 360.62 411.82 363.26 458.43 360.62" style="fill:#dbdbdb"></polygon><polygon points="408.05 331.11 447.6 331.11 454.66 333.75 408.05 331.11" style="fill:#ebebeb"></polygon><polygon points="405.55 391.98 445.1 391.98 452.17 394.62 405.55 391.98" style="fill:#ebebeb"></polygon><polygon points="407.69 395.9 447.23 395.9 454.3 398.54 407.69 395.9" style="fill:#dbdbdb"></polygon><polygon points="362.2 386.94 330.44 386.94 323.38 389.58 362.2 386.94" style="fill:#c7c7c7"></polygon><polygon points="351.12 375.08 326.49 375.08 329.77 372.93 351.12 375.08" style="fill:#c7c7c7"></polygon></g><g id="freepik--Table--inject-119"><path d="M45.75,414.34c130.86-.61,277.64-.62,408.5,0-130.86.61-277.64.61-408.5,0Z" style="fill:#263238"></path></g><g id="freepik--Sheets--inject-119"><polygon points="318.87 433.68 360.04 423.56 412.35 430.85 369.4 441.72 318.87 433.68" style="fill:#dbdbdb"></polygon><path d="M318.87,433.68,360,423.41c0-.05,52.34,7.22,52.39,7.19l1.27.18-1.25.31-43,10.8s-50.51-8.22-50.54-8.21Zm0,0s50.78,7.88,50.49,7.87l42.93-10.94,0,.49s-52.5-7.4-52.24-7.39l-41.21,10Z" style="fill:#dbdbdb"></path><path d="M367.76,438.9c2.54-.78,5.15-1.5,7.77-2.22s5.28-1.41,8-2.09,5.37-1.34,8.11-2l4.12-.95c1.4-.3,2.77-.61,4.19-.89-1.26.39-2.56.75-3.84,1.13L392.14,433c-2.61.72-5.28,1.4-7.95,2.08s-5.38,1.35-8.12,2S370.59,438.32,367.76,438.9Z" style="fill:#c7c7c7"></path><path d="M374.57,434.78c2.91-1,6-1.84,9.21-2.66s6.45-1.56,9.92-2.18c-2.91,1-6,1.85-9.21,2.67S378,434.17,374.57,434.78Z" style="fill:#c7c7c7"></path><path d="M355.36,437.25c2.53-.78,5.14-1.5,7.76-2.22s5.29-1.4,7.95-2.09,5.38-1.34,8.12-2l4.12-1c1.39-.3,2.77-.62,4.19-.9-1.26.39-2.57.76-3.85,1.14l-3.91,1.08c-2.62.72-5.29,1.41-8,2.09s-5.37,1.34-8.11,2S358.18,436.67,355.36,437.25Z" style="fill:#c7c7c7"></path><path d="M353.77,435.26c4.31-1.35,8.84-2.55,13.41-3.72s9.25-2.27,14.12-3.24c-4.31,1.35-8.83,2.55-13.41,3.72S358.64,434.29,353.77,435.26Z" style="fill:#c7c7c7"></path><path d="M359.16,431.51c2.37-.87,5-1.58,7.61-2.26s5.39-1.3,8.32-1.78c-2.37.87-5,1.58-7.61,2.26S362.09,431,359.16,431.51Z" style="fill:#c7c7c7"></path><polygon points="109.95 454.31 167.09 443.49 222.21 459.6 165.37 470.8 109.95 454.31" style="fill:#ebebeb"></polygon><path d="M110,454.31l57.13-11,55.19,16,1,.29-1,.19L165.36,471S110,454.31,110,454.31Zm0,0s55.7,16.38,55.38,16.33l56.82-11.28,0,.48s-55.35-16.24-55-16.18L110,454.31Z" style="fill:#dbdbdb"></path><path d="M164.57,467.52c3.72-.86,7.49-1.67,11.27-2.46s7.58-1.56,11.39-2.32,7.64-1.49,11.49-2.19l5.79-1.06c1.94-.33,3.87-.68,5.83-1-1.86.44-3.74.84-5.61,1.26l-5.66,1.2c-3.77.8-7.58,1.56-11.39,2.32s-7.64,1.49-11.5,2.19S168.47,466.88,164.57,467.52Z" style="fill:#dbdbdb"></path><path d="M179.21,461.78c4.07-1,8.28-1.93,12.52-2.78s8.55-1.62,13-2.24c-4.07,1.05-8.28,1.93-12.52,2.78S183.64,461.16,179.21,461.78Z" style="fill:#dbdbdb"></path><path d="M158.94,462.93c3.25-.77,6.55-1.48,9.86-2.19s6.64-1.37,10-2,6.7-1.3,10.09-1.91l5.08-.91c1.71-.29,3.4-.59,5.13-.86-1.62.39-3.27.74-4.91,1.12l-4.95,1.06c-3.31.71-6.65,1.38-10,2s-6.7,1.31-10.09,1.92S162.37,462.38,158.94,462.93Z" style="fill:#dbdbdb"></path><path d="M156.28,460.6c3-.72,6.06-1.38,9.12-2s6.14-1.27,9.24-1.89,6.2-1.21,9.34-1.77l4.71-.84c1.59-.26,3.16-.54,4.76-.78-1.5.36-3,.7-4.54,1.05l-4.58,1c-3.06.65-6.15,1.27-9.24,1.89s-6.21,1.21-9.35,1.77S159.47,460.1,156.28,460.6Z" style="fill:#dbdbdb"></path><path d="M142,460.56c3.72-.87,7.5-1.67,11.27-2.46s7.59-1.56,11.39-2.32,7.64-1.49,11.5-2.2l5.78-1.05c2-.33,3.88-.68,5.84-1-1.86.43-3.75.84-5.61,1.26l-5.66,1.2c-3.78.8-7.59,1.56-11.4,2.32s-7.64,1.48-11.49,2.19S146,459.92,142,460.56Z" style="fill:#dbdbdb"></path><path d="M141.57,457.8c3.29-.78,6.63-1.5,10-2.21s6.72-1.39,10.1-2.06,6.78-1.32,10.21-1.94l5.14-.92c1.73-.29,3.44-.6,5.19-.87-1.65.39-3.32.75-5,1.13l-5,1.07c-3.35.72-6.73,1.39-10.11,2.07s-6.78,1.32-10.2,1.93S145.05,457.24,141.57,457.8Z" style="fill:#dbdbdb"></path><path d="M130.78,457.07c3.72-.86,7.49-1.66,11.27-2.46s7.58-1.56,11.39-2.31,7.64-1.49,11.5-2.2l5.78-1.05c1.95-.33,3.88-.68,5.83-1-1.85.43-3.74.84-5.61,1.26l-5.66,1.2c-3.77.8-7.58,1.56-11.39,2.31s-7.64,1.49-11.49,2.2S134.69,456.43,130.78,457.07Z" style="fill:#dbdbdb"></path><path d="M143.87,451.65c4.33-1.1,8.8-2,13.3-2.94s9.07-1.72,13.75-2.39c-4.33,1.1-8.8,2-13.3,2.93S148.56,451,143.87,451.65Z" style="fill:#dbdbdb"></path><polygon points="244 448.96 316.6 435.21 386.65 455.68 314.41 469.92 244 448.96" style="fill:#ebebeb"></polygon><path d="M244,449,316.6,435s70.09,20.41,70.12,20.4l1,.29-1,.2L314.4,470.09S244.05,449,244,449Zm0,0s70.72,20.85,70.38,20.79l72.22-14.31,0,.48s-70.28-20.59-69.95-20.54L244,449Z" style="fill:#dbdbdb"></path><path d="M313.39,465.75c4.73-1.1,9.52-2.12,14.33-3.13s9.63-2,14.47-2.95,9.71-1.89,14.61-2.78l7.35-1.34c2.47-.42,4.92-.86,7.41-1.26-2.36.55-4.75,1.06-7.13,1.6l-7.19,1.52c-4.8,1-9.64,2-14.48,2.95s-9.71,1.89-14.6,2.78S318.36,464.93,313.39,465.75Z" style="fill:#dbdbdb"></path><path d="M332,458.46c5.18-1.33,10.53-2.46,15.92-3.54s10.86-2.05,16.48-2.85c-5.17,1.34-10.52,2.46-15.91,3.54S337.63,457.66,332,458.46Z" style="fill:#dbdbdb"></path><path d="M306.24,459.91c4.13-1,8.33-1.88,12.53-2.77s8.44-1.75,12.69-2.59,8.51-1.66,12.82-2.44l6.45-1.16c2.18-.36,4.33-.75,6.52-1.09-2.06.5-4.16.95-6.24,1.43l-6.29,1.35c-4.2.9-8.45,1.74-12.69,2.59s-8.52,1.66-12.82,2.43S310.61,459.22,306.24,459.91Z" style="fill:#dbdbdb"></path><path d="M302.86,457c3.82-.92,7.7-1.76,11.59-2.59s7.81-1.62,11.74-2.41,7.89-1.53,11.87-2.25l6-1.06c2-.33,4-.69,6-1-1.9.47-3.84.89-5.76,1.33l-5.82,1.26c-3.89.84-7.82,1.62-11.75,2.41s-7.88,1.53-11.87,2.24S306.91,456.32,302.86,457Z" style="fill:#dbdbdb"></path><path d="M284.77,456.9c4.73-1.1,9.52-2.12,14.32-3.13s9.64-2,14.48-2.94,9.71-1.9,14.61-2.79l7.35-1.34c2.47-.42,4.92-.86,7.41-1.26-2.36.55-4.76,1.06-7.13,1.6l-7.19,1.53c-4.8,1-9.64,2-14.48,2.94s-9.71,1.89-14.61,2.79S289.74,456.08,284.77,456.9Z" style="fill:#dbdbdb"></path><path d="M284.17,453.4c4.18-1,8.43-1.91,12.68-2.81s8.55-1.76,12.84-2.62,8.62-1.68,13-2.46l6.53-1.18c2.2-.37,4.38-.76,6.59-1.1-2.08.5-4.21,1-6.31,1.44L323.1,446c-4.25.91-8.54,1.77-12.84,2.62s-8.61,1.68-13,2.47S288.59,452.69,284.17,453.4Z" style="fill:#dbdbdb"></path><path d="M270.46,452.48c4.73-1.1,9.52-2.12,14.32-3.13s9.64-2,14.48-3,9.7-1.89,14.6-2.78l7.35-1.34c2.48-.42,4.93-.86,7.42-1.26-2.36.55-4.76,1.06-7.13,1.6l-7.19,1.52c-4.8,1-9.64,2-14.48,2.95s-9.71,1.89-14.61,2.78S275.43,451.66,270.46,452.48Z" style="fill:#dbdbdb"></path><path d="M287.09,445.58c5.51-1.4,11.18-2.59,16.9-3.73s11.52-2.19,17.48-3.05c-5.5,1.4-11.18,2.59-16.9,3.73S293.05,444.72,287.09,445.58Z" style="fill:#dbdbdb"></path><path d="M104.44,425.75l92.44,28.57,67.85-6.44,32.87-.8,23.71-3.18,69.7-3.53-93.47-24.73s-57.85-.3-60.55-.13-28.37,2.83-28.37,2.83-35.82.39-38.26.57S104.44,425.75,104.44,425.75Z" style="fill:#fff"></path><path d="M104.44,425.75s92.57,28.51,92.44,28.49l67.85-6.5,32.85-.83,23.7-3.2L391,440.12l-.05.49-93.4-24.8L253,415.59c-3.89.1-12.93-.18-16.69.1l-27.7,2.74-35.93.5c-11.59.65-56,5.73-68.25,6.82Zm0,0c12.57-1.16,56.59-6.24,68.25-6.93l35.93-.58c4.18-.43,24-2.4,27.69-2.78s12.85-.07,16.7-.12l44.53.13s93.48,24.66,93.53,24.66l1.56.41-1.61.08-69.69,3.47-23.72,3.16-32.87.78-67.85,6.37s-92.42-28.64-92.45-28.65Z" style="fill:#263238"></path><polygon points="208.62 418.33 219.91 421.85 231.12 425.39 253.44 432.54 275.61 439.77 286.64 443.41 297.6 447.08 286.31 443.57 275.1 440.02 252.78 432.87 230.61 425.65 219.58 422.01 208.62 418.33" style="fill:#dbdbdb"></polygon><path d="M182,443.61q9.63-1.22,19.36-2.33c6.47-.77,13-1.47,19.5-2.2q4.88-.54,9.84-1c.86-.09,1.75-.14,2.61-.16l2.58-.08,5.18-.16c6.91-.17,13.83-.33,20.78-.43-6.85.3-13.72.55-20.59.8l-5.16.18c-1.69.08-3.48.09-5,.26-3.27.32-6.52.69-9.79,1l-19.6,2.09C195.16,442.28,188.61,443,182,443.61Z" style="fill:#dbdbdb"></path><path d="M206.67,437.64c6.59-.84,11.94-1.76,15.35-2.09.88-.08,1.8-.13,2.68-.16l2.66-.09,5.31-.15c7.11-.18,14.22-.35,21.36-.46-7,.32-14.1.57-21.16.84l-5.3.18c-1.74.09-3.58.1-5.17.27C219,436.31,213.43,437,206.67,437.64Z" style="fill:#dbdbdb"></path><path d="M198.9,435.41c6.6-.84,11.95-1.76,15.36-2.09.88-.08,1.8-.13,2.68-.15l2.66-.09,5.31-.16c7.11-.18,14.22-.35,21.36-.45-7,.31-14.11.56-21.16.83l-5.3.19c-1.74.08-3.58.09-5.17.26C211.27,434.08,205.67,434.74,198.9,435.41Z" style="fill:#dbdbdb"></path><path d="M191.14,433.18c6.6-.84,12-1.75,15.36-2.08.88-.09,1.79-.14,2.68-.16l2.65-.09,5.32-.16c7.11-.18,14.21-.35,21.35-.45-7,.31-14.1.57-21.15.83l-5.3.19c-1.74.08-3.58.09-5.17.26C203.51,431.85,197.91,432.51,191.14,433.18Z" style="fill:#dbdbdb"></path><path d="M188.5,445.64c6.21-.81,12.47-1.58,18.74-2.33s12.59-1.48,18.89-2.2c3.15-.37,6.33-.71,9.52-1,.81-.08,1.59-.16,2.46-.23s1.69-.07,2.53-.1l5-.16c6.72-.17,13.45-.32,20.21-.41-6.66.3-13.34.54-20,.79l-5,.18c-.83,0-1.68.06-2.46.12s-1.56.15-2.35.23l-9.49,1c-6.34.68-12.64,1.42-19,2.09S194.88,445,188.5,445.64Z" style="fill:#dbdbdb"></path><path d="M194.93,447.39q9.51-1.06,19.1-2c6.37-.67,12.8-1.27,19.21-1.9,3.23-.31,6.39-.62,9.74-.86l10-.52c6.66-.31,13.31-.63,20-.89-6.56.47-13.15.87-19.75,1.27l-9.92.56c-3.18.24-6.41.58-9.63.87-6.45.58-12.85,1.22-19.31,1.79S201.42,446.84,194.93,447.39Z" style="fill:#dbdbdb"></path><path d="M290,440.63q8.34-1.06,16.9-1.89c1.43-.13,2.85-.28,4.3-.4.73-.06,1.45-.12,2.23-.16l2.23-.1,8.91-.39c5.93-.27,11.88-.49,17.83-.74s11.9-.47,17.86-.69q-8.83.48-17.71.93c-5.92.29-11.83.59-17.76.86l-8.89.42-2.22.1c-.68,0-1.41.11-2.12.17l-4.3.38C301.56,439.65,295.83,440.17,290,440.63Z" style="fill:#dbdbdb"></path><path d="M283.79,438.35q8.47-.77,17.11-1.36c2.89-.2,5.73-.42,8.74-.52l8.82-.35c5.88-.24,11.78-.45,17.67-.67s11.8-.42,17.72-.61q-8.76.44-17.56.84t-17.6.79l-8.81.37c-1.46.05-2.86.16-4.32.24l-4.34.27Q292.56,437.91,283.79,438.35Z" style="fill:#dbdbdb"></path><path d="M277.78,436.3c5.74-.51,11.54-1,17.39-1.37,2.94-.2,5.83-.42,8.84-.57l9-.27c6-.18,12.05-.33,18.08-.49s12.07-.3,18.12-.43q-9,.36-18,.68t-18,.61c-3,.1-6,.18-9,.29l-8.8.54Q286.7,435.86,277.78,436.3Z" style="fill:#dbdbdb"></path><path d="M272.62,434.75c5.45-.81,11-1.48,16.73-2.07l2.17-.2c.74-.06,1.53-.09,2.28-.11l4.49-.12,9-.23q18-.42,36-.74-17.9.62-35.84,1.11l-9,.26-4.48.13c-1.5,0-2.81.19-4.27.32C284.05,433.64,278.4,434.26,272.62,434.75Z" style="fill:#dbdbdb"></path><path d="M267,432.88c5.42-.82,11-1.49,16.67-2.1l2.16-.2c.74-.06,1.53-.09,2.27-.11l4.48-.13,9-.24q17.93-.44,35.91-.77-17.83.63-35.73,1.15l-8.94.26-4.46.14c-1.5,0-2.81.2-4.26.32C278.36,431.76,272.74,432.39,267,432.88Z" style="fill:#dbdbdb"></path><path d="M261.33,431c5.43-.82,11-1.5,16.67-2.11l2.17-.2c.73-.06,1.53-.09,2.27-.11l4.47-.13,9-.24q17.94-.44,35.91-.78c-11.89.43-23.81.79-35.73,1.16l-8.94.26-4.46.14c-1.5,0-2.8.2-4.26.32C272.72,429.89,267.09,430.53,261.33,431Z" style="fill:#dbdbdb"></path><path d="M255.68,429.16c5.59-.84,11.33-1.54,17.17-2.15.73-.08,1.46-.15,2.22-.21s1.58-.09,2.34-.12l4.61-.12,9.22-.25q18.45-.44,37-.78-18.36.64-36.77,1.17l-9.21.27-4.59.14c-1.54,0-2.88.2-4.38.33C267.41,428,261.62,428.66,255.68,429.16Z" style="fill:#dbdbdb"></path><path d="M248.36,427.5c5.59-.84,11.33-1.53,17.16-2.15l2.23-.2c.76-.07,1.58-.1,2.34-.12l4.61-.13,9.22-.24q18.45-.45,37-.79c-12.24.44-24.51.81-36.77,1.18l-9.21.26-4.59.15c-1.54,0-2.89.2-4.39.32C260.08,426.35,254.3,427,248.36,427.5Z" style="fill:#dbdbdb"></path><path d="M241.24,425.88c5.59-.84,11.32-1.54,17.16-2.15.73-.08,1.47-.15,2.23-.21s1.57-.1,2.34-.12l4.6-.13,9.22-.24q18.46-.45,37-.78-18.36.64-36.78,1.17l-9.2.26-4.6.15c-1.54,0-2.88.2-4.38.33C253,424.72,247.17,425.37,241.24,425.88Z" style="fill:#dbdbdb"></path><path d="M235.59,424c5.58-.83,11.31-1.53,17.14-2.14.73-.08,1.46-.15,2.22-.21s1.57-.1,2.34-.11l4.62-.11,9.23-.17q18.5-.31,37-.52-18.41.51-36.85.9l-9.21.21-4.6.11c-1.53,0-2.88.2-4.37.33C247.3,422.86,241.52,423.51,235.59,424Z" style="fill:#dbdbdb"></path><path d="M230,422.15c5.57-.84,11.29-1.53,17.1-2.14.73-.08,1.46-.15,2.22-.21s1.57-.1,2.35-.11l4.63-.07,9.25-.11q18.51-.17,37.07-.21-18.44.36-36.92.6l-9.24.13-4.6.08c-1.5,0-2.87.2-4.35.33C241.63,421,235.86,421.65,230,422.15Z" style="fill:#dbdbdb"></path><path d="M224.3,420.29c5.56-.84,11.27-1.53,17.07-2.14.73-.08,1.46-.15,2.22-.21s1.56-.1,2.35-.11h13.92c6.18,0,12.38.06,18.57.1s12.38.11,18.58.19q-18.5.09-37,.09l-9.26,0-4.61,0c-1.48,0-2.86.2-4.33.32C236,419.14,230.21,419.79,224.3,420.29Z" style="fill:#dbdbdb"></path><path d="M201.46,449.91q9.72-1,19.51-1.85c6.51-.6,13.07-1.14,19.61-1.71,3.28-.28,6.53-.54,9.9-.78l10-.6c6.68-.38,13.37-.75,20.1-1.07-6.59.52-13.22,1-19.85,1.43l-10,.65c-3.25.24-6.54.55-9.82.8l-19.7,1.61C214.66,448.91,208.08,449.43,201.46,449.91Z" style="fill:#dbdbdb"></path><path d="M294.64,442.77q8.85-.75,17.77-1.4c5.94-.46,11.91-.87,17.88-1.3,3-.21,5.95-.41,9-.58l9.1-.42c6.08-.27,12.16-.53,18.28-.74-6,.39-12,.72-18.07,1.05l-9.07.47c-3,.17-6,.41-9,.6l-17.94,1.2Q303.67,442.24,294.64,442.77Z" style="fill:#dbdbdb"></path></g><g id="freepik--Character--inject-119"><path d="M220.06,244.34c33.67,60.94,64.74,116.93,60.11,134.56-11,41.91-37.49,34.57-41.48,32.88-27.22-11.55-48.45-105.54-52-154.47C183.46,213.65,202.1,211.82,220.06,244.34Z" style="fill:#FFC727"></path><path d="M245.71,302.72a4.42,4.42,0,1,0,4.44,4.4A4.44,4.44,0,0,0,245.71,302.72Zm0,7.39a3,3,0,0,1-3-3,3,3,0,1,1,6,0A3,3,0,0,1,245.71,310.11Zm0,38.34a4.42,4.42,0,1,0,4.44,4.4A4.44,4.44,0,0,0,245.71,348.45Zm0,7.39a3,3,0,0,1-3-3,3,3,0,1,1,6,0A3,3,0,0,1,245.71,355.84Zm0,38.34a4.43,4.43,0,1,0,4.44,4.36A4.43,4.43,0,0,0,245.71,394.18Zm0,7.39a3,3,0,1,1,3-3A3,3,0,0,1,245.71,401.57Zm31.91-22.84a3,3,0,0,1,0-6,3.05,3.05,0,0,1,3,2.35,23.17,23.17,0,0,0-.11-2.71h0a4.5,4.5,0,0,0-2.88-1,4.43,4.43,0,0,0,0,8.85,4.5,4.5,0,0,0,2.41-.7c0-.18.09-.36.14-.54a13.58,13.58,0,0,0,.38-2.24A3,3,0,0,1,277.62,378.73ZM216.36,238.14a2.6,2.6,0,0,1,0,.4,3,3,0,0,1-6,0,3,3,0,0,1,3-3,2.93,2.93,0,0,1,1.51.4c-.42-.61-.83-1.19-1.25-1.76h-.26a4.43,4.43,0,1,0,4.19,5.88C217.15,239.38,216.76,238.75,216.36,238.14Zm-3,41.73a4.43,4.43,0,1,0,4.44,4.36A4.43,4.43,0,0,0,213.36,279.87Zm0,7.4a3,3,0,1,1,3-3A3,3,0,0,1,213.36,287.27Zm0,38.33A4.41,4.41,0,1,0,217.8,330,4.43,4.43,0,0,0,213.36,325.6Zm0,7.4a3,3,0,1,1,3-3A3,3,0,0,1,213.36,333Zm0,38.29a4.25,4.25,0,0,0-1.78.39c.16.44.33.88.51,1.31a2.89,2.89,0,0,1,1.27-.29,3,3,0,0,1,1,5.87c.19.43.37.86.56,1.28a4.41,4.41,0,0,0,2.88-4.16A4.45,4.45,0,0,0,213.36,371.29Z" style="opacity:0.2"></path><path d="M258.7,410.89a26.21,26.21,0,0,1-20,.89c-27.22-11.55-48.45-105.54-52-154.47-2.06-28.07,4.91-38.85,14.93-34.31Z" style="opacity:0.1"></path><path d="M229.16,414.29l-180-.34c.48-4.06,49.11-153.9,98.6-194,19.7-15.94,49.63-5.8,57.41,6.36,18.07,28.24,11,136.89,13.54,149C221.68,389.5,229.16,414.29,229.16,414.29Z" style="fill:#FFC727"></path><path d="M185.4,213.68c-.81-.23-1.64-.45-2.48-.64a3,3,0,0,1-1.47,5.65,3,3,0,0,1-.23-6q-1.23-.24-2.49-.42h0a4.37,4.37,0,0,0-1.67,3.41,4.42,4.42,0,1,0,8.84,0A4.18,4.18,0,0,0,185.4,213.68Zm-4,43.3a4.43,4.43,0,1,0,4.44,4.41A4.45,4.45,0,0,0,181.45,257Zm0,7.44a3,3,0,1,1,3-3A3,3,0,0,1,181.45,264.42Zm0,38.3a4.42,4.42,0,1,0,4.44,4.4A4.41,4.41,0,0,0,181.45,302.72Zm0,7.39a3,3,0,0,1-3-3,3,3,0,1,1,6.07,0A3,3,0,0,1,181.45,310.11Zm0,38.34a4.42,4.42,0,1,0,4.44,4.4A4.41,4.41,0,0,0,181.45,348.45Zm0,7.39a3,3,0,0,1-3-3,3,3,0,1,1,6.07,0A3,3,0,0,1,181.45,355.84Zm0,38.34a4.43,4.43,0,1,0,4.44,4.36A4.4,4.4,0,0,0,181.45,394.18Zm0,7.39a3,3,0,1,1,3-3A3,3,0,0,1,181.45,401.57Zm29.24-161.65a2.69,2.69,0,0,1-.31-1.1v0c-.25-.87-.51-1.7-.77-2.52a4.3,4.3,0,0,0-.65,2.27,4.47,4.47,0,0,0,2.41,4C211.15,241.62,210.93,240.76,210.69,239.92Zm5.91,41.35a4.43,4.43,0,1,0,.35,5.61C216.84,285,216.73,283.13,216.6,281.27Zm-3.24,6a3,3,0,1,1,3-3A3,3,0,0,1,213.36,287.27Zm0,38.33A4.41,4.41,0,1,0,217.8,330,4.43,4.43,0,0,0,213.36,325.6Zm0,7.4a3,3,0,1,1,3-3A3,3,0,0,1,213.36,333Zm0,38.29a4.43,4.43,0,1,0,4.44,4.4A4.47,4.47,0,0,0,213.36,371.29Zm0,7.44a3,3,0,1,1,3-3A3,3,0,0,1,213.36,378.73ZM117.36,257c-.32.49-.63,1-.94,1.49a2.84,2.84,0,0,1,.72-.09,3,3,0,1,1,0,6,3,3,0,0,1-2.92-2.35l-.89,1.48a4.39,4.39,0,0,0,3.81,2.28,4.42,4.42,0,0,0,.22-8.84Zm-.22,45.73a4.42,4.42,0,0,0,0,8.84,4.42,4.42,0,1,0,0-8.84Zm0,7.39a3,3,0,0,1-3-3,3,3,0,1,1,6.07,0A3,3,0,0,1,117.14,310.11Zm0,38.34a4.42,4.42,0,0,0,0,8.84,4.42,4.42,0,1,0,0-8.84Zm0,7.39a3,3,0,0,1-3-3,3,3,0,1,1,6.07,0A3,3,0,0,1,117.14,355.84Zm0,38.34a4.43,4.43,0,0,0,0,8.85,4.43,4.43,0,1,0,0-8.85Zm0,7.39a3,3,0,0,1,0-6,3,3,0,1,1,0,6Zm32-167.43a4.43,4.43,0,1,0,4.44,4.4A4.42,4.42,0,0,0,149.1,234.14Zm0,7.4a3,3,0,0,1-3-3,3,3,0,0,1,6.07,0A3,3,0,0,1,149.1,241.54Zm0,38.33a4.43,4.43,0,1,0,4.44,4.36A4.41,4.41,0,0,0,149.1,279.87Zm0,7.4a3,3,0,1,1,3-3A3,3,0,0,1,149.1,287.27Zm0,38.33a4.41,4.41,0,1,0,4.44,4.36A4.41,4.41,0,0,0,149.1,325.6Zm0,7.4a3,3,0,1,1,3-3A3,3,0,0,1,149.1,333Zm0,38.29a4.43,4.43,0,1,0,4.44,4.4A4.45,4.45,0,0,0,149.1,371.29Zm0,7.44a3,3,0,1,1,3-3A3,3,0,0,1,149.1,378.73ZM55.24,394.86l-.46,1.34a3,3,0,0,1-1.8,5.36h0c-.16.5-.32,1-.48,1.45l.39,0a4.45,4.45,0,0,0,4.45-4.49A4.31,4.31,0,0,0,55.24,394.86ZM84.79,325.6a4.37,4.37,0,0,0-3.28,1.51h0l-1,2.44h0c0,.13,0,.26,0,.39a4.42,4.42,0,0,0,4.36,4.45,4.41,4.41,0,1,0,0-8.81Zm0,7.4a3,3,0,0,1,0-6,3,3,0,1,1,0,6Zm0,38.29a4.43,4.43,0,1,0,4.49,4.4A4.49,4.49,0,0,0,84.79,371.29Zm0,7.44a3,3,0,0,1,0-6,3,3,0,1,1,0,6Z" style="opacity:0.2"></path><path d="M185.51,258.18c-11.36-2.84-20.74-27.28-21.13-43.35,0-1.11,6-9.48,12.78-20,4.11-6.4,8.53-13.63,12.08-20.51C190,172.89,227,207.1,227,207.1s-11.7,12.24-17.82,24.28a17.08,17.08,0,0,0-1.16,3c-.06.14-.1.32-.18.5C205.94,240.68,196.49,260.91,185.51,258.18Z" style="fill:#d3766a"></path><path d="M191.8,175.86c-4,12.67-11.29,44.53,11.48,57a29.48,29.48,0,0,0,4.54,2,2.27,2.27,0,0,0,.19-.5,20.45,20.45,0,0,1,1.15-3C215.3,219.32,227,207.09,227,207.09S200.29,182.41,191.8,175.86Z" style="fill:#263238"></path><path d="M211.35,120c-13.19,12.26-30.31,59.89-25.28,75.64,7.29,22.84,31.68,38.77,54.23,27.16,21.85-11.26,43.06-73.72,36.28-89.32C266.59,110.47,230.85,101.84,211.35,120Z" style="fill:#d3766a"></path><path d="M276.36,153c-21.41,5.4-38.23-21-38.23-21-10.44,11.32-23.19,4.78-23.19,4.78s-14.06,27.68-21.65,24.8c-11.59-4.37-.6-45.12,5.93-51.52s17.12-4.73,17.12-4.73,2.94-5.74,12.15-8.57C238.67,93.68,263,112,263,112a27.1,27.1,0,0,1,10.51-6.87c4.27-1.55,8.39.61,10,4.77a18.29,18.29,0,0,0-5.43,6.1c-4.5,8,2.42,10.51,5.2,2.81a12.83,12.83,0,0,0,.23-8.91c5.26-3.75,11.44-3.32,13.83.62C301.68,117.65,294.17,148.55,276.36,153Z" style="fill:#263238"></path><path d="M216.69,127.09a.4.4,0,1,0-.79-.08c-1.12,6.17-2.23,12.42-4.8,18.22s-11,19.23-18.79,14.41a.35.35,0,0,0-.42.55c4.54,4.7,11-1,14.61-5.23C213.08,147.26,215.62,136.9,216.69,127.09Z" style="fill:#263238"></path><path d="M297,110c0-.07-.13,0-.11,0,4.69,14.53.91,31.33-11.81,40.7-16,11.78-33-5.92-42.92-17.13-.48-.55-1.39.12-.91.69,9.48,11.29,27,28.65,42.92,18.46C298.42,143.63,302.75,125.13,297,110Z" style="fill:#263238"></path><path d="M218.8,106.27c-11.86-3-22-.63-27.61,11s-5.49,26.13-.45,37.88a.48.48,0,0,0,.89-.36c-3.07-9.54-4.39-19.29-2-29.17,1.78-7.31,5.5-14.82,12.44-18.46,5-2.62,11.41-1.32,16.66-.46C219,106.79,219.09,106.34,218.8,106.27Z" style="fill:#263238"></path><path d="M265.52,115.69c-11-14-36.14-32.68-49-10.41-.1.18.2.37.32.19,14.24-21.81,36.09-1.57,48.17,10.73C265.3,116.49,265.77,116,265.52,115.69Z" style="fill:#263238"></path><path d="M203.08,162.38S201,142.84,192.7,142.81s-12.24,24.49-6.28,31.44a8.72,8.72,0,0,0,12.49,1.56Z" style="fill:#d3766a"></path><path d="M191.75,149.87c-.11-.08-.23.08-.15.18,4.08,5,4.15,11.45,3.29,17.58-.49-2.81-2-5.06-5.67-4.64-.19,0-.17.31,0,.36,2.41.73,3.76,2,4.26,4.5a26.37,26.37,0,0,1,.16,5.55c0,.6,1,.82,1.1.18a.59.59,0,0,1,0-.14C198.6,166.8,198.58,154.53,191.75,149.87Z" style="fill:#263238"></path><path d="M265.24,171.3a33.16,33.16,0,0,0-2.5-2.53c-1-1-1.65-1.83-3.05-2.1a1.84,1.84,0,0,0-1.88,1.21c-.49,1.67.41,3.14,1.53,4.35a6.7,6.7,0,0,0,4.26,2.25A2,2,0,0,0,265.24,171.3Z" style="fill:#263238"></path><path d="M230.93,161a35.22,35.22,0,0,1,3.54-.42c1.36-.14,2.42-.4,3.69.26a1.86,1.86,0,0,1,.71,2.13c-.66,1.6-2.28,2.19-3.91,2.44a6.71,6.71,0,0,1-4.73-.9A2,2,0,0,1,230.93,161Z" style="fill:#263238"></path><path d="M217.18,199.1c.37,1.12.59,2.51,1.67,3.19a9.3,9.3,0,0,0,3.75,1,.12.12,0,0,1,.05.23,4.74,4.74,0,0,1-4.83-.37c-1.28-1-1.34-2.57-1-4C216.86,198.88,217.13,198.94,217.18,199.1Z" style="fill:#263238"></path><path d="M226.78,195.42c6.17.73,9.26,2.76,12.5,4.36.4.07,1.35.1,1.54-.24v0l2.2-7c.76.78,4.69,4.5,5.07,3.16,3.12-11.05,6.58-23.34,7.34-35a.32.32,0,0,0-.62-.13c-3.41,10.5-4.95,21.54-8.21,32.14-1.3-1.08-3.36-3-4.68-3.4-.39,0-2,7.56-2.46,8.64a19.66,19.66,0,0,0-12.89-3.24C224.82,194.81,224.53,195.16,226.78,195.42Z" style="fill:#263238"></path><path d="M231.08,202.11c1.72.2,6.81-4.55,4.49-6.13s-8.87-2.77-12.78-.06c-3.42,2.38,5.08,3.51,6,4.57C229.61,201.38,229.85,202,231.08,202.11Z" style="fill:#263238"></path><path d="M228.82,200.5c.18.21.31.38.45.52,1-1.85.67-4.77-2.73-6.54a9,9,0,0,0-3.75,1.43C219.38,198.29,227.87,199.44,228.82,200.5Z" style="fill:#ff9abb"></path><path d="M235,172.64c0-.13-.31.1-.34.24-.76,3.45-2.2,7.28-5.59,7.63-.1,0-.14.19,0,.2C232.94,181.13,234.81,176,235,172.64Z" style="fill:#263238"></path><path d="M234.13,176.38a5.4,5.4,0,0,1-1.8,2.22,3.87,3.87,0,0,1-3.06.5,3.51,3.51,0,0,1-2.33-2.12,6.21,6.21,0,0,1-.32-2.8,10.48,10.48,0,0,1,.32-1.67,7.57,7.57,0,0,1,1.62-3.1,11,11,0,0,0-.53,2.49,15.12,15.12,0,0,0-.09,2.31c.08,1.57.61,3,1.79,3.24s2.37-.39,3.24-1.73a24.08,24.08,0,0,0,2.15-4.41A11,11,0,0,1,234.13,176.38Z" style="fill:#263238"></path><path d="M254.73,177.77c.07-.12.22.24.17.38-1.15,3.34-1.91,7.35.79,9.42.09.07,0,.23-.08.18C252,186.07,253.1,180.75,254.73,177.77Z" style="fill:#263238"></path><path d="M253.5,181.39a5.39,5.39,0,0,0,.38,2.84,3.86,3.86,0,0,0,2.36,2,3.48,3.48,0,0,0,3.08-.6,6,6,0,0,0,1.74-2.22,10.13,10.13,0,0,0,.59-1.59,7.54,7.54,0,0,0,.24-3.49,11.17,11.17,0,0,1-.84,2.4,15.11,15.11,0,0,1-1.14,2c-.88,1.3-2.08,2.25-3.21,1.83s-1.82-1.57-1.87-3.16a25.42,25.42,0,0,1,.47-4.89A11.05,11.05,0,0,0,253.5,181.39Z" style="fill:#263238"></path><path d="M208.67,242a.08.08,0,0,0-.15,0c-1.78,9.19-6.5,30.33-20.34,25.39-5.58-2-9.86-6.9-13.31-11.52A82.29,82.29,0,0,1,166,240.56c-2.7-6-5.47-12.21-7.15-18.56-.07-.27-.49-.11-.41.16,1.94,6.39,3.26,12.86,5.8,19.07a71.93,71.93,0,0,0,9.49,16.86c3.73,4.79,8.35,9.78,14.33,11.6,5.7,1.73,10.8-.74,13.86-5.61C205.93,257.67,207.93,249.47,208.67,242Z" style="fill:#263238"></path><path d="M210.22,230.07,192,250.81,166.66,210l-11.72,8.62s20.13,60.34,20.87,58l16-20.31L204,275.67l9.4-36.77Z" style="fill:#fff"></path><path d="M213.6,239.08c0-.24-.33-.43-.43-.17-2.51,6.46-8.29,28.5-9.67,34.51l-.06-.09c-.5-.83-11.42-17.22-11.6-17-3.18,3.08-14.91,17.86-15.79,19.24-3.18-9.57-15.72-44.63-19.94-54a.23.23,0,0,0-.44.14c2.48,9.92,18.92,57,19.34,57,.22.27,14.75-17.91,16.81-21.5,1.7,3.42,12.37,21.54,12.64,20.57C206.27,271.27,212.86,245.77,213.6,239.08Z" style="fill:#263238"></path><path d="M236,399.56c-5.39-19.3-1.09-66.47,14.74-131.81,2.59-10.68,69.76-6.08,68.21,5.57-1.95,14.67-22,94.17-23.27,98.2C284.65,405.55,239.56,412.38,236,399.56Z" style="fill:#d3766a"></path><path d="M313.27,287.25s13.4-24.6,16.44-39.7c4.07-20.22-.74-39.36-3.24-47.26-5.22-16.48-29.23-52.73-40.88-47.63-10.54,4.61,15.88,40.42,15.88,40.42s-20.91-41-32.59-33.07,21.36,47.72,21.36,47.72-22.42-41.61-33.18-31.57c-8.12,7.59,19.77,45.35,19.77,45.35s-19.53-35.63-28.22-28.19C239,201.55,262.56,238,262.56,238c-18.91,22.64-18.66,41.15-16.91,54.3C246.08,295.49,313.27,287.25,313.27,287.25Z" style="fill:#d3766a"></path><path d="M309.61,206.78c-2.28-4.9-4.56-9.87-7.27-14.55s-5.59-9.27-8.72-13.68c-7.68-10.81-14.19-16.38-13.82-16,8.61,9.17,18.57,25.77,21.28,30.46s5.65,9.2,8.35,13.87C309.5,207,309.66,206.9,309.61,206.78Z" style="fill:#263238"></path><path d="M292.89,216.88c-3.19-6.13-6.13-12.34-9.58-18.33s-7.23-11.32-11.07-17c-.3-.44-.43-.13-.15.32,3.61,5.86,6.49,11.55,10,17.45S289.43,211,292.75,217C292.8,217.06,292.93,217,292.89,216.88Z" style="fill:#263238"></path><path d="M280.09,228.12c-4.39-9.62-10.54-18.42-16.79-26.9-.31-.42-.45,0-.15.44,5.75,8.84,10.32,15.73,16.61,26.61C279.85,228.44,280.18,228.32,280.09,228.12Z" style="fill:#263238"></path><path d="M262.56,238c-6.19-9.56-12-19.51-15.46-30.46-1.43-4.79-3.16-13.91,3.41-15.54a7.39,7.39,0,0,1,4.28,1.36c3.63,2.31,6.47,5.8,9.51,8.67l-.73.62c-3.9-6.7-8-13.79-8.6-21.68-.37-4.79,3.62-7.74,8.16-6.63,3.93,1.16,6.52,4.44,9.22,7.23l-.58.46c-3.51-5.7-11.06-22.3.52-23.14,3.1.22,5.79,2.08,8,4.1-3.09-2.76-8.47-5.81-12-2.24-4.57,5.24,1.19,15.79,4.13,20.88l1.76,2.89-2.34-2.44c-2.63-2.63-5.26-5.84-8.91-6.9a6.31,6.31,0,0,0-5.18.95c-1.47,1-1.9,3-1.83,4.82.64,7.65,4.75,14.64,8.49,21.19l1.73,2.83-2.45-2.21c-3.11-2.94-5.76-6.31-9.36-8.63a6.56,6.56,0,0,0-3.71-1.25c-5.74,1.57-4,10.13-2.82,14.46,3.27,10.89,8.88,21,14.78,30.66Z" style="fill:#263238"></path><path d="M321.44,298.08l-87.07-4.56s-13.85,91-4.87,109.3c10.42,21.26,56.42,13.14,69.73-32.31Z" style="fill:#FFC727"></path><path d="M277.62,371.29a4.43,4.43,0,1,0,4.49,4.4A4.5,4.5,0,0,0,277.62,371.29Zm0,7.44a3,3,0,0,1,0-6,3,3,0,1,1,0,6Zm0-53.13a4.41,4.41,0,0,0,0,8.81,4.41,4.41,0,1,0,0-8.81Zm0,7.4a3,3,0,0,1,0-6,3,3,0,1,1,0,6Zm-31.91,61.18a4.43,4.43,0,1,0,4.44,4.36A4.43,4.43,0,0,0,245.71,394.18Zm0,7.39a3,3,0,1,1,3-3A3,3,0,0,1,245.71,401.57Zm0-53.12a4.42,4.42,0,1,0,4.44,4.4A4.44,4.44,0,0,0,245.71,348.45Zm0,7.39a3,3,0,0,1-3-3,3,3,0,1,1,6,0A3,3,0,0,1,245.71,355.84Zm0-53.12a4.42,4.42,0,1,0,4.44,4.4A4.44,4.44,0,0,0,245.71,302.72Zm0,7.39a3,3,0,0,1-3-3,3,3,0,1,1,6,0A3,3,0,0,1,245.71,310.11ZM310,302.72a4.42,4.42,0,0,0,0,8.84,4.42,4.42,0,1,0,0-8.84Zm0,7.39a3,3,0,0,1-3-3,3,3,0,1,1,6.07,0A3,3,0,0,1,310,310.11Z" style="opacity:0.2"></path><path d="M311.64,318.4c-36.82,1.82-69.09-2-75.92-2.19-.33,0-.28-.53.05-.51,6.7.51,45,.06,75.93,2.14C312.06,317.87,312,318.38,311.64,318.4Z" style="fill:#263238"></path><path d="M226.61,380.39c.78-11.35,1.49-22.7,2.39-34s2.11-22.63,3.5-33.92c.76-6.23,1.89-12,2.81-18.19,3.3-.24,5.21,0,9.23-.19.49,0,.47-1.21,0-1.2-4.37,0-10.85-.93-10.9-.64-2,11.22-3.27,23.34-4.49,34.66s-2.12,22.8-2.57,34.25c-.25,6.42-.27,12.85-.11,19.27A.09.09,0,0,0,226.61,380.39Z" style="fill:#263238"></path><path d="M127.42,236.7c-44.6,48.72-91.74,144.15-80.13,163.79,12.94,21.86,75-46.41,74.64-50.25-.29-2.9,12.7-58.21,28.29-102.52S138.45,224.65,127.42,236.7Z" style="fill:#f7a9a0"></path><path d="M122.37,350.3c1.73-6.49,22.2-81.24,30.1-106.61,7.09-22.76,2.58-31.83-15.58-17.2-33.44,26.92-84.64,104.9-95.74,146-10.7,39.62,15.41,39.2,41.34,20.15C103.72,377.07,122.37,350.3,122.37,350.3Z" style="fill:#FFC727"></path><path d="M117.14,257a4.43,4.43,0,1,0,4.49,4.41A4.49,4.49,0,0,0,117.14,257Zm0,7.44a3,3,0,0,1,0-6,3,3,0,1,1,0,6Zm0,38.3a4.42,4.42,0,0,0,0,8.84,4.42,4.42,0,1,0,0-8.84Zm0,7.39a3,3,0,0,1-3-3,3,3,0,1,1,6.07,0A3,3,0,0,1,117.14,310.11Zm4.3,41.49a4.48,4.48,0,0,0-4.3-3.15,4.42,4.42,0,0,0,0,8.84h0c.48-.62.93-1.2,1.34-1.75a3.08,3.08,0,0,1-1.36.3,3,3,0,0,1-3-3,3,3,0,1,1,6.07,0,2.42,2.42,0,0,1,0,.47ZM149.1,234.14a4.43,4.43,0,1,0,4.44,4.4A4.42,4.42,0,0,0,149.1,234.14Zm0,7.4a3,3,0,0,1-3-3,3,3,0,0,1,6.07,0A3,3,0,0,1,149.1,241.54ZM52.88,348.45a4.47,4.47,0,0,0-3.53,1.78v0L48.56,352h0a4.26,4.26,0,0,0-.08.8,4.43,4.43,0,1,0,4.4-4.4Zm0,7.39a3,3,0,0,1-3-3,3.08,3.08,0,0,1,3-3,3,3,0,0,1,3,3A3,3,0,0,1,52.88,355.84Zm0,38.34a4.43,4.43,0,1,0,4.45,4.36A4.43,4.43,0,0,0,52.88,394.18Zm0,7.39a3,3,0,1,1,0-6,3,3,0,1,1,0,6ZM88.76,282.19c-.33.46-.65.93-1,1.39a2.82,2.82,0,0,1,.08.65,3,3,0,0,1-2.59,3c-.33.49-.66,1-1,1.46a3.91,3.91,0,0,0,.49,0,4.48,4.48,0,0,0,4.49-4.49A4.29,4.29,0,0,0,88.76,282.19Zm-4,43.41a4.41,4.41,0,0,0,0,8.81,4.41,4.41,0,1,0,0-8.81Zm0,7.4a3,3,0,0,1,0-6,3,3,0,1,1,0,6Zm0,38.29a4.43,4.43,0,1,0,4.49,4.4A4.49,4.49,0,0,0,84.79,371.29Zm0,7.44a3,3,0,0,1,0-6,3,3,0,1,1,0,6Z" style="opacity:0.2"></path><path d="M118.65,361.54q11.17-46.38,26.29-91.68-11.15,46.39-26.29,91.68Z" style="fill:#263238"></path><path d="M140.17,287.69a48,48,0,0,1,5.89-11.06,32.11,32.11,0,0,1-5.89,11.06Z" style="fill:#263238"></path><path d="M47.26,401.94c14.33,11.26,45.94,5,117.8-2.29,9.95-1,18.09-72.42,7.42-71.89-13.45.68-65.48,6.21-69.24,7.09C71.58,342.32,37.54,394.31,47.26,401.94Z" style="fill:#d3766a"></path><path d="M194.68,320c22.12-.49,27.87,2.78,46.32-7.55,12.1-6.78,21.62-2,13.76,10.13C241.89,342.33,213.49,349,203,348.42Z" style="fill:#d3766a"></path><polygon points="282.78 383.31 265.7 395.35 201.97 305.64 219.05 293.61 282.78 383.31" style="fill:#455a64"></polygon><g style="opacity:0.1"><path d="M277.68,383.26c-19.38-26.73-40.85-56.93-59.72-84,19.38,26.74,40.84,56.93,59.72,84Z"></path><path d="M274.29,385.65c-19.38-26.74-40.84-56.93-59.72-84,19.38,26.73,40.84,56.93,59.72,84Z"></path><path d="M270.91,388c-19.38-26.74-40.85-56.94-59.73-84,19.39,26.74,40.85,56.93,59.73,84Z"></path><path d="M267.52,390.42c-19.38-26.74-40.84-56.93-59.72-84,19.38,26.73,40.84,56.93,59.72,84Z"></path></g><path d="M196.9,298.89s-8.6-9.78,1.08-16.61,16,4.58,16,4.58Z" style="fill:#ff9abb"></path><rect x="195.23" y="292.29" width="24.39" height="5.92" transform="translate(-132.2 173.38) rotate(-35.17)" style="fill:#a6a6a6"></rect><rect x="199" y="297.64" width="24.39" height="5.92" transform="translate(-134.6 176.53) rotate(-35.17)" style="fill:#a6a6a6"></rect><path d="M282.78,383.3,285,400.12l.75,5.54-5-2.55-15.08-7.76,0-3.7s3.37,1.28,3.44,1.29l0-3.7s3.37,1.28,3.44,1.29l-.06-3.67s3.41,1.25,3.48,1.26l-.06-3.67s3.41,1.25,3.48,1.26l-.06-3.67S282.72,383.29,282.78,383.3Z" style="fill:#FFC727"></path><path d="M282.78,383.3,285,400.12l.75,5.54-5-2.55-15.08-7.76,0-3.7s3.37,1.28,3.44,1.29l0-3.7s3.37,1.28,3.44,1.29l-.06-3.67s3.41,1.25,3.48,1.26l-.06-3.67s3.41,1.25,3.48,1.26l-.06-3.67S282.72,383.29,282.78,383.3Z" style="fill:#fff;opacity:0.8"></path><polygon points="285.02 400.12 285.77 405.66 280.77 403.11 285.02 400.12" style="fill:#263238"></polygon><path d="M134.42,334.17s26-10.73,49.56-13.58c16.26-2,52.13-2.33,81.87,36.48,7.06,9.2,10.58,27.33-6.4,16.48-12.06-7.71-17.39-16.24-25.22-19.45,0,0,1.75,23.58-7.75,30.29-4.25,3-16,10.91-26.07,15.76a44.13,44.13,0,0,1-3.39-4.61s-18.53,9.25-37.87,4.72Z" style="fill:#d3766a"></path><path d="M199.8,321.18c7.11,4.82,22,15.3,31.18,28.11,10.21,14.23,26,44.38,15.47,51.81-7.76,5.45-14.82-5.53-14.82-5.53s3.92,13.84-4.16,17.23c-7.37,3.08-12.32-5.74-12.32-5.74s.94,8.81-6.73,10.41c-9.23,1.94-9.67-16.83-20.7-23C185.24,393.15,199.8,321.18,199.8,321.18Z" style="fill:#d3766a"></path><path d="M214.15,357.57c5.94,5.64,16.14,21.89,17.64,37.67,0,.35-.22.57-.32.25A171.55,171.55,0,0,0,214,357.67C214,357.59,214.09,357.51,214.15,357.57Z" style="fill:#263238"></path><path d="M200.09,368.3c4.62,5.38,14.39,22.61,15.36,38.65,0,.36-.24.56-.33.23A183.89,183.89,0,0,0,200,368.38C199.91,368.3,200,368.23,200.09,368.3Z" style="fill:#263238"></path><path d="M160,321.43l-40.1,98s-67.16-5.15-77.54-18.75C34.94,391,67.9,341,103,332.83Z" style="fill:#FFC727"></path><path d="M84.79,371.29a4.43,4.43,0,1,0,4.49,4.4A4.49,4.49,0,0,0,84.79,371.29Zm0,7.44a3,3,0,0,1,0-6,3,3,0,1,1,0,6ZM52.88,394.18a4.43,4.43,0,1,0,4.45,4.36A4.43,4.43,0,0,0,52.88,394.18Zm0,7.39a3,3,0,1,1,0-6,3,3,0,1,1,0,6Zm96.22-76a4.41,4.41,0,1,0,4.44,4.36A4.41,4.41,0,0,0,149.1,325.6Zm0,7.4a3,3,0,1,1,3-3A3,3,0,0,1,149.1,333Zm-32,61.18a4.43,4.43,0,0,0,0,8.85,4.43,4.43,0,1,0,0-8.85Zm0,7.39a3,3,0,0,1,0-6,3,3,0,1,1,0,6Zm0-53.12a4.42,4.42,0,0,0,0,8.84,4.42,4.42,0,1,0,0-8.84Zm0,7.39a3,3,0,0,1-3-3,3,3,0,1,1,6.07,0A3,3,0,0,1,117.14,355.84Z" style="opacity:0.2"></path><path d="M65.07,357.17c3.86-6,17.75-19.38,38-24.41.18,0,.29.23.12.29-14.7,5.21-33.65,18.89-37.86,24.31C65.18,357.51,65,357.32,65.07,357.17Z" style="fill:#263238"></path><path d="M107,403.65c3.12-9.75,6.75-19.33,10.41-28.89s7.31-19.15,11.22-28.63c2.2-5.35,4.38-10.72,6.77-16,.06-.14.31-.07.26.08-3.11,9.74-6.71,19.34-10.3,28.91s-7.31,19.16-11.1,28.68c-2.14,5.38-4.38,10.72-6.77,16C107.35,404.06,106.89,403.93,107,403.65Z" style="fill:#263238"></path><path d="M159.79,320.55A91,91,0,0,0,148,322.27c-3.92.73-7.83,1.53-11.73,2.35-7.75,1.65-24.38,4.27-37.85,9.52-.15.05.89.48,1,.42,6.28-2.83,55.84-11.45,59.73-12.65-.06.31-2.45,6.6-2.46,6.92s.27.39.42.17c.35-.5,2.88-7,3.19-7.54A.58.58,0,0,0,159.79,320.55Z" style="fill:#263238"></path><path d="M126.3,403.81c-1.89,5.48-3.91,10.92-5.94,16.35-8.93-.53-17.82-1.48-26.67-2.7-13-1.93-26.09-4.26-38.39-9-1.34-.58-2.67-1.2-4-1.8,11,3.86,22.56,5.65,34,7.54s23.06,3.28,34.62,4.6l-.67.42c2.28-5.16,4.6-10.3,7-15.4Z" style="fill:#263238"></path></g><g id="freepik--Device--inject-119"><rect x="226.77" y="407.28" width="147.54" height="7.06" style="fill:#455a64"></rect><polygon points="374.31 407.28 374.31 414.33 288.38 414.33 293.78 407.28 374.31 407.28" style="fill:#37474f"></polygon><polygon points="316.01 414.34 443.89 414.34 463.84 317.06 335.96 317.06 316.01 414.34" style="fill:#37474f"></polygon><polygon points="322.45 414.34 450.33 414.34 470.29 317.06 342.4 317.06 322.45 414.34" style="fill:#455a64"></polygon><path d="M404,365.7c-.66,4.53-3.87,8.2-7.18,8.2s-5.46-3.67-4.8-8.2,3.87-8.2,7.18-8.2S404.61,361.17,404,365.7Z" style="fill:#fff"></path></g><g id="freepik--Glasses--inject-119"><path d="M328.64,432.06l-2.15-.5c.23-1,2.41-9.88,7-11.87,4.29-1.86,50.56-7.25,51.81-7.44l.34,2.18c-8.43,1.32-48,5.84-51.27,7.29C331.34,423,329.21,429.63,328.64,432.06Z" style="fill:#FFC727"></path><path d="M328.64,432.06l-2.15-.5c.23-1,2.41-9.88,7-11.87,4.29-1.86,50.56-7.25,51.81-7.44l.34,2.18c-8.43,1.32-48,5.84-51.27,7.29C331.34,423,329.21,429.63,328.64,432.06Z" style="opacity:0.1"></path><path d="M337,434.31a16.54,16.54,0,1,1,17.41-19.48h0a16.56,16.56,0,0,1-13.3,19.24A16.34,16.34,0,0,1,337,434.31Zm2.12-30.81a14.69,14.69,0,0,0-3.55.2,14.33,14.33,0,1,0,3.55-.2Z" style="fill:#FFC727"></path><path d="M374.87,432.28c-6.32-.44-11.6-7.3-12-15.92a19.7,19.7,0,0,1,2.93-11.72c2.17-3.32,5.22-5.23,8.57-5.39s6.57,1.45,9.05,4.54a19.81,19.81,0,0,1,4,11.39c.43,9.1-4.73,16.78-11.51,17.11A9.73,9.73,0,0,1,374.87,432.28Zm.44-30.81a5.89,5.89,0,0,0-.84,0c-2.63.12-5.05,1.68-6.83,4.39a17.59,17.59,0,0,0-2.58,10.4c.39,7.9,5.2,14.11,10.79,13.83s9.78-6.91,9.4-14.8a17.5,17.5,0,0,0-3.57-10.1A9.08,9.08,0,0,0,375.31,401.47Z" style="fill:#FFC727"></path><path d="M353.91,416.77l-1.5-1.62c2.4-2.23,8.06-5.34,12.3-1.21l-1.54,1.58C359.38,411.82,354.13,416.57,353.91,416.77Z" style="fill:#FFC727"></path><path d="M266.62,433.72l-2.15-.5c.23-1,2.4-9.88,7-11.87,4.29-1.85,50.56-7.25,51.81-7.44l.35,2.18c-8.44,1.32-48,5.85-51.28,7.29C269.31,424.69,267.19,431.29,266.62,433.72Z" style="fill:#FFC727"></path></g><g id="freepik--paper-balls--inject-119"><path d="M408,400.62c2.48-2.05,6-4.18,7.12-2.75s.43,3,1.29,3.57,3.94.62,5.6,1a8.76,8.76,0,0,1,3.79,2.13c.24.39,1.28.64,1.11,1.81s.18,2.56,0,3.47,0,1.69,1.39,2.26,2.57,3.94,2,5.69-5.4,1.34-6.27,2.23-.7,1.49-1.21,2.69-1.76,4.1-4.09,5.53-4.76.06-6.73,0-3.36.63-5,.9a8.52,8.52,0,0,1-4.32-.38c-.57-.36-1.56.07-2-1.6s-.07-2.44-.78-3.61-.82-1.37-1.64-2.69-3.27-3-3-4.6,0-3.54,1.39-4.41,6.43-2.86,6.43-2.86a14.6,14.6,0,0,0,.27-2.48,4.4,4.4,0,0,1,2-3.73A11,11,0,0,0,408,400.62Z" style="fill:#fff"></path><path d="M408,400.62c1.67-1.25,6.41-5.3,7.64-1.91.44.84,0,2.26.93,2.75,1.91.65,4,.46,6,1.06a10.22,10.22,0,0,1,3.87,2.42,1.5,1.5,0,0,1,.64,1.46,25.89,25.89,0,0,0,.08,3,3.49,3.49,0,0,0,0,1.44c.2.71,1.1.91,1.65,1.29a6.16,6.16,0,0,1,1.75,5.89c-.35.82-1.35,1.1-2.1,1.31-1.34.42-3.11.23-4.22,1-.7.72-.68,1.8-1.12,2.68-1,2.37-2.37,4.81-4.94,5.93-2,.81-4.17-.22-6.15-.33-3.17,0-6.28,1.93-9.48.4-.33-.15-.71-.14-1.09-.34a2.1,2.1,0,0,1-1-1.38c-.32-1-.2-2.07-.46-3a27.21,27.21,0,0,0-1.46-2.61,11.17,11.17,0,0,0-1.83-2.38,5.11,5.11,0,0,1-1.58-2.66c.23-1.51,0-3.23,1-4.47,2.08-1.48,4.62-2.17,6.94-3.2.31-1.87,0-4.6,1.91-5.95a10.19,10.19,0,0,0,3-2.43Zm0,0a10.05,10.05,0,0,1-3,2.45c-1.89,1.42-1.49,3.92-1.88,6-2.24,1.07-4.84,1.78-6.85,3.28-.94,1.18-.68,2.91-.88,4.32.39,2,2.63,3.07,3.47,4.84a23.71,23.71,0,0,1,1.56,2.68,6.67,6.67,0,0,1,.25,1.56c.12,1.09.32,2.6,1.67,2.64a1.87,1.87,0,0,1,.61.22c3,1.18,6-.61,9.05-.64,2,.07,4,1.07,5.88.32,2.19-.92,3.62-3.31,4.56-5.5.5-1.06.52-2.48,1.65-3.17,1.75-.75,3.86-.41,5.5-1.35a1.25,1.25,0,0,0,.55-1.08c.06-1.76-.51-4.22-2.27-5a2.17,2.17,0,0,1-1.15-1.19,3.78,3.78,0,0,1,0-1.58,25.93,25.93,0,0,1,0-3.06c.2-.84-.61-1.18-1.08-1.73-2.4-2.57-6-2.18-9.14-3.08-1-.55-.52-1.93-1-2.81-1.17-3.34-5.93.68-7.57,1.88Z" style="fill:#c7c7c7"></path><path d="M400,423.6c2.37-.27,4.72-.66,7.07-1.07s4.7-.76,7-1.22a60.43,60.43,0,0,0,6.81-1.63,5.28,5.28,0,0,0,1.27-.59l.79-1.27a20.25,20.25,0,0,0,1.55-3,7.94,7.94,0,0,0,.7-3.07,3.33,3.33,0,0,0-.06-.72l-.09-.34,0-.15h0a2.68,2.68,0,0,0-1-.56,32.63,32.63,0,0,0-6.8-1.16c-2.35-.22-4.72-.32-7.09-.34-1.19,0-2.38,0-3.56,0-.6,0-1.19.05-1.78.11a8.78,8.78,0,0,0-.88.1c-.25.08-.67.07-.72.38,0-.34.44-.4.68-.52a7.18,7.18,0,0,1,.87-.26c.59-.14,1.18-.24,1.77-.34,1.19-.19,2.39-.33,3.58-.45q3.6-.27,7.21-.22a27.88,27.88,0,0,1,7.33.91,3.8,3.8,0,0,1,2,1.24,2.18,2.18,0,0,1,.22.4l.08.28.15.53a6.35,6.35,0,0,1,.11,1.06,10,10,0,0,1-.81,3.86,23.05,23.05,0,0,1-1.73,3.31l-.49.77-.25.38-.13.21c-.1.12-.21.23-.32.34a5.6,5.6,0,0,1-2,.93,44.61,44.61,0,0,1-7.16,1.35A90.6,90.6,0,0,1,400,423.6Z" style="fill:#dbdbdb"></path><path d="M409.82,422.4a40.57,40.57,0,0,1,.63-6.53c.17-1.09.43-2.15.69-3.23.13-.54.3-1.07.48-1.61a7.15,7.15,0,0,1,.82-1.73,1.39,1.39,0,0,1,.73-.6,1.67,1.67,0,0,1,.95-.06,7.11,7.11,0,0,1,.93.33,13.62,13.62,0,0,1,1.53.76c1,.56,1.91,1.11,2.8,1.75a26.74,26.74,0,0,1,5,4.25l-5.82-2.91c-1-.46-1.91-1-2.87-1.41-.47-.22-.94-.46-1.4-.63a4.66,4.66,0,0,0-.6-.2s0,0,.16,0a.35.35,0,0,0,.2-.13l0,.08a5.31,5.31,0,0,0-.57,1.19l-.52,1.48-1,3.05C411.31,418.29,410.65,420.35,409.82,422.4Z" style="fill:#dbdbdb"></path><path d="M109.42,442.72c-2.15.51-5,.77-5.23-.46s.65-2,.28-2.59-2.24-1.57-3.15-2.33a6.09,6.09,0,0,1-1.7-2.46c0-.31-.6-.78-.14-1.45s.67-1.64,1-2.15a1.24,1.24,0,0,0-.17-1.81c-.69-.78-.4-3.22.46-4.14s3.74.81,4.56.52.87-.71,1.55-1.3a8.13,8.13,0,0,1,4.2-2.17c1.87-.18,3,1.4,4.17,2a15.84,15.84,0,0,0,3.34.94,6,6,0,0,1,2.56,1.54c.24.4,1,.44.78,1.61s-.7,1.53-.61,2.47.09,1.1.19,2.16,1.12,2.85.47,3.75-1,2.19-2.2,2.3S115,439,115,439a10.1,10.1,0,0,0-.91,1.44,3,3,0,0,1-2.38,1.7A7.53,7.53,0,0,0,109.42,442.72Z" style="fill:#fff"></path><path d="M109.42,442.72c-2,.45-6.55,1.37-5-2.16.11-.32.23-.69,0-.95-1-1-2.34-1.48-3.4-2.45a7,7,0,0,1-1.67-2.67,1.07,1.07,0,0,1,0-1.14,18.67,18.67,0,0,0,.86-1.9c.2-.36.41-.57.43-.86.09-.48-.42-.87-.63-1.26a4.33,4.33,0,0,1,.7-4.28c1.41-.94,3.23.63,4.63.46A1.62,1.62,0,0,0,106,425c1.47-1.57,3.34-3,5.69-3,1.65.16,2.65,1.5,3.74,2.08,2,.92,4.53.75,6,2.66,1.55,1,.45,2.52.14,3.75a17.79,17.79,0,0,0,.11,2c0,1.46,1,2.68.55,4.17-.62.87-1,2-2,2.46A24.47,24.47,0,0,1,115,439c-.87,1.15-1.42,2.82-3,3.11a6.84,6.84,0,0,0-2.59.59Zm0,0a6.83,6.83,0,0,1,2.58-.62c1.6-.31,2.1-2,3-3.13,1.39,0,2.82.19,4.22.15,1.59.22,2.15-1.43,2.83-2.52.28-.94-.31-2-.54-3a18.55,18.55,0,0,1-.27-2.1,5.53,5.53,0,0,1-.06-1.1c.14-.8.51-1.35.57-2s-.26-.86-.71-1.31c-1.49-1.74-3.79-1.43-5.85-2.4-1.23-.66-2.1-1.84-3.49-2-1.58-.1-3.19.93-4.41,2-.56.44-.94,1.17-1.68,1.4-1.51.28-2.71-.88-4.16-.76-1.16.25-1.59,3.38-.72,4.13a1.54,1.54,0,0,1,.35,1.13,2.7,2.7,0,0,1-.5,1,19.47,19.47,0,0,1-.93,1.9c-.37.45,0,.87.15,1.36.7,2.3,3,3.15,4.68,4.66.46.66-.26,1.35-.25,2-.27,2.42,3.84,1.36,5.23,1.13Z" style="fill:#c7c7c7"></path><path d="M101.17,430.53c1.15-1.23,2.39-2.33,3.56-3.48l.91-.83.47-.42a2.47,2.47,0,0,1,.92-.44,12.68,12.68,0,0,1,2.66-.34,25.62,25.62,0,0,1,5.16.29,8.38,8.38,0,0,1,2.78.85,2.81,2.81,0,0,1,1.22,1.71,5.1,5.1,0,0,1,.21,1.58,16.87,16.87,0,0,1-1.17,5.24,21.54,21.54,0,0,1-1.11,2.39,12,12,0,0,1-.74,1.18,3.09,3.09,0,0,1-1.39,1.08,13.06,13.06,0,0,1-5.32.34,36.13,36.13,0,0,1-5-.87c1.68-.12,3.33-.15,5-.35a15.1,15.1,0,0,0,4.51-.89c.32-.17.23-.17.48-.5a10,10,0,0,0,.5-1,19.82,19.82,0,0,0,.84-2.19,15.38,15.38,0,0,0,.9-4.46,1.84,1.84,0,0,1,.56-1.19,16.08,16.08,0,0,0-2.72-.62,33.46,33.46,0,0,0-4.73-.67,16.24,16.24,0,0,0-2.31,0c-.15,0-.29.07-.24,0l-.52.33-1.07.69C104.06,428.83,102.66,429.75,101.17,430.53Z" style="fill:#dbdbdb"></path><path d="M106.33,427.35c.09,1.59,0,3.13.15,4.53.06.65.21,1.45.38,1.49,0,0,0-.05-.06-.05s0,0,.14,0a6.33,6.33,0,0,0,.86-.1c1.35-.22,2.8-.63,4.27-.94a31.28,31.28,0,0,1,4.58-.74,19.12,19.12,0,0,1-8.45,4.14,7.77,7.77,0,0,1-1.41.07,3.32,3.32,0,0,1-1-.22,2.14,2.14,0,0,1-.89-.81,4.18,4.18,0,0,1-.39-2.93A11.19,11.19,0,0,1,106.33,427.35Z" style="fill:#dbdbdb"></path><path d="M83.08,410.19c-1.11-3.37-.92-7.27-4.71-6.86s-6.07-4.33-7.78-5.47-7.77,0-9.1,1.14-1.9,3.35-3.23,4.33-3.22,2.5-4.93,4-4.17,3.6-3.41,7.39,2.46,5.09,3.6,7-.76,5.32.76,9.68,8.92,6.07,10.81,5.32,7-4,9.74-4,3.54,2.28,6,.95,6.06-4.17,6.25-5.31-2.08-2.14-1.32-3.91,3.79-5.11,3.41-7.33S83.93,412.77,83.08,410.19Z" style="fill:#fff"></path><path d="M83.08,410.19c-.92-2.24-.62-5.86-3.35-6.76-1.28-.21-2.69.18-3.89-.55-1.79-.93-3-2.6-4.31-4.06A3.43,3.43,0,0,0,70,397.69a14.05,14.05,0,0,0-7.67,1c-1.88.86-2.19,3.2-3.63,4.56-2.21,2-5.55,4.25-7.35,6.54-2.94,3.86,0,8.5,2.49,11.77a4.69,4.69,0,0,1,.43,2.62c-.23,2.58-.49,5.24.59,7.62,1.77,3.3,6.23,4.94,9.81,4.73,2.36-.86,4.72-2.44,7.13-3.29a7.29,7.29,0,0,1,4-.61c1.39.23,2.44,1.32,3.67,1.3s2.37-1,3.43-1.67a18.36,18.36,0,0,0,3.73-3.18c.85-.89,0-1.66-.55-2.47a2.16,2.16,0,0,1-.43-1.92c.92-2.62,5.12-6,2.86-8.8-1.64-2-4.36-3.2-5.41-5.7Zm0,0c1.07,2.5,3.79,3.64,5.46,5.66a2.64,2.64,0,0,1,.7,1.83c-.19,2-1.55,3.65-2.56,5.32-.73,1.07-1.5,2.35-.48,3.51.31.49,1,1.1,1,1.75a1.75,1.75,0,0,1-.41.95,19.52,19.52,0,0,1-3.73,3.3c-1.14.71-2.18,1.68-3.6,1.8s-2.44-1.06-3.77-1.24c-2.57-.35-5,1.27-7.27,2.34a23.56,23.56,0,0,1-3.65,1.75c-3.92.28-8.64-1.47-10.58-5-1.19-2.51-.92-5.36-.66-8a3.66,3.66,0,0,0-.57-2.62c-4.16-5.31-5.36-10.49.81-14.84l3.1-2.49a8.75,8.75,0,0,0,2.68-2.77c.69-1.11,1.33-2.48,2.63-3a14.18,14.18,0,0,1,7.85-.89c1.17.34,2.09,1.89,2.88,2.71a10.74,10.74,0,0,0,3,2.57c1.2.73,2.57.34,3.86.57,2.76.91,2.43,4.55,3.34,6.81Z" style="fill:#c7c7c7"></path><path d="M76.05,402.93a105.35,105.35,0,0,0-13.68,5.45,7.93,7.93,0,0,0-1.37.91c-.17,0-.29.86-.39,1.39-.21,1.18-.36,2.4-.49,3.62-.24,2.43-.43,4.88-.44,7.3a21.14,21.14,0,0,0,.19,3.52,3.11,3.11,0,0,0,.25.95,4.56,4.56,0,0,0,1.33.41,36.68,36.68,0,0,0,7.15.35c1.2-.05,2.41-.12,3.55-.28s2.42-.51,3.58-.72c2.42-.49,4.84-.95,7.16-1.55.57-.16,1.16-.3,1.63-.48l.29-.12s.12-.06,0,0a.38.38,0,0,0-.17.24,1.19,1.19,0,0,0-.09.9,1,1,0,0,0,.23.41.67.67,0,0,0,.15.13s0,0,0,0l-.33-.13c-1.06-.35-2.28-.63-3.46-.91l-7.22-1.61c-2.41-.53-4.83-1.06-7.25-1.68-1.21-.31-2.42-.62-3.64-1.05a6.08,6.08,0,0,1-2-1.05,2,2,0,0,1-.21-.26,1.52,1.52,0,0,1-.18-.47,3.2,3.2,0,0,1,0-.44,2.3,2.3,0,0,1,.13-.7,6.37,6.37,0,0,1,.44-1,31.31,31.31,0,0,1,4.7-6c.44-.45.89-.89,1.37-1.32A9.25,9.25,0,0,1,68,408a3.47,3.47,0,0,1,.42-.3,1.74,1.74,0,0,1,.62-.32,1.79,1.79,0,0,1,1.4.34,7.11,7.11,0,0,1,.82.65,15.64,15.64,0,0,1,1.31,1.41,94.81,94.81,0,0,1,8.07,12.51,119.26,119.26,0,0,0-9-11.7,16.3,16.3,0,0,0-1.27-1.23,3.28,3.28,0,0,0-1-.62l-.18.13a3.33,3.33,0,0,0-.32.26c-.22.18-.43.38-.64.59-.42.41-.83.86-1.23,1.31a29.58,29.58,0,0,0-4.14,5.81,4.92,4.92,0,0,0-.27.7c0,.07-.07.23,0,.21h0a.57.57,0,0,0-.1-.25.32.32,0,0,0-.06-.08,7.7,7.7,0,0,0,1.3.5c1.12.35,2.3.65,3.49.94,2.38.56,4.79,1.06,7.2,1.55l9.26,1.77c1.23.28.43.25,1.73.66.16.05.34.11.53.19a2.9,2.9,0,0,1,.38.2,1.86,1.86,0,0,1,.33.27,1.48,1.48,0,0,1,.3.52,1.34,1.34,0,0,1-.1,1,2.21,2.21,0,0,1-.51.55,1.42,1.42,0,0,1-.34.21,4.37,4.37,0,0,1-.57.26,16.49,16.49,0,0,1-1.91.59c-2.47.6-4.9,1-7.33,1.48-1.28.21-2.29.46-3.7.68a35.84,35.84,0,0,1-3.83.25,38.7,38.7,0,0,1-7.62-.51,5.85,5.85,0,0,1-2.14-.78,2.4,2.4,0,0,1-.87-1.3,4.83,4.83,0,0,1-.21-1.09,23.94,23.94,0,0,1-.05-3.87c.14-2.52.44-5,.8-7.45.2-1.24.4-2.46.67-3.7.23-.63.08-1.2.84-2a7.3,7.3,0,0,1,1.75-1.06,62.27,62.27,0,0,1,7.05-2.49C71.24,404.1,73.63,403.43,76.05,402.93Z" style="fill:#dbdbdb"></path><path d="M336.92,438.26c-2.12.69-4.56.57-4.31,2.95s-2.71,3.81-3.43,4.88,0,4.88.72,5.72,2.1,1.19,2.71,2,1.57,2,2.52,3.09,2.27,2.62,4.65,2.15,3.19-1.55,4.39-2.27,3.34.48,6.08-.47,3.81-5.6,3.34-6.79-2.5-4.37-2.5-6.11,1.42-2.22.59-3.77-2.62-3.81-3.33-3.93-1.35,1.31-2.46.84-3.2-2.38-4.6-2.15S338.54,437.72,336.92,438.26Z" style="fill:#fff"></path><path d="M336.92,438.26c-1.4.57-3.68.39-4.23,2.1-.14.8.11,1.69-.35,2.44a10.27,10.27,0,0,1-2.54,2.72c-1.07.81-.84,2.21-.7,3.39a10.29,10.29,0,0,0,.65,2.36c.51,1.12,2,1.36,2.87,2.25,1.26,1.39,2.64,3.43,4.11,4.57,2,1.54,4.68.39,6.46-1a4.5,4.5,0,0,1,1.15-.7c1.28-.36,2.57.09,3.81,0,3.45.17,5.34-3.44,5.19-6.48-.54-1.46-1.52-3-2-4.47a4.71,4.71,0,0,1-.37-2.56c.16-.89.84-1.56.83-2.29a5.23,5.23,0,0,0-1-2.12c-.69-.89-1.39-2.17-2.46-2.58-.73.11-1.36,1.19-2.25.85-1.52-.64-2.71-2.05-4.4-2.24a1.61,1.61,0,0,0-1.11.42c-1.27,1-2,2.74-3.58,3.4Zm0,0c1.56-.68,2.28-2.39,3.55-3.44,1.86-1.45,3.86,1.16,5.58,1.73,1.49.3,1.7-2,3.31-.24,5.61,6,.58,4.24,2.41,8.88.59,1.58,1.63,2.93,2.2,4.53.28,3.47-2,7.49-5.79,7.36-1.23.1-2.47-.33-3.61-.07-1.79,1.1-3.39,2.5-5.71,2.46-2.73,0-4.23-2.92-5.78-4.72l-.76-1c-.84-.9-2.29-1.12-2.84-2.4a8.88,8.88,0,0,1-.54-5,2.33,2.33,0,0,1,.77-1,10.26,10.26,0,0,0,2.56-2.66c.46-.75.21-1.61.36-2.42.59-1.75,2.86-1.52,4.29-2.09Z" style="fill:#c7c7c7"></path><path d="M332.36,442.67a67.55,67.55,0,0,0,3.42,8.58,5.34,5.34,0,0,0,.57.86c0,.11.55.18.87.25.75.13,1.51.22,2.28.3,1.52.16,3.06.27,4.58.28a14.31,14.31,0,0,0,2.21-.12,2.51,2.51,0,0,0,.6-.15,3.16,3.16,0,0,0,.25-.84,23.76,23.76,0,0,0,.22-4.49,20.32,20.32,0,0,0-.18-2.23c-.1-.64-.31-1.52-.45-2.24-.3-1.52-.59-3-1-4.5-.1-.35-.19-.73-.3-1a.81.81,0,0,0-.08-.18s0-.08,0,0a.28.28,0,0,0,.15.11.76.76,0,0,0,.57.05.64.64,0,0,0,.26-.15.38.38,0,0,0,.08-.09s0,0,0,0l-.08.21c-.22.66-.4,1.43-.57,2.17l-1,4.53c-.33,1.51-.67,3-1.05,4.55-.2.76-.4,1.52-.66,2.29a4.06,4.06,0,0,1-.67,1.28l-.16.13a.86.86,0,0,1-.29.11h-.28a1.47,1.47,0,0,1-.44-.09,3.32,3.32,0,0,1-.63-.27,19.81,19.81,0,0,1-3.79-2.95c-.28-.28-.56-.56-.83-.86a6.08,6.08,0,0,1-.39-.47,1.74,1.74,0,0,1-.19-.26,1,1,0,0,1-.2-.39,1.17,1.17,0,0,1,.21-.89,5.37,5.37,0,0,1,.41-.51,9.71,9.71,0,0,1,.89-.82,58.26,58.26,0,0,1,7.85-5.06,73.07,73.07,0,0,0-7.34,5.63c-.28.27-.54.53-.78.8a2.19,2.19,0,0,0-.39.62c0-.09.05.06.08.11l.17.2c.11.13.24.27.37.4s.54.52.82.77a18.34,18.34,0,0,0,3.65,2.6c.15.06.32.14.43.17s.15,0,.14,0h0a.58.58,0,0,0-.15.06l-.05,0a5.86,5.86,0,0,0,.31-.81c.22-.71.41-1.45.59-2.19.35-1.5.66-3,1-4.53l1.12-5.81c.17-.77.15-.27.41-1.08,0-.1.07-.21.12-.34a1.74,1.74,0,0,1,.12-.23,1.19,1.19,0,0,1,.17-.21.93.93,0,0,1,.33-.19.82.82,0,0,1,.63.06,1.78,1.78,0,0,1,.35.32.93.93,0,0,1,.13.22,1.7,1.7,0,0,1,.16.35,11.7,11.7,0,0,1,.38,1.2c.37,1.55.64,3.08.92,4.61.14.8.29,1.43.43,2.32a21.78,21.78,0,0,1,.15,2.4,24.2,24.2,0,0,1-.31,4.78,3.72,3.72,0,0,1-.49,1.35,1.55,1.55,0,0,1-.82.54,2.66,2.66,0,0,1-.68.14,15.22,15.22,0,0,1-2.43,0c-1.58-.08-3.13-.27-4.68-.5-.77-.12-1.54-.25-2.32-.42-.39-.14-.75-.05-1.28-.52a4.85,4.85,0,0,1-.67-1.1,40.94,40.94,0,0,1-1.56-4.43C333.1,445.68,332.68,444.19,332.36,442.67Z" style="fill:#dbdbdb"></path></g><g id="freepik--Line--inject-119"><path d="M225.61,70.12a15.92,15.92,0,0,0,3.82,3.61c.92,3.78,4.18,6.36,7.11,8a32.88,32.88,0,0,0,11,3.53,60.84,60.84,0,0,0,18.84-.65c1.2,5.46,1,11.41.71,17,0,.15.19.14.2,0,.32-5.57.66-11.56-.33-17.12,1.22-.21,2.45-.44,3.66-.69,1.86-.39,3.76-.85,5.64-1.43A57,57,0,0,0,286,79.23c3.67-1.59,7.17-4,9.19-8A12.89,12.89,0,0,0,295,59.28a20.67,20.67,0,0,0-3.14-4.36,22.71,22.71,0,0,0-2.45-2.61,30.24,30.24,0,0,0-9.74-5.86c-.92-.35-1.85-.67-2.79-1l-.4-.22a35.6,35.6,0,0,0-11.43-3.65,51.12,51.12,0,0,0-24.72,2.24,53.19,53.19,0,0,0-11.56,5.67c-3.19,2.09-6.1,5-6.55,9.37a15,15,0,0,0,2,8.87A12.71,12.71,0,0,0,225.61,70.12Zm47.25,11.35c-2.1.42-4.23.76-6.37,1-.07-.28-.13-.56-.21-.84.47-.09.94-.19,1.4-.31s.84-.23,1.27-.37a52,52,0,0,0,11.51-3.44A49.78,49.78,0,0,0,290,72.08c-3.87,4.69-9.76,7.32-15,8.84C274.25,81.12,273.56,81.29,272.86,81.47ZM249.34,46.69c1.11-.16,2.23-.29,3.34-.41a25.77,25.77,0,0,0-7.51,4.51,18.32,18.32,0,0,0-5.59,8.35,18.67,18.67,0,0,0-3.5,3.44c-.29.14-.59.28-.87.44a14.7,14.7,0,0,0-3,2.23,3.66,3.66,0,0,1-.18-.46c-1.1-3.77.8-7.3,3.15-9.8a30.19,30.19,0,0,1,9.15-6.37A39.7,39.7,0,0,1,249.34,46.69ZM234.91,71.05a17,17,0,0,0,1.39,1,7.33,7.33,0,0,0-.61,1.44A8.88,8.88,0,0,1,234.91,71.05Zm30.67,10.71c.08.26.15.52.23.78a64.13,64.13,0,0,1-9.08.34c1.82-.15,3.65-.36,5.47-.62C263.32,82.1,264.45,82,265.58,81.76Zm-2.28-4.92a67.54,67.54,0,0,1-23.21-.74c-1-.21-2-.46-3-.75a5,5,0,0,1,.67-2.44A32.48,32.48,0,0,0,249.39,76a101.4,101.4,0,0,0,12.69.24.57.57,0,0,0,.55-.41l.12.16C262.94,76.25,263.12,76.55,263.3,76.84ZM240,72.28c-.4-.16-.82-.34-1.23-.54A7.91,7.91,0,0,1,243.12,70a32.21,32.21,0,0,1,10.95,0,13.84,13.84,0,0,1,7.75,4.76C254.52,74.91,247,75,240,72.28Zm24.21,6.1c.22.44.43.89.62,1.34h-.07l-1.67.22c-.8.06-1.59.1-2.39.12A56.86,56.86,0,0,1,248.46,79a70,70,0,0,0,13.11-.26C262.44,78.64,263.3,78.51,264.17,78.38Zm.91-.13c2.33-.38,4.64-.89,6.93-1.5a7.14,7.14,0,0,1-2.83,1.92,17.27,17.27,0,0,1-3.56.92C265.45,79.14,265.27,78.69,265.08,78.25ZM248.7,80.78l-.6,0a28.92,28.92,0,0,1-5.28-1c-.51-.14-1-.29-1.59-.46-.27-.16-.55-.32-.81-.5s-.33-.24-.49-.36A59.79,59.79,0,0,0,248.7,80.78ZM234.82,69.1a9.7,9.7,0,0,1,1.68-4.84A17.29,17.29,0,0,1,239.71,63a4.47,4.47,0,0,0,2.1,1.66,40.6,40.6,0,0,0,5.64,1.89,46.29,46.29,0,0,0,21.26.46,12.55,12.55,0,0,1,3.66,4.17,5.72,5.72,0,0,1,.58,3.71,67.78,67.78,0,0,1-8.62,1.82c-.24-.44-.5-.89-.77-1.32a15,15,0,0,0-9-6.72,32.34,32.34,0,0,0-11.52-.43,9,9,0,0,0-5.84,2.51,1.13,1.13,0,0,0-.1.13A13.57,13.57,0,0,1,234.82,69.1Zm48.45-10.47a5.07,5.07,0,0,1-1.63,1.75,25.64,25.64,0,0,0-9.43-5.82,33.66,33.66,0,0,0-30.43,3.07c.06-.13.12-.24.18-.35a16.85,16.85,0,0,1,2.95-4.05c4.43-4.55,10.63-6.63,16.52-7.3h.45a50.81,50.81,0,0,1,18.62,4l.26.24C282.61,52.11,284.79,55.73,283.27,58.63Zm-42.43,1.25a30.8,30.8,0,0,1,7.93-4.23,32.75,32.75,0,0,1,19.68-.81,32.12,32.12,0,0,1,9.34,4.21,17.41,17.41,0,0,1,2.6,2.08c-.53.27-1.07.52-1.57.76a46.87,46.87,0,0,1-5.31,2.16c-1.37.46-2.76.83-4.16,1.16l-.16-.12c-6.35-4.57-14.2-5.29-21.51-5a38.69,38.69,0,0,0-7,.85A4.7,4.7,0,0,1,240.84,59.88Zm2.36,2.37A49.57,49.57,0,0,1,254,62a30.92,30.92,0,0,1,10.14,2.41,26.37,26.37,0,0,1,2.63,1.36,44.58,44.58,0,0,1-15,.06,46.14,46.14,0,0,1-5.27-1.21c-.95-.29-1.89-.6-2.83-.94a9.18,9.18,0,0,1-2.35-1.06C242,62.45,242.59,62.34,243.2,62.25Zm39.59,6.38c-1.13,3-4.29,4.44-6.82,5.31-.37.13-.75.23-1.12.35.2-3.16-1.75-5.85-3.92-7.8h0a40.09,40.09,0,0,0,10.5-4.19A6.28,6.28,0,0,1,282.79,68.63Zm-49.11-.77a9.28,9.28,0,0,1-.68-1,12.53,12.53,0,0,1,1.32-1.21c-.11.28-.23.56-.32.85A8.13,8.13,0,0,0,233.68,67.86Zm58.91,0a19.5,19.5,0,0,1-2.22,1.89,48.2,48.2,0,0,1-9.2,5.61,49.7,49.7,0,0,1-7.92,2.87,6.44,6.44,0,0,0,1.24-2.19l.12,0c3-.92,6.44-2.14,8.48-5a7.54,7.54,0,0,0,1.35-5,8.91,8.91,0,0,0-1.83-4.42,6.08,6.08,0,0,0,2.46-3.88,8.74,8.74,0,0,0-.76-4.76,12.15,12.15,0,0,0-.8-1.52,26.2,26.2,0,0,1,7.6,5.41,9.45,9.45,0,0,1,2.56,5.49,11.37,11.37,0,0,1-.95,5.33C292.68,67.69,292.63,67.78,292.59,67.88Zm-58.52,6.39a28.61,28.61,0,0,1-3.31-1.9,6.47,6.47,0,0,1,1.3-4.42,12.15,12.15,0,0,0,1.49,1.86,11.45,11.45,0,0,0,1.22,4.75Zm-7.71-6a9.87,9.87,0,0,1-1.63-6.51,13.25,13.25,0,0,1,5.38-9c3.32-2.46,7.29-3.52,11.1-4.47l.6-.14a30.62,30.62,0,0,0-7.41,5.61c-2.47,2.58-4.47,6.17-3.89,10.15a9.72,9.72,0,0,0,.72,2.44,8.8,8.8,0,0,0-2,4.86A16.65,16.65,0,0,1,226.36,68.28Zm40-24.85a48.16,48.16,0,0,0-10.47.24,45.26,45.26,0,0,0-6,1.23q-3.3.45-6.52,1.14c-7.27,1.57-16.55,3.77-19.55,12.65-.1.29-.17.59-.25.88a9.93,9.93,0,0,1,.44-2.48,10.29,10.29,0,0,1,3.33-4.66,40.39,40.39,0,0,1,10.3-5.88,50.42,50.42,0,0,1,22.68-3.88A46.71,46.71,0,0,1,266.34,43.43Zm21.35,33.23c-.19.11-.39.21-.59.31a24.06,24.06,0,0,0,4.78-4.83A20,20,0,0,0,293.76,69a7.28,7.28,0,0,0,1.09-1.58A3.82,3.82,0,0,0,295,67a10.83,10.83,0,0,1-.21,1.11A14.06,14.06,0,0,1,287.69,76.66Zm-54.18.79a10.71,10.71,0,0,1-1.86-2.39,27.19,27.19,0,0,0,3.58,1.51l.24.11.06,0a5.7,5.7,0,0,0,3.05,3.67,22.86,22.86,0,0,0,5.75,2c.74.27,1.5.51,2.25.71.92.25,1.85.44,2.78.61a35.46,35.46,0,0,1-6.42-1.22A22.17,22.17,0,0,1,233.51,77.45Z" style="fill:#263238"></path></g></svg>