<svg xmlns="http://www.w3.org/2000/svg" viewBox="0 0 750 500"><g id="freepik--Shadow--inject-263"><ellipse cx="375" cy="409.13" rx="271.47" ry="25.28" style="fill:#ebebeb"></ellipse><ellipse cx="590.4" cy="443.9" rx="109.79" ry="23.07" style="fill:#ebebeb"></ellipse></g><g id="freepik--Plant--inject-263"><path d="M123.27,294c-3.09-3-7.08-6.69-11.81-5.39-4.44,1.23-6.14,6.09-6.94,10.13-1,5.21-1.82,10.47-2.65,15.71s-1.62,10.61-2.38,15.92c-.43,3-.86,6-1.28,9-.21,1.5-.41,3-.62,4.5s-.45,2.94-.53,4.42c0,.47.71.54.82.09.57-2.5.81-5.1,1.17-7.63l1.11-7.66q1.13-7.59,2.28-15.19t2.36-15.19c.68-4.29,1-9.62,4.81-12.45a7.33,7.33,0,0,1,7.11-.67,21.05,21.05,0,0,1,6.46,4.52C123.25,294.19,123.33,294.09,123.27,294Z" style="fill:#263238"></path><path d="M119,290.94s-6.31-2.27-9.43,2.34.61,16.34,29.37,23a81.12,81.12,0,0,0-6.92-26C125.9,276.78,114.91,281.87,119,290.94Z" style="fill:#FFC727"></path><path d="M137.33,314.31a22.57,22.57,0,0,0-1.45-2.33c-.48-.74-1-1.48-1.46-2.21-.37-.56-.74-1.1-1.12-1.65,0-.13,0-.27,0-.41s.07-.5.1-.75c.07-.54.15-1.08.23-1.61s.17-1.08.27-1.61a8.64,8.64,0,0,1,.38-1.69c0-.09-.12-.13-.13,0a5.36,5.36,0,0,1-.26,1l-.19.73c-.14.54-.27,1.09-.39,1.64s-.21,1-.3,1.53c0,.24-.08.49-.11.74-.51-.74-1-1.46-1.58-2.17-1.52-2-3.14-3.95-4.81-5.84,0,0,0,0,0-.05a52.11,52.11,0,0,1,.75-9c0-.08-.1-.12-.12,0a30.51,30.51,0,0,0-1.07,8.6c-.6-.67-1.21-1.34-1.82-2-1.4-1.5-2.83-3-4.29-4.44a.06.06,0,0,0-.09.09c2.42,2.61,4.72,5.33,7,8.09a51.08,51.08,0,0,0-5.25.2c-2,.14-3.89.39-5.83.66-.08,0-.06.14,0,.13a53.81,53.81,0,0,1,5.81-.52c1.88-.08,3.74,0,5.62,0q1.82,2.25,3.59,4.54h-1.59c-.87,0-1.75.07-2.62.15a39.54,39.54,0,0,0-5.31.79.07.07,0,0,0,0,.13c1.77-.2,3.54-.37,5.32-.43.85,0,1.7,0,2.54,0h1.33a1.56,1.56,0,0,0,.72-.06c.78,1,1.55,2,2.32,3q.92,1.2,1.8,2.43c.61.83,1.15,1.75,1.83,2.53C137.27,314.44,137.36,314.38,137.33,314.31Z" style="fill:#263238"></path><path d="M121.8,297.47a19.8,19.8,0,0,0-3.08-.14c-1,0-2,0-3.08.06a.07.07,0,1,0,0,.13c1-.07,2.08-.09,3.12-.08s2,.11,3,.09A0,0,0,0,0,121.8,297.47Z" style="fill:#263238"></path><path d="M130.82,299.79c.12-1,.24-2,.45-2.93,0-.09-.11-.12-.12,0-.15,1-.34,1.93-.48,2.9-.07.48-.14,1-.2,1.45a7,7,0,0,0-.11,1.37c0,.09.14.1.16,0a7.76,7.76,0,0,0,.15-1.37Z" style="fill:#263238"></path><path d="M128.93,288.91c-.25.95-.5,1.92-.68,2.9-.09.49-.16,1-.23,1.48a6,6,0,0,0-.09,1.46s.06,0,.07,0a8,8,0,0,0,.23-1.38c.06-.48.14-1,.22-1.43.17-1,.35-2,.6-3C129.07,288.87,129,288.83,128.93,288.91Z" style="fill:#263238"></path><path d="M91.48,347.25c-.16-1.81-.34-3.62-.53-5.43q-.57-5.37-1.3-10.73c-.48-3.56-.93-7.13-1.5-10.68a27.58,27.58,0,0,0-1.1-4.84,4.61,4.61,0,0,0-2.69-3c-3.38-1.17-5.66,2.34-7,4.82a.06.06,0,1,0,.11.06c.82-1.17,3.08-4.47,5.65-4.32,1.73.1,3.11,1.33,3.94,5.64,2.06,10.73,3.93,32.51,4.14,33.93.12.76.65.73.66-.08C91.84,350.8,91.63,349,91.48,347.25Z" style="fill:#263238"></path><path d="M78.24,316s3-10.45-3.58-5.23c-10.88,8.7-11.27,27.61-11.27,27.61s19.35-11.24,21.75-18.65C88.73,308.72,78.24,316,78.24,316Z" style="fill:#FFC727"></path><path d="M81.9,321.15c-1.51.31-3.05.51-4.59.73l-2.18.31c-.49.07-1,.11-1.48.17,1.45-2,2.9-4,4.28-6,0-.08-.07-.16-.13-.1A44.29,44.29,0,0,0,74.57,320c-.28-.81-.57-1.61-.86-2.42s-.68-1.87-.92-2.83a.06.06,0,1,0-.12,0c.26.95.45,1.93.7,2.89s.53,1.84.86,2.74c-.71.92-1.39,1.87-2,2.82-.33-.94-.75-1.86-1-2.82,0-.08-.15,0-.12,0,.35,1.06.53,2.16.86,3.23-.45.65-.89,1.3-1.31,1.95-.79,1.21-1.52,2.44-2.24,3.68a.28.28,0,0,0-.17.29c-1.22,2.11-2.39,4.26-3.53,6.43,0,.07.07.13.11.06,1.15-2.14,2.43-4.22,3.75-6.27h0a2.51,2.51,0,0,1,.63-.12l.67-.15c.5-.11,1-.23,1.49-.36,1-.24,2-.47,3-.65.08,0,0-.13,0-.12-1.17.22-2.34.36-3.53.49-.56.07-1.11.14-1.67.23h-.08c.7-1.06,1.4-2.11,2.12-3.14s1.42-2,2.15-3c.67-.09,1.34-.27,2-.39l2.25-.44c1.49-.3,3-.63,4.49-.88C82,321.26,82,321.14,81.9,321.15Z" style="fill:#263238"></path><path d="M70.28,322.18l-.27-.83a17.22,17.22,0,0,1-.44-1.75c0-.08-.14,0-.12,0,.12.59.26,1.18.4,1.76a11.54,11.54,0,0,0,.5,1.74.12.12,0,0,0,.22-.07C70.49,322.77,70.37,322.48,70.28,322.18Z" style="fill:#263238"></path><path d="M83.88,318.74c-.88.13-1.77.19-2.66.27s-1.77.2-2.66.33c0,0,0,.08,0,.08.89-.06,1.77-.13,2.66-.25s1.77-.24,2.66-.3C84,318.86,84,318.72,83.88,318.74Z" style="fill:#263238"></path><path d="M105.72,334c-.35-7.69-.84-15.36-1.61-23-.38-3.82-.81-7.63-1.35-11.43a82.76,82.76,0,0,0-2.2-11.05,21.4,21.4,0,0,0-3.69-7.8,8.33,8.33,0,0,0-7.43-3.24c-3.37.41-6.08,2.53-8.42,4.84-2.63,2.58-5,5.4-7.47,8.17-.62.7-1.23,1.4-1.84,2.11,0,.06,0,.15.1.09,2.38-2.74,4.85-5.39,7.44-7.94,2.39-2.34,4.86-4.91,8.17-5.88a8.35,8.35,0,0,1,4.75-.11,7.45,7.45,0,0,1,3.24,2.05,16.9,16.9,0,0,1,3.66,7.11c2.07,7.07,2.81,14.48,3.58,21.78s1.3,14.86,1.68,22.3.66,15,1.39,22.45c.08.92.2,1.84.32,2.76.08.62,1,.62,1,0C106.42,349.47,106.06,341.75,105.72,334Z" style="fill:#263238"></path><path d="M80.6,283.15S85,275,79.8,272.42s-22.56,16.77-27.63,45.12c0,0,28.05-12.41,37.57-24.77S88.47,277.68,80.6,283.15Z" style="fill:#FFC727"></path><path d="M84.72,289.76c-3.15,0-6.3-.24-9.45-.22l1.78-2a30.4,30.4,0,0,0,2.46-2.86c0-.06-.05-.16-.11-.11a22.57,22.57,0,0,0-2.39,2.4c-.79.83-1.57,1.68-2.36,2.52-1.2,1.31-2.38,2.63-3.56,4V293c0-.55,0-1.11,0-1.66l0-3.21c0-2.16,0-4.34.17-6.51,0-.08-.13-.07-.13,0-.15,2.17-.38,4.34-.48,6.51-.06,1.07-.08,2.14-.1,3.21,0,.56,0,1.11,0,1.66,0,.3,0,.62,0,.93-.19.21-.38.41-.56.62-2.52,2.87-4.91,5.85-7.24,8.87a4,4,0,0,0,0-.5c0-.33-.07-.67-.11-1-.08-.72-.18-1.44-.29-2.16s-.21-1.36-.32-2-.31-1.53-.37-2.29a.07.07,0,1,0-.13,0,22.06,22.06,0,0,1,.27,2.31c.06.69.13,1.38.19,2.08s.12,1.39.2,2.08c0,.33.06.67.1,1a4.26,4.26,0,0,0,.06.5,1,1,0,0,0,.13.4l-1.2,1.56c-1.59,2.11-3.15,4.24-4.71,6.36,0,.07,0,.16.09.09,1.48-1.93,3-3.82,4.55-5.7,1.15.05,2.33,0,3.48-.05s2.43,0,3.65,0a.07.07,0,0,0,0-.13c-1.22,0-2.44,0-3.65,0s-2.24,0-3.35,0c1.35-1.65,2.73-3.28,4.1-4.92.5-.59,1-1.19,1.51-1.78a6.54,6.54,0,0,0,1.4,0H70c1,0,2.08,0,3.11,0,2.14,0,4.28-.11,6.43-.11.08,0,.08-.13,0-.13-2.14,0-4.28-.12-6.43-.17L70,298.84l-1.66,0c-.31,0-.64,0-1,0l3.54-4.19a.14.14,0,0,0,.06-.07c1.15-1.36,2.3-2.72,3.46-4.06l.48-.55c3.27.1,6.54-.11,9.8-.05A.07.07,0,0,0,84.72,289.76Z" style="fill:#263238"></path><path d="M83.11,295.33h-.77c-.07,0-.07.12,0,.12h.76A.07.07,0,0,0,83.11,295.33Z" style="fill:#263238"></path><path d="M81.41,295.34q-1.51,0-3-.06l-1.51,0a6,6,0,0,0-1.41,0s0,.08,0,.09a5.55,5.55,0,0,0,1.41.1l1.51,0c1,0,2,0,3,0A.07.07,0,0,0,81.41,295.34Z" style="fill:#263238"></path><path d="M72.59,304.81a41.54,41.54,0,0,0-6.2-.56s0,0,0,.05c2.06.19,4.12.3,6.17.64C72.64,305,72.67,304.82,72.59,304.81Z" style="fill:#263238"></path><path d="M64.16,295.79l-.06-.55c-.06-.4-.12-.81-.19-1.21-.12-.77-.25-1.54-.4-2.3,0-.08-.13-.06-.12,0,.09.79.18,1.58.25,2.38,0,.39.07.78.1,1.17a3.18,3.18,0,0,0,.16,1.11c.06.12.24.07.27,0A1.61,1.61,0,0,0,64.16,295.79Z" style="fill:#263238"></path><path d="M105.44,272.71c-1-1.87-2.28-4.33-4.79-4.18-2.07.13-3,2.24-3.44,4-1.37,5.4-1.46,11.09-1.73,16.62-.56,11.69-1.07,23.4-1.14,35.1,0,3.25,0,6.49,0,9.74s0,6.64.23,9.94a.25.25,0,0,0,.49,0c0-2.83-.09-5.67-.1-8.5s0-5.52.06-8.28q.13-8.4.45-16.78c.2-5.56.45-11.12.68-16.68l.36-8.33c.12-2.69.24-5.38.55-8.06.17-1.49.39-3,.7-4.47a6.33,6.33,0,0,1,1.3-3,2.82,2.82,0,0,1,3.66-.26,7.75,7.75,0,0,1,2.59,3.23C105.37,272.85,105.48,272.79,105.44,272.71Z" style="fill:#263238"></path><path d="M104.76,271.82s-2.06-7.28,2.5-3.64c7.58,6.06,7.85,19.23,7.85,19.23s-13.48-7.83-15.16-13C97.46,266.73,104.76,271.82,104.76,271.82Z" style="fill:#FFC727"></path><path d="M112.27,282c-.12-.2-.25-.4-.38-.6a4.28,4.28,0,0,0,0-.62c0-.31,0-.62,0-.94,0-.61,0-1.22.07-1.84,0-.08-.13-.08-.13,0,0,.6-.06,1.2-.07,1.8,0,.31,0,.61,0,.91,0,.12,0,.25,0,.39-.53-.82-1.07-1.64-1.64-2.44-.16-.23-.33-.45-.5-.68a14.55,14.55,0,0,1,0-2.38c0-.85,0-1.69,0-2.54,0-.08-.12-.08-.13,0,0,.88-.06,1.75-.11,2.63a17,17,0,0,0,0,1.89c-1.3-1.77-2.68-3.48-4.08-5.18,0-.05-.15,0-.1.08.87,1.1,1.7,2.22,2.51,3.36-1.59-.37-3.2-.58-4.81-.82-.08,0-.12.12,0,.13,1.7.26,3.38.69,5.06,1.06h0c.65.91,1.29,1.83,1.92,2.74.26.37.51.75.77,1.13h-.08L110,280c-.37,0-.75-.08-1.12-.11-.78-.06-1.56-.1-2.33-.14-.09,0-.09.13,0,.13.77,0,1.53.07,2.29.16l1.2.14.53.07.16,0L112,282.2c.76,1.12,1.44,2.33,2.25,3.41a.06.06,0,0,0,.11-.06A34.71,34.71,0,0,0,112.27,282Z" style="fill:#263238"></path><path d="M108.91,273.79c0-.28,0-.56,0-.85a13.25,13.25,0,0,1,.07-1.78c0-.09-.13-.11-.13,0,0,.59-.06,1.17-.09,1.76,0,.3,0,.59,0,.89v.4a1.23,1.23,0,0,0,0,.43.06.06,0,0,0,.11,0,1.22,1.22,0,0,0,0-.38C108.92,274.09,108.91,273.94,108.91,273.79Z" style="fill:#263238"></path><path d="M107.25,276.81c-.5-.09-1-.12-1.52-.16s-1.11-.09-1.67-.17c-.09,0-.11.13,0,.13,1.06.07,2.12.26,3.19.3C107.29,276.91,107.31,276.82,107.25,276.81Z" style="fill:#263238"></path><path d="M111.48,276.85a.67.67,0,0,1,0,.28v.24c0,.17,0,.34,0,.5v.51a1.12,1.12,0,0,0,0,.45,0,0,0,0,0,0,0,.39.39,0,0,0,0-.21v-1.49c0-.07,0-.22,0-.28S111.4,276.73,111.48,276.85Z" style="fill:#263238"></path><path d="M105.75,311.54c-2.83-2.13-5.38-5.19-9.19-5.34-3.15-.12-5.35,2.24-6.61,4.88a26.8,26.8,0,0,0-1.55,4.35q-.86,3-1.6,6-1.48,5.93-2.53,12c-.38,2.24-.74,4.48-1,6.74a55.17,55.17,0,0,0-.66,6.9.36.36,0,0,0,.7.08c.38-1.89.55-3.84.82-5.74s.57-3.83.9-5.74q1-5.73,2.25-11.4c.82-3.56,1.62-7.18,2.77-10.66.82-2.49,2.15-5.39,4.83-6.29,4.09-1.36,7.81,2.1,10.8,4.35C105.73,311.68,105.82,311.59,105.75,311.54Z" style="fill:#263238"></path><path d="M102.82,309.5s-2.61-7.46,1.17-8.92c5.66-2.2,20.48,14.5,17.58,40.08a146,146,0,0,1-19.91-13.41c-8.46-7.09-10.62-16.36-6.9-18.76S102.82,309.5,102.82,309.5Z" style="fill:#FFC727"></path><path d="M119.86,335.18a18.83,18.83,0,0,0-1.38-2.58c-.48-.88-1-1.75-1.48-2.61-1-1.69-2-3.37-3-5l-.49-.81.06-.3c.05-.25.11-.49.17-.74.12-.56.22-1.12.32-1.68.21-1.09.4-2.2.69-3.27,0-.08-.11-.11-.12,0-.24,1.1-.58,2.17-.91,3.24-.16.53-.32,1.06-.46,1.59l-.15.55c-1.22-2-2.45-4-3.79-5.9a2.83,2.83,0,0,0,.13-.83c0-.37.09-.74.13-1.12.1-.84.2-1.68.32-2.52.25-1.65.49-3.28.9-4.9,0-.08-.11-.1-.13,0-.41,1.61-.85,3.22-1.16,4.85-.15.8-.29,1.61-.39,2.42-.06.4-.1.81-.14,1.21,0,.12,0,.24-.05.37-.41-.58-.82-1.16-1.25-1.73-1.31-1.72-2.66-3.4-4-5.07-.06-.07-.16,0-.11.07a90.39,90.39,0,0,1,6.44,9.41c.38.6.74,1.2,1.12,1.81l-.37-.05c-.48-.06-1-.09-1.45-.14l-2.89-.25c-1.93-.15-3.86-.27-5.79-.47-.08,0-.11.11,0,.12,2,.23,3.89.54,5.83.82l2.87.38a11.34,11.34,0,0,0,2.21.23l2.28,3.69c-.17,0-.35,0-.52,0h-2.75c-1.25,0-2.49,0-3.73,0-.08,0-.07.13,0,.13,1.26,0,2.52.08,3.77.15.6,0,1.2.06,1.79.11l.9.06a1.71,1.71,0,0,0,.78,0c.65,1.05,1.3,2.09,1.94,3.14s1.19,1.93,1.8,2.89a25.07,25.07,0,0,0,1.94,2.92C119.79,335.3,119.89,335.26,119.86,335.18Z" style="fill:#263238"></path><path d="M114.4,314.5a18.08,18.08,0,0,1-.51,2.43c-.21.83-.45,1.65-.72,2.47a.08.08,0,1,0,.15,0c.26-.8.48-1.61.68-2.44s.33-1.66.53-2.48C114.55,314.44,114.41,314.42,114.4,314.5Z" style="fill:#263238"></path><path d="M106,319.5a.94.94,0,0,0-.63-.23l-1.08-.15-2-.25c-1.4-.16-2.8-.29-4.19-.47-.08,0-.11.12,0,.13,1.31.16,2.62.36,3.94.53.64.08,1.29.18,1.93.25l.93.1a3.11,3.11,0,0,1,1.06.19A.06.06,0,0,0,106,319.5Z" style="fill:#263238"></path><path d="M114.38,330.75c-.66-.06-1.32-.08-2-.1l-1,0h-.48a3.33,3.33,0,0,1-.63,0c-.09,0-.1.14,0,.13a2.79,2.79,0,0,1,.58,0l.52,0,1,.06c.66,0,1.33.08,2,.08C114.46,330.89,114.46,330.76,114.38,330.75Z" style="fill:#263238"></path><path d="M118.42,327.89c.08-.38.15-.75.22-1.13.13-.74.27-1.47.4-2.21,0-.08-.11-.1-.13,0l-.48,2.15-.24,1.08c0,.17-.07.33-.1.5a1.38,1.38,0,0,0-.06.53c0,.06.1.11.14,0A2.52,2.52,0,0,0,118.42,327.89Z" style="fill:#263238"></path><polygon points="79.64 344.17 80.44 353.24 83.15 383.86 107.13 383.86 110.51 353.24 111.51 344.17 79.64 344.17" style="fill:#37474f"></polygon><polygon points="79.64 344.17 80.44 353.24 110.51 353.24 111.51 344.17 79.64 344.17" style="fill:#263238"></polygon><rect x="77.26" y="341.69" width="36.62" height="7.36" transform="translate(191.15 690.74) rotate(180)" style="fill:#37474f"></rect></g><g id="freepik--Floor--inject-263"><polygon points="49.81 383.86 131.11 383.61 212.4 383.52 375 383.36 537.6 383.52 618.89 383.61 700.19 383.86 618.89 384.1 537.6 384.19 375 384.36 212.4 384.19 131.11 384.1 49.81 383.86" style="fill:#263238"></polygon></g><g id="freepik--Device--inject-263"><rect x="131.28" y="74.37" width="495.11" height="331.25" rx="12.89" style="fill:#455a64"></rect><rect x="165.93" y="88.35" width="426.11" height="302.91" style="fill:#fff"></rect><rect x="148.81" y="203.96" width="5.15" height="72.09" rx="1.25" style="fill:#37474f"></rect><circle cx="608.78" cy="240" r="9.32" transform="translate(234.82 777) rotate(-76.66)" style="fill:#37474f"></circle><rect x="165.93" y="88.35" width="426.11" height="302.91" style="fill:#fff"></rect><rect x="165.93" y="88.35" width="426.11" height="10.41" style="fill:#263238"></rect><path d="M174.2,93.55A2.58,2.58,0,1,1,171.62,91,2.57,2.57,0,0,1,174.2,93.55Z" style="fill:#c7c7c7"></path><path d="M184.74,93.55A2.58,2.58,0,1,1,182.16,91,2.57,2.57,0,0,1,184.74,93.55Z" style="fill:#fff"></path><path d="M195.28,93.55A2.58,2.58,0,1,1,192.7,91,2.57,2.57,0,0,1,195.28,93.55Z" style="fill:#FFC727"></path><rect x="263.5" y="150.76" width="42.51" height="42.51" style="fill:#FFC727"></rect><rect x="308.56" y="150.76" width="42.51" height="42.51" style="fill:#ebebeb"></rect><rect x="353.61" y="150.76" width="42.51" height="42.51" style="fill:#dbdbdb"></rect><rect x="398.67" y="150.76" width="42.51" height="42.51" style="fill:#ebebeb"></rect><rect x="443.72" y="150.76" width="42.51" height="42.51" style="fill:#ebebeb"></rect><rect x="488.78" y="150.76" width="42.51" height="42.51" style="fill:#ebebeb"></rect><rect x="533.83" y="150.76" width="42.51" height="42.51" style="fill:#ebebeb"></rect><rect x="263.5" y="195.65" width="42.51" height="42.51" style="fill:#FFC727"></rect><rect x="308.56" y="195.65" width="42.51" height="42.51" style="fill:#ebebeb"></rect><rect x="353.61" y="195.65" width="42.51" height="42.51" style="fill:#ebebeb"></rect><rect x="398.67" y="195.65" width="42.51" height="42.51" style="fill:#ebebeb"></rect><rect x="443.72" y="195.65" width="42.51" height="42.51" style="fill:#ebebeb"></rect><rect x="488.78" y="195.65" width="42.51" height="42.51" style="fill:#ebebeb"></rect><rect x="533.83" y="195.65" width="42.51" height="42.51" style="fill:#ebebeb"></rect><rect x="263.5" y="240.54" width="42.51" height="42.51" style="fill:#FFC727"></rect><rect x="308.56" y="240.54" width="42.51" height="42.51" style="fill:#ebebeb"></rect><rect x="353.61" y="240.54" width="42.51" height="42.51" style="fill:#ebebeb"></rect><rect x="398.67" y="240.54" width="42.51" height="42.51" style="fill:#ebebeb"></rect><rect x="443.72" y="240.54" width="42.51" height="42.51" style="fill:#ebebeb"></rect><rect x="488.78" y="240.54" width="42.51" height="42.51" style="fill:#dbdbdb"></rect><rect x="533.83" y="240.54" width="42.51" height="42.51" style="fill:#ebebeb"></rect><rect x="263.5" y="285.42" width="42.51" height="42.51" style="fill:#FFC727"></rect><rect x="308.56" y="285.42" width="42.51" height="42.51" style="fill:#ebebeb"></rect><rect x="353.61" y="285.42" width="42.51" height="42.51" style="fill:#ebebeb"></rect><rect x="398.67" y="285.42" width="42.51" height="42.51" style="fill:#ebebeb"></rect><rect x="443.72" y="285.42" width="42.51" height="42.51" style="fill:#ebebeb"></rect><rect x="488.78" y="285.42" width="42.51" height="42.51" style="fill:#ebebeb"></rect><rect x="533.83" y="285.42" width="42.51" height="42.51" style="fill:#ebebeb"></rect><rect x="263.5" y="330.31" width="42.51" height="42.51" style="fill:#FFC727"></rect><rect x="308.56" y="330.31" width="42.51" height="42.51" style="fill:#ebebeb"></rect><rect x="353.61" y="330.31" width="42.51" height="42.51" style="fill:#ebebeb"></rect><rect x="398.67" y="330.31" width="42.51" height="42.51" style="fill:#ebebeb"></rect><rect x="443.72" y="330.31" width="42.51" height="42.51" style="fill:#ebebeb"></rect><rect x="488.78" y="330.31" width="42.51" height="42.51" style="fill:#ebebeb"></rect><rect x="533.83" y="330.31" width="42.51" height="42.51" style="fill:#ebebeb"></rect><circle cx="388.47" cy="158.6" r="4.93" style="fill:#FFC727"></circle><circle cx="315.57" cy="204.7" r="2.57" style="fill:#FFC727"></circle><rect x="321.45" y="202.13" width="25.18" height="2.21" style="fill:#c7c7c7"></rect><rect x="321.45" y="206.08" width="16.33" height="2.21" style="fill:#c7c7c7"></rect><circle cx="450.73" cy="338.7" r="2.57" style="fill:#FFC727"></circle><rect x="456.62" y="336.13" width="25.18" height="2.21" style="fill:#c7c7c7"></rect><rect x="456.62" y="340.08" width="16.33" height="2.21" style="fill:#c7c7c7"></rect><circle cx="495.79" cy="157.94" r="2.57" style="fill:#FFC727"></circle><rect x="501.67" y="155.37" width="25.18" height="2.21" style="fill:#c7c7c7"></rect><rect x="501.67" y="159.32" width="16.33" height="2.21" style="fill:#c7c7c7"></rect><rect x="321.45" y="213.64" width="25.18" height="2.21" style="fill:#c7c7c7"></rect><polygon points="315.57 213.09 316.54 214.9 318.56 215.26 317.14 216.75 317.42 218.78 315.57 217.89 313.72 218.78 314 216.75 312.58 215.26 314.6 214.9 315.57 213.09" style="fill:#FFC727"></polygon><rect x="501.68" y="245.91" width="25.18" height="2.21" style="fill:#c7c7c7"></rect><polygon points="495.8 245.36 496.77 247.17 498.8 247.53 497.38 249.02 497.65 251.05 495.8 250.16 493.95 251.05 494.23 249.02 492.81 247.53 494.83 247.17 495.8 245.36" style="fill:#FFC727"></polygon><circle cx="405.68" cy="293.49" r="2.57" style="fill:#FFC727"></circle><rect x="411.56" y="290.92" width="25.18" height="2.21" style="fill:#c7c7c7"></rect><path d="M272.86,120.91v7.82a.74.74,0,0,1-.74.73.73.73,0,0,1-.73-.73v-5.58l-1.91,2.65a.7.7,0,0,1-.59.31h0a.75.75,0,0,1-.61-.31l-1.9-2.65v5.58a.74.74,0,0,1-1.47,0v-7.82a.73.73,0,0,1,.73-.73h0a.74.74,0,0,1,.59.31l2.63,3.66,2.64-3.66a.74.74,0,0,1,.6-.31h0A.76.76,0,0,1,272.86,120.91Z" style="fill:#263238"></path><path d="M282.8,121.34a4.86,4.86,0,0,1,0,6.7,4.31,4.31,0,0,1-3.17,1.42,4.46,4.46,0,0,1-3.25-1.42,4.94,4.94,0,0,1,0-6.7,4.42,4.42,0,0,1,3.25-1.42A4.28,4.28,0,0,1,282.8,121.34Zm-.17,3.35a3.41,3.41,0,0,0-.91-2.32,2.82,2.82,0,0,0-2.09-.94,2.88,2.88,0,0,0-2.15.94,3.4,3.4,0,0,0-.9,2.32,3.36,3.36,0,0,0,.9,2.31,2.93,2.93,0,0,0,2.15,1,2.86,2.86,0,0,0,2.09-1A3.36,3.36,0,0,0,282.63,124.69Z" style="fill:#263238"></path><path d="M287.87,128.73a.73.73,0,1,1-1.45,0V121h0a.72.72,0,0,1,1.3-.45l4.28,5.92V121a.73.73,0,0,1,.72-.72.74.74,0,0,1,.73.72v7.7a.73.73,0,0,1-.73.73.7.7,0,0,1-.54-.26l-.07-.08-4.24-5.89Z" style="fill:#263238"></path><path d="M302.18,121.65h-2.11v7.08a.73.73,0,0,1-1.46,0v-7.08h-2.09a.74.74,0,0,1-.73-.74.72.72,0,0,1,.73-.73h5.66a.73.73,0,0,1,.73.73A.75.75,0,0,1,302.18,121.65Z" style="fill:#263238"></path><path d="M305.1,128.73v-7.82a.72.72,0,0,1,.73-.73.73.73,0,0,1,.74.73v3.18H310v-3.18a.72.72,0,0,1,.73-.73.74.74,0,0,1,.75.73v7.82a.74.74,0,0,1-.75.73.72.72,0,0,1-.73-.73v-3.18h-3.43v3.18a.73.73,0,0,1-.74.73A.72.72,0,0,1,305.1,128.73Z" style="fill:#263238"></path><path d="M314.5,128.73v-7.82a.73.73,0,0,1,.73-.73.74.74,0,0,1,.74.73V128h3.6a.74.74,0,0,1,0,1.47h-4.34A.73.73,0,0,1,314.5,128.73Z" style="fill:#263238"></path><path d="M326.7,121.43,324,125.15v3.58a.72.72,0,0,1-.73.73.73.73,0,0,1-.72-.73v-3.58l-2.7-3.72a.7.7,0,0,1,.15-1,.71.71,0,0,1,1,.16l2.26,3.1,2.27-3.1a.73.73,0,0,1,1.18.85Z" style="fill:#263238"></path><path d="M331.94,127.16a.69.69,0,0,1,1-.1,4.25,4.25,0,0,0,2.53,1,2.87,2.87,0,0,0,1.66-.49,1.18,1.18,0,0,0,.57-1,.8.8,0,0,0-.12-.43,1.24,1.24,0,0,0-.4-.39,5.15,5.15,0,0,0-1.81-.63h0a7.13,7.13,0,0,1-1.71-.51,2.84,2.84,0,0,1-1.23-1,2,2,0,0,1-.31-1.08,2.45,2.45,0,0,1,1.06-1.94,4,4,0,0,1,2.3-.7,5.19,5.19,0,0,1,2.89,1.06.68.68,0,0,1,.18.94.67.67,0,0,1-.94.2,3.82,3.82,0,0,0-2.13-.85,2.58,2.58,0,0,0-1.49.45,1.06,1.06,0,0,0-.5.84.64.64,0,0,0,.09.37,1.49,1.49,0,0,0,.36.34,4.46,4.46,0,0,0,1.66.58h0a8.2,8.2,0,0,1,1.83.56,3.14,3.14,0,0,1,1.33,1.1,2.16,2.16,0,0,1,.32,1.13,2.55,2.55,0,0,1-1.14,2,4.16,4.16,0,0,1-2.46.76,5.68,5.68,0,0,1-3.39-1.33A.7.7,0,0,1,331.94,127.16Z" style="fill:#263238"></path><path d="M340.67,124.69a4.86,4.86,0,0,1,4.87-4.77,5,5,0,0,1,3.06,1,.76.76,0,0,1-.93,1.21,3.28,3.28,0,0,0-2.13-.73,3.51,3.51,0,0,0-2.39.95,3.27,3.27,0,0,0-1,2.31,3.23,3.23,0,0,0,1,2.31,3.51,3.51,0,0,0,2.39,1,3.31,3.31,0,0,0,2.13-.73.81.81,0,0,1,1.06.15.78.78,0,0,1-.13,1.06,5,5,0,0,1-3.06,1A4.84,4.84,0,0,1,340.67,124.69Z" style="fill:#263238"></path><path d="M351.31,128.73v-7.82a.72.72,0,0,1,.73-.73.73.73,0,0,1,.74.73v3.18h3.43v-3.18a.72.72,0,0,1,.73-.73.74.74,0,0,1,.75.73v7.82a.74.74,0,0,1-.75.73.72.72,0,0,1-.73-.73v-3.18h-3.43v3.18a.73.73,0,0,1-.74.73A.72.72,0,0,1,351.31,128.73Z" style="fill:#263238"></path><path d="M360.71,128.73v-7.82a.72.72,0,0,1,.73-.73h4.34a.74.74,0,0,1,.73.73.75.75,0,0,1-.73.74h-3.6v2.43h3.09a.74.74,0,0,1,0,1.47h-3.09V128h3.6a.74.74,0,0,1,0,1.47h-4.3s0,0,0,0h0A.73.73,0,0,1,360.71,128.73Z" style="fill:#263238"></path><path d="M368.58,128.73v-7.82a.72.72,0,0,1,.73-.73h1.56a4.64,4.64,0,0,1,0,9.28h-1.56A.72.72,0,0,1,368.58,128.73Zm1.47-.74h.82a3.17,3.17,0,0,0,0-6.34h-.82Z" style="fill:#263238"></path><path d="M382,129.46a3.82,3.82,0,0,1-3.83-3.83v-4.72a.72.72,0,0,1,.73-.73.74.74,0,0,1,.74.73v4.72a2.36,2.36,0,0,0,4.72,0v-4.72a.73.73,0,0,1,.74-.73.72.72,0,0,1,.73.73v4.72A3.83,3.83,0,0,1,382,129.46Z" style="fill:#263238"></path><path d="M388.3,128.73v-7.82a.73.73,0,0,1,.73-.73.74.74,0,0,1,.74.73V128h3.59a.74.74,0,0,1,0,1.47H389A.73.73,0,0,1,388.3,128.73Z" style="fill:#263238"></path><path d="M395.77,128.73v-7.82a.72.72,0,0,1,.73-.73h4.33a.73.73,0,0,1,.73.73.74.74,0,0,1-.73.74h-3.59v2.43h3.09a.74.74,0,0,1,0,1.47h-3.09V128h3.59a.74.74,0,0,1,0,1.47h-4.29s0,0,0,0h0A.72.72,0,0,1,395.77,128.73Z" style="fill:#263238"></path><path d="M534.36,128.75a.4.4,0,0,1,0,.59.44.44,0,0,1-.29.12.47.47,0,0,1-.31-.12l-1.86-1.89s0,0,0,0h0l0-.05s0,0,0,0a.06.06,0,0,0,0,0,0,0,0,0,0,0,0v0s0,0,0,0v-.08s0,0,0,0a.09.09,0,0,0,0,0,0,0,0,0,1,0,0l0-.06a0,0,0,0,1,0,0s0,0,0,0l1.86-1.89a.43.43,0,0,1,.6,0,.41.41,0,0,1,0,.59l-1.57,1.59Z" style="fill:#a6a6a6"></path><path d="M546.14,125.18v3.92a.37.37,0,0,1-.37.36.36.36,0,0,1-.37-.36v-2.8l-.95,1.33a.37.37,0,0,1-.3.15h0a.36.36,0,0,1-.3-.15l-1-1.33v2.8a.37.37,0,0,1-.74,0v-3.92a.37.37,0,0,1,.37-.36h0a.36.36,0,0,1,.29.15l1.32,1.83,1.32-1.83a.36.36,0,0,1,.3-.15h0A.37.37,0,0,1,546.14,125.18Z" style="fill:#a6a6a6"></path><path d="M551.11,125.39a2.46,2.46,0,0,1,.67,1.68,2.43,2.43,0,0,1-.67,1.68,2.2,2.2,0,0,1-1.59.71,2.26,2.26,0,0,1-1.63-.71,2.41,2.41,0,0,1-.65-1.68,2.45,2.45,0,0,1,.65-1.68,2.26,2.26,0,0,1,1.63-.71A2.2,2.2,0,0,1,551.11,125.39Zm-.09,1.68a1.72,1.72,0,0,0-.45-1.16,1.43,1.43,0,0,0-1.05-.47,1.44,1.44,0,0,0-1.08.47,1.72,1.72,0,0,0,0,2.32,1.45,1.45,0,0,0,1.08.48,1.44,1.44,0,0,0,1.05-.48A1.72,1.72,0,0,0,551,127.07Z" style="fill:#a6a6a6"></path><path d="M553.64,129.1a.36.36,0,0,1-.36.36.36.36,0,0,1-.37-.36v-3.86h0a.37.37,0,0,1,.15-.31.36.36,0,0,1,.5.08l2.15,3v-2.74a.36.36,0,0,1,.36-.36.37.37,0,0,1,.36.36v3.86a.36.36,0,0,1-.36.36.37.37,0,0,1-.28-.13l0,0-2.12-2.95Z" style="fill:#a6a6a6"></path><path d="M560.79,125.55h-1v3.55a.36.36,0,0,1-.37.36.36.36,0,0,1-.36-.36v-3.55h-1a.36.36,0,0,1-.36-.37.35.35,0,0,1,.36-.36h2.83a.37.37,0,0,1,.37.36A.38.38,0,0,1,560.79,125.55Z" style="fill:#a6a6a6"></path><path d="M562.25,129.1v-3.92a.36.36,0,0,1,.37-.36.37.37,0,0,1,.37.36v1.59h1.72v-1.59a.37.37,0,0,1,.73,0v3.92a.37.37,0,0,1-.73,0v-1.6H563v1.6a.37.37,0,0,1-.37.36A.36.36,0,0,1,562.25,129.1Z" style="fill:#a6a6a6"></path><path d="M575.5,127.4h0l0,0-1.86,1.89a.44.44,0,0,1-.3.12.42.42,0,0,1-.3-.71l1.57-1.59L573,125.57a.41.41,0,0,1,0-.59.43.43,0,0,1,.6,0l1.86,1.89,0,0v0a.21.21,0,0,1,0,.06h0a.42.42,0,0,1,0,.06s0,0,0,0v.08a.1.1,0,0,1,0,0v.06a0,0,0,0,0,0,0s0,0,0,.06v0Z" style="fill:#a6a6a6"></path><path d="M277.89,146.57a.34.34,0,0,1,.48,0,2.21,2.21,0,0,0,1.27.51,1.41,1.41,0,0,0,.83-.25.58.58,0,0,0,.28-.48.39.39,0,0,0-.06-.21.75.75,0,0,0-.2-.2,2.65,2.65,0,0,0-.91-.31h0a3.53,3.53,0,0,1-.85-.26,1.32,1.32,0,0,1-.62-.52,1,1,0,0,1-.15-.54,1.22,1.22,0,0,1,.53-1,2,2,0,0,1,1.14-.35,2.6,2.6,0,0,1,1.45.53.34.34,0,0,1,.09.47.33.33,0,0,1-.47.1,2,2,0,0,0-1.07-.42,1.3,1.3,0,0,0-.74.22.52.52,0,0,0-.25.42.3.3,0,0,0,.05.19.67.67,0,0,0,.17.17,2.48,2.48,0,0,0,.83.29h0a3.74,3.74,0,0,1,.91.28,1.51,1.51,0,0,1,.67.55,1.08,1.08,0,0,1,.16.56,1.28,1.28,0,0,1-.57,1,2.09,2.09,0,0,1-1.23.38,2.87,2.87,0,0,1-1.7-.66A.35.35,0,0,1,277.89,146.57Z" style="fill:#a6a6a6"></path><path d="M284.38,147.73a1.92,1.92,0,0,1-1.92-1.92v-2.36a.36.36,0,0,1,.37-.37.37.37,0,0,1,.37.37v2.36a1.18,1.18,0,0,0,2.36,0v-2.36a.37.37,0,0,1,.37-.37.36.36,0,0,1,.37.37v2.36A1.93,1.93,0,0,1,284.38,147.73Z" style="fill:#a6a6a6"></path><path d="M288.48,147.36a.37.37,0,0,1-.35.37.37.37,0,0,1-.37-.37v-3.85h0a.36.36,0,0,1,.65-.23l2.14,3v-2.73a.36.36,0,0,1,.36-.36.37.37,0,0,1,.37.36v3.85a.38.38,0,0,1-.37.37.41.41,0,0,1-.27-.13s0,0,0,0l-2.13-2.94Z" style="fill:#a6a6a6"></path><path d="M326.56,143.45v3.91a.38.38,0,0,1-.37.37.37.37,0,0,1-.37-.37v-2.79l-.95,1.33a.36.36,0,0,1-.3.15h0a.39.39,0,0,1-.31-.15l-.95-1.33v2.79a.37.37,0,1,1-.73,0v-3.91a.37.37,0,0,1,.36-.37h0a.36.36,0,0,1,.29.15l1.32,1.84,1.32-1.84a.4.4,0,0,1,.3-.15h0A.38.38,0,0,1,326.56,143.45Z" style="fill:#a6a6a6"></path><path d="M331.53,143.66a2.44,2.44,0,0,1,0,3.36,2.19,2.19,0,0,1-1.59.71,2.24,2.24,0,0,1-1.62-.71,2.47,2.47,0,0,1,0-3.36,2.2,2.2,0,0,1,1.62-.71A2.15,2.15,0,0,1,331.53,143.66Zm-.09,1.68a1.72,1.72,0,0,0-.45-1.16,1.43,1.43,0,0,0-2.12,0,1.68,1.68,0,0,0-.45,1.16,1.63,1.63,0,0,0,.45,1.15,1.41,1.41,0,0,0,2.12,0A1.68,1.68,0,0,0,331.44,145.34Z" style="fill:#a6a6a6"></path><path d="M334.06,147.36a.37.37,0,0,1-.36.37.37.37,0,0,1-.36-.37v-3.85h0a.36.36,0,0,1,.14-.31.39.39,0,0,1,.51.08l2.14,3v-2.73a.36.36,0,0,1,.72,0v3.85a.36.36,0,0,1-.63.24l0,0-2.12-2.94Z" style="fill:#a6a6a6"></path><path d="M371.75,143.82H370.7v3.54a.37.37,0,1,1-.73,0v-3.54h-1.05a.37.37,0,0,1-.37-.37.36.36,0,0,1,.37-.37h2.83a.37.37,0,0,1,.37.37A.38.38,0,0,1,371.75,143.82Z" style="fill:#a6a6a6"></path><path d="M375.13,147.73a1.92,1.92,0,0,1-1.91-1.92v-2.36a.36.36,0,0,1,.36-.37.37.37,0,0,1,.37.37v2.36a1.19,1.19,0,0,0,2.37,0v-2.36a.37.37,0,1,1,.73,0v2.36A1.92,1.92,0,0,1,375.13,147.73Z" style="fill:#a6a6a6"></path><path d="M378.28,147.36v-3.91a.35.35,0,0,1,.36-.37h2.17a.38.38,0,0,1,.37.37.38.38,0,0,1-.37.37H379V145h1.55a.37.37,0,0,1,.36.37.37.37,0,0,1-.36.37H379V147h1.8a.37.37,0,0,1,0,.74h-2.17A.36.36,0,0,1,378.28,147.36Z" style="fill:#a6a6a6"></path><path d="M418.79,143.63l-1.62,3.87,0,.06h0l0,0v0l0,0h0l-.06,0h0a0,0,0,0,0,0,0h-.26s0,0,0,0l-.06,0h0l0,0,0,0a.08.08,0,0,0,0,0h0s0,0,0-.06l-.87-2.06-.87,2.06a.33.33,0,0,1,0,.06h0s0,0,0,0v0l0,0h0l-.06,0h0a0,0,0,0,0,0,0h-.28l-.06,0h0s0,0-.05,0v0s0,0,0,0h0l0-.06-1.63-3.87a.35.35,0,0,1,.2-.47.36.36,0,0,1,.47.19l1.3,3.08.85-2a.37.37,0,0,1,.69,0l.86,2,1.29-3.08a.38.38,0,0,1,.49-.19A.34.34,0,0,1,418.79,143.63Z" style="fill:#a6a6a6"></path><path d="M419.85,147.36v-3.91a.36.36,0,0,1,.37-.37h2.17a.37.37,0,0,1,.36.37.37.37,0,0,1-.36.37h-1.8V145h1.54a.38.38,0,0,1,.37.37.38.38,0,0,1-.37.37h-1.54V147h1.8a.37.37,0,0,1,0,.74h-2.17A.37.37,0,0,1,419.85,147.36Z" style="fill:#a6a6a6"></path><path d="M423.78,147.36v-3.91a.36.36,0,0,1,.37-.37h.78a2.33,2.33,0,0,1,0,4.65h-.78A.37.37,0,0,1,423.78,147.36Zm.74-.37h.41a1.59,1.59,0,0,0,0-3.17h-.41Z" style="fill:#a6a6a6"></path><path d="M461.31,143.82h-1.05v3.54a.37.37,0,1,1-.73,0v-3.54h-1a.37.37,0,0,1-.37-.37.36.36,0,0,1,.37-.37h2.83a.37.37,0,0,1,.37.37A.38.38,0,0,1,461.31,143.82Z" style="fill:#a6a6a6"></path><path d="M462.77,147.36v-3.91a.36.36,0,0,1,.36-.37.37.37,0,0,1,.38.37V145h1.71v-1.59a.36.36,0,0,1,.37-.37.37.37,0,0,1,.37.37v3.91a.37.37,0,0,1-.37.37.36.36,0,0,1-.37-.37v-1.59h-1.71v1.59a.37.37,0,0,1-.38.37A.36.36,0,0,1,462.77,147.36Z" style="fill:#a6a6a6"></path><path d="M469.4,147.73a1.92,1.92,0,0,1-1.92-1.92v-2.36a.36.36,0,0,1,.36-.37.37.37,0,0,1,.37.37v2.36a1.19,1.19,0,0,0,2.37,0v-2.36a.37.37,0,1,1,.73,0v2.36A1.92,1.92,0,0,1,469.4,147.73Z" style="fill:#a6a6a6"></path><path d="M505.63,147.36v-3.91a.37.37,0,0,1,.37-.37h2.17a.37.37,0,0,1,0,.74h-1.8V145h1.55a.37.37,0,0,1,.36.37.37.37,0,0,1-.36.37h-1.55v1.59a.37.37,0,0,1-.74,0Z" style="fill:#a6a6a6"></path><path d="M512.72,147.18a.36.36,0,0,1-.23.46l-.15,0h0a.45.45,0,0,1-.25-.07.69.69,0,0,1-.22-.23,1.88,1.88,0,0,1-.14-.8.59.59,0,0,0-.07-.29.73.73,0,0,0-.2-.19,1.64,1.64,0,0,0-.38-.16h-.78v1.44a.38.38,0,0,1-.37.37.37.37,0,0,1-.37-.37v-3.91a.36.36,0,0,1,.37-.37h1.19a1.42,1.42,0,0,1,.9,2.52.76.76,0,0,1,.23.24,1.23,1.23,0,0,1,.22.72,1.21,1.21,0,0,0,0,.39A.35.35,0,0,1,512.72,147.18Zm-.93-2.67a.68.68,0,0,0-.68-.69h-.82v1.37h.82A.68.68,0,0,0,511.79,144.51Z" style="fill:#a6a6a6"></path><path d="M513.84,143.45a.36.36,0,0,1,.36-.37.38.38,0,0,1,.38.37v3.91a.38.38,0,0,1-.38.37.36.36,0,0,1-.36-.37Z" style="fill:#a6a6a6"></path><path d="M549.51,146.57a.36.36,0,0,1,.49,0,2.17,2.17,0,0,0,1.26.51,1.39,1.39,0,0,0,.83-.25.59.59,0,0,0,.29-.48.39.39,0,0,0-.06-.21.75.75,0,0,0-.2-.2,2.73,2.73,0,0,0-.91-.31h0a3.61,3.61,0,0,1-.86-.26,1.43,1.43,0,0,1-.62-.52,1,1,0,0,1-.15-.54,1.25,1.25,0,0,1,.53-1,2,2,0,0,1,1.15-.35,2.6,2.6,0,0,1,1.45.53.34.34,0,0,1,.09.47.33.33,0,0,1-.47.1,2,2,0,0,0-1.07-.42,1.27,1.27,0,0,0-.74.22.54.54,0,0,0-.26.42.38.38,0,0,0,0,.19.75.75,0,0,0,.18.17,2.32,2.32,0,0,0,.83.29h0a4,4,0,0,1,.92.28,1.49,1.49,0,0,1,.66.55,1.08,1.08,0,0,1,.16.56,1.28,1.28,0,0,1-.57,1,2.07,2.07,0,0,1-1.23.38,2.9,2.9,0,0,1-1.7-.66A.37.37,0,0,1,549.51,146.57Z" style="fill:#a6a6a6"></path><path d="M556.35,146.63h-1.61l-.33.87a.38.38,0,0,1-.34.23l-.13,0a.39.39,0,0,1-.22-.48l1.47-3.91a.38.38,0,0,1,.7,0l1.47,3.91a.38.38,0,0,1-.22.48l-.13,0a.36.36,0,0,1-.33-.23Zm-.27-.73-.54-1.42L555,145.9Z" style="fill:#a6a6a6"></path><path d="M560.44,143.82h-1.05v3.54a.37.37,0,1,1-.73,0v-3.54h-1a.37.37,0,0,1-.37-.37.36.36,0,0,1,.37-.37h2.83a.37.37,0,0,1,.37.37A.38.38,0,0,1,560.44,143.82Z" style="fill:#a6a6a6"></path><path d="M185.32,156.75a1.91,1.91,0,0,1-1.91-1.92v-2.36a.36.36,0,0,1,.36-.36.37.37,0,0,1,.37.36v2.36a1.19,1.19,0,0,0,2.37,0v-2.36a.37.37,0,0,1,.73,0v2.36A1.91,1.91,0,0,1,185.32,156.75Z" style="fill:#a6a6a6"></path><path d="M190.35,155h-.82v1.44a.37.37,0,0,1-.73,0v-3.92a.36.36,0,0,1,.36-.36h1.19a1.42,1.42,0,1,1,0,2.84Zm-.82-.74h.82a.69.69,0,1,0,0-1.37h-.82Z" style="fill:#a6a6a6"></path><path d="M192.46,154.36a2.44,2.44,0,0,1,2.43-2.39,2.53,2.53,0,0,1,1.54.52.39.39,0,0,1,.06.53.38.38,0,0,1-.53.07,1.68,1.68,0,0,0-1.07-.36,1.77,1.77,0,0,0-1.19.48,1.63,1.63,0,0,0,0,2.31,1.76,1.76,0,0,0,1.19.47,1.65,1.65,0,0,0,1.07-.36.4.4,0,0,1,.53.07.39.39,0,0,1-.06.53,2.47,2.47,0,0,1-1.54.52A2.43,2.43,0,0,1,192.46,154.36Z" style="fill:#a6a6a6"></path><path d="M201.31,152.68a2.46,2.46,0,0,1,.67,1.68,2.43,2.43,0,0,1-.67,1.68,2.19,2.19,0,0,1-1.59.71,2.24,2.24,0,0,1-1.62-.71,2.42,2.42,0,0,1-.66-1.68,2.45,2.45,0,0,1,.66-1.68,2.2,2.2,0,0,1,1.62-.71A2.15,2.15,0,0,1,201.31,152.68Zm-.09,1.68a1.72,1.72,0,0,0-.45-1.16,1.43,1.43,0,0,0-2.12,0,1.72,1.72,0,0,0,0,2.32,1.43,1.43,0,0,0,2.12,0A1.72,1.72,0,0,0,201.22,154.36Z" style="fill:#a6a6a6"></path><path d="M207,152.47v3.92a.37.37,0,0,1-.37.36.35.35,0,0,1-.36-.36v-2.8l-1,1.33a.36.36,0,0,1-.3.15h0a.39.39,0,0,1-.31-.15l-.95-1.33v2.8a.37.37,0,0,1-.73,0v-3.92a.36.36,0,0,1,.36-.36h0a.34.34,0,0,1,.29.15l1.32,1.83,1.33-1.83a.34.34,0,0,1,.29-.15h0A.37.37,0,0,1,207,152.47Z" style="fill:#a6a6a6"></path><path d="M208.66,152.47a.36.36,0,0,1,.37-.36.37.37,0,0,1,.37.36v3.92a.37.37,0,0,1-.37.36.36.36,0,0,1-.37-.36Z" style="fill:#a6a6a6"></path><path d="M211.37,156.39a.36.36,0,0,1-.36.36.36.36,0,0,1-.37-.36v-3.86h0a.37.37,0,0,1,.15-.3.36.36,0,0,1,.5.08l2.15,3v-2.73a.36.36,0,0,1,.36-.36.37.37,0,0,1,.36.36v3.86a.36.36,0,0,1-.36.36.37.37,0,0,1-.28-.13l0,0-2.12-3Z" style="fill:#a6a6a6"></path><path d="M215.21,154.37a2.42,2.42,0,0,1,2.45-2.4,2.51,2.51,0,0,1,1.52.52.38.38,0,1,1-.47.6,1.71,1.71,0,0,0-1.05-.36,1.65,1.65,0,0,0-1.19.48,1.61,1.61,0,0,0-.5,1.16,1.58,1.58,0,0,0,.5,1.14,1.61,1.61,0,0,0,1.19.48,1.75,1.75,0,0,0,.91-.25v-.91h-.95a.39.39,0,0,1-.38-.38.38.38,0,0,1,.38-.37h1.32a.38.38,0,0,1,.39.37v1.47c0,.05,0,.07,0,.11l0,0h0a.31.31,0,0,1-.12.16,2.45,2.45,0,0,1-4-1.86Z" style="fill:#a6a6a6"></path><path d="M222.81,156.39v-3.92a.36.36,0,0,1,.36-.36h2.17a.37.37,0,1,1,0,.73h-1.8v1.22h1.55a.36.36,0,0,1,.36.36.36.36,0,0,1-.36.37h-1.55V156h1.8a.38.38,0,0,1,.37.38.37.37,0,0,1-.37.36h-2.17A.36.36,0,0,1,222.81,156.39Z" style="fill:#a6a6a6"></path><path d="M228.25,156.69a.08.08,0,0,0,0,0s0,0,0,0,0,0,0,0h0l0-.06-1.63-3.87a.36.36,0,0,1,.67-.28l1.29,3.07,1.3-3.07a.36.36,0,0,1,.48-.19.37.37,0,0,1,.2.47l-1.64,3.87,0,.06h0s0,0,0,0v0a.08.08,0,0,0,0,0h0a.09.09,0,0,1,0,0h-.29l-.06,0Z" style="fill:#a6a6a6"></path><path d="M231.51,156.39v-3.92a.36.36,0,0,1,.37-.36h2.17a.37.37,0,0,1,0,.73h-1.8v1.22h1.55a.36.36,0,0,1,.36.36.36.36,0,0,1-.36.37h-1.55V156h1.8a.38.38,0,0,1,.36.38.36.36,0,0,1-.36.36h-2.17A.36.36,0,0,1,231.51,156.39Z" style="fill:#a6a6a6"></path><path d="M236.18,156.39a.36.36,0,0,1-.36.36.36.36,0,0,1-.37-.36v-3.86h0a.37.37,0,0,1,.15-.3.36.36,0,0,1,.5.08l2.15,3v-2.73a.36.36,0,0,1,.36-.36.37.37,0,0,1,.36.36v3.86a.36.36,0,0,1-.36.36.37.37,0,0,1-.28-.13l0,0-2.12-3Z" style="fill:#a6a6a6"></path><path d="M243.33,152.84h-1.05v3.55a.37.37,0,0,1-.73,0v-3.55H240.5a.37.37,0,0,1-.37-.37.36.36,0,0,1,.37-.36h2.83a.37.37,0,0,1,.37.36A.38.38,0,0,1,243.33,152.84Z" style="fill:#a6a6a6"></path><path d="M244.54,155.6a.35.35,0,0,1,.49,0,2.14,2.14,0,0,0,1.27.51,1.48,1.48,0,0,0,.83-.24.6.6,0,0,0,.28-.48.35.35,0,0,0-.06-.21.54.54,0,0,0-.2-.2,2.62,2.62,0,0,0-.91-.32h0a3.75,3.75,0,0,1-.86-.25,1.41,1.41,0,0,1-.61-.52,1,1,0,0,1-.16-.55,1.24,1.24,0,0,1,.54-1,2,2,0,0,1,1.14-.35,2.68,2.68,0,0,1,1.45.53.35.35,0,0,1,.09.48.34.34,0,0,1-.47.09,2,2,0,0,0-1.07-.42,1.21,1.21,0,0,0-.74.23.51.51,0,0,0-.25.41.36.36,0,0,0,0,.19,1,1,0,0,0,.18.17,2.21,2.21,0,0,0,.83.29h0a4.42,4.42,0,0,1,.91.28,1.73,1.73,0,0,1,.67.55,1.08,1.08,0,0,1,.16.57,1.28,1.28,0,0,1-.58,1,2,2,0,0,1-1.22.37,2.81,2.81,0,0,1-1.7-.66A.35.35,0,0,1,244.54,155.6Z" style="fill:#a6a6a6"></path><path d="M249.49,153.17a.5.5,0,1,1,0,1,.5.5,0,0,1,0-1Zm0,2.64a.5.5,0,1,1,0,1,.5.5,0,0,1,0-1Z" style="fill:#a6a6a6"></path><path d="M185.16,172.76v-3.92a.36.36,0,0,1,.37-.36h2.17a.37.37,0,0,1,0,.73h-1.8v1.22h1.55a.36.36,0,0,1,.36.36.36.36,0,0,1-.36.37H185.9v1.6a.37.37,0,0,1-.37.36A.36.36,0,0,1,185.16,172.76Z" style="fill:#a6a6a6"></path><path d="M192.25,172.57a.37.37,0,0,1-.23.47l-.15,0h0a.48.48,0,0,1-.25-.08.69.69,0,0,1-.22-.23,1.82,1.82,0,0,1-.14-.8.47.47,0,0,0-.08-.28.61.61,0,0,0-.2-.19,1,1,0,0,0-.37-.16h-.78v1.44a.37.37,0,0,1-.37.36.36.36,0,0,1-.37-.36v-3.92a.36.36,0,0,1,.37-.36h1.19a1.41,1.41,0,0,1,1.42,1.42,1.4,1.4,0,0,1-.52,1.09,1.39,1.39,0,0,1,.23.25,1.27,1.27,0,0,1,.22.71,1.28,1.28,0,0,0,0,.4A.36.36,0,0,1,192.25,172.57Zm-.93-2.67a.69.69,0,0,0-.68-.69h-.82v1.37h.82A.68.68,0,0,0,191.32,169.9Z" style="fill:#a6a6a6"></path><path d="M193.37,168.84a.36.36,0,0,1,.36-.36.37.37,0,0,1,.37.36v3.92a.37.37,0,0,1-.37.36.36.36,0,0,1-.36-.36Z" style="fill:#a6a6a6"></path><path d="M190.26,176.8v3.92a.37.37,0,0,1-.37.36.36.36,0,0,1-.36-.36v-3.27l-.27.15a.32.32,0,0,1-.18.06.37.37,0,0,1-.32-.19.36.36,0,0,1,.12-.5l.82-.48h0l0,0H190a.05.05,0,0,1,0,0h0l0,0,0,0,0,0s0,0,0,0l0,0,0,0h0v0s0,0,0,0a0,0,0,0,1,0,0,.1.1,0,0,0,0,0,.07.07,0,0,0,0,.05Z" style="fill:#a6a6a6"></path><rect x="201.27" y="167.64" width="48.72" height="14.96" style="fill:#FFC727;opacity:0.8"></rect><rect x="205.69" y="171.83" width="39.88" height="0.92" style="fill:#fff"></rect><rect x="205.69" y="174.71" width="39.88" height="0.92" style="fill:#fff"></rect><rect x="205.69" y="177.59" width="26.7" height="0.92" style="fill:#fff"></rect><path d="M186.31,194.53v3.92a.37.37,0,0,1-.37.36.36.36,0,0,1-.37-.36v-2.8l-.95,1.33a.36.36,0,0,1-.3.15h0A.37.37,0,0,1,184,197l-.95-1.33v2.8a.37.37,0,0,1-.73,0v-3.92a.36.36,0,0,1,.36-.36h0a.34.34,0,0,1,.29.15l1.32,1.83,1.32-1.83a.37.37,0,0,1,.3-.15h0A.37.37,0,0,1,186.31,194.53Z" style="fill:#a6a6a6"></path><path d="M191.28,194.74a2.44,2.44,0,0,1,0,3.36,2.19,2.19,0,0,1-1.59.71,2.22,2.22,0,0,1-1.62-.71,2.47,2.47,0,0,1,0-3.36,2.18,2.18,0,0,1,1.62-.71A2.15,2.15,0,0,1,191.28,194.74Zm-.09,1.68a1.72,1.72,0,0,0-.45-1.16,1.43,1.43,0,0,0-2.12,0,1.69,1.69,0,0,0,0,2.32,1.43,1.43,0,0,0,2.12,0A1.72,1.72,0,0,0,191.19,196.42Z" style="fill:#a6a6a6"></path><path d="M193.81,198.45a.36.36,0,0,1-.36.36.35.35,0,0,1-.36-.36v-3.86h0a.34.34,0,0,1,.14-.3.38.38,0,0,1,.51.08l2.14,3v-2.73a.36.36,0,1,1,.72,0v3.86a.36.36,0,0,1-.36.36.34.34,0,0,1-.27-.13l0,0-2.12-2.95Z" style="fill:#a6a6a6"></path><path d="M191.34,205.53a.36.36,0,0,1-.37.37h-.06v.5a.37.37,0,1,1-.73,0v-.5h-2.09a.34.34,0,0,1-.23-.08.35.35,0,0,1-.06-.51l2.46-3.05v0l0,0,0,0,0,0,0,0s0,0,0,0h.27l0,0,0,0h0l0,0,0,0s0,0,0,0l0,0s0,0,0,0,0,0,0,0v0s0,0,0,0v2.73H191A.37.37,0,0,1,191.34,205.53Zm-1.16-2-1.32,1.64h1.32Z" style="fill:#a6a6a6"></path><rect x="201.27" y="193.33" width="48.72" height="35.48" style="fill:#FFC727;opacity:0.4"></rect><rect x="205.69" y="197.52" width="39.88" height="0.92" style="fill:#fff"></rect><rect x="205.69" y="200.4" width="39.88" height="0.92" style="fill:#fff"></rect><rect x="205.69" y="203.28" width="26.7" height="0.92" style="fill:#fff"></rect><rect x="205.69" y="209.39" width="39.88" height="0.92" style="fill:#fff"></rect><rect x="205.69" y="212.27" width="39.88" height="0.92" style="fill:#fff"></rect><rect x="205.69" y="215.15" width="35.13" height="0.92" style="fill:#fff"></rect><rect x="205.69" y="218.03" width="39.88" height="0.92" style="fill:#fff"></rect><rect x="205.69" y="220.91" width="39.88" height="0.92" style="fill:#fff"></rect><rect x="205.69" y="223.79" width="26.7" height="0.92" style="fill:#fff"></rect><path d="M185.16,241.62v-3.91a.37.37,0,0,1,.37-.37h2.17a.37.37,0,0,1,0,.74h-1.8v1.21h1.55a.37.37,0,0,1,0,.74H185.9v1.59a.38.38,0,0,1-.37.37A.37.37,0,0,1,185.16,241.62Z" style="fill:#a6a6a6"></path><path d="M192.25,241.44a.36.36,0,0,1-.23.46l-.15,0h0a.45.45,0,0,1-.25-.07.73.73,0,0,1-.22-.24,1.8,1.8,0,0,1-.14-.79.5.5,0,0,0-.08-.29.61.61,0,0,0-.2-.19,1.16,1.16,0,0,0-.37-.16h-.78v1.44a.38.38,0,0,1-.37.37.37.37,0,0,1-.37-.37v-3.91a.36.36,0,0,1,.37-.37h1.19a1.42,1.42,0,0,1,.9,2.52,1.06,1.06,0,0,1,.23.24,1.28,1.28,0,0,1,.22.72,1.21,1.21,0,0,0,0,.39A.35.35,0,0,1,192.25,241.44Zm-.93-2.67a.68.68,0,0,0-.68-.69h-.82v1.36h.82A.68.68,0,0,0,191.32,238.77Z" style="fill:#a6a6a6"></path><path d="M193.37,237.71a.36.36,0,0,1,.36-.37.37.37,0,0,1,.37.37v3.91a.37.37,0,0,1-.37.37.36.36,0,0,1-.36-.37Z" style="fill:#a6a6a6"></path><path d="M188.26,245.66v3.92a.37.37,0,0,1-.37.36.36.36,0,0,1-.37-.36v-3.27l-.26.16a.34.34,0,0,1-.19.05.34.34,0,0,1-.31-.19.35.35,0,0,1,.12-.49l.81-.49h0l0,0H188s0,0,0,0h0l0,0,0,0,0,0s0,0,0,0l0,0v0l0,0s0,0,0,0,0,0,0,0,0,0,0,0Z" style="fill:#a6a6a6"></path><path d="M191.55,247.13a1.65,1.65,0,0,1-1.16,2.81h0a1.61,1.61,0,0,1-1.15-.48.37.37,0,0,1,.53-.53.86.86,0,0,0,.64.26.87.87,0,0,0,.63-.26.91.91,0,0,0,.26-.63.89.89,0,0,0-.89-.9.88.88,0,0,0-.64.26.37.37,0,0,1-.53,0l-.07-.09s0,0,0,0,0,0,0,0,0,0,0,0v-.13l.2-1.72a.41.41,0,0,1,.17-.27s0,0,0,0h0a.37.37,0,0,1,.18,0h2a.37.37,0,0,1,.38.38.37.37,0,0,1-.38.37H190l-.08.66a1.74,1.74,0,0,1,.45-.06A1.64,1.64,0,0,1,191.55,247.13Z" style="fill:#a6a6a6"></path><rect x="201.27" y="236.5" width="48.72" height="14.96" style="fill:#FFC727;opacity:0.8"></rect><rect x="205.69" y="240.69" width="39.88" height="0.92" style="fill:#fff"></rect><rect x="205.69" y="243.57" width="39.88" height="0.92" style="fill:#fff"></rect><rect x="205.69" y="246.45" width="26.7" height="0.92" style="fill:#fff"></rect><path d="M185.9,293.75h-1.06v3.55a.36.36,0,0,1-.36.36.37.37,0,0,1-.37-.36v-3.55h-1.05a.37.37,0,0,1-.36-.37.36.36,0,0,1,.36-.37h2.84a.37.37,0,0,1,.36.37A.37.37,0,0,1,185.9,293.75Z" style="fill:#a6a6a6"></path><path d="M187.35,297.3v-3.92a.36.36,0,0,1,.37-.37.37.37,0,0,1,.37.37V295h1.72v-1.59a.37.37,0,1,1,.73,0v3.92a.37.37,0,0,1-.73,0v-1.6h-1.72v1.6a.37.37,0,0,1-.37.36A.36.36,0,0,1,187.35,297.3Z" style="fill:#a6a6a6"></path><path d="M194,297.66a1.91,1.91,0,0,1-1.92-1.92v-2.36a.36.36,0,0,1,.37-.37.37.37,0,0,1,.37.37v2.36a1.18,1.18,0,0,0,2.36,0v-2.36a.37.37,0,0,1,.37-.37.36.36,0,0,1,.37.37v2.36A1.92,1.92,0,0,1,194,297.66Z" style="fill:#a6a6a6"></path><path d="M189,305.25a.36.36,0,0,1-.37.37h-2.36a.36.36,0,0,1-.27-.12.37.37,0,0,1,0-.52l2-1.78a.8.8,0,0,0,.28-.63A.82.82,0,0,0,188,302a.86.86,0,0,0-1.21-.06l-.21.18a.35.35,0,0,1-.51,0,.37.37,0,0,1,0-.52l.21-.19a1.61,1.61,0,0,1,1.07-.41,1.58,1.58,0,0,1,1.18.53,1.56,1.56,0,0,1,.41,1.07,1.61,1.61,0,0,1-.52,1.18l-1.26,1.13h1.41A.37.37,0,0,1,189,305.25Z" style="fill:#a6a6a6"></path><path d="M193,304a1.59,1.59,0,0,1-3.17,0,1.55,1.55,0,0,1,.71-1.32,1.07,1.07,0,0,1-.22-.66,1.1,1.1,0,0,1,2.19,0,1.07,1.07,0,0,1-.22.66A1.6,1.6,0,0,1,193,304Zm-.73,0a.86.86,0,0,0-.85-.86.86.86,0,1,0,0,1.72A.86.86,0,0,0,192.24,304Zm-1.23-2a.38.38,0,0,0,.38.38.37.37,0,0,0,.36-.38.36.36,0,0,0-.36-.36A.37.37,0,0,0,191,302.06Z" style="fill:#a6a6a6"></path><rect x="201.27" y="292.17" width="48.72" height="18.85" style="fill:#FFC727;opacity:0.8"></rect><rect x="205.69" y="296.37" width="39.88" height="0.92" style="fill:#fff"></rect><rect x="205.69" y="299.25" width="39.88" height="0.92" style="fill:#fff"></rect><rect x="205.69" y="302.13" width="39.88" height="0.92" style="fill:#fff"></rect><rect x="205.69" y="305.01" width="26.7" height="0.92" style="fill:#fff"></rect><path d="M188.43,263.58l-1.62,3.87,0,.06h0l0,0s0,0,0,0l0,0h0l-.06,0h0l0,0h-.16l0,0h0l-.06,0h0l0,0,0,0s0,0,0,0h0a.11.11,0,0,1,0-.06l-.87-2.06-.87,2.06,0,.06h0l0,0s0,0,0,0,0,0,0,0h0l-.06,0h0a.06.06,0,0,0,0,0H184l0,0h0l-.06,0h0a.08.08,0,0,0,0,0s0,0,0,0,0,0,0,0h0l0-.06-1.63-3.87a.35.35,0,0,1,.2-.47.35.35,0,0,1,.47.19l1.3,3.07.85-2a.37.37,0,0,1,.69,0l.86,2,1.29-3.07a.37.37,0,0,1,.49-.19A.35.35,0,0,1,188.43,263.58Z" style="fill:#a6a6a6"></path><path d="M189.49,267.31v-3.92a.36.36,0,0,1,.37-.36H192a.36.36,0,0,1,.36.36.38.38,0,0,1-.36.38h-1.8V265h1.54a.37.37,0,0,1,.37.36.38.38,0,0,1-.37.38h-1.54v1.22H192a.37.37,0,0,1,0,.73h-2.17A.36.36,0,0,1,189.49,267.31Z" style="fill:#a6a6a6"></path><path d="M193.42,267.31v-3.92a.36.36,0,0,1,.37-.36h.78a2.32,2.32,0,1,1,0,4.64h-.78A.36.36,0,0,1,193.42,267.31Zm.74-.37h.41a1.59,1.59,0,0,0,0-3.17h-.41Z" style="fill:#a6a6a6"></path><path d="M188.68,275.27a.36.36,0,0,1-.36.36H186a.38.38,0,0,1-.28-.12.37.37,0,0,1,0-.51l2-1.78a.86.86,0,0,0,.28-.64.91.91,0,0,0-.22-.58.86.86,0,0,0-.64-.28.93.93,0,0,0-.58.22l-.2.19a.37.37,0,1,1-.49-.55l.2-.18a1.56,1.56,0,0,1,1.07-.41,1.61,1.61,0,0,1,1.18.52,1.56,1.56,0,0,1,.41,1.07,1.61,1.61,0,0,1-.52,1.18l-1.25,1.14h1.41A.36.36,0,0,1,188.68,275.27Z" style="fill:#a6a6a6"></path><path d="M189.6,273.31a2.83,2.83,0,0,1,.45-1.59,1.4,1.4,0,0,1,2.46,0,3.09,3.09,0,0,1,0,3.18,1.4,1.4,0,0,1-2.46,0A2.85,2.85,0,0,1,189.6,273.31Zm2.62,0a2.14,2.14,0,0,0-.32-1.18.79.79,0,0,0-.62-.41.83.83,0,0,0-.63.41,2.23,2.23,0,0,0-.32,1.18,2.19,2.19,0,0,0,.32,1.17.82.82,0,0,0,.63.42.78.78,0,0,0,.62-.42A2.11,2.11,0,0,0,192.22,273.31Z" style="fill:#a6a6a6"></path><rect x="201.27" y="262.19" width="48.72" height="23.94" style="fill:#FFC727;opacity:0.4"></rect><rect x="205.69" y="266.38" width="39.88" height="0.92" style="fill:#fff"></rect><rect x="205.69" y="269.26" width="39.88" height="0.92" style="fill:#fff"></rect><rect x="205.69" y="272.14" width="39.88" height="0.92" style="fill:#fff"></rect><rect x="205.69" y="275.02" width="39.88" height="0.92" style="fill:#fff"></rect><rect x="205.69" y="277.9" width="39.88" height="0.92" style="fill:#fff"></rect><rect x="205.69" y="280.78" width="26.7" height="0.92" style="fill:#fff"></rect></g><g id="freepik--Character--inject-263"><path d="M548.63,451.57c2.15.7,63.34-.1,65.65-1.61.89-.56,1.29-9.48,1.47-20.28,0-.11-.07-39.88-.07-39.88l-39.9.41.51,39.87S553,440.86,550.64,442.79,546.48,450.89,548.63,451.57Z" style="fill:#f7a9a0"></path><path d="M567,434.27c.16,0,.24-.09.25-.14Z" style="fill:#FFC727"></path><path d="M615.63,435.31c-.22,8.12-.62,14.19-1.35,14.65-2.3,1.52-63.5,2.31-65.64,1.61s-.34-6.85,2-8.77c1.13-.93,7.05-3.87,12.92-6.7C554.84,441.06,548.29,447.9,615.63,435.31Z" style="fill:#263238"></path><path d="M615.63,435.31c-.22,8.12-.62,14.19-1.35,14.65-.91.6-11.1,1.09-23.19,1.41l14.74-14.27C608.91,436.55,612.17,436,615.63,435.31Z" style="fill:#37474f"></path><path d="M628.24,213.53S617.9,317.7,616.4,325.59c-.34,1.8.59,10.8.45,23.36-.32,27.41-1,76.85-1,76.85H576.13s-1.26-85.65.65-101.42,14.11-110.85,14.11-110.85Z" style="fill:#f7a9a0"></path><path d="M598.72,455.22c2.19.54,63.18-4.59,65.37-6.26.85-.62.62-9.55,0-20.33,0-.11-4.23-39.67-4.23-39.67l-39.22,3.18,4.12,39.69s-22.46,12.4-24.68,14.49S596.53,454.69,598.72,455.22Z" style="fill:#f7a9a0"></path><path d="M664.09,449c-2.19,1.67-63.18,6.8-65.37,6.26s-.82-6.81,1.39-8.9c1.27-1.2,9.24-5.81,15.79-9.52-8.58,5.64-24.92,17.88,48.42-4.38C664.76,441.43,664.84,448.41,664.09,449Z" style="fill:#263238"></path><path d="M624.3,427.38l39.38-3s-10.23-91.82-10.45-97.64c-.33-8.64-3.62-45.15-7.1-74,0,0,3.81-20.83-5.75-39.25H590.85s3.32,22.47,9,36.72a67.11,67.11,0,0,1,11,5s4.08,65.23,4.26,73.26C615.5,344.38,624.3,427.38,624.3,427.38Z" style="fill:#f7a9a0"></path><path d="M590.85,213.49S575.21,319.94,574.6,329.83s-.9,29.38-.9,29.38,23.07,8.32,34.51,8.43c25.44.23,50.24-13.53,50.24-13.53S646.93,253,646.85,252.79a60.26,60.26,0,0,0-5.49-39.36Z" style="fill:#263238"></path><path d="M598,223.71a.76.76,0,0,1-1.51,0,.76.76,0,0,1,1.51,0Zm10.59-.75a.75.75,0,0,0,0,1.5.75.75,0,0,0,0-1.5ZM620,223a.75.75,0,0,0,0,1.5.75.75,0,1,0,0-1.5Zm11.35,0a.75.75,0,1,0,.75.75A.75.75,0,0,0,631.31,223Zm11.35,0a.75.75,0,1,0,.75.75A.75.75,0,0,0,642.66,223Zm-51.06-8.62a.75.75,0,1,0,.75.75A.75.75,0,0,0,591.6,214.34Zm11.35,0a.75.75,0,0,0,0,1.5.75.75,0,0,0,0-1.5Zm11.34,0a.75.75,0,1,0,.75.75A.75.75,0,0,0,614.29,214.34Zm11.35,0a.75.75,0,0,0,0,1.5.75.75,0,0,0,0-1.5Zm11.34,0a.75.75,0,1,0,.75.75A.75.75,0,0,0,637,214.34Zm-39.71,25.82a.75.75,0,1,0,.76.75A.76.76,0,0,0,597.27,240.16Zm11.35,0a.75.75,0,1,0,.75.75A.75.75,0,0,0,608.62,240.16Zm11.34,0a.75.75,0,1,0,.76.75A.76.76,0,0,0,620,240.16Zm11.35,0a.75.75,0,0,0,0,1.5.75.75,0,0,0,0-1.5Zm11.35,0a.75.75,0,1,0,0,1.5.75.75,0,0,0,0-1.5Zm-51.06-8.62a.75.75,0,0,0,0,1.5.75.75,0,0,0,0-1.5Zm11.35,0a.75.75,0,1,0,.75.75A.75.75,0,0,0,603,231.54Zm11.34,0a.75.75,0,0,0,0,1.5.75.75,0,0,0,0-1.5Zm11.35,0a.75.75,0,1,0,.75.75A.75.75,0,0,0,625.64,231.54Zm11.34,0a.75.75,0,0,0,0,1.5.75.75,0,0,0,0-1.5Zm-51.05,25.83a.75.75,0,0,0,0,1.5.75.75,0,0,0,0-1.5Zm11.34,0a.75.75,0,0,0,0,1.5.75.75,0,1,0,0-1.5Zm11.35,0a.75.75,0,0,0,0,1.5.75.75,0,0,0,0-1.5Zm11.34,0a.75.75,0,0,0,0,1.5.75.75,0,1,0,0-1.5Zm11.35,0a.75.75,0,1,0,.75.75A.75.75,0,0,0,631.31,257.37Zm11.35,0a.75.75,0,1,0,.75.75A.75.75,0,0,0,642.66,257.37Zm-51.06-8.63a.76.76,0,1,0,.75.75A.76.76,0,0,0,591.6,248.74Zm11.35,0a.76.76,0,0,0,0,1.51.76.76,0,0,0,0-1.51Zm11.34,0a.76.76,0,1,0,.75.75A.76.76,0,0,0,614.29,248.74Zm11.35,0a.76.76,0,0,0,0,1.51.76.76,0,0,0,0-1.51Zm11.34,0a.76.76,0,1,0,.75.75A.76.76,0,0,0,637,248.74Zm-51.05,25.83a.75.75,0,1,0,.75.75A.75.75,0,0,0,585.93,274.57Zm11.34,0a.75.75,0,1,0,.76.75A.76.76,0,0,0,597.27,274.57Zm11.35,0a.75.75,0,1,0,.75.75A.75.75,0,0,0,608.62,274.57Zm11.34,0a.75.75,0,1,0,.76.75A.76.76,0,0,0,620,274.57Zm11.35,0a.75.75,0,0,0,0,1.5.75.75,0,0,0,0-1.5Zm11.35,0a.75.75,0,1,0,0,1.5.75.75,0,0,0,0-1.5ZM591.6,266a.75.75,0,1,0,.75.75A.75.75,0,0,0,591.6,266ZM603,266a.75.75,0,0,0,0,1.5.75.75,0,0,0,0-1.5Zm11.34,0a.75.75,0,1,0,.75.75A.75.75,0,0,0,614.29,266Zm11.35,0a.75.75,0,0,0,0,1.5.75.75,0,0,0,0-1.5ZM637,266a.75.75,0,1,0,.75.75A.75.75,0,0,0,637,266Zm11.4,0h0a.75.75,0,0,0,0,1.5.54.54,0,0,0,.22,0C648.49,266.91,648.43,266.43,648.38,266Zm-62.45,25.83a.75.75,0,0,0,0,1.5.75.75,0,0,0,0-1.5Zm11.34,0a.75.75,0,0,0,0,1.5.75.75,0,1,0,0-1.5Zm11.35,0a.75.75,0,0,0,0,1.5.75.75,0,0,0,0-1.5Zm11.34,0a.75.75,0,0,0,0,1.5.75.75,0,1,0,0-1.5Zm11.35,0a.75.75,0,1,0,.75.75A.75.75,0,0,0,631.31,291.78Zm11.35,0a.75.75,0,1,0,.75.75A.75.75,0,0,0,642.66,291.78Zm-61.9-8.43c-.06.41-.12.81-.17,1.22a.74.74,0,0,0,.17-1.22Zm10.84-.2a.75.75,0,0,0,0,1.5.75.75,0,0,0,0-1.5Zm11.35,0a.75.75,0,1,0,.75.75A.75.75,0,0,0,603,283.15Zm11.34,0a.75.75,0,0,0,0,1.5.75.75,0,0,0,0-1.5Zm11.35,0a.75.75,0,1,0,.75.75A.75.75,0,0,0,625.64,283.15Zm11.34,0a.75.75,0,0,0,0,1.5.75.75,0,0,0,0-1.5Zm11.35,0a.75.75,0,1,0,.75.75A.75.75,0,0,0,648.33,283.15ZM585.93,309a.75.75,0,1,0,.75.75A.75.75,0,0,0,585.93,309Zm11.34,0a.75.75,0,1,0,.76.75A.76.76,0,0,0,597.27,309Zm11.35,0a.75.75,0,1,0,.75.75A.75.75,0,0,0,608.62,309ZM620,309a.75.75,0,1,0,.76.75A.76.76,0,0,0,620,309Zm11.35,0a.75.75,0,0,0,0,1.5.75.75,0,0,0,0-1.5Zm11.35,0a.75.75,0,1,0,0,1.5.75.75,0,0,0,0-1.5Zm10.69.39a.65.65,0,0,0-.1.36.69.69,0,0,0,.2.5C653.41,309.94,653.38,309.66,653.35,309.37Zm-73.09-9a.75.75,0,0,0,0,1.5.75.75,0,0,0,0-1.5Zm11.34,0a.75.75,0,1,0,.75.75A.75.75,0,0,0,591.6,300.36Zm11.35,0a.75.75,0,0,0,0,1.5.75.75,0,0,0,0-1.5Zm11.34,0a.75.75,0,1,0,.75.75A.75.75,0,0,0,614.29,300.36Zm11.35,0a.75.75,0,0,0,0,1.5.75.75,0,0,0,0-1.5Zm11.34,0a.75.75,0,1,0,.75.75A.75.75,0,0,0,637,300.36Zm11.35,0a.75.75,0,0,0,0,1.5.75.75,0,0,0,0-1.5ZM575,326.28c-.06.5-.11,1-.15,1.37a.74.74,0,0,0,.53-.71A.76.76,0,0,0,575,326.28Zm11-.1a.76.76,0,1,0,.75.76A.75.75,0,0,0,585.93,326.18Zm11.34,0a.76.76,0,1,0,.76.76A.76.76,0,0,0,597.27,326.18Zm11.35,0a.76.76,0,1,0,.75.76A.75.75,0,0,0,608.62,326.18Zm11.34,0a.76.76,0,1,0,.76.76A.76.76,0,0,0,620,326.18Zm11.35,0a.76.76,0,0,0,0,1.51.76.76,0,0,0,0-1.51Zm11.35,0a.76.76,0,1,0,.75.76A.76.76,0,0,0,642.66,326.18Zm11.34,0a.76.76,0,0,0,0,1.51.76.76,0,0,0,0-1.51Zm-73.74-8.62a.75.75,0,1,0,.75.75A.75.75,0,0,0,580.26,317.56Zm11.34,0a.75.75,0,0,0,0,1.5.75.75,0,0,0,0-1.5Zm11.35,0a.75.75,0,1,0,.75.75A.75.75,0,0,0,603,317.56Zm11.34,0a.75.75,0,0,0,0,1.5.75.75,0,0,0,0-1.5Zm11.35,0a.75.75,0,1,0,.75.75A.75.75,0,0,0,625.64,317.56Zm11.34,0a.75.75,0,0,0,0,1.5.75.75,0,0,0,0-1.5Zm11.35,0a.75.75,0,1,0,.75.75A.75.75,0,0,0,648.33,317.56Zm-73.75,25.83a.76.76,0,0,0-.54.23h0l0,1a.76.76,0,0,0,.57.27.75.75,0,0,0,0-1.5Zm11.35,0a.75.75,0,0,0,0,1.5.75.75,0,0,0,0-1.5Zm11.34,0a.75.75,0,0,0,0,1.5.75.75,0,1,0,0-1.5Zm11.35,0a.75.75,0,0,0,0,1.5.75.75,0,0,0,0-1.5Zm11.34,0a.75.75,0,0,0,0,1.5.75.75,0,1,0,0-1.5Zm11.35,0a.75.75,0,1,0,.75.75A.75.75,0,0,0,631.31,343.39Zm11.35,0a.75.75,0,1,0,.75.75A.75.75,0,0,0,642.66,343.39Zm11.34,0a.75.75,0,1,0,.75.75A.75.75,0,0,0,654,343.39Zm-73.74-8.62a.75.75,0,0,0,0,1.5.75.75,0,0,0,0-1.5Zm11.34,0a.75.75,0,1,0,.75.75A.75.75,0,0,0,591.6,334.77Zm11.35,0a.75.75,0,0,0,0,1.5.75.75,0,0,0,0-1.5Zm11.34,0a.75.75,0,1,0,.75.75A.75.75,0,0,0,614.29,334.77Zm11.35,0a.75.75,0,0,0,0,1.5.75.75,0,0,0,0-1.5Zm11.34,0a.75.75,0,1,0,.75.75A.75.75,0,0,0,637,334.77Zm11.35,0a.75.75,0,0,0,0,1.5.75.75,0,0,0,0-1.5Zm-62.4,25.82a.76.76,0,0,0,0,1.51.76.76,0,0,0,0-1.51Zm11.34,0a.76.76,0,1,0,.76.75A.76.76,0,0,0,597.27,360.59Zm11.35,0a.76.76,0,0,0,0,1.51.76.76,0,0,0,0-1.51Zm11.34,0a.76.76,0,1,0,.76.75A.76.76,0,0,0,620,360.59Zm11.35,0a.76.76,0,1,0,.75.75A.76.76,0,0,0,631.31,360.59Zm11.35,0a.76.76,0,0,0-.76.72l1.31-.47A.73.73,0,0,0,642.66,360.59ZM580.26,352a.75.75,0,1,0,.75.75A.75.75,0,0,0,580.26,352Zm11.34,0a.75.75,0,0,0,0,1.5.75.75,0,0,0,0-1.5ZM603,352a.75.75,0,1,0,.75.75A.75.75,0,0,0,603,352Zm11.34,0a.75.75,0,0,0,0,1.5.75.75,0,0,0,0-1.5Zm11.35,0a.75.75,0,1,0,.75.75A.75.75,0,0,0,625.64,352ZM637,352a.75.75,0,0,0,0,1.5.75.75,0,0,0,0-1.5Zm11.35,0a.75.75,0,1,0,.75.75A.75.75,0,0,0,648.33,352Z" style="fill:#37474f"></path><path d="M585,185.63l7,.49a21.52,21.52,0,0,0,2.81-12.73c-.07-1,2,4.89.73,13,7.37.51,17.4,1.2,26.16,1.73.32-3.42.78-6.57.78-6.57a39.14,39.14,0,0,0,1.12,6.69c1.2.08,2.38.14,3.5.2a134.11,134.11,0,0,1,1.32-14.54,47,47,0,0,0,3.66,14.81c5.57.28,9.24.35,9,.08-8-10-1.56-15.32-3.56-23.93-2.41-10.32-11.12-12.34-10.51-20,.48-6.22,1.77-17.48-6-20.26a15.17,15.17,0,0,0-16.3-3.9c-12.65,4.2-8.61,23.62-9.64,27.49-1.46,5.52-4.2,7.37-6.48,13.64s.42,10.76.56,15.14S583.64,185.55,585,185.63Z" style="fill:#263238"></path><path d="M641.43,187.4a21.53,21.53,0,0,1-2.46-5.57,11.45,11.45,0,0,1,.29-5.85,61.54,61.54,0,0,0,1.31-6.1,16.3,16.3,0,0,0-.32-6.44,14.4,14.4,0,0,0-3.1-5.68,38.45,38.45,0,0,0-4.6-4.28,22.94,22.94,0,0,1-4.23-4.3,11.15,11.15,0,0,1-2-5.66,10.4,10.4,0,0,0,1.34,6.06,21.16,21.16,0,0,0,4.06,4.81,48.07,48.07,0,0,1,4.25,4.33,13.49,13.49,0,0,1,2.68,5.14,16,16,0,0,1,.32,5.83c-.21,2-.67,4-1,6a21.81,21.81,0,0,0-.35,3.17,9,9,0,0,0,.56,3.19A17.69,17.69,0,0,0,641.43,187.4Z" style="fill:#263238"></path><path d="M597.4,127.52a31.2,31.2,0,0,0-2,7.35c-.43,2.52-.74,5-1,7.56l-.44,3.76a18.68,18.68,0,0,1-.74,3.57,20,20,0,0,1-3.69,6.28,30.91,30.91,0,0,0-2.18,3.23,17.57,17.57,0,0,0-1.55,3.66,26,26,0,0,0-.73,3.86,16.23,16.23,0,0,0,0,3.94c.16,1.31.48,2.56.73,3.77a20,20,0,0,1,.41,3.68,7.79,7.79,0,0,1-3.35,6.29,7.9,7.9,0,0,0,4.14-6.26,19.34,19.34,0,0,0-.15-3.88c-.16-1.28-.43-2.51-.51-3.73a20.35,20.35,0,0,1,.91-7.22,17.08,17.08,0,0,1,1.46-3.3,27.07,27.07,0,0,1,2.1-3c.76-1,1.54-2,2.23-3.18a15.84,15.84,0,0,0,1.64-3.63,20.35,20.35,0,0,0,.67-3.88c.13-1.27.21-2.54.29-3.81.17-2.52.3-5,.54-7.56A37,37,0,0,1,597.4,127.52Z" style="fill:#263238"></path><path d="M612.4,167.64c-1.72,12.1-17.64,43.37-26.14,47.54-6.15,3-35.31-5-43.74-8.62-8.14-3.47,5.67-28.08,10.59-26.38,6.94,2.41,23.46,10.82,26.07,10.21,1.83-.43,10.26-9.8,22.64-26C608.67,155.44,613.42,160.42,612.4,167.64Z" style="fill:#f7a9a0"></path><path d="M541.88,174.12c-4.34-.49-9.28-1.41-13.72-.3s-6.79,7.85-6.4,9.54,4.49,11.81,9,10.79-.09-8.49-.13-9.45-.15-2.19.71-2.3,17.19,3.49,17.19,3.49Z" style="fill:#f7a9a0"></path><path d="M541.74,174.8c-.26.06-13.29-1.9-17.73-.79s-6.79,7.85-6.4,9.54,4.49,11.81,8.95,10.78-.09-8.48-.13-9.45-.15-2.18.71-2.29,17.19,3.49,17.19,3.49Z" style="fill:#f7a9a0"></path><path d="M527.94,193.42a5.45,5.45,0,0,0,.14-2.81,9.26,9.26,0,0,0-.82-2.81,15.85,15.85,0,0,1-1.1-2.32,4.93,4.93,0,0,1,.08-2.5c.2-.71.9-.65,1.51-.58a22.31,22.31,0,0,1,2.68.54c1,.23,1.89.47,2.84.72a24.14,24.14,0,0,1,2.91.82c.07,0,.06.15,0,.14a24,24,0,0,1-2.5-.5c-.94-.2-1.88-.4-2.82-.58s-1.75-.39-2.63-.55a2.71,2.71,0,0,0-1.26-.08c-.32.16-.3,1-.31,1.32a4.31,4.31,0,0,0,.71,2.38,12.38,12.38,0,0,1,1,2.33,6.59,6.59,0,0,1,.35,2.37,9.53,9.53,0,0,1-.62,2.16C528.07,193.57,527.9,193.51,527.94,193.42Z" style="fill:#263238"></path><path d="M558.58,183.25s-15-8.41-18-10.06c-6.2-3.3-30-7.18-33.08-6.8s-2.77,6.84,13.47,9.89c8.56,1.62,11,5.75,11.39,8.25s-.88,7.65-5.06,8.49-8.26-4.6-12.23-4.39.16,6.62,3.78,10A26.09,26.09,0,0,0,532,204.81c3.9.52,16.11,2.75,16.11,2.75Z" style="fill:#f7a9a0"></path><path d="M521.44,191.29c1.84.85,4,2,6,1.61s3.21-2.11,3.8-4.07a8.11,8.11,0,0,0-.23-6,10,10,0,0,0-3.92-4,24.13,24.13,0,0,0-6.49-2.45c-.1,0,0-.17.06-.15,2.1.41,8.6,1.48,11,6.45a8.26,8.26,0,0,1,.19,6.12c-.54,1.86-1.51,3.76-3.49,4.39-2.4.76-5-.74-7.08-1.83C521.24,191.32,521.34,191.24,521.44,191.29Z" style="fill:#263238"></path><path d="M553.67,180.37l-3.44,32.22s29.4,7.21,36.77,3.2,22.11-31.69,25.85-47.29c2.28-9.5-4.07-14.05-12.18-4.23-8.34,10.1-20.09,24.12-21.09,24.75S553.67,180.37,553.67,180.37Z" style="fill:#FFC727"></path><path d="M612.86,168.49c-3.75,15.61-18.48,43.28-25.85,47.29-2.26,1.23-6.58,1.4-11.49,1.06L606,159.63h0a8.07,8.07,0,0,1,.8-.37l.41-.15a5.29,5.29,0,0,1,.95-.24,3,3,0,0,1,.42-.06l.42,0a4,4,0,0,1,1.8.42,3.41,3.41,0,0,1,.74.52C613.21,161.21,613.84,164.38,612.86,168.49Z" style="fill:#263238;opacity:0.1"></path><path d="M557.3,211.5c-.06-1.09.09-2.19.14-3.29s.13-2.19.22-3.28c.18-2.1.39-4.21.61-6.31s.45-4.2.68-6.3.37-4.39.77-6.53a.08.08,0,0,1,.16,0c0,2.18-.29,4.39-.47,6.56s-.34,4.29-.52,6.44-.38,4.29-.6,6.43c-.11,1.05-.23,2.1-.38,3.14s-.22,2.13-.47,3.16C557.42,211.62,557.3,211.58,557.3,211.5Z" style="fill:#263238"></path><path d="M589.44,220.64s37.89,1.63,53.92-.26c0,0-11-46.3-22.65-58.78-5.31-5.68-10.51-4.81-14.91-1.16-1.1.92-14.72,18.2-15.87,24.23-1,5.32,3.31,11.23,3.31,11.23Z" style="fill:#ebebeb"></path><polygon points="609.74 172.14 607.73 167.93 604.33 171.15 604.92 174.26 608.21 174.62 609.74 172.14" style="fill:#455a64"></polygon><polygon points="608.21 174.62 607.38 206.08 600.3 220.01 595.67 206.1 604.92 174.26 608.21 174.62" style="fill:#455a64"></polygon><path d="M606.23,159.89s-5.83,15.69-6.18,19.72,1.45,19.15,1.45,19.15,8.88-16,11-21.13c3.34-8,4.08-19.19,4.08-19.19s3.33,1.52,7.7,7.5c5.84,8,16.4,38.12,19.85,54.9l-39.9,5.73-4-6.56-2.72,6.56-9.46-5.28,5.12-25.39s-5-5.39-2.88-12.67C592.62,175.3,606.23,159.89,606.23,159.89Z" style="fill:#FFC727"></path><path d="M601.5,198.76c.06,1.78,0,3.56,0,5.33s-.12,3.55-.21,5.32-.22,3.54-.39,5.3-.33,3.53-.59,5.3c0-1.78,0-3.56,0-5.33s.13-3.55.22-5.32.22-3.54.39-5.3S601.25,200.53,601.5,198.76Z" style="fill:#263238"></path><path d="M605.05,203.37a1.24,1.24,0,0,1-1,1.24,1.3,1.3,0,0,1-1-.27,1.32,1.32,0,0,1-.46-1,1.24,1.24,0,1,1,2.48,0Zm0,0a.91.91,0,0,0-.35-.71.88.88,0,1,0,0,1.42A.93.93,0,0,0,605.05,203.37Z" style="fill:#263238"></path><path d="M604.72,209.94a1.24,1.24,0,0,1-1.05,1.24,1.3,1.3,0,0,1-1-.27,1.32,1.32,0,0,1-.46-1,1.24,1.24,0,1,1,2.48,0Zm0,0a.91.91,0,0,0-.35-.71.87.87,0,0,0-1.38.71.88.88,0,0,0,.68.86.86.86,0,0,0,.7-.15A.94.94,0,0,0,604.72,209.94Z" style="fill:#263238"></path><path d="M604.39,216.51a1.26,1.26,0,0,1-1,1.24,1.3,1.3,0,0,1-1-.27,1.32,1.32,0,0,1-.46-1,1.22,1.22,0,0,1,.46-1,1.23,1.23,0,0,1,2,1Zm0,0a.88.88,0,0,0-1-.87.89.89,0,0,0-.68.87.86.86,0,0,0,1.38.7A.91.91,0,0,0,604.39,216.51Z" style="fill:#263238"></path><polygon points="617.81 204.77 631.87 202.23 632.31 204.04 618.14 206.61 617.81 204.77" style="fill:#000102;opacity:0.1"></polygon><path d="M594.83,174.83c.06-.1-.09-.17-.15-.09a41.4,41.4,0,0,0-2.59,4.12c.31-.92.66-1.83,1-2.73,0,0,0-.08-.06,0a20.39,20.39,0,0,0-1.38,3.55c-1.79,3.56-2.78,7.45-1.68,11.48a10.57,10.57,0,0,0,1.75,3.6,8.52,8.52,0,0,1,1.08,1.48c0,.22-.52,2.43-.61,2.92-.69,3.49-1.42,7-2.15,10.45q-.62,2.91-1.18,5.83a54.46,54.46,0,0,0-.93,5.67c0,.09.13.09.16,0A89.69,89.69,0,0,0,590.44,211q1-5.12,2.06-10.22a41,41,0,0,0,.84-4.71c-.1-.12-.55-1-.88-1.39a10.15,10.15,0,0,1-1.05-1.72,13.71,13.71,0,0,1-.88-8.41A28.21,28.21,0,0,1,594.83,174.83Z" style="fill:#263238"></path><polygon points="599.13 238.59 567.7 246.99 549.89 204.1 581.31 195.71 599.13 238.59" style="fill:#37474f"></polygon><polygon points="597.58 239 566.16 247.4 548.35 204.51 579.77 196.12 597.58 239" style="fill:#455a64"></polygon><path d="M568.32,220.91a3.52,3.52,0,0,0,4.14,2.17,2.85,2.85,0,0,0,2-3.8,3.52,3.52,0,0,0-4.14-2.17A2.85,2.85,0,0,0,568.32,220.91Z" style="fill:#fff"></path><path d="M621.56,162.38c10.83,11.66,35.9,42.81,30.66,50.15-8.62,12.05-31.28,24-38.45,26.89-3.1,1.25-16.63-20.85-13.8-23,3.39-2.62,26.45-12.53,26.13-14.69-.18-1.23-4.53-14.21-8.27-27.2C613.49,159.45,617.85,158.38,621.56,162.38Z" style="fill:#f7a9a0"></path><path d="M611.42,213.71s-10-2-16.55-2.93c-3.67-.54-10-.9-12.92-.07-4.3,1.25-21.51,9.23-19.67,13.44,1.67,3.81,15.59-4.92,15.59-4.92s-14.82,7.57-12,11.8,17.26-7.74,17.26-7.74-15,8.12-11.41,12c2.74,2.94,16.4-7.15,16.4-7.15s-12.89,7.06-10.19,10.21c3,3.47,16.16-5.05,16.16-5.05,8.19,6.84,14.89,7.47,19.65,6.11C614.88,239.1,611.42,213.71,611.42,213.71Z" style="fill:#f7a9a0"></path><path d="M582.13,216.67c-11.34,4.74-15.44,10.54-15.3,10.41,3.31-3.12,9.32-6.72,11-7.7s2.64-1.67,4.33-2.65C582.22,216.71,582.18,216.65,582.13,216.67Z" style="fill:#263238"></path><path d="M586.47,222.34a41.65,41.65,0,0,0-12.78,7.47c-.14.13-.05.16.11.06,2.12-1.31,10.53-6.28,12.71-7.48C586.54,222.37,586.51,222.33,586.47,222.34Z" style="fill:#263238"></path><path d="M590.54,227a31,31,0,0,0-9.73,6.07c-.14.13,0,.16.16.06,3.2-2.08,5.69-3.74,9.63-6C590.66,227.05,590.62,226.93,590.54,227Z" style="fill:#263238"></path><path d="M613.52,208.63l14.67,25.42s24.72-14.76,25.65-24.43-25.53-41.08-30.49-46.14c-1.4-1.43-5.16-4.63-6.8-4.07-1.85.63-1.4,3.38-.72,9.79.92,8.54,9.75,31.45,9.32,32.46S613.52,208.63,613.52,208.63Z" style="fill:#FFC727"></path><path d="M632.57,229.3c-.69-.85-1.22-1.83-1.83-2.74s-1.18-1.85-1.75-2.78c-1.1-1.81-2.17-3.63-3.23-5.46l-3.18-5.48c-1.09-1.89-2.29-3.77-3.23-5.74a.08.08,0,0,1,.13-.08c1.29,1.77,2.36,3.72,3.5,5.58s2.26,3.66,3.37,5.5,2.23,3.69,3.32,5.55c.53.91,1.05,1.83,1.54,2.76a31.85,31.85,0,0,1,1.49,2.83C632.73,229.32,632.61,229.36,632.57,229.3Z" style="fill:#263238"></path><path d="M625.53,201.6a14.54,14.54,0,0,0-.78-3c-.7-2.08-3.15-9.86-3.89-11.92-.82-2.3-1.62-4.61-2.52-6.88,0-.06-.12,0-.1,0,.38,1.39.94,3.23,1.54,5.16-.13-.21-.25-.42-.39-.62a12.48,12.48,0,0,1-1.13-1.93s0,0,0,0a14.86,14.86,0,0,0,.89,2c.17.33.37.64.56,1s.26.35.39.53c1.45,4.59,4.8,15,4.86,15.21s-9.62,6-11.72,7.28c-.08.06.27.51.47.75a.08.08,0,0,0,.13-.08,2.11,2.11,0,0,0-.27-.46C617.21,207,625.43,202.06,625.53,201.6Z" style="fill:#263238"></path><path d="M616.24,161.54c-.28,1-4.38,6.12-8.93,5.69-1.48-.15-2-7.16-2-7.16l-.11-.6L603.7,151l10.17-5.86,1.46-.77s.26,2.35.54,5.28c0,.13,0,.27,0,.42s0,.32.05.47c0,.44.1.88.13,1.33s.06.67.08,1,.05.7.08,1.06A57.42,57.42,0,0,1,616.24,161.54Z" style="fill:#f7a9a0"></path><path d="M615.87,149.63a17.29,17.29,0,0,1-10.7,9.84L603.7,151l10.17-5.86,1.46-.77S615.59,146.7,615.87,149.63Z" style="fill:#263238"></path><path d="M592.6,136.21c-3.06,14.81,5.47,18.31,8.67,19,2.9.59,12.85,2.25,17.41-12.17s-1.35-20.52-7.91-22.23S595.65,121.4,592.6,136.21Z" style="fill:#f7a9a0"></path><path d="M596.58,133.61c.36,0,.69,0,1,0a1.76,1.76,0,0,0,1.06-.23.55.55,0,0,0,.12-.65,1.33,1.33,0,0,0-1.24-.54,2,2,0,0,0-1.34.46A.58.58,0,0,0,596.58,133.61Z" style="fill:#263238"></path><path d="M606.93,135.55a10.2,10.2,0,0,1-1-.4,1.71,1.71,0,0,1-.91-.59.55.55,0,0,1,.12-.65,1.35,1.35,0,0,1,1.35-.07,2,2,0,0,1,1.08.91A.57.57,0,0,1,606.93,135.55Z" style="fill:#263238"></path><path d="M603.91,138.77s.07.06.06.1c-.24,1-.35,2.19.49,2.72,0,0,0,.06,0,0C603.36,141.25,603.52,139.68,603.91,138.77Z" style="fill:#263238"></path><path d="M605,137.9c1.64.21,1.1,3.49-.43,3.3S603.65,137.72,605,137.9Z" style="fill:#263238"></path><path d="M605.64,138.18c.26.23.48.61.82.7s.75-.19,1.07-.47c0,0,.06,0,.05,0-.1.63-.45,1.24-1.13,1.22s-1-.65-1-1.3C605.41,138.24,605.54,138.09,605.64,138.18Z" style="fill:#263238"></path><path d="M597.94,137.47s-.08,0-.09.07c-.13,1-.45,2.17-1.42,2.37,0,0,0,.05,0,.05C597.57,140,598,138.45,597.94,137.47Z" style="fill:#263238"></path><path d="M597.2,136.26c-1.61-.39-2.26,2.87-.76,3.23S598.56,136.58,597.2,136.26Z" style="fill:#263238"></path><path d="M596.48,136.34c-.29.12-.61.38-.92.34s-.55-.45-.71-.84c0,0-.05,0-.06,0-.14.62-.07,1.31.51,1.55s1-.24,1.3-.83C596.65,136.48,596.6,136.29,596.48,136.34Z" style="fill:#263238"></path><path d="M602,147.11c-.27.21-.55.51-.93.5a2.61,2.61,0,0,1-1.07-.39s-.06,0-.05.05a1.41,1.41,0,0,0,1.23.71,1.11,1.11,0,0,0,.92-.81C602.07,147.11,602,147.08,602,147.11Z" style="fill:#263238"></path><path d="M598.37,142.69s-.48,1.48-.61,2.19c0,.07.16.13.4.19,0,0,0,0,0,0a3.43,3.43,0,0,0,3.52-.67c.06-.06,0-.15-.09-.12a5.23,5.23,0,0,1-3.26.33c0-.21.91-2.5.8-2.53a6.59,6.59,0,0,0-1.69.08c.91-3.11,2.31-6,3.18-9.14,0-.12-.13-.18-.18-.08a51.94,51.94,0,0,0-3.84,9.7C596.5,143,598.06,142.76,598.37,142.69Z" style="fill:#263238"></path><path d="M617,144.13c-2.85-.12-2.49-6.64-2.49-6.64s-11.56-4-10.94-13.88a16.64,16.64,0,0,1-9.78,7.58s2.21-10.56,11-11.2c0,0,11.09-2,15.57,7.24S618.89,144.2,617,144.13Z" style="fill:#263238"></path><path d="M603.63,122.89a10.54,10.54,0,0,0-.21,4.51,11.08,11.08,0,0,0,1.58,4.29c.19.34.45.62.67.94l.35.46.39.41c.28.28.54.56.82.82l.9.7.46.34.49.29,1,.58c.68.32,1.38.61,2.08.88-.63-.41-1.3-.76-1.91-1.17l-.91-.64-.45-.32-.41-.37c-.27-.25-.55-.5-.82-.73s-.5-.54-.75-.81l-.37-.4-.32-.44c-.2-.31-.45-.58-.62-.9a12.93,12.93,0,0,1-1.65-4,13.17,13.17,0,0,1-.32-2.18A13.84,13.84,0,0,1,603.63,122.89Z" style="fill:#263238"></path><path d="M617.59,148.48a3.22,3.22,0,0,1-.72.09,2.3,2.3,0,0,1-.71-.06,2,2,0,0,1-.83-.38,2.3,2.3,0,0,1-.52-.51,2.92,2.92,0,0,1-.47-.91l1.3-3.91s3.83-4.31,5.82-2.89S620.19,147.84,617.59,148.48Z" style="fill:#f7a9a0"></path><path d="M620.48,141.75s0,.06,0,.07a6.46,6.46,0,0,0-3.79,3.63,1.41,1.41,0,0,1,2.14-.14.06.06,0,0,1-.06.09,1.57,1.57,0,0,0-1.78.34,7.83,7.83,0,0,0-1,1.3c-.1.15-.37,0-.29-.15l0,0C616,144.62,618.06,141.7,620.48,141.75Z" style="fill:#263238"></path><path d="M617.45,147.82a.7.7,0,0,1-.88.45.71.71,0,0,1-.45-.89.7.7,0,0,1,1.33.44Z" style="fill:#fff"></path><path d="M619,146.94a.48.48,0,0,1-.62.31.49.49,0,0,1-.32-.62.51.51,0,0,1,.63-.32A.5.5,0,0,1,619,146.94Z" style="fill:#fff"></path><path d="M605.15,159.64l2.86,6.81,8.38-8.8,2.45,2.75s-8.11,13.89-8.17,13.27l-2.91-5.86-4,4.17.16-10.31Z" style="fill:#ebebeb"></path><path d="M603.54,166.88c.09-1.7.12-3.42.29-5.12,0-.06.1-.09.11,0,.37,1.63,0,8.14,0,9.7l0,0c.17-.18,3.72-3.67,3.76-3.62.62.93,2.76,5.2,2.91,5.59,1.28-2.21,6.2-10.24,7.73-12.33a.06.06,0,0,1,.1.05c-1.13,2.33-7.64,13.14-7.74,13.11a67.89,67.89,0,0,1-3-6.19,46.17,46.17,0,0,1-4.19,4.44A55,55,0,0,1,603.54,166.88Z" style="fill:#263238"></path></g></svg>
