<svg xmlns="http://www.w3.org/2000/svg" width="137.362" height="149.362" viewBox="0 0 137.362 149.362">
  <g transform="translate(-745.319 -1191.319)">
    <rect width="132" height="144" transform="translate(748 1194)" fill="#413428"/>
    <g transform="translate(170 882)" opacity="0.487">
      <path d="M578.318,450.334V312H578V456h.318Z" fill="none"/>
      <path d="M586.745,404.191c23.967-12.154,49.827-22.871,67.335-43.258,12.185-14.187,19.9-32.545,29.263-48.933H578.318v96.634C581.117,407.1,583.934,405.616,586.745,404.191Z" fill="#757575"/>
      <path d="M586.745,404.191c-2.811,1.425-5.628,2.9-8.427,4.443v41.7a131.671,131.671,0,0,1,15.8-5.941l75.726-23.912c14.45-4.563,30-9.99,40.157-20.628V312H683.343c-9.361,16.388-17.078,34.746-29.263,48.933C636.572,381.32,610.712,392.037,586.745,404.191Z" fill="#757575"/>
      <path d="M586.745,404.191c-2.811,1.425-5.628,2.9-8.427,4.443v41.7a131.671,131.671,0,0,1,15.8-5.941l75.726-23.912c14.45-4.563,30-9.99,40.157-20.628V312H683.343c-9.361,16.388-17.078,34.746-29.263,48.933C636.572,381.32,610.712,392.037,586.745,404.191Z" fill="#8a8a8a"/>
      <path d="M669.843,420.481l-75.726,23.912a131.671,131.671,0,0,0-15.8,5.941V456h42.309c1.013-.45,2.027-.88,3.032-1.284A239.273,239.273,0,0,1,710,437.509V399.853C699.84,410.491,684.293,415.918,669.843,420.481Z" fill="#757575"/>
      <path d="M669.843,420.481l-75.726,23.912a131.671,131.671,0,0,0-15.8,5.941V456h42.309c1.013-.45,2.027-.88,3.032-1.284A239.273,239.273,0,0,1,710,437.509V399.853C699.84,410.491,684.293,415.918,669.843,420.481Z" fill="#8a8a8a"/>
      <path d="M669.843,420.481l-75.726,23.912a131.671,131.671,0,0,0-15.8,5.941V456h42.309c1.013-.45,2.027-.88,3.032-1.284A239.273,239.273,0,0,1,710,437.509V399.853C699.84,410.491,684.293,415.918,669.843,420.481Z" fill="#9e9e9e"/>
      <path d="M620.627,456H710V437.509a239.273,239.273,0,0,0-86.341,17.207C622.654,455.12,621.64,455.55,620.627,456Z" fill="#757575"/>
      <path d="M620.627,456H710V437.509a239.273,239.273,0,0,0-86.341,17.207C622.654,455.12,621.64,455.55,620.627,456Z" fill="#8a8a8a"/>
      <path d="M620.627,456H710V437.509a239.273,239.273,0,0,0-86.341,17.207C622.654,455.12,621.64,455.55,620.627,456Z" fill="#9e9e9e"/>
      <path d="M620.627,456H710V437.509a239.273,239.273,0,0,0-86.341,17.207C622.654,455.12,621.64,455.55,620.627,456Z" fill="#b3b3b3"/>
    </g>
    <g transform="translate(542 797)">
      <text transform="translate(272 487)" fill="#fff" font-size="72" font-weight="bold" font-family="Open Sans,Helvetica,Arial,sans-serif">
        <tspan x="-45.9" y="0">De</tspan>
      </text>
      <text transform="translate(272 513)" fill="#fff" font-size="16" font-family="Open Sans,Helvetica,Arial,sans-serif">
        <tspan x="-51.08" y="0">Demographics</tspan>
      </text>
    </g>
    <g transform="translate(748 1194)" fill="none" stroke="#fff" stroke-miterlimit="10" stroke-width="2.681">
      <rect width="132" height="144" stroke="none"/>
      <rect x="-1.341" y="-1.341" width="134.681" height="146.681" fill="none"/>
    </g>
  </g>
</svg>
