<svg xmlns="http://www.w3.org/2000/svg" width="137.362" height="149.362"><path fill="#778898" d="M2.681 2.681h132v144h-132z"/><g opacity=".487"><path d="M2.999 141.015V2.681h-.318v144h.318z" fill="none"/><path d="M11.426 94.872c23.967-12.154 49.827-22.871 67.335-43.258 12.185-14.187 19.9-32.545 29.263-48.933H2.999v96.634a296.553 296.553 0 0 1 8.427-4.443z" fill="#757575"/><path d="M11.426 94.872a275.088 275.088 0 0 0-8.427 4.443v41.7a131.671 131.671 0 0 1 15.8-5.941l75.726-23.912c14.45-4.563 30-9.99 40.157-20.628V2.681h-26.658c-9.361 16.388-17.078 34.746-29.263 48.933-17.508 20.387-43.368 31.104-67.335 43.258z" fill="#757575"/><path d="M11.426 94.872a275.088 275.088 0 0 0-8.427 4.443v41.7a131.671 131.671 0 0 1 15.8-5.941l75.726-23.912c14.45-4.563 30-9.99 40.157-20.628V2.681h-26.658c-9.361 16.388-17.078 34.746-29.263 48.933-17.508 20.387-43.368 31.104-67.335 43.258z" fill="#8a8a8a"/><path d="M94.524 111.162l-75.726 23.912a131.671 131.671 0 0 0-15.8 5.941v5.666h42.309c1.013-.45 2.027-.88 3.032-1.284a239.273 239.273 0 0 1 86.342-17.207V90.534c-10.16 10.638-25.707 16.065-40.157 20.628z" fill="#757575"/><path d="M94.524 111.162l-75.726 23.912a131.671 131.671 0 0 0-15.8 5.941v5.666h42.309c1.013-.45 2.027-.88 3.032-1.284a239.273 239.273 0 0 1 86.342-17.207V90.534c-10.16 10.638-25.707 16.065-40.157 20.628z" fill="#8a8a8a"/><path d="M94.524 111.162l-75.726 23.912a131.671 131.671 0 0 0-15.8 5.941v5.666h42.309c1.013-.45 2.027-.88 3.032-1.284a239.273 239.273 0 0 1 86.342-17.207V90.534c-10.16 10.638-25.707 16.065-40.157 20.628z" fill="#9e9e9e"/><path d="M45.308 146.681h89.373V128.19a239.273 239.273 0 0 0-86.341 17.207 92.105 92.105 0 0 0-3.032 1.284z" fill="#757575"/><path d="M45.308 146.681h89.373V128.19a239.273 239.273 0 0 0-86.341 17.207 92.105 92.105 0 0 0-3.032 1.284z" fill="#8a8a8a"/><path d="M45.308 146.681h89.373V128.19a239.273 239.273 0 0 0-86.341 17.207 92.105 92.105 0 0 0-3.032 1.284z" fill="#9e9e9e"/><path d="M45.308 146.681h89.373V128.19a239.273 239.273 0 0 0-86.341 17.207 92.105 92.105 0 0 0-3.032 1.284z" fill="#b3b3b3"/></g><g fill="#fff" font-family="Open Sans,Helvetica,Arial,sans-serif"><text transform="translate(68.681 92.681)" font-size="72" font-weight="bold"><tspan x="-45.756" y="0">Ge</tspan></text><text transform="translate(68.681 118.681)" font-size="16"><tspan x="-41.64" y="0">Geoscience</tspan></text></g><g fill="none" stroke="#fff" stroke-miterlimit="10" stroke-width="2.681"><path d="M2.681 2.681h132v144h-132z" stroke="none"/><path d="M1.34 1.34h134.681v146.681H1.34z"/></g></svg>