<svg id="Layer_1" data-name="Layer 1" xmlns="http://www.w3.org/2000/svg" viewBox="0 0 90 90"><title>topo_maps</title><rect id="Rectangle_1-10" data-name="Rectangle 1-10" width="90" height="90" fill="#b98474"/><g opacity="0.4"><path d="M86.20935,77.38763A162.83436,162.83436,0,0,0,30.98853,89.118c-.68689.27747-1.37989.57282-2.07221.882h.00061c.69238-.30914,1.38538-.60449,2.07227-.882A162.83568,162.83568,0,0,1,86.20935,77.38763Z" fill="none"/><polygon points="89.999 77.299 89.999 90 90 90 90 51.434 89.999 51.435 89.999 77.299" fill="none"/><path d="M66.98151,0H66.981C62.45734,8.66223,57.96,17.47009,51.78058,24.70081,57.96,17.47009,62.45807,8.66223,66.98151,0Z" fill="none"/><polygon points="0.001 57.465 0.001 0 0 0 0 86.108 0.001 86.108 0.001 57.465" fill="none"/><path d="M5.76013,54.4137C22.1405,46.06537,39.81464,38.70416,51.78058,24.70081,57.96,17.47009,62.45734,8.66223,66.981,0H.00067V57.46545C1.91364,56.40558,3.839,55.39246,5.76013,54.4137Z" fill="#757575"/><path d="M51.78058,24.70081C39.81464,38.70416,22.1405,46.06537,5.76013,54.4137,3.839,55.39246,1.91364,56.40558.00067,57.46545v28.6424A89.73115,89.73115,0,0,1,10.79858,82.0274L62.55383,65.60284c9.876-3.13421,20.50165-6.86187,27.4455-14.16882v.00067L90,51.434V0H66.98151C62.45807,8.66223,57.96,17.47009,51.78058,24.70081Z" fill="#8a8a8a"/><path d="M86.20935,77.38763q1.8935-.06638,3.79-.08868V51.434c-6.94385,7.307-17.56952,11.03461-27.4455,14.16882L10.79858,82.0274A89.73115,89.73115,0,0,0,.00067,86.10785L0,86.10815V90H28.91632c.69232-.30914,1.38532-.60449,2.07221-.882A162.83436,162.83436,0,0,1,86.20935,77.38763Z" fill="#9e9e9e"/><path d="M86.20935,77.38763A162.83568,162.83568,0,0,0,30.9892,89.118c-.68689.27747-1.37989.57282-2.07227.882h61.0824V77.299Q88.10291,77.32119,86.20935,77.38763Z" fill="#b3b3b3"/></g><g id="Tr" style="isolation:isolate"><text transform="translate(13.06966 56.32595)" font-size="52.00227" fill="#fff" font-family="OpenSans-ExtraBold, Open Sans" font-weight="800" style="isolation:isolate">To</text></g><g id="Transportation" style="isolation:isolate"><text transform="translate(15.05476 75.10427)" font-size="11.55606" fill="#fff" font-family="OpenSans, Open Sans" style="isolation:isolate">Topo Maps</text></g></svg>