<svg id="Layer_1" data-name="Layer 1" xmlns="http://www.w3.org/2000/svg" viewBox="0 0 90 90"><title>transportation</title><rect id="Rectangle_1-10" data-name="Rectangle 1-10" width="90" height="90" fill="#162b3f"/><g opacity="0.4"><path d="M86.20935,77.38763A162.83436,162.83436,0,0,0,30.98853,89.118c-.68689.27747-1.37989.57282-2.07221.882h.00061c.69238-.30914,1.38538-.60449,2.07227-.882A162.83568,162.83568,0,0,1,86.20935,77.38763Z" fill="none"/><polygon points="89.999 77.299 89.999 90 90 90 90 51.434 89.999 51.435 89.999 77.299" fill="none"/><path d="M66.98151,0H66.981C62.45734,8.66223,57.96,17.47009,51.78058,24.70081,57.96,17.47009,62.45807,8.66223,66.98151,0Z" fill="none"/><polygon points="0.001 57.465 0.001 0 0 0 0 86.108 0.001 86.108 0.001 57.465" fill="none"/><path d="M5.76013,54.4137C22.1405,46.06537,39.81464,38.70416,51.78058,24.70081,57.96,17.47009,62.45734,8.66223,66.981,0H.00067V57.46545C1.91364,56.40558,3.839,55.39246,5.76013,54.4137Z" fill="#757575"/><path d="M51.78058,24.70081C39.81464,38.70416,22.1405,46.06537,5.76013,54.4137,3.839,55.39246,1.91364,56.40558.00067,57.46545v28.6424A89.73115,89.73115,0,0,1,10.79858,82.0274L62.55383,65.60284c9.876-3.13421,20.50165-6.86187,27.4455-14.16882v.00067L90,51.434V0H66.98151C62.45807,8.66223,57.96,17.47009,51.78058,24.70081Z" fill="#8a8a8a"/><path d="M86.20935,77.38763q1.8935-.06638,3.79-.08868V51.434c-6.94385,7.307-17.56952,11.03461-27.4455,14.16882L10.79858,82.0274A89.73115,89.73115,0,0,0,.00067,86.10785L0,86.10815V90H28.91632c.69232-.30914,1.38532-.60449,2.07221-.882A162.83436,162.83436,0,0,1,86.20935,77.38763Z" fill="#9e9e9e"/><path d="M86.20935,77.38763A162.83568,162.83568,0,0,0,30.9892,89.118c-.68689.27747-1.37989.57282-2.07227.882h61.0824V77.299Q88.10291,77.32119,86.20935,77.38763Z" fill="#b3b3b3"/></g><g id="Tr" style="isolation:isolate"><g style="isolation:isolate"><path d="M30.63063,22.675h-10.858V13.96559h31.6453V22.675H40.61773V52.69457h-9.9871Z" fill="#fff"/><path d="M52.518,24.6492h8.94173v3.542a12.22406,12.22406,0,0,1,8.7677-4.23895v8.65194a7.23843,7.23843,0,0,0-2.20649-.29058c-2.32226,0-5.39969.98749-6.56121,2.61283V52.69457H52.518Z" fill="#fff"/></g></g><g id="Transportation" style="isolation:isolate"><g style="isolation:isolate"><path d="M7.79142,66.00519H5.068V65.05h6.53088v.9552H8.86278V73.6594H7.79142Z" fill="#fff"/><path d="M11.88037,67.425h.9678v1.00717a2.65034,2.65034,0,0,1,2.07813-1.13632v.99458a1.69266,1.69266,0,0,0-.387-.03938,2.28139,2.28139,0,0,0-1.69109.99379V73.6594h-.9678Z" fill="#fff"/><path d="M20.0362,72.94989a2.69791,2.69791,0,0,1-2.06514.86464,2.07607,2.07607,0,0,1-2.1813-2.06553,2.04152,2.04152,0,0,1,2.1813-2.05215,2.60617,2.60617,0,0,1,2.06514.852V69.426c0-.83944-.67132-1.31665-1.57494-1.31665a2.47538,2.47538,0,0,0-1.91.86464l-.452-.67092a3.26371,3.26371,0,0,1,2.49116-1.03238c1.31665,0,2.4136.59376,2.4136,2.10334V73.6594h-.9678Zm0-1.78126a2.08767,2.08767,0,0,0-1.71669-.77487,1.37179,1.37179,0,1,0,0,2.72386,2.08767,2.08767,0,0,0,1.71669-.77487Z" fill="#fff"/><path d="M27.1447,69.58109c0-1.09773-.55478-1.44579-1.39383-1.44579a2.40761,2.40761,0,0,0-1.84583.9678v4.5563h-.9678V67.425h.9678v.904a3.09157,3.09157,0,0,1,2.22027-1.05836,1.77191,1.77191,0,0,1,1.98758,2.01356V73.6594H27.1447Z" fill="#fff"/><path d="M30.00715,72.13643a2.82621,2.82621,0,0,0,2.05215.89063c.9552,0,1.47178-.426,1.47178-1.03237,0-.68431-.76188-.904-1.60053-1.11033-1.05836-.24491-2.25886-.52919-2.25886-1.81985,0-.9678.839-1.79386,2.32343-1.79386a3.15422,3.15422,0,0,1,2.31.90323l-.45162.67093a2.43054,2.43054,0,0,0-1.85843-.78747c-.852,0-1.38122.38743-1.38122.9426,0,.60635.7099.80007,1.523.99379,1.08435.2449,2.33643.55516,2.33643,1.93639,0,1.045-.83905,1.88441-2.45258,1.88441a3.31648,3.31648,0,0,1-2.51675-.98119Z" fill="#fff"/><path d="M36.04548,76.03441V67.425h.9678v.92921a2.606,2.606,0,0,1,2.10412-1.08356c1.63912,0,2.77465,1.23869,2.77465,3.26486,0,2.01356-1.13553,3.279-2.77465,3.279a2.55388,2.55388,0,0,1-2.10412-1.09773v3.31761ZM38.8721,68.1353a2.30441,2.30441,0,0,0-1.85882.99378v2.81364a2.31785,2.31785,0,0,0,1.85882,1.00717c1.25169,0,2.00057-1.03316,2.00057-2.41438C40.87267,69.15507,40.12379,68.1353,38.8721,68.1353Z" fill="#fff"/><path d="M43.0894,70.53551a3.09048,3.09048,0,1,1,3.08452,3.279A3.05824,3.05824,0,0,1,43.0894,70.53551Zm5.14966,0a2.0958,2.0958,0,1,0-2.06514,2.41438A2.1665,2.1665,0,0,0,48.23906,70.53551Z" fill="#fff"/><path d="M50.83142,67.425h.9678v1.00717a2.64975,2.64975,0,0,1,2.07813-1.13632v.99458a1.69624,1.69624,0,0,0-.38743-.03938,2.27993,2.27993,0,0,0-1.6907.99379V73.6594h-.9678Z" fill="#fff"/><path d="M55.28141,72.35614V68.277H54.249v-.852h1.03237V65.7217H56.25V67.425h1.26468v.852H56.25v3.872c0,.46461.20632.80086.63234.80086a.93577.93577,0,0,0,.65833-.25829l.28349.7229a1.58175,1.58175,0,0,1-1.16152.4A1.2754,1.2754,0,0,1,55.28141,72.35614Z" fill="#fff"/><path d="M62.77971,72.94989a2.69877,2.69877,0,0,1-2.06554.86464A2.07628,2.07628,0,0,1,58.53288,71.749a2.04172,2.04172,0,0,1,2.18129-2.05215,2.607,2.607,0,0,1,2.06554.852V69.426c0-.83944-.67171-1.31665-1.57494-1.31665a2.47619,2.47619,0,0,0-1.91041.86464l-.452-.67092a3.26517,3.26517,0,0,1,2.49156-1.03238c1.31665,0,2.4136.59376,2.4136,2.10334V73.6594h-.9678Zm0-1.78126a2.08871,2.08871,0,0,0-1.71669-.77487,1.37183,1.37183,0,1,0,0,2.72386,2.08871,2.08871,0,0,0,1.71669-.77487Z" fill="#fff"/><path d="M65.87368,72.35614V68.277H64.84131v-.852h1.03237V65.7217h.96859V67.425H68.107v.852H66.84227v3.872c0,.46461.20632.80086.63234.80086a.93572.93572,0,0,0,.65832-.25829l.28349.7229a1.58172,1.58172,0,0,1-1.16152.4A1.2754,1.2754,0,0,1,65.87368,72.35614Z" fill="#fff"/><path d="M69.30548,65.7217a.65206.65206,0,0,1,1.30405,0,.65206.65206,0,1,1-1.30405,0ZM69.474,67.425h.9678v6.2344H69.474Z" fill="#fff"/><path d="M72.01516,70.53551a3.09029,3.09029,0,1,1,3.08453,3.279A3.05825,3.05825,0,0,1,72.01516,70.53551Zm5.14927,0a2.0958,2.0958,0,1,0-2.06474,2.41438A2.16645,2.16645,0,0,0,77.16443,70.53551Z" fill="#fff"/><path d="M83.96424,69.58109c0-1.09773-.55517-1.44579-1.39382-1.44579a2.40759,2.40759,0,0,0-1.84583.9678v4.5563h-.9678V67.425h.9678v.904a3.09062,3.09062,0,0,1,2.21988-1.05836A1.77191,1.77191,0,0,1,84.932,69.28421V73.6594h-.9678Z" fill="#fff"/></g></g></svg>