<svg xmlns="http://www.w3.org/2000/svg" width="132" height="144"><path fill="#162b3f" d="M0 0h132v144H0z"/><g opacity=".487"><path d="M.318 138.334V0H0v144h.318z" fill="none"/><path d="M8.745 92.191C32.712 80.037 58.572 69.32 76.08 48.933 88.265 34.746 95.98 16.388 105.343 0H.318v96.634a296.553 296.553 0 0 1 8.427-4.443z" fill="#757575"/><path d="M8.745 92.191a275.088 275.088 0 0 0-8.427 4.443v41.7a131.671 131.671 0 0 1 15.8-5.941l75.726-23.912c14.45-4.563 30-9.99 40.157-20.628V0h-26.658C95.982 16.388 88.265 34.746 76.08 48.933 58.572 69.32 32.712 80.037 8.745 92.191z" fill="#757575"/><path d="M8.745 92.191a275.088 275.088 0 0 0-8.427 4.443v41.7a131.671 131.671 0 0 1 15.8-5.941l75.726-23.912c14.45-4.563 30-9.99 40.157-20.628V0h-26.658C95.982 16.388 88.265 34.746 76.08 48.933 58.572 69.32 32.712 80.037 8.745 92.191z" fill="#8a8a8a"/><path d="M91.843 108.481l-75.726 23.912a131.671 131.671 0 0 0-15.8 5.941V144h42.309c1.013-.45 2.027-.88 3.032-1.284A239.273 239.273 0 0 1 132 125.509V87.853c-10.16 10.638-25.707 16.065-40.157 20.628z" fill="#757575"/><path d="M91.843 108.481l-75.726 23.912a131.671 131.671 0 0 0-15.8 5.941V144h42.309c1.013-.45 2.027-.88 3.032-1.284A239.273 239.273 0 0 1 132 125.509V87.853c-10.16 10.638-25.707 16.065-40.157 20.628z" fill="#8a8a8a"/><path d="M91.843 108.481l-75.726 23.912a131.671 131.671 0 0 0-15.8 5.941V144h42.309c1.013-.45 2.027-.88 3.032-1.284A239.273 239.273 0 0 1 132 125.509V87.853c-10.16 10.638-25.707 16.065-40.157 20.628z" fill="#9e9e9e"/><path d="M42.627 144H132v-18.491a239.273 239.273 0 0 0-86.341 17.207A92.105 92.105 0 0 0 42.627 144z" fill="#757575"/><path d="M42.627 144H132v-18.491a239.273 239.273 0 0 0-86.341 17.207A92.105 92.105 0 0 0 42.627 144z" fill="#8a8a8a"/><path d="M42.627 144H132v-18.491a239.273 239.273 0 0 0-86.341 17.207A92.105 92.105 0 0 0 42.627 144z" fill="#9e9e9e"/><path d="M42.627 144H132v-18.491a239.273 239.273 0 0 0-86.341 17.207A92.105 92.105 0 0 0 42.627 144z" fill="#b3b3b3"/></g><g fill="#fff" font-family="Open Sans,Helvetica,Arial,sans-serif"><text transform="translate(66 89)" font-size="72" font-weight="bold"><tspan x="-32.58" y="0">Tr</tspan></text><text transform="translate(66 115)" font-size="16"><tspan x="-50.376" y="0">Transportation</tspan></text></g></svg>