<svg xmlns="http://www.w3.org/2000/svg" viewBox="0 0 500 500"><g id="freepik--background-complete--inject-174"><path d="M430.76,304.22l-13.13.28-6.66.11c-2.22.05-4.46,0-6.69.06h-.44v-.45L403.78,293v-.5h.5l13.24.06c4.41,0,8.83.11,13.24.16H431V293c0,1.9-.08,3.79-.13,5.66Zm0,0-.14-5.65c-.05-1.86-.11-3.7-.13-5.54l.27.28c-4.41.05-8.83.16-13.24.16l-13.24.06.5-.5-.06,11.19-.44-.44c2.18,0,4.36,0,6.54.05l6.58.12Z" style="fill:#ebebeb"></path><path d="M416,318.33l-13.13.28-6.66.11c-2.22,0-4.46,0-6.69.06h-.45v-.45L389,307.14v-.5h.5l13.24.07c4.41,0,8.82.11,13.24.16h.27v.27c0,1.9-.09,3.79-.13,5.66Zm0,0-.14-5.65c-.05-1.86-.12-3.7-.14-5.54l.28.28c-4.42.05-8.83.16-13.24.16l-13.24.06.5-.5L390,318.33l-.44-.44c2.18,0,4.36,0,6.54.05l6.58.12Z" style="fill:#ebebeb"></path><path d="M445.53,318.33l-13.12.28-6.66.11c-2.23,0-4.47,0-6.7.06h-.44v-.45l-.05-11.19v-.5h.5l13.24.07c4.41,0,8.83.11,13.24.16h.28v.27c0,1.9-.08,3.79-.13,5.66Zm0,0-.14-5.65c-.05-1.86-.11-3.7-.13-5.54l.27.28c-4.41.05-8.83.16-13.24.16l-13.24.06.5-.5-.05,11.19-.45-.44c2.18,0,4.36,0,6.55.05l6.58.12Z" style="fill:#ebebeb"></path><path d="M81,318.33l-13.13.28-6.66.11c-2.22,0-4.46,0-6.69.06H54v-.45L54,307.14v-.5h.5l13.24.07c4.41,0,8.83.11,13.24.16h.27v.27c0,1.9-.08,3.79-.13,5.66Zm0,0-.14-5.65c0-1.86-.11-3.7-.13-5.54l.27.28c-4.41.05-8.83.16-13.24.16l-13.24.06.5-.5-.06,11.19-.44-.44c2.18,0,4.36,0,6.54.05l6.58.12Z" style="fill:#ebebeb"></path><path d="M110.49,318.33l-13.12.28-6.66.11c-2.23,0-4.47,0-6.7.06h-.44v-.45l-.06-11.19v-.5H84l13.24.07c4.42,0,8.83.11,13.24.16h.28v.27c0,1.9-.09,3.79-.14,5.66Zm0,0-.14-5.65c0-1.86-.11-3.7-.13-5.54l.27.28c-4.41.05-8.82.16-13.24.16L84,307.64l.5-.5-.05,11.19-.45-.44c2.18,0,4.36,0,6.55.05l6.58.12Z" style="fill:#ebebeb"></path><path d="M291.89,217.32l-13.12.27-6.66.12c-2.23,0-4.46,0-6.7,0H265v-.44l-.06-11.19v-.51h.5l13.24.06c4.42,0,8.83.11,13.24.16h.28v.27c0,1.89-.09,3.78-.13,5.65Zm0,0-.14-5.66c0-1.86-.11-3.7-.13-5.53l.27.27c-4.41,0-8.82.16-13.24.16l-13.24.06.5-.49-.05,11.19-.45-.45c2.19,0,4.36,0,6.55,0l6.58.12Z" style="fill:#ebebeb"></path><path d="M277.12,231.43,264,231.7l-6.66.12c-2.23,0-4.47,0-6.7.05h-.44v-.44l-.06-11.19v-.51h.5l13.24.06c4.42,0,8.83.11,13.24.16h.28v.27c0,1.89-.09,3.78-.14,5.65Zm0,0-.14-5.66c0-1.86-.11-3.7-.13-5.53l.27.27c-4.41.05-8.82.16-13.24.16l-13.24.06.5-.49,0,11.19-.45-.45c2.18,0,4.36,0,6.55.05l6.58.12Z" style="fill:#ebebeb"></path><path d="M306.67,231.43l-13.13.27-6.66.12c-2.23,0-4.46,0-6.69.05h-.45v-.44l-.05-11.19v-.51h.51l13.24.06c4.41,0,8.82.11,13.24.16h.27v.27c0,1.89-.09,3.78-.13,5.65Zm0,0-.15-5.66c0-1.86-.11-3.7-.13-5.53l.28.27c-4.42.05-8.83.16-13.24.16l-13.24.06.5-.49-.06,11.19-.44-.45c2.18,0,4.35,0,6.54.05l6.58.12Z" style="fill:#ebebeb"></path><path d="M429.23,62.38l-13.13.28-6.66.11c-2.22,0-4.46,0-6.69.06h-.45v-.45l-.05-11.19v-.5h.5l13.24.06c4.41,0,8.82.12,13.24.17h.27v.27c0,1.9-.08,3.79-.13,5.65Zm0,0-.14-5.65c0-1.87-.12-3.71-.13-5.54l.27.27c-4.42,0-8.83.16-13.24.17l-13.24.06.5-.5-.06,11.19-.44-.45c2.18,0,4.36,0,6.54.06l6.58.11Z" style="fill:#ebebeb"></path><path d="M444,76.49l-13.13.28-6.66.11c-2.22.05-4.46,0-6.69.05h-.44v-.45L417,65.3v-.5h.5l13.24.06c4.41,0,8.83.12,13.24.17h.28v.27c0,1.9-.08,3.79-.13,5.65Zm0,0-.14-5.65c-.05-1.87-.11-3.71-.13-5.54l.27.27c-4.41.05-8.83.16-13.24.17l-13.24.06.5-.5L418,76.49l-.44-.45c2.18,0,4.36,0,6.54.06l6.58.11Z" style="fill:#ebebeb"></path><path d="M82.48,62.39l-13.12.28-6.67.11c-2.22,0-4.46,0-6.69.06h-.44v-.45l0-11.19v-.5H56l13.24.07c4.41,0,8.83.11,13.24.16h.28v.27c0,1.9-.08,3.79-.13,5.66Zm0,0-.14-5.65c0-1.87-.11-3.71-.13-5.54l.27.27c-4.41.06-8.83.16-13.24.17L56,51.7l.5-.5,0,11.19L56,62c2.18,0,4.36,0,6.55,0l6.58.11Z" style="fill:#ebebeb"></path><rect x="346.97" y="279.51" width="78.42" height="108.53" style="fill:#ebebeb"></rect><rect x="343.17" y="275.48" width="86.02" height="4.03" style="fill:#dbdbdb"></rect><rect x="429.19" y="275.48" width="27.05" height="4.03" style="fill:#ebebeb"></rect><rect x="425.39" y="279.51" width="26.57" height="108.53" style="fill:#dbdbdb"></rect><path d="M417,329.77H355.39V294.93H417Zm-61.34-.25h61.09V295.18H355.64Z" style="fill:#c7c7c7"></path><rect x="377.59" y="305.13" width="11.98" height="6.89" style="fill:#c7c7c7"></rect><path d="M393.24,311.62H381v-6.1h12.23Zm-12-.25H393v-5.6H381.26Z" style="fill:#c7c7c7"></path><path d="M417,373.46H355.39V338.62H417Zm-61.34-.25h61.09V338.88H355.64Z" style="fill:#c7c7c7"></path><rect x="377.59" y="348.82" width="11.98" height="6.89" style="fill:#c7c7c7"></rect><path d="M393.24,355.31H381v-6.1h12.23Zm-12-.25H393v-5.6H381.26Z" style="fill:#c7c7c7"></path><rect x="123.12" y="73.36" width="54.79" height="66.46" style="fill:#ebebeb"></rect><rect x="129.38" y="79.43" width="42.27" height="54.33" style="fill:#fff"></rect><rect x="129.38" y="79.43" width="1.65" height="54.33" style="fill:#dbdbdb"></rect><rect x="177.9" y="73.36" width="1.65" height="66.46" style="fill:#dbdbdb"></rect><rect x="143.54" y="86.92" width="9.97" height="29.69" style="fill:#dbdbdb"></rect><path d="M166.27,122.18H138.69V106.64h27.58Zm-26.58-1h25.58V107.64H139.69Z" style="fill:#ebebeb"></path><rect x="57.97" y="143.58" width="54.79" height="66.46" style="fill:#ebebeb"></rect><rect x="64.23" y="149.65" width="42.27" height="54.33" style="fill:#fff"></rect><rect x="64.23" y="149.65" width="1.65" height="54.33" style="fill:#dbdbdb"></rect><rect x="112.76" y="143.58" width="1.65" height="66.46" style="fill:#dbdbdb"></rect><rect x="81.27" y="163.69" width="8.54" height="21.59" style="fill:#ebebeb"></rect><path d="M99.3,192.19H75.37V176.31H99.3Zm-22.93-1H98.3V177.31H76.37Z" style="fill:#dbdbdb"></path><path d="M111.46,107.31a2.14,2.14,0,0,1,0-2.25l.33-.58a6.54,6.54,0,0,0,.3-.59,2.15,2.15,0,0,1,1.86-1.26l2.77-.08-.28-9-2.77.08a2.13,2.13,0,0,1-1.94-1.13c-.22-.39-.45-.77-.71-1.14a2.13,2.13,0,0,1-.14-2.24l1.3-2.43-8-4.27-1.31,2.43A2.11,2.11,0,0,1,101,86a11.92,11.92,0,0,0-1.34,0,2.15,2.15,0,0,1-2-1l-1.46-2.35L88.5,87.41,90,89.77A2.15,2.15,0,0,1,90,92l-.33.58-.3.59a2.13,2.13,0,0,1-1.87,1.26l-2.77.08.28,9,2.77-.09a2.15,2.15,0,0,1,1.94,1.13,12.24,12.24,0,0,0,.71,1.15,2.16,2.16,0,0,1,.15,2.24l-1.31,2.43,8,4.27,1.31-2.43a2.13,2.13,0,0,1,2-1.12,11.92,11.92,0,0,0,1.34-.05,2.17,2.17,0,0,1,2,1l1.46,2.35,7.66-4.76Zm-14.24-2.26a7.39,7.39,0,1,1,10-3A7.4,7.4,0,0,1,97.22,105.05Z" style="fill:#ebebeb"></path><path d="M84.21,69.09a1.52,1.52,0,0,1-.74-1.39c0-.16,0-.31,0-.47s0-.31,0-.47a1.54,1.54,0,0,1,.74-1.39l1.68-1-3.16-5.47-1.68,1a1.52,1.52,0,0,1-1.58-.06,8.13,8.13,0,0,0-.81-.47A1.5,1.5,0,0,1,77.83,58V56.1H71.51V58a1.51,1.51,0,0,1-.83,1.33c-.28.14-.55.3-.82.47a1.5,1.5,0,0,1-1.57.06l-1.68-1L63.45,64.4l1.69,1a1.49,1.49,0,0,1,.73,1.39c0,.15,0,.31,0,.46s0,.31,0,.47a1.5,1.5,0,0,1-.74,1.39l-1.68,1,3.16,5.48,1.67-1a1.5,1.5,0,0,1,1.58.05,7.28,7.28,0,0,0,.82.47,1.52,1.52,0,0,1,.83,1.34v1.93h6.32V76.43a1.5,1.5,0,0,1,.83-1.34,8.28,8.28,0,0,0,.82-.47,1.48,1.48,0,0,1,1.57-.05l1.68,1,3.16-5.48Zm-9.54,3.32a5.18,5.18,0,1,1,5.18-5.18A5.18,5.18,0,0,1,74.67,72.41Z" style="fill:#ebebeb"></path><path d="M434.87,189.81a1.52,1.52,0,0,1-.73-1.4c0-.15,0-.31,0-.46s0-.32,0-.47a1.49,1.49,0,0,1,.73-1.39l1.68-1-3.16-5.48-1.68,1a1.48,1.48,0,0,1-1.57-.05c-.27-.17-.54-.33-.82-.47a1.52,1.52,0,0,1-.83-1.34v-1.93h-6.32v1.93a1.5,1.5,0,0,1-.83,1.34,8.13,8.13,0,0,0-.81.47,1.5,1.5,0,0,1-1.58.05l-1.68-1-3.16,5.48,1.69,1a1.51,1.51,0,0,1,.73,1.39c0,.16,0,.31,0,.47s0,.31,0,.46a1.51,1.51,0,0,1-.74,1.4l-1.68,1,3.16,5.47,1.68-1a1.48,1.48,0,0,1,1.57.06c.26.17.54.32.82.47a1.5,1.5,0,0,1,.83,1.33v1.94h6.32v-1.94a1.51,1.51,0,0,1,.83-1.33,9.23,9.23,0,0,0,.82-.47,1.5,1.5,0,0,1,1.58-.06l1.67,1,3.16-5.47Zm-9.54,3.32a5.18,5.18,0,1,1,5.18-5.18A5.19,5.19,0,0,1,425.33,193.13Z" style="fill:#ebebeb"></path><rect x="349.15" width="1" height="53.61" style="fill:#c7c7c7"></rect><polygon points="382.78 85.54 380.11 91.4 319.18 91.4 316.52 85.54 342.46 67.59 356.83 67.59 382.78 85.54" style="fill:#ebebeb"></polygon><polygon points="358.63 50.29 356.83 67.59 342.46 67.59 340.66 50.29 358.63 50.29" style="fill:#dbdbdb"></polygon><polygon points="382.77 85.55 380.11 91.4 319.18 91.4 316.52 85.55 382.77 85.55" style="fill:#dbdbdb"></polygon><rect x="410.22" width="1" height="101.23" style="fill:#c7c7c7"></rect><polygon points="443.85 133.16 441.19 139.02 380.25 139.02 377.6 133.16 403.54 115.21 417.91 115.21 443.85 133.16" style="fill:#ebebeb"></polygon><polygon points="419.71 97.91 417.91 115.21 403.54 115.21 401.74 97.91 419.71 97.91" style="fill:#dbdbdb"></polygon><polygon points="443.85 133.17 441.18 139.02 380.25 139.02 377.59 133.17 443.85 133.17" style="fill:#dbdbdb"></polygon></g><g id="freepik--Shadow--inject-174"><ellipse cx="250" cy="440.37" rx="196.16" ry="19.21" style="fill:#ebebeb"></ellipse></g><g id="freepik--Floor--inject-174"><polygon points="52.94 388.04 103.35 387.79 153.76 387.71 254.59 387.54 355.42 387.7 405.83 387.79 456.25 388.04 405.83 388.28 355.42 388.37 254.59 388.54 153.76 388.37 103.35 388.28 52.94 388.04" style="fill:#263238"></polygon></g><g id="freepik--Plant--inject-174"><path d="M92.51,330.25s-15.75-3.57-24.38-11.52-13.45-22.19-13.45-22.19a135.69,135.69,0,0,1,17.66,4.64,29.58,29.58,0,0,1,5.34,7.55,35.44,35.44,0,0,0,0-5.4,24,24,0,0,1,5.61,3.4C90.48,313,92.51,330.25,92.51,330.25Z" style="fill:#FFC727"></path><path d="M64.51,303.46C62.37,302,60.18,300.54,58,299a.12.12,0,0,1,.13-.21c4.06,2.43,8.06,5,11.93,7.73,1.35.95,2.67,1.93,4,2.93l-.27-.46c-.47-.79-1-1.57-1.47-2.34A33.11,33.11,0,0,0,69,302.22c0-.05,0-.12.08-.07,1.22,1.41,2.44,2.81,3.56,4.31.54.72,1,1.45,1.5,2.21.25.39.48.79.71,1.19l.23.4c2,1.6,4,3.27,5.91,5q1.76,1.63,3.39,3.38c-.61-1.9-1.14-3.83-1.85-5.71,0-.06.08-.09.1,0,.69,2,1.44,3.94,2,6q1.82,2,3.45,4.06l-.06-.25c-.18-.75-.37-1.49-.56-2.22-.39-1.43-.81-2.84-1.29-4.24a24.47,24.47,0,0,0-4.23-8c0-.05,0-.12.08-.07a30.66,30.66,0,0,1,6,12.59c.17.67.33,1.34.48,2,.08.36.18.72.24,1.09.47.64.94,1.29,1.39,2a68.35,68.35,0,0,1,6.66,13.06,151.54,151.54,0,0,1,5,15.73.09.09,0,0,1-.17,0c-3.07-9.21-6.22-18.56-11.49-26.79a59.66,59.66,0,0,0-3.6-5,29.77,29.77,0,0,1-7.65-1.53,33.77,33.77,0,0,1-7.68-3.7c-1.38-.9-2.65-1.94-3.93-3a.06.06,0,1,1,.07-.09,31.6,31.6,0,0,0,7.22,4.37,39,39,0,0,0,7.94,2.66c1.16.26,2.34.44,3.52.6q-2.19-2.68-4.64-5.14c-.54-.53-1.09-1-1.63-1.55A37.25,37.25,0,0,0,74,312.18c-2.58-1.25-5.12-2.57-7.67-3.87-1.45-.73-2.88-1.48-4.33-2.19-.06,0,0-.12.06-.09,2.59,1.25,5.21,2.41,7.83,3.61,2.45,1.13,4.94,2.26,7.3,3.58l.3.18c-2.13-1.86-4.34-3.63-6.6-5.33Q67.74,305.7,64.51,303.46Z" style="fill:#263238"></path><path d="M65.41,311.58c1.28.56,2.58,1.06,3.85,1.65s2.54,1.32,3.77,2c.06,0,0,.11,0,.09-1.25-.6-2.52-1.17-3.77-1.79s-2.53-1.33-3.83-1.9C65.31,311.65,65.34,311.55,65.41,311.58Z" style="fill:#263238"></path><path d="M143.65,250.91A22.47,22.47,0,0,0,139,264c-.06,1.41.17,3.37.33,5.69A37.23,37.23,0,0,0,129,278.46,18.7,18.7,0,0,1,139.39,276a30.21,30.21,0,0,1-.6,4.71,17.65,17.65,0,0,0-6.68,1.32,14.83,14.83,0,0,1,6,1.2c-2.8,8.93-11.15,18.1-34.18,22A48.27,48.27,0,0,1,108,272.78C114.93,259.2,143.65,250.91,143.65,250.91Z" style="fill:#FFC727"></path><path d="M96,343.4c.4-3.81.91-7.62,1.49-11.41a228.26,228.26,0,0,1,4.65-22.55,88.52,88.52,0,0,1,3.33-10.27,14.33,14.33,0,0,1-.09-1.85c0-.74,0-1.47,0-2.21,0-1.48.09-2.95.21-4.42a52.78,52.78,0,0,1,1.42-8.64c.42-1.64.91-3.25,1.39-4.88,0-.06.12,0,.1,0a64.71,64.71,0,0,0-1.7,8.62,81,81,0,0,0-.77,8.65c0,.79,0,1.58,0,2.37,0,.34,0,.68,0,1a73.16,73.16,0,0,1,3.88-8,97,97,0,0,1,7.89-11.8,5.08,5.08,0,0,1,.18-1.29c.11-.51.22-1,.34-1.54.24-1.05.5-2.1.78-3.14.58-2.08,1.33-4.1,2-6.16a.05.05,0,1,1,.1,0c-.61,2-1,4.15-1.48,6.23-.23,1-.46,2-.68,3.08-.12.52-.23,1-.33,1.55a.36.36,0,0,0,0,.11q1.39-1.75,2.85-3.47c4.4-5.16,9.22-9.92,14.08-14.64.59-.58,1.2-1.15,1.81-1.72a0,0,0,1,1,.07.07c-4.64,4.84-9.2,9.74-13.53,14.86q-1.55,1.83-3,3.7l1.57-1c1.34-.88,2.7-1.73,4.09-2.51s2.81-1.55,4.25-2.26,3.05-1.33,4.48-2.16c.06,0,.11.07.05.09a33.73,33.73,0,0,0-4.2,2.33c-1.41.83-2.81,1.67-4.18,2.54s-2.72,1.71-4.06,2.58c-1.12.73-2.23,1.53-3.39,2.2a109.24,109.24,0,0,0-7.38,10.74,78.07,78.07,0,0,0-3.81,7.24c.27-.13.55-.24.82-.36l2.11-.94,4.08-1.78c2.58-1.12,5.2-2.15,7.74-3.39a35.31,35.31,0,0,0,4.13-2.29c.06,0,.11.05.06.09-4.73,3.26-10,5.55-15.25,7.86l-2.27,1c-.62.27-1.24.58-1.88.82a79.15,79.15,0,0,0-3.9,10.68,214.7,214.7,0,0,0-5,22.28C97.6,337,96.7,344.53,96,352.14c-.08.95-.17,1.89-.28,2.84a.3.3,0,0,1-.6,0C95.17,351.11,95.57,347.24,96,343.4Z" style="fill:#263238"></path><path d="M110,279.78c.42-2.34,1-4.63,1.67-6.92,0-.07.12,0,.11,0-.59,2.25-1,4.54-1.43,6.83s-.81,4.66-1.14,7a0,0,0,0,1-.06,0A60.21,60.21,0,0,1,110,279.78Z" style="fill:#263238"></path><path d="M119.92,286.13a42.36,42.36,0,0,1,5-2.82c.84-.43,1.69-.84,2.54-1.25s1.78-.78,2.65-1.22c.07,0,.12.06.06.09-.85.43-1.65.94-2.47,1.39s-1.71.94-2.56,1.4c-1.69.9-3.34,1.91-5.11,2.64A.13.13,0,0,1,119.92,286.13Z" style="fill:#263238"></path><path d="M92.22,303S77.65,299.5,71,289.73c-6.39-9.34-8.45-25.25-8.62-26.65.27,1.29,3.27,15.19,13.19,21.67C83.12,289.71,90.46,293.79,92.22,303Z" style="fill:#263238;opacity:0.1"></path><path d="M78.77,277.81a18.51,18.51,0,0,1,5.37,8.85s0,0,0,0a21.8,21.8,0,0,0-5.4-8.78C78.65,277.84,78.72,277.76,78.77,277.81Z" style="fill:#263238"></path><path d="M92.22,303S77.65,299.5,71,289.73c-6.39-9.34-8.45-25.25-8.62-26.65a.62.62,0,0,1,0-.09s7,9.93,14.33,12.46S94.32,286.75,92.22,303Z" style="fill:#FFC727"></path><path d="M64.91,268.46a60.58,60.58,0,0,0,4.5,7.71,31,31,0,0,0,6,6.16c2,1.57,4.07,3,6.07,4.54l0-.07c-.38-.56-.78-1.1-1.2-1.63-.83-1.07-1.74-2.08-2.66-3.07-1.81-2-3.66-3.89-5.28-6A22.48,22.48,0,0,1,70,272.32c0-.06.07-.1.1,0,2.37,4.93,7.09,8.08,10.45,12.24a20.2,20.2,0,0,1,1.35,1.84,7.66,7.66,0,0,1,.84,1.48,31.05,31.05,0,0,1,5,5,19.48,19.48,0,0,0-.59-2.83,14,14,0,0,0-1.54-3.68.05.05,0,0,1,.09-.06,17.64,17.64,0,0,1,1.7,3.66,13.06,13.06,0,0,1,.53,3.15h0a27.89,27.89,0,0,1,2,3.06c-.06-.31-.11-.62-.18-.93-.29-1.46-.61-2.9-1-4.34a26.05,26.05,0,0,0-3.51-8.2.05.05,0,0,1,.09-.06,31.07,31.07,0,0,1,3.89,8c.46,1.43.83,2.88,1.16,4.35.16.71.3,1.43.44,2.15.07.38.15.76.21,1.14a52.09,52.09,0,0,1,3.36,9.88,143.68,143.68,0,0,1,3.11,18.42,152.21,152.21,0,0,1,1,19.56c0,.82-.06,1.64-.1,2.46,0,.21-.33.24-.34,0-.14-3.24-.23-6.47-.42-9.7s-.47-6.46-.82-9.68a173.84,173.84,0,0,0-3-18.84c-1.18-5.32-2.72-10.69-5.63-15.35a28.86,28.86,0,0,0-5.25-6.25c-2-1.84-4.28-3.44-6.43-5.14A35.58,35.58,0,0,1,70.5,278a46.52,46.52,0,0,1-4.64-7.52c-.34-.66-.69-1.32-1-2C64.79,268.46,64.88,268.4,64.91,268.46Z" style="fill:#263238"></path><path d="M67.42,270.6a49.88,49.88,0,0,0,3.25,5.68s0,.08-.07,0a39.63,39.63,0,0,1-3.28-5.69C67.29,270.57,67.39,270.54,67.42,270.6Z" style="fill:#263238"></path><path d="M145.68,296.54s.23,20.7-12.15,26.68-19,1-27.42,3h0c.33-.5,6.33-9.13,15.88-11.5C131.82,312.26,142.7,305.16,145.68,296.54Z" style="fill:#FFC727"></path><path d="M145.68,296.54s.23,20.7-12.15,26.68-19,1-27.42,3h0a46.87,46.87,0,0,1,14.08-4.15C128,321.12,142.91,316,145.68,296.54Z" style="opacity:0.1"></path><path d="M105.29,326.59a21,21,0,0,1,4.92-3.34l.81-.34a6.27,6.27,0,0,1,.42-.48c.37-.38.76-.76,1.16-1.1a17.5,17.5,0,0,1,2.49-1.8c2.06-1.21,4.3-2,6.4-3.17.06,0,.11.06.05.09-1,.54-2,1.14-3.05,1.72s-2,1.12-2.94,1.74a20.62,20.62,0,0,0-2.45,1.84q-.31.28-.63.6a35.23,35.23,0,0,1,4.18-1.11c2.27-.46,4.56-.78,6.82-1.26a34,34,0,0,0,3.29-.89c1-.83,2-1.65,3-2.54A24.45,24.45,0,0,0,133,313c0-.06.13,0,.09.05a36.87,36.87,0,0,1-5.07,5.6c.53-.2,1.06-.42,1.58-.65a25.53,25.53,0,0,0,10.55-8.78.05.05,0,1,1,.09.06,29,29,0,0,1-8.53,8.19,25.64,25.64,0,0,1-5.4,2.55,51,51,0,0,1-6.7,1.59,46.34,46.34,0,0,0-6.56,1.56,19.83,19.83,0,0,0-5.5,2.89,25.74,25.74,0,0,0-7.42,9.2A46.17,46.17,0,0,0,96,350.4c0,.22-.37.22-.36,0C96.26,341.69,98.58,332.63,105.29,326.59Z" style="fill:#263238"></path><path d="M119.66,319.84a7.13,7.13,0,0,1,2.54-2.31,9.43,9.43,0,0,0,3-2.51s.13,0,.09.06a10.15,10.15,0,0,1-2.67,2.39,9.59,9.59,0,0,0-2.92,2.41A0,0,0,1,1,119.66,319.84Z" style="fill:#263238"></path><polygon points="113.09 341.87 112.53 353.25 110.8 388.04 84.83 388.04 83.1 353.25 82.54 341.87 113.09 341.87" style="fill:#37474f"></polygon><polygon points="113.09 341.87 112.53 353.25 83.1 353.25 82.54 341.87 113.09 341.87" style="fill:#263238"></polygon><rect x="80.72" y="337.12" width="34.19" height="10.86" style="fill:#37474f"></rect></g><g id="freepik--Agreement--inject-174"><rect x="211.44" y="52.33" width="81.95" height="108.86" style="fill:#FFC727"></rect><g style="opacity:0.1"><rect x="211.44" y="52.33" width="81.95" height="108.86"></rect></g><rect x="213.67" y="52.33" width="81.95" height="108.86" style="fill:#FFC727"></rect><rect x="219.14" y="57.13" width="72.35" height="98.07" transform="matrix(1, -0.01, 0.01, 1, -1.33, 3.26)" style="fill:#ebebeb"></rect><rect x="206.27" y="69.99" width="98.07" height="72.35" transform="translate(143.66 359.12) rotate(-88.76)" style="fill:#dbdbdb"></rect><rect x="218.02" y="57.13" width="72.35" height="98.07" style="fill:#fff"></rect><rect x="226.29" y="80.14" width="55.81" height="0.79" style="fill:#ebebeb"></rect><rect x="226.29" y="83.24" width="55.81" height="0.79" style="fill:#ebebeb"></rect><rect x="226.29" y="86.34" width="55.81" height="0.79" style="fill:#ebebeb"></rect><rect x="226.29" y="89.43" width="55.81" height="0.79" style="fill:#ebebeb"></rect><rect x="226.29" y="92.53" width="55.81" height="0.79" style="fill:#ebebeb"></rect><rect x="226.29" y="95.62" width="55.81" height="0.79" style="fill:#ebebeb"></rect><rect x="226.29" y="98.72" width="55.81" height="0.79" style="fill:#ebebeb"></rect><rect x="226.29" y="101.82" width="55.81" height="0.79" style="fill:#ebebeb"></rect><rect x="226.29" y="104.91" width="55.81" height="0.79" style="fill:#ebebeb"></rect><rect x="226.29" y="108.01" width="20.37" height="0.79" style="fill:#ebebeb"></rect><rect x="226.29" y="114.2" width="55.81" height="0.79" style="fill:#ebebeb"></rect><rect x="226.29" y="117.3" width="55.81" height="0.79" style="fill:#ebebeb"></rect><rect x="226.29" y="120.39" width="55.81" height="0.79" style="fill:#ebebeb"></rect><rect x="226.29" y="123.49" width="55.81" height="0.79" style="fill:#ebebeb"></rect><rect x="226.29" y="126.58" width="55.81" height="0.79" style="fill:#ebebeb"></rect><rect x="226.29" y="129.68" width="55.81" height="0.79" style="fill:#ebebeb"></rect><rect x="226.29" y="132.78" width="34.22" height="0.79" style="fill:#ebebeb"></rect><rect x="257.61" y="144.7" width="24.49" height="0.79" style="fill:#ebebeb"></rect><path d="M238.18,71.63a2.06,2.06,0,0,1,.14-.77,2,2,0,0,1,.41-.68,2.19,2.19,0,0,1,.66-.49,2.11,2.11,0,0,1,.89-.18,1.92,1.92,0,0,1,1,.25,1.67,1.67,0,0,1,.64.68l-.63.43a1.14,1.14,0,0,0-.21-.3.87.87,0,0,0-.25-.19,1.15,1.15,0,0,0-.29-.11,1.53,1.53,0,0,0-.3,0,1.16,1.16,0,0,0-.54.12,1.35,1.35,0,0,0-.38.33,1.25,1.25,0,0,0-.23.46,1.49,1.49,0,0,0-.08.5,1.71,1.71,0,0,0,.09.55,1.58,1.58,0,0,0,.25.46,1.23,1.23,0,0,0,.4.31,1.07,1.07,0,0,0,.51.12l.3,0a1,1,0,0,0,.29-.12,1.1,1.1,0,0,0,.46-.49l.67.39a1.1,1.1,0,0,1-.29.42,2.17,2.17,0,0,1-.42.31,2.23,2.23,0,0,1-.51.19,2.49,2.49,0,0,1-.53.07,1.78,1.78,0,0,1-.83-.2,2,2,0,0,1-.65-.5,2.1,2.1,0,0,1-.43-.7A2.22,2.22,0,0,1,238.18,71.63Z" style="fill:#37474f"></path><path d="M244.33,73.82a2,2,0,0,1-.85-.18,2.47,2.47,0,0,1-.66-.49,2.26,2.26,0,0,1-.57-1.49,2.1,2.1,0,0,1,.16-.82,2.26,2.26,0,0,1,.44-.69,1.94,1.94,0,0,1,.66-.47,2,2,0,0,1,.84-.18,1.82,1.82,0,0,1,.84.19,2.1,2.1,0,0,1,.65.49,2.37,2.37,0,0,1,.42.7,2.17,2.17,0,0,1,.15.79,2,2,0,0,1-.16.81,2.06,2.06,0,0,1-.43.69,2,2,0,0,1-.66.47A1.9,1.9,0,0,1,244.33,73.82Zm-1.24-2.16a1.6,1.6,0,0,0,.09.53,1.19,1.19,0,0,0,.24.46,1.12,1.12,0,0,0,.39.32,1.11,1.11,0,0,0,.52.12,1,1,0,0,0,.53-.13,1.12,1.12,0,0,0,.39-.32,1.35,1.35,0,0,0,.24-.46,1.54,1.54,0,0,0,.09-.52,1.6,1.6,0,0,0-.09-.53,1.36,1.36,0,0,0-.25-.46,1.12,1.12,0,0,0-.39-.32,1.21,1.21,0,0,0-.52-.11,1.15,1.15,0,0,0-.53.12,1.12,1.12,0,0,0-.39.32,1.6,1.6,0,0,0-.32,1Z" style="fill:#37474f"></path><path d="M247.87,71.06v2.73h-.82V69.53h.64l2.22,2.8V69.54h.82v4.25h-.67Z" style="fill:#37474f"></path><path d="M254.81,70.26h-1.36v3.53h-.82V70.26h-1.37v-.73h3.55Z" style="fill:#37474f"></path><path d="M255.34,73.79V69.53h1.88a1.19,1.19,0,0,1,.54.12,1.27,1.27,0,0,1,.43.33,1.51,1.51,0,0,1,.29.45,1.55,1.55,0,0,1,.1.52,1.42,1.42,0,0,1-.21.75,1.16,1.16,0,0,1-.56.49l1,1.6h-.93L257,72.36h-.81v1.43Zm.83-2.15h1a.43.43,0,0,0,.22-.06.47.47,0,0,0,.17-.15.7.7,0,0,0,.11-.21.84.84,0,0,0,0-.27.64.64,0,0,0-.05-.28.78.78,0,0,0-.12-.22.62.62,0,0,0-.19-.14.41.41,0,0,0-.21,0h-1Z" style="fill:#37474f"></path><path d="M260.47,69.53h.74l1.61,4.26H262l-.39-1.06h-1.49l-.39,1.06h-.85Zm1,2.62-.59-1.68-.61,1.68Z" style="fill:#37474f"></path><path d="M262.88,71.63a2.28,2.28,0,0,1,.14-.77,2,2,0,0,1,.41-.68,2.19,2.19,0,0,1,.66-.49,2.11,2.11,0,0,1,.89-.18,2,2,0,0,1,1,.25,1.74,1.74,0,0,1,.64.68l-.64.43a1.12,1.12,0,0,0-.2-.3.91.91,0,0,0-.26-.19,1,1,0,0,0-.29-.11l-.29,0a1.2,1.2,0,0,0-.55.12,1.35,1.35,0,0,0-.38.33,1.42,1.42,0,0,0-.23.46,1.8,1.8,0,0,0-.08.5,1.71,1.71,0,0,0,.09.55,1.4,1.4,0,0,0,.26.46,1.3,1.3,0,0,0,.39.31,1.07,1.07,0,0,0,.51.12l.3,0a1.25,1.25,0,0,0,.3-.12,1.21,1.21,0,0,0,.26-.2,1,1,0,0,0,.19-.29l.68.39a1.25,1.25,0,0,1-.3.42,1.9,1.9,0,0,1-.42.31,2.23,2.23,0,0,1-.51.19,2.41,2.41,0,0,1-.53.07,1.78,1.78,0,0,1-.83-.2,2,2,0,0,1-.65-.5,2.49,2.49,0,0,1-.43-.7A2.22,2.22,0,0,1,262.88,71.63Z" style="fill:#37474f"></path><path d="M270.4,70.26H269v3.53h-.83V70.26h-1.36v-.73h3.55Z" style="fill:#37474f"></path><path d="M256.86,142.41c.61-.42,1.24-.81,1.88-1.18a9.3,9.3,0,0,1,2-.92,2.74,2.74,0,0,1,.28-.05.3.3,0,0,1,.31.1,1.12,1.12,0,0,1,.13.58,6.73,6.73,0,0,1-.12,1.11c-.13.73-.31,1.45-.51,2.17a33,33,0,0,1-1.47,4.19,6.86,6.86,0,0,1-.53,1,1.31,1.31,0,0,1-.2.23.28.28,0,0,1-.19.08.14.14,0,0,1-.13-.05l-.07-.06a1.23,1.23,0,0,1-.16-.6,7.43,7.43,0,0,1,.39-2.2,12.82,12.82,0,0,1,.84-2.07,6.13,6.13,0,0,1,1.3-1.82,2.05,2.05,0,0,1,1-.48,1.27,1.27,0,0,1,.58,0,.92.92,0,0,1,.41.42,2.39,2.39,0,0,0,.31.45.45.45,0,0,0,.44.15,3,3,0,0,0,.93-.55l.45-.33a1.94,1.94,0,0,1,.24-.15.27.27,0,0,1,.31,0c.14.18.11.37.18.53a.33.33,0,0,0,.38.25,3.39,3.39,0,0,0,.81-.71c.25-.27.49-.55.74-.83.48-.56.95-1.12,1.45-1.68.25-.27.5-.54.76-.8a5,5,0,0,1,.43-.37,1.28,1.28,0,0,1,.25-.15.42.42,0,0,1,.16,0,.19.19,0,0,1,.17.1.93.93,0,0,1,.08.58,5,5,0,0,1-.09.56c-.08.37-.18.72-.29,1.08a11.25,11.25,0,0,1-.89,2.05,2.15,2.15,0,0,1-.35.46.41.41,0,0,1-.32.13,1,1,0,0,1-.3-.08,1.39,1.39,0,0,1-.74-.91.46.46,0,0,1,0-.34.32.32,0,0,1,.14-.14.34.34,0,0,1,.19,0,2.38,2.38,0,0,1,.57.13c.36.13.7.28,1,.43s.67.3,1,.43a3.45,3.45,0,0,0,.51.18l.25.06a.48.48,0,0,0,.2,0c.28-.14.47-.49.74-.76a.87.87,0,0,1,.57-.29.33.33,0,0,1,.23.07.32.32,0,0,1,.07.23,1.25,1.25,0,0,1-.05.3c0,.17-.07.38,0,.38s.27,0,.43,0a2.7,2.7,0,0,0,.93-.49,5.46,5.46,0,0,1,.47-.31.85.85,0,0,1,.62-.15,2.24,2.24,0,0,1,.94.69,3.14,3.14,0,0,0,.4.34.18.18,0,0,0,.14,0l.21-.13c.29-.21.57-.46.84-.7a10.08,10.08,0,0,0,1.42-1.65,1.84,1.84,0,0,0,.36-1c0-.33-.34-.48-.69-.53a5.87,5.87,0,0,0-2.17,0,5.45,5.45,0,0,0-1.05.29,2.09,2.09,0,0,0-.46.26c-.14.1-.26.24-.22.37a.62.62,0,0,0,.35.32c.16.08.34.14.51.21.34.12.69.22,1.05.31a24.76,24.76,0,0,0,4.4.42v0a22.68,22.68,0,0,1-4.43-.32,10,10,0,0,1-1.07-.3c-.17-.07-.35-.12-.52-.2a.78.78,0,0,1-.44-.42.55.55,0,0,1,.27-.54,2.06,2.06,0,0,1,.5-.28,5.85,5.85,0,0,1,1.08-.33,6.24,6.24,0,0,1,2.24-.06,1.77,1.77,0,0,1,.56.19.68.68,0,0,1,.32.55,2,2,0,0,1-.38,1.1,8.8,8.8,0,0,1-1.46,1.7,7.53,7.53,0,0,1-.86.73,2,2,0,0,1-.26.16.43.43,0,0,1-.38-.06,2.36,2.36,0,0,1-.44-.38,2.22,2.22,0,0,0-.81-.61c-.28,0-.59.21-.89.42a3,3,0,0,1-1,.53.82.82,0,0,1-.65,0,.4.4,0,0,1-.13-.37,2.27,2.27,0,0,1,.06-.3,1.14,1.14,0,0,0,.05-.24s0,0,0,0,0,0,0,0a.74.74,0,0,0-.4.21c-.25.24-.42.59-.81.8a.62.62,0,0,1-.33.07,1.32,1.32,0,0,1-.3-.07,4.76,4.76,0,0,1-.53-.19l-1-.44c-.34-.15-.67-.3-1-.43a2,2,0,0,0-.5-.12c-.12,0-.19.09-.16.25a1.18,1.18,0,0,0,.62.76.88.88,0,0,0,.23.07c.05,0,.1,0,.17-.08a2.24,2.24,0,0,0,.32-.41,11,11,0,0,0,.89-2c.11-.34.22-.7.3-1a3.38,3.38,0,0,0,.09-.54.86.86,0,0,0,0-.49c-.05-.1-.26,0-.39.12a4.58,4.58,0,0,0-.42.35c-.26.25-.51.52-.76.79-.5.55-1,1.11-1.47,1.67l-.74.82a3.33,3.33,0,0,1-.86.72.42.42,0,0,1-.48-.29c-.07-.17-.06-.39-.16-.5s-.13,0-.21,0l-.23.14-.44.34a2.91,2.91,0,0,1-1,.57.58.58,0,0,1-.56-.17,3.54,3.54,0,0,1-.33-.46c-.1-.15-.19-.32-.34-.36a1,1,0,0,0-.52,0,1.83,1.83,0,0,0-.94.47,5.9,5.9,0,0,0-1.25,1.78,12.34,12.34,0,0,0-.8,2,7.23,7.23,0,0,0-.36,2.15.92.92,0,0,0,.12.46l0,0h0l0,0a1.6,1.6,0,0,0,.16-.19,9.72,9.72,0,0,0,.51-1,33.65,33.65,0,0,0,1.5-4.15,19.84,19.84,0,0,0,.53-2.15,6.63,6.63,0,0,0,.13-1.08,1.12,1.12,0,0,0-.1-.5.17.17,0,0,0-.19-.05c-.08,0-.17,0-.26.05a9.66,9.66,0,0,0-2,.86c-.65.35-1.28.73-1.9,1.13Z" style="fill:#263238"></path><path d="M233.36,150.72a7.32,7.32,0,1,1,4.09-13.38,7.25,7.25,0,0,1,3.09,4.67h0a7.31,7.31,0,0,1-5.78,8.58A7.45,7.45,0,0,1,233.36,150.72Zm0-14.13a7.34,7.34,0,0,0-1.31.12,6.9,6.9,0,1,0,1.31-.12Z" style="fill:#FFC727"></path><path d="M233.35,149a5.56,5.56,0,0,1-4.6-8.66,5.56,5.56,0,1,1,5.67,8.56A5.61,5.61,0,0,1,233.35,149Zm0-10.61a5.39,5.39,0,0,0-1,.09,5.07,5.07,0,1,0,1-.09Z" style="fill:#FFC727"></path><rect x="231.24" y="141.82" width="6.98" height="0.5" transform="translate(-22.84 47.51) rotate(-11.02)" style="fill:#FFC727"></rect><rect x="228.48" y="144.76" width="6.98" height="0.5" transform="translate(-23.45 47.04) rotate(-11.02)" style="fill:#FFC727"></rect><rect x="236.43" y="50.34" width="35.54" height="10.83" style="fill:#c7c7c7"></rect><path d="M265.06,44.42H243l-1,5.92h24.33Zm-10.87,4.26a1.3,1.3,0,1,1,1.3-1.3A1.3,1.3,0,0,1,254.19,48.68Z" style="fill:#c7c7c7"></path><polygon points="266.36 50.34 242.03 50.34 242.25 49.01 266.07 49.01 266.36 50.34" style="fill:#a6a6a6"></polygon></g><g id="freepik--character-2--inject-174"><path d="M267.79,452.5c2.2.71,65-.1,67.33-1.65.91-.58,1.33-9.73,1.51-20.8v-.35c0-2.28.07-4.63.08-7,0-.33,0-.66,0-1l-3.05-32.56-42,.42,4.14,32.26.05,1.28.25,6.67,0,.69s-23.89,11.06-26.31,13S265.58,451.8,267.79,452.5Z" style="fill: rgb(255, 196, 192);"></path><path d="M267.79,452.5c2.2.71,65-.1,67.33-1.65.91-.58,1.33-9.73,1.51-20.8v-.35c0-2.28.07-4.63.08-7,0-.33,0-.66,0-1l-40.89.12.05,1.28.25,6.67,0,.69s-23.89,11.06-26.31,13S265.58,451.8,267.79,452.5Z" style="fill:#ebebeb"></path><path d="M267.78,452.49c1.13.37,18.19.33,34.85,0,3.35-.06,6.69-.14,9.86-.23,11.89-.32,21.71-.81,22.63-1.41s1.31-9.46,1.49-20.33c0-.16,0-.31,0-.46s0-.24,0-.36h-.05l-40.45.08,0,.69s-23.89,11.05-26.31,13S265.58,451.79,267.78,452.49Z" style="fill:#a6a6a6"></path><path d="M268.46,450.06c10.58-.4,53.28-1,63.76-.59.09,0,.09.06,0,.06-10.48.63-53.18.88-63.76.7C268.24,450.23,268.24,450.06,268.46,450.06Z" style="fill:#263238"></path><path d="M291.63,430c4.15-.84,9.25-.26,12.47,2.66.12.12,0,.29-.17.25a58.89,58.89,0,0,0-12.28-2.39A.26.26,0,0,1,291.63,430Z" style="fill:#263238"></path><path d="M288.64,431.8c4.16-.84,9.26-.26,12.48,2.66.12.12,0,.29-.18.25a58.8,58.8,0,0,0-12.27-2.39A.26.26,0,0,1,288.64,431.8Z" style="fill:#263238"></path><path d="M285.66,433.65c4.16-.83,9.26-.26,12.48,2.66.12.12,0,.29-.18.25a58.8,58.8,0,0,0-12.27-2.39A.26.26,0,0,1,285.66,433.65Z" style="fill:#263238"></path><path d="M302.63,452.48c3.35-.06,6.69-.14,9.86-.23,11.89-.32,21.71-.81,22.63-1.41s1.31-9.46,1.49-20.33c0-.16,0-.31,0-.46s0-.24,0-.36h-.05C331,433.58,311.51,446.58,302.63,452.48Z" style="fill:#263238"></path><path d="M293.38,429.91h45.2s-9.1-105.58-8.75-107.42c.46-2.36,3.12-13.05,6.68-27,1.11-4.37,2.31-9.05,3.56-13.91,3.37-13.14,7.09-27.49,10.32-40,4.86-18.71,8.65-33.25,8.65-33.25H320.73s-4.46,14.15-10.09,32.57C301.47,270.83,289.22,312,288,322,286.05,338.21,293.38,429.91,293.38,429.91Z" style="fill:#263238"></path><path d="M295.38,422.2c6.9-.14,4.92-.2,11.82-.27,3.38,0,25.59-.22,28.74.3a.07.07,0,0,1,0,.14c-3.15.52-25.36.33-28.74.3-6.9-.07-4.92-.13-11.82-.27A.1.1,0,0,1,295.38,422.2Z" style="fill:#37474f"></path><path d="M321.33,316c1.48-6.54,3.7-12.94,5.62-19.35q5.88-19.56,11.83-39.08,3-9.77,6-19.52,1.51-4.93,3.05-9.85c1-3.21,2.15-6.39,3.06-9.63.37-1.31.57-.59.1,1.08-1,3.37-1.9,6.75-2.88,10.11q-2.93,10-5.88,20-5.88,19.87-11.86,39.7-3,9.94-6,19.9A81.17,81.17,0,0,0,321.9,319a44.28,44.28,0,0,0-.39,10.29c.43,6.92,1.23,13.82,1.87,20.72l1.92,20.75q1.9,20.64,3.79,41.28c.15,1.75.31,3.49.44,5.24,0,.58-.84.54-.9,0-1.49-13.6-2.63-27.25-3.91-40.88l-3.81-40.68c-.32-3.41-.68-6.82-.68-10.24A42.44,42.44,0,0,1,321.33,316Z" style="fill:#37474f"></path><path d="M325.08,208.34c2.66,20.57,7.73,59.15,11.43,87.14,8.64-33.91,22.53-87.14,22.53-87.14Z" style="fill:#37474f"></path><path d="M315.67,453.1c2.2.72,65,.14,67.34-1.4.91-.57,1.36-9.73,1.59-20.8v-.34c0-2.29.09-4.64.1-7,0-.33,0-.65,0-1,.14-16-1-32.56-1-32.56l-41,.27,1.15,32.26,0,1.27.23,6.68,0,.69s-23.92,11-26.36,12.94S313.47,452.39,315.67,453.1Z" style="fill: rgb(255, 196, 192);"></path><path d="M315.67,453.1c2.2.72,65,.14,67.34-1.4.91-.57,1.36-9.73,1.59-20.8v-.34c0-2.29.09-4.64.1-7,0-.33,0-.65,0-1l-40.89,0,0,1.27.23,6.68,0,.69s-23.92,11-26.36,12.94S313.47,452.39,315.67,453.1Z" style="fill:#ebebeb"></path><path d="M315.67,453.1c2.2.72,65,.14,67.34-1.4.91-.57,1.36-9.73,1.59-20.8v-.34l-40.5-.08,0,.69s-23.92,11-26.36,12.94S313.47,452.39,315.67,453.1Z" style="fill:#a6a6a6"></path><path d="M316.36,450.66c10.58-.36,53.28-.8,63.76-.35.09,0,.09.06,0,.06-10.47.59-53.18.69-63.76.47C316.14,450.83,316.14,450.67,316.36,450.66Z" style="fill:#263238"></path><path d="M339.59,430.64c4.16-.82,9.26-.23,12.47,2.71.12.11,0,.29-.18.25a58.8,58.8,0,0,0-12.26-2.44A.26.26,0,0,1,339.59,430.64Z" style="fill:#263238"></path><path d="M336.61,432.48c4.15-.82,9.25-.23,12.46,2.71.12.11,0,.29-.17.25A58.89,58.89,0,0,0,336.63,433,.26.26,0,0,1,336.61,432.48Z" style="fill:#263238"></path><path d="M333.62,434.32c4.15-.82,9.25-.23,12.46,2.71.13.11,0,.29-.17.25a58.25,58.25,0,0,0-12.27-2.44A.26.26,0,0,1,333.62,434.32Z" style="fill:#263238"></path><path d="M322,208.34s.88,18.33,5.08,32.85c.34,1.2.7,2.38,1.09,3.51a68,68,0,0,1,11.05,5.67s.44,14.75.88,31.2c.49,18.39,1,38.89.89,43.24-.38,16.28,2,105.76,2,105.76l45.19.19s-8.17-99.94-8.11-105.9c.09-9.58-2.19-51.93-3.95-82.82-1.07-19-2-33.7-2-33.7Z" style="fill:#263238"></path><path d="M344.55,422.53c6.9-.11,4.92-.17,11.82-.21,3.38,0,25.59-.12,28.74.42a.07.07,0,0,1,0,.14c-3.16.51-25.36.22-28.74.17-6.9-.09-4.92-.14-11.82-.31A.11.11,0,0,1,344.55,422.53Z" style="fill:#37474f"></path><path d="M370.38,214.89c.83,25.21,1.71,50.43,2.84,75.63s2.65,50.57,4.77,75.8c1.18,14.09,2.3,33.92,3.82,48,0,.1-.14.13-.15,0-3.29-25-5.12-55.93-6.74-81.1s-2.72-50.38-3.58-75.58c-.48-14.26-.85-28.52-1.28-42.78C370.06,214.67,370.37,214.69,370.38,214.89Z" style="fill:#37474f"></path><path d="M326.27,243.61a84,84,0,0,1,12.92,6.76c.16.1,0,.36-.14.27-4.36-2.12-8.81-4.16-13.05-6.51A.29.29,0,0,1,326.27,243.61Z" style="fill:#37474f"></path><path d="M326.1,233.26c.42,2.22,2.64,10.34,6.07,9.84s1.75-5.35,1.26-8.57a134,134,0,0,1-1.18-20.22.13.13,0,0,0-.25,0,70.33,70.33,0,0,0-.16,14.65c.22,2.62.57,5.22,1,7.82a15.94,15.94,0,0,1,.52,3.79c-.11,1-.44,1.63-1.09,1.78-3.88.9-5.69-11.49-5.89-13.73a145.08,145.08,0,0,1-.73-14.53c0-.17-.26-.13-.27,0A74.14,74.14,0,0,0,326.1,233.26Z" style="fill:#37474f"></path><path d="M331.35,243c.27.8.59,1.59.88,2.38a7.29,7.29,0,0,0,.91,2c.07.1.25.08.26,0a5.65,5.65,0,0,0-.36-2.11,21,21,0,0,0-.87-2.57A.44.44,0,0,0,331.35,243Z" style="fill:#37474f"></path><path d="M336,152.73c-.42,7-4.6,39.84-11.39,47-4.67,4.92-25.24,17.93-37.33,23.47-3.19,1.47-12.72-23.38-8.33-25.5,5.56-2.68,27-14.57,30.46-17.08s10.58-20.1,18.4-32.16C331.79,142.24,336.39,145.37,336,152.73Z" style="fill: rgb(255, 196, 192);"></path><path d="M289.34,222.08c-2.79,1.59-18.39,9.31-22.51,10.19s-16.15,2.57-17.14-.51,2.48-3.86,2.48-3.86-5.19-.1-5.91-3.29,4.74-4.22,4.74-4.22-5.33-.49-5.82-3.73,5.17-3.35,5.17-3.35-4.89-.22-4.17-3.06c.87-3.41,9.84-2,14.31-3.31,1-.3,20.15-7.52,20.15-7.52Z" style="fill: rgb(255, 196, 192);"></path><path d="M249.87,213.33c6.6,1,9.66.33,15.7-2.28.11-.05.22.11.1.18-5.68,3.09-9.4,4.52-15.87,2.42C249.48,213.54,249.55,213.28,249.87,213.33Z" style="fill:#263238"></path><path d="M250.48,220.29c6.94.47,10.27-.25,16.79-2.52.1,0,.16.12.07.16-6.21,2.76-9.95,4.1-16.83,2.72C250.2,220.59,250.16,220.27,250.48,220.29Z" style="fill:#263238"></path><path d="M252.5,227.77c6.76,0,10.45-.66,16.49-3.68a.12.12,0,0,1,.13.21c-5.87,3.68-10.46,4.51-16.6,3.68C252.11,227.92,252.08,227.77,252.5,227.77Z" style="fill:#263238"></path><path d="M285.82,198.9s-7.78-3.08-11.5-3.68-18.39,2.28-17.95,5.48c.57,4.14,9.37,4.15,13.68,3.59,0,0,1.3,9.57,7.61,11S285.82,198.9,285.82,198.9Z" style="fill: rgb(255, 196, 192);"></path><path d="M256.9,201.79c3.24,3.4,8.85,2.3,13.07,2.07a.38.38,0,0,1,.41.48c.82,4,3.13,9.35,7.06,11a.09.09,0,1,1-.06.18c-4.47-1.24-7.17-6.33-7.78-10.74-4.32.31-10,1.16-12.73-3C256.85,201.79,256.88,201.77,256.9,201.79Z" style="fill:#263238"></path><path d="M280.47,196.13l10.44,27.5s25.35-13.14,34.48-23.61c6.9-7.91,10.66-34.23,11-45.47s-4.88-13-10.1-4.71-16.7,29.42-17.23,30.12S280.47,196.13,280.47,196.13Z" style="fill:#455a64"></path><path d="M295.86,217.72c-1.39-2.91-2.55-5.95-3.74-8.94s-2.29-6-3.36-9c-.61-1.75-1.18-3.51-1.81-5.25,0-.06.08-.1.1,0,1.16,3,2.43,6,3.62,9s2.31,6,3.43,9c.64,1.73,1.32,3.46,1.89,5.21C296,217.74,295.89,217.79,295.86,217.72Z" style="fill:#263238"></path><path d="M336.41,154.55c-.36,11.24-4.12,37.56-11,45.47-6.2,7.11-19.89,15.46-28,20.07l33.31-74.94C334.09,143.33,336.67,146.55,336.41,154.55Z" style="fill:#263238"></path><path d="M319.25,214.56c1.49,1.24,57.44,2.78,57.71,2.36.7-1.14-8.63-56-33.95-73.33-4.46-3.06-10.35-1.09-13.36,1.19-1.5,1.14-5.26,9.5-6,16.72S318.31,213.77,319.25,214.56Z" style="fill:#ebebeb"></path><path d="M341.34,142.32s-2.4,34.22-2.5,35.61,2.32,38.86,2.32,38.86l36.42,1.89s-3.09-15.21-4.39-19.12c-.3-.89-6.33-31-17.47-44.05C345.48,143.49,341.34,142.32,341.34,142.32Z" style="fill:#455a64"></path><path d="M328.78,145.35s-3.12,30.26-3.1,32.16-.51,38.54-.51,38.54l-7.75-1.73s2.35-23.79,2.55-25.87,3-24.32,3.62-28.52C324.59,153.3,328.78,145.35,328.78,145.35Z" style="fill:#455a64"></path><rect x="308.83" y="185.45" width="35.72" height="46.5" transform="translate(-56.99 153.28) rotate(-24.35)" style="fill:#FFC727"></rect><rect x="308.58" y="185.18" width="16.93" height="5.13" transform="translate(683.34 227.63) rotate(155.58)" style="fill:#a6a6a6"></rect><polygon points="311.78 187.32 313.68 186.46 312.7 184.3 317.31 182.21 318.29 184.36 320.19 183.5 318.41 179.58 309.97 183.41 311.78 187.32" style="fill:#a6a6a6"></polygon><path d="M350.21,147.31c11.07,11.66,35.89,43.91,30.65,51.36-8.63,12.23-31.43,24.69-38.67,27.42-3.15,1.19-16.93-21-14.09-23.17,3.41-2.67,28.17-13.73,27.83-15.91-.19-1.23-7.12-15.44-11-28.53C340.47,143.29,344.93,141.76,350.21,147.31Z" style="fill: rgb(255, 196, 192);"></path><path d="M302.7,211.75a4.13,4.13,0,0,0,2.71,3.85,6.1,6.1,0,0,0-1,4c.38,2.49,4.46,3,4.46,3a7.54,7.54,0,0,0-.38,4.43c.6,2.34,4.64,3.43,4.64,3.43a6.67,6.67,0,0,0,2.12,4.11c3.26,2.72,9.43.71,13.37-.53s13.93-8.43,16-9.61l-7.73-25.33s-19.23.54-23.65,2.65C309.49,203.56,302.81,208.53,302.7,211.75Z" style="fill: rgb(255, 196, 192);"></path><path d="M305.46,215.14c3.5-2.84,7.65-4.49,11.71-6.38a.08.08,0,0,1,.06.14c-4.05,1.83-7.69,4.44-11.66,6.42A.11.11,0,0,1,305.46,215.14Z" style="fill:#263238"></path><path d="M308.84,222.27a11.59,11.59,0,0,1,2.76-1.35c1-.41,2-.8,3-1.17q3.08-1.14,6.2-2.11c.09,0,.16.11.07.14-2,.76-4.07,1.54-6.08,2.38l-3,1.28a13.79,13.79,0,0,1-2.88,1.1A.15.15,0,0,1,308.84,222.27Z" style="fill:#263238"></path><path d="M313.21,230.46a7.91,7.91,0,0,1,2.55-1.08l2.82-1c1.87-.67,3.74-1.34,5.59-2.07.09,0,.16.1.07.14-1.88.75-3.74,1.53-5.62,2.27l-2.78,1.07a7.53,7.53,0,0,1-2.6.75A0,0,0,0,1,313.21,230.46Z" style="fill:#263238"></path><path d="M336.23,197.93l14.55,25.74s27.66-16.44,31.36-26.11c3.33-8.69-24.52-43.46-30.14-49.34s-10.56-6.39-8.69,4.37,11.75,34,11.79,34.29S336.23,197.93,336.23,197.93Z" style="fill:#455a64"></path><path d="M349.74,206.62c-1.07-2-5.44-9.74-6.72-11.53,0-.05-.13,0-.11.07.82,2.07,5,10,6.08,12,2.15,3.92,4.25,7.9,6.76,11.62a.08.08,0,0,0,.15-.07C354.12,214.53,351.89,210.58,349.74,206.62Z" style="fill:#263238"></path><path d="M344.8,158.88c0-.08-.15,0-.13,0,.48,2.32,1,4.61,1.66,6.89-.52-1.15-1-2.32-1.5-3.49,0-.09-.15,0-.13.06a24.89,24.89,0,0,0,1.93,4.51c.39,1.38,7.73,19,8.14,20-3.32,1.62-6.2,3.47-9.43,5.28-1.57.88-3.14,1.78-4.69,2.7a45.46,45.46,0,0,0-4.78,2.81c-.09.07.27.46.41.66s.21.06.17,0a2.61,2.61,0,0,1-.12-.29c.79-.32,3.91-2.11,4.71-2.57l4.72-2.65c3.2-1.8,9.83-5.54,9.82-5.59C355.37,186.25,347.88,170.13,344.8,158.88Z" style="fill:#263238"></path><path d="M354.31,221.49c1.9-1.29,3.79-2.58,5.65-3.9s3.74-2.63,5.55-4,3.65-2.74,5.45-4.15,3.56-2.87,5.35-4.3a67.54,67.54,0,0,1-5,4.74c-1.73,1.51-3.54,2.92-5.37,4.31s-3.73,2.67-5.68,3.9A67.71,67.71,0,0,1,354.31,221.49Z" style="fill:#263238"></path><path d="M332,153.38c3.35.84,9.2-4.21,11.54-8.34.15-.29-.87-11.71-.84-14,0-.46-14.4,3.29-14.4,3.29a36.47,36.47,0,0,1,1.26,8.79C329.51,143.45,328.72,152.56,332,153.38Z" style="fill: rgb(255, 196, 192);"></path><path d="M329.52,143.12s0,.2,0,.45c8.23-.92,11.82-5.58,13.35-9-.12-1.59-.19-2.92-.18-3.55,0-.47-14.4,3.28-14.4,3.28A36.47,36.47,0,0,1,329.52,143.12Z" style="fill:#263238"></path><path d="M329.46,143.88l3.57,8.45,10.39-11,3.06,3.4s-10.05,17.3-10.13,16.53L332.71,154l-5,5.2.18-12.83Z" style="fill:#ebebeb"></path><path d="M327.47,152.87c.1-2.11.14-4.25.34-6.36,0-.07.13-.11.15,0,.46,2,0,10.13.07,12.06l0,0c.21-.22,4.62-4.58,4.66-4.51.79,1.15,3.46,6.45,3.64,6.93,1.59-2.74,7.68-12.74,9.58-15.34a.07.07,0,1,1,.12.07c-1.39,2.89-9.45,16.35-9.58,16.32a83.87,83.87,0,0,1-3.81-7.7c-.74.95-5.18,5.85-5.2,5.53A67.33,67.33,0,0,1,327.47,152.87Z" style="fill:#263238"></path><path d="M344.76,112c1.91,5,.3,19.79-3.08,23.32-4.89,5.11-13.42,6.18-17.91.19-4.34-5.81-1.89-25.11,1.93-28.37C331.32,102.3,341.92,104.63,344.76,112Z" style="fill: rgb(255, 196, 192);"></path><path d="M331.54,121.38s.07.05.07.1c-.12,1-.09,2.25.82,2.68,0,0,0,.06,0,0C331.28,124,331.25,122.34,331.54,121.38Z" style="fill:#263238"></path><path d="M332.56,120.37c1.69,0,1.53,3.39,0,3.38S331.15,120.35,332.56,120.37Z" style="fill:#263238"></path><path d="M325.78,121s-.09,0-.09.09c0,1-.21,2.24-1.17,2.55,0,0,0,.06,0,0C325.69,123.61,325.93,122,325.78,121Z" style="fill:#263238"></path><path d="M324.9,119.88c-1.68-.2-2,3.16-.42,3.36S326.3,120.06,324.9,119.88Z" style="fill:#263238"></path><path d="M334,118.89c-.45-.14-.85-.34-1.29-.52a2.26,2.26,0,0,1-1.21-.79.72.72,0,0,1,.16-.86,1.76,1.76,0,0,1,1.79-.09,2.56,2.56,0,0,1,1.45,1.19A.77.77,0,0,1,334,118.89Z" style="fill:#263238"></path><path d="M323.67,118.12a12.61,12.61,0,0,0,1.36-.28,2.22,2.22,0,0,0,1.33-.56.71.71,0,0,0,0-.87,1.76,1.76,0,0,0-1.75-.41,2.6,2.6,0,0,0-1.63.91A.76.76,0,0,0,323.67,118.12Z" style="fill:#263238"></path><path d="M332.47,131.05c-.26.23-.53.56-.91.57a2.78,2.78,0,0,1-1.11-.32,0,0,0,0,0-.05.06,1.42,1.42,0,0,0,1.3.63,1.12,1.12,0,0,0,.87-.89C332.59,131,332.51,131,332.47,131.05Z" style="fill:#263238"></path><path d="M331.52,127.87a3.57,3.57,0,0,1-2.45,1.47,4.57,4.57,0,0,1-1.28,0,1,1,0,0,1-.25,0l-.23,0a.26.26,0,0,1-.19-.25h0a.41.41,0,0,1,0-.11h0v-.09c0-.81.15-2,.15-2-.3.14-1.83.74-1.79.32a53.83,53.83,0,0,1,1.9-10.71.1.1,0,0,1,.19,0c-.23,3.35-1,6.64-1.33,10A6.22,6.22,0,0,1,328,126c.11,0-.31,2.35-.29,2.72a.16.16,0,0,0,0,0,5,5,0,0,0,3.74-1C331.51,127.71,331.59,127.79,331.52,127.87Z" style="fill:#263238"></path><path d="M328.27,129a4.29,4.29,0,0,0,1.69,1.32,1.9,1.9,0,0,0,1.16.07c.83-.21.86-1,.71-1.64a4.93,4.93,0,0,0-.37-1A5.56,5.56,0,0,1,328.27,129Z" style="fill:#263238"></path><path d="M330,130.33a1.9,1.9,0,0,0,1.16.07c.83-.21.86-1,.71-1.64A2,2,0,0,0,330,130.33Z" style="fill:#ff9bbc"></path><path d="M343.61,123.51c-2.54-.08-2.47-6.28-2.47-6.28s-3.89-.59-5.93-5.85c0,0-4.89,3.27-9.09,2.62-6.58-1-6.64-9.51-4.24-11.31,3.4-2.55,9.69.85,9.69.85s9.28-2.87,12.25,3.39a4.79,4.79,0,0,1,4.59,4.66C348.83,116.2,345.5,123.57,343.61,123.51Z" style="fill:#263238"></path><path d="M342.07,117.93a8.6,8.6,0,0,1-5-2.53,6.49,6.49,0,0,1-1.65-5.69c0-.11-.14-.14-.17,0a7.43,7.43,0,0,0,1.22,6.18,6,6,0,0,0,5.56,2.26C342.16,118.1,342.18,118,342.07,117.93Z" style="fill:#263238"></path><path d="M348.67,108.88c-1.33-1.59-3.31-1.79-5.25-1.67-.11,0-.1.18,0,.17a5.41,5.41,0,0,1,4.91,2.49c1,1.51.86,3.45.51,5.16a13.61,13.61,0,0,1-5.2,8.24s0,.11.05.07a13.58,13.58,0,0,0,5.84-9C349.82,112.52,349.9,110.36,348.67,108.88Z" style="fill:#263238"></path><path d="M331.83,103.84a6.38,6.38,0,0,0-3.67-2.65,7.65,7.65,0,0,0-5.41.7,4.32,4.32,0,0,0-2.17,3.74,7.66,7.66,0,0,0,1.85,4.78s.09,0,.06,0A7.65,7.65,0,0,1,321,106a4,4,0,0,1,2.25-3.58c2.65-1.27,6.58-1.18,8.42,1.5C331.76,104,331.9,103.93,331.83,103.84Z" style="fill:#263238"></path><path d="M342.31,123.84s3.07-4.92,5.29-3.85.08,8.07-2.4,9.15a2.58,2.58,0,0,1-3.52-1.21Z" style="fill: rgb(255, 196, 192);"></path><path d="M346.94,122s.05,0,0,.07a6.49,6.49,0,0,0-3.14,4.24,1.41,1.41,0,0,1,2.1-.5s0,.1,0,.1a1.58,1.58,0,0,0-1.72.64,8.33,8.33,0,0,0-.76,1.45c-.07.16-.36.09-.31-.09v0C342.93,125.59,344.52,122.34,346.94,122Z" style="fill:#263238"></path></g><g id="freepik--character-1--inject-174"><path d="M200.1,175.08l-6.87-.17a21.12,21.12,0,0,1-1.56-12.71c.16-1-2.46,4.59-1.93,12.62-7.25-.19-17.12-.45-25.73-.75,0-3.37-.15-6.5-.15-6.5a37.86,37.86,0,0,1-1.73,6.44l-3.43-.13a131.25,131.25,0,0,0,.07-14.35,45.89,45.89,0,0,1-5,14.14c-5.47-.25-9.06-.51-8.81-.76,8.74-9.07,2.95-14.83,5.72-23.06,3.32-9.87,12-11,12.14-18.55.11-6.13-.1-17.26,7.74-19.24a14.91,14.91,0,0,1,16.31-2.29c12,5.28,6.2,23.89,6.84,27.77.91,5.54,3.42,7.6,5.06,13.94s-1.42,10.48-2,14.75S201.47,175.14,200.1,175.08Z" style="fill:#263238"></path><path d="M144.81,171.54a21.21,21.21,0,0,0,2.92-5.22,11.12,11.12,0,0,0,.26-5.74,59.33,59.33,0,0,1-.7-6.09,15.9,15.9,0,0,1,.91-6.27,14.23,14.23,0,0,1,3.56-5.26,37.47,37.47,0,0,1,4.9-3.75,22.57,22.57,0,0,0,4.54-3.8,11,11,0,0,0,2.46-5.36,10.32,10.32,0,0,1-1.87,5.81,20.8,20.8,0,0,1-4.42,4.32A48,48,0,0,0,152.8,144a13.42,13.42,0,0,0-3.1,4.77,15.83,15.83,0,0,0-.85,5.67c0,2,.28,4,.44,6a20.25,20.25,0,0,1,0,3.12,9,9,0,0,1-.84,3.08A17.52,17.52,0,0,1,144.81,171.54Z" style="fill:#263238"></path><path d="M193.45,117.12a31.3,31.3,0,0,1,1.3,7.38c.18,2.5.25,5,.29,7.48l.08,3.72a18.75,18.75,0,0,0,.38,3.56,19.69,19.69,0,0,0,3,6.48,28.61,28.61,0,0,1,1.83,3.37,17.32,17.32,0,0,1,1.18,3.72,24.9,24.9,0,0,1,.34,3.84,15.65,15.65,0,0,1-.4,3.85c-.28,1.26-.7,2.45-1.06,3.62a19,19,0,0,0-.75,3.55,7.66,7.66,0,0,0,2.68,6.46,7.78,7.78,0,0,1-3.46-6.5,19.11,19.11,0,0,1,.51-3.78c.28-1.24.65-2.42.85-3.6a19.72,19.72,0,0,0-.22-7.14,17.28,17.28,0,0,0-1.11-3.37,28.5,28.5,0,0,0-1.77-3.17,35.14,35.14,0,0,1-1.88-3.31,15.54,15.54,0,0,1-1.26-3.7,19.55,19.55,0,0,1-.3-3.86c0-1.26,0-2.5.07-3.75.07-2.48.18-5,.18-7.44A36.8,36.8,0,0,0,193.45,117.12Z" style="fill:#263238"></path><path d="M167.13,151.18c-13.83,8.87-38.44,34.89-36.15,41.62,4.61,13.56,22.92,31.59,27.72,35.07,2.79,2,23.18-16.49,20.51-19-3.11-3-22.27-19-22.41-20.63-.1-1.27,9.54-15.52,16.56-27.57C181.51,146.66,173.72,147,167.13,151.18Z" style="fill:#ad6359"></path><path d="M154.53,222.09a87.14,87.14,0,0,0,5.72,10c1.78,2.47,7.1,9.43,10,7.73,2-1.15-.66-5.61-2.46-8.8-1-1.69-1.53-4.51-.41-5.09,2-1,4.34,3.4,5.64,6.64,2.51,6.27,4.88,15.87,9.52,15.73,1.75,0,1.77-2.62,1.19-5.61,1.5,4.12,3.45,8.07,5.39,8.09,1.12,0,1.72-.69,2-1.83a2.62,2.62,0,0,0,2.54,1.42c1.73-.26,2.42-2.09,2.55-4.41a1.44,1.44,0,0,0,1.31.1c4.42-1.49,1.22-18.2-1.63-21.76-8.36-10.46-20-18.1-20-18.1C169.35,206.32,154.52,222.08,154.53,222.09Z" style="fill:#ad6359"></path><path d="M177.1,224.31a21.21,21.21,0,0,1,4.79,8c1.11,3.52,1.26,7.25,2,10.84a.08.08,0,0,1-.15,0c-.29-1.77-.76-3.53-1.12-5.29s-.65-3.47-1.13-5.17a20.9,20.9,0,0,0-4.45-8.36S177.08,224.29,177.1,224.31Z" style="fill:#263238"></path><path d="M182.42,221.45a52.89,52.89,0,0,1,5.81,9c1.65,3.53,2,7.49,2.42,11.33q.36,3.45.56,6.93c0,.09-.14.13-.15,0-.37-3.93-.86-7.86-1.47-11.76a28,28,0,0,0-3.69-10.26c-1.09-1.8-2.31-3.5-3.53-5.21C182.35,221.46,182.4,221.42,182.42,221.45Z" style="fill:#263238"></path><path d="M188.28,219.89c2.2,2.59,4.13,4.84,5.35,8.06A48,48,0,0,1,196,239.58c.19,2.13.31,4.26.4,6.39,0,.09-.15.1-.16,0a110.68,110.68,0,0,0-1.81-14.17,21.68,21.68,0,0,0-2.2-6.4,39.23,39.23,0,0,0-3.92-5.5S188.27,219.88,188.28,219.89Z" style="fill:#263238"></path><path d="M174.61,204.31l-20.08,23.11s-25.62-27.08-24.65-36.28,23.25-32,35.67-39.81,13.93-.61,8.76,9.31-16.73,27.57-16.46,28S174.61,204.31,174.61,204.31Z" style="fill:#FFC727"></path><path d="M174.31,160.65c-5.18,9.92-16.73,27.55-16.46,28s16.76,15.64,16.76,15.64l-20.08,23.11s-12.43-13.14-19.65-24.22l33-53.22C178.14,144.45,179.15,151.37,174.31,160.65Z" style="opacity:0.1"></path><path d="M160.52,211.77c1.45-1.52,2.85-3.07,4.26-4.61.68-.75,1.37-1.48,2-2.25s1.49-1.61,2.13-2.48a.06.06,0,0,0-.09-.08c-.83.68-1.58,1.51-2.36,2.25s-1.43,1.41-2.14,2.12c-1.48,1.49-3,3-4.39,4.5-2.88,3-5.66,6.16-8.42,9.32a.08.08,0,0,0,.11.11C154.66,217.74,157.63,214.8,160.52,211.77Z" style="fill:#263238"></path><path d="M244.62,450.46c-2.17.65-63.45-1.41-65.73-3-.87-.58-1.09-9.53-1-20.35v-.33c0-2.23,0-4.53.06-6.85,0-.33,0-.65,0-1,.24-15.61.82-31.8.82-31.8l40.47,1-1.36,31.73-.07,1.25-.38,6.52,0,.67s23.1,11.28,25.43,13.26S246.78,449.82,244.62,450.46Z" style="fill:#ad6359"></path><path d="M227.49,432.69c-.15-.05-.22-.09-.23-.13Z" style="fill:#FFC727"></path><path d="M177.84,432.53c0,8.27.32,14.48,1,15,2.28,1.56,63.56,3.62,65.73,3s.48-6.86-1.83-8.83c-1-.86-5.91-3.46-11.13-6.13C237.42,440.12,236.28,444.73,177.84,432.53Z" style="fill:#263238"></path><path d="M156.31,208.8s21.33,107.1,22.83,115c.25,1.27-5.63,101.37-5.63,101.37l47.08,1.16s.66-92.35-.8-104.4c-1.91-15.8-26.06-113.14-26.06-113.14Z" style="fill:#37474f"></path><path d="M177.26,415.12c6.74.09,4.81,0,11.55.14,3.3.08,25,.62,28.05,1.24.06,0,.06.13,0,.14-3.1.4-24.77-.52-28.07-.67-6.73-.29-4.8-.28-11.53-.65A.1.1,0,0,1,177.26,415.12Z" style="fill:#263238"></path><path d="M184.67,324.14c-.48-5.9-1.83-11.75-2.93-17.55s-2.26-11.9-3.39-17.85c-2.24-11.78-4.43-23.57-6.69-35.34-2.56-13.32-6.2-26.33-8.89-39.61-.06-.31-.52-.17-.46.14,4.17,23.62,9.72,46.89,14.18,70.47l3.39,17.85c1.09,5.8,2.33,11.59,3.27,17.42a47.65,47.65,0,0,1,.66,9.16c-.08,2.88-2.56,75.15-2.89,81.92,0,.09.14.1.15,0C182.65,398.86,185.14,330,184.67,324.14Z" style="fill:#263238"></path><path d="M189.26,208.8,176,307.57c-6.34-32-19.64-98.77-19.64-98.77Z" style="fill:#263238"></path><path d="M173.41,453.12c-2.19.54-63.29-4.6-65.49-6.27-.85-.62-.62-9.57,0-20.37,0-.12,8.09-39.85,8.09-39.85l40.88,3.31-9.57,39.74S169.8,442.11,172,444.2,175.61,452.59,173.41,453.12Z" style="fill:#ad6359"></path><path d="M107.92,446.85c2.2,1.67,63.3,6.81,65.49,6.27s.82-6.83-1.38-8.92c-1.22-1.14-8.46-5.35-14.8-8.95,7.54,5.15,17.4,14.37-49.64-2.68C107.25,440.47,107.24,446.35,107.92,446.85Z" style="fill:#263238"></path><path d="M157.19,434.51c-.14-.06-.21-.1-.22-.14Z" style="fill:#FFC727"></path><path d="M150.53,428l-45-5.32s23.12-89.19,24.17-93c1.61-5.81,5.2-52.61,8.69-81.54,0,0-6.61-15.66,5.76-39.32h49.62s-3.33,22.51-9,36.79c0,0,1.05-.81-5.64,2.88,0,0-4.11,73.5-7.11,87.42C169.52,347.34,150.53,428,150.53,428Z" style="fill:#37474f"></path><path d="M109.92,413.64c6.72.62,4.8.35,11.51,1.05,3.28.34,24.85,2.6,27.86,3.46.06,0,.05.13,0,.13-3.12.16-24.65-2.48-27.93-2.88-6.69-.83-4.76-.66-11.44-1.57A.1.1,0,1,1,109.92,413.64Z" style="fill:#263238"></path><path d="M186.63,244.58a82.25,82.25,0,0,0-12.91,6,.15.15,0,0,0,.12.27c4.35-1.87,8.79-3.66,13-5.76A.29.29,0,0,0,186.63,244.58Z" style="fill:#263238"></path><path d="M188,214.72c0-.15-.28-.18-.28,0a142.36,142.36,0,0,1-.73,14.54c-.2,2.24-2,14.63-5.89,13.72-.65-.15-1-.79-1.08-1.77a15.44,15.44,0,0,1,.51-3.8c.43-2.59.78-5.19,1-7.81a70.33,70.33,0,0,0-.16-14.65.13.13,0,0,0-.25,0A134.08,134.08,0,0,1,180,235.17c-.49,3.22-2.11,8.07,1.26,8.56s5.65-7.61,6.07-9.84A74.13,74.13,0,0,0,188,214.72Z" style="fill:#263238"></path><path d="M181.22,243.3a20.85,20.85,0,0,0-.87,2.56A5.72,5.72,0,0,0,180,248c0,.14.19.15.27.06a7.84,7.84,0,0,0,.9-2.05c.29-.8.61-1.58.88-2.39A.44.44,0,0,0,181.22,243.3Z" style="fill:#263238"></path><path d="M147.37,211.17a41.59,41.59,0,0,0-5.44,15.05,46.1,46.1,0,0,0,.51,16.1,35.15,35.15,0,0,1,.73,9.43c-.23,3.23-.67,6.45-1,9.67L140,280.34c-1.4,12.57-3.9,32.1-5.55,44.63-.81,6.15-18,83.69-18.46,85.21a.1.1,0,0,0,.19.05c4.08-11.9,17.53-74.86,19.45-87,1-6.19,1.63-12.43,2.34-18.66s1.43-12.61,2.14-18.92,1.43-12.49,2.12-18.73c.35-3.16.7-6.31,1-9.47a65.69,65.69,0,0,0,.66-9.08,69.17,69.17,0,0,0-1.32-8.93,41.53,41.53,0,0,1-.47-8.26,42.9,42.9,0,0,1,3.85-16c.56-1.24.88-2.53,1.55-3.71C147.78,211,147.57,210.84,147.37,211.17Z" style="fill:#263238"></path><path d="M162,213.28c-.79,2.1-1.7,4.16-2.66,6.19a15.62,15.62,0,0,1-3.31,5,12.38,12.38,0,0,1-5,2.55,27.51,27.51,0,0,1-3.24.71,22.72,22.72,0,0,0-3.31.61.22.22,0,0,0,0,.42,14.61,14.61,0,0,0,3.56.09,20.32,20.32,0,0,0,3.39-.46,12.28,12.28,0,0,0,5.5-2.8,14.53,14.53,0,0,0,3.36-5.49,36,36,0,0,0,2-6.76C162.34,213.16,162.08,213.11,162,213.28Z" style="fill:#263238"></path><path d="M179.11,248.44c0-.14-.25-.17-.28,0-.39,1.71-1.05,8.78-1.22,10.56-.34,3.59-.58,7.19-.85,10.78-.54,7.09-1.53,32.91-1.58,34.94,0,.12.19.11.21,0,.21-1.77,1.39-19.24,1.66-22.79.55-7.14,1.08-14.28,1.55-21.42C178.73,258.49,179.24,250.45,179.11,248.44Z" style="fill:#263238"></path><path d="M184.78,245.48c.07,0,0,.05,0,.07A.19.19,0,0,1,184.78,245.48Zm1.85-.9a82.25,82.25,0,0,0-12.91,6,.15.15,0,0,0,.12.27c4.35-1.87,8.79-3.66,13-5.76A.29.29,0,0,0,186.63,244.58ZM188,214.72c0-.15-.28-.18-.28,0a142.36,142.36,0,0,1-.73,14.54c-.2,2.24-2,14.63-5.89,13.72-.65-.15-1-.79-1.08-1.77a15.44,15.44,0,0,1,.51-3.8c.43-2.59.78-5.19,1-7.81a70.33,70.33,0,0,0-.16-14.65.13.13,0,0,0-.25,0A134.08,134.08,0,0,1,180,235.17c-.49,3.22-2.11,8.07,1.26,8.56s5.65-7.61,6.07-9.84A74.13,74.13,0,0,0,188,214.72Zm-6.8,28.58a20.85,20.85,0,0,0-.87,2.56A5.72,5.72,0,0,0,180,248c0,.14.19.15.27.06a7.84,7.84,0,0,0,.9-2.05c.29-.8.61-1.58.88-2.39A.44.44,0,0,0,181.22,243.3Zm-19.21-30c-.79,2.1-1.7,4.16-2.66,6.19a15.62,15.62,0,0,1-3.31,5,12.38,12.38,0,0,1-5,2.55,27.51,27.51,0,0,1-3.24.71,22.72,22.72,0,0,0-3.31.61.22.22,0,0,0,0,.42,14.61,14.61,0,0,0,3.56.09,20.32,20.32,0,0,0,3.39-.46,12.28,12.28,0,0,0,5.5-2.8,14.53,14.53,0,0,0,3.36-5.49,36,36,0,0,0,2-6.76C162.34,213.16,162.08,213.11,162,213.28Zm17.1,35.16c0-.14-.25-.17-.28,0-.39,1.71-1.05,8.78-1.22,10.56-.34,3.59-.58,7.19-.85,10.78-.54,7.09-1.53,32.91-1.58,34.94,0,.12.19.11.21,0,.21-1.77,1.39-19.24,1.66-22.79.55-7.14,1.08-14.28,1.55-21.42C178.73,258.49,179.24,250.45,179.11,248.44Z" style="fill:#263238"></path><path d="M193.29,193l.7,15.73-49.9,0s7-41.51,20.73-55.8c6.86-7.15,14.72-6.45,19.64-1.26,1.25,1.32,12.27,18.32,13.71,26C199.43,184.52,193.29,193,193.29,193Z" style="fill:#FFC727"></path><path d="M179.45,153.54q2.46,4.89,4.66,9.91c1.45,3.35,2.89,6.71,4.08,10.18a52,52,0,0,1,1.56,5.29,12,12,0,0,1,.34,2.81,14.63,14.63,0,0,1-.28,2.81,22,22,0,0,1-1.86,5.27,28.52,28.52,0,0,1-2.93,4.72l.1-.26c-.07,2.33-.23,4.65-.34,7s-.28,4.64-.47,7c-.06-2.33-.1-4.66-.1-7s0-4.65,0-7v-.13l.09-.13a24.83,24.83,0,0,0,4.49-9.64c.88-3.49-.38-7-1.48-10.44s-2.43-6.85-3.78-10.24S180.86,156.91,179.45,153.54Z" style="fill:#263238"></path><path d="M189.44,168.18a.86.86,0,0,1-.75.91.78.78,0,0,1-.81-.8.85.85,0,0,1,.74-.91A.79.79,0,0,1,189.44,168.18Z" style="fill:#263238"></path><path d="M192.24,177.88a.86.86,0,0,1-.75.91.79.79,0,0,1-.81-.8.86.86,0,0,1,.75-.91A.78.78,0,0,1,192.24,177.88Z" style="fill:#263238"></path><path d="M191.53,187.58a.85.85,0,0,1-.74.91.79.79,0,0,1-.81-.8.85.85,0,0,1,.74-.91A.77.77,0,0,1,191.53,187.58Z" style="fill:#263238"></path><path d="M187.91,195.24a.87.87,0,0,1-.75.92.79.79,0,0,1-.81-.8.86.86,0,0,1,.75-.92A.79.79,0,0,1,187.91,195.24Z" style="fill:#263238"></path><path d="M187.91,204.09a.85.85,0,0,1-.74.91.79.79,0,0,1-.81-.8.85.85,0,0,1,.74-.91A.77.77,0,0,1,187.91,204.09Z" style="fill:#263238"></path><path d="M172.89,150c.25,1,5.11,7.29,9.62,7,1.47-.11,1.26-8.15,1.26-8.15l.12-.6,1.67-8.36-9.91-6-1.43-.8s-.31,2.32-.66,5.21l-.06.41c0,.17,0,.32-.06.47-.06.43-.12.87-.16,1.31s-.08.66-.11,1-.06.69-.1,1.05A55.68,55.68,0,0,0,172.89,150Z" style="fill:#ad6359"></path><path d="M173.56,138.18a17.07,17.07,0,0,0,10.33,10l1.67-8.36-9.91-6-1.43-.8S173.91,135.29,173.56,138.18Z" style="fill:#263238"></path><path d="M197.77,127.75c1.1,14.92-7.72,17.26-10.94,17.5-2.92.21-12.9.56-15.53-14.18s4-20,10.62-20.79S196.67,112.82,197.77,127.75Z" style="fill:#ad6359"></path><path d="M195.51,125.05c-.36,0-.69-.09-1-.14a1.65,1.65,0,0,1-1-.33.54.54,0,0,1-.05-.66,1.32,1.32,0,0,1,1.29-.41,1.94,1.94,0,0,1,1.28.59A.58.58,0,0,1,195.51,125.05Z" style="fill:#263238"></path><path d="M185.4,125.49a8.78,8.78,0,0,0,1-.29,1.75,1.75,0,0,0,1-.5.54.54,0,0,0-.06-.66,1.35,1.35,0,0,0-1.33-.2,1.92,1.92,0,0,0-1.17.79A.57.57,0,0,0,185.4,125.49Z" style="fill:#263238"></path><path d="M187.86,128.22s-.08.05-.07.09c.14,1,.13,2.22-.76,2.65,0,0,0,.07,0,.06C188.16,130.74,188.16,129.16,187.86,128.22Z" style="fill:#263238"></path><path d="M186.83,127.24c-1.66.05-1.44,3.37.1,3.32S188.23,127.2,186.83,127.24Z" style="fill:#263238"></path><path d="M186.19,127.46c-.27.21-.54.56-.88.61s-.73-.26-1-.58c0,0-.06,0,0,.05,0,.63.32,1.27,1,1.32s1-.55,1.16-1.2C186.42,127.54,186.31,127.38,186.19,127.46Z" style="fill:#263238"></path><path d="M193.54,127.35s.08.05.08.09c0,1,.23,2.21,1.18,2.49,0,0,0,.06,0,.06C193.65,129.9,193.4,128.33,193.54,127.35Z" style="fill:#263238"></path><path d="M194.39,126.23c1.65-.22,2,3.09.45,3.29S193,126.41,194.39,126.23Z" style="fill:#263238"></path><path d="M195.11,126.38c.27.15.56.44.88.43s.6-.39.79-.76c0,0,.05,0,.06,0,.08.63-.07,1.31-.66,1.49s-1-.34-1.22-.95C194.92,126.5,195,126.32,195.11,126.38Z" style="fill:#263238"></path><path d="M188.39,136.9c.26.24.51.56.88.59a2.8,2.8,0,0,0,1.1-.28,0,0,0,0,1,0,0,1.38,1.38,0,0,1-1.3.58,1.09,1.09,0,0,1-.82-.89A.05.05,0,0,1,188.39,136.9Z" style="fill:#263238"></path><path d="M192.4,132.86s.33,1.51.39,2.24c0,.06-.17.11-.41.14h0a3.47,3.47,0,0,1-3.44-1c-.06-.07,0-.15.1-.11a5.16,5.16,0,0,0,3.21.66c0-.21-.66-2.58-.54-2.6a6.57,6.57,0,0,1,1.67.25c-.6-3.18-1.7-6.24-2.24-9.42a.1.1,0,0,1,.18-.06,52.36,52.36,0,0,1,2.85,10C194.23,133.39,192.7,133,192.4,132.86Z" style="fill:#263238"></path><path d="M171.49,132.14a6.16,6.16,0,0,0,3.62-4.9,16,16,0,0,0,6.73-5c-.11.3-.91,2.5-1.35,3.61,9.54-1.45,12.72-8.6,12.72-8.6a16.31,16.31,0,0,1,3.93,6.15s.27-5.81-2.59-9.81a9.37,9.37,0,0,0-8.51-4.16A13.4,13.4,0,0,0,172.81,113C166.42,119.46,171.49,132.14,171.49,132.14Z" style="fill:#263238"></path><path d="M187.75,124.49a17.64,17.64,0,0,1-4.92,1.61s0,0,0,0a14.87,14.87,0,0,0,7.11-4,14.56,14.56,0,0,0,2.14-2.79,9.76,9.76,0,0,0,1.38-3.57c0-.1.16-.08.15,0a11.25,11.25,0,0,1-.88,3.71,10.5,10.5,0,0,1-2.21,3.07,12.06,12.06,0,0,1-2.76,1.94" style="fill:#263238"></path><path d="M174.12,131s-3.2-4.71-5.34-3.57.23,7.94,2.71,8.9a2.54,2.54,0,0,0,3.41-1.32Z" style="fill:#ad6359"></path><path d="M169.51,129.4a0,0,0,0,0,0,.07,6.39,6.39,0,0,1,3.26,4,1.41,1.41,0,0,0-2.09-.41s0,.11.05.1a1.53,1.53,0,0,1,1.7.56,7.5,7.5,0,0,1,.81,1.4c.08.16.36.08.3-.1V135C173.58,132.79,171.89,129.65,169.51,129.4Z" style="fill:#263238"></path><path d="M173.07,135.8a.66.66,0,1,1-.6-.72A.67.67,0,0,1,173.07,135.8Z" style="fill:#fff"></path><path d="M183.92,149.53,181,156.31l-8.32-8.81-2.46,2.73s8,13.89,8.1,13.27l2.93-5.83,4,4.17-.13-10.29Z" style="fill:#ebebeb"></path><path d="M185.5,156.75c-.08-1.7-.11-3.41-.27-5.1,0-.06-.1-.09-.11,0-.37,1.63,0,8.12-.08,9.68v0c-.17-.18-3.7-3.68-3.74-3.62-.63.92-2.78,5.17-2.93,5.56-1.27-2.21-6.14-10.24-7.66-12.33a.06.06,0,0,0-.1.06c1.11,2.32,7.57,13.13,7.67,13.1a64.38,64.38,0,0,0,3.06-6.17,45.51,45.51,0,0,0,4.17,4.45A52.12,52.12,0,0,0,185.5,156.75Z" style="fill:#263238"></path><path d="M163.61,166.71c3.24,20.18,7.14,45,12.49,49.25,8.35,6.67,32.6,12.57,41.55,13.25,3.72.28,9.93-28.45,5.94-28.71-8.5-.53-26.82-1.13-28.79-2.59s-11.25-20-18.65-34.52C167.26,145.94,161.74,155,163.61,166.71Z" style="fill:#ad6359"></path><path d="M218.63,200.23s11.28.41,18.49,1.53c4,.62,10.85,2.83,13.6,4.64,4.11,2.71,19.57,16.66,16.27,20.48-3,3.46-14.75-10.21-14.75-10.21s13.09,12.75,8.72,16.25-15.59-13.71-15.59-13.71,13.15,13.4,8.08,16.3c-3.84,2.19-14.89-12.82-14.89-12.82s11.23,11.59,7.38,14c-4.25,2.68-15.32-10.54-15.32-10.54-10.81,4.52-17.58,3.61-22.36,1.41C208.26,227.57,214.88,208.27,218.63,200.23Z" style="fill:#ad6359"></path><path d="M248,212c1.59,1.44,3.21,2.89,4.67,4.47s2.86,3.21,4.16,4.92a36.94,36.94,0,0,1,4.45,7.12c-2.47-4.35-7.6-10.08-9.06-11.65s-2.83-3.23-4.29-4.8C247.9,212,248,211.94,248,212Z" style="fill:#263238"></path><path d="M242.2,217.13c2.59,1.51,8.45,7.67,11,12,.1.18,0,.18-.14,0-1.8-2.06-9-10-10.91-12C242.12,217.15,242.17,217.11,242.2,217.13Z" style="fill:#263238"></path><path d="M236.43,220.67a33,33,0,0,1,8.24,9.53c.11.18,0,.17-.18,0-2.68-3.22-4.76-5.77-8.15-9.43A.07.07,0,0,1,236.43,220.67Z" style="fill:#263238"></path><path d="M217.3,199.31s-10.18,31.06-10.65,30.55-26.35-7.41-32-13.63-11-42.09-11.73-52.81,5.65-14.46,12.53-2.31,19.14,35,20.08,35.6S217.3,199.31,217.3,199.31Z" style="fill:#FFC727"></path><path d="M200.66,225.32c.92-3.26,2.09-6.46,3.21-9.65s2.31-6.31,3.55-9.43c.71-1.8,1.48-3.59,2.18-5.4,0-.06.13,0,.11,0-1.17,3.18-2.21,6.41-3.34,9.6s-2.29,6.32-3.47,9.46c-.68,1.82-1.34,3.65-2.1,5.44C200.77,225.45,200.64,225.4,200.66,225.32Z" style="fill:#263238"></path><path d="M182.47,221a23.92,23.92,0,0,1-7.39-5c-2.37-2.58-3-6.25-3.9-9.54-2-7.2-3.52-14.47-4.94-21.79-.81-4.16-1.48-8.34-2.16-12.53,0,0-.08,0-.07,0,.27,3.21.67,6.41,1.14,9.6-.46-1.74-.89-3.48-1.37-5.21a.05.05,0,1,0-.1,0,60.09,60.09,0,0,0,1.67,6.63q.92,5.94,2.17,11.8,1.22,5.64,2.69,11.21c.48,1.82,1,3.65,1.53,5.44a12.2,12.2,0,0,0,2.16,4.21c2.23,2.7,5.43,3.9,8.51,5.3C182.49,221.2,182.55,221.06,182.47,221Z" style="fill:#263238"></path><path d="M204.92,197.94c-2.49-.36-8.44-.89-8.92-1.33a7.78,7.78,0,0,1-1.13-1.65L193,191.58q-3.58-6.44-7.26-12.82c-.62-1.64-1.21-3.29-1.91-4.9,0-.06-.13,0-.11,0,.44,1.32,1,2.61,1.46,3.9-1.43-2.46-2.91-4.87-4.4-7.29,0,0-.09,0-.07,0q3.74,7.27,7.73,14.41c1.31,2.37,2.64,4.73,4,7.08.67,1.2,1.35,2.39,2,3.59a3.06,3.06,0,0,0,2,1.8c1.29.27,6.95.63,8.49.67C205,198.1,205,198,204.92,197.94Z" style="fill:#263238"></path></g><g id="freepik--speech-bubble--inject-174"><path d="M406.9,92.22A21.73,21.73,0,0,1,370.57,106l-10.87,1.6,5.44-9.4a21.74,21.74,0,1,1,41.76-6Z" style="fill:#fff"></path><path d="M406.9,92.22a22,22,0,0,1-4.39,11,25,25,0,0,1-2,2.27,23.6,23.6,0,0,1-2.3,1.94,21,21,0,0,1-5.24,2.92,21.45,21.45,0,0,1-5.85,1.4,21.78,21.78,0,0,1-3,.06,19,19,0,0,1-3-.32,21.92,21.92,0,0,1-10.76-5.31l.26.08L359.75,108l-.78.12.39-.69L364.77,98l0,.37A22,22,0,0,1,392,69.13a22.27,22.27,0,0,1,8.38,5.14A21.89,21.89,0,0,1,406.9,92.22Zm0,0a21.6,21.6,0,0,0-15-22.8,21.55,21.55,0,0,0-9.67-.72,21.31,21.31,0,0,0-9,3.54,22.41,22.41,0,0,0-6.5,7.1,21.45,21.45,0,0,0-2.76,9.2A21.74,21.74,0,0,0,365.53,98l.08.19-.1.18L360,107.76l-.39-.57,10.89-1.53.15,0,.11.1a21.45,21.45,0,0,0,10.41,5.37,19.32,19.32,0,0,0,2.95.35,19.63,19.63,0,0,0,3,0,21.51,21.51,0,0,0,5.81-1.28,20.4,20.4,0,0,0,5.24-2.82,26.28,26.28,0,0,0,2.3-1.92,24.78,24.78,0,0,0,2-2.25A21.78,21.78,0,0,0,406.9,92.22Z" style="fill:#263238"></path><polygon points="382.73 102.36 373.44 92.96 376.56 89.88 381.99 95.37 393.26 77.7 396.95 80.06 382.73 102.36" style="fill:#FFC727"></polygon></g></svg>