<svg xmlns="http://www.w3.org/2000/svg" viewBox="0 0 750 500"><g id="freepik--Shadow--inject-6"><ellipse cx="489.59" cy="454.35" rx="213.83" ry="14.98" style="fill:#ebebeb"></ellipse><ellipse cx="207.69" cy="438.52" rx="114.61" ry="11.46" style="fill:#ebebeb"></ellipse></g><g id="freepik--Floor--inject-6"><polygon points="47.45 332.34 129.34 332.1 211.22 332.01 375 331.85 538.78 332.01 620.66 332.1 702.55 332.34 620.66 332.59 538.78 332.68 375 332.84 211.22 332.68 129.34 332.59 47.45 332.34" style="fill:#263238"></polygon></g><g id="freepik--Building--inject-6"><rect x="390.72" y="259.18" width="71.58" height="72.83" transform="translate(853.01 591.2) rotate(180)" style="fill:#455a64"></rect><rect x="319.14" y="216.62" width="71.58" height="115.4" transform="translate(709.85 548.63) rotate(180)" style="fill:#455a64"></rect><rect x="291.77" y="216.62" width="27.36" height="115.4" style="fill:#37474f"></rect><rect x="368.13" y="226.11" width="14.1" height="6.09" transform="translate(750.36 458.31) rotate(180)" style="fill:#263238"></rect><rect x="368.13" y="239.11" width="14.1" height="6.09" transform="translate(750.36 484.31) rotate(180)" style="fill:#263238"></rect><rect x="368.13" y="252.11" width="14.1" height="6.09" transform="translate(750.36 510.3) rotate(180)" style="fill:#263238"></rect><rect x="368.13" y="265.11" width="14.1" height="6.09" transform="translate(750.36 536.3) rotate(180)" style="fill:#263238"></rect><rect x="368.13" y="278.11" width="14.1" height="6.09" transform="translate(750.36 562.3) rotate(180)" style="fill:#263238"></rect><rect x="368.13" y="291.11" width="14.1" height="6.09" transform="translate(750.36 588.3) rotate(180)" style="fill:#263238"></rect><rect x="368.13" y="304.11" width="14.1" height="6.09" transform="translate(750.36 614.3) rotate(180)" style="fill:#263238"></rect><rect x="347.85" y="226.11" width="14.1" height="6.09" transform="translate(709.8 458.31) rotate(180)" style="fill:#263238"></rect><rect x="347.85" y="239.11" width="14.1" height="6.09" transform="translate(709.8 484.31) rotate(180)" style="fill:#263238"></rect><rect x="347.85" y="252.11" width="14.1" height="6.09" transform="translate(709.8 510.3) rotate(180)" style="fill:#263238"></rect><rect x="347.85" y="265.11" width="14.1" height="6.09" transform="translate(709.8 536.3) rotate(180)" style="fill:#263238"></rect><rect x="347.85" y="278.11" width="14.1" height="6.09" transform="translate(709.8 562.3) rotate(180)" style="fill:#263238"></rect><rect x="347.85" y="291.11" width="14.1" height="6.09" transform="translate(709.8 588.3) rotate(180)" style="fill:#263238"></rect><rect x="347.85" y="304.11" width="14.1" height="6.09" transform="translate(709.8 614.3) rotate(180)" style="fill:#263238"></rect><rect x="327.63" y="226.11" width="14.1" height="6.09" transform="translate(669.35 458.31) rotate(180)" style="fill:#263238"></rect><rect x="327.63" y="239.11" width="14.1" height="6.09" transform="translate(669.35 484.31) rotate(180)" style="fill:#263238"></rect><rect x="327.63" y="252.11" width="14.1" height="6.09" transform="translate(669.35 510.3) rotate(180)" style="fill:#263238"></rect><rect x="327.63" y="265.11" width="14.1" height="6.09" transform="translate(669.35 536.3) rotate(180)" style="fill:#263238"></rect><rect x="327.63" y="278.11" width="14.1" height="6.09" transform="translate(669.35 562.3) rotate(180)" style="fill:#263238"></rect><rect x="327.63" y="291.11" width="14.1" height="6.09" transform="translate(669.35 588.3) rotate(180)" style="fill:#263238"></rect><rect x="327.63" y="304.11" width="14.1" height="6.09" transform="translate(669.35 614.3) rotate(180)" style="fill:#263238"></rect><rect x="439.71" y="265.11" width="14.1" height="6.09" transform="translate(893.51 536.3) rotate(180)" style="fill:#263238"></rect><rect x="439.71" y="278.11" width="14.1" height="6.09" transform="translate(893.51 562.3) rotate(180)" style="fill:#263238"></rect><rect x="439.71" y="291.11" width="14.1" height="6.09" transform="translate(893.51 588.3) rotate(180)" style="fill:#263238"></rect><rect x="439.71" y="304.11" width="14.1" height="6.09" transform="translate(893.51 614.3) rotate(180)" style="fill:#263238"></rect><rect x="419.43" y="265.11" width="14.1" height="6.09" transform="translate(852.96 536.3) rotate(180)" style="fill:#263238"></rect><rect x="419.43" y="278.11" width="14.1" height="6.09" transform="translate(852.96 562.3) rotate(180)" style="fill:#263238"></rect><rect x="419.43" y="291.11" width="14.1" height="6.09" transform="translate(852.96 588.3) rotate(180)" style="fill:#263238"></rect><rect x="419.43" y="304.11" width="14.1" height="6.09" transform="translate(852.96 614.3) rotate(180)" style="fill:#263238"></rect><rect x="399.2" y="265.11" width="14.1" height="6.09" transform="translate(812.5 536.3) rotate(180)" style="fill:#263238"></rect><rect x="399.2" y="278.11" width="14.1" height="6.09" transform="translate(812.5 562.3) rotate(180)" style="fill:#263238"></rect><rect x="399.2" y="291.11" width="14.1" height="6.09" transform="translate(812.5 588.3) rotate(180)" style="fill:#263238"></rect><rect x="399.2" y="304.11" width="14.1" height="6.09" transform="translate(812.5 614.3) rotate(180)" style="fill:#263238"></rect><rect x="298.41" y="226.11" width="14.1" height="6.09" transform="translate(610.91 458.31) rotate(180)" style="fill:#263238"></rect><rect x="298.41" y="239.11" width="14.1" height="6.09" transform="translate(610.91 484.31) rotate(180)" style="fill:#263238"></rect><rect x="298.41" y="252.11" width="14.1" height="6.09" transform="translate(610.91 510.3) rotate(180)" style="fill:#263238"></rect><rect x="298.41" y="265.11" width="14.1" height="6.09" transform="translate(610.91 536.3) rotate(180)" style="fill:#263238"></rect><rect x="298.41" y="278.11" width="14.1" height="6.09" transform="translate(610.91 562.3) rotate(180)" style="fill:#263238"></rect><rect x="298.41" y="291.11" width="14.1" height="6.09" transform="translate(610.91 588.3) rotate(180)" style="fill:#263238"></rect><rect x="298.41" y="304.11" width="14.1" height="6.09" transform="translate(610.91 614.3) rotate(180)" style="fill:#263238"></rect><rect x="351.11" y="182.72" width="2.54" height="33.9" style="fill:#c7c7c7"></rect><rect x="353.66" y="182.72" width="2.54" height="33.9" style="fill:#dbdbdb"></rect><rect x="316.6" y="182.72" width="2.54" height="33.9" style="fill:#c7c7c7"></rect><rect x="319.14" y="182.72" width="2.54" height="33.9" style="fill:#dbdbdb"></rect><rect x="385.63" y="182.72" width="2.54" height="33.9" style="fill:#c7c7c7"></rect><rect x="388.17" y="182.72" width="2.54" height="33.9" style="fill:#dbdbdb"></rect><rect x="422.69" y="225.2" width="2.54" height="33.9" style="fill:#c7c7c7"></rect><rect x="425.23" y="225.2" width="2.54" height="33.9" style="fill:#dbdbdb"></rect><rect x="457.21" y="225.2" width="2.54" height="33.9" style="fill:#c7c7c7"></rect><rect x="459.75" y="225.2" width="2.54" height="33.9" style="fill:#dbdbdb"></rect><rect x="291.77" y="182.72" width="2.54" height="33.9" style="fill:#c7c7c7"></rect><rect x="294.32" y="182.72" width="2.54" height="33.9" style="fill:#dbdbdb"></rect></g><g id="freepik--crane-1--inject-6"><polygon points="198.78 301.7 190.43 308.12 203.08 326.06 193.82 332.86 195.28 335.89 210.35 326.4 198.78 301.7" style="fill:#37474f"></polygon><polygon points="141.09 230.67 119.23 269.38 119.23 305.46 142.09 251.64 146.3 251.64 189.97 306.26 193.78 306.26 147.31 230.67 141.09 230.67" style="fill:#455a64"></polygon><rect x="74.52" y="290.91" width="53.4" height="23.67" rx="3.18" transform="translate(202.45 605.5) rotate(180)" style="fill:#455a64"></rect><rect x="77.93" y="264.62" width="4.61" height="31.42" transform="translate(160.47 560.66) rotate(180)" style="fill:#455a64"></rect><path d="M129.7,304.31H87.91V258H115.2a9.54,9.54,0,0,1,9.46,8.28l5,38Z" style="fill:#FFC727"></path><path d="M119,290.25H99.41a2.13,2.13,0,0,1-.63-.09A2.22,2.22,0,0,1,97.21,288V263.32h13.94a6.56,6.56,0,0,1,1.39.14,7.49,7.49,0,0,1,4.55,2.64,7.73,7.73,0,0,1,1.75,4l2.35,17.67A2.22,2.22,0,0,1,119,290.25Z" style="fill:#fff"></path><g style="opacity:0.5"><path d="M120.19,280.22l-17.09-16.9h8.05a6.56,6.56,0,0,1,1.39.14,6.79,6.79,0,0,1,1.27.34h0l4.58,4.53a7.65,7.65,0,0,1,.44,1.74Z" style="fill:#ebebeb"></path><path d="M119.12,290.24h-6.25L97.21,274.77V268.6Z" style="fill:#ebebeb"></path><polygon points="110.41 290.25 109.46 290.25 97.21 278.14 97.21 277.2 110.41 290.25" style="fill:#ebebeb"></polygon></g><path d="M187.51,308.57a4.11,4.11,0,1,0,4.11-4.11A4.11,4.11,0,0,0,187.51,308.57Z" style="fill:#455a64"></path><path d="M189.71,308.57a1.91,1.91,0,1,0,1.91-1.9A1.91,1.91,0,0,0,189.71,308.57Z" style="fill:#37474f"></path><path d="M78.34,295.64a1.9,1.9,0,1,0,1.9-1.9A1.9,1.9,0,0,0,78.34,295.64Z" style="fill:#37474f"></path><path d="M78.34,302.41a1.9,1.9,0,1,0,1.9-1.9A1.9,1.9,0,0,0,78.34,302.41Z" style="fill:#37474f"></path><path d="M142.3,244.52a1.9,1.9,0,1,0,1.9-1.9A1.9,1.9,0,0,0,142.3,244.52Z" style="fill:#37474f"></path><path d="M142.3,237.41a1.9,1.9,0,1,0,1.9-1.9A1.91,1.91,0,0,0,142.3,237.41Z" style="fill:#37474f"></path><rect x="80.24" y="314.59" width="33.98" height="4.21" transform="translate(194.45 633.38) rotate(180)" style="fill:#37474f"></rect><path d="M62.3,318.8h81.36a10.45,10.45,0,1,1,0,20.9H62.3a10.45,10.45,0,0,1,0-20.9Z" style="fill:#37474f"></path><path d="M62.75,321.85h80.47a7.4,7.4,0,1,1,0,14.8H62.75a7.4,7.4,0,0,1,0-14.8Z" style="fill:#263238"></path><path d="M114.82,329.25a5.42,5.42,0,1,0,5.41-5.42A5.41,5.41,0,0,0,114.82,329.25Z" style="fill:#37474f"></path><path d="M97.57,329.25a5.42,5.42,0,1,0,5.41-5.42A5.41,5.41,0,0,0,97.57,329.25Z" style="fill:#37474f"></path><path d="M132.07,329.25a5.42,5.42,0,1,0,5.42-5.42A5.42,5.42,0,0,0,132.07,329.25Z" style="fill:#37474f"></path><path d="M80.32,329.25a5.42,5.42,0,1,0,5.41-5.42A5.41,5.41,0,0,0,80.32,329.25Z" style="fill:#37474f"></path><path d="M63.07,329.25a5.42,5.42,0,1,0,5.41-5.42A5.41,5.41,0,0,0,63.07,329.25Z" style="fill:#37474f"></path><polygon points="191.07 306.92 192.16 306.42 163.84 244.14 147.27 230.77 146.51 231.7 162.86 244.9 191.07 306.92" style="fill:#455a64"></polygon></g><g id="freepik--crane-2--inject-6"><rect x="478.81" y="110.2" width="2.2" height="22.54" transform="translate(47.42 362.35) rotate(-43.32)" style="fill:#455a64"></rect><rect x="471.8" y="129.26" width="15.84" height="2.2" style="fill:#455a64"></rect><rect x="471.8" y="112.17" width="15.84" height="2.2" style="fill:#455a64"></rect><rect x="468.64" y="120.37" width="22.54" height="2.2" transform="translate(62.34 387.38) rotate(-46.69)" style="fill:#455a64"></rect><rect x="478.81" y="127.29" width="2.2" height="22.54" transform="translate(35.7 367.01) rotate(-43.32)" style="fill:#455a64"></rect><rect x="471.8" y="146.35" width="15.84" height="2.2" style="fill:#455a64"></rect><rect x="471.8" y="129.26" width="15.84" height="2.2" style="fill:#455a64"></rect><rect x="468.64" y="137.46" width="22.54" height="2.2" transform="translate(49.91 392.75) rotate(-46.69)" style="fill:#455a64"></rect><rect x="478.81" y="144.38" width="2.2" height="22.54" transform="translate(23.98 371.66) rotate(-43.32)" style="fill:#455a64"></rect><rect x="471.8" y="163.43" width="15.84" height="2.2" style="fill:#455a64"></rect><rect x="471.8" y="146.35" width="15.84" height="2.2" style="fill:#455a64"></rect><rect x="468.64" y="154.55" width="22.54" height="2.2" transform="translate(37.48 398.11) rotate(-46.69)" style="fill:#455a64"></rect><rect x="478.81" y="161.46" width="2.2" height="22.54" transform="translate(12.25 376.32) rotate(-43.32)" style="fill:#455a64"></rect><rect x="471.8" y="180.52" width="15.84" height="2.2" style="fill:#455a64"></rect><rect x="471.8" y="163.43" width="15.84" height="2.2" style="fill:#455a64"></rect><rect x="468.64" y="171.63" width="22.54" height="2.2" transform="translate(25.04 403.48) rotate(-46.69)" style="fill:#455a64"></rect><rect x="478.81" y="178.55" width="2.2" height="22.54" transform="translate(0.53 380.98) rotate(-43.32)" style="fill:#455a64"></rect><rect x="471.8" y="197.61" width="15.84" height="2.2" style="fill:#455a64"></rect><rect x="471.8" y="180.52" width="15.84" height="2.2" style="fill:#455a64"></rect><rect x="468.64" y="188.72" width="22.54" height="2.2" transform="translate(12.61 408.85) rotate(-46.69)" style="fill:#455a64"></rect><rect x="478.81" y="195.64" width="2.2" height="22.54" transform="translate(-11.2 385.61) rotate(-43.32)" style="fill:#455a64"></rect><rect x="471.8" y="214.69" width="15.84" height="2.2" style="fill:#455a64"></rect><rect x="471.8" y="197.61" width="15.84" height="2.2" style="fill:#455a64"></rect><rect x="468.64" y="205.81" width="22.54" height="2.2" transform="translate(0.17 414.21) rotate(-46.69)" style="fill:#455a64"></rect><rect x="478.81" y="212.72" width="2.2" height="22.54" transform="translate(-22.92 390.29) rotate(-43.32)" style="fill:#455a64"></rect><rect x="471.8" y="231.78" width="15.84" height="2.2" style="fill:#455a64"></rect><rect x="471.8" y="214.69" width="15.84" height="2.2" style="fill:#455a64"></rect><rect x="468.64" y="222.9" width="22.54" height="2.2" transform="translate(-12.26 419.58) rotate(-46.69)" style="fill:#455a64"></rect><rect x="478.81" y="229.81" width="2.2" height="22.54" transform="translate(-34.64 394.94) rotate(-43.32)" style="fill:#455a64"></rect><rect x="471.8" y="248.87" width="15.84" height="2.2" style="fill:#455a64"></rect><rect x="471.8" y="231.78" width="15.84" height="2.2" style="fill:#455a64"></rect><rect x="468.64" y="239.98" width="22.54" height="2.2" transform="translate(-24.69 424.95) rotate(-46.69)" style="fill:#455a64"></rect><rect x="478.81" y="246.9" width="2.2" height="22.54" transform="translate(-46.35 399.63) rotate(-43.32)" style="fill:#455a64"></rect><rect x="471.8" y="265.96" width="15.84" height="2.2" style="fill:#455a64"></rect><rect x="471.8" y="248.87" width="15.84" height="2.2" style="fill:#455a64"></rect><rect x="468.64" y="257.07" width="22.54" height="2.2" transform="translate(-37.13 430.32) rotate(-46.69)" style="fill:#455a64"></rect><rect x="478.81" y="263.98" width="2.2" height="22.54" transform="translate(-58.13 404.06) rotate(-43.3)" style="fill:#455a64"></rect><rect x="471.8" y="283.04" width="15.84" height="2.2" style="fill:#455a64"></rect><rect x="471.8" y="265.96" width="15.84" height="2.2" style="fill:#455a64"></rect><rect x="468.64" y="274.16" width="22.54" height="2.2" transform="translate(-49.57 435.67) rotate(-46.69)" style="fill:#455a64"></rect><rect x="478.81" y="281.07" width="2.2" height="22.54" transform="translate(-69.85 408.71) rotate(-43.3)" style="fill:#455a64"></rect><rect x="471.8" y="300.13" width="15.84" height="2.2" style="fill:#455a64"></rect><rect x="471.8" y="283.04" width="15.84" height="2.2" style="fill:#455a64"></rect><rect x="468.64" y="291.24" width="22.54" height="2.2" transform="translate(-62 441.05) rotate(-46.69)" style="fill:#455a64"></rect><rect x="475.07" y="295.21" width="9.95" height="19.32" transform="translate(784.92 -175.17) rotate(90)" style="fill:#455a64"></rect><rect x="394" y="204.81" width="187.46" height="3.96" transform="translate(694.52 -280.93) rotate(90)" style="fill:#455a64"></rect><rect x="378.64" y="204.81" width="187.46" height="3.96" transform="translate(679.16 -265.57) rotate(90)" style="fill:#455a64"></rect><polygon points="318.16 111.73 335.27 94.87 479.69 67.95 523.58 94.99 524.73 93.12 480.12 65.64 334.21 92.83 316.62 110.16 318.16 111.73" style="fill:#455a64"></polygon><polygon points="462.28 97.23 479.87 72.78 496.7 97.2 500.32 94.7 479.94 65.16 458.71 94.67 462.28 97.23" style="fill:#263238"></polygon><rect x="332.67" y="104.24" width="22.54" height="2.2" transform="translate(21.41 264.59) rotate(-43.31)" style="fill:#455a64"></rect><rect x="333.95" y="97.23" width="2.2" height="15.84" style="fill:#455a64"></rect><rect x="351.04" y="97.23" width="2.2" height="15.84" style="fill:#455a64"></rect><rect x="342.84" y="94.07" width="2.2" height="22.54" transform="translate(31.36 283.33) rotate(-46.69)" style="fill:#455a64"></rect><rect x="349.76" y="104.24" width="22.54" height="2.2" transform="translate(26.06 276.31) rotate(-43.31)" style="fill:#455a64"></rect><rect x="351.04" y="97.23" width="2.2" height="15.84" style="fill:#455a64"></rect><rect x="368.13" y="97.23" width="2.2" height="15.84" style="fill:#455a64"></rect><rect x="359.93" y="94.07" width="2.2" height="22.54" transform="translate(36.71 295.75) rotate(-46.68)" style="fill:#455a64"></rect><rect x="366.84" y="104.24" width="22.54" height="2.2" transform="translate(30.71 288.03) rotate(-43.31)" style="fill:#455a64"></rect><rect x="368.13" y="97.23" width="2.2" height="15.84" style="fill:#455a64"></rect><rect x="385.21" y="97.23" width="2.2" height="15.84" style="fill:#455a64"></rect><rect x="377.01" y="94.07" width="2.2" height="22.54" transform="translate(42.08 308.19) rotate(-46.68)" style="fill:#455a64"></rect><rect x="383.93" y="104.24" width="22.54" height="2.2" transform="translate(35.36 299.75) rotate(-43.31)" style="fill:#455a64"></rect><rect x="385.21" y="97.23" width="2.2" height="15.84" style="fill:#455a64"></rect><rect x="402.3" y="97.23" width="2.2" height="15.84" style="fill:#455a64"></rect><rect x="394.1" y="94.07" width="2.2" height="22.54" transform="translate(47.44 320.62) rotate(-46.68)" style="fill:#455a64"></rect><rect x="401.02" y="104.24" width="22.54" height="2.2" transform="translate(40.02 311.47) rotate(-43.31)" style="fill:#455a64"></rect><rect x="402.3" y="97.23" width="2.2" height="15.84" style="fill:#455a64"></rect><rect x="419.39" y="97.23" width="2.2" height="15.84" style="fill:#455a64"></rect><rect x="411.19" y="94.07" width="2.2" height="22.54" transform="translate(52.79 333.03) rotate(-46.68)" style="fill:#455a64"></rect><rect x="418.1" y="104.24" width="22.54" height="2.2" transform="translate(44.67 323.19) rotate(-43.31)" style="fill:#455a64"></rect><rect x="419.39" y="97.23" width="2.2" height="15.84" style="fill:#455a64"></rect><rect x="436.48" y="97.23" width="2.2" height="15.84" style="fill:#455a64"></rect><rect x="428.28" y="94.07" width="2.2" height="22.54" transform="translate(58.17 345.47) rotate(-46.68)" style="fill:#455a64"></rect><rect x="435.19" y="104.24" width="22.54" height="2.2" transform="translate(49.32 334.91) rotate(-43.31)" style="fill:#455a64"></rect><rect x="436.48" y="97.23" width="2.2" height="15.84" style="fill:#455a64"></rect><rect x="453.56" y="97.23" width="2.2" height="15.84" style="fill:#455a64"></rect><rect x="445.36" y="94.07" width="2.2" height="22.54" transform="translate(63.53 357.9) rotate(-46.68)" style="fill:#455a64"></rect><rect x="452.28" y="104.24" width="22.54" height="2.2" transform="translate(53.97 346.63) rotate(-43.31)" style="fill:#455a64"></rect><rect x="453.56" y="97.23" width="2.2" height="15.84" style="fill:#455a64"></rect><rect x="470.65" y="97.23" width="2.2" height="15.84" style="fill:#455a64"></rect><rect x="462.45" y="94.07" width="2.2" height="22.54" transform="translate(68.9 370.34) rotate(-46.68)" style="fill:#455a64"></rect><rect x="469.36" y="104.24" width="22.54" height="2.2" transform="translate(58.63 358.35) rotate(-43.31)" style="fill:#455a64"></rect><rect x="470.65" y="97.23" width="2.2" height="15.84" style="fill:#455a64"></rect><rect x="487.74" y="97.23" width="2.2" height="15.84" style="fill:#455a64"></rect><rect x="479.54" y="94.07" width="2.2" height="22.54" transform="translate(74.27 382.78) rotate(-46.68)" style="fill:#455a64"></rect><rect x="486.45" y="104.24" width="22.54" height="2.2" transform="translate(63.28 370.07) rotate(-43.31)" style="fill:#455a64"></rect><rect x="487.74" y="97.23" width="2.2" height="15.84" style="fill:#455a64"></rect><rect x="504.82" y="97.23" width="2.2" height="15.84" style="fill:#455a64"></rect><rect x="496.62" y="94.07" width="2.2" height="22.54" transform="translate(79.63 395.2) rotate(-46.68)" style="fill:#455a64"></rect><rect x="503.54" y="104.24" width="22.54" height="2.2" transform="translate(67.93 381.79) rotate(-43.31)" style="fill:#455a64"></rect><rect x="504.82" y="97.23" width="2.2" height="15.84" style="fill:#455a64"></rect><rect x="521.91" y="97.23" width="2.2" height="15.84" style="fill:#455a64"></rect><rect x="513.71" y="94.07" width="2.2" height="22.54" transform="translate(84.99 407.63) rotate(-46.68)" style="fill:#455a64"></rect><rect x="524.76" y="93.09" width="9.94" height="22.84" transform="translate(1059.45 209.02) rotate(180)" style="fill:#263238"></rect><rect x="514.81" y="93.09" width="9.95" height="22.84" transform="translate(1039.56 209.02) rotate(180)" style="fill:#455a64"></rect><rect x="501.67" y="114.17" width="19.08" height="11.39" transform="translate(1022.41 239.73) rotate(180)" style="fill:#455a64"></rect><rect x="316.63" y="110.21" width="208.13" height="3.96" transform="translate(841.38 224.37) rotate(180)" style="fill:#455a64"></rect><polygon points="328.14 98.81 524.76 98.81 524.76 94.85 332.17 94.85 328.14 98.81" style="fill:#455a64"></polygon><rect x="330.21" y="97.23" width="2.2" height="15.84" style="fill:#455a64"></rect><rect x="356.7" y="116.5" width="2.2" height="52.42" style="fill:#263238"></rect><rect x="338.12" y="117.23" width="2.2" height="52.42" style="fill:#263238"></rect><rect x="333.88" y="114.17" width="28.96" height="4.67" transform="translate(696.71 233.01) rotate(180)" style="fill:#455a64"></rect><path d="M347.26,174.38l.24,4.87.7-.84a8.11,8.11,0,0,0-2.21,1,5.36,5.36,0,0,0-1.74,1.71,4.34,4.34,0,0,0,.12,4.64,4.53,4.53,0,0,0,3.92,2,4.73,4.73,0,0,0,3.63-2.16,4.56,4.56,0,0,1-3.63,1.74,3.9,3.9,0,0,1-3.19-2,3.28,3.28,0,0,1,.22-3.48,5.1,5.1,0,0,1,3.19-1.7l.66-.11,0-.73.24-4.87Z" style="fill:#263238"></path><polygon points="333.88 164.39 333.88 172.34 348.36 175.78 362.83 172.34 362.83 164.39 333.88 164.39" style="fill:#455a64"></polygon><path d="M356.19,169.05a1.68,1.68,0,1,0,1.68-1.68A1.68,1.68,0,0,0,356.19,169.05Z" style="fill:#263238"></path><path d="M337.16,169.05a1.68,1.68,0,1,0,1.68-1.68A1.68,1.68,0,0,0,337.16,169.05Z" style="fill:#263238"></path><polygon points="306.4 191.82 316.86 190.51 327.31 189.28 348.25 186.94 348.29 186.93 348.33 186.94 369.33 189.28 379.82 190.51 390.3 191.82 379.78 190.88 369.27 189.85 348.25 187.68 348.33 187.68 327.38 189.85 316.89 190.88 306.4 191.82" style="fill:#263238"></polygon><rect x="347.08" y="151.14" width="2.54" height="83.9" transform="translate(541.45 -155.26) rotate(90)" style="fill:#c7c7c7"></rect><rect x="347.08" y="153.69" width="2.54" height="83.9" transform="translate(543.99 -152.72) rotate(90)" style="fill:#dbdbdb"></rect><path d="M476.2,66.8a3.71,3.71,0,1,0,3.71-3.71A3.71,3.71,0,0,0,476.2,66.8Z" style="fill:#a6a6a6"></path><path d="M478.17,66.8a1.74,1.74,0,1,0,1.74-1.73A1.74,1.74,0,0,0,478.17,66.8Z" style="fill:#455a64"></path><rect x="464.06" y="309.85" width="31.98" height="7.56" transform="translate(960.09 627.25) rotate(180)" style="fill:#263238"></rect><rect x="457.13" y="317.41" width="45.84" height="14.82" transform="translate(960.09 649.63) rotate(180)" style="fill:#455a64"></rect><path d="M461.45,129.15h34.22V91.27H473.33a7.79,7.79,0,0,0-7.74,6.78Z" style="fill:#FFC727"></path><path d="M470.76,117.63h16.05a1.7,1.7,0,0,0,.51-.07,1.81,1.81,0,0,0,1.29-1.74V95.59H477.2a5.38,5.38,0,0,0-1.14.11,6.23,6.23,0,0,0-2.4,1,6.46,6.46,0,0,0-2.76,4.46L469,115.58A1.82,1.82,0,0,0,470.76,117.63Z" style="fill:#fff"></path><g style="opacity:0.5"><path d="M483.74,95.59,469.8,109.36l1.1-8.25a6.32,6.32,0,0,1,1-2.6v0l2-1.94a6.15,6.15,0,0,1,2.23-.85,5.38,5.38,0,0,1,1.14-.11Z" style="fill:#ebebeb"></path><polygon points="488.61 100.45 488.61 105.86 476.7 117.63 471.23 117.63 488.61 100.45" style="fill:#ebebeb"></polygon><polygon points="488.61 107.98 488.61 108.8 479.68 117.63 478.84 117.63 488.61 107.98" style="fill:#ebebeb"></polygon></g></g><g id="freepik--Sand--inject-6"><path d="M177.26,333.46H306.85S248.34,267.71,177.26,333.46Z" style="fill:#FFC727"></path><path d="M177.26,333.46H306.85S248.34,267.71,177.26,333.46Z" style="opacity:0.30000000000000004"></path><path d="M254.31,324.06a1.31,1.31,0,1,0-1.31,1.31A1.31,1.31,0,0,0,254.31,324.06Z" style="opacity:0.1"></path><path d="M225.48,313.54a1.31,1.31,0,1,0-1.31,1.31A1.31,1.31,0,0,0,225.48,313.54Z" style="opacity:0.1"></path><path d="M229.48,321.82a1.31,1.31,0,1,0-1.31,1.31A1.31,1.31,0,0,0,229.48,321.82Z" style="opacity:0.1"></path><path d="M203,319.64a1.31,1.31,0,1,0-1.3,1.3A1.31,1.31,0,0,0,203,319.64Z" style="opacity:0.1"></path><path d="M279,329.24a1.31,1.31,0,1,0-2.61,0,1.31,1.31,0,0,0,2.61,0Z" style="opacity:0.1"></path><path d="M230.78,330.54a1.31,1.31,0,0,0-2.61,0,1.31,1.31,0,1,0,2.61,0Z" style="opacity:0.1"></path><path d="M261.05,327.45a.94.94,0,1,0-.94.93A.93.93,0,0,0,261.05,327.45Z" style="opacity:0.1"></path><path d="M235.62,318.71a.94.94,0,1,0-.93.93A.94.94,0,0,0,235.62,318.71Z" style="opacity:0.1"></path><path d="M267.68,316.29a.93.93,0,1,0-.93.93A.92.92,0,0,0,267.68,316.29Z" style="opacity:0.1"></path><path d="M291.77,325.37a.93.93,0,1,0-.93.93A.93.93,0,0,0,291.77,325.37Z" style="opacity:0.1"></path><path d="M143.1,349.36h89.52S192.2,304,143.1,349.36Z" style="fill:#FFC727"></path><path d="M143.1,349.36h89.52S192.2,304,143.1,349.36Z" style="opacity:0.1"></path><path d="M194.6,341.53a1.31,1.31,0,1,0,1.3-1.3A1.3,1.3,0,0,0,194.6,341.53Z" style="opacity:0.1"></path><path d="M219.43,343.77a1.31,1.31,0,1,0,1.3-1.3A1.31,1.31,0,0,0,219.43,343.77Z" style="opacity:0.1"></path><path d="M169.89,336.36a1.31,1.31,0,1,0,1.31-1.31A1.31,1.31,0,0,0,169.89,336.36Z" style="opacity:0.1"></path><path d="M187.86,338.15a.94.94,0,1,0,.93-.94A.93.93,0,0,0,187.86,338.15Z" style="opacity:0.1"></path><path d="M213.29,346.89a.94.94,0,1,0,.93-.93A.93.93,0,0,0,213.29,346.89Z" style="opacity:0.1"></path><path d="M162.79,343.77a.94.94,0,1,0,.93-.93A.94.94,0,0,0,162.79,343.77Z" style="opacity:0.1"></path><path d="M485.17,332.84h89.52S534.28,287.43,485.17,332.84Z" style="fill:#FFC727"></path><path d="M485.17,332.84h89.52S534.28,287.43,485.17,332.84Z" style="opacity:0.1"></path><path d="M536.68,325a1.3,1.3,0,1,0,1.3-1.3A1.31,1.31,0,0,0,536.68,325Z" style="opacity:0.1"></path><path d="M561.5,327.25a1.31,1.31,0,1,0,1.31-1.31A1.31,1.31,0,0,0,561.5,327.25Z" style="opacity:0.1"></path><path d="M512,319.83a1.31,1.31,0,1,0,1.3-1.3A1.3,1.3,0,0,0,512,319.83Z" style="opacity:0.1"></path><path d="M529.93,321.62a.94.94,0,1,0,.94-.93A.94.94,0,0,0,529.93,321.62Z" style="opacity:0.1"></path><path d="M555.36,330.37a.94.94,0,1,0,.94-.94A.94.94,0,0,0,555.36,330.37Z" style="opacity:0.1"></path><path d="M504.87,327.25a.93.93,0,1,0,.93-.93A.92.92,0,0,0,504.87,327.25Z" style="opacity:0.1"></path><path d="M279.56,343.57h67.28S316.46,309.44,279.56,343.57Z" style="fill:#FFC727"></path><path d="M279.56,343.57h67.28S316.46,309.44,279.56,343.57Z" style="opacity:0.1"></path><path d="M318.27,337.69a1,1,0,1,0,1-1A1,1,0,0,0,318.27,337.69Z" style="opacity:0.1"></path><path d="M336.93,339.37a1,1,0,1,0,1-1A1,1,0,0,0,336.93,339.37Z" style="opacity:0.1"></path><path d="M299.7,333.8a1,1,0,1,0,1-1A1,1,0,0,0,299.7,333.8Z" style="opacity:0.1"></path><path d="M313.2,335.14a.71.71,0,1,0,.7-.7A.7.7,0,0,0,313.2,335.14Z" style="opacity:0.1"></path><path d="M332.31,341.71a.71.71,0,1,0,.7-.7A.7.7,0,0,0,332.31,341.71Z" style="opacity:0.1"></path><path d="M294.36,339.37a.71.71,0,1,0,.7-.7A.7.7,0,0,0,294.36,339.37Z" style="opacity:0.1"></path><path d="M547.79,339.34h69.79S586.07,303.94,547.79,339.34Z" style="fill:#FFC727"></path><path d="M547.79,339.34h69.79S586.07,303.94,547.79,339.34Z" style="opacity:0.30000000000000004"></path><path d="M589.29,334.28a.71.71,0,0,0-.71-.7.71.71,0,0,0,0,1.41A.71.71,0,0,0,589.29,334.28Z" style="opacity:0.1"></path><path d="M573.76,328.62a.71.71,0,1,0-.7.7A.7.7,0,0,0,573.76,328.62Z" style="opacity:0.1"></path><path d="M575.91,333.08a.7.7,0,1,0-1.4,0,.7.7,0,0,0,1.4,0Z" style="opacity:0.1"></path><path d="M561.64,331.9a.71.71,0,1,0-.7.7A.7.7,0,0,0,561.64,331.9Z" style="opacity:0.1"></path><path d="M602.59,337.07a.7.7,0,1,0-.7.7A.7.7,0,0,0,602.59,337.07Z" style="opacity:0.1"></path><circle cx="575.91" cy="337.77" r="0.7" style="opacity:0.1"></circle><path d="M592.92,336.11a.51.51,0,1,0-1,0,.51.51,0,0,0,1,0Z" style="opacity:0.1"></path><path d="M579.22,331.4a.5.5,0,0,0-.5-.5.5.5,0,1,0,0,1A.5.5,0,0,0,579.22,331.4Z" style="opacity:0.1"></path><path d="M596.49,330.1a.51.51,0,1,0-.5.5A.5.5,0,0,0,596.49,330.1Z" style="opacity:0.1"></path><path d="M609.46,335a.5.5,0,1,0-.5.5A.5.5,0,0,0,609.46,335Z" style="opacity:0.1"></path></g><g id="freepik--fence-2--inject-6"><polygon points="652.22 326.94 651.89 329.27 651.54 331.78 648.32 354.63 643.05 354.63 646.27 331.78 646.62 329.27 646.95 326.94 652.22 326.94" style="fill:#FFC727"></polygon><path d="M651.46,326.94c-.28,2.31-.58,4.63-.88,6.94l-.93,6.92-1,6.92-.51,3.46-.52,3.45.43-3.47.45-3.46.93-6.93,1-6.92Q650.92,330.39,651.46,326.94Z" style="opacity:0.1"></path><polygon points="651.89 329.27 651.54 331.78 646.27 331.78 646.62 329.27 651.89 329.27" style="opacity:0.1"></polygon><polygon points="678.24 326.94 678.56 329.27 678.92 331.78 682.14 354.63 687.41 354.63 684.19 331.78 683.83 329.27 683.5 326.94 678.24 326.94" style="fill:#FFC727"></polygon><path d="M679,326.94c.28,2.31.58,4.63.88,6.94l.93,6.92,1,6.92.5,3.46.52,3.45-.43-3.47-.45-3.46-.93-6.93-1-6.92Q679.55,330.39,679,326.94Z" style="opacity:0.1"></path><polygon points="678.56 329.27 683.83 329.27 684.19 331.78 678.92 331.78 678.56 329.27" style="opacity:0.1"></polygon><polygon points="652.03 322.14 647.85 322.14 648.37 318.25 651.51 318.25 652.03 322.14" style="fill:#FFC727"></polygon><polygon points="652.03 322.14 647.85 322.14 648.37 318.25 651.51 318.25 652.03 322.14" style="opacity:0.1"></polygon><path d="M653.83,315.47a3.89,3.89,0,1,1-3.89-3.9A3.89,3.89,0,0,1,653.83,315.47Z" style="fill:#FFC727"></path><path d="M652.9,315.47a3,3,0,1,1-3-3A3,3,0,0,1,652.9,315.47Z" style="fill:#fff"></path><path d="M652.41,315.3a2.57,2.57,0,0,0-1-1.82,2.61,2.61,0,0,0-2-.52,2.48,2.48,0,0,0-1.72,1.11,2.62,2.62,0,0,0-.31,2.13,2.48,2.48,0,0,0,1.16,1.47,2.61,2.61,0,0,0,1.81.28,2.71,2.71,0,0,0,1.52-.93,2.86,2.86,0,0,0,.63-1.65s0-.06,0-.06,0,0,0,.06a2.87,2.87,0,0,1-.13.71,3,3,0,0,1-.33.64,2.47,2.47,0,0,1-.49.53,2.79,2.79,0,0,1-.61.4,2.49,2.49,0,0,1-2,.05,2.46,2.46,0,0,1-1.11-3.58,2.4,2.4,0,0,1,1.66-1.09,2.59,2.59,0,0,1,2.46,1,3.34,3.34,0,0,1,.33.62,3.14,3.14,0,0,1,.15.69h0Z" style="fill:#FFC727"></path><path d="M652.07,315.3a2.22,2.22,0,0,0-2.54-2,2.13,2.13,0,0,0-1.48.94,2.24,2.24,0,0,0-.29,1.85,2.11,2.11,0,0,0,1,1.28,2.28,2.28,0,0,0,2.9-.58,2.47,2.47,0,0,0,.54-1.43s0-.05,0-.05,0,0,0,.05a2.38,2.38,0,0,1-1.35,2,2.11,2.11,0,0,1-2.94-1.25,2.18,2.18,0,0,1,.24-1.79,2,2,0,0,1,1.44-.92,2.22,2.22,0,0,1,2.09.83,2,2,0,0,1,.28.52,2.31,2.31,0,0,1,.14.59h0Z" style="fill:#FFC727"></path><path d="M651.72,315.3A1.84,1.84,0,0,0,651,314a1.9,1.9,0,0,0-1.41-.38,1.77,1.77,0,0,0-1.25.77,1.88,1.88,0,0,0-.26,1.56,1.72,1.72,0,0,0,.85,1.1,1.87,1.87,0,0,0,1.35.19,2,2,0,0,0,1.11-.7,2.09,2.09,0,0,0,.45-1.21s0,0,0,0a0,0,0,0,0,0,0,2,2,0,0,1-1.14,1.66,1.76,1.76,0,0,1-1.47.05,1.71,1.71,0,0,1-1-1.1,1.82,1.82,0,0,1,.21-1.5,1.69,1.69,0,0,1,1.21-.75,2,2,0,0,1,.95.11,1.74,1.74,0,0,1,.78.57,1.82,1.82,0,0,1,.24.43,2.72,2.72,0,0,1,.13.49h0Z" style="fill:#FFC727"></path><path d="M651.37,315.3a1.47,1.47,0,0,0-.58-1,1.57,1.57,0,0,0-1.12-.32,1.53,1.53,0,0,0-1,.61,1.57,1.57,0,0,0-.24,1.28,1.46,1.46,0,0,0,.7.91,1.56,1.56,0,0,0,1.12.15,1.69,1.69,0,0,0,.91-.58,1.8,1.8,0,0,0,.37-1s0,0,0,0l0,0a1.67,1.67,0,0,1-.92,1.35,1.44,1.44,0,0,1-1.2.06,1.4,1.4,0,0,1-.82-.91,1.49,1.49,0,0,1,.2-1.21,1.35,1.35,0,0,1,1-.59,1.69,1.69,0,0,1,.75.1,1.42,1.42,0,0,1,.62.44,1.68,1.68,0,0,1,.2.34,1.6,1.6,0,0,1,.11.39h0S651.38,315.31,651.37,315.3Z" style="fill:#FFC727"></path><polygon points="682.51 322.14 678.34 322.14 678.86 318.25 682 318.25 682.51 322.14" style="fill:#FFC727"></polygon><polygon points="682.51 322.14 678.34 322.14 678.86 318.25 682 318.25 682.51 322.14" style="opacity:0.1"></polygon><path d="M684.32,315.47a3.9,3.9,0,1,1-3.89-3.9A3.89,3.89,0,0,1,684.32,315.47Z" style="fill:#FFC727"></path><path d="M683.39,315.47a3,3,0,1,1-3-3A3,3,0,0,1,683.39,315.47Z" style="fill:#fff"></path><path d="M682.9,315.3a2.54,2.54,0,0,0-1-1.82,2.59,2.59,0,0,0-2-.52,2.49,2.49,0,0,0-1.71,1.11,2.62,2.62,0,0,0-.31,2.13,2.44,2.44,0,0,0,1.16,1.47,2.61,2.61,0,0,0,1.81.28,2.74,2.74,0,0,0,1.52-.93,2.84,2.84,0,0,0,.62-1.65s0-.06,0-.06,0,0,0,.06a2.49,2.49,0,0,1-.14.71,3,3,0,0,1-.32.64,2.75,2.75,0,0,1-.49.53,3.06,3.06,0,0,1-.61.4,2.49,2.49,0,0,1-2,.05,2.44,2.44,0,0,1-1.38-1.5,2.55,2.55,0,0,1,.26-2.08A2.4,2.4,0,0,1,680,313a2.56,2.56,0,0,1,2.45,1,2.46,2.46,0,0,1,.33.62,3.15,3.15,0,0,1,.16.69h0Z" style="fill:#FFC727"></path><path d="M682.55,315.3a2.22,2.22,0,0,0-2.54-2,2.15,2.15,0,0,0-1.48.94,2.27,2.27,0,0,0-.28,1.85,2.11,2.11,0,0,0,1,1.28,2.3,2.3,0,0,0,1.58.24,2.39,2.39,0,0,0,1.32-.82,2.54,2.54,0,0,0,.54-1.43s0-.05,0-.05,0,0,0,.05a2.34,2.34,0,0,1-1.35,2,2.1,2.1,0,0,1-2.93-1.25,2.15,2.15,0,0,1,.24-1.79,2,2,0,0,1,1.43-.92,2.21,2.21,0,0,1,2.09.83,2,2,0,0,1,.29.52,2.31,2.31,0,0,1,.14.59h0S682.56,315.3,682.55,315.3Z" style="fill:#FFC727"></path><path d="M682.21,315.3a1.88,1.88,0,0,0-.71-1.28,1.9,1.9,0,0,0-1.41-.38,1.77,1.77,0,0,0-1.25.77,1.92,1.92,0,0,0-.27,1.56,1.78,1.78,0,0,0,.85,1.1,1.89,1.89,0,0,0,1.35.19,1.92,1.92,0,0,0,1.11-.7,2,2,0,0,0,.46-1.21s0,0,0,0,0,0,0,0a2,2,0,0,1-1.14,1.66,1.78,1.78,0,0,1-1.48.05,1.72,1.72,0,0,1-1-1.1,1.78,1.78,0,0,1,.21-1.5,1.69,1.69,0,0,1,1.21-.75,2,2,0,0,1,.95.11,1.74,1.74,0,0,1,.78.57,2.26,2.26,0,0,1,.24.43,2.07,2.07,0,0,1,.12.49h0Z" style="fill:#FFC727"></path><path d="M681.86,315.3a1.47,1.47,0,0,0-.58-1,1.58,1.58,0,0,0-1.12-.32,1.48,1.48,0,0,0-1,.61,1.57,1.57,0,0,0-.24,1.28,1.43,1.43,0,0,0,.7.91,1.55,1.55,0,0,0,1.11.15,1.66,1.66,0,0,0,.91-.58,1.8,1.8,0,0,0,.37-1s0,0,0,0l0,0a1.67,1.67,0,0,1-.92,1.35,1.46,1.46,0,0,1-1.21.06,1.41,1.41,0,0,1-.81-.91,1.49,1.49,0,0,1,.19-1.21,1.37,1.37,0,0,1,1-.59,1.71,1.71,0,0,1,.75.1,1.48,1.48,0,0,1,.62.44,2.33,2.33,0,0,1,.2.34,2.22,2.22,0,0,1,.11.39h0Z" style="fill:#FFC727"></path><rect x="638.97" y="320.16" width="52.51" height="10.04" style="fill:#fff"></rect><path d="M691.61,330.33H638.85V320h52.76Zm-52.51-.25h52.26v-9.79H639.1Z" style="fill:#263238"></path><polygon points="649.77 320.16 645.96 330.2 639.17 330.2 642.99 320.16 649.77 320.16" style="fill:#FFC727"></polygon><polygon points="663.67 320.16 659.86 330.2 653.07 330.2 656.88 320.16 663.67 320.16" style="fill:#FFC727"></polygon><polygon points="677.56 320.16 673.75 330.2 666.97 330.2 670.78 320.16 677.56 320.16" style="fill:#FFC727"></polygon><polygon points="691.46 320.16 687.65 330.2 680.87 330.2 684.68 320.16 691.46 320.16" style="fill:#FFC727"></polygon><rect x="640.04" y="342.48" width="50.38" height="6.36" style="fill:#fff"></rect><path d="M690.54,349H639.91v-6.61h50.63Zm-50.38-.25h50.13V342.6H640.16Z" style="fill:#263238"></path><polygon points="650.39 342.48 646.74 348.83 640.23 348.83 643.89 342.48 650.39 342.48" style="fill:#FFC727"></polygon><polygon points="663.73 342.48 660.07 348.83 653.56 348.83 657.22 342.48 663.73 342.48" style="fill:#FFC727"></polygon><polygon points="677.06 342.48 673.41 348.83 666.9 348.83 670.56 342.48 677.06 342.48" style="fill:#FFC727"></polygon><polygon points="690.4 342.48 686.75 348.83 680.24 348.83 683.89 342.48 690.4 342.48" style="fill:#FFC727"></polygon><circle cx="665.23" cy="325.18" r="8.17" style="fill:#fff"></circle><path d="M665.23,333.48a8.3,8.3,0,1,1,8.29-8.3A8.31,8.31,0,0,1,665.23,333.48Zm0-16.34a8,8,0,1,0,8,8A8.06,8.06,0,0,0,665.23,317.14Z" style="fill:#263238"></path><circle cx="665.23" cy="325.18" r="6.93" style="fill:#FFC727"></circle><rect x="660.88" y="324.38" width="8.69" height="1.61" style="fill:#fff"></rect></g><g id="freepik--character-2--inject-6"><path d="M590.77,398.66s2.86,39.72,2.86,39.75c0,7.77-.06,14.59-.44,18.12a.07.07,0,0,1,0,.05,5.52,5.52,0,0,1-.56,2.41l0,.05c-2.31,1.58-64.46,3.71-66.65,3s-.5-6.95,1.85-9,25.79-13.47,25.79-13.47L551.08,400Z" style="fill:#d3766a"></path><path d="M593.63,430.06v8.35c0,7.77-.06,14.59-.44,18.12a.07.07,0,0,1,0,.05,10.67,10.67,0,0,1-.56,2.41l0,.05c-2.31,1.58-64.46,3.71-66.65,3s-.5-6.95,1.85-9,25.79-13.47,25.79-13.47l-.12-8.47Z" style="fill:#fff"></path><path d="M525.92,462.09c2.19.66,64.34-1.47,66.65-3,.89-.59,1.11-9.66,1.06-20.63v-.35l-40.11.93,0,.68s-23.42,11.45-25.78,13.46S523.72,461.44,525.92,462.09Z" style="fill:#FFC727"></path><path d="M526.54,459.66c10.47-.62,52.74-2.11,63.14-1.93.08,0,.08.06,0,.07-10.36.84-52.65,2-63.13,2C526.32,459.83,526.32,459.67,526.54,459.66Z" style="fill:#263238"></path><path d="M550.19,439.9c4.1-.91,9.16-.45,12.41,2.38.13.11,0,.29-.17.25a58.56,58.56,0,0,0-12.21-2.11A.26.26,0,0,1,550.19,439.9Z" style="fill:#263238"></path><path d="M547.28,441.8c4.09-.91,9.16-.45,12.41,2.38.12.11,0,.28-.17.25a57.39,57.39,0,0,0-12.21-2.11A.26.26,0,0,1,547.28,441.8Z" style="fill:#263238"></path><path d="M544.36,443.69c4.1-.91,9.16-.45,12.41,2.38.13.11,0,.29-.17.25a58.58,58.58,0,0,0-12.2-2.11A.26.26,0,0,1,544.36,443.69Z" style="fill:#263238"></path><path d="M596,440.12l-43.51-.87s-5.3-78.28-4.32-104.38c1.08-28.35,13.26-112.71,13.26-112.71H598.2s-9.39,84.69-9.59,113C588.42,361.5,596,440.12,596,440.12Z" style="fill:#263238"></path><path d="M568.67,222.16l22.08,76.36c2.61-36.13,7.45-76.36,7.45-76.36Z" style="fill:#37474f"></path><path d="M591.22,226.32l-2.33,25.18-2.16,25.2c-1.38,16.8-2.7,33.6-3.7,50.44-.24,4.21-.39,8.44-.33,12.67s.26,8.44.47,12.65q.66,12.63,1.63,25.24t2,25.21l2.34,25.18-1.88-25.22q-.93-12.6-1.77-25.22c-.53-8.41-1.1-16.82-1.49-25.23q-.3-6.32-.43-12.62c0-4.2.12-8.4.38-12.6.92-16.83,2.24-33.64,3.47-50.45Z" style="fill:#37474f"></path><path d="M554.34,432c6.79-.06,4.84-.13,11.63-.12,3.33,0,25.17.09,28.27.64a.07.07,0,0,1,0,.14c-3.11.47-25,0-28.27,0-6.8-.15-4.84-.18-11.63-.41A.1.1,0,0,1,554.34,432Z" style="fill:#37474f"></path><path d="M661.49,377.36s21,34.11,21,34.13c3.41,7,6.27,13.18,7.45,16.52a.14.14,0,0,1,0,.06,5.47,5.47,0,0,1,.54,2.41s0,0,0,.06c-1.4,2.43-56.48,31.3-58.74,31.66s-3.46-6.06-2.22-8.88S646.92,430,646.92,430l-20.63-34.26Z" style="fill:#d3766a"></path><path d="M690.49,430.48a.2.2,0,0,1,0,.07c-1.4,2.42-56.48,31.29-58.74,31.65s-3.46-6.06-2.22-8.88S646.92,430,646.92,430l-3.68-6.11c9-4.8,25.36-13.23,35.52-18.45,2.22,3.59,3.73,6,3.73,6.05,3.41,7,6.27,13.18,7.45,16.52a.14.14,0,0,1,0,.06A5.25,5.25,0,0,1,690.49,430.48Z" style="fill:#fff"></path><path d="M631.74,462.2c2.27-.36,57.34-29.23,58.74-31.66.55-.91-3.19-9.18-8-19.05l-.15-.3-35.74,18.22.33.6s-16.14,20.48-17.4,23.31S629.48,462.57,631.74,462.2Z" style="fill:#FFC727"></path><path d="M631.25,459.74c9.16-5.1,46.61-24.78,56-29.12.08,0,.11,0,0,.06-9,5.25-46.57,24.62-56,29.21C631.13,460,631.05,459.84,631.25,459.74Z" style="fill:#263238"></path><path d="M644,431.68c3.3-2.6,8.06-4.38,12.21-3.24.17.05.1.27,0,.3a58,58,0,0,0-11.91,3.39A.26.26,0,0,1,644,431.68Z" style="fill:#263238"></path><path d="M642.19,434.65c3.29-2.6,8-4.38,12.21-3.24.16,0,.1.27,0,.3a58.31,58.31,0,0,0-11.92,3.39A.26.26,0,0,1,642.19,434.65Z" style="fill:#263238"></path><path d="M640.38,437.62c3.3-2.6,8.06-4.38,12.22-3.24.16.05.09.28-.05.3a57.62,57.62,0,0,0-11.91,3.4A.27.27,0,0,1,640.38,437.62Z" style="fill:#263238"></path><path d="M565.22,222.13v0c.16.75,2.72,12.67,5.39,22.91,1.93,7.48,3.93,14,5.07,14.73s7.6,3.57,9.72,4.44c0,0,14.19,70.84,21.68,92.8,6.91,20.27,35.52,74.45,35.52,74.45l41.5-21s-32.41-55-35.82-64.85c-5.28-15.29-25.08-90-25.08-90s.16-23.37-7.72-33.58Z" style="fill:#263238"></path><path d="M643.22,423.41c5.93-3.32,4.18-2.45,10.15-5.7,2.92-1.58,22.11-12,25.1-13,.06,0,.12.08.06.12-2.5,1.91-21.88,12-24.83,13.53-6,3.13-4.33,2.17-10.39,5.23A.1.1,0,0,1,643.22,423.41Z" style="fill:#37474f"></path><path d="M612.57,249.21c-1.14-.29-2.36-.38-3.51-.57-.94-.14-1.87-.31-2.8-.51a12.32,12.32,0,0,1-4.93-2.08c-1.61-1.25-2.42-3.15-3.2-5-.46-1.08-.93-2.15-1.42-3.23-.23-.52-.47-1-.71-1.55a17.53,17.53,0,0,1-.87-1.87c0-.09-.18,0-.14,0a12.29,12.29,0,0,1,.39,1.35c.16.52.31,1,.47,1.56.29.93.57,1.86.87,2.79a22,22,0,0,0,2,4.88c1.71,2.73,4.78,3.83,7.84,4.22.88.11,1.76.17,2.65.22a19.61,19.61,0,0,0,3.34,0A.16.16,0,0,0,612.57,249.21Z" style="fill:#37474f"></path><path d="M572.33,258.14a82.22,82.22,0,0,1,13,6.06.15.15,0,0,1-.12.27c-4.38-1.88-8.85-3.68-13.12-5.8A.29.29,0,0,1,572.33,258.14Z" style="fill:#37474f"></path><path d="M571,228.13c0-.15.28-.18.28,0,0,5.2.3,9.78.73,14.64.21,2.26,2,14.73,5.94,13.82.65-.15,1-.8,1.09-1.78a15.7,15.7,0,0,0-.52-3.83c-.43-2.61-.78-5.23-1-7.87a71.3,71.3,0,0,1,.16-14.75.13.13,0,0,1,.25,0,136,136,0,0,0,1.2,20.37c.49,3.24,2.12,8.13-1.27,8.63s-5.69-7.68-6.12-9.91A75.23,75.23,0,0,1,571,228.13Z" style="fill:#37474f"></path><path d="M577.85,256.91a19.12,19.12,0,0,1,.88,2.58,5.8,5.8,0,0,1,.37,2.13.15.15,0,0,1-.27.05,7.48,7.48,0,0,1-.91-2.06c-.3-.8-.61-1.6-.89-2.41A.44.44,0,0,1,577.85,256.91Z" style="fill:#37474f"></path><path d="M672.9,403.65c-5.9-11.12-12-22.14-18.11-33.15-3-5.43-6.15-10.8-9-16.3a98.84,98.84,0,0,1-6.57-17q-5.48-17.81-10.38-35.8t-9.2-36.12c-.72-3-1.51-6.05-2.09-9.1a27.77,27.77,0,0,1,0-9.32,30,30,0,0,0,.07-8.67,57.49,57.49,0,0,0-2-8.48c-.46-1.46-1-2.91-1.46-4.35a.13.13,0,0,0-.25.08c1.79,5.85,3.62,11.77,3.23,18-.18,3-1,5.91-.92,8.91a42.53,42.53,0,0,0,1.5,8.8q4.23,18.24,9.1,36.33t10.27,36c1.76,5.81,3.41,11.71,5.91,17.26s5.67,10.8,8.65,16.11q9.25,16.44,18.74,32.76l2.43,4.12C672.82,403.82,673,403.74,672.9,403.65Z" style="fill:#37474f"></path><path d="M456.76,336.72s-53-18.75-63.65-19-82.43,41.43-82.43,41.43Z" style="fill:#FFC727"></path><path d="M456.76,336.72s-53-18.75-63.65-19-82.43,41.43-82.43,41.43Z" style="opacity:0.30000000000000004"></path><polygon points="416.99 413.73 434.11 405.47 429.43 347.31 440.77 331.93 437.98 329.87 425.88 346.3 430.47 403.38 417.18 409.8 378.63 386.47 367.56 391.82 369.06 394.94 378.45 390.41 416.99 413.73" style="fill:#263238"></polygon><circle cx="330.21" cy="415.28" r="32.97" transform="translate(-192.54 324.57) rotate(-41.67)" style="fill:#263238"></circle><path d="M312.86,416.47A17.39,17.39,0,1,0,329,397.93,17.39,17.39,0,0,0,312.86,416.47Z" style="fill:#37474f"></path><polygon points="303.72 449.04 515.52 260.27 536.41 250.18 533.1 243.32 511.25 253.87 298.65 443.35 303.72 449.04" style="fill:#FFC727"></polygon><polygon points="303.72 449.04 515.52 260.27 536.41 250.18 533.1 243.32 511.25 253.87 298.65 443.35 303.72 449.04" style="opacity:0.30000000000000004"></polygon><rect x="518.83" y="243.15" width="27.61" height="8.95" transform="translate(1119.96 239.01) rotate(154.22)" style="fill:#37474f"></rect><polygon points="427.3 421.8 444.42 413.53 439.74 355.37 451.08 339.99 448.29 337.93 436.19 354.36 440.78 411.44 427.49 417.86 388.95 394.53 377.87 399.88 379.38 403 388.76 398.47 427.3 421.8" style="fill:#263238"></polygon><circle cx="346.44" cy="424.44" r="32.97" transform="translate(-189.33 309.9) rotate(-38.71)" style="fill:#263238"></circle><path d="M329.09,425.63a17.4,17.4,0,1,0,16.16-18.54A17.4,17.4,0,0,0,329.09,425.63Z" style="fill:#37474f"></path><rect x="287.25" y="333.59" width="197.95" height="5.84" transform="translate(828.54 594.9) rotate(169.23)" style="fill:#FFC727"></rect><polygon points="478.77 321.87 466.98 359.51 357.62 399.05 294.76 356.89 478.77 321.87" style="fill:#FFC727"></polygon><polygon points="294.76 356.89 299.93 360.36 475.12 333.56 478.78 321.88 294.76 356.89" style="opacity:0.1"></polygon><polygon points="381.5 398.64 376.52 392.06 453.05 364.54 381.5 398.64" style="fill:#263238"></polygon><polygon points="321.26 455.36 533.06 266.58 553.95 256.5 550.64 249.64 528.79 260.19 316.19 449.67 321.26 455.36" style="fill:#FFC727"></polygon><polygon points="321.26 455.36 533.06 266.58 553.95 256.5 550.64 249.64 528.79 260.19 316.19 449.67 321.26 455.36" style="opacity:0.30000000000000004"></polygon><rect x="536.37" y="249.47" width="27.61" height="8.95" transform="translate(1156.04 243.39) rotate(154.22)" style="fill:#37474f"></rect><path d="M570.47,175.3c4.42,20.49,3.09,47.14,1.42,54.71-2.08,9.44-28.87,20.36-36,22.76-3.05,1-7.82-25.68-4.58-26.85,2.82-1,21.07-9.22,21.75-10.95.39-1,3.54-23.6,7.61-40.86C563.68,161.24,569.14,169.14,570.47,175.3Z" style="fill:#d3766a"></path><path d="M528.75,248.64c1.56.15,1.49,1-.83,2.47s-12.83,5.49-11.13,9,16.43-2.3,20.11-5.1a74.15,74.15,0,0,0,8.67-8.64C542.47,247,534.84,247.62,528.75,248.64Z" style="fill:#d3766a"></path><path d="M539.37,224.27c-8.89,1.73-20,3.69-27.29,10.49a5,5,0,0,0-1.59,2.83c-3.34,3-2.93,5.46-2.93,5.46-2.26,3.74-1.49,6.21-1.49,6.21s-3.89,3.55-2.13,6.26c2,3,7-2.55,11.7-3.92,10.69-3.13,26.75-4.59,29.93-5.19Z" style="fill:#d3766a"></path><path d="M524.53,240.45a50,50,0,0,0-18.34,8.83.09.09,0,0,1-.11-.14,37.87,37.87,0,0,1,18.41-8.83C524.65,240.28,524.69,240.4,524.53,240.45Z" style="fill:#263238"></path><path d="M523.58,233.72c-3,1.13-8.23,3.14-16,9.41,0,0-.06,0,0,0a34,34,0,0,1,15.95-9.51C523.72,233.53,523.78,233.65,523.58,233.72Z" style="fill:#263238"></path><path d="M523,230.12c-5,2.11-7.9,4.07-12.48,7.47,0,0-.07,0,0,0,4.8-4.41,7-5.47,12.47-7.61C523.14,229.86,523.2,230,523,230.12Z" style="fill:#263238"></path><path d="M576,200.65l-20.21-7.93s1.92-14.06,4.89-22.83,6.43-10,10.69,2.86S576,200.65,576,200.65Z" style="fill:#ebebeb"></path><path d="M557.5,189c1.51.34,15.92,6,17.25,6.81.07,0,0,.15-.06.14-1.52-.35-15.9-6.09-17.22-6.87A0,0,0,0,1,557.5,189Z" style="fill:#263238"></path><path d="M575.51,200.44l.51.24.05,0v-.06c0-1.85-.07-3.71-.18-5.56s-.31-3.7-.53-5.54-.53-3.68-.9-5.5a50.14,50.14,0,0,0-1.39-5.39c.35,1.82.68,3.64,1,5.47s.56,3.65.77,5.49.44,3.67.63,5.51.39,3.68.57,5.53l0,0Z" style="fill:#263238"></path><path d="M622,235c-.12.2-63.44,12.94-64.15,12.4-1-.76-2.16-66.34,5.43-82.06,1.9-3.93,10.48-7.94,14.88-5.1,12.72,8.24,16.56,16.41,20.66,22.9,3,4.82,7.19,13.22,11.12,21.89C616.41,219.28,622.36,234.26,622,235Z" style="fill:#ebebeb"></path><path d="M579.22,160.16s-5.53,23-6.1,28.77c-.77,7.83,5,57.59,5,57.59l45-10.8s-17.5-47.65-30.5-63.33C582.37,160,579.22,160.16,579.22,160.16Z" style="fill:#FFC727"></path><path d="M564.66,163.83s-1.79,20.44-2.31,23.55.52,61.9.52,61.9l-6-1.08s-.78-40.69,1.18-61.82S564.66,163.83,564.66,163.83Z" style="fill:#FFC727"></path><path d="M576,227l40.69-7.37q-.92-2.21-1.94-4.59l-39.23,7.11C575.63,223.83,575.81,225.45,576,227Z" style="fill:#ebebeb"></path><path d="M556.74,230.52l5.81-1.05c0-1.61,0-3.26-.06-4.93l-5.74,1C556.74,227.28,556.73,228.93,556.74,230.52Z" style="fill:#ebebeb"></path><path d="M576.87,235.54,620,227.73c-.55-1.39-1.18-2.93-1.86-4.59l-41.73,7.57C576.54,232.42,576.71,234,576.87,235.54Z" style="fill:#ebebeb"></path><path d="M556.78,239.19l5.91-1.08c0-1.54-.06-3.18-.09-4.91l-5.86,1.06C556.76,236,556.76,237.69,556.78,239.19Z" style="fill:#ebebeb"></path><path d="M570.94,172c2.65-.63,6.7-7.08,7.66-11.81.06-.32-1.28-3.11-2.74-6.57-.88-2.11-1.81-4.47-2.5-6.69l-12.87,7.72a37.33,37.33,0,0,1,4,8.11,6.53,6.53,0,0,1,.19.94,1,1,0,0,0,0,.15C565,165.67,566.79,173,570.94,172Z" style="fill:#d3766a"></path><path d="M564.69,163.7s0,.09,0,.16a9.29,9.29,0,0,0,1.46-.38c8-2.69,6.92-13.25,6.46-16.11l-12.14,7.28a37.41,37.41,0,0,1,4,8.1A7.25,7.25,0,0,1,564.69,163.7Z" style="fill:#263238"></path><path d="M570.65,129.41c2.9,4.57,4.22,19.69,1.56,23.88-3.86,6.07-12.16,8.83-17.81,3.74-5.48-4.94-6.86-24.68-3.7-28.69C555.35,122.44,566.38,122.66,570.65,129.41Z" style="fill:#d3766a"></path><path d="M558.07,141.82s.08,0,.08.08c0,1,.21,2.2,1.15,2.49,0,0,0,.06,0,.06C558.16,144.34,557.92,142.79,558.07,141.82Z" style="fill:#263238"></path><path d="M558.93,140.71c1.64-.21,1.93,3.08.41,3.27S557.56,140.88,558.93,140.71Z" style="fill:#263238"></path><path d="M552.63,142.12s-.07,0-.07.09c.12,1,.09,2.2-.8,2.62,0,0,0,.07,0,.06C552.88,144.63,552.91,143.06,552.63,142.12Z" style="fill:#263238"></path><path d="M551.63,141.13c-1.65,0-1.49,3.32,0,3.3S553,141.12,551.63,141.13Z" style="fill:#263238"></path><path d="M560.09,139.09a12.62,12.62,0,0,1-1.31-.34,2.13,2.13,0,0,1-1.27-.6.71.71,0,0,1,0-.85,1.74,1.74,0,0,1,1.73-.33,2.52,2.52,0,0,1,1.55,1A.74.74,0,0,1,560.09,139.09Z" style="fill:#263238"></path><path d="M550.37,140a11.42,11.42,0,0,0,1.28-.45,2.23,2.23,0,0,0,1.21-.71.71.71,0,0,0-.11-.85,1.74,1.74,0,0,0-1.75-.17,2.53,2.53,0,0,0-1.46,1.1A.75.75,0,0,0,550.37,140Z" style="fill:#263238"></path><path d="M560.45,151.17c-.22.26-.44.61-.8.67a2.65,2.65,0,0,1-1.12-.16,0,0,0,0,0,0,.06,1.41,1.41,0,0,0,1.34.44,1.1,1.1,0,0,0,.72-1C560.56,151.14,560.48,151.13,560.45,151.17Z" style="fill:#263238"></path><path d="M559.11,148.21a3.48,3.48,0,0,1-2.18,1.75,4.32,4.32,0,0,1-1.24.17h-.24l-.23,0c-.12,0-.19-.1-.22-.21h0a.21.21,0,0,1,0-.11h0v-.09c-.09-.78-.12-2-.12-2-.27.17-1.68,1-1.69.55a52.44,52.44,0,0,1,.42-10.62.1.1,0,0,1,.19,0c.22,3.27-.13,6.56,0,9.86a6.14,6.14,0,0,1,1.59-.65c.12,0,0,2.32.08,2.67a.1.1,0,0,1,0,0,4.83,4.83,0,0,0,3.5-1.43C559.08,148.06,559.16,148.12,559.11,148.21Z" style="fill:#263238"></path><path d="M549.31,132.65c.1-.46.4-1.64,1-1.75s1.42.95,2.85,1.08c2,.19,5-2.52,7.79-2.28s4.81,2.47,6.17,7.1,5.77,7.75,6.26,4.46q0-.18.09-.63c-.42-4.59-1.43-9.07-2.8-11.22-4.27-6.74-15.31-7-19.95-1.07A9.36,9.36,0,0,0,549.31,132.65Z" style="fill:#263238"></path><path d="M570.8,142s2.09-5.52,4.51-4.89,1.68,8-.58,9.6a2.62,2.62,0,0,1-3.75-.5Z" style="fill:#d3766a"></path><path d="M575,139.23a0,0,0,0,1,0,.07c-1.57,1.15-2.08,3-2.29,4.85a1.44,1.44,0,0,1,2-.92c.06,0,0,.11,0,.11a1.61,1.61,0,0,0-1.58,1,7.77,7.77,0,0,0-.47,1.6c0,.17-.34.16-.33,0v0C571.76,143.62,572.71,140.06,575,139.23Z" style="fill:#263238"></path><path d="M547.38,136.11s-.47-15,12.93-15.54,14.1,14.49,14.1,14.49Z" style="fill:#FFC727"></path><rect x="546.36" y="134.52" width="29.06" height="2.13" transform="translate(-4.84 21.88) rotate(-2.23)" style="fill:#FFC727"></rect><polygon points="560.63 134.53 554.59 134.77 555.44 119.99 561.49 119.75 560.63 134.53" style="fill:#FFC727"></polygon><polygon points="560.63 134.53 554.59 134.77 555.44 119.99 561.49 119.75 560.63 134.53" style="opacity:0.1"></polygon><path d="M589.63,173.83c10.8,18,18.41,45.63,17.38,53.31-1.34,10-33.35,25.25-40.16,28.53-2.9,1.4-11-24.52-7.88-26.08,2.67-1.36,23.66-10.86,24-11.88s-2.14-23.56-3.5-41.68C578.52,162.84,584.07,164.55,589.63,173.83Z" style="fill:#d3766a"></path><path d="M564.79,227.45s-2.88,1.34-10.54,2.41c-6,.84-19.46,7-23.79,23.41-1.66,6.29,2,10.2,4.91,4,2-4.39,3.07-7.6,4.13-8.85,0,0,1.75,7.2,5.74,8.78a78.06,78.06,0,0,0,10.71,3.4,16.92,16.92,0,0,0,.81-1.94,9,9,0,0,0,9.26-2.58l6-2.68Z" style="fill:#d3766a"></path><path d="M549.35,232.2c-2.13,2.34-6.57,7.39-8.76,12.77-2.43,6-5.51,18.16-1.07,19.92,3.25,1.28,4.83-3.27,4.83-3.27s-.21,5.31,3,5.82c2.91.47,3.92-3.12,3.92-3.12s.43,3.24,3.32,3.16c3.47-.11,2-6.88,5.44-10C560.78,256.75,549.35,232.2,549.35,232.2Z" style="fill:#d3766a"></path><path d="M547.34,246.49a25.76,25.76,0,0,0-3.07,15c0,.13.12.19.13.06a63.32,63.32,0,0,1,3-15.07S547.36,246.46,547.34,246.49Z" style="fill:#263238"></path><path d="M553.31,249.12c-1.19,2.33-3.21,9.35-2.17,15.19,0,.13.13.18.14.05a67.35,67.35,0,0,1,2.09-15.22S553.33,249.09,553.31,249.12Z" style="fill:#263238"></path><path d="M530.2,258.5a17.27,17.27,0,0,1,0-5.37A22.29,22.29,0,0,1,531.8,248a33.11,33.11,0,0,1,6.07-8.93,43,43,0,0,1,4-3.66,27.06,27.06,0,0,1,4.5-3,25.57,25.57,0,0,1,10.33-2.84,25.61,25.61,0,0,0-5.19,1.22,27.43,27.43,0,0,0-4.87,2.13,36.63,36.63,0,0,0-8.2,6.7,33.5,33.5,0,0,0-6.09,8.65A20.38,20.38,0,0,0,530.2,258.5Z" style="fill:#263238"></path><path d="M601.48,195.91l-21.63-1.81s-2.19-14-1.86-23.27,3.3-11.43,11.07-.32S601.48,195.91,601.48,195.91Z" style="fill:#ebebeb"></path><path d="M580.39,190.07c1.55-.11,17,1.21,18.48,1.59.07,0,.06.13,0,.14-1.55.11-17-1.28-18.47-1.65C580.34,190.14,580.35,190.07,580.39,190.07Z" style="fill:#263238"></path><path d="M577.74,181.05c.14.65.29,1.3.46,1.94.06.21.11.43.16.65,0-.27-.05-.53-.07-.79-.12-1.59-.15-3.19-.22-4.79,0,0,.06,0,.07,0,.36,2.85.71,5.7,1,8.56.16,1.39.31,2.79.45,4.18.08.73.15,1.46.22,2.19,0,.27,0,.81.22,1a4.21,4.21,0,0,0,1.13.24c.07,0,.06.13,0,.12-.38,0-.77,0-1.16-.06a.58.58,0,0,1-.41-.17,1.34,1.34,0,0,1-.19-.68c-.06-.4-.11-.8-.16-1.2-.21-1.55-.38-3.11-.52-4.67-.09-1-.19-2-.28-2.95A14.55,14.55,0,0,1,578,183c-.13-.65-.23-1.3-.32-1.95C577.71,181,577.74,181,577.74,181.05Z" style="fill:#263238"></path><path d="M536.06,255.72a38,38,0,0,1,1.3-3.86c.26-.63.52-1.26.83-1.87a7.4,7.4,0,0,1,1.14-1.77l.79-.84-.39,1.1-1,2.91c-.33,1-.66,2-.91,3a15.89,15.89,0,0,1,.58-3.06c.26-1,.57-2,.91-3l.4.26a8.38,8.38,0,0,0-1,1.64c-.3.59-.6,1.2-.88,1.81C537.17,253.24,536.63,254.49,536.06,255.72Z" style="fill:#263238"></path></g><g id="freepik--character-1--inject-6"><path d="M263.28,436.05c-2.16.67-63.21-.64-65.5-2.16-.87-.56-1.2-9.48-1.29-20.24,0-2.33,0-4.72,0-7.17,0-2.89,1.2-32.63,1.2-32.63l39.15.74-.46,24-.17,8.65-.34,7.16s23.15,11,25.49,12.9S265.42,435.39,263.28,436.05Z" style="fill:#ad6359"></path><path d="M263.28,436.05c-2.16.67-63.21-.64-65.5-2.16-.87-.56-1.2-9.48-1.29-20.24,0-2.33,0-4.72,0-7.17,0-2.89.24-5.81.27-8.65l39.62.74-.17,8.65-.34,7.16s23.15,11,25.49,12.9S265.42,435.39,263.28,436.05Z" style="fill:#fff"></path><path d="M263.46,436.14c-1.4.44-27.41.05-46.34-.7-4.38-.17-8.38-.36-11.61-.57-4.45-.28-7.44-.58-7.92-.9-1.06-.71-1.33-13.78-1.32-27.56l39.94.74-.33,7.2s23.27,11,25.63,13S265.61,435.46,263.46,436.14Z" style="fill:#FFC727"></path><path d="M262.63,433.67c-10.29-.47-51.82-1.41-62-1.1-.08,0-.08.06,0,.07,10.18.69,51.72,1.29,62,1.2C262.84,433.84,262.85,433.68,262.63,433.67Z" style="fill:#263238"></path><path d="M237.38,412.09c-4-.84-9-.32-12.16,2.5-.12.11,0,.28.17.24a57.09,57.09,0,0,1,12-2.23A.26.26,0,0,0,237.38,412.09Z" style="fill:#263238"></path><path d="M240.26,413.92c-4-.84-9-.33-12.15,2.49-.12.11,0,.28.17.24a57.07,57.07,0,0,1,12-2.22A.26.26,0,0,0,240.26,413.92Z" style="fill:#263238"></path><path d="M243.15,415.74c-4-.84-9-.32-12.16,2.49-.12.11,0,.29.17.25a56.45,56.45,0,0,1,12-2.23A.26.26,0,0,0,243.15,415.74Z" style="fill:#263238"></path><path d="M246,417.57c-4-.85-9-.33-12.15,2.49-.12.11,0,.28.17.24a57.07,57.07,0,0,1,12-2.22A.26.26,0,0,0,246,417.57Z" style="fill:#263238"></path><path d="M245.06,402.89c-1.55-2.23-4.53-1.3-6.25.08a21.62,21.62,0,0,0-6.44,9.14.11.11,0,0,0,.1.15.5.5,0,0,0,.62.52c3.37-1.17,7.12-2,10-4.16C244.82,407.35,246.52,405,245.06,402.89ZM237.84,410c-1.65.61-3.31,1.14-4.93,1.81a64,64,0,0,1,3.88-5.25,22.45,22.45,0,0,1,2.19-2.28c1.23-1.07,6.05-3.3,5.24,1.13C243.77,407.82,239.8,409.23,237.84,410Z" style="fill:#263238"></path><path d="M222.1,410.83c3.31,1.5,7.15,1.51,10.69,1.93a.5.5,0,0,0,.5-.64.12.12,0,0,0,.06-.17,21.61,21.61,0,0,0-8.24-7.55c-2-1-5.09-1.25-6.12,1.25S220.17,410,222.1,410.83Zm-1.76-2.92c-1.74-4.15,3.45-3,4.87-2.22a23.21,23.21,0,0,1,2.64,1.75c1.75,1.31,3.29,2.84,4.9,4.31-1.72-.32-3.46-.48-5.2-.73C225.48,410.73,221.29,410.2,220.34,407.91Z" style="fill:#263238"></path><path d="M232.21,435.92c-5.14-.13-10.34-.3-15.09-.48-4.38-.17-8.38-.36-11.61-.57-4.45-.28-7.44-.58-7.91-.9-.93-.62-1.27-10.72-1.31-22.48C205.35,417.55,223.15,429.72,232.21,435.92Z" style="opacity:0.1"></path><path d="M236.19,407.22l-39.92-.81s2.63-94.58,2.15-97c-1.17-5.68-29-95.7-29-95.7l35.82.62,9.23.21s-1.06,15-.63,16.58c6,21.84,19.67,59.13,22.06,73C240.06,328.07,236.19,407.22,236.19,407.22Z" style="fill:#263238"></path><path d="M233.49,399.74c-5.8-.34-26.33-1.64-34.09-1.14-.06,0-.06.12,0,.14,2.63.59,28.27,1.13,34.08,1.19C233.59,399.93,233.59,399.74,233.49,399.74Z" style="fill:#37474f"></path><path d="M203,307.19c-1.35-5.51-11.45-39.9-14.54-50.76s-6-21.77-8.66-32.73c-.34-1.39-.68-2.78-1.05-4.16,0-.12-.2-.07-.18.05,1,5.52,2.37,11,3.67,16.46s2.68,10.91,4.14,16.33q4.38,16.35,9.58,32.48c1.73,5.35,4.58,16.35,6.1,21.76s-1,87.17-.87,88.61a.33.33,0,0,0,.65,0C202,384.75,204.31,312.65,203,307.19Z" style="fill:#37474f"></path><path d="M205.27,214.36s-8.76,95.55-8.85,95.08C195.29,304,171,219.3,169.52,214c-.05-.17-.07-.26-.07-.26Z" style="fill:#37474f"></path><path d="M216.23,441.28c-2.15.67-63.2-.64-65.5-2.16-.86-.56-1.19-9.47-1.28-20.24,0-2.33,2.58-39.8,2.58-39.8l38.75.74-2,39.79s23.15,11,25.48,12.9S218.38,440.62,216.23,441.28Z" style="fill:#ad6359"></path><path d="M216.23,441.28c-2.15.67-63.2-.64-65.5-2.16-.86-.56-1.19-9.47-1.28-20.24,0-2.33.92-13,1-15.82l39.19.74-.44,8.65-.34,7.16s23.15,11,25.48,12.9S218.38,440.62,216.23,441.28Z" style="fill:#fff"></path><path d="M216.42,441.38c-1.4.43-27.41,0-46.34-.7-4.38-.18-8.38-.37-11.61-.57-4.45-.29-7.44-.59-7.92-.91-1.06-.71-1.33-13.78-1.32-27.56l39.94.74-.34,7.2s23.28,11,25.64,13S218.57,440.7,216.42,441.38Z" style="fill:#FFC727"></path><path d="M215.59,438.9c-10.29-.47-51.82-1.41-62-1.09-.08,0-.08.06,0,.06,10.18.69,51.72,1.29,62,1.2C215.8,439.07,215.81,438.91,215.59,438.9Z" style="fill:#263238"></path><path d="M190.34,417.33c-4-.85-9-.33-12.16,2.49-.12.11,0,.28.17.24a57.07,57.07,0,0,1,12-2.22A.26.26,0,0,0,190.34,417.33Z" style="fill:#263238"></path><path d="M193.22,419.15c-4-.84-9-.33-12.15,2.49-.13.11,0,.28.16.25a56.54,56.54,0,0,1,12-2.23A.26.26,0,0,0,193.22,419.15Z" style="fill:#263238"></path><path d="M196.11,421c-4-.84-9-.32-12.16,2.5-.12.11,0,.28.17.24a57.07,57.07,0,0,1,12-2.22A.26.26,0,0,0,196.11,421Z" style="fill:#263238"></path><path d="M199,422.8c-4-.84-9-.33-12.15,2.49-.13.11,0,.28.16.24a57.16,57.16,0,0,1,12-2.22A.26.26,0,0,0,199,422.8Z" style="fill:#263238"></path><path d="M198,408.12c-1.55-2.22-4.53-1.3-6.25.08a21.65,21.65,0,0,0-6.44,9.15.1.1,0,0,0,.09.14.51.51,0,0,0,.63.52c3.37-1.16,7.12-2,10-4.16C197.78,412.59,199.48,410.23,198,408.12Zm-7.22,7.08c-1.65.61-3.31,1.14-4.93,1.82,1.26-1.78,2.44-3.61,3.87-5.26a23.58,23.58,0,0,1,2.2-2.27c1.23-1.07,6.05-3.3,5.24,1.12C196.73,413.05,192.76,414.47,190.8,415.2Z" style="fill:#263238"></path><path d="M175.06,416.07c3.31,1.49,7.15,1.5,10.69,1.92.37.05.56-.34.5-.64a.11.11,0,0,0,.06-.16,21.63,21.63,0,0,0-8.24-7.56c-2-1-5.09-1.25-6.13,1.26S173.13,415.2,175.06,416.07Zm-1.76-2.93c-1.74-4.15,3.45-3,4.87-2.22a24.5,24.5,0,0,1,2.63,1.75,65,65,0,0,1,4.91,4.31c-1.72-.31-3.46-.47-5.2-.72C178.44,416,174.25,415.43,173.3,413.14Z" style="fill:#263238"></path><path d="M189.15,412.45l-39.72-.74s3.18-46.79,5.77-90c2.08-34.87,3.78-67.41,3.09-71.17-2.51-13.76-.37-29.48,6.25-36.94l42.89.8s.63,12-3.93,19.15c0,0-4.07,2.47-6.05,3.56,0,0-.69,64.83-1.71,86.42C194.7,345.79,189.15,412.45,189.15,412.45Z" style="fill:#263238"></path><path d="M187.07,404.71c-5.7-.3-4.06-.33-9.76-.54-2.79-.11-21.13-.77-23.76-.22-.05,0-.06.15,0,.16,2.59.67,20.94.88,23.74.91,5.7.06,4.07,0,9.77-.07C187.17,404.94,187.18,404.72,187.07,404.71Z" style="fill:#37474f"></path><path d="M206.21,231.67A82.66,82.66,0,0,0,194,238.59a.14.14,0,1,0,.14.24c4.12-2.18,8.33-4.29,12.32-6.68A.28.28,0,0,0,206.21,231.67Z" style="fill:#37474f"></path><path d="M200.76,231a20.33,20.33,0,0,0-.63,2.53,5.24,5.24,0,0,0-.17,2c0,.13.21.12.27,0a6.87,6.87,0,0,0,.71-2c.21-.78.45-1.56.65-2.35C201.72,230.64,200.92,230.45,200.76,231Z" style="fill:#37474f"></path><path d="M200.45,226.82c.13-.72.25-1.43.4-2.14s.34-1.47.43-2.22a.09.09,0,0,1,.18,0c-.12.72-.15,1.46-.22,2.18s-.15,1.45-.24,2.17c-.16,1.35-.42,2.71-.71,4a4.86,4.86,0,0,0,2-.78,3.77,3.77,0,0,0,1.09-2.05c.23-.81.42-1.64.66-2.45a17.3,17.3,0,0,0,.68-2.73c0-.12.2-.08.18,0a29.11,29.11,0,0,1-1.2,5.75,3.14,3.14,0,0,1-1.11,1.89,6.16,6.16,0,0,1-2.42.67.14.14,0,0,1-.22-.12C200.05,229.68,200.2,228.23,200.45,226.82Z" style="fill:#37474f"></path><path d="M165.27,250.12c-.25-3.16-.71-6.29-1-9.45a58.37,58.37,0,0,1,1.49-18.85c0-.12-.16-.17-.18,0-1.15,5.47-2.16,10.93-2,16.54s1.05,11.06,1,16.63-.57,11.28-1,16.9l-1.41,17c-1.88,22.73-7.17,103.54-7.53,110,0,.56.81.54.86,0,1.18-11.4,6.56-94.2,7.44-105.51q.66-8.48,1.3-17c.43-5.63.95-11.26,1.14-16.91A84.85,84.85,0,0,0,165.27,250.12Z" style="fill:#37474f"></path><path d="M181,221.71a.09.09,0,0,0-.17,0,7.58,7.58,0,0,0-.45,2.3,15.28,15.28,0,0,1-.63,2.48,10,10,0,0,1-2.65,4.28c-2.75,2.48-6.38,3.34-9.88,4.13-.13,0-.09.21,0,.22a15.41,15.41,0,0,0,6.09-.84,12.74,12.74,0,0,0,4.74-2.54,8.68,8.68,0,0,0,2.62-4.54,15.09,15.09,0,0,0,.34-2.77c0-.44,0-.89,0-1.34A3.43,3.43,0,0,0,181,221.71Z" style="fill:#37474f"></path><path d="M203.59,173.08c3.9,11.66,17.85,49.36,29.66,52.67,7.75,2.18,38.89,4.77,46.32-.82,2.89-2.18.62-28.18-3.67-27.52s-29.92,2.49-33,1.39S218,169.35,209.7,162.14C195.31,149.7,201.49,166.8,203.59,173.08Z" style="fill:#ad6359"></path><path d="M228.43,180.18l-17.49,19.28s-9.86-26.88-10.52-35.6c-.76-9.82,4.43-8.05,11.58-2S228.43,180.18,228.43,180.18Z" style="fill:#ebebeb"></path><path d="M224.72,177.7c-.7.57-6.2,6.54-7.37,7.86s-6,6.68-7.08,8.14c-.05.07,0,.15.09.1,1.34-1.23,6.22-6.62,7.44-8s6.52-7.34,7-8.08C224.86,177.71,224.77,177.66,224.72,177.7Z" style="fill:#263238"></path><path d="M226,182.87l-15,16.59s-9.86-26.88-10.52-35.6c-.47-6.13,1.38-7.75,4.58-6.62C209.8,163.07,219.14,174.42,226,182.87Z" style="opacity:0.1"></path><path d="M215.21,192l2.3,26.43s-46.49-2.45-58-4c0,0,14.55-45.45,27.82-57,6.64-5.77,13.89-4.82,18.22-.19,1.1,1.17,12.21,16.26,13.23,22.85C219.69,186,215.21,192,215.21,192Z" style="fill:#ebebeb"></path><path d="M217.52,218.44,215.21,192s4.48-6,3.59-11.85c-1-6.59-12.11-21.68-13.22-22.85a11.8,11.8,0,0,0-1.32-1.23L206,174.3l-13.34-20a14.62,14.62,0,0,0-5.24,3.19c-13.27,11.52-27.83,57-27.83,57C171,216,217.52,218.44,217.52,218.44Z" style="fill:#FFC727"></path><path d="M163.73,200.41l52.55,3.84-.37-4.22-50.85-3.7C164.59,197.74,164.15,199.11,163.73,200.41Z" style="fill:#ebebeb"></path><path d="M161.5,207.6l55.43,4-.38-4.21-53.79-3.92C162.28,205,161.87,206.37,161.5,207.6Z" style="fill:#ebebeb"></path><path d="M206.76,188.85a51.26,51.26,0,0,0-7.72,1c-1.26.27-2.51.61-3.75,1l-1.86.49a8.41,8.41,0,0,1-2,.3,0,0,0,1,0,0,.09,15.07,15.07,0,0,0,1.9,0,15.83,15.83,0,0,0,1.83-.28c1.29-.27,2.55-.6,3.83-.88,2.59-.56,5.17-1.13,7.79-1.51C206.91,189.05,206.88,188.84,206.76,188.85Z" style="fill:#263238"></path><path d="M213.07,191.37a57.14,57.14,0,0,0-6.4-.54c-1.08,0-2.14,0-3.21.08q-.77,0-1.53.12c-.57.05-1.12.17-1.68.22a0,0,0,1,0,0,.09c.53,0,1.06,0,1.6,0l1.6,0c1.07,0,2.14,0,3.21,0,2.14,0,4.27,0,6.41.11C213.18,191.55,213.18,191.39,213.07,191.37Z" style="fill:#263238"></path><path d="M185.24,157.68c-19.36,12.87-54.12,43.53-49.85,52.81,3.74,8.13,30.23-8.78,30.42-10.12.14-1,13.56-17.29,21.77-31.65C196.66,152.83,190,154.49,185.24,157.68Z" style="fill:#ad6359"></path><path d="M178.58,188.32l-23.74-10.68s22.51-17.68,30.6-21c9.1-3.75,9,1.72,5.5,10.39S178.58,188.32,178.58,188.32Z" style="fill:#ebebeb"></path><path d="M179.8,184c-.77-.49-8.14-3.88-9.76-4.58s-8.21-3.63-9.94-4.21a.06.06,0,1,0,0,.11c1.58.9,8.21,3.87,9.85,4.62s9,3.94,9.86,4.18C179.83,184.15,179.85,184.05,179.8,184Z" style="fill:#263238"></path><path d="M200.71,139.22c-.3-2.63-7.85-12.55-17.5-6.73-9.5,5.74-4.42,22.17,7.12,20.54C198.08,151.94,201.37,144.82,200.71,139.22Z" style="fill:#263238"></path><path d="M196.5,154.75c0,1,2.9,8.44,7.34,9.39,1.44.3,3.47-7.51,3.47-7.51l.28-.54,3.93-7.6-7.88-8.58-1.16-1.16s-.94,2.15-2.08,4.83c-.05.13-.11.25-.16.39s-.14.29-.19.43c-.18.4-.36.81-.53,1.22s-.25.61-.38.95l-.38,1A52.68,52.68,0,0,0,196.5,154.75Z" style="fill:#ad6359"></path><path d="M211.52,148.49l-3.78,7.3a18.35,18.35,0,0,1-7.67-11.45l.33-.76,2.08-4.83,1.16,1.16Z" style="fill:#263238"></path><path d="M225.21,138.34c-2.23,14.84-11.37,15.18-14.57,14.7-2.9-.44-12.74-2.3-12.06-17.3s8.28-18.65,15-18S227.43,123.49,225.21,138.34Z" style="fill:#ad6359"></path><path d="M222.73,134.87c-.33-.11-.62-.27-.95-.41a1.72,1.72,0,0,1-.88-.61.54.54,0,0,1,.13-.64,1.31,1.31,0,0,1,1.34,0,2,2,0,0,1,1.06.92A.57.57,0,0,1,222.73,134.87Z" style="fill:#263238"></path><path d="M212.82,133.44c.36,0,.69,0,1,0a1.68,1.68,0,0,0,1.06-.21.55.55,0,0,0,.13-.64,1.35,1.35,0,0,0-1.22-.57,1.94,1.94,0,0,0-1.33.43A.57.57,0,0,0,212.82,133.44Z" style="fill:#263238"></path><path d="M214.28,136.77s-.09,0-.09.07c-.16,1-.5,2.15-1.47,2.32,0,0,0,.05,0,.05C213.86,139.26,214.3,137.75,214.28,136.77Z" style="fill:#263238"></path><path d="M213.57,135.56c-1.59-.42-2.31,2.8-.83,3.18S214.91,135.91,213.57,135.56Z" style="fill:#263238"></path><path d="M212.9,135.58c-.32.12-.67.38-1,.34s-.62-.45-.81-.83c0,0-.05,0-.06,0a1.2,1.2,0,0,0,.59,1.54c.58.22,1.14-.23,1.43-.81C213.09,135.73,213,135.54,212.9,135.58Z" style="fill:#263238"></path><path d="M220.21,137.71s.07.07.06.11c-.24,1-.35,2.17.48,2.69,0,0,0,.07,0,.06C219.66,140.18,219.82,138.62,220.21,137.71Z" style="fill:#263238"></path><path d="M221.33,136.86c1.63.22,1.08,3.47-.44,3.27S220,136.68,221.33,136.86Z" style="fill:#263238"></path><path d="M222,137.19c.22.21.43.57.73.64s.67-.22,1-.52c0,0,.05,0,0,0-.08.63-.4,1.24-1,1.26s-.87-.59-.91-1.23C221.76,137.26,221.88,137.1,222,137.19Z" style="fill:#263238"></path><path d="M212.57,145.11c.17.3.32.68.67.8a2.54,2.54,0,0,0,1.13,0,0,0,0,0,1,0,.07,1.36,1.36,0,0,1-1.4.19,1.1,1.1,0,0,1-.54-1.08C212.46,145.07,212.55,145.07,212.57,145.11Z" style="fill:#263238"></path><path d="M214,142.31a3.41,3.41,0,0,0,2,1.8,4.53,4.53,0,0,0,1.21.22h.46a.24.24,0,0,0,.22-.19h0a.38.38,0,0,0,0-.1h0v-.09c.12-.76.2-1.93.2-1.93.26.18,1.6,1,1.63.61a50.8,50.8,0,0,0,.06-10.39.1.1,0,0,0-.19,0c-.36,3.19-.16,6.42-.47,9.63a5.59,5.59,0,0,0-1.53-.7c-.11,0-.11,2.26-.2,2.6v0a4.7,4.7,0,0,1-3.34-1.56C214,142.17,213.91,142.22,214,142.31Z" style="fill:#263238"></path><path d="M217,144.17a4.2,4.2,0,0,1-1.89,1,1.93,1.93,0,0,1-1.15-.12c-.78-.36-.67-1.12-.41-1.74a4.44,4.44,0,0,1,.54-.93A5.48,5.48,0,0,0,217,144.17Z" style="fill:#263238"></path><path d="M215.11,145.18a1.93,1.93,0,0,1-1.15-.12c-.78-.36-.67-1.12-.41-1.74A2,2,0,0,1,215.11,145.18Z" style="fill:#ff9bbc"></path><path d="M199.57,136.91c3.13.48,4.45-6.72,4.45-6.72s5.44-.12,8.21-3.37c0,0-2,2.89-4.25,3.84-.38.15,10.51.85,12.87-7.28,0,0,.24,8.45,4.85,10.94.22.12.51-7.58-.78-9.59a16.19,16.19,0,0,0-2.63-3.18,15.51,15.51,0,0,0-10.75-4.81c-6.74-.13-12.19,6.14-13.15,8.93C196.48,131.14,198.09,136.68,199.57,136.91Z" style="fill:#263238"></path><path d="M208.29,130.89c5.89.72,11.15-2.28,12.62-8.23a.13.13,0,0,1,.26,0c-.21,6.25-7.48,9.65-12.95,8.29C208.09,131,208.16,130.87,208.29,130.89Z" style="fill:#263238"></path><path d="M199.64,136.57c3.44-1.11,4.46-4.24,5.24-7.47a.09.09,0,0,1,.17,0c-.48,3.21-1.7,7-5.34,7.73A.15.15,0,0,1,199.64,136.57Z" style="fill:#263238"></path><path d="M221.11,122.14s.06,0,.06,0c.16,3.5-.63,9.23,3.52,10.8a.1.1,0,0,1-.06.18C220.52,132,220.09,125.56,221.11,122.14Z" style="fill:#263238"></path><path d="M211.28,141.63a4.5,4.5,0,1,1,5.78-4.12h0a4.5,4.5,0,0,1-4.68,4.31A4.45,4.45,0,0,1,211.28,141.63Zm2.4-8a3.7,3.7,0,0,0-1-.16,3.9,3.9,0,1,0,1,.16Z" style="fill:#FFC727"></path><path d="M221.45,143.36c-1.65-.49-2.64-2.63-2.23-4.94a5.33,5.33,0,0,1,1.48-2.93,2.8,2.8,0,0,1,4.72.83,5.3,5.3,0,0,1,.39,3.26c-.43,2.44-2.25,4.17-4.07,3.85Zm2-8.14a1.8,1.8,0,0,0-.22-.06,2.43,2.43,0,0,0-2.08.76,4.8,4.8,0,0,0-1.3,2.61c-.37,2.11.53,4.05,2,4.31s3-1.25,3.38-3.37a4.81,4.81,0,0,0-.34-2.89A2.46,2.46,0,0,0,223.41,135.22Z" style="fill:#FFC727"></path><path d="M216.82,138l-.3-.53c.77-.44,2.46-.93,3.33.42l-.5.33C218.57,137,216.89,138,216.82,138Z" style="fill:#FFC727"></path><path d="M197.73,136l-.48-.36c.17-.23,1.7-2.18,3.06-2.17s8.23,1.84,8.56,1.93l-.16.58a78.94,78.94,0,0,0-8.41-1.9C199.4,134.05,198.14,135.45,197.73,136Z" style="fill:#FFC727"></path><path d="M200.76,137.24s-2.09-5.32-4.43-4.68-1.53,7.82.68,9.3a2.54,2.54,0,0,0,3.63-.53Z" style="fill:#ad6359"></path><path d="M196.62,134.61a0,0,0,0,0,0,.06,6.46,6.46,0,0,1,2.29,4.68,1.41,1.41,0,0,0-1.95-.86c-.06,0,0,.1,0,.1a1.58,1.58,0,0,1,1.55.93,8.3,8.3,0,0,1,.47,1.54c0,.18.34.16.32,0v0C199.85,138.83,198.89,135.39,196.62,134.61Z" style="fill:#263238"></path><path d="M198.85,141.6a.74.74,0,0,1-.89.55.73.73,0,0,1-.55-.89.74.74,0,0,1,1.44.34Z" style="fill:#fff"></path><path d="M226.91,129.41s.9-17.11-14.36-18-16.42,16.17-16.42,16.17Z" style="fill:#FFC727"></path><rect x="194.96" y="127.27" width="33.13" height="2.43" transform="translate(414.9 269.49) rotate(-176.54)" style="fill:#FFC727"></rect><polygon points="211.84 127.28 218.72 127.7 218.12 110.83 211.23 110.42 211.84 127.28" style="fill:#FFC727"></polygon><polygon points="211.84 127.28 218.72 127.7 218.12 110.83 211.23 110.42 211.84 127.28" style="opacity:0.1"></polygon><polygon points="256.17 240.84 273.22 206.75 289.19 175.85 270.15 175.15 245.73 181.97 221.79 174.37 200.68 175.23 179.63 241.01 199.19 240.69 221.73 246.04 241.65 240.69 256.17 240.84" style="fill:#ebebeb"></polygon><polygon points="241.65 240.69 270.15 175.15 245.73 181.97 221.73 246.04 241.65 240.69" style="fill:#dbdbdb"></polygon><polygon points="199.19 240.69 221.79 174.37 200.68 175.23 179.63 241.01 199.19 240.69" style="fill:#dbdbdb"></polygon><path d="M280.24,197.14c1,3.92,4.45,9.22,4.24,12.22a3.47,3.47,0,0,1-2.58,3.23s2.65,2,2,4.72c-.33,1.39-2.83,2.07-2.83,2.07a4.13,4.13,0,0,1,1.33,4.08c-.58,1.88-3,2.29-3,2.29s1.2,2.57,0,4.3c-2.44,3.5-19,.3-20.4-6.3-.64-3.08,3.36-2.08,3.36-2.08s-5.41-2.83-4.84-6.26,5.7-1.82,5.7-1.82-5.22-2.79-4.27-6.3,5.85-1.15,5.85-1.15-3.21-3.21-1.86-5.72c2.21-4.15,8.12,2.75,11.93,2.59l3.18-5.62Z" style="fill:#ad6359"></path><path d="M282.56,203c-.64-3.8,4.6-7.33,4.52-11.05-.12-5-6.47-1.35-9,5.44L277,203Z" style="fill:#ad6359"></path><path d="M279,225.87c.06,0,.06.09,0,.09a29.27,29.27,0,0,1-16.88-4.31c-.16-.11-.06-.41.13-.33A60.14,60.14,0,0,0,279,225.87Z" style="fill:#263238"></path><path d="M281.14,219.43c.06,0,.05.12,0,.12A27.37,27.37,0,0,1,263,213.7c-.18-.15-.19-.46,0-.3C266.65,216,275.71,218.86,281.14,219.43Z" style="fill:#263238"></path><path d="M264.52,205.72c5.07,3.91,10.89,5.8,17.14,6.89.08,0,0,.13,0,.13-3.2.3-7.12-.8-10.09-1.92a17,17,0,0,1-7.17-4.93C264.31,205.8,264.41,205.63,264.52,205.72Z" style="fill:#263238"></path><path d="M135.53,211c4.43,4.77,10.9,7.92,34.42,9.81,3.56.28,9.94-25.52,6.15-25.92-4.79-.51-19.58-2.44-21-2.34C143.55,193.43,132.52,207.78,135.53,211Z" style="fill:#ad6359"></path><path d="M207.57,198.59a4.11,4.11,0,0,1-1.71,4.38,6.13,6.13,0,0,1,1.93,3.68c.22,2.51-3.62,3.95-3.62,3.95a7.52,7.52,0,0,1,1.41,4.21c0,2.42-3.69,4.43-3.69,4.43a6.58,6.58,0,0,1-1.08,4.48c-2.52,3.41-9,2.92-13.09,2.65s-15.51-4.89-17.77-5.55l1.51-26.39s18.78-4,23.57-3C199.06,192.25,206.71,195.49,207.57,198.59Z" style="fill:#ad6359"></path><path d="M205.7,202.53c-4.07-1.93-8.49-2.55-12.86-3.42a.08.08,0,0,0,0,.16c4.36.81,8.5,2.48,12.83,3.47A.11.11,0,0,0,205.7,202.53Z" style="fill:#263238"></path><path d="M204.11,210.25a11.84,11.84,0,0,0-3-.66l-3.24-.42c-2.16-.24-4.34-.44-6.51-.57-.1,0-.13.14,0,.15,2.16.25,4.31.53,6.46.87q1.61.25,3.21.54a14.3,14.3,0,0,0,3.05.38A.15.15,0,0,0,204.11,210.25Z" style="fill:#263238"></path><path d="M201.8,219.22a8.31,8.31,0,0,0-2.73-.44l-3-.29c-2-.21-4-.42-5.92-.69-.1,0-.13.14,0,.15,2,.29,4,.61,6,.88l2.95.38a7.67,7.67,0,0,0,2.7.11S201.84,219.24,201.8,219.22Z" style="fill:#263238"></path><path d="M147,195.2a14.86,14.86,0,0,1,5.76-2.46,21.86,21.86,0,0,1,6.3-.39,61.74,61.74,0,0,1,6.24.73,57.71,57.71,0,0,1,6.13,1.35c-2.08-.21-4.15-.47-6.22-.71s-4.13-.48-6.2-.69a23.6,23.6,0,0,0-6.17.15A17.06,17.06,0,0,0,147,195.2Z" style="fill:#263238"></path></g></svg>