<svg xmlns="http://www.w3.org/2000/svg" viewBox="0 0 500 500"><g id="freepik--Floor--inject-14"><polygon points="31.22 377.48 85.91 377.24 140.61 377.15 250 376.98 359.39 377.15 414.09 377.23 468.78 377.48 414.09 377.72 359.39 377.81 250 377.98 140.61 377.81 85.91 377.72 31.22 377.48" style="fill:#263238"></polygon></g><g id="freepik--Shadow--inject-14"><ellipse cx="250" cy="416.45" rx="214.86" ry="20.23" style="fill:#ebebeb"></ellipse></g><g id="freepik--light-bulb--inject-14"><path d="M301.26,201.73c0,3.7,5.89,6.81,5.89,13.84,0,3.6-2.73,10.61-10.91,10.61s-10.91-7-10.91-10.61c0-7,5.89-10.14,5.89-13.84,0-3.22-4.05-6.15-4.05-6.15h-37V154.94s2.93-4,6.15-4c3.7,0,6.81,5.89,13.84,5.89,3.6,0,10.61-2.73,10.61-10.91s-7-10.91-10.61-10.91c-7,0-10.14,5.89-13.84,5.89-3.22,0-6.15-4-6.15-4V96.93c54.18,0,96.47,43.68,96.47,90.7q0,4.06-.36,8h-41S301.26,198.51,301.26,201.73Z" style="fill:#FFC727"></path><path d="M219.56,235.74c0,8.18,7,10.91,10.62,10.91,7,0,10.14-5.89,13.84-5.89,3.22,0,6.14,4,6.14,4V339h-37s4.29-33.34-12.48-58c-9.75-14.36-42.85-42.77-46.61-85.37h43.89s4-2.92,4-6.14c0-3.7-5.89-6.81-5.89-13.84,0-3.6,2.73-10.62,10.91-10.62s10.91,7,10.91,10.62c0,7-5.89,10.14-5.89,13.84,0,3.22,4,6.14,4,6.14h34.1v31.1s-2.92,4-6.14,4c-3.7,0-6.81-5.89-13.84-5.89C226.58,224.83,219.56,227.56,219.56,235.74Z" style="fill:#FFC727"></path><path d="M280.76,145.88c0,8.18-7,10.91-10.61,10.91-7,0-10.14-5.89-13.84-5.89-3.22,0-6.15,4-6.15,4v40.64h-34.1s-4-2.92-4-6.14c0-3.7,5.89-6.81,5.89-13.84,0-3.6-2.73-10.62-10.91-10.62s-10.91,7-10.91,10.62c0,7,5.89,10.14,5.89,13.84,0,3.22-4,6.14-4,6.14H154.05q-.36-3.89-.36-8c0-47,42.29-90.7,96.47-90.7v39.89s2.93,4,6.15,4c3.7,0,6.81-5.89,13.84-5.89C273.75,135,280.76,137.7,280.76,145.88Z" style="fill:#FFC727"></path><path d="M280.76,145.88c0,8.18-7,10.91-10.61,10.91-7,0-10.14-5.89-13.84-5.89-3.22,0-6.15,4-6.15,4v40.64h-34.1s-4-2.92-4-6.14c0-3.7,5.89-6.81,5.89-13.84,0-3.6-2.73-10.62-10.91-10.62s-10.91,7-10.91,10.62c0,7,5.89,10.14,5.89,13.84,0,3.22-4,6.14-4,6.14H154.05q-.36-3.89-.36-8c0-47,42.29-90.7,96.47-90.7v39.89s2.93,4,6.15,4c3.7,0,6.81-5.89,13.84-5.89C273.75,135,280.76,137.7,280.76,145.88Z" style="opacity:0.1"></path><rect x="204.41" y="338.99" width="91.5" height="14.21" style="fill:#455a64"></rect><rect x="204.41" y="355.72" width="91.5" height="14.21" style="fill:#455a64"></rect><rect x="218.69" y="372.46" width="62.95" height="14.21" style="fill:#455a64"></rect></g><g id="freepik--character-2--inject-14"><path d="M325,418.87c1.77.59,52.21.44,54.14-.78.72-.45,1.13-7.81,1.37-16.7.05-1.92.09-3.9.12-5.92,0-2.39.07-4.8.09-7.15.06-10.53-.09-19.81-.09-19.81H347.83l0,19.81v7.15l.17,5.92s-19.29,8.7-21.25,10.27S323.28,418.29,325,418.87Z" style="fill:#ad6359"></path><path d="M325,418.87c1.77.59,52.21.44,54.14-.78.72-.45,1.13-7.81,1.37-16.7.05-1.92.09-3.9.12-5.92,0-2.39.07-4.8.09-7.15H347.85v7.15l.17,5.92s-19.29,8.7-21.25,10.27S323.28,418.29,325,418.87Z" style="fill:#fff"></path><path d="M324.89,419c1.15.38,22.63.45,38.28.13,3.62-.08,6.93-.18,9.6-.29,3.68-.17,6.15-.37,6.56-.63.88-.57,1.31-11.36,1.51-22.75h-33l.17,5.95s-19.39,8.75-21.37,10.32S323.12,418.35,324.89,419Z" style="fill:#FFC727"></path><path d="M325.61,416.92c8.5-.24,42.82-.38,51.24,0,.07,0,.07.05,0,.05-8.42.42-42.74.28-51.24.05C325.43,417.05,325.43,416.92,325.61,416.92Z" style="fill:#263238"></path><path d="M346.8,399.48c3.34-.63,7.43-.13,10,2.24.1.1,0,.24-.14.2a47.21,47.21,0,0,0-9.85-2A.21.21,0,0,1,346.8,399.48Z" style="fill:#263238"></path><path d="M344.38,400.94c3.35-.63,7.44-.13,10,2.25.1.09,0,.23-.14.2a46,46,0,0,0-9.85-2A.22.22,0,0,1,344.38,400.94Z" style="fill:#263238"></path><path d="M342,402.41c3.35-.64,7.44-.14,10,2.24.1.09,0,.23-.15.2a47,47,0,0,0-9.84-2A.21.21,0,0,1,342,402.41Z" style="fill:#263238"></path><path d="M339.56,403.87c3.35-.64,7.44-.13,10,2.24.09.09,0,.23-.15.2a47.12,47.12,0,0,0-9.84-2A.21.21,0,0,1,339.56,403.87Z" style="fill:#263238"></path><path d="M342.11,396.52c2.37,1.83,5.45,2.58,8.22,3.59.28.11.51-.16.52-.42a.09.09,0,0,0,.08-.12,17.9,17.9,0,0,0-5.18-7.65c-1.4-1.17-3.85-2-5.16-.16S340.72,395.45,342.11,396.52Zm-.86-2.69c-.6-3.67,3.34-1.75,4.34-.85a18.9,18.9,0,0,1,1.78,1.91,53.85,53.85,0,0,1,3.12,4.4c-1.33-.58-2.69-1-4-1.57C344.84,397.08,341.58,395.85,341.25,393.83Z" style="fill:#263238"></path><path d="M362.09,394.44c-.82-2.08-3.39-1.91-5-1.13a17.77,17.77,0,0,0-6.92,6.12.08.08,0,0,0,0,.13.42.42,0,0,0,.41.54c2.93-.29,6.1-.24,8.85-1.43C361,398,362.86,396.41,362.09,394.44Zm-7.16,4.31c-1.44.18-2.88.28-4.31.52a52.74,52.74,0,0,1,4.12-3.49,19.47,19.47,0,0,1,2.2-1.4c1.19-.63,5.49-1.5,4,1.9C360.11,398.16,356.64,398.53,354.93,398.75Z" style="fill:#263238"></path><path d="M391.63,228.55s-10.66,87.79-10.87,88.9c0,.15-.05,66.83-.05,66.83H347.84s-1-55.81.37-68.84c1.73-16.61,12.63-86.89,12.63-86.89Z" style="fill:#ad6359"></path><path d="M419,417.31c1.85-.2,47.74-21.14,49-23.05.47-.72-2.19-7.58-5.64-15.78-.74-1.77-1.44-3.64-2.33-5.45-1.11-2.27-2.24-4.53-3.37-6.7-4.84-9.43-9.29-17.16-9.29-17.16l-29.07,13.16,8.39,17.19,3.44,7.05,2.6,5.33s-14,15.88-15.12,18.11S417.19,417.5,419,417.31Z" style="fill:#ad6359"></path><path d="M419,417.31c1.85-.2,47.74-21.14,49-23.05.47-.72-2.19-7.58-5.64-15.78-.74-1.77-1.44-3.64-2.33-5.45-1.11-2.27-2.24-4.53-3.37-6.7-9,4-21.91,9.68-30,13.19l3.44,7.05,2.6,5.33s-14,15.88-15.12,18.11S417.19,417.5,419,417.31Z" style="fill:#fff"></path><path d="M418.93,417.44c1.85-.2,48-21.26,49.26-23.18.58-.88-3.49-10.89-8-21.34l-30.06,13.61,2.61,5.35s-14.07,16-15.21,18.22S417.07,417.63,418.93,417.44Z" style="fill:#FFC727"></path><path d="M418.75,415.29c7.65-3.72,38.85-18,46.69-21.11.07,0,.09,0,0,.05-7.51,3.86-38.82,17.89-46.67,21.18C418.64,415.48,418.58,415.37,418.75,415.29Z" style="fill:#263238"></path><path d="M430.85,390.66c2.79-2,6.72-3.19,10-2.08.13,0,.07.23-.05.24A47.3,47.3,0,0,0,431,391,.22.22,0,0,1,430.85,390.66Z" style="fill:#263238"></path><path d="M429.26,393c2.78-2,6.72-3.19,10-2.08.13,0,.06.22-.05.24a46.38,46.38,0,0,0-9.8,2.22A.22.22,0,0,1,429.26,393Z" style="fill:#263238"></path><path d="M427.67,395.32c2.78-2,6.72-3.19,10-2.09.13,0,.07.23,0,.24a47.26,47.26,0,0,0-9.81,2.23A.21.21,0,0,1,427.67,395.32Z" style="fill:#263238"></path><path d="M426.07,397.64c2.79-1.95,6.73-3.19,10-2.08.13,0,.07.23-.05.24a48,48,0,0,0-9.8,2.22A.22.22,0,0,1,426.07,397.64Z" style="fill:#263238"></path><path d="M425.36,389.9c2.92.69,6,.1,9-.12a.41.41,0,0,0,.3-.6c.05,0,.08-.09,0-.14a17.93,17.93,0,0,0-7.87-4.83c-1.76-.49-4.33-.21-4.77,2S423.66,389.5,425.36,389.9Zm-1.89-2.09c-2.06-3.1,2.32-3,3.6-2.57a17.53,17.53,0,0,1,2.41,1,52.91,52.91,0,0,1,4.66,2.72c-1.45,0-2.88.16-4.33.23C428.08,389.28,424.6,389.51,423.47,387.81Z" style="fill:#263238"></path><path d="M442.7,379.76c-1.6-1.56-3.88-.34-5.05,1.05a17.92,17.92,0,0,0-3.79,8.43c0,.07.05.1.1.1.06.25.33.48.59.33,2.55-1.48,5.46-2.74,7.48-5C443.21,383.42,444.22,381.24,442.7,379.76ZM438,386.64c-1.24.76-2.5,1.45-3.71,2.25a51.66,51.66,0,0,1,2.32-4.87,18.64,18.64,0,0,1,1.42-2.19c.83-1.06,4.38-3.63,4.42.09C442.44,384,439.43,385.74,438,386.64Z" style="fill:#263238"></path><path d="M360.84,228.55s2.38,12.68,11.23,19.13c0,0,19.51,65.28,22,72.77,4.37,12.9,31.4,56.59,31.4,56.59l29.9-13.19S428.32,314.4,425,309.06c-1.66-2.72-14.33-55.42-14.15-56.78,2.18-16.22-5.52-23.81-5.52-23.81Z" style="fill:#ad6359"></path><path d="M360.84,228.55h45.67a34.72,34.72,0,0,1,5.24,23.79s13.14,52.19,14.54,55.56,8.56,14.73,8.56,14.73C389.11,351.85,347.49,338,347.49,338s0-13,.66-24.56C348.35,309.89,360.84,228.55,360.84,228.55Z" style="fill:#263238"></path><path d="M364.08,236.85a.41.41,0,1,1-.82,0,.41.41,0,0,1,.82,0Zm6.78-.41a.41.41,0,0,0-.41.41.41.41,0,1,0,.82,0A.41.41,0,0,0,370.86,236.44Zm7.19,0a.41.41,0,0,0-.41.41.41.41,0,1,0,.82,0A.41.41,0,0,0,378.05,236.44Zm7.19,0a.41.41,0,0,0-.41.41.41.41,0,1,0,.82,0A.41.41,0,0,0,385.24,236.44Zm7.19,0a.41.41,0,0,0-.41.41.41.41,0,1,0,.82,0A.41.41,0,0,0,392.43,236.44Zm7.19,0a.41.41,0,0,0-.41.41.41.41,0,1,0,.82,0A.41.41,0,0,0,399.62,236.44Zm7.19,0a.41.41,0,0,0-.41.41.41.41,0,1,0,.82,0A.41.41,0,0,0,406.81,236.44Zm-46.45-4.74c0,.21-.07.44-.11.68a.4.4,0,0,0,.24-.37A.44.44,0,0,0,360.36,231.7Zm6.9-.1a.41.41,0,1,0,.42.41A.41.41,0,0,0,367.26,231.6Zm7.19,0a.41.41,0,1,0,.42.41A.41.41,0,0,0,374.45,231.6Zm7.19,0a.41.41,0,1,0,.42.41A.41.41,0,0,0,381.64,231.6Zm7.19,0a.41.41,0,1,0,.42.41A.41.41,0,0,0,388.83,231.6Zm7.19,0a.41.41,0,1,0,.42.41A.41.41,0,0,0,396,231.6Zm7.19,0a.41.41,0,1,0,.42.41A.41.41,0,0,0,403.21,231.6Zm-39.54,14.68a.41.41,0,0,0-.41.42.41.41,0,0,0,.82,0A.41.41,0,0,0,363.67,246.28Zm7.19,0a.41.41,0,0,0-.41.42.41.41,0,0,0,.82,0A.41.41,0,0,0,370.86,246.28Zm7.19,0a.41.41,0,0,0-.41.42.41.41,0,0,0,.82,0A.41.41,0,0,0,378.05,246.28Zm7.19,0a.41.41,0,0,0-.41.42.41.41,0,0,0,.82,0A.41.41,0,0,0,385.24,246.28Zm7.19,0a.41.41,0,0,0-.41.42.41.41,0,0,0,.82,0A.41.41,0,0,0,392.43,246.28Zm7.19,0a.41.41,0,0,0-.41.42.41.41,0,0,0,.82,0A.41.41,0,0,0,399.62,246.28Zm7.19,0a.41.41,0,0,0-.41.42.41.41,0,0,0,.82,0A.41.41,0,0,0,406.81,246.28Zm-46.73-4.84a.42.42,0,1,0,.41.42A.42.42,0,0,0,360.08,241.44Zm7.18,0a.42.42,0,1,0,.42.42A.42.42,0,0,0,367.26,241.44Zm7.19,0a.42.42,0,1,0,.42.42A.42.42,0,0,0,374.45,241.44Zm7.19,0a.42.42,0,1,0,.42.42A.42.42,0,0,0,381.64,241.44Zm7.19,0a.42.42,0,1,0,.42.42A.42.42,0,0,0,388.83,241.44Zm7.19,0a.42.42,0,1,0,.42.42A.42.42,0,0,0,396,241.44Zm7.19,0a.42.42,0,1,0,.42.42A.42.42,0,0,0,403.21,241.44Zm7.19,0a.42.42,0,1,0,.42.42A.42.42,0,0,0,410.4,241.44Zm-53.78,14.72-.12.79a.41.41,0,0,0,.39-.41A.39.39,0,0,0,356.62,256.16Zm7.05,0a.41.41,0,0,0-.41.41.41.41,0,1,0,.82,0A.41.41,0,0,0,363.67,256.13Zm7.19,0a.41.41,0,0,0-.41.41.41.41,0,1,0,.82,0A.41.41,0,0,0,370.86,256.13Zm7.19,0a.41.41,0,0,0-.41.41.41.41,0,1,0,.82,0A.41.41,0,0,0,378.05,256.13Zm7.19,0a.41.41,0,0,0-.41.41.41.41,0,1,0,.82,0A.41.41,0,0,0,385.24,256.13Zm7.19,0a.41.41,0,0,0-.41.41.41.41,0,1,0,.82,0A.41.41,0,0,0,392.43,256.13Zm7.19,0a.41.41,0,0,0-.41.41.41.41,0,1,0,.82,0A.41.41,0,0,0,399.62,256.13Zm7.19,0a.41.41,0,0,0-.41.41.41.41,0,1,0,.82,0A.41.41,0,0,0,406.81,256.13Zm-46.73-4.84a.41.41,0,1,0,.41.41A.41.41,0,0,0,360.08,251.29Zm7.18,0a.41.41,0,1,0,.42.41A.41.41,0,0,0,367.26,251.29Zm7.19,0a.41.41,0,1,0,.42.41A.41.41,0,0,0,374.45,251.29Zm7.19,0a.41.41,0,1,0,.42.41A.41.41,0,0,0,381.64,251.29Zm7.19,0a.41.41,0,1,0,.42.41A.41.41,0,0,0,388.83,251.29Zm7.19,0a.41.41,0,1,0,.42.41A.41.41,0,0,0,396,251.29Zm7.19,0a.41.41,0,1,0,.42.41A.41.41,0,0,0,403.21,251.29Zm7.19,0a.41.41,0,1,0,.42.41A.41.41,0,0,0,410.4,251.29ZM356.48,266a.41.41,0,0,0-.41.42.41.41,0,0,0,.82,0A.41.41,0,0,0,356.48,266Zm7.19,0a.41.41,0,0,0-.41.42.41.41,0,0,0,.82,0A.41.41,0,0,0,363.67,266Zm7.19,0a.41.41,0,0,0-.41.42.41.41,0,0,0,.82,0A.41.41,0,0,0,370.86,266Zm7.19,0a.41.41,0,0,0-.41.42.41.41,0,0,0,.82,0A.41.41,0,0,0,378.05,266Zm7.19,0a.41.41,0,0,0-.41.42.41.41,0,0,0,.82,0A.41.41,0,0,0,385.24,266Zm7.19,0a.41.41,0,0,0-.41.42.41.41,0,0,0,.82,0A.41.41,0,0,0,392.43,266Zm7.19,0a.41.41,0,0,0-.41.42.41.41,0,0,0,.82,0A.41.41,0,0,0,399.62,266Zm7.19,0a.41.41,0,0,0-.41.42.41.41,0,1,0,.82,0A.41.41,0,0,0,406.81,266Zm7.19,0a.41.41,0,0,0-.41.42.41.41,0,0,0,.82,0A.41.41,0,0,0,414,266Zm-53.92-4.84a.42.42,0,0,0-.42.42.42.42,0,0,0,.83,0A.42.42,0,0,0,360.08,261.13Zm7.18,0a.42.42,0,0,0-.41.42.42.42,0,0,0,.83,0A.42.42,0,0,0,367.26,261.13Zm7.19,0a.42.42,0,0,0-.41.42.42.42,0,0,0,.83,0A.42.42,0,0,0,374.45,261.13Zm7.19,0a.42.42,0,0,0-.41.42.42.42,0,0,0,.83,0A.42.42,0,0,0,381.64,261.13Zm7.19,0a.42.42,0,0,0-.41.42.42.42,0,0,0,.83,0A.42.42,0,0,0,388.83,261.13Zm7.19,0a.42.42,0,0,0-.41.42.42.42,0,0,0,.83,0A.42.42,0,0,0,396,261.13Zm7.19,0a.42.42,0,0,0-.41.42.42.42,0,0,0,.83,0A.42.42,0,0,0,403.21,261.13Zm7.19,0a.42.42,0,0,0-.41.42.42.42,0,0,0,.83,0A.42.42,0,0,0,410.4,261.13Zm-53.92,14.69a.42.42,0,1,0,.41.41A.41.41,0,0,0,356.48,275.82Zm7.19,0a.42.42,0,1,0,.41.41A.41.41,0,0,0,363.67,275.82Zm7.19,0a.42.42,0,1,0,.41.41A.41.41,0,0,0,370.86,275.82Zm7.19,0a.42.42,0,1,0,.41.41A.41.41,0,0,0,378.05,275.82Zm7.19,0a.42.42,0,1,0,.41.41A.41.41,0,0,0,385.24,275.82Zm7.19,0a.42.42,0,1,0,.41.41A.41.41,0,0,0,392.43,275.82Zm7.19,0a.42.42,0,1,0,.41.41A.41.41,0,0,0,399.62,275.82Zm7.19,0a.42.42,0,1,0,.41.41A.41.41,0,0,0,406.81,275.82Zm7.19,0a.42.42,0,1,0,.41.41A.41.41,0,0,0,414,275.82ZM360.08,271a.41.41,0,0,0-.42.41.42.42,0,1,0,.83,0A.41.41,0,0,0,360.08,271Zm7.18,0a.41.41,0,0,0-.41.41.42.42,0,1,0,.83,0A.41.41,0,0,0,367.26,271Zm7.19,0a.41.41,0,0,0-.41.41.42.42,0,1,0,.83,0A.41.41,0,0,0,374.45,271Zm7.19,0a.41.41,0,0,0-.41.41.42.42,0,1,0,.83,0A.41.41,0,0,0,381.64,271Zm7.19,0a.41.41,0,0,0-.41.41.42.42,0,1,0,.83,0A.41.41,0,0,0,388.83,271Zm7.19,0a.41.41,0,0,0-.41.41.42.42,0,1,0,.83,0A.41.41,0,0,0,396,271Zm7.19,0a.41.41,0,0,0-.41.41.42.42,0,1,0,.83,0A.41.41,0,0,0,403.21,271Zm7.19,0a.41.41,0,0,0-.41.41.42.42,0,1,0,.83,0A.41.41,0,0,0,410.4,271Zm-53.92,14.69a.41.41,0,1,0,.41.41A.41.41,0,0,0,356.48,285.67Zm7.19,0a.41.41,0,1,0,.41.41A.41.41,0,0,0,363.67,285.67Zm7.19,0a.41.41,0,1,0,.41.41A.41.41,0,0,0,370.86,285.67Zm7.19,0a.41.41,0,1,0,.41.41A.41.41,0,0,0,378.05,285.67Zm7.19,0a.41.41,0,1,0,.41.41A.41.41,0,0,0,385.24,285.67Zm7.19,0a.41.41,0,1,0,.41.41A.41.41,0,0,0,392.43,285.67Zm7.19,0a.41.41,0,1,0,.41.41A.41.41,0,0,0,399.62,285.67Zm7.19,0a.41.41,0,1,0,.41.41A.41.41,0,0,0,406.81,285.67Zm7.19,0a.41.41,0,1,0,.41.41A.41.41,0,0,0,414,285.67Zm-61.11-4.85h0l-.12.81.13,0a.42.42,0,0,0,0-.83Zm7.19,0a.42.42,0,0,0-.42.42.42.42,0,0,0,.83,0A.42.42,0,0,0,360.08,280.82Zm7.18,0a.42.42,0,0,0-.41.42.42.42,0,0,0,.83,0A.42.42,0,0,0,367.26,280.82Zm7.19,0a.42.42,0,0,0-.41.42.42.42,0,0,0,.83,0A.42.42,0,0,0,374.45,280.82Zm7.19,0a.42.42,0,0,0-.41.42.42.42,0,0,0,.83,0A.42.42,0,0,0,381.64,280.82Zm7.19,0a.42.42,0,0,0-.41.42.42.42,0,0,0,.83,0A.42.42,0,0,0,388.83,280.82Zm7.19,0a.42.42,0,0,0-.41.42.42.42,0,0,0,.83,0A.42.42,0,0,0,396,280.82Zm7.19,0a.42.42,0,0,0-.41.42.42.42,0,0,0,.83,0A.42.42,0,0,0,403.21,280.82Zm7.19,0a.42.42,0,0,0-.41.42.42.42,0,0,0,.83,0A.42.42,0,0,0,410.4,280.82Zm7.19,0a.42.42,0,0,0-.41.42.42.42,0,0,0,.83,0A.42.42,0,0,0,417.59,280.82Zm-61.11,14.69a.42.42,0,1,0,.41.41A.41.41,0,0,0,356.48,295.51Zm7.19,0a.42.42,0,1,0,.41.41A.41.41,0,0,0,363.67,295.51Zm7.19,0a.42.42,0,1,0,.41.41A.41.41,0,0,0,370.86,295.51Zm7.19,0a.42.42,0,1,0,.41.41A.41.41,0,0,0,378.05,295.51Zm7.19,0a.42.42,0,1,0,.41.41A.41.41,0,0,0,385.24,295.51Zm7.19,0a.42.42,0,1,0,.41.41A.41.41,0,0,0,392.43,295.51Zm7.19,0a.42.42,0,1,0,.41.41A.41.41,0,0,0,399.62,295.51Zm7.19,0a.42.42,0,1,0,.41.41A.41.41,0,0,0,406.81,295.51Zm7.19,0a.42.42,0,1,0,.41.41A.41.41,0,0,0,414,295.51Zm7.19,0a.42.42,0,1,0,0,.83.42.42,0,0,0,0-.83Zm-68.3-4.84a.41.41,0,0,0-.42.41.42.42,0,1,0,.83,0A.41.41,0,0,0,352.89,290.67Zm7.19,0a.41.41,0,0,0-.42.41.42.42,0,1,0,.83,0A.41.41,0,0,0,360.08,290.67Zm7.18,0a.41.41,0,0,0-.41.41.42.42,0,1,0,.83,0A.41.41,0,0,0,367.26,290.67Zm7.19,0a.41.41,0,0,0-.41.41.42.42,0,1,0,.83,0A.41.41,0,0,0,374.45,290.67Zm7.19,0a.41.41,0,0,0-.41.41.42.42,0,1,0,.83,0A.41.41,0,0,0,381.64,290.67Zm7.19,0a.41.41,0,0,0-.41.41.42.42,0,1,0,.83,0A.41.41,0,0,0,388.83,290.67Zm7.19,0a.41.41,0,0,0-.41.41.42.42,0,1,0,.83,0A.41.41,0,0,0,396,290.67Zm7.19,0a.41.41,0,0,0-.41.41.42.42,0,1,0,.83,0A.41.41,0,0,0,403.21,290.67Zm7.19,0a.41.41,0,0,0-.41.41.42.42,0,1,0,.83,0A.41.41,0,0,0,410.4,290.67Zm7.19,0a.41.41,0,0,0-.41.41.42.42,0,1,0,.83,0A.41.41,0,0,0,417.59,290.67Zm-68.3,14.68h-.05q-.06.4-.12.78h0a.47.47,0,0,0,.17,0,.41.41,0,0,0,.41-.41A.41.41,0,0,0,349.29,305.35Zm7.19,0a.41.41,0,1,0,.41.41A.41.41,0,0,0,356.48,305.36Zm7.19,0a.41.41,0,1,0,.41.41A.41.41,0,0,0,363.67,305.36Zm7.19,0a.41.41,0,1,0,.41.41A.41.41,0,0,0,370.86,305.36Zm7.19,0a.41.41,0,1,0,.41.41A.41.41,0,0,0,378.05,305.36Zm7.19,0a.41.41,0,1,0,.41.41A.41.41,0,0,0,385.24,305.36Zm7.19,0a.41.41,0,1,0,.41.41A.41.41,0,0,0,392.43,305.36Zm7.19,0a.41.41,0,1,0,.41.41A.41.41,0,0,0,399.62,305.36Zm7.19,0a.41.41,0,1,0,.41.41A.41.41,0,0,0,406.81,305.36Zm7.19,0a.41.41,0,1,0,.41.41A.41.41,0,0,0,414,305.36Zm7.19,0a.41.41,0,1,0,0,.82.41.41,0,1,0,0-.82Zm-68.3-4.85a.42.42,0,0,0-.42.42.42.42,0,0,0,.83,0A.42.42,0,0,0,352.89,300.51Zm7.19,0a.42.42,0,0,0-.42.42.42.42,0,0,0,.83,0A.42.42,0,0,0,360.08,300.51Zm7.18,0a.42.42,0,0,0-.41.42.42.42,0,0,0,.83,0A.42.42,0,0,0,367.26,300.51Zm7.19,0a.42.42,0,0,0-.41.42.42.42,0,0,0,.83,0A.42.42,0,0,0,374.45,300.51Zm7.19,0a.42.42,0,0,0-.41.42.42.42,0,0,0,.83,0A.42.42,0,0,0,381.64,300.51Zm7.19,0a.42.42,0,0,0-.41.42.42.42,0,0,0,.83,0A.42.42,0,0,0,388.83,300.51Zm7.19,0a.42.42,0,0,0-.41.42.42.42,0,0,0,.83,0A.42.42,0,0,0,396,300.51Zm7.19,0a.42.42,0,0,0-.41.42.42.42,0,0,0,.83,0A.42.42,0,0,0,403.21,300.51Zm7.19,0a.42.42,0,0,0-.41.42.42.42,0,0,0,.83,0A.42.42,0,0,0,410.4,300.51Zm7.19,0a.42.42,0,0,0-.41.42.42.42,0,0,0,.83,0A.42.42,0,0,0,417.59,300.51Zm-68.3,14.69a.42.42,0,1,0,.41.42A.41.41,0,0,0,349.29,315.2Zm7.19,0a.42.42,0,1,0,.41.42A.41.41,0,0,0,356.48,315.2Zm7.19,0a.42.42,0,1,0,.41.42A.41.41,0,0,0,363.67,315.2Zm7.19,0a.42.42,0,1,0,.41.42A.41.41,0,0,0,370.86,315.2Zm7.19,0a.42.42,0,1,0,.41.42A.41.41,0,0,0,378.05,315.2Zm7.19,0a.42.42,0,1,0,.41.42A.41.41,0,0,0,385.24,315.2Zm7.19,0a.42.42,0,1,0,.41.42A.41.41,0,0,0,392.43,315.2Zm7.19,0a.42.42,0,1,0,.41.42A.41.41,0,0,0,399.62,315.2Zm7.19,0a.42.42,0,1,0,.41.42A.41.41,0,0,0,406.81,315.2Zm7.19,0a.42.42,0,1,0,.41.42A.41.41,0,0,0,414,315.2Zm7.19,0a.42.42,0,1,0,0,.83.42.42,0,0,0,0-.83Zm7.19,0a.42.42,0,1,0,0,.83.42.42,0,0,0,0-.83Zm-75.49-4.84a.42.42,0,1,0,.41.41A.42.42,0,0,0,352.89,310.36Zm7.19,0a.42.42,0,1,0,.41.41A.42.42,0,0,0,360.08,310.36Zm7.18,0a.42.42,0,1,0,.42.41A.42.42,0,0,0,367.26,310.36Zm7.19,0a.42.42,0,1,0,.42.41A.42.42,0,0,0,374.45,310.36Zm7.19,0a.42.42,0,1,0,.42.41A.42.42,0,0,0,381.64,310.36Zm7.19,0a.42.42,0,1,0,.42.41A.42.42,0,0,0,388.83,310.36Zm7.19,0a.42.42,0,1,0,.42.41A.42.42,0,0,0,396,310.36Zm7.19,0a.42.42,0,1,0,.42.41A.42.42,0,0,0,403.21,310.36Zm7.19,0a.42.42,0,1,0,.42.41A.42.42,0,0,0,410.4,310.36Zm7.19,0a.42.42,0,1,0,.42.41A.42.42,0,0,0,417.59,310.36Zm7.19,0a.42.42,0,1,0,.42.41A.42.42,0,0,0,424.78,310.36Zm-75.49,14.69a.41.41,0,1,0,.41.41A.41.41,0,0,0,349.29,325.05Zm7.19,0a.41.41,0,1,0,.41.41A.41.41,0,0,0,356.48,325.05Zm7.19,0a.41.41,0,1,0,.41.41A.41.41,0,0,0,363.67,325.05Zm7.19,0a.41.41,0,1,0,.41.41A.41.41,0,0,0,370.86,325.05Zm7.19,0a.41.41,0,1,0,.41.41A.41.41,0,0,0,378.05,325.05Zm7.19,0a.41.41,0,1,0,.41.41A.41.41,0,0,0,385.24,325.05Zm7.19,0a.41.41,0,1,0,.41.41A.41.41,0,0,0,392.43,325.05Zm7.19,0a.41.41,0,1,0,.41.41A.41.41,0,0,0,399.62,325.05Zm7.19,0a.41.41,0,1,0,.41.41A.41.41,0,0,0,406.81,325.05Zm7.19,0a.41.41,0,1,0,.41.41A.41.41,0,0,0,414,325.05Zm7.19,0a.41.41,0,1,0,0,.82.41.41,0,1,0,0-.82Zm7.19,0a.41.41,0,1,0,0,.82.41.41,0,1,0,0-.82Zm-75.49-4.84a.41.41,0,1,0,.41.41A.41.41,0,0,0,352.89,320.21Zm7.19,0a.41.41,0,1,0,.41.41A.41.41,0,0,0,360.08,320.21Zm7.18,0a.41.41,0,1,0,.42.41A.41.41,0,0,0,367.26,320.21Zm7.19,0a.41.41,0,1,0,.42.41A.41.41,0,0,0,374.45,320.21Zm7.19,0a.41.41,0,1,0,.42.41A.41.41,0,0,0,381.64,320.21Zm7.19,0a.41.41,0,1,0,.42.41A.41.41,0,0,0,388.83,320.21Zm7.19,0a.41.41,0,1,0,.42.41A.41.41,0,0,0,396,320.21Zm7.19,0a.41.41,0,1,0,.42.41A.41.41,0,0,0,403.21,320.21Zm7.19,0a.41.41,0,1,0,.42.41A.41.41,0,0,0,410.4,320.21Zm7.19,0a.41.41,0,1,0,.42.41A.41.41,0,0,0,417.59,320.21Zm7.19,0a.41.41,0,1,0,.42.41A.41.41,0,0,0,424.78,320.21Zm7.19,0a.41.41,0,0,0,0,.82.41.41,0,1,0,0-.82Zm-82.68,14.68a.42.42,0,1,0,.41.42A.41.41,0,0,0,349.29,334.89Zm7.19,0a.42.42,0,1,0,.41.42A.41.41,0,0,0,356.48,334.89Zm7.19,0a.42.42,0,1,0,.41.42A.41.41,0,0,0,363.67,334.89Zm7.19,0a.42.42,0,1,0,.41.42A.41.41,0,0,0,370.86,334.89Zm7.19,0a.42.42,0,1,0,.41.42A.41.41,0,0,0,378.05,334.89Zm7.19,0a.42.42,0,1,0,.41.42A.41.41,0,0,0,385.24,334.89Zm7.19,0a.42.42,0,1,0,.41.42A.41.41,0,0,0,392.43,334.89Zm7.19,0a.42.42,0,1,0,.41.42A.41.41,0,0,0,399.62,334.89Zm7.19,0a.42.42,0,1,0,.41.42A.41.41,0,0,0,406.81,334.89Zm-53.92-4.84a.42.42,0,1,0,.41.41A.42.42,0,0,0,352.89,330.05Zm7.19,0a.42.42,0,1,0,.41.41A.42.42,0,0,0,360.08,330.05Zm7.18,0a.42.42,0,1,0,.42.41A.42.42,0,0,0,367.26,330.05Zm7.19,0a.42.42,0,1,0,.42.41A.42.42,0,0,0,374.45,330.05Zm7.19,0a.42.42,0,1,0,.42.41A.42.42,0,0,0,381.64,330.05Zm7.19,0a.42.42,0,1,0,.42.41A.42.42,0,0,0,388.83,330.05Zm7.19,0a.42.42,0,1,0,.42.41A.42.42,0,0,0,396,330.05Zm7.19,0a.42.42,0,1,0,.42.41A.42.42,0,0,0,403.21,330.05Zm7.19,0a.42.42,0,1,0,.42.41A.42.42,0,0,0,410.4,330.05Zm7.19,0a.42.42,0,1,0,.42.41A.42.42,0,0,0,417.59,330.05Zm-57.51,9.84a.42.42,0,0,0-.42.42.37.37,0,0,0,0,.15l.72.09a.41.41,0,0,0,.08-.24A.42.42,0,0,0,360.08,339.89Zm7.18,0a.41.41,0,1,0,.42.41A.41.41,0,0,0,367.26,339.9Zm7.19,0a.41.41,0,1,0,.42.41A.41.41,0,0,0,374.45,339.9Zm7.19,0a.41.41,0,1,0,.42.41A.41.41,0,0,0,381.64,339.9Zm7.19,0a.4.4,0,0,0-.37.25l.69-.1A.42.42,0,0,0,388.83,339.89Z" style="fill:#fff"></path><path d="M359.09,148.05c-7.26,6.21-5.24,15.28-8.27,20.2-1.85,3-7.88,6.19-9.08,9.65-2,5.7,2.85,7.74,1.77,10.84-1.53,4.38-7.4,4-8.45,11.22s6.83,14.8,25.57,16.87,29-4.79,29.7-10.88-5.57-8.11-6-12.66c-.27-2.9,3.58-4.92,3.77-10.27s-5-7.08-5.76-11.62,1.66-15.58-5-21.21S362.67,145,359.09,148.05Z" style="fill:#263238"></path><path d="M359.93,148.21a15.44,15.44,0,0,0-4.82,5.55,33.86,33.86,0,0,0-2.68,7.37,20.17,20.17,0,0,1-1.45,4.41,11.22,11.22,0,0,1-2.52,3.1c-2,1.84-4.44,3.23-6.26,5.29s-3.07,4.56-2.38,7.22a28.45,28.45,0,0,0,1.92,4c.56,1.28.79,2.87-.31,3.93-.94.91-2.29,1.32-3.36,2.07a11.84,11.84,0,0,0-2.73,2.65,9.2,9.2,0,0,0-1.73,7.2c1.11,5.83,6.57,9.15,11.62,11.23.71.3,1.41.58,2.12.86.11,0,.2-.11.09-.16-5.06-2.27-10.94-4.93-12.89-10.6a8.55,8.55,0,0,1,.87-7.52A11,11,0,0,1,338.1,192c1-.76,2.2-1.22,3.23-1.93a3.43,3.43,0,0,0,1.59-3.08,8.39,8.39,0,0,0-1.39-3.72,7,7,0,0,1-1.2-3.93,7.67,7.67,0,0,1,1.5-3.74c1.58-2.24,3.92-3.7,6-5.39a12.71,12.71,0,0,0,4.56-6.31c.39-1.34.63-2.71,1-4.06a36.65,36.65,0,0,1,1.12-3.7,17.59,17.59,0,0,1,4-6.53,9.88,9.88,0,0,1,1.55-1.27C360.05,148.27,360,148.17,359.93,148.21Z" style="fill:#263238"></path><path d="M391.16,201.49a7,7,0,0,0-1.3-2.73c-.65-.82-1.44-1.52-2.16-2.28a5.4,5.4,0,0,1-1.53-2.53,5.09,5.09,0,0,1,.82-3.38,25.1,25.1,0,0,0,1.68-3.26,11.6,11.6,0,0,0,.71-3.5,12,12,0,0,0-1.88-7c-.64-1-1.36-2-2-3.09a15.09,15.09,0,0,1-1.66-3.63c-.84-2.83-1-5.8-1.71-8.66a44.43,44.43,0,0,0-3.05-8.5c0-.06-.13,0-.09.06a39.44,39.44,0,0,1,2.66,7.68c.59,2.51.82,5.06,1.26,7.6a16.22,16.22,0,0,0,2.58,6.78c1.27,2.06,2.57,4.1,2.92,6.55a11.37,11.37,0,0,1-1.21,7c-1,1.86-2.36,3.92-1.5,6.1.73,1.84,2.49,2.95,3.66,4.48a7.43,7.43,0,0,1,1.27,5.92c-1,5.25-6.27,7.85-11.19,8.11a.12.12,0,0,0,0,.24c4.28-.05,8.93-1.93,10.94-5.94A9.06,9.06,0,0,0,391.16,201.49Z" style="fill:#263238"></path><path d="M374.28,185.12c-1.15,5.71-14,26.34-26.77,35-4.67,3.16-28.23,3.51-34.05,2.63-6.81-1-6.06-19.17-2.12-20.16,4.91-1.23,26.65.19,31.13-1.07,5.44-1.53,16-13.14,25.7-20.09C373.18,177.82,375.17,180.71,374.28,185.12Z" style="fill:#ad6359"></path><path d="M359.07,216.57l.3,21.74S400,235.39,409,233.17c0,0-14.4-40-27.08-51.23-.29-.26-.58-.51-.86-.73-.06-.06-.12-.09-.17-.14-5.83-4.58-11.65-2.28-14.83,2.15-1.81,2.53-10.8,17.43-11,23.27C354.91,211.64,359.07,216.57,359.07,216.57Z" style="fill:#FFC727"></path><path d="M311.69,284.08C298.77,311,308,343.33,308,343.33l-36.62,5.49-13.95-93.15s-3.5-3.57-6.68-3.09c-3.66.55-5.86,6.84-12.81,7.88-3.56.53-10.91-1.13-12.12-9.22s5.32-11.83,8.89-12.36c6.94-1,10.89,4.32,14.55,3.77,3.19-.47,5.48-4.91,5.48-4.91L250.08,207l36.6-5.48s4.44,2.29,4.91,5.48c.55,3.66-4.81,7.61-3.77,14.55.53,3.57,4.27,10.1,12.36,8.89s9.75-8.56,9.22-12.12c-1-6.95-7.33-9.15-7.88-12.81-.47-3.18,3.09-6.68,3.09-6.68l40.52-6.07C347.72,235.43,319.2,268.43,311.69,284.08Z" style="fill:#FFC727"></path><path d="M311.69,284.08C298.77,311,308,343.33,308,343.33l-36.62,5.49-13.95-93.15s-3.5-3.57-6.68-3.09c-3.66.55-5.86,6.84-12.81,7.88-3.56.53-10.91-1.13-12.12-9.22s5.32-11.83,8.89-12.36c6.94-1,10.89,4.32,14.55,3.77,3.19-.47,5.48-4.91,5.48-4.91L250.08,207l36.6-5.48s4.44,2.29,4.91,5.48c.55,3.66-4.81,7.61-3.77,14.55.53,3.57,4.27,10.1,12.36,8.89s9.75-8.56,9.22-12.12c-1-6.95-7.33-9.15-7.88-12.81-.47-3.18,3.09-6.68,3.09-6.68l40.52-6.07C347.72,235.43,319.2,268.43,311.69,284.08Z" style="opacity:0.1"></path><path d="M384.18,189.69c.61,12.3,1,35.75-4.74,42.87-7.49,9.36-27.8,14.42-33.8,15.94-2.62.66-8.05-16.48-6.44-18.87s22.56-6.82,24.25-8.16,8.82-22,11.71-32.1C378.79,176.69,383.77,181.24,384.18,189.69Z" style="fill:#ad6359"></path><path d="M323.59,235.53c-3.31.66-8.21-1.22-8.47,1.28-.23,2.23,3.29,3.19,3.29,3.19s-4.32.2-3.88,2.66S319,245.4,319,245.4s-4,.38-3.36,2.81,4.4,2.9,4.4,2.9-1,.71.17,2.23c1.71,2.17,7.71,2.16,10.83,1.41s14-5.81,15.68-6.62L342.11,228s-6.17-1.23-9.38-1.48-14,1.9-13.65,4.61,7.94,1.08,9.89,1.08,2.28.46,1.4,1.14A39.73,39.73,0,0,1,323.59,235.53Z" style="fill:#ad6359"></path><path d="M318.6,240c5,1,7.37.57,12.06-1.23.09,0,.16.1.07.14-4.43,2.18-7.32,3.14-12.19,1.33C318.3,240.12,318.36,239.92,318.6,240Z" style="fill:#100e3a"></path><path d="M318.84,245.3c5.28.59,7.85.15,12.9-1.37a.06.06,0,0,1,0,.12c-4.83,1.91-7.73,2.8-12.93,1.52C318.61,245.52,318.59,245.28,318.84,245.3Z" style="fill:#100e3a"></path><path d="M320.14,251.08c5.16.19,8-.17,12.7-2.27.11-.05.2.1.09.16a17.06,17.06,0,0,1-12.78,2.26C319.83,251.18,319.81,251.06,320.14,251.08Z" style="fill:#100e3a"></path><path d="M311.56,221.68c1.42-2.17-1.95-2.59-1.95-2.59s5-.56,5.59-3.37-3.53-3.08-3.82-3.11c.26,0,4.85-.66,5.15-3.55s-3.85-2.66-4.12-2.63c.24-.11,3.39-1.6,3.12-3.84-.46-3.86-8.62-.27-11.5-1.53l1.54-4.79c0-.16.05-.33.06-.49l-2.41-.9a32.07,32.07,0,0,1-3.53,3.81c-1.54,1.53-3,3-3.38,4.31a2.83,2.83,0,0,0,1,3.24s-2.64.77-2.95,3c-.16,1.17,1.56,2.45,1.56,2.45a3.38,3.38,0,0,0-2.24,2.73c-.13,1.62,1.61,2.66,1.61,2.66s-1.69,1.61-1.28,3.3C294.83,223.83,308.53,226.34,311.56,221.68Z" style="fill:#ad6359"></path><path d="M304,200.37l1.6-4.1c0-.16.05-.33.06-.49.57-5.59-4.55-10.65-6.1-6.93-1.18,2.83,1.79,7.11.16,9.84h0Z" style="fill:#ad6359"></path><path d="M295.55,217.32s-.07,0,0,.06a24.1,24.1,0,0,0,14.26,1.75c.15,0,.16-.3,0-.29A49.44,49.44,0,0,1,295.55,217.32Z" style="fill:#263238"></path><path d="M295.85,211.74c-.05,0-.07.07,0,.09a22.63,22.63,0,0,0,15.68.94c.17-.06.28-.3.06-.24C308,213.43,300.2,212.92,295.85,211.74Z" style="fill:#263238"></path><path d="M312.73,206.18c-5.07,1.48-10.1,1.2-15.23.16-.07,0-.08.08,0,.11,2.37,1.19,5.71,1.51,8.33,1.54a14,14,0,0,0,7-1.63C312.87,206.31,312.84,206.15,312.73,206.18Z" style="fill:#263238"></path><path d="M366.91,182.21s-1.61,4.53.33,4.9,6.59-1.7,12.26-7C379.5,180.09,373.72,175.47,366.91,182.21Z" style="fill:#ad6359"></path><path d="M376,180.34c-.2.81-4.14,6-7.83,5.76-1.2-.08-1.07-6.66-1.07-6.66L367,179l-1.42-6.82,8.08-5,1.16-.66s.27,1.9.57,4.26c0,.11,0,.22,0,.33s0,.26.05.39c.05.35.1.71.14,1.07s.07.54.09.83.06.57.09.85A45.37,45.37,0,0,1,376,180.34Z" style="fill:#ad6359"></path><path d="M375.35,170.72A14,14,0,0,1,367,179l-1.42-6.82,8.08-5,1.16-.66S375.05,168.36,375.35,170.72Z" style="fill:#263238"></path><path d="M356.45,161.1c-1.3,12.17,5.84,14.33,8.46,14.61,2.39.25,10.53.81,13.09-11.16s-2.7-16.43-8.12-17.29S357.75,148.93,356.45,161.1Z" style="fill:#ad6359"></path><path d="M358.89,159.3a8.17,8.17,0,0,0,.84-.14,1.4,1.4,0,0,0,.82-.31.45.45,0,0,0,0-.54,1.1,1.1,0,0,0-1.06-.29,1.57,1.57,0,0,0-1,.53A.46.46,0,0,0,358.89,159.3Z" style="fill:#263238"></path><path d="M366.86,160c-.29-.05-.54-.14-.82-.21a1.35,1.35,0,0,1-.8-.37.44.44,0,0,1,0-.53,1.11,1.11,0,0,1,1.08-.21,1.59,1.59,0,0,1,1,.6A.46.46,0,0,1,366.86,160Z" style="fill:#263238"></path><path d="M365.12,163s.06.05.06.08c-.08.83,0,1.79.71,2.12,0,0,0,0,0,0C365,165.1,364.91,163.82,365.12,163Z" style="fill:#263238"></path><path d="M365.91,162.22c1.35,0,1.29,2.67,0,2.69S364.79,162.24,365.91,162.22Z" style="fill:#263238"></path><path d="M366.44,162.37c.23.16.45.43.74.47s.58-.24.8-.51c0,0,0,0,0,0,0,.51-.21,1-.76,1.1s-.86-.4-1-.92C366.26,162.45,366.34,162.31,366.44,162.37Z" style="fill:#263238"></path><path d="M360.39,162.6s-.06,0-.06.07c0,.83-.11,1.79-.87,2.06,0,0,0,.05,0,.05C360.39,164.66,360.54,163.39,360.39,162.6Z" style="fill:#263238"></path><path d="M359.66,161.72c-1.34-.12-1.48,2.57-.24,2.68S360.78,161.82,359.66,161.72Z" style="fill:#263238"></path><path d="M359.09,161.87c-.22.13-.44.37-.7.38s-.49-.3-.67-.59c0,0,0,0,0,0,0,.51.1,1.05.59,1.18s.8-.31,1-.82C359.25,162,359.18,161.81,359.09,161.87Z" style="fill:#263238"></path><path d="M365.12,169.39c-.17.22-.34.51-.63.58a2.39,2.39,0,0,1-.92-.09s-.05,0,0,0a1.12,1.12,0,0,0,1.11.31.86.86,0,0,0,.55-.82S365.14,169.35,365.12,169.39Z" style="fill:#263238"></path><path d="M361.68,166.35s-.21,1.24-.23,1.82c0,.06.14.09.33.11h0a2.79,2.79,0,0,0,2.74-1s0-.11-.08-.08a4.3,4.3,0,0,1-2.58.65c0-.17.44-2.11.35-2.12a5.08,5.08,0,0,0-1.35.26c.37-2.6,1.15-5.11,1.48-7.7a.08.08,0,0,0-.15,0,42.87,42.87,0,0,0-1.94,8.22C360.22,166.84,361.44,166.44,361.68,166.35Z" style="fill:#263238"></path><path d="M361.88,168.05a3.38,3.38,0,0,0,1.26,1.18,1.51,1.51,0,0,0,.92.14c.68-.11.76-.73.68-1.26a3.84,3.84,0,0,0-.22-.83A4.41,4.41,0,0,1,361.88,168.05Z" style="fill:#263238"></path><path d="M363.14,169.23a1.51,1.51,0,0,0,.92.14c.68-.11.76-.73.68-1.26A1.58,1.58,0,0,0,363.14,169.23Z" style="fill:#ff9abb"></path><path d="M376.75,164.6c-2.79-.19-2.42-4.58-2.42-4.58s-3.14-.53-3-5.64a7.71,7.71,0,0,1-6.08,3.25c-.91.06,2.3-2,2.3-2s-3.89,3-10.54,1.24c-.47-.12.63-7.9,6.11-9.92s10.62.46,13.64,4.06c0,0,3.74,2.09,3.89,5.8S377.83,164.67,376.75,164.6Z" style="fill:#263238"></path><path d="M365.89,167.63a4,4,0,0,1-2.88-4.78h0a3.95,3.95,0,1,1,3.86,4.9A4.17,4.17,0,0,1,365.89,167.63ZM363.52,163a3.42,3.42,0,1,0,3.3-2.6A3.43,3.43,0,0,0,363.52,163Z" style="fill:#FFC727"></path><path d="M357.61,166.69c-1.61-.18-2.73-2.08-2.49-4.25a4.74,4.74,0,0,1,1.13-2.65,2.46,2.46,0,0,1,4.19.46,4.72,4.72,0,0,1,.52,2.84c-.22,2-1.58,3.6-3.09,3.61A1.11,1.11,0,0,1,357.61,166.69Zm-1-6.54a4.23,4.23,0,0,0-1,2.35c-.2,1.88.7,3.52,2,3.67s2.56-1.26,2.77-3.14a4.18,4.18,0,0,0-.46-2.51,2.09,2.09,0,0,0-1.56-1.15h-.2A2.18,2.18,0,0,0,356.64,160.15Z" style="fill:#FFC727"></path><path d="M363.09,163.32l.38-.36c-.54-.57-1.84-1.39-2.91-.48l.34.41C361.86,162.06,363,163.27,363.09,163.32Z" style="fill:#FFC727"></path><path d="M380.46,166.26l.5-.18c-.09-.23-.9-2.26-2-2.58s-8.18-.41-8.48-.42v.53c2,0,7.52.17,8.35.4S380.25,165.71,380.46,166.26Z" style="fill:#FFC727"></path><path d="M375.12,165.27s2.75-3.76,4.46-2.78-.41,6.49-2.46,7.2a2.07,2.07,0,0,1-2.75-1.16Z" style="fill:#ad6359"></path><path d="M378.93,164.05a0,0,0,0,1,0,.06,5.25,5.25,0,0,0-2.77,3.22,1.15,1.15,0,0,1,1.72-.28s0,.08,0,.08a1.26,1.26,0,0,0-1.41.41,6.18,6.18,0,0,0-.7,1.12c-.06.13-.29.05-.24-.09v0C375.51,166.72,377,164.2,378.93,164.05Z" style="fill:#263238"></path></g><g id="freepik--character-1--inject-14"><path d="M121.83,184.36c4.21,4.55,20.5,16.52,30.08,14.5,8.58-1.81,22.8-40.42,24.14-52,.47-4-16.37.81-19.12,3.26-2.37,2.11-11.07,30.22-12.33,30.34-2.13.19-8.12-1.42-17.74-3.8C117.8,174.47,118.87,181.15,121.83,184.36Z" style="fill:#dd6a57"></path><path d="M152.1,157.45l23-.67s-10.86,39.7-23.06,42.89c-2.81.73-18.33-2.39-29.61-13.68-3.49-3.49-7.54-12.34,5.77-9.3s15.87,3.25,16.23,3S152.1,157.45,152.1,157.45Z" style="fill:#FFC727"></path><path d="M173.23,161.19a52.13,52.13,0,0,0-5.45,0c-1.79,0-3.57.1-5.35.17-3.59.14-7.22.19-10.8.56-.08,0-.09.13,0,.13,3.62.22,7.28.06,10.91-.05,1.81-.06,3.63-.15,5.45-.25a46.09,46.09,0,0,0,5.25-.45C173.33,161.31,173.3,161.2,173.23,161.19Z" style="fill:#263238"></path><path d="M50.17,370.47l-3,6.2c-2.8,5.75-5.15,10.84-6.12,13.59a.43.43,0,0,0,0,.05,8.1,8.1,0,0,0-.44,2s0,0,0,0c1.14,2,46.47,25.68,48.33,26s2.84-5,1.81-7.31-14.32-19.15-14.32-19.15l3.1-6.24Z" style="fill:#fff"></path><path d="M79.27,393.25c-2.81-2-6.79-3.27-10.16-2.17-.13,0-.07.23,0,.24a47.28,47.28,0,0,1,9.93,2.32A.22.22,0,0,0,79.27,393.25Z" style="fill:#263238"></path><path d="M80.87,395.62c-2.81-2-6.79-3.27-10.16-2.17-.13,0-.07.23,0,.24A47.28,47.28,0,0,1,80.68,396,.22.22,0,0,0,80.87,395.62Z" style="fill:#263238"></path><path d="M82.47,398c-2.81-2-6.79-3.27-10.16-2.17-.13,0-.07.22,0,.24a47.89,47.89,0,0,1,9.93,2.31A.21.21,0,0,0,82.47,398Z" style="fill:#263238"></path><path d="M89,418.32c-1.87-.29-47.18-24-48.34-26-.45-.75,2.62-7.56,6.56-15.67l.13-.26,29.41,15-.27.49S89.76,408.69,90.79,411,90.84,418.62,89,418.32Z" style="fill:#FFC727"></path><path d="M89.38,416.29C81.84,412.11,51,396,43.26,392.4c-.07,0-.09,0,0,.05,7.39,4.31,38.33,20.21,46.09,24C89.48,416.5,89.54,416.38,89.38,416.29Z" style="fill:#263238"></path><path d="M80.26,389.34c.35-.17,22.23-44.7,29.21-63.51s15.58-58.89,17.25-67.1c0,0,5.59-18.29,7-33.74,0,0-39.57.76-39.57.76S87.9,241.83,89.82,264c.12,1.37-10.77,47.2-14,53.33-4.92,9.39-28.22,55-28.87,55.31Z" style="fill:#37474f"></path><path d="M118.3,237.46c-1.91,9-3.54,18.09-5.28,27.13l-5.22,27.28c-.86,4.48-1.69,9-2.59,13.45a80.7,80.7,0,0,1-3.61,13c-1.6,4.16-3.45,8.22-5.26,12.28s-3.68,8.16-5.57,12.22c-3.79,8.15-11,22.5-15,30.54l-1.49,3a.06.06,0,1,0,.11.06C78.67,368.44,86,354.2,90,346.1s7.74-16.2,11.21-24.47a77,77,0,0,0,4.1-12.64c1-4.42,1.76-8.88,2.59-13.33L113,268.23q2.56-13.65,5.09-27.31c.21-1.12.41-2.24.6-3.37C118.74,237.29,118.35,237.2,118.3,237.46Z" style="fill:#263238"></path><path d="M81.52,382.25c-.93-.59-9.57-5.09-11.51-6.08q-5.78-2.94-11.57-5.81c-2.19-1.08-4.41-2.1-6.65-3.09-.07,0-.13.07-.06.11,3.77,2.16,7.62,4.15,11.49,6.12s17,8.51,18.2,8.95A.11.11,0,0,0,81.52,382.25Z" style="fill:#263238"></path><path d="M133.75,225c-1.44,15.45-7,33.74-7,33.74-1.17,5.74-5.71,27-10.74,45.78L99.13,225.65C109.75,225.44,133.75,225,133.75,225Z" style="fill:#263238"></path><path d="M120.77,394.34s.2,6.85.2,6.87c.14,6.39.38,12,.78,14.89a.06.06,0,0,0,0,0,8.92,8.92,0,0,0,.51,2l0,0c1.93,1.24,53.07,1.57,54.86,1s.25-5.73-1.73-7.32-21.5-10.48-21.5-10.48l-.1-7Z" style="fill:#fff"></path><path d="M157.07,401.29c-3.41-.5-7.54.19-10,2.71-.1.1,0,.23.15.2a47.94,47.94,0,0,1,9.89-2.49A.21.21,0,0,0,157.07,401.29Z" style="fill:#263238"></path><path d="M159.58,402.66c-3.42-.49-7.54.2-10,2.72-.1.09,0,.23.15.19a48,48,0,0,1,9.88-2.48A.22.22,0,0,0,159.58,402.66Z" style="fill:#263238"></path><path d="M162.08,404c-3.41-.49-7.53.2-10,2.72-.09.1,0,.23.16.19a47.83,47.83,0,0,1,9.88-2.48A.22.22,0,0,0,162.08,404Z" style="fill:#263238"></path><path d="M177.17,419.13c-1.79.59-52.92.27-54.86-1-.75-.47-1.13-7.92-1.34-16.94v-.28l33-.16,0,.56s19.52,8.88,21.5,10.48S179,418.55,177.17,419.13Z" style="fill:#FFC727"></path><path d="M176.6,417.15c-8.61-.27-43.4-.53-51.94-.14-.07,0-.07.05,0,.05,8.54.45,43.32.44,51.94.23C176.79,417.28,176.79,417.15,176.6,417.15Z" style="fill:#263238"></path><path d="M111.89,260.88s6.72,55.2,6.84,56.5c0,.52-.63,80.85-.63,80.85l37,.31s-1.74-75.63-2.46-83.43c-.09-.91-4.6-58.5-16.08-90.12l-41.41.81s.73,18.69,9.5,32.05A69.54,69.54,0,0,1,111.89,260.88Z" style="fill:#37474f"></path><path d="M143.83,323.09c-.36-10.22-1-20.44-2-30.62s-2.44-20.1-4.28-30.06a247.87,247.87,0,0,0-7.16-29.67c-.39-1.22-.77-2.44-1.18-3.65a.13.13,0,0,0-.25.08c2.83,9.75,5.3,19.59,7.22,29.55s3.26,20.14,4.31,30.28,1.75,20.38,2.2,30.59,1.41,55.66,1.58,65.86c0,1.28,0,2.55,0,3.83,0,.09.14.08.14,0,.08-5.12.29-10.24.36-15.36S144.2,333.35,143.83,323.09Z" style="fill:#263238"></path><path d="M117.47,263.32c-2.06-1.07-4.16-2-6.31-2.9s-4.36-1.66-6.5-2.57c-.08,0-.15.08-.07.13,2.11,1,4.19,2.15,6.33,3.13a49.4,49.4,0,0,0,6.47,2.44C117.52,263.59,117.6,263.38,117.47,263.32Z" style="fill:#263238"></path><path d="M115.33,285.42c-.62-5.21-1.28-10.41-2-15.6-.21-1.46-.43-2.93-.66-4.39a34.72,34.72,0,0,0-.77-4.19c0-.07-.13-.05-.13,0a33.22,33.22,0,0,0,.34,4c.15,1.25.29,2.51.44,3.76.3,2.59.58,5.17.89,7.75.62,5.17,1.18,10.35,1.82,15.51.36,2.94.69,5.88,1.17,8.81a.17.17,0,0,0,.34,0C116.55,295.84,115.94,290.61,115.33,285.42Z" style="fill:#263238"></path><path d="M153.52,391.23c-1.09-.11-10.83-.26-13-.27q-6.47,0-12.93,0c-2.45,0-4.9.1-7.34.22a.06.06,0,1,0,0,.12c4.34.24,8.67.29,13,.33s19.05,0,20.27-.16A.12.12,0,0,0,153.52,391.23Z" style="fill:#263238"></path><path d="M280.76,145.88c0,8.18-7,10.91-10.61,10.91-7,0-10.14-5.89-13.84-5.89-3.22,0-6.15,4-6.15,4v40.64h-34.1s-4-2.92-4-6.14c0-3.7,5.89-6.81,5.89-13.84,0-3.6-2.73-10.62-10.91-10.62s-10.91,7-10.91,10.62c0,7,5.89,10.14,5.89,13.84,0,3.22-4,6.14-4,6.14H154.05q-.36-3.89-.36-8c0-47,42.29-90.7,96.47-90.7v39.89s2.93,4,6.15,4c3.7,0,6.81-5.89,13.84-5.89C273.75,135,280.76,137.7,280.76,145.88Z" style="fill:#FFC727"></path><path d="M280.76,145.88c0,8.18-7,10.91-10.61,10.91-7,0-10.14-5.89-13.84-5.89-3.22,0-6.15,4-6.15,4v40.64h-34.1s-4-2.92-4-6.14c0-3.7,5.89-6.81,5.89-13.84,0-3.6-2.73-10.62-10.91-10.62s-10.91,7-10.91,10.62c0,7,5.89,10.14,5.89,13.84,0,3.22-4,6.14-4,6.14H154.05q-.36-3.89-.36-8c0-47,42.29-90.7,96.47-90.7v39.89s2.93,4,6.15,4c3.7,0,6.81-5.89,13.84-5.89C273.75,135,280.76,137.7,280.76,145.88Z" style="opacity:0.1"></path><path d="M122.11,184.11c-2.19.48-7.48-2.87-9.86-6-.16-.22-.16-2.76-.3-5.84-.09-1.87-.24-4-.51-5.85-.06-.39,1.36.14,1.36.14l2.54.24,8.37.79a30.79,30.79,0,0,0-.1,7.43,4,4,0,0,0,.2.76.79.79,0,0,0,0,.13C124.29,177.31,125.54,183.37,122.11,184.11Z" style="fill:#dd6a57"></path><path d="M123.81,175.74a.79.79,0,0,0,0,.13,6.64,6.64,0,0,1-1.21.24c-8,1-10.47-9-10.47-9l3.18-.31,8.37.79a30.79,30.79,0,0,0-.1,7.43A4,4,0,0,0,123.81,175.74Z" style="fill:#263238"></path><path d="M108.91,150.38c-1.2,4.28,1.32,16.5,4.4,19.17,4.47,3.87,11.64,4.09,14.9-1.25,3.15-5.17-.41-21-3.84-23.45C119.32,141.29,110.69,144.07,108.91,150.38Z" style="fill:#dd6a57"></path><path d="M121.74,157.24s0,0,0,.09c.22.81.35,1.77-.32,2.22,0,0,0,.06,0,0C122.26,159.25,122.09,158,121.74,157.24Z" style="fill:#263238"></path><path d="M120.8,156.57c-1.33.22-.79,2.88.45,2.67S121.92,156.38,120.8,156.57Z" style="fill:#263238"></path><path d="M126.09,156.15s.07,0,.08.06c.14.83.45,1.75,1.25,1.87,0,0,0,0,0,0C126.48,158.19,126.09,157,126.09,156.15Z" style="fill:#263238"></path><path d="M126.65,155.14c1.3-.38,1.95,2.26.75,2.6S125.56,155.45,126.65,155.14Z" style="fill:#263238"></path><path d="M119.5,155.57a10.19,10.19,0,0,0,1-.58c.36-.22.68-.36.86-.77a.57.57,0,0,0-.23-.66,1.42,1.42,0,0,0-1.43.14,2.09,2.09,0,0,0-1,1.13A.61.61,0,0,0,119.5,155.57Z" style="fill:#263238"></path><path d="M127.36,153.77c-.38,0-.73,0-1.11-.06a1.74,1.74,0,0,1-1.12-.28.57.57,0,0,1-.11-.69,1.4,1.4,0,0,1,1.33-.54,2.07,2.07,0,0,1,1.41.52A.61.61,0,0,1,127.36,153.77Z" style="fill:#263238"></path><path d="M122.07,165.11a1.19,1.19,0,0,0,.79.34,2.2,2.2,0,0,0,.84-.38s.06,0,0,0a1.11,1.11,0,0,1-.95.66.89.89,0,0,1-.8-.59S122,165.09,122.07,165.11Z" style="fill:#263238"></path><path d="M122.42,162.47a2.86,2.86,0,0,0,2.13.86,3.56,3.56,0,0,0,1-.16.6.6,0,0,0,.19-.06l.17-.06a.22.22,0,0,0,.13-.22h0a.26.26,0,0,0,0-.08h0v-.07c-.12-.64-.38-1.59-.38-1.59.26.07,1.55.36,1.46,0a42.2,42.2,0,0,0-2.83-8.26c0-.08-.17,0-.14,0,.59,2.63,1.65,5.14,2.29,7.77a5.48,5.48,0,0,0-1.41-.13c-.08.05.53,1.83.56,2.12a0,0,0,0,1,0,0,4,4,0,0,1-3.08-.31C122.42,162.35,122.36,162.41,122.42,162.47Z" style="fill:#263238"></path><path d="M125.13,162.93a3.42,3.42,0,0,1-1.12,1.3,1.53,1.53,0,0,1-.9.25c-.69,0-.83-.64-.82-1.18a3.94,3.94,0,0,1,.14-.85A4.39,4.39,0,0,0,125.13,162.93Z" style="fill:#263238"></path><path d="M124,164.23a1.53,1.53,0,0,1-.9.25c-.69,0-.83-.64-.82-1.18A1.59,1.59,0,0,1,124,164.23Z" style="fill:#ff9abb"></path><path d="M111.13,160c2.06-.5,1-5.55,1-5.55s3.08-1.13,3.85-5.76c0,0,4.54,1.84,7.86.61,5.19-1.93,3.81-8.88,1.55-9.94-3.2-1.51-7.76,2.32-7.76,2.32s-8-.77-9.42,4.82a4,4,0,0,0-3,4.58C105.64,154.88,109.59,160.34,111.13,160Z" style="fill:#263238"></path><path d="M111.44,155.16a7.22,7.22,0,0,0,3.62-2.91,5.35,5.35,0,0,0,.39-4.91c0-.08.1-.14.14-.06a6.22,6.22,0,0,1,0,5.25,5,5,0,0,1-4.16,2.78C111.4,155.31,111.36,155.19,111.44,155.16Z" style="fill:#263238"></path><path d="M104.54,148.89c.81-1.53,2.39-2,4-2.25.09,0,.11.13,0,.14a4.5,4.5,0,0,0-3.59,2.86,5.61,5.61,0,0,0,.45,4.29,11.34,11.34,0,0,0,5.64,5.85,0,0,0,0,1,0,.06,11.27,11.27,0,0,1-6.29-6.38C104.21,152.05,103.78,150.3,104.54,148.89Z" style="fill:#263238"></path><path d="M117.42,141.94a5.32,5.32,0,0,1,2.54-2.78,6.36,6.36,0,0,1,4.54-.34,3.6,3.6,0,0,1,2.39,2.69,6.31,6.31,0,0,1-.7,4.21s-.07,0-.06,0a6.33,6.33,0,0,0,.46-3.79,3.32,3.32,0,0,0-2.43-2.54c-2.37-.59-5.57.14-6.61,2.64A.07.07,0,0,1,117.42,141.94Z" style="fill:#263238"></path><path d="M111.76,160.33s-2.94-3.85-4.7-2.79.57,6.73,2.72,7.43a2.16,2.16,0,0,0,2.83-1.28Z" style="fill:#dd6a57"></path><path d="M107.77,159.15s0,0,0,.06a5.39,5.39,0,0,1,2.95,3.28,1.19,1.19,0,0,0-1.79-.25s0,.08,0,.07a1.33,1.33,0,0,1,1.48.4,6.63,6.63,0,0,1,.74,1.15c.08.13.32,0,.26-.1v0C111.38,161.83,109.8,159.25,107.77,159.15Z" style="fill:#263238"></path><path d="M88.5,243.06c.12.14,53.2.12,53.69-.43.67-.76-8.4-52.87-17.06-64.3-2.17-2.86-10-5.2-13.45-2.61-6.67,5.05-10.68,15.9-12.93,21.8A173.77,173.77,0,0,0,93.35,217C90.43,229.53,88.06,242.56,88.5,243.06Z" style="fill:#FFC727"></path><path d="M116.22,185c4.51,5.88,24.62,26.69,34.34,25.57,11.78-1.36,25.85-7.21,31.54-11.74,3.19-2.55-10-18-13.17-16.05-5,3-15.24,6.29-17.29,6.91s-19.18-8-28.62-12.24C114.5,173.65,113.56,181.55,116.22,185Z" style="fill:#dd6a57"></path><path d="M178.86,200.75c9.66-5.3,16.14-15.67,16.84-17.66.61-1.68.91-2.56.91-2.56,1.15-3,.27-4.7.27-4.7s2.35-3.09.72-4.82c-1.82-1.95-4.77,2.77-8,4.37-7.35,3.67-18.83,6.83-21,7.68Z" style="fill:#dd6a57"></path><path d="M184.63,184.64a53.68,53.68,0,0,0,6.25-3.58,54.42,54.42,0,0,0,5.91-5.23.06.06,0,1,1,.09.08,28,28,0,0,1-12.16,8.92C184.61,184.86,184.52,184.69,184.63,184.64Z" style="fill:#263238"></path><path d="M186.2,189.39a39,39,0,0,0,10.35-8.91s0,0,0,0a25.07,25.07,0,0,1-10.26,9.09C186.19,189.66,186.06,189.47,186.2,189.39Z" style="fill:#263238"></path><path d="M180.49,179.24c-1.15.1-1.2-.5.29-1.9s8.59-5.66,6.89-8-11.62,3.81-13.93,6.33a54.52,54.52,0,0,0-5.16,7.4C170.75,182.24,176.21,180.78,180.49,179.24Z" style="fill:#dd6a57"></path><path d="M164.57,183.85l12.68,19.93s-19.49,8.87-28.37,7.63-23.33-14.94-30.56-23.22S112,171.4,127.56,179s22.82,10.16,23.79,10.14S164.57,183.85,164.57,183.85Z" style="fill:#FFC727"></path><path d="M134.28,203.34c-.88-.79-3.9-3.39-4.6-4q-2.15-1.92-4.25-3.88c-2.82-2.64-5.6-5.34-8.59-7.79a0,0,0,0,0,0,0,72.62,72.62,0,0,0,5.11,5.42l-.37-.19c-1-.56-2.1-1.08-3.08-1.74a.07.07,0,0,0-.06.12c1,.61,1.92,1.33,2.89,2,.48.31,1,.62,1.44.89l.6.32,1.69,1.56c1.45,1.31,2.92,2.59,4.45,3.81.74.59,4,3,4.75,3.59A.07.07,0,1,0,134.28,203.34Z" style="fill:#263238"></path><path d="M172.61,204.83a54,54,0,0,0-2.76-4.7c-.94-1.51-1.88-3-2.83-4.53-1.93-3-3.8-6.15-5.92-9.06a.07.07,0,1,0-.11.07c1.63,3.24,3.61,6.33,5.53,9.4,1,1.54,1.95,3.07,2.95,4.59a49.94,49.94,0,0,0,3,4.32C172.56,205,172.64,204.9,172.61,204.83Z" style="fill:#263238"></path><path d="M164.66,183.69c-2,.67-9.79,4-11.78,4.64a4.32,4.32,0,0,1-2.73,0c-1-.3-24-10.12-25.89-11-.08,0-.14.09-.07.12,2,.83,21.36,9.83,23.38,10.65a19.74,19.74,0,0,0,2.78,1,3.89,3.89,0,0,0,2.62-.29c2-.86,9.7-4.05,11.62-5,0,0,.37.58.54.81s0,0,0-.06A8,8,0,0,0,164.66,183.69Z" style="fill:#263238"></path><path d="M177.41,203.82s-3.38,1.66-5,2.4-3.35,1.4-5.07,2-3.44,1.19-5.21,1.63a33.78,33.78,0,0,1-5.09,1c-.22,0-.43,0-.29-.1a49.44,49.44,0,0,0,5.23-1.47c1.71-.57,3.42-1.17,5.11-1.8l5.08-1.91,5-1.91-.7-1.26c0-.05,0-.11.06,0C176.67,202.72,177.41,203.82,177.41,203.82Z" style="fill:#263238"></path><path d="M158.37,152.34c.36-3.48-.82-8.78.25-11.15a3,3,0,0,1,3-1.82s-1.53-2.44-.2-4.42c.69-1,2.92-.83,2.92-.83a3.55,3.55,0,0,1,.15-3.69c1-1.35,3.11-1,3.11-1s-.2-2.43,1.29-3.47c3-2.1,15.45,5.47,14.58,11.21-.4,2.68-3.34.67-3.34.67s3.52,3.91,2,6.52-5.15-.25-5.15-.25,3.38,3.83,1.56,6.37-5.07-.83-5.07-.83,1.63,3.56-.21,5.19c-3,2.68-5.74-4.66-8.87-5.68l-4.25,3.59Z" style="fill:#dd6a57"></path><path d="M158.26,146.91c-.63,3.26-5.92,4.54-7,7.57-1.41,4.1,4.82,3,8.93-1.68l2.55-4.22Z" style="fill:#dd6a57"></path><path d="M168,129.5c-.05,0,0-.09,0-.07A25.21,25.21,0,0,1,180.35,138c.1.13-.07.35-.2.22A51.72,51.72,0,0,0,168,129.5Z" style="fill:#263238"></path><path d="M164.34,134.06c-.05,0,0-.11,0-.09a23.63,23.63,0,0,1,12.88,10.17c.1.17,0,.42-.11.24C175,141.2,168.55,136.16,164.34,134.06Z" style="fill:#263238"></path><path d="M173.65,150.13c-2.93-4.68-7.05-8-11.78-10.71-.06,0,0-.12.06-.1,2.68.71,5.5,2.78,7.57,4.58a14.54,14.54,0,0,1,4.31,6.13C173.84,150.13,173.71,150.23,173.65,150.13Z" style="fill:#263238"></path></g></svg>