<svg xmlns="http://www.w3.org/2000/svg" viewBox="0 0 500 500"><g id="freepik--Wall--inject-106"><polygon points="351.15 198.31 351.15 218.43 379.79 218.43 379.79 238.54 408.78 238.54 408.78 258.32 379.79 258.32 379.79 278.15 351.15 278.15 351.15 298.26 322.14 298.26 322.14 318.38 351.14 318.38 351.14 338.75 322.14 338.75 322.14 358.86 148.86 358.86 148.86 338.75 120.21 338.75 120.21 318.21 148.86 318.21 148.86 298.1 120.21 298.1 120.21 278.26 91.22 278.26 91.22 258.66 120.21 258.66 120.21 238.54 148.86 238.54 148.86 218.43 177.86 218.43 177.86 198.31 91.22 198.31 91.22 178.19 120.21 178.19 120.21 158.08 148.86 158.08 148.86 137.96 177.86 137.96 177.86 117.85 293.49 117.85 293.49 137.96 322.14 137.96 322.14 158.08 408.78 158.08 408.78 178.19 379.79 178.19 379.79 198.31 351.15 198.31" style="fill:#FFC727"></polygon><g style="opacity:0.30000000000000004"><polygon points="351.15 198.31 351.15 218.43 379.79 218.43 379.79 238.54 408.78 238.54 408.78 258.32 379.79 258.32 379.79 278.15 351.15 278.15 351.15 298.26 322.14 298.26 322.14 318.38 351.14 318.38 351.14 338.75 322.14 338.75 322.14 358.86 148.86 358.86 148.86 338.75 120.21 338.75 120.21 318.21 148.86 318.21 148.86 298.1 120.21 298.1 120.21 278.26 91.22 278.26 91.22 258.66 120.21 258.66 120.21 238.54 148.86 238.54 148.86 218.43 177.86 218.43 177.86 198.31 91.22 198.31 91.22 178.19 120.21 178.19 120.21 158.08 148.86 158.08 148.86 137.96 177.86 137.96 177.86 117.85 293.49 117.85 293.49 137.96 322.14 137.96 322.14 158.08 408.78 158.08 408.78 178.19 379.79 178.19 379.79 198.31 351.15 198.31"></polygon></g><rect x="235.85" y="36.88" width="57.3" height="20.12" transform="translate(528.99 93.87) rotate(180)" style="fill:#fff"></rect><path d="M235.85,36.88l28.53-.29q14.34-.14,28.77-.17h.45v.46l0,20.11v.5h-.5l-28.65-.06-28.65-.19h-.26V57Zm0,0L236.1,57l-.25-.25,28.65-.18,28.65-.07-.5.5,0-20.11.46.45c-9.5,0-19-.08-28.53-.17Z" style="fill:#ebebeb"></path><rect x="206.85" y="56.99" width="57.3" height="20.12" transform="translate(471.01 134.1) rotate(180)" style="fill:#fff"></rect><path d="M206.85,57l28.53-.29c9.56-.08,19.17-.16,28.77-.16h.45V57l0,20.12v.5h-.5l-28.65-.07-28.65-.18h-.25v-.25Zm0,0,.26,20.12-.26-.25,28.65-.19,28.65-.06-.5.5L263.7,57l.45.45c-9.49,0-19-.07-28.53-.16Z" style="fill:#ebebeb"></path><rect x="149.21" y="56.99" width="57.3" height="20.12" transform="translate(355.72 134.1) rotate(180)" style="fill:#fff"></rect><path d="M149.21,57l28.53-.29c9.56-.08,19.16-.16,28.77-.16H207V57l0,20.12v.5h-.5l-28.65-.07-28.65-.18H149v-.25Zm0,0,.25,20.12-.25-.25,28.65-.19,28.65-.06-.5.5L206.06,57l.45.45c-9.5,0-19-.07-28.53-.16Z" style="fill:#ebebeb"></path><rect x="62.91" y="77.11" width="57.3" height="20.12" transform="translate(183.13 174.33) rotate(180)" style="fill:#fff"></rect><path d="M62.91,77.11l28.53-.29c9.56-.09,19.17-.16,28.77-.16h.46v.46l0,20.11v.5h-.5l-28.65-.06-28.65-.18h-.25v-.25Zm0,0,.26,20.11L62.91,97l28.65-.18,28.65-.07-.5.5.05-20.11.45.45c-9.49,0-19-.08-28.53-.16Z" style="fill:#ebebeb"></path><rect x="178.2" y="77.11" width="57.3" height="20.12" transform="translate(413.71 174.33) rotate(180)" style="fill:#fff"></rect><path d="M178.2,77.11l28.53-.29c9.56-.09,19.17-.16,28.77-.16H236v.46l0,20.11v.5h-.5l-28.65-.06-28.65-.18H178v-.25Zm0,0,.26,20.11L178.2,97l28.65-.18,28.65-.07-.5.5.05-20.11.45.45c-9.49,0-19-.08-28.53-.16Z" style="fill:#ebebeb"></path><rect x="235.85" y="77.11" width="57.3" height="20.12" transform="translate(528.99 174.33) rotate(180)" style="fill:#fff"></rect><path d="M235.85,77.11l28.53-.29c9.56-.09,19.16-.16,28.77-.16h.45v.46l0,20.11v.5h-.5l-28.65-.06-28.65-.18h-.26v-.25Zm0,0,.25,20.11-.25-.25,28.65-.18,28.65-.07-.5.5,0-20.11.46.45c-9.5,0-19-.08-28.53-.16Z" style="fill:#ebebeb"></path><rect x="293.49" y="77.11" width="57.3" height="20.12" transform="translate(644.28 174.33) rotate(180)" style="fill:#fff"></rect><path d="M293.49,77.11,322,76.82c9.56-.09,19.17-.16,28.77-.16h.45v.46l.05,20.11v.5h-.5l-28.65-.06-28.65-.18h-.25v-.25Zm0,0,.25,20.11-.25-.25,28.65-.18,28.65-.07-.5.5,0-20.11.45.45c-9.49,0-19-.08-28.53-.16Z" style="fill:#ebebeb"></path><rect x="351.14" y="77.11" width="57.3" height="20.12" transform="translate(759.57 174.33) rotate(180)" style="fill:#fff"></rect><path d="M351.14,77.11l28.53-.29c9.56-.09,19.16-.16,28.77-.16h.45v.46l.05,20.11v.5h-.5l-28.65-.06-28.65-.18h-.26v-.25Zm0,0,.25,20.11-.25-.25,28.65-.18,28.65-.07-.5.5,0-20.11.46.45c-9.5,0-19-.08-28.53-.16Z" style="fill:#ebebeb"></path><rect x="379.8" y="56.99" width="57.3" height="20.12" transform="translate(816.9 134.1) rotate(180)" style="fill:#fff"></rect><path d="M379.8,57l28.53-.29c9.56-.08,19.16-.16,28.77-.16h.45V57l.05,20.12v.5h-.5l-28.65-.07-28.65-.18h-.26v-.25Zm0,0,.25,20.12-.25-.25,28.65-.19,28.65-.06-.5.5,0-20.12.45.45c-9.5,0-19-.07-28.53-.16Z" style="fill:#ebebeb"></path><rect x="264.5" y="97.22" width="57.3" height="20.12" transform="translate(586.29 214.56) rotate(180)" style="fill:#fff"></rect><path d="M264.5,97.22,293,96.93c9.56-.08,19.16-.15,28.77-.16h.45v.45l.05,20.12v.5h-.5l-28.65-.07-28.65-.18h-.26v-.25Zm0,0,.25,20.12-.25-.25,28.65-.19,28.65-.06-.5.5,0-20.12.46.46c-9.5,0-19-.08-28.53-.17Z" style="fill:#ebebeb"></path><rect x="206.85" y="97.22" width="57.3" height="20.12" transform="translate(471.01 214.56) rotate(180)" style="fill:#fff"></rect><path d="M206.85,97.22l28.53-.29c9.56-.08,19.17-.15,28.77-.16h.45v.45l0,20.12v.5h-.5l-28.65-.07-28.65-.18h-.25v-.25Zm0,0,.26,20.12-.26-.25,28.65-.19,28.65-.06-.5.5.05-20.12.45.46q-14.23,0-28.53-.17Z" style="fill:#ebebeb"></path><rect x="149.21" y="97.22" width="57.3" height="20.12" transform="translate(355.72 214.56) rotate(180)" style="fill:#fff"></rect><path d="M149.21,97.22l28.53-.29c9.56-.08,19.16-.15,28.77-.16H207v.45l0,20.12v.5h-.5l-28.65-.07-28.65-.18H149v-.25Zm0,0,.25,20.12-.25-.25,28.65-.19,28.65-.06-.5.5.05-20.12.45.46c-9.5,0-19-.08-28.53-.17Z" style="fill:#ebebeb"></path><rect x="91.56" y="97.22" width="57.3" height="20.12" transform="translate(240.43 214.56) rotate(180)" style="fill:#fff"></rect><path d="M91.56,97.22l28.53-.29c9.56-.08,19.17-.15,28.77-.16h.46v.45l0,20.12v.5h-.5l-28.65-.07-28.65-.18h-.25v-.25Zm0,0,.26,20.12-.26-.25,28.65-.19,28.65-.06-.5.5,0-20.12.45.46q-14.24,0-28.53-.17Z" style="fill:#ebebeb"></path><rect x="120.56" y="117.34" width="57.3" height="20.12" transform="translate(298.42 254.79) rotate(180)" style="fill:#fff"></rect><path d="M120.56,117.34l28.53-.29c9.56-.09,19.16-.16,28.77-.16h.45v.45l.05,20.11v.5h-.5l-28.65-.06-28.65-.18h-.26v-.25Zm0,0,.25,20.11-.25-.25,28.65-.18,28.65-.07-.5.5,0-20.11.45.45c-9.5,0-19-.07-28.53-.16Z" style="fill:#ebebeb"></path><rect x="293.49" y="117.34" width="57.3" height="20.12" transform="translate(644.28 254.79) rotate(180)" style="fill:#fff"></rect><path d="M293.49,117.34l28.53-.29c9.56-.09,19.17-.16,28.77-.16h.45v.45l.05,20.11v.5h-.5l-28.65-.06-28.65-.18h-.25v-.25Zm0,0,.25,20.11-.25-.25,28.65-.18,28.65-.07-.5.5,0-20.11.45.45c-9.49,0-19-.07-28.53-.16Z" style="fill:#ebebeb"></path><rect x="351.14" y="117.34" width="57.3" height="20.12" transform="translate(759.57 254.79) rotate(180)" style="fill:#fff"></rect><path d="M351.14,117.34l28.53-.29c9.56-.09,19.16-.16,28.77-.16h.45v.45l.05,20.11v.5h-.5l-28.65-.06-28.65-.18h-.26v-.25Zm0,0,.25,20.11-.25-.25,28.65-.18,28.65-.07-.5.5,0-20.11.46.45c-9.5,0-19-.07-28.53-.16Z" style="fill:#ebebeb"></path><rect x="379.79" y="137.45" width="57.3" height="20.12" transform="translate(816.87 295.02) rotate(180)" style="fill:#fff"></rect><path d="M379.79,137.45l28.53-.28q14.34-.13,28.77-.17h.45v.45l0,20.12v.5h-.5L408.44,158l-28.65-.18h-.26v-.25Zm0,0,.25,20.12-.25-.25,28.65-.18,28.65-.07-.5.5,0-20.12.46.46q-14.25,0-28.53-.17Z" style="fill:#ebebeb"></path><rect x="322.14" y="137.45" width="57.3" height="20.12" transform="translate(701.58 295.02) rotate(180)" style="fill:#fff"></rect><path d="M322.14,137.45l28.53-.28c9.56-.09,19.17-.16,28.77-.17h.45v.45l.05,20.12v.5h-.5L350.79,158l-28.65-.18h-.25v-.25Zm0,0,.25,20.12-.25-.25,28.65-.18,28.65-.07-.5.5.05-20.12.45.46q-14.24,0-28.53-.17Z" style="fill:#ebebeb"></path><rect x="91.56" y="137.45" width="57.3" height="20.12" transform="translate(240.43 295.02) rotate(180)" style="fill:#fff"></rect><path d="M91.56,137.45l28.53-.28c9.56-.09,19.17-.16,28.77-.17h.46v.45l0,20.12v.5h-.5L120.21,158l-28.65-.18h-.25v-.25Zm0,0,.26,20.12-.26-.25,28.65-.18,28.65-.07-.5.5,0-20.12.45.46q-14.24,0-28.53-.17Z" style="fill:#ebebeb"></path><rect x="91.56" y="217.91" width="57.3" height="20.12" transform="translate(240.43 455.95) rotate(180)" style="fill:#fff"></rect><path d="M91.56,217.91l28.53-.28c9.56-.09,19.17-.16,28.77-.17h.46v.46l0,20.11v.5h-.5l-28.65-.07-28.65-.18h-.25V238Zm0,0L91.82,238l-.26-.25,28.65-.18,28.65-.07-.5.5,0-20.11.45.45q-14.24,0-28.53-.17Z" style="fill:#ebebeb"></path><rect x="62.91" y="157.57" width="57.3" height="20.12" transform="translate(183.13 335.25) rotate(180)" style="fill:#fff"></rect><path d="M62.91,157.57l28.53-.29c9.56-.09,19.17-.16,28.77-.16h.46v.45l0,20.11v.5h-.5l-28.65-.06-28.65-.18h-.25v-.26Zm0,0,.26,20.11-.26-.25,28.65-.18,28.65-.07-.5.5.05-20.11.45.45c-9.49,0-19-.07-28.53-.16Z" style="fill:#ebebeb"></path><rect x="408.78" y="157.57" width="57.3" height="20.12" transform="translate(874.86 335.25) rotate(180)" style="fill:#fff"></rect><path d="M408.78,157.57l28.53-.29c9.56-.09,19.17-.16,28.77-.16h.45v.45l.05,20.11v.5h-.5l-28.65-.06-28.65-.18h-.25v-.26Zm0,0,.25,20.11-.25-.25,28.65-.18,28.65-.07-.5.5.05-20.11.45.45c-9.49,0-19-.07-28.53-.16Z" style="fill:#ebebeb"></path><rect x="408.78" y="197.8" width="57.3" height="20.12" transform="translate(874.86 415.71) rotate(180)" style="fill:#fff"></rect><path d="M408.78,197.8l28.53-.29c9.56-.09,19.17-.16,28.77-.16h.45v.45l.05,20.11v.51h-.5l-28.65-.06-28.65-.18h-.25v-.26Zm0,0,.25,20.11-.25-.25,28.65-.18,28.65-.06-.5.49.05-20.11.45.45c-9.49,0-19-.07-28.53-.16Z" style="fill:#ebebeb"></path><rect x="351.15" y="197.8" width="57.3" height="20.12" transform="translate(759.6 415.71) rotate(180)" style="fill:#fff"></rect><path d="M351.15,197.8l28.53-.29c9.56-.09,19.16-.16,28.77-.16h.45v.45l.05,20.11v.51h-.5l-28.65-.06-28.65-.18h-.26v-.26Zm0,0,.25,20.11-.25-.25,28.65-.18,28.65-.06-.5.49L408,197.8l.45.45c-9.5,0-19-.07-28.53-.16Z" style="fill:#ebebeb"></path><rect x="379.79" y="177.68" width="57.3" height="20.12" transform="translate(816.87 375.48) rotate(180)" style="fill:#fff"></rect><path d="M379.79,177.68l28.53-.28q14.34-.14,28.77-.17h.45v.45l0,20.12v.5h-.5l-28.65-.07-28.65-.18h-.26v-.25Zm0,0L380,197.8l-.25-.25,28.65-.18,28.65-.07-.5.5,0-20.12.46.46q-14.25,0-28.53-.17Z" style="fill:#ebebeb"></path><rect x="408.78" y="238.03" width="57.3" height="20.12" transform="translate(874.86 496.18) rotate(180)" style="fill:#fff"></rect><path d="M408.78,238l28.53-.29c9.56-.09,19.17-.16,28.77-.16h.45V238l.05,20.12v.5h-.5l-28.65-.07-28.65-.18h-.25v-.25Zm0,0,.25,20.12-.25-.26,28.65-.18,28.65-.06-.5.5.05-20.12.45.45c-9.49,0-19-.07-28.53-.16Z" style="fill:#ebebeb"></path><rect x="379.79" y="217.91" width="57.3" height="20.12" transform="translate(816.87 455.95) rotate(180)" style="fill:#fff"></rect><path d="M379.79,217.91l28.53-.28q14.34-.13,28.77-.17h.45v.46l0,20.11v.5h-.5l-28.65-.07-28.65-.18h-.26V238Zm0,0L380,238l-.25-.25,28.65-.18,28.65-.07-.5.5,0-20.11.46.45q-14.25,0-28.53-.17Z" style="fill:#ebebeb"></path><rect x="379.79" y="257.81" width="57.3" height="20.12" transform="translate(816.87 535.73) rotate(180)" style="fill:#fff"></rect><path d="M379.79,257.81l28.53-.29c9.56-.09,19.16-.16,28.77-.16h.45v.45l0,20.11v.5h-.5l-28.65-.06-28.65-.18h-.26v-.25Zm0,0,.25,20.11-.25-.25,28.65-.18,28.65-.07-.5.5,0-20.11.46.45c-9.5,0-19-.08-28.53-.16Z" style="fill:#ebebeb"></path><rect x="33.92" y="177.68" width="57.3" height="20.12" transform="translate(125.14 375.48) rotate(180)" style="fill:#fff"></rect><path d="M33.92,177.68l28.53-.28q14.34-.14,28.77-.17h.45v.45l0,20.12v.5h-.5l-28.65-.07-28.65-.18h-.26v-.25Zm0,0,.25,20.12-.25-.25,28.65-.18,28.65-.07-.5.5,0-20.12.45.46c-9.5,0-19-.08-28.53-.17Z" style="fill:#ebebeb"></path><rect x="62.91" y="197.8" width="57.3" height="20.12" transform="translate(183.13 415.71) rotate(180)" style="fill:#fff"></rect><path d="M62.91,197.8l28.53-.29c9.56-.09,19.17-.16,28.77-.16h.46v.45l0,20.11v.51h-.5l-28.65-.06-28.65-.18h-.25v-.26Zm0,0,.26,20.11-.26-.25,28.65-.18,28.65-.06-.5.49.05-20.11.45.45c-9.49,0-19-.07-28.53-.16Z" style="fill:#ebebeb"></path><rect x="120.56" y="197.8" width="57.3" height="20.12" transform="translate(298.42 415.71) rotate(180)" style="fill:#fff"></rect><path d="M120.56,197.8l28.53-.29c9.56-.09,19.16-.16,28.77-.16h.45v.45l.05,20.11v.51h-.5l-28.65-.06-28.65-.18h-.26v-.26Zm0,0,.25,20.11-.25-.25,28.65-.18,28.65-.06-.5.49,0-20.11.45.45c-9.5,0-19-.07-28.53-.16Z" style="fill:#ebebeb"></path><rect x="33.92" y="258.22" width="57.3" height="20.12" transform="translate(125.14 536.56) rotate(180)" style="fill:#fff"></rect><path d="M33.92,258.22l28.53-.28q14.34-.13,28.77-.17h.45v.45l0,20.12v.5h-.5l-28.65-.07-28.65-.18h-.26v-.25Zm0,0,.25,20.12-.25-.25,28.65-.18,28.65-.07-.5.5,0-20.12.45.46c-9.5,0-19-.08-28.53-.17Z" style="fill:#ebebeb"></path><rect x="62.91" y="238.03" width="57.3" height="20.12" transform="translate(183.13 496.18) rotate(180)" style="fill:#fff"></rect><path d="M62.91,238l28.53-.29c9.56-.09,19.17-.16,28.77-.16h.46V238l0,20.12v.5h-.5l-28.65-.07-28.65-.18h-.25v-.25Zm0,0,.26,20.12-.26-.26,28.65-.18,28.65-.06-.5.5.05-20.12.45.45c-9.49,0-19-.07-28.53-.16Z" style="fill:#ebebeb"></path><rect x="62.91" y="278.26" width="57.3" height="20.12" transform="translate(183.13 576.64) rotate(180)" style="fill:#fff"></rect><path d="M62.91,278.26,91.44,278c9.56-.09,19.17-.16,28.77-.16h.46v.45l0,20.12v.5h-.5l-28.65-.07-28.65-.18h-.25v-.25Zm0,0,.26,20.12-.26-.26,28.65-.18,28.65-.06-.5.5.05-20.12.45.45c-9.49,0-19-.07-28.53-.16Z" style="fill:#ebebeb"></path><rect x="178.2" y="439.32" width="57.3" height="20.12" style="fill:#fff"></rect><path d="M235.5,459.44l-28.53.29c-9.56.09-19.16.16-28.77.16h-.45v-.45l-.05-20.12v-.5h.5l28.65.06,28.65.18h.26v.25Zm0,0-.25-20.12.25.26-28.65.18-28.65.06.5-.5,0,20.12-.46-.45c9.5,0,19,.07,28.53.16Z" style="fill:#ebebeb"></path><rect x="379.79" y="419.21" width="57.3" height="20.12" style="fill:#fff"></rect><path d="M437.09,439.32l-28.53.29c-9.56.09-19.17.16-28.77.17h-.46v-.46l0-20.11v-.5h.5l28.65.07,28.65.18h.25v.25Zm0,0-.26-20.11.26.25-28.65.18-28.65.07.5-.5-.05,20.11-.45-.45q14.23,0,28.53.17Z" style="fill:#ebebeb"></path><rect x="264.5" y="419.21" width="57.3" height="20.12" style="fill:#fff"></rect><path d="M321.8,439.32l-28.53.29c-9.56.09-19.17.16-28.77.17h-.45v-.46l0-20.11v-.5h.5l28.65.07,28.65.18h.25v.25Zm0,0-.26-20.11.26.25-28.65.18-28.65.07.5-.5L265,439.32l-.45-.45q14.24,0,28.53.17Z" style="fill:#ebebeb"></path><rect x="149.21" y="419.21" width="57.3" height="20.12" style="fill:#fff"></rect><path d="M206.51,439.32l-28.53.29c-9.56.09-19.17.16-28.77.17h-.45v-.46l0-20.11v-.5h.5l28.65.07,28.65.18h.25v.25Zm0,0-.25-20.11.25.25-28.65.18-28.65.07.5-.5-.05,20.11-.45-.45q14.23,0,28.53.17Z" style="fill:#ebebeb"></path><rect x="178.2" y="399.09" width="57.3" height="20.12" style="fill:#fff"></rect><path d="M235.5,419.21,207,419.5c-9.56.09-19.16.16-28.77.16h-.45v-.45l-.05-20.12v-.5h.5l28.65.07,28.65.18h.26v.25Zm0,0-.25-20.12.25.26-28.65.18-28.65.06.5-.5,0,20.12-.46-.45c9.5,0,19,.07,28.53.16Z" style="fill:#ebebeb"></path><rect x="235.85" y="399.09" width="57.3" height="20.12" style="fill:#fff"></rect><path d="M293.15,419.21l-28.53.29c-9.56.09-19.17.16-28.77.16h-.45v-.45l-.05-20.12v-.5h.5l28.65.07,28.65.18h.25v.25Zm0,0-.26-20.12.26.26-28.65.18-28.65.06.5-.5,0,20.12-.45-.45c9.49,0,19,.07,28.53.16Z" style="fill:#ebebeb"></path><rect x="322.14" y="378.98" width="57.3" height="20.12" style="fill:#fff"></rect><path d="M379.44,399.09l-28.53.29q-14.34.14-28.77.17h-.45v-.46L321.64,379v-.5h.5l28.65.07,28.65.18h.26V379Zm0,0L379.19,379l.25.25-28.65.18-28.65.07.5-.5-.05,20.11-.45-.45c9.5,0,19,.08,28.53.17Z" style="fill:#ebebeb"></path><rect x="264.5" y="378.98" width="57.3" height="20.12" style="fill:#fff"></rect><path d="M321.8,399.09l-28.53.29c-9.56.09-19.17.16-28.77.17h-.45v-.46L264,379v-.5h.5l28.65.07,28.65.18h.25V379Zm0,0L321.54,379l.26.25-28.65.18-28.65.07.5-.5L265,399.09l-.45-.45q14.24,0,28.53.17Z" style="fill:#ebebeb"></path><rect x="206.85" y="378.98" width="57.3" height="20.12" style="fill:#fff"></rect><path d="M264.15,399.09l-28.53.29q-14.34.14-28.77.17h-.45v-.46L206.35,379v-.5h.5l28.65.07,28.65.18h.26V379Zm0,0L263.9,379l.25.25-28.65.18-28.65.07.5-.5,0,20.11-.46-.45c9.5,0,19,.08,28.53.17Z" style="fill:#ebebeb"></path><rect x="149.21" y="378.98" width="57.3" height="20.12" style="fill:#fff"></rect><path d="M206.51,399.09l-28.53.29c-9.56.09-19.17.16-28.77.17h-.45v-.46l0-20.11v-.5h.5l28.65.07,28.65.18h.25V379Zm0,0L206.26,379l.25.25-28.65.18-28.65.07.5-.5-.05,20.11-.45-.45q14.23,0,28.53.17Z" style="fill:#ebebeb"></path><rect x="91.56" y="378.98" width="57.3" height="20.12" style="fill:#fff"></rect><path d="M148.86,399.09l-28.53.29q-14.34.14-28.77.17h-.45v-.46l0-20.11v-.5h.5l28.65.07,28.65.18h.26V379Zm0,0L148.61,379l.25.25-28.65.18-28.65.07.5-.5,0,20.11-.46-.45c9.5,0,19,.08,28.53.17Z" style="fill:#ebebeb"></path><rect x="62.91" y="358.86" width="57.3" height="20.12" style="fill:#fff"></rect><path d="M120.21,379l-28.53.29c-9.56.09-19.16.16-28.77.16h-.45V379l-.05-20.12v-.5h.5l28.65.07,28.65.18h.26v.25Zm0,0L120,358.86l.25.26-28.65.18-28.65.06.5-.5,0,20.12-.46-.45c9.5,0,19,.07,28.53.16Z" style="fill:#ebebeb"></path><rect x="120.56" y="358.86" width="57.3" height="20.12" style="fill:#fff"></rect><path d="M177.86,379l-28.53.29c-9.56.09-19.17.16-28.77.16h-.45V379l0-20.12v-.5h.5l28.65.07,28.65.18h.25v.25Zm0,0-.25-20.12.25.26-28.65.18-28.65.06.5-.5L121,379l-.45-.45c9.49,0,19,.07,28.53.16Z" style="fill:#ebebeb"></path><rect x="178.2" y="358.86" width="57.3" height="20.12" style="fill:#fff"></rect><path d="M235.5,379l-28.53.29c-9.56.09-19.16.16-28.77.16h-.45V379l-.05-20.12v-.5h.5l28.65.07,28.65.18h.26v.25Zm0,0-.25-20.12.25.26-28.65.18-28.65.06.5-.5,0,20.12-.46-.45c9.5,0,19,.07,28.53.16Z" style="fill:#ebebeb"></path><rect x="235.85" y="358.86" width="57.3" height="20.12" style="fill:#fff"></rect><path d="M293.15,379l-28.53.29c-9.56.09-19.17.16-28.77.16h-.45V379l-.05-20.12v-.5h.5l28.65.07,28.65.18h.25v.25Zm0,0-.26-20.12.26.26-28.65.18-28.65.06.5-.5,0,20.12-.45-.45c9.49,0,19,.07,28.53.16Z" style="fill:#ebebeb"></path><rect x="293.49" y="358.86" width="57.3" height="20.12" style="fill:#fff"></rect><path d="M350.79,379l-28.53.29c-9.56.09-19.16.16-28.77.16H293V379L293,358.86v-.5h.5l28.65.07,28.65.18h.26v.25Zm0,0-.25-20.12.25.26-28.65.18-28.65.06.5-.5L293.94,379l-.45-.45c9.5,0,19,.07,28.53.16Z" style="fill:#ebebeb"></path><rect x="351.14" y="358.86" width="57.3" height="20.12" style="fill:#fff"></rect><path d="M408.44,379l-28.53.29c-9.56.09-19.17.16-28.77.16h-.46V379l0-20.12v-.5h.5l28.65.07,28.65.18h.25v.25Zm0,0-.26-20.12.26.26-28.65.18-28.65.06.5-.5L351.59,379l-.45-.45c9.49,0,19,.07,28.53.16Z" style="fill:#ebebeb"></path><rect x="379.79" y="338.75" width="57.3" height="20.12" style="fill:#fff"></rect><path d="M437.09,358.86l-28.53.29c-9.56.09-19.17.16-28.77.17h-.46v-.46l0-20.11v-.5h.5l28.65.06,28.65.19h.25v.25Zm0,0-.26-20.11.26.25-28.65.18-28.65.07.5-.5-.05,20.11-.45-.45q14.23,0,28.53.17Z" style="fill:#ebebeb"></path><rect x="322.14" y="338.75" width="57.3" height="20.12" style="fill:#fff"></rect><path d="M379.44,358.86l-28.53.29q-14.34.14-28.77.17h-.45v-.46l-.05-20.11v-.5h.5l28.65.06,28.65.19h.26v.25Zm0,0-.25-20.11.25.25-28.65.18-28.65.07.5-.5-.05,20.11-.45-.45c9.5,0,19,.08,28.53.17Z" style="fill:#ebebeb"></path><rect x="351.14" y="318.63" width="57.3" height="20.12" style="fill:#fff"></rect><path d="M408.44,338.75l-28.53.29c-9.56.08-19.17.15-28.77.16h-.46v-.45l0-20.12v-.5h.5l28.65.07,28.65.18h.25v.25Zm0,0-.26-20.12.26.25-28.65.19-28.65.06.5-.5-.05,20.12-.45-.45c9.49,0,19,.07,28.53.16Z" style="fill:#ebebeb"></path><rect x="379.79" y="298.26" width="57.3" height="20.12" style="fill:#fff"></rect><path d="M437.09,318.38l-28.53.29c-9.56.09-19.17.16-28.77.16h-.46v-.45l0-20.12v-.5h.5l28.65.06,28.65.18h.25v.25Zm0,0-.26-20.12.26.26-28.65.18-28.65.06.5-.5-.05,20.12-.45-.45c9.49,0,19,.07,28.53.16Z" style="fill:#ebebeb"></path><rect x="322.14" y="298.26" width="57.3" height="20.12" style="fill:#fff"></rect><path d="M379.44,318.38l-28.53.29c-9.56.09-19.16.16-28.77.16h-.45v-.45l-.05-20.12v-.5h.5l28.65.06,28.65.18h.26v.25Zm0,0-.25-20.12.25.26-28.65.18-28.65.06.5-.5-.05,20.12-.45-.45c9.5,0,19,.07,28.53.16Z" style="fill:#ebebeb"></path><rect x="408.78" y="278.15" width="57.3" height="20.12" style="fill:#fff"></rect><path d="M466.08,298.26l-28.53.29q-14.34.13-28.77.17h-.45v-.46l-.05-20.11v-.5h.5l28.65.07,28.65.18h.26v.25Zm0,0-.25-20.11.25.25-28.65.18-28.65.07.5-.5,0,20.11-.45-.45c9.5,0,19,.08,28.53.17Z" style="fill:#ebebeb"></path><rect x="351.15" y="278.15" width="57.3" height="20.12" style="fill:#fff"></rect><path d="M408.45,298.26l-28.53.29c-9.56.09-19.17.16-28.77.17h-.45v-.46l-.05-20.11v-.5h.5l28.65.07,28.65.18h.25v.25Zm0,0-.25-20.11.25.25-28.65.18-28.65.07.5-.5,0,20.11-.45-.45q14.24,0,28.53.17Z" style="fill:#ebebeb"></path><rect x="91.56" y="338.75" width="57.3" height="20.12" style="fill:#fff"></rect><path d="M148.86,358.86l-28.53.29q-14.34.14-28.77.17h-.45v-.46l0-20.11v-.5h.5l28.65.06,28.65.19h.26v.25Zm0,0-.25-20.11.25.25-28.65.18-28.65.07.5-.5,0,20.11-.46-.45c9.5,0,19,.08,28.53.17Z" style="fill:#ebebeb"></path><rect x="91.56" y="298.1" width="57.3" height="20.12" style="fill:#fff"></rect><path d="M148.86,318.21l-28.53.29q-14.34.13-28.77.17h-.45v-.46l0-20.11v-.5h.5l28.65.06,28.65.19h.26v.25Zm0,0-.25-20.11.25.25-28.65.18-28.65.07.5-.5,0,20.11-.46-.45c9.5,0,19,.08,28.53.17Z" style="fill:#ebebeb"></path><rect x="62.91" y="318.63" width="57.3" height="20.12" style="fill:#fff"></rect><path d="M120.21,338.75,91.68,339c-9.56.08-19.16.15-28.77.16h-.45v-.45l-.05-20.12v-.5h.5l28.65.07,28.65.18h.26v.25Zm0,0L120,318.63l.25.25-28.65.19-28.65.06.5-.5,0,20.12-.46-.45c9.5,0,19,.07,28.53.16Z" style="fill:#ebebeb"></path><rect x="408.78" y="278.15" width="28.31" height="0.28" style="fill:#fff"></rect><rect x="408.78" y="278.15" width="28.31" height="0.28" style="fill:#fff"></rect></g><g id="freepik--Character--inject-106"><path d="M258.14,188.66c-1.63,8.12-3.25,16.27-5.19,24.34-1.19,4.93-2.67,9.71-4.28,14.46a33.13,33.13,0,0,1-6.7,3.24c.42-1.21.82-2.41,1.23-3.59,2-5.69,3.4-11.44,4.81-17.27.05-.2-.22-.22-.27,0-1.65,5.94-3.73,11.83-5.85,17.63-.46,1.27-1,2.52-1.47,3.76a43.81,43.81,0,0,1-6.65,1.5c.54-1.38,1.06-2.76,1.57-4.11q1.8-4.8,3.4-9.65a194.72,194.72,0,0,0,5.17-19.44c.06-.28-.3-.3-.37,0q-2.73,10-6.1,19.82c-1.06,3.09-2.17,6.18-3.34,9.23-.56,1.46-1.17,2.92-1.78,4.38a68.35,68.35,0,0,1-12.19.31c-11.61-.65-22.71-5.54-32.5-11.56a59.76,59.76,0,0,1-20.95-21.41,66,66,0,0,0,11.51-13.57c.1-.17-.08-.32-.2-.18q-3.86,4.53-8,8.68c-1.31,1.31-2.66,2.54-4,3.78l-.21-.42c-.48-.92-1-1.89-1.45-2.92a104.87,104.87,0,0,0,7.58-8.32,95.89,95.89,0,0,0,9.41-13c.19-.3-.14-.59-.36-.32-3.32,4-6.54,8.1-9.91,12.05-2.37,2.78-4.9,5.42-7.34,8.13-1.27-3.18-2-6.73-.61-10.31,1.16-3,3.41-5.19,5.39-7.46,2.23-2.54,4.34-5.21,6.34-8a110.79,110.79,0,0,0,10.7-18.29c2.77-6,4.63-12.35,7.5-18.28,2.45-5.09,5.88-9.42,10.57-11.79a23.48,23.48,0,0,1,12.3-2.33c.11-.14,25-11.53,44.86,8.2,16.21,16.12,1.41,82.35-1.21,88.59a27.91,27.91,0,0,1-8.85,11.54c1.34-4,2.42-8.15,3.38-12.17,2-8.36,3.26-16.76,4.46-25.21C258.55,188.42,258.19,188.39,258.14,188.66Z" style="fill:#263238"></path><path d="M247.15,243.64c21,17.06,48.08,36.58,61.24,36.58,13.81,0,71.12-5.33,82.87-44.81,2.15-7.23-65.88-29.44-70.71-23-5.91,7.91-11.49,16.48-15.81,21-1.79,1.89-36.82-10.51-50.45-14.33C227.34,211.55,230.49,230.12,247.15,243.64Z" style="fill:#f7a9a0"></path><path d="M382.48,259,318,212.58S306.62,228,303,231.65c-1.53,1.55-33.53-9.28-50.59-13.94-19.57-5.34-31.93,6.27-5.26,28,28.88,23.57,53.15,38.47,64.47,38C350.79,281.94,382.48,259,382.48,259Z" style="fill:#FFC727"></path><path d="M337.53,248.73c-4.32-3.15-21.51-15.9-25.52-19.35-.06,0,0-.16.09-.12,4.51,2.64,21.86,14.77,26.19,17.93,8.64,6.29,17.47,12.47,25.34,19.57a.16.16,0,0,1-.2.26C354.38,261.45,346,255,337.53,248.73Z" style="fill:#263238"></path><path d="M308.93,283.57c-12.21-1.58-35-16-61.78-37.82-16.73-13.65-18.1-23.31-12-27.29Z" style="opacity:0.1"></path><path d="M304,230.59c-2.21,3.38-4.37,6.72-6.3,10.21-1,1.73-1.9,3.5-2.8,5.28s-1.77,3.59-2.58,5.44a34.28,34.28,0,0,1,1.87-5.76,48,48,0,0,1,2.64-5.45,49.45,49.45,0,0,1,3.27-5.09A40.14,40.14,0,0,1,304,230.59Z" style="fill:#263238"></path><path d="M291.34,248.15a4.69,4.69,0,0,1,.66-1.71,8.43,8.43,0,0,1,1.06-1.45,8.57,8.57,0,0,1,2.88-2.16,10.8,10.8,0,0,1-1,1.49c-.36.47-.75.9-1.12,1.33C293,246.51,292.24,247.32,291.34,248.15Z" style="fill:#263238"></path><path d="M319.37,235.17c.11,2.51-4.25,21.83-3.19,27.15S333.46,283.45,340.1,284s13-3.05,19.41-4,13-3.33,9.3-10.24-11.43-7.71-18.21-8.5-14-8.24-14-8.24Z" style="fill:#f7a9a0"></path><path d="M354.17,261.71c-3,.61-5.81,1.08-8.49,1.87a30.72,30.72,0,0,0-3.93,1.42c-1.32.53-2.51,1.28-3.92,2a9.6,9.6,0,0,1,2.95-3.63,12.7,12.7,0,0,1,4.23-2.1,14.87,14.87,0,0,1,4.63-.58A11.81,11.81,0,0,1,354.17,261.71Z" style="fill:#263238"></path><path d="M331.66,201.79C324.39,203,318.06,210.27,318,230c0,3.89,1.33,5.14,1.33,5.14-1.16,19.52,4.55,27.78,11.69,28.71a12.28,12.28,0,0,0,12.36-5.68s4.49,7.08,11.57,7.38,8.87-2.69,8.87-2.69a13.25,13.25,0,0,0,7.27,4c4.59.8,11.76-2.16,11.76-2.16s3.19,3,9.07.67,9.47-9.37,8.67-21.63-4.18-29.4-14.55-29.3c0,0-4-5.09-10.26-5.89s-8.08-.49-8.48-1-3.28-6.78-11.06-6.58-11.06,3.89-13.25,3.89S337.54,200.79,331.66,201.79Z" style="fill:#f7a9a0"></path><path d="M319.37,235.17a29.26,29.26,0,0,1,.3-6.94,28.09,28.09,0,0,1,.75-3.39,11,11,0,0,1,1.41-3.22c-.21,1.15-.34,2.28-.49,3.41s-.31,2.26-.48,3.39A47.42,47.42,0,0,1,319.37,235.17Z" style="fill:#263238"></path><path d="M319.24,238.35a60.57,60.57,0,0,0,1.46,11.05,24.9,24.9,0,0,0,4.31,9.85,10.76,10.76,0,0,0,4.05,3.06,10.32,10.32,0,0,0,5,.62,11.19,11.19,0,0,0,4.83-1.66,13.24,13.24,0,0,0,3.73-3.53l.82-1.17.72,1.17a19.94,19.94,0,0,0,3.38,4,12.91,12.91,0,0,0,4.48,2.71l.62.21.65.13a11.19,11.19,0,0,0,1.33.2,17.65,17.65,0,0,0,2.72.15,13.7,13.7,0,0,0,2.71-.28,8.36,8.36,0,0,0,2.59-.92,10.75,10.75,0,0,1-5.25,1.88,16.18,16.18,0,0,1-5.71-.22,13.27,13.27,0,0,1-5.14-2.68,18.73,18.73,0,0,1-3.92-4.3h1.54A13.91,13.91,0,0,1,340,262.9a13,13,0,0,1-5.66,2,12.28,12.28,0,0,1-6-.82,11.87,11.87,0,0,1-4.72-3.73,19,19,0,0,1-2.71-5.18,30.1,30.1,0,0,1-1.37-5.56A41.15,41.15,0,0,1,319,244,42.33,42.33,0,0,1,319.24,238.35Z" style="fill:#263238"></path><path d="M344.27,226.93a64.82,64.82,0,0,1,.91,7.82c.17,2.62.21,5.23.18,7.85s-.17,5.24-.48,7.85a42.87,42.87,0,0,1-1.46,7.75c-.06-2.64-.1-5.23-.1-7.84s0-5.19,0-7.79.12-5.2.26-7.81S343.93,229.55,344.27,226.93Z" style="fill:#263238"></path><path d="M365,231.65a66.82,66.82,0,0,1,.88,7.82c.17,2.62.2,5.23.18,7.85s-.18,5.23-.47,7.84a41.9,41.9,0,0,1-1.43,7.76c-.05-2.64-.11-5.23-.13-7.83s0-5.2,0-7.8.12-5.21.26-7.81S364.65,234.27,365,231.65Z" style="fill:#263238"></path><path d="M383.75,234.41a51.2,51.2,0,0,1,1.12,7.57c.21,2.54.25,5.08.21,7.63a69.62,69.62,0,0,1-.6,7.62,44.66,44.66,0,0,1-1.59,7.48c-.07-2.56,0-5.08,0-7.6l.15-7.55c.08-2.51.13-5,.23-7.55S383.52,237,383.75,234.41Z" style="fill:#263238"></path><path d="M146,358.76l141.46.1L279,324.48s12.92-11.69,10.23-27.31c-3.78-21.91-29.78-56.33-41-69.16-13.86-15.87-39.28-18.6-54.31,3.08C157.15,284.11,146,358.76,146,358.76Z" style="fill:#f7a9a0"></path><path d="M255.68,346.78a5.52,5.52,0,0,0-1.67,2.11,9.84,9.84,0,0,0-.87,2.51,11.68,11.68,0,0,0-.24,2.65,11.31,11.31,0,0,0,.24,2.62c.19.82.6,1.59,1.22,1.62s1.09-.62,1.26-1.46a8,8,0,0,0,0-2.64,5.55,5.55,0,0,0-.9-2.53,5.18,5.18,0,0,1,1.36,2.44,7.38,7.38,0,0,1,.25,2.86,3.35,3.35,0,0,1-.5,1.47,1.75,1.75,0,0,1-1.57.78,1.91,1.91,0,0,1-1.5-.87,4.47,4.47,0,0,1-.62-1.43,10.87,10.87,0,0,1-.25-2.88,10.55,10.55,0,0,1,.39-2.83,9.35,9.35,0,0,1,1.23-2.59A5,5,0,0,1,255.68,346.78Z" style="fill:#263238"></path><path d="M144.47,352.77l110.91-13.9,31.21,11.27L279,324.48s12.92-11.69,10.23-27.31c-3.78-21.91-29.78-56.33-41-69.16-13.86-15.87-39.28-18.6-54.31,3.08C157.15,284.11,144.47,352.77,144.47,352.77Z" style="fill:#FFC727"></path><path d="M231.26,216.93H212.19a30.68,30.68,0,0,1,6.2-1.29h6.54A32.77,32.77,0,0,1,231.26,216.93Zm14.9,8.91h-48c-.39.42-.79.85-1.18,1.29h50.42C247,226.69,246.58,226.26,246.16,225.84Zm8.7,10.2h-64.3c-.28.43-.56.86-.83,1.29h66.14Zm7.74,10.21H184.24c-.25.43-.5.85-.74,1.28h80C263.22,247.1,262.91,246.67,262.6,246.25Zm7.1,10.2H178.56c-.23.42-.45.85-.67,1.28h92.65Zm6.42,10.2H173.41c-.21.42-.42.85-.61,1.28H276.88C276.63,267.5,276.38,267.07,276.12,266.65Zm5.63,10.2h-113c-.2.43-.38.86-.57,1.29H282.4Zm4.55,10.2H164.41c-.18.43-.35.86-.52,1.29H286.77C286.62,287.91,286.47,287.48,286.3,287.05Zm2.91,10.2H160.47l-.48,1.29h129.4Q289.33,297.9,289.21,297.25ZM156.85,307.46c-.15.43-.29.86-.43,1.28H288.54c.12-.42.23-.84.33-1.28Zm-3.31,10.2-.39,1.28H283.64c.29-.41.57-.83.85-1.28ZM280,327.86H150.53l-.36,1.28H280.35Zm3,10.2H147.8c-.11.44-.21.87-.31,1.29h135.9ZM145.12,349.55h25l10.3-1.29H145.4C145.3,348.73,145.21,349.16,145.12,349.55ZM286,348.26h-4.65l3.58,1.29h1.45Z" style="fill:#030402;opacity:0.1"></path><path d="M239.56,319.49a97.56,97.56,0,0,1,17.05,2.07c2.8.64,5.56,1.43,8.32,2.29,1.38.43,2.76.8,4.15,1.17a15.38,15.38,0,0,0,4.4.66c.13,0,.14.23,0,.24a20.67,20.67,0,0,1-8.21-.38c-2.84-.62-5.67-1.39-8.51-2-5.73-1.32-11.45-2.63-17.23-3.44C239.27,320,239.29,319.48,239.56,319.49Z" style="fill:#263238"></path><path d="M226.06,326.57a102.63,102.63,0,0,1,14-1.86,68.88,68.88,0,0,1,7,0c1.13,0,2.25.11,3.37.2s2.47.39,3.71.47c.12,0,.14.24,0,.24-1.16,0-2.33.18-3.5.23l-3.5.15c-2.35.11-4.68.24-7,.32-4.69.16-9.35.38-14,.73C225.84,327.05,225.82,326.62,226.06,326.57Z" style="fill:#263238"></path><path d="M254.29,341.1s4.47,11.59,14.8,14.74c0,0,1.53-10.53-1.54-14.67-1.53-2.06-9.66-4.32-10.88-3.12A19.44,19.44,0,0,0,254.29,341.1Z" style="fill:#FFC727"></path><path d="M254.29,341.1s4.47,11.59,14.8,14.74c0,0,1.53-10.53-1.54-14.67-1.53-2.06-9.66-4.32-10.88-3.12A19.44,19.44,0,0,0,254.29,341.1Z" style="fill:#FFC727"></path><path d="M254.29,341.1a32.34,32.34,0,0,0,2.7,4.63,34.43,34.43,0,0,0,3.39,4.11,24.19,24.19,0,0,0,4.1,3.33,19.93,19.93,0,0,0,4.74,2.23l-.6.38a47.7,47.7,0,0,0,.32-7.55,21.88,21.88,0,0,0-.47-3.72,8.09,8.09,0,0,0-1.43-3.27,9.77,9.77,0,0,0-3.13-1.84,23.54,23.54,0,0,0-3.6-1.14,16.6,16.6,0,0,0-1.85-.31,2.65,2.65,0,0,0-1.72.24A20.18,20.18,0,0,0,254.29,341.1Zm0,0a16.71,16.71,0,0,1,2.24-3.13,1.86,1.86,0,0,1,1-.41,5.54,5.54,0,0,1,1,0,11.4,11.4,0,0,1,1.94.21,22.12,22.12,0,0,1,3.75,1,15.63,15.63,0,0,1,1.8.76,6.18,6.18,0,0,1,1.69,1.15,8.77,8.77,0,0,1,1.69,3.64,21.33,21.33,0,0,1,.54,3.87,39.26,39.26,0,0,1-.34,7.74l-.08.57-.52-.19a20.53,20.53,0,0,1-4.94-2.4,21.36,21.36,0,0,1-4.11-3.59,28.15,28.15,0,0,1-3.25-4.35A27.85,27.85,0,0,1,254.29,341.1Z" style="fill:#263238"></path><path d="M254.29,341.09a20.07,20.07,0,0,1,2.37-3,.5.5,0,0,1,.2-.13.7.7,0,0,1,.26-.11l.23,0a11.73,11.73,0,0,1,4.61.61,24.93,24.93,0,0,1-2,4.33c-.65,1-2.19,1.78-3.68,2.29A25.73,25.73,0,0,1,254.29,341.09Z" style="fill:#050400;opacity:0.1"></path><path d="M253.16,341.48s-8.16,12.73-15.35,16c0,0-3.24-8.09.26-15,1.57-3.08,12.64-6.41,13.6-4.85A14.92,14.92,0,0,1,253.16,341.48Z" style="fill:#FFC727"></path><path d="M253.16,341.48s-8.16,12.73-15.35,16c0,0-3.24-8.09.26-15,1.57-3.08,12.64-6.41,13.6-4.85A14.92,14.92,0,0,1,253.16,341.48Z" style="fill:#FFC727"></path><path d="M253.16,341.48c-.94,1.61-2,3.15-3.08,4.68s-2.24,3-3.47,4.42a40.47,40.47,0,0,1-3.91,4.06,20.57,20.57,0,0,1-4.7,3.24l-.45.21-.16-.46a22.31,22.31,0,0,1-1.41-8.7,17.66,17.66,0,0,1,.77-4.37c.13-.35.23-.71.37-1.05l.46-1a4.65,4.65,0,0,1,1.55-1.76,16.82,16.82,0,0,1,3.92-2,29.34,29.34,0,0,1,4.19-1.28,17.36,17.36,0,0,1,2.16-.35,3.76,3.76,0,0,1,2.24.31,3.49,3.49,0,0,1,.57,1c.15.34.28.68.4,1A17.07,17.07,0,0,1,253.16,341.48Zm0,0a19,19,0,0,0-.72-2c-.14-.33-.29-.65-.45-1a3.77,3.77,0,0,0-.54-.85,3.6,3.6,0,0,0-2-.11c-.7.11-1.39.26-2.08.44a27.21,27.21,0,0,0-4,1.41,18,18,0,0,0-3.68,2.05,3.77,3.77,0,0,0-1.27,1.47l-.42,1c-.13.33-.22.66-.33,1A16.15,16.15,0,0,0,237,349a23.43,23.43,0,0,0,1.29,8.31l-.62-.25a20.25,20.25,0,0,0,4.52-3,45.29,45.29,0,0,0,4-3.85c1.27-1.36,2.46-2.79,3.64-4.23S252.07,343,253.16,341.48Z" style="fill:#263238"></path><path d="M251.22,344.3a8.71,8.71,0,0,1-3.53-3.47,7.38,7.38,0,0,1-.54-3.09c2.27-.57,4.14-.71,4.53-.11a15.2,15.2,0,0,1,1.49,3.85S252.44,342.62,251.22,344.3Z" style="fill:#050400;opacity:0.1"></path><path d="M249.45,338.06a4.91,4.91,0,1,1,4,5.68A4.91,4.91,0,0,1,249.45,338.06Z" style="fill:#FFC727"></path><path d="M249.45,338.06a5.11,5.11,0,0,1,5.71-4.19,5.11,5.11,0,1,1-1.74,10.06,5.11,5.11,0,0,1-4-5.87Zm0,0a4.73,4.73,0,0,0,4,5.5,4.73,4.73,0,0,0,1.61-9.32,4.73,4.73,0,0,0-5.64,3.82Z" style="fill:#263238"></path><path d="M216.79,222.77c.7,2.58,13.73,19,25.6,18,3.87-.33,3-21.51,3-21.51l.29-1.58,4.11-22.09L223.48,180l-3.8-2.05s-.73,6.12-1.56,13.75c0,.35-.08.71-.11,1.08s-.12.84-.16,1.24c-.14,1.14-.27,2.3-.38,3.47-.09.88-.18,1.74-.24,2.67S217.08,202,217,203C216.38,212.16,216.51,221.67,216.79,222.77Z" style="fill:#f7a9a0"></path><path d="M218.12,191.73a45.08,45.08,0,0,0,27.58,26l4.11-22.09L223.48,180l-3.8-2.05S219,184.1,218.12,191.73Z" style="fill:#263238"></path><path d="M274.83,153.76c11.85,37.61-9.34,49-17.45,51.5-7.36,2.31-32.74,9.25-48.41-26.94S207,124.74,223.6,118.56,263,116.14,274.83,153.76Z" style="fill:#f7a9a0"></path><path d="M259.09,146.16c-.74.59-1.52,1-2.3,1.53a4.44,4.44,0,0,1-2.65,1.12,1.41,1.41,0,0,1-1.24-1.22,3.52,3.52,0,0,1,1.84-3.06,5.17,5.17,0,0,1,3.59-1.05A1.52,1.52,0,0,1,259.09,146.16Z" style="fill:#263238"></path><path d="M233.84,159.15a25.08,25.08,0,0,0,2.75-.25,4.56,4.56,0,0,0,2.77-.79,1.45,1.45,0,0,0,.2-1.73,3.53,3.53,0,0,0-3.37-1.23,5.23,5.23,0,0,0-3.45,1.45A1.52,1.52,0,0,0,233.84,159.15Z" style="fill:#263238"></path><path d="M240.93,164.41c-.05-.09-.16.19-.12.3,1,2.55,1.63,5.64-.42,7.29-.06.05,0,.18.07.14C243.18,170.77,242.25,166.68,240.93,164.41Z" style="fill:#263238"></path><path d="M237.71,162.5c-4.26,1.09-1.76,9.53,2.19,8.52S241.28,161.58,237.71,162.5Z" style="fill:#263238"></path><path d="M236.18,163.43c-.59.7-1.06,1.76-1.93,2.11s-2-.25-3-.9c-.09-.07-.15,0-.11.14.45,1.63,1.57,3.1,3.37,2.83,1.65-.25,2.36-2,2.28-3.77C236.82,163.52,236.42,163.15,236.18,163.43Z" style="fill:#263238"></path><path d="M256.59,158.65c0-.11.24.06.27.17.67,2.65,1.89,5.56,4.51,5.75.08,0,.11.14,0,.15C258.38,165.15,256.81,161.26,256.59,158.65Z" style="fill:#263238"></path><path d="M258.15,155.24c4.12-1.54,6.89,6.82,3.07,8.24S254.69,156.52,258.15,155.24Z" style="fill:#263238"></path><path d="M260.07,155.21c.81.22,1.73.81,2.53.6s1.31-1.37,1.61-2.43c0-.11.12-.06.16.05.57,1.58.6,3.42-.84,4.24s-2.79-.29-3.69-1.76C259.67,155.64,259.75,155.12,260.07,155.21Z" style="fill:#263238"></path><path d="M245.77,188.43c.79.47,1.63,1.16,2.61,1a7.29,7.29,0,0,0,2.68-1.38.1.1,0,0,1,.15.11,3.67,3.67,0,0,1-3,2.27,2.92,2.92,0,0,1-2.67-1.82C245.46,188.47,245.65,188.37,245.77,188.43Z" style="fill:#263238"></path><path d="M250.32,181.88c2.65-2.41,6.81-3.52,9.47-4.16.26-.15.31-.81.26-1.1h0c0-.09-2.12-5.14-2.12-5.14.82.08,4.89.34,4.47-.62-3.53-7.91-7.46-16.71-12.65-23.84a.24.24,0,0,0-.42.23c3.09,7.74,7.53,14.88,10.76,22.61a15.18,15.18,0,0,0-4.35.28c-.24.18,2.52,5.33,2.75,6.2,0,0-5.53.38-8.61,4.49C249.07,181.89,249.05,183,250.32,181.88Z" style="fill:#263238"></path><path d="M257.33,182.76c1.28-.9,1.46-6.46-1.16-5.93s-7.81,3.77-8.58,7.54c-.68,3.29,5.77-1.14,7.13-1.13C255.85,183.24,256.4,183.42,257.33,182.76Z" style="fill:#263238"></path><path d="M254.73,183.24c.26,0,.46,0,.65,0-.59-1.57-2.79-2.94-6.26-1.87a6.94,6.94,0,0,0-1.54,3C246.92,187.65,253.37,183.23,254.73,183.24Z" style="fill:#ff9abb"></path><path d="M236.06,124.79s3.38,5.43,2.67,10.33c-1.48,10.08-12.78,11-15.33,15.64-2.38,4.31.89,10.69-1.17,14.9-2.86,5.82-6.74,3.48-6.5,6.74s1.21,13.54-2.28,16-41.15-56.36,10.06-70c0,0,6.15-5.42,18.52-2.89,17.6,3.59,26.32,22.69,26.32,22.69a13.12,13.12,0,0,1-5.46-.7c-3.11-1.4-4.81-2.63-7-3.47-3.49-1.32-4.74.76-8.33-.47C242.07,131.66,236.06,124.79,236.06,124.79Z" style="fill:#263238"></path><path d="M234.93,122.78a35.1,35.1,0,0,1,3.87,7.28,14.78,14.78,0,0,1,1.25,7.85,11,11,0,0,1-4.4,6.32c-2.14,1.63-4.71,2.7-7,4.54a8.25,8.25,0,0,0-2.6,3.59,11,11,0,0,0-.29,4.35c.27,2.76.51,5.49-.63,7.87a9.2,9.2,0,0,1-5.9,4.95c-2.55.79-5.59.95-7.73,2.84,2.29-1.71,5.17-1.61,7.89-2.23A9.93,9.93,0,0,0,226,165c1.46-2.64,1.13-5.73.93-8.4a10.06,10.06,0,0,1,.28-3.87,7,7,0,0,1,2.26-3c2-1.7,4.61-2.84,6.86-4.6a14.15,14.15,0,0,0,3-3.09,8.65,8.65,0,0,0,1.69-4,15.55,15.55,0,0,0-1.65-8.26A35.94,35.94,0,0,0,234.93,122.78Z" style="fill:#263238"></path><path d="M236.61,124.79a29.27,29.27,0,0,0,4.61,6.21,13.58,13.58,0,0,0,6.8,4,19.2,19.2,0,0,0,3.92.28,6.37,6.37,0,0,1,3.3,1,19.27,19.27,0,0,0,3.12,2.31,8.62,8.62,0,0,0,3.79.88,9.59,9.59,0,0,1-3.46-1.44,18.25,18.25,0,0,1-2.81-2.53,6.68,6.68,0,0,0-3.86-1.42,21.57,21.57,0,0,1-3.72-.32,14.52,14.52,0,0,1-6.36-3.51A57.13,57.13,0,0,1,236.61,124.79Z" style="fill:#263238"></path><path d="M215.85,179.33s-11.07-10.15-15.85-5.94,5.4,20.22,12.33,21.18a6.66,6.66,0,0,0,7.94-5.44Z" style="fill:#f7a9a0"></path><path d="M203,177.91c-.1,0-.09.16,0,.18,4.9.82,8.19,4.45,10.8,8.4-1.71-1.36-3.72-1.87-5.6.21-.09.11.06.27.18.22a4.1,4.1,0,0,1,4.72.41,20.29,20.29,0,0,1,2.9,3.1c.3.35,1,0,.72-.45l-.06-.1C215.53,184.14,209.3,177.12,203,177.91Z" style="fill:#263238"></path><path d="M187.68,229.28c-45,32.54-99.23,83.79-86.49,103.32,8.47,13,60-17.47,60.71-18.15,2.51-2.33,25.51-38.43,46.92-71.24C228.6,212.9,207.8,214.74,187.68,229.28Z" style="fill:#FFC727"></path><path d="M199.39,261.11q-2.53,3.11-5,6.3c.32-.58.65-1.14,1-1.71,2.55-4.67,5.06-9.37,7.57-14.06,0-.1-.11-.18-.17-.08-5,8-10,16-15,24s-10,15.95-15.38,23.7c-3.05,4.39-6.14,8.82-9.55,13-.07.09.07.21.14.12,3.12-3.61,6.26-7.18,9.18-10.94s5.71-7.51,8.36-11.4q6-8.81,11.32-18a119.09,119.09,0,0,0,7.84-10.73C199.75,261.14,199.49,261,199.39,261.11Z" style="fill:#263238"></path><path d="M102.16,334.52c14.66,15.44,75.8,9.94,115-.12,7.47-1.91-13.75-68.58-21.45-65.64C151.8,285.54,86.1,317.61,102.16,334.52Z" style="fill:#f7a9a0"></path><path d="M271.6,268.87c-.37,7.38-4.85,6.33-4.85,6.33a13.61,13.61,0,0,1,5.12,7.72c1.07,5.51-7.1,9.6-7.1,9.6a16.78,16.78,0,0,1,4.11,9c.5,5.37-7.16,10.68-7.16,10.68a14.72,14.72,0,0,1-1.37,10.19c-4.79,8.16-48.85,15.24-60.73,15.77L189,271.91s40.21-21,51.06-19.84C249.17,253,272.17,257.6,271.6,268.87Z" style="fill:#f7a9a0"></path><path d="M266.61,275c-9.48-3.33-19.74-4.39-29.65-5.3a.17.17,0,0,0,0,.34c9.87.79,19.76,4.24,29.57,5.43A.25.25,0,0,0,266.61,275Z" style="fill:#263238"></path><path d="M264.55,291.76a26.36,26.36,0,0,0-6.81-.76q-3.63-.15-7.28-.18c-4.86,0-9.72,0-14.57.23-.22,0-.26.34,0,.35,4.84.05,9.68.17,14.52.43q3.63.19,7.26.44a30.21,30.21,0,0,0,6.85.15A.35.35,0,0,0,264.55,291.76Z" style="fill:#263238"></path><path d="M261.52,312.2c-1.86-.67-4.21-.38-6.17-.35-2.21,0-4.42,0-6.64,0-4.43,0-8.86,0-13.28-.15-.22,0-.25.33,0,.34,4.5.18,9,.42,13.49.55,2.21.07,4.41.13,6.62.17,1.88,0,4.23.3,6-.38C261.63,312.39,261.61,312.23,261.52,312.2Z" style="fill:#263238"></path><path d="M191.21,268.28l11.61,74.15s-96,11.93-103.19-11.24S191.21,268.28,191.21,268.28Z" style="fill:#FFC727"></path><path d="M178.59,278.87c2.1,32.26,5.76,54.84,6.56,59.15a.09.09,0,0,0,.18,0c-.93-22.6-5.83-57.16-6.37-59.2C178.9,278.58,178.57,278.67,178.59,278.87Z" style="fill:#263238"></path><path d="M192.31,270.25c-.27-.86-.71-3.28-1.12-3.13-1.45.55-2.93,1-4.38,1.54s-2.73,1.06-4.09,1.6c-2.79,1.12-5.55,2.3-8.3,3.51q-8.21,3.6-16.2,7.64T142.47,290c-5.14,3-10.24,6.09-15.14,9.46l-.93.64a35,35,0,0,0-6.07,1.73c-2.29.91-4.49,2-6.68,3.1a.08.08,0,0,0,.07.15,49.41,49.41,0,0,1,6.83-2.59l4.19-1.25c-4.67,3.23-9.3,6.53-13.72,10.09-.08.07,0,.18.11.13,5-3.34,10-6.76,15.1-9.91s10.16-6.24,15.34-9.2c10.32-5.87,20.86-11.32,31.69-16.19q4.53-2,9.12-3.95l4.7-1.94c1.34-.54,2.38-1,3.72-1.58.2.62.39,1.18.59,1.79S192.54,271,192.31,270.25Z" style="fill:#263238"></path><path d="M202.75,338.19c.18.88,1.16,4.36.73,4.42-1.53.22-3,.56-4.58.76a295.17,295.17,0,0,1-60.49,2.08c-.59,0-2.78-.55.1-.69,11.86-.6,25.69,0,63.89-3.31-.12-.63-.43-2.35-.54-3S202.59,337.4,202.75,338.19Z" style="fill:#263238"></path></g><g id="freepik--Bricks--inject-106"><polygon points="456.69 257.47 441.94 255.31 442.38 255.34 457.13 257.5 456.69 257.47" style="fill:#dbdbdb"></polygon><polygon points="454.34 282.59 439.59 280.44 441.44 256.18 456.19 258.34 454.34 282.59" style="fill:#dbdbdb"></polygon><polygon points="420.52 280.38 405.78 278.22 439.59 280.44 454.34 282.59 420.52 280.38" style="fill:#dbdbdb"></polygon><path d="M422.46,255.9l-14.75-2.16q16.91,1.27,33.73,2.44l14.75,2.16Q439.35,257.2,422.46,255.9Z" style="fill:#fff"></path><path d="M422.27,255.32l-14.74-2.16q17.18,1,34.41,2.15l14.75,2.16Q439.47,256.33,422.27,255.32Z" style="fill:#dbdbdb"></path><polygon points="386.45 278.26 371.71 276.1 405.78 278.22 420.52 280.38 386.45 278.26" style="fill:#dbdbdb"></polygon><polygon points="385.94 278.72 371.19 276.56 371.21 276.32 385.96 278.48 385.94 278.72" style="fill:#dbdbdb"></polygon><path d="M388.07,253.29l34.39,2.61q16.91,1.28,33.73,2.44l-1.85,24.25-33.82-2.21-34.07-2.12Z" style="fill:#fff"></path><polygon points="388.07 253.29 373.32 251.13 407.71 253.74 422.46 255.9 388.07 253.29" style="fill:#fff"></polygon><path d="M456.69,257.47l.44,0,0,.45-1.83,25.2,0,.5-.48,0-34.28-2.38-34.28-2.5-.24,0,0-.24,2.11-25.19-1.62,25,34.07,2.12,33.82,2.21,1.85-24.25q-16.85-1.14-33.73-2.44l-34.39-2.61,34.2,2Q439.45,256.33,456.69,257.47Z" style="fill:#dbdbdb"></path><polygon points="386.45 278.26 371.71 276.1 373.32 251.13 388.07 253.29 386.45 278.26" style="fill:#fff"></polygon><polygon points="385.96 278.48 371.21 276.32 373.32 251.13 388.07 253.29 385.96 278.48" style="fill:#dbdbdb"></polygon><polygon points="388.07 253.29 373.32 251.13 407.52 253.16 422.27 255.31 388.07 253.29" style="fill:#dbdbdb"></polygon><polygon points="98.89 182.68 114.06 184.82 113.81 184.85 98.64 182.71 98.89 182.68" style="fill:#dbdbdb"></polygon><polygon points="95.53 157.47 110.7 159.61 114.22 184.28 99.05 182.14 95.53 157.47" style="fill:#dbdbdb"></polygon><polygon points="129.66 152.29 144.83 154.43 110.7 159.61 95.53 157.47 129.66 152.29" style="fill:#dbdbdb"></polygon><polygon points="132.77 176.56 147.94 178.7 114.22 184.28 99.05 182.14 132.77 176.56" style="fill:#fff"></polygon><polygon points="132.88 177.42 148.05 179.56 114.06 184.82 98.89 182.68 132.88 177.42" style="fill:#dbdbdb"></polygon><polygon points="163.11 147.1 178.28 149.24 181.43 173.28 166.26 171.14 163.11 147.1" style="fill:#fff"></polygon><path d="M163.11,147.1l15.17,2.14q-16.68,2.67-33.45,5.19l-15.17-2.14Q146.43,149.74,163.11,147.1Z" style="fill:#dbdbdb"></path><polygon points="163.84 146.08 179.01 148.22 179.08 148.66 163.91 146.52 163.84 146.08" style="fill:#dbdbdb"></polygon><path d="M95.53,157.47l34.13-5.18q16.77-2.55,33.45-5.19l3.15,24-33.49,5.42-33.72,5.58Z" style="fill:#fff"></path><polygon points="166.26 171.14 181.43 173.28 147.94 178.7 132.77 176.56 166.26 171.14" style="fill:#fff"></polygon><polygon points="166.86 172.04 182.03 174.18 148.05 179.56 132.88 177.42 166.86 172.04" style="fill:#dbdbdb"></polygon><polygon points="163.91 146.52 179.08 148.66 182.44 173.62 167.27 171.47 163.91 146.52" style="fill:#ebebeb"></polygon><polygon points="167.33 171.97 182.5 174.11 182.03 174.18 166.86 172.04 167.33 171.97" style="fill:#dbdbdb"></polygon><polygon points="167.27 171.47 182.44 173.62 182.5 174.11 167.33 171.97 167.27 171.47" style="fill:#dbdbdb"></polygon><path d="M163.42,146.14l.42-.06.07.44,3.36,24.95.06.5-.47.07-34,5.38-34,5.26-.25,0,0-.25-3.08-25,3.52,24.67,33.72-5.58,33.49-5.42-3.15-24q-16.68,2.67-33.45,5.19l-34.13,5.18,33.82-5.71Q146.35,148.91,163.42,146.14Z" style="fill:#dbdbdb"></path><polygon points="363.63 142.06 348.41 143.84 348.66 143.89 363.87 142.11 363.63 142.06" style="fill:#dbdbdb"></polygon><polygon points="367.58 116.94 352.37 118.72 348.26 143.3 363.48 141.52 367.58 116.94" style="fill:#dbdbdb"></polygon><polygon points="333.59 110.95 318.37 112.74 352.37 118.72 367.58 116.94 333.59 110.95" style="fill:#dbdbdb"></polygon><polygon points="329.9 135.14 314.68 136.92 348.26 143.3 363.48 141.52 329.9 135.14" style="fill:#fff"></polygon><polygon points="329.77 136 314.55 137.78 348.41 143.84 363.63 142.06 329.77 136" style="fill:#dbdbdb"></polygon><polygon points="300.27 104.97 285.05 106.75 281.33 130.7 296.55 128.92 300.27 104.97" style="fill:#fff"></polygon><path d="M300.27,105l-15.22,1.78q16.62,3.06,33.32,6L333.59,111Q316.87,108,300.27,105Z" style="fill:#dbdbdb"></path><polygon points="299.56 103.93 284.34 105.71 284.27 106.15 299.49 104.37 299.56 103.93" style="fill:#dbdbdb"></polygon><path d="M367.58,116.94l-34-6q-16.72-3-33.32-6l-3.72,23.95,33.35,6.22,33.58,6.38Z" style="fill:#fff"></path><polygon points="296.55 128.92 281.33 130.7 314.68 136.92 329.9 135.14 296.55 128.92" style="fill:#fff"></polygon><polygon points="295.92 129.81 280.7 131.59 314.55 137.78 329.77 136 295.92 129.81" style="fill:#dbdbdb"></polygon><polygon points="299.49 104.37 284.27 106.15 280.31 131.02 295.53 129.24 299.49 104.37" style="fill:#ebebeb"></polygon><polygon points="295.45 129.73 280.24 131.51 280.7 131.59 295.92 129.81 295.45 129.73" style="fill:#dbdbdb"></polygon><polygon points="295.53 129.24 280.31 131.02 280.24 131.51 295.45 129.73 295.53 129.24" style="fill:#dbdbdb"></polygon><path d="M300,104l-.43-.07-.07.44-4,24.87-.08.49.47.08L329.77,136l33.86,6.06.24.05,0-.25,3.67-24.92-4.1,24.58-33.58-6.38-33.35-6.22L300.27,105q16.62,3.06,33.32,6l34,6-33.67-6.51Q317,107.18,300,104Z" style="fill:#dbdbdb"></path><polygon points="399.01 188.01 384.56 196.09 384.9 172.14 399.34 164.06 399.01 188.01" style="fill:#dbdbdb"></polygon><polygon points="399.95 189.05 385.5 197.14 385.03 197.1 399.47 189.02 399.95 189.05" style="fill:#dbdbdb"></polygon><path d="M399.34,164.06l-14.44,8.08Q368,171,351,169.81l14.44-8.08C376.76,162.53,388.06,163.33,399.34,164.06Z" style="fill:#dbdbdb"></path><polygon points="399.01 188.01 384.56 196.09 350.58 193.99 365.02 185.91 399.01 188.01" style="fill:#fff"></polygon><polygon points="365.43 161.73 350.99 169.81 316.41 167.32 330.86 159.24 365.43 161.73" style="fill:#dbdbdb"></polygon><path d="M399.34,164.13,399,188.44l-33.91-2.13-34.15-2,.05-25,34.5,2.54C376.81,162.58,388.08,163.39,399.34,164.13Z" style="fill:#fff"></path><polygon points="330.8 183.9 316.36 191.98 316.41 167.32 330.86 159.24 330.8 183.9" style="fill:#fff"></polygon><polygon points="330.31 184.36 315.87 192.45 315.87 192.2 330.32 184.11 330.31 184.36" style="fill:#dbdbdb"></polygon><polygon points="365.02 185.91 350.58 193.99 316.36 191.98 330.8 183.9 365.02 185.91" style="fill:#fff"></polygon><polygon points="399.47 189.02 385.03 197.11 350.57 194.84 316.11 192.47 330.55 184.38 365.01 186.76 399.47 189.02" style="fill:#dbdbdb"></polygon><polygon points="330.32 184.11 315.87 192.2 316.41 167.32 330.86 159.24 330.32 184.11" style="fill:#ebebeb"></polygon><polygon points="330.55 184.38 316.11 192.47 315.87 192.45 330.31 184.36 330.55 184.38" style="fill:#dbdbdb"></polygon><path d="M400,188.56v.49l-.48,0L365,186.76l-34.46-2.38-.24,0v-.25l.54-24.88-.06,24.67,34.22,2,34,2.1.33-23.95c-11.28-.73-22.58-1.53-33.91-2.33l-34.57-2.5,34.35,1.92c11.49.64,23,1.31,34.57,2l.44,0v.45Z" style="fill:#dbdbdb"></path><polygon points="112.7 296 122.48 290.61 118.9 315.13 109.11 320.52 112.7 296" style="fill:#dbdbdb"></polygon><polygon points="109.11 320.52 118.9 315.13 153.55 321.26 143.77 326.66 109.11 320.52" style="fill:#dbdbdb"></polygon><path d="M160.44,297.83l-9.79,5.39-3-.57,9.79-5.39Z" style="fill:#fff"></path><polygon points="143.77 326.66 153.55 321.26 187.94 327.47 178.16 332.86 143.77 326.66" style="fill:#dbdbdb"></polygon><polygon points="181.93 309.06 191.71 303.67 187.94 327.47 178.16 332.86 181.93 309.06" style="fill:#fff"></polygon><polygon points="182.94 308.34 192.73 302.95 192.66 303.39 182.87 308.79 182.94 308.34" style="fill:#dbdbdb"></polygon><polygon points="182.51 308.26 192.29 302.87 192.73 302.95 182.94 308.34 182.51 308.26" style="fill:#dbdbdb"></polygon><path d="M160.44,297.83q15.66,3,31.27,5.84l-9.78,5.39q-15.63-2.85-31.28-5.84l8.93-4.92.43-.23.22-.12.11-.06A.33.33,0,0,1,160.44,297.83Z" style="fill:#fff"></path><path d="M182.51,308.26l.43.08-.07.45-3.82,24.73L179,334l-.48-.09-34.86-6.42L108.79,321l-.24-.05,0-.24L112.7,296l-3.59,24.52,34.66,6.14,34.39,6.2,3.77-23.8q-17.13-3.12-34.29-6.41L112.7,296l34.8,6.05Q165,305.09,182.51,308.26Z" style="fill:#dbdbdb"></path><polygon points="112.7 296 122.48 290.61 157.43 297.26 147.64 302.65 112.7 296" style="fill:#fff"></polygon><polygon points="112.7 296 122.48 290.61 157.28 296.66 147.5 302.05 112.7 296" style="fill:#ebebeb"></polygon><polygon points="179.05 333.51 188.84 328.13 188.76 328.62 178.97 334.01 179.05 333.51" style="fill:#dbdbdb"></polygon><path d="M112.7,296l34.94,6.65q17.18,3.27,34.29,6.41l-3.77,23.8-34.39-6.2-34.66-6.14Z" style="fill:#fff"></path><path d="M147.5,302.05l9.78-5.39q17.47,3,35,6.21l-9.78,5.39Q165,305.08,147.5,302.05Z" style="fill:#ebebeb"></path><polygon points="182.87 308.79 192.66 303.39 188.84 328.13 179.05 333.51 182.87 308.79" style="fill:#dbdbdb"></polygon><polygon points="328.24 342.25 319.25 335.62 319.58 360.4 328.57 367.04 328.24 342.25" style="fill:#dbdbdb"></polygon><polygon points="328.57 367.04 319.58 360.4 284.42 361.91 293.41 368.55 328.57 367.04" style="fill:#dbdbdb"></polygon><path d="M280.68,337.78l9,6.63,3.06-.17-9-6.63Z" style="fill:#fff"></path><polygon points="293.41 368.55 284.42 361.91 249.51 363.53 258.5 370.16 293.41 368.55" style="fill:#dbdbdb"></polygon><polygon points="257.9 346.08 248.91 339.44 249.51 363.53 258.5 370.16 257.9 346.08" style="fill:#fff"></polygon><polygon points="256.99 345.23 248 338.59 248.01 339.05 257 345.68 256.99 345.23" style="fill:#dbdbdb"></polygon><polygon points="257.43 345.21 248.44 338.57 248 338.59 256.99 345.23 257.43 345.21" style="fill:#dbdbdb"></polygon><path d="M280.68,337.78q-15.92.89-31.77,1.66l9,6.64q15.87-.76,31.77-1.67l-8.2-6.05-.39-.29-.21-.15-.1-.07A.31.31,0,0,0,280.68,337.78Z" style="fill:#fff"></path><path d="M257.43,345.21l-.44,0v.45l.52,25,0,.49.49,0,35.4-1.77,35.39-1.88h.26l0-.25-.82-25,.33,24.78-35.16,1.51-34.91,1.61-.6-24.08q17.39-.84,34.83-1.84l35.51-2L293,343.66Q275.24,344.38,257.43,345.21Z" style="fill:#dbdbdb"></path><polygon points="328.24 342.25 319.25 335.62 283.74 337.61 292.73 344.24 328.24 342.25" style="fill:#fff"></polygon><polygon points="328.24 342.25 319.25 335.62 283.96 337.03 292.95 343.66 328.24 342.25" style="fill:#ebebeb"></polygon><polygon points="257.52 370.7 248.53 364.06 248.55 364.56 257.54 371.19 257.52 370.7" style="fill:#dbdbdb"></polygon><path d="M328.24,342.26l-35.51,2q-17.46,1-34.83,1.84l.6,24.08,34.91-1.61L328.57,367Z" style="fill:#fff"></path><path d="M293,343.66,284,337q-17.71.71-35.52,1.54l9,6.64Q275.2,344.37,293,343.66Z" style="fill:#ebebeb"></path><polygon points="257 345.68 248.01 339.05 248.53 364.06 257.52 370.7 257 345.68" style="fill:#dbdbdb"></polygon><polygon points="352.02 322.07 349.43 319.97 345.34 296.03 347.93 298.13 352.02 322.07" style="fill:#dbdbdb"></polygon><polygon points="348.22 297.15 345.63 295.06 346.07 294.98 348.66 297.08 348.22 297.15" style="fill:#dbdbdb"></polygon><polygon points="317.09 328.25 314.5 326.15 349.43 319.97 352.02 322.07 317.09 328.25" style="fill:#dbdbdb"></polygon><path d="M313,304.06,310.45,302Q327.94,299,345.34,296l2.59,2.1C336.31,300.15,324.7,302.11,313,304.06Z" style="fill:#fff"></path><path d="M312.7,303.53l-2.59-2.1c11.81-2.14,23.66-4.29,35.52-6.37l2.59,2.1C336.36,299.24,324.51,301.39,312.7,303.53Z" style="fill:#ebebeb"></path><polygon points="281.94 334.58 279.36 332.48 314.5 326.15 317.09 328.25 281.94 334.58" style="fill:#dbdbdb"></polygon><polygon points="281.53 335.17 278.94 333.07 278.9 332.81 281.49 334.91 281.53 335.17" style="fill:#dbdbdb"></polygon><polygon points="281.94 334.58 279.36 332.48 274.85 307.9 277.44 310 281.94 334.58" style="fill:#fff"></polygon><polygon points="277.44 310 274.85 307.9 310.45 301.96 313.04 304.06 277.44 310" style="fill:#fff"></polygon><path d="M353.08,322.39l.08.5-.49.08-35.43,6.13-35.46,6-.25.05,0-.26L277.44,310l4.5,24.58,35.15-6.33L352,322.07l-4.09-23.94c-11.62,2-23.23,4-34.9,5.93L277.44,310l35.26-6.47c11.81-2.14,23.66-4.29,35.52-6.37l.44-.08.08.44Z" style="fill:#dbdbdb"></path><path d="M347.93,298.13,352,322.07l-34.93,6.18-35.15,6.33L277.44,310,313,304.06C324.7,302.11,336.31,300.15,347.93,298.13Z" style="fill:#fff"></path><polygon points="277.44 310 274.85 307.9 310.11 301.43 312.7 303.53 277.44 310" style="fill:#ebebeb"></polygon><polygon points="281.49 334.91 278.9 332.81 274.85 307.9 277.44 310 281.49 334.91" style="fill:#dbdbdb"></polygon><polygon points="43.85 245.19 56.52 242.89 56.04 267.87 43.37 270.17 43.85 245.19" style="fill:#dbdbdb"></polygon><polygon points="43.37 270.17 56.04 267.87 90.62 269.18 77.95 271.48 43.37 270.17" style="fill:#dbdbdb"></polygon><polygon points="43.85 245.19 56.52 242.89 91.44 244.67 78.77 246.97 43.85 245.19" style="fill:#fff"></polygon><polygon points="43.85 245.19 56.52 242.89 91.22 244.09 78.55 246.39 43.85 245.19" style="fill:#dbdbdb"></polygon><polygon points="77.95 271.48 90.62 269.18 124.94 270.59 112.28 272.89 77.95 271.48" style="fill:#dbdbdb"></polygon><polygon points="113.23 273.43 125.9 271.13 125.88 271.63 113.21 273.93 113.23 273.43" style="fill:#dbdbdb"></polygon><path d="M43.86,245.19,78.77,247q17.15.89,34.24,1.65l-.74,24.27L78,271.48l-34.58-1.31Z" style="fill:#fff"></path><polygon points="113.01 248.62 125.68 246.31 124.94 270.59 112.28 272.89 113.01 248.62" style="fill:#fff"></polygon><polygon points="113.91 248.21 126.58 245.9 125.9 271.13 113.23 273.43 113.91 248.21" style="fill:#ebebeb"></polygon><path d="M78.77,247l12.67-2.3c11.43.58,22.83,1.15,34.24,1.64L113,248.62Q95.89,247.87,78.77,247Z" style="fill:#fff"></path><path d="M78.55,246.39l12.67-2.3q17.41.61,34.93,1.34l-12.67,2.31Q96,247,78.55,246.39Z" style="fill:#dbdbdb"></path><polygon points="113.92 247.75 126.59 245.44 126.58 245.9 113.91 248.21 113.92 247.75" style="fill:#dbdbdb"></polygon><polygon points="113.47 247.74 126.14 245.43 126.59 245.44 113.92 247.75 113.47 247.74" style="fill:#dbdbdb"></polygon><path d="M113.48,247.74h.44v.46l-.68,25.22,0,.5-.48,0-34.8-1.57-34.81-1.68h-.25v-.25l1-25.21-.49,25L78,271.48l34.32,1.41.74-24.27q-17.12-.75-34.24-1.65l-34.91-1.78,34.69,1.2Q96,247,113.48,247.74Z" style="fill:#dbdbdb"></path></g></svg>
