<svg xmlns="http://www.w3.org/2000/svg" viewBox="0 0 750 500"><g id="freepik--Shadow--inject-142"><ellipse cx="492.62" cy="445.33" rx="182.16" ry="12.3" style="fill:#ebebeb"></ellipse></g><g id="freepik--Floor--inject-142"><polygon points="56.76 363.88 136.32 363.64 215.88 363.55 375 363.39 534.12 363.55 613.68 363.64 693.24 363.88 613.68 364.13 534.12 364.22 375 364.38 215.88 364.22 136.32 364.13 56.76 363.88" style="fill:#263238"></polygon></g><g id="freepik--Device--inject-142"><rect x="182.97" y="109.9" width="384.06" height="256.91" style="fill:#dbdbdb"></rect><rect x="185.76" y="113.04" width="378.48" height="250.64" style="fill:#263238"></rect><rect x="132.95" y="386.07" width="484.1" height="17.63" style="fill:#c7c7c7"></rect><polygon points="132.95 386.07 182.97 366.81 567.03 366.81 617.05 386.07 132.95 386.07" style="fill:#dbdbdb"></polygon><polygon points="187.44 379.24 219.72 366.81 530.28 366.81 562.56 379.24 187.44 379.24" style="fill:#263238"></polygon><rect x="206.87" y="131.99" width="336.27" height="212.73" style="fill:#fff"></rect><rect x="206.87" y="131.99" width="336.27" height="8.19" style="fill:#455a64"></rect><path d="M213.37,136.08a2,2,0,1,1-2-2A2,2,0,0,1,213.37,136.08Z" style="fill:#FFC727"></path><path d="M221.66,136.08a2,2,0,1,1-2-2A2,2,0,0,1,221.66,136.08Z" style="fill:#ebebeb"></path><path d="M230,136.08a2,2,0,1,1-2-2A2,2,0,0,1,230,136.08Z" style="fill:#fff"></path><rect x="367.66" y="231.94" width="61.27" height="47.01" transform="translate(796.6 510.88) rotate(180)" style="fill:#ebebeb"></rect><path d="M373.76,242.22a5.57,5.57,0,1,0,4.37-4.37A5.57,5.57,0,0,0,373.76,242.22Z" style="fill:#fff"></path><polygon points="387.88 268.82 428.93 268.82 408.4 243.52 387.88 268.82" style="fill:#c7c7c7"></polygon><polygon points="367.66 268.84 404.07 268.84 385.87 252.36 367.66 268.84" style="fill:#dbdbdb"></polygon><rect x="367.66" y="268.82" width="61.27" height="10.13" style="fill:#dbdbdb"></rect><rect x="223.47" y="231.94" width="46.02" height="3.87" style="fill:#dbdbdb"></rect><rect x="223.47" y="240.92" width="133.18" height="3.87" style="fill:#dbdbdb"></rect><rect x="223.47" y="249.44" width="133.18" height="3.87" style="fill:#dbdbdb"></rect><rect x="223.47" y="257.96" width="133.18" height="3.87" style="fill:#dbdbdb"></rect><rect x="223.47" y="266.48" width="133.18" height="3.87" style="fill:#dbdbdb"></rect><rect x="223.47" y="274.99" width="133.18" height="3.87" style="fill:#dbdbdb"></rect><rect x="334.38" y="155.93" width="46.02" height="10.36" style="fill:#dbdbdb"></rect><rect x="334.38" y="173.43" width="94.55" height="3.87" style="fill:#dbdbdb"></rect><rect x="334.38" y="181.95" width="94.55" height="3.87" style="fill:#dbdbdb"></rect><rect x="334.38" y="190.47" width="94.55" height="3.87" style="fill:#dbdbdb"></rect><rect x="334.38" y="198.99" width="94.55" height="3.87" style="fill:#dbdbdb"></rect><rect x="334.38" y="210.32" width="94.55" height="3.87" style="fill:#dbdbdb"></rect><rect x="334.38" y="218.84" width="94.55" height="3.87" style="fill:#dbdbdb"></rect><rect x="442.36" y="155.93" width="84.16" height="10.54" style="fill:#FFC727"></rect><rect x="442.59" y="166.56" width="83.71" height="165.33" style="fill:#fff"></rect><path d="M526.53,332.16H442.36V166.29h84.17Zm-83.71-.54h83.24V166.83H442.82Z" style="fill:#dbdbdb"></path><polygon points="442.81 331.99 442.37 331.79 526.08 166.46 526.51 166.66 442.81 331.99" style="fill:#dbdbdb"></polygon><polygon points="526.08 331.99 442.37 166.66 442.81 166.46 526.51 331.79 526.08 331.99" style="fill:#dbdbdb"></polygon><rect x="223.65" y="156.11" width="100.3" height="66.41" style="fill:#fff"></rect><path d="M223.49,222.71v-.17l0-66.58h.17l100.46,0,0,66.75H324Zm.32-66.42,0,66.08,100,0,0-66.07Z" style="fill:#dbdbdb"></path><path d="M223.81,156.29c8.43,5.35,16.82,10.78,25.19,16.22l25.05,16.42L299,205.53l12.43,8.36,12.37,8.45-12.63-8.06-12.56-8.15-25.06-16.42L248.61,173.1C240.32,167.54,232,162,223.81,156.29Z" style="fill:#dbdbdb"></path><path d="M323.79,156.29c-8.23,5.67-16.51,11.25-24.8,16.81l-24.94,16.61L249,206.13l-12.57,8.15-12.62,8.06,12.37-8.45,12.42-8.36,24.94-16.6,25.06-16.42C307,167.07,315.35,161.64,323.79,156.29Z" style="fill:#dbdbdb"></path><rect x="302.79" y="206.36" width="46.7" height="204.65" transform="translate(17.45 634.82) rotate(-90)" style="fill:#fff"></rect><path d="M428.8,285.2v47H223.47v-47Zm-.68,46.7V285.46h-204V331.9Z" style="fill:#dbdbdb"></path><polygon points="428.59 331.91 428.34 332.15 223.68 285.45 223.93 285.21 428.59 331.91" style="fill:#dbdbdb"></polygon><polygon points="428.59 285.45 223.93 332.15 223.68 331.91 428.34 285.21 428.59 285.45" style="fill:#dbdbdb"></polygon></g><g id="freepik--Crane--inject-142"><rect x="116.29" y="126.25" width="31.14" height="3.03" transform="translate(-51.56 136.04) rotate(-46.68)" style="fill:#263238"></rect><rect x="121.18" y="138.53" width="21.88" height="3.03" style="fill:#455a64"></rect><rect x="121.18" y="114.92" width="21.88" height="3.03" style="fill:#455a64"></rect><rect x="130.34" y="112.2" width="3.03" height="31.14" transform="translate(-51.73 125.23) rotate(-43.31)" style="fill:#455a64"></rect><rect x="116.29" y="149.86" width="31.14" height="3.03" transform="translate(-68.74 143.45) rotate(-46.68)" style="fill:#263238"></rect><rect x="121.18" y="162.14" width="21.88" height="3.03" style="fill:#455a64"></rect><rect x="121.18" y="138.53" width="21.88" height="3.03" style="fill:#455a64"></rect><rect x="130.34" y="135.81" width="3.03" height="31.14" transform="translate(-67.93 131.66) rotate(-43.31)" style="fill:#455a64"></rect><rect x="116.29" y="173.47" width="31.14" height="3.03" transform="translate(-85.92 150.86) rotate(-46.68)" style="fill:#263238"></rect><rect x="121.18" y="185.75" width="21.88" height="3.03" style="fill:#455a64"></rect><rect x="121.18" y="162.14" width="21.88" height="3.03" style="fill:#455a64"></rect><rect x="130.34" y="159.42" width="3.03" height="31.14" transform="translate(-84.12 138.09) rotate(-43.31)" style="fill:#455a64"></rect><rect x="116.29" y="197.08" width="31.14" height="3.03" transform="translate(-103.09 158.27) rotate(-46.68)" style="fill:#263238"></rect><rect x="121.18" y="209.36" width="21.88" height="3.03" style="fill:#455a64"></rect><rect x="121.18" y="185.75" width="21.88" height="3.03" style="fill:#455a64"></rect><rect x="130.34" y="183.03" width="3.03" height="31.14" transform="translate(-100.31 144.52) rotate(-43.31)" style="fill:#455a64"></rect><rect x="116.29" y="220.69" width="31.14" height="3.03" transform="translate(-120.27 165.69) rotate(-46.68)" style="fill:#263238"></rect><rect x="121.18" y="232.97" width="21.88" height="3.03" style="fill:#455a64"></rect><rect x="121.18" y="209.36" width="21.88" height="3.03" style="fill:#455a64"></rect><rect x="130.34" y="206.63" width="3.03" height="31.14" transform="translate(-116.5 150.95) rotate(-43.31)" style="fill:#455a64"></rect><rect x="116.29" y="244.3" width="31.14" height="3.03" transform="translate(-137.44 173.1) rotate(-46.68)" style="fill:#263238"></rect><rect x="121.18" y="256.57" width="21.88" height="3.03" style="fill:#455a64"></rect><rect x="121.18" y="232.97" width="21.88" height="3.03" style="fill:#455a64"></rect><rect x="130.34" y="230.24" width="3.03" height="31.14" transform="translate(-132.7 157.38) rotate(-43.31)" style="fill:#455a64"></rect><rect x="116.29" y="267.9" width="31.14" height="3.03" transform="translate(-154.62 180.51) rotate(-46.68)" style="fill:#263238"></rect><rect x="121.18" y="280.18" width="21.88" height="3.03" style="fill:#455a64"></rect><rect x="121.18" y="256.57" width="21.88" height="3.03" style="fill:#455a64"></rect><rect x="130.34" y="253.85" width="3.03" height="31.14" transform="translate(-148.89 163.8) rotate(-43.31)" style="fill:#455a64"></rect><rect x="116.29" y="291.51" width="31.14" height="3.03" transform="translate(-171.79 187.91) rotate(-46.68)" style="fill:#263238"></rect><rect x="121.18" y="303.79" width="21.88" height="3.03" style="fill:#455a64"></rect><rect x="121.18" y="280.18" width="21.88" height="3.03" style="fill:#455a64"></rect><rect x="130.34" y="277.46" width="3.03" height="31.14" transform="translate(-165.08 170.23) rotate(-43.31)" style="fill:#455a64"></rect><rect x="116.29" y="315.12" width="31.14" height="3.03" transform="translate(-188.96 195.31) rotate(-46.68)" style="fill:#263238"></rect><rect x="121.18" y="327.4" width="21.88" height="3.03" style="fill:#455a64"></rect><rect x="121.18" y="303.79" width="21.88" height="3.03" style="fill:#455a64"></rect><rect x="130.34" y="301.07" width="3.03" height="31.14" transform="translate(-181.28 176.66) rotate(-43.31)" style="fill:#455a64"></rect><rect x="116.29" y="338.73" width="31.14" height="3.03" transform="translate(-206.19 202.86) rotate(-46.7)" style="fill:#263238"></rect><rect x="121.18" y="351.01" width="21.88" height="3.03" style="fill:#455a64"></rect><rect x="121.18" y="327.4" width="21.88" height="3.03" style="fill:#455a64"></rect><rect x="130.34" y="324.68" width="3.03" height="31.14" transform="translate(-197.47 183.1) rotate(-43.31)" style="fill:#455a64"></rect><rect x="116.29" y="362.34" width="31.14" height="3.03" transform="translate(-223.38 210.27) rotate(-46.7)" style="fill:#263238"></rect><rect x="121.18" y="374.62" width="21.88" height="3.03" style="fill:#455a64"></rect><rect x="121.18" y="351.01" width="21.88" height="3.03" style="fill:#455a64"></rect><rect x="130.34" y="348.28" width="3.03" height="31.14" transform="translate(-213.66 189.52) rotate(-43.31)" style="fill:#455a64"></rect><rect x="124.79" y="365.39" width="13.75" height="31.56" transform="translate(512.83 249.51) rotate(90)" style="fill:#455a64"></rect><rect x="-9.67" y="241.71" width="259" height="7.91" transform="translate(365.49 125.83) rotate(90)" style="fill:#455a64"></rect><rect x="13.98" y="241.71" width="259" height="7.91" transform="translate(389.15 102.18) rotate(90)" style="fill:#455a64"></rect><polygon points="355.33 114.31 331.69 91.01 132.15 53.83 71.51 91.19 69.92 88.6 131.56 50.63 333.15 88.2 357.46 112.14 355.33 114.31" style="fill:#455a64"></polygon><polygon points="156.21 94.28 131.91 60.5 108.65 94.23 103.65 90.78 131.8 49.96 161.14 90.73 156.21 94.28" style="fill:#263238"></polygon><rect x="318.2" y="89.91" width="3.03" height="31.14" transform="translate(23.67 265.79) rotate(-46.69)" style="fill:#263238"></rect><rect x="330.48" y="94.28" width="3.03" height="21.88" style="fill:#455a64"></rect><rect x="306.87" y="94.28" width="3.03" height="21.88" style="fill:#455a64"></rect><rect x="304.15" y="103.96" width="31.14" height="3.03" transform="translate(14.73 248.06) rotate(-43.31)" style="fill:#455a64"></rect><rect x="294.59" y="89.91" width="3.03" height="31.14" transform="translate(16.25 248.61) rotate(-46.69)" style="fill:#263238"></rect><rect x="306.87" y="94.28" width="3.03" height="21.88" style="fill:#455a64"></rect><rect x="283.26" y="94.28" width="3.03" height="21.88" style="fill:#455a64"></rect><rect x="280.54" y="103.96" width="31.14" height="3.03" transform="translate(8.3 231.87) rotate(-43.32)" style="fill:#455a64"></rect><rect x="270.98" y="89.91" width="3.03" height="31.14" transform="translate(8.83 231.43) rotate(-46.69)" style="fill:#263238"></rect><rect x="283.26" y="94.28" width="3.03" height="21.88" style="fill:#455a64"></rect><rect x="259.65" y="94.28" width="3.03" height="21.88" style="fill:#455a64"></rect><rect x="256.93" y="103.96" width="31.14" height="3.03" transform="translate(1.87 215.67) rotate(-43.32)" style="fill:#455a64"></rect><rect x="247.37" y="89.91" width="3.03" height="31.14" transform="translate(1.42 214.25) rotate(-46.69)" style="fill:#263238"></rect><rect x="259.65" y="94.28" width="3.03" height="21.88" style="fill:#455a64"></rect><rect x="236.04" y="94.28" width="3.03" height="21.88" style="fill:#455a64"></rect><rect x="233.32" y="103.96" width="31.14" height="3.03" transform="translate(-4.56 199.48) rotate(-43.32)" style="fill:#455a64"></rect><rect x="223.77" y="89.91" width="3.03" height="31.14" transform="translate(-6 197.07) rotate(-46.69)" style="fill:#263238"></rect><rect x="236.04" y="94.28" width="3.03" height="21.88" style="fill:#455a64"></rect><rect x="212.44" y="94.28" width="3.03" height="21.88" style="fill:#455a64"></rect><rect x="209.71" y="103.96" width="31.14" height="3.03" transform="translate(-10.99 183.29) rotate(-43.32)" style="fill:#455a64"></rect><rect x="200.16" y="89.91" width="3.03" height="31.14" transform="translate(-13.41 179.89) rotate(-46.69)" style="fill:#263238"></rect><rect x="212.44" y="94.28" width="3.03" height="21.88" style="fill:#455a64"></rect><rect x="188.83" y="94.28" width="3.03" height="21.88" style="fill:#455a64"></rect><rect x="186.1" y="103.96" width="31.14" height="3.03" transform="translate(-17.42 167.09) rotate(-43.32)" style="fill:#455a64"></rect><rect x="176.55" y="89.91" width="3.03" height="31.14" transform="translate(-20.83 162.71) rotate(-46.69)" style="fill:#263238"></rect><rect x="188.83" y="94.28" width="3.03" height="21.88" style="fill:#455a64"></rect><rect x="165.22" y="94.28" width="3.03" height="21.88" style="fill:#455a64"></rect><rect x="162.5" y="103.96" width="31.14" height="3.03" transform="translate(-23.85 150.9) rotate(-43.32)" style="fill:#455a64"></rect><rect x="152.94" y="89.91" width="3.03" height="31.14" transform="translate(-28.24 145.53) rotate(-46.69)" style="fill:#263238"></rect><rect x="165.22" y="94.28" width="3.03" height="21.88" style="fill:#455a64"></rect><rect x="141.61" y="94.28" width="3.03" height="21.88" style="fill:#455a64"></rect><rect x="138.89" y="103.96" width="31.14" height="3.03" transform="translate(-30.28 134.7) rotate(-43.32)" style="fill:#455a64"></rect><rect x="129.33" y="89.91" width="3.03" height="31.14" transform="translate(-35.66 128.35) rotate(-46.69)" style="fill:#263238"></rect><rect x="141.61" y="94.28" width="3.03" height="21.88" style="fill:#455a64"></rect><rect x="118" y="94.28" width="3.03" height="21.88" style="fill:#455a64"></rect><rect x="115.28" y="103.96" width="31.14" height="3.03" transform="translate(-36.72 118.5) rotate(-43.32)" style="fill:#455a64"></rect><rect x="105.72" y="89.91" width="3.03" height="31.14" transform="translate(-43.07 111.17) rotate(-46.69)" style="fill:#263238"></rect><rect x="118" y="94.28" width="3.03" height="21.88" style="fill:#455a64"></rect><rect x="94.39" y="94.28" width="3.03" height="21.88" style="fill:#455a64"></rect><rect x="91.67" y="103.96" width="31.14" height="3.03" transform="translate(-43.15 102.3) rotate(-43.32)" style="fill:#455a64"></rect><rect x="82.11" y="89.91" width="3.03" height="31.14" transform="matrix(0.69, -0.73, 0.73, 0.69, -50.49, 93.99)" style="fill:#263238"></rect><rect x="94.39" y="94.28" width="3.03" height="21.88" style="fill:#455a64"></rect><rect x="70.78" y="94.28" width="3.03" height="21.88" style="fill:#455a64"></rect><rect x="68.06" y="103.96" width="31.14" height="3.03" transform="translate(-49.58 86.11) rotate(-43.32)" style="fill:#455a64"></rect><rect x="56.16" y="88.55" width="13.73" height="31.56" style="fill:#263238"></rect><rect x="69.89" y="88.55" width="13.75" height="31.56" style="fill:#455a64"></rect><rect x="75.43" y="120.11" width="26.36" height="15.74" style="fill:#455a64"></rect><rect x="69.89" y="112.2" width="287.57" height="7.91" style="fill:#455a64"></rect><polygon points="341.05 96.46 69.89 96.46 69.89 88.55 333.32 88.55 341.05 96.46" style="fill:#455a64"></polygon><rect x="335.65" y="94.28" width="3.03" height="21.88" style="fill:#455a64"></rect><polygon points="227.92 206.13 246.92 203.09 265.92 200.15 303.96 194.42 304.06 194.41 304.16 194.43 367.46 210.85 399.1 219.14 430.7 227.54 398.97 219.63 367.27 211.6 303.91 195.39 304.11 195.4 266.03 200.89 246.99 203.56 227.92 206.13" style="fill:#263238"></polygon><rect x="289.38" y="123.34" width="3.03" height="44.8" style="fill:#263238"></rect><rect x="315.05" y="124.34" width="3.03" height="44.8" style="fill:#263238"></rect><rect x="283.94" y="120.11" width="40.01" height="6.45" style="fill:#455a64"></rect><path d="M305.46,175.67l-.34,6.73-1-1.16a10.78,10.78,0,0,1,3.06,1.32,7.21,7.21,0,0,1,2.4,2.36,6,6,0,0,1-.16,6.4,6.24,6.24,0,0,1-5.41,2.8,6.58,6.58,0,0,1-5-3,6.28,6.28,0,0,0,5,2.4,5.39,5.39,0,0,0,4.41-2.82,4.55,4.55,0,0,0-.3-4.81,7,7,0,0,0-4.41-2.33l-.92-.16-.05-1-.33-6.73Z" style="fill:#263238"></path><polygon points="323.95 161.87 323.95 172.85 303.94 177.6 283.94 172.85 283.94 161.87 323.95 161.87" style="fill:#455a64"></polygon><path d="M293.12,168.31a2.33,2.33,0,1,1-2.33-2.32A2.32,2.32,0,0,1,293.12,168.31Z" style="fill:#263238"></path><path d="M319.41,168.31a2.32,2.32,0,1,1-2.32-2.32A2.32,2.32,0,0,1,319.41,168.31Z" style="fill:#263238"></path><rect x="223.58" y="216.44" width="205.22" height="46.55" transform="translate(624.89 512.93) rotate(-173.86)" style="fill:#FFC727"></rect><polygon points="333.24 253.79 426.8 263.86 382.72 233.66 333.24 253.79" style="fill:#FFC727"></polygon><polygon points="333.24 253.79 426.8 263.86 382.72 233.66 333.24 253.79" style="opacity:0.2"></polygon><polygon points="287.17 248.86 370.14 257.79 330.42 236.94 287.17 248.86" style="fill:#FFC727"></polygon><polygon points="287.17 248.86 370.14 257.79 330.42 236.94 287.17 248.86" style="opacity:0.1"></polygon><rect x="221.63" y="252.86" width="205.22" height="10.03" transform="translate(29.43 -33.19) rotate(6.14)" style="fill:#FFC727"></rect><rect x="221.63" y="252.86" width="205.22" height="10.03" transform="translate(29.43 -33.19) rotate(6.14)" style="opacity:0.1"></rect><path d="M251.82,223.65a6.33,6.33,0,1,1-5.61-7A6.32,6.32,0,0,1,251.82,223.65Z" style="fill:#fff;opacity:0.6000000000000001"></path><path d="M137,52.23a5.12,5.12,0,1,1-5.12-5.12A5.12,5.12,0,0,1,137,52.23Z" style="fill:#a6a6a6"></path><path d="M134.25,52.23a2.4,2.4,0,1,1-2.39-2.39A2.39,2.39,0,0,1,134.25,52.23Z" style="fill:#455a64"></path><rect x="109.57" y="388.05" width="44.18" height="10.44" style="fill:#263238"></rect><rect x="99.99" y="398.49" width="63.34" height="20.48" style="fill:#455a64"></rect><path d="M157.35,138.37H110.07V86H141a10.78,10.78,0,0,1,10.69,9.36Z" style="fill:#FFC727"></path><path d="M144.48,122.47H122.32a2.07,2.07,0,0,1-.71-.11,2.5,2.5,0,0,1-1.78-2.39V92h15.76a7.49,7.49,0,0,1,1.58.15,8.54,8.54,0,0,1,3.31,1.32,8.38,8.38,0,0,1,1.84,1.67,8.76,8.76,0,0,1,2,4.49l2.66,20A2.52,2.52,0,0,1,144.48,122.47Z" style="fill:#263238"></path><g style="opacity:0.4"><path d="M142.1,107.88a2.44,2.44,0,0,1-.73,1.75l-12.83,12.84h-6.22a2.07,2.07,0,0,1-.71-.11l16.25-16.24a2.49,2.49,0,0,1,4.24,1.76Z" style="fill:#fff"></path><path d="M142.32,95.15l-22.49,22.48v-3.5l20.65-20.65A8.38,8.38,0,0,1,142.32,95.15Z" style="fill:#fff"></path><path d="M137.17,92.16,124.4,104.93a1.87,1.87,0,0,1-3.19-1.32,1.84,1.84,0,0,1,.55-1.3L132.06,92h3.53A7.49,7.49,0,0,1,137.17,92.16Z" style="fill:#fff"></path></g></g><g id="freepik--Character--inject-142"><path d="M561.89,447.37c2,.62,58.49-.59,60.61-2,.81-.53,1.11-8.78,1.2-18.74,0-2.15,0-4.37,0-6.63,0-2.68,0-5.38-.05-8-.15-11.8-.51-22.19-.51-22.19l-36.78.68.43,22.19.15,8,.32,6.62s-21.43,10.15-23.59,11.94S559.9,446.76,561.89,447.37Z" style="fill:#d3766a"></path><path d="M561.89,447.37c2,.62,58.49-.59,60.61-2,.81-.53,1.11-8.78,1.2-18.74,0-2.15,0-4.37,0-6.63,0-2.68,0-5.38-.05-8l-36.86.68.15,8,.32,6.62s-21.43,10.15-23.59,11.94S559.9,446.76,561.89,447.37Z" style="fill:#fff"></path><path d="M561.72,447.46c1.29.4,25.36,0,42.88-.65,4-.16,7.76-.34,10.75-.53,4.12-.26,6.88-.54,7.32-.83,1-.66,1.24-12.75,1.22-25.51l-37,.69.31,6.66s-21.54,10.19-23.72,12S559.73,446.83,561.72,447.46Z" style="fill:#FFC727"></path><path d="M562.48,445.17c9.52-.44,48-1.31,57.4-1,.08,0,.08,0,0,0-9.43.64-47.86,1.2-57.39,1.12C562.29,445.32,562.28,445.18,562.48,445.17Z" style="fill:#263238"></path><path d="M585.85,425.2c3.74-.78,8.33-.3,11.25,2.31.12.1,0,.26-.15.22a53.24,53.24,0,0,0-11.07-2.06A.24.24,0,0,1,585.85,425.2Z" style="fill:#263238"></path><path d="M583.18,426.89c3.74-.78,8.33-.3,11.25,2.31.12.1,0,.26-.15.22a52.59,52.59,0,0,0-11.07-2.06A.24.24,0,0,1,583.18,426.89Z" style="fill:#263238"></path><path d="M580.51,428.58c3.73-.78,8.33-.3,11.25,2.3.11.11,0,.26-.15.23a52.71,52.71,0,0,0-11.07-2.06A.24.24,0,0,1,580.51,428.58Z" style="fill:#263238"></path><path d="M577.84,430.27c3.73-.78,8.33-.31,11.25,2.3.11.1,0,.26-.15.23a52.71,52.71,0,0,0-11.07-2.06A.24.24,0,0,1,577.84,430.27Z" style="fill:#263238"></path><path d="M580.54,422c2.69,2,6.16,2.78,9.28,3.86.32.11.57-.2.58-.48.06,0,.11-.06.08-.14a19.88,19.88,0,0,0-6-8.46c-1.59-1.28-4.36-2.14-5.78-.08S579,420.81,580.54,422Zm-1-3c-.75-4.1,3.71-2,4.85-1a20.14,20.14,0,0,1,2,2.1c1.33,1.53,2.42,3.22,3.59,4.87-1.5-.63-3-1.12-4.56-1.69C583.61,422.56,579.93,421.25,579.52,419Z" style="fill:#263238"></path><path d="M602.87,419.24c-1-2.32-3.83-2.07-5.66-1.16a20,20,0,0,0-7.63,7,.1.1,0,0,0,.06.15c-.06.28.12.64.46.6,3.28-.39,6.83-.4,9.89-1.78C601.78,423.23,603.78,421.43,602.87,419.24Zm-7.92,5c-1.61.23-3.22.38-4.82.67a59,59,0,0,1,4.54-4,22,22,0,0,1,2.44-1.63c1.32-.72,6.12-1.79,4.51,2.06C600.74,423.45,596.86,423.94,595,424.21Z" style="fill:#263238"></path><path d="M590.63,447.26c4.76-.13,9.57-.28,14-.45,4-.16,7.76-.34,10.75-.53,4.11-.26,6.88-.54,7.32-.84.86-.57,1.17-9.91,1.21-20.79C615.5,430.25,599,441.52,590.63,447.26Z" style="opacity:0.2"></path><path d="M583.64,426.86l42,0s-2.3-94.49-1.85-96.69c1.08-5.26,25-88.56,25-88.56l-33.15.57-11.32.19s1,13.88.58,15.35c-5.54,20.21-16.35,54.72-18.56,67.51C582.45,347.44,583.64,426.86,583.64,426.86Z" style="fill:#263238"></path><path d="M585,419.84c6.54-.17,29.74-.86,38.47-.2.06,0,.06.11,0,.12-3,.49-31.92.35-38.47.26A.09.09,0,1,1,585,419.84Z" style="fill:#37474f"></path><path d="M620.47,328.12c1.25-5.11,10.6-36.93,13.46-47s5.54-20.14,8-30.29c.31-1.29.63-2.57,1-3.85,0-.11.19-.06.17.05-.94,5.11-2.19,10.17-3.39,15.23s-2.49,10.09-3.83,15.11q-4.07,15.14-8.87,30.06c-1.6,4.95-4.24,15.13-5.65,20.14s.89,87.3.75,88.64a.3.3,0,0,1-.6,0C621.31,406.53,619.23,333.17,620.47,328.12Z" style="fill:#37474f"></path><path d="M615.56,242.21s8.11,88.42,8.2,88c1-5.08,23.49-83.42,24.9-88.32l.06-.23Z" style="fill:#37474f"></path><path d="M605.42,452.21c2,.62,58.49-.59,60.62-2,.8-.53,1.11-8.77,1.19-18.74,0-2.15,0-4.37,0-6.63,0-2.67,0-5.38-.06-8-.15-11.8-.5-22.19-.5-22.19l-36.79.68.43,22.19.16,8,.31,6.63s-21.42,10.14-23.58,11.93S603.44,451.6,605.42,452.21Z" style="fill:#d3766a"></path><path d="M605.42,452.21c2,.62,58.49-.59,60.62-2,.8-.53,1.11-8.77,1.19-18.74,0-2.15,0-4.37,0-6.63,0-2.67,0-5.38-.06-8l-36.86.68.16,8,.31,6.63s-21.42,10.14-23.58,11.93S603.44,451.6,605.42,452.21Z" style="fill:#fff"></path><path d="M605.25,452.3c1.3.4,25.37,0,42.88-.65,4.06-.16,7.76-.34,10.75-.52,4.12-.27,6.88-.55,7.33-.84,1-.66,1.23-12.75,1.22-25.51l-37,.69.32,6.66s-21.54,10.2-23.72,12S603.26,451.67,605.25,452.3Z" style="fill:#FFC727"></path><path d="M606,450c9.52-.44,48-1.3,57.39-1,.08,0,.08.05,0,.06-9.42.64-47.86,1.19-57.39,1.11C605.82,450.17,605.82,450,606,450Z" style="fill:#263238"></path><path d="M629.39,430c3.73-.78,8.33-.3,11.25,2.31.11.1,0,.26-.16.23a52,52,0,0,0-11.07-2.06A.24.24,0,0,1,629.39,430Z" style="fill:#263238"></path><path d="M626.72,431.73c3.73-.78,8.33-.3,11.25,2.31.11.1,0,.26-.16.22a52.57,52.57,0,0,0-11.07-2.05A.24.24,0,0,1,626.72,431.73Z" style="fill:#263238"></path><path d="M624.05,433.42c3.73-.78,8.33-.3,11.25,2.31.11.1,0,.26-.16.22a53.24,53.24,0,0,0-11.07-2.06A.24.24,0,0,1,624.05,433.42Z" style="fill:#263238"></path><path d="M621.38,435.11c3.73-.78,8.33-.3,11.25,2.3.11.11,0,.27-.16.23a52.59,52.59,0,0,0-11.07-2.06A.24.24,0,0,1,621.38,435.11Z" style="fill:#263238"></path><path d="M624.07,426.83c2.7,2,6.17,2.77,9.29,3.85.32.11.57-.2.57-.48a.1.1,0,0,0,.09-.14,20,20,0,0,0-6-8.46c-1.59-1.28-4.35-2.13-5.78-.07S622.5,425.66,624.07,426.83Zm-1-3c-.75-4.1,3.71-2,4.84-1a22.47,22.47,0,0,1,2,2.1,58.57,58.57,0,0,1,3.58,4.87c-1.5-.63-3-1.12-4.56-1.68C627.15,427.4,623.47,426.09,623.06,423.83Z" style="fill:#263238"></path><path d="M646.41,424.08c-1-2.31-3.84-2.07-5.67-1.16a20,20,0,0,0-7.62,7,.1.1,0,0,0,0,.16c0,.28.12.63.46.59,3.28-.39,6.83-.4,9.89-1.78C645.31,428.07,647.31,426.28,646.41,424.08Zm-7.93,5c-1.61.23-3.21.38-4.81.67a59.29,59.29,0,0,1,4.54-4,21.38,21.38,0,0,1,2.43-1.62c1.33-.73,6.13-1.79,4.52,2.05C644.27,428.29,640.4,428.78,638.48,429.05Z" style="fill:#263238"></path><path d="M628.33,431.13l40.73-.75s-11.44-146.9-10-154.69c2.33-12.74.35-27.28-5.78-34.18l-39.69.73S613,253.39,617.21,260c0,0,3.77,2.28,5.59,3.29Z" style="fill:#263238"></path><path d="M629.45,423.9c6.18-.27,4.4-.28,10.58-.49,3-.1,22.89-.75,25.73-.34.06,0,.06.11,0,.12-2.81.54-22.69.84-25.71.88-6.19.09-4.41,0-10.59,0A.09.09,0,0,1,629.45,423.9Z" style="fill:#37474f"></path><path d="M614.7,258.23a76.37,76.37,0,0,1,11.28,6.4.13.13,0,0,1-.13.23c-3.81-2-7.71-4-11.41-6.19A.26.26,0,0,1,614.7,258.23Z" style="fill:#37474f"></path><path d="M619.74,257.56a17.42,17.42,0,0,1,.59,2.34,5.05,5.05,0,0,1,.15,1.89c0,.12-.19.11-.25,0a6.23,6.23,0,0,1-.65-1.89c-.2-.72-.42-1.44-.6-2.17A.39.39,0,0,1,619.74,257.56Z" style="fill:#37474f"></path><path d="M620,253.73c-.12-.66-.24-1.32-.37-2s-.32-1.37-.4-2.06c0-.1-.19-.07-.17,0,.12.66.14,1.35.21,2s.14,1.34.22,2c.15,1.25.38,2.5.65,3.73a4.34,4.34,0,0,1-1.83-.72,3.48,3.48,0,0,1-1-1.89c-.21-.76-.38-1.52-.6-2.27a14,14,0,0,1-.63-2.53c0-.11-.19-.07-.17,0a27.07,27.07,0,0,0,1.11,5.32c.24.69.4,1.38,1,1.75a5.59,5.59,0,0,0,2.23.62c.09.05.22,0,.21-.11C620.4,256.39,620.26,255,620,253.73Z" style="fill:#37474f"></path><path d="M652.59,275.3c.23-2.92.65-5.82.92-8.74a54.25,54.25,0,0,0-1.38-17.45c0-.11.14-.15.16-.05a64.84,64.84,0,0,1,1.84,15.31c-.15,5.15-1,10.24-1,15.4s.52,10.43,1,15.63.87,10.47,1.31,15.7c1.74,21,3.38,42.07,5.05,63.11.47,5.87.91,11.75,1.36,17.62s1.15,20.72,1.48,26.71c0,.52-.74.49-.8,0-1.09-10.54-2-29.91-2.83-40.48s-1.67-20.93-2.51-31.4-1.65-20.93-2.47-31.39c-.41-5.23-.8-10.47-1.2-15.7s-.88-10.43-1-15.65A77.27,77.27,0,0,1,652.59,275.3Z" style="fill:#37474f"></path><path d="M638.05,249a.08.08,0,0,1,.15,0,6.78,6.78,0,0,1,.42,2.13,14.77,14.77,0,0,0,.58,2.29,9.34,9.34,0,0,0,2.46,4c2.54,2.29,5.9,3.09,9.14,3.82.12,0,.08.19,0,.2a14.58,14.58,0,0,1-5.63-.77,11.74,11.74,0,0,1-4.39-2.35,8.09,8.09,0,0,1-2.42-4.21,14.69,14.69,0,0,1-.32-2.56c0-.41,0-.83,0-1.24A3.12,3.12,0,0,1,638.05,249Z" style="fill:#37474f"></path><path d="M622.46,188.05c-16.59,12.31-43.59,13.42-46.6,12-6.37-2.93-15.63-30.44-17.87-40.47-.64-2.9,20.35-2.18,22.45.2,1.92,2.17,6.54,21.18,8.47,21.46a244.51,244.51,0,0,0,28.93-.8C631.76,179,627.37,184.41,622.46,188.05Z" style="fill:#d3766a"></path><path d="M602,179.82l2.49,19.43s14.77-5.78,21.2-11.71,2.76-8.11-3.66-8.44S602,179.82,602,179.82Z" style="fill:#ebebeb"></path><path d="M605.19,180.43c0-.13.07-.18.09-.05a133,133,0,0,1,2.1,16.3s-.06,0-.07,0C606.63,194.06,605.41,181.83,605.19,180.43Z" style="fill:#263238"></path><path d="M661.24,254.32c-.14.16-58.9,1.41-59.44.82-.77-.84,8.71-59.77,18-72.63,2.32-3.21,10.66-5.42,14.13-2.17,10.08,9.41,12.2,17.35,14.84,23.82a191.53,191.53,0,0,1,6.45,21.39C658.78,239.39,661.71,253.76,661.24,254.32Z" style="fill:#ebebeb"></path><path d="M635,180.48s-8.65,19.74-10.07,24.78c-1.95,6.9-4.8,52.38-4.8,52.38l42-2.46s-8-45.47-17.15-61.61C637.8,180.87,635,180.48,635,180.48Z" style="fill:#FFC727"></path><path d="M621.33,181.43s-4.88,18-5.84,20.72S606,257.67,606,257.67l-5.18-1.93s5.83-36.56,11-55.18S621.33,181.43,621.33,181.43Z" style="fill:#FFC727"></path><path d="M621.32,239.85l37.62-.08c-.32-1.41-.65-2.89-1-4.42l-36.27.07C621.53,236.92,621.43,238.4,621.32,239.85Z" style="fill:#ebebeb"></path><path d="M603.54,239.88h5.38c.23-1.44.48-2.92.73-4.42h-5.31C604.06,237,603.79,238.46,603.54,239.88Z" style="fill:#ebebeb"></path><path d="M620.76,247.61l39.84-.08c-.28-1.34-.59-2.82-.93-4.41l-38.59.08C621,244.76,620.86,246.24,620.76,247.61Z" style="fill:#ebebeb"></path><path d="M602.18,247.65h5.47c.22-1.39.46-2.87.71-4.42l-5.42,0C602.67,244.82,602.41,246.3,602.18,247.65Z" style="fill:#ebebeb"></path><path d="M641.44,193.27c2.24,16.48-.91,39.41-4.66,42.08-10.7,7.61-29.11,11.66-36.94,12.57-4.56.53-6.45-22-2.42-22.69,6.36-1.06,21.58-4.29,23.74-5.26s6.34-16,10.28-26.91C635.72,181.21,640.36,185.29,641.44,193.27Z" style="fill:#d3766a"></path><path d="M602.46,226a43.2,43.2,0,0,1-9.28-8.44c-3-4-7.09-10.24-9.3-8.69-4.52,3.19,5.61,18.8,5.61,18.8s5.57,6.17,10.34,3.4A5.48,5.48,0,0,0,602.46,226Z" style="fill:#d3766a"></path><path d="M571.16,226.56a3.5,3.5,0,0,0,1.27,3.79,5.19,5.19,0,0,0-1.79,3.05c-.3,2.12,2.9,3.51,2.9,3.51a6.36,6.36,0,0,0-1.38,3.51c-.08,2.06,2.94,3.92,2.94,3.92a5.63,5.63,0,0,0,.74,3.86c2,3,7.5,2.86,11,2.81s13.39-3.49,15.34-4L602,224.56s-15.78-4.22-19.89-3.57C578.67,221.54,572,224,571.16,226.56Z" style="fill:#d3766a"></path><path d="M572.58,230c3.54-1.47,7.32-1.8,11.08-2.36.08,0,.1.12,0,.13-3.74.51-7.34,1.75-11,2.41A.1.1,0,0,1,572.58,230Z" style="fill:#263238"></path><path d="M573.61,236.61a10.15,10.15,0,0,1,2.57-.42c.93-.09,1.85-.17,2.77-.22,1.85-.12,3.71-.2,5.56-.22.08,0,.1.13,0,.13-1.85.12-3.69.27-5.53.47-.91.1-1.83.2-2.75.32a12.71,12.71,0,0,1-2.61.2A.14.14,0,0,1,573.61,236.61Z" style="fill:#263238"></path><path d="M575.18,244.34a6.83,6.83,0,0,1,2.34-.26l2.53-.13c1.69-.09,3.38-.18,5.06-.33.08,0,.1.13,0,.13-1.71.16-3.42.35-5.13.49l-2.52.2a6.58,6.58,0,0,1-2.3,0S575.15,244.35,575.18,244.34Z" style="fill:#263238"></path><path d="M625.24,208.82l19,5s.17-15.86-2.92-24-6.48-5.59-9.19.24S625.24,208.82,625.24,208.82Z" style="fill:#ebebeb"></path><path d="M627,206.1c-.13,0-.15-.12,0-.1a133.75,133.75,0,0,1,15.9,4.16s0,.08,0,.07C640.17,209.88,628.37,206.43,627,206.1Z" style="fill:#263238"></path><path d="M663.78,149.24a22.84,22.84,0,0,1,20,13.4L665.08,162l-4,10.05,3.25,10.3,18.71.67a22.86,22.86,0,1,1-19.28-33.75Z" style="fill:#455a64"></path><path d="M530.86,190.22a22.84,22.84,0,0,1-20-13.4l18.7.67,4-10-3.25-10.31-18.71-.67a22.86,22.86,0,1,1,19.27,33.75Z" style="fill:#455a64"></path><rect x="589.75" y="114.24" width="20.36" height="111.17" transform="translate(408.71 763.28) rotate(-87.95)" style="fill:#455a64"></rect><rect x="595.74" y="146.93" width="8.39" height="45.78" transform="translate(408.7 763.28) rotate(-87.94)" style="fill:#37474f"></rect><path d="M623.52,188.5c2.43.48,8.21-3.35,10.77-6.92.17-.24.11-3.06.19-6.48.06-2.07.17-4.38.43-6.48l-13.56,1.59a34.22,34.22,0,0,1,.29,8.22,5.29,5.29,0,0,1-.2.85s0,.09,0,.14C620.94,181,619.71,187.76,623.52,188.5Z" style="fill:#d3766a"></path><path d="M621.44,179.28a.43.43,0,0,1,0,.14,8.58,8.58,0,0,0,1.35.24c7.65.76,10.7-8.4,11.39-10.94l-12.8,1.49a34,34,0,0,1,.3,8.22A6.63,6.63,0,0,1,621.44,179.28Z" style="fill:#263238"></path><path d="M637.32,150.85c1.43,4.71-1.06,18.29-4.41,21.32-4.85,4.39-12.79,4.81-16.52-1-3.62-5.66-.06-23.31,3.68-26.06C625.58,141,635.2,143.9,637.32,150.85Z" style="fill:#d3766a"></path><path d="M626,159.22s.06.06,0,.09c-.24.9-.35,2,.41,2.46,0,0,0,.06,0,0C625.46,161.46,625.62,160,626,159.22Z" style="fill:#263238"></path><path d="M627,158.45c1.48.22.94,3.17-.43,3S625.76,158.27,627,158.45Z" style="fill:#263238"></path><path d="M620.27,158.1s-.08,0-.08.06c-.14.92-.46,2-1.34,2.11a0,0,0,0,0,0,0C619.89,160.36,620.29,159,620.27,158.1Z" style="fill:#263238"></path><path d="M619.63,157c-1.45-.38-2.11,2.55-.76,2.9S620.85,157.31,619.63,157Z" style="fill:#263238"></path><path d="M628.42,157.31a11.33,11.33,0,0,1-1.07-.61c-.41-.24-.76-.39-1-.83a.63.63,0,0,1,.24-.74,1.58,1.58,0,0,1,1.59.13,2.32,2.32,0,0,1,1.13,1.22A.68.68,0,0,1,628.42,157.31Z" style="fill:#263238"></path><path d="M618.81,155.65a10.18,10.18,0,0,0,1.23-.09,2,2,0,0,0,1.24-.33.63.63,0,0,0,.1-.77,1.57,1.57,0,0,0-1.49-.57,2.27,2.27,0,0,0-1.55.61A.68.68,0,0,0,618.81,155.65Z" style="fill:#263238"></path><path d="M624.49,167.84a1.4,1.4,0,0,1-.87.4,2.39,2.39,0,0,1-.94-.41s-.06,0,0,0a1.28,1.28,0,0,0,1.08.71,1,1,0,0,0,.86-.68C624.6,167.85,624.53,167.82,624.49,167.84Z" style="fill:#263238"></path><path d="M624,164.93a3.17,3.17,0,0,1-2.33,1,4,4,0,0,1-1.13-.15l-.21-.06-.2-.07a.24.24,0,0,1-.14-.24h0a.29.29,0,0,1,0-.09h0v-.08c.11-.7.38-1.76.38-1.76-.29.08-1.71.43-1.62.06a47.45,47.45,0,0,1,2.94-9.21.09.09,0,0,1,.16.06c-.6,2.92-1.7,5.72-2.35,8.65a5.44,5.44,0,0,1,1.55-.17c.1,0-.54,2-.57,2.36v0a4.4,4.4,0,0,0,3.41-.41C624,164.79,624.1,164.86,624,164.93Z" style="fill:#263238"></path><path d="M621.05,165.5a3.75,3.75,0,0,0,1.27,1.42,1.68,1.68,0,0,0,1,.24c.76,0,.91-.72.88-1.32a4.52,4.52,0,0,0-.17-.94A4.91,4.91,0,0,1,621.05,165.5Z" style="fill:#263238"></path><path d="M622.32,166.92a1.68,1.68,0,0,0,1,.24c.76,0,.91-.72.88-1.32A1.75,1.75,0,0,0,622.32,166.92Z" style="fill:#ff9bbc"></path><path d="M617.81,148.54c.2-.39.75-1.34,1.28-1.31s1,1.19,2.25,1.64c1.72.66,5-1,7.38-.12s3.62,3.34,3.7,7.72,3.18,8.19,4.41,5.43c0-.1.11-.28.23-.54.74-4.12.94-8.3.26-10.51-2.12-6.95-11.75-9.82-17.25-5.76A8.57,8.57,0,0,0,617.81,148.54Z" style="fill:#263238"></path><path d="M634.41,161.92s3.16-4.33,5.13-3.19-.47,7.46-2.83,8.28a2.37,2.37,0,0,1-3.16-1.34Z" style="fill:#d3766a"></path><path d="M638.8,160.53s0,.05,0,.06a6,6,0,0,0-3.19,3.7,1.31,1.31,0,0,1,2-.32s0,.1,0,.09a1.47,1.47,0,0,0-1.62.47,7.49,7.49,0,0,0-.8,1.29c-.08.15-.35.06-.29-.1l0,0C634.86,163.58,636.55,160.69,638.8,160.53Z" style="fill:#263238"></path><path d="M615.84,150.37s4-13.07,15.71-9.56,7.86,16.63,7.86,16.63Z" style="fill:#FFC727"></path><rect x="614.4" y="152.94" width="26.44" height="1.94" transform="translate(70.68 -173.84) rotate(16.7)" style="fill:#FFC727"></rect><polygon points="627.71 152.92 622.44 151.34 627.53 138.87 632.8 140.45 627.71 152.92" style="fill:#FFC727"></polygon><polygon points="627.71 152.92 622.44 151.34 627.53 138.87 632.8 140.45 627.71 152.92" style="opacity:0.1"></polygon><path d="M557.08,172.09c2.55,1.72,3.12-2.28,3.12-2.28s.57,6,3.9,6.71,3.72-4.14,3.76-4.48c0,.31.7,5.77,4.12,6.19s3.23-4.54,3.21-4.86c.13.29,1.84,4.06,4.51,3.79,4.58-.48.6-11.67,2.16-15.06l6.78-1.55a9.27,9.27,0,0,1-4.53-2.67c-1.82-1.84-3-3.07-4.55-3.58a3.38,3.38,0,0,0-3.87,1.15s-.87-3.16-3.55-3.57c-1.38-.21-2.94,1.81-2.94,1.81A4,4,0,0,0,566,151c-1.92-.18-3.19,1.88-3.19,1.88s-1.88-2-3.9-1.59C554.83,152.16,551.6,168.39,557.08,172.09Z" style="fill:#d3766a"></path><path d="M583.36,161.5l5.14-.94.54-.24c6-2.92,7.92-11.26,3.19-10.5-3.6.58-6.08,6.25-9.85,6.31h0Z" style="fill:#d3766a"></path><path d="M562.56,153.14a0,0,0,1,0-.08,0A28.73,28.73,0,0,0,560.15,170c0,.18.34.21.34,0A59,59,0,0,1,562.56,153.14Z" style="fill:#263238"></path><path d="M569.19,153.6c0-.06-.09-.09-.12,0a27,27,0,0,0-1.4,18.61c.07.22.35.34.29.09C567,168,567.7,158.74,569.19,153.6Z" style="fill:#263238"></path><path d="M575.48,173.76c-1.67-6-1.24-12,.09-18.1,0-.08-.09-.1-.13,0-1.46,2.8-1.9,6.76-2,9.87a16.57,16.57,0,0,0,1.81,8.33C575.32,173.92,575.52,173.89,575.48,173.76Z" style="fill:#263238"></path></g></svg>
