<svg xmlns="http://www.w3.org/2000/svg" viewBox="0 0 500 500"><g id="freepik--Microscope--inject-75"><path d="M169,456.15h10.28s2.47-37.81,25.35-39.69c12.11-1,23.27,7.63,32,17.32C228,424,212.75,411.4,198.2,411.4,176.29,411.39,169,456.15,169,456.15Z" style="fill:#263238"></path><polygon points="236.88 339.08 221.14 306.95 215.8 314.16 229.3 339.08 236.88 339.08" style="fill:#263238"></polygon><rect x="200.33" y="323.64" width="38.52" height="9.24" transform="translate(31.53 675.56) rotate(-117.78)" style="fill:#455a64"></rect><polygon points="224.49 347.46 219.59 346.13 204.8 318.72 206.53 313.38 224.49 347.46" style="fill:#37474f"></polygon><rect x="265.78" y="341.51" width="6.65" height="24.39" rx="1.13" transform="translate(658.47 568.01) rotate(156.09)" style="fill:#37474f"></rect><rect x="247.04" y="352.75" width="6.65" height="24.39" rx="1.13" transform="translate(627.08 597.23) rotate(156.11)" style="fill:#37474f"></rect><rect x="257.46" y="348.46" width="9.24" height="31.42" rx="1.57" transform="translate(649.2 590.97) rotate(156.11)" style="fill:#37474f"></rect><rect x="221.75" y="254.96" width="9.24" height="31.42" rx="1.57" transform="translate(542.99 426.41) rotate(156.1)" style="fill:#37474f"></rect><rect x="207.92" y="261.08" width="9.24" height="31.42" rx="1.57" transform="translate(518.97 443.8) rotate(156.11)" style="fill:#37474f"></rect><path d="M268.31,343.13l-33-68.89s-9.44.31-25.81,11.64l35.11,68.74A66,66,0,0,0,268.31,343.13Z" style="fill:#37474f"></path><path d="M238,360.37s31.17-9.18,39.74-17.61L275,336.61a84,84,0,0,0-39.75,17.61Z" style="fill:#455a64"></path><path d="M208.27,287.84s12.35-10.51,29.1-13.66l-2.86-6.09c-17.7-.31-29.1,13.67-29.1,13.67Z" style="fill:#455a64"></path><path d="M231.23,329.28s13.64-9,25.39-11.92a1.28,1.28,0,0,0,.65-1.79l-3.21-6.82a1.45,1.45,0,0,0-1.78-.64c-15.83,4-25.4,11.92-25.4,11.92a1.34,1.34,0,0,0-.64,1.79l3.2,6.82A1.34,1.34,0,0,0,231.23,329.28Z" style="fill:#455a64"></path><path d="M209.26,320.88l-2.47-1.1S172.38,335,174.14,376c1.17,27.18,21,46,21,46S171,390.89,180.06,362.1,209.26,320.88,209.26,320.88Z" style="fill:#455a64"></path><path d="M176.92,378.87c2,25.06,18.2,43.13,18.2,43.13l24.67,0c11.32-14.88,29.32-23.57,29.32-23.57L229.4,401.9l-1.76-.9-3.47-1.78s-5,7.64-12.51,7.47a11.5,11.5,0,0,1-4.45-1c-8.79-3.79-13.2-27.1-9.09-41s22.1-22.51,22.1-22.51l-11-21.27C189.62,329.68,175,353.81,176.92,378.87Z" style="fill:#37474f"></path><path d="M211.65,406.69s6.46,2.2,16-5.69l-3.47-1.78s-5,7.64-12.51,7.47Z" style="fill:#455a64"></path><path d="M179.29,456.16l73.56,0c-1.83-2.87-5-8-9.23-13.73l-.26-.37-.34-.45-.21-.28-.64-.83a2,2,0,0,0-.17-.23l-.69-.88c-.37-.48-.78-1-1.23-1.54-.32-.39-.63-.78-1-1.17-.5-.6-1-1.24-1.62-1.9-.29-.34-.58-.68-.9-1-8.69-9.69-19.85-18.32-32-17.32C181.76,418.35,179.29,456.16,179.29,456.16Z" style="fill:#455a64"></path><rect x="232.05" y="390.1" width="72.57" height="9.19" transform="translate(568.39 765.85) rotate(175.26)" style="fill:#263238"></rect><rect x="216.11" y="393.77" width="16.09" height="9.19" transform="translate(480.49 776.83) rotate(175.26)" style="fill:#37474f"></rect><path d="M238.34,450.13a2.49,2.49,0,1,0,2.49-2.49A2.49,2.49,0,0,0,238.34,450.13Z" style="fill:#263238"></path><path d="M186.63,450.1a2.49,2.49,0,1,0,2.49-2.48A2.49,2.49,0,0,0,186.63,450.1Z" style="fill:#263238"></path><path d="M207.15,424.5a2.49,2.49,0,1,0,2.5-2.49A2.5,2.5,0,0,0,207.15,424.5Z" style="fill:#263238"></path><path d="M226.36,290.9a2.49,2.49,0,1,0,2.49-2.49A2.48,2.48,0,0,0,226.36,290.9Z" style="fill:#263238"></path><path d="M247.89,336.6a2.49,2.49,0,1,0,2.49-2.49A2.49,2.49,0,0,0,247.89,336.6Z" style="fill:#263238"></path><path d="M202.3,337.45a2.49,2.49,0,1,0,2.49-2.49A2.5,2.5,0,0,0,202.3,337.45Z" style="fill:#263238"></path><path d="M220.89,409.41a2.49,2.49,0,1,0,2.49-2.49A2.48,2.48,0,0,0,220.89,409.41Z" style="fill:#263238"></path></g><g id="freepik--Floor--inject-75"><path d="M37.54,456.58c136.11-.61,288.81-.61,424.92,0-136.11.62-288.81.62-424.92,0Z" style="fill:#263238"></path></g><g id="freepik--flask-3--inject-75"><rect x="446.04" y="305.43" width="7" height="146.36" transform="translate(899.07 757.22) rotate(180)" style="fill:#263238"></rect><rect x="409.21" y="286.66" width="7" height="54.19" transform="translate(98.95 726.47) rotate(-90)" style="fill:#263238"></rect><rect x="439.8" y="306.84" width="6.23" height="13.84" transform="translate(885.84 627.52) rotate(180)" style="fill:#37474f"></rect><rect x="438.49" y="451.79" width="22.1" height="4.8" style="fill:#263238"></rect><g style="opacity:0.7000000000000001"><path d="M436.41,384.4A47.16,47.16,0,1,1,377,338.75l.13-38.18h-3.81v-7.5l32.31.07v7.49h-3.83l-.15,38.18A47.15,47.15,0,0,1,436.41,384.4Z" style="fill:#ebebeb"></path></g><g style="opacity:0.7000000000000001"><path d="M436.4,384.4a47.15,47.15,0,0,1-47.24,47.05h-1.23a49,49,0,0,1-7-.73,47.17,47.17,0,0,1-3.91-92l.13-38.17h-3.8v-7.5h32.31v7.57h-3.83l-.15,38.19A47.12,47.12,0,0,1,436.4,384.4Z" style="fill:#ebebeb"></path></g><path d="M428.12,388.2a39.07,39.07,0,0,1-77.74,0Z" style="fill:#FFC727"></path><path d="M419.32,388.2a3.55,3.55,0,1,1-3.54-3.55A3.53,3.53,0,0,1,419.32,388.2Z" style="fill:#FFC727"></path><path d="M371.37,354.6a3.55,3.55,0,1,1-3.55-3.55A3.55,3.55,0,0,1,371.37,354.6Z" style="fill:#FFC727"></path><path d="M410.58,381.93a2.29,2.29,0,1,1-2.28-2.28A2.28,2.28,0,0,1,410.58,381.93Z" style="fill:#FFC727"></path><path d="M380.33,367.3a2.29,2.29,0,1,1-2.28-2.28A2.28,2.28,0,0,1,380.33,367.3Z" style="fill:#FFC727"></path><path d="M398.82,333.63a2.29,2.29,0,1,1-2.28-2.29A2.29,2.29,0,0,1,398.82,333.63Z" style="fill:#FFC727"></path><path d="M398.93,358.15a1.75,1.75,0,1,1-1.75-1.75A1.75,1.75,0,0,1,398.93,358.15Z" style="fill:#FFC727"></path><path d="M361.08,384.22a1.75,1.75,0,1,1-1.75-1.75A1.75,1.75,0,0,1,361.08,384.22Z" style="fill:#FFC727"></path><path d="M367,382.77a.72.72,0,1,1-.71-.71A.71.71,0,0,1,367,382.77Z" style="fill:#FFC727"></path><path d="M420.76,376a.72.72,0,1,1-.72-.72A.72.72,0,0,1,420.76,376Z" style="fill:#FFC727"></path><g style="opacity:0.4"><path d="M374.31,394.74a3.55,3.55,0,1,1-3.55-3.55A3.55,3.55,0,0,1,374.31,394.74Z" style="fill:#fff"></path><path d="M382.62,404.62a2.29,2.29,0,1,1-2.29-2.28A2.28,2.28,0,0,1,382.62,404.62Z" style="fill:#fff"></path><path d="M416.58,398.29a1.76,1.76,0,1,1-1.75-1.75A1.76,1.76,0,0,1,416.58,398.29Z" style="fill:#fff"></path><path d="M365.43,405.74a1.75,1.75,0,1,1-1.75-1.75A1.75,1.75,0,0,1,365.43,405.74Z" style="fill:#fff"></path><path d="M412,402.43a.72.72,0,0,1-1.44,0,.72.72,0,0,1,1.44,0Z" style="fill:#fff"></path></g><path d="M358.32,385.4c0,20.8,12.75,39.36,29.61,46v0a49,49,0,0,1-7-.73h0c-4.71-1.95-30.51-12.71-30.51-45.3S380.89,340,380.89,340v-46.9H387v48.15C374.53,346.23,358.32,364.62,358.32,385.4Z" style="fill:#fff;opacity:0.6000000000000001"></path><g style="opacity:0.1"><path d="M436.4,384.4a47.15,47.15,0,0,1-47.24,47.05h-1.23a49,49,0,0,1-7-.73,47.08,47.08,0,0,1-9.55-2.78c31.59,0,54-17.1,54.05-42.53.05-21.27-10.42-38.56-30-43.88l.08-48.45h10.16v7.57h-3.83l-.15,38.19A47.12,47.12,0,0,1,436.4,384.4Z"></path></g><rect x="370.61" y="308.09" width="37.27" height="11.6" style="fill:#37474f"></rect></g><g id="freepik--flask-2--inject-75"><g style="opacity:0.7000000000000001"><path d="M358.25,455.63h-95.6s35.65-65,35.65-66V365.87h24.47v23.72C322.77,390.68,358.25,455.63,358.25,455.63Z" style="fill:#ebebeb"></path></g><path d="M298.57,379.3a11.44,11.44,0,0,1,2.72-.29,10.87,10.87,0,0,1,2.71.29,12.85,12.85,0,0,1-5.43,0Z" style="fill:#263238"></path><path d="M298.57,386.47a5.14,5.14,0,0,1,1.8-.29,4.92,4.92,0,0,1,1.8.29,5.73,5.73,0,0,1-3.6,0Z" style="fill:#263238"></path><path d="M298.57,384.08a5.14,5.14,0,0,1,1.8-.29,4.92,4.92,0,0,1,1.8.29,5.73,5.73,0,0,1-3.6,0Z" style="fill:#263238"></path><path d="M298.57,381.69a5.14,5.14,0,0,1,1.8-.29,4.92,4.92,0,0,1,1.8.29,5.73,5.73,0,0,1-3.6,0Z" style="fill:#263238"></path><path d="M298.57,376.91a5.14,5.14,0,0,1,1.8-.29,4.92,4.92,0,0,1,1.8.29,5.73,5.73,0,0,1-3.6,0Z" style="fill:#263238"></path><path d="M298.57,374.52a5.14,5.14,0,0,1,1.8-.29,4.92,4.92,0,0,1,1.8.29,5.73,5.73,0,0,1-3.6,0Z" style="fill:#263238"></path><path d="M298.57,372.13a5.14,5.14,0,0,1,1.8-.29,4.92,4.92,0,0,1,1.8.29,5.73,5.73,0,0,1-3.6,0Z" style="fill:#263238"></path><path d="M348.83,450.79H272.06S278,440,284.44,428.14H336.5C342.93,440,348.83,450.79,348.83,450.79Z" style="fill:#FFC727"></path><path d="M310.45,428.14a3.43,3.43,0,1,1-3.43-3.43A3.43,3.43,0,0,1,310.45,428.14Z" style="fill:#FFC727"></path><path d="M320,359.54a3.43,3.43,0,1,1-3.42-3.42A3.43,3.43,0,0,1,320,359.54Z" style="fill:#FFC727"></path><path d="M298.25,405.78a2.21,2.21,0,1,1-2.21-2.2A2.21,2.21,0,0,1,298.25,405.78Z" style="fill:#FFC727"></path><path d="M330,415.92a2.21,2.21,0,1,1-2.21-2.21A2.21,2.21,0,0,1,330,415.92Z" style="fill:#FFC727"></path><path d="M314.05,386a2.21,2.21,0,1,1-2.21-2.2A2.21,2.21,0,0,1,314.05,386Z" style="fill:#FFC727"></path><path d="M318.65,392.27a1.69,1.69,0,1,1-1.69-1.69A1.69,1.69,0,0,1,318.65,392.27Z" style="fill:#FFC727"></path><path d="M314.05,422.1a1.69,1.69,0,1,1-1.69-1.69A1.69,1.69,0,0,1,314.05,422.1Z" style="fill:#FFC727"></path><g style="opacity:0.4"><path d="M298.25,435.93a3.43,3.43,0,1,1-3.42-3.42A3.42,3.42,0,0,1,298.25,435.93Z" style="fill:#fff"></path><path d="M307.42,445.87a2.21,2.21,0,1,1-2.21-2.21A2.21,2.21,0,0,1,307.42,445.87Z" style="fill:#fff"></path><path d="M340.85,445.63a2.21,2.21,0,1,1-2.21-2.21A2.2,2.2,0,0,1,340.85,445.63Z" style="fill:#fff"></path><path d="M327.82,433.63a1.69,1.69,0,1,1-1.69-1.69A1.69,1.69,0,0,1,327.82,433.63Z" style="fill:#fff"></path><path d="M331.34,436.63a.69.69,0,1,1-.69-.69A.69.69,0,0,1,331.34,436.63Z" style="fill:#fff"></path><path d="M291,440.61a.7.7,0,1,1-.69-.69A.69.69,0,0,1,291,440.61Z" style="fill:#fff"></path></g><path d="M332.88,420.41a.7.7,0,1,1-.7-.7A.69.69,0,0,1,332.88,420.41Z" style="fill:#FFC727"></path><path d="M306.46,349.87a.69.69,0,1,1-.69-.69A.69.69,0,0,1,306.46,349.87Z" style="fill:#FFC727"></path><polygon points="274.5 455.63 281.79 455.63 308.42 389.62 308.42 365.87 302.73 365.87 302.87 389.7 274.5 455.63" style="fill:#fff;opacity:0.6000000000000001"></polygon><g style="opacity:0.1"><path d="M358.25,455.63H335.41l-17.68-66-.12-23.72h5.16v23.72C322.77,390.68,358.25,455.63,358.25,455.63Z"></path></g></g><g id="freepik--flasks-1--inject-75"><path d="M88.08,275.74H84.51V169.37a5.76,5.76,0,0,1,5.75-5.75H137a5.76,5.76,0,0,1,5.75,5.75v2.41h-3.57v-2.41a2.18,2.18,0,0,0-2.18-2.18H90.26a2.18,2.18,0,0,0-2.18,2.18Z" style="fill:#37474f"></path><path d="M183.06,202.46H151.49v-3.57h31.57a2.19,2.19,0,0,0,2.18-2.18V163.6a5.76,5.76,0,0,1,5.75-5.75h41.57a5.76,5.76,0,0,1,5.75,5.75v1.23h-3.57V163.6a2.19,2.19,0,0,0-2.18-2.18H191a2.18,2.18,0,0,0-2.18,2.18v33.11A5.76,5.76,0,0,1,183.06,202.46Z" style="fill:#37474f"></path><path d="M312.41,195.09h-3.57V192a2.18,2.18,0,0,0-2.18-2.18H245.18v-3.57h61.48a5.76,5.76,0,0,1,5.75,5.75Z" style="fill:#37474f"></path><path d="M330.49,226.64H316.92v-3.57h13.57a2.18,2.18,0,0,0,2.18-2.18V72.62a5.76,5.76,0,0,1,5.75-5.75h19.09a5.76,5.76,0,0,1,5.75,5.75v2.89h-3.57V72.62a2.18,2.18,0,0,0-2.18-2.18H338.42a2.19,2.19,0,0,0-2.18,2.18V220.89A5.76,5.76,0,0,1,330.49,226.64Z" style="fill:#37474f"></path><path d="M391,260.86h-3.57v-6.22a2.75,2.75,0,0,1,1.55-2.49l9.14-4.48-18.66-5.83a2.77,2.77,0,0,1,.06-5.31l17.1-4.92-17-5.13a2.77,2.77,0,0,1,.08-5.33l17.41-4.75-17.86-6.66a2.77,2.77,0,0,1,.33-5.29l17-4.09-17.41-6.1a2.77,2.77,0,0,1,.16-5.28l17.4-5-16.39-5.23a2.78,2.78,0,0,1,0-5.28l18.66-6.13-11.58-8.25V105.55a2.19,2.19,0,0,0-2.18-2.18H366.16V99.8h19.13a5.76,5.76,0,0,1,5.75,5.75v51.74l11.37,8.09a2.77,2.77,0,0,1-.74,4.89l-17.83,5.87,16.56,5.29a2.78,2.78,0,0,1-.09,5.31l-17.52,5,17.6,6.16a2.77,2.77,0,0,1-.27,5.31L383,207.31l17.73,6.62a2.77,2.77,0,0,1-.24,5.27l-17.13,4.67L400.28,229a2.77,2.77,0,0,1,0,5.31l-17.14,4.94,18,5.63a2.77,2.77,0,0,1,.4,5.13L391,255.14Z" style="fill:#37474f"></path><rect x="46.96" y="290.12" width="7" height="161.67" style="fill:#263238"></rect><rect x="81.37" y="273.78" width="7" height="49.34" transform="translate(-213.58 383.32) rotate(-90)" style="fill:#263238"></rect><rect x="53.96" y="291.53" width="6.23" height="13.84" style="fill:#37474f"></rect><rect x="39.42" y="451.79" width="22.1" height="4.8" style="fill:#263238"></rect><rect x="325.86" y="100.67" width="3.57" height="10.03" transform="translate(433.32 -221.96) rotate(90)" style="fill:#37474f"></rect><path d="M327.8,105.69a15.87,15.87,0,1,1-15.87-15.87A15.87,15.87,0,0,1,327.8,105.69Z" style="fill:#fff"></path><path d="M327.8,105.69c.29,8.44-7.12,16.28-15.87,16.41a16.51,16.51,0,0,1-11.88-4.53,16.44,16.44,0,0,1,0-23.77,16.5,16.5,0,0,1,11.88-4.54C320.69,89.4,328.09,97.24,327.8,105.69Zm0,0A15.82,15.82,0,0,0,323,94.58a15.39,15.39,0,0,0-11.11-4.21c-8.16.14-15,7.46-14.77,15.32-.27,7.85,6.6,15.18,14.77,15.32A15.39,15.39,0,0,0,323,116.8,15.85,15.85,0,0,0,327.8,105.69Z" style="fill:#263238"></path><path d="M311.93,105.69l-11.78-6.08a13.26,13.26,0,0,1,23.59,0Z" style="fill:#FFC727"></path><path d="M315.19,105.69a3.26,3.26,0,1,1-3.26-3.26A3.26,3.26,0,0,1,315.19,105.69Z" style="fill:#263238"></path><polygon points="312.95 104.22 311.77 105.28 304.88 96.49 312.95 104.22" style="fill:#263238"></polygon><path d="M140.92,181.45a6,6,0,1,1,6-6A6,6,0,0,1,140.92,181.45Zm0-8.95a2.95,2.95,0,1,0,3,2.95A2.95,2.95,0,0,0,140.92,172.5Z" style="fill:#37474f"></path><rect x="140.16" y="170.97" width="1.53" height="8.95" style="fill:#37474f"></rect><rect x="136.45" y="174.68" width="8.95" height="1.53" style="fill:#37474f"></rect><path d="M236.52,175.86a6,6,0,1,1,6-6A6,6,0,0,1,236.52,175.86Zm0-9a2.95,2.95,0,1,0,2.95,2.94A2.94,2.94,0,0,0,236.52,166.91Z" style="fill:#37474f"></path><rect x="235.76" y="165.38" width="1.53" height="8.95" style="fill:#37474f"></rect><rect x="232.05" y="169.09" width="8.95" height="1.53" style="fill:#37474f"></rect><path d="M310.42,205.57a6,6,0,1,1,6-6A6,6,0,0,1,310.42,205.57Zm0-8.95a2.95,2.95,0,1,0,2.94,2.94A2.95,2.95,0,0,0,310.42,196.62Z" style="fill:#37474f"></path><rect x="309.65" y="195.09" width="1.53" height="8.95" style="fill:#37474f"></rect><rect x="305.94" y="198.8" width="8.95" height="1.53" style="fill:#37474f"></rect><path d="M361.3,85.76a6,6,0,1,1,6-6A6,6,0,0,1,361.3,85.76Zm0-9a2.95,2.95,0,1,0,2.94,3A2.95,2.95,0,0,0,361.3,76.81Z" style="fill:#263238"></path><rect x="360.53" y="75.28" width="1.53" height="8.95" style="fill:#263238"></rect><rect x="356.82" y="78.99" width="8.95" height="1.53" style="fill:#263238"></rect><g style="opacity:0.7000000000000001"><path d="M181.78,263.26H99.31s30.76-56.07,30.76-57V185.83h21.1v20.46C151.17,207.23,181.78,263.26,181.78,263.26Z" style="fill:#ebebeb"></path></g><path d="M130.3,197.41a11.12,11.12,0,0,1,4.69,0,10.71,10.71,0,0,1-4.69,0Z" style="fill:#263238"></path><path d="M130.3,203.6a5,5,0,0,1,3.11,0,5,5,0,0,1-3.11,0Z" style="fill:#263238"></path><path d="M130.3,201.54a5,5,0,0,1,3.11,0,5,5,0,0,1-3.11,0Z" style="fill:#263238"></path><path d="M130.3,199.48a5,5,0,0,1,3.11,0,4.47,4.47,0,0,1-1.56.25A4.7,4.7,0,0,1,130.3,199.48Z" style="fill:#263238"></path><path d="M130.3,195.35a5,5,0,0,1,3.11,0,4.25,4.25,0,0,1-1.56.25A4.45,4.45,0,0,1,130.3,195.35Z" style="fill:#263238"></path><path d="M130.3,193.29a5,5,0,0,1,3.11,0,5,5,0,0,1-3.11,0Z" style="fill:#263238"></path><path d="M130.3,191.23a5,5,0,0,1,3.11,0,5,5,0,0,1-3.11,0Z" style="fill:#263238"></path><path d="M173.65,259.09H107.43s5.11-9.32,10.67-19.54H163C168.57,249.77,173.65,259.09,173.65,259.09Z" style="fill:#455a64"></path><path d="M140.54,239.55a3,3,0,1,1-2.95-3A2.95,2.95,0,0,1,140.54,239.55Z" style="fill:#455a64"></path><path d="M130,220.27a1.91,1.91,0,1,1-1.9-1.91A1.9,1.9,0,0,1,130,220.27Z" style="fill:#455a64"></path><path d="M157.37,229a1.91,1.91,0,1,1-1.9-1.9A1.91,1.91,0,0,1,157.37,229Z" style="fill:#455a64"></path><path d="M143.65,203.19a1.91,1.91,0,1,1-1.9-1.9A1.9,1.9,0,0,1,143.65,203.19Z" style="fill:#455a64"></path><circle cx="146.16" cy="208.61" r="1.46" style="fill:#455a64"></circle><circle cx="142.19" cy="234.34" r="1.46" style="fill:#455a64"></circle><g style="opacity:0.4"><path d="M159.32,246.28a3,3,0,1,0,3-3A2.95,2.95,0,0,0,159.32,246.28Z" style="fill:#fff"></path><path d="M151.4,254.84a1.91,1.91,0,1,0,1.91-1.9A1.91,1.91,0,0,0,151.4,254.84Z" style="fill:#fff"></path><path d="M122.57,254.64a1.91,1.91,0,1,0,1.91-1.91A1.9,1.9,0,0,0,122.57,254.64Z" style="fill:#fff"></path><path d="M133.81,244.29a1.46,1.46,0,1,0,1.46-1.46A1.46,1.46,0,0,0,133.81,244.29Z" style="fill:#fff"></path><path d="M130.77,246.87a.6.6,0,0,0,1.2,0,.6.6,0,0,0-1.2,0Z" style="fill:#fff"></path><path d="M165.58,250.31a.59.59,0,0,0,.59.6.6.6,0,0,0,0-1.2A.59.59,0,0,0,165.58,250.31Z" style="fill:#fff"></path></g><path d="M159.89,232.88a.59.59,0,0,1-.59.6.6.6,0,1,1,0-1.2A.59.59,0,0,1,159.89,232.88Z" style="fill:#455a64"></path><polygon points="109.54 263.26 115.82 263.26 138.79 206.32 138.79 185.83 133.89 185.83 134 206.39 109.54 263.26" style="fill:#fff;opacity:0.6000000000000001"></polygon><g style="opacity:0.1"><path d="M181.78,263.26h-19.7l-15.25-57-.1-20.46h4.44v20.46C151.17,207.23,181.78,263.26,181.78,263.26Z"></path></g><g style="opacity:0.7000000000000001"><path d="M271.22,233.66a34.57,34.57,0,0,1-1.6,10.38H203.44a34.31,34.31,0,0,1-1.61-10.53,34.67,34.67,0,0,1,25.69-33.44l.1-17.62h-2.81v-5.52h23.78v5.57h-2.82l-.12,17.62a34.58,34.58,0,0,1,4.43,1.54,34,34,0,0,1,4.61,2.37c.56.35,1.11.71,1.64,1.1a30.63,30.63,0,0,1,3.88,3.12c.37.33.7.67,1,1,.62.62,1.22,1.27,1.79,1.94.37.44.73.88,1.05,1.33.53.68,1,1.38,1.5,2.09q.39.6.75,1.2a34.68,34.68,0,0,1,2.38,4.81,4.62,4.62,0,0,1,.19.47c.3.78.58,1.59.83,2.42.14.46.28.93.39,1.39s.24.94.34,1.41A35.49,35.49,0,0,1,271.22,233.66Z" style="fill:#ebebeb"></path></g><path d="M258.65,224.33a2.61,2.61,0,1,1-2.61-2.61A2.61,2.61,0,0,1,258.65,224.33Z" style="fill:#FFC727"></path><path d="M230,214.79a2.61,2.61,0,1,1-2.61-2.61A2.61,2.61,0,0,1,230,214.79Z" style="fill:#FFC727"></path><path d="M252.22,219.72a1.69,1.69,0,1,1-3.37,0,1.69,1.69,0,0,1,3.37,0Z" style="fill:#FFC727"></path><path d="M233.73,207.68a1.69,1.69,0,0,1-3.37,0,1.69,1.69,0,1,1,3.37,0Z" style="fill:#FFC727"></path><path d="M256,210a1.29,1.29,0,1,1-1.28-1.28A1.28,1.28,0,0,1,256,210Z" style="fill:#FFC727"></path><path d="M215.8,221.41a1.29,1.29,0,1,1-1.29-1.29A1.28,1.28,0,0,1,215.8,221.41Z" style="fill:#FFC727"></path><path d="M220.13,220.34a.53.53,0,0,1-.53.53.53.53,0,0,1,0-1.06A.53.53,0,0,1,220.13,220.34Z" style="fill:#FFC727"></path><path d="M259.7,215.32a.53.53,0,0,1-.53.53.53.53,0,0,1,0-1.06A.53.53,0,0,1,259.7,215.32Z" style="fill:#FFC727"></path><path d="M265.84,234.08a28.6,28.6,0,0,1-.73,6.45H207.93a29.27,29.27,0,0,1,.94-16.17h55.3A28.68,28.68,0,0,1,265.84,234.08Z" style="fill:#FFC727"></path><g style="opacity:0.4"><path d="M211.9,229.6a2.61,2.61,0,1,0,2.61-2.6A2.61,2.61,0,0,0,211.9,229.6Z" style="fill:#fff"></path><path d="M241.4,236.88a1.69,1.69,0,1,0,1.68-1.68A1.68,1.68,0,0,0,241.4,236.88Z" style="fill:#fff"></path><path d="M226.06,230.93a1.29,1.29,0,1,0,1.29-1.29A1.29,1.29,0,0,0,226.06,230.93Z" style="fill:#fff"></path><path d="M257.36,231.65a1.29,1.29,0,1,0,1.29-1.29A1.28,1.28,0,0,0,257.36,231.65Z" style="fill:#fff"></path><path d="M219.77,235.26a.53.53,0,1,0,.53-.53A.53.53,0,0,0,219.77,235.26Z" style="fill:#fff"></path></g><path d="M234.84,176.94v25c-7.08,2.83-15.8,11.56-19.39,22.44a25.12,25.12,0,0,0-.76,2.66,29.18,29.18,0,0,0-.82,5.13,21.13,21.13,0,0,0-.1,2.26,36.66,36.66,0,0,0,.51,6.13A34.18,34.18,0,0,0,215,244h-5.95a30.69,30.69,0,0,1-.7-3.51,40.88,40.88,0,0,1-.45-6.13,34.64,34.64,0,0,1,1.43-10.05c4.93-16.62,21-23.36,21-23.36V176.94Z" style="fill:#fff;opacity:0.6000000000000001"></path><g style="opacity:0.1"><path d="M271.22,233.66a34.57,34.57,0,0,1-1.6,10.38H261.5a24.64,24.64,0,0,0,1-3.51,28.51,28.51,0,0,0,.65-6.13A41.45,41.45,0,0,0,262,224.35a31.81,31.81,0,0,0-6.58-13.28c-.55-.64-1.12-1.26-1.72-1.84a28.49,28.49,0,0,0-12.64-7.12l.06-25.18h7.48v5.57h-2.82l-.12,17.62a34.58,34.58,0,0,1,4.43,1.54,33.4,33.4,0,0,1,4.61,2.37c.56.35,1.11.71,1.64,1.1a30.63,30.63,0,0,1,3.88,3.12c.37.33.7.67,1,1,.63.62,1.23,1.27,1.79,1.94.37.44.73.88,1.05,1.33.54.67,1,1.37,1.5,2.09q.39.6.75,1.2a32.58,32.58,0,0,1,2.38,4.81,4.62,4.62,0,0,1,.19.47c.31.78.58,1.59.83,2.42.14.46.28.93.39,1.39s.24.94.34,1.41A35.49,35.49,0,0,1,271.22,233.66Z"></path></g><g style="opacity:0.7000000000000001"><path d="M131.56,353.65a45.35,45.35,0,1,1-57.13-43.9L74.56,283H70.9v-7.2H102V283H98.3l-.15,26.8A45.33,45.33,0,0,1,131.56,353.65Z" style="fill:#ebebeb"></path></g><g style="opacity:0.7000000000000001"><path d="M131.55,353.66a45.34,45.34,0,0,1-45.43,45.25l-1.18,0a46.49,46.49,0,0,1-6.74-.69,45.36,45.36,0,0,1-3.77-88.45L74.56,283H70.9v-7.22H102V283H98.3l-.15,26.8A45.31,45.31,0,0,1,131.55,353.66Z" style="fill:#ebebeb"></path></g><path d="M123.59,357.31a37.58,37.58,0,0,1-74.76,0Z" style="fill:#FFC727"></path><path d="M91.76,357.31a3.41,3.41,0,1,1-3.41-3.41A3.41,3.41,0,0,1,91.76,357.31Z" style="fill:#FFC727"></path><path d="M105.74,322.77a3.42,3.42,0,1,1-3.41-3.41A3.42,3.42,0,0,1,105.74,322.77Z" style="fill:#FFC727"></path><path d="M106.72,351.28a2.2,2.2,0,1,1-2.2-2.19A2.19,2.19,0,0,1,106.72,351.28Z" style="fill:#FFC727"></path><path d="M66.51,340.45a2.2,2.2,0,1,1-2.2-2.2A2.2,2.2,0,0,1,66.51,340.45Z" style="fill:#FFC727"></path><path d="M78.34,313.68a2.2,2.2,0,1,1-2.2-2.2A2.2,2.2,0,0,1,78.34,313.68Z" style="fill:#FFC727"></path><path d="M95.52,328.41a1.69,1.69,0,1,1-3.37,0,1.69,1.69,0,0,1,3.37,0Z" style="fill:#FFC727"></path><path d="M59.12,353.48a1.69,1.69,0,1,1-3.37,0,1.69,1.69,0,0,1,3.37,0Z" style="fill:#FFC727"></path><path d="M64.78,352.09a.69.69,0,1,1-.69-.69A.69.69,0,0,1,64.78,352.09Z" style="fill:#FFC727"></path><path d="M116.51,345.53a.69.69,0,1,1-.69-.69A.69.69,0,0,1,116.51,345.53Z" style="fill:#FFC727"></path><g style="opacity:0.4"><path d="M87.31,383.45A3.41,3.41,0,1,0,90.72,380,3.41,3.41,0,0,0,87.31,383.45Z" style="fill:#fff"></path><path d="M92.59,373.11a2.2,2.2,0,1,0,2.2-2.2A2.2,2.2,0,0,0,92.59,373.11Z" style="fill:#fff"></path><path d="M59.93,367a1.69,1.69,0,1,0,1.68-1.68A1.69,1.69,0,0,0,59.93,367Z" style="fill:#fff"></path><path d="M109.12,374.18a1.69,1.69,0,1,0,1.68-1.68A1.68,1.68,0,0,0,109.12,374.18Z" style="fill:#fff"></path><path d="M64.31,371a.69.69,0,1,0,.69-.69A.69.69,0,0,0,64.31,371Z" style="fill:#fff"></path></g><path d="M56.46,354.62c0,20,12.26,37.85,28.48,44.26h0a46.49,46.49,0,0,1-6.74-.69h0c-4.52-1.88-29.33-12.23-29.33-43.57S78.16,311,78.16,311V275.74H84v36.41C72.05,317,56.46,334.63,56.46,354.62Z" style="fill:#fff;opacity:0.6000000000000001"></path><g style="opacity:0.1"><path d="M131.55,353.66a45.34,45.34,0,0,1-45.43,45.25l-1.18,0a46.49,46.49,0,0,1-6.74-.69A45.85,45.85,0,0,1,69,395.52c30.39,0,51.93-16.44,52-40.9.05-20.45-10-37.08-28.86-42.2l.17-36.68H102V283H98.3l-.15,26.8A45.31,45.31,0,0,1,131.55,353.66Z"></path></g><path d="M86.3,182.78A10.17,10.17,0,0,0,76.13,193v36.17a10.17,10.17,0,0,0,20.34,0V193A10.18,10.18,0,0,0,86.3,182.78Z" style="fill:#fff"></path><path d="M86.3,239.92a10.82,10.82,0,0,1-10.81-10.8V193a10.81,10.81,0,0,1,21.61,0v36.17A10.82,10.82,0,0,1,86.3,239.92Zm0-56.51A9.55,9.55,0,0,0,76.76,193v36.17a9.54,9.54,0,1,0,19.07,0V193A9.54,9.54,0,0,0,86.3,183.41Z" style="fill:#263238"></path><circle cx="86.3" cy="228.88" r="3.89" style="fill:#FFC727"></circle><rect x="84.88" y="189.3" width="2.83" height="38.92" rx="1.29" style="fill:#dbdbdb"></rect><rect x="84.88" y="202.6" width="2.83" height="25.61" style="fill:#FFC727"></rect><path d="M389.25,286.57c-8.83,0,0-17.77,0-17.77S398.1,286.57,389.25,286.57Z" style="fill:#FFC727"></path><rect x="139.33" y="375.22" width="4.14" height="80.91" style="fill:#263238"></rect><rect x="143.47" y="450.46" width="88.39" height="5.67" style="fill:#263238"></rect><path d="M173.68,369.85l-.3,67.73a8,8,0,0,1-16-.07l.3-67.73Z" style="fill:#ebebeb;opacity:0.7000000000000001"></path><g style="opacity:0.7000000000000001"><path d="M172.67,389.44l-.22,48.09a7.06,7.06,0,1,1-14.12-.06l.21-48.09Z" style="fill:#FFC727"></path></g><path d="M168.54,444.85a6.18,6.18,0,0,1-2.53.54c-3.86,0-7-3.61-7-8l.27-67.59,5,0-.27,67.56A8,8,0,0,0,168.54,444.85Z" style="fill:#fff;opacity:0.4"></path><rect x="155.61" y="363.8" width="19.86" height="10.62" style="fill:#FFC727"></rect><g style="opacity:0.1"><rect x="156.94" y="365.29" width="0.65" height="7.64" transform="translate(314.53 738.23) rotate(180)"></rect><rect x="158.78" y="365.29" width="0.65" height="7.64" transform="translate(318.21 738.23) rotate(180)"></rect><rect x="160.62" y="365.29" width="0.65" height="7.64" transform="translate(321.88 738.23) rotate(180)"></rect><rect x="162.46" y="365.29" width="0.65" height="7.64" transform="translate(325.56 738.23) rotate(180)"></rect><rect x="164.3" y="365.29" width="0.65" height="7.64" transform="translate(329.24 738.23) rotate(180)"></rect><rect x="166.14" y="365.29" width="0.65" height="7.64" transform="translate(332.92 738.23) rotate(180)"></rect><rect x="167.98" y="365.29" width="0.65" height="7.64" transform="translate(336.6 738.23) rotate(180)"></rect><rect x="169.81" y="365.29" width="0.65" height="7.64" transform="translate(340.28 738.23) rotate(180)"></rect><rect x="171.65" y="365.29" width="0.65" height="7.64" transform="translate(343.96 738.23) rotate(180)"></rect><rect x="173.49" y="365.29" width="0.65" height="7.64" transform="translate(347.64 738.23) rotate(180)"></rect></g><path d="M198.26,369.85l-.3,67.73a8,8,0,0,1-16-.07l.3-67.73Z" style="fill:#ebebeb;opacity:0.7000000000000001"></path><g style="opacity:0.7000000000000001"><path d="M197.25,389.44,197,437.53a7.07,7.07,0,0,1-14.13-.06l.22-48.09Z" style="fill:#37474f"></path></g><path d="M193.12,444.85a6.18,6.18,0,0,1-2.53.54c-3.86,0-7-3.61-7-8l.26-67.59,5,0-.27,67.56A8,8,0,0,0,193.12,444.85Z" style="fill:#fff;opacity:0.4"></path><rect x="180.19" y="363.8" width="19.86" height="10.62" style="fill:#455a64"></rect><g style="opacity:0.1"><rect x="181.52" y="365.29" width="0.65" height="7.64" transform="translate(363.68 738.23) rotate(180)"></rect><rect x="183.36" y="365.29" width="0.65" height="7.64" transform="translate(367.36 738.23) rotate(180)"></rect><rect x="185.2" y="365.29" width="0.65" height="7.64" transform="translate(371.04 738.23) rotate(180)"></rect><rect x="187.03" y="365.29" width="0.65" height="7.64" transform="translate(374.72 738.23) rotate(180)"></rect><rect x="188.87" y="365.29" width="0.65" height="7.64" transform="translate(378.4 738.23) rotate(180)"></rect><rect x="190.71" y="365.29" width="0.65" height="7.64" transform="translate(382.08 738.23) rotate(180)"></rect><rect x="192.55" y="365.29" width="0.65" height="7.64" transform="translate(385.75 738.23) rotate(180)"></rect><rect x="194.39" y="365.29" width="0.65" height="7.64" transform="translate(389.43 738.23) rotate(180)"></rect><rect x="196.23" y="365.29" width="0.65" height="7.64" transform="translate(393.11 738.23) rotate(180)"></rect><rect x="198.07" y="365.29" width="0.65" height="7.64" transform="translate(396.79 738.23) rotate(180)"></rect></g><path d="M222.84,369.85l-.31,67.73a8,8,0,0,1-16-.07l.31-67.73Z" style="fill:#ebebeb;opacity:0.7000000000000001"></path><g style="opacity:0.7000000000000001"><path d="M221.82,389.44l-.21,48.09a7.07,7.07,0,0,1-14.13-.06l.22-48.09Z" style="fill:#FFC727"></path></g><path d="M217.7,444.85a6.26,6.26,0,0,1-2.54.54c-3.85,0-7-3.61-7-8l.27-67.59,5,0-.27,67.56A8,8,0,0,0,217.7,444.85Z" style="fill:#fff;opacity:0.4"></path><rect x="204.77" y="363.8" width="19.86" height="10.62" style="fill:#FFC727"></rect><g style="opacity:0.1"><rect x="206.09" y="365.29" width="0.65" height="7.64" transform="translate(412.84 738.23) rotate(180)"></rect><rect x="207.93" y="365.29" width="0.65" height="7.64" transform="translate(416.52 738.23) rotate(180)"></rect><rect x="209.77" y="365.29" width="0.65" height="7.64" transform="translate(420.19 738.23) rotate(180)"></rect><rect x="211.61" y="365.29" width="0.65" height="7.64" transform="translate(423.87 738.23) rotate(180)"></rect><rect x="213.45" y="365.29" width="0.65" height="7.64" transform="translate(427.55 738.23) rotate(180)"></rect><rect x="215.29" y="365.29" width="0.65" height="7.64" transform="translate(431.23 738.23) rotate(180)"></rect><rect x="217.13" y="365.29" width="0.65" height="7.64" transform="translate(434.91 738.23) rotate(180)"></rect><rect x="218.97" y="365.29" width="0.65" height="7.64" transform="translate(438.59 738.23) rotate(180)"></rect><rect x="220.81" y="365.29" width="0.65" height="7.64" transform="translate(442.27 738.23) rotate(180)"></rect><rect x="222.65" y="365.29" width="0.65" height="7.64" transform="translate(445.95 738.23) rotate(180)"></rect></g><path d="M231.86,405.44l0,7.57H143.47v-7.57h14.36V408c0,1.25,3.52,2.26,7.87,2.26s7.87-1,7.87-2.26v-2.53h8.88V408c0,1.25,3.52,2.26,7.87,2.26s7.86-1,7.86-2.26v-2.53h8.89V408c0,1.25,3.52,2.26,7.87,2.26s7.87-1,7.87-2.26v-2.53Z" style="fill:#455a64"></path><rect x="143.47" y="413.01" width="88.39" height="3.05" style="fill:#263238"></rect><rect x="231.86" y="375.22" width="4.14" height="80.91" style="fill:#263238"></rect><circle cx="86.3" cy="414" r="13.5" style="fill:#FFC727;opacity:0.2"></circle><circle cx="86.3" cy="417.78" r="9.72" transform="translate(-270.14 183.39) rotate(-45)" style="fill:#FFC727;opacity:0.2"></circle><rect x="85.5" y="425.8" width="1.6" height="20.92" style="fill:#263238"></rect><path d="M86.29,427.5c-10.31,0,0-20.76,0-20.76S96.62,427.5,86.29,427.5Z" style="fill:#FFC727"></path><path d="M86.29,427.5c-10.31,0,0-20.76,0-20.76S96.62,427.5,86.29,427.5Z" style="opacity:0.1"></path><path d="M86.29,427.5c-6.35,0,0-12.79,0-12.79S92.65,427.5,86.29,427.5Z" style="fill:#FFC727"></path><path d="M103.18,443.29c0,5.25-5.68,13.29-5.68,13.29H75.08s-5.67-8-5.67-13.29c0-4.82,8-9.22,8-9.22h17.7S103.18,438.47,103.18,443.29Z" style="fill:#ebebeb;opacity:0.8"></path><path d="M100.5,445c-.76,4.37-4.69,9.92-4.69,9.92h-19s-3.93-5.55-4.69-9.92Z" style="fill:#FFC727"></path><path d="M76.47,443.29c0,5.25,5.68,13.29,5.68,13.29H77.6s-5.68-8-5.68-13.29c0-4.82,8-9.22,8-9.22H84.5S76.47,438.47,76.47,443.29Z" style="fill:#fff;opacity:0.6000000000000001"></path><rect x="76.57" y="432.21" width="19.44" height="1.87" rx="0.85" style="fill:#37474f"></rect><rect x="76.57" y="430.52" width="19.44" height="1.87" rx="0.85" style="fill:#37474f"></rect><g style="opacity:0.7000000000000001"><path d="M335.72,258.85a25.57,25.57,0,1,1-32.21-24.76l.07-20.71h-2.06v-4.06l17.53,0v4.06H317l-.08,20.7A25.57,25.57,0,0,1,335.72,258.85Z" style="fill:#ebebeb"></path></g><g style="opacity:0.7000000000000001"><path d="M335.72,258.85a25.56,25.56,0,0,1-25.62,25.51h-.66a25.09,25.09,0,0,1-3.81-.4,25.58,25.58,0,0,1-2.12-49.87l.07-20.71h-2.06v-4.06H319v4.11H317l-.08,20.71A25.54,25.54,0,0,1,335.72,258.85Z" style="fill:#ebebeb"></path></g><path d="M331.23,260.91a21.19,21.19,0,0,1-42.16,0Z" style="fill:#455a64"></path><path d="M324.75,251.4a1.93,1.93,0,1,1-1.93-1.93A1.92,1.92,0,0,1,324.75,251.4Z" style="fill:#455a64"></path><path d="M314,260.91a1.93,1.93,0,1,1-1.93-1.93A1.92,1.92,0,0,1,314,260.91Z" style="fill:#455a64"></path><path d="M321.72,257.51a1.24,1.24,0,1,1-1.24-1.24A1.24,1.24,0,0,1,321.72,257.51Z" style="fill:#455a64"></path><path d="M306.11,252.64a1.24,1.24,0,1,1-1.24-1.24A1.24,1.24,0,0,1,306.11,252.64Z" style="fill:#455a64"></path><path d="M317.9,238a1.24,1.24,0,1,1-1.24-1.24A1.24,1.24,0,0,1,317.9,238Z" style="fill:#455a64"></path><path d="M299,248.88a.95.95,0,1,1-.95-.95A1,1,0,0,1,299,248.88Z" style="fill:#455a64"></path><path d="M294.87,258.75a.95.95,0,1,1-.95-.95A.95.95,0,0,1,294.87,258.75Z" style="fill:#455a64"></path><path d="M298.07,258a.38.38,0,0,1-.39.39.39.39,0,1,1,0-.77A.38.38,0,0,1,298.07,258Z" style="fill:#455a64"></path><path d="M327.24,254.26a.39.39,0,0,1-.39.39.39.39,0,1,1,0-.77A.39.39,0,0,1,327.24,254.26Z" style="fill:#455a64"></path><g style="opacity:0.4"><path d="M327.24,265.72a1.93,1.93,0,1,1-1.93-1.93A1.92,1.92,0,0,1,327.24,265.72Z" style="fill:#fff"></path><path d="M321.93,269.18a1.24,1.24,0,0,1-2.48,0,1.24,1.24,0,0,1,2.48,0Z" style="fill:#fff"></path><circle cx="294.67" cy="263.79" r="0.95" style="fill:#fff"></circle><path d="M304.87,272.59a.95.95,0,1,1-.95-.95A.95.95,0,0,1,304.87,272.59Z" style="fill:#fff"></path><path d="M298.85,266.54a.4.4,0,0,1-.39.39.39.39,0,0,1-.39-.39.38.38,0,0,1,.39-.39A.39.39,0,0,1,298.85,266.54Z" style="fill:#fff"></path></g><path d="M293.38,259.39c0,11.28,6.91,21.35,16.06,25h0a25.09,25.09,0,0,1-3.81-.4h0c-2.55-1.06-16.54-6.9-16.54-24.57s16.54-24.63,16.54-24.63V209.33h3.31v26.11C302.17,238.15,293.38,248.12,293.38,259.39Z" style="fill:#fff;opacity:0.6000000000000001"></path><g style="opacity:0.1"><path d="M335.72,258.85a25.56,25.56,0,0,1-25.62,25.51h-.66a25.8,25.8,0,0,1-9-1.91c17.14,0,29.29-9.27,29.31-23.06,0-11.53-5.65-20.91-16.27-23.8l.08-26.27H319v4.11H317l-.08,20.71A25.54,25.54,0,0,1,335.72,258.85Z"></path></g><g style="opacity:0.7000000000000001"><path d="M380.79,126.28a19.87,19.87,0,1,1-25-19.24L355.82,93h-1.61V89.81l13.61,0V93h-1.61l-.06,14.07A19.86,19.86,0,0,1,380.79,126.28Z" style="fill:#ebebeb"></path></g><g style="opacity:0.7000000000000001"><path d="M380.79,126.28a19.87,19.87,0,0,1-19.91,19.82h-.51a19.15,19.15,0,0,1-3-.31A19.87,19.87,0,0,1,355.76,107L355.82,93h-1.6V89.81h13.61V93h-1.61l-.07,14.07A19.86,19.86,0,0,1,380.79,126.28Z" style="fill:#ebebeb"></path></g><path d="M377.3,127.88a16.47,16.47,0,0,1-32.76,0Z" style="fill:#455a64"></path><path d="M372.26,120.49a1.5,1.5,0,1,1-1.49-1.5A1.49,1.49,0,0,1,372.26,120.49Z" style="fill:#455a64"></path><path d="M363.91,127.88a1.5,1.5,0,1,1-1.49-1.5A1.49,1.49,0,0,1,363.91,127.88Z" style="fill:#455a64"></path><path d="M369.91,125.24a1,1,0,1,1-1-1A1,1,0,0,1,369.91,125.24Z" style="fill:#455a64"></path><path d="M357.79,121.45a1,1,0,1,1-1.93,0,1,1,0,0,1,1.93,0Z" style="fill:#455a64"></path><path d="M366.94,110.11a1,1,0,1,1-1-1A1,1,0,0,1,366.94,110.11Z" style="fill:#455a64"></path><path d="M352.27,118.54a.74.74,0,1,1-.73-.74A.73.73,0,0,1,352.27,118.54Z" style="fill:#455a64"></path><path d="M349.05,126.2a.74.74,0,1,1-.74-.74A.74.74,0,0,1,349.05,126.2Z" style="fill:#455a64"></path><path d="M351.54,125.59a.31.31,0,0,1-.61,0,.31.31,0,0,1,.61,0Z" style="fill:#455a64"></path><path d="M374.2,122.72a.31.31,0,1,1-.31-.3A.3.3,0,0,1,374.2,122.72Z" style="fill:#455a64"></path><g style="opacity:0.4"><path d="M374.2,131.62a1.5,1.5,0,1,1-1.5-1.5A1.5,1.5,0,0,1,374.2,131.62Z" style="fill:#fff"></path><path d="M370.07,134.31a1,1,0,1,1-1-1A1,1,0,0,1,370.07,134.31Z" style="fill:#fff"></path><path d="M349.63,130.12a.74.74,0,1,1-.74-.74A.74.74,0,0,1,349.63,130.12Z" style="fill:#fff"></path><path d="M356.82,137a.74.74,0,1,1-.74-.73A.74.74,0,0,1,356.82,137Z" style="fill:#fff"></path><path d="M352.14,132.25a.31.31,0,0,1-.3.31.31.31,0,0,1,0-.61A.31.31,0,0,1,352.14,132.25Z" style="fill:#fff"></path></g><path d="M347.89,126.7c0,8.76,5.37,16.59,12.48,19.39h0a19.15,19.15,0,0,1-3-.31h0a20,20,0,0,1-12.86-19.09c0-13.73,12.86-19.13,12.86-19.13V89.82H360v18.27C354.72,110.2,347.89,117.94,347.89,126.7Z" style="fill:#fff;opacity:0.6000000000000001"></path><g style="opacity:0.1"><path d="M380.79,126.28a19.87,19.87,0,0,1-19.91,19.82h-.51a19.15,19.15,0,0,1-3-.31,19.38,19.38,0,0,1-4-1.17c13.31,0,22.75-7.21,22.77-17.92,0-9-4.39-16.25-12.64-18.49l0-18.4h4.27V93h-1.61l-.07,14.07A19.86,19.86,0,0,1,380.79,126.28Z"></path></g><rect x="67.57" y="292.65" width="37.27" height="11.6" style="fill:#37474f"></rect></g></svg>
