<svg xmlns="http://www.w3.org/2000/svg" viewBox="0 0 500 500"><g id="freepik--Shadow--inject-1"><ellipse cx="250" cy="444.42" rx="204.99" ry="14.92" style="fill:#ebebeb"></ellipse></g><g id="freepik--Floor--inject-1"><polygon points="40.29 397.19 92.72 396.94 145.14 396.85 250 396.69 354.86 396.85 407.28 396.94 459.71 397.19 407.28 397.43 354.86 397.52 250 397.68 145.14 397.52 92.72 397.43 40.29 397.19" style="fill:#263238"></polygon></g><g id="freepik--Device--inject-1"><path d="M236,60.59H87.29a15.18,15.18,0,0,0-15,15.32V382a15.19,15.19,0,0,0,15,15.32H236A15.2,15.2,0,0,0,251,382V75.91A15.19,15.19,0,0,0,236,60.59Zm5.65,311.93c0,8.06-6,14.57-13.47,14.57h-133c-7.45,0-13.49-6.51-13.49-14.57v-285c0-16.41,6-17.21,13.49-17.21h26.64c1.55,0,2.82,1.76,2.82,3.94v.94c0,5.11,2.8,5.13,6.23,5.13h61.62c3.47,0,6.24,0,6.24-5.13v-.94c0-2.18,1.25-3.94,2.82-3.94h26.65c7.44,0,13.47,2.18,13.47,17.21Z" style="fill:#263238"></path><path d="M170,73.92H153.23a1,1,0,0,1-1-1h0a1,1,0,0,1,1-1H170a1,1,0,0,1,1,1h0A1,1,0,0,1,170,73.92Z" style="fill:#fff"></path><path d="M241.63,87.51v285c0,8.06-6,14.57-13.48,14.57h-133c-7.46,0-13.49-6.51-13.49-14.57v-285c0-16.41,6-17.21,13.49-17.21h26.64c1.54,0,2.81,1.76,2.81,3.94v.94c0,5.11,2.8,5.13,6.24,5.13h61.61c3.47,0,6.24,0,6.24-5.13v-.94c0-2.18,1.25-3.94,2.82-3.94h26.65C235.59,70.3,241.63,72.48,241.63,87.51Z" style="fill:#fff"></path><g id="freepik--u5Zjqx--inject-1"><path d="M117.18,76.7l-.26.25-.14.15a3.51,3.51,0,0,0-5,0l-.14-.14-.25-.26h0l.33-.29a3.68,3.68,0,0,1,.75-.48,3.94,3.94,0,0,1,1-.34c.16,0,.33,0,.5-.06h.43c.12,0,.23,0,.34,0a4.1,4.1,0,0,1,.92.21,5,5,0,0,1,.62.29,4,4,0,0,1,.59.42l.27.24Z" style="fill:#c7c7c7"></path><path d="M112.63,77.91l-.41-.4a2.81,2.81,0,0,1,1.66-.83,2.91,2.91,0,0,1,2.49.82l-.41.41a2.35,2.35,0,0,0-3.33,0Z" style="fill:#c7c7c7"></path><path d="M115.55,78.32c-.13.13-.27.26-.4.4a1.22,1.22,0,0,0-1.71,0l-.4-.4A1.75,1.75,0,0,1,115.55,78.32Z" style="fill:#c7c7c7"></path><path d="M114.66,79.09a.37.37,0,0,1-.73,0,.37.37,0,1,1,.73,0Z" style="fill:#c7c7c7"></path></g><path d="M92.08,77.48a1.06,1.06,0,0,1,2.12,0,1.06,1.06,0,0,1-2.12,0Z" style="fill:#c7c7c7"></path><path d="M95.42,77.48a1.06,1.06,0,0,1,2.12,0,1.06,1.06,0,0,1-2.12,0Z" style="fill:#c7c7c7"></path><circle cx="99.81" cy="77.48" r="1.06" style="fill:#c7c7c7"></circle><path d="M102.09,77.48a1.06,1.06,0,1,1,1.06,1.06A1.06,1.06,0,0,1,102.09,77.48Z" style="fill:#c7c7c7"></path><path d="M105.43,77.48a1.06,1.06,0,1,1,1.06,1.06A1.06,1.06,0,0,1,105.43,77.48Z" style="fill:#c7c7c7"></path><path d="M229.63,79.8H221v-4h8.64Zm-8.19-.45h7.74V76.24h-7.74Z" style="fill:#c7c7c7"></path><rect x="221.71" y="76.47" width="5.56" height="2.64" style="fill:#c7c7c7"></rect><rect x="229.63" y="76.72" width="0.77" height="2.14" style="fill:#c7c7c7"></rect><circle cx="162.02" cy="174.91" r="3.64" style="fill:#FFC727"></circle><path d="M140.92,179.62a3.46,3.46,0,1,0,3.46-3.46A3.46,3.46,0,0,0,140.92,179.62Z" style="fill:#FFC727;opacity:0.9"></path><path d="M130.06,191.64a3.29,3.29,0,1,0,3.29-3.28A3.29,3.29,0,0,0,130.06,191.64Z" style="fill:#FFC727;opacity:0.8"></path><circle cx="129.58" cy="207.8" r="3.1" style="fill:#FFC727;opacity:0.7000000000000001"></circle><path d="M130.14,223a2.93,2.93,0,1,0,2.93-2.93A2.93,2.93,0,0,0,130.14,223Z" style="fill:#FFC727;opacity:0.6000000000000001"></path><path d="M141,235.51a2.75,2.75,0,1,0,2.74-2.75A2.74,2.74,0,0,0,141,235.51Z" style="fill:#FFC727;opacity:0.5"></path><path d="M159.57,240.72a2.57,2.57,0,1,0,2.57-2.57A2.57,2.57,0,0,0,159.57,240.72Z" style="fill:#FFC727;opacity:0.4"></path><path d="M178.37,235.11a2.39,2.39,0,1,0,2.39-2.39A2.39,2.39,0,0,0,178.37,235.11Z" style="fill:#FFC727;opacity:0.30000000000000004"></path><path d="M189.16,222a2.21,2.21,0,1,0,2.21-2.21A2.21,2.21,0,0,0,189.16,222Z" style="fill:#FFC727;opacity:0.2"></path><path d="M192.74,207.48a2,2,0,1,0,2-2A2,2,0,0,0,192.74,207.48Z" style="fill:#FFC727;opacity:0.1"></path><path d="M187.66,188.73a1.85,1.85,0,1,0,1.85-1.85A1.85,1.85,0,0,0,187.66,188.73Z" style="fill:#FFC727;opacity:0.05"></path><circle cx="176.91" cy="178.2" r="1.67" style="fill:#FFC727;opacity:0.01"></circle><polygon points="174.69 206.27 169.81 206.27 169.81 222.63 153.44 222.63 153.44 206.27 148.57 206.27 161.63 191.93 174.69 206.27" style="fill:#FFC727"></polygon><path d="M208.9,269.31H114.37v-8.7H208.9Zm-94-.5H208.4v-7.7H114.87Z" style="fill:#FFC727"></path><rect x="116.18" y="262.42" width="3.04" height="5.08" style="fill:#FFC727"></rect><rect x="120.37" y="262.42" width="3.04" height="5.08" style="fill:#FFC727"></rect><rect x="124.56" y="262.42" width="3.04" height="5.08" style="fill:#FFC727"></rect><rect x="128.76" y="262.42" width="3.04" height="5.08" style="fill:#FFC727"></rect><rect x="132.95" y="262.42" width="3.04" height="5.08" style="fill:#FFC727"></rect><rect x="137.14" y="262.42" width="3.04" height="5.08" style="fill:#FFC727"></rect><rect x="141.34" y="262.42" width="3.04" height="5.08" style="fill:#FFC727"></rect><rect x="145.53" y="262.42" width="3.04" height="5.08" style="fill:#FFC727"></rect><rect x="149.73" y="262.42" width="3.04" height="5.08" style="fill:#FFC727"></rect><rect x="153.92" y="262.42" width="3.04" height="5.08" style="fill:#FFC727"></rect><rect x="158.11" y="262.42" width="3.04" height="5.08" style="fill:#FFC727"></rect><rect x="162.31" y="262.42" width="3.04" height="5.08" style="fill:#FFC727"></rect></g><g id="freepik--Character--inject-1"><path d="M295.14,367.75s-3.05,42.38-3.06,42.41c0,8.3.07,15.58.48,19.34a.13.13,0,0,0,0,.06,5.78,5.78,0,0,0,.6,2.57s0,0,.05.05c2.46,1.69,68.78,4,71.12,3.26s.53-7.43-2-9.57-27.51-14.36-27.51-14.36l2.64-42.36Z" style="fill:#f7a9a0"></path><path d="M292.08,401.25s0,8.88,0,8.91c0,8.3.07,15.58.48,19.34a.13.13,0,0,0,0,.06,11.21,11.21,0,0,0,.6,2.57s0,0,.05.05c2.46,1.69,68.78,4,71.12,3.26s.53-7.43-2-9.57-27.51-14.36-27.51-14.36l.12-9.05Z" style="fill:#fff"></path><path d="M364.34,435.44c-2.35.7-68.66-1.57-71.13-3.26-.94-.63-1.18-10.31-1.12-22v-.36l42.8,1,0,.73s25,12.22,27.51,14.37S366.68,434.75,364.34,435.44Z" style="fill:#FFC727"></path><path d="M363.68,432.84c-11.17-.66-56.28-2.25-67.37-2-.09,0-.1.06,0,.07,11.06.89,56.18,2.12,67.37,2.16C363.91,433,363.91,432.86,363.68,432.84Z" style="fill:#263238"></path><path d="M338.44,411.76c-4.37-1-9.77-.48-13.24,2.54-.14.12,0,.31.18.27a61.62,61.62,0,0,1,13-2.25A.28.28,0,0,0,338.44,411.76Z" style="fill:#263238"></path><path d="M341.55,413.78c-4.37-1-9.77-.48-13.24,2.54-.14.12,0,.31.18.27a61.62,61.62,0,0,1,13-2.25A.28.28,0,0,0,341.55,413.78Z" style="fill:#263238"></path><path d="M344.66,415.81c-4.37-1-9.77-.48-13.24,2.53-.14.12,0,.31.18.27a61.62,61.62,0,0,1,13-2.25A.28.28,0,0,0,344.66,415.81Z" style="fill:#263238"></path><path d="M289.53,412l46.42-.92s5.66-83.54,4.61-111.39c-1.15-30.25-14.14-120.25-14.14-120.25H287.21s10,90.36,10.24,120.62C297.64,328.1,289.53,412,289.53,412Z" style="fill:#37474f"></path><path d="M318.72,179.43,295.17,260.9c-2.79-38.55-8-81.47-8-81.47Z" style="fill:#263238"></path><path d="M294.66,183.86l2.49,26.87,2.3,26.88c1.48,17.93,2.88,35.87,3.95,53.83.26,4.49.42,9,.35,13.52s-.28,9-.5,13.5q-.71,13.49-1.74,26.93t-2.17,26.9l-2.51,26.87,2-26.91q1-13.46,1.89-26.91c.57-9,1.18-17.95,1.59-26.93.21-4.49.38-9,.46-13.46s-.13-9-.4-13.45c-1-17.95-2.4-35.89-3.71-53.82Z" style="fill:#263238"></path><path d="M334,403.32c-7.25-.06-5.17-.14-12.41-.13-3.55,0-26.86.09-30.16.68a.08.08,0,0,0,0,.15c3.32.51,26.62,0,30.17-.06,7.24-.15,5.16-.19,12.4-.43A.11.11,0,1,0,334,403.32Z" style="fill:#263238"></path><path d="M219.68,345s-22.39,36.4-22.41,36.42c-3.63,7.47-6.69,14.07-8,17.64a.08.08,0,0,0,0,.05,5.8,5.8,0,0,0-.57,2.58s0,.05,0,.06c1.49,2.59,60.26,33.4,62.67,33.78s3.7-6.46,2.37-9.47-18.56-24.88-18.56-24.88l22-36.56Z" style="fill:#f7a9a0"></path><path d="M188.73,401.71a.2.2,0,0,0,0,.07c1.5,2.58,60.27,33.39,62.68,33.77s3.69-6.46,2.37-9.47-18.56-24.88-18.56-24.88l3.93-6.53c-9.61-5.12-27.07-14.11-37.91-19.68-2.36,3.83-4,6.45-4,6.46-3.64,7.46-6.7,14.06-8,17.62a.14.14,0,0,0,0,.07A5.59,5.59,0,0,0,188.73,401.71Z" style="fill:#fff"></path><path d="M251.42,435.55c-2.41-.38-61.18-31.18-62.67-33.78-.59-1,3.4-9.8,8.53-20.32l.16-.33,38.14,19.45-.35.63s17.22,21.85,18.56,24.88S253.83,435.94,251.42,435.55Z" style="fill:#FFC727"></path><path d="M252,432.92c-9.78-5.43-49.73-26.43-59.81-31.06-.09,0-.11,0,0,.06,9.58,5.6,49.7,26.28,59.77,31.17C252.08,433.19,252.16,433,252,432.92Z" style="fill:#263238"></path><path d="M238.35,403c-3.51-2.77-8.6-4.68-13-3.46-.17.05-.1.29,0,.32a61.78,61.78,0,0,1,12.72,3.62A.28.28,0,0,0,238.35,403Z" style="fill:#263238"></path><path d="M240.28,406.16c-3.52-2.77-8.6-4.67-13-3.46-.17.05-.1.29,0,.32A61.87,61.87,0,0,1,240,406.64.28.28,0,0,0,240.28,406.16Z" style="fill:#263238"></path><path d="M242.2,409.33c-3.51-2.77-8.6-4.67-13-3.46-.17.05-.1.29,0,.32a61.78,61.78,0,0,1,12.72,3.62A.28.28,0,0,0,242.2,409.33Z" style="fill:#263238"></path><path d="M322.41,179.39a.16.16,0,0,1,0,0c-.17.81-2.92,13.52-5.76,24.45-2.06,8-4.19,15-5.41,15.72-1.38.82-8.11,3.8-10.37,4.74,0,0-15.14,75.58-23.13,99-7.38,21.63-37.9,79.43-37.9,79.43l-44.28-22.37s34.58-58.67,38.21-69.2c5.64-16.32,26.76-96,26.76-96s-.16-24.95,8.24-35.84Z" style="fill:#37474f"></path><path d="M239.18,394.16c-6.33-3.54-4.47-2.61-10.83-6.07-3.12-1.7-23.6-12.82-26.78-13.89a.08.08,0,0,0-.07.13c2.67,2,23.34,12.8,26.49,14.44,6.43,3.34,4.62,2.31,11.09,5.58A.11.11,0,0,0,239.18,394.16Z" style="fill:#263238"></path><path d="M271.88,208.29c1.21-.31,2.51-.41,3.75-.61,1-.16,2-.33,3-.55a12.93,12.93,0,0,0,5.26-2.22c1.71-1.33,2.59-3.35,3.41-5.3.5-1.15,1-2.3,1.52-3.44.25-.56.5-1.11.76-1.66a19.88,19.88,0,0,0,.93-2c0-.1.19-.05.15,0a13.31,13.31,0,0,0-.42,1.44c-.17.55-.33,1.11-.5,1.67-.31,1-.61,2-.93,3a23.61,23.61,0,0,1-2.11,5.21c-1.83,2.91-5.1,4.08-8.37,4.5-.93.12-1.88.18-2.82.24a20.28,20.28,0,0,1-3.57,0A.16.16,0,0,1,271.88,208.29Z" style="fill:#263238"></path><path d="M314.81,217.82a88.32,88.32,0,0,0-13.88,6.46c-.17.1-.05.37.13.29,4.68-2,9.45-3.93,14-6.19A.31.31,0,0,0,314.81,217.82Z" style="fill:#263238"></path><path d="M316.22,185.8c0-.17-.3-.2-.29,0,0,5.55-.32,10.44-.79,15.62-.22,2.41-2.15,15.72-6.33,14.75-.7-.16-1.05-.85-1.16-1.91a16.35,16.35,0,0,1,.55-4.08c.46-2.78.84-5.58,1.07-8.39A76.06,76.06,0,0,0,309.1,186a.13.13,0,0,0-.26,0,144.81,144.81,0,0,1-1.28,21.73c-.52,3.46-2.26,8.68,1.36,9.21s6.07-8.19,6.52-10.58A79.32,79.32,0,0,0,316.22,185.8Z" style="fill:#263238"></path><path d="M308.92,216.5a21.87,21.87,0,0,0-.94,2.76,6.29,6.29,0,0,0-.39,2.26.17.17,0,0,0,.29.07,8.08,8.08,0,0,0,1-2.21c.32-.85.66-1.7.95-2.56A.47.47,0,0,0,308.92,216.5Z" style="fill:#263238"></path><path d="M207.5,373.07c6.3-11.86,12.8-23.62,19.32-35.37,3.22-5.79,6.57-11.51,9.64-17.38a105.71,105.71,0,0,0,7-18.13q5.85-19,11.08-38.2t9.82-38.55c.77-3.23,1.61-6.45,2.23-9.71a29.88,29.88,0,0,0,0-9.94,31.86,31.86,0,0,1-.08-9.25,61.13,61.13,0,0,1,2.17-9c.49-1.55,1-3.1,1.55-4.64a.15.15,0,0,1,.28.08c-1.91,6.25-3.87,12.56-3.46,19.18.2,3.18,1,6.3,1,9.5a45.46,45.46,0,0,1-1.61,9.39q-4.51,19.47-9.7,38.77t-11,38.43c-1.88,6.2-3.64,12.5-6.3,18.42s-6.06,11.53-9.24,17.19c-6.58,11.7-13.21,23.37-20,35q-1.29,2.21-2.6,4.39C207.59,373.26,207.45,373.17,207.5,373.07Z" style="fill:#263238"></path><path d="M363.9,79.86l-7.18,27.54a1,1,0,0,0,.9,1.47l14.24.11a2.29,2.29,0,0,0,2-1.45L381,80c.3-.81-.1-1.47-.9-1.48l-14.24-.11A2.29,2.29,0,0,0,363.9,79.86Z" style="fill:#a6a6a6"></path><path d="M365.59,79.86l-7.18,27.53c-.3.81.1,1.47.9,1.48l14.24.11a2.29,2.29,0,0,0,2-1.45L382.71,80a1,1,0,0,0-.9-1.47l-14.24-.11A2.29,2.29,0,0,0,365.59,79.86Z" style="fill:#dbdbdb"></path><path d="M369.48,81.15a1.21,1.21,0,1,1-1.17-1.25A1.21,1.21,0,0,1,369.48,81.15Z" style="fill:#455a64"></path><path d="M319.7,120.9c7.76,17.29,27.93,41.6,35.41,41.82,3.56.11,9.91,1.07,14.65-2.94,10.34-8.76,19.16-25.69,21.06-35.44.68-3.46-16.11-11.28-18.66-8.49-6,6.53-13,19.42-14,19.33-3.83-.36-20.29-13.24-30.84-21.2C314.07,104,316.6,114,319.7,120.9Z" style="fill:#f7a9a0"></path><path d="M391.54,106.38c-1.67-7.09-3.19-8.65-1.42-15.38,1.16-4.42-1.17-7.06-4.37-3.55-5.24,5.73-5,15.33-4,18.64Z" style="fill:#f7a9a0"></path><path d="M389.94,127.36s3.32-9.79,2.29-17.52c-.72-5.34-3.57-16.8-18.4-23.07-3.51-1.49-9.58-1.12-4.72,3.4,3.45,3.21,6.61,4.2,8.28,6.43,0,0-7.66,1.39-9,5a71.84,71.84,0,0,0-2.87,9.61,14.19,14.19,0,0,0,1.75.7s-.95,3.47,1.5,8.35Z" style="fill:#f7a9a0"></path><path d="M390.73,104.85c-2.13-1.87-6.7-5.74-11.54-7.61-5.37-2.08-16.29-4.63-17.79-.65-1.09,2.92,3,4.26,3,4.26s-4.73-.1-5.14,2.76c-.38,2.6,2.84,3.45,2.84,3.45s-2.88.43-2.76,3c.15,3.1,6.17,1.69,9,4.7C369,115.44,390.73,104.85,390.73,104.85Z" style="fill:#f7a9a0"></path><path d="M377.94,103.28a23,23,0,0,0-13.46-2.5c-.11,0-.16.11-.05.12a56.36,56.36,0,0,1,13.5,2.44S378,103.3,377.94,103.28Z" style="fill:#263238"></path><path d="M375.69,108.65A25.81,25.81,0,0,0,362.1,107c-.11,0-.15.13,0,.13a60.61,60.61,0,0,1,13.61,1.62S375.72,108.66,375.69,108.65Z" style="fill:#263238"></path><path d="M345,125.5,332.24,147s-14.41-23.41-16.71-31.49c-2.58-9.1,2.64-8.43,10.52-4.12S345,125.5,345,125.5Z" style="fill:#FFC727"></path><path d="M345,125.5,332.24,147s-14.41-23.41-16.71-31.49c-2.58-9.1,2.64-8.43,10.52-4.12S345,125.5,345,125.5Z" style="opacity:0.1"></path><path d="M340.68,123.94c-2,2.52-6.92,10.91-7.75,12.29-.44.72-2.05,3.7-2.5,4.42-.05.09.1.16.16.07.84-1.38,1.83-2.67,2.68-4s6.18-9.73,7.52-12.67C340.82,124,340.73,123.89,340.68,123.94Z" style="fill:#263238"></path><path d="M262.66,188.52s67.3,9.34,67.3,9.35c-.19,1.31,3.56-53.24-9.5-87.45-.89-2.34-11.14-6.14-16.4-2.48C281,123.94,262.54,189.37,262.66,188.52Z" style="fill:#FFC727"></path><path d="M302.79,108.88l18.08,2.67a2,2,0,0,1,.12.31l-18.52-2.73A3.92,3.92,0,0,1,302.79,108.88Zm-5.65,5.42L323,118.1a1.71,1.71,0,0,0-.09-.3L297.37,114Zm-4.22,5.32,31.74,4.67c0-.1,0-.2-.07-.3l-31.48-4.64ZM289.3,125l36.7,5.41-.06-.31-36.48-5.37Zm-3.23,5.47,41,6c0-.1,0-.2,0-.3l-40.82-6ZM283.12,136l44.86,6.6c0-.1,0-.2,0-.3l-44.68-6.58C283.21,135.83,283.16,135.93,283.12,136Zm-2.73,5.54,48.3,7.11,0-.3-48.14-7.09Zm-2.56,5.57,51.43,7.57,0-.3L278,146.85A2.39,2.39,0,0,1,277.83,147.13Zm-2.39,5.59,54.25,8c0-.1,0-.2,0-.3l-54.12-8C275.51,152.54,275.47,152.63,275.44,152.72Zm-2.29,5.6L330,166.69c0-.1,0-.19,0-.29l-56.73-8.35C273.23,158.14,273.19,158.23,273.15,158.32ZM271,164l59.21,8.72a2.81,2.81,0,0,0,0-.29l-59.11-8.7Zm-2.07,5.64,61.38,9a1.4,1.4,0,0,0,0-.29l-61.28-9C269,169.41,269,169.5,268.92,169.59Zm-2,5.66,63.36,9.32v-.28L267,175Zm-1.89,5.67,65.15,9.59c0-.1,0-.2,0-.3l-65.07-9.58Zm-1.79,5.68L330,196.42c0-.09,0-.19,0-.29l-66.67-9.81C263.32,186.41,263.29,186.51,263.27,186.6Z" style="opacity:0.1"></path><path d="M318.11,118.3c-3.28.54-9.74-3.74-11.72-8.51-.13-.33.69-3.53,1.52-7.48.49-2.39,1-5.07,1.24-7.54.06-.51,15.12,5.46,15.12,5.46a39.89,39.89,0,0,0-2.54,9.34,5.9,5.9,0,0,0,0,1s0,.1,0,.17C321.84,112.73,321.62,117.73,318.11,118.3Z" style="fill:#f7a9a0"></path><path d="M321.74,110.6s0,.11,0,.17a11.22,11.22,0,0,1-1.59-.09c-9.12-1.2-10.29-12.9-10.44-15.85,2.72.7,14.57,5.4,14.57,5.4a39.89,39.89,0,0,0-2.54,9.34A5.87,5.87,0,0,0,321.74,110.6Z" style="fill:#263238"></path><path d="M308.37,75.18c-2.11,5.39-.42,21.57,3.23,25.42,5.3,5.6,14.58,6.8,19.49.3,4.76-6.31,2.18-27.35-2-30.92C323,64.73,311.48,67.22,308.37,75.18Z" style="fill:#f7a9a0"></path><path d="M323.19,85.92s-.08.06-.07.11c.14,1.08.12,2.35-.83,2.81,0,0,0,.07,0,.06C323.5,88.61,323.5,86.93,323.19,85.92Z" style="fill:#263238"></path><path d="M322.11,84.88c-1.77,0-1.56,3.57.08,3.53S323.59,84.85,322.11,84.88Z" style="fill:#263238"></path><path d="M329.53,85.72s.09,0,.09.09c0,1.1.26,2.35,1.27,2.65a0,0,0,0,1,0,.06C329.66,88.42,329.39,86.76,329.53,85.72Z" style="fill:#263238"></path><path d="M330.44,84.52c1.75-.24,2.1,3.28.48,3.5S329,84.72,330.44,84.52Z" style="fill:#263238"></path><path d="M320.62,83.35c.47-.15.88-.37,1.33-.56a2.3,2.3,0,0,0,1.26-.84.74.74,0,0,0-.18-.89,1.84,1.84,0,0,0-1.87-.08,2.72,2.72,0,0,0-1.5,1.27A.8.8,0,0,0,320.62,83.35Z" style="fill:#263238"></path><path d="M331.7,82.66a13.89,13.89,0,0,1-1.43-.28,2.33,2.33,0,0,1-1.39-.56.76.76,0,0,1,0-.92,1.85,1.85,0,0,1,1.82-.45,2.7,2.7,0,0,1,1.73.93A.8.8,0,0,1,331.7,82.66Z" style="fill:#263238"></path><path d="M322.8,96.13c.27.24.56.58.95.59a2.79,2.79,0,0,0,1.16-.35s.07,0,0,.06a1.47,1.47,0,0,1-1.35.67,1.16,1.16,0,0,1-.92-.91C322.67,96.12,322.76,96.1,322.8,96.13Z" style="fill:#263238"></path><path d="M323.75,92.79a3.74,3.74,0,0,0,2.58,1.51,5,5,0,0,0,1.34,0l.26,0,.24,0a.28.28,0,0,0,.2-.26h0a.43.43,0,0,0,0-.11h0V93.7c0-.84-.18-2.12-.18-2.12.32.14,1.93.75,1.87.31a55.69,55.69,0,0,0-2.12-11.18.1.1,0,0,0-.2,0c.28,3.5,1.18,6.93,1.52,10.45a6.36,6.36,0,0,0-1.79-.43c-.12,0,.35,2.46.33,2.84,0,0,0,0,0,0a5.2,5.2,0,0,1-3.93-1C323.76,92.63,323.68,92.71,323.75,92.79Z" style="fill:#263238"></path><path d="M327.15,93.88a4.43,4.43,0,0,1-1.68,1.48,2.05,2.05,0,0,1-1.21.14c-.88-.17-.95-1-.83-1.67a4.62,4.62,0,0,1,.32-1.07A5.72,5.72,0,0,0,327.15,93.88Z" style="fill:#263238"></path><path d="M325.47,95.36a2.05,2.05,0,0,1-1.21.14c-.88-.17-.95-1-.83-1.67A2.06,2.06,0,0,1,325.47,95.36Z" style="fill:#ff99ba"></path><path d="M331.78,75.2c-.68-1.35-1.45-2.71-2.3-2.93s-1.28,1.84-3.18,2.08c-2.55.32-3.93-2-7.53-2-5.18,0-7.19,4.39-6.89,11.7.28,6.54-3.63,7.39-3.63,7.39s-3.24-14.26.54-19.27,13-7.66,19.48-3.48C330.65,70.22,331.78,75.2,331.78,75.2Z" style="fill:#263238"></path><path d="M311.39,88.67s-3.32-5.37-5.74-4.21-.12,8.79,2.57,10a2.81,2.81,0,0,0,3.84-1.29Z" style="fill:#f7a9a0"></path><path d="M306.37,86.63a0,0,0,0,0,0,.07c1.88.89,2.8,2.74,3.4,4.63a1.54,1.54,0,0,0-2.28-.55c-.06,0,0,.12,0,.11a1.71,1.71,0,0,1,1.86.71,7.9,7.9,0,0,1,.82,1.58c.08.18.4.1.35-.1l0,0C310.71,90.58,309,87,306.37,86.63Z" style="fill:#263238"></path><polygon points="428.78 105.7 420.78 105.7 420.78 172.53 393.93 172.53 393.93 105.7 385.94 105.7 407.36 82.18 428.78 105.7" style="fill:#455a64"></polygon><polygon points="383.41 121.36 375.41 121.36 375.41 188.2 348.56 188.2 348.56 121.36 340.57 121.36 361.99 97.84 383.41 121.36" style="fill:#455a64"></polygon><rect x="325.26" y="130.44" width="71.81" height="86.45" style="fill:#FFC727"></rect><rect x="325.26" y="130.44" width="71.81" height="86.45" style="opacity:0.1"></rect><rect x="397.07" y="130.44" width="37.08" height="86.45" style="fill:#FFC727"></rect><polygon points="367.26 149.12 365.74 149.12 364.6 149.12 363.94 147.68 363.03 149.12 361.79 146.16 360.62 149.12 357.25 149.12 355.72 149.12 355.17 147.15 354.64 149.12 353.65 149.12 353.65 130.44 367.26 130.44 367.26 149.12" style="fill:#fff"></polygon><g style="opacity:0.1"><path d="M431.59,210.94q-4.11-9.23-8.16-18.51l-8-18.59-7.95-18.67q-3.94-9.36-7.82-18.77,4.13,9.21,8.17,18.5l8,18.59,7.94,18.68Q427.73,201.52,431.59,210.94Z"></path><path d="M431.59,136.4q-3.87,9.4-7.82,18.77l-7.94,18.67-8,18.6q-4.05,9.27-8.17,18.5,3.87-9.42,7.82-18.77l7.95-18.68,8-18.59Q427.47,145.62,431.59,136.4Z"></path></g><polygon points="313.34 149.13 385.14 149.13 397.06 130.44 325.26 130.44 313.34 149.13" style="fill:#FFC727"></polygon><g style="opacity:0.2"><polygon points="313.34 149.13 385.14 149.13 397.06 130.44 325.26 130.44 313.34 149.13"></polygon></g><polygon points="408.98 149.14 445.95 149.14 434.03 130.44 397.06 130.44 408.98 149.14" style="fill:#FFC727"></polygon><polygon points="408.98 149.14 445.95 149.14 434.03 130.44 397.06 130.44 408.98 149.14" style="opacity:0.1"></polygon><path d="M350.59,168.9l2.31,6.44,2.28-6.44h1.74l-3.33,8.51H352.2l-3.35-8.51Z" style="fill:#263238"></path><path d="M357.12,177.41a4.78,4.78,0,0,1,.09-1,2.53,2.53,0,0,1,.29-.81,2.67,2.67,0,0,1,.58-.7,5.07,5.07,0,0,1,.92-.64l.88-.46a6.1,6.1,0,0,0,.62-.36,1.51,1.51,0,0,0,.39-.35.6.6,0,0,0,.13-.4.79.79,0,0,0-.29-.61,1.14,1.14,0,0,0-.82-.26,1.74,1.74,0,0,0-.53.07,3.1,3.1,0,0,0-.45.21,2.88,2.88,0,0,0-.39.3,3.28,3.28,0,0,0-.31.34l-1-1.19a3.2,3.2,0,0,1,.45-.36,4.71,4.71,0,0,1,.68-.38,4.82,4.82,0,0,1,.86-.28,4.11,4.11,0,0,1,1-.12,3.75,3.75,0,0,1,1.1.15,2.39,2.39,0,0,1,.81.42,1.86,1.86,0,0,1,.5.65,2,2,0,0,1,.17.82,1.79,1.79,0,0,1-.15.75,2.54,2.54,0,0,1-.4.57,2.7,2.7,0,0,1-.52.44c-.19.13-.37.23-.55.33l-.49.28a6.1,6.1,0,0,0-.54.34,5,5,0,0,0-.5.38,2,2,0,0,0-.35.39h3.64v1.45Z" style="fill:#263238"></path><path d="M364.13,177.41v-1.72h1.32v1.72Z" style="fill:#263238"></path><path d="M372.91,173.9a4.56,4.56,0,0,1-.23,1.46,3.7,3.7,0,0,1-.65,1.15,2.86,2.86,0,0,1-1,.75,2.86,2.86,0,0,1-2.47,0,3,3,0,0,1-1-.75,3.67,3.67,0,0,1-.64-1.15,4.56,4.56,0,0,1,0-2.92,3.57,3.57,0,0,1,.64-1.15,3,3,0,0,1,1-.76,2.86,2.86,0,0,1,2.47,0,2.88,2.88,0,0,1,1,.76,3.59,3.59,0,0,1,.65,1.15A4.52,4.52,0,0,1,372.91,173.9Zm-1.62,0a3.08,3.08,0,0,0-.11-.88,2.18,2.18,0,0,0-.3-.69,1.43,1.43,0,0,0-.47-.45,1.2,1.2,0,0,0-.59-.15,1.23,1.23,0,0,0-.61.15,1.54,1.54,0,0,0-.47.45,2.18,2.18,0,0,0-.3.69,3.57,3.57,0,0,0,0,1.76,2.23,2.23,0,0,0,.3.68,1.5,1.5,0,0,0,.47.44,1.13,1.13,0,0,0,.61.16,1.11,1.11,0,0,0,.59-.16,1.4,1.4,0,0,0,.47-.44,2.23,2.23,0,0,0,.3-.68A3.08,3.08,0,0,0,371.29,173.9Z" style="fill:#263238"></path><path d="M293.93,124.49c-4.54,15.71-14.92,48.07-9.54,58.93,7.07,14.25,35.32,27.06,42.68,30.73,3.21,1.6,15.1-19.09,13.69-22.65s-31.71-21.28-33.52-23.5.86-27.65,0-41.51C306.07,109,297.77,111.18,293.93,124.49Z" style="fill:#f7a9a0"></path><path d="M348.88,200.53c-1-1.52-.23-2.06,2.86-1.07s14.49,7.57,16.44,3.4-14.25-13.2-19.52-14.47-14.26-1.46-14.26-1.46C337.2,189.32,343.45,195.77,348.88,200.53Z" style="fill:#f7a9a0"></path><path d="M319.17,209.37c8.13,6.44,17.87,15,29.48,16.57a5.78,5.78,0,0,0,3.74-.64c5.19.81,7.13-1.39,7.13-1.39,5.06-.73,6.74-3.25,6.74-3.25s6.1.88,7.25-2.71c1.3-4-7.52-4.49-12.22-7.71-10.76-7.38-24-20.87-26.89-23.31Z" style="fill:#f7a9a0"></path><path d="M344.58,210.43a84.69,84.69,0,0,0,9.79,5.93,84.89,84.89,0,0,0,11.81,4.17.1.1,0,0,1,0,.2,44.41,44.41,0,0,1-21.66-10.15C344.34,210.46,344.42,210.33,344.58,210.43Z" style="fill:#263238"></path><path d="M339.18,216.28c3.24,1.88,8.95,5.14,20.36,7.5,0,0,0,.08,0,.07a39.76,39.76,0,0,1-20.45-7.41C338.9,216.3,339,216.16,339.18,216.28Z" style="fill:#263238"></path><path d="M336.34,219.48c5.63,3,9.55,4.15,16,5.78,0,0,0,.08,0,.07-7.56-1.08-10.17-2.33-16.15-5.67C336,219.54,336.12,219.36,336.34,219.48Z" style="fill:#263238"></path><path d="M308.75,145.5l-24.56,4.7s7.95-26.31,12.48-33.39c5.08-8,8.05-3.63,10.05,5.13S308.75,145.5,308.75,145.5Z" style="fill:#FFC727"></path><path d="M308.75,145.5l-24.56,4.7s7.95-26.31,12.48-33.39c5.08-8,8.05-3.63,10.05,5.13S308.75,145.5,308.75,145.5Z" style="opacity:0.1"></path><path d="M307,141.23c-3.21.17-12.75,2.05-14.33,2.35-.84.15-4.13.92-5,1.07-.1,0-.05.18,0,.16,1.59-.28,3.21-.4,4.81-.67s11.37-1.84,14.46-2.79C307.12,141.33,307.1,141.22,307,141.23Z" style="fill:#263238"></path><path d="M292.17,126.9c0-.11-.13-.15-.17-.05-.93,2.15-1.8,4.32-2.63,6.5a20.24,20.24,0,0,1,.81-3.57,0,0,0,1,0-.08,0,16.17,16.17,0,0,0-.93,4.13c-.58,1.52-1.15,3.05-1.69,4.59-1.39,3.9-2.83,7.8-4,11.78a.28.28,0,0,0,.34.35c.85-.19,1.69-.4,2.52-.65a.09.09,0,0,0,0-.17c-.72.05-1.43.13-2.14.22,1.44-3.73,2.7-7.54,4-11.32S290.94,130.86,292.17,126.9Z" style="fill:#263238"></path><path d="M308.76,134.77c.09-1.32.17-2.63.21-4a0,0,0,1,0,0,0c-.1,1-.18,1.93-.25,2.9-.17-1.93-.37-3.86-.66-5.77,0,0,0,0,0,0,0,2.93.18,5.86.26,8.79s.2,5.75.33,8.62c-.54.2-1.08.38-1.63.55a.09.09,0,0,0,0,.17c.62-.09,1.25-.18,1.87-.24a.3.3,0,0,0,.29-.28C309.15,142,309,138.37,308.76,134.77Z" style="fill:#263238"></path></g><g id="freepik--Plant--inject-1"><path d="M405.25,289.13a42.79,42.79,0,0,1-.83,16.41,45.41,45.41,0,0,1-2.52,7.25c-1.3,3-2.66,5.93-2.34,9.21.32.22-.77.18-.8-.14-8.78-5-20-5.91-26.79-14.08-3.2-3.87-4.81-8.77-5.57-13.68-.84-5.34-1.07-11.25.31-16.51,1.16-4.45,3.76-8.75,8-10.93s10-2.06,14.52-.64C399,269.06,403.86,279.64,405.25,289.13Z" style="fill:#FFC727"></path><path d="M409.75,354.1c-1.2-4-2.39-8-3.62-12-2.41-7.8-4.91-15.57-7.68-23.25q-2.49-6.9-5.26-13.67a84.26,84.26,0,0,1,1.05-8.48c.74-3.4,1.8-6.69,2.79-10,.06-.2-.27-.31-.35-.12-2,4.59-4.54,10.46-4.61,15.89q-3.21-7.65-6.89-15.09a64.62,64.62,0,0,1,.38-12.58c0-.19-.26-.25-.29-.06a44.26,44.26,0,0,0-.86,11.1q-2.84-5.58-6-11c-.19-.33-.64,0-.48.33,3.3,6.35,6.36,12.83,9.23,19.4a42.12,42.12,0,0,0-13.76-8c-.22-.08-.38.24-.16.33a50,50,0,0,1,14.88,9.86q3.11,7.22,5.9,14.54c-5.49-5.38-13-8.92-20.27-10.82-.25-.07-.32.31-.08.39,8.41,2.53,14.95,7.3,21.35,13q1.11,3,2.18,5.94c2.72,7.52,5.28,15.09,7.75,22.69q1.77,5.47,3.48,11c1.23,3.93,2.19,8.09,3.79,11.89.15.36.8.28.72-.15A111.53,111.53,0,0,0,409.75,354.1Z" style="fill:#263238"></path><path d="M395.2,281.45a21.72,21.72,0,0,0-3.17,7.88c0,.07.1.11.13,0a68.32,68.32,0,0,1,3.43-7.73C395.72,281.38,395.34,281.22,395.2,281.45Z" style="fill:#263238"></path><path d="M379.54,299.73a23.17,23.17,0,0,0-7.88-2.65c-.07,0-.11.1,0,.13,1.27.52,2.6.89,3.88,1.38s2.54,1.1,3.84,1.55A.23.23,0,0,0,379.54,299.73Z" style="fill:#263238"></path><path d="M375.13,277.74a15.52,15.52,0,0,0-2.54-1.57.14.14,0,0,0-.14.23A16.22,16.22,0,0,0,375,278C375.11,278.11,375.29,277.84,375.13,277.74Z" style="fill:#263238"></path><path d="M434.83,318.94c-6.32,1.88-12.67,3.61-19,5.46-.55.17-11.23-20.31-7.37-30.85,3.57-9.77,11.74-17.07,21.48-20.39,4.51-1.53,10.06-2.82,14.83-1.77,4.24.94,7.23,4.41,8.61,8.4,1.88,5.41,1.25,11.88.23,17.41a30.37,30.37,0,0,1-6.22,14.21C444,315.4,439.76,317.48,434.83,318.94Z" style="fill:#FFC727"></path><path d="M444,299.48a84.24,84.24,0,0,1-12.4,4.88,52.19,52.19,0,0,0-8.27,3c2.67-6,5.6-11.77,8.71-17.55,4.08-1.18,8.38-3,11.46-5.91a.18.18,0,0,0-.23-.27c-3.37,2.38-7.09,3.81-10.81,5.42.84-1.55,1.69-3.11,2.55-4.65.24-.43-.35-.86-.64-.44a133.83,133.83,0,0,0-9,15.08,68.58,68.58,0,0,1-.65-13.82.1.1,0,0,0-.19,0,46,46,0,0,0,.16,15.18c-2.22,4.43-4.24,9-6,13.55-.72-2.76-1.66-5.47-2.28-8.25a37.77,37.77,0,0,1-.91-12.17.09.09,0,1,0-.18,0,42.84,42.84,0,0,0,2.65,22.33c-1.06,2.76-2.07,5.54-3,8.32A165.6,165.6,0,0,0,406.56,368a.27.27,0,0,0,.54,0,216.91,216.91,0,0,1,9.41-43.34c1.84-5.51,3.95-10.86,6.26-16.11,3.74-1.1,7.45-2.6,11.12-3.87a34.7,34.7,0,0,0,10.25-5C444.26,299.6,444.13,299.41,444,299.48Z" style="fill:#263238"></path><path d="M449.89,293.53c-3.86,1.38-7.53,3.3-11.39,4.7-.18.06-.08.35.11.31,4.08-.84,8.14-2.11,11.43-4.79C450.16,293.65,450,293.48,449.89,293.53Z" style="fill:#263238"></path><path d="M418.33,285.19c0-.2-.26-.32-.32-.11-1.06,3.56-1.79,7.34-.76,11,0,.14.27.14.27,0C417.71,292.38,417.5,288.81,418.33,285.19Z" style="fill:#263238"></path><path d="M434.3,277a9.43,9.43,0,0,0-1.68,6.06c0,.14.22.21.26.05.47-2,1.26-3.89,1.89-5.87A.27.27,0,0,0,434.3,277Z" style="fill:#263238"></path><path d="M359.65,328c1.85,5.88,6.26,14,13.23,14.08,4.52,0,9.07-.5,13.6-.56,4.86-.08,9.72-.07,14.56.22.4,0-.58-14.53-12.24-21.61-3.27-2-7.27-2.62-11-3.42a51,51,0,0,0-13-1.35c-2.68.11-4.91.68-5.86,3.42S358.76,325.17,359.65,328Z" style="fill:#FFC727"></path><path d="M364.67,320.61c2.83.73,5.69,1.57,8.53,2.47a28.22,28.22,0,0,0-2.35-2.29,47.2,47.2,0,0,0-3.87-2.72c-.11-.07,0-.28.1-.23a16,16,0,0,1,6.87,5.47c3.55,1.15,7.06,2.41,10.44,3.8a38.87,38.87,0,0,1,6.68,3.52,26.24,26.24,0,0,0-2.42-4.21c-1.55-2-3.64-3.12-5.67-4.55a.18.18,0,0,1,.19-.31,16.58,16.58,0,0,1,9.09,9.86,39.34,39.34,0,0,1,6.62,6c7.71,8.76,13.79,20.42,13.81,32.32,0,.29-.45.37-.51.07a66,66,0,0,0-14.71-31.6c-.56-.65-1.12-1.26-1.7-1.86a54.11,54.11,0,0,0-6.37-.47c-2.49,0-4.95.37-7.42.57-4.07.33-8.58.37-12.25-1.67-.16-.09-.05-.37.13-.31,8.19,3,16.77-.8,25,1a38.38,38.38,0,0,0-12.1-7.81l-.75-.3c-5.26.63-10.81,2-15.92.29-.15-.05-.09-.28.06-.24,4.95,1.24,9.69-.32,14.57-.56-5.31-2.07-10.73-3.72-16.06-5.77C364.19,320.9,364.18,320.49,364.67,320.61Z" style="fill:#263238"></path><path d="M362.35,325.78a67.55,67.55,0,0,0,7.65.58c.06,0,.07.1,0,.11a15.89,15.89,0,0,1-7.71-.49A.1.1,0,0,1,362.35,325.78Z" style="fill:#263238"></path><path d="M379.62,320.74a12.35,12.35,0,0,1,3.79,2.63c.13.12-.05.36-.2.25-.64-.47-1.3-.91-2-1.34a18.53,18.53,0,0,1-1.85-1.16A.23.23,0,0,1,379.62,320.74Z" style="fill:#263238"></path><path d="M420.8,339.67c-.09.2.19.38.3.18,0,0,0,0,0,0a.28.28,0,0,0,.18.11,117.35,117.35,0,0,0,14.25,2.49c3.86.34,8.3.56,11.68-1.68,4.57-3,7.58-11.14,5.11-16.3-2.93-6.11-11.75-2.79-16.17-.62A32.51,32.51,0,0,0,420.8,339.67Z" style="fill:#FFC727"></path><path d="M417.38,342.5a44.89,44.89,0,0,1,8.51-6.47,29.17,29.17,0,0,1,8.62-8.8c.17-.11.31.15.16.27a39,39,0,0,0-7.27,7.65,80.93,80.93,0,0,1,10.67-4.86,14.23,14.23,0,0,1,5.74-5.74s.1,0,.06.08a23.6,23.6,0,0,0-5.18,5.43c2.17-.81,4.36-1.56,6.55-2.29.19-.06.27.24.08.31-3.9,1.52-7.88,3.13-11.74,5a45.22,45.22,0,0,0,14.22,0,.1.1,0,1,1,.05.2,28,28,0,0,1-15.08.23,71.29,71.29,0,0,0-7.16,4,17.83,17.83,0,0,1,5.79.48,44,44,0,0,0,10.16,1.15c.13,0,.16.21,0,.23-5.9,1-11.47-1.67-17.32-1a45.31,45.31,0,0,0-6.08,5,46,46,0,0,0-8.88,12.52c-2.46,5-3.79,10.32-5.78,15.49a.19.19,0,0,1-.36-.1C404.87,361,410,349.77,417.38,342.5Z" style="fill:#263238"></path><path d="M435.16,328.51a7,7,0,0,1,1.51-1.83,6.1,6.1,0,0,1,1.74-1.3.06.06,0,0,1,.06.1c-.48.55-1.16.95-1.68,1.47s-1,1.15-1.49,1.67C435.23,328.69,435.12,328.6,435.16,328.51Z" style="fill:#263238"></path><path d="M444.89,331.68c.87-.22,1.8-.2,2.69-.38a26,26,0,0,0,2.6-.79.11.11,0,0,1,.08.2,8.64,8.64,0,0,1-5.37,1.24C444.75,331.93,444.76,331.71,444.89,331.68Z" style="fill:#263238"></path><polygon points="393.08 358.65 393.86 367.44 396.49 397.12 419.73 397.12 423.01 367.44 423.98 358.65 393.08 358.65" style="fill:#455a64"></polygon><polygon points="393.08 358.65 393.86 367.44 423.01 367.44 423.98 358.65 393.08 358.65" style="fill:#263238"></polygon><rect x="390.78" y="356.26" width="35.49" height="7.13" transform="translate(817.06 719.64) rotate(180)" style="fill:#455a64"></rect></g><g id="freepik--box-1--inject-1"><rect x="55.56" y="385.04" width="51.24" height="56.74" style="fill:#FFC727"></rect><rect x="55.56" y="385.04" width="51.24" height="56.74" style="opacity:0.1"></rect><rect x="106.79" y="385.04" width="26.46" height="56.74" style="fill:#FFC727"></rect><polygon points="85.52 397.3 84.44 397.3 83.62 397.3 83.16 396.36 82.5 397.3 81.62 395.36 80.78 397.3 78.38 397.3 77.29 397.3 76.89 396.01 76.52 397.3 75.81 397.3 75.81 385.04 85.52 385.04 85.52 397.3" style="fill:#fff"></polygon><g style="opacity:0.1"><path d="M131.42,437.87q-2.94-6-5.82-12.14l-5.74-12.2-5.67-12.26q-2.82-6.13-5.58-12.32,2.94,6.06,5.83,12.14l5.74,12.21,5.66,12.25Q128.66,431.7,131.42,437.87Z"></path><path d="M131.42,389q-2.76,6.18-5.58,12.32l-5.66,12.26-5.74,12.2q-2.88,6.09-5.83,12.14,2.76-6.18,5.58-12.32l5.67-12.25,5.74-12.21Q128.48,395,131.42,389Z"></path></g><polygon points="47.05 397.31 98.28 397.31 106.78 385.04 55.56 385.04 47.05 397.31" style="fill:#FFC727"></polygon><g style="opacity:0.2"><polygon points="47.05 397.31 98.28 397.31 106.78 385.04 55.56 385.04 47.05 397.31"></polygon></g><polygon points="115.29 397.32 141.67 397.32 133.16 385.04 106.78 385.04 115.29 397.32" style="fill:#FFC727"></polygon><polygon points="115.29 397.32 141.67 397.32 133.16 385.04 106.78 385.04 115.29 397.32" style="opacity:0.1"></polygon><path d="M71,408.64l2.3,6.45,2.28-6.45h1.74L74,417.16h-1.4l-3.34-8.52Z" style="fill:#263238"></path><path d="M82.74,415.71v1.45H77.87v-1.45h1.7v-3.63a1.3,1.3,0,0,1-.34.29c-.16.1-.33.19-.51.28a3.54,3.54,0,0,1-.57.22,2.2,2.2,0,0,1-.52.08v-1.5a1.27,1.27,0,0,0,.53-.14,4.56,4.56,0,0,0,.61-.33,4.68,4.68,0,0,0,.52-.37,1.36,1.36,0,0,0,.28-.3h1.65v5.4Z" style="fill:#263238"></path><path d="M83.72,417.16v-1.72H85v1.72Z" style="fill:#263238"></path><path d="M92.51,413.65a4.34,4.34,0,0,1-.24,1.46,3.51,3.51,0,0,1-.65,1.15,2.88,2.88,0,0,1-1,.75,2.84,2.84,0,0,1-1.23.27,2.77,2.77,0,0,1-1.23-.27,2.88,2.88,0,0,1-1-.75,3.51,3.51,0,0,1-.65-1.15,4.34,4.34,0,0,1-.24-1.46,4.26,4.26,0,0,1,.24-1.46A3.41,3.41,0,0,1,87.2,411a2.79,2.79,0,0,1,1-.76,2.65,2.65,0,0,1,1.23-.28,2.71,2.71,0,0,1,1.23.28,2.79,2.79,0,0,1,1,.76,3.41,3.41,0,0,1,.65,1.15A4.26,4.26,0,0,1,92.51,413.65Zm-1.62,0a3.56,3.56,0,0,0-.11-.89,2.24,2.24,0,0,0-.31-.68,1.43,1.43,0,0,0-.47-.45,1.16,1.16,0,0,0-.59-.16,1.19,1.19,0,0,0-.6.16,1.34,1.34,0,0,0-.47.45,2,2,0,0,0-.31.68,3.56,3.56,0,0,0-.11.89,3.34,3.34,0,0,0,.11.87,2.08,2.08,0,0,0,.31.69,1.31,1.31,0,0,0,.47.44,1.19,1.19,0,0,0,.6.16,1.16,1.16,0,0,0,.59-.16,1.4,1.4,0,0,0,.47-.44,2.3,2.3,0,0,0,.31-.69A3.34,3.34,0,0,0,90.89,413.65Z" style="fill:#263238"></path></g></svg>