<svg xmlns="http://www.w3.org/2000/svg" viewBox="0 0 500 500"><g id="freepik--background-complete--inject-878"><path d="M271.12,208.63H189.27s4.06-5.3,8.55-6c0,0,8.73-26,23.34-26.16,13.58-.17,19,16,19,16s6.29-7.25,12.3-3.94,9.42,12.8,9.42,12.8S268.67,205,271.12,208.63Z" style="fill:#ebebeb"></path><path d="M320.23,89.4h-55.6s2.77-3.6,5.81-4.05c0,0,5.93-17.64,15.85-17.77,9.23-.12,12.93,10.85,12.93,10.85s4.27-4.92,8.36-2.67S314,84.45,314,84.45,318.56,86.93,320.23,89.4Z" style="fill:#ebebeb"></path><path d="M365.45,145.81H469s0-6.61-14.26-7.91c0,0-13-28.9-32.9-25-12.38,2.42-18.7,19.42-18.7,19.42s-9.36-13.38-16.84-10.79-11.93,16.83-11.93,16.83S366.62,142.07,365.45,145.81Z" style="fill:#ebebeb"></path><path d="M84.55,155.4h70.39s-6.64-6.18-9.59-6.18-11.57-20.76-22.58-19.88-16.85,16.34-16.85,16.34S92.53,141.49,84.55,155.4Z" style="fill:#ebebeb"></path><path d="M31,206.14H67.68s-3.46-3.22-5-3.22-6-10.8-11.75-10.34-8.77,8.5-8.77,8.5S35.19,198.9,31,206.14Z" style="fill:#ebebeb"></path><path d="M372.24,238.69h60.19s-3-3.89-6.29-4.38c0,0-6.42-19.1-17.16-19.24-10-.13-14,11.75-14,11.75s-4.62-5.33-9-2.89-6.93,9.41-6.93,9.41S374,236,372.24,238.69Z" style="fill:#ebebeb"></path><path d="M28.08,325.77s33.11-22.17,45-22.76,19.61,2.92,27.92,2.34,48.59-42.3,65.81-42.53,46,9.92,53,7.78,54.56-32.39,73.89-32.39c33.81,0,63.29,58.66,77.85,56.77s26.43-2.47,37.68,1.91,62.71,28.88,62.71,28.88Z" style="fill:#ebebeb"></path></g><g id="freepik--Sun--inject-878"><circle cx="154.8" cy="88.81" r="28.44" transform="translate(-22.12 65.37) rotate(-22.3)" style="fill:#FFC727;opacity:0.6000000000000001"></circle><circle cx="154.8" cy="88.81" r="21.78" transform="translate(13.21 197.44) rotate(-67.34)" style="fill:#FFC727"></circle></g><g id="freepik--Trees--inject-878"><polygon points="13.4 325.77 72.55 325.52 131.7 325.44 250 325.27 368.3 325.44 427.45 325.52 486.6 325.77 427.45 326.01 368.3 326.1 250 326.27 131.7 326.1 72.55 326.01 13.4 325.77" style="fill:#263238"></polygon><path d="M477.22,319.18c-.48.48-6.05.69-8.08.69s-7.6-.21-8.08-.69,6.27-37.53,8.08-37.53S477.7,318.7,477.22,319.18Z" style="fill:#455a64"></path><path d="M477.33,309.74c-1.38.52-6.48,2.6-7.58,3.21v-.7l3.7-2.16c1.32-.77,2.74-1.46,4-2.36.06-.05,0-.17-.06-.14a34.27,34.27,0,0,0-3.89,2.15c-1.26.74-2.5,1.5-3.73,2.26,0-1.77,0-3.55,0-5.32a43,43,0,0,0,5.82-3c.06,0,0-.15-.05-.12a42.28,42.28,0,0,0-5.77,2.84c0-.93,0-1.85,0-2.77-.05-4.76-.06-9.52-.18-14.27,1.21-.61,2.46-1.15,3.67-1.76.08,0,0-.18-.07-.15-1.22.48-2.4,1.05-3.61,1.58-.06-2.45-.16-4.91-.31-7.35a.06.06,0,1,0-.12,0c-.17,4.55-.16,9.11-.1,13.67-1.25-1-2.59-1.89-3.87-2.86,0,0-.09.05,0,.08,1.33,1,2.58,2.14,3.91,3.15,0,.26,0,.52,0,.78-1.35-.63-2.73-1.2-4.11-1.79-.1-.05-.2.11-.09.16,1.4.67,2.79,1.35,4.21,2,0,2.25.07,4.51.1,6.77,0,3.94.14,7.88.22,11.82-2.56-1.3-5.15-2.56-7.75-3.78-.1,0-.19.09-.09.14a79.93,79.93,0,0,0,7.85,3.94c.07,3.28.13,6.55.18,9.83a.16.16,0,0,0,.31,0c-.05-4.18-.06-8.35-.07-12.53a79.09,79.09,0,0,0,7.68-3.12C477.55,309.91,477.46,309.69,477.33,309.74Z" style="fill:#37474f"></path><path d="M378.85,319.33c-.47.47-5.91.68-7.89.68s-7.42-.21-7.89-.68,6.12-36.65,7.89-36.65S379.32,318.87,378.85,319.33Z" style="fill:#455a64"></path><path d="M379,310.11c-1.35.52-6.33,2.54-7.4,3.14,0-.23,0-.46,0-.68,1.2-.71,2.41-1.41,3.62-2.11s2.68-1.43,3.89-2.31c.05,0,0-.17-.06-.13a31.29,31.29,0,0,0-3.8,2.1c-1.23.72-2.44,1.46-3.65,2.2,0-1.73,0-3.47,0-5.2a41.53,41.53,0,0,0,5.68-2.89c.06,0,0-.15,0-.12a40.87,40.87,0,0,0-5.63,2.78c0-.9,0-1.81,0-2.71-.05-4.64-.06-9.29-.18-13.93,1.18-.6,2.4-1.12,3.58-1.72.08,0,0-.18-.06-.15-1.2.47-2.35,1-3.53,1.54-.06-2.39-.15-4.79-.3-7.18a.06.06,0,0,0-.12,0c-.17,4.45-.15,8.9-.1,13.35-1.22-1-2.53-1.84-3.77-2.79,0,0-.1.05,0,.08,1.3,1,2.52,2.09,3.83,3.08,0,.25,0,.5,0,.76-1.33-.61-2.68-1.18-4-1.75-.1,0-.2.11-.09.16,1.37.65,2.73,1.32,4.11,1.94,0,2.2.07,4.41.1,6.61.05,3.85.13,7.7.22,11.55-2.51-1.27-5-2.5-7.57-3.7-.1,0-.19.09-.09.15a80.62,80.62,0,0,0,7.66,3.85c.07,3.2.14,6.39.18,9.59a.15.15,0,1,0,.3,0c-.05-4.08-.05-8.16-.06-12.24a72,72,0,0,0,7.49-3.05C379.17,310.27,379.09,310.06,379,310.11Z" style="fill:#37474f"></path><path d="M455.31,318.85c-.51.5-6.36.72-8.49.72s-8-.22-8.49-.72,6.59-39.42,8.49-39.42S455.81,318.35,455.31,318.85Z" style="fill:#37474f"></path><path d="M455.42,308.93c-1.44.55-6.8,2.74-8,3.37v-.73l3.88-2.27a46.13,46.13,0,0,0,4.19-2.48c.06-.05,0-.18-.06-.14a34,34,0,0,0-4.09,2.26c-1.32.77-2.62,1.57-3.92,2.37,0-1.87,0-3.73,0-5.6a43.26,43.26,0,0,0,6.11-3.1c.07,0,0-.16-.05-.13a44.78,44.78,0,0,0-6.06,3c0-1,0-1.94,0-2.91-.05-5-.06-10-.19-15,1.27-.64,2.58-1.21,3.85-1.85.08,0,0-.19-.06-.15-1.29.5-2.53,1.1-3.8,1.65-.07-2.57-.17-5.15-.32-7.72a.07.07,0,0,0-.14,0c-.17,4.78-.16,9.57-.1,14.36-1.32-1.06-2.72-2-4.06-3,0,0-.1,0,0,.08,1.4,1.07,2.71,2.25,4.12,3.31,0,.27,0,.54,0,.81-1.43-.65-2.88-1.26-4.32-1.87-.11-.05-.21.11-.1.16,1.47.71,2.93,1.43,4.42,2.09q.06,3.56.11,7.11c.05,4.14.14,8.28.23,12.42q-4-2-8.14-4c-.11-.05-.2.1-.09.15a83.46,83.46,0,0,0,8.24,4.14c.07,3.44.14,6.88.18,10.32a.17.17,0,0,0,.33,0c0-4.39-.06-8.77-.07-13.16a80,80,0,0,0,8.06-3.28C455.66,309.11,455.56,308.88,455.42,308.93Z" style="fill:#455a64"></path><path d="M396.75,318.85c-.5.5-6.35.72-8.48.72s-8-.22-8.49-.72,6.59-39.42,8.49-39.42S397.26,318.35,396.75,318.85Z" style="fill:#37474f"></path><path d="M396.87,308.93c-1.44.55-6.8,2.74-8,3.37v-.73l3.88-2.27a47.54,47.54,0,0,0,4.19-2.48c.06-.05,0-.18-.06-.14a34.86,34.86,0,0,0-4.1,2.26c-1.31.77-2.62,1.57-3.91,2.37l0-5.6a43.26,43.26,0,0,0,6.11-3.1.07.07,0,0,0-.06-.13,45.25,45.25,0,0,0-6.05,3c0-1,0-1.94,0-2.91-.05-5-.06-10-.19-15,1.27-.64,2.58-1.21,3.85-1.85.08,0,0-.19-.07-.15-1.28.5-2.53,1.1-3.79,1.65-.07-2.57-.17-5.15-.32-7.72a.07.07,0,0,0-.14,0c-.18,4.78-.16,9.57-.1,14.36-1.32-1.06-2.72-2-4.06-3-.05,0-.1,0-.05.08,1.4,1.07,2.71,2.25,4.11,3.31,0,.27,0,.54,0,.81-1.42-.65-2.87-1.26-4.31-1.87-.12-.05-.22.11-.1.16,1.47.71,2.93,1.43,4.42,2.09q0,3.56.11,7.11c0,4.14.14,8.28.23,12.42q-4.05-2-8.14-4c-.11-.05-.2.1-.09.15a84.41,84.41,0,0,0,8.23,4.14c.08,3.44.15,6.88.19,10.32a.17.17,0,0,0,.33,0c-.05-4.39-.06-8.77-.07-13.16a80,80,0,0,0,8.06-3.28C397.1,309.11,397,308.88,396.87,308.93Z" style="fill:#455a64"></path><path d="M288.12,318.85c-.5.5-6.36.72-8.48.72s-8-.22-8.49-.72,6.59-39.42,8.49-39.42S288.62,318.35,288.12,318.85Z" style="fill:#37474f"></path><path d="M288.24,308.93c-1.45.55-6.81,2.74-8,3.37,0-.24,0-.49,0-.73l3.89-2.27a47.37,47.37,0,0,0,4.18-2.48c.07-.05,0-.18-.06-.14a34,34,0,0,0-4.09,2.26c-1.32.77-2.62,1.57-3.92,2.37,0-1.87,0-3.73,0-5.6a43.8,43.8,0,0,0,6.11-3.1c.06,0,0-.16-.06-.13a44.09,44.09,0,0,0-6.05,3c0-1,0-1.94,0-2.91-.06-5-.07-10-.19-15,1.27-.64,2.58-1.21,3.84-1.85.09,0,0-.19-.06-.15-1.29.5-2.53,1.1-3.79,1.65-.07-2.57-.17-5.15-.33-7.72a.07.07,0,1,0-.13,0c-.18,4.78-.16,9.57-.1,14.36-1.32-1.06-2.72-2-4.06-3-.05,0-.11,0-.05.08,1.4,1.07,2.71,2.25,4.11,3.31,0,.27,0,.54,0,.81-1.43-.65-2.87-1.26-4.32-1.87-.11-.05-.21.11-.09.16,1.46.71,2.93,1.43,4.42,2.09,0,2.37.07,4.74.1,7.11.06,4.14.15,8.28.23,12.42q-4-2-8.14-4c-.1-.05-.19.1-.09.15a85.72,85.72,0,0,0,8.24,4.14c.07,3.44.15,6.88.19,10.32,0,.21.33.21.32,0,0-4.39,0-8.77-.06-13.16a80.93,80.93,0,0,0,8.06-3.28C288.47,309.11,288.38,308.88,288.24,308.93Z" style="fill:#455a64"></path><path d="M430.34,320.93c.36.35,4.45.51,5.93.51s5.58-.16,5.93-.51-4.6-27.54-5.93-27.54S430,320.58,430.34,320.93Z" style="fill:#455a64"></path><path d="M430.26,314c1,.39,4.76,1.91,5.57,2.36v-.51l-2.72-1.59a30.78,30.78,0,0,1-2.92-1.74s0-.12,0-.09a22.78,22.78,0,0,1,2.86,1.58c.92.54,1.83,1.09,2.74,1.65,0-1.3,0-2.6,0-3.91a29.53,29.53,0,0,1-4.27-2.17c-.05,0,0-.11,0-.09a31.34,31.34,0,0,1,4.23,2.09c0-.68,0-1.36,0-2,0-3.48.05-7,.13-10.47-.88-.45-1.8-.84-2.69-1.29-.05,0,0-.13.05-.11.9.35,1.77.77,2.65,1.16.05-1.8.12-3.6.23-5.4a0,0,0,1,1,.09,0c.13,3.34.11,6.69.07,10,.92-.73,1.9-1.38,2.84-2.09,0,0,.07,0,0,.06-1,.74-1.89,1.57-2.87,2.31,0,.19,0,.38,0,.57,1-.46,2-.88,3-1.31.08,0,.15.08.07.11-1,.5-2.05,1-3.09,1.46,0,1.66-.05,3.32-.07,5,0,2.9-.11,5.79-.17,8.68,1.88-1,3.78-1.88,5.69-2.77.07,0,.14.06.07.1a60.83,60.83,0,0,1-5.76,2.9c-.05,2.4-.1,4.8-.13,7.21,0,.14-.23.14-.23,0,0-3.07,0-6.13.05-9.2a56.85,56.85,0,0,1-5.64-2.29C430.1,314.12,430.16,314,430.26,314Z" style="fill:#37474f"></path><path d="M261.92,320.93c.35.35,4.44.51,5.93.51s5.58-.16,5.93-.51-4.61-27.54-5.93-27.54S261.56,320.58,261.92,320.93Z" style="fill:#455a64"></path><path d="M261.83,314c1,.39,4.76,1.91,5.57,2.36v-.51c-.9-.54-1.81-1.06-2.72-1.59a30.78,30.78,0,0,1-2.92-1.74s0-.12,0-.09a22.78,22.78,0,0,1,2.86,1.58c.92.54,1.83,1.09,2.74,1.65,0-1.3,0-2.6,0-3.91a29.53,29.53,0,0,1-4.27-2.17s0-.11,0-.09a31.34,31.34,0,0,1,4.23,2.09c0-.68,0-1.36,0-2,0-3.48.05-7,.14-10.47-.89-.45-1.81-.84-2.69-1.29-.06,0,0-.13,0-.11.9.35,1.77.77,2.65,1.16.05-1.8.12-3.6.23-5.4a0,0,0,1,1,.09,0c.13,3.34.12,6.69.07,10,.92-.73,1.9-1.38,2.84-2.09,0,0,.07,0,0,.06-1,.74-1.9,1.57-2.88,2.31,0,.19,0,.38,0,.57,1-.46,2-.88,3-1.31.08,0,.15.08.07.11-1,.5-2.05,1-3.09,1.46,0,1.66-.05,3.32-.07,5q-.06,4.35-.17,8.68c1.89-1,3.78-1.88,5.69-2.77.08,0,.14.06.07.1a59.66,59.66,0,0,1-5.76,2.9c0,2.4-.1,4.8-.13,7.21a.12.12,0,0,1-.23,0c0-3.07,0-6.13,0-9.2a56.85,56.85,0,0,1-5.64-2.29C261.67,314.12,261.74,314,261.83,314Z" style="fill:#37474f"></path><path d="M392.89,320.93c.35.35,4.44.51,5.93.51s5.58-.16,5.93-.51-4.61-27.54-5.93-27.54S392.54,320.58,392.89,320.93Z" style="fill:#455a64"></path><path d="M392.81,314c1,.39,4.75,1.91,5.56,2.36v-.51c-.9-.54-1.81-1.06-2.71-1.59a29.73,29.73,0,0,1-2.93-1.74s0-.12,0-.09a22.78,22.78,0,0,1,2.86,1.58c.92.54,1.84,1.09,2.74,1.65,0-1.3,0-2.6,0-3.91a29.53,29.53,0,0,1-4.27-2.17s0-.11,0-.09a31.34,31.34,0,0,1,4.23,2.09c0-.68,0-1.36,0-2,0-3.48,0-7,.13-10.47-.89-.45-1.8-.84-2.69-1.29-.06,0,0-.13,0-.11.9.35,1.77.77,2.66,1.16,0-1.8.11-3.6.22-5.4,0-.06.09-.06.09,0,.13,3.34.12,6.69.08,10,.92-.73,1.9-1.38,2.83-2.09,0,0,.07,0,0,.06-1,.74-1.9,1.57-2.88,2.31v.57c1-.46,2-.88,3-1.31.08,0,.15.08.07.11-1,.5-2.05,1-3.09,1.46,0,1.66-.05,3.32-.07,5,0,2.9-.1,5.79-.16,8.68,1.88-1,3.78-1.88,5.69-2.77a.06.06,0,1,1,.06.1,58.53,58.53,0,0,1-5.76,2.9c-.05,2.4-.1,4.8-.13,7.21a.12.12,0,0,1-.23,0c0-3.07,0-6.13.05-9.2a57.67,57.67,0,0,1-5.63-2.29C392.64,314.12,392.71,314,392.81,314Z" style="fill:#37474f"></path></g><g id="freepik--Mountains--inject-878"><path d="M340.34,403c4.24,11.59,147.07,20.21,147.07,34.43,0,11.58-87.7,20.77-98.94,32.48s-20,29.53-20,29.53H500V318.75s-77.84,8.49-92.72,21.69,27.26,13.52,27.26,23.61c0,8.14-27.5,8.32-41.91,12.29C367.45,383.27,336.9,393.57,340.34,403Z" style="fill:#455a64"></path><path d="M498.23,340.93c-1.78,2.66-6.65,7-13,10.31s-19.29,13.3-22.28,16-25.61,9.31-30.55,9.13-33.51-1.4-39.8,0c14.41-4,41.91-4.15,41.91-12.29,0-7.71-24.6-9.72-29.57-16.12.36.09,6.28,1.71,11.87,3.65,5.77,2,37.49,5.65,41.81,3.75s14.64-8.41,20.29-11.74S500,338.27,498.23,340.93Z" style="fill:#37474f"></path><path d="M213.75,500s-1.27-14.74-37.89-37.52-55.28-31.51-54-47.39c1.7-21.72,98.37-31.11,160.59-40.09,42-6.06,69.25-9.56,69.25-19.59,0-10.64-47.26-15.43-47.26-22.74,0-8.41,109.8-6.9,109.8-6.9s-111.11-5.56-135-5.56S209.4,296,187.66,293.38,154,298.75,130.14,298,92.62,274.81,61.57,266.8,0,290.72,0,290.72V500Z" style="fill:#455a64"></path><path d="M144.38,443c-17.27-7.3-64.3-13.87-76.7-23.89S43.56,389,41.32,384.58,69.91,370.31,75,365.65s38.58,13.82,48.11,17.11,62.3,3.51,67.62,3.29,15.81-.5,16.34-.52c-44.64,6.91-84.18,15.74-85.26,29.56C121,425.48,128.71,432.8,144.38,443Z" style="fill:#37474f"></path><path d="M221.33,363.88c-.62,2.05-25.94-1.77-30.15-5.54s-10-9.31-10.86-11.53,11.75,2.22,15.07,4.43,14.19,4.44,17.74,6.21S221.67,362.76,221.33,363.88Z" style="fill:#37474f"></path></g><g id="freepik--Floor--inject-878"><path d="M0,500s29-25.65,42.33-35.48c8.59-6.31,61.8-7.08,68.89-8.74s31.31-16.8,48-25.77,79.34-3.21,90.76-3.38,26.52-13.16,45-17.61c36.63-8.81,88,.2,98.31,4.26,29.29,11.5,34.58,43.16,73,52.44,10.59,2.56,28.41,23.79,33.7,34.28H0Z" style="fill:#37474f"></path><path d="M216,500H69.91s54.9-19.83,64.86-29.36-1.57-13.53,2.2-20.35,25.68-19.77,39-24.28h0c25.13-2.71,65.12.76,74,.63a18.9,18.9,0,0,0,3.35-.38c-14.58,6.42-46.7,19.94-43.09,23.85,2.53,2.73,18.54,11.22,38.33,10.19,11.09-.57,8.71,10.63,9.34,15.54C259.32,486.65,216,500,216,500Z" style="fill:#263238;opacity:0.5"></path><path d="M438,476.84c-2-3-16.31-1.5-41,1.77s-48.23.07-43.1-3.39c3.62-2.44,35.78-3.24,43.1-5.79s24.08-3.25,30.73-6.95-1.82-20.11-8.8-30.27c12.17,13,23.22,27.67,47.37,33.51,10.59,2.56,28.41,23.79,33.7,34.28H302.82s55.07-4.7,68.2-5.79S440,479.83,438,476.84Z" style="fill:#263238;opacity:0.5"></path></g><g id="freepik--Birds--inject-878"><path d="M240.78,113.39a17.44,17.44,0,0,0-2.22-1,9,9,0,0,0-2.42-.56,2,2,0,0,0-.75.08,1.66,1.66,0,0,0-.24.11l-.14.11a3,3,0,0,0-.26.21,12.45,12.45,0,0,0-.89.89c-.54.62-1,1.26-1.51,1.91l.6-.21a18.83,18.83,0,0,0-2.48-.52,10.73,10.73,0,0,0-1.29-.09,4.15,4.15,0,0,0-.69,0,2.7,2.7,0,0,0-.36.09,2.09,2.09,0,0,0-.37.17,4.21,4.21,0,0,0-1,.94,11.41,11.41,0,0,0-.73,1,15,15,0,0,0-1.15,2.21c.53-.63,1-1.27,1.59-1.88a9.66,9.66,0,0,1,.83-.86,3.75,3.75,0,0,1,.87-.68,2.33,2.33,0,0,1,1-.1,9.61,9.61,0,0,1,1.15.16c.78.14,1.57.33,2.33.54l.39.1.22-.31c.44-.64.92-1.27,1.41-1.88a10.41,10.41,0,0,1,.74-.86c.07-.06.13-.13.19-.17l.09-.08,0,0a1.05,1.05,0,0,1,.42-.09,12.31,12.31,0,0,1,2.29.22C239.21,113.08,240,113.24,240.78,113.39Z" style="fill:#263238"></path><path d="M232,137a25.38,25.38,0,0,0-3-2,14.21,14.21,0,0,0-3.4-1.53,3.05,3.05,0,0,0-1.13-.1,1.36,1.36,0,0,0-.37.1l-.25.11a4.76,4.76,0,0,0-.45.24,16.15,16.15,0,0,0-1.55,1.05c-1,.74-1.88,1.54-2.79,2.36l.95-.13a27.52,27.52,0,0,0-3.49-1.49,13.49,13.49,0,0,0-1.87-.51,6.61,6.61,0,0,0-1-.13,3.71,3.71,0,0,0-.57,0c-.2,0-.4.1-.6.15a6.79,6.79,0,0,0-1.71,1.1,16.92,16.92,0,0,0-1.37,1.3,23.29,23.29,0,0,0-2.34,2.91c1-.78,1.91-1.57,2.89-2.3.48-.36,1-.72,1.47-1a5.85,5.85,0,0,1,1.48-.74,3.36,3.36,0,0,1,1.45.14,13.45,13.45,0,0,1,1.65.57c1.1.43,2.21.95,3.27,1.47l.53.27.42-.4c.84-.81,1.73-1.59,2.61-2.34.45-.38.9-.74,1.35-1.05l.33-.21.16-.08s0,0,.06,0a2,2,0,0,1,.65,0,17.57,17.57,0,0,1,3.29,1C229.82,136.09,230.92,136.56,232,137Z" style="fill:#263238"></path><path d="M90.89,82.36a19.58,19.58,0,0,0-2-1.3,9.84,9.84,0,0,0-2.3-1,2.28,2.28,0,0,0-.76,0,1.27,1.27,0,0,0-.24.07l-.17.09-.29.16a10.93,10.93,0,0,0-1,.74c-.64.51-1.23,1.07-1.81,1.63l.63-.11a19.82,19.82,0,0,0-2.36-.91,10.07,10.07,0,0,0-1.26-.3,3.75,3.75,0,0,0-.69-.07,2.4,2.4,0,0,0-.37,0,3,3,0,0,0-.4.11,4.43,4.43,0,0,0-1.12.77,12.6,12.6,0,0,0-.89.9,16.12,16.12,0,0,0-1.49,2c.63-.54,1.24-1.09,1.87-1.6.32-.25.64-.5,1-.72a4,4,0,0,1,1-.52,2.22,2.22,0,0,1,1,.06,8.34,8.34,0,0,1,1.11.35c.74.26,1.49.58,2.21.91l.36.16.27-.27c.54-.56,1.12-1.1,1.7-1.62.28-.26.58-.51.87-.73l.22-.14.1-.06,0,0a1.18,1.18,0,0,1,.43,0,12,12,0,0,1,2.22.59C89.38,81.8,90.13,82.09,90.89,82.36Z" style="fill:#263238"></path><path d="M110.69,79.16a25.74,25.74,0,0,0-2.25-2.84,13.63,13.63,0,0,0-2.79-2.47,3,3,0,0,0-1.05-.43,1.17,1.17,0,0,0-.38,0l-.27,0a4,4,0,0,0-.5.1,16.4,16.4,0,0,0-1.8.54c-1.15.42-2.25.91-3.36,1.43l.94.15a25.88,25.88,0,0,0-2.88-2.45,15.84,15.84,0,0,0-1.64-1,6.82,6.82,0,0,0-.94-.42,3.63,3.63,0,0,0-.55-.15,4.09,4.09,0,0,0-.61,0,6.49,6.49,0,0,0-2,.53c-.59.25-1.15.54-1.7.84A24.92,24.92,0,0,0,85.86,75c1.15-.45,2.29-.93,3.44-1.33A16.15,16.15,0,0,1,91,73.12a5.9,5.9,0,0,1,1.63-.27,3.38,3.38,0,0,1,1.34.57,13.32,13.32,0,0,1,1.41,1c.93.74,1.83,1.56,2.69,2.38l.43.41L99,77c1-.52,2.13-1,3.2-1.46a15.55,15.55,0,0,1,1.59-.6l.38-.1.17,0s0,0,.07,0a1.76,1.76,0,0,1,.62.19,18.84,18.84,0,0,1,2.85,1.93C108.84,77.63,109.75,78.4,110.69,79.16Z" style="fill:#263238"></path><path d="M260.3,131.21a25.74,25.74,0,0,0-2.25-2.84,13.63,13.63,0,0,0-2.79-2.47,3,3,0,0,0-1-.43,1.17,1.17,0,0,0-.38,0l-.27,0a4,4,0,0,0-.5.1,16.4,16.4,0,0,0-1.8.54c-1.15.42-2.25.91-3.36,1.43l.94.15a25.88,25.88,0,0,0-2.88-2.45,15.84,15.84,0,0,0-1.64-1,6.82,6.82,0,0,0-.94-.42,3.63,3.63,0,0,0-.55-.15,4.09,4.09,0,0,0-.61,0,6.49,6.49,0,0,0-2,.53c-.59.25-1.15.54-1.7.84a24.92,24.92,0,0,0-3.09,2.08c1.15-.45,2.29-.93,3.44-1.33a16.15,16.15,0,0,1,1.71-.55,5.9,5.9,0,0,1,1.63-.27,3.38,3.38,0,0,1,1.34.57,13.32,13.32,0,0,1,1.41,1c.93.74,1.83,1.56,2.69,2.38l.43.41.51-.26c1-.52,2.13-1,3.2-1.46a15.55,15.55,0,0,1,1.59-.6l.38-.1.17,0s0,0,.07,0a1.76,1.76,0,0,1,.62.19,18.84,18.84,0,0,1,2.85,1.93C258.45,129.68,259.36,130.45,260.3,131.21Z" style="fill:#263238"></path></g><g id="freepik--Character--inject-878"><path d="M391.59,361.54s1.14,45,1.14,45c0,8.31-.2,15.6-.64,19.36a.13.13,0,0,1,0,.06,5.92,5.92,0,0,1-.62,2.56s0,.05,0,.06c-2.48,1.66-68.9,3.39-71.24,2.67s-.47-7.44,2.06-9.56,27.67-14.16,27.67-14.16l-.73-44.94Z" style="fill:#f7a9a0"></path><path d="M392.8,397.61s-.07,8.89-.07,8.92c0,8.31-.2,15.6-.64,19.36a.13.13,0,0,1,0,.06,11.6,11.6,0,0,1-.62,2.56s0,.05,0,.06c-2.48,1.66-68.9,3.39-71.24,2.67s-.47-7.44,2.06-9.56,27.67-14.16,27.67-14.16l0-9Z" style="fill:#fff"></path><path d="M345.83,407.55c4.42-.73,9.79.06,13.09,3.27.13.12-.05.3-.19.26a62,62,0,0,0-12.9-3A.28.28,0,0,1,345.83,407.55Z" style="fill:#263238"></path><path d="M342.6,409.39c4.43-.72,9.8.07,13.1,3.28.13.12-.05.3-.19.25a62.57,62.57,0,0,0-12.9-3A.28.28,0,0,1,342.6,409.39Z" style="fill:#263238"></path><path d="M339.38,411.24c4.43-.72,9.8.07,13.1,3.28.13.12-.05.3-.19.25a61.93,61.93,0,0,0-12.9-3A.28.28,0,0,1,339.38,411.24Z" style="fill:#263238"></path><path d="M320.17,431.24c2.34.72,68.76-1,71.24-2.67,1-.62,1.27-10.32,1.31-22v-.37l-42.86.64,0,.72s-25.12,12-27.66,14.16S317.83,430.53,320.17,431.24Z" style="fill:#263238"></path><path d="M392.73,406.16v.38c-.05,11.71-.36,21.41-1.32,22-1.12.76-15.52,1.53-31.08,2.08-18.61.66-38.89,1-40.16.6-2.34-.72-.46-7.45,2.06-9.57s27.66-14.16,27.66-14.16l0-.72,14.29-.21Z" style="fill:#FFC727"></path><path d="M320.85,428.65c11.19-.57,56.37-1.79,67.48-1.5.09,0,.09.06,0,.07-11.08.8-56.27,1.66-67.47,1.61C320.62,428.83,320.62,428.66,320.85,428.65Z" style="fill:#263238"></path><path d="M364.15,406.59c-1,7.18-2.64,17.76-3.82,24.06-18.61.66-38.89,1-40.16.6-2.34-.72-.46-7.45,2.06-9.57s27.66-14.16,27.66-14.16l0-.72Z" style="opacity:0.1"></path><path d="M396.59,389l-48.07.46s-2.72-60.45-2.93-86.55c-.28-35.38-.13-35.37,1.45-119.23H383s4.73,12.33,5.82,23.58c.51,5.22-1.12,10.5-1.69,12.74l-1.52,85.34Z" style="fill:#FFC727"></path><path d="M396.59,389l-48.07.46s-2.72-60.45-2.93-86.55c-.28-35.38-.13-35.37,1.45-119.23H383s4.73,12.33,5.82,23.58c.51,5.22-1.12,10.5-1.69,12.74l-1.52,85.34Z" style="opacity:0.6000000000000001"></path><path d="M393,380.55a37.53,37.53,0,0,0-3.83-.3c-1.42-.1-2.84-.21-4.26-.27-2.74-.11-5.47-.16-8.21-.17-5.52,0-11,0-16.55.19-3.14.1-6.28.23-9.41.41a.1.1,0,0,0,0,.19c5.47.2,11,.29,16.42.39s10.95.22,16.41.11c1.57,0,3.14,0,4.7-.13s3.17,0,4.71-.23C393.1,380.73,393.14,380.58,393,380.55Z" style="fill:#263238"></path><path d="M350.66,316.33c-.71-25.9-.89-57.37-.56-83.27.18-14.54.57-23.5,1-38,0-.17-.25-.16-.25,0-1.09,20.45-1.9,46.5-1.93,78.1,0,25.91,3.47,88.84,4.56,103.34,0,.61.4.21.39.08C353.29,363.49,351,329.27,350.66,316.33Z" style="fill:#263238"></path><path d="M340.17,368.68s-.37,43.46-.37,43.49c0,8.31-.19,15.6-.64,19.36a.06.06,0,0,1,0,.06,5.92,5.92,0,0,1-.62,2.56l-.05.05c-2.48,1.67-68.91,3.4-71.24,2.68s-.47-7.44,2.05-9.56S297,413.16,297,413.16l.78-43.44Z" style="fill:#f7a9a0"></path><path d="M339.88,403.25s-.08,8.89-.08,8.92c0,8.31-.19,15.6-.64,19.36a.06.06,0,0,1,0,.06,11.6,11.6,0,0,1-.62,2.56l-.05.05c-2.48,1.67-68.91,3.4-71.24,2.68s-.47-7.44,2.05-9.56S297,413.16,297,413.16l0-9.06Z" style="fill:#fff"></path><path d="M292.9,413.18c4.43-.72,9.8.07,13.1,3.28.13.12-.05.3-.19.25a61.93,61.93,0,0,0-12.9-3A.28.28,0,0,1,292.9,413.18Z" style="fill:#263238"></path><path d="M289.68,415c4.43-.73,9.8.07,13.1,3.28.13.12,0,.3-.19.25a61.93,61.93,0,0,0-12.9-3A.28.28,0,0,1,289.68,415Z" style="fill:#263238"></path><path d="M286.46,416.88c4.42-.73,9.8.06,13.1,3.28.13.12-.05.3-.19.25a61.93,61.93,0,0,0-12.9-3A.28.28,0,0,1,286.46,416.88Z" style="fill:#263238"></path><path d="M267.25,436.88c2.34.72,68.75-1,71.24-2.68.95-.62,1.27-10.31,1.31-22v-.37l-42.86.64,0,.72s-25.13,12-27.67,14.16S264.91,436.17,267.25,436.88Z" style="fill:#FFC727"></path><path d="M267.93,434.28c11.19-.56,56.37-1.79,67.48-1.5.09,0,.09.07,0,.08-11.08.8-56.27,1.66-67.47,1.61C267.7,434.47,267.69,434.3,267.93,434.28Z" style="fill:#263238"></path><path d="M362.13,224.09s-19.72,67.71-20.07,79.13c-.31,9.74.94,89.64.94,89.64l-49.92.29s4.22-81.87,5-92c1.58-20.62,10.76-58,21-94.64,1.93-6.92,8.95-22.84,8.95-22.84h53.81A79.57,79.57,0,0,1,370.34,220S365.33,222.28,362.13,224.09Z" style="fill:#FFC727"></path><path d="M362.13,224.09s-19.72,67.71-20.07,79.13c-.31,9.74.94,89.64.94,89.64l-49.92.29s4.22-81.87,5-92c1.58-20.62,10.76-58,21-94.64,1.93-6.92,8.95-22.84,8.95-22.84h53.81A79.57,79.57,0,0,1,370.34,220S365.33,222.28,362.13,224.09Z" style="opacity:0.6000000000000001"></path><path d="M340.35,383.65c-5.77-.16-11.75-.33-17.52-.19s-11.45.23-17.17.57c-3.24.19-6.47.3-9.7.62a.09.09,0,0,0,0,.18c5.76.33,11.55.26,17.32.21s11.45-.11,17.17-.37c3.24-.15,6.47-.32,9.71-.54C340.51,384.11,340.69,383.66,340.35,383.65Z" style="fill:#263238"></path><path d="M315.31,269.16c-.08.39-.17.78-.26,1.17-1.63,7.73-3,14.49-3.68,18.24a223.06,223.06,0,0,0-3.18,36.67c-.1,12.37.06,24.76.1,37.14s.22,4.74-.11,17.12c0,.14-.23.16-.24,0-.05-1.55-.09-3.09-.11-4.64-.22-12.44-.32-4.85-.41-17.29s-.33-24.77-.07-37.15a212,212,0,0,1,4-36.14c.61-3.17,1.72-8.43,3.07-14.54.08-.4.18-.81.27-1.22l.06.07A7.38,7.38,0,0,1,315.31,269.16Z" style="fill:#263238"></path><path d="M329.79,207.46c-1.54,6.76-3.4,13.46-5.14,20.19-.48,1.84-1.54,6.41-2.89,12.29,0,.22-.1.45-.14.67l-.66-.11c.06-.22.11-.45.16-.67,1.61-7,2.93-12.56,3.44-14.51,1.59-6,3.09-12,4.87-17.95A.19.19,0,0,1,329.79,207.46Z" style="fill:#263238"></path><path d="M349.78,225.29a45,45,0,0,0,7.42-.68,71.32,71.32,0,0,0,7.18-2,57.38,57.38,0,0,1,7-1.15,24.42,24.42,0,0,0,6.9-2.06c.11,0,.19.11.09.16a43.12,43.12,0,0,1-6.62,2.87c-2.36.74-4.84.85-7.24,1.43a60.41,60.41,0,0,1-7.39,1.71,27,27,0,0,1-7.4-.13C349.66,225.43,349.69,225.29,349.78,225.29Z" style="fill:#263238"></path><path d="M346.64,280.29c.47-1.84,8.9-36.85,11.26-44.12,1.34-4.13,2.53-8.3,4.1-12.34a.08.08,0,0,1,.16,0c-.79,3.77-1.9,7.46-2.9,11.18s-11,42.73-11.7,44.75-1.29,4.2-2.15,6.22a.09.09,0,0,1-.18,0C345.56,284.05,346.15,282.17,346.64,280.29Z" style="fill:#263238"></path><path d="M333.84,262.23c.72-3.9.49-2.67,1.21-6.58s1.53-7.65,2.1-11.5c.07-.44.12-.81-.35-1.1a10.48,10.48,0,0,0-2.85-.73c-2.38-.54-4.78-1-7.18-1.48-4.95-.93-10.55-1.89-15.57-2.34-.47,0-.58.59-.1.64a206.45,206.45,0,0,1,23.69,4.08c.42.09,1.39.21,1.62.6a4.28,4.28,0,0,1-.16.85l-.48,2.55q-.5,2.55-1,5.1c-.65,3.41-.35,1.68-1,5.08-.29,1.56-.59,3.12-.88,4.68l-.48,2.55c-.08.43-.13.87-.24,1.28a1.77,1.77,0,0,1-1.41,1.51c-1.57.52-3.31.78-4.94,1.16l-5.49,1.28a12.46,12.46,0,0,1-2.94.64c-1,0-2-1.28-2.68-1.9l-6.25-5.66a8.85,8.85,0,0,1-1.59-2c-.41-.83,3-18.58,4.33-22.18.06-.16-.4-.3-.46-.14-1.22,3.4-5.21,20.19-5.22,21.94,0,1.49,1.25,2.39,2.36,3.4l4.7,4.23c.82.73,1.62,1.47,2.44,2.19a3.59,3.59,0,0,0,2,1.1,6.54,6.54,0,0,0,2.11-.36l3.2-.76,6.18-1.48c1.36-.32,3.53-.46,4.26-1.69a5.91,5.91,0,0,0,.5-1.94C333.46,264.21,333.65,263.22,333.84,262.23Z" style="fill:#263238"></path><path d="M336,245.14c-4.41,1.56-8.83,3.09-13.36,4.4-.58.17-1.16.35-1.75.5a2.12,2.12,0,0,1-2.42-.71c-.79-.76-1.55-1.54-2.33-2.29-1.8-1.74-3.63-3.45-5.44-5.18-.14-.13-.38,0-.25.16,1.87,2,3.73,4.1,5.66,6.11,1.31,1.37,2.52,3.31,4.75,2.74,2.54-.65,5-1.6,7.46-2.48,2.63-.94,5.23-2,7.75-3.11C336.15,245.24,336.1,245.11,336,245.14Z" style="fill:#263238"></path><path d="M321.25,247.84a1.12,1.12,0,0,0-.47-.89,1.41,1.41,0,0,0-1.25,0c-.18.07-.06.33.12.26a1,1,0,0,1,.5-.09.47.47,0,0,1,.22.09l.09.09a2.12,2.12,0,0,1,.11.21s0,.07,0,.11v0a1.63,1.63,0,0,1,.05.49.7.7,0,0,1-.51.62.42.42,0,0,1-.46-.13.85.85,0,0,1-.18-.51s-.09-.05-.09,0a.81.81,0,0,0,.36.83,1,1,0,0,0,1-.14A1.06,1.06,0,0,0,321.25,247.84Z" style="fill:#263238"></path><polygon points="341.04 101.75 326.35 99.81 328.14 90.16 342.55 93.63 341.04 101.75" style="fill:#263238"></polygon><polygon points="334.38 102.49 312.78 99.63 315.42 85.45 336.6 90.55 334.38 102.49" style="fill:#37474f"></polygon><polygon points="319.32 101.2 292.41 97.64 295.69 79.97 322.08 86.33 319.32 101.2" style="fill:#455a64"></polygon><path d="M290.89,88.22c-.91,4.87-.23,9.09,1.52,9.42s3.89-3.37,4.8-8.25.23-9.09-1.52-9.42S291.8,83.34,290.89,88.22Z" style="fill:#455a64"></path><path d="M298.83,80.73a1.14,1.14,0,0,0-.95.57,6.21,6.21,0,0,0-.6,1,16.37,16.37,0,0,0-.84,2.18A35.28,35.28,0,0,0,295.31,89a31.51,31.51,0,0,0-.52,4.65,16.46,16.46,0,0,0,0,2.33,7.24,7.24,0,0,0,.17,1.15c.1.36.23.78.61.93-.4-.1-.6-.53-.73-.89a6.79,6.79,0,0,1-.29-1.16,17.06,17.06,0,0,1-.17-2.37,26,26,0,0,1,.41-4.73,30,30,0,0,1,1.26-4.57,14.51,14.51,0,0,1,1-2.16,5.62,5.62,0,0,1,.71-1A1.19,1.19,0,0,1,298.83,80.73Z" style="fill:#37474f"></path><polygon points="336.32 103.5 321.56 102.15 322.96 92.44 337.5 95.33 336.32 103.5" style="fill:#263238"></polygon><polygon points="329.7 104.5 308 102.52 310.06 88.25 331.44 92.49 329.7 104.5" style="fill:#37474f"></polygon><polygon points="314.59 103.83 287.56 101.36 290.13 83.58 316.75 88.86 314.59 103.83" style="fill:#455a64"></polygon><path d="M285.66,92c-.71,4.91.14,9.1,1.9,9.35s3.76-3.52,4.47-8.43-.14-9.1-1.9-9.35S286.37,87.1,285.66,92Z" style="fill:#455a64"></path><path d="M293.29,84.21a1.14,1.14,0,0,0-.92.6,5.61,5.61,0,0,0-.56,1,15.12,15.12,0,0,0-.75,2.21,35.44,35.44,0,0,0-.95,4.58,32.87,32.87,0,0,0-.33,4.66,18.1,18.1,0,0,0,.13,2.33,7.38,7.38,0,0,0,.21,1.14c.12.35.26.77.65.9-.41-.08-.63-.5-.77-.86a6.46,6.46,0,0,1-.33-1.14,17.05,17.05,0,0,1-.27-2.36,27,27,0,0,1,.22-4.75,29.46,29.46,0,0,1,1.07-4.62,16.12,16.12,0,0,1,.9-2.2,5.94,5.94,0,0,1,.67-1A1.16,1.16,0,0,1,293.29,84.21Z" style="fill:#37474f"></path><path d="M291.17,83.84c4.29.73,8.56,1.51,12.83,2.3s8.54,1.62,12.8,2.49l.22,0,0,.23-.1.69-.19-.26,7.38,1.5c2.46.53,4.92,1,7.37,1.57l.08,0v.08l-.26,1.59,0-.06,2.43.53-2.45-.43h-.05v-.05l.2-1.59.07.1c-2.48-.43-4.94-.91-7.41-1.37l-7.4-1.42-.22,0,0-.23.1-.69.19.27c-4.27-.81-8.52-1.7-12.79-2.55S295.41,84.78,291.17,83.84Z" style="fill:#263238"></path><path d="M350.34,129.63c3.33.41,6.51-5,7.68-8.95.09-.3-.62-3.15-1.36-6.66-.44-2.14-.88-4.52-1.13-6.73l-13.46,4.9a35.3,35.3,0,0,1,2.27,8.32,4.74,4.74,0,0,1,0,.92.74.74,0,0,0,0,.15C344.26,123.33,347.12,129.24,350.34,129.63Z" style="fill:#f7a9a0"></path><path d="M344.35,121.43v.15a8.94,8.94,0,0,0,1.42-.08c7.5-1,8.82-10.35,9-14l-12.74,4.64a35.28,35.28,0,0,1,2.27,8.33A4.63,4.63,0,0,1,344.35,121.43Z" style="fill:#263238"></path><path d="M361,89.29c1.48,6-1.72,20.52-6.09,24.08-6.35,5.16-16.29,5.15-20.55-2.37-4.14-7.3.13-25.66,5-28.85C346.48,77.46,358.82,80.47,361,89.29Z" style="fill:#f7a9a0"></path><path d="M335.34,90.54s-.43,3.53,1.83,4.7c.18.09,7.09,17.51,19.6,16.56,0,0,9.71-10.35,7.61-20.11-1.37-6.32-5.6-8.23-5.6-8.23s-8.57-8.17-18.91-4.61S331.53,90,335.34,90.54Z" style="fill:#263238"></path><path d="M331,169l-2.91,14.67H383s-5.79-43.55-20.32-59.33c-7.27-7.89-15.81-7.3-21.24-1.78-1.38,1.39-14.21,21.56-15.94,29.85C324,159.71,331,169,331,169Z" style="fill:#FFC727"></path><polygon points="384.52 187.73 325.91 187.73 327.18 180.9 383.7 180.9 384.52 187.73" style="fill:#263238"></polygon><path d="M349.56,125.11c.47-.24,3.69,0,3.53-.5-.1-.3-.78-3.49-2.51-5.27a5.4,5.4,0,0,0-4.29-1.17c-2.78.36-13.73,19-15.36,25.39s-.71,26,.43,29.12,5.56,12.81,6.79,12.18,3.22-4.33,3.22-5.06-4.43-9.73-5.25-11.68-.92-20.56-.64-23.66,11.29-23.9,11.61-24.2S349.37,125.2,349.56,125.11Z" style="fill:#263238"></path><path d="M292.5,164.53c-4.07-5.6-2.67-18.79,1.13-46,.52-3.76,27.33-4.07,27,0-.45,5.1-3.28,24.78-3.67,26.2C313.66,156.64,295.27,168.33,292.5,164.53Z" style="fill:#f7a9a0"></path><path d="M325.36,88.8a4.07,4.07,0,0,0-4.64.4,6.06,6.06,0,0,0-3-2.86c-2.32-.92-4.77,2.32-4.77,2.32a7.51,7.51,0,0,0-3.61-2.52c-2.3-.65-5.24,2.26-5.24,2.26a6.56,6.56,0,0,0-4.57-.22c-3.95,1.43-5.3,7.71-6.19,11.69s.29,16.12.28,18.46l25.52,6s9.09-16.72,9.48-21.55C329,98.68,328.06,90.49,325.36,88.8Z" style="fill:#f7a9a0"></path><path d="M320.81,89.26c.69,4.41,0,8.79-.36,13.19a.08.08,0,1,1-.15,0c.45-4.38,0-8.79.3-13.17A.11.11,0,0,1,320.81,89.26Z" style="fill:#263238"></path><path d="M313.09,88.66a12,12,0,0,1-.22,3c-.15,1.06-.32,2.13-.51,3.19q-.56,3.19-1.28,6.35c0,.1-.17.09-.15,0q.56-3.18,1-6.38c.14-1.07.27-2.14.4-3.21a13.8,13.8,0,0,1,.48-3A.16.16,0,0,1,313.09,88.66Z" style="fill:#263238"></path><path d="M304.12,88.49a8,8,0,0,1-.34,2.73c-.19,1-.37,1.93-.55,2.9-.36,1.93-.72,3.87-1,5.81,0,.1-.17.09-.16,0,.29-2,.55-4,.85-5.94.15-1,.31-1.94.47-2.91a7.48,7.48,0,0,1,.65-2.6A0,0,0,0,1,304.12,88.49Z" style="fill:#263238"></path><path d="M343.85,132.91c-13.92,22-26.84,32-42.29,33.71-15.25,1.71-8.92-10.71-8.1-12,3.08-4.81,26.59-23.86,43.23-32.25S347.29,127.47,343.85,132.91Z" style="fill:#f7a9a0"></path><path d="M318.69,133.46l-5.12,3.89c-1.71,1.29-3.42,2.57-5.11,3.89s-3.39,2.61-5.06,3.95-3.32,2.69-4.89,4.16a50.11,50.11,0,0,1,4.65-4.45c1.62-1.41,3.31-2.74,5-4.06s3.43-2.57,5.18-3.8S316.88,134.61,318.69,133.46Z" style="fill:#263238"></path><path d="M396.49,205.6H340l1.07-73.73a4.58,4.58,0,0,1,4.58-4.51h42.41a7.41,7.41,0,0,1,7.41,7.3Z" style="fill:#263238"></path><path d="M396.49,205.6H340.61a2.91,2.91,0,0,1-2.9-3.06l3.23-62.16,54.42.4Z" style="fill:#37474f"></path><path d="M352.63,205.6l.74-65.22s.1-7.48-1.82-10.63c-1.13-1.85-8.45-2.33-9.56.57s-1,7.89-1,7.89l.09-6.78a4.13,4.13,0,0,1,4.13-4.07h43.53a7,7,0,0,1,7,6.88l.28,25.41a9.73,9.73,0,0,1,1.49,2.75c.74,11,1.14,32.34,1.27,40.19a3,3,0,0,1-3,3Z" style="fill:#455a64"></path><path d="M353.14,153.05c0,1,0,2.15.79,2.77a5.18,5.18,0,0,0,2.84.68c2,0,4.06-.05,6.09-.07l12.19-.09,12.2.09,6.1.1a3.63,3.63,0,0,0,1.45-.09,1.55,1.55,0,0,0,.83-1.08,13,13,0,0,0,.34-3,11.67,11.67,0,0,1-.15,3.06,1.78,1.78,0,0,1-.91,1.28,1.87,1.87,0,0,1-.8.18l-.76,0-6.1.1-12.2.09L362.86,157c-2-.05-4.06,0-6.11-.13a5.38,5.38,0,0,1-2.95-.9,2.08,2.08,0,0,1-.66-1.39A9.77,9.77,0,0,1,353.14,153.05Z" style="fill:#37474f"></path><rect x="371.08" y="155.1" width="8.52" height="4.37" style="fill:#FFC727"></rect><rect x="342.75" y="168.17" width="3.26" height="3.75" transform="translate(2.98 -5.91) rotate(0.99)" style="fill:#dbdbdb"></rect><rect x="341.68" y="170.7" width="5.32" height="4.29" transform="translate(3.03 -5.91) rotate(0.99)" style="fill:#c7c7c7"></rect><path d="M350.53,180.4c-.06,3.89-.33,19.62-.33,19.62l-12.65-.22s.27-15.73.33-19.61,2.56-6.84,6.44-6.77S350.6,176.52,350.53,180.4Z" style="fill:#FFC727"></path><path d="M350.53,180.4c-.06,3.89-.33,19.62-.33,19.62l-12.65-.22s.27-15.73.33-19.61,2.56-6.84,6.44-6.77S350.6,176.52,350.53,180.4Z" style="opacity:0.1"></path><path d="M343.62,174.87a.5.5,0,1,1-.49-.5A.49.49,0,0,1,343.62,174.87Z" style="fill:#fff"></path><path d="M349.82,179.41a.49.49,0,1,1-.48-.5A.49.49,0,0,1,349.82,179.41Z" style="fill:#fff"></path><path d="M344.22,179.81a.5.5,0,1,1-.49-.5A.49.49,0,0,1,344.22,179.81Z" style="fill:#fff"></path><path d="M344.63,184.53a.49.49,0,0,1-.5.48.5.5,0,0,1-.49-.5.5.5,0,0,1,1,0Z" style="fill:#fff"></path><path d="M339.45,189.36a.5.5,0,0,1-.5.49.49.49,0,0,1-.48-.51.48.48,0,0,1,.5-.48A.49.49,0,0,1,339.45,189.36Z" style="fill:#fff"></path><path d="M339,185a.49.49,0,1,1-1,0,.5.5,0,0,1,.5-.49A.49.49,0,0,1,339,185Z" style="fill:#fff"></path><path d="M339.24,180.33a.5.5,0,1,1-.49-.5A.51.51,0,0,1,339.24,180.33Z" style="fill:#fff"></path><path d="M341.42,177.53a.5.5,0,0,1-.5.49.49.49,0,0,1-.48-.51.49.49,0,1,1,1,0Z" style="fill:#fff"></path><path d="M341.83,182.43a.49.49,0,1,1-.48-.5A.48.48,0,0,1,341.83,182.43Z" style="fill:#fff"></path><path d="M346.75,177.19a.51.51,0,0,1-.51.49.5.5,0,0,1,0-1A.5.5,0,0,1,346.75,177.19Z" style="fill:#fff"></path><path d="M347.26,182a.48.48,0,0,1-.5.48.5.5,0,0,1-.49-.5.49.49,0,0,1,.51-.48A.48.48,0,0,1,347.26,182Z" style="fill:#fff"></path><path d="M342,187a.5.5,0,0,1-1,0,.5.5,0,1,1,1,0Z" style="fill:#fff"></path><path d="M347.26,191a.49.49,0,0,1-.5.48.5.5,0,0,1-.49-.5.5.5,0,0,1,1,0Z" style="fill:#fff"></path><path d="M347.12,194.71a.49.49,0,1,1-.48-.51A.49.49,0,0,1,347.12,194.71Z" style="fill:#fff"></path><path d="M342.24,191a.49.49,0,1,1-.48-.5A.48.48,0,0,1,342.24,191Z" style="fill:#fff"></path><path d="M339.74,196.73a.49.49,0,1,1-1,0,.5.5,0,0,1,.5-.49A.49.49,0,0,1,339.74,196.73Z" style="fill:#fff"></path><path d="M344.83,188.83a.49.49,0,1,1-.48-.5A.48.48,0,0,1,344.83,188.83Z" style="fill:#fff"></path><path d="M344.82,192.83a.49.49,0,0,1-1,0,.49.49,0,1,1,1,0Z" style="fill:#fff"></path><path d="M344.76,196.82a.51.51,0,0,1-.51.49.5.5,0,1,1,.51-.49Z" style="fill:#fff"></path><path d="M347.23,198.71a.5.5,0,0,1-.5.49.49.49,0,0,1-.48-.51.48.48,0,0,1,.5-.48A.49.49,0,0,1,347.23,198.71Z" style="fill:#fff"></path><path d="M339.75,193a.5.5,0,1,1-.49-.5A.49.49,0,0,1,339.75,193Z" style="fill:#fff"></path><path d="M342.18,194.79a.5.5,0,0,1-.5.49.51.51,0,0,1-.49-.5.5.5,0,1,1,1,0Z" style="fill:#fff"></path><path d="M349.61,196.9a.5.5,0,0,1-.5.49.5.5,0,1,1,0-1A.5.5,0,0,1,349.61,196.9Z" style="fill:#fff"></path><path d="M342.22,198.67a.49.49,0,1,1-1,0,.5.5,0,0,1,.5-.49A.49.49,0,0,1,342.22,198.67Z" style="fill:#fff"></path><path d="M349.82,189.05a.5.5,0,1,1-.49-.5A.49.49,0,0,1,349.82,189.05Z" style="fill:#fff"></path><path d="M349.75,192.92a.49.49,0,1,1-1,0,.5.5,0,0,1,.5-.49A.49.49,0,0,1,349.75,192.92Z" style="fill:#fff"></path><path d="M347.43,187a.5.5,0,0,1-.5.49.5.5,0,0,1,0-1A.48.48,0,0,1,347.43,187Z" style="fill:#fff"></path><path d="M350.14,184.55a.48.48,0,0,1-.5.48.48.48,0,0,1-.48-.5.49.49,0,1,1,1,0Z" style="fill:#fff"></path><path d="M336.42,200.58c2.83,3.93,14.44,3.28,15.18,1.74.31-.65,0-16.74,0-16.74s-10,.93-15.41-1C336.15,184.54,335.54,199.35,336.42,200.58Z" style="fill:#455a64"></path><path d="M387.91,128.21H348.57a6.39,6.39,0,0,1-6.4-6.4v-1.27a6.39,6.39,0,0,1,6.4-6.4h39.15a6.39,6.39,0,0,1,6.33,5.45l.19,1.27A6.4,6.4,0,0,1,387.91,128.21Z" style="fill:#FFC727"></path><path d="M387.91,128.21H348.57a6.39,6.39,0,0,1-6.4-6.4v-1.27a6.39,6.39,0,0,1,6.4-6.4h39.15a6.39,6.39,0,0,1,6.33,5.45l.19,1.27A6.4,6.4,0,0,1,387.91,128.21Z" style="opacity:0.30000000000000004"></path><ellipse cx="346.94" cy="121.09" rx="3.53" ry="5.15" style="opacity:0.1"></ellipse><path d="M356.62,108c3.81,1.13,11.2,8.39,11.62,14.53s-3.89,13.35-5.79,13.23-8.06-4.24-11.14-9.15S354.74,107.49,356.62,108Z" style="fill:#263238"></path><path d="M356.6,108.06c-.1-.09,0-.29.12-.22,3,1.57,5.64,4.34,8,6.72a19.56,19.56,0,0,1,4.83,6.58,9.15,9.15,0,0,1-.43,7.62,18.78,18.78,0,0,1-6.05,7.25c-.08,0-.2,0-.13-.12,4.11-4.2,8.66-9.58,5.6-15.68C366,115,360.81,111.74,356.6,108.06Z" style="fill:#263238"></path><path d="M362.67,134.24c2.76,2,7.35,11.95,5.52,18.31s-11,12.18-12.82,12-5.36-9.25-5.3-14.41c0-3.44,2.89-5.92,5.24-8.64C358.78,137.46,362.24,133.93,362.67,134.24Z" style="fill:#263238"></path><path d="M348.69,148.43c2.3-6.24,8.71-10.14,13.55-14.25.05-.05.12,0,.08.08-3.85,4.39-9.33,7.2-12.29,12.38a10.91,10.91,0,0,0-.87,10c1.3,2.87,3.67,5.15,5.73,7.48.13.15-.12.34-.25.19C350.45,159.83,346.31,154.87,348.69,148.43Z" style="fill:#263238"></path><path d="M363,135.13c-.11-.16.12-.34.23-.18,3.12,4.33,6.59,10.06,6.49,15.59-.12,6-5.26,9.48-9.75,12.46a.05.05,0,1,1-.06-.08c4.49-3.06,9.68-7.07,9.39-13.13C369.07,144.58,365.92,139.28,363,135.13Z" style="fill:#263238"></path><path d="M355.12,164.19c-2.55.14-7.15,2.34-9.69,6.19-4.36,6.59-6.41,4-15,2.42-7.28-1.33-12,5.39-10.07,10.58,0,0,0-5.43,5.4-5.68,6.47-.29,16.09,10.65,25.45,5.87C363.3,177.39,355.12,164.19,355.12,164.19Z" style="fill:#263238"></path><path d="M350.86,166.23c.13-.06,0-.28-.1-.23a11.54,11.54,0,0,0-3.52,2.14c-1.33,1.21-2.09,2.83-3.33,4.11-3.15,3.27-7.8,1-11.32-.24-4.73-1.72-9.66-.57-12.09,4.13,0,.06.07.12.11.05a8.91,8.91,0,0,1,7.94-4.74c3.18.06,5.93,2,9,2.57,2.11.39,4.36.43,6.07-1a17.31,17.31,0,0,0,2.3-2.88A12.51,12.51,0,0,1,350.86,166.23Z" style="fill:#263238"></path><path d="M355.94,165.59c0-.05-.12,0-.1,0,1.45,3.72,3.05,7.51,2.13,11.59-1,4.38-4.87,7.49-9.12,8.51-4.76,1.15-8-1.85-11.6-4.39-2.61-1.84-5.38-3.48-8.63-3.75-.1,0-.12.15,0,.17,5,1,8.54,4.17,12.67,6.87,3.37,2.21,6.79,2.22,10.39.44C359.59,181.15,359.6,172.63,355.94,165.59Z" style="fill:#263238"></path><path d="M359.62,107.28a1,1,0,0,1,.75,1.86A1,1,0,0,1,359.62,107.28Z" style="fill:#FFC727"></path><path d="M358.11,108.38a1,1,0,0,1,.76,1.86A1,1,0,0,1,358.11,108.38Z" style="fill:#FFC727"></path><path d="M356.43,109.23a1,1,0,0,1,.75,1.86A1,1,0,0,1,356.43,109.23Z" style="fill:#FFC727"></path><path d="M354.69,109.82a1,1,0,0,1,.76,1.86A1,1,0,0,1,354.69,109.82Z" style="fill:#FFC727"></path><path d="M352.84,110.12a1,1,0,0,1,.76,1.86A1,1,0,0,1,352.84,110.12Z" style="fill:#FFC727"></path><path d="M351,110.07a1,1,0,0,1,.75,1.86A1,1,0,0,1,351,110.07Z" style="fill:#FFC727"></path></g></svg>