<svg xmlns="http://www.w3.org/2000/svg" viewBox="0 0 500 500"><g id="freepik--Circle--inject-55"><path d="M431.74,269.77c-.29,0,0-4.45.28-9.9s.49-9.87.78-9.87.55,4.44.26,9.93S432,269.8,431.74,269.77Z"></path><path d="M423.28,308.39c-.28-.09,1-4.35,2.4-9.6s2.6-9.54,2.88-9.48-.41,4.46-1.88,9.75S423.54,308.48,423.28,308.39Z"></path><path d="M406.66,344.26c-.25-.16,1.86-4,4.42-8.86s4.6-8.74,4.86-8.62-1.36,4.26-3.94,9.11S406.9,344.41,406.66,344.26Z"></path><path d="M382.71,375.71c-.21-.2,2.69-3.55,6.22-7.7s6.37-7.56,6.61-7.38-2.26,3.87-5.82,8.05S382.91,375.91,382.71,375.71Z"></path><path d="M352.59,401.32c-.16-.24,3.39-2.89,7.72-6.2s7.84-6,8-5.79-3,3.3-7.4,6.62S352.75,401.55,352.59,401.32Z"></path><path d="M317.68,419.86c-.11-.27,3.93-2.09,8.87-4.38s8.95-4.2,9.09-3.94-3.67,2.58-8.65,4.88S317.78,420.13,317.68,419.86Z"></path><path d="M279.58,430.42c0-.29,4.29-1.19,9.62-2.36s9.64-2.16,9.72-1.88-4.14,1.72-9.5,2.89S279.62,430.7,279.58,430.42Z"></path><path d="M240.1,432.54c0-.29,4.45-.4,9.9-.26,5.45-.14,9.88,0,9.9.26s-4.41.64-9.9.78C244.52,433.18,240.08,432.82,240.1,432.54Z"></path><path d="M201.08,426.18c.08-.28,4.4.71,9.72,1.88s9.66,2.07,9.62,2.36-4.48-.17-9.84-1.35S201,426.45,201.08,426.18Z"></path><path d="M164.36,411.54c.14-.26,4.14,1.64,9.08,3.93s9,4.12,8.88,4.39-4.34-1.13-9.31-3.44S164.22,411.79,164.36,411.54Z"></path><path d="M131.66,389.33c.19-.23,3.68,2.49,8,5.79s7.89,5.95,7.73,6.2-4-2-8.36-5.37S131.47,389.54,131.66,389.33Z"></path><path d="M104.46,360.63c.24-.18,3.07,3.23,6.61,7.38s6.43,7.5,6.22,7.7-3.46-2.84-7-7S104.24,360.8,104.46,360.63Z"></path><path d="M84.05,326.77c.27-.12,2.31,3.81,4.87,8.62s4.67,8.71,4.42,8.86-2.77-3.52-5.34-8.37S83.8,326.89,84.05,326.77Z"></path><path d="M71.43,289.31c.29-.07,1.43,4.21,2.89,9.47s2.68,9.51,2.4,9.6-1.94-4-3.4-9.33S71.16,289.36,71.43,289.31Z"></path><path d="M67.2,250c.29,0,.49,4.43.78,9.87s.57,9.86.28,9.9-1-4.36-1.32-9.84S66.92,250,67.2,250Z"></path><path d="M71.44,210.69c.28.06-.47,4.43-1.35,9.81s-1.54,9.76-1.83,9.73-.08-4.48.81-9.9S71.16,210.62,71.44,210.69Z"></path><path d="M84.06,173.22c.26.13-1.42,4.22-3.44,9.29s-3.62,9.19-3.9,9.1.9-4.39,2.94-9.49S83.8,173.1,84.06,173.22Z"></path><path d="M104.46,139.37c.24.18-2.29,3.82-5.35,8.33s-5.51,8.19-5.77,8,1.82-4.09,4.91-8.63S104.24,139.2,104.46,139.37Z"></path><path d="M131.66,110.67c.19.23-3.06,3.24-7,7s-7.15,6.83-7.36,6.63,2.65-3.61,6.64-7.38S131.48,110.46,131.66,110.67Z"></path><path d="M164.36,88.46c.14.26-3.68,2.51-8.34,5.33s-8.44,5.13-8.61,4.89,3.36-3,8.07-5.79S164.23,88.21,164.36,88.46Z"></path><path d="M201.08,73.82c.08.28-4.13,1.65-9.3,3.39s-9.35,3.2-9.46,2.93,3.93-2.17,9.13-3.91S201,73.55,201.08,73.82Z"></path><path d="M240.1,67.46c0,.3-4.4.73-9.82,1.31s-9.81,1.1-9.86.81,4.3-1.26,9.75-1.84S240.09,67.18,240.1,67.46Z"></path><path d="M279.58,69.58c-.05.29-4.45-.23-9.87-.81s-9.83-1-9.81-1.31,4.47-.31,9.92.28S279.63,69.3,279.58,69.58Z"></path><path d="M317.68,80.14c-.11.27-4.29-1.19-9.46-2.92s-9.38-3.12-9.3-3.4,4.43.65,9.63,2.41S317.79,79.88,317.68,80.14Z"></path><path d="M352.59,98.68c-.16.24-3.93-2.08-8.6-4.89s-8.48-5.07-8.35-5.33,4.19,1.6,8.89,4.44S352.75,98.45,352.59,98.68Z"></path><path d="M382.71,124.29c-.21.2-3.4-2.88-7.36-6.62s-7.19-6.77-7-7,3.75,2.46,7.73,6.24S382.92,124.1,382.71,124.29Z"></path><path d="M406.66,155.75c-.25.15-2.7-3.54-5.77-8.05s-5.59-8.15-5.35-8.33,3.13,3.2,6.21,7.75S406.9,155.6,406.66,155.75Z"></path><path d="M423.28,191.62c-.28.09-1.88-4-3.9-9.1s-3.7-9.17-3.43-9.29,2.37,3.8,4.4,8.9S423.55,191.53,423.28,191.62Z"></path><path d="M431.74,230.23c-.29,0-.95-4.35-1.83-9.73s-1.63-9.74-1.34-9.81,1.49,4.23,2.36,9.65S432,230.21,431.74,230.23Z"></path></g><g id="freepik--planet-2--inject-55"><ellipse cx="417.38" cy="421.04" rx="36.91" ry="35.06" transform="translate(-173.02 474.89) rotate(-50.46)" style="fill:#FFC727"></ellipse><g style="opacity:0.2"><path d="M386.89,410.24a23.87,23.87,0,0,0,9.49-1.76c.74-.27.42-1.33-.23-1.39-2.8-.28-5.46-.62-8.31-.64-.77,0-1.59-.06-2.42-.1a39.17,39.17,0,0,0-1.58,3.7C384.87,410.19,385.94,410.2,386.89,410.24Z"></path><path d="M390.12,416a54.34,54.34,0,0,0,22.25-4.28A63.15,63.15,0,0,0,432,398.86a54.19,54.19,0,0,0,6.87-7.86,36.32,36.32,0,0,0-3.09-1.93,39.13,39.13,0,0,1-5.53,6.77,61.39,61.39,0,0,1-15.9,11.37,55.41,55.41,0,0,1-17.83,5.62c-3.93.51-9.26,1.05-13.47-.2-.22.77-.42,1.56-.59,2.36A32.83,32.83,0,0,0,390.12,416Z" style="fill:#fff"></path><path d="M406.35,394.12c3.54-1.21,9.76-4.86,11.32-9.22a35.28,35.28,0,0,0-3.71.35c-.13.22-.26.44-.42.66a17.06,17.06,0,0,1-6.41,4.95c-2.79,1.38-7.69,3.07-11.56,2.64-.6.5-1.18,1-1.75,1.54C397.59,396.43,402.9,395.31,406.35,394.12Z" style="fill:#fff"></path><path d="M395,428.06c9.14-.41,17.9-3.43,26.3-7.34A65.65,65.65,0,0,0,442,406.17a50.38,50.38,0,0,0,5.26-6.56,33.49,33.49,0,0,0-5.4-6.17,53.26,53.26,0,0,1-7.44,8.51,67.75,67.75,0,0,1-17.92,11.48c-6.76,3.1-13.91,5.61-21.22,6.34a53.47,53.47,0,0,1-10.81-.1c-.93-.1-1.84-.25-2.75-.4a36.07,36.07,0,0,0,.05,7.64A46.55,46.55,0,0,0,395,428.06Z"></path><path d="M410.79,447.53a120.81,120.81,0,0,1-15.35,3.18c.76.55,1.53,1.07,2.33,1.56,11.83-1.17,23.87-5.4,34.43-10.34a120.62,120.62,0,0,0,19.16-11.2c.23-.71.45-1.42.64-2.15A118.22,118.22,0,0,1,432,440,137,137,0,0,1,410.79,447.53Z"></path><path d="M408.77,399.18a33.28,33.28,0,0,0,13.38-8.38,28.09,28.09,0,0,0,3.86-5.26c-1.07-.22-2.16-.38-3.27-.5a20.17,20.17,0,0,1-3.21,4.41,30.72,30.72,0,0,1-11.22,7.23c-5.92,2.31-12.66,3.9-18.87,3.19-.53.69-1,1.39-1.51,2.1C394.71,403.23,403.06,401.21,408.77,399.18Z" style="fill:#fff"></path><path d="M453.2,419.42a87.86,87.86,0,0,1-7.27,6.74,80.24,80.24,0,0,1-36.18,17.31c-6.26,1.34-13.26,2.9-19.69,2.31.55.63,1.11,1.23,1.71,1.82,4.94.33,10.42-1,15-1.78a92.43,92.43,0,0,0,21.78-6.36A88.94,88.94,0,0,0,453,423.25c0-.11,0-.22,0-.33C453.14,421.74,453.19,420.58,453.2,419.42Z" style="fill:#fff"></path><path d="M427.34,434.58a91.54,91.54,0,0,0,23.54-16c.75-.72,1.49-1.45,2.21-2.2a34.69,34.69,0,0,0-3.6-13,57.41,57.41,0,0,1-7.18,7.85A82.53,82.53,0,0,1,422,424.6a71.4,71.4,0,0,1-24,7,58.33,58.33,0,0,1-13.28-.32c-.76-.1-1.53-.24-2.3-.39a34.08,34.08,0,0,0,5.35,12.07,57.44,57.44,0,0,0,9.82.08A83.5,83.5,0,0,0,427.34,434.58Z" style="fill:#fff"></path><path d="M421.12,395.34c-2.57,1.66-4.56,3.88-7.39,5.23s-6.23,2-8.84,4a1.45,1.45,0,0,0,1.16,2.54c3.38-.52,7.16-2.67,10.25-4.25,2.51-1.29,5.39-3.46,6.13-6.31C422.62,395.79,421.94,394.81,421.12,395.34Z"></path><path d="M426.65,449.71A9.09,9.09,0,0,0,425,451c-.54.51,0,1.49.69,1.09a7,7,0,0,1,1.58-.71,6.33,6.33,0,0,0,1.56-.83.56.56,0,0,0-.17-1.06A2.85,2.85,0,0,0,426.65,449.71Z" style="fill:#fff"></path><path d="M444,437.75c-3.53,2.05-7.86,3.36-11,6.06-.7.61-.41,2,.59,2,4.3-.15,8.69-3,12.37-5.2l.92-.57a37.66,37.66,0,0,0,3.35-6.27C448.2,435.14,446.11,436.5,444,437.75Z"></path><path d="M419.24,452.2c1-.74.09-2-.86-1.87-3.27.32-6.53,2-9.8,2.79-2.14.5-4.31,1-6.47,1.38a34,34,0,0,0,5,1.66C411.5,455.72,416,454.63,419.24,452.2Z" style="fill:#fff"></path></g><path d="M429.33,452.11a4.72,4.72,0,0,1-1,.56,24.3,24.3,0,0,1-2.92,1.19,32,32,0,0,1-10.25,1.72,33.87,33.87,0,0,1-5.72-.49,30.54,30.54,0,0,1-4.53-1.2c-.64-.21-1.19-.45-1.68-.66a10.46,10.46,0,0,1-1.23-.57,5.08,5.08,0,0,1-1-.58c.05-.09,1.52.66,4,1.45a34.7,34.7,0,0,0,4.49,1.07,36.53,36.53,0,0,0,5.64.45,35.21,35.21,0,0,0,10.13-1.55C427.8,452.72,429.29,452,429.33,452.11Z" style="fill:#fff"></path><path d="M443.67,397.49c.15.11-.32,1-1.3,2.45-.26.37-.53.78-.84,1.22s-.7.88-1.1,1.36a40.1,40.1,0,0,1-2.86,3.21l-1.77,1.76c-.62.61-1.33,1.17-2,1.79-1.39,1.26-3,2.41-4.74,3.66a67.46,67.46,0,0,1-12.09,6.5,66.38,66.38,0,0,1-13.21,3.71,58.63,58.63,0,0,1-6,.66c-.94,0-1.84.13-2.71.12l-2.5,0a39.71,39.71,0,0,1-4.28-.32c-.62-.07-1.21-.13-1.74-.22l-1.45-.3c-1.74-.38-2.67-.67-2.64-.86s1-.23,2.76-.17l1.45.07c.52,0,1.1,0,1.72,0,1.23,0,2.63.06,4.17-.07l2.42-.13c.84-.05,1.71-.19,2.61-.28,1.8-.14,3.7-.53,5.71-.87a69.89,69.89,0,0,0,24.38-9.83c1.67-1.15,3.31-2.19,4.71-3.34.71-.56,1.43-1.06,2.07-1.61l1.83-1.59c1.2-1,2.16-2,3.06-2.84.44-.43.87-.81,1.24-1.19l1-1.05C442.78,398,443.53,397.38,443.67,397.49Z" style="fill:#FFC727"></path><path d="M451.34,430.3a.93.93,0,0,1,0-.27c0-.2.09-.46.16-.78l.63-3,0-.06s-.05.12,0,.13l0-.08c0-.16,0-.33.07-.51v0l0,0h0l0,.06a35.44,35.44,0,0,0-.37-11.79l.05-.17c-.06,0-.07.22,0,.25l-.05-.09a34.63,34.63,0,0,0-21-25.19l.28-.06h0l-.12.12-.17-.07a32.12,32.12,0,0,0-4.74-1.57,33.75,33.75,0,0,0-21.2,2,38.37,38.37,0,0,0-14.14,10.41,36.31,36.31,0,0,0-6.15,10.21,32.19,32.19,0,0,0-1.06,3.08c-.11.33-.19.6-.25.81s-.1.28-.11.27a26.08,26.08,0,0,1,1.22-4.24,35.53,35.53,0,0,1,6.06-10.37,38.24,38.24,0,0,1,14.24-10.62,35.81,35.81,0,0,1,10.2-2.73,32,32,0,0,1,11.32.7,32.81,32.81,0,0,1,4.82,1.6l-.29.06h0l.12-.13.16.07a34.83,34.83,0,0,1,21.22,25.6l-.05-.09c.07,0,.06.25,0,.27l.05-.17a35.09,35.09,0,0,1,.22,11.9v0l0,0h0l0-.06c0,.18-.06.36-.08.51l0-.08s0,.13,0,.14l0-.05c-.32,1.29-.56,2.3-.73,3-.09.32-.15.57-.2.78S451.35,430.31,451.34,430.3Z" style="fill:#fff"></path><path d="M383.45,434.51c-.15-.4-.27-.8-.41-1.2-15.59,8.45-22.61,14-23.63,16.6a.74.74,0,0,0-.07.47l0,.09c0,.12.27.23.37.27,1.79.71,11.33,1.37,58.86-20.26,28.61-13,48.52-25.91,54.13-31.36a1,1,0,0,0-.73-1.7c-3.79.42-11.36,2.31-22.43,6.19.14.29.28.57.4.86,9.12-3.14,15-4.44,15.55-3.13,1.07,2.61-19.92,14.69-46.86,27S369,448.43,368,445.82C367.38,444.38,373.43,440.1,383.45,434.51Z" style="fill:#FFC727"></path><path d="M447.86,400.26c.14.22.26.46.39.69,14.1-5,24.44-7.48,27.47-6.27a2.32,2.32,0,0,1,1.56,2.26c0,1.05-.08,4.25-17.51,15.11a365.47,365.47,0,0,1-40.06,21.15c-6.15,2.8-12.71,5.69-19.18,8.4-18.66,7.82-36.6,14.08-42,11.92a3.24,3.24,0,0,1-1.93-1.83,3.53,3.53,0,0,1,.06-2.76c1.82-4.64,13-11.75,25.52-18.47-.05-.17-.1-.34-.14-.51-21,11.53-33.82,21.4-32.81,25.47,2.17,8.77,34.59-1.85,72-18.89s65.63-37.29,63.39-42.81C483.11,390.05,468.46,392.93,447.86,400.26Z" style="fill:#FFC727"></path><path d="M456.76,404.39c.29,0-1.44,1.72-1.49,1.76a24,24,0,0,1-2.3,1.58c-2.09,1.37-4.24,2.64-6.42,3.83-3.08,1.7-6.41,3-9.26,5.13a.31.31,0,0,0,.29.55c6.4-1.82,13.77-6.23,19-10.5.75-.62,2-1.48,1.57-2.59-.27-.73-.84-.88-1.55-.58a.43.43,0,0,0,.18.82Z" style="fill:#FFC727"></path><g style="opacity:0.30000000000000004"><path d="M383.45,434.51c-.15-.4-.27-.8-.41-1.2-15.59,8.45-22.61,14-23.63,16.6a.74.74,0,0,0-.07.47l0,.09c0,.12.27.23.37.27,1.79.71,11.33,1.37,58.86-20.26,28.61-13,48.52-25.91,54.13-31.36a1,1,0,0,0-.73-1.7c-3.79.42-11.36,2.31-22.43,6.19.14.29.28.57.4.86,9.12-3.14,15-4.44,15.55-3.13,1.07,2.61-19.92,14.69-46.86,27S369,448.43,368,445.82C367.38,444.38,373.43,440.1,383.45,434.51Z"></path><path d="M456.76,404.39c.29,0-1.44,1.72-1.49,1.76a24,24,0,0,1-2.3,1.58c-2.09,1.37-4.24,2.64-6.42,3.83-3.08,1.7-6.41,3-9.26,5.13a.31.31,0,0,0,.29.55c6.4-1.82,13.77-6.23,19-10.5.75-.62,2-1.48,1.57-2.59-.27-.73-.84-.88-1.55-.58a.43.43,0,0,0,.18.82Z"></path></g><g style="opacity:0.30000000000000004"><path d="M447.86,400.26c.14.22.26.46.39.69,14.1-5,24.44-7.48,27.47-6.27a2.32,2.32,0,0,1,1.56,2.26c0,1.05-.08,4.25-17.51,15.11a365.47,365.47,0,0,1-40.06,21.15c-6.15,2.8-12.71,5.69-19.18,8.4-18.66,7.82-36.6,14.08-42,11.92a3.24,3.24,0,0,1-1.93-1.83,3.53,3.53,0,0,1,.06-2.76c1.82-4.64,13-11.75,25.52-18.47-.05-.17-.1-.34-.14-.51-21,11.53-33.82,21.4-32.81,25.47,2.17,8.77,34.59-1.85,72-18.89s65.63-37.29,63.39-42.81C483.11,390.05,468.46,392.93,447.86,400.26Z"></path></g></g><g id="freepik--planet-1--inject-55"><circle cx="80" cy="442.07" r="21.94" transform="translate(-191.52 84.16) rotate(-26.93)" style="fill:#455a64"></circle><g style="opacity:0.30000000000000004"><path d="M78.12,420.15c.1.42.18.81.25,1.08a4.42,4.42,0,0,0-3,1.34c-.67.9-.55,2.14-.82,3.23a1.16,1.16,0,0,1-.53.81,1.28,1.28,0,0,1-.82,0c-1.59-.35-3.42-.87-4.7.13-.75.58-1.22,1.63-2.16,1.75s-1.7-.9-2-1.86A21.88,21.88,0,0,1,78.12,420.15Z"></path></g><g style="opacity:0.30000000000000004"><path d="M69.25,431.19a.22.22,0,0,1-.14,0c-2-1,.79-4.41,2.43-4.12a1.29,1.29,0,0,1,.73,2.08c-.66,1-2,1.11-2.85,2A.32.32,0,0,1,69.25,431.19Z"></path></g><g style="opacity:0.30000000000000004"><path d="M63.8,434.22a.73.73,0,0,1-.74-.36A2.52,2.52,0,0,1,63,431c1-1.45,3.69-1.6,4,.43a1.61,1.61,0,0,1-1,1.79c-.39.13-.81.09-1.19.24a3.21,3.21,0,0,0-.81.57A.7.7,0,0,1,63.8,434.22Z"></path></g><g style="opacity:0.30000000000000004"><path d="M63.79,440.55c-.3,0-.59-.26-.86-.15s-.33.45-.59.48-.38-.23-.44-.46a2.91,2.91,0,0,1,.28-2.16.81.81,0,0,1,.24-.31,2,2,0,0,1,.9-.23,1.11,1.11,0,0,1,.92.69,2.61,2.61,0,0,1,.16,1.18C64.37,440,64.2,440.52,63.79,440.55Z"></path></g><g style="opacity:0.30000000000000004"><path d="M66.42,437.34c1.17-.93,3,.12,3.7,1.12.57.79,1,3.14-.72,2.93a2,2,0,0,1-1.41-.9,4,4,0,0,0-.64-1l-.07-.06c-.34-.24-.8-.3-1.07-.6A1.05,1.05,0,0,1,66.42,437.34Z"></path></g><g style="opacity:0.30000000000000004"><path d="M66.68,441a.68.68,0,0,1-.19.53.53.53,0,0,1-.44.09.81.81,0,0,1,.2-1.61A1.47,1.47,0,0,1,66.68,441Z"></path></g><g style="opacity:0.30000000000000004"><path d="M66.48,440.08a.86.86,0,0,0-.23-.05l-.08-.08Z"></path></g><g style="opacity:0.30000000000000004"><path d="M60.41,434.87a2,2,0,0,1,.19,1.48,9,9,0,0,1-.63,1.08c-.62,1.22.2,2.94-.71,4a2.23,2.23,0,0,1-1.16.62,21.82,21.82,0,0,1,1.57-8.18A3.15,3.15,0,0,1,60.41,434.87Z"></path></g><g style="opacity:0.30000000000000004"><path d="M59.63,450a21.78,21.78,0,0,1-1.42-5.84c1.13-1,2.14-1.86,3.86-1.58a2.31,2.31,0,0,1,2,1.75,3.44,3.44,0,0,1-.18,1.38c-.14.49-.28,1-.41,1.46a1.32,1.32,0,0,1-.25.55c-.44.45-1.19.05-1.81.12a1.62,1.62,0,0,0-1.11.77,6.91,6.91,0,0,0-.59,1.26Z"></path></g><g style="opacity:0.30000000000000004"><path d="M66.42,448.18a3.4,3.4,0,0,1-.09-.9,6.63,6.63,0,0,0-.38-1.22,1.24,1.24,0,0,1,.14-1.21.51.51,0,0,1,.34-.17.72.72,0,0,1,.38.19A7.23,7.23,0,0,1,68.25,447L68,446.7a1.56,1.56,0,0,1,.27.86,1.18,1.18,0,0,1-.72,1.09A.93.93,0,0,1,66.42,448.18Z"></path></g><g style="opacity:0.30000000000000004"><path d="M89.33,427.53a1.13,1.13,0,0,0-.4-.22c-.43-.1-.75.39-1.17.54a1,1,0,0,1-1.15-.5c-1.19-1.92,1.63-3.24,3.17-2.47S91.75,429.35,89.33,427.53Z"></path></g><g style="opacity:0.30000000000000004"><path d="M86.7,438.26a9.35,9.35,0,0,1-.41-2.17,3,3,0,0,1,.28-1.73,3.16,3.16,0,0,1,2.65-1.2,4.26,4.26,0,0,1,2.52.43A9.61,9.61,0,0,1,93,434.71c.68.64,1.51,1.11,2.21,1.74A4,4,0,0,1,96.34,438a7.77,7.77,0,0,1,1.19,5,2.93,2.93,0,0,1-.89,2c-1.09.88-2.82.24-4,.95s-1.48,2.13-2.65,2.49-2.25-.59-3-1.51c-1.07-1.29-2-3-1.44-4.56.4-1.05,1.45-1.86,1.45-3A4.09,4.09,0,0,0,86.7,438.26Z"></path></g><g style="opacity:0.30000000000000004"><path d="M97.31,435.56l-1.58-1a1.26,1.26,0,0,1-.4-.36.75.75,0,0,1,.44-1,1.2,1.2,0,0,1,1.15.29,3.53,3.53,0,0,1,.73,1l-.39-.46A1.43,1.43,0,0,1,97.31,435.56Z"></path></g><g style="opacity:0.30000000000000004"><path d="M99.36,439.51c-.09.33-.48.59-.77.42a.81.81,0,0,1-.3-.46l-.51-1.34a.79.79,0,0,1-.06-.45.44.44,0,0,1,.5-.24.82.82,0,0,1,.49.33,3.67,3.67,0,0,1,.61,1.59l-.11-.83A1.62,1.62,0,0,1,99.36,439.51Z"></path></g><g style="opacity:0.30000000000000004"><path d="M69.53,435a.59.59,0,0,1,.61-1A.59.59,0,0,1,69.53,435Z"></path></g><g style="opacity:0.30000000000000004"><path d="M71.52,431.54a.76.76,0,0,1-.78,1.31A.76.76,0,0,1,71.52,431.54Z"></path></g><g style="opacity:0.30000000000000004"><path d="M72,437.89a3.43,3.43,0,0,1,.34-4.23c.69-.69,1.81-1,2.47-.12a2.75,2.75,0,0,1-.19,2.93c-.4.75-.2,1.09,0,1.85a2.55,2.55,0,0,1,0,1.37,1.24,1.24,0,0,1-1.94.72C72.06,439.89,72,438.79,72,437.89Z"></path></g><g style="opacity:0.30000000000000004"><path d="M67.18,442.34a3.72,3.72,0,0,1,1.7.61l.18.12a1.32,1.32,0,0,1,.61,1.63,1.08,1.08,0,0,1-1.51.36,2.26,2.26,0,0,1-.57-.62,3.52,3.52,0,0,0-.8-.74C66.24,443.34,66.4,442.24,67.18,442.34Z"></path></g><g style="opacity:0.30000000000000004"><path d="M70.47,443.11a.64.64,0,0,1-.2-.38.51.51,0,0,1,.75-.56.6.6,0,0,1,.29.73A.51.51,0,0,1,70.47,443.11Z"></path></g><g style="opacity:0.30000000000000004"><path d="M83.14,441c-1-.34-1.13-1.49-1.24-2.41s-.37-2,.46-2.64a1.7,1.7,0,0,1,2.42.54,3.55,3.55,0,0,1,.43,2.77,1.35,1.35,0,0,1-.2.44,2.5,2.5,0,0,1-.07.26A1.48,1.48,0,0,1,83.14,441Z"></path></g><g style="opacity:0.30000000000000004"><path d="M82.83,443.46a.69.69,0,0,1,0-.25v0a.83.83,0,0,1,.21-.82.68.68,0,0,1,1,0,1,1,0,0,1,0,1.43A.72.72,0,0,1,82.83,443.46Z"></path></g><g style="opacity:0.30000000000000004"><path d="M80.74,443.63c-.76-.09-1-.78-1.27-1.41a10.91,10.91,0,0,1-.74-2,1.47,1.47,0,0,1,.5-1.56,1,1,0,0,1,1.4.33,5.12,5.12,0,0,1,.48,1.9,2.68,2.68,0,0,0,.07.27l0,0C82,441.83,82.24,443.8,80.74,443.63Z"></path></g><g style="opacity:0.30000000000000004"><path d="M101.75,438.82a4.35,4.35,0,0,1-2.39-2,5.21,5.21,0,0,1-.24-4.38,2.14,2.14,0,0,1,.17-1A21.91,21.91,0,0,1,101.75,438.82Z"></path></g><g style="opacity:0.30000000000000004"><path d="M93.22,452.07l-.12,0a2.54,2.54,0,0,1-2,.92.58.58,0,0,1-.88,0,1.3,1.3,0,0,1-.35-1,1.59,1.59,0,0,1,.08-1.13c.31-.67.88-.89,1.46-1.29l0,0a7.19,7.19,0,0,0,.7-.85,2.68,2.68,0,0,1,.36-.52,1.33,1.33,0,0,1,1.79.2,1.56,1.56,0,0,1,.16.2c.3.08.38.46.39.79a8.22,8.22,0,0,1,.21.82l-.21-.55a3.83,3.83,0,0,1-.28,1.54A1.4,1.4,0,0,1,93.22,452.07Z"></path></g><g style="opacity:0.30000000000000004"><path d="M86.37,430.91a.87.87,0,0,1,.66,1.38,1.89,1.89,0,0,1-.66.53l-.19.12-.06.13a1.61,1.61,0,0,1-.43.64c-.46.38-1.36.14-1.29-.57a1.72,1.72,0,0,1,.51-1.11.43.43,0,0,1,0-.07A1.52,1.52,0,0,1,86.37,430.91Z"></path></g><g style="opacity:0.30000000000000004"><path d="M88.31,457.08c.24-1.1,1.52-1.13,2.33-1.58s1-1.8,2.12-1.87a1.16,1.16,0,0,1,1.15,1.45,3.84,3.84,0,0,1-1.27,2.16,3.06,3.06,0,0,1-3.15,1.54A1.53,1.53,0,0,1,88.31,457.08Z"></path></g><g style="opacity:0.30000000000000004"><path d="M95.44,451.59a.62.62,0,0,1,1.12.17,2.89,2.89,0,0,1,0,1.37c-.13.42-.48.94-1,.93l-.1,0a1,1,0,0,1-.72,0,1.09,1.09,0,0,1-.55-1.43,1.12,1.12,0,0,1,.56-.61C95,451.84,95.28,451.84,95.44,451.59Z"></path></g><g style="opacity:0.30000000000000004"><path d="M95.72,449.44A.49.49,0,0,1,96,449a.41.41,0,0,1,.49.07.52.52,0,0,1,.13.53.45.45,0,0,1-.88-.13Z"></path></g><g style="opacity:0.30000000000000004"><path d="M97.86,454.13c.8-1.53.55-2.7.26-4.31a4.21,4.21,0,0,1,.14-2.58c.63-1.38,2.09-1.92,3.52-2.2a22,22,0,0,1-2.93,8.27c-.32.54-.67,1.05-1,1.55A.93.93,0,0,1,97.86,454.13Z"></path></g><g style="opacity:0.30000000000000004"><path d="M100,444.25a.89.89,0,0,1-1.17-.34l0,0a1.06,1.06,0,0,1-.17-.26.84.84,0,0,1,.37-1,1.75,1.75,0,0,1,.56-.25,5.48,5.48,0,0,1,2.43-.62c0,.71,0,1.43-.07,2.15A4.92,4.92,0,0,0,100,444.25Z"></path></g><g style="opacity:0.30000000000000004"><path d="M100.17,439.68a.48.48,0,0,1,.85,0c0,.07.06.13.08.19l0,.05a.62.62,0,0,1,0,.48.75.75,0,0,1-.16.4.49.49,0,0,1-.13.12.27.27,0,0,1-.07.08.43.43,0,0,1-.6,0,1,1,0,0,1-.31-.84A.71.71,0,0,1,100.17,439.68Z"></path></g><g style="opacity:0.30000000000000004"><path d="M97.76,446.46a.86.86,0,0,1-.53.31c-.35.68-1.2,1.26-1.79.63a.79.79,0,0,1,.2-1.16,6.11,6.11,0,0,1,1.48-.65A.55.55,0,0,1,97.76,446.46Z"></path></g><g style="opacity:0.30000000000000004"><path d="M63.42,435.16a1.21,1.21,0,0,1,1.24-.5,2.67,2.67,0,0,0,1.4-.21.62.62,0,0,1,.83.85,2.06,2.06,0,0,1-1.44,1A1.73,1.73,0,0,1,64,436.1a1.29,1.29,0,0,1-.35-.18A.56.56,0,0,1,63.42,435.16Z"></path></g><g style="opacity:0.30000000000000004"><path d="M62.43,430.26a2.78,2.78,0,0,1-1.41.82c.07-.13.14-.26.22-.39a21.58,21.58,0,0,1,2.19-3l0,.07A2.86,2.86,0,0,1,62.43,430.26Z"></path></g><g style="opacity:0.30000000000000004"><path d="M68.45,453.92c-.14-.79.7-1.34,1.35-1.52,1-.27,1.85,0,2.73-.6a3.81,3.81,0,0,1,2.29-1,1.43,1.43,0,0,1,1.32,1.11,1.75,1.75,0,0,1-.52,1.53,2.82,2.82,0,0,1-1,1.41,3.52,3.52,0,0,1-3.55.4C70,455.42,68.65,455.06,68.45,453.92Z"></path></g><g style="opacity:0.30000000000000004"><path d="M71.38,451.28a.84.84,0,0,1-.07-1,1,1,0,0,1,1.11-.45.61.61,0,0,1,.5.2c.51.54,0,1.32-.65,1.44A1,1,0,0,1,71.38,451.28Z"></path></g><g style="opacity:0.30000000000000004"><path d="M76.32,455.11a.53.53,0,0,1-.39-.41,1.39,1.39,0,0,1,.38-1.21.58.58,0,0,1,1,.28.76.76,0,0,1,.15.87A1,1,0,0,1,76.32,455.11Z"></path></g><g style="mix-blend-mode:multiply;opacity:0.2"><path d="M73.68,421.09a21.95,21.95,0,0,0,18.44,39.33,21.95,21.95,0,1,1-18.44-39.33Z"></path></g><path d="M107.48,435.65a2.2,2.2,0,1,1-.15.06" style="fill:#455a64"></path><path d="M103.06,430.49a1.32,1.32,0,1,1-.08,0" style="fill:#455a64"></path></g><g id="freepik--Satelite--inject-55"><path d="M393.49,57.9l11,6.53a.5.5,0,0,0,.5-.87L394,57a.5.5,0,0,0-.51.87Z" style="fill:#455a64"></path><path d="M392.08,60.27q5.49,3.27,11,6.53a.5.5,0,0,0,.5-.87l-11-6.53a.5.5,0,0,0-.51.87Z" style="fill:#455a64"></path><polygon points="380.74 43.79 373.73 55.59 391.31 66.04 398.15 54.53 398.31 54.22 380.74 43.79" style="fill:#455a64"></polygon><rect x="380.13" y="45.69" width="11.77" height="18.44" transform="translate(141.54 358.64) rotate(-59.26)" style="fill:#fff"></rect><rect x="382.56" y="46.73" width="0.86" height="12.84" transform="translate(78.75 -185.48) rotate(30.21)" style="fill:#455a64"></rect><rect x="385.58" y="45.26" width="0.86" height="19.29" transform="translate(144.33 360.86) rotate(-59.79)" style="fill:#455a64"></rect><rect x="388.2" y="50.01" width="0.86" height="12.84" transform="translate(81.14 -187.84) rotate(30.2)" style="fill:#455a64"></rect><path d="M418,74.24q-5.5-3.26-11-6.53a.51.51,0,0,0-.51.88l11,6.52a.5.5,0,0,0,.51-.87Z" style="fill:#455a64"></path><path d="M419.41,71.87l-11-6.53a.51.51,0,0,0-.51.88l11,6.52a.5.5,0,0,0,.5-.87Z" style="fill:#455a64"></path><polygon points="404.39 91.24 402.62 80.47 392.87 74.44 382.71 78.25 404.39 91.24" style="fill:#455a64"></polygon><rect x="388.69" y="85.05" width="9.1" height="0.94" transform="translate(125.66 386.1) rotate(-60.59)" style="fill:#455a64"></rect><path d="M390.18,88a2.06,2.06,0,1,1-1.49,2.51A2.06,2.06,0,0,1,390.18,88Z" style="fill:#455a64"></path><polygon points="402.62 80.47 403.5 78.97 407.06 78.07 416.74 61.78 416 58.86 416.7 57.69 406.07 51.39 405.27 52.74 402.43 53.46 392.88 69.86 393.7 73.15 392.9 74.45 402.62 80.47" style="fill:#455a64"></polygon><polygon points="430.75 88.36 437.76 76.55 420.18 66.11 413.35 77.61 413.19 77.93 430.75 88.36" style="fill:#455a64"></polygon><rect x="419.6" y="68.02" width="11.77" height="18.44" transform="translate(141.64 403.48) rotate(-59.26)" style="fill:#fff"></rect><rect x="428.07" y="72.58" width="0.86" height="12.84" transform="translate(759.03 362.9) rotate(-149.79)" style="fill:#455a64"></rect><rect x="425.05" y="67.59" width="0.86" height="19.29" transform="translate(706.31 -251.61) rotate(120.21)" style="fill:#455a64"></rect><rect x="422.43" y="69.29" width="0.86" height="12.84" transform="translate(750.24 353.85) rotate(-149.8)" style="fill:#455a64"></rect><path d="M393,69.67a81.08,81.08,0,0,1,7.2,4,80.59,80.59,0,0,1,7,4.31A80.18,80.18,0,0,1,400,74,79.92,79.92,0,0,1,393,69.67Z" style="fill:#263238"></path><path d="M407.06,78.07a8.78,8.78,0,0,1,.63-1.24l1.85-3.29c1.58-2.78,3.79-6.59,6.25-10.79l.62-1.06.08.29c-4-2.31-7.5-4.4-10-5.92l-3-1.81a7.38,7.38,0,0,1-1.06-.71,7.41,7.41,0,0,1,1.14.58l3.05,1.69c2.57,1.46,6.13,3.5,10.1,5.81l.18.1-.11.18c-.19.34-.4.7-.62,1.06-2.46,4.2-4.7,8-6.35,10.73l-2,3.22A8.44,8.44,0,0,1,407.06,78.07Z" style="fill:#263238"></path><path d="M405.34,52.62a46.27,46.27,0,0,1,5.44,2.92A45.61,45.61,0,0,1,416,58.83a46.27,46.27,0,0,1-5.44-2.92A45.61,45.61,0,0,1,405.34,52.62Z" style="fill:#263238"></path><path d="M393.7,73.15a39.25,39.25,0,0,1,5.08,2.71,39.23,39.23,0,0,1,4.87,3.08,39.25,39.25,0,0,1-5.08-2.71A39.23,39.23,0,0,1,393.7,73.15Z" style="fill:#263238"></path><path d="M392.74,74.48a40.33,40.33,0,0,1,5.07,2.71,38.61,38.61,0,0,1,4.86,3.08,42,42,0,0,1-5.07-2.71A39.09,39.09,0,0,1,392.74,74.48Z" style="fill:#263238"></path><path d="M389.17,53a31,31,0,0,1-4.95,1.49,32,32,0,0,1-5.05,1.08,31.39,31.39,0,0,1,4.95-1.49A32,32,0,0,1,389.17,53Z" style="fill:#263238"></path><path d="M391.66,54.92a9.78,9.78,0,0,1-2.69,1,9.88,9.88,0,0,1-2.82.57,10.1,10.1,0,0,1,2.7-1A9.45,9.45,0,0,1,391.66,54.92Z" style="fill:#263238"></path><path d="M431,75.51a48.16,48.16,0,0,1-6.39,1,51.68,51.68,0,0,1-6.46.61,48.51,48.51,0,0,1,6.4-1A51.76,51.76,0,0,1,431,75.51Z" style="fill:#263238"></path><path d="M432.87,77a21.68,21.68,0,0,1-3.32.6,23.76,23.76,0,0,1-3.34.51,9.78,9.78,0,0,1,3.27-.92A10.18,10.18,0,0,1,432.87,77Z" style="fill:#263238"></path></g><g id="freepik--Earth--inject-55"><circle cx="249.3" cy="255.95" r="132" transform="translate(-107.97 251.25) rotate(-45)" style="fill:#FFC727"></circle><g style="opacity:0.30000000000000004"><path d="M234.3,126.21a.46.46,0,0,0-.2,0,7.54,7.54,0,0,0-.88.09l-1,.38s-.11,0-.09.07.29.27,1.59-.09C234.41,126.44,234.4,126.27,234.3,126.21Z"></path><path d="M232.25,125.13a3.8,3.8,0,0,0,.59-.17s-.05,0-.08,0L232,125c-.1,0-.2.08-.18.11A.82.82,0,0,0,232.25,125.13Z"></path><path d="M236.38,124.66a2.5,2.5,0,0,0,.67,0,8.56,8.56,0,0,0,.86-.1s.6-.09.7-.12,0,0-.12,0a33.88,33.88,0,0,0-4.1.32l1.07,0A4.74,4.74,0,0,1,236.38,124.66Z"></path><path d="M234,125.09l0,0a4,4,0,0,1,.87-.08c.27,0,.64,0,.85-.07l.12,0-.16,0a14.26,14.26,0,0,0-4.54.58,19.34,19.34,0,0,0,2.83-.26A.33.33,0,0,1,234,125.09Z"></path><path d="M236.14,125.62l.15-.05c.09,0,.17-.09.26-.13l.48-.18c.09-.05.1-.06.1-.07s0,0-.06,0a4.82,4.82,0,0,0-1.42.31h0c.06.06.06.06-.21.25C235.49,125.75,236.13,125.62,236.14,125.62Z"></path><path d="M229.78,127.56a.3.3,0,0,0-.13,0c-.21,0-.4,0-.4,0a6.48,6.48,0,0,0-1.32.34h0a6.28,6.28,0,0,0,1.6-.15C229.7,127.69,229.87,127.61,229.78,127.56Z"></path><path d="M230,130c0-.05-.07-.11-.35-.16l-.16,0-1.41-.2a8.65,8.65,0,0,0-3,.4.06.06,0,0,0,0,0c.13.1.31.08.41.22s.07.29,0,.35a12.35,12.35,0,0,1-1.95.6c-.16,0-.17,0-.25,0,0-.37.49-.34.6-.63a3.82,3.82,0,0,0-1.74.41s-.06.07-.06.11c0,.27,0,.54,0,.82a1.13,1.13,0,0,1,0,.32c-.07.19-.25.32-.29.53,0,0,0,.08,0,.11.2.46,3.74-.23,4.82-.75.24-.12,1.11-1,.77-1.07a6.19,6.19,0,0,0-1.14-.09c.85-.22,1.73-.27,2.58-.49C228.81,130.44,229.93,130,230,130Z"></path><path d="M221.59,126.88c1.47-.13,2.87-.65,4.33-.83a13,13,0,0,0-1.62.4l5.13-.93a1.19,1.19,0,0,0,.44-.17.32.32,0,0,0-.17,0,82,82,0,0,0-9.92,1.82c.67.14,1.26-.24,1.9-.31Z"></path><path d="M218.43,135.9h-.06a1,1,0,0,0-.35.07,18.46,18.46,0,0,1-2.06.83c-1.22.26-1.59.34-1.69.48l0,0a1.38,1.38,0,0,0,.41.09c.41.05.46.07.52.15s0,.34.15.46a2.39,2.39,0,0,0,.62.16,5.32,5.32,0,0,0,2.83-.18c.28-.17.11-1.23.11-1.24A1.48,1.48,0,0,0,218.43,135.9Z"></path><path d="M223.44,129.44a1,1,0,0,0-.32-.07,3.86,3.86,0,0,0-2,.34v0c.09,0,.2,0,.28.09s0,.08-.16.24-.34.35-.13.36a8.46,8.46,0,0,0,1.69-.53C223.44,129.65,223.62,129.51,223.44,129.44Z"></path><path d="M314.51,156.48c-.45-1.37-1.5-2.44-1.91-3.82a13.14,13.14,0,0,1,0-2.66c-.1-1,.17-1.21.85-1.54.93-.46.56-.91-.57-2.25-3.69-4.38-3.7-4.46-3.88-5.21l.14-.17h.27c-.89-1.81-4-1.73-3.79-4.48l-.38-.39c.06-.11.16-.26.23-.36l.21,0c-.58-.3-2.3-1-2.32-1a15.49,15.49,0,0,0-3-.79c-1.08-.18-1.71-1.15-2.68-1.52-1.35-.54-4.38-1.61-5.6-2-2.27-.66-2.27-.66-2.58-.57h0a20.67,20.67,0,0,0-3.7-.91h0s-.05,0-.08,0,0,0,0,0l.07,0a9.59,9.59,0,0,1,1.77.85c-.13,0-.13,0-1.69-.61a13,13,0,0,0-1.68-.51,37.72,37.72,0,0,0-10.65-1c.17.18.17.18,1,.46-.89.55-2.67.41-3.62.34a46.39,46.39,0,0,0-5.19-.08c-1.79,1.21,1.08,2.81,1.12,2.82,7.79,2.11,7.86,2.22,8.23,2.88,0,0,2.18,5.21.28,6.94-.76.7-.77.73-.79.86-.08.49.46.72.48,1.16,0,.68-.45,1.27-.32,2,1.08.12,2.25-.64,3.26.31,1.72,1.62.2,2.93.18,2.94-1.18.7-2.69.12-3.83,1a5.15,5.15,0,0,0-1.66,3.11c0,.51,2.38,12.64,4.89,14.6,6.63,3.86,6.84,3.75,7.47,3.39,1-.57,4.61-6.62,4.65-6.68.52-.89.37-2.08,1.24-2.81.46-.38.49-.38,2.46-.29,6.2.27,6.2.27,6.71-.74s.83-1.62,2-1.78c2.88-.38,5.75.43,8.63,0a24.64,24.64,0,0,0,3.54-.44S314.82,157.41,314.51,156.48Z"></path><path d="M240.86,143.57c.56-.67.56-1.06,0-1.17,0,0-1.79-.14-2.34.48-.31.35,0,1.67.19,1.93C239.21,145.46,240.85,143.59,240.86,143.57Z"></path><path d="M260.42,124.72c-.41,0-.83,0-1.24,0,1.26.14,5.37.43,6,.47a66.71,66.71,0,0,1-7.31-.38,1.76,1.76,0,0,0-1,.07,2.44,2.44,0,0,1-1,1c-1-.73-4.51-.07-4.66,0,.22.2.54.26.73.5l-.08.11a6.65,6.65,0,0,0,1.94.1c-2.55.41-2.7,0-2.8-.2-1.64-.53-1.95.06-2.09.34-1.14.28-2.36-.08-3.46.44l0,.15a10,10,0,0,0,2.25.44c1.34.19,2.75-.31,4,.48-.19.2-.19.2-.55.32.85.5,4.27.11,4.26-.7-.09-.07-.21-.14-.3-.2a11.41,11.41,0,0,1,3.16-.73c2.83.29,4.09-.37,4.19-.58l-.12-.09c2.64.22,3.84.31,4.77.08a2.13,2.13,0,0,0-.64-.16l6.38.24c-1.48-.29-1.57-.31-2.11-.46,1.48.11,2.94.39,4.42.53-1.32-.46-3.6-1-3.61-1s-5.63-1-6.91-.92a.61.61,0,0,0,.15.24,1.93,1.93,0,0,1-1-.28c-.37-.18-5.26-.67-5.93-.27C258.23,124.5,258.28,124.54,260.42,124.72Z"></path><path d="M236.1,126.39a4.82,4.82,0,0,1-.44.35,3.36,3.36,0,0,1-1,.38l.35-.39a.6.6,0,0,0,.14-.2,1.51,1.51,0,0,0-1.16.18l.16,0a.08.08,0,0,1,0,0A11.27,11.27,0,0,1,232,127c.08.08.21,0,.29.1-.13.13-.13.13-.14.16s.1.07,2,.11a8.33,8.33,0,0,0-2.65.73.08.08,0,0,1,0,0s2.23,0,2.53-.08a8.47,8.47,0,0,0,1.66-.61s0,.07-.07.17,0,0,0,0a25.78,25.78,0,0,1,2.41-1c.37-.13.4-.14.47-.2a.26.26,0,0,0-.2-.07s-1.93-.1-2.14-.06Z"></path><path d="M250.25,147c.84.22,1.84,3.1,1.85,3.13.23.7.47,1.43.9,1.5,1.19.18,4.36-3.51,4.39-3.54a1.49,1.49,0,0,0,.23-.43l-7.53-4.73a11.58,11.58,0,0,1,2.85-.37c1-.08,1.49-.12,1.54-.35.14-.61-1.78-4.34-3.09-5.06-.59-.32-1.31-.36-1.8-.86s-.09-1.54-.94-1.92a13.91,13.91,0,0,0-4.15-.27c-1.44,0-1.45,0-1.65-.05a7,7,0,0,1,.55-2.37,8.48,8.48,0,0,0-2.67-.76c-2.67-.28-12.16,3.29-11.11,4.71s6.08,2.11,6.82,2c.05-.43.08-.71,2.21-.22,1.81.43,2.21.1,2.48-.13a15,15,0,0,1,1.13,1.75c.38.85.32,1.81.65,2.68.41,1.09,2.06,1.57,1.54,3.12,0,0-1.59,3.38-6.94,3.13-1.59-.08-3.14-.71-4.77-.46a1.34,1.34,0,0,0-1,1.34c.19.33,1,.74,3.85.77,2.17,0,2.17,0,5.1,2.76-.39.19-.39.19-2,.23.52.94,6,4.24,7.44,4,0-.2,0-.2-.24-.46a27,27,0,0,1-1.9-3.5,7.19,7.19,0,0,1,3.42,2.63c.17.23.29.4.42.41.73,0,2.7-2.07,2.36-2.8-.72-1.6-2.92-2.19-2.92-4.28C247.33,146.91,250.23,147,250.25,147Z"></path><path d="M227.62,126a2.46,2.46,0,0,0,1-.08,1.86,1.86,0,0,0,.28-.09h-.07A5.36,5.36,0,0,0,227.62,126Z"></path><path d="M270.26,148.45l1.33.19a.91.91,0,0,0,.55-.24.35.35,0,0,0,.05-.35c0-.22-.25-.36-.32-.57a.39.39,0,0,1,0-.29.06.06,0,0,0,0-.06,1.05,1.05,0,0,0-.58-.27c-.61-.07-2.53.3-1.84,1.14A1.35,1.35,0,0,0,270.26,148.45Z"></path><path d="M248.27,133.56l0,0a6,6,0,0,0-3-1.62c-1.2-.21-1.11.67-.92,1C245,133.9,248.24,133.56,248.27,133.56Z"></path><path d="M241.56,124.62a8.43,8.43,0,0,0-1.24.1h.18a3.39,3.39,0,0,1,1.15.26c-.12.18-.39.08-.51.26,0,.12,1.12.07,1.2.06a5.71,5.71,0,0,0,1.9-.82c-.13-.1-.29,0-.43-.07.21-.19.51-.07.73-.22l-.1,0a20.09,20.09,0,0,0-2.81.17c.19.14.44.05.65.14C242.28,124.58,242.15,124.61,241.56,124.62Z"></path><path d="M235,128.17c-.3.09-.4.12-.11.47a2,2,0,0,0,2,.07c.5-.2,1.58-.73,1.23-.9l-.16,0A18.68,18.68,0,0,0,235,128.17Z"></path><path d="M247.78,126.07v0h-.17c-.56,0-1.12,0-1.68,0s-1.28-.12-1.93-.15a4,4,0,0,0-.85,0,17.09,17.09,0,0,0,2.94.47,3.74,3.74,0,0,0,1.51-.19Z"></path><path d="M243.26,125.48s0,0,0,0c.2,0,2.19-.07,2.77-.13.26,0,.32-.06.36-.15s-.15-.11-.11-.22.06-.09.05-.15v0a.13.13,0,0,0-.06-.07.31.31,0,0,0-.24-.06,1.19,1.19,0,0,0-.32,0,5.42,5.42,0,0,1-1.4.49C243.68,125.24,243.47,125.24,243.26,125.48Z"></path><path d="M248.22,124.28a6.89,6.89,0,0,0,1.49-.22.36.36,0,0,0-.14,0s-1.38,0-1.8,0-.39.25-.39.25S247.78,124.33,248.22,124.28Z"></path><path d="M251.07,124.64c.59,0,.76,0,.91.18s0,0,0,.05a4.11,4.11,0,0,1-1,0,12.89,12.89,0,0,0-2.11,0c-.39.08-.55.45-.44.56s0,0,1,.09c.39,0,.75.24,1.16.24,1,0,1.94-.32,2.92-.4.61-.05,1.22.09,1.83,0a.5.5,0,0,0,.13,0s0,0-.37-.26v0a1.65,1.65,0,0,1,.31,0c.85-.09.87-.12.91-.19s-.17,0-.22-.13c.17-.12.46-.07.5-.36.22-.13.49-.1.7-.25a.49.49,0,0,0-.16,0,41,41,0,0,0-5,.08,1.5,1.5,0,0,0,.52.09,3.72,3.72,0,0,1-1.33,0,3,3,0,0,0-1.74.27A7,7,0,0,0,251.07,124.64Z"></path><path d="M238.05,129.3c.08,0,9.31,2.24,12.49.73.86-.41-.68-1.06-.7-1.07a36.7,36.7,0,0,0-6.25-.29c-.84,0-1.18-.85-1-1s.23-.06.53,0c1.59.1,1-.61.88-.67a6.3,6.3,0,0,0-1.14-.12c-.44-.1-.79-.4-1.23-.51-.13,0-.57-.12-.86-.14a2.86,2.86,0,0,0-1.27.67,1.35,1.35,0,0,0,.6.07,2.94,2.94,0,0,1,1.15.12c.17.23-.86.88-.91.91a18.43,18.43,0,0,0-1.8.5C237.49,129.11,237.8,129.22,238.05,129.3Z"></path><path d="M223.16,126.73h0c-.33,0-3.07.57-3.24.68C220,127.44,220.16,127.48,223.16,126.73Z"></path><path d="M207,131.79l0,.06a.33.33,0,0,0,.17,0c.91-.24,1.75-.64,2.65-.9,1.63-.45,3.31-.71,4.93-1.2.38-.11.38-.11,1-.7a.27.27,0,0,1,0-.09,5.12,5.12,0,0,0-1.41.21c.43-.17.43-.17.57-.38l0-.05h-.17c-1.85.12-1.85.12-11,3.46a5.3,5.3,0,0,0-2.32,1.41l.06,0C203.42,133.44,205.12,132.4,207,131.79Z"></path><path d="M219.3,128.54a5.15,5.15,0,0,0,1.51-.15c2.63-.46,3.92-.55,3.93-.55a21.56,21.56,0,0,0,2.41-.07c.63-.09,3.17-.79,3.19-.8.49-.14.53-.18.6-.23a1.32,1.32,0,0,0-.67-.06c-.75.14-1.46.44-2.2.58,1-.5,2.14-.79,3.17-1.31l-.09,0s-3,.41-3.23.74-.72.77-2.82.54l0-.06.21-.11.07,0c.36-.19,1.32,0,1.1-.59-.06,0-6.14.68-6.43,1.38a21,21,0,0,0,3-.48c-.4.33-.91.3-1.36.46.06,0,.08,0,.8-.08a7.06,7.06,0,0,1,1.27-.1,35.19,35.19,0,0,1-4.11.61C219.19,128.23,219.11,128.45,219.3,128.54Z"></path><path d="M200.31,136.34c.35.23.75,0,1.11.14l0,.08c-.32.4-.84.5-1.21.83a21.83,21.83,0,0,0,7-1.07,5.06,5.06,0,0,1,1.56-.41l.06.07c-.28.25-.28.25-.32.31a6.93,6.93,0,0,0,1.35,1c1.39,0,1.39,0,3.08-.92.06,0,.07,0,.08,0s-.12-.07-1.49.15a3.13,3.13,0,0,1,2.63-.52c.29.12.36.12.5.08s.84-.36.92-.91c-.53-.61-.55-1.43-.05-1.73s4.29-2.63,4.32-2.92a2.27,2.27,0,0,0-.35-.26V130h0c-1.61.61-3,1.79-4.73,2.11.07-.65.76-.63,1.09-1l-.09-.11a12.37,12.37,0,0,1-1.93.19c.27-.21.62-.27.86-.52l0-.08c-.9,0-1.73.38-2.61.4a19.33,19.33,0,0,1,2.37-.91c-.51-.12-8.35,1.76-8.47,2.58a2.18,2.18,0,0,1,.21.22c-.2.17-.21.17-1.13.36-1.54.33-1.65.46-1.71.64a.41.41,0,0,0,.23.11c.75.11,1.5-.16,2.26-.07.53.07,1,.46,1.5.53a8.57,8.57,0,0,1-3,.29C200.61,134.62,199.77,136,200.31,136.34Z"></path><path d="M226.42,154.64c.2-.24-.08-.33-.32-.37a2.9,2.9,0,0,0-1.39,0,1,1,0,0,0-.51,1.11C224.45,155.87,226.13,155,226.42,154.64Z"></path><path d="M226.6,149.75a.53.53,0,0,0,.29-.11.75.75,0,0,0,.06-.76c-.14-.27-.38-.49-.5-.77a11.21,11.21,0,0,0-.52-1.51,1.77,1.77,0,0,0-.16-.22c-.32-.39-.83-.53-1.15-.91s-.08-.61-.28-.86a.21.21,0,0,0-.12,0,14,14,0,0,0-2.36,1.41c-.24.17-.55.41-.78.59L219,148.3c.78.35.78.35.7.77s-.1.55,0,.56a3.25,3.25,0,0,0,1-.29,6.19,6.19,0,0,1,3.5-.54C225,149,225.64,149.75,226.6,149.75Z"></path><path d="M222.85,152.45a9.3,9.3,0,0,0-2.69,0c-.44.15-.76.89-.61,1.1.28.4,3-.14,3.62-.62C223.37,152.77,223.48,152.56,222.85,152.45Z"></path><path d="M175.71,252c-.78,0-.77,1.25-.4,1.54s1.9,1.16,2.13.41A2.36,2.36,0,0,0,175.71,252Z"></path><path d="M323.72,173a.44.44,0,0,0,0-.15,2.74,2.74,0,0,0-.73-1.33l-.25-.19c-.68-.47-1.55-.57-2.18-1.13-.45-.39-.65-1.05-1.29-1.23-.79-.08-1.57,0-2.35-.11s-1.48-.38-2.25-.39c-.49,0-.37.65-.78.73s-.69-.45-1.14-.37l-.23,0c-.35.57-.05,1.48-.91,1.79a9.94,9.94,0,0,1-1.39-2.6c-.2-1.33-2.46-2.91-3.36-2.59,0,.64.73.76.9,1.28-.49.76-1.42.28-2,.72.17.25,1,.41,1.47.48.83.14,3,1.85,1.22,2.5.33.93,1.33.59,1.93,1s.54.7.33,1.31c.11.19.23.3,1.66.64a9.25,9.25,0,0,1,1.53.43c.65.28,1.16.78,1.8,1.06l.28.1a10.88,10.88,0,0,0,2.54.38c1.8.18,5-.76,5-1.34.05-.38-.17-.72-.15-1.09C323.52,172.92,323.52,172.92,323.72,173Z"></path><path d="M179,249.81c.39,1.2,4.81,3.13,5.07,2.63.15-.28-3.31-9-3.36-9.07a7.35,7.35,0,0,0-5.4-3,9,9,0,0,0-3.86.81c.16.31,1.66.6,3.07.35,2-.38,2.95.56,3,.89-.15.14-.47.29-.9-.2l-.07,0c-.22.83,1,1.64,1.82,2.18,1.49,1,1.48,1.38,1.46,2.54a3.55,3.55,0,0,0,.17,1.48,1.76,1.76,0,0,1,.19.85C180,249.86,179.35,249.61,179,249.81Z"></path><path d="M184.25,257.91c.38.42-.3,1.16.35,1.46,1.11.52,1.53-1.09,2.56-.83a2,2,0,0,1,.54.25,44.34,44.34,0,0,0,4.71,2.09c.15,0,.26,0,.32-.1.21-.51-.07-1.09.26-1.57,1-1.51-7.19-5.2-7.75-5.3a.44.44,0,0,0-.25,0c-.05.13-.05.13,0,.29a2.54,2.54,0,0,1-.12,2.82c-.21.08-.84-.26-1.72-.74-1.61-.87-1.79-.88-1.9-.88s0,.09,0,.11C182.14,256.52,183.41,256.94,184.25,257.91Z"></path><path d="M236,185c-.82,0,.55,1.4.83,1.68,1.82,1.79,3,1,3,.94C240.25,187.12,236.81,185.14,236,185Z"></path><path d="M161.7,156.79l.07-.06,0,0Z"></path><path d="M182,142.4m-37.37,33.1c-10.76,13.12-18.14,32-18.14,32v3.68c.3.16.3.16,1.82,13.19l-1.29-.41c.17,1.61,2.78,9.48,2.81,9.55.66-.49,1.34-1,.24-4.89-.5-1.78-1.07-3.78-.26-12.23,1.79,2.6,1.64,3.83,1.45,5.39a10.7,10.7,0,0,0-.08,3.27c.43,1.91,1.13,3.74,1.64,5.62.66,2.45,2.58,4.36,2.95,6.92.3,2.07-1,4.25.46,6.23a4.92,4.92,0,0,0,.8.78,18.9,18.9,0,0,0,1.5,1.34c1.76,1.18,3.63,2.18,5.41,3.34s4.34.78,5.9,2.57c3.57,4.11,3.57,4.11,5.08,4.83l.74.37c6.67,3.45,6.53,13.15,14.31,15.58,5.42-4.51,5.12,3.07,4.75,6.54-.12,1.09-.12,1.09-3.53,4.64,0,.06-4.57,7-4.28,8.71.05.28.1.65.17.92,1.21,4.63,8,18.49,8,18.59,1.76,3.07,5,4.76,7,7.61,1.51,2.17,2,5.57,1.44,9.56,0,.19-2.3,19.35,1.18,31.49,4.43,15.38,13.37,17,13.45,17-6.67-7-6.67-7-4.69-10.23-.71-1.61-.71-1.61-.78-8.25.37,0,.37,0,1.89.6,0-.16,0-.16-.91-3.39,1.87-.77,1.88-.77,2.13-1.82l.39-.13c2.28,1.72,3.89-.09,3.57-1.29l-.38-1.3c5.81,1.86,13.15-11.2,13.21-11.33,1.46-1.49,4-1.78,5-1.84,2.34-.13,3.21-2.52,5.12-3.32a2,2,0,0,1,1.9.06c.81.41.87.44,1.26-.32.85-1.66,1.31-3.47,2-5.19.39-1,.16-2.17,1.15-2.9,1.14-.83,1.56-1.15,1.28-2.07a1.62,1.62,0,0,1-.06-.58c5.43-.06,9-4.67,9-4.72a1.52,1.52,0,0,0,.06-.2c.1-.61-.22-1.2-.13-1.81.14-.93,1.72-1.71.82-2.65-.64-.67-1.61-.36-2.33-.8-2.32-1.42-3.2-4.18-5.34-5.77-3.2-2.36-6.67-4.3-10-6.48-1.83-1.52-1.16-4-2-5.88-1.71-2.22-2.54-5.15-4.39-7.28-2.43-2.79-6.36-3.52-8.73-6.39-1.86-2.28-2.6-5.28-4.72-7.4a5.14,5.14,0,0,0-1.16-.86c-11.67-6.18-20.89-11.07-25.42-1.69-2.74-3.88-13.59-3.07-10.58-8.84a11.25,11.25,0,0,0,1.18-6.76c-2.35-2.44-5.78-2-8.59-3.17,2.05-2.81,2.05-2.81,1.88-4.52a17.7,17.7,0,0,0,3.65-5c-.37-.67-3.81-6.23-8.64,4.25-1.62-.68-3.5,1.26-5-.49-3.55-4.1-3.92-7.86-3.83-9.74.11-2.32,2.45-3.35,3.11-5.35.42-1.28-1.07-2.49-.12-3.79,1.24-1.67,6-4,7-4.33,1.85-.61,7,2.64,7.07,2.67l.65-.24c-.26-.62-.84-1-1.19-1.56.1-.18.24-.4.35-.58,1.35-.25,10.57,2.11,10.61,2.15,3.11,3.39-1.12,8,1.81,11.38,6-3.06.41-9.57,2.8-13.91,2.47-4.49,7.63-3.93,11.36-6l-.06,0c-.07-.17-.16-.4-.24-.58.09-.16.19-.38.27-.55l.62,0c.09-.21.22-.47.31-.67l-.48-.4,4-8.44c-.38,1.32-1.77,5.26-1.77,5.27.5-.13.5-.13,2.89-5.75a7.21,7.21,0,0,1,.38,2.16c1.26-1.07,1.62-2.93,3.25-3.68a65.56,65.56,0,0,1,6.54-.85c2.07-4.35,2.07-4.35,5.43-5.83.42.17.42.17,9.26-1.5l-.42.43a4,4,0,0,0,1.23.73l-.23.64c-5.31,1.52-5.31,1.52-5.68,2.38,2.86,1.07,13.55-1,13.36-5.52-1.5.38-2.08,1.87-3.2,2.71l-2.12-1.49a2.33,2.33,0,0,0,1.41-.44l0,0s0,0,0,0a.57.57,0,0,0-.25-.07,3.49,3.49,0,0,1-2-.9,1,1,0,0,1-.23-1.3c.07-.18.05-.2,0-.23h0a2.3,2.3,0,0,0-.67,1.63c-.92-.91-.92-1.54-.88-3-.9-.74-.94-.85-1.19-1.55,1.7.12,2.93.21,3.81-1.23-.52-1.07-.52-1.07-14,2,10.42-5.26,10.42-5.26,19.09-4.88,1.35,1.84,10.76.69,12.76-1.11,0-1.1,0-1.1,1-2.32,0-.26-.05-.39-.09-.64l-1.84-1.13-.57-.2a8.26,8.26,0,0,0-4.2.24c0-.19,0-.43,0-.62,1-.68,1.3-.7,4-.78h0a1.06,1.06,0,0,0,.47-.13c.2-.24-1.09-2.48-3.63-2.69-.57-.05-.57-.05-.82-.24,0-.5.54-.87.37-1.42-.24-.74-1.16-.9-1.39-1.64-.09-.32.11-.49.63-.85.76-.54.76-.54.34-2.93-1.05-6-1.05-6-3.36-3.88-.36.34,0,.95-.46,1.24s-1.15-.37-1.73,0c-1.3.9-1.3.9-1.57.88-1.7-.07-2.33-1.69-3.56-2.45-.09-.5,1.4-3.06,2.44-3.43-.69-.53-1.65-.44-2.33-1-.16-.14-.23-.3-.32-.8,0-.17-.11-.56-1.82-1.88a1.64,1.64,0,0,0-.82-.4c-1.93-.15-3.68-1.2-5.65-1.09-.27,1.75-2.8,2.51-2,4.7-.54.71-1.68.61-2.06,1.53-.45,1.07.43,2.09.1,3.15,0,.05-1.42,4.29-4.05,4-.58-.06-1.92-.1-2,.88a3.56,3.56,0,0,1-.88.35c-1.5,2.22-1,5.84-4.43,6.79-.41-1.64-1.82-2.57-2.73-3.86a4.31,4.31,0,0,0,1.25-3.5l.88-.32c0-.11.11-.31.12-.43a5.93,5.93,0,0,0-.69-.29c-.76-1.51-2.5-1-3.61-1.76s-1.34-2.28-2.39-3.12a4.48,4.48,0,0,0-.64-.43c-1-.57-2.1,0-3.15-.1-.24-.39-.24-.39.23-3.05.15-.92.15-.92-1.85-1.81.47-2.84,8.68-5.38,12.18-6.47,0-1-1.08-.91-1.47-1.52,5.75.94,5.75.94,10-1.26-2.22-.37-2.68-.45-4-2,2.26,0,4.41,2.16,6.77.34a1.38,1.38,0,0,0-.52-.41s1.44-.87,2.26.17c3.95,0,3.95,0,5.15-.53a2.93,2.93,0,0,0,.81-.46c.6-.51.22-1.41.79-1.93s1.23-.16,1.8-.45c.33-.21.5-.57.78-.83,0-.05-1.92-4.1-4.41-.17-2.19.4-5,4.21-6.51,1.45.66-1.24,3.61-1.15,2.82-2.89-1.59,0-2.65,1.26-4,1.81,0-.8,2.09-2.16,2.12-2.18a9.65,9.65,0,0,0-1.31-.54c3.41-2.75,3.41-2.75,3.56-3.17l-.24-.36c1.92-1.49,1.92-1.49,8.93-2.87a2.61,2.61,0,0,0-1.08-.3c-5-.54-14.38,6-14.46,6s0,.26.05.38c.49.17,1,.23,1.52.38,0,.1,0,.23,0,.33a5.38,5.38,0,0,0-2,.47l-.09.24h0l.28.17c-1.59,1.35-4,1.17-5.43,2.76-.48-1.05-.48-1.05,1.47-2.07-.74-.49-.74-.49-4.12.66-.19.06-1.27.32-4.48-1-.1-.38.08-.78,0-1.16-2.88-.25-4.2,1-6.85,3.52,0-.88.89-1.28,1.06-2-1.51-.27-3.08.49-4.56-.3.86-.4,2-.28,2.59-1.19l-.19-.29c-.41.07-.48.08-1.45-.39a3.31,3.31,0,0,0-.27-.65c-.77-.1-1.4.37-2.1.56a4.77,4.77,0,0,1,.63-.48,6.6,6.6,0,0,0-1.34.53,7.5,7.5,0,0,1,2-1.45l-2.33.88s-12.52,7.9-17.56,12.38A160.53,160.53,0,0,0,144.64,175.5Z"></path><path d="M195.19,262.47c-.84.22-.27,1.41.51,1.84a6.65,6.65,0,0,0,2.68.54c.08-.09,0-.37-1.23-1.3S195.53,262.51,195.19,262.47Z"></path><path d="M336.79,208.49a13,13,0,0,1,1.27-.3c.51-.07,1,.3,1.53-.05.28-.2.42-.84.41-1.9a4.36,4.36,0,0,0-.21-1.3,1.08,1.08,0,0,1,.31-1.33,1.71,1.71,0,0,0,.53-1.07,2,2,0,0,0-.44-1.3,4.6,4.6,0,0,0-.41-.47c-.37-.36-.81-.63-1.18-1a1.49,1.49,0,0,1-.37-.49s0-.06-.07-.07-3.24-.31-1.79,1.33a.9.9,0,0,0,.38.27,1.07,1.07,0,0,1-.31.06,5.62,5.62,0,0,0-2.14.54,1.25,1.25,0,0,0-.69.94,1.21,1.21,0,0,0,.4.9c.3.31.73.38,1.07.61L335,204a13.73,13.73,0,0,0-1.79,2.44c-.37.67-.45,1-.31,1.4C333.13,208.44,335.1,208.89,336.79,208.49Z"></path><path d="M352.58,251.29a.45.45,0,0,0,.34,0s.75-.42.76-.45c.13-.19-.18-.51-.82-.81s-1.88-.57-1.62.1A3.08,3.08,0,0,0,352.58,251.29Z"></path><path d="M343.47,206.29c-.13,0-.13,0-.14.18l.84.37A2.31,2.31,0,0,0,343.47,206.29Z"></path><path d="M375.58,226.18a16.91,16.91,0,0,1,3.13,5.93c-.71-3.33-1.56-7.79-2.41-11.09-4-13.11-4.05-13.36-7-20.13L366,194v0l-.39-.71a30.78,30.78,0,0,0,1.49,3.43c-.3-.35-.52-.76-.79-1.14.21,1.28,1.07,2.26,1.6,3.4l-.23.06c-2.52-4.12-4.31-8.64-6.88-12.73,1.39,1.73,2.22,3.87,3.84,5.44-.16-1-3.93-7.58-6.74-11a19.75,19.75,0,0,1-2.39-3.15,3.31,3.31,0,0,1,.41.35,8.43,8.43,0,0,0-.88-1.19l-.24.08a12.36,12.36,0,0,1-1.87-2.24l.44.35c0-.79-2.67-3.32-2.88-3.47a2.81,2.81,0,0,0,.32,1.2c-.95-.76-1.1-2.1-2-2.87,0,.57.48,1,.52,1.55-.69.73-.69.73-.81,1.27-.18.82.78,6.15.79,6.19.87,3.55.44,4.53.39,4.63-1.31,2.56-1.31,2.56-3.16,3.1-.67.2-.73.39-.69,1.2,0,.11.71,10.72,4.94,10.32,1.36-.14,1.46-2.28,1.51-3.31.22.33,4.46,9.1,5,11.57.23,1.18.46,2.28,1.46,2.64a7.74,7.74,0,0,0,1.11-4.21c-.5-3.21-.06-3.4.91-3.81.25-.64.26-.91-1.19-2.83-1-1.32-1-1.32-1.78-4.81-.29-1.34,1.31-2.32.68-3.71-1.66-3.64-1.66-3.64-1.68-3.82l0-.39.2-.16c.86.67,3.35,4,3.35,4.71l-.27-.07c.54,6.51.54,6.51,2.15,9.57,1.39,2.67,4.66,3.48,6.08,6.14a5,5,0,0,1-.86-.73l-.25,0a8.44,8.44,0,0,0,.2.87,26.53,26.53,0,0,0-3.27-2.32c.71,2.38,2.18,4.49,2.5,7-1.34-.52-.74-2.53-2.24-2.93l-.23.17s.59,3.62.69,3.89.73,2.18.43,2.78c-.81-.36-.81-.36-1-.38-.21.22-.35.49-.55.71,0,.07.05.16.08.24l0,0c-3.74-1.62-3.74-1.62-3.9-1.25l-.65.13a10.48,10.48,0,0,0-2.52-2l1.74,1a4.08,4.08,0,0,0-2.37-1.71c-.52-.16-.64-.19-1.49-2.33-.63-1.57-1.25-3.76-.66-5.23.24-.61.23-3.56-.44-3.88-.09,0-2.07-.74-2.07.35a48.42,48.42,0,0,0,2.06,8.56c.44,1.1.44,1.23.43,1.29s-.15.08-.73,0l-1.35-.23c-1-1.47-2.5-2.62-3.3-4.27a13.61,13.61,0,0,0-1.19-2.57,7,7,0,0,0-2.8-2.17h0c1-.42,3.27-3.5,1.19-4.32a6.6,6.6,0,0,0-1.12-.31c-1.39-.29-1.64-.35-1.53-.7.22-.7,1.87-1.58.92-2,0,0-2.64-.87-3.34-.08a.59.59,0,0,0-.08.32c-.17.86.17,1.72,0,2.58s-.87,1.17-.84,1.94c.18.16.63.26,1.79-.11.43-.14.8-.26,1,0,.76.85-.69,1.48-.63,2.33a3.11,3.11,0,0,0,1.71,2.8c1.39.94,1.56,1.06,1.78,1.35,0,.26-.27.46-.22.74.16.88.7,1.63.8,2.52-.09.86-.89.06-1.48-.52-.24-.25-.24-.25-1.08-.62,0,1.12.95,2,.79,3.15-.08.63-.73.74-1.63.84-.24,0-.61.07-.58.34s.22.66,2.09,1.26c.79.25,2.41.77,2.31,1.32a3.75,3.75,0,0,0-1.4-.13.59.59,0,0,0,0,.2,1.09,1.09,0,0,0-.69.11c-.52.23-.78.77-1.27,1s-1.3.42-1.9.74a.94.94,0,0,0,0,.16c.18.11.23.14,2.1.55a4.05,4.05,0,0,1-.56.8c-1.93-.79-2.16-1.13-2.79-2a14.3,14.3,0,0,0,.35,1.47c-.12.17-.3.4-.43.57a10.73,10.73,0,0,1-1.5,0c-.74-1-.74-1-2.25-1.52l-.49.5.89,1.57-.66.19c8.27,5.77,3.6,14.48,3.52,14.55-4.17-1.81-7.84-4.53-11.94-6.46a7.14,7.14,0,0,0,.43,1.43c-.05.11-3.57,11.66-2.26,12.61-1.63,3.37-1.63,3.37-1.82,3.67,3.05.81,3.69,1,4.86,1.72a16.64,16.64,0,0,0-.2,2.23l7.77.13c2,.44,3.34-1.83,2.88-3.83,2.71-4.18,2.77-4.19,6-4.31,1.34-3.68,1.34-3.68,1.74-3.82,1.72-.64,2.13,1.49,3.37,1.93,1.83-1.61,3.23-2.58,4.46-.44a155.89,155.89,0,0,1,5.26,15.24,2.51,2.51,0,0,0-.3,1.53c.13.33.65.37.59.84s-.35.76-.38,1.19a.58.58,0,0,0,.27.55.64.64,0,0,0,.15.05c-.29,1.28-1.2,1.1-4.63.4a22.25,22.25,0,0,0,2.07,4.68c.74-1,.42-2.3,1-3.33l.58.29c.78-.58,1.31-1.42,2.06-2v-.11a1.38,1.38,0,0,0,.86-.8c0-.12.08-.28.11-.41.09-.46.07-.94.16-1.41l0-.1c.11.39.25.85.37,1.2a3.38,3.38,0,0,0-.19-1.85c.07-.23.14-.47.19-.71.15-.79-.09-1-.34-1.09a1.69,1.69,0,0,0-.51-.07c-.24-.65-.53-1.45-.91-2.45l.34-.52a1.18,1.18,0,0,0,.06.27s.6,1.59.66,1.64c.27,0,.7-1.93.83-2.95a13.16,13.16,0,0,0,.09-1.46l1.6,4.17c0,.07,0,.07,0,9l.57,7.82a12.19,12.19,0,0,0,.55-1.29,25.22,25.22,0,0,0,.7-5c.76-5.39.76-5.39,1.39-5.59.83.51,2.32,2.3,2.2,3.9a8.32,8.32,0,0,0,1-1l.68.2c2.22-4.37.34-9.48,2.52-13.85a1.93,1.93,0,0,1,1.16.47l-.47.48a5.23,5.23,0,0,0,1,1.77,3.74,3.74,0,0,1-.74,2.05,26.6,26.6,0,0,1,.59,2.76c2.66-.5.16-3.91,1.46-5.54,1.06.13,1.12.52,1.13,1.38l-.53.47c.15.67.15.67,0,2.82l-.56.41c.22,4.48,2.75,8.8,1,13.43l-.66.11c-1.46-1.95.13-6.13-3.25-6.41a2.17,2.17,0,0,1-.86,1c-.33-.25-.78-.57-1.12-.78a2.45,2.45,0,0,0,.23,1.25c-.93.35-1.75-.35-2.65-.24a8.87,8.87,0,0,0-.58,1.39l.53.38c-.52,2.44-1.48,7,.56,10.45l.6-.29.2-.64c.67,1.12.51,2.54,1.37,3.59a5.88,5.88,0,0,0,.73-1.17,3.66,3.66,0,0,0,.8,1.07c-2.64,9.05-3,10.43-4.86,12.49-1.23-.55-1.35-.9-1.32-2.3a1.89,1.89,0,0,0-1.24.08c-4.13-1.8-1.58-7.83-6-9.46-1.34,1.18-1.29,3.12-2.39,4.43l-.69,0c-.68-1-7.3-13.26-7.59-14.66-.09-.44.43-1,.78-1.26.82-.66.82-.66,2.26-6a19.22,19.22,0,0,0-1.51-1.83c-1.08.36-1.08.36-4.36-1.71a6.35,6.35,0,0,0-1.24.76c-4-3.43-9.51.32-13.54-2.88l-.67-.29c-1.39-.19-1.86-.26-2.68-2.45-.19-.26-.2-.27-.21-.27a5.09,5.09,0,0,0-.76.32c-1.23.75-1.11,2.48-2.32,3.25-1.52.95-3.49.23-5,1.33-.44.32-.57,1.13-.78,1.64-2.25,5.48-2.25,5.48-4,5.68a17.6,17.6,0,0,0-5,1.52c-1.31,1.05-11.22,9.57-11.23,9.58-1.25,2.77-.21,5.84-1.14,8.65-.78,2.36-4.52,2.29-4.41,5.38.15,4.62,1,9.16,1.52,13.75.21,1.92,4.15,9.66,5.31,9.95,5.75,1.43,11.87,1.22,17.37,3.84a1.36,1.36,0,0,1,.43.49c.73,1.22-.55,2.52.15,3.74s2.12,1.23,3.1,2c0,2.47,0,2.47-1.71,4.29-4.62,5.05-4.62,5.05-4.82,6.89-.33,2.89-.78,6.85-7,13.71-2.88,3.15-6.86,4.81-10.12,7.44-3,2.45-4.59,6.17-7.5,8.73-11.33,10-11.6,10.09-13.13,10.85a8.34,8.34,0,0,0-3,2.31c3.18,2.36,8.38,1,10.09.52l6.9-1.95,8.95-3.12c2.16-1.09,3.85-2.91,6.09-3.88,2.56-1.11,5.44-1.06,8-2.22,6.09-2.76,13.36-9.93,14.18-10.85,3.27-3.68,11.62-8.16,14.08-9.43,3.91-2.13,10.55-9,12.62-11.87-.63-.49-.63-.49-2-.66-.15-.49-.15-.49,2.24-5.41.89-1.82,1.11-3.84,1.74-5.74,1.63-4.94,4.3-9.48,5.58-14.55L367.36,289c.14.59.14.59-.32,2.94a2.81,2.81,0,0,0,1.14-1c-.93,12.79-8.41,23.32-12.14,35.13,1.49-.15,1.49-.15,2,.18,5.95-6.11,5.95-6.11,6.44-7-.1.2-.24.46-.35.66.21-.36.49-.84.69-1.21l.21-.4,1.32-2.57c.59-1.18,1.32-2.66,3.08-6.76q-.12.33-.24.63c1.44-3.58,3.28-8,4.48-11.53,1-3.61,2.54-8.41,3.42-12.06.21-1.12.41-2.15.6-3.1.13-3.11.21-3.59,2-14.09a.89.89,0,0,0,0,.15c.67-14.94.67-14.94.84-15.62l0,.08a83.62,83.62,0,0,0-.57-11.3l-1.36-10A18.15,18.15,0,0,0,375.58,226.18Zm-25.1-16.55c.06,0,.08,0,.57.31l-.64-.24h0Zm12.25,35.75s0,.06-.05.09a8.37,8.37,0,0,0-.4,1.38,1,1,0,0,1-.66.7.45.45,0,0,0-.33.36V248c-1.28-1.21-2.3-2.28-3.45-12a2.36,2.36,0,0,1,1.22-.45l3.76,9.78A.3.3,0,0,0,362.73,245.38Z"></path><g style="opacity:0.4"><path d="M379.73,250.3c2.45,72.5-50.32,132.13-122.81,136.77C392.26,323.68,380.61,184,247.37,124,314.08,120.28,377.28,177.79,379.73,250.3Z"></path></g></g><path d="M134.5,209.2c.39.16-1.29,4.88-3.24,12.68l-.75,3.07c-.25,1.06-.45,2.19-.69,3.34-.52,2.31-.89,4.8-1.33,7.41a142.15,142.15,0,0,0-1.05,34.4c.29,2.64.5,5.15.88,7.48.18,1.17.3,2.3.5,3.38s.37,2.12.55,3.11c1.48,7.9,2.87,12.72,2.47,12.85s-2.3-4.54-4.27-12.47c-.23-1-.47-2-.73-3.11s-.43-2.24-.65-3.41c-.48-2.36-.78-4.91-1.13-7.59a121.39,121.39,0,0,1,1.06-35c.51-2.65,1-5.18,1.59-7.5.3-1.16.54-2.3.86-3.36l.91-3.07C131.92,213.6,134.23,209.09,134.5,209.2Z" style="fill:#fff"></path><path d="M234.81,249c-2.17-5.42-7.69-9.43-13.69-8.94a14,14,0,0,0-12.33,10.37c-.79,3.12,4,4.45,4.82,1.33A8.62,8.62,0,0,1,230,250.28a2.58,2.58,0,0,0,3.07,1.75,2.53,2.53,0,0,0,1.75-3.08Z" style="fill:#263238"></path><path d="M287.8,249c-2.18-5.42-7.69-9.43-13.69-8.94a14,14,0,0,0-12.33,10.37c-.79,3.12,4,4.45,4.82,1.33A8.62,8.62,0,0,1,283,250.28a2.6,2.6,0,0,0,3.08,1.75A2.53,2.53,0,0,0,287.8,249Z" style="fill:#263238"></path><path d="M239.83,256.34a8.18,8.18,0,0,0,15.84,0,2.53,2.53,0,0,0-1.74-3.08,2.55,2.55,0,0,0-3.08,1.75c0,.15-.09.29-.13.44-.14.43.18-.36,0-.09s-.27.5-.43.74.27-.29.06-.07-.17.2-.26.29a3.43,3.43,0,0,1-.33.33c-.07.06-.43.35-.11.1s-.05,0-.13.08a3.26,3.26,0,0,1-.4.24,3.84,3.84,0,0,1-.35.18c-.27.14.52-.18.1,0s-.55.15-.83.22.58,0,.13,0l-.47,0-.39,0c-.32,0,.57.12.12,0a7.62,7.62,0,0,1-.82-.22c-.39-.14-.07-.08.09.05a2.78,2.78,0,0,0-.42-.22c-.1,0-.58-.44-.66-.42l.2.15-.17-.16-.28-.27c-.09-.09-.17-.19-.26-.29-.36-.39.28.46,0,0l-.39-.68c-.25-.46.16.53,0,0,0-.15-.1-.3-.14-.45a2.52,2.52,0,0,0-3.07-1.75,2.55,2.55,0,0,0-1.75,3.08Z" style="fill:#263238"></path><path d="M217.33,263.19a6.13,6.13,0,1,1-6.13-6.13A6.13,6.13,0,0,1,217.33,263.19Z" style="fill:#fff;opacity:0.30000000000000004"></path><path d="M293.53,263.19a6.13,6.13,0,1,1-6.13-6.13A6.13,6.13,0,0,1,293.53,263.19Z" style="fill:#fff;opacity:0.30000000000000004"></path></g></svg>