<svg xmlns="http://www.w3.org/2000/svg" viewBox="0 0 750 500"><g id="freepik--Shadow--inject-6"><ellipse cx="375" cy="446.26" rx="291.38" ry="19.89" style="fill:#ebebeb"></ellipse></g><g id="freepik--Table--inject-6"><polygon points="694.76 391.31 614.82 391.55 534.88 391.64 375 391.8 215.12 391.64 135.18 391.55 55.24 391.31 135.18 391.06 215.12 390.97 375 390.81 534.88 390.97 614.82 391.06 694.76 391.31" style="fill:#263238"></polygon></g><g id="freepik--Character--inject-6"><rect x="149.9" y="67.87" width="450.2" height="306.13" style="fill:#263238"></rect><rect x="149.9" y="328.84" width="450.2" height="45.16" style="fill:#dbdbdb"></rect><rect x="287.27" y="429.19" width="175.46" height="14.66" style="fill:#c7c7c7"></rect><path d="M382.33,348.39a7.46,7.46,0,1,1-7.46-7.46A7.45,7.45,0,0,1,382.33,348.39Z" style="fill:#263238"></path><polygon points="441.83 429.2 308.16 429.2 311.56 403.75 311.73 402.55 312.04 400.16 312.2 398.96 312.52 396.58 312.57 396.21 312.68 395.38 313.01 392.99 313.16 391.79 315.54 374.01 434.46 374.01 436.7 390.78 436.81 391.59 437.18 394.37 437.28 395.18 437.43 396.21 437.66 397.95 437.76 398.76 438.13 401.55 438.25 402.35 441.83 429.2" style="fill:#dbdbdb"></polygon><polygon points="437.43 396.21 313.16 391.79 315.54 374.01 434.46 374.01 437.43 396.21" style="fill:#c7c7c7"></polygon><rect x="170.67" y="87.78" width="408.65" height="219.83" style="fill:#fff"></rect><rect x="170.67" y="87.78" width="408.65" height="219.83" style="fill:#fff"></rect><rect x="170.67" y="87.78" width="408.65" height="9.95" style="fill:#455a64"></rect><path d="M178.58,92.75a2.47,2.47,0,1,1-2.47-2.47A2.47,2.47,0,0,1,178.58,92.75Z" style="fill:#c7c7c7"></path><path d="M188.65,92.75a2.47,2.47,0,1,1-2.46-2.47A2.47,2.47,0,0,1,188.65,92.75Z" style="fill:#fff"></path><path d="M198.73,92.75a2.47,2.47,0,1,1-2.47-2.47A2.48,2.48,0,0,1,198.73,92.75Z" style="fill:#FFC727"></path><rect x="572.08" y="97.72" width="7.25" height="209.88" style="fill:#dbdbdb"></rect><path d="M575.7,183.9h0a1.86,1.86,0,0,1-1.87-1.87v-81a1.87,1.87,0,0,1,1.87-1.87h0a1.87,1.87,0,0,1,1.87,1.87v81A1.87,1.87,0,0,1,575.7,183.9Z" style="fill:#a6a6a6"></path><rect x="183.72" y="146.23" width="113.48" height="20.64" style="fill:#FFC727"></rect><rect x="183.72" y="174.96" width="113.48" height="48.45" style="fill:#FFC727"></rect><path d="M198.21,152.39h1.56l1,2.89,1-2.89h1.57l-1.49,4,1.11,2.79,2.47-6.79h1.85l-3.56,8.73h-1.42l-1.52-3.66-1.51,3.66h-1.42l-3.53-8.73h1.82l2.48,6.79,1.08-2.79Z" style="fill:#fff"></path><path d="M214.21,159.6v1.49h-6.07v-8.73h6v1.49h-4.26V156h3.68v1.38h-3.68v2.27Z" style="fill:#fff"></path><path d="M220.59,152.36h1.5l3.32,8.73h-1.75l-.81-2.17h-3l-.8,2.17h-1.75Zm1.95,5.36-1.2-3.43-1.26,3.43Z" style="fill:#fff"></path><path d="M226.37,161.09v-8.73h3.86a2.58,2.58,0,0,1,1.11.25,2.9,2.9,0,0,1,.88.67,3.17,3.17,0,0,1,.58.93,2.79,2.79,0,0,1,.2,1,3,3,0,0,1-.42,1.55,2.48,2.48,0,0,1-1.15,1l2,3.28h-1.9l-1.79-2.92h-1.67v2.92Zm1.69-4.41h2.13a1,1,0,0,0,.44-.11,1.43,1.43,0,0,0,.35-.3,1.9,1.9,0,0,0,.23-.45,1.57,1.57,0,0,0-.28-1.57,1.1,1.1,0,0,0-.38-.3,1,1,0,0,0-.43-.1h-2.06Z" style="fill:#fff"></path><path d="M240.6,159.6v1.49h-6.06v-8.73h6v1.49h-4.25V156h3.67v1.38h-3.67v2.27Z" style="fill:#fff"></path><path d="M252.22,152.36v8.73h-1.68v-3.72h-4v3.72h-1.7v-8.73h1.7v3.53h4v-3.53Z" style="fill:#fff"></path><path d="M254,161.09v-8.73h1.7v8.73Z" style="fill:#fff"></path><path d="M257.56,161.09v-8.73h3.86a2.58,2.58,0,0,1,1.11.25,2.9,2.9,0,0,1,.88.67,3,3,0,0,1,.58.93,2.81,2.81,0,0,1,.21,1,2.87,2.87,0,0,1-.43,1.55,2.43,2.43,0,0,1-1.15,1l2,3.28h-1.91l-1.78-2.92h-1.68v2.92Zm1.69-4.41h2.13a1,1,0,0,0,.44-.11,1.43,1.43,0,0,0,.35-.3,1.59,1.59,0,0,0,.23-.45,1.69,1.69,0,0,0,.09-.56,1.47,1.47,0,0,0-.1-.56,1.66,1.66,0,0,0-.26-.45,1.24,1.24,0,0,0-.39-.3.94.94,0,0,0-.43-.1h-2.06Z" style="fill:#fff"></path><path d="M265.73,161.09v-8.73h1.7v8.73Z" style="fill:#fff"></path><path d="M271,155.5v5.59h-1.7v-8.73h1.32l4.55,5.73v-5.72h1.69v8.72h-1.37Z" style="fill:#fff"></path><path d="M284.69,160.11a3.31,3.31,0,0,1-2.43,1,3.86,3.86,0,0,1-1.62-.34,4.12,4.12,0,0,1-1.31-.95,4.39,4.39,0,0,1-.89-1.42,4.63,4.63,0,0,1-.32-1.76,4.35,4.35,0,0,1,.32-1.69,4.5,4.5,0,0,1,.9-1.39,4.25,4.25,0,0,1,1.34-.95,4.12,4.12,0,0,1,1.69-.35,4.05,4.05,0,0,1,2.11.52,3.33,3.33,0,0,1,1.32,1.39l-1.27.93a2.29,2.29,0,0,0-.93-1,2.52,2.52,0,0,0-1.29-.35,2.31,2.31,0,0,0-1,.23,2.41,2.41,0,0,0-.78.64,3,3,0,0,0-.51.94,3.42,3.42,0,0,0-.18,1.12,3.35,3.35,0,0,0,.2,1.15,2.9,2.9,0,0,0,.54.92,2.54,2.54,0,0,0,.82.63,2.35,2.35,0,0,0,1,.22,3,3,0,0,0,2.28-1.19v-.61h-1.75V156.6h3.15v4.49h-1.4Z" style="fill:#fff"></path><path d="M190.06,182.68c8.4-.21,16.8-.3,25.2-.38l25.2-.12,25.2.12,12.6.13,12.6.25-12.6.25-12.6.13-25.2.12-25.2-.12C206.86,183,198.46,182.89,190.06,182.68Z" style="fill:#fff"></path><path d="M190.06,188.22c8.4-.21,16.8-.31,25.2-.39l25.2-.11,25.2.11,12.6.14,12.6.25-12.6.24-12.6.14-25.2.12-25.2-.12C206.86,188.52,198.46,188.42,190.06,188.22Z" style="fill:#fff"></path><path d="M190.06,193.75c8.4-.2,16.8-.3,25.2-.38l25.2-.12,25.2.12,12.6.14,12.6.24-12.6.25-12.6.14-25.2.11-25.2-.11C206.86,194.06,198.46,194,190.06,193.75Z" style="fill:#fff"></path><path d="M190.06,199.29c8.4-.21,16.8-.3,25.2-.38l25.2-.12,25.2.12,12.6.13,12.6.25-12.6.24-12.6.14-25.2.12-25.2-.12C206.86,199.59,198.46,199.5,190.06,199.29Z" style="fill:#fff"></path><path d="M190.06,204.83c8.4-.21,16.8-.31,25.2-.39l25.2-.11,25.2.11,12.6.14,12.6.25-12.6.24-12.6.14-25.2.12-25.2-.12C206.86,205.13,198.46,205,190.06,204.83Z" style="fill:#fff"></path><path d="M190.06,210.36c8.4-.2,16.8-.3,25.2-.38l25.2-.12,25.2.12,12.6.14,12.6.24-12.6.25-12.6.14-25.2.11-25.2-.11C206.86,210.67,198.46,210.57,190.06,210.36Z" style="fill:#fff"></path><path d="M190.06,215.9c3.64-.21,7.28-.3,10.92-.38s7.28-.11,10.92-.12,7.28,0,10.92.12l5.46.13c1.82.09,3.64.14,5.46.25-1.82.11-3.64.16-5.46.24l-5.46.14c-3.64.1-7.28.11-10.92.12s-7.28,0-10.92-.12S193.7,216.11,190.06,215.9Z" style="fill:#fff"></path><rect x="183.72" y="234.72" width="113.48" height="20.64" style="fill:#c7c7c7"></rect><rect x="183.72" y="263.45" width="113.48" height="32.15" style="fill:#c7c7c7"></rect><path d="M205.1,240.85v8.73h-1.69v-3.72h-4v3.72h-1.7v-8.73h1.7v3.53h4v-3.53Z" style="fill:#fff"></path><path d="M213,248.1v1.48h-6.07v-8.73h6v1.49h-4.26v2.1h3.68v1.38h-3.68v2.28Z" style="fill:#fff"></path><path d="M214.3,249.58v-8.73H216v7.25h4.45v1.48Z" style="fill:#fff"></path><path d="M221.48,249.58v-8.73h3.71a2.45,2.45,0,0,1,1.11.26,2.87,2.87,0,0,1,.88.66,3.07,3.07,0,0,1,.57.93,2.81,2.81,0,0,1,.21,1.05,3.07,3.07,0,0,1-.19,1.08,2.92,2.92,0,0,1-.56.93,2.54,2.54,0,0,1-.86.65,2.5,2.5,0,0,1-1.1.25h-2.07v2.92Zm1.7-4.41h2a1,1,0,0,0,.78-.38,1.86,1.86,0,0,0,.21-1.63,1.39,1.39,0,0,0-.25-.45,1.14,1.14,0,0,0-.38-.28,1.12,1.12,0,0,0-.44-.09h-1.89Z" style="fill:#fff"></path><path d="M234.36,240.88h1.56l1,2.89,1-2.89h1.57l-1.49,4,1.11,2.79,2.47-6.79h1.84l-3.55,8.73h-1.43l-1.51-3.66-1.51,3.66H234l-3.52-8.73h1.82l2.48,6.79,1.08-2.79Z" style="fill:#fff"></path><path d="M246,240.85h1.5l3.32,8.73H249.1l-.81-2.17h-3l-.8,2.17h-1.75Zm1.95,5.36-1.2-3.43-1.26,3.43Z" style="fill:#fff"></path><path d="M253.5,244v5.59h-1.7v-8.73h1.32l4.55,5.73v-5.71h1.7v8.71H258Z" style="fill:#fff"></path><path d="M267.71,242.34h-2.79v7.24h-1.68v-7.24h-2.79v-1.49h7.26Z" style="fill:#fff"></path><path d="M274.86,248.1v1.48H268.8v-8.73h5.95v1.49h-4.26v2.1h3.68v1.38h-3.68v2.28Z" style="fill:#fff"></path><path d="M276.19,249.58v-8.73h3.17a4.69,4.69,0,0,1,1.87.35,3.87,3.87,0,0,1,1.35.93,4,4,0,0,1,.81,1.39,5.49,5.49,0,0,1,0,3.49,3.82,3.82,0,0,1-.87,1.37,3.74,3.74,0,0,1-1.36.89,4.73,4.73,0,0,1-1.77.31Zm5.76-4.37a3.87,3.87,0,0,0-.17-1.16,2.67,2.67,0,0,0-.5-.91,2.42,2.42,0,0,0-.82-.59,2.77,2.77,0,0,0-1.1-.21h-1.48v5.76h1.48a2.59,2.59,0,0,0,1.11-.23,2.32,2.32,0,0,0,.81-.6,2.82,2.82,0,0,0,.5-.92A3.78,3.78,0,0,0,282,245.21Z" style="fill:#fff"></path><path d="M190.06,271.17c8.4-.21,16.8-.3,25.2-.38l25.2-.12,25.2.12,12.6.14,12.6.24-12.6.25-12.6.14-25.2.11-25.2-.12C206.86,271.47,198.46,271.38,190.06,271.17Z" style="fill:#fff"></path><path d="M190.06,276.71c8.4-.21,16.8-.3,25.2-.38l25.2-.12,25.2.11,12.6.14,12.6.25-12.6.24-12.6.14-25.2.12-25.2-.12C206.86,277,198.46,276.91,190.06,276.71Z" style="fill:#fff"></path><path d="M190.06,282.24c8.4-.2,16.8-.3,25.2-.38l25.2-.11,25.2.11,12.6.14,12.6.24-12.6.25-12.6.14-25.2.11-25.2-.11C206.86,282.55,198.46,282.45,190.06,282.24Z" style="fill:#fff"></path><path d="M190.06,287.78c3.64-.21,7.28-.3,10.92-.38s7.28-.11,10.92-.12,7.28,0,10.92.12l5.46.14c1.82.08,3.64.13,5.46.24-1.82.11-3.64.16-5.46.25l-5.46.14c-3.64.09-7.28.1-10.92.11s-7.28,0-10.92-.12S193.7,288,190.06,287.78Z" style="fill:#fff"></path><rect x="314.01" y="218.42" width="113.48" height="20.64" style="fill:#FFC727"></rect><rect x="314.01" y="247.15" width="113.48" height="48.45" style="fill:#FFC727"></rect><path d="M324,231.5a2.88,2.88,0,0,0,1.51.42,1.58,1.58,0,0,0,.82-.18,1.07,1.07,0,0,0,.47-.55,2.77,2.77,0,0,0,.21-.91c0-.37,0-.8,0-1.29v-4.44h1.7V229a14.35,14.35,0,0,1-.11,1.82,3.56,3.56,0,0,1-.44,1.39,2.25,2.25,0,0,1-1,.9,3.91,3.91,0,0,1-1.72.32,3.24,3.24,0,0,1-1.89-.54Z" style="fill:#fff"></path><path d="M334.23,233.34a4,4,0,0,1-1.74-.37,4.28,4.28,0,0,1-1.34-1,4.5,4.5,0,0,1-.84-4.72,4.36,4.36,0,0,1,2.25-2.4,4.1,4.1,0,0,1,1.71-.36,3.82,3.82,0,0,1,1.73.39,4.46,4.46,0,0,1,1.33,1,4.62,4.62,0,0,1,.86,1.43,4.36,4.36,0,0,1,.31,1.62,4.51,4.51,0,0,1-.32,1.67,4.61,4.61,0,0,1-.88,1.4,4.17,4.17,0,0,1-1.36,1A4,4,0,0,1,334.23,233.34Zm-2.53-4.42a3.6,3.6,0,0,0,.17,1.09,2.92,2.92,0,0,0,.5.94,2.41,2.41,0,0,0,.8.65,2.35,2.35,0,0,0,1.08.24,2.21,2.21,0,0,0,1.08-.25,2.37,2.37,0,0,0,.8-.67,3.14,3.14,0,0,0,.5-.94,3.49,3.49,0,0,0,.16-1.06,3.43,3.43,0,0,0-.18-1.1,3,3,0,0,0-.5-.93,2.52,2.52,0,0,0-.8-.65,2.46,2.46,0,0,0-2.16,0,2.44,2.44,0,0,0-.8.66,3.16,3.16,0,0,0-.48.93A3.57,3.57,0,0,0,331.7,228.92Z" style="fill:#fff"></path><path d="M339.8,233.28v-8.73h1.7v8.73Z" style="fill:#fff"></path><path d="M345,227.69v5.59h-1.7v-8.73h1.32l4.54,5.73v-5.71h1.7v8.71H349.5Z" style="fill:#fff"></path><path d="M359.38,233.34a4,4,0,0,1-1.74-.37,4.17,4.17,0,0,1-1.34-1,4.38,4.38,0,0,1-.87-1.42,4.58,4.58,0,0,1-.31-1.63,4.33,4.33,0,0,1,.33-1.67,4.46,4.46,0,0,1,2.25-2.4,4.1,4.1,0,0,1,1.71-.36,3.82,3.82,0,0,1,1.73.39,4.51,4.51,0,0,1,1.34,1,5,5,0,0,1,.86,1.43,4.55,4.55,0,0,1,.3,1.62,4.32,4.32,0,0,1-.32,1.67,4.43,4.43,0,0,1-.88,1.4,4.23,4.23,0,0,1-1.35,1A4.1,4.1,0,0,1,359.38,233.34Zm-2.54-4.42A3.32,3.32,0,0,0,357,230a2.9,2.9,0,0,0,.49.94,2.52,2.52,0,0,0,.8.65,2.38,2.38,0,0,0,1.08.24,2.28,2.28,0,0,0,1.09-.25,2.58,2.58,0,0,0,.8-.67,3.12,3.12,0,0,0,.49-.94,3.49,3.49,0,0,0,.16-1.06,3.42,3.42,0,0,0-.17-1.1,3,3,0,0,0-.51-.93,2.41,2.41,0,0,0-.8-.65,2.3,2.3,0,0,0-1.06-.24,2.32,2.32,0,0,0-1.1.26,2.41,2.41,0,0,0-.79.66,3,3,0,0,0-.49.93A3.57,3.57,0,0,0,356.84,228.92Z" style="fill:#fff"></path><path d="M368.64,231.84a2,2,0,0,0,1-.24,1.93,1.93,0,0,0,.66-.64,2.58,2.58,0,0,0,.36-.9,5.22,5.22,0,0,0,.1-1.06v-4.45h1.69V229a6.16,6.16,0,0,1-.22,1.69,3.86,3.86,0,0,1-.67,1.38,3.34,3.34,0,0,1-1.19.93,4.58,4.58,0,0,1-3.51,0,3.32,3.32,0,0,1-1.19-1,3.75,3.75,0,0,1-.65-1.38,6.3,6.3,0,0,1-.21-1.64v-4.45h1.7V229a6.17,6.17,0,0,0,.1,1.07,2.58,2.58,0,0,0,.36.9,1.9,1.9,0,0,0,.66.63A1.92,1.92,0,0,0,368.64,231.84Z" style="fill:#fff"></path><path d="M374.17,233.28v-8.73H378a2.45,2.45,0,0,1,1.11.26,2.75,2.75,0,0,1,.88.66,3.1,3.1,0,0,1,.58.93,2.89,2.89,0,0,1-.22,2.6,2.38,2.38,0,0,1-1.15,1l2,3.28h-1.9l-1.78-2.92h-1.68v2.92Zm1.69-4.41H378a1,1,0,0,0,.44-.11,1.43,1.43,0,0,0,.35-.3A1.37,1.37,0,0,0,379,228a1.67,1.67,0,0,0,.09-.55,1.48,1.48,0,0,0-.1-.57,1.66,1.66,0,0,0-.26-.45,1.28,1.28,0,0,0-.38-.29,1,1,0,0,0-.44-.11h-2.06Z" style="fill:#fff"></path><path d="M391.48,226h-2.79v7.24H387V226h-2.79v-1.49h7.27Z" style="fill:#fff"></path><path d="M398.62,231.8v1.48h-6.06v-8.73h5.95V226h-4.25v2.1h3.67v1.38h-3.67v2.28Z" style="fill:#fff"></path><path d="M402.43,224.55h1.5l3.32,8.73h-1.74l-.81-2.17h-3.05l-.8,2.17H399.1Zm2,5.36-1.21-3.43-1.25,3.43Z" style="fill:#fff"></path><path d="M415.33,233.28V227.5l-2.25,4.31h-.92l-2.25-4.31v5.78h-1.7v-8.73H410l2.58,5,2.61-5H417v8.73Z" style="fill:#fff"></path><path d="M320.35,254.87c8.4-.21,16.8-.3,25.2-.38l25.2-.12,25.2.12,12.6.14,12.6.24-12.6.25-12.6.14-25.2.11-25.2-.12C337.15,255.17,328.75,255.08,320.35,254.87Z" style="fill:#fff"></path><path d="M320.35,260.41c8.4-.21,16.8-.31,25.2-.39l25.2-.11L396,260l12.6.14,12.6.25-12.6.24-12.6.14-25.2.12-25.2-.12C337.15,260.71,328.75,260.61,320.35,260.41Z" style="fill:#fff"></path><path d="M320.35,265.94c8.4-.2,16.8-.3,25.2-.38l25.2-.11,25.2.11,12.6.14,12.6.24-12.6.25-12.6.14-25.2.11-25.2-.11C337.15,266.25,328.75,266.15,320.35,265.94Z" style="fill:#fff"></path><path d="M320.35,271.48c8.4-.21,16.8-.3,25.2-.38l25.2-.12,25.2.12,12.6.14,12.6.24-12.6.25-12.6.14-25.2.11-25.2-.12C337.15,271.78,328.75,271.69,320.35,271.48Z" style="fill:#fff"></path><path d="M320.35,277c8.4-.21,16.8-.3,25.2-.39l25.2-.11,25.2.11,12.6.14,12.6.25-12.6.24-12.6.14-25.2.12-25.2-.12C337.15,277.32,328.75,277.22,320.35,277Z" style="fill:#fff"></path><path d="M320.35,282.55c8.4-.2,16.8-.3,25.2-.38l25.2-.11,25.2.11,12.6.14,12.6.24-12.6.25-12.6.14-25.2.11-25.2-.11C337.15,282.86,328.75,282.76,320.35,282.55Z" style="fill:#fff"></path><path d="M320.35,288.09c3.64-.21,7.28-.3,10.92-.38s7.28-.11,10.92-.12,7.28,0,10.92.12l5.46.14c1.82.08,3.64.13,5.46.24-1.82.11-3.64.16-5.46.25l-5.46.14c-3.64.09-7.28.1-10.92.11s-7.28,0-10.92-.12S324,288.3,320.35,288.09Z" style="fill:#fff"></path><rect x="314.01" y="146.23" width="113.48" height="20.64" style="fill:#455a64"></rect><rect x="314.01" y="174.96" width="113.48" height="32.15" style="fill:#455a64"></rect><path d="M338.74,152.36h1.5l3.32,8.73h-1.75l-.81-2.17H338l-.8,2.17h-1.74Zm2,5.36-1.21-3.43-1.25,3.43Z" style="fill:#fff"></path><path d="M344.52,161.09v-8.73h3.7a2.58,2.58,0,0,1,1.11.25,2.78,2.78,0,0,1,.88.67,3,3,0,0,1,.58.93,2.81,2.81,0,0,1,.21,1,3.08,3.08,0,0,1-.2,1.08,2.9,2.9,0,0,1-.55.93,2.75,2.75,0,0,1-.86.65,2.58,2.58,0,0,1-1.11.25h-2.06v2.92Zm1.7-4.41h2a1,1,0,0,0,.78-.38,1.6,1.6,0,0,0,.32-1,1.78,1.78,0,0,0-.1-.59,1.4,1.4,0,0,0-.26-.45,1.1,1.1,0,0,0-.37-.28,1.15,1.15,0,0,0-.44-.09h-1.89Z" style="fill:#fff"></path><path d="M352.18,161.09v-8.73h3.7a2.58,2.58,0,0,1,1.11.25,2.9,2.9,0,0,1,.88.67,3,3,0,0,1,.58.93,2.81,2.81,0,0,1,.21,1,3.08,3.08,0,0,1-.2,1.08,2.9,2.9,0,0,1-.55.93,2.75,2.75,0,0,1-.86.65,2.58,2.58,0,0,1-1.11.25h-2.06v2.92Zm1.7-4.41h2a1,1,0,0,0,.78-.38,1.6,1.6,0,0,0,.32-1,1.78,1.78,0,0,0-.1-.59,1.4,1.4,0,0,0-.26-.45,1.1,1.1,0,0,0-.37-.28,1.15,1.15,0,0,0-.44-.09h-1.89Z" style="fill:#fff"></path><path d="M359.84,161.09v-8.73h1.69v7.24H366v1.49Z" style="fill:#fff"></path><path d="M366.51,152.36l2.16,4.21,2.18-4.21h1.84L369.51,158v3.05h-1.68V158l-3.16-5.66Z" style="fill:#fff"></path><path d="M377.88,155.5v5.59h-1.7v-8.73h1.31l4.55,5.73v-5.72h1.7v8.72h-1.38Z" style="fill:#fff"></path><path d="M389.29,161.15a4,4,0,0,1-1.75-.37,4.13,4.13,0,0,1-1.33-1,4.22,4.22,0,0,1-.87-1.42,4.44,4.44,0,0,1,0-3.31,4.39,4.39,0,0,1,2.25-2.39,4.1,4.1,0,0,1,1.71-.36,3.82,3.82,0,0,1,1.73.39,4.3,4.3,0,0,1,1.33,1,4.62,4.62,0,0,1,.86,1.43,4.36,4.36,0,0,1,.31,1.62,4.51,4.51,0,0,1-.32,1.67,4.61,4.61,0,0,1-.88,1.4,4.17,4.17,0,0,1-1.36,1A4,4,0,0,1,389.29,161.15Zm-2.54-4.42a3.65,3.65,0,0,0,.17,1.09,3.25,3.25,0,0,0,.5.94,2.66,2.66,0,0,0,.8.65,2.38,2.38,0,0,0,1.08.24,2.21,2.21,0,0,0,1.08-.25,2.37,2.37,0,0,0,.8-.67,2.93,2.93,0,0,0,.5-.94,3.49,3.49,0,0,0,.16-1.06,3.43,3.43,0,0,0-.18-1.1,3,3,0,0,0-.5-.93,2.41,2.41,0,0,0-.8-.65,2.33,2.33,0,0,0-1.06-.24,2.44,2.44,0,0,0-1.1.25,2.47,2.47,0,0,0-.8.67,2.93,2.93,0,0,0-.48.93A3.57,3.57,0,0,0,386.75,156.73Z" style="fill:#fff"></path><path d="M397.55,152.39h1.56l1,2.89,1-2.89h1.57l-1.49,4,1.11,2.79,2.47-6.79h1.84L403,161.09H401.6l-1.51-3.66-1.51,3.66h-1.43l-3.53-8.73h1.82l2.49,6.79,1.08-2.79Z" style="fill:#fff"></path><path d="M320.35,182.68c8.4-.21,16.8-.3,25.2-.38l25.2-.12,25.2.12,12.6.13,12.6.25-12.6.25-12.6.13-25.2.12-25.2-.12C337.15,183,328.75,182.89,320.35,182.68Z" style="fill:#fff"></path><path d="M320.35,188.22c8.4-.21,16.8-.31,25.2-.39l25.2-.11,25.2.11,12.6.14,12.6.25-12.6.24-12.6.14-25.2.12-25.2-.12C337.15,188.52,328.75,188.42,320.35,188.22Z" style="fill:#fff"></path><path d="M320.35,193.75c8.4-.2,16.8-.3,25.2-.38l25.2-.12,25.2.12,12.6.14,12.6.24-12.6.25-12.6.14-25.2.11-25.2-.11C337.15,194.06,328.75,194,320.35,193.75Z" style="fill:#fff"></path><path d="M320.35,199.29c3.64-.21,7.28-.3,10.92-.38s7.28-.11,10.92-.12,7.28,0,10.92.12l5.46.13c1.82.09,3.64.14,5.46.25-1.82.11-3.64.16-5.46.24l-5.46.14c-3.64.1-7.28.11-10.92.12s-7.28,0-10.92-.12S324,199.5,320.35,199.29Z" style="fill:#fff"></path><rect x="444.3" y="146.23" width="113.48" height="20.64" style="fill:#FFC727"></rect><rect x="444.3" y="174.96" width="113.48" height="48.45" style="fill:#FFC727"></rect><path d="M465.67,152.36v8.73H464v-3.72h-4v3.72h-1.7v-8.73H460v3.53h4v-3.53Z" style="fill:#fff"></path><path d="M473.55,159.6v1.49h-6.06v-8.73h5.95v1.49h-4.25V156h3.67v1.38h-3.67v2.27Z" style="fill:#fff"></path><path d="M474.88,161.09v-8.73h1.7v7.24H481v1.49Z" style="fill:#fff"></path><path d="M482.06,161.09v-8.73h3.7a2.58,2.58,0,0,1,1.11.25,2.78,2.78,0,0,1,.88.67,3,3,0,0,1,.58.93,2.81,2.81,0,0,1,.21,1,3.08,3.08,0,0,1-.2,1.08,2.9,2.9,0,0,1-.55.93,2.75,2.75,0,0,1-.86.65,2.58,2.58,0,0,1-1.11.25h-2.06v2.92Zm1.7-4.41h2a1,1,0,0,0,.78-.38,1.6,1.6,0,0,0,.32-1,1.55,1.55,0,0,0-.1-.59,1.4,1.4,0,0,0-.26-.45,1,1,0,0,0-.37-.28,1.15,1.15,0,0,0-.44-.09h-1.89Z" style="fill:#fff"></path><path d="M494.93,152.39h1.56l1,2.89,1-2.89H500l-1.49,4,1.1,2.79,2.48-6.79H504l-3.55,8.73H499l-1.51-3.66L496,161.09h-1.43L491,152.36h1.82l2.48,6.79,1.09-2.79Z" style="fill:#fff"></path><path d="M506.6,152.36h1.5l3.32,8.73h-1.75l-.81-2.17h-3.05l-.79,2.17h-1.75Zm2,5.36-1.21-3.43-1.25,3.43Z" style="fill:#fff"></path><path d="M514.08,155.5v5.59h-1.7v-8.73h1.32l4.54,5.73v-5.72h1.7v8.72h-1.38Z" style="fill:#fff"></path><path d="M528.29,153.85H525.5v7.24h-1.69v-7.24H521v-1.49h7.27Z" style="fill:#fff"></path><path d="M535.43,159.6v1.49h-6.06v-8.73h6v1.49h-4.25V156h3.68v1.38h-3.68v2.27Z" style="fill:#fff"></path><path d="M536.76,161.09v-8.73h3.17a4.74,4.74,0,0,1,1.88.35,4,4,0,0,1,1.35.93A3.9,3.9,0,0,1,544,155a5.25,5.25,0,0,1,.27,1.69,5.17,5.17,0,0,1-.3,1.81,3.85,3.85,0,0,1-2.23,2.26,4.78,4.78,0,0,1-1.78.31Zm5.77-4.38a3.85,3.85,0,0,0-.17-1.15,2.69,2.69,0,0,0-.51-.91,2.24,2.24,0,0,0-.82-.59,2.73,2.73,0,0,0-1.1-.21h-1.47v5.75h1.47a2.67,2.67,0,0,0,1.12-.22,2.23,2.23,0,0,0,.81-.61,2.67,2.67,0,0,0,.5-.91A3.85,3.85,0,0,0,542.53,156.71Z" style="fill:#fff"></path><path d="M450.64,182.68c8.4-.21,16.8-.3,25.2-.38l25.2-.12,25.2.12,12.6.13,12.6.25-12.6.25-12.6.13-25.2.12-25.2-.12C467.44,183,459,182.89,450.64,182.68Z" style="fill:#fff"></path><path d="M450.64,188.22c8.4-.21,16.8-.31,25.2-.39l25.2-.11,25.2.11,12.6.14,12.6.25-12.6.24-12.6.14-25.2.12-25.2-.12C467.44,188.52,459,188.42,450.64,188.22Z" style="fill:#fff"></path><path d="M450.64,193.75c8.4-.2,16.8-.3,25.2-.38l25.2-.12,25.2.12,12.6.14,12.6.24-12.6.25-12.6.14-25.2.11-25.2-.11C467.44,194.06,459,194,450.64,193.75Z" style="fill:#fff"></path><path d="M450.64,199.29c8.4-.21,16.8-.3,25.2-.38l25.2-.12,25.2.12,12.6.13,12.6.25-12.6.24-12.6.14-25.2.12-25.2-.12C467.44,199.59,459,199.5,450.64,199.29Z" style="fill:#fff"></path><path d="M450.64,204.83c8.4-.21,16.8-.31,25.2-.39l25.2-.11,25.2.11,12.6.14,12.6.25-12.6.24-12.6.14-25.2.12-25.2-.12C467.44,205.13,459,205,450.64,204.83Z" style="fill:#fff"></path><path d="M450.64,210.36c8.4-.2,16.8-.3,25.2-.38l25.2-.12,25.2.12,12.6.14,12.6.24-12.6.25-12.6.14-25.2.11-25.2-.11C467.44,210.67,459,210.57,450.64,210.36Z" style="fill:#fff"></path><path d="M450.64,215.9c3.64-.21,7.28-.3,10.92-.38s7.28-.11,10.92-.12,7.28,0,10.92.12l5.46.13c1.82.09,3.64.14,5.46.25-1.82.11-3.64.16-5.46.24l-5.46.14c-3.64.1-7.28.11-10.92.12s-7.28,0-10.92-.12S454.28,216.11,450.64,215.9Z" style="fill:#fff"></path><rect x="444.3" y="234.72" width="113.48" height="20.64" style="fill:#c7c7c7"></rect><rect x="444.3" y="263.45" width="113.48" height="32.15" style="fill:#c7c7c7"></rect><path d="M465.4,244v5.59h-1.7v-8.73H465l4.55,5.73v-5.71h1.7v8.71h-1.38Z" style="fill:#fff"></path><path d="M476.81,249.64a4,4,0,0,1-1.74-.37,4.06,4.06,0,0,1-1.34-1,4.22,4.22,0,0,1-.87-1.42,4.37,4.37,0,0,1-.31-1.63,4.33,4.33,0,0,1,.33-1.67,4.43,4.43,0,0,1,.89-1.42,4.59,4.59,0,0,1,1.36-1,4.1,4.1,0,0,1,1.71-.36,3.82,3.82,0,0,1,1.73.39,4.34,4.34,0,0,1,1.33,1,4.62,4.62,0,0,1,.86,1.43,4.36,4.36,0,0,1,.31,1.62,4.51,4.51,0,0,1-.32,1.67,4.61,4.61,0,0,1-.88,1.4,4.17,4.17,0,0,1-1.36,1A4,4,0,0,1,476.81,249.64Zm-2.54-4.42a3.6,3.6,0,0,0,.17,1.09,3.25,3.25,0,0,0,.5.94,2.66,2.66,0,0,0,.8.65,2.38,2.38,0,0,0,1.08.24,2.28,2.28,0,0,0,1.09-.25,2.58,2.58,0,0,0,.8-.67,3.12,3.12,0,0,0,.49-.94,3.49,3.49,0,0,0,.16-1.06,3.43,3.43,0,0,0-.18-1.1,2.78,2.78,0,0,0-.5-.93,2.41,2.41,0,0,0-.8-.65,2.3,2.3,0,0,0-1.06-.24,2.32,2.32,0,0,0-1.1.26,2.44,2.44,0,0,0-.8.66,3.16,3.16,0,0,0-.48.93A3.57,3.57,0,0,0,474.27,245.22Z" style="fill:#fff"></path><path d="M485.07,240.88h1.56l1,2.89,1-2.89h1.57l-1.49,4,1.11,2.79,2.47-6.79h1.84l-3.55,8.73h-1.43l-1.51-3.66-1.51,3.66h-1.43l-3.52-8.73H483l2.49,6.79,1.08-2.79Z" style="fill:#fff"></path><path d="M504.88,240.85v8.73h-1.69v-3.72h-4v3.72h-1.69v-8.73h1.69v3.53h4v-3.53Z" style="fill:#fff"></path><path d="M506.7,249.58v-8.73h1.69v8.73Z" style="fill:#fff"></path><path d="M510.21,249.58v-8.73h3.86a2.45,2.45,0,0,1,1.11.26,2.65,2.65,0,0,1,.88.66,3.1,3.1,0,0,1,.58.93,2.81,2.81,0,0,1,.21,1.05,2.93,2.93,0,0,1-.42,1.55,2.47,2.47,0,0,1-1.15,1l2,3.28h-1.91l-1.78-2.92h-1.67v2.92Zm1.7-4.41H514a.92.92,0,0,0,.43-.11,1.27,1.27,0,0,0,.35-.3,1.61,1.61,0,0,0,.24-.45,2,2,0,0,0,.08-.56,1.47,1.47,0,0,0-.1-.56,1.43,1.43,0,0,0-.26-.45,1.17,1.17,0,0,0-.38-.29,1,1,0,0,0-.44-.11h-2.05Z" style="fill:#fff"></path><path d="M518.39,249.58v-8.73h1.69v8.73Z" style="fill:#fff"></path><path d="M523.6,244v5.59h-1.7v-8.73h1.32l4.55,5.73v-5.71h1.7v8.71h-1.38Z" style="fill:#fff"></path><path d="M537.35,248.6a3.33,3.33,0,0,1-2.44,1,3.89,3.89,0,0,1-1.62-.34,4,4,0,0,1-1.31-1,4.56,4.56,0,0,1-.89-1.42,4.83,4.83,0,0,1-.32-1.76,4.38,4.38,0,0,1,1.22-3.08,4.34,4.34,0,0,1,1.35-1,4.39,4.39,0,0,1,3.79.17,3.27,3.27,0,0,1,1.32,1.39l-1.26.93a2.41,2.41,0,0,0-.93-1,2.56,2.56,0,0,0-1.3-.35,2.12,2.12,0,0,0-1,.24,2.3,2.3,0,0,0-.79.63,2.93,2.93,0,0,0-.5.94,3.42,3.42,0,0,0-.18,1.12,3.34,3.34,0,0,0,.19,1.15,3.54,3.54,0,0,0,.54.93,2.62,2.62,0,0,0,.82.62,2.38,2.38,0,0,0,1,.22,3,3,0,0,0,2.29-1.19v-.61h-1.76V245.1h3.16v4.48h-1.4Z" style="fill:#fff"></path><path d="M450.64,271.17c8.4-.21,16.8-.3,25.2-.38l25.2-.12,25.2.12,12.6.14,12.6.24-12.6.25-12.6.14-25.2.11-25.2-.12C467.44,271.47,459,271.38,450.64,271.17Z" style="fill:#fff"></path><path d="M450.64,276.71c8.4-.21,16.8-.3,25.2-.38l25.2-.12,25.2.11,12.6.14,12.6.25-12.6.24-12.6.14-25.2.12-25.2-.12C467.44,277,459,276.91,450.64,276.71Z" style="fill:#fff"></path><path d="M450.64,282.24c8.4-.2,16.8-.3,25.2-.38l25.2-.11,25.2.11,12.6.14,12.6.24-12.6.25-12.6.14-25.2.11-25.2-.11C467.44,282.55,459,282.45,450.64,282.24Z" style="fill:#fff"></path><path d="M450.64,287.78c3.64-.21,7.28-.3,10.92-.38s7.28-.11,10.92-.12,7.28,0,10.92.12l5.46.14c1.82.08,3.64.13,5.46.24-1.82.11-3.64.16-5.46.25l-5.46.14c-3.64.09-7.28.1-10.92.11s-7.28,0-10.92-.12S454.28,288,450.64,287.78Z" style="fill:#fff"></path><rect x="183.72" y="111.84" width="373.13" height="26.38" style="fill:#fff"></rect><path d="M557.35,138.72H183.22V111.34H557.35Zm-373.13-1H556.35V112.34H184.22Z" style="fill:#c7c7c7"></path><rect x="530.84" y="111.84" width="26.38" height="26.38" style="fill:#FFC727"></rect><path d="M553.4,133.31l-2.73,2.07-5.06-6.68-1.85-2.44a4.22,4.22,0,0,0,1.07-.6,4.41,4.41,0,0,0,1.4-1.82l2,2.59Z" style="fill:#fff"></path><path d="M548,117.59a7.45,7.45,0,1,0-2.42,11.11,7.17,7.17,0,0,0,2.58-2.27A7.46,7.46,0,0,0,548,117.59Zm-3.2,8.07a4.22,4.22,0,0,1-1.07.6,4.4,4.4,0,1,1,1.07-.6Z" style="fill:#fff"></path><path d="M196.27,130.83a3.31,3.31,0,0,1-2.19-.7l.86-1.79a2.36,2.36,0,0,0,.63.35,2.88,2.88,0,0,0,1.12.19,2.12,2.12,0,0,0,1-.23,1.93,1.93,0,0,0,.71-.71,5.34,5.34,0,0,0,.49-1.19c.14-.48.28-1,.42-1.67l1.23-5.76h2.21l-1.24,5.76a20.44,20.44,0,0,1-.62,2.35,6.11,6.11,0,0,1-.93,1.82,3.93,3.93,0,0,1-1.48,1.16A5.27,5.27,0,0,1,196.27,130.83Z" style="fill:#c7c7c7"></path><path d="M207.2,130.73a3.88,3.88,0,0,1-3.11-1.44,4.5,4.5,0,0,1-.8-1.5A5.75,5.75,0,0,1,203,126a6.06,6.06,0,0,1,.55-2.52,7.49,7.49,0,0,1,1.47-2.17,7.22,7.22,0,0,1,2.14-1.53,5.8,5.8,0,0,1,2.52-.57,3.81,3.81,0,0,1,3.07,1.45,4.58,4.58,0,0,1,.79,1.52,5.85,5.85,0,0,1,.28,1.77,6.1,6.1,0,0,1-.55,2.5,7.33,7.33,0,0,1-1.46,2.17,7.48,7.48,0,0,1-2.12,1.52A5.76,5.76,0,0,1,207.2,130.73Zm.43-1.95a3.06,3.06,0,0,0,1.61-.43,4.71,4.71,0,0,0,1.26-1.1,5.18,5.18,0,0,0,.81-1.5,4.86,4.86,0,0,0,.29-1.62,4.09,4.09,0,0,0-.15-1.12,2.63,2.63,0,0,0-.44-.94,2.09,2.09,0,0,0-.74-.64,2.16,2.16,0,0,0-1-.24,3.2,3.2,0,0,0-1.61.42,4.43,4.43,0,0,0-1.26,1.1,5.15,5.15,0,0,0-1.11,3.13,4,4,0,0,0,.15,1.12,2.8,2.8,0,0,0,.44.94,2.31,2.31,0,0,0,.75.64A2.13,2.13,0,0,0,207.63,128.78Z" style="fill:#c7c7c7"></path><path d="M216.65,119.31h5.82a1.63,1.63,0,0,1,.84.2,1.85,1.85,0,0,1,.6.51,2.53,2.53,0,0,1,.35.74,3.08,3.08,0,0,1,.12.86,3.28,3.28,0,0,1-.15,1,3.64,3.64,0,0,1-.44.91,3.66,3.66,0,0,1-1.6,1.33,2.07,2.07,0,0,1,1.11.82,2.58,2.58,0,0,1,.38,1.43,3.32,3.32,0,0,1-.35,1.53,3.36,3.36,0,0,1-.94,1.11,4.06,4.06,0,0,1-1.36.69,5.25,5.25,0,0,1-1.58.23h-5.22Zm3.2,9.47a1.32,1.32,0,0,0,.6-.14,1.8,1.8,0,0,0,.91-1,1.65,1.65,0,0,0,.15-.69,1.44,1.44,0,0,0-.25-.84.8.8,0,0,0-.68-.35h-3.13l-.63,3Zm.68-4.73a1.31,1.31,0,0,0,.57-.13,1.45,1.45,0,0,0,.5-.36A1.75,1.75,0,0,0,222,123a1.94,1.94,0,0,0,.14-.73,1.2,1.2,0,0,0-.24-.79.77.77,0,0,0-.64-.3h-2.78l-.61,2.86Z" style="fill:#c7c7c7"></path><path d="M233.11,130.73a3.88,3.88,0,0,1-3.11-1.44,4.5,4.5,0,0,1-.8-1.5,5.47,5.47,0,0,1-.28-1.77,6.22,6.22,0,0,1,.55-2.52,7.73,7.73,0,0,1,1.48-2.17,7.22,7.22,0,0,1,2.14-1.53,5.79,5.79,0,0,1,2.51-.57,3.81,3.81,0,0,1,3.08,1.45,4.58,4.58,0,0,1,.79,1.52,5.84,5.84,0,0,1,.27,1.77,6.08,6.08,0,0,1-.54,2.5,7.33,7.33,0,0,1-1.46,2.17,7.48,7.48,0,0,1-2.12,1.52A5.79,5.79,0,0,1,233.11,130.73Zm.43-1.95a3.08,3.08,0,0,0,1.61-.43,4.52,4.52,0,0,0,1.25-1.1,5,5,0,0,0,.82-1.5,4.86,4.86,0,0,0,.29-1.62,4.09,4.09,0,0,0-.15-1.12,2.63,2.63,0,0,0-.44-.94,2.09,2.09,0,0,0-.74-.64,2.16,2.16,0,0,0-1-.24,3.17,3.17,0,0,0-1.61.42,4.61,4.61,0,0,0-1.27,1.1,5.26,5.26,0,0,0-.81,1.49,5,5,0,0,0-.29,1.64,4.46,4.46,0,0,0,.14,1.12,3,3,0,0,0,.45.94,2.21,2.21,0,0,0,.75.64A2.13,2.13,0,0,0,233.54,128.78Z" style="fill:#c7c7c7"></path><path d="M242.56,119.31h7.25l-.41,1.93h-5.07l-.61,2.92h4.19l-.38,1.79h-4.19l-1,4.7h-2.19Z" style="fill:#c7c7c7"></path><path d="M251.44,119.31h7.26l-.42,1.93h-5.06l-.61,2.92h4.19l-.39,1.79h-4.18l-1,4.7H249Z" style="fill:#c7c7c7"></path><path d="M260.33,119.31h7.35l-.4,1.93H262.1l-.57,2.73H266l-.39,1.79h-4.45l-.63,3h5.31l-.42,1.93h-7.49Z" style="fill:#c7c7c7"></path><path d="M267.16,130.65l2.41-11.34h4.79a2.41,2.41,0,0,1,1.15.26,2.59,2.59,0,0,1,.87.7,3.25,3.25,0,0,1,.53,1,3.53,3.53,0,0,1,.19,1.16,3.68,3.68,0,0,1-.21,1.22,4.8,4.8,0,0,1-.57,1.13,4.73,4.73,0,0,1-.85.94,3.77,3.77,0,0,1-1.06.66l1.54,4.26h-2.5l-1.34-3.8h-2l-.79,3.8Zm5.94-5.73a1.28,1.28,0,0,0,.63-.19,2,2,0,0,0,.55-.49,3.12,3.12,0,0,0,.4-.72,2.47,2.47,0,0,0,.15-.86,1.66,1.66,0,0,0-.3-1,.89.89,0,0,0-.73-.41h-2.46l-.78,3.68Z" style="fill:#c7c7c7"></path><rect x="278.39" y="117.57" width="1.24" height="14.91" style="fill:#263238"></rect><path d="M457.73,300.73s-46,12.47-53.59,11.1-33.28-35.89-39-48.43S350,188.51,351.84,181.64s11.33-7,19.37,10.74,27,56.58,30.4,59.75S461.47,297.45,457.73,300.73Z" style="fill:#f7a9a0"></path><path d="M387.29,298.22l59.62-11.9s-42.86-33.55-45.45-37.44S375.3,196,367.82,184.31s-19.19-11.79-16.66,7.61c2.66,20.36,8.43,63.25,12.08,71.18S387.29,298.22,387.29,298.22Z" style="fill:#263238"></path><path d="M403.19,295.05l-15.9,3.17S366.88,271,363.24,263.1s-9.42-50.82-12.07-71.18c-1.74-13.37,3.27-17.45,9-14.88Z" style="fill:#37474f"></path><path d="M408.14,307.73c7.05-3.69,15.64-12.64,21.49-13.57a6.77,6.77,0,0,1,7.31,3.48s2.69-6,8.14-5.94c2.8,0,5.24,4.5,5.24,4.5s2.37-4.7,7.21-4.38c3.85.26,5.72,4.72,5.72,4.72s4.37-3.45,8.21-1.93c7.8,3.09,9.11,36.24-2.9,41.84-5.6,2.61-5.48-5.51-5.48-5.51s-3,11.63-9.82,12.07-6-10.09-6-10.09-3,11.24-10.13,11c-7.41-.26-4.82-10.66-4.82-10.66s-4.7,7.56-10.11,6.12c-8.94-2.38.66-20.33-1.35-27.54H409.6Z" style="fill:#f7a9a0"></path><path d="M418.32,300.68c-7,2.91-15-8.12-22.15-5.55-9.32,3.33-.7,14.83,13.43,16.7h11.22Z" style="fill:#f7a9a0"></path><path d="M463.65,297.2a.09.09,0,0,1,.17,0c3.08,10.8,3.16,23.61-.69,34.23-.13.35-.75.29-.69-.12C464.33,319.57,465.07,309,463.65,297.2Z" style="fill:#263238"></path><path d="M450.38,296c0-.13.2-.15.24,0,3.12,11.14,2.81,25.58-3.08,37.29-.2.4-.78.56-.59.08C450.28,325.29,451.72,306.67,450.38,296Z" style="fill:#263238"></path><path d="M431.59,334c5.21-11.45,6.23-23.42,5.5-35.86,0-.17.22-.16.27,0,2,6,1.65,14,.84,20.16A33.28,33.28,0,0,1,432,334.15C431.85,334.33,431.48,334.21,431.59,334Z" style="fill:#263238"></path><path d="M395.62,294.26c4.57-1.53,9.28,2.13,13.13,4.17a23.38,23.38,0,0,0,3.88,1.85,7.83,7.83,0,0,0,6.63-.51c2.13-1.37,8.8-8,13.61-5.8a10.13,10.13,0,0,1,4.12,3.49c1.47-2.66,3.34-5.57,6.6-6.11a5.22,5.22,0,0,1,4.08,1.06,8.82,8.82,0,0,1,1.6,1.63,7.68,7.68,0,0,1,1.1,1.82l0-.06.09-.2.21-.41a4.18,4.18,0,0,1,.51-.8,5.26,5.26,0,0,1,.62-.63,1,1,0,0,1,.7-.28.08.08,0,0,1,0,.15,1.14,1.14,0,0,0-.52.5c-.15.23-.29.47-.45.7l-.48.66-.24.36-.1.17c-.05.07-.11.11-.16.17s-.18,0-.23,0,0,0,0,0A9.6,9.6,0,0,1,449,294.7a10.53,10.53,0,0,0-1.6-1.53,5,5,0,0,0-3.91-1c-2.91.58-4.77,3.17-6.32,5.48,0,0,0,0,0,0h0a.08.08,0,0,1-.12.09c-1.61-1.4-3.13-3-5.34-3.3-2.38-.35-4.64.8-6.62,2a28.94,28.94,0,0,0-2.84,1.93c-.81.63-1.58,1.33-2.45,1.88-3.71,2.33-7.77.52-8.78.09a49.32,49.32,0,0,1-5.79-3.07,16.19,16.19,0,0,0-6.2-2.5,6,6,0,0,0-5.51,2.06c-.69.89-1.58,2.57.24,6.39,0,0,0,.07-.05.05C392.75,302.37,389.72,296.22,395.62,294.26Z" style="fill:#263238"></path><path d="M382.91,307.61H324.39c-.49-1.88-.95-3.74-1.42-5.56-.53-2.1-1.06-4.15-1.57-6.14-.11-.45-.23-.89-.34-1.33-.38-1.53-.76-3-1.13-4.46-.22-.89-.45-1.76-.66-2.62s-.45-1.73-.66-2.57c-.06-.22-.11-.44-.17-.66l-.18-.72c-.07-.3-.15-.58-.22-.87h0c-.08-.31-.16-.6-.23-.9-.15-.56-.29-1.12-.42-1.66-.21-.8-.41-1.59-.61-2.35-.08-.34-.17-.67-.25-1-.14-.53-.27-1-.4-1.56-.09-.34-.17-.68-.25-1-.35-1.35-.67-2.61-1-3.79-.09-.31-.16-.61-.24-.91l-.37-1.47c-.08-.3-.16-.59-.23-.87-.26-1-.49-1.93-.69-2.74-.06-.21-.11-.42-.17-.62-.13-.54-.26-1-.36-1.43,0-.17-.08-.34-.13-.49s-.08-.32-.11-.46-.06-.21-.08-.3-.07-.28-.1-.4,0-.13-.05-.18l-.13-.52h57s1.87,6.46,4.88,16.89l2,6.85C378.08,290.72,380.41,298.83,382.91,307.61Z" style="fill:#37474f"></path><path d="M334,307.61h-1.46q-3.25-13.46-6.3-26.94-.73-3.29-1.45-6.57c-.05-.21-.09-.41-.14-.62s.14-.16.17-.05a1.66,1.66,0,0,1,.06.21q1,3.53,2,7.06C329.29,289.65,331.65,298.62,334,307.61Z" style="fill:#263238"></path><path d="M367.38,260l-2.51,12.58-2.06,10.33-3.51,17.59-.37,1.8-.6,3-.45,2.28h-33.5L323,302.05c-.53-2.1-1.06-4.15-1.57-6.14-.11-.45-.23-.89-.34-1.33-.38-1.53-.76-3-1.13-4.46-.22-.89-.45-1.76-.66-2.62s-.45-1.73-.66-2.57c-.06-.22-.11-.44-.17-.66l-.18-.72c-.07-.3-.15-.58-.22-.87h0c-.08-.31-.16-.6-.23-.9-.15-.56-.29-1.12-.42-1.66-.21-.8-.41-1.59-.61-2.35-.08-.34-.17-.67-.25-1-.14-.53-.27-1-.4-1.56-.09-.34-.17-.68-.25-1-.35-1.35-.67-2.61-1-3.79-.09-.31-.16-.61-.24-.91l-.37-1.47c-.08-.3-.16-.59-.23-.87-.26-1-.49-1.93-.69-2.74-.06-.21-.11-.42-.17-.62-.13-.54-.26-1-.36-1.43,0-.17-.08-.34-.13-.49s-.08-.32-.11-.46-.06-.21-.08-.3-.07-.28-.1-.4,0-.13-.05-.18l-.13-.52Z" style="fill:#263238"></path><path d="M367.39,260v0c0,.31-.24,3.7-.79,8.89-.15,1.51-.34,3.17-.55,4.95-.34,2.81-.75,5.91-1.26,9.19-.88,5.72-2,12-3.51,18.05-.52,2.2-1.1,4.37-1.72,6.5l-73.53,0c.86-11.21,1.66-21.34,2.29-29.33.88-11.25,1.44-18.28,1.44-18.28l66.71,0Z" style="fill:#37474f"></path><path d="M367.23,266.76c-.08,2.63-.19,5.26-.36,7.88-.18,2.84-.44,5.67-.81,8.5a2.91,2.91,0,0,1,0,.31q-.51,4-1.19,7.95a27.87,27.87,0,0,1-1.82,7.39,7.16,7.16,0,0,1-1.73,2.32,5,5,0,0,1-2.35,1.22,2.14,2.14,0,0,1-.43.07h-.13a.16.16,0,0,1,.08.16c0,.88,0,1.78-.1,2.65,0,0,0,.08,0,.11-.09.77-.23,1.52-.37,2.28H356.7s0,0,0,0c.22-.83.4-1.67.61-2.51s.51-1.69.71-2.56c0,0,0-.06.06-.08a3.92,3.92,0,0,1-3.8-2.38,6.87,6.87,0,0,1-.06-3.46c.23-1.5.45-3,.68-4.51.43-2.77,1-5.51,1.48-8.26.07-.41.15-.84.22-1.25,1-5.6,2-11.2,3.26-16.75,0-.23.09-.46.14-.69s.29-.11.27,0c0,.37-.07.75-.12,1.12q-.32,3.2-.76,6.36c-.36,2.49-.6,5-1,7.47l-.36,2.54c-.58,4.08-1.17,8.17-1.87,12.24-.32,1.89-1.5,5.28,1.22,5.87a2.76,2.76,0,0,0,1.85-.23,5.8,5.8,0,0,0,2.53-3.2,42.27,42.27,0,0,0,1.44-6.81c.45-2.49.84-5,1.19-7.48h0q.66-4.68,1.39-9.35l.75-4.76.36-2.2C367,266.56,367.23,266.6,367.23,266.76Z" style="fill:#263238"></path><path d="M302.16,286.31a37,37,0,0,0,9.07-1.22c1.37-.35,2.72-.79,4.06-1.23A10.44,10.44,0,0,0,319,282c2.06-1.77,3-4.58,3.92-7.06a67.29,67.29,0,0,0,2.37-8.58.13.13,0,0,1,.25,0,33.43,33.43,0,0,1-1.23,9.74c-.74,2.69-1.74,5.69-3.91,7.57s-5.39,2.68-8.32,3a38.44,38.44,0,0,1-9.88-.13A.17.17,0,0,1,302.16,286.31Z" style="fill:#263238"></path><path d="M297.06,266.46q-.24,6.18-.52,12.36-.63,14.4-1.38,28.79h-1.38q.95-14.43,2-28.83.47-6.16.94-12.32C296.73,266.23,297.07,266.24,297.06,266.46Z" style="fill:#263238"></path><path d="M376.3,285.28c-1.49,1.41-91.07-5.26-91.49-5.85-1.14-1.6,28.27-90.62,49.16-105.93,12-8.81,20.62-3.32,23.9-.17C371.34,186.3,377.6,284,376.3,285.28Z" style="fill:#ebebeb"></path><polygon points="349.01 196.72 354.4 189.63 358.64 195.94 356.88 201.67 351.54 201.95 349.01 196.72" style="fill:#FFC727"></polygon><polygon points="351.54 201.95 344.48 261.27 354.15 281.81 361.62 260.09 356.88 201.67 351.54 201.95" style="fill:#FFC727"></polygon><path d="M383.39,306.09s-11.8-.84-27.58-2c-.93-5.64-2.84-19.38-3.07-19.38-.18.29-4.85,13.39-6.4,18.67-15.33-1.18-73.27-6.67-73.79-7.1-.14-.12,9.36-17.68,9.36-17.68,9.14-25.75,25.72-70.57,31.83-81.8C325.31,175.51,335.29,171,335.29,171l20.1,60.1c.1-1,5-55.3,5-55.3,1.26,1.94,8.48,14,12.25,37.85,3.84,24.32,5.62,57.65,6.65,74.33C379.28,288,383.4,305.76,383.39,306.09Z" style="fill:#263238"></path><path d="M356.05,222.71c-.07,5.17-.25,10.34-.45,15.51s-.47,10.33-.71,15.5S354.3,264,354,269.2l-.55,7.74c-.22,2.58-.41,5.16-.66,7.74,0-2.59.11-5.18.17-7.76l.27-7.76c.2-5.16.48-10.33.71-15.49s.59-10.33.95-15.49S355.57,227.86,356.05,222.71Z" style="fill:#37474f"></path><path d="M352.37,240.84a2.59,2.59,0,1,1-2.53-2.64A2.58,2.58,0,0,1,352.37,240.84Z" style="fill:#37474f"></path><path d="M351.16,255.44a2.59,2.59,0,1,1-2.53-2.64A2.59,2.59,0,0,1,351.16,255.44Z" style="fill:#37474f"></path><path d="M350,270a2.59,2.59,0,1,1-2.53-2.64A2.59,2.59,0,0,1,350,270Z" style="fill:#37474f"></path><path d="M351.92,190.81c-5.77-.81-11.68-12.39-12.72-20.31-.06-.55,8.77-17.71,10.17-21.3.28-.73,20.38,14.24,20.38,14.24s-5.14,6.65-7.54,12.91C362,176.88,357.48,191.59,351.92,190.81Z" style="fill:#f7a9a0"></path><path d="M369.75,163.43s-5.14,6.66-7.54,12.92c0,.12-.34,1-.82,2.36-10.31-5.16-14.56-14.37-16.29-20.48,1.92-3.9,3.7-7.57,4.27-9C349.66,148.47,369.75,163.43,369.75,163.43Z" style="fill:#263238"></path><path d="M347.31,123.75c-4.17,7.91-4.36,33,.6,39.58,7.18,9.5,21.24,12.95,29.9,3.81,8.39-8.86,8.05-41.6,2.31-47.79C371.65,110.23,353.47,112.06,347.31,123.75Z" style="fill:#f7a9a0"></path><path d="M367.09,140.92c-.77,0-1.47-.18-2.22-.28a3.6,3.6,0,0,1-2.21-.71,1.16,1.16,0,0,1-.12-1.4,2.86,2.86,0,0,1,2.75-.9,4.17,4.17,0,0,1,2.75,1.25A1.23,1.23,0,0,1,367.09,140.92Z" style="fill:#263238"></path><path d="M367.19,143.18c0-.06-.13.09-.13.16.11,1.69-.05,3.64-1.56,4.26-.05,0,0,.1,0,.09C367.37,147.37,367.56,144.77,367.19,143.18Z" style="fill:#263238"></path><path d="M365.62,141.46c-2.73-.12-2.77,5.35-.24,5.46S367.91,141.56,365.62,141.46Z" style="fill:#263238"></path><path d="M377,143c0-.06.13.09.13.15-.07,1.7.14,3.65,1.67,4.22.05,0,0,.11,0,.1C376.9,147.21,376.65,144.62,377,143Z" style="fill:#263238"></path><path d="M378.51,141.27c2.72-.19,2.9,5.28.37,5.45S376.22,141.42,378.51,141.27Z" style="fill:#263238"></path><path d="M380.32,136.86c-.76-.13-1.43-.38-2.17-.58a3.65,3.65,0,0,1-2.1-1,1.16,1.16,0,0,1,.08-1.41,2.86,2.86,0,0,1,2.86-.52,4.21,4.21,0,0,1,2.56,1.63A1.23,1.23,0,0,1,380.32,136.86Z" style="fill:#263238"></path><path d="M365,158.34c.4.39.8.94,1.42,1a4.64,4.64,0,0,0,1.82-.41c.05,0,.11,0,.07.08a2.27,2.27,0,0,1-2.15.91,1.83,1.83,0,0,1-1.33-1.51C364.85,158.31,365,158.28,365,158.34Z" style="fill:#263238"></path><path d="M366.86,153.28a5.74,5.74,0,0,0,3.83,2.59,7.17,7.17,0,0,0,2.07.11,2.58,2.58,0,0,0,.4,0l.37-.06a.4.4,0,0,0,.34-.37v0a1,1,0,0,0,0-.17h0v-.15c0-1.3-.07-3.29-.07-3.29.47.24,2.9,1.35,2.86.67-.29-5.64-.62-11.92-2.11-17.47a.16.16,0,0,0-.31,0c.07,5.43,1.1,10.82,1.25,16.28a10,10,0,0,0-2.71-.85c-.19.06.28,3.84.21,4.42a.28.28,0,0,1,0,.06c-2.19.27-3.84-.41-6-1.9C366.89,153,366.75,153.14,366.86,153.28Z" style="fill:#263238"></path><path d="M372,155.31a6.83,6.83,0,0,1-2.76,2.11,3.12,3.12,0,0,1-1.87.1c-1.35-.37-1.38-1.61-1.12-2.67a7.48,7.48,0,0,1,.62-1.62A8.87,8.87,0,0,0,372,155.31Z" style="fill:#263238"></path><path d="M369.24,157.42a3.12,3.12,0,0,1-1.87.1c-1.35-.37-1.38-1.61-1.12-2.67A3.18,3.18,0,0,1,369.24,157.42Z" style="fill:#ff97b8"></path><path d="M345,147.29s-6.44-15.69-4.34-23.85c.95-3.69,6.45-5.42,6.45-5.42a8.55,8.55,0,0,1,4-8.09c5.08-3.48,15.66-.87,15.66-.87s8.52-9,17.73-3.45,1.07,15.67,1.07,15.67,2.81,5.69-6.63,8.32c-9.19,2.56-26.15-4-26.15-4a61.77,61.77,0,0,1-3.1,18.13A5.63,5.63,0,0,1,345,147.29Z" style="fill:#263238"></path><path d="M368.45,109.45a17.56,17.56,0,0,0-6.72-2.34,19,19,0,0,0-6.38,0c-3.74.72-7.29,2.84-8.49,6.63a7.25,7.25,0,0,0,.52,5.66c0,.07.15,0,.1-.07-1.83-3.17,0-7.36,2.77-9.36,3.07-2.25,7.29-2.63,11-2.21a30.49,30.49,0,0,1,7.14,1.9A.11.11,0,0,0,368.45,109.45Z" style="fill:#263238"></path><path d="M390.81,111.46a8.52,8.52,0,0,0-5-6.28,14.55,14.55,0,0,0-9.37-1.13,18.31,18.31,0,0,0-8.49,4.46c-.06,0,0,.14.08.09,4.38-3.79,10.56-5.38,16.09-3.28,2.47.94,4.83,2.66,5.63,5.28a8.75,8.75,0,0,1-1.36,7.28,16.43,16.43,0,0,1-7.31,5.35.05.05,0,1,0,0,.1,16.89,16.89,0,0,0,7.15-4.39A9.54,9.54,0,0,0,390.81,111.46Z" style="fill:#263238"></path><path d="M381,130.4a30.09,30.09,0,0,1-12.71.21,61,61,0,0,1-12.74-3.81c-2.39-1-4.75-2.07-7.08-3.19a.07.07,0,0,0-.06.12,67.41,67.41,0,0,0,12.69,6.19A33.53,33.53,0,0,0,374,131.81a28.76,28.76,0,0,0,7.06-1.32A0,0,0,0,0,381,130.4Z" style="fill:#263238"></path><path d="M348.89,145.81s-4.1-8.85-8-7.53S339,151.75,343,154.06a4.33,4.33,0,0,0,6.12-1.27Z" style="fill:#f7a9a0"></path><path d="M341.56,141.75a.06.06,0,0,0-.05.11c2.73,1.71,3.79,4.72,4.37,7.74-.68-1.25-1.76-2.06-3.41-1.28-.08,0,0,.18,0,.17a2.68,2.68,0,0,1,2.73,1.43,13,13,0,0,1,1,2.59c.09.28.59.23.55-.09v-.08C347.49,148.61,345.52,142.85,341.56,141.75Z" style="fill:#263238"></path><path d="M362.64,175.09l-8.28,11.66-13.17-21-6.78,4.73s11.59,31.28,11.94,30l8-10.92,6.7,10,3.34-21.13Z" style="fill:#ebebeb"></path><path d="M363.34,189.23c.44-3.51,1-7,1.24-10.56,0-.12-.17-.21-.23-.07-1.33,3.21-2.92,16.63-3.54,19.8l0,0c-.28-.43-6.29-8.83-6.38-8.73-1.61,1.67-7.5,9.62-7.95,10.36-1.83-5-9.85-24.7-12.22-29.52a.12.12,0,0,0-.23.08c1.47,5.15,11.74,31.14,12,31.12a140.35,140.35,0,0,0,8.44-11.57c.95,1.76,6.85,11.08,7,10.57A110.63,110.63,0,0,0,363.34,189.23Z" style="fill:#263238"></path><g style="opacity:0.30000000000000004"><path d="M415.32,182.62A38.25,38.25,0,1,1,437,133.06,38.24,38.24,0,0,1,415.32,182.62Z" style="fill:#fff"></path><path d="M371.08,170.38a38.25,38.25,0,0,0,44.24,12.25,38.65,38.65,0,0,0,9.15-5.12Z" style="fill:#ebebeb"></path><path d="M366.15,132.09l73.12,9.76a37.74,37.74,0,0,0-2.29-8.79,37.35,37.35,0,0,0-5.07-9.08l-54-7.21A38.27,38.27,0,0,0,366.15,132.09Z" style="fill:#ebebeb"></path><path d="M364.55,157.34l69.65,9.29a38.61,38.61,0,0,0,3.2-6.79L363.23,150A36.79,36.79,0,0,0,364.55,157.34Z" style="fill:#ebebeb"></path><path d="M364.45,137.05l75.17,10c0-.47,0-.93,0-1.39l-74.78-10C364.69,136.15,364.56,136.59,364.45,137.05Z" style="fill:#ebebeb"></path><path d="M389.23,110.73l33.36,4.46c-.95-.64-1.93-1.23-2.94-1.78l-27.14-3.62C391.41,110.05,390.32,110.36,389.23,110.73Z" style="fill:#ebebeb"></path></g><rect x="419.48" y="183.97" width="10.06" height="44.22" transform="translate(894.93 243.15) rotate(158.61)" style="fill:#ebebeb"></rect><path d="M441.85,131.15a43.46,43.46,0,1,0,2.85,12.24A43.56,43.56,0,0,0,441.85,131.15Zm-3.31,12.75a37.23,37.23,0,1,1-40.2-34.09,37.34,37.34,0,0,1,40.2,34.09Z" style="fill:#a6a6a6"></path><polygon points="436.64 257.91 450.8 252.36 450.8 252.36 436.5 215.85 422.34 221.4 422.34 221.4 436.64 257.91" style="fill:#263238"></polygon><path d="M424.31,138.31l-.06-.13c-.27-.6.3.58.09.19s-.47-.94-.73-1.39a32.9,32.9,0,0,0-3.12-4.54l-.5-.6c-.05-.06.41.46,0,0l-.32-.36c-.41-.45-.83-.89-1.27-1.32a30.94,30.94,0,0,0-3.07-2.64c-.25-.19-.52-.38-.78-.56s.41.26-.08-.05l-.48-.32c-.63-.4-1.26-.77-1.92-1.11a23.76,23.76,0,0,0-2.16-1c-.34-.15-.68-.28-1-.41-.59-.23.26.08-.18-.06l-.62-.21a30.22,30.22,0,0,0-5.79-1.19h-.1c.3,0-.16,0-.21,0l-.88,0c-.56,0-1.12,0-1.68,0-1.2,0-2.38.1-3.57.23a2.53,2.53,0,0,1-.22-5.06,31.94,31.94,0,0,1,21.48,5,34.77,34.77,0,0,1,10.39,11,27.38,27.38,0,0,1,1.58,3,2.56,2.56,0,0,1-1.63,3.19,2.6,2.6,0,0,1-3.19-1.63Z" style="fill:#fff"></path><path d="M426.5,145.51a2.49,2.49,0,1,0,1.6-3.13A2.48,2.48,0,0,0,426.5,145.51Z" style="fill:#fff"></path><path d="M323.36,197.56c1.33,32.16,12.87,74.47,24.21,82.82s55.27-16,76.2-27.7c5.15-2.87-22.08-43-26.84-38.89-7,6.08-33.49,20-34.1,20.43-1.32,1-12.71-20-20.89-38.07C330.54,170.94,322.59,179,323.36,197.56Z" style="fill:#f7a9a0"></path><path d="M450.21,187.35c3.71,3.18,1.72,7.82,1.72,7.82a10.46,10.46,0,0,1,6.22,3.4c2.68,3.34-1.38,9-1.38,9a12.83,12.83,0,0,1,6,4.63c2.25,3.45-1,9.77-1,9.77a11.28,11.28,0,0,1,2.71,7.38c-.33,7.23-9.95,12.65-16,16.16s-26.62,7.77-30.45,9l-22.85-38.84s22.79-23.49,30.53-26.6C432.14,186.44,446.05,183.78,450.21,187.35Z" style="fill:#f7a9a0"></path><path d="M451.68,195.07c-7.6,1.12-14.45,4.43-21.47,7.34a.13.13,0,0,0,.1.25c6.95-3,14.41-4.54,21.47-7.24A.18.18,0,0,0,451.68,195.07Z" style="fill:#263238"></path><path d="M456.62,207.54a20.23,20.23,0,0,0-4.88,1.92c-1.67.79-3.33,1.62-5,2.47q-5,2.55-9.78,5.35c-.14.08-.05.32.11.24,3.29-1.69,6.61-3.33,10-4.88q2.52-1.17,5.07-2.29a23.61,23.61,0,0,0,4.69-2.34A.27.27,0,0,0,456.62,207.54Z" style="fill:#263238"></path><path d="M461.58,222.06c-1.5.21-3,1.25-4.29,2q-2.24,1.2-4.48,2.39c-3,1.58-6,3.16-9,4.64a.13.13,0,0,0,.11.24c3.1-1.48,6.22-2.93,9.31-4.44,1.52-.74,3-1.49,4.54-2.25a13,13,0,0,0,3.94-2.39A.1.1,0,0,0,461.58,222.06Z" style="fill:#263238"></path><path d="M391.89,215.69,419,260s-60.26,30-71.82,21.31-23.84-54.4-24.8-81.19,9.09-25.91,19.09-7.11,18.37,40,19.84,39.38S391.89,215.69,391.89,215.69Z" style="fill:#263238"></path><path d="M322.9,215.12c.42,3,1.07,6.06,1.74,9.06s1.42,6,2.21,9c1.56,6,3.27,11.86,5.22,17.69A165.81,165.81,0,0,0,338.72,268a59.38,59.38,0,0,0,4.41,8c.44.62.85,1.26,1.34,1.83l.71.88.78.82a9.06,9.06,0,0,0,3.59,2.4,24.34,24.34,0,0,0,9,.09,76.89,76.89,0,0,0,9-1.89c5.93-1.57,11.74-3.59,17.5-5.73s11.46-4.45,17.12-6.88S413.39,262.62,419,260l0,.07-2.05-3.46L419,260l0,.05-.05,0c-11,5.56-22.23,10.63-33.72,15.1-5.76,2.21-11.59,4.24-17.55,5.87a79.69,79.69,0,0,1-9.08,1.95,24.48,24.48,0,0,1-9.38-.1,10.07,10.07,0,0,1-4-2.67l-.81-.87c-.26-.3-.49-.61-.74-.91-.51-.61-.92-1.26-1.37-1.9a60.44,60.44,0,0,1-4.45-8.17,149.32,149.32,0,0,1-6.55-17.31q-2.79-8.82-5-17.8c-.71-3-1.38-6-2-9S323.24,218.18,322.9,215.12Z" style="fill:#37474f"></path><path d="M355.1,221.76c.91,1.75,1.81,3.5,2.79,5.21.48.86,1,1.71,1.48,2.54a12.2,12.2,0,0,0,1.69,2.3,1.77,1.77,0,0,0,.23.19.31.31,0,0,0,.09,0s0,0,0,0a.29.29,0,0,0-.18,0l.06,0,.63-.33,1.3-.71,2.59-1.41L371,226.7l10.4-5.64c3.49-1.83,7-3.67,10.5-5.44l.07,0,0,.07.72,1.33-.86-1.25.11,0c-3.36,2.06-6.78,4-10.19,6s-6.86,3.88-10.32,5.78l-5.21,2.8-2.62,1.38c-.44.23-.88.46-1.32.67l-.69.32-.12.05a.73.73,0,0,1-.27,0l-.08,0a1.36,1.36,0,0,1-.24-.13,2.36,2.36,0,0,1-.33-.29,13.77,13.77,0,0,1-1.7-2.52c-.49-.87-.95-1.75-1.37-2.64C356.63,225.4,355.82,223.6,355.1,221.76Z" style="fill:#37474f"></path><path d="M321.47,220.89a48.11,48.11,0,0,1,2.46,5.19l2.13,5.32a20.44,20.44,0,0,1-2.83-5A34.65,34.65,0,0,1,321.47,220.89Z" style="fill:#37474f"></path></g></svg>