<svg xmlns="http://www.w3.org/2000/svg" viewBox="0 0 500 500">
  <path fill="#263238" d="m25.16 372.12 56.21-.25 56.21-.09 112.42-.16 112.42.16 56.21.09 56.21.25-56.21.24-56.21.09-112.42.16-112.42-.16-56.21-.09-56.21-.24z"/>
  <g fill="#ebebeb">
    <ellipse cx="109.69" cy="440.2" rx="86.86" ry="12.89"/>
    <ellipse cx="399.08" cy="440.2" rx="86.86" ry="12.89"/>
    <ellipse cx="257.38" cy="419.24" rx="114.67" ry="8.44"/>
  </g>
  <path fill="#37474f" d="m323.37 127.82 65.19-8.52v263.58l-65.19 8.52V127.82z"/>
  <path fill="#263238" d="m192.98 127.82 65.19-8.52v263.58l-65.19 8.52V127.82zm130.39 0-65.2-8.52v263.58l65.2 8.52V127.82z"/>
  <path fill="#37474f" d="m192.98 127.82-65.19-8.52v263.58l65.19 8.52V127.82z"/>
  <path fill="#dbdbdb" d="m323.37 133.43 58.97-7.64V376.8l-58.97 7.64V133.43zm-130.39.47 65.19-8.11V376.8l-65.19 8.11V133.9z"/>
  <path fill="#ebebeb" d="m323.37 133.67-65.2-7.65v251.02l65.2 7.64V133.67zm-130.39.23-58.97-8.11V376.8l58.97 8.11V133.9z"/>
  <path fill="#fff" d="m186.09 132.96-5.26 18.01-1.24 4.25-13.01 44.39-.76 1.76-3.81-1.44-28-10.56v-4.73l29.52 11.15 18.54-63.39 4.02.56z"/>
  <path fill="#fff" d="m247.03 127.18-2.39 1.45-4.16 2.5-26.01 15.7-3.53 2.14-17.73 10.7-.23-.07-13.39-4.38-1.85-.6 1.11-4.3 1.98.65 11.92 3.9.23-.14 43.45-26.23v-.01h.01l4.37-.53 2.29-.29h.02l3.91-.49z"/>
  <path fill="#fff" d="m310.89 132.21-3.39 14.14-1.14 4.78-18.78 78.05-1.03 4.33-.01.05-13.93-5.41-4.82-1.99-9.68-4-1.2-.5-1.96-3.09-44.01-69.6-1.02-1.61 3.25-2.59 1.3 2.06 19.44 30.74 2.62 4.15 22.91 36.22 24.38 9.74 12.59-52.27 1.12-4.67 9.36-39.01 4 .48z"/>
  <path fill="#fff" d="m299.42 172.37-2.42 3.55-.59-.51-38.24-32.91-1.1-.95-2.39-1.51-3.48-2.18-10.72-6.73-.95-.6 1.28-2.57 2.29-.29h.02l1.52.96 13.53 8.52 1.2.75 38.16 32.84 1.89 1.63zm82.91 17.35v4.84l-10.36-4.85-3.71-1.75-45.95-21.55-15.95-15.28-2.61-2.5 2.57-3.41 1.18 1.13 16.92 16.2 57.91 27.17z"/>
  <path fill="#fff" d="m344.06 313.37-3.86-1.1 28.48-126.18 3.86 1.1-28.48 126.18z"/>
  <path fill="#fff" d="M382.33 296.8v4.68l-48.55 17.01-3.86 1.36h-.01l-5.58 1.95-59.85 55.97-5.53-.65 20.65-19.3 4.15-3.89 18.2-17.01 3.28-3.06 17.17-16.06 17.98-6.3 4.46-1.57 37.49-13.13zm-59.2-49.04-38.62-14.97 1.28-4.23 37.81 14.66 34.37-3.62.37 4.45-35.21 3.71zm-87.12-64.84-3.57-1.97 19.59-44.99 3.57 1.97-19.59 44.99z"/>
  <path fill="#fff" d="m284.62 354.07-.53 4.42-4.49-.67-22.22-3.33-64.6-22.54-58.77 6.52v-4.5l39.77-4.41 5.22-.57 14.19-1.58.38.14 36.9 12.87 4.17 1.45 23.6 8.23 25.51 3.83.87.14zM148.15 242.03l-14.14 32.54v-10.2l28-64.44 1-2.29 3.57 1.97-.76 1.76-15.76 36.27-1.91 4.39z"/>
  <path fill="#fff" d="m179.66 329.69-2.73 3.24-3.15-3.37-39.77-42.46v-6.17l30.93 33.04 3.18 3.38L179 328.99l.66.7zm13.57-85.34-46.38-2.4.18-4.47 45.7 2.37 64.86-22.19 1.16 4.28-65.52 22.41z"/>
  <path fill="#fff" d="m167.71 318.71-3.77-1.44 23.2-76.45 3.77 1.45-23.2 76.44zm214.62-55.3v4.51l-27.24-3.4-1.73-.22.44-4.44 2.27.28 26.26 3.27zm-79.93 74.97-34.93-113.22 3.76-1.47 34.93 113.22-3.76 1.47z"/>
  <path fill="#fff" d="m232.59 344.47-2.97-2.98 27.3-34.41 31.57-19.49 1.91 3.92-30.97 19.12-26.84 33.84zm78.3-212.26-3.39 14.14-1.14 4.78-18.78 78.05-1.03 4.33-.01.05-13.93-5.41-4.82-1.99-9.68-4-1.2-.5-1.96-3.09-44.01-69.6-1.02-1.61 3.25-2.59 1.3 2.06 19.44 30.74 2.62 4.15 22.91 36.22 24.38 9.74 12.59-52.27 1.12-4.67 9.36-39.01 4 .48z"/>
  <path fill="#fff" d="m323.13 247.76-38.62-14.97 1.28-4.23 37.81 14.66 34.37-3.62.37 4.45-35.21 3.71zm-38.51 106.31-.53 4.43-4.5-.68-22.21-3.33-25.57-8.92h-.02l-26.05-9.1-12.96-4.52-58.77 6.52v-4.5l39.77-4.41 5.23-.57 14.17-1.58.4.14 12.16 4.25 24.73 8.62 4.17 1.45h.01l.06.03 23.53 8.2 25.51 3.83.87.14zm21.54-17.16-3.76 1.46-14.07-45.58v-.01l-1.32-4.28-19.23-62.34-.31-1 .47-.19 3.29-1.28 1.38 4.46 19.26 62.45 14.29 46.31z"/>
  <path fill="#fff" d="M290.4 291.5v.01l-2.07 1.28-28.9 17.84-24.78 31.24-2.06 2.6-2.97-2.97.85-1.08 26.45-33.34 30.09-18.58 1.48-.91 1.91 3.91zm71.32 87.97-4.23.55-27.57-60.17h-.01l-.76-1.68 3.54-2.05 1.09 2.37 27.94 60.98z"/>
  <path fill="#ebebeb" d="m209.68 226.9 33.88-11.59-22.14-35.01-18.62 6.25 6.88 40.35zm123.14 5.58 19.35-2.04 8.84-38.51-20.85-9.78-7.34 50.33zm49.51-53.92-43.54-19.39v-27.74l43.55-5.64-.01 52.77zM198.1 163.39l10.84-6.54 9.7 15.4-17.29 5.91-3.25-14.77z"/>
  <path fill="#dbdbdb" d="m268.87 314.1 17.67-10.91 9.46 30.68-12.65 11.83-14.48-2.17V314.1zm-1.11-178.76v-8.23l35.09 4.15-6.81 28.41-28.28-24.33zM140.6 276.06l22.54 24.07 14.56-48.18-26.12-1.35-10.98 25.46zm-.38-96.74v-39.19l31.84 4.58-12.29 42-19.55-7.39zm0-43.99 31.84 4.58 2.53-8.54-34.37-4.73v8.69z"/>
  <path fill="#ebebeb" d="M199.63 378.28v-36.72l23.35 8.19v25.62l-23.35 2.91z"/>
  <path fill="#dbdbdb" d="m138.98 344.42 18.15-2.02v32.19l-18.15-2.5v-27.67z"/>
  <path fill="#ebebeb" d="m367.4 371.32-20.25-44.18 35.18-12.33.01 54.57-14.94 1.94z"/>
  <path fill="#dbdbdb" d="M318.06 232.34v-22.3l-20.19-7.06-4.77 19.87 24.96 9.49z"/>
  <path fill="#fff" d="m272.61 228.16 19.27 62.45-1.48.9-2.06 1.27v.01l-28.91 17.84-24.71 31.27-2.91 3.67h-.02l-26.05-9.1v-4.67l24.73 8.63 26.45-33.35 30.09-18.58-19.24-62.34h.01l.16-1.18.46-3.46v-.03l15.43 6.14 6.65-27.62 3.77 1.47-7.71 32.08-13.93-5.4z"/>
  <path fill="#263238" d="M307.06 174.2c-.75-7.59-6-15.16-15.19-15.16s-14.43 7.57-15.19 15.16c-1.16 11.73 6.75 22.36 15.19 32.05 8.45-9.69 16.36-20.32 15.19-32.05Zm-15.19 8.44a8.32 8.32 0 1 1 8.33-8.32 8.31 8.31 0 0 1-8.33 8.32ZM220.94 304.5c-.76-7.6-6-15.17-15.2-15.17s-14.43 7.57-15.19 15.17c-1.16 11.73 6.75 22.35 15.19 32 8.45-9.65 16.36-20.27 15.2-32Zm-15.2 8.43a8.32 8.32 0 1 1 8.33-8.32 8.31 8.31 0 0 1-8.33 8.32ZM366.37 227c.22.48.46 1 .73 1.43a14.65 14.65 0 0 0 2.52 3.2 26.82 26.82 0 0 0 19.38 7.84 27.27 27.27 0 0 0 6.33-.85 27.55 27.55 0 0 0 12.52-7 23.53 23.53 0 0 0 4.15-5.42 55.8 55.8 0 0 0 6.49-33.4c0-.22-.05-.43-.08-.65a1.64 1.64 0 0 0 0-.22v-.11c0-.28-.08-.56-.12-.84a55.88 55.88 0 0 0-3.28-12.4s0 0 0-.05a50.72 50.72 0 0 0-1.88-4.15 44.69 44.69 0 0 0-2.59-4.45c-3.78-5.69-13.6-8.45-19.87-3.75-4.23 3.16-5.88 7.62-6.87 12.32a73.71 73.71 0 0 0-.62 3.36l-.67 4.08c-.14.8-.29 1.6-.47 2.38v.13c-1.05 4.75-2 8.81-5.41 12.22-3 3-6.3 5.71-8.49 9.35-2.8 4.43-4.3 11.18-1.77 16.98Z"/>
  <path fill="#263238" d="M363.58 216.84c.73-4.43 3.24-8.06 6.45-11.08a50.16 50.16 0 0 0 5.83-5.83 27.6 27.6 0 0 0 3.75-7.05c2.24-5.94 3.09-12.29 5.38-18.21 0-.08.13 0 .11 0-3.19 9-3.43 19.64-10.08 27.12-3.15 3.55-7.14 6.19-9.29 10.55s-2.53 9.28-.08 13.45 7 6.64 11.59 8c.15.05.08.31-.07.27-8.03-1.83-15.04-8.43-13.59-17.22Zm20.6 21.97a34.34 34.34 0 0 0 4.5.63 28.33 28.33 0 0 0 14.32-2.37 20.9 20.9 0 0 0 3.9-2.45 27.44 27.44 0 0 0 7.9-10.47 52.92 52.92 0 0 0 4.12-16.36 63.6 63.6 0 0 0-.54-16.7c-.34-2-.78-4.07-1.32-6.06a59.28 59.28 0 0 0-4.4-11.48c-.06-.11-.24 0-.19.08l.33.7c.31.67.6 1.34.89 2a63.29 63.29 0 0 1 4.27 14.57c0 .28.1.56.14.85v.11a1.66 1.66 0 0 1 0 .22c.06.37.11.75.15 1.13 1.35 10.83.14 22.87-5 32.55l-.49.86a23.61 23.61 0 0 1-11.82 10.59 22.81 22.81 0 0 1-5.9 1.35 67.07 67.07 0 0 1-10.79-.06.15.15 0 1 0-.07.31Z"/>
  <path fill="#263238" d="M370.93 203.53a67.84 67.84 0 0 0 5.49-4.37 17.5 17.5 0 0 0 3.91-6.92c1.8-5.14 3.35-10.41 4.8-15.66h.05c-1.35 4.93-2.59 9.88-4.16 14.75a24.31 24.31 0 0 1-2.71 6.25 19 19 0 0 1-4.37 4.27c-3.63 2.79-7.06 5.73-9.33 9.77-2.44 4.33-3.18 9.53-1.08 14.14h-.06c-4.09-8.23.95-16.99 7.46-22.23Z"/>
  <path fill="#dd6a57" d="M410.16 197.28c5.91 3.49 27.85 25.44 29.21 38.65 1.53 14.77-6.75 36.86-8.52 39.24-2.28 3.07-21.09-3.81-20.68-8.56.52-5.94 8.05-25.72 7.42-29.27-1-5.38-8.75-23.58-13.82-35-2.94-6.57 1.84-7.75 6.39-5.06Z"/>
  <path fill="#dd6a57" d="M430.85 275.17c-.51 1.85-3.81 13.76-5.38 16.72s-6.72 11.18-9.11 10.2-1.08-3.49-1.08-3.49-2.73 3.12-5 1.92-.14-5.06-.14-5.06-3 3-5.26 1.64.61-4.88.61-4.88-2.65 2.88-4 1c-1.64-2.28 3.83-7 5.32-10.43.34-.78 5.75-16.16 5.75-16.16Z"/>
  <path fill="#263238" d="M405.67 292.63c4-3.5 5.17-5.73 6.67-10.75a.08.08 0 0 1 .16 0c-1 5-2.06 8-6.67 10.92-.22.2-.35 0-.16-.17Zm4.57 3.2c3.85-4 5.12-6.4 7.08-11.55 0-.07.15 0 .13 0-1.5 5.21-2.61 8.18-7 11.68-.18.19-.39.04-.21-.13Zm5.6 2.6c3.45-4.14 5-6.72 6.22-12a.1.1 0 0 1 .19 0 17.83 17.83 0 0 1-6.27 12c-.25.32-.35.26-.14 0Z"/>
  <path fill="#dd6a57" d="M411 262.58a65.73 65.73 0 0 0-5.85 7.65c-1.45 2.63-3.24 14.41-.71 14.94 3.25.69 5.63-5.91 6.37-9.3 0 0 7.53 1.6 10.26-2.77S411 262.58 411 262.58Z"/>
  <path fill="#263238" d="M405.38 285.07c3.43-1.52 4.11-6 5.07-9.26a.32.32 0 0 1 .48-.18c3.2.46 7.85.17 10.18-2.33a.08.08 0 0 1 .12.1c-2.13 3-6.68 3.68-10.15 3-.94 3.33-1.82 7.82-5.68 8.75-.03-.04-.04-.07-.02-.08Z"/>
  <path fill="#ffc727" d="M440.15 244.65a135.57 135.57 0 0 1-4 22.69l-26-9.15s6.63-16.82 6.79-19.59c.23-4-5.29-16.82-11-29.12-4.68-10-4.79-15.72 1.3-13.71a24.34 24.34 0 0 1 5.29 2.71c11.18 7.16 24.27 24.88 27.06 35.55a35.65 35.65 0 0 1 .56 10.62Z"/>
  <path fill="#fff" d="M409.45 204.52a.47.47 0 1 1-.47-.46.47.47 0 0 1 .47.46Zm7.63-.46a.47.47 0 1 0 .47.46.47.47 0 0 0-.47-.46Zm-12.15-6a.47.47 0 1 0 .47.47.47.47 0 0 0-.47-.53Zm12.15 18.17a.47.47 0 1 0 .47.47.47.47 0 0 0-.47-.49Zm8.1 0a.47.47 0 1 0 .47.47.47.47 0 0 0-.47-.49Zm-12.15-6a.47.47 0 1 0 .47.46.47.47 0 0 0-.5-.49Zm8.1 0a.47.47 0 1 0 .47.46.47.47 0 0 0-.47-.49Zm-4.05 18.16a.47.47 0 1 0 .47.47.47.47 0 0 0-.47-.5Zm8.1 0a.47.47 0 1 0 .47.47.47.47 0 0 0-.47-.5Zm8.1 0a.47.47 0 1 0 .47.47.47.47 0 0 0-.47-.5Zm-20.25-6a.47.47 0 1 0 .47.47.47.47 0 0 0-.5-.51Zm8.1 0a.47.47 0 1 0 .47.47.47.47 0 0 0-.47-.51Zm8.1 0a.47.47 0 1 0 0 .94.47.47 0 1 0 0-.94Zm-12.15 18.16a.47.47 0 1 0 .47.47.47.47 0 0 0-.47-.51Zm8.1 0a.47.47 0 1 0 .47.47.47.47 0 0 0-.47-.51Zm8.1 0a.47.47 0 1 0 .47.47.47.47 0 0 0-.47-.51Zm-12.15-6a.47.47 0 1 0 .47.47.47.47 0 0 0-.47-.52Zm8.1 0a.47.47 0 1 0 0 .94.47.47 0 1 0 0-.94Zm8.11 0a.47.47 0 1 0 .46.47.47.47 0 0 0-.46-.52Zm-20.26 18.16a.47.47 0 1 0 .47.47.47.47 0 0 0-.47-.52Zm8.1 0a.47.47 0 1 0 .47.47.47.47 0 0 0-.47-.52Zm8.1 0a.47.47 0 1 0 .47.47.47.47 0 0 0-.47-.52Zm-12.15-6a.47.47 0 1 0 .47.47.47.47 0 0 0-.47-.53Zm8.1 0a.47.47 0 1 0 0 .94.47.47 0 1 0 0-.94Zm8.11 0a.47.47 0 1 0 .46.47.47.47 0 0 0-.46-.53Zm-4.06 18.17a.47.47 0 1 0 .47.47.47.47 0 0 0-.47-.53Zm-12.15-6a.47.47 0 1 0 .47.47.47.47 0 0 0-.47-.55Zm8.1 0a.47.47 0 0 0 0 .94.47.47 0 0 0 0-.94Zm8.11 0a.47.47 0 1 0 .46.47.47.47 0 0 0-.46-.55Z"/>
  <path fill="#263238" d="M440.15 244.65a135.57 135.57 0 0 1-4 22.69l-26-9.15s6.63-16.82 6.79-19.59c.23-4-5.29-16.82-11-29.12-4.68-10-4.79-15.72 1.3-13.71Z"/>
  <path fill="#dd6a57" d="M404.48 196.78c-.14.83-3.71 6.37-7.45 6.42-1.22 0-1.61-6.63-1.61-6.63l-.14-.49-2-6.78 7.76-5.68 1.13-.76.9 4.25a3.4 3.4 0 0 1 .07.34 3 3 0 0 1 .09.38l.23 1.07c.07.36.11.54.15.83s.1.57.16.86a43.92 43.92 0 0 1 .71 6.19Z"/>
  <path fill="#263238" d="M403.11 187.11a14.13 14.13 0 0 1-7.83 9l-2-6.78 7.76-5.68 1.13-.76s.45 1.86.94 4.22Z"/>
  <path fill="#dd6a57" d="M384.37 177.46c-2.88 12 4 15.25 6.62 15.75 2.38.46 10.47 2.17 14.58-9.52s-.59-16.84-5.92-18.41-12.4.12-15.28 12.18Z"/>
  <path fill="#263238" d="M385.38 175.44a8.12 8.12 0 0 0 .85-.07 1.33 1.33 0 0 0 .85-.24.43.43 0 0 0 .07-.53 1.09 1.09 0 0 0-1-.39 1.59 1.59 0 0 0-1.07.44.47.47 0 0 0 .3.79Zm7.89 1.17c-.28-.07-.53-.18-.81-.27a1.38 1.38 0 0 1-.78-.43.44.44 0 0 1 .06-.53 1.09 1.09 0 0 1 1.1-.14 1.61 1.61 0 0 1 .94.67.47.47 0 0 1-.51.7Zm-2.27 2.94s.06 0 0 .09c-.15.83-.18 1.8.54 2.19 0 0 0 .06 0 0-.89-.22-.84-1.51-.54-2.28Z"/>
  <path fill="#263238" d="M391.85 178.79c1.36.1 1.07 2.8-.19 2.72s-.95-2.8.19-2.72Z"/>
  <path fill="#263238" d="M392.37 179c.22.18.42.47.7.53s.61-.19.86-.44c-.05.52-.31 1-.87 1s-.83-.48-.9-1c.02-.04.12-.17.21-.09Zm-5.75-.29s-.07 0-.07.07c-.06.84-.27 1.79-1.05 2 0 0 0 .05 0 0 .94.01 1.2-1.26 1.12-2.07Z"/>
  <path fill="#263238" d="M386 177.76c-1.34-.24-1.72 2.46-.48 2.68s1.56-2.44.48-2.68Z"/>
  <path fill="#263238" d="M385.37 177.86c-.23.11-.48.34-.74.32s-.47-.34-.62-.65h-.05c-.08.52 0 1.08.49 1.25s.84-.25 1-.74c.07-.04.01-.23-.08-.18Zm5.27 8.14c-.17.22-.32.52-.62.6a2.1 2.1 0 0 1-.93-.08 1.13 1.13 0 0 0 1.13.29.89.89 0 0 0 .54-.84c-.02-.03-.09-.03-.12.03Zm-3.39-3.31s-.32 1.23-.39 1.82c0 .06.13.1.33.14a2.83 2.83 0 0 0 2.85-.72.06.06 0 0 0-.08-.09 4.28 4.28 0 0 1-2.65.42c0-.16.62-2.08.53-2.1a4.9 4.9 0 0 0-1.38.14c.6-2.58 1.61-5.05 2.16-7.63a.08.08 0 0 0-.15-.06 42.41 42.41 0 0 0-2.67 8.12c-.06.33 1.2.03 1.45-.04Z"/>
  <path fill="#263238" d="M387.27 184.31a3.49 3.49 0 0 0 1.14 1.34 1.59 1.59 0 0 0 .92.25c.71 0 .86-.65.84-1.21a3.91 3.91 0 0 0-.13-.87 4.5 4.5 0 0 1-2.77.49Z"/>
  <path fill="#ff98b9" d="M388.41 185.65a1.59 1.59 0 0 0 .92.25c.71 0 .86-.65.84-1.21a1.63 1.63 0 0 0-1.76.96Z"/>
  <path fill="#263238" d="M405.36 183.29c-1.33-.27-4.3-4.46-3.49-10.95 0 0-.33 5.88 0 6.8s-1.66-2.36-1.08-7.6a21.31 21.31 0 0 1-5.75 2c-2.56.34-4.07.11-4.22-.1s3.64-.83 4.78-1.82c0 0-7 2.12-10 1.92-.35 0 .25-7.27 5.35-9.66s12.05 1.95 13.77 4.15c0 0 2.29.66 4.34 4.48s-2.27 11.07-3.7 10.78Z"/>
  <path fill="#37474f" d="m449.09 401.85-19.44 3.88-12.72 2.54s-13.08-53.41-15.3-76.47c-2.09-21.87-5.19-56.41-1.06-87.87h24.62c2.09 3.65 12.3 16.66 6.92 37.35-.76 2.93 1 29.54 3.71 47.6 2.55 16.78 13.27 72.97 13.27 72.97Z"/>
  <path fill="#263238" d="m429.65 405.73-12.72 2.54s-13.08-53.41-15.3-76.47c-2.09-21.87-5.19-56.41-1.06-87.87h8.7c4.11 29.81 15.9 129.4 20.38 161.8Z"/>
  <path fill="#ebebeb" d="M449.72 406.46q.48 3 .9 5.93l.49 3.5c1 7.28 1.56 12.9 1 13.4-1.71 1.54-52 10.37-53.89 10.1s-1.19-5.61.49-7.51c1-1.15 8-6 13.29-9.69 3.41-2.34 6.13-4.18 6.13-4.18l-1.13-5.9-5.42-26.77 33.67-5.8s2.44 13.83 4.47 26.92Z"/>
  <path fill="#263238" d="M413.69 416.48c2.8-2 6.75-3.26 10.1-2.17.13 0 .06.23-.05.24a47 47 0 0 0-9.85 2.31.22.22 0 0 1-.2-.38Zm-.47-2.76c2.79-2 6.75-3.25 10.09-2.16.13 0 .07.22 0 .24a47.72 47.72 0 0 0-9.86 2.3.21.21 0 0 1-.23-.38Zm-.47-2.72c2.79-2 6.74-3.26 10.09-2.17.13 0 .07.23 0 .24a47.17 47.17 0 0 0-9.85 2.31.21.21 0 0 1-.24-.38Zm-.48-2.78c2.79-2 6.75-3.26 10.09-2.17.13 0 .07.22 0 .24a47.11 47.11 0 0 0-9.86 2.31.22.22 0 0 1-.23-.38Zm-.47-2.76c2.79-2 6.74-3.26 10.09-2.17.13 0 .07.23-.05.25a47.78 47.78 0 0 0-9.85 2.3.21.21 0 0 1-.19-.38Z"/>
  <path fill="#ffc727" d="M452.58 429.51c-1.2 1.7-26.56 6.18-42.73 8.66-7.42 1.13-12.89 1.85-13.21 1.68-1-.56-.94-5.86 2.25-9.79 1.77-2.18 10.85-8.36 15-11.17l2.14-1.41-3.61-17-.78-3.68-.81-3.83c1.05 0 36.71-6.34 36.71-6.34a665.21 665.21 0 0 0 1.24 7.66c1.88 11.81 5.06 33.43 3.8 35.22Z"/>
  <path fill="#263238" d="m395.67 439.28 57.47-9.9.56 3.2-57.48 9.91z"/>
  <path d="m448.81 394.25-36.36 6.19-.78-3.68 36.54-6.23.6 3.72Z" opacity=".1"/>
  <path fill="#263238" d="m413.92 418.89-4.07 19.28c-7.42 1.13-12.89 1.85-13.21 1.68-1-.56-.94-5.86 2.25-9.79 1.77-2.18 10.85-8.36 15.03-11.17Z"/>
  <path fill="#37474f" d="M413.26 280.16s-4.46 32.84-6.08 49.37c-.4 4.12-.88 50.6-.88 60.81v23.49h-33.4V409c0-2.82-.1-6.71-.17-11.25 0-2.32-.07-4.81-.1-7.41-.25-20.22 6.86-129.29 13.75-146.4h35.87s5.83 20.11-8.99 36.22Z"/>
  <path fill="#263238" d="m424.84 272.54-8 4.51c-1.31.74-2.65 1.43-4 2.14s-2.76 1.34-4.08 2.11a.08.08 0 0 0 .06.14 28 28 0 0 0 4.47-1.52 43.85 43.85 0 0 0 4.1-1.94 35.76 35.76 0 0 0 7.5-5.31c.11-.07.03-.18-.05-.13Zm-32.44-27.79a271.83 271.83 0 0 0-5.87 31.64c-1.33 10.75-2.21 21.58-3.18 32.37-2 21.72-3.67 43.48-4.16 65.29-.28 12.21-.05 24.44.72 36.62 0 .1.16.1.16 0-.65-21.67 0-43.39 1.43-65 .69-10.89 1.57-21.76 2.53-32.63s1.86-21.52 3-32.26a294.2 294.2 0 0 1 5.76-35.92.18.18 0 1 0-.39-.11Z"/>
  <path fill="#ebebeb" d="M406.24 417.64c0 2-.07 4.05-.13 6 0 1.21-.07 2.39-.11 3.53-.25 7.35-.64 13-1.28 13.37-1.94 1.24-53 1.39-54.81.8s-.22-5.73 1.75-7.32c1.21-1 8.9-4.59 14.74-7.29 3.76-1.73 6.75-3.08 6.75-3.08l-.16-6-.8-27.3h34.17s.11 14.05-.12 27.29Z"/>
  <path fill="#263238" d="M369 421.39c3.09-1.49 7.21-2.06 10.32-.42.12.06 0 .23-.09.23a47.49 47.49 0 0 0-10.1.6.22.22 0 0 1-.13-.41Zm0-2.79c3.09-1.49 7.21-2.07 10.32-.42.12.06 0 .23-.09.23a46.84 46.84 0 0 0-10.1.59.21.21 0 0 1-.13-.4Zm0-2.8c3.09-1.49 7.21-2.06 10.32-.42.12.06 0 .24-.09.23a47.49 47.49 0 0 0-10.1.6.22.22 0 0 1-.13-.41Zm0-2.8c3.09-1.49 7.21-2.07 10.32-.42.12.06 0 .23-.09.23a47.49 47.49 0 0 0-10.1.59.21.21 0 0 1-.13-.4Zm0-2.79c3.09-1.48 7.21-2.06 10.32-.42.12.07 0 .24-.09.23a47.49 47.49 0 0 0-10.1.6.22.22 0 0 1-.13-.41Z"/>
  <path fill="#ffc727" d="M407.49 397.7v7.53c-.18 11.94-.71 34-2.27 35.61-2.14 2.15-56 1.4-56.88.68s.07-5.92 3.87-9.26c2.78-2.42 19.06-9.48 19.06-9.48l-.66-17.55-.15-3.77-.14-3.76c.96.17 37.17 0 37.17 0Z"/>
  <path fill="#263238" d="M347.42 440.78h58.32v3.26h-58.32z"/>
  <path d="M407.46 401.46v3.77h-36.93l-.15-3.77Z" opacity=".1"/>
  <path fill="#ffc727" d="M384.31 231 381 252.51l51.32-.34s-10.12-41-20.87-53.88c-3.94-4.72-11.94-3.63-16.06.85-4.31 4.69-12.61 15.24-13.66 21.11-.9 5.17 2.58 10.75 2.58 10.75Z"/>
  <path fill="#fff" d="M393.25 204.52a.47.47 0 1 1-.47-.46.47.47 0 0 1 .47.46Zm7.63-.46a.47.47 0 1 0 .47.46.47.47 0 0 0-.47-.46Zm8.1 0a.47.47 0 1 0 .47.46.47.47 0 0 0-.45-.46Zm-12.15-6a.47.47 0 1 0 .47.47.47.47 0 0 0-.47-.53Zm8.1 0a.47.47 0 1 0 .47.47.47.47 0 0 0-.47-.53Zm-20.26 18.17a.47.47 0 1 0 .47.47.47.47 0 0 0-.47-.49Zm8.11 0a.47.47 0 1 0 .47.47.47.47 0 0 0-.47-.49Zm8.1 0a.47.47 0 1 0 .47.47.47.47 0 0 0-.47-.49Zm8.1 0a.47.47 0 1 0 .47.47.47.47 0 0 0-.45-.49Zm8.1 0a.47.47 0 1 0 .47.47.47.47 0 0 0-.47-.49Zm-28.35-6a.47.47 0 1 0 .46.46.47.47 0 0 0-.46-.49Zm8.1 0a.47.47 0 1 0 .47.46.47.47 0 0 0-.47-.49Zm8.1 0a.47.47 0 1 0 .47.46.47.47 0 0 0-.47-.49Zm8.1 0a.47.47 0 1 0 .47.46.47.47 0 0 0-.5-.49Zm-28.36 18.16a.47.47 0 1 0 .47.47.47.47 0 0 0-.47-.5Zm8.11 0a.47.47 0 1 0 .47.47.47.47 0 0 0-.47-.5Zm8.1 0a.47.47 0 1 0 .47.47.47.47 0 0 0-.47-.5Zm8.1 0a.47.47 0 1 0 .47.47.47.47 0 0 0-.45-.5Zm8.1 0a.47.47 0 1 0 .47.47.47.47 0 0 0-.47-.5Zm8.1 0a.47.47 0 1 0 .47.47.47.47 0 0 0-.47-.5Zm-36.45-6a.47.47 0 1 0 .46.47.47.47 0 0 0-.46-.51Zm8.1 0a.47.47 0 1 0 .47.47.47.47 0 0 0-.47-.51Zm8.1 0a.47.47 0 1 0 .47.47.47.47 0 0 0-.47-.51Zm8.1 0a.47.47 0 1 0 .47.47.47.47 0 0 0-.5-.51Zm8.1 0a.47.47 0 1 0 .47.47.47.47 0 0 0-.47-.51Zm-36.46 18.16a.47.47 0 1 0 .47.47.47.47 0 0 0-.47-.51Zm8.11 0a.47.47 0 1 0 .47.47.47.47 0 0 0-.47-.51Zm8.1 0a.47.47 0 1 0 .47.47.47.47 0 0 0-.47-.51Zm8.1 0a.47.47 0 1 0 .47.47.47.47 0 0 0-.45-.51Zm8.1 0a.47.47 0 1 0 .47.47.47.47 0 0 0-.47-.51Zm8.1 0a.47.47 0 1 0 .47.47.47.47 0 0 0-.47-.51Zm-36.45-6a.47.47 0 1 0 .46.47.47.47 0 0 0-.46-.52Zm8.1 0a.47.47 0 1 0 .47.47.47.47 0 0 0-.47-.52Zm8.1 0a.47.47 0 1 0 .47.47.47.47 0 0 0-.47-.52Zm8.1 0a.47.47 0 1 0 .47.47.47.47 0 0 0-.5-.52Zm8.1 0a.47.47 0 1 0 .47.47.47.47 0 0 0-.47-.52Zm-32.4 12.15a.47.47 0 1 0 .46.47.47.47 0 0 0-.46-.52Zm8.1 0a.47.47 0 1 0 .47.47.47.47 0 0 0-.47-.52Zm8.1 0a.47.47 0 1 0 .47.47.47.47 0 0 0-.47-.52Zm8.1 0a.47.47 0 1 0 .47.47.47.47 0 0 0-.5-.52Zm8.1 0a.47.47 0 1 0 .47.47.47.47 0 0 0-.47-.52Zm8.1 0a.47.47 0 1 0 0 .94.47.47 0 1 0 0-.94Z"/>
  <path fill="#263238" d="M430.3 249.22c-1.49-.15-3-.13-4.5-.17l-4.6-.09c-3.07-.06-6.13-.1-9.2-.13-6.17-.06-12.35-.21-18.52 0-1.74.06-3.48.11-5.21.18s-3.48.22-5.22.26a.07.07 0 1 0 0 .14c1.57 0 3.15.07 4.73.09l4.48.05h9.2c6.13 0 12.25-.13 18.38-.16h5.22c1.73 0 3.49.07 5.21-.05.1.01.12-.11.03-.12Z"/>
  <path fill="#dd6a57" d="M402.22 205.8c-3.47 5.65-17 19.52-27.07 22.21-8.83 2.34-30.2-6.6-36.9-10.28-2.51-1.37 4.8-22.56 7.68-21.53 3.87 1.38 24.43 13.2 26.61 12.49s18.58-8.07 22.42-9.87c8.74-4.1 12.47-1.51 7.26 6.98Z"/>
  <path fill="#dd6a57" d="M346.7 196.67s-11.15-5.93-13.47-7.27c-4.66-2.69-23.91-7.69-26.3-7.49s-4.76 4.85 11.1 10.64c0 0-3.41 7-1.33 10.17 1.34 2.08 6.67 9.7 9.15 10.66 2.81 1.09 12.4 4.35 12.4 4.35Z"/>
  <path fill="#dd6a57" d="M330.76 194.08c-.2 0-9.94-3-13.47-2.7s-6.12 5.21-6 6.54 2.05 9.58 5.58 9.32.93-6.51 1-7.25.15-1.69.82-1.67 12.75 4.7 12.75 4.7Z"/>
  <path fill="#dd6a57" d="M329.79 197.29c-.2 0-10-3-13.48-2.7s-6.12 5.21-6 6.55 2 9.57 5.58 9.31.93-6.51 1-7.25.14-1.69.81-1.67 12.75 4.7 12.75 4.7Z"/>
  <path fill="#dd6a57" d="M329.82 199.19c-.2.05-10.28-1.53-13.72-.69s-5.3 6-5 7.35 3.42 9.17 6.88 8.4 0-6.57-.06-7.32-.11-1.7.56-1.77 13.3 2.78 13.3 2.78Z"/>
  <path fill="#dd6a57" d="M331.74 202.39c-3.32-.64-7.08-1.64-10.58-1s-5.71 5.66-5.51 7 2.76 9.4 6.27 8.87.43-6.56.46-7.31 0-1.69.68-1.72 13.07 3.72 13.07 3.72Z"/>
  <path fill="#263238" d="M328.19 191.35a15.2 15.2 0 0 0-5.39-.71 24.28 24.28 0 0 0-3.41.31 15.83 15.83 0 0 0-4.8 1.47c-.1.06-.12.18 0 .13a21.77 21.77 0 0 1 4.79-1c1.15-.12 2.3-.21 3.46-.27a38.59 38.59 0 0 1 5.37.16s.01-.08-.02-.09Zm-.14 3.19a46.91 46.91 0 0 0-9.27 0 10.75 10.75 0 0 0-4.43 1.25c-.63.35-2.7 1.73-3.14 2.64 0 .11.06.18.13.09a15.54 15.54 0 0 1 3.64-2.3 16.53 16.53 0 0 1 4.65-1.11 68.63 68.63 0 0 1 8.36-.4c.01-.03.38-.15.06-.17Zm-.59 3.24a61.51 61.51 0 0 0-9.36.86 8.64 8.64 0 0 0-4.55 2 9.45 9.45 0 0 0-2.51 4.2c0 .09.09.16.14.07a11.54 11.54 0 0 1 2.82-3.72 10.06 10.06 0 0 1 4.74-2 58.71 58.71 0 0 1 8.76-1.07c.5-.12.43-.34-.04-.34Zm-.91 3.43c-1.19.23-4.34.86-5.5 1.16a7.39 7.39 0 0 0-3 1.19 9.33 9.33 0 0 0-1.77 2.32 7.06 7.06 0 0 0-1.1 2.78c-.27 2.25 1.64 3.91 2.7 5.68.05.08.18 0 .13-.09-.55-.92-1-1.9-1.47-2.87a4.54 4.54 0 0 1-.53-3 8.22 8.22 0 0 1 1.24-2.54 5.68 5.68 0 0 1 1.92-2.12 15.24 15.24 0 0 1 3-.92c1-.26 2.93-.76 3.95-1 2.11-.51 2.71-1.03.43-.59Z"/>
  <path fill="#263238" d="M332.38 210.8a21.61 21.61 0 0 1-5.55-.65 13.89 13.89 0 0 1-2.27-.89 6.3 6.3 0 0 1-2-1.38.08.08 0 0 0-.11.11 11.36 11.36 0 0 0 1.61 1.57 11.74 11.74 0 0 1-3.12 1.33c-.1 0-.06.15 0 .15a3.28 3.28 0 0 0 1 0 4.1 4.1 0 0 0 1-.36 6.78 6.78 0 0 0 1.36-.89 7.57 7.57 0 0 0 2.27 1 16.26 16.26 0 0 0 5.86.22.06.06 0 0 0-.05-.21Z"/>
  <path fill="#ffc727" d="m344 193.57-5.84 29.6s26.4 7.44 35.48 5.77 22.13-12.95 28.17-22 3.89-13.9-8.19-8.63-20 8.1-21.24 8.31S344 193.57 344 193.57Z"/>
  <path fill="#fff" d="M344.64 204.52a.47.47 0 1 1-.47-.46.47.47 0 0 1 .47.46Zm7.63-.46a.47.47 0 1 0 .47.46.47.47 0 0 0-.47-.46Zm8.1 0a.47.47 0 1 0 .47.46.47.47 0 0 0-.47-.46Zm24.3 0a.47.47 0 1 0 .47.46.47.47 0 0 0-.47-.46Zm8.11 0a.47.47 0 1 0 .47.46.47.47 0 0 0-.47-.46Zm8.1 0a.47.47 0 1 0 .47.46.47.47 0 0 0-.47-.46Zm-52.66-6a.47.47 0 1 0 .47.47.47.47 0 0 0-.47-.53Zm48.61 0a.47.47 0 1 0 .47.47.47.47 0 0 0-.47-.53Zm8.1 0a.47.47 0 1 0 .47.47.47.47 0 0 0-.47-.53Zm-60.76 18.17a.47.47 0 1 0 .47.47.47.47 0 0 0-.47-.49Zm8.1 0a.47.47 0 1 0 .47.47.47.47 0 0 0-.47-.49Zm8.1 0a.47.47 0 1 0 .47.47.47.47 0 0 0-.47-.49Zm8.1 0a.47.47 0 1 0 .47.47.47.47 0 0 0-.47-.49Zm8.1 0a.47.47 0 1 0 .47.47.47.47 0 0 0-.47-.49Zm8.1 0a.47.47 0 1 0 .47.47.47.47 0 0 0-.47-.49Zm8.11 0a.47.47 0 1 0 .47.47.47.47 0 0 0-.47-.49Zm-44.56-6a.47.47 0 1 0 .47.46.47.47 0 0 0-.47-.49Zm8.1 0a.47.47 0 1 0 .47.46.47.47 0 0 0-.47-.49Zm8.1 0a.47.47 0 1 0 .47.46.47.47 0 0 0-.47-.49Zm8.1 0a.47.47 0 1 0 .47.46.47.47 0 0 0-.47-.49Zm8.1 0a.47.47 0 1 0 .47.46.47.47 0 0 0-.47-.49Zm8.11 0a.47.47 0 1 0 .46.46.47.47 0 0 0-.46-.49Zm8.1 0a.47.47 0 1 0 .47.46.47.47 0 0 0-.47-.49Zm-28.36 18.16a.47.47 0 1 0 .47.47.47.47 0 0 0-.47-.5Zm-28.35-6a.47.47 0 1 0 .46.47.47.47 0 0 0-.46-.51Zm8.1 0a.47.47 0 1 0 .47.47.47.47 0 0 0-.47-.51Zm8.1 0a.47.47 0 1 0 .47.47.47.47 0 0 0-.47-.51Zm8.1 0a.47.47 0 1 0 .47.47.47.47 0 0 0-.47-.51Zm8.1 0a.47.47 0 1 0 .47.47.47.47 0 0 0-.47-.51Zm8.1 0a.47.47 0 1 0 .47.47.47.47 0 0 0-.47-.51Z"/>
  <path fill="#263238" d="M348.78 199a131.93 131.93 0 0 1-3.86 18.31A60.25 60.25 0 0 1 343 223h-.06c.35-2.06.89-4.12 1.36-6.16s.94-3.94 1.41-5.9c1-4 2-8 2.93-12 .01-.13.16-.09.14.06Zm47 18.16c-2.37 1.29-4.75 2.67-7 4.12s-4.4 3.18-6.57 4.86a.08.08 0 0 0 .08.13c2.29-1.46 4.64-2.8 6.89-4.35l.78-.54c.58-.16 1.16-.36 1.74-.55a13 13 0 0 0 1.31-.49 11.16 11.16 0 0 1 1.34-.56.08.08 0 0 0-.05-.15c-.46.14-.94.22-1.41.32a8.93 8.93 0 0 0-1.34.39l-.23.08 4.54-3.18-.04-.13Z"/>
  <path fill="#dd6a57" d="M401.05 181.48s3.24-3.43 4.83-2.22-1.24 6.46-3.39 6.92a2.1 2.1 0 0 1-2.61-1.53Z"/>
  <path fill="#263238" d="M405 180.75v.05a5.29 5.29 0 0 0-3.2 2.88 1.16 1.16 0 0 1 1.76-.06s0 .09-.05.07a1.29 1.29 0 0 0-1.47.24 6.41 6.41 0 0 0-.84 1c-.09.12-.31 0-.24-.12.29-1.81 2.09-4.17 4.04-4.06Z"/>
  <path fill="#ad6359" d="M147.48 435.14c-1.8.61-53.46.79-55.44-.44-.75-.47-1.21-8-1.52-17.1l-.17-6.06L86.17 384l34.53-.22 3.3 27.55-.13 6.06s19.81 8.78 21.83 10.37 3.58 6.77 1.78 7.38Z"/>
  <path fill="#fff" d="M147.48 435.14c-1.8.61-53.46.79-55.44-.44-.91-.58-1.41-11.56-1.69-23.16l33.61-.21-.13 6.06s19.81 8.78 21.83 10.37 3.62 6.77 1.82 7.38Z"/>
  <path fill="#ffc727" d="M147.48 435.14c-1.8.61-53.46.79-55.44-.44-.75-.47-1.21-8-1.52-17.1l33.31-.21s19.81 8.78 21.83 10.37 3.62 6.77 1.82 7.38Z"/>
  <path fill="#263238" d="M146.73 433.08c-8.66-.18-43.61-.1-52.18.38-.07 0-.07.05 0 .05 8.58.37 43.52 0 52.18-.29.18-.01.18-.14 0-.14Zm-4.4-7.17a7 7 0 0 0-5.18 2.13 6.74 6.74 0 0 0-1.91 4.63c0 .05.09.06.1 0a8 8 0 0 1 7-6.65c.06-.02.06-.11-.01-.11Zm-15.14-7.67c-3.47 0-7.48 1.2-9.62 4-.09.11.07.23.17.18a47.65 47.65 0 0 1 9.51-3.79.22.22 0 0 0-.06-.39Zm2.68 1.03c-3.47 0-7.48 1.2-9.63 4.05-.08.11.08.22.18.17a47.65 47.65 0 0 1 9.51-3.79.22.22 0 0 0-.06-.43Zm2.68 1.04c-3.47 0-7.48 1.2-9.63 4-.08.11.08.23.18.17a48.25 48.25 0 0 1 9.51-3.79.21.21 0 0 0-.06-.38Zm2.68 1.03c-3.47 0-7.48 1.2-9.63 4-.08.11.08.23.18.18a47.65 47.65 0 0 1 9.51-3.79.22.22 0 0 0-.06-.39Zm-38.5 3.88c-3.89 0-3.86 6.07 0 6s3.89-6.02 0-6Z"/>
  <path fill="#263238" d="M130.9 409c-1.76-1.45-4 0-5 1.49a18.3 18.3 0 0 0-3.12 8.88.09.09 0 0 0 .11.09.43.43 0 0 0 .63.28c2.46-1.71 5.3-3.24 7.16-5.66 1.05-1.43 1.89-3.73.22-5.08Zm-4.22 7.38c-1.19.87-2.42 1.68-3.58 2.6a54.78 54.78 0 0 1 1.94-5.14 17.7 17.7 0 0 1 1.26-2.35c.74-1.14 4.14-4.05 4.49-.28.21 2.05-2.7 4.11-4.11 5.15Z"/>
  <path fill="#263238" d="M114.14 420.66c3 .45 6.13-.42 9.09-.89.31 0 .37-.4.26-.63a.1.1 0 0 0 0-.15 18.32 18.32 0 0 0-8.4-4.23c-1.83-.34-4.41.16-4.67 2.42s1.95 3.22 3.72 3.48Zm-2.1-2c-2.36-3 2.1-3.22 3.44-2.92a20.18 20.18 0 0 1 2.53.82 53.56 53.56 0 0 1 5 2.36c-1.47.15-2.92.41-4.38.61-1.78.27-5.29.8-6.63-.83Z"/>
  <path fill="#455a64" d="m127.09 408.94-41.73.75s-5.68-36.92-9.42-59.9a460.66 460.66 0 0 0-3-17.3c-1.08-4.79-22.23-80.83-22.23-80.83h40.72s-.66 12.71-.27 14.05c5.41 18.4 16.47 51 19.92 62.41 5.3 17.45 16.01 80.82 16.01 80.82Z"/>
  <path fill="#263238" d="M123.3 402.54c-6 0-27.23-.28-35.21.47-.06 0-.06.1 0 .11 2.75.39 29.22-.22 35.21-.41a.09.09 0 0 0 0-.17ZM86 371.08q-2.16-14.32-4.82-28.57c-.88-4.67-1.83-9.33-3-13.93s-2.77-9.21-4.34-13.76A775.05 775.05 0 0 1 57.08 260c-.3-1.17-.61-2.34-.95-3.51 0-.1-.17 0-.15.05 1 4.66 2.18 9.27 3.36 13.87s2.44 9.2 3.76 13.77q4 13.78 8.63 27.35c1.54 4.51 3.15 9 4.52 13.57s2.44 9.19 3.39 13.85c1.92 9.45 3.56 19 5.09 28.5s2.81 19.17 4.09 28.79l.48 3.65c0 .35.58.34.54 0A600.26 600.26 0 0 0 86 371.08Z"/>
  <path fill="#263238" d="m81.07 251.62-5.13 98.17a460.66 460.66 0 0 0-3-17.3c-1.08-4.79-22.23-80.83-22.23-80.83Z"/>
  <path fill="#ad6359" d="M94.06 443.92c-1.82.56-54.8-.87-56.75-2.16a.78.78 0 0 1-.2-.31c-.58-1.59.54-8.32.48-16.58l.29-6.43 1.28-26.59 34.55.71-2.29 26.76-.53 6.22s19.57 9.31 21.54 10.94 3.45 6.88 1.63 7.44Z"/>
  <path fill="#fff" d="M94.06 443.92c-1.82.56-54.8-.87-56.75-2.16a.78.78 0 0 1-.2-.31c-.58-1.59.54-8.32.48-16.58l.29-6.43 33.54.88-.53 6.22s19.57 9.31 21.54 10.94 3.45 6.88 1.63 7.44Z"/>
  <path fill="#ffc727" d="M94.06 443.92c-1.82.56-54.8-.87-56.75-2.16-.73-.49-1-7.54.28-16.89l33.3.67s19.57 9.3 21.55 10.95 3.44 6.86 1.62 7.43Z"/>
  <path fill="#263238" d="M93.37 441.83c-8.65-.41-43.59-1.25-52.18-1-.07 0-.07.05 0 .05 8.57.6 43.51 1.16 52.17 1.1.19.02.19-.14.01-.15Zm-4.21-7.28a7 7 0 0 0-5.23 2 6.74 6.74 0 0 0-2 4.57c0 .06.09.06.1 0a8 8 0 0 1 7.16-6.47.06.06 0 0 0-.03-.1Zm-14.93-8.07c-3.47-.13-7.51 1-9.73 3.79-.09.11.07.23.17.18a47.55 47.55 0 0 1 9.61-3.54.22.22 0 0 0-.05-.43Zm2.65 1.11c-3.47-.13-7.51 1-9.73 3.78-.09.11.07.23.17.18a48.16 48.16 0 0 1 9.61-3.55.21.21 0 0 0-.05-.41Zm2.65 1.1c-3.47-.13-7.51 1-9.73 3.79-.09.11.07.23.17.18a47.55 47.55 0 0 1 9.61-3.54.22.22 0 0 0-.05-.43Zm2.65 1.11c-3.46-.13-7.51 1-9.73 3.78-.08.11.07.23.17.18a48.16 48.16 0 0 1 9.61-3.54.21.21 0 0 0-.05-.42Zm-38.59 2.86c-3.89-.08-4 6-.12 6s4.01-5.93.12-6Z"/>
  <path fill="#263238" d="M78.18 417.32c-1.72-1.49-4-.12-5.07 1.36a18.28 18.28 0 0 0-3.36 8.79.09.09 0 0 0 .11.1.43.43 0 0 0 .62.3c2.5-1.65 5.39-3.11 7.31-5.48 1.13-1.39 2.02-3.65.39-5.07Zm-4.42 7.27c-1.21.84-2.46 1.62-3.64 2.5.66-1.71 1.24-3.44 2.07-5.09a21.16 21.16 0 0 1 1.32-2.31c.78-1.12 4.25-3.94 4.51-.16.14 2.08-2.81 4.06-4.26 5.06Z"/>
  <path fill="#263238" d="M61.11 428.56c3 .53 6.14-.26 9.12-.65a.42.42 0 0 0 .27-.62.09.09 0 0 0 0-.15 18.29 18.29 0 0 0-8.29-4.46c-1.82-.39-4.41 0-4.73 2.3s1.88 3.27 3.63 3.58Zm-2-2c-2.28-3 2.19-3.17 3.51-2.82a19.62 19.62 0 0 1 2.51.88 54.94 54.94 0 0 1 4.9 2.49c-1.48.11-2.93.34-4.39.49-1.79.17-5.32.61-6.57-1.06Z"/>
  <path fill="#455a64" d="M75.27 416.68H34.42S43.29 290.09 41.86 283c-2.35-11.62-.78-25 4.71-31.38H82.9s.72 10.19-3 16.28c0 0-3.41 2.16-5.06 3.11Z"/>
  <path fill="#263238" d="M71.44 410.08c-5.65-.15-4-.19-9.68-.27-2.77 0-21-.3-23.55.12a.06.06 0 0 0 0 .11c2.58.44 20.78.38 23.54.37 5.66 0 4-.08 9.69-.17a.08.08 0 1 0 0-.16Zm10.69-143.82a70.32 70.32 0 0 0-10.21 6.05.12.12 0 1 0 .13.2c3.45-1.91 7-3.76 10.33-5.86.26-.16.03-.52-.25-.39Z"/>
  <path fill="#263238" d="M77.51 265.74a15.78 15.78 0 0 0-.49 2.14 4.41 4.41 0 0 0-.11 1.73c0 .11.17.11.23 0a6 6 0 0 0 .56-1.73c.17-.67.36-1.33.52-2a.36.36 0 0 0-.71-.14Z"/>
  <path fill="#263238" d="m77.18 262.24.31-1.82c.11-.6.27-1.25.33-1.89 0-.09.17-.07.16 0-.1.6-.11 1.23-.16 1.84l-.17 1.85a33.49 33.49 0 0 1-.54 3.43 4 4 0 0 0 1.67-.7 3.18 3.18 0 0 0 .9-1.74c.18-.7.33-1.4.52-2.09a13.32 13.32 0 0 0 .53-2.33c0-.1.17-.07.15 0a24.9 24.9 0 0 1-.92 4.9 2.71 2.71 0 0 1-.91 1.62 5.35 5.35 0 0 1-2 .6c-.08 0-.2 0-.19-.1.03-1.14.14-2.38.32-3.57Zm-29.42 20.28c-.26-2.67-.7-5.32-1-8a49.39 49.39 0 0 1 1-16c0-.1-.14-.14-.16 0a59.25 59.25 0 0 0-1.42 14c.23 4.7 1.06 9.35 1.14 14.07s-.3 9.55-.61 14.32l-.92 14.38c-1.24 19.28-2.39 38.56-3.56 57.84-.33 5.38-.63 10.76-.94 16.15s-.7 10.95-.91 16.43c0 .48.69.44.73 0 .82-9.68 1.3-19.39 1.91-29.07s1.17-19.18 1.76-28.77 1.16-19.18 1.73-28.77q.43-7.2.83-14.39c.28-4.77.63-9.55.7-14.34a71.36 71.36 0 0 0-.28-7.85Zm12.86-24.31a.09.09 0 0 0-.15 0 6.66 6.66 0 0 0-.34 2 14.06 14.06 0 0 1-.5 2.11 8.27 8.27 0 0 1-2.18 3.66c-2.28 2.14-5.34 2.94-8.3 3.66-.11 0-.07.17 0 .18a13.3 13.3 0 0 0 5.15-.8 10.76 10.76 0 0 0 4-2.23 7.42 7.42 0 0 0 2.15-3.88 13.4 13.4 0 0 0 .24-2.36v-1.13a3 3 0 0 0-.07-1.21Z"/>
  <path fill="#ad6359" d="M76.47 200.89c3.73 4.63 22.92 19.74 39.72 17.65 7-.86 11.16-17 12.08-22.91 1.64-10.56 4-32.79 0-31.83-5 1.19-17.14 35.82-20.71 36.16-5.73.54-15.27-3.6-27.33-5.3-6.23-.88-6.64 2.67-3.76 6.23Z"/>
  <path fill="#ffc727" d="M76.56 202.62c4.61 6 19.29 15.37 19.29 15.37l1.69-4.44 5.58-14.69s-13.12-3.28-21.77-4.57a18.8 18.8 0 0 0-3.06-.25c-5.45.04-5.71 3.42-1.73 8.58Z"/>
  <path fill="#263238" d="M76.56 202.62c4.61 6 19.29 15.37 19.29 15.37l1.69-4.44a3514.97 3514.97 0 0 0-19.25-19.51c-5.45.04-5.71 3.42-1.73 8.58Z"/>
  <path fill="#263238" d="M93.14 215.26c.91-2.7 5-13.58 6.08-15.88.08-.16.19-.15.14 0a160 160 0 0 1-6.11 15.89c-.03.08-.13.06-.11-.01Z"/>
  <path fill="#ad6359" d="M140.32 165.54c1 2.58-2.62 2.24-2.62 2.24s5 1.73 5 4.77-4.36 2.36-4.67 2.32c.27.1 4.86 1.81 4.51 4.86s-4.6 1.86-4.87 1.77c.22.17 3.13 2.43 2.34 4.69-1.36 3.87-9-1.71-12.23-1.07l.48 5.3c0 .17 0 .35-.05.52l-2.69.37a35.51 35.51 0 0 0-2.77-4.75c-1.25-1.93-2.39-3.8-2.51-5.23a3 3 0 0 1 1.8-3.12s-2.55-1.4-2.36-3.81c.11-1.24 2.18-2.17 2.18-2.17a3.6 3.6 0 0 1-1.69-3.34c.25-1.7 2.29-2.37 2.29-2.37s-1.38-2.05-.57-3.71c1.64-3.34 16.37-2.81 18.43 2.73Z"/>
  <path fill="#ad6359" d="m127.56 185.82.71 4.6c0 .17 0 .35-.05.52-.7 5.91-7.16 9.95-7.9 5.75-.56-3.2 3.49-6.94 2.43-10.13Z"/>
  <path fill="#263238" d="M122.77 166.37v-.08a25.57 25.57 0 0 1 15.14 1.49c.15.06.1.34-.08.29a52.65 52.65 0 0 0-15.06-1.7Zm-.97 5.83c-.06 0-.06-.09 0-.1a23.94 23.94 0 0 1 16.41 2.64c.17.11.22.37 0 .27-3.45-1.75-11.65-3.01-16.41-2.81Zm16.2 9.63c-4.89-2.7-10.16-3.56-15.69-3.67-.08 0-.07-.11 0-.12 2.73-.69 6.25-.25 9 .32a14.82 14.82 0 0 1 6.84 3.3c-.03.07-.09.23-.15.17Zm-9.74 5.88c-.18-.93-.31-1.81-.47-2.73 0-.09-.15-.06-.15 0 0 1.32.15 2.6.19 3.92a11.68 11.68 0 0 1-.55 4 9.1 9.1 0 0 1-1.69 3.08 4.84 4.84 0 0 1-3.15 2 2 2 0 0 1-2-2.29 8.07 8.07 0 0 1 1.36-3.36 12.34 12.34 0 0 0 1.42-3.56 5 5 0 0 0-.65-3.24l-1.07-2.06a8.56 8.56 0 0 1-.81-1.8 3.09 3.09 0 0 1 1.49-3.44c.11 0 0-.2-.06-.14a4.25 4.25 0 0 0-2.21 2.35 4.13 4.13 0 0 0 .59 3.37l1.1 2.07a4.36 4.36 0 0 1 .73 2.33 12 12 0 0 1-1.78 4.42 6.06 6.06 0 0 0-1 3.69 2.77 2.77 0 0 0 2 2.41c2.6.7 4.93-2.15 5.92-4.2a10.49 10.49 0 0 0 1-4.51 13.06 13.06 0 0 0-.21-2.31Z"/>
  <path fill="#263238" d="M132.2 186a7.16 7.16 0 0 0-1.78-.81 8.48 8.48 0 0 0-1.93-.39 5 5 0 0 0-1.81.15 3.31 3.31 0 0 0-1.42.91.08.08 0 0 0 .08.13 12 12 0 0 1 1.56-.32 10.37 10.37 0 0 1 1.67-.15 9.72 9.72 0 0 1 1.78.21c.6.12 1.19.32 1.79.4a.07.07 0 0 0 .06-.13Zm-10.27-8-.27-.18a4.91 4.91 0 0 1-.48-.43c-.16-.17-.32-.33-.46-.5a3.08 3.08 0 0 0-.24-.26l-.13-.13-.12-.18c0-.09-.19 0-.13.08a1.88 1.88 0 0 1 .12.18c0 .06 0 .12.07.18a3.54 3.54 0 0 0 .16.34 3.14 3.14 0 0 0 .45.63 1.61 1.61 0 0 0 .59.41.91.91 0 0 0 .33.1.54.54 0 0 0 .31 0v-.06a.83.83 0 0 0-.2-.18Z"/>
  <path fill="#ffc727" d="M92.05 258.84c-.91.8-13.16 1.11-25.65 1.1-4.73 0-9.51-.06-13.72-.15-7.67-.16-11.86-.36-12.09-.72-.65-1 9.35-34.71 15.83-47.12 4.12-7.88 7.3-11.87 9.9-14.13 1.58-1.36 2.13-2.13 3.35-2.7.65-.3 1.26-.55 1.85-.84 3-1.43 11.15-.05 12.43.63 1.46.75 5.45 8.42 6.26 14.66s2.63 48.56 1.84 49.27Z"/>
  <path d="M41.45 254.67h50.79c0-1.32 0-2.9-.07-4.67H42.73Z" opacity=".1"/>
  <path fill="#ad6359" d="M66.37 203.93c-.89 8.84 10.62 37.62 17.08 42.69 9.61 7.54 30.63 12.7 36.81 14 2.69.58 6.92-22.18 4.06-22.85-6.28-1.46-26.13-4.14-27.9-5.45s-13-15.26-18.14-23.41c-6.89-10.91-11.46-9.46-11.91-4.98Z"/>
  <path fill="#ad6359" d="M135.85 260c1.59-2.24-2-2.83-2-2.83s5.32-.38 6.06-3.33-3.6-3.4-3.91-3.44c.28 0 5.16-.5 5.6-3.54s-4-3-4.25-3c.26-.11 3.66-1.55 3.47-3.93-.32-4.1-10.09-.77-13.08-2.22v-5.45a28.76 28.76 0 0 1-3.63 3.39c-1.7 1.55-3.16 2.55-3.64 3.9a3 3 0 0 0 .93 3.47s-2.83.71-3.25 3.08c-.22 1.23 1.55 2.66 1.55 2.66a3.59 3.59 0 0 0-2.49 2.79c-.2 1.71 1.6 2.88 1.6 2.88s-1.86 1.63-1.5 3.44c.75 3.66 15.13 6.89 18.54 2.13Z"/>
  <path fill="#263238" d="M119.1 254.67s-.07.05 0 .07a25.55 25.55 0 0 0 15 2.45c.16 0 .19-.3 0-.31a52.49 52.49 0 0 1-15-2.21Zm.56-5.89c-.06 0-.09.07 0 .1a23.89 23.89 0 0 0 16.54 1.65c.19-.05.31-.29.08-.25-3.83.81-12.08-.06-16.62-1.5Zm18.08-5.16c-5.42 1.35-10.73.84-16.11-.48-.07 0-.09.08 0 .11 2.45 1.36 6 1.85 8.74 2a14.7 14.7 0 0 0 7.45-1.43c.06-.06.04-.23-.08-.2Z"/>
  <path fill="#ffc727" d="M75 204c-7.75-9.46-11.69-5.47-9.52 5.24A174.57 174.57 0 0 0 71.91 231l17.16-9.86Z"/>
  <path fill="#263238" d="M77.57 206.8c1 1.23 2.11 2.44 3.18 3.65-.3-.63-.56-1.27-.8-1.92 0 0 0-.05 0 0l.71 1.48c.11.25.22.49.34.72a.77.77 0 0 0 .07.16c.83.94 1.66 1.89 2.46 2.85 1 1.16 1.89 2.33 2.82 3.51s1.9 2.65 2.91 3.82c.09.1-1.52.88-1.67 1s-.27-.05-.1-.11 1.4-.95 1.42-1c-.94-1.18-2-2.26-3-3.42s-1.94-2.29-2.88-3.46c-1.91-2.37-3.69-4.85-5.59-7.24.06-.04.11-.07.13-.04Zm-11.15 9.52c.31.51.64 1 .92 1.53l.34.65-1.61-5.69c1 3.06 2.08 6.12 3 9.2a90.46 90.46 0 0 1 2.65 8.93 10.08 10.08 0 0 1 1.63-.68 8.42 8.42 0 0 1-1.77 1 93.48 93.48 0 0 1-3-9.27c-.26-.85-.5-1.7-.74-2.56-.24-.5-.52-1-.79-1.48s-.53-1.06-.79-1.6c.1-.03.15-.06.16-.03Z"/>
  <path fill="#263238" d="M72 228a350.47 350.47 0 0 1 14.55-8.8c.15-.08.24 0 .09.1a157.51 157.51 0 0 1-14.57 8.79c-.07.06-.15-.03-.07-.09Z"/>
  <path fill="#ad6359" d="M82.18 202.64c-2.92.43-7.47-4.37-9.11-8.09a58.08 58.08 0 0 1 1.05-5.91c.34-1.89.68-4 .85-6 0-.4 1.33.45 1.33.45l2.47.83L87 186.7a31.31 31.31 0 0 0-1.82 7.4 4.21 4.21 0 0 0 0 .8v.1c.09 1.58-.18 7.22-3 7.64Z"/>
  <path fill="#263238" d="M85.15 194.9v.1a7.79 7.79 0 0 1-1.26 0c-8.23-.89-8.36-11.46-8.36-11.46l3.24.42L87 186.7a31.31 31.31 0 0 0-1.82 7.4 4.21 4.21 0 0 0-.03.8Z"/>
  <path fill="#ad6359" d="M72.4 170.52c-1 4.44 2.13 16.84 5.42 19.42 4.76 3.75 12.12 3.64 15.2-2 3-5.45-1.42-21.53-5-23.84-5.39-3.39-14.1-.1-15.62 6.42Z"/>
  <path fill="#263238" d="M85.28 177.86v.09c.23.83.36 1.82-.33 2.28v.05c.87-.36.69-1.67.33-2.42Z"/>
  <path fill="#263238" d="M84.32 177.17c-1.37.24-.8 3 .46 2.74s.69-2.91-.46-2.74Zm5.76-.5s.07 0 .08.06c.15.85.46 1.8 1.28 1.92-.95.11-1.36-1.15-1.36-1.98Z"/>
  <path fill="#263238" d="M90.65 175.63c1.33-.39 2 2.31.77 2.67s-1.89-2.3-.77-2.67Zm-7.65.52a10.6 10.6 0 0 0 1-.59 1.88 1.88 0 0 0 .88-.79.59.59 0 0 0-.24-.68 1.43 1.43 0 0 0-1.46.15 2.11 2.11 0 0 0-1 1.16.62.62 0 0 0 .82.75Zm8.42-2.15a8.62 8.62 0 0 1-1.14-.06 1.87 1.87 0 0 1-1.16-.27.59.59 0 0 1-.12-.67 1.45 1.45 0 0 1 1.37-.57 2.11 2.11 0 0 1 1.44.54.62.62 0 0 1-.39 1.03Zm-5.63 11.56c.24.16.5.39.81.35a2.33 2.33 0 0 0 .86-.4s.06 0 .05 0a1.15 1.15 0 0 1-1 .68.91.91 0 0 1-.82-.6c0-.02.06-.05.1-.03Zm.36-2.71a2.9 2.9 0 0 0 2.18.88 3.38 3.38 0 0 0 1-.17 1.17 1.17 0 0 0 .2-.06l.17-.07a.2.2 0 0 0 .13-.22.24.24 0 0 0 0-.08v-.07c-.12-.66-.39-1.63-.39-1.63.26.07 1.59.36 1.5 0A43.92 43.92 0 0 0 88 173a.08.08 0 0 0-.15.06c.62 2.69 1.71 5.26 2.37 8a4.89 4.89 0 0 0-1.44-.13c-.08 0 .56 1.87.58 2.17a4.07 4.07 0 0 1-3.17-.3c-.05-.08-.11 0-.04.05Z"/>
  <path fill="#263238" d="M88.92 183.31a3.42 3.42 0 0 1-1.14 1.34 1.55 1.55 0 0 1-.92.26c-.71 0-.86-.65-.84-1.21a3.78 3.78 0 0 1 .13-.87 4.52 4.52 0 0 0 2.77.48Z"/>
  <path fill="#ff98b9" d="M87.78 184.65a1.55 1.55 0 0 1-.92.26c-.71 0-.86-.65-.84-1.21a1.63 1.63 0 0 1 1.76.95Z"/>
  <path fill="#263238" d="M90.78 168c-3.74 3.94-10.7.69-10.7.69a4.86 4.86 0 0 1-4.18 4.05s.73 7.6-1.22 8c-3 .62-6.08-9.28-5.56-11.47A5.42 5.42 0 0 1 72 166a5 5 0 0 1 1.39-3.38c1.7-2 9.17-1.4 9.17-1.4a6.67 6.67 0 0 1 1.27-2.81 1.88 1.88 0 0 1 2.7-.33 4.56 4.56 0 0 0-.32 2c.12 2.25 1.89 1.86 1.45-.1a3.14 3.14 0 0 0-1.13-1.88c.6-1.47 1.94-2.2 3-1.7 1.84.91 4.35 8.31 1.25 11.6Z"/>
  <path fill="#ad6359" d="M75.79 180.57s-3.19-3.8-4.94-2.63.9 6.86 3.13 7.47a2.2 2.2 0 0 0 2.84-1.41Z"/>
  <path fill="#263238" d="M71.65 179.55v.06a5.57 5.57 0 0 1 3.18 3.22 1.22 1.22 0 0 0-1.84-.17s0 .09 0 .08a1.35 1.35 0 0 1 1.53.34 6.23 6.23 0 0 1 .82 1.14c.08.12.32 0 .26-.12-.12-1.97-1.86-4.54-3.95-4.55Z"/>
</svg>
