<svg xmlns="http://www.w3.org/2000/svg" viewBox="0 0 500 500"><g id="freepik--Shadow--inject-18"><ellipse cx="138.32" cy="462.36" rx="96.78" ry="9.27" style="fill:#ebebeb"></ellipse></g><g id="freepik--Floor--inject-18"><polygon points="44.45 441.39 95.84 441.15 147.23 441.06 250 440.89 352.77 441.06 404.16 441.15 455.55 441.39 404.16 441.64 352.77 441.73 250 441.89 147.23 441.73 95.84 441.64 44.45 441.39" style="fill:#263238"></polygon></g><g id="freepik--Plant--inject-18"><path d="M407.61,352.12s-9.13-14-29.58-11.29c-19.43,2.59-31.52,36.63-12.69,42.63s18.49-26.6,26-31.42C396.87,348.51,404.18,350.07,407.61,352.12Z" style="fill:#FFC727"></path><path d="M360.77,358.41a40.4,40.4,0,0,1,4.42-2.77,18.17,18.17,0,0,1,4.61-1.77,25.31,25.31,0,0,1,9.43-7.36l-.59-.09a31,31,0,0,0-3.19-.27,17.87,17.87,0,0,0-6.32,1,.09.09,0,1,1-.06-.18,28,28,0,0,1,6.34-1.27,18.41,18.41,0,0,1,3.15,0c.56.06,1.12.15,1.67.26l.32.06a27.23,27.23,0,0,1,6-1.58l-.54-.2a27.29,27.29,0,0,0-2.92-.77,23.25,23.25,0,0,0-6-.47c-.12,0-.14-.19,0-.2a38.61,38.61,0,0,1,6.08.33,25.5,25.5,0,0,1,5,1.13,28.34,28.34,0,0,1,3.69-.07c7,.37,14.36,3.7,18.11,9.84s3.87,13.88,4,20.88a154.67,154.67,0,0,1-2,29.16c-.1.57-.89.39-.85-.16.51-8.25,1-16.5,1-24.77,0-3.83-.05-7.68-.32-11.5a34,34,0,0,0-1.87-9.62,17.3,17.3,0,0,0-6.07-7.9,22.94,22.94,0,0,0-9.29-3.85,26,26,0,0,0-9,0,6.29,6.29,0,0,1-.12,1.78,9.44,9.44,0,0,1-.65,2.14,11.55,11.55,0,0,1-1,1.86c-.43.66-1,1.23-1.43,1.84-.08.1-.23,0-.15-.12a9.15,9.15,0,0,0,1.93-3.8,17.27,17.27,0,0,0,.43-2c.08-.51.08-1,.15-1.54a26.67,26.67,0,0,0-9.17,3.78c-.53.35-1,.71-1.53,1.09a10.14,10.14,0,0,1,1.5,2.25,21.21,21.21,0,0,1,1.48,3.34A27.36,27.36,0,0,1,378,364a.1.1,0,0,1-.2,0,20.12,20.12,0,0,0-1.65-6.81,26.76,26.76,0,0,0-1.49-3.1c-.29-.52-.6-1-.92-1.52-.17-.27-.36-.54-.52-.82a27.86,27.86,0,0,0-6.44,7.45l0,0a13.81,13.81,0,0,1,2,3.59,32.07,32.07,0,0,1,1.49,4.19,66.25,66.25,0,0,1,1.61,8.38c0,.12-.17.14-.19,0a34.07,34.07,0,0,0-2.07-8.31c-.48-1.31-1-2.6-1.55-3.88a35.76,35.76,0,0,1-1.54-3.68,25.94,25.94,0,0,0-3.17,9.05c0,.12-.21.09-.19,0a32.59,32.59,0,0,1,5.85-13.8c-1.28.4-2.55.79-3.79,1.31a20.31,20.31,0,0,0-4.44,2.53C360.78,358.65,360.67,358.48,360.77,358.41Z" style="fill:#263238"></path><path d="M375.38,360.54c.41,2,1,4,1.34,6.07a23,23,0,0,1,.32,6c0,.05-.09.05-.09,0a57.19,57.19,0,0,0-1.76-12A.1.1,0,1,1,375.38,360.54Z" style="fill:#263238"></path><path d="M363.17,354.44A11.06,11.06,0,0,1,366,352.8a19.48,19.48,0,0,1,3.18-.8c.11,0,.14.18,0,.19a12.38,12.38,0,0,0-3.07.94,23.13,23.13,0,0,0-2.87,1.41A.06.06,0,1,1,363.17,354.44Z" style="fill:#263238"></path><path d="M397.72,335.84s-1.92-23.51-19.4-31.13c-14.6-6.37-23,10-12.64,20.08C374,332.91,387.42,329.25,397.72,335.84Z" style="fill:#FFC727"></path><path d="M368.92,309.26a74.49,74.49,0,0,1,7.77,3.68,58,58,0,0,1,6,4c-.29-.59-.54-1.22-.84-1.8-.45-.91-.94-1.79-1.48-2.66a25.17,25.17,0,0,0-3.85-4.87c-.09-.09.05-.22.14-.13a38.78,38.78,0,0,1,4.05,4.72,26.91,26.91,0,0,1,1.66,2.66,10.28,10.28,0,0,1,1.17,2.7l.2.15a57.51,57.51,0,0,1,8.35,8.16c-.05-.23-.1-.46-.16-.67-.33-1.15-.68-2.28-1.06-3.42a28.77,28.77,0,0,0-3.16-6.85.1.1,0,0,1,.17-.1,54.89,54.89,0,0,1,3.66,6.69,26.52,26.52,0,0,1,1.21,3.48,14.82,14.82,0,0,1,.57,2.36c.76,1,1.51,1.94,2.21,2.94,7.51,10.69,11.27,23.61,12.18,36.54a111.87,111.87,0,0,1,.19,11.58,73.06,73.06,0,0,1-1,11.63c-.05.24-.43.17-.42-.07.08-3.4.44-6.78.5-10.18a99.41,99.41,0,0,0-.33-10.21,95.31,95.31,0,0,0-3.81-20A71.72,71.72,0,0,0,394,330.78c-.74-.14-1.47-.34-2.19-.53s-1.75-.45-2.62-.69a26.59,26.59,0,0,1-4.87-1.79.09.09,0,1,1,.1-.16,15.74,15.74,0,0,0,4.94,1.7c1.37.27,2.79.45,4.16.77a63.76,63.76,0,0,0-4.06-5.35,30,30,0,0,1-9.95-.74,41.59,41.59,0,0,1-5.09-1.58c-1.75-.68-3.41-1.54-5.13-2.27-.13-.05,0-.24.07-.17a29.36,29.36,0,0,0,10.09,3.3,62,62,0,0,0,9.43.78c-1.24-1.43-2.53-2.81-3.9-4.12-4.59-4.37-10-8.39-16.09-10.48C368.74,309.41,368.8,309.21,368.92,309.26Z" style="fill:#263238"></path><path d="M383.14,309.33a27.68,27.68,0,0,1,2.15,3.14,17.76,17.76,0,0,1,1.54,3.65s-.05.06-.07,0c-.59-1.15-1.08-2.35-1.67-3.49a16.79,16.79,0,0,0-2.09-3.18C382.93,309.37,383.07,309.24,383.14,309.33Z" style="fill:#263238"></path><path d="M366.89,317.16a17.84,17.84,0,0,0,3.58,1.5,33.32,33.32,0,0,0,3.65,1c.06,0,.05.11,0,.1a17.36,17.36,0,0,1-3.78-.83,30.3,30.3,0,0,1-3.54-1.58C366.68,317.27,366.78,317.1,366.89,317.16Z" style="fill:#263238"></path><path d="M410.35,332.38c.11,1,2.64-8.54,17.42-17,13.43-7.7,29.45-27.74,16.29-40.39C433.43,264.75,405.44,287,410.35,332.38Z" style="fill:#FFC727"></path><path d="M400.17,387.15a261.92,261.92,0,0,1,2.35-29.73,134.27,134.27,0,0,1,6.24-26.6c1.1-3.11,2.36-6.16,3.72-9.18a21.6,21.6,0,0,1,.06-3.51c.08-1.51.21-3,.35-4.51s.29-3,.47-4.5.5-3,.56-4.48c0-.14.22-.11.19,0a31.52,31.52,0,0,0-.53,4.76c-.12,1.45-.2,2.9-.25,4.35s0,2.91,0,4.37c0,.52,0,1.08,0,1.64,1.39-2.94,2.88-5.83,4.5-8.65-1-6.13.3-12.53,1.55-18.52,0-.12.21-.07.18.05a52.24,52.24,0,0,0-1,9.5c-.06,2.52.06,5,.07,7.55.35-.6.71-1.21,1.07-1.8,1.92-3.13,4-6.2,6.14-9.18a14.17,14.17,0,0,1,.14-4.36,35.49,35.49,0,0,1,1.07-4.78c.48-1.56,1-3.1,1.64-4.61s1.49-3,2.11-4.59c.05-.13.25,0,.17.08a23,23,0,0,0-1.85,4.64,45.07,45.07,0,0,0-1.21,4.6c-.31,1.55-.56,3.11-.78,4.69-.15,1-.24,2.11-.42,3.16a114.23,114.23,0,0,1,10.35-12c.09-.09.22.05.13.14a136,136,0,0,0-15,20.44c-.17.27-.32.55-.48.83.82-.52,1.75-.92,2.52-1.35,1.43-.79,2.86-1.58,4.31-2.36l4.18-2.29c.72-.4,1.43-.82,2.16-1.19a17,17,0,0,0,2.5-1.39c.11-.08.23.09.11.16-1.42.78-2.68,1.94-4.05,2.82s-2.78,1.73-4.22,2.53c-2.63,1.46-5.48,2.52-8.07,4-1.79,3.14-3.44,6.37-5,9.65,1.57-1,3.17-2,4.8-2.87,1.05-.59,2.1-1.17,3.16-1.73a15.55,15.55,0,0,0,3-1.8c.09-.08.22.06.13.14a27.62,27.62,0,0,1-5.68,3.95c-1.9,1.11-3.82,2.18-5.79,3.15-1.58,3.46-3,7-4.28,10.58-6.22,17.62-8.51,36.32-9.6,54.89-.32,5.54-.49,11.07-.56,16.62s.22,11.07.21,16.6c0,.17-.27.21-.29,0-.67-4.91-.78-9.91-1-14.85S400.06,392.18,400.17,387.15Z" style="fill:#263238"></path><path d="M427,307.39a71.08,71.08,0,0,0,7.85-4.06,83.79,83.79,0,0,0,7.46-4.73s.09,0,.05.06a60.88,60.88,0,0,1-7.16,5,70.16,70.16,0,0,1-8.11,3.89C427,307.61,426.91,307.44,427,307.39Z" style="fill:#263238"></path><path d="M422.75,287.48c.21-.86.49-1.71.77-2.54a.08.08,0,0,1,0-.1c.18-.48.38-.95.57-1.42l.07-.17a2.33,2.33,0,0,0,.11-.28s.06,0,.05,0-.09.33-.14.49a2.76,2.76,0,0,1-.08.27,68.85,68.85,0,0,0-2.19,10c0,.1-.18.11-.18,0A33.7,33.7,0,0,1,422.75,287.48Z" style="fill:#263238"></path><path d="M407.69,357.84c5.15-16,16.79-25.5,31.76-23.3S459.5,356.44,449.5,363s-22.83-6.66-28.92-8.88S407.69,357.84,407.69,357.84Z" style="fill:#FFC727"></path><path d="M406.32,398.69c-.22-1.81-.4-3.62-.6-5.44-.38-3.62-.78-7.24-1.16-10.86-.69-6.62-.9-13.19,1-19.65a29.93,29.93,0,0,1,9.65-15,24.65,24.65,0,0,1,5.7-3.49,14.38,14.38,0,0,1,6.53-4.9,29.22,29.22,0,0,1,10.07-1.69c.12,0,.14.18,0,.19a24.47,24.47,0,0,0-9.46,2,19.76,19.76,0,0,0-3.64,2.05,17.56,17.56,0,0,0-2,1.73,20.84,20.84,0,0,1,8.79-1.17,19.1,19.1,0,0,1,3.18.57,9,9,0,0,1,2.37-.54,14,14,0,0,1,3.17,0,23.72,23.72,0,0,1,6.28,1.73.1.1,0,0,1-.08.18,22.14,22.14,0,0,0-6.08-1.35,19,19,0,0,0-3,0,13.14,13.14,0,0,0-1.65.25,19.26,19.26,0,0,1,10.61,7.92c.06.11-.09.22-.16.12a17.61,17.61,0,0,0-13.18-7.8c-.33,0-.66,0-1-.05A13,13,0,0,1,432,345c.2.71.43,1.42.68,2.12a36.17,36.17,0,0,0,1.79,4.21,34,34,0,0,0,2.34,4,20.75,20.75,0,0,0,3,3.76c.1.09-.05.23-.14.13-1.05-1.23-2.24-2.33-3.22-3.62a31.1,31.1,0,0,1-2.55-3.9,29.64,29.64,0,0,1-1.92-4.31c-.27-.78-.51-1.58-.72-2.38a5.65,5.65,0,0,1-.3-1.47,19.67,19.67,0,0,0-5.12.62c1.15,3.48,2.36,7.1,4.81,9.92.08.09-.08.22-.16.11a41,41,0,0,1-3.19-4.75,19.37,19.37,0,0,1-2-5.14,23.54,23.54,0,0,0-8,4,28,28,0,0,0-9.47,13.88,46.56,46.56,0,0,0-1.65,18.19c.61,7.72,1.61,15.43,1.93,23.17,0,.5-.74.78-.92.23A27.28,27.28,0,0,1,406.32,398.69Z" style="fill:#263238"></path><path d="M416,346.43a8.34,8.34,0,0,1,1.44-1.76,21.67,21.67,0,0,1,1.65-1.67,13.65,13.65,0,0,1,3.86-2.51c.11-.05.19.13.07.18a10.92,10.92,0,0,0-3.79,2.58q-.82.81-1.56,1.68a11,11,0,0,1-1.47,1.65C416.14,346.66,416,346.55,416,346.43Z" style="fill:#263238"></path><path d="M440.05,348.54a43.43,43.43,0,0,1,4,3.94,27.13,27.13,0,0,1,3.19,4.57c0,.05,0,.09-.08.05a60.13,60.13,0,0,0-7.19-8.41C439.84,348.61,440,348.46,440.05,348.54Z" style="fill:#263238"></path><path d="M424.18,349.29a10.73,10.73,0,0,0,1.21,2.59,17.44,17.44,0,0,0,1.73,2.2c0,.05,0,.11-.08.08a9.88,9.88,0,0,1-3-4.8C424,349.25,424.14,349.17,424.18,349.29Z" style="fill:#263238"></path><polygon points="384.56 390.72 385.61 403.22 388.84 441.35 423.43 441.35 426.65 403.22 427.71 390.72 384.56 390.72" style="fill:#455a64"></polygon><polygon points="384.56 390.72 385.61 403.22 426.65 403.22 427.71 390.72 384.56 390.72" style="fill:#263238"></polygon><rect x="381.16" y="385.7" width="49.94" height="11.99" transform="translate(812.26 783.4) rotate(180)" style="fill:#455a64"></rect></g><g id="freepik--Device--inject-18"><path d="M334.51,58.11h-169a17.26,17.26,0,0,0-17.11,17.42v348A17.27,17.27,0,0,0,165.47,441h169a17.28,17.28,0,0,0,17.13-17.42v-348A17.27,17.27,0,0,0,334.51,58.11Zm6.43,354.67c0,9.16-6.86,16.57-15.32,16.57H174.39c-8.49,0-15.34-7.41-15.34-16.57V88.72c0-18.66,6.85-19.57,15.34-19.57h30.29c1.76,0,3.2,2,3.2,4.48V74.7c0,5.81,3.18,5.83,7.09,5.83h70c4,0,7.09,0,7.09-5.83V73.63c0-2.48,1.42-4.48,3.22-4.48h30.29c8.46,0,15.32,2.48,15.32,19.57Z" style="fill:#263238"></path><path d="M259.55,73.27H240.44a1.18,1.18,0,0,1-1.18-1.18h0a1.18,1.18,0,0,1,1.18-1.18h19.11a1.18,1.18,0,0,1,1.18,1.18h0A1.18,1.18,0,0,1,259.55,73.27Z" style="fill:#fff"></path><path d="M340.94,88.72V412.78c0,9.16-6.86,16.57-15.32,16.57H174.39c-8.49,0-15.34-7.41-15.34-16.57V88.72c0-18.66,6.85-19.57,15.34-19.57h30.29c1.76,0,3.2,2,3.2,4.48V74.7c0,5.81,3.18,5.83,7.09,5.83h70c4,0,7.09,0,7.09-5.83V73.63c0-2.48,1.42-4.48,3.22-4.48h30.29C334.08,69.15,340.94,71.63,340.94,88.72Z" style="fill:#fff"></path><path d="M335.84,72h-43.5c.47-1.65,1.62-2.82,3-2.82h30.31C329.55,69.14,333.13,69.68,335.84,72Z" style="fill:#dbdbdb"></path><path d="M159.05,396.81v4.31h15.06v-4.31ZM340.94,130,292,181.86H269.48V139h8.95v-4.34H265.14v47.19H240.73V80.53h-8.66v30.36h-73v8.66h73v62.31H161.33v17h-2.28v4.34h2.28v64.39l13,29.78H159.05v8.66h19.09l10.19,23.29a30.82,30.82,0,0,0,9.79,59h0L219.31,423l-6.39,6.39h20.46l-25.54-41.72a30.84,30.84,0,0,0,21.62-40.94l60.44-28.75h51v-8.65H316.73L266,254.17h74.92v-4.33H262l-54.56-59.32h88.24l29.82-31.62,15.4,15.4V162.06l-9.44-9.45,9.44-10ZM200.62,379.84a22.2,22.2,0,1,1,22.19-22.2A22.22,22.22,0,0,1,200.62,379.84ZM305,309.29H288L225.27,339.1a30.89,30.89,0,0,0-24.65-12.3,32.75,32.75,0,0,0-3.85.24L170,265.79V190.52H195.7Zm6.44,120.06h6.13l23.4-23.41v-6.13Z" style="fill:#ebebeb"></path><rect x="177.41" y="197.08" width="12.59" height="12.59" style="fill:#dbdbdb"></rect><polygon points="308.19 245.34 308.19 221.04 299.35 221.04 299.35 210.88 283.78 210.88 283.78 245.34 308.19 245.34" style="fill:#dbdbdb"></polygon><polygon points="265.02 80.53 265.02 104.97 251.84 104.97 251.84 90.09 244.71 90.09 244.71 80.53 265.02 80.53" style="fill:#dbdbdb"></polygon><path d="M340.94,88.71v8.43h-11V75.93h8.86C340.16,78.83,340.94,82.94,340.94,88.71Z" style="fill:#dbdbdb"></path><polygon points="272.89 178.19 272.89 160.12 306.75 160.12 288.46 178.41 272.89 178.19" style="fill:#dbdbdb"></polygon><rect x="244.72" y="161.4" width="17.01" height="17.01" style="fill:#dbdbdb"></rect><rect x="207.51" y="122.94" width="20.49" height="18.85" style="fill:#dbdbdb"></rect><polygon points="228.01 145.49 228.01 178.41 202.94 178.41 186.96 162.43 186.96 145.49 228.01 145.49" style="fill:#dbdbdb"></polygon><polygon points="182.44 166.06 195.03 178.65 161.43 178.65 161.43 166.06 182.44 166.06" style="fill:#dbdbdb"></polygon><polygon points="180.64 325.13 159.05 325.13 159.05 309.97 174.53 309.97 180.64 325.13" style="fill:#dbdbdb"></polygon><path d="M174.76,383.56v7.28H159.05V358.46h4.29A46.77,46.77,0,0,0,174.76,383.56Z" style="fill:#dbdbdb"></path><path d="M250,320.66l-13.17-28.45h-16l-27.4,12.71,7.16,15.63h.06a37,37,0,0,1,26,10.64Z" style="fill:#dbdbdb"></path><polygon points="340.94 285.23 340.94 304.12 320.34 304.12 302.96 285.23 340.94 285.23" style="fill:#dbdbdb"></polygon><path d="M211.55,421.37l-7.54,8H174.38a14.7,14.7,0,0,1-3.27-.38v-9h12.82V400.15l9.65-8.12Z" style="fill:#dbdbdb"></path><path d="M272.56,388l-26-27.1-10,7.79a37.66,37.66,0,0,1-18.43,22.2l21.73,35.52Z" style="fill:#dbdbdb"></path><polygon points="244.25 348.99 289.9 326.42 312.67 326.42 312.67 366.12 277.17 383.65 244.25 348.99" style="fill:#dbdbdb"></polygon><path d="M340.92,413.51c-.31,8-5.88,14.52-13.05,15.66h-2.61Z" style="fill:#dbdbdb"></path><polygon points="177.41 214.92 177.41 264.81 191.33 298.87 216.73 286.28 275.98 286.28 209.54 214.92 177.41 214.92" style="fill:#FFC727"></polygon><polygon points="321.9 143.56 272.89 143.56 272.89 155.84 310.32 155.84 321.9 143.56" style="fill:#dbdbdb"></polygon><polygon points="167.8 293.31 159.05 293.31 159.05 273.04 167.8 293.31" style="fill:#dbdbdb"></polygon><rect x="318.98" y="326.42" width="21.96" height="25.96" style="fill:#dbdbdb"></rect><rect x="318.98" y="356.43" width="21.96" height="9.11" style="fill:#dbdbdb"></rect><polygon points="313.52 420.56 304.73 429.35 247.02 429.35 277.57 392.04 313.52 420.56" style="fill:#dbdbdb"></polygon><polygon points="316.67 416.27 331.5 402.04 313.51 386.38 313.51 372.3 281.81 388.45 316.67 416.27" style="fill:#FFC727"></polygon><polygon points="340.94 369.56 340.94 391.64 335.06 397.17 318.98 383.65 318.98 369.56 340.94 369.56" style="fill:#dbdbdb"></polygon><path d="M164.69,406.07v19.55a17.07,17.07,0,0,1-5.64-12.84v-6.71Z" style="fill:#dbdbdb"></path><rect x="171.11" y="408.12" width="7.64" height="7.64" style="fill:#dbdbdb"></rect><path d="M226.69,80.53V105.7H178.23V76.89l8.43-7.75h18c1.75,0,3.19,2,3.19,4.49V74.7c0,5.81,3.19,5.83,7.09,5.83Z" style="fill:#dbdbdb"></path><rect x="159.05" y="90.24" width="15.08" height="15.44" style="fill:#dbdbdb"></rect><path d="M174.13,77.62v8.63h-15a35.82,35.82,0,0,1,1.21-8.63Z" style="fill:#dbdbdb"></path><path d="M182.11,69.14l-5.33,5h-15c2.76-4.65,7.38-5,12.61-5Z" style="fill:#dbdbdb"></path><polygon points="278.77 259.41 299.35 281.02 318.98 281.02 318.98 259.41 278.77 259.41" style="fill:#dbdbdb"></polygon><rect x="323.06" y="271.09" width="17.88" height="9.94" style="fill:#dbdbdb"></rect><rect x="323.06" y="259.41" width="10.51" height="9.03" style="fill:#dbdbdb"></rect><rect x="336.19" y="259.41" width="4.75" height="9.03" style="fill:#dbdbdb"></rect><polygon points="243 292.21 275.98 292.21 275.98 307.98 254.89 317.55 243 292.21" style="fill:#dbdbdb"></polygon><circle cx="200.63" cy="357.77" r="14.8" style="fill:#FFC727"></circle><rect x="159.05" y="122.94" width="7.92" height="11.37" style="fill:#dbdbdb"></rect><polygon points="182.07 161.96 182.07 122.95 169.99 122.95 169.99 154.31 161.43 154.31 161.43 161.96 182.07 161.96" style="fill:#dbdbdb"></polygon><rect x="186.96" y="122.94" width="17.11" height="17.8" style="fill:#dbdbdb"></rect><rect x="159.05" y="136.5" width="7.92" height="14.37" style="fill:#dbdbdb"></rect><rect x="311.87" y="221.04" width="25.42" height="24.31" style="fill:#dbdbdb"></rect><polygon points="219.05 194.86 245.57 223.72 278.86 223.72 278.86 194.86 219.05 194.86" style="fill:#dbdbdb"></polygon><polygon points="249.35 227.05 266.18 245.35 278.77 245.35 278.77 227.05 249.35 227.05" style="fill:#dbdbdb"></polygon><rect x="283.78" y="194.86" width="15.56" height="12.05" style="fill:#dbdbdb"></rect><polygon points="337.3 206.41 337.3 179.31 325 166.07 303.56 189.06 303.56 215.35 328.98 215.35 328.98 206.41 337.3 206.41" style="fill:#FFC727"></polygon><polygon points="340.94 149.37 340.94 156.64 337.43 153.2 340.94 149.37" style="fill:#dbdbdb"></polygon><polygon points="340.94 101.09 340.94 123.44 326.18 139.65 306.75 139.65 306.75 101.09 340.94 101.09" style="fill:#dbdbdb"></polygon><rect x="283.33" y="115.21" width="18.91" height="24.44" style="fill:#FFC727"></rect><path d="M326.18,75.93V97.14H302.23v15h-18.9V80.53H285c3.63,0,6.6,0,7-4.6Z" style="fill:#dbdbdb"></path><rect x="267.32" y="80.53" width="13.57" height="16.1" style="fill:#dbdbdb"></rect><rect x="244.72" y="107.61" width="36.18" height="17.79" style="fill:#dbdbdb"></rect><rect x="267.32" y="99.2" width="13.58" height="5.77" style="fill:#dbdbdb"></rect><polygon points="261.73 158 251.84 158 244.72 151.24 244.72 131.58 261.73 131.58 261.73 158" style="fill:#dbdbdb"></polygon><g id="freepik--u5Zjqx--inject-18"><path d="M199.45,76.43a4,4,0,0,0-.29.29l-.17.16a4,4,0,0,0-5.64,0l-.16-.17-.29-.29h0l0,0,.37-.33a4.46,4.46,0,0,1,.86-.54,4.18,4.18,0,0,1,1.13-.38,5.58,5.58,0,0,1,.57-.08h.5l.38,0a4.51,4.51,0,0,1,1,.25,4.58,4.58,0,0,1,.71.33,4.48,4.48,0,0,1,.67.47l.31.28Z" style="fill:#a6a6a6"></path><path d="M194.27,77.8l-.46-.46a3.31,3.31,0,0,1,1.88-.94,3.26,3.26,0,0,1,2.83.94c-.15.15-.3.31-.46.46a2.61,2.61,0,0,0-1.89-.78A2.65,2.65,0,0,0,194.27,77.8Z" style="fill:#a6a6a6"></path><path d="M197.6,78.26l-.46.46a1.4,1.4,0,0,0-1-.4,1.36,1.36,0,0,0-1,.41l-.46-.46A2,2,0,0,1,197.6,78.26Z" style="fill:#a6a6a6"></path><path d="M196.58,79.14a.41.41,0,0,1-.41.42.42.42,0,0,1-.42-.42.41.41,0,0,1,.42-.41A.41.41,0,0,1,196.58,79.14Z" style="fill:#a6a6a6"></path></g><path d="M170.9,77.31a1.21,1.21,0,1,1,1.21,1.21A1.2,1.2,0,0,1,170.9,77.31Z" style="fill:#a6a6a6"></path><path d="M174.7,77.31a1.21,1.21,0,1,1,1.21,1.21A1.2,1.2,0,0,1,174.7,77.31Z" style="fill:#a6a6a6"></path><path d="M178.5,77.31a1.21,1.21,0,1,1,1.2,1.21A1.2,1.2,0,0,1,178.5,77.31Z" style="fill:#a6a6a6"></path><path d="M182.3,77.31a1.21,1.21,0,1,1,1.2,1.21A1.2,1.2,0,0,1,182.3,77.31Z" style="fill:#a6a6a6"></path><path d="M186.09,77.31a1.21,1.21,0,1,1,1.21,1.21A1.2,1.2,0,0,1,186.09,77.31Z" style="fill:#a6a6a6"></path><rect x="317.73" y="75.65" width="9.31" height="4.05" style="fill:#a6a6a6"></rect><path d="M327.3,79.94h-9.82V75.4h9.82Zm-9.32-.5h8.82V75.9H318Z" style="fill:#fff"></path><rect x="318.3" y="76.17" width="6.33" height="3" style="fill:#a6a6a6"></rect><rect x="327.3" y="76.45" width="0.87" height="2.43" style="fill:#a6a6a6"></rect></g><g id="freepik--Route--inject-18"><polygon points="258.54 329.32 257.73 327.5 291.35 312.56 312.17 312.56 195.67 185.36 235.53 185.36 235.53 110.48 237.53 110.48 237.53 187.36 200.21 187.36 316.71 314.56 291.78 314.56 258.54 329.32" style="fill:#FFC727"></polygon><path d="M243.29,98.69C243,95.31,240.62,92,236.53,92s-6.41,3.36-6.75,6.74c-.51,5.21,3,9.94,6.75,14.25C240.29,108.63,243.81,103.9,243.29,98.69Zm-6.76,3.75a3.7,3.7,0,1,1,3.71-3.7A3.69,3.69,0,0,1,236.53,102.44Z" style="fill:#FFC727"></path><polygon points="253.53 341.41 253.44 331.04 245.09 324.89 265.51 325.15 253.53 341.41" style="fill:#37474f"></polygon><path d="M222,419.84l-22-37,1.58-.15A32,32,0,0,0,222,370.59c8.09-10.67.92-25.85.85-26l-.45-.91,32.47-14.84.83,1.82-30.63,14c1.52,3.64,6.25,17-1.48,27.15a33.78,33.78,0,0,1-20.39,12.62l20.45,34.39Z" style="fill:#37474f"></path><path d="M229.57,408.18c-.34-3.38-2.67-6.74-6.76-6.74s-6.41,3.36-6.75,6.74c-.51,5.21,3,9.94,6.75,14.25C226.57,418.12,230.09,413.39,229.57,408.18Zm-6.76,3.75a3.7,3.7,0,1,1,3.71-3.7A3.69,3.69,0,0,1,222.81,411.93Z" style="fill:#FFC727"></path></g><g id="freepik--character-1--inject-18"><path d="M84.93,170.57c3.16,1.65,3.77,7.35,13.81,7,1.43,0,2.59-.61,3.91-.13,1.91.71,3.43,2.24,5.14,3.36a11.19,11.19,0,0,0,4.57,1.76,13.67,13.67,0,0,0,9-2.07c1.64-1,3-2.41,4.61-3.51s11.19-3.41,12.8-8.8c1-3.43.87-7.33-3.2-12.34a6.28,6.28,0,0,1-1.84-3.32,7.49,7.49,0,0,1,.75-3.22,6.28,6.28,0,0,0,.58-3.69,8.16,8.16,0,0,0-2.13-3.14c-1.5-1.81-1.22-4.44,0-7.67a9.51,9.51,0,0,0-1-8.3,19.68,19.68,0,0,0-3.47-3.76c-1.83-1.74-2.17-3.36-3-5.81-1.55-4.73-4-6.85-6.87-8.3-2.58-1.31-2.49-.81-5.27-.39a14.52,14.52,0,0,0-9.37-2c-3,.38-5.53,2.42-7.82,4.36-2,1.74-3.91,3.61-4,6.54-.06,1.69.35,3.36.27,5-.1,2.15-1.3,3.51-2.73,4.86a12.67,12.67,0,0,0-4.17,7c-.37,2.29,1.87,5.83-.76,9.22-2.33,3-6.42,6.42-7.49,10.19C73.94,165.16,81.89,169,84.93,170.57Z" style="fill:#263238"></path><path d="M123.77,176.86c4.61-.69,11.69.17,14.14-5a7.88,7.88,0,0,0,2.88-6.59c-.14-2.72-1.73-5.08-3.48-7a17.44,17.44,0,0,1-2.93-3.58,23.46,23.46,0,0,1-.57-3.12,15.7,15.7,0,0,1,1.1-3.91s0-.05,0,0c-1,2.12-1.94,4.48-1,6.84a6.73,6.73,0,0,0,.48,1,18.76,18.76,0,0,0,1.37,3.6c1.52,3,2.9,5.73,2.7,9.24a8.52,8.52,0,0,1-.83,3.38,12.71,12.71,0,0,1-7.12,3.09c-.06,0-.07.12,0,.11a14.47,14.47,0,0,0,6.66-2.42c-2.68,3.83-8.89,3.32-13.39,4.2C123.63,176.73,123.68,176.88,123.77,176.86ZM138.26,171l0-.1a12.9,12.9,0,0,0-.58-8.55c-.73-1.79-1.82-3.4-2.54-5.2-.12-.31-.24-.63-.34-.94,1,1.4,2.42,2.57,3.42,3.94,2.2,3,2.84,6.55.8,9.78A9.87,9.87,0,0,1,138.26,171Z" style="fill:#263238"></path><path d="M75,165c.06.1.2,0,.15-.09-2-3.38-1.4-6.85.16-9.95-.75,4.63.16,9.82,4.4,12.31.07,0,.13-.07.06-.11-4.38-2.63-5-8.62-3.86-13.3a26.63,26.63,0,0,1,3.39-4.45c2-2.16,4.52-4.3,6-7a6.32,6.32,0,0,1-2.48,3.9c-.08.06,0,.19.07.14a6.8,6.8,0,0,0,2.8-4,6.11,6.11,0,0,0,.11-1,9.4,9.4,0,0,0,.73-2.73s0,0,0,0a9.5,9.5,0,0,1-.69,2.44,19.86,19.86,0,0,0-1-4.27c-1.08-4,.94-6.39,3.43-8.54.2-.13.4-.26.61-.38a8.63,8.63,0,0,0,3.32-3.07c.17-.18.34-.36.5-.55,0,0,0,0,0,0s-.27.27-.4.4a5.88,5.88,0,0,0,.41-1.16s0,0,0,0a6.07,6.07,0,0,1-1.13,1.84c-1,.83-2.09,1.59-3.14,2.39-2,1.2-3.93,2.34-4.69,4.73s-.16,4.72,0,7c.28,3.58-1,6.57-4.26,8,0,0-.06.08,0,.06a6.28,6.28,0,0,0,.73-.25,12.64,12.64,0,0,0-4.41,5.78C73.53,156.65,72.57,161.19,75,165Zm8.35-20.14-1.1.85a6.72,6.72,0,0,0,1.2-2.06c.9-2.54.15-5.3.09-7.91A6.81,6.81,0,0,1,86,129.93a7.86,7.86,0,0,0-1.64,2.89c-.57,1.93,0,3.72.58,5.57a9.08,9.08,0,0,1,.43,3.62A16.41,16.41,0,0,1,83.35,144.84Zm-6.74,7a16.17,16.17,0,0,1,4.6-5.21l.38-.32c.52-.42,1-.84,1.54-1.27C81,147.45,78.41,149.54,76.61,151.88Z" style="fill:#263238"></path><path d="M81.54,167.94s0,0,0,0S81.52,167.94,81.54,167.94Z" style="fill:#263238"></path><path d="M127.86,122.08a62.75,62.75,0,0,1,4.9,4.75,6.32,6.32,0,0,1,1.82,4.07,6.78,6.78,0,0,1-1.38,4.29c-.35.52-.69,1.05-1,1.59a6.56,6.56,0,0,0,.46,2.93c.75,1.77,2.42,2.86,3.2,4.65,1.25,2.9-.14,5.28-1.36,7.88,0,0,0,0,0,0,.88-2.12,2.12-4.22,1.44-6.62-.56-2-2-3-3.08-4.63a6.52,6.52,0,0,1-1.06-3.4c-1,2-1.3,4,.4,6.06.08.1,0,.23-.12.14-2.16-2.19-1.59-4.84-.27-7.15a12.92,12.92,0,0,1,.89-4c.06-.13.25,0,.22.1-.19,1-.44,2-.58,3l.22-.33c1.73-2.46,2.39-5.32.42-8-1.48-2-3.5-3.51-5.15-5.32A.05.05,0,0,1,127.86,122.08Z" style="fill:#263238"></path><path d="M184.85,465c-2.29.72-69.27-.73-71.71-2.36-.94-.61,4.79-64.05,4.79-64.05l42.48.81-4.83,42.44s24.71,11.71,27.22,13.79S187.15,464.28,184.85,465Z" style="fill:#ad6359"></path><path d="M184.85,465c-2.29.71-69.27-.73-71.71-2.37-.3-.18-.39-6.62.68-15,12.14,2,55.5,8.69,58.87,6.7,2.35-1.38.27-3.54-1.66-5,5.54,2.76,10.7,5.42,11.77,6.31C185.28,457.69,187.14,464.28,184.85,465Z" style="fill:#263238"></path><path d="M156.78,431.66l-41.7-.59s8.26-99.88,7.91-101.8c-.43-2.46-30-118.47-30-118.47h39.8s31.38,108.13,32.51,118.55C167.1,346.17,156.78,431.66,156.78,431.66Z" style="fill:#37474f"></path><path d="M118.83,421.65c2.46-.17,5-.14,7.42-.18s4.95,0,7.42,0c5,.05,9.89.12,14.83.26,1.36,0,2.71.08,4.06.14s2.89.32,4.33.37c.11,0,.11.18,0,.18-1.22,0-2.43.19-3.65.22s-2.52.05-3.78.05c-2.47,0-5,0-7.42,0-4.94,0-9.89-.11-14.83-.31-2.79-.12-5.61-.15-8.39-.43A.13.13,0,0,1,118.83,421.65Z" style="fill:#263238"></path><path d="M101.72,220.17c3.56,12.61,6.82,25.33,10,38s6.37,25.44,9.54,38.16L126,315.46c1.54,6.19,3.33,12.42,3.72,18.82s-.44,13.06-1,19.54-1.1,13-1.67,19.53c-1.14,13-2.23,26.06-3.65,39.06-.18,1.63-.35,3.26-.52,4.88,0,.14-.23.14-.22,0,.87-13,1.77-26.06,2.81-39.08q.78-9.76,1.59-19.54c.53-6.5,1.29-13,1.49-19.54s-1-12.88-2.58-19.23-3.12-12.45-4.68-18.68q-4.77-19.07-9.53-38.16c-3.53-14.24-7.06-28.52-10.18-42.86A.06.06,0,0,1,101.72,220.17Z" style="fill:#263238"></path><path d="M93,210.8s12.69,49.77,21.57,84.81l16.94-84.81Z" style="fill:#263238"></path><path d="M134.84,465.14c-2.3.72-69.27-.73-71.72-2.36-.94-.6,2.56-64.08,2.56-64.08l41.91.81-2,42.48s24.72,11.7,27.22,13.78S137.13,464.44,134.84,465.14Z" style="fill:#ad6359"></path><path d="M134.84,465.14c-2.29.72-69.28-.73-71.72-2.36-.3-.19-.23-6.46,0-15,12.14,2,56.17,8.7,59.54,6.71,2.36-1.38.27-3.55-1.65-5,5.53,2.76,10.69,5.41,11.76,6.3C135.26,457.84,137.13,464.44,134.84,465.14Z" style="fill:#263238"></path><path d="M131.48,210.79s-1.16,19-5.7,34.05c-.37,1.24-.76,2.47-1.19,3.64a70.78,70.78,0,0,0-11.54,5.75s-2.87,72.79-2.82,77.31c.19,16.91-4.13,99.28-4.13,99.28l-42-.4s4.36-93.15,4.38-99.34c0-6,2.86-43.79,5.39-76.56,0,0-3.74-10.47-3.32-15.75,1-12.82,6.75-28,6.75-28Z" style="fill:#37474f"></path><path d="M122.3,236.35c.15-1.06.31-2.11.47-3.16.3-1.93.69-3.85,1-5.77.77-4.36,1.57-8.74,2.54-13.06,0-.1.2-.08.19,0-.18,1.75-.38,3.49-.62,5.22s-.42,3.49-.67,5.23c-.48,3.44-1,6.89-1.55,10.32-.23,1.32-1,3.69.85,4.1,1.51.33,2.61-1.15,3.06-2.39a29.63,29.63,0,0,0,1-4.76c.31-1.74.58-3.49.83-5.23q.81-5.72,1.75-11.41c0-.1.19-.07.18,0a113.64,113.64,0,0,1-.84,11.66q-.36,2.79-.84,5.55a19.47,19.47,0,0,1-1.27,5.17,4.2,4.2,0,0,1-3.15,2.52h-.09a.11.11,0,0,1,.06.11c0,.61,0,1.24-.07,1.85s-.19,1.22-.31,1.82a11.19,11.19,0,0,1-.47,1.81,7.71,7.71,0,0,1-.33.84c-.14.28-.33.5-.49.76a.11.11,0,0,1-.21-.06h0c0-.1,0-.2,0-.3v-.06h0a4.89,4.89,0,0,1,0-.54c0-.3.12-.59.18-.88.13-.59.29-1.17.45-1.75s.28-1.17.43-1.75.35-1.19.49-1.79a.13.13,0,0,1,0-.06,2.73,2.73,0,0,1-2.65-1.66A4.69,4.69,0,0,1,122.3,236.35Z" style="fill:#263238"></path><path d="M109.65,255.68a32.5,32.5,0,0,1,3.95-2.61,41,41,0,0,1,4.51-2.34c3-1.32,6.18-2.22,9.32-3.26.09,0,.16.13.06.16-3,1.21-5.95,2.82-8.89,4.26-1.44.7-2.91,1.38-4.38,2s-2.94,1.41-4.46,2C109.65,255.93,109.56,255.75,109.65,255.68Z" style="fill:#263238"></path><path d="M85.91,229.17a25.62,25.62,0,0,0,6.34-.86c1-.24,1.9-.55,2.83-.85a7.45,7.45,0,0,0,2.56-1.29c1.44-1.24,2.11-3.2,2.74-4.93a48,48,0,0,0,1.66-6c0-.1.17-.07.17,0a23.34,23.34,0,0,1-.86,6.8c-.52,1.88-1.21,4-2.73,5.3a10.74,10.74,0,0,1-5.81,2.12,26.64,26.64,0,0,1-6.91-.1A.11.11,0,0,1,85.91,229.17Z" style="fill:#263238"></path><path d="M65.91,422.27c2.46-.18,5-.15,7.42-.18s5,0,7.42,0q7.43.06,14.84.26c1.35,0,2.7.08,4,.14s2.89.31,4.33.37a.09.09,0,1,1,0,.17c-1.21,0-2.43.2-3.65.23s-2.52.05-3.78.05l-7.42,0c-4.94,0-9.89-.11-14.83-.32-2.79-.11-5.61-.15-8.39-.42A.13.13,0,0,1,65.91,422.27Z" style="fill:#263238"></path><path d="M71,416.8h0a.5.5,0,0,1-.48-.53l9.49-163c-.12-.71-2.8-9.82-3-14.47-.25-4.91,4.84-24.07,5-24.89a.52.52,0,0,1,.63-.36.51.51,0,0,1,.36.63c0,.19-5.26,19.81-5,24.57s3,14.33,3,14.41-9.49,163.16-9.49,163.16A.52.52,0,0,1,71,416.8Z" style="fill:#263238"></path><path d="M118.48,154C139,172.05,158,191.89,159.63,202.11c2.2,14.14-6.47,18.17-10.37,18.25-10.63.22-30.43-42.64-37.33-59C105.23,145.45,114,150,118.48,154Z" style="fill:#FFC727"></path><path d="M132.53,210.79l-2.86-18s7.11-7.37,3.44-15.08c-1.86-3.91-14.51-23-21.26-27.76-6.33-4.49-13.84-.76-16.66,4.1-7.09,12.27-13.84,26.37-17.94,56.73Z" style="fill:#FFC727"></path><path d="M121.23,190.49a58.46,58.46,0,0,0-8.51,1.57c-1.39.39-2.74.83-4.1,1.31-.67.24-1.35.45-2,.66a9.09,9.09,0,0,1-2.19.46.05.05,0,0,0,0,.1,14.89,14.89,0,0,0,2.11-.08,13.93,13.93,0,0,0,2-.42c1.41-.37,2.79-.82,4.2-1.21,2.83-.78,5.66-1.57,8.54-2.15A.12.12,0,0,0,121.23,190.49Z" style="fill:#263238"></path><path d="M128.4,192.9a61,61,0,0,0-7.15-.2c-1.19,0-2.37.14-3.56.28l-1.69.22c-.62.1-1.23.27-1.85.35-.06,0-.06.11,0,.11.59-.06,1.19,0,1.78,0l1.78-.09,3.57-.15c2.37-.13,4.74-.23,7.12-.28A.1.1,0,0,0,128.4,192.9Z" style="fill:#263238"></path><path d="M94.47,152.21c-19.09,15-37.86,40.93-38,55.42-.13,14.31,4.85,12.93,6.27,12.83,8.64-.56,29-40.39,35.2-56.63S99.19,148.5,94.47,152.21Z" style="fill:#FFC727"></path><path d="M74.23,209.28c1-1.8,2-3.58,3-5.4l3-5.42c2-3.61,4-7.22,5.87-10.87s3.87-7.26,5.76-10.92q1.43-2.74,2.77-5.52c.93-1.84,1.78-3.71,2.65-5.58A112.83,112.83,0,0,1,92.53,177c-1.75,3.74-3.66,7.4-5.57,11.05s-4,7.24-6.08,10.78S76.6,205.9,74.23,209.28Z" style="fill:#263238"></path><path d="M95.24,170.37a16.52,16.52,0,0,1,1.18-1.87c.22-.3.42-.6.65-.88a11.11,11.11,0,0,1,.7-.87,5.71,5.71,0,0,1-.94,2A6.16,6.16,0,0,1,95.24,170.37Z" style="fill:#263238"></path><path d="M153.65,181.15c-1-6.71-3-16.08-5.44-18s-11.79-8.83-14.44-9.72-14.51-5.25-16.67-4c-1.72,1,.39,5.56,6,7.69a82.45,82.45,0,0,1,8.93,4.23c1.45.6,5,5.23,4,7.3-.54,1.22-4.07,2.69-6.28,1.72s-2.8-5.32-5.33-7.35-7-1.73-7.21-.53,1.23,1.75,3.54,5.79c1.49,2.6,1.65,8.88,5,13.34a76.76,76.76,0,0,1,4.65,8.23Z" style="fill:#ad6359"></path><path d="M122.12,161.2a4.38,4.38,0,0,1-2.21-1,1.9,1.9,0,0,1-.51-.89,2.1,2.1,0,0,1,0-.56.86.86,0,0,1,.21-.54s0-.09,0,0a2.69,2.69,0,0,1-.2.27,1.19,1.19,0,0,0-.13.25,1.71,1.71,0,0,0-.09.55,1.87,1.87,0,0,0,.46,1.12,3,3,0,0,0,2.53.88S122.16,161.21,122.12,161.2Z" style="fill:#263238"></path><path d="M148.21,163.13c-2.17-3.34-7.71-9.33-13.15-11.36-3.68-1.36-16.23,4.91-15.83,7.32s2.54,2.39,5.73,2c1.16-.15,7.28-2.43,8.34-1.15,1.53,1.84,3.51,8.15,3.51,8.15Z" style="fill:#ad6359"></path><path d="M119.53,158.14c1.53-2.59,4.94-4,8.34-5.13,0,0,.08.06,0,.08-.87.29-6.39,2.9-8.33,5.09C119.55,158.21,119.51,158.17,119.53,158.14Z" style="fill:#263238"></path><path d="M148.21,163.13c-2.17-3.34-7.71-9.33-13.15-11.36-3.68-1.36-13.57,6.6-13.18,9s3.49,2.56,6.9,1.34c1.1-.4,4.78-3.05,5.84-1.77,1.52,1.84,5.24,6.4,5.24,6.4Z" style="fill:#ad6359"></path><path d="M137.71,163.92c-.34-.52-.46-.71-.82-1.23s-.73-1-1.12-1.52a4.74,4.74,0,0,0-1.14-1.18,2.36,2.36,0,0,0-1.52-.28,8.54,8.54,0,0,0-3.25,1.47,10.15,10.15,0,0,1-5.22,1.56,3.64,3.64,0,0,1-1.41-.37,2.25,2.25,0,0,1-.85-.66c-.79-1.31.16-2.82,1.14-3.89a22.57,22.57,0,0,1,6.68-4.66l1.77-.86a5.41,5.41,0,0,1,2.16-.64c1.24,0,3.28,1.22,3.92,1.59,0,0,.08-.05,0-.08-.76-.46-2.67-2-4.67-1.87a6.25,6.25,0,0,0-2.07.73c-.7.3-1.38.64-2.06,1a28.77,28.77,0,0,0-3.79,2.3,11.64,11.64,0,0,0-3.08,3,3.47,3.47,0,0,0-.18,3.57,3,3,0,0,0,2.26,1.17,6,6,0,0,0,1.58,0,24.7,24.7,0,0,0,3.41-1c1.08-.44,2.05-1.18,3.17-1.53a2.07,2.07,0,0,1,1.62.09,5.71,5.71,0,0,1,1.22,1.09,17,17,0,0,1,2,2.37C137.7,164.22,137.86,164.14,137.71,163.92Z" style="fill:#263238"></path><path d="M149.83,166c-.8-1.59-2.2-8.16-3.49-10.16s-7.17-8.93-9.87-8.6c-3.4.41.21,6.51,2,9s1.55,6.81,1.55,6.81Z" style="fill:#ad6359"></path><path d="M136,152.14a30.09,30.09,0,0,1,1.77,2.53,20.68,20.68,0,0,1,1.55,2.49A8.66,8.66,0,0,1,140,160c.05.48.07,1,.08,1.43s0,1,0,1.56c0,.05-.09.06-.09,0a22.78,22.78,0,0,0-.4-2.82,12.14,12.14,0,0,0-.88-2.8c-.82-1.77-2-3.35-2.83-5.12C135.81,152.13,135.91,152.08,136,152.14Z" style="fill:#263238"></path><path d="M140,163.83a9.83,9.83,0,0,1-.82,4.8,18.86,18.86,0,0,1-1.07,2.22,21.16,21.16,0,0,1-1.39,2,16.82,16.82,0,0,0-3.69,8.58,12.47,12.47,0,0,1,.55-4.84,14.62,14.62,0,0,1,2.34-4.33,22.75,22.75,0,0,0,2.51-4A14.34,14.34,0,0,0,140,163.83Z" style="fill:#263238"></path><path d="M148.27,219.87c-6.64-.9-11-12-18.56-31.52-1.33-3.43,16-24.49,18.38-21.35,3,4,11,26,11.81,32C161.56,210.86,156,220.91,148.27,219.87Z" style="fill:#ad6359"></path><path d="M133.72,199.24l21.39-20.79s6.08,17.89,5.51,25.39-3.18,16-12.21,16.52C141.65,220.71,133.72,199.24,133.72,199.24Z" style="fill:#FFC727"></path><path d="M140.63,213.63c-.77-1.09-1.46-2.24-2.13-3.39s-1.29-2.34-1.9-3.53-1.15-2.4-1.65-3.65a23,23,0,0,1-1.23-3.82c.56,1.21,1.16,2.4,1.76,3.58l1.8,3.56c.58,1.19,1.17,2.38,1.73,3.59S140.13,212.39,140.63,213.63Z" style="fill:#263238"></path><path d="M138.32,202.87c1-1.14,2.18-2.2,3.28-3.28s2.22-2.14,3.35-3.19q3.39-3.17,6.82-6.26c.63-.56,1.26-1.13,1.9-1.68s1.44-1.1,2.11-1.69a.06.06,0,0,1,.08.08c-.55.52-1,1.13-1.56,1.67s-1.12,1.1-1.69,1.64l-3.36,3.18c-2.26,2.1-4.52,4.2-6.84,6.23-1.31,1.15-2.6,2.34-4,3.41A.08.08,0,0,1,138.32,202.87Z" style="fill:#263238"></path><path d="M99.24,149.91s3.88,9.87,5.16,11,12.17.5,12.41-.4-4.59-9.88-4.59-9.88a22.63,22.63,0,0,0-7.56-2.09A8.4,8.4,0,0,0,99.24,149.91Z" style="fill:#ad6359"></path><path d="M100.15,150.56c.16,1.1,4.67,8.6,10.64,8.23,3.48-.21,1.11-7.14,1.11-7.14l3-9.47-11.46-8.76S100.09,150.1,100.15,150.56Z" style="fill:#ad6359"></path><path d="M102.22,139.65a19,19,0,0,0,9.85,11.48l2.84-8.95-11.46-8.76S102.89,136.24,102.22,139.65Z" style="fill:#263238"></path><path d="M128.41,128.87c.34,16.28-9.37,18.32-12.88,18.39-3.19.07-14-.13-16.07-16.29s5.44-21.46,12.72-22S128.07,112.58,128.41,128.87Z" style="fill:#ad6359"></path><path d="M124.59,127.56a11,11,0,0,1-1.08-.31,1.8,1.8,0,0,1-1-.53.59.59,0,0,1,.06-.71,1.44,1.44,0,0,1,1.43-.23,2.12,2.12,0,0,1,1.27.85A.62.62,0,0,1,124.59,127.56Z" style="fill:#263238"></path><path d="M113.44,127.06a8.45,8.45,0,0,0,1.11-.15,1.81,1.81,0,0,0,1.11-.37.57.57,0,0,0,0-.7,1.43,1.43,0,0,0-1.39-.44A2.1,2.1,0,0,0,113,126,.62.62,0,0,0,113.44,127.06Z" style="fill:#263238"></path><path d="M115.46,131.34s-.09,0-.09.09c0,1.11-.24,2.38-1.26,2.7a0,0,0,0,0,0,.06C115.35,134.08,115.61,132.4,115.46,131.34Z" style="fill:#263238"></path><path d="M114.53,130.13c-1.78-.22-2.1,3.34-.46,3.55S116,130.32,114.53,130.13Z" style="fill:#263238"></path><path d="M113.81,130.26c-.33.17-.67.5-1,.5s-.73-.4-1-.78c0,0-.06,0-.07,0-.07.68.13,1.4.85,1.57s1.2-.41,1.43-1.08C114,130.39,113.94,130.19,113.81,130.26Z" style="fill:#263238"></path><path d="M122.15,131.45s.08.06.08.11c-.15,1.1-.13,2.38.84,2.85,0,0,0,.07,0,.06C121.85,134.18,121.84,132.47,122.15,131.45Z" style="fill:#263238"></path><path d="M123.25,130.4c1.79,0,1.58,3.61-.08,3.57S121.75,130.36,123.25,130.4Z" style="fill:#263238"></path><path d="M124,130.68c.27.2.53.56.87.6s.7-.32,1-.67c0,0,.06,0,.05,0,0,.68-.28,1.38-1,1.47s-1-.52-1.13-1.21C123.76,130.78,123.87,130.59,124,130.68Z" style="fill:#263238"></path><path d="M115.44,139.86c.23.29.44.68.84.77a2.93,2.93,0,0,0,1.21-.12,0,0,0,0,1,0,.07,1.48,1.48,0,0,1-1.47.4,1.17,1.17,0,0,1-.73-1.09C115.32,139.83,115.41,139.81,115.44,139.86Z" style="fill:#263238"></path><path d="M120.38,136.22s.09,1.67,0,2.45c0,.07-.19.09-.46.09,0,0,0,0,0,0a3.74,3.74,0,0,1-3.49-1.67c-.05-.08.06-.15.13-.1a5.56,5.56,0,0,0,3.3,1.24c.07-.21-.26-2.86-.14-2.86a7.19,7.19,0,0,1,1.74.54c-.11-3.48-.77-6.92-.82-10.39a.11.11,0,0,1,.21,0,57,57,0,0,1,1.36,11.15C122.23,137.09,120.68,136.38,120.38,136.22Z" style="fill:#263238"></path><path d="M119.46,138.3a4,4,0,0,1-1.64,1.18,1.79,1.79,0,0,1-1.1,0c-.78-.23-.78-1-.61-1.58a4.52,4.52,0,0,1,.39-.93A5.16,5.16,0,0,0,119.46,138.3Z" style="fill:#263238"></path><path d="M117.82,139.48a1.79,1.79,0,0,1-1.1,0c-.78-.23-.78-1-.61-1.58A1.88,1.88,0,0,1,117.82,139.48Z" style="fill:#ff9abb"></path><path d="M99.33,131.26c1.8,0,6.76-4.72,7.36-13.41,0,0-1.08,7.77-1.73,8.88s2.77-2.65,3.36-9.65a28.43,28.43,0,0,0,7,4.12c3.26,1.1,5.29,1.18,5.54,1s-4.55-2-5.78-3.61c0,0,8.59,4.57,12.63,5.1.47.06,1.55-9.57-4.51-14s-16.24-.54-19,1.9c0,0-3.17.28-6.83,4.74S97.38,131.27,99.33,131.26Z" style="fill:#263238"></path><path d="M108.55,116.19c0-.2-.32-.2-.31,0a22.76,22.76,0,0,1-1.79,9.27s.06.07.08,0C108,122.49,109,119.56,108.55,116.19Z" style="fill:#263238"></path><path d="M119.57,122.61c-4.69-.81-8.67-2.51-11.63-6.36-.06-.08-.2,0-.14.08,2.38,4.16,7.15,6.07,11.75,6.46C119.64,122.8,119.67,122.63,119.57,122.61Z" style="fill:#263238"></path><path d="M102.22,131.06s-3.21-5.31-5.6-4.19-.2,8.64,2.44,9.82a2.75,2.75,0,0,0,3.78-1.23Z" style="fill:#ad6359"></path><path d="M97.3,129s0,.05,0,.07c1.85.89,2.73,2.71,3.31,4.58a1.52,1.52,0,0,0-2.25-.56s0,.11,0,.1a1.7,1.7,0,0,1,1.82.71,8.25,8.25,0,0,1,.79,1.57c.08.17.39.1.34-.1v0C101.53,132.93,99.88,129.42,97.3,129Z" style="fill:#263238"></path><path d="M116.34,158.21l-9,27.93c-.36.81,0,1.52.83,1.57l14.65,1a2.36,2.36,0,0,0,2.13-1.38l9-27.92a1,1,0,0,0-.84-1.58l-14.65-1A2.39,2.39,0,0,0,116.34,158.21Z" style="fill:#37474f"></path><path d="M118.08,158.31l-9,27.93c-.36.81,0,1.52.83,1.57l14.65,1a2.38,2.38,0,0,0,2.13-1.38l9-27.93a1,1,0,0,0-.83-1.57l-14.66-1A2.39,2.39,0,0,0,118.08,158.31Z" style="fill:#455a64"></path><path d="M122,159.87a1.24,1.24,0,1,1-1.13-1.35A1.24,1.24,0,0,1,122,159.87Z" style="fill:#263238"></path><path d="M60.75,220.43c6.4.88,14.37-4.09,35.05-19.19,2.87-2.08-6.44-26.25-9.62-24.17-4,2.61-18.92,13.61-19.91,14.55C57.92,199.57,56.41,219.84,60.75,220.43Z" style="fill:#ad6359"></path><path d="M78.8,184.38s5.89-8.27,10.33-11.65A35.81,35.81,0,0,1,105,166.29c6.19-.91,21.81,1.17,22,5.77.16,4.17-15.69,1.24-15.69,1.24s16.66.32,15.94,5.37-18.93.6-18.93.6,17.11.72,15.54,5.81c-1.18,3.85-17.91.75-17.91.75s14.71.72,13.66,4.73c-1.16,4.43-16.77,2.54-16.77,2.54-4.38,9.74-10.66,12.49-15.22,14C86.56,207.47,78.8,184.38,78.8,184.38Z" style="fill:#ad6359"></path><path d="M105.59,172.82c2,0,3.94-.08,5.9.06s3.91.35,5.84.67a33.69,33.69,0,0,1,7.4,2c-4.35-1.35-11.34-2-13.3-2.11s-3.89-.38-5.84-.52C105.54,172.89,105.55,172.82,105.59,172.82Z" style="fill:#263238"></path><path d="M105,179.86c2.5.07,5,0,7.49.22s4.83.56,7.3.91c.19,0,.11.12-.08.1-2.48-.25-4.79-.29-7.28-.51s-5-.53-7.44-.66C104.91,179.92,104.92,179.86,105,179.86Z" style="fill:#263238"></path><path d="M103.32,185.81A56.38,56.38,0,0,1,114.75,187c.19,0,.07.15-.12.12-3.79-.47-6.76-.87-11.31-1.19C103.25,185.94,103.24,185.82,103.32,185.81Z" style="fill:#263238"></path><path d="M78.8,181.09,87,210.79s-21.87,12.87-26.7,9.46-1.67-20.55,3.8-27.09C66.33,190.44,78.8,181.09,78.8,181.09Z" style="fill:#FFC727"></path><path d="M79.07,182.08l-.32-1,.08,0c-2.07,1.69-4.14,3.36-6.18,5.06s-4.09,3.4-6,5.2a30.59,30.59,0,0,0-2.78,2.8,23.18,23.18,0,0,0-2.2,3.25A25.22,25.22,0,0,0,59,204.9a21,21,0,0,1,2.14-7.72,19.22,19.22,0,0,1,2.18-3.42,29.76,29.76,0,0,1,2.8-2.92c2-1.8,4-3.48,6.16-5.12s4.28-3.19,6.5-4.67l.06,0,0,.07Z" style="fill:#263238"></path><path d="M74,188.46c.5,1.46.87,3,1.29,4.45s.81,3,1.19,4.47c.75,3,1.49,6,2.2,9,.19.82.38,1.65.56,2.47s.27,1.79.46,2.67a.05.05,0,1,1-.1,0c-.2-.73-.51-1.44-.72-2.16s-.43-1.52-.63-2.28c-.39-1.49-.78-3-1.16-4.48-.76-3-1.51-6-2.17-9-.38-1.71-.8-3.41-1.08-5.13A.08.08,0,0,1,74,188.46Z" style="fill:#263238"></path><path d="M87,210.79c.14.28.13,0,.1-.13s-.37-1.61-.68-2.51c0-.09-.17-.25-.12.07A24.12,24.12,0,0,0,87,210.79Z" style="fill:#263238"></path></g></svg>