<?xml version="1.0" encoding="UTF-8"?><svg xmlns="http://www.w3.org/2000/svg" xmlns:xlink="http://www.w3.org/1999/xlink" viewBox="0 0 1152 1152"><defs><style>.cls-1{clip-path:url(#clippath);}.cls-2,.cls-3{fill:none;}.cls-2,.cls-4,.cls-5,.cls-6,.cls-7,.cls-8,.cls-9,.cls-10{stroke-width:0px;}.cls-3{stroke:#292b2a;stroke-miterlimit:10;stroke-width:2px;}.cls-4{fill:#f7ea99;}.cls-5{fill:#4d2a54;}.cls-6{fill:#2a515e;}.cls-7{fill:#386b7d;}.cls-8{fill:#bd9955;}.cls-9{fill:#331c38;}.cls-10{fill:#eaca00;}</style><clipPath id="clippath"><circle class="cls-2" cx="575.59" cy="576.41" r="574.41"/></clipPath></defs><g id="favicon"><g class="cls-1"><path class="cls-4" d="M1086.43,668.9c-48.13,33.15-64.54,68.5-53.29,114.59,10.83,44.32,47.76,75.02,76.83,92.95,13.5,8.34,27.76,15.54,42.03,21.82v-265.32c-22.97,10.25-45,21.76-65.57,35.97Z"/><path class="cls-10" d="M1076.52,930.6c-56.22-34.72-92.58-80.36-105.21-132.02-17.71-72.44,8.86-133.73,78.98-182.09,32.15-22.18,66.68-38.59,101.7-52.64v-82.47c-5.14,1.67-10.32,3.37-15.43,4.99-69.66,22.2-135.45,43.22-188.1,95.83-.43.46-.91.9-1.34,1.37-8.15,8.23-15.56,17.46-22.11,27.4-30.82,46.97-42.68,112.5-32.56,179.77,3.86,25.53,10.78,50.14,20.65,73.12,4.99,11.64,10.81,23,17.23,33.65,60.17,99.98,173.29,136.76,221.66,148.37v-79.03c-24.98-9.36-51.05-21.18-75.48-36.26Z"/><path class="cls-8" d="M875.82,930.37c-7.94-13.13-15.05-27.08-21.22-41.43-11.98-27.95-20.41-57.81-25.06-88.71-12.44-82.56,2.95-164.27,42.3-224.17,8.81-13.45,18.91-25.93,29.97-37.18.53-.55,1.12-1.12,1.71-1.7,63.53-63.53,139.87-87.87,213.74-111.44,11.78-3.76,23.33-7.46,34.75-11.28v-201.3c-13.16,3.31-26.22,6.95-39.05,11.29-53.22,18.01-115.09,53-169.72,95.97-192.86,151.71-296.9,456.67-144.19,668.85,55.22,76.7,131.6,128.72,187.61,159.54h107.2c25.02,0,46.31-16.14,54.45-38.42-50.72-10.51-194.65-50.75-272.48-180.04Z"/><path class="cls-7" d="M664.61,54.41c5.54,17.35,10.34,35.39,14.28,53.61,5.71,26.35,9.8,53.97,12.14,82.09,10.06,120.46-29.8,212.49-71.97,309.94-10.96,25.26-22.27,51.41-32.69,78.18-10.58,27.15-19.56,54.64-26.69,81.68-9.2,34.71-15.47,69.2-18.64,102.63-14.22,148.32,29.98,277.38,130.89,386.29h197.27c-42.23-31.82-85.66-72.13-121.81-122.36-174.02-241.8-59.57-586.13,156.46-756.08,60.12-47.25,128.87-85.97,188.69-106.2,19.51-6.59,39.36-12.05,59.46-16.5V54.96c0-31.99-26.15-58.15-58.15-58.15h-346.77c-32,0-58.16-26.16-58.16-58.15v-234.75c0-31.98-26.15-58.16-58.15-58.16H58.15c-12.48,0-23.99,4.06-33.49,10.8,422.29,25.51,583,219.19,639.94,397.85Z"/><path class="cls-6" d="M473.49,756.07c3.54-37.08,10.47-75.27,20.6-113.51,7.77-29.5,17.56-59.42,29.06-88.95,10.89-27.93,22.45-54.67,33.66-80.52,40.37-93.29,75.26-173.86,66.61-277.34-2.1-25.18-5.75-49.88-10.85-73.37-3.48-16.15-7.72-32.06-12.6-47.38C530.58-142.63,325.35-261.65,0-276.75V-4.82c54.99-12.91,112.04-23.82,168.41-24.95,18.89-.38,37.22.36,54.52,2.24,17.67,1.92,34.76,5.07,50.81,9.36,97,25.91,157.76,99.66,162.57,197.29,1.84,36.52-2.27,70.75-6.03,93.02-9.05,53.49-23.8,107.22-38.05,159.17-25.85,94.18-52.56,191.51-45.63,289.29,12.23,172.13,84.01,319.87,156.68,428.24h80.61c-103.19-135.52-121.41-277.8-110.4-392.75Z"/><path class="cls-5" d="M278.93,725.39c-7.76-109.33,20.51-212.37,47.87-312.01,14.44-52.69,28.1-102.44,36.58-152.56,3.19-18.93,6.7-47.89,5.16-78.32-3.37-68.71-43.25-116.68-112.3-135.11-12.74-3.41-26.4-5.93-40.64-7.47-14.42-1.56-29.92-2.21-45.83-1.86-55.58,1.11-112.11,12.83-169.78,26.82v147.47c83.51-7.21,200.71,3.01,240.71,106.52,8.52,21.98,12.8,47.21,12.67,74.95-.05,16.65-1.67,34.53-4.82,53.12-9.47,56.17-27.75,109.04-45.41,160.16-21.69,62.79-42.2,122.1-47.1,185.93-.99,12.65-1.59,25.1-1.84,37.4-.53,26.22.55,52.91,3.21,79.34,9.52,94.53,38.24,175.76,68.77,239.06h195.62c-68.57-111.43-130.97-255.79-142.88-423.44Z"/><path class="cls-9" d="M89.91,916.54c-2.91-29.1-4.1-58.55-3.53-87.49.28-13.57.96-27.29,2.02-41.22,5.59-72.53,28.48-138.8,50.64-202.87,17.53-50.75,34.09-98.69,42.63-149.28,2.51-14.99,3.83-29.15,3.88-42.12.07-19.24-2.65-36.15-8.1-50.21-25-64.66-113.12-68.87-177.45-62.47v809.79c0,31.98,26.15,58.16,58.15,58.16h93.19c-27.93-64.32-52.38-142.59-61.44-232.29Z"/></g></g><g id="SGID_30"><polygon id="Inside" class="cls-3" points="-4621.78 5546.48 -4660.04 5546.48 -4611.57 5462.53 -4645.69 5403.44 -4713.93 5403.44 -4748.04 5462.53 -4699.58 5546.48 -4737.84 5546.48 -4786.3 5462.53 -4733.06 5370.3 -4626.56 5370.3 -4573.31 5462.53 -4621.78 5546.48"/><polygon id="Middle" class="cls-3" points="-4483.71 5462.53 -4581.76 5292.7 -4636.12 5292.7 -4636.12 5325.84 -4600.89 5325.84 -4521.97 5462.53 -4600.89 5599.22 -4758.73 5599.22 -4837.65 5462.53 -4758.73 5325.84 -4723.49 5325.84 -4723.49 5292.7 -4777.86 5292.7 -4875.91 5462.53 -4777.86 5632.36 -4581.76 5632.36 -4483.71 5462.53"/><polygon id="Outside" class="cls-3" points="-4394.1 5462.53 -4536.95 5215.1 -4822.66 5215.1 -4965.51 5462.53 -4822.66 5709.96 -4742.8 5709.96 -4742.8 5676.83 -4803.53 5676.83 -4927.25 5462.53 -4803.53 5248.24 -4556.08 5248.24 -4432.36 5462.53 -4556.08 5676.83 -4627.43 5676.83 -4627.43 5709.96 -4536.95 5709.96 -4394.1 5462.53"/></g></svg>
