<?xml version="1.0" encoding="UTF-8"?>
<svg id="Layer_2" data-name="Layer 2" xmlns="http://www.w3.org/2000/svg" viewBox="0 0 479.4049 553.5689">
  <defs>
    <style>
      .cls-1 {
        fill: #071d49;
      }

      .cls-2 {
        fill: #fff;
      }
    </style>
  </defs>
  <g id="Layer_1-2" data-name="Layer 1">
    <g>
      <polygon class="cls-1" points="9 409.9843 9 143.5844 239.7022 10.3925 470.4048 143.5844 470.4048 409.9843 239.7022 543.1766 9 409.9843"/>
      <path class="cls-2" d="M239.7022,20.7844l221.7027,127.9965v256.0071l-221.7027,127.9965L18,404.788V148.7809L239.7022,20.7844M239.7022,0l-8.9998,5.1959L9.0002,133.1923l-9.0002,5.1961v276.792l9.0002,5.1961,221.7022,127.9965,8.9998,5.1959,8.9998-5.1959,221.7027-127.9965,9.0002-5.1961V138.3884l-9.0002-5.1961L248.702,5.1959l-8.9998-5.1959h0Z"/>
    </g>
    <path class="cls-2" d="M304.6627,174.6932c-10.1965,2.6327-32.2995,5.2521-64.8402,5.2521s-54.911-2.6598-65.0271-5.3053c37.5516-35.2532,92.3023-35.2399,129.8673.0532Z"/>
    <path class="cls-2" d="M161.9396,187.7625c5.9469,3.0874,14.4727,4.7442,23.3728,5.974,14.4461,2.0045,33.8099,3.1002,54.5101,3.1002s40.064-1.0957,54.5101-3.1002c8.8069-1.2165,17.2662-2.8467,23.1992-5.8803,7.7378,8.9405,14.4727,18.6557,20.2061,28.9188-24.6692,14.7133-171.2814,14.8203-196.031-.0932,5.7329-10.2635,12.4815-19.9654,20.2194-28.9055l.0133-.0138Z"/>
    <path class="cls-2" d="M134.2368,231.6491c8.0717,4.1825,19.2568,6.5613,29.6269,8.2586,20.1124,3.2742,47.0932,5.0913,75.9588,5.0913s55.8464-1.8038,75.9588-5.0913c10.2769-1.684,21.3683-4.0361,29.4267-8.1521,4.5169,10.2098,8.1116,20.8205,10.7443,31.6984-22.1302,16.6912-209.7285,16.8919-232.5002-.0266,2.646-10.9046,6.2546-21.5419,10.7848-31.7783Z"/>
    <path class="cls-2" d="M119.6971,280.3725c9.3143,3.7284,18.2144,5.5992,32.8745,7.7911,23.0523,3.2876,54.0022,5.0913,87.1439,5.0913s64.0922-1.8038,87.1445-5.0913c11.9337-1.6973,24.0143-3.969,32.834-7.831l6.5352,29.9612-1.5903,1.1489c-30.2556,20.9142-219.8451,20.8476-249.8995,0l-1.577-1.2027,6.5213-29.8675h.0133Z"/>
    <path class="cls-2" d="M372.1489,363.5746c-11.5594,12.0402-47.6411,19.5374-89.7767,22.5039-11.6797-.0932-19.1498-8.0983-21.1681-17.6533-4.9177-23.4931-37.8322-23.5064-42.75,0-2.0178,9.6087-9.5416,17.6399-21.3151,17.6666-42.1755-2.9665-78.2971-10.4632-89.8703-22.5039-2.9931-3.114-4.0755-7.5771-3.1672-11.7734l5.1717-23.7205c7.8981,4.2363,20.246,7.4834,37.7523,10.1028,24.5222,3.6752,57.4367,5.6929,92.6766,5.6929s68.141-2.0178,92.6633-5.6929c17.5063-2.6194,29.868-5.8798,37.7656-10.1028l5.1717,23.7205c.9221,4.1963-.1602,8.6594-3.1672,11.7734l.0133-.0133Z"/>
  </g>
</svg>