<svg xmlns="http://www.w3.org/2000/svg" viewBox="0 0 500 500"><g id="freepik--Floor--inject-1"><path d="M40.1,464.38c134.47-.61,285.33-.61,419.8,0-134.47.62-285.33.62-419.8,0Z" style="fill:#263238"></path></g><g id="freepik--Character--inject-1"><path d="M122.43,176.66S147,300.25,148.78,309.38c.4,2.08-1,112.71-1,112.71h45.73s4.41-96.64,2.2-114.87-30.08-130.56-30.08-130.56Z" style="fill:#f7a9a0"></path><path d="M122.43,176.66s12,60.15,19.82,99.63l23.37-99.63Z" style="opacity:0.1"></path><polygon points="181.13 238.46 132.5 244.3 122.43 176.66 165.61 176.66 181.13 238.46" style="fill:#37474f"></polygon><path d="M134.32,235c5.19-1,10.47-1.68,15.73-2.28s10.43-1.16,15.64-1.69c3-.31,6-.61,9-.76a.14.14,0,1,1,0,.28c-5.21,1-10.49,1.58-15.74,2.27s-10.4,1.33-15.62,1.89c-3,.32-6,.57-9,.69A.2.2,0,1,1,134.32,235Z" style="fill:#263238"></path><path d="M129.16,180.6q5.43,19.43,10.35,39c.46,1.83.9,3.66,1.34,5.5a55.2,55.2,0,0,1,1.22,5.68.09.09,0,0,1-.18,0,97.8,97.8,0,0,1-2.84-9.79c-.87-3.24-1.7-6.48-2.54-9.73-1.67-6.48-3.34-13-4.92-19.48q-1.35-5.58-2.67-11.15A.12.12,0,0,1,129.16,180.6Z" style="fill:#263238"></path><path d="M227.33,464c-2.53.84-74.65.63-77.4-1.11-1-.65-1.62-11.17-2-23.88q-.12-4.12-.18-8.46c-.06-3.41-.1-6.87-.12-10.22-.09-15.06.45-28.33.45-28.33h46.62l0,28.33v10.22l-.24,8.46s27.57,12.44,30.37,14.68S229.84,463.18,227.33,464Z" style="fill:#f7a9a0"></path><path d="M227.33,464c-2.53.84-74.65.63-77.4-1.11-1-.65-1.62-11.17-2-23.88q-.12-4.12-.18-8.46c-.06-3.41-.1-6.87-.12-10.22h47.05v10.22l-.24,8.46s27.57,12.44,30.37,14.68S229.84,463.18,227.33,464Z" style="fill:#dbdbdb"></path><path d="M227.54,464.11c-1.64.54-32.36.65-54.73.19-5.17-.11-9.91-.25-13.72-.42-5.27-.24-8.8-.53-9.37-.89-1.27-.82-1.88-16.24-2.17-32.52h47.19L194.5,439s27.73,12.5,30.55,14.75S230.07,463.26,227.54,464.11Z" style="fill:#FFC727"></path><path d="M226.51,461.21c-12.16-.33-61.22-.53-73.26.06-.1,0-.1.07,0,.08,12,.59,61.1.39,73.26.06C226.77,461.4,226.77,461.22,226.51,461.21Z" style="fill:#263238"></path><path d="M196.22,436.28c-4.78-.9-10.63-.19-14.3,3.21-.14.13.05.33.2.28a67.57,67.57,0,0,1,14.08-2.88A.31.31,0,0,0,196.22,436.28Z" style="fill:#263238"></path><path d="M199.67,438.37c-4.78-.9-10.64-.19-14.3,3.21-.14.13,0,.33.2.29A66.69,66.69,0,0,1,199.65,439,.31.31,0,0,0,199.67,438.37Z" style="fill:#263238"></path><path d="M203.11,440.46c-4.78-.9-10.63-.18-14.3,3.21-.14.13.05.33.21.29a66.73,66.73,0,0,1,14.07-2.89A.31.31,0,0,0,203.11,440.46Z" style="fill:#263238"></path><path d="M206.56,442.56c-4.78-.91-10.63-.19-14.3,3.2-.14.14.05.34.2.29a67,67,0,0,1,14.08-2.89A.3.3,0,0,0,206.56,442.56Z" style="fill:#263238"></path><path d="M205.09,425.24c-1.87-2.59-5.38-1.44-7.38.24a25.6,25.6,0,0,0-7.4,10.93.13.13,0,0,0,.11.18c0,.36.34.75.75.6,4-1.45,8.36-2.52,11.75-5.14C204.9,430.52,206.86,427.7,205.09,425.24Zm-8.37,8.52c-1.93.76-3.88,1.42-5.78,2.26a77,77,0,0,1,4.46-6.3,28.5,28.5,0,0,1,2.54-2.73c1.43-1.29,7.07-4,6.21,1.22C203.68,431.1,199,432.85,196.72,433.76Z" style="fill:#263238"></path><path d="M178.15,435.13c3.94,1.69,8.48,1.62,12.67,2a.59.59,0,0,0,.57-.77.12.12,0,0,0,.07-.19,25.49,25.49,0,0,0-9.9-8.75c-2.35-1.12-6-1.36-7.2,1.62C173.26,431.9,175.86,434.14,178.15,435.13ZM176,431.71c-2.15-4.86,4-3.62,5.71-2.72a26.53,26.53,0,0,1,3.14,2,71.75,71.75,0,0,1,5.89,5c-2-.34-4.1-.49-6.16-.75C182.14,434.93,177.19,434.4,176,431.71Z" style="fill:#263238"></path><path d="M188.39,464.59l-15.58-.28c-5.18-.12-9.91-.26-13.72-.43-5.26-.24-8.8-.53-9.38-.89-1-.62-1.54-9.64-1.89-21.06Z" style="opacity:0.1"></path><path d="M135.5,416.39l-47-.6S97.72,255.38,101.75,222c0,0-7.63-18.08,6.64-45.38h57.27s-3.84,26-10.41,42.45c0,0-4.26,1.15-12,5.41Z" style="fill:#f7a9a0"></path><path d="M142.43,244.66h-45L100.86,222s-6.83-23,6.52-45.38h58.28s-2.42,24.37-9.57,42.7l-7.31,3.25Z" style="fill:#37474f"></path><path d="M148.78,222.57c.05-.29.64-.29.59,0C147,235.94,143.26,242.41,143,243c0,.08-.14.09-.17,0C142.61,242.39,147.7,228.12,148.78,222.57Z" style="fill:#263238"></path><path d="M157.42,218.41a94.28,94.28,0,0,0-14.9,7,.17.17,0,1,0,.14.3c5-2.15,10.14-4.22,15-6.65A.33.33,0,0,0,157.42,218.41Z" style="fill:#263238"></path><path d="M159,184c0-.17-.32-.21-.32,0,0,6-.34,11.2-.84,16.77-.23,2.59-2.32,16.88-6.8,15.84-.75-.17-1.13-.91-1.25-2a18.33,18.33,0,0,1,.59-4.39c.5-3,.9-6,1.16-9a82.38,82.38,0,0,0-.18-16.91.15.15,0,0,0-.29,0,155.68,155.68,0,0,1-1.37,23.34c-.56,3.71-2.43,9.31,1.46,9.88s6.52-8.79,7-11.35A85.88,85.88,0,0,0,159,184Z" style="fill:#263238"></path><path d="M151.18,216.94a22.92,22.92,0,0,0-1,3,6.8,6.8,0,0,0-.42,2.43.17.17,0,0,0,.31.07,8.38,8.38,0,0,0,1-2.37c.35-.92.71-1.83,1-2.75A.5.5,0,0,0,151.18,216.94Z" style="fill:#263238"></path><path d="M109.44,201.45c4.24-.43,8.6-.37,12.53-2.27s6.53-5.7,8.57-9.5a31.28,31.28,0,0,0,2.81-7.46.11.11,0,0,1,.21,0,20.74,20.74,0,0,1-1.73,7,31.47,31.47,0,0,1-3.36,6.23,15.21,15.21,0,0,1-4.84,4.54,16.54,16.54,0,0,1-6.36,1.92,35.44,35.44,0,0,1-7.84,0A.25.25,0,0,1,109.44,201.45Z" style="fill:#263238"></path><path d="M103.61,226.77a40.43,40.43,0,0,0,1.27-6.32c.11-2.12-1-4-1.65-5.92-2.49-7.61-1.48-15.94,1.23-23.34A84.76,84.76,0,0,1,110.31,179c.06-.1.2,0,.15.09-3.71,7.24-7,15-7.71,23.17A31,31,0,0,0,103.83,214c.55,1.8,1.58,3.54,1.74,5.43a19.83,19.83,0,0,1-.93,5.91c-.54,2.37-2.2,9.53-2.93,11.93-.06.21-.43.17-.39-.06C101.65,235.06,103.13,229,103.61,226.77Z" style="fill:#263238"></path><path d="M100.37,238.79c5.29-.39,10.6-.38,15.9-.33s10.49.13,15.73.24c3,.06,6,.13,9,.34a.14.14,0,1,1,0,.28c-5.28.32-10.6.28-15.89.33s-10.49,0-15.73,0c-3-.05-6-.16-9-.41A.21.21,0,1,1,100.37,238.79Z" style="fill:#263238"></path><path d="M168.58,464.27c-2.52.86-74.64,1.37-77.4-.35-1.05-.64-1.74-11.15-2.21-23.86-.1-2.74-.18-5.57-.26-8.46-.09-3.41-.16-6.86-.22-10.21a192.15,192.15,0,0,1,2.11-29.6l44.68.8.26,28.33.09,10.22-.16,8.46S163.17,451.76,166,454,171.09,463.42,168.58,464.27Z" style="fill:#f7a9a0"></path><path d="M168.58,464.27c-2.52.86-74.64,1.37-77.4-.35-1.05-.64-1.74-11.15-2.21-23.86-.1-2.74-.18-5.57-.26-8.46-.09-3.41-.16-6.86-.22-10.21l47.05-.47.09,10.22-.16,8.46S163.17,451.76,166,454,171.09,463.42,168.58,464.27Z" style="fill:#dbdbdb"></path><path d="M168.8,464.37c-1.64.56-32.36,1-54.73.74-5.18-.06-9.91-.16-13.73-.29-5.27-.19-8.8-.44-9.38-.8-1.27-.8-2-16.22-2.48-32.49l47.18-.47-.16,8.51s27.85,12.22,30.7,14.45S171.32,463.5,168.8,464.37Z" style="fill:#FFC727"></path><path d="M167.74,461.48c-12.16-.21-61.22.08-73.26.79-.1,0-.1.07,0,.08,12,.47,61.11-.22,73.26-.67C168,461.67,168,461.49,167.74,461.48Z" style="fill:#263238"></path><path d="M137.2,436.86c-4.79-.86-10.64-.09-14.27,3.35-.14.13,0,.33.21.28a67.35,67.35,0,0,1,14-3A.3.3,0,0,0,137.2,436.86Z" style="fill:#263238"></path><path d="M140.67,438.91c-4.79-.86-10.64-.08-14.27,3.35-.14.14,0,.33.21.28a67.2,67.2,0,0,1,14-3A.31.31,0,0,0,140.67,438.91Z" style="fill:#263238"></path><path d="M144.14,441c-4.8-.86-10.64-.08-14.27,3.35-.14.13,0,.33.2.28a67.31,67.31,0,0,1,14.05-3A.3.3,0,0,0,144.14,441Z" style="fill:#263238"></path><path d="M147.6,443c-4.79-.86-10.63-.09-14.26,3.35-.15.13,0,.33.2.28a67.31,67.31,0,0,1,14.05-3A.3.3,0,0,0,147.6,443Z" style="fill:#263238"></path><path d="M146,425.73c-1.9-2.58-5.39-1.39-7.38.31a25.59,25.59,0,0,0-7.29,11c0,.1,0,.15.12.17a.59.59,0,0,0,.75.59c3.94-1.49,8.34-2.6,11.7-5.25C145.83,431,147.75,428.17,146,425.73Zm-8.29,8.6c-1.92.78-3.87,1.46-5.76,2.31,1.43-2.14,2.76-4.34,4.4-6.34a28.52,28.52,0,0,1,2.52-2.75c1.41-1.31,7-4.1,6.22,1.15C144.61,431.6,140,433.4,137.67,434.33Z" style="fill:#263238"></path><path d="M119.12,435.88c4,1.66,8.49,1.54,12.69,1.92a.59.59,0,0,0,.56-.78.12.12,0,0,0,.07-.19,25.6,25.6,0,0,0-10-8.65c-2.37-1.1-6.06-1.3-7.19,1.69C114.19,432.7,116.81,434.92,119.12,435.88Zm-2.18-3.39c-2.19-4.85,4-3.66,5.68-2.79a28,28,0,0,1,3.17,2c2.12,1.49,4,3.24,5.94,4.92-2-.31-4.11-.44-6.17-.68C123.11,435.64,118.15,435.16,116.94,432.49Z" style="fill:#263238"></path><path d="M163,123.25c22.48,14,36.78,25.71,39.7,35.36,4,13.36-.25,17.54-4.05,18.3-10.37,2.06-33-29.47-41.91-44.18C148.09,118.45,158.08,120.17,163,123.25Z" style="fill:#f7a9a0"></path><path d="M191.28,174.58c-11.39-7.42-27.35-30.05-34.52-41.85-5.91-9.72-3.16-12,.76-11.54Z" style="opacity:0.1"></path><path d="M195,176.63c-8.06-2.16-10.93-17.94-17.22-43.26-1.1-4.44,22.92-26.35,25.34-22.1,3,5.36,9.45,33.87,9.55,41.43C212.79,167.59,204.36,179.14,195,176.63Z" style="fill:#f7a9a0"></path><path d="M184.22,159c-2.94-8.51-5.7-17.27-6.49-26.27,2.14,8.76,4.86,17.38,6.49,26.27Z" style="fill:#263238"></path><path d="M204.77,118.64c-.51-3.5-4.27-19.3-6.3-23.47s-8.74-15.72-12.09-14.49-1.65,4.77-1.65,4.77-3.61-4.43-6.87-2.88-.44,7-.44,7-4-4.28-7.17-2.5.61,6.75.61,6.75-3.51-4.09-5.48-1.54c-2.37,3.07,5,9.87,6.84,14.64.43,1.08,7.17,22.55,7.17,22.55Z" style="fill:#f7a9a0"></path><path d="M170.54,93.35c5.37,5,6.86,8.14,8.69,15.13,0,.14.25.12.22,0-1.17-7-2.46-11.2-8.68-15.38C170.47,92.87,170.29,93.11,170.54,93.35Z" style="fill:#263238"></path><path d="M177,89.14c5.12,5.7,6.76,9.08,9.22,16.26a.09.09,0,0,0,.18-.05c-1.82-7.25-3.21-11.4-9.07-16.42C177.05,88.7,176.75,88.88,177,89.14Z" style="fill:#263238"></path><path d="M184.84,85.82c4.56,5.88,6.51,9.5,8,16.78a.14.14,0,0,0,.27,0c-.8-7.57-3.21-12.11-8.09-16.86C184.7,85.38,184.55,85.45,184.84,85.82Z" style="fill:#263238"></path><path d="M178.94,133.86s-6.82-6.18-9.22-9.56-6.71-19.25-3.33-20.38c4.35-1.45,8.65,7.23,10.2,11.75,0,0,10.07-3.37,14.5,2.19S178.94,133.86,178.94,133.86Z" style="fill:#f7a9a0"></path><path d="M167.71,103.92c4.94,1.54,6.58,7.61,8.41,11.88a.43.43,0,0,0,.68.18c4.32-1.13,10.74-1.47,14.33,1.59a.11.11,0,0,0,.15-.15c-3.4-3.81-9.74-4-14.39-2.45-1.81-4.41-3.73-10.43-9.16-11.1C167.7,103.87,167.68,103.91,167.71,103.92Z" style="fill:#263238"></path><path d="M167.08,168.21l-1.47,8.45-58.23,0s10.94-33.73,29.49-53.92c8-8.7,18.58-4.67,23.34,2.42,1.2,1.79,12.47,22.23,12.64,31.55C173,164.89,167.08,168.21,167.08,168.21Z" style="fill:#FFC727"></path><path d="M166.29,172.76l-.1.55H108.53l.21-.55ZM110.55,168c-.07.19-.15.37-.21.55H167l.06-.36.31-.19Zm2-4.74-.24.55h58.88c.1-.17.2-.36.29-.55Zm2.07-4.74c-.08.19-.17.37-.25.55h58.39l.06-.55Zm58-4.74H116.79l-.27.56h56.1C172.6,154.18,172.56,154,172.52,153.8Zm-1.23-4.74H119.17c-.1.19-.2.37-.29.56h52.59C171.42,149.44,171.36,149.25,171.29,149.06Zm-1.69-4.74H121.72l-.31.56h48.4Zm-2-4.73H124.48a6.16,6.16,0,0,0-.33.55h43.7Zm-2.22-4.74H127.48l-.36.55h38.54Zm-2.4-4.74H130.81c-.15.18-.28.37-.41.55h32.88Zm-2.62-4.74H134.53c-.15.18-.31.36-.46.55H160.7C160.57,125.7,160.46,125.51,160.37,125.37Zm-4.56-4.74H139.12c-.23.17-.46.36-.69.56h18.12A7.57,7.57,0,0,0,155.81,120.63Z" style="fill:#fff"></path><path d="M147.84,164.36a56,56,0,0,1,8.39-.14c1.39.1,2.76.26,4.14.45.69.1,1.38.17,2.06.24a8.76,8.76,0,0,0,2.17,0c.07,0,.08.09,0,.1a13.85,13.85,0,0,1-2,.33,14.68,14.68,0,0,1-2,0c-1.41-.09-2.81-.24-4.22-.34-2.84-.2-5.68-.41-8.53-.41C147.72,164.59,147.71,164.37,147.84,164.36Z" style="fill:#263238"></path><path d="M141.51,168a59.34,59.34,0,0,1,6.74-1.56c1.14-.19,2.28-.32,3.43-.42l1.66-.11c.6,0,1.21,0,1.82,0a.05.05,0,0,1,0,.1c-.56.05-1.13.2-1.69.29l-1.71.27c-1.14.17-2.27.37-3.41.53-2.29.34-4.55.7-6.82,1.11C141.41,168.23,141.39,168.06,141.51,168Z" style="fill:#263238"></path><path d="M140.17,119.65c-31.38,7.21-47.18,15.74-48.06,18.83-4.13,14.42-1,22.57.78,23,11.51,3,33.12-16,49.52-32.52C148.81,122.56,147.66,117.92,140.17,119.65Z" style="fill:#f7a9a0"></path><path d="M146.44,120.37c.05,1.21,4.16,9.77,9.49,10.52,1.74.24,3.48-9.19,3.48-9.19l.29-.67,4-9.34-10.07-9.51-1.47-1.28s-.93,2.62-2.06,5.91c-.05.15-.1.3-.16.46l-.19.54c-.17.48-.35,1-.51,1.49s-.26.75-.38,1.15-.24.8-.37,1.2A63.72,63.72,0,0,0,146.44,120.37Z" style="fill:#f7a9a0"></path><path d="M150.12,106.81A20.42,20.42,0,0,0,159.7,121l4-9.34-10.07-9.51-1.47-1.28S151.25,103.52,150.12,106.81Z" style="fill:#263238"></path><path d="M150.26,97c-2.51,9.17-15.26,17.09-16.21,34.85-.43,8,10.3,19.51,5.08,33.83-1.35,3.71,24.4-12.18,14.86-45.54C151,109.64,150.26,97,150.26,97Z" style="fill:#263238"></path><path d="M153.4,121.91c3.84,11.07,5.51,25.05-2.08,35-2.21,2.9-5.14,5-8.1,7.06a0,0,0,1,1-.05-.08,36.3,36.3,0,0,0,7.24-6.3,24.55,24.55,0,0,0,4.26-8,37.49,37.49,0,0,0,.83-17.83c-.56-3.3-1.47-6.5-2.32-9.73C153.14,121.83,153.35,121.78,153.4,121.91Z" style="fill:#263238"></path><path d="M141.54,110.31c2.57-3.1,5.36-6.09,7.24-9.68a0,0,0,1,1,.07,0c-2.92,5.91-8.09,10.28-11.3,16a31.92,31.92,0,0,0-4.27,17.62,27.1,27.1,0,0,0,2.44,9.47c0,.1-.1.18-.15.08a26.08,26.08,0,0,1-2.44-16.14C134.14,121.16,137.36,115.37,141.54,110.31Z" style="fill:#263238"></path><path d="M150.71,103.88a29,29,0,0,0,1.59,8.69c.94,2.77,2.12,5.45,3.1,8.21,2,5.79,3.25,12,2.48,18.15a26.49,26.49,0,0,1-3.35,9.95s0,0,0,0c3.19-5.66,3.76-12.58,2.81-18.91a49.35,49.35,0,0,0-2.23-8.8c-1-2.72-2.07-5.39-3-8.13a24.85,24.85,0,0,1-1.61-9.14A.1.1,0,0,1,150.71,103.88Z" style="fill:#263238"></path><path d="M147.18,102.39h3.25a2,2,0,0,1,2,2v.11a2,2,0,0,1-2,2h-3.25a2,2,0,0,1-2-2v-.11a2,2,0,0,1,2-2Z" transform="translate(51.64 -49.21) rotate(22.63)" style="fill:#FFC727"></path><path d="M181,101.55c-3.84,17.42-14.71,17.09-18.47,16.25-3.41-.76-14.92-3.77-12.9-21.49s11.35-21.45,19.24-20.13S184.8,84.12,181,101.55Z" style="fill:#f7a9a0"></path><path d="M179.34,96.82a12.14,12.14,0,0,0-1-.74,2,2,0,0,0-1.15-.56.64.64,0,0,0-.58.51,1.58,1.58,0,0,0,.75,1.41,2.3,2.3,0,0,0,1.57.55A.68.68,0,0,0,179.34,96.82Z" style="fill:#263238"></path><path d="M166.67,95.38a12.29,12.29,0,0,1,1.23.08,2,2,0,0,1,1.24.32.62.62,0,0,1,.12.76,1.58,1.58,0,0,1-1.49.59,2.34,2.34,0,0,1-1.55-.59A.68.68,0,0,1,166.67,95.38Z" style="fill:#263238"></path><path d="M168.14,100s-.11,0-.12.08c-.28,1.18-.8,2.49-2,2.59,0,0,0,.06,0,.07C167.39,102.89,168.06,101.14,168.14,100Z" style="fill:#263238"></path><path d="M167.42,98.47c-1.85-.65-3,3.09-1.31,3.7S169,99,167.42,98.47Z" style="fill:#263238"></path><path d="M166.62,98.44a2.9,2.9,0,0,1-1.24.3c-.47-.1-.69-.6-.87-1.07,0,0-.06,0-.08,0a1.44,1.44,0,0,0,.55,1.88c.67.31,1.37-.16,1.78-.83C166.83,98.63,166.78,98.39,166.62,98.44Z" style="fill:#263238"></path><path d="M174.93,102c0-.05.07.08.06.13-.41,1.14-.68,2.52.24,3.24,0,0,0,.08,0,.06C174,104.85,174.36,103,174.93,102Z" style="fill:#263238"></path><path d="M176.35,101.13c1.91.45.86,4.23-.91,3.81S174.75,100.75,176.35,101.13Z" style="fill:#263238"></path><path d="M177.07,101.6c.24.28.44.72.79.85s.82-.18,1.2-.5c0,0,.05,0,0,0-.18.73-.63,1.42-1.36,1.36s-1-.79-.93-1.56C176.81,101.66,177,101.48,177.07,101.6Z" style="fill:#263238"></path><path d="M165,107.29a16.24,16.24,0,0,1,5.34,1.9l.73-2.75c.28.27,1.73,1.56,1.85,1.08a56.61,56.61,0,0,0,2.09-11.9.12.12,0,0,0-.23,0c-1.11,3.78-1.37,7-2.43,10.88a7.2,7.2,0,0,0-1.7-1.17A20.47,20.47,0,0,0,170,108a12.84,12.84,0,0,0-4.74-1C164.53,107.08,164.22,107.15,165,107.29Z" style="fill:#263238"></path><path d="M164.59,107.1c-.8.15-1.66.85-1.28,1.22s1.86.42,2.95.64c.8.17,1.74.8,2.14.28S167.58,106.54,164.59,107.1Z" style="fill:#263238"></path><path d="M166.88,109.15a6.36,6.36,0,0,0-.62-.19c-1.09-.22-2.57-.27-3-.64s.32-.92,1-1.15a3.07,3.07,0,0,1,1.87.74A2.09,2.09,0,0,1,166.88,109.15Z" style="fill:#ff99ba"></path><path d="M161.79,109.07c.2.36.36.83.77,1a3.28,3.28,0,0,0,1.36.1,0,0,0,0,1,0,.08,1.68,1.68,0,0,1-1.69.17,1.33,1.33,0,0,1-.6-1.33A.07.07,0,0,1,161.79,109.07Z" style="fill:#263238"></path><path d="M169.18,117.56c10.64-3.61,14-19.84,12.17-29.73a29.36,29.36,0,0,1,.74,8.67c-.57,8-4.26,18.8-12.91,21.06Z" style="fill:#263238"></path><path d="M149,95.06c2.72,1.34,5.73-4.29,5.73-4.29s5.71,2.3,10.88-5.16a13.62,13.62,0,0,1-5.25,5.78s10.51,3,18.13-3.77c0,0-3.42,3.62-5.61,4.51,0,0,4.69.51,8.13-2.1,0,0-.18,5.58.64,7.47,0,0,6.64-17.8-10.45-22.47,0,0-10.5-3.41-17.41,3.22S149,95.06,149,95.06Z" style="fill:#263238"></path><path d="M152.06,98.25s-2.05-6.48-4.88-5.91-2.45,9.15,0,11.09a3,3,0,0,0,4.34-.33Z" style="fill:#f7a9a0"></path><path d="M147.35,94.8s-.07,0,0,.07c1.73,1.43,2.2,3.6,2.33,5.73a1.67,1.67,0,0,0-2.24-1.18c-.06,0,0,.12,0,.13a1.86,1.86,0,0,1,1.76,1.23,9.09,9.09,0,0,1,.44,1.87c0,.2.38.21.38,0v0C150.84,100.07,150,95.91,147.35,94.8Z" style="fill:#263238"></path><path d="M92.89,161.51c7.86.64,18.44-16,39.19-39.66,2.84-3.26-11.47-30.94-15-28-4.48,3.73-20,26.31-21,27.59C87,132.25,86.09,161,92.89,161.51Z" style="fill:#f7a9a0"></path><path d="M110.53,105.13s3.48-10.86,7.08-16a40.34,40.34,0,0,1,14.83-12.34c6.33-3.1,23.76-6.22,25.54-1.35,1.6,4.4-16.38,6.69-16.38,6.69s18-5.36,18.91.3-20.07,7.13-20.07,7.13,18.29-4.88,18.51.59c.19,4.52-18.79,7.24-18.79,7.24s16-4.27,16.24.39c.28,5.14-17.1,8.46-17.1,8.46-1.35,11.94-6.87,17.07-11.24,20.25C127,127.25,110.53,105.13,110.53,105.13Z" style="fill:#f7a9a0"></path><path d="M135.27,83.58c2.09-.71,4.19-1.44,6.34-2s4.3-1,6.48-1.28a37.75,37.75,0,0,1,8.6-.43c-5.13,0-12.82,1.78-15,2.3s-4.3.93-6.44,1.44C135.23,83.67,135.22,83.6,135.27,83.58Z" style="fill:#263238"></path><path d="M137,91.35c2.7-.79,5.36-1.67,8.1-2.34s5.36-1.05,8.13-1.53c.21,0,.16.09,0,.14-2.74.58-5.23,1.33-8,1.95s-5.49,1.13-8.19,1.84C137,91.42,137,91.36,137,91.35Z" style="fill:#263238"></path><path d="M137.29,98.28a62,62,0,0,1,12.65-2.62c.21,0,.13.13-.09.17-4.22.79-7.54,1.38-12.51,2.59C137.26,98.44,137.2,98.31,137.29,98.28Z" style="fill:#263238"></path><path d="M105.05,153.66c8-8.76,15.3-18.17,22.71-27.44a22.66,22.66,0,0,0,4.44-4,31.2,31.2,0,0,0,6.67-16.44c2.4-.48,4.79-1.09,7.14-1.77,3.23-1,6.77-2,9.3-4.3,2.93-3.54-4.09-3.69-6.23-3.56l-4,.18c4.25-1.23,9.38-2.09,12.84-5a1.66,1.66,0,0,0,.59-1.9c-1.1-2.17-4.44-1.73-6.53-1.54l-.1-.51a31.55,31.55,0,0,0,4-1.15c2.14-.7,6.49-2.93,3.57-5.35a7.12,7.12,0,0,0-4-1.1c2.71-.24,7.13,1.67,4.23,4.71-2.18,1.88-5,2.68-7.73,3.4l-.1-.51c2.48-.44,8-.61,7.31,3.27-.95,2.08-3.34,2.93-5.21,3.82a39.17,39.17,0,0,1-4.83,1.63l-.14-.84c2.46,0,5-.21,7.14,1.3,2.38,2.36-1.2,4.93-3.21,5.83a58.37,58.37,0,0,1-13.54,4.25l.39-.44a32,32,0,0,1-6.94,16.55,19.9,19.9,0,0,1-4.48,3.91c-7.56,9.16-15,18.48-23.33,26.94Z" style="fill:#263238"></path></g><g id="freepik--Symbols--inject-1"><path d="M340.06,229.56a11.15,11.15,0,0,1-7.64-13.95l22.66-80.23a11.28,11.28,0,0,1,13.81-7.89,11.45,11.45,0,0,1,7.84,14l-22.66,80.22A11.32,11.32,0,0,1,340.06,229.56Zm-18.07,23,1.12-4a11.29,11.29,0,0,1,13.81-7.9,11.46,11.46,0,0,1,7.84,14l-1.12,4a11.32,11.32,0,0,1-14,7.84A11.14,11.14,0,0,1,322,252.55Z" style="fill:#FFC727"></path><path d="M307.57,169.15a8.7,8.7,0,0,1-8.94-8.63l-1.78-65.11a8.81,8.81,0,0,1,8.46-9.11,9,9,0,0,1,9.1,8.63L316.19,160A8.84,8.84,0,0,1,307.57,169.15Zm-8.13,21.35-.08-3.22a8.81,8.81,0,0,1,8.46-9.11,9,9,0,0,1,9.1,8.63L317,190a8.85,8.85,0,0,1-8.62,9.11A8.71,8.71,0,0,1,299.44,190.5Z" style="fill:#FFC727"></path></g><g id="freepik--Smoke--inject-1"><polygon points="165.77 63.94 160.66 54.23 164.88 52.92 161.45 44.78 165.94 43.46 166.98 54.33 163.13 55.11 165.77 63.94" style="fill:#455a64"></polygon><polygon points="169.3 68.02 171.56 59.43 174.02 60.7 177.29 55.3 179.95 56.6 174.71 63.4 172.61 61.57 169.3 68.02" style="fill:#455a64"></polygon><polygon points="163.52 68.3 155.82 65.03 157.5 62.56 151.44 59.5 152.64 56.4 159.6 62.11 157.94 64.22 163.52 68.3" style="fill:#455a64"></polygon><g style="opacity:0.5"><path d="M405.48,147.1c3.08,4.76.18,10.48-1.51,15.18-1.49,4.08-2.27,7.28,2.19,9.54,8.16,4.1,17.65,5.41,25.4,10.56a23.26,23.26,0,0,1,11,20.24c-1.09,15.48-20.88,16.1-32.56,13.83-3.24-.7-6.14-2.34-9.32-3-1.34-.17-2.05.37-1.26,1.67,1.37,2.19,3.66,3.55,5.85,4.84,4.54,3.11,10.2,8.86,8.54,14.87-2,5.39-8.86,7.09-13.85,5.21-5.46-1.78-9.76-5.56-14.3-8.72-1.71-.92-1.86,4-1.88,5a35.71,35.71,0,0,0,3.35,15.08,17.77,17.77,0,0,0,4.61,6.11c4.15,3.15,9.86,3.34,14.83,2.62,8.08-1.38,15.5-6.09,22.54.94a23.45,23.45,0,0,1,6.54,21.95,21.43,21.43,0,0,1-8.44,13.1c-9.91,6.85-22.18,8.11-33.55,11-1.51.47-3.19.77-4.32,1.88a8.87,8.87,0,0,0-2.25,6.13c.47,5.81,7.16,6.87,11.43,9.11,9.36,4.24,19.21,11.15,20.91,22,1.41,15.72-10.23,30.75-22.3,39.58-17.2,12.48-39.38,15.67-60.13,13.58,20.73,2,42.89-1.22,60-13.73,12-8.83,23.5-23.76,22.08-39.38-1.72-10.75-11.49-17.49-20.77-21.66-4.43-2.22-11.32-3.46-11.75-9.49a9.36,9.36,0,0,1,2.36-6.5c1.22-1.24,3-1.58,4.58-2.06,11.3-2.86,23.56-4.14,33.35-10.93a20.89,20.89,0,0,0,8.2-12.76,22.85,22.85,0,0,0-6.4-21.35c-6.77-6.81-14.14-2-22-.74-5.14.76-11.09.53-15.37-2.74a18.54,18.54,0,0,1-4.82-6.34A36.45,36.45,0,0,1,383,236.37c0-2.21.45-8,3.84-5.09,4.21,3.05,8.32,6.43,13.31,8.05,8,2.88,17-3.55,11.4-11.86a22.83,22.83,0,0,0-6.76-6.8c-2.5-1.53-5.58-3.17-6.54-6.16-.32-2.56,3-1.94,4.47-1.37a78,78,0,0,0,7.43,2.48c14.9,3,36.9-.31,30.29-20.6-6.77-21.25-41.5-16.5-38.43-29.18,1.27-6.19,6.58-12.37,3.43-18.74Z" style="fill:#263238"></path><path d="M355,396.21c19.81-1.77,35.91-14.72,39.68-34.58.94-4.7,1-9.56-2-13.54-5.54-7.7-13.66-13.07-21.52-18.15-4-2.46-8.1-5-11.44-8.34s-5.89-7.82-5.64-12.66c.42-7.68,5.43-13.69,13.21-14.52,7.05-1,14.2.68,21.15-1.17,4.52-1,9.25-2.31,12.75-5.46s4.84-8.52,2.77-12.6c-2.56-4-8.06-4.5-12.38-5.4-4.15-.79-10-1.23-14-2.68-9.14-3.52-14.47-12.78-16.92-21.82-1.83-6.87-2.45-14.23-.69-21.19,1.45-6.29,5.49-16.28,13.63-13.59a17.06,17.06,0,0,1,6,3.94,41.15,41.15,0,0,0,5.26,4.62,3.82,3.82,0,0,0,3.08.58c4.76-1.59.47-5.36-1.53-7.42-1.66-1.74-3.51-3.37-4.42-5.69a5.08,5.08,0,0,1,.27-3.71c1.22-3.5,5.1-6.33,8.84-5,2.36.79,3.84,2.81,5.84,4.16,3.64,2.6,8.15,5.18,12.73,4.34s7.38-6,7.08-10.35a11.37,11.37,0,0,0-2.49-6.25,13.75,13.75,0,0,0-5.48-4.06c-4.23-2.07-9.06-3.71-11.94-7.73-4.76-6.82,2.08-13.81,4.88-19.84,3.95-8.77.63-12.58-8.56-13.52,10-.46,13.62,4.78,9.4,13.91-2.61,5.87-9.43,12.39-5,18.94,4.17,6,12.91,6.11,17.36,11.77a11.55,11.55,0,0,1-1.73,16.41c-6.48,4.56-14.48-.88-19.51-5.24-2.45-2.53-6.47-2.86-8.9-.14a8.53,8.53,0,0,0-2.25,4.46c-.21,1.69,1,3.13,2,4.4,1.75,2.49,9,7.18,5.3,10.34a4.43,4.43,0,0,1-5.37.23c-4.72-3.12-8.13-9.42-14.44-8.87-5.81,1.14-8.05,8.39-9.41,13.43-1.74,6.86-1.14,14.07.65,20.86,2.4,8.85,7.59,18,16.51,21.41,3.79,1.41,9.81,1.9,13.84,2.67,4.48.94,10.1,1.45,12.77,5.71,2.2,4.36.66,10.09-2.9,13.28s-8.39,4.57-13,5.56c-7,1.84-14.17.12-21.2,1.06-7.61.74-12.57,6.67-13,14.15-.27,4.76,2.2,9.21,5.51,12.5s7.35,5.9,11.36,8.37c7.87,5.11,16,10.48,21.53,18.21,3,4,2.95,8.92,2,13.6-3.8,19.85-19.91,32.83-39.75,34.57Z" style="fill:#263238"></path></g></g><g id="freepik--Lightbulb--inject-1"><g style="opacity:0.4"><path d="M297.14,459.9c-57.61,16.84-92.21-23.32-92.21-23.32-9.8-.18-33.12,3.59-33.12,3.59L148.13,378s19.91-12.69,27.1-19.36c0,0-.89-53,53.32-78.76,37.66-17.9,105.62-12.11,130.45,53l.25.67C384.05,398.67,337.16,448.21,297.14,459.9Z" style="fill:#FFC727"></path></g><g style="opacity:0.4"><path d="M294.37,453.38C241,469,209,431.77,209,431.77c-9.09-.17-38.57,4.87-38.57,4.87l-21-55s25.36-15.87,32-22.05c0,0-.82-49.1,49.4-73,34.89-16.58,97.86-11.22,120.85,49.1l.24.63C374.89,396.64,331.45,442.54,294.37,453.38Z" style="fill:#FFC727"></path></g><rect x="141.11" y="366.7" width="106.56" height="3" transform="translate(-163.46 155.35) rotate(-31.42)" style="fill:#a6a6a6"></rect><rect x="159.6" y="415.21" width="106.56" height="3" transform="translate(-71.06 44.76) rotate(-10.3)" style="fill:#a6a6a6"></rect><path d="M253.93,408.9c-6.64,0-16.53-.9-18.5-6.06a10.89,10.89,0,0,1,.24-8.09c-.57-.07-1.13-.15-1.69-.24-5.06-.81-11.54-2.93-13.63-8.43-1.79-4.7.16-10.91,5.51-17.48.35-.43.71-.85,1.07-1.27-2.69-.95-4.49-2.37-5.17-4.15-3.41-9,14-19.75,14.69-20.21l.52.85c-.17.11-17.39,10.81-14.27,19,.6,1.59,2.33,2.86,5,3.7,7-7.63,16.55-13.1,21.82-12.26a4.73,4.73,0,0,1,3.86,3.1,5.65,5.65,0,0,1-.9,5.84c-3.68,4.51-14.27,6.24-21.86,5a24.6,24.6,0,0,1-2.6-.56c-.46.51-.91,1-1.35,1.57-3,3.64-7.59,10.62-5.35,16.5,1.5,3.93,6.07,6.7,12.86,7.8.64.1,1.3.19,2,.26,2.48-5.11,8.12-9.63,14.23-12,6.64-2.53,11.71-1.66,13.21,2.29a4.33,4.33,0,0,1-.86,4.46c-3.65,4.49-15.54,7.25-26,6.27a9.91,9.91,0,0,0-.29,7.64c2.68,7,23.38,5.18,23.58,5.16l.1,1C259.75,408.67,257.25,408.9,253.93,408.9Zm-16.81-15c10,.83,21.42-1.79,24.79-5.94a3.34,3.34,0,0,0,.69-3.47c-1.53-4-7.16-3.51-11.91-1.7C245.69,384.67,239.76,388.86,237.12,393.88Zm-8.38-27.05c.62.16,1.29.29,2,.41,7.31,1.17,17.46-.43,20.92-4.68a4.62,4.62,0,0,0,.74-4.85,3.71,3.71,0,0,0-3.08-2.46C244.52,354.47,235.44,359.71,228.74,366.83Z" style="fill:#a6a6a6"></path><rect x="96.79" y="394.34" width="83.35" height="45.87" transform="translate(479.1 139.33) rotate(69.14)" style="fill:#455a64"></rect><path d="M128.5,455.55c-9.86-1.48-20.48-7.5-26.86-24.25s-2.46-28.3,3.92-36Z" style="fill:#455a64"></path><path d="M128.5,455.55A30.94,30.94,0,0,1,120,453l-16.32-55.19a28.21,28.21,0,0,1,1.89-2.5Z" style="fill:#37474f"></path><polygon points="167.42 453.45 128.39 373.91 132.13 372.48 171.16 452.02 167.42 453.45" style="fill:#37474f"></polygon><polygon points="156.1 457.76 117.07 378.22 120.81 376.79 159.84 456.33 156.1 457.76" style="fill:#37474f"></polygon><polygon points="144.79 462.07 105.76 382.53 109.5 381.11 148.53 460.64 144.79 462.07" style="fill:#37474f"></polygon><path d="M249.08,289.2c.61,3,16.76,1.12,39.85,10.47,10.26,4.15,29.92,27.24,37.93,22S316.8,296,298.35,289.31C268.66,278.53,248.52,286.4,249.08,289.2Z" style="fill:#fff"></path><path d="M299.55,436.2c2,5.25,10.16,2.15,8.16-3.11S297.54,430.94,299.55,436.2Z" style="fill:#fff"></path><path d="M228.36,433.88c-1.09,3.71,17.08,12.75,34.82,13.19,14.72.36,31.17-4.88,30.77-8.74s-23.37,2.28-33.11,1.16C248.54,438.08,229.53,429.92,228.36,433.88Z" style="fill:#fff"></path><path d="M363.29,391.75c-5.36,20.53-17.75,37.57-32.47,49.77l-12.95-14.1L299.23,424,301,405.34,281.29,400v-9.09l-11.53-1.15,15.74-2.18,4.44,4.88L311,387.6l9.53,14,19.73-11.79,6,6.2Z" style="fill:#fff"></path></g><g id="freepik--Crystal--inject-1"><path d="M424.22,404.9c5.37,20.52,2.9,41.45-4,59.29l-18.19-6-17.92,6.16-7.58-17.17-19.81,5-4.45-7.92L341.68,449l12.66-9.61,6.26,2.09,16-14.57,15.15,7.52,11.44-19.93,8.26,2.47Z" style="fill:#FFC727;opacity:0.4"></path></g></svg>