<svg xmlns="http://www.w3.org/2000/svg" viewBox="0 0 500 500"><g id="freepik--Floor--inject-48"><polygon points="36.71 409.91 90.03 409.67 143.35 409.58 250 409.41 356.64 409.58 409.97 409.67 463.29 409.91 409.97 410.15 356.64 410.24 250 410.41 143.35 410.24 90.03 410.15 36.71 409.91" style="fill:#263238"></polygon></g><g id="freepik--Shadow--inject-48"><ellipse cx="162.17" cy="452.1" rx="125.46" ry="19.49" style="fill:#ebebeb"></ellipse><ellipse cx="410.67" cy="452.1" rx="49.2" ry="12.54" style="fill:#ebebeb"></ellipse></g><g id="freepik--Cheklist--inject-48"><polygon points="406.24 429.62 154.7 429.62 178.06 95.5 429.61 95.5 406.24 429.62" style="fill:#FFC727"></polygon><g style="opacity:0.1"><polygon points="406.24 429.62 154.7 429.62 178.06 95.5 429.61 95.5 406.24 429.62"></polygon></g><polygon points="400.08 429.62 148.53 429.62 171.9 95.5 423.44 95.5 400.08 429.62" style="fill:#FFC727"></polygon><polygon points="388.63 409.84 166.39 412.67 183.6 111.67 405.85 108.84 388.63 409.84" style="fill:#ebebeb"></polygon><polygon points="383.18 413.63 161.51 408.84 189.05 107.89 410.72 112.67 383.18 413.63" style="fill:#dbdbdb"></polygon><polygon points="386.62 411.27 164.56 411.27 185.61 110.25 407.67 110.25 386.62 411.27" style="fill:#fff"></polygon><polygon points="231.92 205.19 209.75 205.19 211.3 183.02 233.47 183.02 231.92 205.19" style="fill:#ebebeb"></polygon><polygon points="317.04 186.27 245.21 186.27 245.44 183.02 317.27 183.02 317.04 186.27" style="fill:#263238"></polygon><polygon points="371.14 192.57 244.77 192.57 245 189.32 371.36 189.32 371.14 192.57" style="fill:#ebebeb"></polygon><polygon points="370.69 198.88 244.33 198.88 244.56 195.63 370.92 195.63 370.69 198.88" style="fill:#ebebeb"></polygon><polygon points="370.25 205.19 243.89 205.19 244.12 201.94 370.48 201.94 370.25 205.19" style="fill:#ebebeb"></polygon><path d="M212.24,193c.77.68,1.5,1.4,2.22,2.11s1.41,1.46,2.12,2.19c1.39,1.48,2.72,3,4,4.53l-2.56.17a111,111,0,0,1,7.75-12.11c1.43-1.94,2.92-3.83,4.5-5.67a60.3,60.3,0,0,1,5.1-5.28,53.64,53.64,0,0,1-2.94,6.65c-1.09,2.14-2.28,4.22-3.54,6.26a110,110,0,0,1-8.32,11.75l-1.52,1.86-1-1.7c-1-1.73-2.08-3.47-3-5.26-.48-.91-1-1.79-1.43-2.71S212.65,193.9,212.24,193Z" style="fill:#FFC727"></path><polygon points="229.02 246.64 206.85 246.64 208.4 224.47 230.57 224.47 229.02 246.64" style="fill:#ebebeb"></polygon><polygon points="314.14 227.72 242.31 227.72 242.54 224.47 314.37 224.47 314.14 227.72" style="fill:#263238"></polygon><polygon points="368.24 234.03 241.87 234.03 242.1 230.78 368.46 230.78 368.24 234.03" style="fill:#ebebeb"></polygon><polygon points="367.8 240.34 241.43 240.34 241.66 237.09 368.02 237.09 367.8 240.34" style="fill:#ebebeb"></polygon><polygon points="367.36 246.64 240.99 246.64 241.22 243.4 367.58 243.4 367.36 246.64" style="fill:#ebebeb"></polygon><path d="M209.34,234.41c.77.68,1.5,1.39,2.22,2.11s1.41,1.46,2.12,2.19c1.39,1.48,2.72,3,4,4.53l-2.55.16a109,109,0,0,1,7.75-12.11c1.42-1.93,2.91-3.82,4.49-5.66a58.93,58.93,0,0,1,5.1-5.28,56.55,56.55,0,0,1-2.93,6.65c-1.1,2.14-2.29,4.22-3.55,6.26A111,111,0,0,1,217.7,245l-1.52,1.86-1-1.7c-1.06-1.73-2.09-3.48-3.06-5.27-.48-.9-1-1.79-1.43-2.7S209.75,235.36,209.34,234.41Z" style="fill:#FFC727"></path><polygon points="226.12 288.1 203.95 288.1 205.5 265.93 227.67 265.93 226.12 288.1" style="fill:#ebebeb"></polygon><polygon points="311.24 269.18 239.41 269.18 239.64 265.93 311.47 265.93 311.24 269.18" style="fill:#263238"></polygon><polygon points="365.34 275.49 238.97 275.49 239.2 272.24 365.57 272.24 365.34 275.49" style="fill:#ebebeb"></polygon><polygon points="364.9 281.79 238.53 281.79 238.76 278.55 365.13 278.55 364.9 281.79" style="fill:#ebebeb"></polygon><polygon points="364.46 288.1 238.09 288.1 238.32 284.85 364.68 284.85 364.46 288.1" style="fill:#ebebeb"></polygon><path d="M206.44,275.87c.77.68,1.5,1.39,2.22,2.11s1.41,1.46,2.12,2.19c1.39,1.47,2.72,3,4,4.53l-2.55.16A110.49,110.49,0,0,1,220,272.75c1.42-1.93,2.91-3.83,4.49-5.66a58.93,58.93,0,0,1,5.1-5.28,55.68,55.68,0,0,1-2.93,6.64c-1.1,2.14-2.29,4.23-3.55,6.27a108.44,108.44,0,0,1-8.32,11.74l-1.52,1.86-1-1.69c-1.06-1.73-2.09-3.48-3.06-5.27-.47-.9-1-1.79-1.43-2.71S206.85,276.82,206.44,275.87Z" style="fill:#FFC727"></path><polygon points="223.22 329.56 201.05 329.56 202.6 307.39 224.77 307.39 223.22 329.56" style="fill:#ebebeb"></polygon><polygon points="308.34 310.64 236.51 310.64 236.74 307.39 308.57 307.39 308.34 310.64" style="fill:#263238"></polygon><polygon points="362.44 316.94 236.07 316.94 236.3 313.69 362.67 313.69 362.44 316.94" style="fill:#ebebeb"></polygon><polygon points="362 323.25 235.63 323.25 235.86 320 362.23 320 362 323.25" style="fill:#ebebeb"></polygon><polygon points="361.56 329.56 235.19 329.56 235.42 326.31 361.79 326.31 361.56 329.56" style="fill:#ebebeb"></polygon><polygon points="220.32 371.01 198.15 371.01 199.7 348.85 221.87 348.85 220.32 371.01" style="fill:#ebebeb"></polygon><polygon points="305.44 352.09 233.62 352.09 233.84 348.85 305.67 348.85 305.44 352.09" style="fill:#263238"></polygon><polygon points="359.54 358.4 233.18 358.4 233.4 355.15 359.77 355.15 359.54 358.4" style="fill:#ebebeb"></polygon><polygon points="359.1 364.71 232.73 364.71 232.96 361.46 359.33 361.46 359.1 364.71" style="fill:#ebebeb"></polygon><polygon points="358.66 371.01 232.29 371.01 232.52 367.76 358.89 367.76 358.66 371.01" style="fill:#ebebeb"></polygon><path d="M255.32,145.44a5.57,5.57,0,0,1,3.53,1.23.41.41,0,0,1-.52.64,4.82,4.82,0,0,0-3.07-1.09,5.4,5.4,0,0,0-5.38,4.93,4.56,4.56,0,0,0,4.7,4.87,5.1,5.1,0,0,0,3.18-1.09.37.37,0,0,1,.55.09.38.38,0,0,1-.08.56,6.27,6.27,0,0,1-3.71,1.22,5.28,5.28,0,0,1-5.43-5.65A6.28,6.28,0,0,1,255.32,145.44Z" style="fill:#263238"></path><path d="M268.44,151.58h-5.76l-.34,4.84a.43.43,0,0,1-.43.38.35.35,0,0,1-.35-.38l.73-10.44a.41.41,0,0,1,.41-.38.35.35,0,0,1,.37.38l-.34,4.83h5.77l.33-4.83a.43.43,0,0,1,.41-.38.36.36,0,0,1,.38.38l-.73,10.44a.44.44,0,0,1-.43.38.36.36,0,0,1-.36-.38Z" style="fill:#263238"></path><path d="M273.63,146a.42.42,0,0,1,.41-.38h5.76a.34.34,0,0,1,.36.38.42.42,0,0,1-.41.4h-5.36l-.31,4.43h4.69a.36.36,0,0,1,.35.4.42.42,0,0,1-.41.39H274l-.31,4.42h5.37a.35.35,0,0,1,.35.4.41.41,0,0,1-.41.38h-5.79a.36.36,0,0,1-.33-.38Z" style="fill:#263238"></path><path d="M288.49,145.44a5.61,5.61,0,0,1,3.53,1.23.39.39,0,0,1,0,.56.38.38,0,0,1-.55.08,4.77,4.77,0,0,0-3.06-1.09,5.42,5.42,0,0,0-5.39,4.93,4.58,4.58,0,0,0,4.71,4.87,5.1,5.1,0,0,0,3.18-1.09.37.37,0,0,1,.55.09.38.38,0,0,1-.09.56,6.22,6.22,0,0,1-3.7,1.22,5.28,5.28,0,0,1-5.43-5.65A6.27,6.27,0,0,1,288.49,145.44Z" style="fill:#263238"></path><path d="M295.45,146a.42.42,0,0,1,.41-.4.37.37,0,0,1,.38.4l-.46,6.48,7.25-6.77a.4.4,0,0,1,.54,0,.39.39,0,0,1,0,.56l-4.59,4.29,4,5.57a.43.43,0,0,1-.11.56.4.4,0,0,1-.26.08.31.31,0,0,1-.28-.14l-4-5.51-2.64,2.47-.19,2.8a.43.43,0,0,1-.43.38.36.36,0,0,1-.36-.38Z" style="fill:#263238"></path><path d="M306.55,156.8h0a.36.36,0,0,1-.36-.38l.73-10.44a.43.43,0,0,1,.42-.38.36.36,0,0,1,.37.38l-.7,10h5.36a.36.36,0,0,1,.37.4.43.43,0,0,1-.43.38Z" style="fill:#263238"></path><path d="M316.09,146a.43.43,0,0,1,.41-.38.36.36,0,0,1,.38.38l-.73,10.44a.43.43,0,0,1-.43.38.36.36,0,0,1-.36-.38Z" style="fill:#263238"></path><path d="M319.74,154.7a.34.34,0,0,1,.5,0,5.75,5.75,0,0,0,3.58,1.44,4.44,4.44,0,0,0,2.52-.74,2.25,2.25,0,0,0,1.07-1.66,1.64,1.64,0,0,0-.8-1.54,6.79,6.79,0,0,0-2.53-.91h0a6.65,6.65,0,0,1-2.58-.95,2.15,2.15,0,0,1-1-2,2.84,2.84,0,0,1,1.31-2.1,4.88,4.88,0,0,1,2.76-.81,5.81,5.81,0,0,1,3.37,1.29.35.35,0,0,1,.06.5.36.36,0,0,1-.49.1,5.15,5.15,0,0,0-3-1.19,4.22,4.22,0,0,0-2.33.67,2.13,2.13,0,0,0-1,1.54,1.49,1.49,0,0,0,.74,1.36,6.08,6.08,0,0,0,2.34.85h0a7.27,7.27,0,0,1,2.78,1,2.32,2.32,0,0,1,1.08,2.12,3.08,3.08,0,0,1-1.42,2.24,5.24,5.24,0,0,1-2.94.88,6.54,6.54,0,0,1-4-1.62A.38.38,0,0,1,319.74,154.7Z" style="fill:#263238"></path><path d="M334.16,146.38h-3.37a.36.36,0,0,1-.36-.4.41.41,0,0,1,.41-.38h7.52a.35.35,0,0,1,.36.38.42.42,0,0,1-.41.4h-3.38l-.7,10a.42.42,0,0,1-.41.38.36.36,0,0,1-.36-.38Z" style="fill:#263238"></path><polygon points="350.31 122.66 241.24 122.66 243.56 89.41 352.63 89.41 350.31 122.66" style="fill:#c7c7c7"></polygon><path d="M332.72,71.22H265L260.75,89.4h74.69ZM298.45,84.3a3.67,3.67,0,0,1-3.71-4,4.35,4.35,0,0,1,4.27-4,3.67,3.67,0,0,1,3.71,4A4.33,4.33,0,0,1,298.45,84.3Z" style="fill:#c7c7c7"></path><polygon points="335.44 89.4 260.75 89.4 261.71 85.33 334.83 85.33 335.44 89.4" style="fill:#a6a6a6"></polygon></g><g id="freepik--Character--inject-48"><path d="M124.94,188.32c1.48,11,9.71,37.26,15.85,38.93,5.72,1.55,30.86-5.94,34.1-10.93,1.73-2.67,8.58-27.2,5.51-25.73-3.88,1.85-32.34,16.24-33.51,15.95-2.47-.62-7.29-10.36-11.46-15.8C126.35,178.86,124.24,183.16,124.94,188.32Z" style="fill:#774442"></path><path d="M142.11,199.28l-12.89,11.81s-4.56-16.87-5.08-24.68S130,179.49,142.11,199.28Z" style="fill:#263238"></path><path d="M89.31,311.22S75.68,332.79,61.73,322.3s3-29.57,3-29.57Z" style="fill:#dd6a57"></path><rect x="114.9" y="141.35" width="30.78" height="179.42" transform="translate(95.65 494.04) rotate(-143.08)" style="fill:#FFC727"></rect><rect x="114.9" y="141.35" width="30.78" height="179.42" transform="translate(95.65 494.04) rotate(-143.08)" style="opacity:0.1"></rect><rect x="59.99" y="297.13" width="35.94" height="7.13" transform="translate(-40.35 587.92) rotate(-143.08)" style="fill:#37474f"></rect><rect x="64.73" y="290.83" width="35.94" height="7.13" transform="translate(-28.04 579.43) rotate(-143.08)" style="fill:#37474f"></rect><path d="M171.86,150.09l22.57-10.75,7.42-3.57-1.31,8.17-4,24.66-5.18,1.7s.26-5.31.25-5.4l-5.18,1.7s.27-5.31.25-5.41l-5.12,1.75s.21-5.35.2-5.45l-5.13,1.75s.21-5.35.2-5.45l-5.12,1.74S171.88,150.18,171.86,150.09Z" style="fill:#ebebeb"></path><polygon points="194.43 139.34 201.85 135.77 200.54 143.94 194.43 139.34" style="fill:#37474f"></polygon><g style="opacity:0.1"><path d="M99.33,285.67c6.67-9.23,13.43-18.38,20.21-27.53L140,230.77l20.6-27.23L170.93,190l10.45-13.5-10.06,13.8L161.18,204l-20.42,27.37L120.15,258.6Q109.8,272.17,99.33,285.67Z"></path><path d="M92.5,281.35c6.67-9.22,13.43-18.38,20.2-27.53l20.43-27.37,20.6-27.23,10.37-13.56,10.45-13.51L164.49,186l-10.14,13.73-20.43,27.37-20.6,27.23C106.41,263.33,99.5,272.38,92.5,281.35Z"></path><path d="M85.66,277c6.68-9.23,13.44-18.38,20.21-27.53l20.42-27.37,20.61-27.23,10.37-13.57,10.45-13.5-10.06,13.8-10.15,13.73-20.42,27.37L106.48,250C99.58,259,92.67,268.06,85.66,277Z"></path></g><path d="M182.85,189.7c.36,3.82,2.78,9.28,2.14,12.06a3.28,3.28,0,0,1-2.89,2.63s2.17,2.29,1.17,4.71c-.52,1.25-3,1.52-3,1.52a3.9,3.9,0,0,1,.63,4c-.81,1.67-3.14,1.69-3.14,1.69s.74,2.58-.64,4c-2.79,2.91-17.82-2.54-18.13-8.92-.14-3,3.46-1.44,3.46-1.44s-4.65-3.45-3.6-6.58,5.6-.85,5.6-.85-4.47-3.39-3.06-6.52,5.64-.2,5.64-.2-2.52-3.48-.89-5.63c2.69-3.55,7.19,3.77,10.77,4.19l3.8-4.78Z" style="fill:#774442"></path><path d="M184.14,195.53c0-3.65,5.39-6.17,5.86-9.66.65-4.72-5.84-2.22-9.25,3.74l-1.83,5.09Z" style="fill:#774442"></path><path d="M177.43,216.38s0,.09,0,.08a27.66,27.66,0,0,1-15.14-6.54c-.13-.12,0-.39.17-.28A56.9,56.9,0,0,0,177.43,216.38Z" style="fill:#263238"></path><path d="M180.37,210.68c.06,0,0,.11,0,.11a26,26,0,0,1-16.08-8.17c-.14-.16-.1-.45.08-.28C167.34,205.3,175.38,209.33,180.37,210.68Z" style="fill:#263238"></path><path d="M166.87,195.38c4.16,4.41,9.32,7.05,15,9,.07,0,0,.13,0,.13-3-.2-6.53-1.81-9.14-3.3a16.09,16.09,0,0,1-6-5.67C166.66,195.43,166.79,195.29,166.87,195.38Z" style="fill:#263238"></path><path d="M181.71,450.58c-1.92.64-56.77.48-58.86-.85-.79-.49-1.23-8.49-1.5-18.16,0-2.09-.1-4.24-.13-6.43,0-2.6-.07-5.22-.09-7.77-.07-11.46.09-21.55.09-21.55h35.71l0,21.55v7.77l-.18,6.43s21,9.46,23.1,11.16S183.62,450,181.71,450.58Z" style="fill:#774442"></path><path d="M181.71,450.58c-1.92.64-56.77.48-58.86-.85-.79-.49-1.23-8.49-1.5-18.16,0-2.09-.1-4.24-.13-6.43,0-2.6-.07-5.22-.09-7.77h35.78v7.77l-.18,6.43s21,9.46,23.1,11.16S183.62,450,181.71,450.58Z" style="fill:#fff"></path><path d="M181.88,450.66c-1.26.41-24.62.5-41.63.15-3.93-.09-7.53-.2-10.44-.32-4-.19-6.69-.41-7.12-.68-1-.62-1.43-12.36-1.65-24.73h35.89l-.19,6.47s21.09,9.5,23.24,11.22S183.8,450,181.88,450.66Z" style="fill:#FFC727"></path><path d="M181.09,448.45c-9.25-.25-46.56-.4-55.72.05-.07,0-.07.06,0,.06,9.16.45,46.47.3,55.72.05C181.28,448.6,181.28,448.46,181.09,448.45Z" style="fill:#263238"></path><path d="M158.05,429.5c-3.63-.69-8.08-.15-10.87,2.44-.11.1,0,.25.15.21A50.67,50.67,0,0,1,158,430,.23.23,0,0,0,158.05,429.5Z" style="fill:#263238"></path><path d="M160.67,431.09c-3.63-.69-8.08-.15-10.87,2.44-.11.1,0,.25.15.21a51.43,51.43,0,0,1,10.71-2.19A.23.23,0,0,0,160.67,431.09Z" style="fill:#263238"></path><path d="M163.3,432.68c-3.64-.69-8.09-.15-10.88,2.44-.11.1,0,.25.16.21a51.21,51.21,0,0,1,10.7-2.19A.23.23,0,0,0,163.3,432.68Z" style="fill:#263238"></path><path d="M165.92,434.27c-3.64-.69-8.09-.15-10.88,2.44-.11.1,0,.25.16.21a51.21,51.21,0,0,1,10.7-2.19A.23.23,0,0,0,165.92,434.27Z" style="fill:#263238"></path><path d="M164.8,421.1c-1.43-2-4.09-1.09-5.61.18a19.37,19.37,0,0,0-5.63,8.32.09.09,0,0,0,.08.13.45.45,0,0,0,.57.45c3-1.1,6.36-1.91,8.94-3.9C164.66,425.12,166.14,423,164.8,421.1Zm-6.37,6.48c-1.47.58-3,1.08-4.39,1.71a56.62,56.62,0,0,1,3.39-4.78,21.12,21.12,0,0,1,1.93-2.08c1.09-1,5.38-3.07,4.73.92C163.73,425.55,160.18,426.89,158.43,427.58Z" style="fill:#263238"></path><path d="M144.31,428.62c3,1.29,6.45,1.23,9.63,1.55a.45.45,0,0,0,.44-.58.1.1,0,0,0,.05-.15,19.38,19.38,0,0,0-7.52-6.65c-1.8-.85-4.6-1-5.48,1.23S142.57,427.87,144.31,428.62Zm-1.63-2.6c-1.63-3.7,3-2.75,4.34-2.07a18.64,18.64,0,0,1,2.39,1.53,55.93,55.93,0,0,1,4.48,3.78c-1.55-.25-3.12-.37-4.68-.56C147.35,428.47,143.58,428.06,142.68,426Z" style="fill:#263238"></path><path d="M109.31,243.65s9.65,95.45,9.88,96.66c0,.16.1,2,.19,5,.52,16.43,1.81,67.66,1.81,67.66h39.37s-2.57-60.68-4-74.84c-1.88-18.06-13.81-94.48-13.81-94.48Z" style="fill:#263238"></path><path d="M123.88,343.68q-1.81-31-5.47-61.9c-1.39-11.6-3-23.15-4.7-34.71,0-.1-.18-.1-.16,0,3,20.58,5.2,41.31,7.06,62s3.16,41.42,4,62.18c.49,11.76.85,22.39,1.23,34.16a.22.22,0,0,0,.43,0C125.72,384.45,125.11,364.61,123.88,343.68Z" style="fill:#455a64"></path><path d="M157.86,406.44c-18-.57-33.48-.16-34.82-.06-1.11.09-.49.2.06.24,15.24.91,34.16.05,34.76,0C158,406.58,158,406.44,157.86,406.44Z" style="fill:#455a64"></path><path d="M109.31,243.65s9.65,95.45,9.88,96.66c0,.16.1,2,.19,5l18.56-101.66Z" style="fill:#455a64"></path><path d="M121.8,458.38c-2,.49-56.64-3.75-58.63-5.24-.75-.55-.6-8.56-.13-18.21.09-2.09.11-4.26.34-6.43.28-2.74.59-5.47.93-8.11,1.42-11.44,3.07-21,3.07-21L102,402l-2.15,20.69L99,431.15l-.66,6.4s20.21,11,22.21,12.85S123.76,457.88,121.8,458.38Z" style="fill:#774442"></path><path d="M121.8,458.38c-2,.49-56.64-3.75-58.63-5.24-.75-.55-.6-8.56-.13-18.21.09-2.09.11-4.26.34-6.43.28-2.74.59-5.47.93-8.11,10.66.75,26,1.7,35.53,2.28L99,431.15l-.66,6.4s20.21,11,22.21,12.85S123.76,457.88,121.8,458.38Z" style="fill:#fff"></path><path d="M122,458.46c-2,.5-57-3.77-58.95-5.25-.92-.69-.51-12.42.2-24.79L99,431.09l-.66,6.44s20.32,11.05,22.33,12.92S123.93,458,122,458.46Z" style="fill:#FFC727"></path><path d="M121.35,456.2c-9.2-.94-46.4-3.87-55.57-4.1-.07,0-.08,0,0,.06,9.1,1.13,46.32,3.76,55.55,4.19C121.53,456.36,121.54,456.22,121.35,456.2Z" style="fill:#263238"></path><path d="M99.78,435.58c-3.57-.95-8-.74-11,1.63-.12.09,0,.25.13.22A51.42,51.42,0,0,1,99.73,436,.23.23,0,0,0,99.78,435.58Z" style="fill:#263238"></path><path d="M102.28,437.36c-3.58-.95-8-.74-11,1.63-.11.09,0,.25.14.22a51.34,51.34,0,0,1,10.84-1.39A.23.23,0,0,0,102.28,437.36Z" style="fill:#263238"></path><path d="M104.78,439.15c-3.58-1-8.06-.75-11,1.62-.12.09,0,.25.14.23a51.26,51.26,0,0,1,10.84-1.4A.23.23,0,0,0,104.78,439.15Z" style="fill:#263238"></path><path d="M107.27,440.93c-3.57-1-8-.75-11,1.62-.12.09,0,.25.13.23a51.43,51.43,0,0,1,10.84-1.4A.23.23,0,0,0,107.27,440.93Z" style="fill:#263238"></path><path d="M107.13,427.71c-1.27-2.07-4-1.39-5.61-.24a19.52,19.52,0,0,0-6.23,7.88c0,.07,0,.12.08.14,0,.27.21.58.53.49,3.08-.87,6.49-1.43,9.21-3.23C106.7,431.71,108.34,429.68,107.13,427.71Zm-6.83,6c-1.5.47-3,.86-4.51,1.38,1.22-1.53,2.37-3.11,3.74-4.52a21.24,21.24,0,0,1,2.09-1.93c1.15-.89,5.59-2.65,4.64,1.28C105.73,432.07,102.1,433.14,100.3,433.7Z" style="fill:#263238"></path><path d="M86.15,433.69c2.89,1.5,6.33,1.7,9.49,2.26.32.06.52-.28.48-.55a.1.1,0,0,0,.06-.14,19.44,19.44,0,0,0-7-7.2c-1.73-1-4.5-1.37-5.56.82S84.46,432.81,86.15,433.69ZM84.71,431c-1.35-3.81,3.25-2.52,4.49-1.74a22,22,0,0,1,2.27,1.7A57.89,57.89,0,0,1,95.65,435c-1.53-.37-3.08-.6-4.63-.91C89.18,433.76,85.45,433.08,84.71,431Z" style="fill:#263238"></path><path d="M142.71,243.65s-1.16,9.72-6.74,16.73c-1.34,1.68-5.43,3.24-7.55,4.78,0,0-7.92,72.78-10.33,81C115.41,355.34,105,418,105,418l-41.13-2.88s12.35-61.46,15.28-76.68c.66-3.4,9.46-67.45,9.27-68.93-2.37-17.64,6.21-25.81,6.21-25.81Z" style="fill:#263238"></path><path d="M110.91,244.72a13.12,13.12,0,0,1-4.82,6.92,16.27,16.27,0,0,1-8.75,3c-.53,0-.57.84,0,.85,6.42,0,12.91-4.07,13.85-10.73C111.19,244.61,111,244.58,110.91,244.72Z" style="fill:#455a64"></path><path d="M136.73,260.09a35.11,35.11,0,0,0-6.63,3.52c-2.2,1.36-4.24,3-6.37,4.43-.08.06,0,.19.08.14,2.23-1.28,4.55-2.4,6.76-3.72a42,42,0,0,0,6.26-4.2C136.9,260.2,136.83,260.05,136.73,260.09Z" style="fill:#455a64"></path><path d="M137.64,246.7c-.35,1.47-.77,2.93-1.16,4.39s-.65,2.77-1.08,4.12a7,7,0,0,1-2.1,3.4c-.56.48-1.18.89-1.78,1.33l-1,.7c.05-.2.1-.4.14-.6.13-.55.25-1.11.37-1.67.26-1.24.52-2.48.77-3.73.49-2.44,1-4.91,1.57-7.32a.08.08,0,0,0-.15,0c-.72,2.39-1.51,4.75-2.15,7.16-.32,1.18-1.52,7-1.58,7.45s-.12.86-.16,1.29a5.32,5.32,0,0,0-.06,1.32.11.11,0,0,0,.2,0h0a4.94,4.94,0,0,0,.43-1.26c.13-.42.24-.84.34-1.26l.09-.47c.6-.33,1.16-.77,1.72-1.14s1.22-.78,1.79-1.22a6.62,6.62,0,0,0,2.27-3.21,24.26,24.26,0,0,0,.89-4.21c.26-1.66.48-3.34.79-5C137.81,246.65,137.66,246.6,137.64,246.7Z" style="fill:#455a64"></path><path d="M103,410.84c-17.84-2-33.35-2.84-34.69-2.85-1.12,0-.51.16,0,.24,15.11,2.13,34,2.79,34.65,2.77A.08.08,0,0,0,103,410.84Z" style="fill:#455a64"></path><path d="M141.72,223.73l3.35,27.64s-44.89-.4-56-1.45c0,0,10.3-51.27,22.59-64,6.14-6.36,13.16-5.71,17.54-1.05,1.11,1.17,14.22,19.38,15.48,26.25C145.77,217.19,141.72,223.73,141.72,223.73Z" style="fill:#FFC727"></path><path d="M122.36,201.16a2.18,2.18,0,0,1,1.17-.06,1.12,1.12,0,0,1,.73,1,.85.85,0,0,0,.4.75.77.77,0,0,0,.46.15c.19,0,.37.06.56.11a2,2,0,0,1-1.17,0,1.1,1.1,0,0,1-.69-1,.91.91,0,0,0-.43-.74,1,1,0,0,0-.47-.13C122.73,201.23,122.55,201.21,122.36,201.16Z" style="fill:#fff"></path><path d="M132.61,237.81a2.18,2.18,0,0,1,1.17-.06,1.11,1.11,0,0,1,.72,1,.88.88,0,0,0,.4.75,1,1,0,0,0,.47.15c.18,0,.37.06.55.11a2,2,0,0,1-1.17,0,1.14,1.14,0,0,1-.69-1.05.85.85,0,0,0-.42-.73,1,1,0,0,0-.48-.14A5.3,5.3,0,0,1,132.61,237.81Z" style="fill:#fff"></path><path d="M116.07,186.48a1.92,1.92,0,0,1-1.17.05,1.15,1.15,0,0,1-.69-1.05.85.85,0,0,0-.42-.73,1,1,0,0,0-.48-.14l-.21,0,.22-.18a1.3,1.3,0,0,1,.61.05,1.12,1.12,0,0,1,.72,1,.9.9,0,0,0,.4.76,1,1,0,0,0,.47.15A5.3,5.3,0,0,1,116.07,186.48Z" style="fill:#fff"></path><path d="M107.83,216.49a2.29,2.29,0,0,1,1.17-.06,1.13,1.13,0,0,1,.73,1,.88.88,0,0,0,.4.76.93.93,0,0,0,.46.15l.56.1a1.93,1.93,0,0,1-1.17.05,1.11,1.11,0,0,1-.69-1.05.88.88,0,0,0-.43-.73,1,1,0,0,0-.47-.14C108.2,216.56,108,216.54,107.83,216.49Z" style="fill:#fff"></path><path d="M131.51,251.2H131a1.15,1.15,0,0,1-.1-.48.86.86,0,0,0-.43-.73.93.93,0,0,0-.47-.14,5.3,5.3,0,0,1-.55-.1,2.15,2.15,0,0,1,1.16-.06,1.12,1.12,0,0,1,.73,1A.77.77,0,0,0,131.51,251.2Z" style="fill:#fff"></path><path d="M118.94,232a2.18,2.18,0,0,1,1.17-.06,1.1,1.1,0,0,1,.72,1,.89.89,0,0,0,.41.75.84.84,0,0,0,.46.15c.18,0,.37.06.55.11a2,2,0,0,1-1.16,0,1.11,1.11,0,0,1-.69-1,.91.91,0,0,0-.43-.74,1,1,0,0,0-.47-.13C119.31,232.1,119.13,232.08,118.94,232Z" style="fill:#fff"></path><path d="M94.79,229.52a2.67,2.67,0,0,1-.94.1c0-.09.05-.18.08-.28a.94.94,0,0,0,.31.07C94.42,229.45,94.61,229.47,94.79,229.52Z" style="fill:#fff"></path><path d="M99,235.31a2.18,2.18,0,0,1,1.17-.06,1.11,1.11,0,0,1,.72,1,.88.88,0,0,0,.4.75.9.9,0,0,0,.47.15c.18,0,.37.06.55.11a2,2,0,0,1-1.17,0,1.14,1.14,0,0,1-.69-1.05.85.85,0,0,0-.42-.73.9.9,0,0,0-.48-.13C99.38,235.38,99.19,235.36,99,235.31Z" style="fill:#fff"></path><path d="M128.12,216.94a2.09,2.09,0,0,1,1.17-.06,1.11,1.11,0,0,1,.72,1,.9.9,0,0,0,.4.76,1,1,0,0,0,.47.15c.18,0,.37.06.55.11a2,2,0,0,1-1.17,0,1.14,1.14,0,0,1-.69-1.05.85.85,0,0,0-.42-.73,1,1,0,0,0-.48-.14A5.3,5.3,0,0,1,128.12,216.94Z" style="fill:#fff"></path><path d="M115.71,195.4a2.14,2.14,0,0,1-.78.87,1.13,1.13,0,0,1-1.24-.22.91.91,0,0,0-.82-.25.93.93,0,0,0-.43.22c-.16.11-.3.22-.47.32.22-.3.37-.67.8-.86a1.13,1.13,0,0,1,1.23.26.89.89,0,0,0,.82.21,1,1,0,0,0,.43-.23A4.73,4.73,0,0,1,115.71,195.4Z" style="fill:#fff"></path><path d="M144.43,216.47c-.22.3-.37.66-.78.86a1.1,1.1,0,0,1-1.24-.21.9.9,0,0,0-1.25,0l-.47.32a2,2,0,0,1,.79-.86,1.14,1.14,0,0,1,1.23.25.87.87,0,0,0,.82.22,1,1,0,0,0,.43-.24C144.12,216.68,144.26,216.56,144.43,216.47Z" style="fill:#fff"></path><path d="M125,188a2.18,2.18,0,0,1,.06,1.17,1.1,1.1,0,0,1-1,.72.89.89,0,0,0-.75.41.84.84,0,0,0-.15.46c0,.18-.06.37-.11.55a2,2,0,0,1,0-1.17,1.11,1.11,0,0,1,1-.68.9.9,0,0,0,.74-.43,1,1,0,0,0,.13-.47C124.94,188.35,125,188.17,125,188Z" style="fill:#fff"></path><path d="M120.6,220.55a2.15,2.15,0,0,1,.06,1.16,1.12,1.12,0,0,1-1,.73.87.87,0,0,0-.75.4.79.79,0,0,0-.15.46c0,.19-.06.37-.11.56a2,2,0,0,1-.05-1.17,1.14,1.14,0,0,1,1.05-.69.84.84,0,0,0,.73-.43.93.93,0,0,0,.14-.47C120.53,220.92,120.55,220.73,120.6,220.55Z" style="fill:#fff"></path><path d="M143.55,244.78a2.18,2.18,0,0,1,.06,1.17,1.11,1.11,0,0,1-1,.72.87.87,0,0,0-.75.4.82.82,0,0,0-.15.47c0,.18-.06.37-.11.55a2.09,2.09,0,0,1,0-1.17,1.15,1.15,0,0,1,1-.69.88.88,0,0,0,.74-.42,1,1,0,0,0,.13-.48C143.48,245.15,143.5,245,143.55,244.78Z" style="fill:#fff"></path><path d="M102.65,221.71a2.29,2.29,0,0,1,.06,1.17,1.11,1.11,0,0,1-1,.72.91.91,0,0,0-.76.41.93.93,0,0,0-.15.46c0,.18,0,.37-.1.56a1.93,1.93,0,0,1,0-1.17,1.12,1.12,0,0,1,1-.69.88.88,0,0,0,.73-.43,1,1,0,0,0,.14-.47C102.58,222.08,102.6,221.9,102.65,221.71Z" style="fill:#fff"></path><path d="M111.43,202.86a2.18,2.18,0,0,1,.07,1.17,1.14,1.14,0,0,1-1,.73.88.88,0,0,0-.76.4.93.93,0,0,0-.15.46c0,.19-.06.37-.11.56a2,2,0,0,1,0-1.17,1.11,1.11,0,0,1,1-.69.88.88,0,0,0,.73-.43,1,1,0,0,0,.14-.47A5.48,5.48,0,0,1,111.43,202.86Z" style="fill:#fff"></path><path d="M137.13,206.81a2.18,2.18,0,0,1,.06,1.17,1.1,1.1,0,0,1-1,.72.88.88,0,0,0-.75.41.84.84,0,0,0-.15.46c0,.18-.06.37-.11.55a2,2,0,0,1,0-1.17,1.11,1.11,0,0,1,1-.68.91.91,0,0,0,.74-.43,1,1,0,0,0,.13-.47C137.06,207.18,137.08,207,137.13,206.81Z" style="fill:#fff"></path><path d="M113.38,239.79a2.18,2.18,0,0,1,.06,1.17,1.11,1.11,0,0,1-1,.72.88.88,0,0,0-.75.4.9.9,0,0,0-.15.47c0,.18-.06.37-.11.55a2,2,0,0,1,0-1.17,1.14,1.14,0,0,1,1-.69.86.86,0,0,0,.74-.42,1,1,0,0,0,.13-.48C113.31,240.16,113.33,240,113.38,239.79Z" style="fill:#fff"></path><path d="M105,244.78A2.18,2.18,0,0,1,105,246a1.12,1.12,0,0,1-1,.72.9.9,0,0,0-.76.4,1,1,0,0,0-.15.47,5.3,5.3,0,0,1-.1.55,1.92,1.92,0,0,1,0-1.17,1.15,1.15,0,0,1,1-.69.85.85,0,0,0,.73-.42,1,1,0,0,0,.14-.48C104.9,245.15,104.92,245,105,244.78Z" style="fill:#fff"></path><path d="M132.4,196.33a2,2,0,0,1,.78-.87,1.11,1.11,0,0,1,1.24.21.9.9,0,0,0,1.25,0c.16-.1.3-.22.47-.32a2,2,0,0,1-.8.86,1.11,1.11,0,0,1-1.22-.25.89.89,0,0,0-.83-.22,1,1,0,0,0-.43.24C132.71,196.11,132.56,196.23,132.4,196.33Z" style="fill:#fff"></path><path d="M117.74,211.07a2,2,0,0,1,.78-.87,1.11,1.11,0,0,1,1.24.21.9.9,0,0,0,1.25,0c.16-.1.3-.22.47-.32a1.94,1.94,0,0,1-.8.86,1.11,1.11,0,0,1-1.22-.25.87.87,0,0,0-.82-.22,1,1,0,0,0-.44.24C118.05,210.85,117.9,211,117.74,211.07Z" style="fill:#fff"></path><path d="M107.58,231.07a2.22,2.22,0,0,1,.78-.87,1.12,1.12,0,0,1,1.24.21.87.87,0,0,0,.82.25,1,1,0,0,0,.44-.22c.15-.1.3-.22.46-.31-.21.3-.36.67-.79.85a1.13,1.13,0,0,1-1.23-.25.87.87,0,0,0-.82-.22,1,1,0,0,0-.43.24C107.89,230.86,107.75,231,107.58,231.07Z" style="fill:#fff"></path><path d="M115.71,250.91s0,0,0,0h0Z" style="fill:#fff"></path><path d="M131.62,229a2.29,2.29,0,0,1,.78-.87,1.12,1.12,0,0,1,1.24.22.92.92,0,0,0,.82.25,1,1,0,0,0,.44-.22,4.73,4.73,0,0,1,.46-.32,2,2,0,0,1-.79.86,1.13,1.13,0,0,1-1.23-.26.86.86,0,0,0-.82-.21,1,1,0,0,0-.43.23A4.87,4.87,0,0,1,131.62,229Z" style="fill:#fff"></path><path d="M122.4,243.57a2.14,2.14,0,0,1,.78-.87,1.13,1.13,0,0,1,1.24.22.88.88,0,0,0,.82.25.93.93,0,0,0,.43-.22c.16-.11.3-.22.47-.32a2,2,0,0,1-.8.86,1.13,1.13,0,0,1-1.23-.26.89.89,0,0,0-.82-.21.94.94,0,0,0-.43.24C122.71,243.36,122.56,243.48,122.4,243.57Z" style="fill:#fff"></path><path d="M93.35,240.69c-.21.31-.37.68-.8.86a1.11,1.11,0,0,1-1.22-.25.73.73,0,0,0-.33-.19c0-.13.07-.27.1-.41a1.18,1.18,0,0,1,.53.28.86.86,0,0,0,.82.25.89.89,0,0,0,.43-.22C93,240.91,93.18,240.79,93.35,240.69Z" style="fill:#fff"></path><path d="M99.78,211.54a2.18,2.18,0,0,1,.79-.87,1.12,1.12,0,0,1,1.24.21.86.86,0,0,0,.82.25.93.93,0,0,0,.43-.22c.16-.1.3-.22.47-.32-.22.31-.37.68-.8.86a1.13,1.13,0,0,1-1.23-.25.87.87,0,0,0-.82-.22,1,1,0,0,0-.43.24A5.52,5.52,0,0,1,99.78,211.54Z" style="fill:#fff"></path><path d="M143.47,238.45c-.44-2.53-.76-4.51-1.13-7s-.75-5.07-1.08-7.61l0-.17.11-.16a19.22,19.22,0,0,0,2.69-6.33,14,14,0,0,0,.38-3.41,11.75,11.75,0,0,0-.46-3.39,40.1,40.1,0,0,0-2.66-6.51c-1.06-2.11-1.93-3.88-3.11-5.94-.2-.32-.07-.39.11-.14,1.19,1.69,2.49,4,3.51,5.81a36.13,36.13,0,0,1,3,6.53,12,12,0,0,1,.58,3.63,14.87,14.87,0,0,1-.38,3.64,19,19,0,0,1-2.92,6.66l.08-.33c.29,2.55.53,5.1.77,7.65.23,2.29.49,4.77.65,7.07C143.61,238.66,143.62,239.38,143.47,238.45Z" style="fill:#263238"></path><path d="M140.36,199.83a11.59,11.59,0,0,1,1.19,2.39,9.41,9.41,0,0,1,.38,1.28,5.48,5.48,0,0,1,.18,1.34c-.38-.82-.73-1.62-1-2.45A14.7,14.7,0,0,1,140.36,199.83Z" style="fill:#263238"></path><path d="M113.81,191.69c-3.65,5.51-20.9,27.2-21.54,29.28s3.27,6.4,3.23,7.25c-.15,3.45-8.84,24.23-11.92,22-4-2.89-18.51-21.12-16.58-30.73s39-33.57,45.1-35.82S117.41,186.26,113.81,191.69Z" style="fill:#774442"></path><path d="M99.8,257.7c2.34-2.21-1.61-3.7-1.61-3.7s6.2.78,7.73-2.43-3.37-4.73-3.71-4.86c.33,0,6,.61,7.24-2.78s-3.88-4.32-4.21-4.37c.32-.07,4.55-.95,4.88-3.73.56-4.77-11.76-3.29-14.86-5.64,0,0,.2-6.22.26-6.4a7,7,0,0,1-3,3.52c-2.53,1.19-4.84,2-5.71,3.46a3.52,3.52,0,0,0,.29,4.19s-3.41.17-4.44,2.8c-.53,1.36,1.17,3.4,1.17,3.4a4.2,4.2,0,0,0-3.49,2.65c-.62,1.91,1.18,3.66,1.18,3.66S79,248.92,79,251.08C79,255.44,94.79,262.43,99.8,257.7Z" style="fill:#774442"></path><path d="M81.77,247.8s-.1,0,0,.07A29.9,29.9,0,0,0,98.4,254.1c.19,0,.28-.3.07-.35A61.21,61.21,0,0,1,81.77,247.8Z" style="fill:#263238"></path><path d="M83.75,241.16c-.06,0-.11.06-.06.11a28.08,28.08,0,0,0,18.62,5.67c.24,0,.43-.28.16-.27C97.92,246.72,88.64,243.84,83.75,241.16Z" style="fill:#263238"></path><path d="M105.7,239.35c-6.54.32-12.52-1.48-18.4-4.22-.08,0-.12.07-.07.12,2.51,2.13,6.44,3.48,9.59,4.28a17.29,17.29,0,0,0,8.89.05C105.82,239.55,105.84,239.34,105.7,239.35Z" style="fill:#263238"></path><path d="M81.35,247.49a4.15,4.15,0,0,1-1.63-4A3.09,3.09,0,0,1,81,241.68a5.42,5.42,0,0,1,2.47-.64,4.07,4.07,0,0,1-.81-4.53,3,3,0,0,1,1.77-1.36,10.25,10.25,0,0,1,2.63-.32,3.63,3.63,0,0,1-1.27-3,3.9,3.9,0,0,1,1.94-3,18.34,18.34,0,0,1,4-1.65,9.47,9.47,0,0,0,2-.93,4.22,4.22,0,0,0,1.5-1.86c.06-.13.07,0,0,.11a5,5,0,0,1-.83,1.41,6.43,6.43,0,0,1-1.28,1.16,26.92,26.92,0,0,1-3.75,1.8,5.65,5.65,0,0,0-2.64,2.45,3.34,3.34,0,0,0,.46,3.48.09.09,0,0,1-.07.14,9,9,0,0,0-2.29.65,3.28,3.28,0,0,0-1.47,1.28,4.27,4.27,0,0,0,.49,4.24,7.29,7.29,0,0,0-2.34,1,3.08,3.08,0,0,0-1,1.47,3.67,3.67,0,0,0,1,3.74.17.17,0,0,1,0,.05h0s0,0,0,0,0,0,0,.05h0s-.79.49-.84.5,0,0,0,0A5.3,5.3,0,0,1,81.35,247.49Z" style="fill:#263238"></path><path d="M104.45,205.07,89.16,196.6s15.58-10.34,22.82-13.31S119.38,187.33,104.45,205.07Z" style="fill:#263238"></path><path d="M119.61,179.94c-2.43,1-3.11,2.74-2.35,4.78.84,2.29,7.87,6.74,10.79,5.24,2.52-1.3.34-7.33-1-8.69A7.52,7.52,0,0,0,119.61,179.94Z" style="fill:#263238"></path><path d="M118,184.19c.37.83,5.6,5.64,9.52,4.68,1.28-.32-.13-7.36-.13-7.36l0-.55.2-7.61L118,169.53l-1.38-.48s.08,2.08.21,4.68c0,.12,0,.24,0,.37s0,.28,0,.42c0,.39,0,.79.05,1.18s0,.59.07.91,0,.62.07.94A47.91,47.91,0,0,0,118,184.19Z" style="fill:#774442"></path><path d="M116.79,173.73A15.26,15.26,0,0,0,127.4,181l.2-7.61L118,169.53l-1.38-.48S116.66,171.13,116.79,173.73Z" style="fill:#263238"></path><path d="M136.51,161.59c1.91,13.23-5.79,15.86-8.65,16.27-2.59.37-11.45,1.31-14.72-11.65s2.28-18,8.16-19.19S134.6,148.36,136.51,161.59Z" style="fill:#774442"></path><path d="M133,158.41a7,7,0,0,1-.92-.06,1.43,1.43,0,0,1-.93-.24.46.46,0,0,1-.08-.57,1.16,1.16,0,0,1,1.11-.44,1.72,1.72,0,0,1,1.16.45A.51.51,0,0,1,133,158.41Z" style="fill:#263238"></path><path d="M124.12,160.05a8.89,8.89,0,0,0,.86-.32,1.51,1.51,0,0,0,.83-.49.49.49,0,0,0-.09-.58,1.18,1.18,0,0,0-1.19-.1,1.75,1.75,0,0,0-1,.76A.51.51,0,0,0,124.12,160.05Z" style="fill:#263238"></path><path d="M126.82,163s-.07.06-.06.09c.18.9.24,1.95-.52,2.38,0,0,0,.06,0,.05C127.22,165.22,127.13,163.82,126.82,163Z" style="fill:#263238"></path><path d="M125.86,162.2c-1.46.14-1.09,3.05.27,2.92S127.08,162.09,125.86,162.2Z" style="fill:#263238"></path><path d="M125.31,162.43c-.24.2-.45.52-.75.59s-.66-.19-.93-.45c0,0,0,0,0,0,.07.56.36,1.1,1,1.11s.88-.54,1-1.12C125.51,162.49,125.4,162.35,125.31,162.43Z" style="fill:#263238"></path><path d="M131.76,162s.08,0,.08.07c.08.91.33,1.93,1.18,2.14a0,0,0,0,1,0,.05C132,164.2,131.69,162.83,131.76,162Z" style="fill:#263238"></path><path d="M132.45,160.92c1.44-.29,1.91,2.61.58,2.88S131.25,161.16,132.45,160.92Z" style="fill:#263238"></path><path d="M133.09,161c.25.12.53.36.8.34s.51-.39.66-.72c0,0,0,0,0,0,.11.55,0,1.15-.5,1.35s-.9-.25-1.12-.78C132.93,161.13,133,161,133.09,161Z" style="fill:#263238"></path><path d="M127.6,170.33c.23.19.48.47.81.47a2.47,2.47,0,0,0,1-.31,0,0,0,0,1,0,0,1.23,1.23,0,0,1-1.11.59,1,1,0,0,1-.78-.74A0,0,0,0,1,127.6,170.33Z" style="fill:#263238"></path><path d="M130.91,166.54s.37,1.32.46,2c0,.06-.14.11-.35.16h0a3.07,3.07,0,0,1-3.09-.71.07.07,0,0,1,.08-.11,4.62,4.62,0,0,0,2.87.41c0-.19-.72-2.24-.62-2.26a5.61,5.61,0,0,1,1.49.12c-.7-2.77-1.85-5.41-2.5-8.18a.09.09,0,0,1,.16-.06,46.31,46.31,0,0,1,3.07,8.69C132.55,166.9,131.18,166.61,130.91,166.54Z" style="fill:#263238"></path><path d="M113.13,165.13c3.14-.22,2.73-5.16,2.73-5.16s3.54-.6,3.35-6.36a8.72,8.72,0,0,0,6.86,3.66c1,.07-2.59-2.31-2.59-2.31s4.39,3.4,11.89,1.4c.53-.14-.71-8.91-6.9-11.18s-12,.52-15.37,4.57c0,0-4.22,2.35-4.39,6.54S111.91,165.21,113.13,165.13Z" style="fill:#263238"></path><path d="M125,168.15a4.3,4.3,0,1,1,3.85-5.6h0a4.29,4.29,0,0,1-3.85,5.6Zm-.47-8a3.73,3.73,0,1,0,3.78,2.6A3.73,3.73,0,0,0,124.57,160.13Z" style="fill:#FFC727"></path><path d="M134.76,166.38c-1.64.1-3.23-1.5-3.63-3.71a5.16,5.16,0,0,1,.38-3.12,2.68,2.68,0,0,1,4.52-.8,5.14,5.14,0,0,1,1.42,2.8c.41,2.34-.67,4.49-2.41,4.8A1.33,1.33,0,0,1,134.76,166.38Zm-.9-8-.22,0A2.3,2.3,0,0,0,132,159.8a4.64,4.64,0,0,0-.32,2.77c.36,2,1.81,3.47,3.24,3.21s2.3-2.1,1.94-4.13a4.62,4.62,0,0,0-1.25-2.49A2.4,2.4,0,0,0,133.86,158.41Z" style="fill:#FFC727"></path><path d="M128.84,163.07l-.44-.37c.54-.66,1.9-1.64,3.13-.72l-.34.46C130.09,161.61,128.89,163,128.84,163.07Z" style="fill:#FFC727"></path><path d="M110.14,167.49l-.55-.17c.08-.25.82-2.51,2-2.94s8.87-1,9.2-1.06l0,.58c-2.22.18-8.17.71-9.06,1S110.34,166.87,110.14,167.49Z" style="fill:#FFC727"></path><path d="M115.39,166.92s-3.15-4-5-2.85.7,7.06,3,7.76a2.26,2.26,0,0,0,3-1.39Z" style="fill:#774442"></path><path d="M111.18,165.74a0,0,0,0,0,0,.06,5.75,5.75,0,0,1,3.15,3.4,1.25,1.25,0,0,0-1.88-.23s0,.09,0,.08a1.4,1.4,0,0,1,1.56.4,6.88,6.88,0,0,1,.8,1.19c.08.14.33.05.27-.11l0,0C115,168.51,113.32,165.82,111.18,165.74Z" style="fill:#263238"></path><path d="M113.38,151.54c1.89-1.5,5.92-12.07-3.19-16.72S91,142,97.76,150.14C102.31,155.6,109.38,154.72,113.38,151.54Z" style="fill:#263238"></path></g><g id="freepik--Plant--inject-48"><path d="M416.92,364.63c7.18-14.76,19.74-22.33,33.89-18.15s16.35,23.93,5.78,28.91-21.13-9.57-26.71-12.56S416.92,364.63,416.92,364.63Z" style="fill:#FFC727"></path><path d="M410,403.9c0-1.78.11-3.56.17-5.34.13-3.55.25-7.1.38-10.65.24-6.49.94-12.87,3.63-18.86a29.17,29.17,0,0,1,11.39-13.12,24.31,24.31,0,0,1,6-2.58,14,14,0,0,1,7-3.84,28.73,28.73,0,0,1,10-.25c.12,0,.12.21,0,.19a24.13,24.13,0,0,0-9.42.67,20,20,0,0,0-3.8,1.48,18.89,18.89,0,0,0-2.19,1.39,20.36,20.36,0,0,1,8.65.08,19.88,19.88,0,0,1,3,1,9.42,9.42,0,0,1,2.36-.2,14.39,14.39,0,0,1,3.06.44,23.6,23.6,0,0,1,5.83,2.54c.1.06,0,.22-.1.16a21.85,21.85,0,0,0-5.69-2.14,19,19,0,0,0-2.92-.43,14.59,14.59,0,0,0-1.62,0,18.74,18.74,0,0,1,9.15,9.12c.05.11-.12.2-.16.09a17.19,17.19,0,0,0-11.67-9.35c-.31-.08-.63-.12-.94-.19.11.46.09,1,.15,1.43.09.72.21,1.43.36,2.14a33.94,33.94,0,0,0,1.15,4.32,35.39,35.39,0,0,0,1.71,4.19,20.31,20.31,0,0,0,2.4,4c.08.1-.08.22-.15.11-.85-1.33-1.84-2.56-2.62-4a29.54,29.54,0,0,1-1.92-4.11,28.33,28.33,0,0,1-1.26-4.43c-.16-.79-.28-1.59-.37-2.4a5.11,5.11,0,0,1-.09-1.46,19.24,19.24,0,0,0-5-.1c.63,3.52,1.31,7.18,3.28,10.24.06.1-.11.2-.17.09a40.85,40.85,0,0,1-2.43-5A19.29,19.29,0,0,1,435.8,354a23.27,23.27,0,0,0-8.31,2.78,27.49,27.49,0,0,0-11.07,12.11,45.71,45.71,0,0,0-4.1,17.35c-.47,7.54-.57,15.12-1.32,22.64-.05.49-.83.66-.92.1A26.52,26.52,0,0,1,410,403.9Z" style="fill:#263238"></path><path d="M426.56,354.75a8.35,8.35,0,0,1,1.63-1.51c.59-.48,1.19-.95,1.82-1.38a13.66,13.66,0,0,1,4.08-1.89.09.09,0,0,1,.05.18,10.77,10.77,0,0,0-4,2c-.6.44-1.17.91-1.73,1.4a10.92,10.92,0,0,1-1.65,1.4A.13.13,0,0,1,426.56,354.75Z" style="fill:#263238"></path><path d="M449.47,360.1a43.53,43.53,0,0,1,3.29,4.35,26.67,26.67,0,0,1,2.45,4.86c0,.05-.06.08-.09,0a58,58,0,0,0-5.79-9.11C449.25,360.13,449.39,360,449.47,360.1Z" style="fill:#263238"></path><path d="M434,358.64a10.43,10.43,0,0,0,.81,2.67,17.83,17.83,0,0,0,1.36,2.36c0,.05,0,.1-.08.06a9.66,9.66,0,0,1-2.28-5.05C433.83,358.56,434,358.52,434,358.64Z" style="fill:#263238"></path><path d="M411,365s-10.16-12.77-29.77-8.25c-18.65,4.31-27.25,38.49-8.41,42.58s15.52-27.54,22.38-32.91C400.21,362.47,407.45,363.32,411,365Z" style="fill:#FFC727"></path><path d="M411,365s-10.16-12.77-29.77-8.25c-18.65,4.31-27.25,38.49-8.41,42.58s15.52-27.54,22.38-32.91C400.21,362.47,407.45,363.32,411,365Z" style="opacity:0.1"></path><path d="M366.05,375.41a38.89,38.89,0,0,1,4-3.09,17.38,17.38,0,0,1,4.31-2.15,24.9,24.9,0,0,1,8.48-8,5.65,5.65,0,0,0-.58,0,29.52,29.52,0,0,0-3.12,0,17.11,17.11,0,0,0-6.05,1.51c-.11,0-.19-.13-.08-.17a27.17,27.17,0,0,1,6-1.83,17.48,17.48,0,0,1,3.06-.26c.55,0,1.11,0,1.65.1l.32,0a26.77,26.77,0,0,1,5.65-2.08l-.54-.14a24.18,24.18,0,0,0-2.91-.48,22.62,22.62,0,0,0-5.87.09.1.1,0,0,1,0-.19,37.86,37.86,0,0,1,5.93-.24,25.91,25.91,0,0,1,4.93.64,28.42,28.42,0,0,1,3.58-.41c6.84-.28,14.29,2.27,18.5,7.89s5,13.14,5.78,19.92a151,151,0,0,1,.75,28.51c0,.56-.83.46-.85-.07-.25-8.06-.54-16.12-1.31-24.16-.36-3.72-.75-7.45-1.37-11.14a32.93,32.93,0,0,0-2.7-9.17,16.91,16.91,0,0,0-6.62-7.12,22.33,22.33,0,0,0-9.38-2.88,25.29,25.29,0,0,0-8.8.82,6,6,0,0,1,.05,1.74,9.67,9.67,0,0,1-.43,2.14,11.46,11.46,0,0,1-.82,1.9c-.37.68-.82,1.28-1.23,1.92-.06.11-.23,0-.15-.1A8.87,8.87,0,0,0,387.8,365a16.79,16.79,0,0,0,.24-2c0-.51,0-1,0-1.52a25.91,25.91,0,0,0-8.56,4.52c-.48.39-.94.79-1.39,1.21a9.17,9.17,0,0,1,1.66,2,20.55,20.55,0,0,1,1.75,3.1,26.4,26.4,0,0,1,1.81,6.83c0,.12-.17.15-.18,0a19.76,19.76,0,0,0-2.23-6.46,27.2,27.2,0,0,0-1.74-2.88c-.33-.47-.68-.94-1-1.39-.19-.24-.41-.49-.59-.75A27.36,27.36,0,0,0,372,375.6l0,0a13.53,13.53,0,0,1,2.29,3.3,30.51,30.51,0,0,1,1.84,3.93,64.9,64.9,0,0,1,2.34,8c0,.11-.16.15-.18,0a33.59,33.59,0,0,0-2.78-7.88q-.88-1.85-1.86-3.63a34.23,34.23,0,0,1-1.84-3.43,25,25,0,0,0-2.24,9.09c0,.12-.2.1-.19,0a31.67,31.67,0,0,1,4.4-13.94c-1.19.51-2.4,1-3.55,1.62a20,20,0,0,0-4.08,2.87C366.08,375.64,366,375.49,366.05,375.41Z" style="fill:#263238"></path><path d="M380.43,376.14c.59,1.93,1.33,3.81,1.86,5.77a22.15,22.15,0,0,1,.87,5.77c0,.05-.09.05-.09,0a56.88,56.88,0,0,0-2.81-11.49A.09.09,0,1,1,380.43,376.14Z" style="fill:#263238"></path><path d="M368,371.33a10.87,10.87,0,0,1,2.6-1.85,18.45,18.45,0,0,1,3-1.07c.12,0,.16.16,0,.19a11.66,11.66,0,0,0-2.9,1.19,21.35,21.35,0,0,0-2.66,1.64A.06.06,0,0,1,368,371.33Z" style="fill:#263238"></path><path d="M401.32,347.93s-1.88-22.94-18.94-30.38c-14.24-6.21-22.4,9.79-12.33,19.59C378.2,345.07,391.26,341.49,401.32,347.93Z" style="fill:#FFC727"></path><path d="M401.32,347.93s-1.88-22.94-18.94-30.38c-14.24-6.21-22.4,9.79-12.33,19.59C378.2,345.07,391.26,341.49,401.32,347.93Z" style="opacity:0.1"></path><path d="M373.21,322a72.88,72.88,0,0,1,7.58,3.59,56.73,56.73,0,0,1,5.89,3.91c-.28-.58-.53-1.18-.81-1.75-.45-.89-.92-1.75-1.45-2.59a24.41,24.41,0,0,0-3.76-4.76c-.09-.08,0-.22.14-.13a37.6,37.6,0,0,1,3.95,4.6,26.13,26.13,0,0,1,1.62,2.6,10.32,10.32,0,0,1,1.15,2.64l.19.14a56.85,56.85,0,0,1,8.15,8c-.05-.22-.1-.45-.16-.66-.32-1.12-.66-2.22-1-3.33a28.79,28.79,0,0,0-3.08-6.69c-.07-.1.1-.2.16-.09a53.49,53.49,0,0,1,3.57,6.52,25.31,25.31,0,0,1,1.18,3.4,14.08,14.08,0,0,1,.55,2.3c.75.94,1.48,1.89,2.17,2.87,7.32,10.43,11,23,11.88,35.65a109.45,109.45,0,0,1,.19,11.31,70.6,70.6,0,0,1-1,11.34c-.05.24-.42.17-.41-.06.08-3.32.43-6.62.49-9.94s-.05-6.65-.32-10a93.22,93.22,0,0,0-3.72-19.52A69.73,69.73,0,0,0,397.65,343c-.71-.14-1.43-.34-2.13-.52L393,341.8a26,26,0,0,1-4.75-1.75c-.11-.05,0-.22.1-.16a15.51,15.51,0,0,0,4.82,1.67c1.33.26,2.72.44,4.06.74q-1.86-2.7-4-5.21a29.59,29.59,0,0,1-9.7-.72,40.86,40.86,0,0,1-5-1.55c-1.71-.66-3.33-1.51-5-2.21-.13-.05,0-.24.07-.17a28.42,28.42,0,0,0,9.84,3.22,60.44,60.44,0,0,0,9.21.76c-1.22-1.39-2.47-2.74-3.8-4-4.48-4.26-9.81-8.19-15.71-10.23C373,322.13,373.1,322,373.21,322Z" style="fill:#263238"></path><path d="M387.09,322.06a26.64,26.64,0,0,1,2.09,3.06,16.39,16.39,0,0,1,1.5,3.56s-.05.06-.06,0c-.57-1.13-1.05-2.3-1.63-3.42a16.77,16.77,0,0,0-2-3.1C386.88,322.1,387,322,387.09,322.06Z" style="fill:#263238"></path><path d="M371.23,329.7a17.52,17.52,0,0,0,3.49,1.46,31.32,31.32,0,0,0,3.57,1s0,.1,0,.1a17.25,17.25,0,0,1-3.69-.81,29.57,29.57,0,0,1-3.45-1.55C371,329.81,371.12,329.64,371.23,329.7Z" style="fill:#263238"></path><path d="M414.58,343.8c.1,1,2.58-8.33,17-16.61,13.1-7.51,28.73-27.06,15.89-39.41C437.1,277.81,409.79,299.54,414.58,343.8Z" style="fill:#FFC727"></path><path d="M404.65,397.25a253.86,253.86,0,0,1,2.29-29A130.37,130.37,0,0,1,413,342.29c1.07-3,2.3-6,3.63-9a20.61,20.61,0,0,1,.06-3.43c.07-1.47.2-2.94.34-4.4s.28-2.93.46-4.39.48-2.92.54-4.38c0-.13.22-.1.18,0a31.5,31.5,0,0,0-.51,4.65c-.11,1.41-.19,2.83-.24,4.25s0,2.84,0,4.26c0,.51,0,1.05.05,1.6,1.36-2.87,2.81-5.69,4.39-8.44-1-6,.29-12.23,1.51-18.08,0-.11.2-.06.18.06a50.52,50.52,0,0,0-.95,9.27c-.06,2.45.06,4.91.07,7.36.34-.59.69-1.18,1-1.76q2.81-4.57,6-8.95a14.15,14.15,0,0,1,.14-4.26,33.76,33.76,0,0,1,1.05-4.66c.46-1.53,1-3,1.6-4.5s1.45-2.95,2.06-4.47a.09.09,0,1,1,.16.07,22.75,22.75,0,0,0-1.8,4.53,40.59,40.59,0,0,0-1.18,4.49c-.31,1.51-.56,3-.77,4.57-.14,1-.23,2.07-.4,3.09a111,111,0,0,1,10.09-11.75c.09-.09.21.05.13.13a133.12,133.12,0,0,0-14.66,19.95c-.16.27-.31.54-.46.81.79-.5,1.7-.9,2.45-1.31q2.1-1.17,4.21-2.31l4.08-2.24c.7-.39,1.39-.79,2.1-1.15a17.19,17.19,0,0,0,2.45-1.36c.11-.08.22.09.11.15-1.39.76-2.62,1.9-4,2.75S434.41,315.2,433,316c-2.56,1.43-5.35,2.46-7.87,3.94q-2.62,4.6-4.85,9.41,2.29-1.47,4.68-2.8c1-.57,2-1.14,3.09-1.68a15.26,15.26,0,0,0,2.9-1.76.1.1,0,0,1,.13.14,26.91,26.91,0,0,1-5.54,3.85c-1.85,1.09-3.73,2.13-5.65,3.08-1.55,3.37-2.94,6.82-4.18,10.32-6.07,17.19-8.3,35.44-9.37,53.56-.31,5.41-.48,10.8-.54,16.22s.21,10.8.2,16.2c0,.16-.26.2-.28,0-.65-4.79-.77-9.66-1-14.49S404.54,402.16,404.65,397.25Z" style="fill:#263238"></path><path d="M430.85,319.42a69.49,69.49,0,0,0,7.67-4,83.55,83.55,0,0,0,7.28-4.62s.08,0,.05.07a62.46,62.46,0,0,1-7,4.88,70.21,70.21,0,0,1-7.92,3.8C430.83,319.63,430.74,319.47,430.85,319.42Z" style="fill:#263238"></path><path d="M426.67,300c.22-.84.48-1.66.77-2.48a.07.07,0,0,1,0-.1c.18-.46.37-.92.56-1.38l.07-.17.11-.27a0,0,0,0,1,0,0c-.05.16-.09.32-.14.48a2.5,2.5,0,0,1-.07.26,66.88,66.88,0,0,0-2.14,9.8c0,.1-.18.1-.17,0A32.89,32.89,0,0,1,426.67,300Z" style="fill:#263238"></path><polygon points="389.41 400.73 390.44 412.93 393.59 450.14 427.34 450.14 430.49 412.93 431.52 400.73 389.41 400.73" style="fill:#455a64"></polygon><polygon points="389.41 400.73 390.44 412.93 430.49 412.93 431.52 400.73 389.41 400.73" style="fill:#263238"></polygon><rect x="386.1" y="395.84" width="48.73" height="11.7" transform="translate(820.93 803.38) rotate(180)" style="fill:#455a64"></rect></g></svg>
