<svg xmlns="http://www.w3.org/2000/svg" viewBox="0 0 500 500"><g id="freepik--Shadow--inject-124"><ellipse cx="250" cy="435.43" rx="174.67" ry="20.81" style="fill:#ebebeb"></ellipse><ellipse cx="307.3" cy="394.03" rx="153.1" ry="20.81" style="fill:#ebebeb"></ellipse></g><g id="freepik--Floor--inject-124"><polygon points="36.02 340.24 89.4 340 142.79 339.91 249.55 339.74 356.32 339.91 409.7 339.99 463.08 340.24 409.7 340.48 356.32 340.57 249.55 340.74 142.79 340.57 89.4 340.48 36.02 340.24" style="fill:#263238"></polygon></g><g id="freepik--Character--inject-124"><path d="M320.26,394.08c2,.66,59.73-.09,61.91-1.52.83-.52,1.22-8.94,1.38-19.12,0-.1,1-37.6,1-37.6l-36.93.38-1.23,37.6s-22,10.17-24.19,12S318.24,393.44,320.26,394.08Z" style="fill:#f7a9a0"></path><path d="M383.85,361.72c-.16,6.5-.3,11.69-.3,11.73-.16,10.18-.55,18.58-1.38,19.12-2.18,1.42-59.89,2.17-61.9,1.51s-.32-6.46,1.89-8.27,24.19-12,24.19-12l.4-12.11Z" style="fill:#dbdbdb"></path><path d="M337.6,377.77c.15,0,.23-.09.24-.13Z" style="fill:#FFC727"></path><path d="M320.14,394c1.32.43,25.87.36,43.74-.13,4.13-.12,7.92-.26,11-.41,4.2-.22,7-.47,7.48-.76,1-.66,1.41-13,1.56-26l-37.71.25.24,6.79s-22.09,10.14-24.34,12S318.12,393.38,320.14,394Z" style="fill:#FFC727"></path><path d="M321,391.72c9.71-.33,48.92-.75,58.55-.33.07,0,.07.05,0,.06-9.62.53-48.83.63-58.55.43C320.75,391.87,320.75,391.73,321,391.72Z" style="fill:#263238"></path><path d="M345,371.64c3.81-.75,8.49-.21,11.44,2.49.12.1,0,.27-.16.23a53.24,53.24,0,0,0-11.26-2.24A.24.24,0,0,1,345,371.64Z" style="fill:#263238"></path><path d="M342.28,373.33c3.82-.75,8.5-.21,11.45,2.49.11.1,0,.26-.16.23a53.46,53.46,0,0,0-11.27-2.24A.24.24,0,0,1,342.28,373.33Z" style="fill:#263238"></path><path d="M339.54,375c3.82-.75,8.5-.21,11.44,2.49.12.1,0,.26-.16.23a53.24,53.24,0,0,0-11.26-2.24A.24.24,0,0,1,339.54,375Z" style="fill:#263238"></path><path d="M336.8,376.71c3.81-.75,8.49-.21,11.44,2.49.11.1,0,.26-.16.22a53.86,53.86,0,0,0-11.26-2.23A.24.24,0,0,1,336.8,376.71Z" style="fill:#263238"></path><path d="M395.33,169.62s-9.41,97.73-10.82,105.17c-.33,1.7-.88,95.59-.88,95.59l-39.39-.6s3.83-80.77,5.63-95.63,10.24-104.53,10.24-104.53Z" style="fill:#263238"></path><path d="M382.42,362.18a28.12,28.12,0,0,0-3.55-.26l-3.56-.17-7-.27c-4.75-.17-9.5-.32-14.24-.5-2.67-.1-5.35-.1-8-.08a.08.08,0,0,0,0,.16c9.44,1,19,1.16,28.46,1.39l4.07.07a31.08,31.08,0,0,0,3.86-.06C382.62,362.44,382.57,362.2,382.42,362.18Z" style="fill:#37474f"></path><path d="M390,173.93c-2.87,23.83-5.75,47.66-8.12,71.55-1.18,11.84-2.29,23.71-3,35.59s-1,24-1.2,36c-.19,13.56-.5,27.13-.29,40.69,0,.13.19.12.2,0,1.18-24,.84-48,2.11-72s3.88-47.85,6.52-71.72q2.21-20,4.24-40.08C390.46,173.73,390,173.68,390,173.93Z" style="fill:#37474f"></path><path d="M400.46,398.6c2.12.16,58.06-14,59.85-15.92.69-.7-.91-9-3.12-18.91a2.82,2.82,0,0,0-.07-.31c-.45-2-12.24-36.49-12.24-36.49l-36.29,9.35,12.34,35.88.17.61s-19,15-20.73,17.3S398.34,398.45,400.46,398.6Z" style="fill:#f7a9a0"></path><path d="M460.3,382.68c-1.78,1.9-57.71,16.08-59.83,15.92s-1.82-6.21-.09-8.49,20.72-17.3,20.72-17.3l-.17-.6-3.63-10.53c7.06-2.27,25.21-6.8,36.15-9.47,1.95,5.81,3.51,10.52,3.67,11.24,0,.11.05.22.07.32C459.4,373.7,461,382,460.3,382.68Z" style="fill:#dbdbdb"></path><path d="M400.38,398.86c1.38.09,25.19-5.9,42.41-10.69,4-1.11,7.62-2.16,10.55-3,4-1.23,6.7-2.15,7.07-2.55.83-.88-1.76-12.95-4.76-25.6l-36.53,9.33,1.87,6.54S402,388,400.26,390.32,398.26,398.7,400.38,398.86Z" style="fill:#FFC727"></path><path d="M400.6,396.4c9.35-2.66,47.3-12.52,56.74-14.45.08,0,.09,0,0,.06-9.2,2.84-47.23,12.4-56.71,14.55C400.44,396.6,400.41,396.46,400.6,396.4Z" style="fill:#263238"></path><path d="M419.12,371.11c3.53-1.65,8.2-2.25,11.71-.35.14.08,0,.27-.1.26a54.38,54.38,0,0,0-11.47.55A.24.24,0,0,1,419.12,371.11Z" style="fill:#263238"></path><path d="M416.87,373.41c3.52-1.65,8.2-2.25,11.71-.35.13.08,0,.27-.11.26a54.41,54.41,0,0,0-11.47.55A.24.24,0,0,1,416.87,373.41Z" style="fill:#263238"></path><path d="M414.61,375.71c3.53-1.65,8.2-2.25,11.71-.34.14.07,0,.26-.1.25a53.73,53.73,0,0,0-11.47.56A.25.25,0,0,1,414.61,375.71Z" style="fill:#263238"></path><path d="M412.36,378c3.52-1.65,8.19-2.25,11.71-.34.13.07,0,.26-.11.26a53.11,53.11,0,0,0-11.47.55A.25.25,0,0,1,412.36,378Z" style="fill:#263238"></path><path d="M417.44,369.4l39.9-9.62s-29.87-77.74-31.56-83c-1.22-3.79-11.13-50-14.6-70.22,0,0,5.19-14.74-6.45-37H360.11s1.05,21.19,6.41,34.62A62.73,62.73,0,0,1,376.9,209s12.78,72.31,14.88,78.9C396.33,302.12,417.44,369.4,417.44,369.4Z" style="fill:#263238"></path><path d="M384,247.65q-2.42-12.77-4.79-25.55c-.45-2.41-1-4.8-1.46-7.2s-.92-4.81-1.61-7.14c-.05-.15-.29-.12-.28,0,.13,2.18.53,4.35.82,6.51s.6,4.2,1,6.29c.73,4.29,1.53,8.57,2.34,12.85,1.63,8.54,3.25,17.11,5.24,25.57,1.11,4.77,2.16,9.55,3.34,14.3,0,.1.17.06.15,0C387.22,264.72,385.61,256.19,384,247.65Z" style="fill:#37474f"></path><path d="M374.6,198.32c.6-1.49.12-3.2-.15-4.71q-.51-2.87-1-5.75c-.8-4.32-1.68-8.62-2.61-12.92a0,0,0,0,0-.07,0q.63,5.14,1.38,10.29c.5,3.44,1.16,6.87,1.59,10.32.13,1.12,0,3.32-1.58,3.33-1.36,0-2.19-2-2.63-3a48,48,0,0,1-2.49-9.47c-.79-3.8-1.44-7.63-2.1-11.45,0-.13-.24-.09-.23,0A110.57,110.57,0,0,0,366,186.3c.58,3.57,1.14,7.33,2.64,10.65.57,1.25,1.36,2.78,2.8,3.17a2.25,2.25,0,0,0,.62.08c.12,1.14.3,2.27.53,3.39a24.74,24.74,0,0,0,.91,3.48.13.13,0,0,0,.26,0h0a24.5,24.5,0,0,0-.52-3.49,32.21,32.21,0,0,0-.85-3.35A2.93,2.93,0,0,0,374.6,198.32Z" style="fill:#37474f"></path><path d="M382.08,209.47a35.62,35.62,0,0,0-7.08-2.34,47.8,47.8,0,0,0-7.12-1c-.09,0-.11.14,0,.16,2.38.37,11.82,2.69,14.18,3.27C382.1,209.6,382.14,209.5,382.08,209.47Z" style="fill:#37474f"></path><path d="M440.27,331.47q-3.19-8.5-6.41-17c-4.24-11.24-8.61-22.43-12.84-33.68s-5.95-22.93-8.23-34.55q-1.74-8.88-3.48-17.77c-1.16-5.86-2.56-11.74-3.25-17.69s.2-11.64-.31-17.46a43.72,43.72,0,0,0-4.1-15c-.57-1.19-1.2-2.35-1.88-3.48-.08-.14-.28,0-.21.12a47.3,47.3,0,0,1,5.16,15.61,48.78,48.78,0,0,1,.43,8.19c-.08,2.94-.29,5.87-.15,8.81.28,5.87,1.65,11.65,2.77,17.4s2.31,11.73,3.47,17.59,2.33,11.84,3.49,17.76a137,137,0,0,0,4.15,17.1C420.76,283,423,288.52,425,294c2.15,5.67,4.29,11.34,6.46,17,4.31,11.27,8.54,22.58,13.05,33.77.53,1.31,1.06,2.6,1.63,3.88.08.18.35.05.29-.13C444.64,342.78,442.4,337.14,440.27,331.47Z" style="fill:#37474f"></path><path d="M452.76,351.43a27.75,27.75,0,0,0-3.48.78l-3.45.88-6.77,1.76-13.77,3.66c-2.58.69-5.14,1.46-7.69,2.26a.08.08,0,0,0,0,.15c9.31-1.83,18.49-4.41,27.63-6.94,1.31-.36,2.62-.74,3.92-1.12a29.68,29.68,0,0,0,3.68-1.17C453,351.62,452.9,351.41,452.76,351.43Z" style="fill:#37474f"></path><path d="M346.41,151.63l6-1.06a18.83,18.83,0,0,0-.29-11.43c-.27-.85,2.78,3.73,3.36,10.89,6.38-1.11,15.06-2.64,22.63-4-.44-3-.72-5.75-.72-5.75a32.75,32.75,0,0,0,2.37,5.45c1-.18,2.05-.38,3-.56a115.94,115.94,0,0,1-1.95-12.66,41,41,0,0,0,6.25,11.84c4.79-.95,7.93-1.65,7.68-1.84-8.91-6.86-4.56-12.71-8.08-19.61-4.23-8.28-12.07-8.16-13.16-14.79-.9-5.4-2.18-15.26-9.37-16a13.29,13.29,0,0,0-14.69.12c-9.88,6.23-2.35,21.92-2.4,25.42-.08,5-2,7.16-2.64,13s2.62,9.07,3.66,12.77S345.21,151.86,346.41,151.63Z" style="fill:#263238"></path><path d="M394.78,141.24a19.06,19.06,0,0,1-3.27-4.22,10,10,0,0,1-1-5c0-1.79,0-3.62-.18-5.47a14.24,14.24,0,0,0-1.63-5.42,12.39,12.39,0,0,0-3.84-4.17,32.68,32.68,0,0,0-4.81-2.68,20,20,0,0,1-4.51-2.76,9.82,9.82,0,0,1-2.88-4.41A9.12,9.12,0,0,0,375.1,112a18.1,18.1,0,0,0,4.47,3.24A41.54,41.54,0,0,1,384.1,118a11.83,11.83,0,0,1,3.36,3.8,13.93,13.93,0,0,1,1.51,4.9c.24,1.73.26,3.52.39,5.35a17.73,17.73,0,0,0,.37,2.76,8,8,0,0,0,1.15,2.6A15.5,15.5,0,0,0,394.78,141.24Z" style="fill:#263238"></path><path d="M344.67,99.56a27.73,27.73,0,0,0-.17,6.69c.16,2.23.43,4.44.72,6.65l.42,3.29a17.28,17.28,0,0,1,.13,3.2,17.84,17.84,0,0,1-1.82,6.12,24.91,24.91,0,0,0-1.17,3.21,15.43,15.43,0,0,0-.55,3.44,23.12,23.12,0,0,0,.19,3.44,14.4,14.4,0,0,0,.86,3.34c.42,1.08,1,2.08,1.42,3.06a16.87,16.87,0,0,1,1.13,3,6.8,6.8,0,0,1-1.53,6.06,7,7,0,0,0,2.21-6.2,17.3,17.3,0,0,0-.95-3.27c-.41-1.06-.89-2-1.22-3.07a17.79,17.79,0,0,1-.75-6.33,15,15,0,0,1,.55-3.12,24.3,24.3,0,0,1,1.14-3,33.31,33.31,0,0,0,1.23-3.18,13.67,13.67,0,0,0,.63-3.43,18.64,18.64,0,0,0-.24-3.45c-.16-1.11-.36-2.2-.56-3.3-.39-2.19-.81-4.36-1.14-6.55A33.2,33.2,0,0,1,344.67,99.56Z" style="fill:#263238"></path><path d="M367.26,133.66c-7.72,8.21-35.13,25.33-46.09,22.54-8.81-2.24-30.61-19.73-35.93-24.22-4.49-3.79,11.87-22.22,16-19.8,5.17,3,19.49,21.17,24.91,21.76,2.13.23,17.24-3.49,35.45-8.14C368.67,124,371.87,128.77,367.26,133.66Z" style="fill:#f7a9a0"></path><path d="M285.24,132c-2.1-1.7-11-10.32-13-13.27s-6.93-11.87-4.82-13.59,3.78.77,3.78.77-1.51-4.09.78-5.63,4.75,2.43,4.75,2.43-1.25-4.32,1.14-5.69,4.2,3,4.2,3-1.32-3.89,1.12-4.19c2.94-.37,4.56,7.09,7,10.19.54.71,12,13.49,12,13.49Z" style="fill:#f7a9a0"></path><path d="M282,99.65c1.2,5.48,2.68,7.67,6.56,11.6.08.08,0,.21-.1.13-4.16-3.5-6.4-6-6.73-11.69C281.66,99.42,281.89,99.39,282,99.65Z" style="fill:#263238"></path><path d="M276.68,102.25c1.75,5.58,3.33,8,7.09,12.38.06.07,0,.16-.1.1-4.06-4-6.24-6.54-7.26-12.35C276.36,102.12,276.6,102,276.68,102.25Z" style="fill:#263238"></path><path d="M271.44,106.11c2.08,5.29,3.7,8,7.91,11.8a.1.1,0,0,1-.13.16,18.84,18.84,0,0,1-7.93-11.88C271.2,105.85,271.31,105.78,271.44,106.11Z" style="fill:#263238"></path><path d="M307.58,118.87s-2.3-6.64-4-9.33-11.53-10.46-13.33-8.43c-2.32,2.63,2.49,8.24,5.21,10.68,0,0-5.38,6.08-2.79,10.85S307.58,118.87,307.58,118.87Z" style="fill:#f7a9a0"></path><path d="M289.89,102.05c-.39,3.92,3.38,6.89,5.84,9.45a.32.32,0,0,1-.08.53c-2.08,2.7-4.23,7.11-3.15,10.55a.09.09,0,0,1-.16.06c-1.66-3.53.11-8,2.58-10.84-2.56-2.59-6.22-5.74-5.07-9.76C289.86,102,289.89,102,289.89,102.05Z" style="fill:#263238"></path><path d="M307.68,116.59,297.2,143.4s16.22,13,25.26,14.13,33.13-12.05,41.76-19.19,10.41-16.26-4.78-13-32.67,7.68-33.14,7.7S307.68,116.59,307.68,116.59Z" style="fill:#FFC727"></path><path d="M366.58,124.77a3.88,3.88,0,0,0-.48,0,1.53,1.53,0,0,1,.19.76,1.71,1.71,0,1,1-3.25-.71l-.46.06a2,2,0,0,0-.11.65,2.12,2.12,0,0,0,4.24,0A1.92,1.92,0,0,0,366.58,124.77ZM325,157.2a2.1,2.1,0,0,0-1.21.38,16.25,16.25,0,0,0,2.09-.18A2,2,0,0,0,325,157.2Zm11.26-7.68a2.12,2.12,0,1,0,2.12,2.12A2.13,2.13,0,0,0,336.3,149.52Zm0,3.82a1.71,1.71,0,1,1,1.71-1.7A1.71,1.71,0,0,1,336.3,153.34Zm12.92-25.67-.52.11a1.7,1.7,0,1,1-2.64,1.43,1.64,1.64,0,0,1,.25-.87l-.52.12a2,2,0,0,0-.14.75,2.12,2.12,0,1,0,3.57-1.54ZM315.8,147.81a2.12,2.12,0,1,0,2.13,2.13A2.13,2.13,0,0,0,315.8,147.81Zm0,3.83a1.71,1.71,0,1,1,1.71-1.7A1.71,1.71,0,0,1,315.8,151.64ZM310,136.48a2.12,2.12,0,1,0,2.12,2.12A2.13,2.13,0,0,0,310,136.48Zm0,3.82a1.71,1.71,0,1,1,1.71-1.7A1.71,1.71,0,0,1,310,140.3Zm17.19.88a2.12,2.12,0,1,0,2.12,2.12A2.13,2.13,0,0,0,327.16,141.18Zm0,3.82a1.71,1.71,0,1,1,1.71-1.7A1.71,1.71,0,0,1,327.16,145ZM310,122.19a2.12,2.12,0,1,0,2.12,2.13A2.14,2.14,0,0,0,310,122.19Zm0,3.82a1.71,1.71,0,1,1,1.71-1.69A1.71,1.71,0,0,1,310,126ZM299.15,138.4l-.15.39a1.7,1.7,0,0,1-.38,3.36,1.63,1.63,0,0,1-.84-.23l-.15.38a2,2,0,0,0,1,.26,2.11,2.11,0,0,0,.53-4.16Zm22.06-6.86a2.12,2.12,0,1,0,2.13,2.13A2.13,2.13,0,0,0,321.21,131.54Zm0,3.82a1.71,1.71,0,1,1,1.72-1.69A1.71,1.71,0,0,1,321.21,135.36Zm25.6,6.46a2.12,2.12,0,1,0,2.13,2.13A2.13,2.13,0,0,0,346.81,141.82Zm0,3.83a1.71,1.71,0,1,1,1.71-1.7A1.72,1.72,0,0,1,346.81,145.65ZM337.28,135a2.12,2.12,0,1,0,2.13,2.13A2.13,2.13,0,0,0,337.28,135Zm0,3.83a1.71,1.71,0,1,1,1.71-1.7A1.71,1.71,0,0,1,337.28,138.8Zm20.53-4.91a2.12,2.12,0,1,0,2.13,2.12A2.13,2.13,0,0,0,357.81,133.89Zm0,3.82a1.71,1.71,0,1,1,1.71-1.7A1.71,1.71,0,0,1,357.81,137.71Z" style="fill:#fff"></path><path d="M308.71,133.9c.74-2,3.59-10,4.07-12.07,0-.07-.09-.09-.11,0-1,1.89-4.05,9.88-4.79,11.89-1.47,4-3,8-4.13,12.16,0,.08.11.14.15.06C305.76,142,307.21,137.93,308.71,133.9Z" style="fill:#263238"></path><path d="M364.22,138.34c-8.63,7.14-32.71,20.27-41.76,19.19a12.89,12.89,0,0,1-1.91-.38l49-31.29C372.55,128.21,369.83,133.7,364.22,138.34Z" style="opacity:0.1"></path><path d="M357.28,184.35l52.39-10.59s-23.06-39.51-36.42-48.52c-6.08-4.11-10.68-2.22-13.95,2.07-.82,1.07-9.71,19.82-9.5,25.6.18,5.11,5.4,9.63,5.4,9.63Z" style="fill:#FFC727"></path><path d="M378.63,148.66a2.12,2.12,0,1,0,0,4.24,2.12,2.12,0,0,0,0-4.24Zm0,3.82a1.69,1.69,0,0,1-1.7-1.69,1.7,1.7,0,1,1,3.4,0A1.69,1.69,0,0,1,378.63,152.48Zm-14-29.11-.29,0a2.17,2.17,0,0,0-1,.43,2.12,2.12,0,1,0,1.31-.45Zm0,3.82a1.71,1.71,0,1,1,1.7-1.7A1.71,1.71,0,0,1,364.59,127.19ZM405,166a1.7,1.7,0,0,1-3.22-.76,1.68,1.68,0,0,1,1.68-1.7c-.08-.13-.16-.26-.25-.39a2.11,2.11,0,1,0,2,3.25C405.15,166.3,405.07,166.17,405,166Zm-14.34-8.68a2.12,2.12,0,1,0,2.11,2.11A2.11,2.11,0,0,0,390.64,157.35Zm0,3.82a1.71,1.71,0,1,1,1.7-1.71A1.72,1.72,0,0,1,390.64,161.17Zm-32.83-27.28a2.12,2.12,0,1,0,2.13,2.12A2.13,2.13,0,0,0,357.81,133.89Zm0,3.82a1.71,1.71,0,1,1,1.71-1.7A1.71,1.71,0,0,1,357.81,137.71Zm-2.32,27.91,0,.41a1.7,1.7,0,0,1,.32,3.33l0,.42a2.11,2.11,0,0,0-.4-4.16ZM367.6,140a2.12,2.12,0,1,0,2.13,2.13A2.12,2.12,0,0,0,367.6,140Zm0,3.82a1.68,1.68,0,0,1-1.69-1.69,1.7,1.7,0,0,1,1.69-1.72,1.72,1.72,0,0,1,1.72,1.72A1.7,1.7,0,0,1,367.6,143.85Zm9.12-12.71a2.12,2.12,0,1,0,2.13,2.13A2.14,2.14,0,0,0,376.72,131.14Zm0,3.83a1.71,1.71,0,1,1,1.7-1.7A1.7,1.7,0,0,1,376.72,135Zm1.91,30.64a2.12,2.12,0,1,0,2.11,2.12A2.12,2.12,0,0,0,378.63,165.61Zm0,3.82a1.71,1.71,0,1,1,1.7-1.7A1.7,1.7,0,0,1,378.63,169.43Zm-11.84-11.6a2.12,2.12,0,1,0,2.13,2.12A2.12,2.12,0,0,0,366.79,157.83Zm0,3.83A1.71,1.71,0,1,1,368.5,160,1.71,1.71,0,0,1,366.79,161.66Zm-11.1-13a2.12,2.12,0,1,0,2.13,2.13A2.12,2.12,0,0,0,355.69,148.66Zm0,3.82a1.69,1.69,0,0,1-1.7-1.69,1.71,1.71,0,1,1,3.41,0A1.7,1.7,0,0,1,355.69,152.48Zm33.42-10a1.7,1.7,0,0,1-2.83-1.26,1.74,1.74,0,0,1,.77-1.44,3.92,3.92,0,0,0-.25-.32A2.11,2.11,0,0,0,388,143.3a2.11,2.11,0,0,0,1.38-.51A3.69,3.69,0,0,1,389.11,142.45ZM368.7,173.38a2.12,2.12,0,0,0,0,4.24,2.12,2.12,0,1,0,0-4.24Zm0,3.83a1.71,1.71,0,0,1-1.7-1.72,1.71,1.71,0,0,1,3.41,0A1.72,1.72,0,0,1,368.7,177.21Zm23.85-4.7a2.12,2.12,0,1,0,0,4.24,2.12,2.12,0,1,0,0-4.24Zm0,3.83a1.72,1.72,0,0,1-1.71-1.72,1.71,1.71,0,0,1,3.41,0A1.72,1.72,0,0,1,392.55,176.34Z" style="fill:#fff"></path><path d="M368.52,124.88c0,1-2.94,8-7.17,8.77-1.38.26-3.14-7.2-3.14-7.2l-.26-.52-3.57-7.29,7.66-8,1.12-1.09s.85,2.06,1.88,4.64c0,.12.09.24.14.37s.13.28.18.41c.16.39.32.78.47,1.17s.23.59.34.91.23.63.35.94A53.23,53.23,0,0,1,368.52,124.88Z" style="fill:#f7a9a0"></path><path d="M365,114.2A16.3,16.3,0,0,1,358,125.93l-3.57-7.29,7.66-8,1.12-1.09S364,111.62,365,114.2Z" style="fill:#263238"></path><path d="M341.74,103.75c-4.15,13.64,3.55,17.67,6.49,18.56,2.67.81,11.87,3.23,17.41-9.91s.51-19.38-5.5-21.56S345.89,90.11,341.74,103.75Z" style="fill:#f7a9a0"></path><path d="M344.38,102c.33,0,.65,0,1,.07a1.62,1.62,0,0,0,1-.13.53.53,0,0,0,.17-.6,1.27,1.27,0,0,0-1.12-.61,1.84,1.84,0,0,0-1.29.31A.54.54,0,0,0,344.38,102Z" style="fill:#263238"></path><path d="M353.81,104.59c-.32-.13-.58-.3-.88-.45a1.63,1.63,0,0,1-.8-.64.52.52,0,0,1,.17-.6,1.26,1.26,0,0,1,1.27.06,1.8,1.8,0,0,1,.94.94A.54.54,0,0,1,353.81,104.59Z" style="fill:#263238"></path><path d="M350.68,107.35s.06.07.05.11c-.31.92-.52,2,.23,2.59,0,0,0,.06,0,0C350,109.64,350.24,108.17,350.68,107.35Z" style="fill:#263238"></path><path d="M351.81,106.64c1.53.34.73,3.37-.69,3S350.53,106.35,351.81,106.64Z" style="fill:#263238"></path><path d="M352.36,107c.22.24.4.61.71.73s.73-.11,1.05-.35c0,0,.05,0,0,0-.14.58-.53,1.12-1.17,1s-.86-.69-.85-1.31C352.14,107,352.27,106.86,352.36,107Z" style="fill:#263238"></path><path d="M345.52,105.78s-.09,0-.1.06c-.21,1-.61,2-1.54,2.1,0,0,0,0,0,0C345,108.11,345.47,106.71,345.52,105.78Z" style="fill:#263238"></path><path d="M344.93,104.58c-1.49-.5-2.38,2.5-1,3S346.17,105,344.93,104.58Z" style="fill:#263238"></path><path d="M344.24,104.59c-.28.09-.6.31-.89.24s-.48-.47-.6-.84c0,0,0,0-.06,0-.18.57-.17,1.22.35,1.49s1-.13,1.29-.66C344.39,104.74,344.36,104.56,344.24,104.59Z" style="fill:#263238"></path><path d="M348.76,115.09c-.27.17-.57.43-.92.38a2.48,2.48,0,0,1-1-.46s-.06,0-.05,0a1.32,1.32,0,0,0,1.1.78,1,1,0,0,0,.92-.68C348.87,115.1,348.8,115.06,348.76,115.09Z" style="fill:#263238"></path><path d="M345.56,112.56a4,4,0,0,0,1.1,1.68,1.76,1.76,0,0,0,1,.41c.81.07,1.06-.61,1.12-1.24a4.08,4.08,0,0,0,0-1A5.13,5.13,0,0,1,345.56,112.56Z" style="fill:#263238"></path><path d="M346.66,114.24a1.76,1.76,0,0,0,1,.41c.81.07,1.06-.61,1.12-1.24A1.84,1.84,0,0,0,346.66,114.24Z" style="fill:#ff97b8"></path><path d="M345.78,110.62s-.58,1.35-.76,2c0,.06.13.13.36.21h0a3.27,3.27,0,0,0,3.37-.33.07.07,0,0,0-.07-.12,5,5,0,0,1-3.09,0c0-.2,1.07-2.27,1-2.31a5.85,5.85,0,0,0-1.59-.07c1.13-2.84,2.7-5.47,3.78-8.31,0-.1-.11-.18-.16-.09a48.85,48.85,0,0,0-4.45,8.77C344,110.78,345.49,110.66,345.78,110.62Z" style="fill:#263238"></path><path d="M364.79,112.06c-3.27-.69-2.11-5.84-2.11-5.84s-3.63-1.15-2.58-7.19a9.3,9.3,0,0,1-7.77,2.84c-1.1-.08,3.08-2.05,3.08-2.05s-5.13,2.93-12.73-.29c-.54-.23,2.5-8.33,9.35-9.81s12.1,1.38,15.08,6.15c0,0,4.09,3.11,3.65,7.54S366.06,112.33,364.79,112.06Z" style="fill:#263238"></path><path d="M364.14,117.44a3.21,3.21,0,0,1-.68,0,2.51,2.51,0,0,1-.66-.12,2.08,2.08,0,0,1-.75-.43,2.3,2.3,0,0,1-.44-.52,2.83,2.83,0,0,1-.37-.9l1.56-3.56s4-3.71,5.72-2.21S366.64,117.07,364.14,117.44Z" style="fill:#f7a9a0"></path><path d="M367.44,111.38s0,.06,0,.06a6.09,6.09,0,0,0-3.87,3.08,1.32,1.32,0,0,1,2,.06s0,.09-.06.07a1.5,1.5,0,0,0-1.71.17,7.46,7.46,0,0,0-1,1.13c-.1.13-.35,0-.26-.16l0,0C362.94,113.67,365.17,111.11,367.44,111.38Z" style="fill:#263238"></path><path d="M364.07,116.81a.66.66,0,0,1-.87.34.66.66,0,0,1,.52-1.21A.67.67,0,0,1,364.07,116.81Z" style="fill:#fff"></path><path d="M365.6,116.12a.47.47,0,0,1-.61.24.45.45,0,0,1-.24-.61.46.46,0,1,1,.85.37Z" style="fill:#fff"></path><rect x="142.7" y="62.19" width="167.98" height="219.16" transform="translate(-12.12 17.3) rotate(-4.26)" style="fill:#fff"></rect><path d="M318.59,274.82,151.07,287.34H151v-.06L134.66,68.74V68.6h.14L302.32,56.18h.08v.08Zm0,0L302.24,56.27l.09.07L134.81,68.87l.13-.15,16.19,218.56-.07-.06Z" style="fill:#263238"></path><rect x="150.64" y="275.83" width="167.98" height="5.23" transform="translate(-20.02 18.18) rotate(-4.26)" style="fill:#FFC727"></rect><rect x="145.14" y="72.89" width="12.16" height="107.41" transform="translate(-8.98 11.57) rotate(-4.26)" style="fill:#ebebeb"></rect><rect x="296.09" y="163.28" width="12.16" height="107.41" transform="translate(-15.27 23.02) rotate(-4.26)" style="fill:#ebebeb"></rect><rect x="134.77" y="62.49" width="167.98" height="5.23" transform="translate(-4.23 16.41) rotate(-4.26)" style="fill:#455a64"></rect><rect x="193.27" y="102.35" width="61.06" height="61.06" transform="matrix(1, -0.07, 0.07, 1, -9.24, 16.97)" style="fill:#455a64"></rect><path d="M235.4,123.77a12.24,12.24,0,1,1-13.12-11.3A12.24,12.24,0,0,1,235.4,123.77Z" style="fill:#fff"></path><path d="M246.79,156.79l.37,5L205,164.89l-.37-5a21.15,21.15,0,1,1,42.19-3.14Z" style="fill:#fff"></path><rect x="148.17" y="76.27" width="144.09" height="16.92" transform="translate(-5.68 16.58) rotate(-4.26)" style="fill:#FFC727"></rect><rect x="149.72" y="106.73" width="28.1" height="1.9" transform="translate(-7.54 12.45) rotate(-4.26)" style="fill:#455a64"></rect><rect x="155.04" y="178.18" width="28.1" height="1.9" transform="translate(-12.83 13.04) rotate(-4.26)" style="fill:#455a64"></rect><rect x="160.68" y="254.01" width="28.1" height="1.9" transform="matrix(1, -0.07, 0.07, 1, -18.44, 13.67)" style="fill:#455a64"></rect><rect x="158.4" y="223.41" width="28.1" height="1.9" transform="translate(-16.17 13.42) rotate(-4.26)" style="fill:#455a64"></rect><rect x="257.44" y="98.72" width="28.1" height="1.9" transform="translate(-6.65 20.42) rotate(-4.26)" style="fill:#455a64"></rect><path d="M150.17,114.28c3-.31,6-.57,9-.83l9-.72,9-.62c3-.19,6-.37,9-.51-3,.31-6,.58-9,.83l-9,.72-9,.62C156.18,114,153.18,114.14,150.17,114.28Z" style="fill:#a6a6a6"></path><path d="M150.37,116.87c3-.31,6-.57,9-.83l9-.72,9-.62c3-.19,6-.37,9-.51-3,.31-6,.58-9,.83l-9,.72-9,.62C156.37,116.55,153.37,116.73,150.37,116.87Z" style="fill:#a6a6a6"></path><path d="M150.56,119.46c3-.31,6-.57,9-.83l9-.72,9-.62c3-.19,6-.37,9-.51-3,.31-6,.58-9,.83l-9,.72-9,.62C156.56,119.14,153.56,119.32,150.56,119.46Z" style="fill:#a6a6a6"></path><path d="M150.75,122.05c3-.31,6-.57,9-.83l9-.72,9-.62c3-.19,6-.37,9-.51-3,.31-6,.58-9,.83l-9,.72-9,.62C156.76,121.73,153.76,121.91,150.75,122.05Z" style="fill:#a6a6a6"></path><path d="M150.94,124.64c1.5-.2,3-.35,4.49-.49s3-.26,4.49-.39,3-.21,4.5-.28,3-.15,4.51-.18c-1.49.2-3,.35-4.48.5s-3,.25-4.5.38-3,.21-4.5.29S152.45,124.62,150.94,124.64Z" style="fill:#a6a6a6"></path><path d="M151.33,129.82c3-.31,6-.57,9-.83l9-.72,9-.62c3-.19,6-.37,9-.51-3,.31-6,.58-9,.84l-9,.71-9,.62C157.34,129.5,154.33,129.68,151.33,129.82Z" style="fill:#a6a6a6"></path><path d="M151.52,132.41c3-.31,6-.57,9-.83l9-.72,9-.62c3-.19,6-.37,9-.51-3,.31-6,.58-9,.83l-9,.72-9,.62C157.53,132.09,154.53,132.27,151.52,132.41Z" style="fill:#a6a6a6"></path><path d="M151.72,135c3-.31,6-.57,9-.83l9-.72,9-.62c3-.19,6-.37,9-.51-3,.31-6,.58-9,.84l-9,.71-9,.62C157.72,134.68,154.72,134.86,151.72,135Z" style="fill:#a6a6a6"></path><path d="M151.91,137.59c3-.31,6-.57,9-.83l9-.72,9-.62c3-.19,6-.37,9-.51-3,.31-6,.58-9,.84l-9,.71-9,.62C157.91,137.27,154.91,137.45,151.91,137.59Z" style="fill:#a6a6a6"></path><path d="M152.1,140.18c1.49-.2,3-.35,4.49-.49s3-.26,4.49-.39,3-.21,4.5-.28,3-.15,4.51-.18c-1.49.2-3,.35-4.49.5s-3,.25-4.49.38-3,.21-4.5.29S153.61,140.16,152.1,140.18Z" style="fill:#a6a6a6"></path><path d="M152.49,145.36c3-.31,6-.57,9-.83l9-.72,9-.62c3-.19,6-.37,9-.51-3,.31-6,.58-9,.84l-9,.71-9,.62C158.49,145,155.49,145.23,152.49,145.36Z" style="fill:#a6a6a6"></path><path d="M152.68,148c3-.31,6-.57,9-.83l9-.72,9-.62c3-.19,6-.37,9-.51-3,.32-6,.58-9,.84l-9,.71-9,.62C158.68,147.63,155.68,147.82,152.68,148Z" style="fill:#a6a6a6"></path><path d="M152.87,150.54c3-.31,6-.57,9-.83l9-.72,9-.62c3-.19,6-.37,9-.51-3,.32-6,.58-9,.84l-9,.71-9,.62C158.88,150.22,155.88,150.41,152.87,150.54Z" style="fill:#a6a6a6"></path><path d="M153.07,153.13c1.49-.2,3-.35,4.48-.49s3-.26,4.49-.39,3-.21,4.5-.28,3-.15,4.51-.18c-1.49.2-3,.35-4.48.5s-3,.25-4.5.38-3,.21-4.5.29S154.57,153.11,153.07,153.13Z" style="fill:#a6a6a6"></path><path d="M153.45,158.31c3-.31,6-.57,9-.83l9-.72,9-.62c3-.19,6-.37,9-.51-3,.32-6,.58-9,.84l-9,.71-9,.62C159.46,158,156.45,158.18,153.45,158.31Z" style="fill:#a6a6a6"></path><path d="M153.64,160.9c3-.31,6-.57,9-.83l9-.72,9-.62c3-.19,6-.37,9-.51-3,.32-6,.58-9,.84l-9,.71-9,.62C159.65,160.58,156.65,160.77,153.64,160.9Z" style="fill:#a6a6a6"></path><path d="M153.84,163.49c3-.31,6-.57,9-.83l9-.72,9-.62c3-.19,6-.37,9-.51-3,.32-6,.58-9,.84l-9,.71-9,.62C159.84,163.17,156.84,163.36,153.84,163.49Z" style="fill:#a6a6a6"></path><path d="M154,166.08c3-.31,6-.57,9-.83l9-.72,9-.62c3-.19,6-.37,9-.51-3,.32-6,.58-9,.84l-9,.71-9,.62C160,165.76,157,166,154,166.08Z" style="fill:#a6a6a6"></path><path d="M154.22,168.67c1.49-.2,3-.35,4.49-.49s3-.26,4.49-.39,3-.21,4.5-.28,3-.15,4.51-.18c-1.49.2-3,.35-4.49.5s-3,.25-4.49.38-3,.21-4.5.29S155.73,168.65,154.22,168.67Z" style="fill:#a6a6a6"></path><path d="M257.89,106.27c3-.31,6-.58,9-.83l9-.72,9-.62c3-.19,6-.38,9-.51-3,.31-6,.57-9,.83l-9,.72-9,.62C263.9,106,260.9,106.13,257.89,106.27Z" style="fill:#a6a6a6"></path><path d="M258.08,108.86c3-.31,6-.58,9-.83l9-.72,9-.62c3-.19,6-.38,9-.51-3,.31-6,.57-9,.83l-9,.72-9,.62C264.09,108.54,261.09,108.72,258.08,108.86Z" style="fill:#a6a6a6"></path><path d="M258.28,111.45c3-.31,6-.58,9-.83l9-.72,9-.62c3-.19,6-.38,9-.51-3,.31-6,.57-9,.83l-9,.72-9,.62C264.28,111.13,261.28,111.31,258.28,111.45Z" style="fill:#a6a6a6"></path><path d="M258.47,114c3-.31,6-.58,9-.83l9-.72,9-.62c3-.19,6-.38,9-.51-3,.31-6,.57-9,.83l-9,.72-9,.62C264.47,113.72,261.47,113.9,258.47,114Z" style="fill:#a6a6a6"></path><path d="M258.66,116.63c1.49-.2,3-.35,4.49-.5s3-.25,4.49-.38,3-.21,4.5-.29,3-.15,4.51-.17c-1.49.2-3,.35-4.49.49s-3,.26-4.49.39-3,.2-4.5.28S260.17,116.6,258.66,116.63Z" style="fill:#a6a6a6"></path><path d="M259.05,121.81c3-.31,6-.58,9-.83l9-.72,9-.62c3-.19,6-.38,9-.51-3,.31-6,.57-9,.83l-9,.72-9,.62C265.05,121.49,262.05,121.67,259.05,121.81Z" style="fill:#a6a6a6"></path><path d="M259.24,124.4c3-.31,6-.58,9-.83l9-.72,9-.62c3-.19,6-.38,9-.51-3,.31-6,.57-9,.83l-9,.72-9,.62C265.25,124.08,262.24,124.26,259.24,124.4Z" style="fill:#a6a6a6"></path><path d="M259.43,127c3-.31,6-.58,9-.83l9-.72,9-.62c3-.19,6-.38,9-.51-3,.31-6,.57-9,.83l-9,.72-9,.62C265.44,126.67,262.44,126.85,259.43,127Z" style="fill:#a6a6a6"></path><path d="M259.63,129.58c3-.31,6-.58,9-.83l9-.72,9-.62c3-.19,6-.38,9-.51-3,.31-6,.57-9,.83l-9,.72-9,.62C265.63,129.26,262.63,129.44,259.63,129.58Z" style="fill:#a6a6a6"></path><path d="M259.82,132.17c1.49-.2,3-.35,4.48-.5s3-.25,4.5-.38,3-.21,4.5-.29,3-.15,4.51-.17c-1.5.2-3,.35-4.49.49s-3,.26-4.49.39-3,.2-4.5.28S261.32,132.14,259.82,132.17Z" style="fill:#a6a6a6"></path><path d="M260.2,137.35c3-.31,6-.58,9-.83l9-.72,9-.62c3-.19,6-.38,9-.51-3,.31-6,.57-9,.83l-9,.72-9,.62C266.21,137,263.21,137.21,260.2,137.35Z" style="fill:#a6a6a6"></path><path d="M260.4,139.94c3-.31,6-.58,9-.83l9-.72,9-.62c3-.19,6-.38,9-.51-3,.31-6,.57-9,.83l-9,.72-9,.62C266.4,139.62,263.4,139.8,260.4,139.94Z" style="fill:#a6a6a6"></path><path d="M260.59,142.53c3-.31,6-.58,9-.83l9-.72,9-.62c3-.19,6-.38,9-.51-3,.31-6,.57-9,.83l-9,.72-9,.62C266.59,142.21,263.59,142.39,260.59,142.53Z" style="fill:#a6a6a6"></path><path d="M260.78,145.12c1.49-.2,3-.35,4.49-.5s3-.25,4.49-.38,3-.21,4.5-.29,3-.15,4.51-.17c-1.49.2-3,.35-4.49.49s-3,.26-4.49.39-3,.21-4.5.28S262.29,145.09,260.78,145.12Z" style="fill:#a6a6a6"></path><path d="M261.17,150.3c3-.31,6-.58,9-.83l9-.72,9-.62c3-.19,6-.38,9-.51-3,.31-6,.57-9,.83l-9,.72-9,.62C267.17,150,264.17,150.16,261.17,150.3Z" style="fill:#a6a6a6"></path><path d="M261.36,152.89c3-.31,6-.58,9-.83l9-.72,9-.62c3-.19,6-.37,9-.51-3,.31-6,.57-9,.83l-9,.72-9,.62C267.37,152.57,264.36,152.75,261.36,152.89Z" style="fill:#a6a6a6"></path><path d="M261.55,155.48c3-.31,6-.58,9-.83l9-.72,9-.62c3-.19,6-.37,9-.51-3,.31-6,.57-9,.83l-9,.72-9,.62C267.56,155.16,264.56,155.34,261.55,155.48Z" style="fill:#a6a6a6"></path><path d="M261.75,158.07c3-.31,6-.58,9-.83l9-.72,9-.62c3-.19,6-.37,9-.51-3,.31-6,.57-9,.83l-9,.72-9,.62C267.75,157.75,264.75,157.93,261.75,158.07Z" style="fill:#a6a6a6"></path><path d="M261.94,160.66c1.49-.2,3-.35,4.48-.5s3-.25,4.5-.38,3-.21,4.5-.29,3-.15,4.51-.17c-1.5.2-3,.35-4.49.49s-3,.26-4.49.39-3,.21-4.5.28S263.44,160.63,261.94,160.66Z" style="fill:#a6a6a6"></path><rect x="164" y="184.77" width="56.59" height="2.63" transform="translate(-13.28 14.78) rotate(-4.26)" style="fill:#ebebeb"></rect><rect x="164.02" y="185.35" width="40.91" height="2.63" transform="translate(-13.34 14.2) rotate(-4.26)" style="fill:#FFC727"></rect><rect x="164.51" y="191.55" width="56.59" height="2.63" transform="translate(-13.78 14.84) rotate(-4.26)" style="fill:#ebebeb"></rect><rect x="164.51" y="191.72" width="51.89" height="2.63" transform="translate(-13.8 14.67) rotate(-4.26)" style="fill:#FFC727"></rect><rect x="165.01" y="198.33" width="56.59" height="2.63" transform="translate(-14.28 14.9) rotate(-4.26)" style="fill:#ebebeb"></rect><rect x="165.03" y="198.79" width="44.1" height="2.63" transform="translate(-14.33 14.43) rotate(-4.26)" style="fill:#FFC727"></rect><rect x="165.52" y="205.11" width="56.59" height="2.63" transform="translate(-14.78 14.95) rotate(-4.26)" style="fill:#ebebeb"></rect><rect x="165.53" y="205.4" width="48.63" height="2.63" transform="translate(-14.82 14.66) rotate(-4.26)" style="fill:#FFC727"></rect><rect x="166.02" y="211.88" width="56.59" height="2.63" transform="translate(-15.29 15.01) rotate(-4.26)" style="fill:#ebebeb"></rect><rect x="166.02" y="212.01" width="53.22" height="2.63" transform="translate(-15.3 14.88) rotate(-4.26)" style="fill:#FFC727"></rect><rect x="155.71" y="186.53" width="4.24" height="4.24" transform="matrix(1, -0.07, 0.07, 1, -13.56, 12.23)" style="fill:#FFC727"></rect><rect x="156.22" y="193.31" width="4.24" height="4.24" transform="translate(-14.07 12.29) rotate(-4.26)" style="fill:#455a64"></rect><rect x="156.72" y="200.08" width="4.24" height="4.24" transform="translate(-14.57 12.35) rotate(-4.26)" style="fill:#c7c7c7"></rect><rect x="157.23" y="206.86" width="4.24" height="4.24" transform="matrix(1, -0.07, 0.07, 1, -15.07, 12.4)" style="fill:#FFC727"></rect><rect x="157.73" y="213.64" width="4.24" height="4.24" transform="matrix(1, -0.07, 0.07, 1, -15.57, 12.46)" style="fill:#263238"></rect><rect x="235.05" y="171.93" width="36.06" height="1.9" transform="translate(-12.13 19.26) rotate(-4.26)" style="fill:#455a64"></rect><rect x="235.63" y="180.12" width="13.71" height="1.9" transform="translate(-12.77 18.49) rotate(-4.26)" style="fill:#c7c7c7"></rect><rect x="236.83" y="196.26" width="13.71" height="1.9" transform="translate(-13.96 18.63) rotate(-4.26)" style="fill:#c7c7c7"></rect><rect x="238.03" y="212.4" width="13.71" height="1.9" transform="translate(-15.16 18.76) rotate(-4.26)" style="fill:#c7c7c7"></rect><rect x="239.23" y="228.54" width="13.71" height="1.9" transform="translate(-16.35 18.9) rotate(-4.26)" style="fill:#c7c7c7"></rect><path d="M263.25,179.52c3-.31,6-.57,9-.83l9-.71,9-.63c3-.18,6-.37,9-.5-3,.31-6,.57-9,.83l-9,.72-9,.62C269.26,179.2,266.26,179.39,263.25,179.52Z" style="fill:#a6a6a6"></path><path d="M263.45,182.11c3-.31,6-.57,9-.83l9-.71,9-.63c3-.18,6-.37,9-.5-3,.31-6,.57-9,.83l-9,.72-9,.62C269.45,181.8,266.45,182,263.45,182.11Z" style="fill:#a6a6a6"></path><path d="M263.64,184.7c3-.31,6-.57,9-.83l9-.71,9-.63c3-.18,6-.37,9-.5-3,.31-6,.57-9,.83l-9,.72-9,.62C269.64,184.39,266.64,184.57,263.64,184.7Z" style="fill:#a6a6a6"></path><path d="M263.83,187.29c1.26-.18,2.52-.31,3.79-.44s2.53-.22,3.79-.33,2.54-.17,3.81-.24,2.54-.11,3.81-.12c-1.26.18-2.53.32-3.79.45s-2.53.22-3.79.33-2.54.17-3.81.23S265.1,187.29,263.83,187.29Z" style="fill:#a6a6a6"></path><path d="M264.46,195.71c3-.31,6-.57,9-.83l9-.72,9-.62c3-.19,6-.37,9-.51-3,.31-6,.58-9,.83l-9,.72-9,.62C270.46,195.39,267.46,195.57,264.46,195.71Z" style="fill:#a6a6a6"></path><path d="M264.65,198.3c3-.31,6-.57,9-.83l9-.72,9-.62c3-.19,6-.37,9-.51-3,.31-6,.58-9,.83l-9,.72-9,.62C270.66,198,267.65,198.16,264.65,198.3Z" style="fill:#a6a6a6"></path><path d="M264.84,200.89c3-.31,6-.57,9-.83l9-.72,9-.62c3-.19,6-.37,9-.51-3,.31-6,.58-9,.83l-9,.72-9,.62C270.85,200.57,267.85,200.75,264.84,200.89Z" style="fill:#a6a6a6"></path><path d="M265,203.48c1.26-.18,2.52-.32,3.78-.44s2.53-.22,3.8-.34,2.53-.17,3.8-.23,2.54-.11,3.81-.12c-1.26.18-2.52.31-3.78.44s-2.54.22-3.8.33-2.53.18-3.8.24S266.31,203.47,265,203.48Z" style="fill:#a6a6a6"></path><path d="M265.66,211.89c3-.31,6-.57,9-.83l9-.71,9-.63c3-.18,6-.37,9-.5-3,.31-6,.57-9,.83l-9,.72-9,.62C271.67,211.57,268.67,211.76,265.66,211.89Z" style="fill:#a6a6a6"></path><path d="M265.85,214.48c3-.31,6-.57,9-.83l9-.71,9-.63c3-.18,6-.37,9-.5-3,.31-6,.57-9,.83l-9,.72-9,.62C271.86,214.16,268.86,214.35,265.85,214.48Z" style="fill:#a6a6a6"></path><path d="M266.05,217.07c3-.31,6-.57,9-.83l9-.71,9-.63c3-.18,6-.37,9-.5-3,.31-6,.57-9,.83l-9,.72-9,.62C272.05,216.76,269.05,216.94,266.05,217.07Z" style="fill:#a6a6a6"></path><path d="M266.24,219.66c1.26-.18,2.52-.31,3.79-.44s2.53-.22,3.79-.33l3.81-.24c1.26-.06,2.53-.11,3.81-.12-1.26.18-2.53.32-3.79.45s-2.53.22-3.8.33-2.53.17-3.8.23S267.51,219.66,266.24,219.66Z" style="fill:#a6a6a6"></path><path d="M266.87,228.08c3-.31,6-.57,9-.83l9-.72,9-.62c3-.19,6-.37,9-.51-3,.31-6,.58-9,.83l-9,.72-9,.62C272.87,227.76,269.87,227.94,266.87,228.08Z" style="fill:#a6a6a6"></path><path d="M267.06,230.67c3-.31,6-.57,9-.83l9-.72,9-.62c3-.19,6-.37,9-.51-3,.31-6,.58-9,.83l-9,.72-9,.62C273.06,230.35,270.06,230.53,267.06,230.67Z" style="fill:#a6a6a6"></path><path d="M267.25,233.26c3-.31,6-.57,9-.83l9-.72,9-.62c3-.19,6-.37,9-.51-3,.31-6,.58-9,.83l-9,.72-9,.62C273.26,232.94,270.26,233.12,267.25,233.26Z" style="fill:#a6a6a6"></path><path d="M267.44,235.85c1.26-.18,2.53-.32,3.79-.44s2.53-.22,3.8-.34,2.53-.17,3.8-.23,2.54-.11,3.81-.12c-1.26.18-2.52.31-3.79.44s-2.53.22-3.79.33-2.54.18-3.8.24S268.72,235.84,267.44,235.85Z" style="fill:#a6a6a6"></path><polygon points="256 179.41 256.71 187.58 257.38 195.75 258.65 212.09 258.68 213.1 259.22 221.28 259.72 229.46 259.01 221.29 258.34 213.12 258.21 212.12 257.05 195.77 256.5 187.59 256 179.41" style="fill:#FFC727"></polygon><path d="M256.89,180a.84.84,0,1,1-.9-.78A.83.83,0,0,1,256.89,180Z" style="fill:#FFC727"></path><path d="M258.09,196.18a.84.84,0,1,1-.9-.78A.84.84,0,0,1,258.09,196.18Z" style="fill:#FFC727"></path><path d="M259.3,212.37a.85.85,0,1,1-.91-.78A.85.85,0,0,1,259.3,212.37Z" style="fill:#FFC727"></path><path d="M260.5,228.55a.84.84,0,1,1-.9-.78A.84.84,0,0,1,260.5,228.55Z" style="fill:#FFC727"></path><path d="M171.83,236.69a6.25,6.25,0,1,1-1.05-3A6.24,6.24,0,0,1,171.83,236.69Z" style="fill:#455a64"></path><path d="M170.78,233.65l-5.19,3.5-.46-6.24A6.27,6.27,0,0,1,170.78,233.65Z" style="fill:#FFC727"></path><path d="M169.91,236.83a4.33,4.33,0,1,1-4.64-4A4.33,4.33,0,0,1,169.91,236.83Z" style="fill:#fff"></path><rect x="163.74" y="236.19" width="3.6" height="0.51" transform="translate(-17.09 12.94) rotate(-4.26)" style="fill:#263238"></rect><rect x="162.95" y="237.6" width="5.39" height="0.51" transform="translate(-17.19 12.95) rotate(-4.26)" style="fill:#a6a6a6"></rect><path d="M189.29,235.39a4.71,4.71,0,0,1,0,.92,6.27,6.27,0,1,1,0-.92Z" style="fill:#455a64"></path><path d="M189.29,235.39a4.71,4.71,0,0,1,0,.92l-6.24-.46-.46-6.24a6.26,6.26,0,0,1,5.65,2.74A6.19,6.19,0,0,1,189.29,235.39Z" style="fill:#FFC727"></path><path d="M187.37,235.53a4.33,4.33,0,1,1-4.64-4A4.33,4.33,0,0,1,187.37,235.53Z" style="fill:#fff"></path><rect x="181.2" y="234.89" width="3.6" height="0.51" transform="translate(-16.95 14.23) rotate(-4.26)" style="fill:#263238"></rect><rect x="180.41" y="236.3" width="5.39" height="0.51" transform="matrix(1, -0.07, 0.07, 1, -17.05, 14.24)" style="fill:#a6a6a6"></rect><path d="M206.88,234.08a6.26,6.26,0,1,1-6.71-5.77,6.23,6.23,0,0,1,5.65,2.73A6.33,6.33,0,0,1,206.88,234.08Z" style="fill:#455a64"></path><path d="M206.88,234.08a6.29,6.29,0,0,1-3.57,6.13l-2.67-5.66-.47-6.24a6.23,6.23,0,0,1,5.65,2.73A6.33,6.33,0,0,1,206.88,234.08Z" style="fill:#FFC727"></path><path d="M205,234.22a4.33,4.33,0,1,1-4.64-4A4.33,4.33,0,0,1,205,234.22Z" style="fill:#fff"></path><rect x="198.78" y="233.59" width="3.6" height="0.51" transform="translate(-16.8 15.53) rotate(-4.26)" style="fill:#263238"></rect><rect x="197.99" y="235" width="5.39" height="0.51" transform="translate(-16.9 15.54) rotate(-4.26)" style="fill:#a6a6a6"></rect><path d="M224.36,232.78a6.25,6.25,0,1,1-1.05-3A6.21,6.21,0,0,1,224.36,232.78Z" style="fill:#455a64"></path><path d="M224.36,232.78a6.25,6.25,0,0,1-9.93,5.51l3.69-5-.46-6.24a6.27,6.27,0,0,1,5.65,2.74A6.19,6.19,0,0,1,224.36,232.78Z" style="fill:#FFC727"></path><path d="M222.44,232.92a4.33,4.33,0,1,1-4.64-4A4.33,4.33,0,0,1,222.44,232.92Z" style="fill:#fff"></path><rect x="216.27" y="232.28" width="3.6" height="0.51" transform="translate(-16.66 16.83) rotate(-4.26)" style="fill:#263238"></rect><rect x="215.48" y="233.69" width="5.39" height="0.51" transform="translate(-16.76 16.84) rotate(-4.26)" style="fill:#a6a6a6"></rect><polygon points="225.59 173.84 226.33 182.36 227.02 190.89 228.34 207.96 229.56 225.03 230.14 233.57 230.67 242.11 229.93 233.59 229.24 225.06 227.92 207.99 226.7 190.92 226.12 182.38 225.59 173.84" style="fill:#455a64"></polygon><g id="freepik--IaQ7Yo--inject-124"><path d="M165.28,265.29a.54.54,0,0,1-.26.16l-.13,0-.24,0-.24,0a2.4,2.4,0,0,1-.88-.32,5.49,5.49,0,0,1-1.65-1.42,2.6,2.6,0,0,1-.44-.82c0-.08,0-.16-.05-.24l0-.23a1.7,1.7,0,0,1,0-.22.84.84,0,0,1,.08-.2l0,0,1,.89s0,0,0,.06a.51.51,0,0,0,.14.47,10.3,10.3,0,0,0,.94.81.49.49,0,0,0,.48.07s0,0,.06,0l1.06.91Z" style="fill:#FFC727"></path><path d="M165.81,264.68l-.32.37,0,0-1.07-.92.07-.08.27-.31a.16.16,0,0,1,.26,0l.79.68A.16.16,0,0,1,165.81,264.68Z" style="fill:#FFC727"></path><path d="M163.1,262.33l-.36.39-1.05-.9,0,0,.32-.37a.16.16,0,0,1,.24,0l.81.7A.15.15,0,0,1,163.1,262.33Z" style="fill:#FFC727"></path></g><g id="freepik--TEfYE6--inject-124"><path d="M166.09,270.3l-.1.1-1.54,1.71a.26.26,0,0,1-.38,0l-1.82-1.49a.13.13,0,0,1-.07-.06.34.34,0,0,1,.14,0l1.15-.09,2.41-.18A.26.26,0,0,1,166.09,270.3Z" style="fill:#FFC727"></path><path d="M166.3,273.23a.33.33,0,0,1-.14,0l-1.37.11-2.22.17a.29.29,0,0,1-.18,0l1.28-1.41.28.23.12.1a.31.31,0,0,0,.43,0l.34-.38,1.46,1.19Z" style="fill:#FFC727"></path><path d="M163.49,272l-1.25,1.39s0,0,0-.06c-.06-.81-.13-1.62-.19-2.43v-.07Z" style="fill:#FFC727"></path><path d="M166.44,273l-.54-.44-.87-.71,0,0c.42-.47.84-.93,1.25-1.4C166.26,270.51,166.45,273,166.44,273Z" style="fill:#FFC727"></path></g><g id="freepik--aiZGp2--inject-124"><path d="M231.76,257.24a2.94,2.94,0,0,0-.14,1h0l-.82.06h0v-.09a1.87,1.87,0,0,1,0-.34,2.55,2.55,0,0,1,.15-.54h0l.77-.06Z" style="fill:#FFC727"></path><path d="M231.89,259.39h0l-.77.06,0,0a2,2,0,0,1-.24-.57,1.59,1.59,0,0,1-.06-.3h0v0h0l.82-.07s0,0,0,0l0,.2a1.67,1.67,0,0,0,.08.32,2,2,0,0,0,.14.38Z" style="fill:#FFC727"></path><path d="M235.2,259.39h0a3.28,3.28,0,0,1-.2.31,3,3,0,0,1-.3.32,2.88,2.88,0,0,1-.35.26,3.26,3.26,0,0,1-.38.18l-.32.09h-.07l0,0a2.7,2.7,0,0,0,.57-.64,3.61,3.61,0,0,0,.22-.44h0l.78-.06Z" style="fill:#FFC727"></path><path d="M234.31,258l-1.1.09-.07-1h0l.85-.06h0a2.34,2.34,0,0,1,.22.55c0,.1.05.2.07.3Z" style="fill:#FFC727"></path><path d="M234.32,258.27v.23c0,.07,0,.15,0,.22a2.4,2.4,0,0,1-.11.48,0,0,0,0,1,0,0l-.86.06h0l-.07-.93Z" style="fill:#FFC727"></path><path d="M232.89,257.16l.07,1-1.07.08v-.07a.81.81,0,0,1,0-.16,2,2,0,0,1,0-.25,3.37,3.37,0,0,1,.12-.48l0,0,.82-.06Z" style="fill:#FFC727"></path><path d="M233,258.38c0,.3.05.61.07.91h0l-.85.06s0,0,0,0a3.8,3.8,0,0,1-.18-.47l-.06-.25c0-.06,0-.12,0-.17h0l1.05-.08Z" style="fill:#FFC727"></path><path d="M235.47,257.93l-.9.07a2.89,2.89,0,0,0-.28-.95h0l.82-.06h0a2.12,2.12,0,0,1,.25.58,2.05,2.05,0,0,1,.07.34Z" style="fill:#FFC727"></path><path d="M235.49,258.18v.06a1.93,1.93,0,0,1,0,.24,2.66,2.66,0,0,1-.12.56l0,.08h0l-.82.06h0l0-.08a3.54,3.54,0,0,0,.08-.45c0-.11,0-.22,0-.33v-.08h0Z" style="fill:#FFC727"></path><path d="M235,256.75h0l-.78.06h0a2.66,2.66,0,0,0-.44-.55,2,2,0,0,0-.32-.26l-.17-.11h0v0a2.51,2.51,0,0,1,.82.18A2.35,2.35,0,0,1,235,256.75Z" style="fill:#FFC727"></path><path d="M233,260.6h0l-.26,0a2.54,2.54,0,0,1-.47-.14,2.62,2.62,0,0,1-.49-.27,2.43,2.43,0,0,1-.3-.26,2.11,2.11,0,0,1-.19-.23h0l.73-.06h0a3.19,3.19,0,0,0,.3.42,3.51,3.51,0,0,0,.34.33l.33.22Z" style="fill:#FFC727"></path><path d="M232.64,255.93l-.11.09a2.82,2.82,0,0,0-.33.36,2.43,2.43,0,0,0-.33.56l0,0h0l-.72.05a2.39,2.39,0,0,1,1.55-1.13h0Z" style="fill:#FFC727"></path><path d="M234.09,259.47a2.55,2.55,0,0,1-.33.52,2,2,0,0,1-.39.38l-.06-.84Z" style="fill:#FFC727"></path><path d="M233.07,259.55l.06.83a2.52,2.52,0,0,1-.81-.78Z" style="fill:#FFC727"></path><path d="M233.87,256.83l-.75.06-.06-.79a2.83,2.83,0,0,1,.45.32A2.86,2.86,0,0,1,233.87,256.83Z" style="fill:#FFC727"></path><path d="M232.82,256.14l.05.77-.71.06A2.14,2.14,0,0,1,232.82,256.14Z" style="fill:#FFC727"></path></g><g id="freepik--uGJA8C--inject-124"><path d="M235.47,265.15a2,2,0,0,0-2.41-.9,1.9,1.9,0,0,0-1.31,2.11,2.68,2.68,0,0,0,.33.85,6.7,6.7,0,0,0,1.25,1.55l.61.56.06-.06c.22-.28.46-.55.67-.84a5.8,5.8,0,0,0,.92-1.76A1.9,1.9,0,0,0,235.47,265.15Zm-.54.78a1.23,1.23,0,0,1-1.2,1.28,1.22,1.22,0,1,1,0-2.44A1.23,1.23,0,0,1,234.93,265.93Z" style="fill:#FFC727"></path></g><path d="M170,261.5c3-.31,6-.58,9-.83l9-.72,9-.62c3-.19,6-.37,9-.51-3,.31-6,.57-9,.83l-9,.72-9,.62C176,261.18,173,261.36,170,261.5Z" style="fill:#a6a6a6"></path><path d="M170.21,264.09c1.49-.2,3-.35,4.48-.5s3-.25,4.49-.38,3-.21,4.5-.29,3-.15,4.51-.17c-1.49.2-3,.35-4.48.49s-3,.26-4.49.39-3,.21-4.5.28S171.71,264.06,170.21,264.09Z" style="fill:#a6a6a6"></path><path d="M170.66,270.12c3-.31,6-.57,9-.83l9-.72,9-.62c3-.19,6-.37,9-.5-3,.31-6,.57-9,.83l-9,.71-9,.62C176.66,269.8,173.66,270,170.66,270.12Z" style="fill:#a6a6a6"></path><path d="M170.85,272.71c1.49-.2,3-.35,4.48-.49s3-.26,4.5-.39,3-.2,4.5-.28,3-.15,4.51-.18c-1.5.2-3,.36-4.49.5s-3,.26-4.49.38-3,.21-4.5.29S172.35,272.69,170.85,272.71Z" style="fill:#a6a6a6"></path><path d="M241.76,256.16c3-.31,6-.58,9-.83l9-.72,9-.62c3-.19,6-.37,9-.51-3,.31-6,.57-9,.83l-9,.72-9,.62C247.76,255.84,244.76,256,241.76,256.16Z" style="fill:#a6a6a6"></path><path d="M242,258.75c1.49-.2,3-.35,4.49-.5s3-.25,4.49-.38,3-.21,4.5-.29,3-.15,4.51-.17c-1.49.2-3,.35-4.49.5s-3,.25-4.49.38-3,.21-4.5.28S243.46,258.72,242,258.75Z" style="fill:#a6a6a6"></path><path d="M242.4,264.78c3-.31,6-.57,9-.83l9-.71,9-.63c3-.18,6-.37,9-.5-3,.31-6,.57-9,.83l-9,.72-9,.62C248.41,264.46,245.4,264.65,242.4,264.78Z" style="fill:#a6a6a6"></path><path d="M242.59,267.37c1.5-.19,3-.35,4.49-.49s3-.26,4.49-.39,3-.2,4.5-.28,3-.15,4.51-.17c-1.49.19-3,.35-4.48.49s-3,.26-4.5.38-3,.21-4.5.29S244.1,267.35,242.59,267.37Z" style="fill:#a6a6a6"></path><path d="M376.93,136c-3.53,15-14.58,47.16-23.27,46.86-14.3-.5-36.19-12.21-42.16-16.57-2.6-1.9,7.89-24.5,11.15-23.39,3.92,1.34,25.72,15.35,27.28,13.93.89-.8,6.87-9.25,15.32-19.19C375.05,126.09,378.61,128.85,376.93,136Z" style="fill:#f7a9a0"></path><path d="M328.91,147.66s-6.42-7.47-10.85-12.17c-2.48-2.61-7.12-6.72-9.81-7.82-4-1.63-21.95-5.89-23.07-1.57-1,3.91,14.83,5.62,14.83,5.62s-15.84-3.14-16.2,1.8,17.8,4.48,17.8,4.48-16.35-2.86-15.92,2.29c.33,3.89,16.81,4.4,16.81,4.4s-14.08-2.35-13.91,1.66c.18,4.44,15.36,5.87,15.36,5.87,2.13,10.13,6.92,14.4,11.3,16.46C316.27,169.16,328.91,147.66,328.91,147.66Z" style="fill:#f7a9a0"></path><path d="M304.81,132.33c-11.5-3.2-18.11-1.25-17.93-1.27,4.4-.38,11.15.48,13,.75s3,.32,4.89.59A0,0,0,0,0,304.81,132.33Z" style="fill:#263238"></path><path d="M304.71,139.26a40.42,40.42,0,0,0-14.24-2c-.19,0-.13.09,0,.11,2.4.28,11.81,1.54,14.18,1.93C304.74,139.32,304.74,139.27,304.71,139.26Z" style="fill:#263238"></path><path d="M305,145.23A30.35,30.35,0,0,0,294,144c-.18,0-.1.13.09.14,3.68.34,6.58.57,10.95,1.21C305.07,145.36,305.11,145.25,305,145.23Z" style="fill:#263238"></path><path d="M330.89,146.77l-13,25.1s27.61,13.52,37.29,11.42c8.68-1.89,20.16-37.83,21.92-45.41s-.41-11.78-8-4.65-19.27,22.66-19.5,22.85S330.89,146.77,330.89,146.77Z" style="fill:#FFC727"></path><path d="M334.46,177.8a2.12,2.12,0,0,0-1.46.59l.44.17a1.66,1.66,0,0,1,1-.35,1.71,1.71,0,0,1,1.67,1.34l.44.16A2.12,2.12,0,0,0,334.46,177.8Zm8.51-20A2.12,2.12,0,1,0,345.1,160,2.13,2.13,0,0,0,343,157.83Zm0,3.83a1.71,1.71,0,1,1,1.72-1.7A1.71,1.71,0,0,1,343,161.66Zm-17.49-4.42-.2.39A1.7,1.7,0,0,1,325,161a1.69,1.69,0,0,1-1.23-.54l-.2.39a2.09,2.09,0,0,0,1.43.57,2.12,2.12,0,0,0,.44-4.2Zm6.86,7.62a2.12,2.12,0,1,0,2.12,2.13A2.13,2.13,0,0,0,332.34,164.86Zm0,3.82a1.71,1.71,0,1,1,1.71-1.69A1.71,1.71,0,0,1,332.34,168.68ZM338,150.42l-1.75-.9a2.12,2.12,0,1,0,2.14,2.12A2.09,2.09,0,0,0,338,150.42Zm-1.73,2.92a1.71,1.71,0,1,1,1.71-1.7A1.71,1.71,0,0,1,336.3,153.34Zm19.06,12.27a2.12,2.12,0,1,0,2.13,2.12A2.13,2.13,0,0,0,355.36,165.61Zm0,3.82a1.71,1.71,0,1,1,1.72-1.7A1.71,1.71,0,0,1,355.36,169.43ZM367.6,140a2.12,2.12,0,1,0,2.13,2.13A2.12,2.12,0,0,0,367.6,140Zm0,3.82a1.68,1.68,0,0,1-1.69-1.69,1.7,1.7,0,0,1,1.69-1.72,1.72,1.72,0,0,1,1.72,1.72A1.7,1.7,0,0,1,367.6,143.85Zm9.12-8.88a1.71,1.71,0,0,1,0-3.41,1.6,1.6,0,0,1,.83.23c0-.19-.09-.37-.14-.53a2,2,0,0,0-.69-.12,2.12,2.12,0,1,0,0,4.24,2,2,0,0,0,.9-.21c0-.17,0-.33.05-.49A1.72,1.72,0,0,1,376.72,135Zm-22,45.87a2.13,2.13,0,0,0-2.12,2.13,1.9,1.9,0,0,0,.07.54h.44a1.4,1.4,0,0,1-.1-.54,1.72,1.72,0,0,1,1.71-1.71,1.69,1.69,0,0,1,1.69,1.59l.39-.23A2.12,2.12,0,0,0,354.69,180.84Zm12.1-23a2.12,2.12,0,1,0,2.13,2.12A2.12,2.12,0,0,0,366.79,157.83Zm0,3.83A1.71,1.71,0,1,1,368.5,160,1.71,1.71,0,0,1,366.79,161.66Zm-11.1-13-.26,0-.44.55a1.63,1.63,0,0,1,.7-.16,1.72,1.72,0,0,1,1.71,1.72,1.71,1.71,0,0,1-3.41,0,1.87,1.87,0,0,1,0-.34l-.43.54a2.12,2.12,0,0,0,4.23-.2A2.14,2.14,0,0,0,355.69,148.66Zm-32.76,23.85a2.09,2.09,0,0,0-1.73.9l.38.17a1.71,1.71,0,0,1,3.05,1,1.55,1.55,0,0,1,0,.31l.39.17a2.61,2.61,0,0,0,.05-.48A2.11,2.11,0,0,0,322.93,172.51Zm21.22.23a2.12,2.12,0,1,0,2.11,2.11A2.12,2.12,0,0,0,344.15,172.74Zm0,3.82a1.71,1.71,0,1,1,1.69-1.71A1.72,1.72,0,0,1,344.15,176.56Z" style="fill:#fff"></path><path d="M331,162.12c1-1.88,4.93-9.44,5.69-11.41,0-.05-.07-.09-.11,0-1.23,1.73-5.37,9.23-6.37,11.11-2,3.77-4.1,7.54-5.76,11.49a.08.08,0,0,0,.13.08C327,169.76,329,165.91,331,162.12Z" style="fill:#263238"></path><path d="M357.11,147c2.54-3.14,5.15-6.22,7.75-9.31,0-.06-.05-.14-.11-.09-1.59,1.6-3.13,3.25-4.63,4.93.65-1,1.32-2,2-3,.06-.07-.05-.14-.11-.07a24.28,24.28,0,0,0-2.6,3.9c-.9,1-1.79,2.07-2.66,3.13-1.28,1.54-6.76,8.49-7.33,9.33-3-1.81-6-3.15-9.15-4.78-1.53-.79-3.07-1.58-4.62-2.34a44.51,44.51,0,0,0-4.75-2.35c-.09,0-.22.46-.31.67s.07.21.12.12l.17-.25c.67.47,3.74,2,4.52,2.43L340,151.7c3.11,1.62,9.57,5,9.61,4.93C350.25,156,355.82,148.61,357.11,147Z" style="fill:#263238"></path><path d="M357.09,182.4a22.86,22.86,0,0,0,3.22-3.92c1-1.39,1.84-2.83,2.67-4.3a76.71,76.71,0,0,0,4.43-9.12c1.36-3.1,2.59-6.26,3.82-9.42l3.66-9.51c-.93,3.27-2,6.5-3.12,9.71s-2.36,6.37-3.67,9.52a68.32,68.32,0,0,1-4.62,9.11C361.66,177.33,359.75,180.25,357.09,182.4Z" style="fill:#263238"></path><path d="M372.54,152.89a15,15,0,0,1,1.28-2.21c.24-.34.48-.69.75-1a12.67,12.67,0,0,1,.84-1,9.6,9.6,0,0,1-1.18,2.27A9.91,9.91,0,0,1,372.54,152.89Z" style="fill:#263238"></path></g><g id="freepik--Folders--inject-124"><rect x="140.8" y="234.49" width="235.88" height="171.33" style="fill:#37474f"></rect><polygon points="228.47 216.74 140.9 216.74 140.88 234.49 233.49 234.49 228.47 216.74" style="fill:#37474f"></polygon><rect x="171.2" y="206.46" width="167.98" height="219.16" transform="translate(-60.85 571.23) rotate(-90)" style="fill:#fff"></rect><path d="M364.77,232.05l.06,168v.06h-.06l-219.16.08h-.14V400l.06-168V232h.08Zm0,0-219.16.08.08-.08.06,168-.14-.14,219.16.08-.06.06Z" style="fill:#263238"></path><rect x="278.17" y="313.42" width="167.98" height="5.23" transform="translate(46.12 678.2) rotate(-90)" style="fill:#FFC727"></rect><rect x="198.46" y="334.24" width="12.16" height="107.41" transform="translate(-183.41 592.49) rotate(-90)" style="fill:#ebebeb"></rect><rect x="299.8" y="190.42" width="12.16" height="107.41" transform="translate(61.76 550.01) rotate(-90)" style="fill:#ebebeb"></rect><rect x="64.23" y="313.42" width="167.98" height="5.23" transform="translate(-167.82 464.26) rotate(-90)" style="fill:#455a64"></rect><rect x="185.66" y="285.51" width="61.06" height="61.06" transform="translate(-99.85 532.23) rotate(-90)" style="fill:#c7c7c7"></rect><circle cx="207.96" cy="316.04" r="12.24" transform="translate(-25.41 18.27) rotate(-4.74)" style="fill:#fff"></circle><path d="M241.74,294.89h5v42.3h-5a21.15,21.15,0,1,1,0-42.3Z" style="fill:#fff"></path><rect x="95.86" y="307.58" width="144.09" height="16.92" transform="translate(-148.13 483.94) rotate(-90)" style="fill:#FFC727"></rect><rect x="172.56" y="373.08" width="28.1" height="1.9" transform="translate(-187.42 560.64) rotate(-90)" style="fill:#455a64"></rect><rect x="244.2" y="373.08" width="28.1" height="1.9" transform="translate(-115.78 632.28) rotate(-90)" style="fill:#455a64"></rect><rect x="320.25" y="373.08" width="28.1" height="1.9" transform="translate(-39.73 708.33) rotate(-90)" style="fill:#455a64"></rect><rect x="289.56" y="373.08" width="28.1" height="1.9" transform="translate(-70.42 677.64) rotate(-90)" style="fill:#455a64"></rect><rect x="172.56" y="265.06" width="28.1" height="1.9" transform="translate(-79.41 452.62) rotate(-90)" style="fill:#455a64"></rect><path d="M192.18,388.08c-.09-3-.13-6-.16-9l-.05-9,.05-9c0-3,.07-6,.16-9,.09,3,.13,6,.16,9l0,9,0,9C192.31,382.07,192.27,385.08,192.18,388.08Z" style="fill:#a6a6a6"></path><path d="M194.78,388.08c-.09-3-.13-6-.17-9l0-9,0-9c0-3,.08-6,.17-9,.08,3,.12,6,.16,9l.05,9-.05,9C194.9,382.07,194.86,385.08,194.78,388.08Z" style="fill:#a6a6a6"></path><path d="M197.37,388.08c-.08-3-.12-6-.16-9l-.05-9,.05-9q0-4.51.16-9c.09,3,.13,6,.16,9l.05,9-.05,9C197.5,382.07,197.46,385.08,197.37,388.08Z" style="fill:#a6a6a6"></path><path d="M200,388.08c-.09-3-.13-6-.16-9l-.05-9,.05-9c0-3,.07-6,.16-9,.09,3,.13,6,.16,9l.05,9-.05,9C200.1,382.07,200.06,385.08,200,388.08Z" style="fill:#a6a6a6"></path><path d="M202.57,388.08c-.09-1.5-.13-3-.16-4.51s0-3,0-4.51,0-3,0-4.51.07-3,.16-4.5c.08,1.5.12,3,.16,4.5s0,3,.05,4.51,0,3-.05,4.51S202.65,386.58,202.57,388.08Z" style="fill:#a6a6a6"></path><path d="M207.76,388.08c-.09-3-.13-6-.16-9l0-9,0-9c0-3,.07-6,.16-9,.09,3,.13,6,.16,9l.05,9-.05,9C207.89,382.07,207.85,385.08,207.76,388.08Z" style="fill:#a6a6a6"></path><path d="M210.36,388.08c-.09-3-.13-6-.16-9l0-9,0-9c0-3,.07-6,.16-9,.09,3,.13,6,.16,9l0,9,0,9C210.49,382.07,210.45,385.08,210.36,388.08Z" style="fill:#a6a6a6"></path><path d="M213,388.08c-.09-3-.13-6-.17-9l0-9,0-9c0-3,.08-6,.17-9,.08,3,.12,6,.16,9l0,9,0,9C213.08,382.07,213,385.08,213,388.08Z" style="fill:#a6a6a6"></path><path d="M215.55,388.08c-.08-3-.12-6-.16-9l0-9,0-9c0-3,.08-6,.16-9,.09,3,.13,6,.17,9l0,9,0,9C215.68,382.07,215.64,385.08,215.55,388.08Z" style="fill:#a6a6a6"></path><path d="M218.15,388.08c-.09-1.5-.13-3-.16-4.51s0-3-.05-4.51,0-3,.05-4.51.07-3,.16-4.5c.09,1.5.13,3,.16,4.5s0,3,.05,4.51,0,3-.05,4.51S218.24,386.58,218.15,388.08Z" style="fill:#a6a6a6"></path><path d="M223.34,388.08c-.08-3-.12-6-.16-9l-.05-9,.05-9c0-3,.08-6,.16-9,.09,3,.13,6,.17,9l.05,9-.05,9C223.47,382.07,223.43,385.08,223.34,388.08Z" style="fill:#a6a6a6"></path><path d="M225.94,388.08q-.12-4.5-.16-9l-.05-9,.05-9c0-3,.07-6,.16-9,.09,3,.13,6,.16,9l.05,9-.05,9C226.07,382.07,226,385.08,225.94,388.08Z" style="fill:#a6a6a6"></path><path d="M228.54,388.08c-.09-3-.13-6-.16-9l0-9,0-9c0-3,.07-6,.16-9,.09,3,.13,6,.16,9l.05,9-.05,9C228.67,382.07,228.63,385.08,228.54,388.08Z" style="fill:#a6a6a6"></path><path d="M231.14,388.08c-.09-1.5-.13-3-.16-4.51s0-3,0-4.51,0-3,0-4.51.08-3,.17-4.5c.08,1.5.12,3,.16,4.5s0,3,0,4.51,0,3,0,4.51S231.22,386.58,231.14,388.08Z" style="fill:#a6a6a6"></path><path d="M236.33,388.08c-.09-3-.13-6-.16-9l0-9,0-9c0-3,.07-6,.16-9,.09,3,.13,6,.16,9l0,9,0,9C236.46,382.07,236.42,385.08,236.33,388.08Z" style="fill:#a6a6a6"></path><path d="M238.93,388.08c-.09-3-.13-6-.16-9l-.05-9,.05-9c0-3,.07-6,.16-9,.09,3,.13,6,.16,9l0,9,0,9Q239,383.58,238.93,388.08Z" style="fill:#a6a6a6"></path><path d="M241.53,388.08c-.09-3-.13-6-.17-9l-.05-9,.05-9c0-3,.08-6,.17-9,.08,3,.12,6,.16,9l.05,9-.05,9C241.65,382.07,241.61,385.08,241.53,388.08Z" style="fill:#a6a6a6"></path><path d="M244.12,388.08q-.12-4.5-.16-9l-.05-9,.05-9c0-3,.07-6,.16-9,.09,3,.13,6,.16,9l.05,9-.05,9C244.25,382.07,244.21,385.08,244.12,388.08Z" style="fill:#a6a6a6"></path><path d="M246.72,388.08c-.09-1.5-.13-3-.16-4.51s0-3-.05-4.51,0-3,.05-4.51.07-3,.16-4.5c.09,1.5.13,3,.16,4.5s0,3,.05,4.51,0,3-.05,4.51S246.81,386.58,246.72,388.08Z" style="fill:#a6a6a6"></path><path d="M192.18,280.07c-.09-3-.13-6-.16-9l-.05-9,.05-9c0-3,.07-6,.16-9,.09,3,.13,6,.16,9l0,9,0,9C192.31,274.05,192.27,277.06,192.18,280.07Z" style="fill:#a6a6a6"></path><path d="M194.78,280.07c-.09-3-.13-6-.17-9l0-9,0-9c0-3,.08-6,.17-9,.08,3,.12,6,.16,9l.05,9-.05,9C194.9,274.05,194.86,277.06,194.78,280.07Z" style="fill:#a6a6a6"></path><path d="M197.37,280.07c-.08-3-.12-6-.16-9l-.05-9,.05-9q0-4.5.16-9c.09,3,.13,6,.16,9l.05,9-.05,9C197.5,274.05,197.46,277.06,197.37,280.07Z" style="fill:#a6a6a6"></path><path d="M200,280.07c-.09-3-.13-6-.16-9l-.05-9,.05-9c0-3,.07-6,.16-9,.09,3,.13,6,.16,9l.05,9-.05,9C200.1,274.05,200.06,277.06,200,280.07Z" style="fill:#a6a6a6"></path><path d="M202.57,280.07c-.09-1.51-.13-3-.16-4.51s0-3,0-4.51,0-3,0-4.51.07-3,.16-4.51c.08,1.5.12,3,.16,4.51s0,3,.05,4.51,0,3-.05,4.51S202.65,278.56,202.57,280.07Z" style="fill:#a6a6a6"></path><path d="M207.76,280.07c-.09-3-.13-6-.16-9l0-9,0-9c0-3,.07-6,.16-9,.09,3,.13,6,.16,9l.05,9-.05,9C207.89,274.05,207.85,277.06,207.76,280.07Z" style="fill:#a6a6a6"></path><path d="M210.36,280.07c-.09-3-.13-6-.16-9l0-9,0-9c0-3,.07-6,.16-9,.09,3,.13,6,.16,9l0,9,0,9C210.49,274.05,210.45,277.06,210.36,280.07Z" style="fill:#a6a6a6"></path><path d="M213,280.07c-.09-3-.13-6-.17-9l0-9,0-9c0-3,.08-6,.17-9,.08,3,.12,6,.16,9l0,9,0,9C213.08,274.05,213,277.06,213,280.07Z" style="fill:#a6a6a6"></path><path d="M215.55,280.07c-.08-3-.12-6-.16-9l0-9,0-9c0-3,.08-6,.16-9,.09,3,.13,6,.17,9l0,9,0,9C215.68,274.05,215.64,277.06,215.55,280.07Z" style="fill:#a6a6a6"></path><path d="M218.15,280.07c-.09-1.51-.13-3-.16-4.51s0-3-.05-4.51,0-3,.05-4.51.07-3,.16-4.51c.09,1.5.13,3,.16,4.51s0,3,.05,4.51,0,3-.05,4.51S218.24,278.56,218.15,280.07Z" style="fill:#a6a6a6"></path><path d="M223.34,280.07c-.08-3-.12-6-.16-9l-.05-9,.05-9c0-3,.08-6,.16-9,.09,3,.13,6,.17,9l.05,9-.05,9C223.47,274.05,223.43,277.06,223.34,280.07Z" style="fill:#a6a6a6"></path><path d="M225.94,280.07q-.12-4.51-.16-9l-.05-9,.05-9c0-3,.07-6,.16-9,.09,3,.13,6,.16,9l.05,9-.05,9C226.07,274.05,226,277.06,225.94,280.07Z" style="fill:#a6a6a6"></path><path d="M228.54,280.07c-.09-3-.13-6-.16-9l0-9,0-9c0-3,.07-6,.16-9,.09,3,.13,6,.16,9l.05,9-.05,9C228.67,274.05,228.63,277.06,228.54,280.07Z" style="fill:#a6a6a6"></path><path d="M231.14,280.07c-.09-1.51-.13-3-.16-4.51s0-3,0-4.51,0-3,0-4.51.08-3,.17-4.51c.08,1.5.12,3,.16,4.51s0,3,0,4.51,0,3,0,4.51S231.22,278.56,231.14,280.07Z" style="fill:#a6a6a6"></path><path d="M236.33,280.07c-.09-3-.13-6-.16-9l0-9,0-9c0-3,.07-6,.16-9,.09,3,.13,6,.16,9l0,9,0,9C236.46,274.05,236.42,277.06,236.33,280.07Z" style="fill:#a6a6a6"></path><path d="M238.93,280.07c-.09-3-.13-6-.16-9l-.05-9,.05-9c0-3,.07-6,.16-9,.09,3,.13,6,.16,9l0,9,0,9Q239,275.55,238.93,280.07Z" style="fill:#a6a6a6"></path><path d="M241.53,280.07c-.09-3-.13-6-.17-9l-.05-9,.05-9c0-3,.08-6,.17-9,.08,3,.12,6,.16,9l.05,9-.05,9C241.65,274.05,241.61,277.06,241.53,280.07Z" style="fill:#a6a6a6"></path><path d="M244.12,280.07q-.12-4.51-.16-9l-.05-9,.05-9c0-3,.07-6,.16-9,.09,3,.13,6,.16,9l.05,9-.05,9C244.25,274.05,244.21,277.06,244.12,280.07Z" style="fill:#a6a6a6"></path><path d="M246.72,280.07c-.09-1.51-.13-3-.16-4.51s0-3-.05-4.51,0-3,.05-4.51.07-3,.16-4.51c.09,1.5.13,3,.16,4.51s0,3,.05,4.51,0,3-.05,4.51S246.81,278.56,246.72,280.07Z" style="fill:#a6a6a6"></path><rect x="238.62" y="350.09" width="56.59" height="2.63" transform="translate(-84.5 618.31) rotate(-90)" style="fill:#ebebeb"></rect><rect x="246.45" y="357.93" width="40.91" height="2.63" transform="translate(-92.33 626.15) rotate(-90)" style="fill:#FFC727"></rect><rect x="245.41" y="350.09" width="56.59" height="2.63" transform="translate(-77.7 625.11) rotate(-90)" style="fill:#ebebeb"></rect><rect x="247.76" y="352.44" width="51.89" height="2.63" transform="translate(-80.05 627.46) rotate(-90)" style="fill:#FFC727"></rect><rect x="252.21" y="350.09" width="56.59" height="2.63" transform="translate(-70.9 631.91) rotate(-90)" style="fill:#ebebeb"></rect><rect x="258.45" y="356.34" width="44.1" height="2.63" transform="translate(-77.15 638.15) rotate(-90)" style="fill:#FFC727"></rect><rect x="259.01" y="350.09" width="56.59" height="2.63" transform="translate(-64.11 638.71) rotate(-90)" style="fill:#ebebeb"></rect><rect x="262.99" y="354.07" width="48.63" height="2.63" transform="translate(-68.08 642.68) rotate(-90)" style="fill:#FFC727"></rect><rect x="265.8" y="350.09" width="56.59" height="2.63" transform="translate(-57.31 645.5) rotate(-90)" style="fill:#ebebeb"></rect><rect x="267.49" y="351.77" width="53.22" height="2.63" transform="translate(-58.99 647.19) rotate(-90)" style="fill:#FFC727"></rect><rect x="264.79" y="383.84" width="4.24" height="4.24" transform="translate(-119.05 652.87) rotate(-90)" style="fill:#FFC727"></rect><rect x="271.58" y="383.84" width="4.24" height="4.24" transform="translate(-112.25 659.67) rotate(-90)" style="fill:#455a64"></rect><rect x="278.38" y="383.84" width="4.24" height="4.24" transform="translate(-105.46 666.46) rotate(-90)" style="fill:#c7c7c7"></rect><rect x="285.18" y="383.84" width="4.24" height="4.24" transform="translate(-98.66 673.26) rotate(-90)" style="fill:#FFC727"></rect><rect x="291.98" y="383.84" width="4.24" height="4.24" transform="translate(-91.86 680.06) rotate(-90)" style="fill:#263238"></rect><rect x="240.22" y="288.86" width="36.06" height="1.9" transform="translate(-31.56 548.06) rotate(-90)" style="fill:#455a64"></rect><rect x="258.78" y="300.03" width="13.71" height="1.9" transform="translate(-35.35 566.62) rotate(-90)" style="fill:#c7c7c7"></rect><rect x="274.96" y="300.03" width="13.71" height="1.9" transform="translate(-19.17 582.8) rotate(-90)" style="fill:#c7c7c7"></rect><rect x="291.15" y="300.03" width="13.71" height="1.9" transform="translate(-2.98 598.99) rotate(-90)" style="fill:#c7c7c7"></rect><rect x="307.33" y="300.03" width="13.71" height="1.9" transform="translate(13.2 615.17) rotate(-90)" style="fill:#c7c7c7"></rect><path d="M265.63,280.16c-.08-3-.12-6-.16-9l-.05-9,.05-9c0-3,.08-6,.16-9,.09,3,.13,6,.16,9l0,9,0,9C265.76,274.14,265.72,277.15,265.63,280.16Z" style="fill:#a6a6a6"></path><path d="M268.23,280.16c-.09-3-.13-6-.16-9l-.05-9,.05-9c0-3,.07-6,.16-9,.09,3,.13,6,.16,9l.05,9-.05,9C268.36,274.14,268.32,277.15,268.23,280.16Z" style="fill:#a6a6a6"></path><path d="M270.83,280.16c-.09-3-.13-6-.16-9l-.05-9,.05-9c0-3,.07-6,.16-9,.08,3,.13,6,.16,9l.05,9-.05,9C271,274.14,270.91,277.15,270.83,280.16Z" style="fill:#a6a6a6"></path><path d="M273.42,280.16c-.08-1.27-.12-2.54-.16-3.81s0-2.54-.05-3.81,0-2.54.05-3.81.08-2.54.16-3.81c.09,1.27.13,2.54.17,3.81s0,2.54,0,3.81,0,2.54,0,3.81S273.51,278.89,273.42,280.16Z" style="fill:#a6a6a6"></path><path d="M281.86,280.16c-.08-3-.12-6-.16-9l-.05-9,.05-9c0-3,.08-6,.16-9,.09,3,.13,6,.16,9l.05,9-.05,9C282,274.14,282,277.15,281.86,280.16Z" style="fill:#a6a6a6"></path><path d="M284.46,280.16c-.09-3-.13-6-.16-9l-.05-9,.05-9c0-3,.07-6,.16-9,.09,3,.13,6,.16,9l.05,9-.05,9C284.59,274.14,284.55,277.15,284.46,280.16Z" style="fill:#a6a6a6"></path><path d="M287.06,280.16c-.09-3-.13-6-.16-9l0-9,0-9c0-3,.07-6,.16-9,.08,3,.13,6,.16,9l0,9,0,9C287.18,274.14,287.14,277.15,287.06,280.16Z" style="fill:#a6a6a6"></path><path d="M289.65,280.16c-.08-1.27-.12-2.54-.16-3.81s0-2.54-.05-3.81,0-2.54.05-3.81.08-2.54.16-3.81c.09,1.27.13,2.54.17,3.81s0,2.54,0,3.81,0,2.54,0,3.81S289.74,278.89,289.65,280.16Z" style="fill:#a6a6a6"></path><path d="M298.09,280.16q-.12-4.52-.16-9l-.05-9,.05-9c0-3,.07-6,.16-9,.09,3,.13,6,.16,9l.05,9-.05,9C298.22,274.14,298.18,277.15,298.09,280.16Z" style="fill:#a6a6a6"></path><path d="M300.69,280.16c-.09-3-.13-6-.16-9l0-9,0-9c0-3,.07-6,.16-9,.09,3,.13,6,.16,9l0,9,0,9C300.82,274.14,300.78,277.15,300.69,280.16Z" style="fill:#a6a6a6"></path><path d="M303.29,280.16c-.09-3-.13-6-.16-9l-.05-9,0-9c0-3,.08-6,.17-9,.08,3,.12,6,.16,9l.05,9-.05,9C303.41,274.14,303.37,277.15,303.29,280.16Z" style="fill:#a6a6a6"></path><path d="M305.88,280.16c-.08-1.27-.12-2.54-.16-3.81s0-2.54-.05-3.81,0-2.54.05-3.81.08-2.54.16-3.81c.09,1.27.13,2.54.17,3.81s0,2.54,0,3.81,0,2.54,0,3.81S306,278.89,305.88,280.16Z" style="fill:#a6a6a6"></path><path d="M314.32,280.16q-.12-4.52-.16-9l-.05-9,.05-9c0-3,.07-6,.16-9,.09,3,.13,6,.16,9l0,9,0,9C314.45,274.14,314.41,277.15,314.32,280.16Z" style="fill:#a6a6a6"></path><path d="M316.92,280.16c-.09-3-.13-6-.16-9l-.05-9,.05-9c0-3,.07-6,.16-9,.09,3,.13,6,.16,9l.05,9-.05,9C317.05,274.14,317,277.15,316.92,280.16Z" style="fill:#a6a6a6"></path><path d="M319.52,280.16c-.09-3-.13-6-.16-9l-.05-9,0-9c0-3,.08-6,.17-9,.08,3,.12,6,.16,9l.05,9-.05,9C319.64,274.14,319.6,277.15,319.52,280.16Z" style="fill:#a6a6a6"></path><path d="M322.11,280.16c-.08-1.27-.12-2.54-.16-3.81s0-2.54-.05-3.81,0-2.54.05-3.81.08-2.54.16-3.81c.09,1.27.13,2.54.17,3.81s0,2.54,0,3.81,0,2.54-.05,3.81S322.2,278.89,322.11,280.16Z" style="fill:#a6a6a6"></path><polygon points="264.99 287.38 273.18 287.27 281.38 287.21 297.77 287.16 298.77 287.21 306.97 287.27 315.17 287.38 306.97 287.49 298.77 287.55 297.77 287.6 281.38 287.55 273.18 287.49 264.99 287.38" style="fill:#FFC727"></polygon><circle cx="265.63" cy="287.38" r="0.84" style="fill:#FFC727"></circle><path d="M281.86,286.54a.84.84,0,0,1,.85.84.85.85,0,1,1-1.69,0A.84.84,0,0,1,281.86,286.54Z" style="fill:#FFC727"></path><circle cx="298.09" cy="287.38" r="0.84" style="fill:#FFC727"></circle><circle cx="314.32" cy="287.38" r="0.84" style="fill:#FFC727"></circle><path d="M315.86,375.57a6.24,6.24,0,1,1-3.11.82A6.25,6.25,0,0,1,315.86,375.57Z" style="fill:#455a64"></path><path d="M312.75,376.39l3.11,5.43H309.6A6.24,6.24,0,0,1,312.75,376.39Z" style="fill:#FFC727"></path><path d="M315.86,377.5a4.33,4.33,0,1,1-4.33,4.32A4.31,4.31,0,0,1,315.86,377.5Z" style="fill:#fff"></path><rect x="313.35" y="381.57" width="3.6" height="0.51" transform="translate(-66.68 696.97) rotate(-90)" style="fill:#263238"></rect><rect x="313.87" y="381.57" width="5.39" height="0.51" transform="translate(-65.26 698.39) rotate(-90)" style="fill:#a6a6a6"></rect><path d="M315.86,358.06a5.49,5.49,0,0,1,.91.07,6.23,6.23,0,1,1-.91-.07Z" style="fill:#455a64"></path><path d="M315.86,358.06a5.49,5.49,0,0,1,.91.07l-.91,6.18H309.6a6.24,6.24,0,0,1,6.26-6.25Z" style="fill:#FFC727"></path><path d="M315.86,360a4.33,4.33,0,1,1-4.33,4.32A4.31,4.31,0,0,1,315.86,360Z" style="fill:#fff"></path><rect x="313.35" y="364.06" width="3.6" height="0.51" transform="translate(-49.17 679.46) rotate(-90)" style="fill:#263238"></rect><rect x="313.87" y="364.06" width="5.39" height="0.51" transform="translate(-47.75 680.88) rotate(-90)" style="fill:#a6a6a6"></rect><path d="M315.86,340.43a6.25,6.25,0,0,1,5.84,4,6.19,6.19,0,0,1,.41,2.24,6.26,6.26,0,1,1-6.25-6.25Z" style="fill:#455a64"></path><path d="M315.86,340.43a6.25,6.25,0,0,1,5.84,4l-5.84,2.24H309.6a6.24,6.24,0,0,1,6.26-6.25Z" style="fill:#FFC727"></path><path d="M315.86,342.36a4.33,4.33,0,1,1-4.33,4.32A4.31,4.31,0,0,1,315.86,342.36Z" style="fill:#fff"></path><rect x="313.35" y="346.43" width="3.6" height="0.51" transform="translate(-31.53 661.83) rotate(-90)" style="fill:#263238"></rect><rect x="313.87" y="346.43" width="5.39" height="0.51" transform="translate(-30.12 663.25) rotate(-90)" style="fill:#a6a6a6"></rect><path d="M315.86,322.89a6.27,6.27,0,1,1-3.11.83A6.15,6.15,0,0,1,315.86,322.89Z" style="fill:#455a64"></path><path d="M315.86,322.89a6.26,6.26,0,0,1,4.75,10.32l-4.75-4.06H309.6a6.24,6.24,0,0,1,3.15-5.43A6.15,6.15,0,0,1,315.86,322.89Z" style="fill:#FFC727"></path><path d="M315.86,324.82a4.33,4.33,0,1,1-4.33,4.33A4.32,4.32,0,0,1,315.86,324.82Z" style="fill:#fff"></path><rect x="313.35" y="328.89" width="3.6" height="0.51" transform="translate(-14 644.3) rotate(-90)" style="fill:#263238"></rect><rect x="313.87" y="328.89" width="5.39" height="0.51" transform="translate(-12.59 645.71) rotate(-90)" style="fill:#a6a6a6"></rect><polygon points="257.16 317.3 265.72 317.19 274.28 317.13 291.4 317.08 308.51 317.13 317.07 317.19 325.63 317.3 317.07 317.4 308.51 317.46 291.4 317.5 274.28 317.46 265.72 317.4 257.16 317.3" style="fill:#455a64"></polygon><g id="freepik--iaq7yo--inject-124"><path d="M343.89,384.22a.5.5,0,0,1,.14.27l0,.14v.23a2,2,0,0,0,0,.24,2.57,2.57,0,0,1-.38.86,5.54,5.54,0,0,1-1.55,1.54,2.39,2.39,0,0,1-.85.37l-.24,0h-.23a.85.85,0,0,1-.41-.15l0,0,1-1a.07.07,0,0,1,.06,0,.47.47,0,0,0,.47-.1,8.12,8.12,0,0,0,.88-.88.46.46,0,0,0,.11-.47,0,0,0,0,1,0-.06l1-1Z" style="fill:#FFC727"></path><path d="M343.33,383.65l.34.34,0,0-1,1-.06-.08-.3-.29a.17.17,0,0,1,0-.26l.75-.74A.16.16,0,0,1,343.33,383.65Z" style="fill:#FFC727"></path><path d="M340.78,386.18l.37.39-1,1,0,0-.35-.35a.15.15,0,0,1,0-.24l.75-.75A.16.16,0,0,1,340.78,386.18Z" style="fill:#FFC727"></path></g><g id="freepik--tefye6--inject-124"><path d="M348.94,383.79a.94.94,0,0,1,.1.1l1.59,1.67a.25.25,0,0,1,0,.38L349,387.65l-.07.06a.24.24,0,0,1,0-.15v-1.15c0-.81,0-1.61,0-2.41A.39.39,0,0,1,348.94,383.79Z" style="fill:#FFC727"></path><path d="M351.89,383.79a.89.89,0,0,1,0,.14v1.39c0,.74,0,1.48,0,2.22a.39.39,0,0,1,0,.18l-1.32-1.38.25-.27.11-.11a.3.3,0,0,0,0-.43l-.35-.37,1.29-1.37Z" style="fill:#FFC727"></path><path d="M350.41,386.51c.44.44.86.9,1.3,1.34h-2.58Z" style="fill:#FFC727"></path><path d="M351.69,383.65l-.48.5-.77.82,0,0c-.44-.45-.86-.91-1.3-1.34C349.17,383.64,351.63,383.63,351.69,383.65Z" style="fill:#FFC727"></path></g><g id="freepik--aizgp2--inject-124"><path d="M340.8,317.33a2.9,2.9,0,0,0,1,.21v.85h-.09a2,2,0,0,1-.34-.06,2.47,2.47,0,0,1-.52-.18s0,0,0,0v-.79Z" style="fill:#FFC727"></path><path d="M343,317.36h0v.77s0,0,0,0a2.49,2.49,0,0,1-.6.2l-.3,0h0v-.83s0,0,0,0h.21l.32,0,.39-.12Z" style="fill:#FFC727"></path><path d="M343.2,314.06h0a2,2,0,0,1,.29.22,2.35,2.35,0,0,1,.3.33,2.3,2.3,0,0,1,.23.37,2.26,2.26,0,0,1,.15.39c0,.11.05.22.07.33v0a2.67,2.67,0,0,0-.6-.61,3,3,0,0,0-.42-.26s0,0,0,0v-.8Z" style="fill:#FFC727"></path><path d="M341.76,314.85V316h-1v-.86s0,0,0,0a2.26,2.26,0,0,1,.56-.17l.31,0Z" style="fill:#FFC727"></path><path d="M342,314.85h.22l.22,0a2.33,2.33,0,0,1,.47.14l0,0v.87H342Z" style="fill:#FFC727"></path><path d="M340.8,316.2h1v1.07h-.08l-.16,0-.24-.05a2.06,2.06,0,0,1-.48-.15s0,0,0,0v-.82Z" style="fill:#FFC727"></path><path d="M342,316.19H343v.86s0,0,0,0a2.13,2.13,0,0,1-.49.15l-.26,0H342v-1.05Z" style="fill:#FFC727"></path><path d="M341.77,313.68v.9a3.17,3.17,0,0,0-1,.21h0V314s0,0,0,0a2.14,2.14,0,0,1,.6-.21l.34,0Z" style="fill:#FFC727"></path><path d="M342,313.68h.06l.24,0a2.19,2.19,0,0,1,.55.17l.08,0v.85h0l-.09,0a3.17,3.17,0,0,0-.44-.12c-.11,0-.21,0-.32,0H342Z" style="fill:#FFC727"></path><path d="M340.55,314.09h0v.81a2.46,2.46,0,0,0-.58.39,2.68,2.68,0,0,0-.28.3l-.12.17h0a2.47,2.47,0,0,1,.24-.8A2.29,2.29,0,0,1,340.55,314.09Z" style="fill:#FFC727"></path><path d="M344.24,316.35v0a2.38,2.38,0,0,1-.05.26,2.54,2.54,0,0,1-.17.46,2.47,2.47,0,0,1-.31.46,1.48,1.48,0,0,1-.28.28l-.24.18h0v-.73s0,0,0,0a3.23,3.23,0,0,0,.44-.27,2.66,2.66,0,0,0,.35-.32,3.61,3.61,0,0,0,.25-.3Z" style="fill:#FFC727"></path><path d="M339.56,316.36l.08.11a2.59,2.59,0,0,0,.86.73l0,0h0V318a2.32,2.32,0,0,1-1-1.62h0Z" style="fill:#FFC727"></path><path d="M343.2,315.17a3,3,0,0,1,.49.37,2.3,2.3,0,0,1,.35.41h-.84Z" style="fill:#FFC727"></path><path d="M343.2,316.2H344a2.45,2.45,0,0,1-.83.74Z" style="fill:#FFC727"></path><path d="M340.55,315.2V316h-.79a1.78,1.78,0,0,1,.35-.42A2.41,2.41,0,0,1,340.55,315.2Z" style="fill:#FFC727"></path><path d="M339.78,316.2h.77v.71A2.28,2.28,0,0,1,339.78,316.2Z" style="fill:#FFC727"></path></g><g id="freepik--ugja8c--inject-124"><path d="M349,314.21a2,2,0,0,0-1.07,2.34,1.88,1.88,0,0,0,2,1.46,2.37,2.37,0,0,0,.87-.26,7.21,7.21,0,0,0,1.65-1.13l.59-.57L353,316c-.26-.24-.52-.5-.79-.73a5.65,5.65,0,0,0-1.68-1.05A2,2,0,0,0,349,314.21Zm.74.61a1.23,1.23,0,1,1-1.25,1.15A1.21,1.21,0,0,1,349.7,314.82Z" style="fill:#FFC727"></path></g><path d="M340.46,379.22c-.09-3-.13-6-.16-9l-.05-9,.05-9c0-3,.07-6,.16-9,.09,3,.13,6,.16,9l.05,9-.05,9C340.59,373.21,340.55,376.22,340.46,379.22Z" style="fill:#a6a6a6"></path><path d="M343.06,379.22c-.09-1.5-.13-3-.16-4.51s0-3,0-4.51,0-3,0-4.51.07-3,.16-4.5c.08,1.5.13,3,.16,4.5s0,3,0,4.51,0,3,0,4.51S343.14,377.72,343.06,379.22Z" style="fill:#a6a6a6"></path><path d="M349.11,379.22c-.09-3-.13-6-.16-9l-.05-9,.05-9c0-3,.07-6,.16-9,.09,3,.13,6,.16,9l.05,9-.05,9C349.24,373.21,349.2,376.22,349.11,379.22Z" style="fill:#a6a6a6"></path><path d="M351.71,379.22c-.09-1.5-.13-3-.16-4.51s0-3-.05-4.51,0-3,.05-4.51.07-3,.16-4.5c.08,1.5.13,3,.16,4.5s0,3,.05,4.51,0,3-.05,4.51S351.79,377.72,351.71,379.22Z" style="fill:#a6a6a6"></path><path d="M340.46,307.28c-.09-3-.13-6-.16-9l-.05-9,.05-9c0-3,.07-6,.16-9,.09,3,.13,6,.16,9l.05,9-.05,9C340.59,301.27,340.55,304.27,340.46,307.28Z" style="fill:#a6a6a6"></path><path d="M343.06,307.28c-.09-1.5-.13-3-.16-4.51s0-3,0-4.51,0-3,0-4.51.07-3,.16-4.51c.08,1.5.13,3,.16,4.51s0,3,0,4.51,0,3,0,4.51S343.14,305.78,343.06,307.28Z" style="fill:#a6a6a6"></path><path d="M349.11,307.28c-.09-3-.13-6-.16-9l-.05-9,.05-9c0-3,.07-6,.16-9,.09,3,.13,6,.16,9l.05,9-.05,9C349.24,301.27,349.2,304.27,349.11,307.28Z" style="fill:#a6a6a6"></path><path d="M351.71,307.28c-.09-1.5-.13-3-.16-4.51s0-3-.05-4.51,0-3,.05-4.51.07-3,.16-4.51c.08,1.5.13,3,.16,4.51s0,3,.05,4.51,0,3-.05,4.51S351.79,305.78,351.71,307.28Z" style="fill:#a6a6a6"></path><polygon points="375.16 405.81 139.28 405.81 137.51 248.7 373.39 248.7 375.16 405.81" style="fill:#455a64"></polygon><polygon points="224.91 232.43 137.33 232.43 137.51 248.7 230.12 248.7 224.91 232.43" style="fill:#455a64"></polygon><rect x="84.28" y="252.56" width="235.88" height="171.33" style="fill:#FFC727"></rect><polygon points="171.96 234.81 84.38 234.81 84.36 252.56 176.97 252.56 171.96 234.81" style="fill:#FFC727"></polygon><g style="opacity:0.2"><rect x="84.28" y="252.56" width="235.88" height="171.33"></rect><polygon points="171.96 234.81 84.38 234.81 84.36 252.56 176.97 252.56 171.96 234.81"></polygon></g><rect x="117.36" y="186.05" width="167.98" height="219.16" transform="translate(-126.61 438.4) rotate(-79.27)" style="fill:#fff"></rect><path d="M324.66,233.52l-31.23,165v.06h-.06L78,357.88l-.14,0,0-.13,31.35-165v-.08h.08Zm0,0L109.32,192.78l.09-.06-31.23,165-.11-.16L293.38,398.5l-.07.05Z" style="fill:#263238"></path><rect x="222.46" y="312.94" width="167.98" height="5.23" transform="translate(-60.66 557.87) rotate(-79.27)" style="fill:#FFC727"></rect><rect x="132.12" y="303.14" width="12.16" height="107.41" transform="matrix(0.19, -0.98, 0.98, 0.19, -238.15, 426.17)" style="fill:#ebebeb"></rect><rect x="258.47" y="180.71" width="12.16" height="107.41" transform="translate(-15.04 450.68) rotate(-79.27)" style="fill:#ebebeb"></rect><rect x="12.27" y="273.09" width="167.98" height="5.23" transform="translate(-192.55 318.93) rotate(-79.27)" style="fill:#263238"></rect><rect x="132.5" y="257.84" width="61.06" height="61.06" transform="translate(-150.65 394.84) rotate(-79.27)" style="fill:#c7c7c7"></rect><circle cx="154.95" cy="286.84" r="12.24" transform="translate(-156.15 384.31) rotate(-79.02)" style="fill:#fff"></circle><path d="M192.08,272.34l4.89.93-7.88,41.57-4.89-.93a21.16,21.16,0,1,1,7.88-41.57Z" style="fill:#fff"></path><rect x="43.55" y="270.92" width="144.09" height="16.92" transform="translate(-180.42 340.91) rotate(-79.27)" style="fill:#455a64"></rect><rect x="109.12" y="338.88" width="28.1" height="1.9" transform="translate(-233.66 397.55) rotate(-79.27)" style="fill:#455a64"></rect><rect x="179.51" y="352.23" width="28.1" height="1.9" transform="translate(-189.49 477.57) rotate(-79.27)" style="fill:#455a64"></rect><rect x="254.22" y="366.39" width="28.1" height="1.9" transform="translate(-142.61 562.51) rotate(-79.27)" style="fill:#455a64"></rect><rect x="224.08" y="360.68" width="28.1" height="1.9" transform="translate(-161.53 528.23) rotate(-79.27)" style="fill:#455a64"></rect><rect x="129.24" y="232.76" width="28.1" height="1.9" transform="translate(-113.02 330.96) rotate(-79.27)" style="fill:#455a64"></rect><path d="M126,354.68c.47-3,1-5.93,1.52-8.89l1.63-8.87,1.73-8.85c.59-2.95,1.19-5.9,1.83-8.83-.47,3-1,5.93-1.52,8.89L129.59,337l-1.73,8.85C127.27,348.8,126.67,351.74,126,354.68Z" style="fill:#a6a6a6"></path><path d="M128.58,355.16c.47-3,1-5.93,1.52-8.89l1.63-8.87,1.73-8.85c.59-2.95,1.19-5.89,1.84-8.83-.48,3-1,5.93-1.52,8.89l-1.64,8.87-1.72,8.85C129.82,349.28,129.22,352.23,128.58,355.16Z" style="fill:#a6a6a6"></path><path d="M131.13,355.65c.47-3,1-5.93,1.52-8.89l1.63-8.87L136,329c.59-2.94,1.19-5.89,1.84-8.83-.48,3-1,5.94-1.52,8.9L134.7,338,133,346.82C132.37,349.76,131.77,352.71,131.13,355.65Z" style="fill:#a6a6a6"></path><path d="M133.68,356.13c.48-3,1-5.93,1.52-8.89l1.63-8.87,1.73-8.85c.59-2.95,1.19-5.89,1.84-8.83-.47,3-1,5.93-1.52,8.89l-1.63,8.87-1.73,8.85C134.93,350.25,134.33,353.19,133.68,356.13Z" style="fill:#a6a6a6"></path><path d="M136.23,356.61c.2-1.49.44-3,.68-4.46s.53-3,.8-4.44.57-2.95.88-4.42.64-2.94,1-4.4c-.19,1.5-.43,3-.68,4.46s-.53,3-.79,4.44-.57,2.95-.89,4.42S136.6,355.15,136.23,356.61Z" style="fill:#a6a6a6"></path><path d="M141.34,357.58c.47-3,1-5.93,1.52-8.89l1.63-8.87,1.73-8.85c.59-3,1.19-5.89,1.84-8.83-.48,3-1,5.93-1.53,8.89l-1.63,8.87-1.73,8.85C142.58,351.7,142,354.64,141.34,357.58Z" style="fill:#a6a6a6"></path><path d="M143.89,358.07c.47-3,1-5.94,1.52-8.9l1.63-8.86,1.73-8.86c.59-2.94,1.19-5.89,1.84-8.83-.48,3-1,5.93-1.52,8.89l-1.64,8.87-1.72,8.85C145.13,352.18,144.53,355.13,143.89,358.07Z" style="fill:#a6a6a6"></path><path d="M146.44,358.55c.47-3,1-5.93,1.52-8.89l1.63-8.87,1.73-8.85c.59-2.95,1.19-5.9,1.84-8.83-.47,3-1,5.93-1.52,8.89L150,340.87l-1.73,8.85C147.69,352.67,147.09,355.61,146.44,358.55Z" style="fill:#a6a6a6"></path><path d="M149,359c.48-3,1-5.93,1.52-8.89l1.63-8.87,1.73-8.85c.6-2.95,1.19-5.89,1.84-8.83-.47,3-1,5.93-1.52,8.89l-1.63,8.87-1.73,8.85C150.24,353.15,149.64,356.1,149,359Z" style="fill:#a6a6a6"></path><path d="M151.54,359.52c.2-1.5.44-3,.69-4.46s.52-3,.79-4.44.57-2.95.88-4.42.64-2.94,1-4.4c-.19,1.49-.43,3-.68,4.46s-.53,3-.79,4.44-.57,2.95-.89,4.42S151.91,358.06,151.54,359.52Z" style="fill:#a6a6a6"></path><path d="M156.65,360.48c.47-3,1-5.93,1.52-8.89l1.63-8.87,1.73-8.85c.59-2.94,1.19-5.89,1.84-8.83-.48,3-1,5.93-1.52,8.89l-1.64,8.87-1.72,8.85C157.89,354.6,157.29,357.55,156.65,360.48Z" style="fill:#a6a6a6"></path><path d="M159.2,361c.47-3,1-5.93,1.52-8.89l1.63-8.87,1.73-8.85c.59-2.95,1.19-5.9,1.84-8.83-.48,3-1,5.93-1.52,8.89l-1.63,8.87L161,352.14C160.44,355.08,159.84,358,159.2,361Z" style="fill:#a6a6a6"></path><path d="M161.75,361.45c.48-3,1-5.93,1.52-8.89l1.63-8.87,1.73-8.85c.59-2.95,1.19-5.89,1.84-8.83-.47,3-1,5.93-1.52,8.89l-1.63,8.87-1.73,8.85C163,355.57,162.4,358.51,161.75,361.45Z" style="fill:#a6a6a6"></path><path d="M164.3,361.94c.2-1.5.44-3,.68-4.46s.53-3,.8-4.44.57-3,.88-4.43.64-2.94,1-4.4c-.19,1.5-.43,3-.68,4.46s-.53,3-.79,4.44-.58,2.95-.89,4.43S164.67,360.47,164.3,361.94Z" style="fill:#a6a6a6"></path><path d="M169.41,362.9c.47-3,1-5.93,1.52-8.89l1.63-8.87,1.73-8.85c.59-3,1.19-5.89,1.83-8.83-.47,3-1,5.93-1.52,8.89L173,345.22l-1.73,8.85C170.65,357,170.05,360,169.41,362.9Z" style="fill:#a6a6a6"></path><path d="M172,363.39c.47-3,1-5.93,1.52-8.89l1.63-8.87,1.73-8.86c.59-2.94,1.19-5.89,1.84-8.83-.48,3-1,5.94-1.52,8.9l-1.64,8.86-1.72,8.86C173.2,357.5,172.6,360.45,172,363.39Z" style="fill:#a6a6a6"></path><path d="M174.51,363.87c.47-3,1-5.93,1.52-8.89l1.63-8.87,1.73-8.85c.59-2.95,1.19-5.89,1.84-8.83-.48,3-1,5.93-1.52,8.89l-1.63,8.87L176.35,355C175.75,358,175.15,360.93,174.51,363.87Z" style="fill:#a6a6a6"></path><path d="M177.06,364.35c.48-3,1-5.93,1.52-8.89l1.63-8.87,1.73-8.85c.59-2.94,1.19-5.89,1.84-8.83-.47,3-1,5.93-1.52,8.89l-1.63,8.87-1.73,8.85C178.31,358.47,177.71,361.42,177.06,364.35Z" style="fill:#a6a6a6"></path><path d="M179.61,364.84c.2-1.5.44-3,.68-4.46s.53-3,.8-4.44.57-2.95.88-4.42.64-2.94,1-4.4c-.19,1.49-.43,3-.68,4.46s-.53,3-.79,4.44-.57,3-.89,4.42S180,363.38,179.61,364.84Z" style="fill:#a6a6a6"></path><path d="M146.14,248.55c.48-3,1-5.93,1.53-8.89l1.63-8.87,1.72-8.85c.6-2.94,1.2-5.89,1.84-8.83-.47,3-1,5.93-1.52,8.89l-1.63,8.87L148,239.72C147.39,242.67,146.79,245.62,146.14,248.55Z" style="fill:#a6a6a6"></path><path d="M148.7,249c.47-3,1-5.93,1.52-8.89l1.63-8.87,1.73-8.85c.59-3,1.19-5.9,1.84-8.83-.48,3-1,5.93-1.53,8.89l-1.63,8.87-1.73,8.85C149.94,243.16,149.34,246.1,148.7,249Z" style="fill:#a6a6a6"></path><path d="M151.25,249.52c.47-3,1-5.93,1.52-8.89l1.63-8.87,1.73-8.85c.59-2.95,1.19-5.89,1.84-8.83-.48,3-1,5.93-1.52,8.89l-1.64,8.87-1.72,8.85C152.49,243.64,151.89,246.58,151.25,249.52Z" style="fill:#a6a6a6"></path><path d="M153.8,250c.47-3,1-5.93,1.52-8.89l1.63-8.87,1.73-8.86c.59-2.94,1.19-5.89,1.84-8.83-.48,3-1,5.93-1.52,8.89l-1.63,8.87-1.73,8.86C155.05,244.12,154.45,247.07,153.8,250Z" style="fill:#a6a6a6"></path><path d="M156.35,250.49c.2-1.49.44-3,.68-4.46s.53-3,.79-4.44.58-3,.89-4.42.64-2.94,1-4.4c-.19,1.49-.43,3-.68,4.46s-.53,3-.79,4.44-.58,3-.89,4.42S156.72,249,156.35,250.49Z" style="fill:#a6a6a6"></path><path d="M161.46,251.46c.47-3,1-5.93,1.52-8.89l1.63-8.87,1.73-8.85c.59-2.95,1.19-5.9,1.83-8.84-.47,3-1,5.94-1.52,8.9L165,233.78l-1.73,8.85C162.7,245.57,162.1,248.52,161.46,251.46Z" style="fill:#a6a6a6"></path><path d="M164,251.94c.47-3,1-5.93,1.52-8.89l1.63-8.87,1.73-8.85c.59-3,1.19-5.89,1.84-8.83-.48,3-1,5.93-1.52,8.89l-1.64,8.87-1.72,8.85C165.25,246.06,164.65,249,164,251.94Z" style="fill:#a6a6a6"></path><path d="M166.56,252.42c.47-3,1-5.93,1.52-8.89l1.63-8.87,1.73-8.85c.59-2.94,1.19-5.89,1.84-8.83-.48,3-1,5.93-1.52,8.89l-1.64,8.87-1.72,8.85C167.8,246.54,167.2,249.49,166.56,252.42Z" style="fill:#a6a6a6"></path><path d="M169.11,252.91q.72-4.46,1.52-8.89l1.63-8.87L174,226.3c.59-3,1.19-5.9,1.84-8.83-.47,3-1,5.93-1.52,8.89l-1.63,8.87L171,244.08C170.36,247,169.76,250,169.11,252.91Z" style="fill:#a6a6a6"></path><path d="M171.66,253.39c.2-1.49.44-3,.68-4.46s.53-3,.8-4.44.57-3,.88-4.42.64-2.94,1-4.4c-.19,1.49-.43,3-.68,4.46s-.53,3-.79,4.44-.58,3-.89,4.42S172,251.93,171.66,253.39Z" style="fill:#a6a6a6"></path><path d="M176.77,254.36c.47-3,1-5.93,1.52-8.89l1.63-8.87,1.73-8.85c.59-2.95,1.19-5.9,1.83-8.83-.47,3-1,5.93-1.52,8.89l-1.63,8.87-1.73,8.85C178,248.48,177.41,251.42,176.77,254.36Z" style="fill:#a6a6a6"></path><path d="M179.32,254.84c.47-3,1-5.93,1.52-8.89l1.63-8.87,1.73-8.85c.59-2.95,1.19-5.89,1.84-8.83-.48,3-1,5.93-1.52,8.89l-1.64,8.87L181.16,246C180.56,249,180,251.91,179.32,254.84Z" style="fill:#a6a6a6"></path><path d="M181.87,255.33c.47-3,1-5.93,1.52-8.89l1.63-8.87,1.73-8.85c.59-2.95,1.19-5.9,1.84-8.84-.48,3-1,5.94-1.52,8.9l-1.63,8.87-1.73,8.85C183.11,249.44,182.51,252.39,181.87,255.33Z" style="fill:#a6a6a6"></path><path d="M184.42,255.81c.2-1.49.44-3,.68-4.46s.53-3,.79-4.44.58-2.95.89-4.42.63-2.94,1-4.4c-.19,1.49-.43,3-.68,4.46s-.53,3-.79,4.44-.58,2.95-.89,4.42S184.79,254.35,184.42,255.81Z" style="fill:#a6a6a6"></path><path d="M189.52,256.78c.48-3,1-5.93,1.53-8.89l1.63-8.87,1.72-8.85c.6-2.95,1.2-5.9,1.84-8.83-.47,3-1,5.93-1.52,8.89l-1.63,8.87L191.36,248C190.77,250.9,190.17,253.84,189.52,256.78Z" style="fill:#a6a6a6"></path><path d="M192.08,257.26c.47-3,1-5.93,1.52-8.89l1.63-8.87,1.73-8.85c.59-3,1.19-5.89,1.84-8.83-.48,3-1,5.93-1.53,8.89l-1.63,8.87-1.73,8.85C193.32,251.38,192.72,254.32,192.08,257.26Z" style="fill:#a6a6a6"></path><path d="M194.63,257.75c.47-3,1-5.93,1.52-8.89l1.63-8.87,1.73-8.86c.59-2.94,1.19-5.89,1.84-8.83-.48,3-1,5.93-1.52,8.89l-1.64,8.87-1.72,8.86C195.87,251.86,195.27,254.81,194.63,257.75Z" style="fill:#a6a6a6"></path><path d="M197.18,258.23c.47-3,1-5.93,1.52-8.89l1.63-8.87,1.73-8.85c.59-3,1.19-5.9,1.84-8.83-.47,3-1,5.93-1.52,8.89l-1.63,8.87L199,249.4C198.43,252.35,197.83,255.29,197.18,258.23Z" style="fill:#a6a6a6"></path><path d="M199.73,258.71c.2-1.49.44-3,.68-4.46s.53-3,.79-4.44.58-2.95.89-4.42.64-2.94,1-4.4c-.19,1.5-.43,3-.68,4.46s-.53,3-.79,4.44-.58,3-.89,4.42S200.1,257.25,199.73,258.71Z" style="fill:#a6a6a6"></path><rect x="177.99" y="331.25" width="56.59" height="2.63" transform="translate(-158.88 473.29) rotate(-79.27)" style="fill:#ebebeb"></rect><rect x="184.37" y="338.95" width="40.91" height="2.63" transform="translate(-167.64 478.12) rotate(-79.27)" style="fill:#FFC727"></rect><rect x="184.67" y="332.52" width="56.59" height="2.63" transform="translate(-154.69 480.88) rotate(-79.27)" style="fill:#ebebeb"></rect><rect x="186.58" y="334.82" width="51.89" height="2.63" transform="matrix(0.19, -0.98, 0.98, 0.19, -157.32, 482.33)" style="fill:#FFC727"></rect><rect x="191.34" y="333.78" width="56.59" height="2.63" transform="translate(-150.5 488.47) rotate(-79.27)" style="fill:#ebebeb"></rect><rect x="196.42" y="339.92" width="44.1" height="2.63" transform="translate(-157.48 492.32) rotate(-79.27)" style="fill:#FFC727"></rect><rect x="198.02" y="335.05" width="56.59" height="2.63" transform="translate(-146.31 496.07) rotate(-79.27)" style="fill:#ebebeb"></rect><rect x="201.26" y="338.96" width="48.63" height="2.63" transform="translate(-150.76 498.52) rotate(-79.27)" style="fill:#FFC727"></rect><rect x="204.7" y="336.31" width="56.59" height="2.63" transform="translate(-142.12 503.66) rotate(-79.27)" style="fill:#ebebeb"></rect><rect x="206.07" y="337.97" width="53.22" height="2.63" transform="translate(-144 504.7) rotate(-79.27)" style="fill:#FFC727"></rect><rect x="197.72" y="364.39" width="4.24" height="4.24" transform="translate(-197.48 494.6) rotate(-79.27)" style="fill:#FFC727"></rect><rect x="204.4" y="365.66" width="4.24" height="4.24" transform="translate(-193.29 502.19) rotate(-79.27)" style="fill:#455a64"></rect><rect x="211.08" y="366.92" width="4.24" height="4.24" transform="translate(-189.1 509.78) rotate(-79.27)" style="fill:#c7c7c7"></rect><rect x="217.76" y="368.19" width="4.24" height="4.24" transform="translate(-184.91 517.37) rotate(-79.27)" style="fill:#FFC727"></rect><rect x="224.44" y="369.46" width="4.24" height="4.24" transform="translate(-180.72 524.96) rotate(-79.27)" style="fill:#263238"></rect><rect x="191.22" y="269.48" width="36.06" height="1.9" transform="translate(-95.43 425.65) rotate(-79.27)" style="fill:#455a64"></rect><rect x="207.56" y="281.84" width="13.71" height="1.9" transform="translate(-103.36 440.78) rotate(-79.27)" style="fill:#c7c7c7"></rect><rect x="223.47" y="284.85" width="13.71" height="1.9" transform="translate(-93.38 458.86) rotate(-79.27)" style="fill:#c7c7c7"></rect><rect x="239.37" y="287.87" width="13.71" height="1.9" transform="translate(-83.4 476.93) rotate(-79.27)" style="fill:#c7c7c7"></rect><rect x="255.27" y="290.88" width="13.71" height="1.9" transform="translate(-73.43 495.01) rotate(-79.27)" style="fill:#c7c7c7"></rect><path d="M218.3,262.32c.47-3,1-5.93,1.52-8.89l1.63-8.87,1.73-8.85c.59-3,1.19-5.89,1.84-8.83-.48,3-1,5.93-1.52,8.89l-1.64,8.87-1.72,8.85C219.54,256.44,218.94,259.39,218.3,262.32Z" style="fill:#a6a6a6"></path><path d="M220.85,262.81c.47-3,1-5.93,1.52-8.89l1.63-8.87,1.73-8.85c.59-2.95,1.19-5.9,1.84-8.83-.48,3-1,5.93-1.52,8.89l-1.63,8.87L222.69,254C222.09,256.92,221.49,259.87,220.85,262.81Z" style="fill:#a6a6a6"></path><path d="M223.4,263.29c.48-3,1-5.93,1.52-8.89l1.63-8.87,1.73-8.85c.59-3,1.19-5.89,1.84-8.83-.47,3-1,5.93-1.52,8.89L227,245.61l-1.73,8.85C224.65,257.41,224.05,260.35,223.4,263.29Z" style="fill:#a6a6a6"></path><path d="M226,263.77c.15-1.26.35-2.51.55-3.77s.45-2.5.67-3.75.48-2.49.75-3.73.55-2.49.87-3.72c-.15,1.27-.35,2.52-.55,3.78s-.44,2.5-.66,3.75-.49,2.49-.76,3.73S226.27,262.54,226,263.77Z" style="fill:#a6a6a6"></path><path d="M234.24,265.35c.48-3,1-5.93,1.52-8.89l1.64-8.87,1.72-8.86c.6-2.94,1.2-5.89,1.84-8.83-.47,3-1,5.94-1.52,8.9l-1.63,8.86-1.73,8.86C235.49,259.46,234.89,262.41,234.24,265.35Z" style="fill:#a6a6a6"></path><path d="M236.79,265.83c.48-3,1-5.93,1.53-8.89l1.63-8.87,1.72-8.85c.6-2.95,1.2-5.89,1.84-8.83-.47,3-1,5.93-1.52,8.89l-1.63,8.87L238.63,257C238,260,237.44,262.89,236.79,265.83Z" style="fill:#a6a6a6"></path><path d="M239.35,266.31c.47-3,1-5.93,1.52-8.89l1.63-8.87,1.73-8.85c.59-2.95,1.19-5.89,1.84-8.83-.48,3-1,5.93-1.52,8.89l-1.64,8.87-1.73,8.85C240.59,260.43,240,263.38,239.35,266.31Z" style="fill:#a6a6a6"></path><path d="M241.9,266.8c.15-1.27.35-2.52.55-3.78s.44-2.5.66-3.75.49-2.49.76-3.73.54-2.48.87-3.71c-.15,1.26-.35,2.51-.55,3.77s-.45,2.5-.67,3.75-.48,2.49-.75,3.73S242.22,265.57,241.9,266.8Z" style="fill:#a6a6a6"></path><path d="M250.19,268.37c.47-3,1-5.93,1.52-8.89l1.63-8.87,1.73-8.85c.59-2.95,1.19-5.9,1.84-8.83-.48,3-1,5.93-1.52,8.89l-1.64,8.87L252,259.54C251.43,262.49,250.83,265.43,250.19,268.37Z" style="fill:#a6a6a6"></path><path d="M252.74,268.85c.48-3,1-5.93,1.52-8.89l1.63-8.87,1.73-8.85c.59-3,1.19-5.89,1.84-8.83-.47,3-1,5.93-1.52,8.89l-1.63,8.87L254.58,260C254,263,253.39,265.92,252.74,268.85Z" style="fill:#a6a6a6"></path><path d="M255.29,269.34c.48-3,1-5.93,1.52-8.89l1.64-8.87,1.72-8.85c.6-2.95,1.2-5.9,1.84-8.84-.47,3-1,5.94-1.52,8.9l-1.63,8.86-1.73,8.86C256.54,263.45,255.94,266.4,255.29,269.34Z" style="fill:#a6a6a6"></path><path d="M257.84,269.82c.16-1.26.35-2.52.56-3.77s.44-2.5.66-3.75.48-2.5.75-3.74.55-2.48.87-3.71c-.15,1.26-.34,2.52-.55,3.77s-.44,2.5-.66,3.75-.49,2.5-.76,3.74S258.17,268.59,257.84,269.82Z" style="fill:#a6a6a6"></path><path d="M266.13,271.39c.48-3,1-5.93,1.53-8.89l1.63-8.87,1.72-8.85c.6-2.95,1.2-5.89,1.84-8.83-.47,3-1,5.93-1.52,8.89l-1.63,8.87L268,262.56C267.38,265.51,266.78,268.45,266.13,271.39Z" style="fill:#a6a6a6"></path><path d="M268.69,271.88c.47-3,1-5.93,1.52-8.89l1.63-8.87,1.73-8.86c.59-2.94,1.19-5.89,1.84-8.83-.48,3-1,5.93-1.53,8.89l-1.63,8.87-1.73,8.86C269.93,266,269.33,268.94,268.69,271.88Z" style="fill:#a6a6a6"></path><path d="M271.24,272.36c.47-3,1-5.93,1.52-8.89l1.63-8.87,1.73-8.85c.59-2.95,1.19-5.9,1.84-8.83-.48,3-1,5.93-1.52,8.89l-1.64,8.87-1.72,8.85C272.48,266.48,271.88,269.42,271.24,272.36Z" style="fill:#a6a6a6"></path><path d="M273.79,272.84c.15-1.26.35-2.52.55-3.77s.44-2.5.66-3.75.49-2.49.76-3.74.55-2.48.87-3.71c-.15,1.27-.35,2.52-.55,3.77s-.44,2.51-.66,3.76-.49,2.49-.76,3.73S274.11,271.61,273.79,272.84Z" style="fill:#a6a6a6"></path><polygon points="216.31 269.3 224.39 270.72 232.45 272.19 248.57 275.19 249.55 275.43 257.59 277.01 265.62 278.65 257.55 277.23 249.48 275.76 248.48 275.63 232.39 272.52 224.35 270.93 216.31 269.3" style="fill:#FFC727"></polygon><path d="M217.11,268.59a.85.85,0,1,1-1,.68A.86.86,0,0,1,217.11,268.59Z" style="fill:#FFC727"></path><path d="M233.05,271.62a.84.84,0,0,1,.68,1,.86.86,0,0,1-1,.68.84.84,0,0,1-.67-1A.83.83,0,0,1,233.05,271.62Z" style="fill:#FFC727"></path><path d="M249,274.64a.84.84,0,0,1-.31,1.66.86.86,0,0,1-.68-1A.84.84,0,0,1,249,274.64Z" style="fill:#FFC727"></path><path d="M265,277.66a.85.85,0,1,1-1,.67A.85.85,0,0,1,265,277.66Z" style="fill:#FFC727"></path><path d="M249.87,365.42a6.24,6.24,0,1,1-3.21.23A6.25,6.25,0,0,1,249.87,365.42Z" style="fill:#455a64"></path><path d="M246.66,365.65l2.05,5.92-6.15-1.17A6.25,6.25,0,0,1,246.66,365.65Z" style="fill:#FFC727"></path><path d="M249.51,367.32a4.33,4.33,0,1,1-5.06,3.44A4.32,4.32,0,0,1,249.51,367.32Z" style="fill:#fff"></path><rect x="246.21" y="371.18" width="3.6" height="0.51" transform="translate(-163.12 545.92) rotate(-79.26)" style="fill:#263238"></rect><rect x="246.71" y="371.44" width="5.39" height="0.51" transform="translate(-162.25 547.5) rotate(-79.26)" style="fill:#a6a6a6"></rect><path d="M253.13,348.22a5,5,0,0,1,.89.23,6.26,6.26,0,1,1-4.1,0A6.1,6.1,0,0,1,253.13,348.22Z" style="fill:#455a64"></path><path d="M253.13,348.22a5,5,0,0,1,.89.23L252,354.36l-6.15-1.16a6.25,6.25,0,0,1,4.1-4.75A6.1,6.1,0,0,1,253.13,348.22Z" style="fill:#FFC727"></path><path d="M252.77,350.11a4.33,4.33,0,1,1-5.06,3.45A4.34,4.34,0,0,1,252.77,350.11Z" style="fill:#fff"></path><rect x="249.47" y="353.98" width="3.6" height="0.51" transform="translate(-143.56 535.13) rotate(-79.27)" style="fill:#263238"></rect><rect x="249.97" y="354.24" width="5.39" height="0.51" transform="translate(-142.69 536.71) rotate(-79.27)" style="fill:#a6a6a6"></rect><path d="M256.42,330.89a6.28,6.28,0,1,1-3.21.24A6.18,6.18,0,0,1,256.42,330.89Z" style="fill:#455a64"></path><path d="M256.42,330.89a6.27,6.27,0,0,1,5,5L255.25,337l-6.15-1.16a6.26,6.26,0,0,1,4.11-4.75A6.18,6.18,0,0,1,256.42,330.89Z" style="fill:#FFC727"></path><path d="M256.06,332.79a4.33,4.33,0,1,1-5.06,3.45A4.32,4.32,0,0,1,256.06,332.79Z" style="fill:#fff"></path><rect x="252.75" y="336.66" width="3.6" height="0.51" transform="translate(-123.87 524.26) rotate(-79.27)" style="fill:#263238"></rect><rect x="253.25" y="336.92" width="5.39" height="0.51" transform="translate(-123 525.84) rotate(-79.27)" style="fill:#a6a6a6"></rect><path d="M259.68,313.67a6.24,6.24,0,1,1-3.21.23A6.1,6.1,0,0,1,259.68,313.67Z" style="fill:#455a64"></path><path d="M259.68,313.67a6.26,6.26,0,0,1,2.76,11l-3.92-4.88-6.15-1.16a6.25,6.25,0,0,1,4.1-4.75A6.1,6.1,0,0,1,259.68,313.67Z" style="fill:#FFC727"></path><path d="M259.32,315.56a4.33,4.33,0,1,1-5.06,3.45A4.34,4.34,0,0,1,259.32,315.56Z" style="fill:#fff"></path><rect x="256.02" y="319.43" width="3.6" height="0.51" transform="translate(-104.29 513.45) rotate(-79.27)" style="fill:#263238"></rect><rect x="256.52" y="319.69" width="5.39" height="0.51" transform="translate(-103.42 515.03) rotate(-79.27)" style="fill:#a6a6a6"></rect><polygon points="203.06 297.24 211.49 298.73 219.91 300.26 236.73 303.4 253.54 306.64 261.94 308.29 270.33 309.99 261.9 308.5 253.48 306.96 236.65 303.82 219.85 300.58 211.45 298.93 203.06 297.24" style="fill:#455a64"></polygon><g id="freepik--iaq7yo--inject-124"><path d="M275.81,379.14a.74.74,0,0,1,.08.3v.13l0,.24-.09.22a2.45,2.45,0,0,1-.53.78,5.68,5.68,0,0,1-1.8,1.22,2.57,2.57,0,0,1-.91.21h-.25l-.22,0-.21-.09-.17-.14,0,0,1.14-.77a0,0,0,0,1,.06,0,.48.48,0,0,0,.48,0,10.36,10.36,0,0,0,1-.7.46.46,0,0,0,.19-.45.06.06,0,0,1,0-.05l1.16-.78Z" style="fill:#FFC727"></path><path d="M275.35,378.48c.1.13.19.27.28.4l0,0-1.17.79-.05-.09-.24-.34a.16.16,0,0,1,.05-.25l.87-.59A.15.15,0,0,1,275.35,378.48Z" style="fill:#FFC727"></path><path d="M272.38,380.49l.29.45-1.15.78a0,0,0,0,0,0,0c-.09-.14-.18-.28-.28-.41a.16.16,0,0,1,0-.24l.88-.6A.15.15,0,0,1,272.38,380.49Z" style="fill:#FFC727"></path></g><g id="freepik--tefye6--inject-124"><path d="M280.85,379.66l.08.12,1.24,1.93a.25.25,0,0,1-.07.38l-1.9,1.37-.08.06a.3.3,0,0,1,0-.16l.21-1.13c.15-.79.3-1.58.44-2.37A.4.4,0,0,1,280.85,379.66Z" style="fill:#FFC727"></path><path d="M283.74,380.21a.75.75,0,0,1,0,.15c-.08.45-.17.9-.25,1.36-.13.72-.27,1.45-.4,2.18a.65.65,0,0,1-.08.17l-1-1.6.3-.22.13-.09a.29.29,0,0,0,.07-.41l-.27-.43,1.53-1.11Z" style="fill:#FFC727"></path><path d="M281.79,382.6c.34.52.67,1,1,1.57h-.07l-2.39-.44-.07,0Z" style="fill:#FFC727"></path><path d="M283.58,380l-.57.41-.91.66,0,0-1-1.56C281.1,379.55,283.52,380,283.58,380Z" style="fill:#FFC727"></path></g><g id="freepik--aizgp2--inject-124"><path d="M285.22,312.85a3.05,3.05,0,0,0,.91.39h0c-.06.27-.11.54-.16.82h0l-.07,0a2.08,2.08,0,0,1-.32-.12,2.31,2.31,0,0,1-.48-.28v0l.15-.77Z" style="fill:#FFC727"></path><path d="M287.33,313.28h0l-.15.76h0a2.15,2.15,0,0,1-.62.08h-.33l.15-.81s0,0,0,0l.2,0h.33l.4,0Z" style="fill:#FFC727"></path><path d="M288.19,310.08h0a2,2,0,0,1,.24.27,2.14,2.14,0,0,1,.23.38,2.05,2.05,0,0,1,.16.41,1.86,1.86,0,0,1,.08.41c0,.11,0,.22,0,.33V312h0v0a2.52,2.52,0,0,0-.48-.72,2.82,2.82,0,0,0-.36-.33s0,0,0,0l.15-.77Z" style="fill:#FFC727"></path><path d="M286.63,310.59l-.21,1.08-.94-.18h0c0-.28.11-.56.16-.84h0a2.38,2.38,0,0,1,.59-.07l.31,0Z" style="fill:#FFC727"></path><path d="M286.88,310.64l.07,0,.15,0,.21.08a2.64,2.64,0,0,1,.44.23s0,0,0,0c-.06.28-.11.57-.17.85v0l-.91-.18Z" style="fill:#FFC727"></path><path d="M285.44,311.73l.95.18-.21,1.06-.07,0-.15-.05a.92.92,0,0,1-.23-.09,1.88,1.88,0,0,1-.44-.24s0,0,0,0c.05-.27.1-.53.16-.8Z" style="fill:#FFC727"></path><path d="M286.64,312l.89.17h0v0l-.15.83h0a2.07,2.07,0,0,1-.5.06h-.26l-.17,0h0v0c.07-.34.13-.68.2-1C286.63,312,286.63,312,286.64,312Z" style="fill:#FFC727"></path><path d="M286.85,309.44l-.16.89a3,3,0,0,0-1,0h0l.15-.81,0,0a2.18,2.18,0,0,1,.63-.09,2,2,0,0,1,.34,0Z" style="fill:#FFC727"></path><path d="M287.09,309.48l.06,0,.24.07a2.42,2.42,0,0,1,.5.27l.07.05h0l-.15.82h0l-.08-.05a2.57,2.57,0,0,0-.41-.19l-.31-.1-.08,0s0,0,0,0h0Z" style="fill:#FFC727"></path><path d="M285.58,309.61h0c0,.26-.09.51-.14.77a0,0,0,0,1,0,0,3,3,0,0,0-.64.28,2,2,0,0,0-.33.24l-.15.14h0a2.44,2.44,0,0,1,1.31-1.47Z" style="fill:#FFC727"></path><path d="M288.79,312.52v0a2.44,2.44,0,0,1-.1.24,2.22,2.22,0,0,1-.25.42,2.11,2.11,0,0,1-.39.4,1.94,1.94,0,0,1-.33.23,1.69,1.69,0,0,1-.27.12h0c0-.24.09-.48.13-.72l0,0a2,2,0,0,0,.48-.18,2.5,2.5,0,0,0,.41-.25,2.26,2.26,0,0,0,.29-.25Z" style="fill:#FFC727"></path><path d="M284.18,311.66l.06.13c.08.14.17.28.26.41a2.5,2.5,0,0,0,.46.46l0,0h0a.08.08,0,0,0,0,0l-.14.71a2.33,2.33,0,0,1-.68-1.78h0Z" style="fill:#FFC727"></path><path d="M288,311.18a2.24,2.24,0,0,1,.42.45,2.4,2.4,0,0,1,.27.47l-.83-.16Z" style="fill:#FFC727"></path><path d="M287.79,312.18l.82.15a2.32,2.32,0,0,1-1,.58Z" style="fill:#FFC727"></path><path d="M285.37,310.71l-.14.73-.77-.15a2.72,2.72,0,0,1,.42-.34A2.47,2.47,0,0,1,285.37,310.71Z" style="fill:#FFC727"></path><path d="M284.44,311.54l.75.15-.13.7A2.2,2.2,0,0,1,284.44,311.54Z" style="fill:#FFC727"></path></g><g id="freepik--ugja8c--inject-124"><path d="M293.83,311.31a2,2,0,0,0-1.5,2.09,1.89,1.89,0,0,0,1.7,1.81,2.55,2.55,0,0,0,.91-.1,6.43,6.43,0,0,0,1.82-.8c.23-.14.46-.3.69-.45,0,0,0-.05,0-.07-.21-.29-.41-.58-.64-.86a5.7,5.7,0,0,0-1.46-1.35A1.89,1.89,0,0,0,293.83,311.31Zm.61.72a1.24,1.24,0,0,1,.92,1.49,1.22,1.22,0,1,1-2.37-.58A1.24,1.24,0,0,1,294.44,312Z" style="fill:#FFC727"></path></g><path d="M273.36,373.59c.48-3,1-5.93,1.52-8.89l1.64-8.87,1.72-8.85c.6-3,1.2-5.89,1.84-8.83-.47,3-1,5.93-1.52,8.89l-1.63,8.87-1.73,8.85C274.61,367.71,274,370.66,273.36,373.59Z" style="fill:#a6a6a6"></path><path d="M275.92,374.08c.19-1.5.43-3,.68-4.46s.53-3,.79-4.44.57-2.95.89-4.42.63-2.94,1-4.4c-.19,1.49-.43,3-.68,4.46s-.52,3-.79,4.44-.57,2.95-.89,4.42S276.28,372.62,275.92,374.08Z" style="fill:#a6a6a6"></path><path d="M281.86,375.2c.48-3,1-5.93,1.52-8.89l1.63-8.87,1.73-8.85c.6-2.94,1.2-5.89,1.84-8.83-.47,3-1,5.93-1.52,8.89l-1.63,8.87-1.73,8.85C283.11,369.32,282.51,372.27,281.86,375.2Z" style="fill:#a6a6a6"></path><path d="M284.41,375.69c.2-1.5.44-3,.69-4.46s.52-3,.79-4.44.57-3,.88-4.42.64-2.94,1-4.4c-.19,1.49-.43,3-.68,4.46s-.53,3-.79,4.44-.57,2.95-.89,4.42S284.78,374.23,284.41,375.69Z" style="fill:#a6a6a6"></path><path d="M286.76,302.91c.48-3,1-5.93,1.52-8.89l1.64-8.87,1.72-8.85c.6-2.95,1.2-5.9,1.84-8.83-.47,3-1,5.93-1.52,8.89l-1.63,8.87-1.73,8.85C288,297,287.41,300,286.76,302.91Z" style="fill:#a6a6a6"></path><path d="M289.32,303.39c.19-1.49.43-3,.68-4.46s.53-3,.79-4.44.57-2.95.89-4.42.63-2.94,1-4.4c-.19,1.49-.43,3-.68,4.46s-.52,3-.79,4.44-.57,2.95-.89,4.42S289.68,301.93,289.32,303.39Z" style="fill:#a6a6a6"></path><path d="M295.26,304.52c.48-3,1-5.93,1.52-8.89l1.63-8.87,1.73-8.85c.6-3,1.2-5.9,1.84-8.83-.47,3-1,5.93-1.52,8.89l-1.63,8.87-1.73,8.85C296.51,298.64,295.91,301.58,295.26,304.52Z" style="fill:#a6a6a6"></path><path d="M297.81,305c.2-1.49.44-3,.69-4.46s.52-3,.79-4.44.57-3,.88-4.42.64-2.94,1-4.4c-.19,1.5-.43,3-.68,4.46s-.53,3-.79,4.44-.57,2.95-.89,4.42S298.18,303.54,297.81,305Z" style="fill:#a6a6a6"></path><polygon points="320.24 423.89 84.36 423.89 54.89 266.77 290.77 266.77 320.24 423.89" style="fill:#FFC727"></polygon><polygon points="139.41 250.5 51.84 250.5 54.89 266.77 147.5 266.77 139.41 250.5" style="fill:#FFC727"></polygon></g><g id="freepik--magnifying-glass--inject-124"><rect x="98.15" y="148.9" width="11.06" height="64.54" transform="translate(43.93 381.18) rotate(-133.59)" style="fill:#c7c7c7"></rect><polygon points="50.77 219.99 62.3 232.1 62.3 232.1 94.95 201.03 94.95 201.03 83.42 188.91 83.42 188.91 50.77 219.99" style="fill:#263238"></polygon><path d="M111.56,118a50.4,50.4,0,1,1,41.32,58.07A50.45,50.45,0,0,1,111.56,118Zm5.7,1a44.62,44.62,0,1,0,51.41-36.58A44.66,44.66,0,0,0,117.26,119Z" style="fill:#37474f"></path><path d="M175,176.41a52.09,52.09,0,1,1,16.3-7.78A51.5,51.5,0,0,1,175,176.41Zm-26.76-97.2a49.41,49.41,0,0,0-15.35,7.33,48.57,48.57,0,1,0,15.35-7.33Zm25.23,91.63a46.14,46.14,0,0,1-57.72-52.14h0A46.12,46.12,0,1,1,188,163.93,46.39,46.39,0,0,1,173.5,170.84ZM118.74,119.2a43.16,43.16,0,1,0,17.53-27.95,43.15,43.15,0,0,0-17.53,28Z" style="fill:#37474f"></path><g style="opacity:0.2"><path d="M162.31,83.51a42.87,42.87,0,1,0,41.81,43.92A42.87,42.87,0,0,0,162.31,83.51Z" style="fill:#fff"></path><path d="M150.26,84.92A42.95,42.95,0,0,0,119.7,137Z" style="fill:#ebebeb"></path><path d="M192,96.45l-41.85,71.33a42.87,42.87,0,0,0,10.07,1.45,41.92,41.92,0,0,0,11.59-1.3l30.9-52.65A42.86,42.86,0,0,0,192,96.45Z" style="fill:#ebebeb"></path><path d="M166.58,83.83l-39.87,67.94a43.93,43.93,0,0,0,5.63,6.25l42.45-72.34A42,42,0,0,0,166.58,83.83Z" style="fill:#ebebeb"></path><path d="M187.59,92.54l-43,73.33c.48.2,1,.4,1.45.58L188.8,93.52C188.41,93.19,188,92.85,187.59,92.54Z" style="fill:#ebebeb"></path><path d="M204,129.58l-19.09,32.54a38,38,0,0,0,3.11-2.27l15.53-26.47C203.77,132.14,203.92,130.87,204,129.58Z" style="fill:#ebebeb"></path></g><path d="M127.49,118.71a34.61,34.61,0,0,1,5.44-12.93,36.72,36.72,0,0,1,4.55-5.5,38,38,0,0,1,5.6-4.51,33.91,33.91,0,0,1,13.38-5,37,37,0,0,1,14,.65,65.76,65.76,0,0,0-13.56,1.65,40.64,40.64,0,0,0-6.34,2.11,34.48,34.48,0,0,0-5.86,3.09,42.92,42.92,0,0,0-9.91,8.89A57.82,57.82,0,0,0,127.49,118.71Z" style="fill:#fff"></path></g></svg>