<svg xmlns="http://www.w3.org/2000/svg" viewBox="0 0 750 500"><g id="freepik--Floor--inject-205"><path d="M52.05,469c206.9-.61,439-.61,645.9,0-206.9.62-439,.61-645.9,0Z" style="fill:#263238"></path></g><g id="freepik--character-3--inject-205"><path d="M550,168.94h69.45a29.27,29.27,0,0,1,29.27,29.27v70.21a0,0,0,0,1,0,0h-128a0,0,0,0,1,0,0V198.21A29.27,29.27,0,0,1,550,168.94Z" style="fill:#FFC727"></path><path d="M550,168.94h69.45a29.27,29.27,0,0,1,29.27,29.27v70.21a0,0,0,0,1,0,0h-128a0,0,0,0,1,0,0V198.21A29.27,29.27,0,0,1,550,168.94Z" style="opacity:0.6000000000000001"></path><path d="M557.51,182.43c-29,29-49.68,63.36-47.44,71.46,4.16,15.07,24.87,16.7,27.72,13.16,11.54-14.34,22.78-41.27,34.9-71.28,9.48-23.47,1.84-23.9-7.31-16.76C564.07,180,558.7,181.23,557.51,182.43Z" style="fill:#263238"></path><path d="M510.07,253.89c4.16,15.07,24.87,16.7,27.72,13.16,11.54-14.34,22.78-41.27,34.9-71.28,4.59-11.37,5.36-18.32,3-20.16L510.1,250.82A6.9,6.9,0,0,0,510.07,253.89Z" style="opacity:0.1"></path><path d="M558.56,182.75c8,5.64,10.06,11.92,10.22,21.44-.87-4-1.55-8-3-11.8s-4.49-6.72-7.22-9.64Z" style="fill:#455a64"></path><path d="M562.75,186.89c-1.34.89-3,1.54-4.34,2.36a45.72,45.72,0,0,1-4.6,4.52,22.27,22.27,0,0,1,4-5.28,14.65,14.65,0,0,1,5-1.6Z" style="fill:#455a64"></path><path d="M563.92,188.31a6.8,6.8,0,0,1-2.45,3.33,15.77,15.77,0,0,1-2.89,1.25,7.93,7.93,0,0,1,2.36-2.07c1-.79,1.87-1.78,3-2.51Z" style="fill:#455a64"></path><path d="M567.31,195.54a7.39,7.39,0,0,1-3,5.53,15.6,15.6,0,0,1,3-5.53Z" style="fill:#455a64"></path><path d="M564.47,189.05s-3.72,6.74-5.63,8-6.56,5.73-7.49,4.36,3.56-8.12,5.27-9.66,6.76-4.13,6.76-4.13Z" style="fill:#455a64;opacity:0.30000000000000004"></path><path d="M533,268.41s15.09-48.91,19.16-60.55c4.93-14.09,11.25-25.07,20.85-32.17,11.31-8.34,22.16-.66,26.38,5.06,8.45,11.46,23,37.93,29,87.67Z" style="fill:#263238"></path><path d="M583.26,226.63a78.9,78.9,0,0,0-11.5.56c-1.89.26-3.76.6-5.63,1-.93.19-1.87.35-2.81.51a12.32,12.32,0,0,1-3,.21c-.09,0-.1.13,0,.14a21.91,21.91,0,0,0,2.81.27,19,19,0,0,0,2.72-.2c1.93-.24,3.84-.58,5.76-.84,3.87-.53,7.74-1.07,11.64-1.32C583.45,226.94,583.44,226.63,583.26,226.63Z" style="fill:#263238"></path><path d="M592.27,231.07a84.86,84.86,0,0,0-9.38-1.53c-1.58-.16-3.15-.23-4.74-.26-.76,0-1.51,0-2.27,0s-1.67.14-2.5.13c-.09,0-.1.14,0,.14.78,0,1.57.18,2.35.25l2.36.21c1.57.14,3.15.3,4.72.43,3.16.25,6.3.54,9.44.9C592.41,231.35,592.43,231.11,592.27,231.07Z" style="fill:#263238"></path><path d="M609.82,200.8c-10.51-.14-23.59-1-34.1-1.48-4.63-.07-15.69.38-20.46.51,6.8-.73,13.62-1.36,20.47-1.41,11.3.36,22.84,1.25,34.09,2.38Z" style="fill:#455a64"></path><path d="M599.51,200.17c2.32,10.44,4.45,20.89,5.94,31.48.49,6.41.53,12.81.49,19.23l-.49-6.39c-.27-3.76-.56-9.05-.9-12.74-1.53-9.83-3.76-21.73-5-31.58Z" style="fill:#455a64"></path><path d="M596.84,200.17c1.75,8.52,2.75,17.28,1.76,26-.19-1.87-.3-4.6-.38-6.51-.25-6.49-1.25-12.93-1.38-19.45Z" style="fill:#455a64"></path><path d="M561.93,199.34l-2.65,6.31c-1.25,3.17-2.67,6.17-2.63,9.64-.07,1.69-.17,5.12-.21,6.81-.06,1.14-.07,2.28-.14,3.43-.44-4.58-1-9.19-.27-13.77a50.56,50.56,0,0,1,5.9-12.42Z" style="fill:#455a64"></path><path d="M563.78,199.34c-.57,3.54-1.72,6.95-2.54,10.38-.32,2.11-.54,4.25-1,6.36-.76-5.93,1-11.42,3.5-16.74Z" style="fill:#455a64"></path><path d="M605.53,183.24c24.11,20.66,57.14,64.14,52.74,74.19-4.91,11.18-39.61-16.26-39.65-18.11,0-1.4-13.32-29.26-23.33-49.5S599.57,178.13,605.53,183.24Z" style="fill:#ad6359"></path><path d="M618.42,239.37c-1.2-3-19.19-39.7-24.43-51.34-4.71-10.46-3.55-14.22,6.43-9.12,1.21.62,7.54,2.05,9.58,3.8,12.42,10.7,43.73,42,51.41,61,7.4,18.28-8,21.12-21.51,13.54C628.87,251.07,618.42,239.37,618.42,239.37Z" style="fill:#263238"></path><path d="M620.72,244.12c-7.19-13.45-13.83-27.31-19.81-41.34,7.2,13.46,13.83,27.3,19.81,41.34Z" style="fill:#263238"></path><path d="M604.61,210.84a14.87,14.87,0,0,1-3.68-4.77,22.42,22.42,0,0,1,3.68,4.77Z" style="fill:#263238"></path><path d="M605.36,185.91a8.1,8.1,0,0,1,4,1.49c1.78,1.37,5.73,6.82,4.79,8.33s-2.52-.64-4.27-2.19a73.76,73.76,0,0,1-5.48-6.35Z" style="fill:#455a64;opacity:0.30000000000000004"></path><path d="M602.53,191.62a2.43,2.43,0,0,1,1.17.43c.52.4,1.67,2,1.4,2.43s-1.05.15-1.55-.3a9.87,9.87,0,0,1-1.29-2.18Z" style="fill:#455a64;opacity:0.30000000000000004"></path><path d="M608.75,182.12c-2.17,2.7-4.53,5.49-5.67,8.76-1,2.86-1.55,7.32-2.09,10.34-.45-8.09,1.13-14,7.76-19.1Z" style="fill:#455a64"></path><path d="M605.36,185.91a11.24,11.24,0,0,1,4.37,1.14,17.88,17.88,0,0,1,3.57,4.45,30.67,30.67,0,0,1-4.17-3.67,2,2,0,0,0-.43-.24,31.6,31.6,0,0,1-3.34-1.68Z" style="fill:#455a64"></path><path d="M604.42,187.19a23,23,0,0,1,2.69,2,6,6,0,0,1,2.08,1.75,5.75,5.75,0,0,1-4.77-3.76Z" style="fill:#455a64"></path><path d="M601.86,193.64a10.93,10.93,0,0,1,2.83,4.67,5.81,5.81,0,0,1-2.83-4.67Z" style="fill:#455a64"></path><path d="M512.49,256c5.6,6.74,19.33,7,53.84,10.76,4.78.53,17.56-32.18,12.49-33-6.39-1-31.4-3.68-33.26-3.65C529.93,230.41,508.69,251.41,512.49,256Z" style="fill:#ad6359"></path><path d="M567.8,233.46s13.18-3.35,20.65-3c10,.51,18.42,5.08,21.84,7.2,7.13,4.43,21.29,20.09,17.5,24.95-3.44,4.41-17.11-12.32-17.11-12.32s16.75,14.76,11.64,19.3-19.88-15.78-19.88-15.78,16.88,15.55,10.86,19.4c-4.54,2.91-18.95-14.74-18.95-14.74s14.41,13.46,9.87,16.66c-5,3.53-19.35-11.93-19.35-11.93-12.92,6.18-21.72,3.55-27.69,1.15C555.73,263.8,567.8,233.46,567.8,233.46Z" style="fill:#ad6359"></path><path d="M567.8,233.46s13.18-3.35,20.65-3c10,.51,18.42,5.08,21.84,7.2,7.13,4.43,21.29,20.09,17.5,24.95-3.44,4.41-17.11-12.32-17.11-12.32s16.75,14.76,11.64,19.3-19.88-15.78-19.88-15.78,16.88,15.55,10.86,19.4c-4.54,2.91-18.95-14.74-18.95-14.74s14.41,13.46,9.87,16.66c-5,3.53-19.35-11.93-19.35-11.93-12.92,6.18-21.72,3.55-27.69,1.15C555.73,263.8,567.8,233.46,567.8,233.46Z" style="opacity:0.1"></path><path d="M605.21,244.84c2,1.67,4.1,3.34,6,5.17s3.69,3.74,5.39,5.75a44.84,44.84,0,0,1,5.86,8.42c-3.28-5.15-9.89-11.83-11.77-13.67s-3.65-3.76-5.52-5.6C605.09,244.87,605.16,244.81,605.21,244.84Z" style="fill:#263238"></path><path d="M598.45,251.5c2.5,2.23,5.07,4.36,7.47,6.71s4.46,4.76,6.69,7.25c.17.19,0,.22-.17,0-2.33-2.4-4.66-4.44-7-6.81s-4.61-4.85-7-7.12A0,0,0,0,1,598.45,251.5Z" style="fill:#263238"></path><path d="M591.63,256.17a75.73,75.73,0,0,1,10.64,11.13c.16.2,0,.21-.23,0-3.47-3.77-6.16-6.75-10.53-11C591.45,256.24,591.54,256.1,591.63,256.17Z" style="fill:#263238"></path><path d="M571,225.66l-23.86,50.88s-34.61-7.35-37.11-22.65c-.95-5.8,16.11-22.17,33.23-24.83Z" style="fill:#263238"></path><path d="M524.24,239.35c2.07-2.72,9.21-8.64,19.08-10.32.09,0,.13.12,0,.14-7.23,2-16.81,7.83-19,10.28C524.28,239.52,524.18,239.42,524.24,239.35Z" style="fill:#455a64"></path><path d="M542.64,263.15c1.85-4.56,3.94-9,6-13.47s4.2-8.92,6.41-13.32c1.25-2.48,2.49-5,3.83-7.42,0-.07.15,0,.12.05-1.84,4.55-3.92,9-6,13.48s-4.2,8.92-6.36,13.34c-1.23,2.5-2.49,5-3.83,7.43C542.81,263.36,542.59,263.28,542.64,263.15Z" style="fill:#455a64"></path><path d="M571,225.23a42.19,42.19,0,0,0-5.72.4c-1.91.2-3.81.44-5.71.7-3.78.51-11.84,1.16-18.49,3.19-.07,0,.41.26.49.24,3.11-1.13,27.18-3.47,29.08-3.9a3.11,3.11,0,0,0-.08.44c0,.1.11.2.19.1s.29-.47.46-.71A.28.28,0,0,0,571,225.23Z" style="fill:#455a64"></path><path d="M596.27,177.57l-23.5,23.83-4.51-21s6.12-5.53,14-5.53A46.46,46.46,0,0,1,596.27,177.57Z" style="fill:#ebebeb"></path><path d="M574.4,188c1.54.58,13.21-1.86,17.35-8.08.28-.42,0-5.2-.06-11,0-3.53,0-7.46.34-11l-22.94,3.51a57.29,57.29,0,0,1,1,14,7.93,7.93,0,0,1-.28,1.45c0,.07,0,.15,0,.24C569,179.81,571.3,186.87,574.4,188Z" style="fill:#ad6359"></path><path d="M592,157.9c-.14,1.62-.23,3.31-.28,5-4.4,9.68-18.21,10.15-21.56,10.12a62.23,62.23,0,0,0-1.1-11.61Z" style="fill:#263238"></path><path d="M597.37,126.47c2.72,7.91-.7,31.14-6.2,36.48-8,7.75-21.45,8.93-28.13-.75-6.48-9.39-1.49-39.59,4.69-44.48C576.84,110.5,593.36,114.79,597.37,126.47Z" style="fill:#ad6359"></path><path d="M578.2,141.42c0-.06.11.09.1.15-.27,1.56-.32,3.39,1,4.11,0,0,0,.1,0,.09C577.6,145.28,577.69,142.85,578.2,141.42Z" style="fill:#263238"></path><path d="M579.83,140c2.55.17,2,5.25-.33,5.09S577.7,139.84,579.83,140Z" style="fill:#263238"></path><path d="M569.06,140.74c0-.06-.13.06-.13.13-.11,1.57-.5,3.36-2,3.74-.05,0-.05.09,0,.09C568.71,144.63,569.21,142.25,569.06,140.74Z" style="fill:#263238"></path><path d="M567.83,139c-2.51-.45-3.23,4.61-.9,5S569.93,139.33,567.83,139Z" style="fill:#263238"></path><path d="M582.07,137.86a19.13,19.13,0,0,1-1.89-.89,3.37,3.37,0,0,1-1.76-1.28,1.1,1.1,0,0,1,.3-1.29,2.7,2.7,0,0,1,2.72,0,4,4,0,0,1,2.08,1.92A1.15,1.15,0,0,1,582.07,137.86Z" style="fill:#a6a6a6"></path><path d="M566.13,136.19a20.67,20.67,0,0,0,2.07-.31,3.41,3.41,0,0,0,2-.73,1.08,1.08,0,0,0,.07-1.32,2.69,2.69,0,0,0-2.6-.77,3.94,3.94,0,0,0-2.54,1.25A1.15,1.15,0,0,0,566.13,136.19Z" style="fill:#a6a6a6"></path><path d="M578.16,156.17c-.42.33-.85.8-1.42.79a4.27,4.27,0,0,1-1.65-.57.05.05,0,0,0-.08.07,2.14,2.14,0,0,0,1.91,1.06,1.67,1.67,0,0,0,1.38-1.27C578.33,156.17,578.22,156.12,578.16,156.17Z" style="fill:#263238"></path><path d="M577,151.29a5.38,5.38,0,0,1-3.82,2,6.66,6.66,0,0,1-1.94-.1l-.36-.08-.34-.09a.4.4,0,0,1-.28-.39h0a.9.9,0,0,1,0-.16h0l0-.14c.09-1.21.4-3,.4-3-.47.17-2.83,1-2.73.33.85-5.21,1.8-11,3.74-16a.14.14,0,0,1,.28.07c-.61,5-2.12,9.93-2.82,15a9.39,9.39,0,0,1,2.61-.51c.17.07-.66,3.53-.65,4.08a.07.07,0,0,0,0,.05c2,.47,3.61,0,5.72-1.15C577,151.05,577.09,151.17,577,151.29Z" style="fill:#263238"></path><path d="M597.37,146.26c-3.49.68-6.09-4.55-6.79-6.72s.26-11.65-1.14-14.94a7.1,7.1,0,0,0-7.67-4.43c-2.88.61-6.82,4-8.88,3.66s-2.2-4.83-3.64-4.94c-3.19-.24-6.23,7.79-7.09,11.2,0,0,.12-16.14,16.21-16,15,.1,19.17,8,20.1,12.55C600.26,135.3,597.37,146.26,597.37,146.26Z" style="fill:#a6a6a6"></path><path d="M593.09,145.45s5.11-7.54,8.53-5.73-.35,12.7-4.31,14.24a4,4,0,0,1-5.45-2.1Z" style="fill:#ad6359"></path><path d="M600.46,142.81a.06.06,0,0,1,0,.11c-2.78,1.17-4.21,3.78-5.2,6.48.82-1.05,1.94-1.63,3.34-.66.07,0,0,.16-.08.15a2.47,2.47,0,0,0-2.72.91,11.72,11.72,0,0,0-1.28,2.23c-.13.25-.58.13-.49-.16a.19.19,0,0,1,0-.07C594,148.25,596.65,143.23,600.46,142.81Z" style="fill:#263238"></path><path d="M570.15,174.6l5.72,13.14,16-17.28,4.83,5.26s-15.4,27.17-15.54,26l-5.8-11.3-7.68,8.19.08-20Z" style="fill:#ebebeb"></path><path d="M567.2,188.68c.12-3.31.15-6.64.43-9.94,0-.11.19-.17.22,0,.75,3.16.21,15.8.31,18.83l0,0c.32-.35,7.13-7.22,7.2-7.11,1.24,1.78,5.49,10,5.79,10.76,2.44-4.31,12.81-21.35,15.72-25.45a.11.11,0,0,1,.2.11c-2.13,4.55-15.52,27-15.72,27a129.77,129.77,0,0,1-6.07-11.95c-1.14,1.48-8,9.21-8,8.72A101.07,101.07,0,0,1,567.2,188.68Z" style="fill:#263238"></path><polygon points="582.03 191.82 598.41 258.35 547.73 269.92 531.36 203.38 582.03 191.82" style="fill:#FFC727"></polygon><polygon points="538.65 249.23 543.7 269.74 547.73 269.92 542.27 247.71 538.65 249.23" style="fill:#FFC727"></polygon><g style="opacity:0.2"><polygon points="582.03 191.82 598.41 258.35 547.73 269.92 531.36 203.38 582.03 191.82"></polygon><polygon points="538.65 249.23 543.7 269.74 547.73 269.92 542.27 247.71 538.65 249.23"></polygon></g><polygon points="582.06 191.93 598.47 258.62 550.37 272.73 533.96 206.03 582.06 191.93" style="fill:#FFC727"></polygon><polygon points="582.06 191.93 598.47 258.62 550.37 272.73 533.96 206.03 582.06 191.93" style="opacity:0.1"></polygon><path d="M656.61,257.81c-6.57,5.78-20.17,3.88-54.85,2.31-4.8-.22-12.38-34.5-7.24-34.54,6.47,0,31.59,1.22,33.42,1.54C643.33,229.85,661.07,253.88,656.61,257.81Z" style="fill:#ad6359"></path><path d="M611.31,227.87s-12.09-6.21-19.46-7.51c-9.86-1.73-19.09.83-22.9,2.14-7.94,2.72-25.25,14.81-22.63,20.4,2.36,5.07,19.43-8.18,19.43-8.18s-19.63,10.63-15.67,16.21S573,240,573,240s-19.93,11.38-14.93,16.48c3.78,3.86,21.78-10.13,21.78-10.13s-17.06,9.9-13.35,14c4.11,4.57,21.53-7.3,21.53-7.3,11.21,8.91,20.37,8.32,26.73,7.31C616.29,260.14,611.31,227.87,611.31,227.87Z" style="fill:#ad6359"></path><path d="M572.3,230.6c-2.35,1.17-4.74,2.33-7,3.71s-4.43,2.82-6.53,4.39a44.94,44.94,0,0,0-7.6,6.9c4.35-4.29,12.29-9.32,14.53-10.69s4.4-2.85,6.64-4.22C572.41,230.65,572.36,230.58,572.3,230.6Z" style="fill:#263238"></path><path d="M577.4,238.6c-2.94,1.62-5.91,3.12-8.78,4.87s-5.41,3.64-8.13,5.57c-.21.15-.07.21.15.07,2.8-1.82,5.53-3.29,8.35-5.08s5.58-3.68,8.45-5.36C577.49,238.64,577.45,238.58,577.4,238.6Z" style="fill:#263238"></path><path d="M583,244.68a75,75,0,0,0-12.86,8.47c-.2.15,0,.21.22.07,4.22-2.9,7.51-5.2,12.72-8.38C583.17,244.79,583.11,244.63,583,244.68Z" style="fill:#263238"></path><path d="M602.6,219.84l18.54,53s34.38-7.66,39.55-14.06c3.69-4.57-14.08-28.38-30.85-32.78Z" style="fill:#263238"></path><path d="M647.76,238.24c-1.78-2.91-8.28-9.54-17.93-12.22-.08,0-.14.11-.06.14,7,2.69,15.93,9.51,17.88,12.17C647.7,238.4,647.8,238.32,647.76,238.24Z" style="fill:#455a64"></path><path d="M627,260c-1.37-4.73-3-9.37-4.63-14s-3.27-9.3-5-13.9c-1-2.61-2-5.22-3-7.78,0-.07-.14,0-.12,0,1.37,4.72,3,9.38,4.57,14s3.27,9.3,5,13.92c1,2.61,2,5.21,3,7.78C626.84,260.23,627.06,260.17,627,260Z" style="fill:#455a64"></path><path d="M602.72,219.42a43.34,43.34,0,0,1,5.65,1q2.82.6,5.61,1.28c3.71.89,11.66,2.37,18.07,5.06.07,0-.44.22-.51.19-3-1.44-26.68-6.22-28.54-6.85a2.3,2.3,0,0,1,0,.45c0,.1-.14.18-.21.08-.16-.25-.24-.5-.38-.76A.27.27,0,0,1,602.72,219.42Z" style="fill:#455a64"></path><rect x="454.37" y="268.42" width="234.17" height="16.65" transform="translate(1142.91 553.49) rotate(180)" style="fill:#FFC727"></rect><rect x="454.37" y="268.42" width="234.17" height="16.65" transform="translate(1142.91 553.49) rotate(180)" style="opacity:0.5"></rect><rect x="461.34" y="285.07" width="220.24" height="183.89" transform="translate(1142.91 754.03) rotate(180)" style="fill:#FFC727"></rect><rect x="461.34" y="285.07" width="220.24" height="183.89" transform="translate(1142.91 754.03) rotate(180)" style="opacity:0.5"></rect><polygon points="498.28 422.19 644.63 422.19 650.57 428.18 492.34 428.18 498.28 422.19" style="fill:#FFC727;opacity:0.2"></polygon><polygon points="644.63 317.37 498.28 317.37 492.34 311.39 650.57 311.39 644.63 317.37" style="opacity:0.1"></polygon><path d="M492.34,428.18c39.45-.18,118.8-.32,158.23-.37-.9,2.28-.26-116.91-.5-116.42l.5.49-158.23-.19c.69-1.9-.16,116.9,0,116.49Zm0,0c0-.31-.3-116.82-.3-117.09s158.4-.09,158.53-.2h.5v.5l-.13,116.79v.36h-.37c-39.43-.06-118.81-.19-158.23-.36Z" style="opacity:0.2"></path><path d="M644.64,317.37c-36.49.17-109.89.32-146.36.37.9-2.26.25,104.93.5,104.45l-.5-.5,146.36.21c-.68,1.84.16-104.93,0-104.53Zm0,0c0,.3.29,104.84.29,105.11s-146.53.1-146.65.21h-.5v-.5l.13-104.82V317h.37c36.47.05,109.89.19,146.36.36Z" style="opacity:0.2"></path><path d="M650.57,311.39a17.49,17.49,0,0,1-5.93,6,17.4,17.4,0,0,1,5.93-6Z" style="opacity:0.2"></path><path d="M650.57,428.18a17.43,17.43,0,0,1-5.93-6,17.61,17.61,0,0,1,5.93,6Z" style="opacity:0.2"></path><path d="M498.28,422.19a17.55,17.55,0,0,1-5.94,6,17.55,17.55,0,0,1,5.94-6Z" style="opacity:0.2"></path><path d="M498.28,317.37a17.61,17.61,0,0,1-5.94-6,17.43,17.43,0,0,1,5.94,6Z" style="opacity:0.2"></path><polygon points="461.34 288.94 681.58 294.77 681.58 285.07 461.34 285.07 461.34 288.94" style="opacity:0.1"></polygon><polygon points="526.18 268.42 525.26 285.07 520.89 285.1 515.12 468.96 461.34 468.96 461.34 285.07 454.37 285.07 454.37 268.42 526.18 268.42" style="opacity:0.1"></polygon><g style="opacity:0.05"><polygon points="681.57 361.42 681.57 394.79 608.05 468.96 574.97 468.96 681.57 361.42" style="fill:#FFC727"></polygon><polygon points="681.57 407.33 681.57 419.01 632.06 468.96 620.48 468.96 681.57 407.33" style="fill:#FFC727"></polygon><polygon points="511.18 285.07 461.34 335.34 461.34 323.66 499.6 285.07 511.18 285.07" style="fill:#FFC727"></polygon><polygon points="528.38 285.07 461.34 352.7 461.34 348.15 523.87 285.07 528.38 285.07" style="fill:#FFC727"></polygon></g></g><g id="freepik--character-1--inject-205"><path d="M126.42,168.94h69.45a29.27,29.27,0,0,1,29.27,29.27v70.21a0,0,0,0,1,0,0h-128a0,0,0,0,1,0,0V198.2A29.27,29.27,0,0,1,126.42,168.94Z" style="fill:#FFC727"></path><path d="M126.42,168.94h69.45a29.27,29.27,0,0,1,29.27,29.27v70.21a0,0,0,0,1,0,0h-128a0,0,0,0,1,0,0V198.2A29.27,29.27,0,0,1,126.42,168.94Z" style="opacity:0.6000000000000001"></path><path d="M161.75,153.55c3,3.15,7.8,23.17-9.75,29.4-17.28,6.14-32.95-17.57-18.78-30.61C142.74,143.58,155.29,146.85,161.75,153.55Z" style="fill:#263238"></path><path d="M188,182.22c29,29,49.68,63.36,47.44,71.46-4.16,15.07-24.87,16.7-27.72,13.16-11.54-14.34-22.78-41.27-34.9-71.28-9.47-23.47-1.84-23.9,7.31-16.76C181.45,179.82,186.82,181,188,182.22Z" style="fill:#263238"></path><path d="M235.45,253.68c-4.16,15.07-24.87,16.7-27.72,13.16-11.54-14.34-22.78-41.27-34.9-71.28-4.59-11.37-5.36-18.32-3-20.16l65.61,75.21A6.9,6.9,0,0,1,235.45,253.68Z" style="opacity:0.1"></path><path d="M187,182.54c-2.74,2.92-5.67,6-7.23,9.64a82.57,82.57,0,0,0-3,11.8c.16-9.53,2.2-15.8,10.23-21.44Z" style="fill:#455a64"></path><path d="M182.77,186.68a14.45,14.45,0,0,1,5,1.61,22,22,0,0,1,4,5.27,45.72,45.72,0,0,1-4.6-4.52c-1.36-.82-3-1.46-4.34-2.36Z" style="fill:#455a64"></path><path d="M181.6,188.1c1.11.73,2,1.73,3,2.52a7.91,7.91,0,0,1,2.37,2.06,15.57,15.57,0,0,1-2.9-1.25,6.76,6.76,0,0,1-2.45-3.33Z" style="fill:#455a64"></path><path d="M178.22,195.34a15.87,15.87,0,0,1,3,5.52,7.33,7.33,0,0,1-3-5.52Z" style="fill:#455a64"></path><path d="M181.05,188.84s3.72,6.74,5.63,8,6.57,5.73,7.5,4.36-3.57-8.11-5.28-9.66-6.76-4.13-6.76-4.13Z" style="fill:#455a64;opacity:0.30000000000000004"></path><path d="M200.12,268.4,194,230.72s5.84-12.25-.42-22.87c-3.16-5.38-11.24-25.07-20.85-32.16-11.31-8.35-22.16-.67-26.38,5.05-8.45,11.46-23,38.4-25.88,87.68Z" style="fill:#263238"></path><path d="M162.46,226.62a78.9,78.9,0,0,1,11.5.56c1.9.26,3.76.61,5.63,1,.94.19,1.87.35,2.81.51a11.83,11.83,0,0,0,3,.21.07.07,0,0,1,0,.14,20.26,20.26,0,0,1-2.8.27,19.18,19.18,0,0,1-2.73-.2c-1.92-.24-3.83-.57-5.75-.84-3.88-.53-7.75-1.06-11.65-1.32C162.27,226.93,162.28,226.63,162.46,226.62Z" style="fill:#263238"></path><path d="M153.45,231.06a84.86,84.86,0,0,1,9.38-1.53c1.58-.16,3.15-.23,4.74-.26.76,0,1.52,0,2.27,0s1.67.13,2.5.13c.09,0,.1.13,0,.13-.79,0-1.57.18-2.36.25l-2.36.21c-1.57.14-3.14.3-4.72.43-3.16.25-6.3.54-9.44.9C153.31,231.34,153.29,231.1,153.45,231.06Z" style="fill:#263238"></path><path d="M135.9,200.8c10.91-1.1,22.08-1.81,33-2.37a169.29,169.29,0,0,1,19.87,1.22c-4.69-.08-15.32-.47-19.84-.31-10.95.71-22.11,1.29-33.07,1.46Z" style="fill:#455a64"></path><path d="M146.22,200.16c-1.28,9.84-3.52,21.76-5,31.58-.35,3.67-.64,9-.91,12.75l-.49,6.38c0-6.42,0-12.81.49-19.22,1.49-10.6,3.62-21.05,5.95-31.49Z" style="fill:#455a64"></path><path d="M148.88,200.16c-.13,6.52-1.13,13-1.38,19.46-.07,1.91-.19,4.62-.38,6.5-1-8.68,0-17.44,1.76-26Z" style="fill:#455a64"></path><path d="M183.79,199.34a50.32,50.32,0,0,1,5.9,12.41c.74,4.58.17,9.19-.27,13.77-.07-1.14-.08-2.28-.14-3.42,0-1.71-.14-5.12-.21-6.82,0-3.46-1.38-6.46-2.63-9.64l-2.65-6.3Z" style="fill:#455a64"></path><path d="M181.94,199.34c2.48,5.31,4.26,10.81,3.5,16.74-.42-2.11-.64-4.26-1-6.36-.82-3.44-2-6.84-2.54-10.38Z" style="fill:#455a64"></path><path d="M140.76,181.16c-23,21.87-52.59,68.48-47.68,78.28,5.48,10.92,37.53-19.74,37.47-21.6,0-1.4,11.81-29.91,20.77-50.63S146.45,175.75,140.76,181.16Z" style="fill:#d3766a"></path><path d="M130.76,237.88c1.05-3,17.13-40.63,21.77-52.53,4.16-10.68,2.81-14.37-6.89-8.77-1.17.68-7.43,2.43-9.37,4.29-11.86,11.32-41.52,44.23-48.22,63.58-6.46,18.64,9.1,20.68,22.17,12.42C120.93,250.1,130.76,237.88,130.76,237.88Z" style="fill:#263238"></path><path d="M128.7,242.74c5.26-14.32,11.18-28.49,17.67-42.3-5.25,14.33-11.17,28.5-17.67,42.3Z" style="fill:#263238"></path><path d="M143.1,208.69a22,22,0,0,1,3.42-5,15.14,15.14,0,0,1-3.42,5Z" style="fill:#263238"></path><path d="M141.07,183.82a8.12,8.12,0,0,0-3.94,1.7c-1.71,1.45-5.38,7.11-4.36,8.56s2.49-.77,4.15-2.4a73.45,73.45,0,0,0,5.14-6.62Z" style="fill:#455a64;opacity:0.30000000000000004"></path><path d="M144.18,189.38a2.38,2.38,0,0,0-1.14.49c-.5.43-1.57,2.08-1.27,2.5s1,.09,1.53-.38a10.14,10.14,0,0,0,1.17-2.25Z" style="fill:#455a64;opacity:0.30000000000000004"></path><path d="M137.48,180.22c6.89,4.73,8.77,10.57,8.74,18.67-.71-3-1.51-7.4-2.62-10.23-1.31-3.2-3.81-5.86-6.12-8.44Z" style="fill:#455a64"></path><path d="M141.07,183.82a30.83,30.83,0,0,1-3.25,1.85,2.81,2.81,0,0,0-.43.26,30.38,30.38,0,0,1-4,3.88,17.37,17.37,0,0,1,3.34-4.62,11.23,11.23,0,0,1,4.31-1.37Z" style="fill:#455a64"></path><path d="M142.06,185.06c-.58,2.23-2.41,3.46-4.56,4a6.17,6.17,0,0,1,2-1.86,24.33,24.33,0,0,1,2.58-2.13Z" style="fill:#455a64"></path><path d="M145,191.36a5.84,5.84,0,0,1-2.59,4.81,10.92,10.92,0,0,1,2.59-4.81Z" style="fill:#455a64"></path><path d="M229,258.78c-5.53,6.79-19.26,7.15-53.73,11.3-4.77.57-17.88-32-12.82-32.88,6.38-1.1,31.36-4,33.21-4C211.31,233.38,232.76,254.17,229,258.78Z" style="fill:#d3766a"></path><path d="M168.35,232.71l29.37,47.91s32-14.78,35.66-22.13c2.64-5.25-19.78-24.75-37.09-25.49Z" style="fill:#263238"></path><path d="M216.38,241.11c-2.36-2.47-10.11-7.57-20.11-8.14-.09,0-.12.14,0,.15,7.41,1.15,17.58,5.92,20,8.1C216.36,241.28,216.44,241.17,216.38,241.11Z" style="fill:#455a64"></path><path d="M200.74,266.8c-2.35-4.32-4.92-8.52-7.5-12.71s-5.17-8.39-7.86-12.52c-1.52-2.33-3-4.67-4.62-6.95,0-.06-.16,0-.12.06,2.34,4.32,4.9,8.53,7.45,12.73s5.16,8.4,7.8,12.56q2.24,3.52,4.63,6.95C200.6,267,200.81,266.93,200.74,266.8Z" style="fill:#455a64"></path><path d="M168.37,232.27a44,44,0,0,1,5.74-.24c1.91,0,3.83,0,5.75.07,3.81.08,11.89-.17,18.73,1.11.07,0-.38.31-.46.29-3.22-.78-27.4-.42-29.34-.64a2.16,2.16,0,0,1,.14.43.12.12,0,0,1-.19.12c-.21-.21-.34-.44-.53-.66A.28.28,0,0,1,168.37,232.27Z" style="fill:#455a64"></path><path d="M92.76,257.26c5.73,6.63,19.46,6.59,54,9.76,4.79.43,17-32.5,11.88-33.23-6.41-.92-31.47-3.1-33.32-3C109.73,231.37,88.88,252.76,92.76,257.26Z" style="fill:#d3766a"></path><path d="M145.46,234.52s12.83-4.49,20.31-4.76c10-.36,18.8,3.44,22.39,5.26,7.48,3.8,23,18.15,19.61,23.33-3,4.69-18.12-10.78-18.12-10.78s18,13.23,13.28,18.21-21.18-14-21.18-14,18.17,14,12.52,18.37c-4.28,3.3-20.18-13-20.18-13s15.54,12.16,11.29,15.74c-4.69,3.95-20.32-10.2-20.32-10.2-12.33,7.29-21.32,5.44-27.48,3.57C136.09,265.79,145.46,234.52,145.46,234.52Z" style="fill:#d3766a"></path><path d="M183.72,242.59c2.17,1.48,4.38,3,6.4,4.63s4,3.4,5.87,5.25a44.35,44.35,0,0,1,6.58,7.88c-3.72-4.85-10.89-10.92-12.92-12.59s-4-3.43-6-5.09C183.6,242.63,183.67,242.56,183.72,242.59Z" style="fill:#263238"></path><path d="M177.57,249.81c2.69,2,5.43,3.9,8,6s4.86,4.35,7.29,6.64c.19.18,0,.22-.16,0-2.53-2.19-5-4-7.58-6.18s-5-4.42-7.63-6.48C177.48,249.84,177.53,249.78,177.57,249.81Z" style="fill:#263238"></path><path d="M171.18,255.06a75,75,0,0,1,11.57,10.16c.18.18,0,.21-.22,0-3.78-3.45-6.73-6.18-11.45-10C171,255.15,171.09,255,171.18,255.06Z" style="fill:#263238"></path><path d="M151.6,228l-25.52,50.07s-33-12.23-37.29-19.27c-3-5,17.78-26.22,35-28.31Z" style="fill:#263238"></path><path d="M104.38,240.16c2.16-2.65,9.49-8.34,19.41-9.69.09,0,.13.12,0,.14-7.29,1.72-17.06,7.28-19.36,9.65C104.41,240.32,104.32,240.22,104.38,240.16Z" style="fill:#455a64"></path><path d="M122,264.54c2-4.49,4.23-8.88,6.48-13.26s4.49-8.77,6.85-13.09c1.33-2.45,2.65-4.9,4.06-7.3,0-.06.15,0,.12.05-2,4.49-4.21,8.89-6.42,13.28s-4.49,8.78-6.8,13.13c-1.3,2.46-2.65,4.9-4.07,7.29C122.14,264.76,121.93,264.68,122,264.54Z" style="fill:#455a64"></path><path d="M151.54,227.58a43.91,43.91,0,0,0-5.73.21q-2.87.22-5.73.52c-3.79.38-11.87.76-18.58,2.57-.08,0,.4.28.47.26,3.15-1,27.29-2.57,29.2-2.94a3.13,3.13,0,0,0-.1.44c0,.1.11.2.19.1s.31-.46.49-.69A.29.29,0,0,0,151.54,227.58Z" style="fill:#455a64"></path><path d="M149.45,174.68,173,198.51l4.52-21s-6.13-5.52-14-5.52A46.46,46.46,0,0,0,149.45,174.68Z" style="fill:#ebebeb"></path><path d="M155.56,176.79c.45,1.53,7.67,10.65,14.55,8.73,4.84-1.35,2.47-11.15,2.47-11.15l2.34-14.14L156.73,150.1S155.38,176.14,155.56,176.79Z" style="fill:#d3766a"></path><path d="M156.27,159.25a27.33,27.33,0,0,0,16.44,14.33l2.21-13.35L156.73,150.1S156.52,154.23,156.27,159.25Z" style="fill:#263238"></path><path d="M191.39,137c5.29,22.87-7.84,28.62-12.78,29.75-4.49,1-19.9,4-27.53-18.24s1.35-31.89,11.49-34.79S186.09,114.12,191.39,137Z" style="fill:#d3766a"></path><path d="M185.25,135c-.56,0-1.08-.06-1.63-.09a2.65,2.65,0,0,1-1.64-.41.85.85,0,0,1-.16-1,2.07,2.07,0,0,1,2-.78,3,3,0,0,1,2.06.77A.9.9,0,0,1,185.25,135Z" style="fill:#263238"></path><path d="M169.26,137.84c.54-.15,1-.37,1.53-.57a2.67,2.67,0,0,0,1.44-.88.82.82,0,0,0-.15-1,2.07,2.07,0,0,0-2.11-.17,3,3,0,0,0-1.73,1.35A.9.9,0,0,0,169.26,137.84Z" style="fill:#263238"></path><path d="M173.47,142.45c0-.06-.11.1-.1.16.33,1.57.44,3.43-.9,4.21,0,0,0,.1,0,.08C174.21,146.35,174,143.89,173.47,142.45Z" style="fill:#263238"></path><path d="M171.76,141.05c-2.58.25-1.88,5.39.52,5.15S173.93,140.84,171.76,141.05Z" style="fill:#263238"></path><path d="M170.79,141.46c-.41.35-.78.92-1.31,1s-1.17-.33-1.65-.79c-.05-.05-.09,0-.08.07.12,1,.64,2,1.72,2s1.55-1,1.66-2C171.15,141.56,171,141.32,170.79,141.46Z" style="fill:#263238"></path><path d="M182.61,141c0-.06.14.06.14.13.16,1.59.6,3.4,2.12,3.74,0,0,0,.09,0,.09C183.07,144.89,182.5,142.49,182.61,141Z" style="fill:#263238"></path><path d="M183.82,139.11c2.54-.53,3.41,4.58,1.05,5.07S181.69,139.54,183.82,139.11Z" style="fill:#263238"></path><path d="M185,139.26c.45.21.93.63,1.42.58s.89-.68,1.16-1.27c0-.06.07,0,.08,0,.2,1,0,2-.86,2.39s-1.6-.41-2-1.35C184.67,139.48,184.77,139.18,185,139.26Z" style="fill:#263238"></path><path d="M176.09,155.44c.41.34.84.82,1.43.82a4.08,4.08,0,0,0,1.68-.56c.05,0,.11,0,.08.08a2.17,2.17,0,0,1-1.95,1.05,1.71,1.71,0,0,1-1.39-1.3C175.91,155.44,176,155.39,176.09,155.44Z" style="fill:#263238"></path><path d="M181.89,148.72s.68,2.32.84,3.44c0,.1-.25.19-.62.27,0,0,0,0-.05,0a5.41,5.41,0,0,1-5.47-1.22c-.09-.1,0-.23.15-.18a8.16,8.16,0,0,0,5.07.67c0-.32-1.3-3.94-1.12-4a10.22,10.22,0,0,1,2.63.2c-1.28-4.88-3.33-9.51-4.53-14.39,0-.18.21-.27.28-.12,2.5,4.71,4.09,10.29,5.54,15.3C184.79,149.34,182.36,148.84,181.89,148.72Z" style="fill:#263238"></path><path d="M174.75,117.06s1.13,3.48.06,6.1c-2.2,5.38-8.57,4.35-10.6,6.54s-1,6.05-2.69,8.1c-2.37,2.83-5.86,2-6.18,3.81s-1.18,7.68-3.44,8.54-15-36.93,15.14-37.4c0,0,4-1.93,10.61,1,7.26,3.17,11,14.67,11,14.67s-.16-.15-1.24-1c-1.53-1.21-2.15-2.36-3.26-3.14-1.75-1.21-2.64-.66-4.45-1.84A20.06,20.06,0,0,1,174.75,117.06Z" style="fill:#263238"></path><path d="M174.2,115.41a20.81,20.81,0,0,1,1.14,4.57,8.44,8.44,0,0,1-.39,4.53,6.28,6.28,0,0,1-3.29,2.89c-1.4.6-3,.84-4.47,1.55a4.59,4.59,0,0,0-1.93,1.63,6.26,6.26,0,0,0-.76,2.37,8.36,8.36,0,0,1-1.42,4.27,5.24,5.24,0,0,1-3.94,1.93c-1.51.09-3.21-.25-4.65.5,1.5-.63,3.07-.17,4.66-.14a5.66,5.66,0,0,0,4.36-1.91c1.16-1.26,1.4-3,1.66-4.53a5.65,5.65,0,0,1,.69-2.11,3.92,3.92,0,0,1,1.65-1.34c1.35-.66,2.93-.94,4.42-1.6a8.29,8.29,0,0,0,2.07-1.3,4.89,4.89,0,0,0,1.48-2,8.86,8.86,0,0,0,.22-4.81A21,21,0,0,0,174.2,115.41Z" style="fill:#263238"></path><path d="M174.85,116.76a16.67,16.67,0,0,0,1.69,4.08,7.76,7.76,0,0,0,3.21,3.16,11.12,11.12,0,0,0,2.12.69,3.62,3.62,0,0,1,1.69,1,11,11,0,0,0,1.41,1.7,4.83,4.83,0,0,0,2,1,5.65,5.65,0,0,1-1.72-1.28,10.74,10.74,0,0,1-1.2-1.79,3.77,3.77,0,0,0-1.94-1.32,11.71,11.71,0,0,1-2-.7,8.1,8.1,0,0,1-3-2.82A32.32,32.32,0,0,1,174.85,116.76Z" style="fill:#263238"></path><path d="M155.24,147.24s-5.8-6.81-8.94-4.68S148,154.9,152,156a4,4,0,0,0,5.1-2.63Z" style="fill:#d3766a"></path><path d="M147.76,145.45a.06.06,0,0,0,0,.11c2.83.84,4.51,3.23,5.77,5.76a2.2,2.2,0,0,0-3.33-.29c-.06.06,0,.16.09.14a2.44,2.44,0,0,1,2.76.59,11.47,11.47,0,0,1,1.49,2c.15.24.58.06.46-.21l0-.06C154.7,150.05,151.53,145.45,147.76,145.45Z" style="fill:#263238"></path><path d="M172.58,173.36l-3.53,10.28-13.16-12.11-3.34,4.27s13.27,19.62,13.3,18.7l3.71-8.89,6.3,5.74-1.26-15.14Z" style="fill:#ebebeb"></path><path d="M175.66,183.83c-.29-2.49-.51-5-.92-7.49,0-.08-.16-.12-.17,0-.38,2.44.78,12,.89,14.25l0,0c-.26-.25-5.82-5-5.87-4.95-.83,1.43-3.55,7.9-3.73,8.49-2.1-3.12-11-15.38-13.41-18.3a.08.08,0,1,0-.14.09c1.88,3.31,13.35,19.5,13.49,19.45a98.51,98.51,0,0,0,3.88-9.4c.95,1.05,6.59,6.48,6.59,6.11A77.92,77.92,0,0,0,175.66,183.83Z" style="fill:#263238"></path><rect x="61.46" y="268.42" width="234.17" height="16.65" style="fill:#FFC727"></rect><rect x="61.46" y="268.42" width="234.17" height="16.65" style="opacity:0.5"></rect><rect x="68.43" y="285.07" width="220.24" height="183.89" style="fill:#FFC727"></rect><rect x="68.43" y="285.07" width="220.24" height="183.89" style="opacity:0.5"></rect><polygon points="105.36 422.19 251.72 422.19 257.66 428.18 99.43 428.18 105.36 422.19" style="fill:#FFC727;opacity:0.2"></polygon><polygon points="251.72 317.37 105.36 317.37 99.43 311.39 257.66 311.39 251.72 317.37" style="opacity:0.1"></polygon><path d="M257.66,428.18c-39.44.12-118.8.35-158.23.36h-.37v-.36l-.13-116.79v-.5h.5l158.53.19c.19.19-.44,116.86-.3,117.1Zm0,0c0,.11-.64-118.1,0-116.49l-158.23.19.5-.49c-.1-.17.36,118.4-.5,116.42,39.43,0,118.8.24,158.23.37Z" style="opacity:0.2"></path><path d="M105.36,317.37c36.49-.12,109.89-.35,146.36-.36h.37v.37l.13,104.82v.5h-.5l-146.65-.2c-.31-.12.52-104.93.29-105.12Zm0,0c0-.12.63,106.1,0,104.53l146.35-.21-.49.5c-.07.08-.25-106.38.49-104.45-36.47,0-109.89-.24-146.36-.37Z" style="opacity:0.2"></path><path d="M99.43,311.39a17.4,17.4,0,0,1,5.93,6,17.49,17.49,0,0,1-5.93-6Z" style="opacity:0.2"></path><path d="M99.43,428.18a17.61,17.61,0,0,1,5.93-6,17.43,17.43,0,0,1-5.93,6Z" style="opacity:0.2"></path><path d="M251.72,422.19a17.55,17.55,0,0,1,5.94,6,17.55,17.55,0,0,1-5.94-6Z" style="opacity:0.2"></path><path d="M251.72,317.37a17.43,17.43,0,0,1,5.94-6,17.61,17.61,0,0,1-5.94,6Z" style="opacity:0.2"></path><polygon points="288.66 288.94 68.42 294.77 68.42 285.07 288.66 285.07 288.66 288.94" style="opacity:0.1"></polygon><polygon points="223.82 268.42 224.74 285.07 229.11 285.1 234.88 468.96 288.66 468.96 288.66 285.07 295.63 285.07 295.63 268.42 223.82 268.42" style="opacity:0.1"></polygon><g style="opacity:0.05"><polygon points="188.99 285.07 68.43 406.69 68.43 373.31 155.91 285.07 188.99 285.07" style="fill:#FFC727"></polygon><polygon points="213 285.07 68.43 430.91 68.43 419.24 201.43 285.07 213 285.07" style="fill:#FFC727"></polygon><polygon points="288.66 401.31 288.66 405.86 226.11 468.96 221.6 468.96 288.66 401.31" style="fill:#FFC727"></polygon></g></g><g id="freepik--character-2--inject-205"><path d="M340.28,148.94h69.45A29.27,29.27,0,0,1,439,178.21v70.21a0,0,0,0,1,0,0H311a0,0,0,0,1,0,0V178.21A29.27,29.27,0,0,1,340.28,148.94Z" style="fill:#FFC727"></path><path d="M340.28,148.94h69.45A29.27,29.27,0,0,1,439,178.21v70.21a0,0,0,0,1,0,0H311a0,0,0,0,1,0,0V178.21A29.27,29.27,0,0,1,340.28,148.94Z" style="opacity:0.6000000000000001"></path><path d="M351.65,162.42c-29,29-49.67,63.36-47.44,71.46,4.16,15.08,24.87,16.7,27.72,13.16,11.54-14.33,22.79-41.26,34.9-71.28,9.48-23.47,1.84-23.89-7.31-16.75C358.21,160,352.85,161.23,351.65,162.42Z" style="fill:#263238"></path><path d="M304.21,233.89c4.16,15.07,24.87,16.69,27.72,13.15,11.54-14.33,22.78-41.27,34.9-71.28,4.59-11.37,5.36-18.31,3-20.16l-65.61,75.22A7.05,7.05,0,0,0,304.21,233.89Z" style="opacity:0.1"></path><path d="M352.7,162.75c8,5.64,10.06,11.92,10.22,21.43a79.55,79.55,0,0,0-3-11.79c-1.56-3.7-4.49-6.73-7.22-9.64Z" style="fill:#455a64"></path><path d="M356.89,166.89c-1.34.89-3,1.53-4.34,2.36a46.81,46.81,0,0,1-4.6,4.52,22.07,22.07,0,0,1,4-5.28,14.43,14.43,0,0,1,5-1.6Z" style="fill:#455a64"></path><path d="M358.06,168.31a6.83,6.83,0,0,1-2.44,3.33,16.91,16.91,0,0,1-2.9,1.25,7.66,7.66,0,0,1,2.36-2.07c1-.79,1.87-1.78,3-2.51Z" style="fill:#455a64"></path><path d="M361.45,175.54a7.38,7.38,0,0,1-3,5.53,15.75,15.75,0,0,1,3-5.53Z" style="fill:#455a64"></path><path d="M358.61,169.05s-3.72,6.73-5.63,8-6.56,5.73-7.49,4.36,3.56-8.11,5.27-9.66,6.76-4.12,6.76-4.12Z" style="fill:#455a64;opacity:0.30000000000000004"></path><path d="M327.12,248.41s15.09-48.92,19.16-60.55c4.93-14.09,11.25-25.08,20.85-32.17,11.31-8.35,22.16-.66,26.38,5.06,8.45,11.45,22.95,37.93,29.05,87.67Z" style="fill:#263238"></path><path d="M377.4,206.63a77.58,77.58,0,0,0-11.5.55c-1.89.26-3.76.61-5.63,1-.93.2-1.87.36-2.81.51a12.32,12.32,0,0,1-3,.22.07.07,0,0,0,0,.13,18.83,18.83,0,0,0,2.81.27,20.6,20.6,0,0,0,2.72-.19c1.93-.25,3.84-.58,5.76-.85,3.87-.53,7.74-1.06,11.64-1.31C377.59,206.93,377.58,206.63,377.4,206.63Z" style="fill:#263238"></path><path d="M386.41,211.07a82.59,82.59,0,0,0-9.38-1.54c-1.58-.16-3.15-.23-4.74-.26-.76,0-1.51,0-2.27,0s-1.67.13-2.5.13c-.09,0-.1.13,0,.13.78,0,1.57.19,2.35.26l2.36.2c1.58.15,3.15.31,4.72.43,3.16.26,6.3.54,9.44.91A.13.13,0,0,0,386.41,211.07Z" style="fill:#263238"></path><path d="M404,180.8c-10.51-.14-23.59-1-34.1-1.48-4.63-.07-15.69.38-20.46.51,6.81-.73,13.62-1.36,20.47-1.41,11.3.36,22.84,1.24,34.09,2.38Z" style="fill:#455a64"></path><path d="M393.65,180.17c2.32,10.43,4.46,20.89,5.94,31.48.49,6.41.53,12.81.49,19.23l-.48-6.39c-.27-3.77-.57-9.06-.91-12.75-1.53-9.83-3.76-21.72-5-31.57Z" style="fill:#455a64"></path><path d="M391,180.17c1.75,8.51,2.75,17.28,1.76,26-.19-1.87-.3-4.6-.38-6.51-.25-6.5-1.25-12.94-1.38-19.45Z" style="fill:#455a64"></path><path d="M356.07,179.34l-2.65,6.3c-1.25,3.18-2.67,6.18-2.63,9.64-.07,1.7-.17,5.12-.21,6.82-.06,1.14-.07,2.28-.14,3.42-.44-4.57-1-9.19-.26-13.76a49.83,49.83,0,0,1,5.89-12.42Z" style="fill:#455a64"></path><path d="M357.92,179.34c-.57,3.54-1.71,6.94-2.54,10.38-.32,2.11-.54,4.25-1,6.36-.76-5.93,1-11.42,3.5-16.74Z" style="fill:#455a64"></path><path d="M399.67,163.23c24.11,20.66,56,65.69,51.62,75.73-4.9,11.19-38.49-17.79-38.52-19.64,0-1.41-13.33-29.27-23.34-49.51S393.71,158.12,399.67,163.23Z" style="fill:#f7a9a0"></path><path d="M412.56,219.37c-1.2-3-19.19-39.7-24.43-51.35-4.71-10.45-3.55-14.21,6.43-9.11,1.21.61,7.54,2.05,9.58,3.8,12.43,10.7,43.73,42,51.42,61,7.4,18.29-8,21.13-21.52,13.54C423,231.06,412.56,219.37,412.56,219.37Z" style="fill:#263238"></path><path d="M414.86,224.11c-7.19-13.45-13.83-27.3-19.81-41.34,7.2,13.46,13.83,27.31,19.81,41.34Z" style="fill:#263238"></path><path d="M398.75,190.84a14.87,14.87,0,0,1-3.68-4.77,22.17,22.17,0,0,1,3.68,4.77Z" style="fill:#263238"></path><path d="M399.5,165.9a8.1,8.1,0,0,1,4,1.49c1.78,1.37,5.73,6.83,4.79,8.34s-2.52-.65-4.27-2.19a73.76,73.76,0,0,1-5.48-6.35Z" style="fill:#455a64;opacity:0.30000000000000004"></path><path d="M396.67,171.62a2.32,2.32,0,0,1,1.17.43c.52.4,1.67,2,1.4,2.43s-1.05.14-1.55-.31A9.87,9.87,0,0,1,396.4,172Z" style="fill:#455a64;opacity:0.30000000000000004"></path><path d="M402.89,162.12c-2.17,2.7-4.53,5.48-5.67,8.75a83.75,83.75,0,0,0-2.09,10.34c-.45-8.09,1.13-14,7.76-19.09Z" style="fill:#455a64"></path><path d="M399.5,165.9a11.43,11.43,0,0,1,4.37,1.15,17.53,17.53,0,0,1,3.57,4.45,30.74,30.74,0,0,1-4.17-3.68,2.53,2.53,0,0,0-.43-.24,30.68,30.68,0,0,1-3.34-1.68Z" style="fill:#455a64"></path><path d="M398.56,167.19a23.89,23.89,0,0,1,2.7,2,6.21,6.21,0,0,1,2.07,1.75,5.72,5.72,0,0,1-4.77-3.75Z" style="fill:#455a64"></path><path d="M396,173.63a11,11,0,0,1,2.83,4.68,5.82,5.82,0,0,1-2.83-4.68Z" style="fill:#455a64"></path><path d="M310.66,239c5.53,6.79,19.25,7.15,53.73,11.3,4.77.58,17.88-32,12.81-32.87-6.37-1.11-31.36-4-33.21-4C328.35,213.59,306.9,234.38,310.66,239Z" style="fill:#f7a9a0"></path><g style="opacity:0.1"><path d="M310.66,239c5.53,6.79,19.25,7.15,53.73,11.3,4.77.58,17.88-32,12.81-32.87-6.37-1.11-31.36-4-33.21-4C328.35,213.59,306.9,234.38,310.66,239Z"></path></g><path d="M371.31,212.91l-29.37,47.91S310,246,306.28,238.7c-2.64-5.26,19.78-24.76,37.09-25.49Z" style="fill:#263238"></path><path d="M323.28,221.32c2.36-2.48,10.12-7.57,20.11-8.14.09,0,.12.13,0,.14-7.4,1.15-17.58,5.92-20.05,8.11A.07.07,0,0,1,323.28,221.32Z" style="fill:#455a64"></path><path d="M338.93,247c2.34-4.33,4.91-8.53,7.5-12.72s5.16-8.39,7.85-12.51c1.52-2.34,3-4.68,4.63-7,0-.06.15,0,.11.06-2.34,4.32-4.89,8.54-7.45,12.74s-5.16,8.39-7.8,12.55c-1.49,2.35-3,4.68-4.63,7C339.07,247.24,338.86,247.13,338.93,247Z" style="fill:#455a64"></path><path d="M371.29,212.48a40.71,40.71,0,0,0-5.74-.24c-1.91,0-3.83,0-5.74.06-3.82.09-11.9-.17-18.73,1.11-.08,0,.38.31.45.29,3.22-.77,27.4-.42,29.34-.64-.05.14-.1.28-.14.43s.1.21.19.12.34-.44.54-.66A.28.28,0,0,0,371.29,212.48Z" style="fill:#455a64"></path><path d="M390.41,157.57l-23.5,23.83-4.51-21s6.12-5.52,14-5.52A46.46,46.46,0,0,1,390.41,157.57Z" style="fill:#ebebeb"></path><path d="M368.54,168c1.54.58,13.22-1.87,17.35-8.08.28-.43,0-5.2-.06-11,0-3.52,0-7.45.34-11l-22.94,3.52a57.24,57.24,0,0,1,1,13.94,8.21,8.21,0,0,1-.28,1.46,2.42,2.42,0,0,0-.05.24C363.18,159.8,365.44,166.87,368.54,168Z" style="fill:#f7a9a0"></path><path d="M386.17,137.9c-.14,1.62-.23,3.31-.28,5-4.4,9.68-18.21,10.15-21.56,10.12a62.23,62.23,0,0,0-1.1-11.61Z" style="fill:#263238"></path><path d="M390.89,104.49c3,7.83.32,31.2-5,36.73-7.74,8-21.18,9.65-28.19.18-6.8-9.19-2.8-39.59,3.24-44.69C369.81,89.18,386.49,92.93,390.89,104.49Z" style="fill:#f7a9a0"></path><path d="M392.26,122.47c1.14-2,3.4-10.34,2.89-13.66-.55-3.55-5-6-5-6a5.51,5.51,0,0,1-1.36,3.36c-1.93,1.77-5.79,2.93-6.24,4.67-.73,2.85,2.19,17.71,4.6,17.08S390.31,125.83,392.26,122.47Z" style="fill:#c7c7c7"></path><path d="M357.93,101.63s-4.14,2.6-4.91,5.06c-.67,2.14-.4,7.27-.42,9.2-.05,4.25,1.61,5.22,1.61,5.22S355.13,109.66,357.93,101.63Z" style="fill:#c7c7c7"></path><path d="M384.2,122.18c-.25,2.34-2.64,9.57-10.17,10.06-6.09.39-8.78-2.75-8.78-2.75l-3.39-.05s-2.27,1.75-4.6,1.25-2.85-5.23-3.15-8c0,0-.18,7.88-.32,10.52s-.53,9.14,3.81,13.33c5,4.88,17.37,6.06,25.55.53S390,130.61,390,130.61Z" style="fill:#c7c7c7"></path><path d="M386.06,124.5s5.54-7.25,8.86-5.24-1.08,12.67-5.12,14a4.06,4.06,0,0,1-5.34-2.41Z" style="fill:#f7a9a0"></path><path d="M393.58,122.28a.06.06,0,0,1,0,.11c-2.84,1-4.42,3.54-5.56,6.18a2.24,2.24,0,0,1,3.37-.47c.07.06,0,.17-.08.15a2.5,2.5,0,0,0-2.78.75,12.34,12.34,0,0,0-1.41,2.16c-.14.25-.58.1-.48-.19l0-.06C386.77,127.35,389.75,122.48,393.58,122.28Z" style="fill:#263238"></path><g style="opacity:0.2"><path d="M368.6,108.54a19.32,19.32,0,0,1-2.52-.11c-.85-.13-1.67-.4-2.52-.51a15,15,0,0,0-4.79.39c-.14,0-.12.11,0,.09a13,13,0,0,1,5-.06,16.7,16.7,0,0,0,4.15.54c3.21-.07,6.37.23,9.15,1.91,0,0,0,0,0,0A16.69,16.69,0,0,0,368.6,108.54Z"></path><path d="M368.87,106.51a19.29,19.29,0,0,1-2.4-.12c-.8-.11-1.57-.37-2.38-.47a14,14,0,0,0-4.54.37c-.13,0-.12.1,0,.08a12.45,12.45,0,0,1,4.79-.06,15.81,15.81,0,0,0,3.93.51c3-.07,6,.22,8.67,1.81,0,0,0,0,0,0A15.67,15.67,0,0,0,368.87,106.51Z"></path></g><path d="M362.22,127.63c.08,2.88-1.34,6.17-4.09,7.38,2.08-2.1,3.09-4.64,4.09-7.38Z" style="opacity:0.1"></path><path d="M374.85,135.69c-3.47-1.05-7-3.94-7.33-7.77,1.35,3.46,4.34,5.75,7.33,7.77Z" style="opacity:0.1"></path><path d="M371.78,121.76c0-.05.12.09.11.16-.22,1.56-.21,3.39,1.16,4.06,0,0,0,.1,0,.09C371.32,125.64,371.32,123.21,371.78,121.76Z" style="fill:#263238"></path><path d="M373.36,120.28c2.54.07,2.2,5.16-.16,5.08S371.23,120.21,373.36,120.28Z" style="fill:#263238"></path><path d="M362.23,120.69c0-.07-.12.06-.13.13,0,1.58-.36,3.38-1.82,3.81,0,0,0,.09,0,.09C362,124.58,362.44,122.19,362.23,120.69Z" style="fill:#263238"></path><path d="M360.93,119c-2.52-.34-3,4.73-.7,5S363,119.24,360.93,119Z" style="fill:#263238"></path><path d="M375.47,118.74a20.13,20.13,0,0,1-2-.52,3.34,3.34,0,0,1-2-.93,1.05,1.05,0,0,1,.06-1.31,2.66,2.66,0,0,1,2.65-.51,3.92,3.92,0,0,1,2.41,1.5A1.15,1.15,0,0,1,375.47,118.74Z" style="fill:#c7c7c7"></path><path d="M359.05,116.94a20.57,20.57,0,0,0,2.06-.34,3.31,3.31,0,0,0,2-.74,1.07,1.07,0,0,0,.07-1.31,2.69,2.69,0,0,0-2.61-.75,3.84,3.84,0,0,0-2.52,1.27A1.15,1.15,0,0,0,359.05,116.94Z" style="fill:#c7c7c7"></path><path d="M373,137c-.41.34-.82.81-1.39.81a4,4,0,0,1-1.64-.52c-.05,0-.1,0-.08.07a2.12,2.12,0,0,0,1.92,1,1.67,1.67,0,0,0,1.33-1.28A.09.09,0,0,0,373,137Z" style="fill:#263238"></path><path d="M370.58,131.4a5.32,5.32,0,0,1-3.73,2.11,7,7,0,0,1-1.93-.06,2.09,2.09,0,0,1-.36-.07l-.34-.08a.4.4,0,0,1-.29-.37v0a1.1,1.1,0,0,1,0-.16h0l0-.13c0-1.21.31-3,.31-3-.46.19-2.78,1-2.7.4.71-5.19,1.5-11,3.3-16a.14.14,0,0,1,.28.06c-.48,5-1.84,9.91-2.41,14.94a9.35,9.35,0,0,1,2.58-.57c.16.06-.56,3.51-.54,4.06a.09.09,0,0,0,0,.06c2,.41,3.58-.09,5.65-1.3C370.57,131.17,370.69,131.29,370.58,131.4Z" style="fill:#263238"></path><path d="M364.29,154.59,370,167.73l16-17.28,4.83,5.27s-15.4,27.17-15.54,26l-5.8-11.3-7.68,8.2.08-20Z" style="fill:#ebebeb"></path><path d="M361.34,168.67c.12-3.3.15-6.64.43-9.93,0-.12.19-.18.22,0,.75,3.17.21,15.81.31,18.83l0,0c.32-.36,7.13-7.22,7.2-7.12,1.24,1.79,5.49,10,5.79,10.77,2.44-4.32,12.81-21.35,15.72-25.45a.11.11,0,0,1,.2.11c-2.13,4.54-15.52,27-15.72,27a128.48,128.48,0,0,1-6.07-12c-1.14,1.49-8,9.21-8,8.72A101.05,101.05,0,0,1,361.34,168.67Z" style="fill:#263238"></path><polygon points="381.91 238.79 359.99 202.53 355.7 205.01 376.12 242.14 381.91 238.79" style="fill:#FFC727"></polygon><polygon points="381.91 238.79 359.99 202.53 355.7 205.01 376.12 242.14 381.91 238.79" style="opacity:0.6000000000000001"></polygon><rect x="339.95" y="180.49" width="23.87" height="25.89" transform="translate(343.59 -208.03) rotate(60.02)" style="fill:#FFC727"></rect><rect x="339.95" y="180.49" width="23.87" height="25.89" transform="translate(343.59 -208.03) rotate(60.02)" style="opacity:0.6000000000000001"></rect><rect x="354.73" y="180.85" width="27.9" height="5.78" transform="translate(343.6 -227.43) rotate(60.02)" style="fill:#FFC727"></rect><rect x="354.73" y="180.85" width="27.9" height="5.78" transform="translate(343.6 -227.43) rotate(60.02)" style="opacity:0.6000000000000001"></rect><rect x="353.18" y="185.34" width="21.72" height="2.17" transform="translate(343.6 -222.06) rotate(60.02)" style="fill:#FFC727"></rect><rect x="353.18" y="185.34" width="21.72" height="2.17" transform="translate(343.6 -222.06) rotate(60.02)" style="opacity:0.8"></rect><polygon points="359.21 173.1 359.55 176.47 370.4 195.28 373.15 197.26 359.21 173.1" style="fill:#FFC727"></polygon><polygon points="359.21 173.1 359.55 176.47 370.4 195.28 373.15 197.26 359.21 173.1" style="opacity:0.7000000000000001"></polygon><rect x="321.13" y="200.24" width="27.9" height="5.78" transform="translate(326.58 594.87) rotate(-119.98)" style="fill:#FFC727"></rect><rect x="321.13" y="200.24" width="27.9" height="5.78" transform="translate(326.58 594.87) rotate(-119.98)" style="opacity:0.6000000000000001"></rect><rect x="328.87" y="199.36" width="21.72" height="2.17" transform="translate(335.88 594.88) rotate(-119.98)" style="fill:#FFC727"></rect><rect x="328.87" y="199.36" width="21.72" height="2.17" transform="translate(335.88 594.88) rotate(-119.98)" style="opacity:0.8"></rect><polygon points="344.55 213.76 344.22 210.39 333.37 191.58 330.61 189.6 344.55 213.76" style="fill:#FFC727"></polygon><polygon points="344.55 213.76 344.22 210.39 333.37 191.58 330.61 189.6 344.55 213.76" style="opacity:0.7000000000000001"></polygon><rect x="356.09" y="202.69" width="7.04" height="8.27" transform="translate(359.05 -208.02) rotate(60.02)" style="fill:#FFC727"></rect><rect x="356.09" y="202.69" width="7.04" height="8.27" transform="translate(359.05 -208.02) rotate(60.02)" style="opacity:0.7000000000000001"></rect><path d="M451.17,238.29c-5.72,6.63-19.45,6.62-54,9.83-4.78.45-17-32.47-11.92-33.21,6.4-.93,31.46-3.14,33.31-3.07C434.17,212.42,455,233.78,451.17,238.29Z" style="fill:#f7a9a0"></path><path d="M352.44,220.09c-.9,3.55,2.33,5.53,2.33,5.53a7.87,7.87,0,0,0-2.34,4.77c-.2,3.21,4.74,4.94,4.74,4.94a9.59,9.59,0,0,0-1.66,5.42c.11,3.09,4.86,5.54,4.86,5.54A8.45,8.45,0,0,0,361.9,252c3.32,4.29,11.57,3.45,16.81,3s19.67-6.75,22.54-7.66l-2.79-33.69s-24.12-4.54-30.21-3.1C363.12,211.71,353.45,216.1,352.44,220.09Z" style="fill:#f7a9a0"></path><path d="M355,225.06c5.14-2.59,10.77-3.53,16.34-4.78.12,0,.16.17,0,.19-5.55,1.18-10.8,3.45-16.29,4.85A.14.14,0,0,1,355,225.06Z" style="fill:#263238"></path><path d="M357.25,234.88a14.66,14.66,0,0,1,3.81-.94c1.37-.23,2.75-.45,4.12-.64,2.76-.38,5.53-.71,8.31-1,.12,0,.17.18,0,.2-2.75.39-5.49.81-8.22,1.32-1.37.25-2.73.51-4.1.79a18.21,18.21,0,0,1-3.88.59A.2.2,0,0,1,357.25,234.88Z" style="fill:#263238"></path><path d="M360.48,246.27a10.74,10.74,0,0,1,3.48-.66c1.26-.14,2.52-.3,3.78-.46,2.52-.33,5-.66,7.54-1.07.12,0,.17.17,0,.19-2.54.44-5.08.9-7.63,1.31-1.25.21-2.5.4-3.75.59a9.82,9.82,0,0,1-3.45.23C360.43,246.39,360.43,246.3,360.48,246.27Z" style="fill:#263238"></path><path d="M391.24,210.58l28.06,48.69s32.36-13.91,36.25-21.15c2.78-5.18-19.1-25.28-36.39-26.49Z" style="fill:#263238"></path><path d="M439,220.29c-2.3-2.54-9.91-7.85-19.89-8.69-.09,0-.12.13,0,.15,7.37,1.35,17.41,6.39,19.83,8.64C439,220.45,439.08,220.35,439,220.29Z" style="fill:#455a64"></path><path d="M422.69,245.54c-2.23-4.39-4.68-8.65-7.15-12.91S410.6,224.1,408,219.9c-1.46-2.37-2.9-4.75-4.44-7.07,0-.06-.15,0-.12.06,2.22,4.38,4.67,8.66,7.1,12.92s4.93,8.54,7.46,12.77c1.43,2.39,2.9,4.75,4.44,7.07C422.54,245.77,422.75,245.67,422.69,245.54Z" style="fill:#455a64"></path><path d="M391.28,210.15a40.58,40.58,0,0,1,5.73-.09c1.92.05,3.84.12,5.75.22,3.81.19,11.9.16,18.69,1.62.08,0-.39.3-.46.28-3.2-.86-27.38-1.17-29.31-1.44a2.83,2.83,0,0,1,.12.44c0,.1-.1.2-.18.11a8,8,0,0,1-.52-.67A.27.27,0,0,1,391.28,210.15Z" style="fill:#455a64"></path><rect x="237.91" y="248.42" width="274.17" height="16.65" style="fill:#FFC727"></rect><rect x="237.91" y="248.42" width="274.17" height="16.65" style="opacity:0.5"></rect><rect x="244.88" y="265.07" width="260.24" height="203.89" style="fill:#FFC727"></rect><rect x="244.88" y="265.07" width="260.24" height="203.89" style="opacity:0.5"></rect><polygon points="505.12 268.94 244.88 274.77 244.88 265.07 505.12 265.07 505.12 268.94" style="opacity:0.1"></polygon><g style="opacity:0.05"><polygon points="355.06 265.07 244.88 376.22 244.88 342.84 321.97 265.07 355.06 265.07" style="fill:#FFC727"></polygon><polygon points="379.07 265.07 244.88 400.44 244.88 388.76 367.49 265.07 379.07 265.07" style="fill:#FFC727"></polygon><polygon points="505.12 395.95 505.12 407.63 444.33 468.96 432.75 468.96 505.12 395.95" style="fill:#FFC727"></polygon><polygon points="505.12 420.43 505.12 424.98 461.52 468.96 457.01 468.96 505.12 420.43" style="fill:#FFC727"></polygon><polygon points="505.12 330.47 505.12 335.02 372.35 468.96 367.84 468.96 505.12 330.47" style="fill:#FFC727"></polygon></g><polygon points="281.82 422.19 468.18 422.19 474.11 428.18 275.89 428.18 281.82 422.19" style="fill:#FFC727;opacity:0.2"></polygon><polygon points="468.18 297.37 281.82 297.37 275.89 291.39 474.11 291.39 468.18 297.37" style="opacity:0.1"></polygon><circle cx="375" cy="359.78" r="50.65" transform="translate(-109.14 170.89) rotate(-22.5)" style="opacity:0.1"></circle><path d="M474.11,428.18l-198.59.36c-.28-.07.07-137-.13-137.15v-.5h.5l198.51.21c.23.18-.45,136.85-.29,137.08Zm0,0c.05.13-.67-138.06,0-136.51l-198.22.21.5-.49c-.05-.18.32,138.4-.5,136.42l198.22.37Z" style="opacity:0.2"></path><path d="M281.82,297.37,468.55,297c.28.09-.08,125,.12,125.19v.49h-.49l-186.65-.19c-.14-.22.39-124.86.29-125.12Zm0,0c-.06-.15.69,126.12,0,124.53l186.36-.2-.49.49c.06.2-.37-126.48.49-124.44l-186.36-.38Z" style="opacity:0.2"></path><path d="M275.89,291.39a17.4,17.4,0,0,1,5.93,6,17.4,17.4,0,0,1-5.93-6Z" style="opacity:0.2"></path><path d="M275.89,428.18a17.52,17.52,0,0,1,5.93-6,17.43,17.43,0,0,1-5.93,6Z" style="opacity:0.2"></path><path d="M468.18,422.19a17.43,17.43,0,0,1,5.93,6,17.61,17.61,0,0,1-5.93-6Z" style="opacity:0.2"></path><path d="M468.18,297.37a17.49,17.49,0,0,1,5.93-6,17.49,17.49,0,0,1-5.93,6Z" style="opacity:0.2"></path><g style="opacity:0.2"><path d="M355.8,360.62c0,1.12-4.37,2.15-9.45,2.15s-9.46-1-9.46-2.15Z"></path><path d="M354,359.76c-2.75-6.45-5.4-13.26-8-19.81h.56c-2.55,6.55-5.21,13.35-8,19.81,2.38-6.88,5.09-13.95,7.68-20.77,2.59,6.83,5.3,13.88,7.68,20.77Z"></path><rect x="336.35" y="359.34" width="19.98" height="1.28"></rect><path d="M413.11,360.62c0,1.12-4.36,2.15-9.45,2.15s-9.46-1-9.46-2.15Z"></path><path d="M411.31,359.76c-2.74-6.45-5.4-13.26-8-19.81h.56c-2.55,6.55-5.21,13.35-8,19.81,2.38-6.88,5.09-13.95,7.68-20.77,2.6,6.83,5.3,13.88,7.68,20.77Z"></path><rect x="393.66" y="359.34" width="19.98" height="1.28"></rect><path d="M404.3,339.82c-1.59.13-2.65-.71-4.53-1.28-2.72-.83-12.77-1.15-17.13-.82-1.73.13-5.32,1.67-7.91,1.67s-6.17-1.54-7.9-1.67c-4.36-.33-14.41,0-17.14.82-1.87.57-2.93,1.41-4.52,1.28-2.57-.19-2.86-3.83.4-3.83s4.2.64,8.5.56c1.85,0,12.89-1.31,16-1.31a17.45,17.45,0,0,1,4.63.46,17.58,17.58,0,0,1,4.64-.46c3.14,0,14.17,1.28,16,1.31,4.29.08,5.24-.56,8.5-.56S406.87,339.63,404.3,339.82Z"></path><rect x="354.56" y="388.2" width="40.35" height="6.93"></rect><rect x="356.65" y="386.5" width="36.16" height="1.7"></rect><path d="M377.22,386.5h-5a46.43,46.43,0,0,1-.81-11.39c.25-7.05,2.34-37.5,2.34-37.5h1.91s2.09,30.45,2.34,37.5A46.43,46.43,0,0,1,377.22,386.5Z"></path><path d="M376.29,333c0,2.56-.64,3.26-.64,3.26h-1.83s-.64-.7-.64-3.26,1.2-10.64,1.2-10.64h.7S376.29,330.42,376.29,333Z"></path><path d="M377.13,337.28a2.4,2.4,0,1,1-2.4-2.4A2.39,2.39,0,0,1,377.13,337.28Z"></path><path d="M376.64,322.34a1.91,1.91,0,1,1-1.91-1.91A1.91,1.91,0,0,1,376.64,322.34Z"></path></g><rect x="266.47" y="279.43" width="2.34" height="175.18" style="opacity:0.1"></rect><rect x="259.16" y="279.43" width="2.34" height="175.18" style="opacity:0.1"></rect><rect x="251.84" y="279.43" width="2.34" height="175.18" style="opacity:0.1"></rect><rect x="495.82" y="279.43" width="2.34" height="175.18" style="opacity:0.1"></rect><rect x="488.5" y="279.43" width="2.34" height="175.18" style="opacity:0.1"></rect><rect x="481.18" y="279.43" width="2.34" height="175.18" style="opacity:0.1"></rect><rect x="272.79" y="241.77" width="42.13" height="6.65" style="fill:#FFC727"></rect><rect x="272.79" y="241.77" width="42.13" height="6.65" style="opacity:0.6000000000000001"></rect><rect x="276.25" y="239.15" width="35.19" height="2.61" style="fill:#FFC727"></rect><rect x="276.25" y="239.15" width="35.19" height="2.61" style="opacity:0.7000000000000001"></rect></g></svg>
