<svg xmlns="http://www.w3.org/2000/svg" viewBox="0 0 500 500"><g id="freepik--Shadow--inject-25"><ellipse cx="250" cy="449.4" rx="180.44" ry="23.51" style="fill:#ebebeb"></ellipse><ellipse cx="84.48" cy="410.73" rx="54.02" ry="12.94" style="fill:#ebebeb"></ellipse></g><g id="freepik--Floor--inject-25"><polygon points="33.4 392.79 87.55 392.55 141.7 392.46 250 392.3 358.3 392.46 412.45 392.55 466.6 392.79 412.45 393.04 358.3 393.13 250 393.29 141.7 393.13 87.55 393.04 33.4 392.79" style="fill:#263238"></polygon></g><g id="freepik--Plant--inject-25"><path d="M86.07,219.61s-26.89-3.76-20.61-36.23C65.46,183.38,95.51,190.13,86.07,219.61Z" style="fill:#FFC727"></path><path d="M86.07,219.61s-26.89-3.76-20.61-36.23C65.46,183.38,95.51,190.13,86.07,219.61Z" style="opacity:0.1"></path><path d="M84.71,212.83A49.37,49.37,0,0,0,82.88,208c0-.21,0-.42-.07-.62,0-.45-.08-.89-.11-1.34-.08-1-.14-1.94-.2-2.91-.11-1.94-.23-3.88-.26-5.82,0-.11-.17-.1-.17,0,0,1.95,0,3.89,0,5.83,0,1,.1,1.94.16,2.91,0,.22,0,.43,0,.65a57.78,57.78,0,0,0-5.4-9.22A44.21,44.21,0,0,0,74,193.75c-1.07-1.23-2.2-2.4-3.29-3.61-.07-.08-.18,0-.11.12a47.73,47.73,0,0,1,5.18,6.89c.82,1.23,1.59,2.5,2.33,3.79l-.25-.09-1-.39-2.2-.83c-1.44-.54-2.88-1.06-4.32-1.61-.09,0-.15.12-.06.15,1.43.57,2.84,1.17,4.26,1.78l2.08.9,1.05.43a3,3,0,0,0,.71.25c.54,1,1.08,1.95,1.58,2.95a70.29,70.29,0,0,1,3.28,7.75c.07.18.13.37.2.56a17.24,17.24,0,0,0-2.21-1.07l-2.78-1.26c-1.89-.87-3.76-1.75-5.57-2.77a.08.08,0,0,0-.08.14c1.85,1,3.66,2.09,5.51,3.09.93.5,1.86,1,2.81,1.45a8.59,8.59,0,0,0,2.52,1A31.79,31.79,0,0,1,85.41,221c.3,3.67.27,7.37.36,11.05a0,0,0,1,0,.09,0c.27-3.34.42-6.71.44-10.06A29.31,29.31,0,0,0,84.71,212.83Z" style="fill:#263238"></path><path d="M80.57,193.74a32.32,32.32,0,0,0-.27,5.73c0,.05.08.05.08,0,.11-1.9.13-3.8.35-5.69C80.74,193.68,80.58,193.64,80.57,193.74Z" style="fill:#263238"></path><path d="M72.88,195.37a21.34,21.34,0,0,1-3.46-1.7c-.09-.06-.17.09-.08.14a13.1,13.1,0,0,0,3.5,1.67C72.9,195.5,73,195.4,72.88,195.37Z" style="fill:#263238"></path><path d="M86.93,271.15c0-3-.08-5.94-.11-8.91-.06-9.87-.14-19.74-.32-29.61q-.21-11.76-.55-23.5a.12.12,0,0,0-.06-.1q0-3.21,0-6.42c0-.06-.06-.08-.13-.08s-.13,0-.12.08q0,3.22,0,6.43s-.07.05-.07.09c-.39,14-.74,27.89-.83,41.84,0,2.84,0,5.67,0,8.51q-.15,13.63-.11,27.28c0,1.44,0,2.89,0,4.34,0,8.32.09,16.64.09,25,0,.44.5.67,1,.69s1.25-.22,1.25-.73c0-9.17.06-18.35.06-27.52C87,282.72,87,276.93,86.93,271.15Z" style="fill:#263238"></path><path d="M75.7,262.12S62.76,252.54,50.49,259s-14.21,31.44-14.21,31.44,18,2.58,29.38-8.23C76.6,271.81,75.7,262.12,75.7,262.12Z" style="fill:#FFC727"></path><path d="M79.22,262.71a15.48,15.48,0,0,0-7.49-1,10.58,10.58,0,0,0-1.58-.16l-1.83-.14-3.77-.26c-2.55-.19-5.11-.35-7.66-.61a.09.09,0,0,0,0,.17c2.52.32,5,.68,7.55.93,1.3.13,2.6.27,3.91.36l.94.09c-.38.09-.77.18-1.15.29a30.91,30.91,0,0,0-5.86,2.38c-1,.18-2,.47-3,.7-1.6.38-3.19.79-4.78,1.21-3.14.82-6.25,1.75-9.37,2.66-.1,0-.05.18,0,.15,3.11-.76,6.25-1.46,9.37-2.2l4.54-1.09,1.19-.28a38.27,38.27,0,0,0-9.19,8A50.51,50.51,0,0,0,44.66,284c0,.09.08.18.14.09A49.2,49.2,0,0,1,52.53,274c-.06.17-.11.35-.17.52l-.72,2.28c-.48,1.53-1,3.05-1.42,4.58,0,.1.13.13.16,0,.55-1.48,1.07-3,1.59-4.45.25-.73.51-1.45.76-2.18q.21-.57.39-1.14c0-.11.09-.23.13-.35a47.06,47.06,0,0,1,4.58-3.91,35.4,35.4,0,0,1,6.87-3.93c0,.22-.08.45-.13.66-.13.59-.26,1.18-.38,1.77-.25,1.22-.49,2.45-.73,3.68-.49,2.5-.79,5-1.26,7.54,0,.11.14.15.16,0,.58-2.52,1.33-5,1.89-7.52.28-1.26.56-2.52.83-3.78l.36-1.78c.06-.33.14-.66.18-1l.7-.29c3.39-1.26,7.14-2.17,10.76-1.47a10.56,10.56,0,0,1,7.79,6.24c.12.28.56.1.49-.19C84.66,266.22,82.07,263.91,79.22,262.71Z" style="fill:#263238"></path><path d="M59.42,273.37c-.36,1.64-.73,3.28-1.09,4.92a35.6,35.6,0,0,0-.9,4.78c0,.07.08.07.1,0a36,36,0,0,0,1.1-4.81c.32-1.62.64-3.24.95-4.86C59.6,273.31,59.44,273.27,59.42,273.37Z" style="fill:#263238"></path><path d="M46.91,277.54c-1.65.83-3.24,1.78-5,2.47a.08.08,0,1,0,.06.15A52.43,52.43,0,0,0,47,277.6S47,277.52,46.91,277.54Z" style="fill:#263238"></path><path d="M78.61,244.52s-15.81,1-23.17-9.41-5.7-25.32-5.7-25.32,16.61,2,23.2,9.51S78.61,244.52,78.61,244.52Z" style="fill:#FFC727"></path><path d="M86,260.12c-.55-1.69-1.23-3.36-1.87-5s-1.27-3.18-2-4.74a96.81,96.81,0,0,0-4.73-9.31c-1.12-1.92-2.32-3.79-3.55-5.63,0-.28-.08-.56-.12-.84-.07-.49-.14-1-.22-1.47-.16-1-.33-2-.5-3-.36-2.19-.81-4.36-1.16-6.54,0-.1-.18-.1-.16,0,.31,2.16.53,4.33.83,6.49.15,1.06.29,2.12.45,3.18l.18,1.15a112.29,112.29,0,0,0-7.82-10.15L64.24,223c0-.12-.1-.24-.15-.36-.12-.3-.23-.6-.34-.91-.24-.62-.46-1.25-.69-1.88-.44-1.24-.84-2.49-1.18-3.76,0-.1-.18-.05-.15,0,.32,1.3.65,2.59,1,3.87.19.62.39,1.23.61,1.84,0,.1.07.2.11.3-2-2.2-4.13-4.32-6.26-6.42-.07-.07-.18,0-.11.12a113.44,113.44,0,0,1,11.2,13.72,9.52,9.52,0,0,0-1.17-.29c-1.22-.24-2.44-.41-3.67-.57-2.58-.33-5.15-.65-7.71-1.06-.11,0-.15.14,0,.16,2.45.48,4.87,1,7.31,1.6,1.15.26,2.3.48,3.45.71a21.59,21.59,0,0,1,2.78.79c.25.37.52.73.77,1.1,1.16,1.68,2.27,3.41,3.36,5.14l-1.61-.31c-1.22-.24-2.45-.46-3.67-.66-2.41-.4-4.83-.82-7.21-1.36-.1,0-.14.14,0,.16,2.42.57,4.81,1.23,7.21,1.87,1.16.31,2.33.59,3.5.85l1.75.38a4,4,0,0,0,.72.12c2.31,3.74,4.47,7.58,6.48,11.49.88,1.72,1.73,3.46,2.55,5.2s1.57,3.63,2.35,5.45C85.58,260.67,86.15,260.52,86,260.12Z" style="fill:#263238"></path><path d="M69.84,223.79c-.3-1.51-.62-3-1-4.52,0-.1-.18-.05-.16,0,.3,1.48.59,3,.86,4.45a44,44,0,0,0,.89,4.43s0,0,0,0A31.35,31.35,0,0,0,69.84,223.79Z" style="fill:#263238"></path><path d="M60.62,223.35c-.73-.37-1.51-.66-2.27-1l-1.2-.47-.61-.24a3.35,3.35,0,0,1-.67-.3c-.12-.08-.19.12-.07.14a2.8,2.8,0,0,1,.67.28l.6.27,1.16.51a21.34,21.34,0,0,0,2.33.93C60.65,223.54,60.71,223.39,60.62,223.35Z" style="fill:#263238"></path><path d="M94.79,232.09s9.57-17.87,24.12-20.64,23.47,12.21,23.47,12.21-10.62,13.56-24,15.93S94.79,232.09,94.79,232.09Z" style="fill:#FFC727"></path><path d="M128.67,219.46a39,39,0,0,0-11.42.14l.65-.35,3.23-1.66a75.63,75.63,0,0,1,6.83-3.34c.11-.05,0-.2-.06-.15-2.28,1.06-4.64,2-6.92,3-1.15.52-2.27,1.07-3.38,1.66-.72.38-1.51.74-2.22,1.2a39.88,39.88,0,0,0-9.25,3.07l1.82-2c1.35-1.49,2.69-3.05,4.18-4.4.08-.07,0-.18-.12-.11-1.52,1.38-3.13,2.66-4.61,4.1-.71.7-1.4,1.42-2.07,2.17-.33.37-.67.75-1,1.15a38.36,38.36,0,0,0-19.52,26.35c0,.1.13.15.16.05a44,44,0,0,1,10.7-18.11A42.07,42.07,0,0,1,115.19,221a42.65,42.65,0,0,1,13.46-1.22A.15.15,0,0,0,128.67,219.46Z" style="fill:#263238"></path><path d="M142.38,223.66s-10.62,13.56-24,15.93c-10.19,1.8-18.57-3.51-22-6.13l-.74-1.21s6.89-5.8,19.93-9.15S142.38,223.66,142.38,223.66Z" style="opacity:0.1"></path><path d="M120.21,213.09a36,36,0,0,0-3.23,2.13,21.37,21.37,0,0,0-2.81,2.57.09.09,0,0,0,.13.12c1-.84,1.93-1.68,2.94-2.47a30.07,30.07,0,0,1,3.06-2.21A.08.08,0,0,0,120.21,213.09Z" style="fill:#263238"></path><path d="M128.2,216.11c-.54.23-1.09.42-1.63.65l-1.62.67c-.11,0-.06.24.06.19l1.62-.66c.55-.22,1.08-.47,1.62-.69C128.35,216.23,128.3,216.07,128.2,216.11Z" style="fill:#263238"></path><path d="M92.88,254.58s2.56,17.73,15.89,23.93,29.58,0,29.58,0S132,240.16,92.88,254.58Z" style="fill:#FFC727"></path><path d="M129.16,267c-1.22-.14-2.45-.35-3.66-.57l-1.8-.34-.93-.19c-.36-.33-.71-.67-1.08-1a54.52,54.52,0,0,0-8.16-5.91,45.82,45.82,0,0,0-4.88-2.51h.25l4.39.19c2.92.14,5.85.2,8.77.39.11,0,.1-.15,0-.16-2.94-.2-5.86-.52-8.79-.77l-4.26-.38-2.2-.19-.56-.06c-.76-.29-1.52-.56-2.3-.8a20.76,20.76,0,0,0-11.29-.62c-3.35.86-6.7,3.06-7.57,6.59,0,.12.16.21.21.09,1.25-3,4.53-4.45,7.49-5.06a18,18,0,0,1,6-.12,14,14,0,0,0,.67,2.68c.37,1.25.73,2.5,1.11,3.74.76,2.49,1.59,5,2.33,7.45a.08.08,0,0,0,.16,0c-.62-2.49-1.15-5-1.75-7.5-.29-1.22-.6-2.44-.9-3.66a22.42,22.42,0,0,0-.67-2.52,31,31,0,0,1,3.46.81,50.4,50.4,0,0,1,6,2.22c.19,1.26.48,2.51.77,3.76.36,1.56.77,3.11,1.26,4.64a.08.08,0,0,0,.15,0l-.06-.29h0c-.3-1.45-.62-2.9-.93-4.35-.24-1.17-.47-2.34-.72-3.5a54,54,0,0,1,4.86,2.46c0,.36.12.73.17,1.06.1.6.21,1.21.32,1.82.25,1.36.52,2.73.85,4.08a64.94,64.94,0,0,0,2.29,7.71.08.08,0,0,0,0,.1l.08.09c.06.07.15,0,.13-.08-.61-2.63-1.32-5.24-1.9-7.87-.28-1.32-.57-2.64-.84-4-.13-.66-.25-1.32-.38-2l-.09-.59a53.79,53.79,0,0,1,5.19,3.46,55.77,55.77,0,0,1,7.95,7.25c.09.11.28,0,.19-.16a48.62,48.62,0,0,0-3.17-3.87c-.67-.72-1.37-1.42-2.08-2.1l.22,0c.63.11,1.25.2,1.88.28,1.23.17,2.47.29,3.71.43C129.23,267.15,129.27,267,129.16,267Z" style="fill:#263238"></path><path d="M119.8,273h0c0-.15,0-.31-.08-.46s-.13-.38-.16-.58h0c-.27-1.19-.5-2.38-.72-3.58,0-.08-.14-.06-.14,0a14.72,14.72,0,0,0,1,4.63c0,.05.11,0,.1,0Z" style="fill:#263238"></path><path d="M108.64,272.71s0-.08-.08-.08c-.38-1.57-.74-3.14-1.06-4.72-.17-.83-.34-1.66-.5-2.49-.09-.45-.17-.9-.25-1.35a3.74,3.74,0,0,0-.29-1.15.08.08,0,0,0-.15,0,7.79,7.79,0,0,0,.34,2.38c.16.86.33,1.73.52,2.59.39,1.75.82,3.49,1.32,5.21a.09.09,0,0,0,.17,0Z" style="fill:#263238"></path><path d="M128,261.87c-2.44-.33-4.87-.68-7.31-1-.1,0-.14.15,0,.16,2.43.36,4.87.66,7.31,1C128,262.05,128.05,261.89,128,261.87Z" style="fill:#263238"></path><path d="M86.05,213s-8.16-35.78,30.29-50.27C116.34,162.73,127,209.84,86.05,213Z" style="fill:#FFC727"></path><path d="M94.35,192.71l.41-.25,2.18-1.22,4.46-2.49c2.93-1.65,5.83-3.35,8.78-5,.1,0,0-.19-.08-.14-3,1.61-6,3.12-8.95,4.69l-4.41,2.33-1.8,1c1.28-2.43,2.65-4.81,4.16-7.11,2-3.07,4.21-6,6.5-8.84a.13.13,0,0,0-.19-.18,60.6,60.6,0,0,0-8.89,10.9c0-.13,0-.26,0-.38,0-.89.07-1.78.08-2.67,0-1.75-.06-3.5,0-5.24,0-.11-.16-.1-.17,0-.07,1.72-.28,3.44-.38,5.16,0,.85-.08,1.71-.11,2.57,0,.46,0,1,0,1.5q-1.18,1.89-2.27,3.83a67.19,67.19,0,0,0-3.44,7.21c0-.89-.09-1.78-.14-2.67-.12-2-.35-3.91-.44-5.87a.08.08,0,0,0-.16,0c0,2,0,3.92,0,5.88,0,1,.06,2,.12,2.94,0,.36,0,.73.07,1.09a65.47,65.47,0,0,0-2.9,9.84,103.13,103.13,0,0,0-1.43,10.81s0,0,0,0a56.92,56.92,0,0,1,2-9.63c.47-1.69,1-3.37,1.52-5,1.6-.75,3.13-1.69,4.67-2.55l4.83-2.64c3.21-1.76,6.41-3.55,9.72-5.1.09,0,0-.19-.09-.14-3.35,1.51-6.73,3-10,4.61-1.64.83-3.25,1.71-4.85,2.61-1.33.75-2.71,1.5-4,2.37.37-1.12.76-2.23,1.19-3.32A93,93,0,0,1,94.35,192.71Z" style="fill:#263238"></path><path d="M91.11,184.52a.09.09,0,0,0-.17,0c.14,2,.21,4.08.43,6.12a.09.09,0,0,0,.18,0C91.48,188.6,91.26,186.57,91.11,184.52Z" style="fill:#263238"></path><path d="M109.54,191.36c-2.4,1-4.83,1.89-7.23,2.89-.06,0,0,.14,0,.11,2.43-.91,4.82-1.9,7.24-2.84C109.69,191.48,109.64,191.32,109.54,191.36Z" style="fill:#263238"></path><path d="M113.2,174.85a62.36,62.36,0,0,0-6.84,3.67.11.11,0,0,0,.11.18c2.23-1.31,4.5-2.56,6.81-3.71C113.38,175,113.29,174.81,113.2,174.85Z" style="fill:#263238"></path><rect x="57.16" y="290.39" width="55.45" height="58.45" style="fill:#455a64"></rect><rect x="53.35" y="311.08" width="2.84" height="100.12" style="fill:#263238"></rect><rect x="113.3" y="311.08" width="2.84" height="100.12" style="fill:#263238"></rect><rect x="84.83" y="311.08" width="2.84" height="100.12" style="fill:#263238"></rect><rect x="54.77" y="345.1" width="59.95" height="8.09" style="fill:#263238"></rect></g><g id="freepik--Characters--inject-25"><path d="M335.63,378.5s0,43.07,0,43.1c0,8.23-.07,15.45-.48,19.18a.06.06,0,0,1,0,.06,5.71,5.71,0,0,1-.6,2.55l-.05.05c-2.44,1.67-68.24,3.93-70.56,3.23s-.53-7.36,2-9.49,27.3-14.25,27.3-14.25l.41-43.05Z" style="fill:#ad6359"></path><path d="M335.62,412.75v8.85c0,8.23-.07,15.45-.48,19.18a.06.06,0,0,1,0,.06,11.67,11.67,0,0,1-.6,2.55l-.05.05c-2.44,1.67-68.24,3.93-70.56,3.23s-.53-7.36,2-9.49,27.3-14.25,27.3-14.25l-.12-9Z" style="fill:#c7c7c7"></path><path d="M263.93,446.67c2.32.7,68.12-1.55,70.57-3.23.94-.62,1.17-10.23,1.12-21.84v-.37l-42.47,1,.05.72s-24.8,12.13-27.3,14.26S261.6,446,263.93,446.67Z" style="fill:#263238"></path><path d="M264.58,444.1c11.09-.66,55.85-2.24,66.85-2,.09,0,.09.06,0,.07-11,.88-55.74,2.11-66.84,2.15C264.36,444.28,264.35,444.11,264.58,444.1Z" style="fill:#455a64"></path><path d="M289.62,423.18c4.34-1,9.7-.48,13.14,2.52.14.12,0,.3-.17.26a61.63,61.63,0,0,0-12.93-2.23A.28.28,0,0,1,289.62,423.18Z" style="fill:#455a64"></path><path d="M286.54,425.19c4.33-1,9.7-.48,13.14,2.52.13.11,0,.3-.18.26a61.41,61.41,0,0,0-12.93-2.23A.28.28,0,0,1,286.54,425.19Z" style="fill:#455a64"></path><path d="M283.45,427.19c4.34-1,9.7-.47,13.14,2.52.14.12,0,.31-.17.27a61.64,61.64,0,0,0-12.93-2.24A.28.28,0,0,1,283.45,427.19Z" style="fill:#455a64"></path><polygon points="339.4 218.83 339.36 221.68 337.75 347.54 337.74 348.02 336.79 423.41 290.73 422.49 299.62 218.98 299.74 216.26 300.19 192.65 339.09 192.65 339.4 218.83" style="fill:#455a64"></polygon><path d="M292.66,414.81c7.19-.07,5.12-.15,12.31-.13,3.52,0,26.65.09,29.93.67.07,0,.07.14,0,.15-3.3.5-26.42,0-29.94-.06-7.19-.15-5.12-.19-12.31-.42A.11.11,0,0,1,292.66,414.81Z" style="fill:#263238"></path><path d="M313.29,232.07a.08.08,0,0,0-.16,0c0,12.05-.49,18.8-.78,30.84s-.64,24.08-1,36.11c-.65,24.07-1.62,48.12-2.51,72.18q-.75,20.24-1.87,40.46a.07.07,0,0,0,.14,0c1.75-24,3.42-48.08,4.38-72.15s1.64-48.13,1.75-72.2C313.34,253.8,313.26,245.58,313.29,232.07Z" style="fill:#263238"></path><polygon points="339.39 218.83 337.75 347.54 306.88 192.65 339.08 192.65 339.39 218.83" style="fill:#263238"></polygon><path d="M387.29,376.17s5.8,42.67,5.8,42.7c1.16,8.16,2,15.33,2.12,19.08,0,0,0,0,0,.06a5.85,5.85,0,0,1-.24,2.6.61.61,0,0,0,0,.06c-2.2,2-67.1,13.1-69.49,12.72s-1.51-7.22.66-9.67,25.13-17.8,25.13-17.8l-5.4-42.71Z" style="fill:#ad6359"></path><path d="M391.9,410.11s1.19,8.73,1.19,8.76c1.16,8.16,2,15.33,2.12,19.08,0,0,0,0,0,.06a11.53,11.53,0,0,1-.24,2.6.61.61,0,0,0,0,.06c-2.2,2-67.1,13.1-69.49,12.72s-1.51-7.22.66-9.67,25.13-17.8,25.13-17.8L349.9,417Z" style="fill:#c7c7c7"></path><path d="M325.44,453.39c2.4.38,67.29-10.73,69.49-12.72.85-.75-.22-10.29-1.84-21.8l-.06-.36-41.94,6.7.14.71s-22.94,15.36-25.13,17.81S323,453,325.44,453.39Z" style="fill:#263238"></path><path d="M325.74,450.75c10.9-2.14,55-9.75,66-11,.09,0,.1.05,0,.07-10.75,2.36-54.94,9.61-65.94,11.15C325.54,451,325.51,450.8,325.74,450.75Z" style="fill:#455a64"></path><path d="M347.73,426.65c4.17-1.54,9.55-1.78,13.36.72.15.1,0,.31-.14.29a61.13,61.13,0,0,0-13.11-.47A.28.28,0,0,1,347.73,426.65Z" style="fill:#455a64"></path><path d="M344.94,429.05c4.17-1.54,9.55-1.78,13.36.73.15.09,0,.3-.14.28a61.75,61.75,0,0,0-13.11-.47A.28.28,0,0,1,344.94,429.05Z" style="fill:#455a64"></path><path d="M342.16,431.46c4.17-1.54,9.54-1.78,13.36.72.15.1,0,.31-.14.29a60.51,60.51,0,0,0-13.11-.47A.28.28,0,0,1,342.16,431.46Z" style="fill:#455a64"></path><path d="M304.15,192.61v0c.17.8,2.89,13.42,5.71,24.26,2.05,7.92,4.16,14.88,5.37,15.6,1.37.81,8.05,3.77,10.29,4.7L335.75,335l13.83,90.58,45.22-7L362.62,220.34l-5.24-27.73Z" style="fill:#455a64"></path><path d="M349.85,416.49c7.1-1.14,5-.92,12.16-2,3.48-.52,26.36-3.91,29.69-3.82.07,0,.09.12,0,.14-3.18,1-26.12,4-29.61,4.44-7.13.92-5.09.58-12.23,1.43A.11.11,0,0,1,349.85,416.49Z" style="fill:#263238"></path><path d="M376,389.44c-1.13-6.28-2.25-12.56-3.41-18.84q-3.47-18.84-7-37.67-7.08-37.69-14-75.44c-2.58-14.2-2.52-12.87-4.77-27.14,0-.09-.18-.08-.16,0,2.16,12.68,1.14,9.9,3.18,22.6s4.18,25.13,6.43,37.66c4.52,25.19,9.26,50.34,14.05,75.48q2,10.58,4.09,21.13c1.4,7.18,3,14.32,4.48,21.48,0,.16.29.15.26,0C378.11,402.29,377.17,395.85,376,389.44Z" style="fill:#263238"></path><path d="M363.57,231.29c-1.2-.31-2.49-.41-3.71-.6-1-.16-2-.34-3-.55a12.87,12.87,0,0,1-5.22-2.2c-1.7-1.32-2.57-3.33-3.39-5.26q-.74-1.71-1.5-3.42l-.75-1.65a18.59,18.59,0,0,1-.93-2c0-.1-.19,0-.15,0a11.73,11.73,0,0,1,.42,1.43c.17.55.32,1.1.49,1.65.31,1,.61,2,.93,3a23.32,23.32,0,0,0,2.09,5.18c1.82,2.88,5.06,4.05,8.3,4.46.93.11,1.87.18,2.81.23a19.93,19.93,0,0,0,3.54,0A.16.16,0,0,0,363.57,231.29Z" style="fill:#263238"></path><path d="M311.68,230.74a86.57,86.57,0,0,1,13.77,6.42.15.15,0,0,1-.13.28c-4.64-2-9.37-3.9-13.89-6.14A.31.31,0,0,1,311.68,230.74Z" style="fill:#263238"></path><path d="M310.28,199c0-.16.3-.2.3,0a152.42,152.42,0,0,0,.78,15.5c.21,2.39,2.13,15.59,6.28,14.63.69-.16,1-.85,1.15-1.89a16.52,16.52,0,0,0-.55-4.05c-.46-2.77-.83-5.54-1.06-8.33a74.82,74.82,0,0,1,.17-15.62.13.13,0,0,1,.26,0,145.33,145.33,0,0,0,1.26,21.57c.52,3.43,2.25,8.6-1.34,9.13s-6-8.12-6.47-10.49A79,79,0,0,1,310.28,199Z" style="fill:#263238"></path><path d="M317.53,229.43a23.87,23.87,0,0,1,.93,2.74,6.24,6.24,0,0,1,.39,2.25.16.16,0,0,1-.29.06,7.68,7.68,0,0,1-1-2.19c-.32-.84-.65-1.69-.94-2.54A.46.46,0,0,1,317.53,229.43Z" style="fill:#263238"></path><path d="M363.09,223.25c-5.48-.36-63.35-7-63.35-7l.45-23.61h4v0h53.23l5.24,27.73Z" style="fill:#263238"></path><path d="M322.56,138.42c-6.62,20.72-17.83,42.11-21.07,46.32-8.69,11.32-34.8,22.47-42.77,23.91-3.45.62-11.72-21.63-9.58-24.69s34.59-15.46,36.18-17.11c1.1-1.15,14.79-18.79,24-29.43C320.83,124.19,324.3,133,322.56,138.42Z" style="fill:#ad6359"></path><path d="M256.07,179.64l12.82,26s27.25-11.81,33.74-20.24,18.25-37,20-46.1-1.27-15.6-13.46-2.3-22.29,26.55-24.47,28.77S256.07,179.64,256.07,179.64Z" style="fill:#ebebeb"></path><path d="M257.15,178.32l15.36,26.94s24-11.47,30.12-19,16.21-30.65,19.37-43.13,1.31-21.33-12.82-6.06-22.12,26.36-25,28.85C282.81,167,257.15,178.32,257.15,178.32Z" style="fill:#37474f"></path><circle cx="263.62" cy="179.4" r="1.41" style="fill:#263238"></circle><circle cx="270.27" cy="176.34" r="1.41" style="fill:#263238"></circle><path d="M322,143.09c-3.16,12.48-13.24,35.56-19.37,43.13-2.62,3.23-8.48,7.17-14.35,10.63l30.93-67.74C324,127.81,324.15,134.61,322,143.09Z" style="fill:#263238"></path><path d="M366.11,213.34c-.16.18-69.34.39-70-.32-.89-1,14.74-76,21.84-85.21,1.51-2,6.52-2.53,10.78-2a18.8,18.8,0,0,1,3.28.67l.12,0a8,8,0,0,1,2.41,1.18c11.84,9.46,21.82,42.53,24.15,52.46C362.59,196.51,366.68,212.69,366.11,213.34Z" style="fill:#ebebeb"></path><path d="M334.34,126.78s-5.63,30.7-6.61,38.68.46,50.13.46,50.13l43.44,3.21s-9.39-27.9-9.5-29.67c0,0-7.8-33.42-15.11-47.38A49.83,49.83,0,0,0,334.34,126.78Z" style="fill:#37474f"></path><path d="M371.63,218.8l-19.7-1.46-14.06-87.47v0l0,.06,8.82,11.3c.1.18.2.36.29.54,7.31,14,15.11,47.38,15.11,47.38C362.24,190.9,371.63,218.8,371.63,218.8Z" style="fill:#263238"></path><path d="M317.53,127.45s-4.61,31.09-5.11,33.66-7.48,53.27-7.48,53.27l-10.87.34,5.67-23.18S312.35,134.07,317.53,127.45Z" style="fill:#37474f"></path><polygon points="323.88 144.51 320.8 138.51 316.82 142.85 317.8 147.17 321.72 147.68 323.88 144.51" style="fill:#263238"></polygon><polygon points="321.72 147.68 323.6 191.82 315.33 206.42 311.03 189.99 317.8 147.17 321.72 147.68" style="fill:#263238"></polygon><rect x="336.81" y="252.85" width="51.84" height="85.56" transform="translate(66.73 658.06) rotate(-89.94)" style="fill:#FFC727"></rect><rect x="350.54" y="239.14" width="24.41" height="85.56" transform="translate(80.45 644.38) rotate(-89.94)" style="opacity:0.1"></rect><rect x="317.95" y="262.09" width="89.61" height="24.19" transform="translate(725.23 548.75) rotate(-179.94)" style="fill:#FFC727"></rect><polygon points="343.92 248.28 343.9 262.07 350.39 262.08 350.4 254.23 375.15 254.26 375.14 262.11 381.63 262.11 381.64 248.31 343.92 248.28" style="fill:#263238"></polygon><rect x="389.41" y="280.54" width="5.84" height="11.56" transform="translate(784.36 573.03) rotate(-179.94)" style="fill:#263238"></rect><rect x="330.24" y="280.48" width="5.84" height="11.56" transform="translate(666.02 572.86) rotate(-179.94)" style="fill:#263238"></rect><path d="M343.9,136c19.3,17.51,31.55,42.52,32.38,47.57,2,12.21,4.53,33.61,4.1,43-.16,3.48-26.53-.74-26.48-4.46.17-11.64-1.38-37.24-1.45-37.69-.47-3.13-6.21-17.2-12-32.46S335.78,128.65,343.9,136Z" style="fill:#ad6359"></path><path d="M351.12,258.59a4.14,4.14,0,0,0,4.65-.85,6.14,6.14,0,0,0,3.27,2.6c2.43.7,4.59-2.81,4.59-2.81a7.62,7.62,0,0,0,3.89,2.2c2.39.43,5.08-2.8,5.08-2.8a6.71,6.71,0,0,0,4.63-.22c2.49-1.17,4.6-8.31,5.12-12.42s-1.87-16.26-2.09-18.62l-26.36-3.54s-7.56,17.78-7.48,22.7C346.49,249,348.22,257.15,351.12,258.59Z" style="fill:#ad6359"></path><path d="M355.37,257.5c-1.13-4.39-.9-8.88-.92-13.36a.08.08,0,0,1,.16,0c0,4.46.82,8.87,1,13.33A.11.11,0,0,1,355.37,257.5Z" style="fill:#263238"></path><path d="M363.3,257.4a11.83,11.83,0,0,1-.08-3.09c0-1.09.12-2.19.21-3.28q.26-3.28.67-6.54c0-.1.16-.1.15,0-.16,2.18-.29,4.36-.37,6.54,0,1.1-.06,2.19-.08,3.28a14.51,14.51,0,0,1-.2,3.09A.16.16,0,0,1,363.3,257.4Z" style="fill:#263238"></path><path d="M372.6,256.84a8.45,8.45,0,0,1,.08-2.79c.1-1,.19-2,.28-3,.18-2,.35-4,.45-6,0-.1.16-.1.16,0-.1,2-.17,4.06-.28,6.09l-.18,3a7.84,7.84,0,0,1-.41,2.69A.06.06,0,0,1,372.6,256.84Z" style="fill:#263238"></path><path d="M352.61,222.25l29.23,1.58s-2.16-32-4.48-40.89-22.12-38.52-33.81-49.26c-11-10.11-11-1.7-6.83,10.15s14.49,40.49,14.84,42.58S352.61,222.25,352.61,222.25Z" style="fill:#37474f"></path><path d="M353.92,216.35c1.12-.1,2.25,0,3.37,0s2.24.05,3.36.1c2.16.09,4.32.22,6.48.36l6.47.43c2.23.15,4.51.19,6.72.52a.08.08,0,0,1,0,.15c-2.23.09-4.5-.11-6.73-.19l-6.6-.27c-2.2-.1-4.4-.21-6.6-.35-1.08-.06-2.16-.14-3.23-.26s-2.19-.13-3.25-.34C353.81,216.48,353.84,216.36,353.92,216.35Z" style="fill:#263238"></path><path d="M321.84,137.71c1.14-.05,8.71-6,11-10.58.16-.32-.43-3.58-.95-7.57-.31-2.42-.6-5.13-.68-7.62,0-.51-1.72.49-1.72.49l-3.2.88-10.56,2.94a39.46,39.46,0,0,1,1.82,9.51,4.81,4.81,0,0,1-.07,1,1.11,1.11,0,0,1,0,.17C317.25,128.9,320,137.78,321.84,137.71Z" style="fill:#ad6359"></path><path d="M317.52,126.78a1.11,1.11,0,0,1,0,.17,8.53,8.53,0,0,0,1.61,0c10.5-.58,11.37-14,11.37-14l-4.15.32-10.56,2.94a39.46,39.46,0,0,1,1.82,9.51A4.81,4.81,0,0,1,317.52,126.78Z" style="fill:#263238"></path><path d="M330.82,90.84c2.52,5.21,2.1,21.47-1.25,25.6-4.84,6-14,7.91-19.4,1.8-5.23-5.91-4.3-27.09-.45-31C315.39,81.56,327.1,83.14,330.82,90.84Z" style="fill:#ad6359"></path><path d="M316.88,102.7s.08,0,.08.1c-.06,1.09.06,2.36,1,2.74,0,0,0,.07,0,.06C316.79,105.41,316.65,103.73,316.88,102.7Z" style="fill:#263238"></path><path d="M317.88,101.58c1.76-.1,1.83,3.44.19,3.53S316.4,101.66,317.88,101.58Z" style="fill:#263238"></path><path d="M310.54,103s-.08.05-.08.1c.05,1.09-.07,2.36-1.06,2.74a0,0,0,0,0,0,.06C310.62,105.7,310.77,104,310.54,103Z" style="fill:#263238"></path><path d="M309.54,101.86c-1.76-.1-1.84,3.44-.2,3.53S311,102,309.54,101.86Z" style="fill:#263238"></path><path d="M319.25,99.94c-.49-.12-.92-.3-1.38-.46a2.3,2.3,0,0,1-1.32-.74.73.73,0,0,1,.11-.9,1.85,1.85,0,0,1,1.86-.23,2.73,2.73,0,0,1,1.59,1.15A.8.8,0,0,1,319.25,99.94Z" style="fill:#263238"></path><path d="M308.14,100.11a13.16,13.16,0,0,0,1.4-.39,2.38,2.38,0,0,0,1.35-.67.74.74,0,0,0-.06-.91,1.84,1.84,0,0,0-1.85-.32,2.71,2.71,0,0,0-1.64,1.07A.8.8,0,0,0,308.14,100.11Z" style="fill:#263238"></path><path d="M318.07,112.85c-.26.26-.52.62-.91.66a3,3,0,0,1-1.18-.26,0,0,0,0,0-.05.06,1.48,1.48,0,0,0,1.4.57,1.17,1.17,0,0,0,.84-1C318.19,112.83,318.11,112.81,318.07,112.85Z" style="fill:#263238"></path><path d="M316.86,109.59a3.72,3.72,0,0,1-2.46,1.7,4.61,4.61,0,0,1-1.34.09,1.09,1.09,0,0,1-.26,0l-.24,0a.27.27,0,0,1-.22-.24h0a.41.41,0,0,1,0-.11h0v-.1c0-.84,0-2.12,0-2.12-.31.16-1.87.89-1.85.45a56.14,56.14,0,0,1,1.25-11.31.1.1,0,0,1,.2,0c0,3.52-.64,7-.7,10.54a6.6,6.6,0,0,1,1.75-.57c.12,0-.16,2.48-.11,2.86a.16.16,0,0,0,0,0,5.15,5.15,0,0,0,3.83-1.27C316.84,109.43,316.92,109.5,316.86,109.59Z" style="fill:#263238"></path><path d="M313.55,110.94a4.34,4.34,0,0,0,1.79,1.34,2,2,0,0,0,1.21.06c.88-.25.88-1,.71-1.74a4.75,4.75,0,0,0-.41-1A5.73,5.73,0,0,1,313.55,110.94Z" style="fill:#263238"></path><path d="M315.34,112.28a2,2,0,0,0,1.21.06c.88-.25.88-1,.71-1.74A2.08,2.08,0,0,0,315.34,112.28Z" style="fill:#ff9abb"></path><path d="M307.48,92.68c.57-1.4,1.24-2.81,2.07-3.11s1.42,1.74,3.33,1.83c2.57.13,3.77-2.25,7.36-2.57,5.15-.46,7.5,3.81,7.77,11.13.23,6.53,4.2,7.07,4.2,7.07s2.12-14.46-2-19.16-13.52-6.63-19.7-2C308.22,87.62,307.48,92.68,307.48,92.68Z" style="fill:#263238"></path><path d="M328.86,104.52s2.89-5.61,5.39-4.65.81,8.76-1.79,10.15a2.8,2.8,0,0,1-3.92-1Z" style="fill:#ad6359"></path><path d="M333.71,102.1s.06.05,0,.07c-1.81,1-2.58,2.94-3,4.88a1.54,1.54,0,0,1,2.24-.73c.05,0,0,.11,0,.11a1.72,1.72,0,0,0-1.8.85,8.18,8.18,0,0,0-.7,1.64c-.06.19-.39.14-.35-.07v0C329.68,106.37,331.12,102.7,333.71,102.1Z" style="fill:#263238"></path><path d="M317.47,127.16l3.77,9.26,11.44-11.7,3.26,3.74S324.76,147,324.69,146.19l-3.82-7.94-5.47,5.54.41-13.89Z" style="fill:#ebebeb"></path><path d="M315.21,136.92c.15-2.29.23-4.61.48-6.89,0-.08.14-.11.16,0,.46,2.21-.14,11-.13,13.07l0,0c.23-.24,5.07-4.87,5.12-4.8.83,1.26,3.63,7,3.82,7.57,1.77-2.95,8.54-13.67,10.64-16.46a.08.08,0,0,1,.13.08C333.9,132.55,324.94,147,324.8,147a91.47,91.47,0,0,1-4-8.4c-.82,1-5.71,6.25-5.73,5.91A72.92,72.92,0,0,1,315.21,136.92Z" style="fill:#263238"></path><path d="M188.3,136.7c12.58,24.83,25.36,84.56,26.55,92.55.81,5.43-27.74,10.34-27.74,6.58,0-4.82-5.76-61.2-5.21-83.48C182.2,140.06,185.7,131.57,188.3,136.7Z" style="fill:#eb9481"></path><path d="M187,233.45c-.46,3.27.63,14.6,2.77,23,1,4.1,5.28,15.55,8.49,15s2.26-4,2.26-4,2.52,4.56,5.69,3.71,1.54-6.19,1.54-6.19,2.92,4.51,6,3.43.55-6.17.55-6.17,2.49,4.25,4.67,2.28c2.63-2.37-2.83-9.67-3.75-14.26-.21-1-2.76-21.42-2.76-21.42Z" style="fill:#eb9481"></path><path d="M214.34,262.16c-4-5.38-4.82-8.43-5.32-15a.11.11,0,0,0-.21,0c-.09,6.49.39,10.46,5.28,15.23C214.33,262.6,214.53,262.41,214.34,262.16Z" style="fill:#263238"></path><path d="M207.83,265.26c-3.67-5.95-4.59-9.25-5.63-16.1,0-.1-.18-.09-.17,0,.45,6.81,1,10.76,5.47,16.23C207.7,265.65,208,265.53,207.83,265.26Z" style="fill:#263238"></path><path d="M200.23,267c-3.13-6-4.29-9.59-4.44-16.37a.13.13,0,0,0-.25,0c-.52,6.93.9,11.4,4.5,16.46C200.29,267.38,200.43,267.34,200.23,267Z" style="fill:#263238"></path><path d="M214.67,227.83s4.6,7,5.94,10.57,1.49,18.54-1.75,18.76c-4.18.28-6-8.37-6.3-12.72,0,0-9.68.65-12.3-5.28S214.67,227.83,214.67,227.83Z" style="fill:#eb9481"></path><path d="M217.69,256.85c-4-2.49-4.06-8.23-4.69-12.43a.39.39,0,0,0-.56-.31c-4.07,0-9.82-1.18-12.28-4.7a.1.1,0,1,0-.17.1c2.12,4.14,7.68,5.76,12.14,5.47.58,4.31.89,10.07,5.53,11.91C217.69,256.9,217.71,256.87,217.69,256.85Z" style="fill:#263238"></path><path d="M217.59,226.15l-32.43,5s-5.17-60.21-5.36-80.42,7.07-25.16,14.86-4.49S217.59,226.15,217.59,226.15Z" style="fill:#FFC727"></path><path d="M185,226.08c13.27-3,27.66-4.11,30.16-4.48.12,0,.13.17,0,.18-2.46.24-18.78,3.31-30.16,4.5C184.91,226.29,184.9,226.1,185,226.08Z" style="fill:#263238"></path><path d="M256.88,446.62c-2.25.73-68.2-.26-70.62-1.85-.29-.18-.33-6.14-.25-14.31l-3.21-48.53,41.73.12,3.3,42s9.36,4.32,17.08,8.1l0,0a92.65,92.65,0,0,1,9.83,5.2C257.23,439.43,259.13,445.9,256.88,446.62Z" style="fill:#eb9481"></path><path d="M256.88,446.62c-2.25.73-68.2-.26-70.62-1.85-.29-.18-.33-6.14-.25-14.31,16.29,3.63,59.73,9.51,61,6.1.51-1.37-.53-2.92-2.08-4.35a92.65,92.65,0,0,1,9.83,5.2C257.23,439.43,259.13,445.9,256.88,446.62Z" style="fill:#263238"></path><path d="M165.18,205.3S177,330.72,177.26,332.24c0,.2.13,2.52.24,6.29.66,20.69,2.28,85.21,2.28,85.21h49.58s-3.23-76.42-5.09-94.24c-2.37-22.75-16.94-124.2-16.94-124.2Z" style="fill:#37474f"></path><path d="M183.17,336.48q-2.29-39.06-6.89-78c-1.74-14.6-3.84-29.15-5.92-43.71,0-.13-.22-.12-.2,0,3.84,25.91,6.55,52,8.89,78.11s4,52.16,5,78.3c.61,14.8,1.07,29.62,1.54,44.43a.28.28,0,0,0,.55,0C185.48,389.25,184.72,362.85,183.17,336.48Z" style="fill:#263238"></path><path d="M226.23,415.75c-1.3-.17-2.71-.12-4-.16-1.48,0-3-.07-4.46-.12-2.87-.11-5.75-.19-8.62-.23-5.79-.1-11.59-.06-17.37.12l-4.78.17c-1.7.06-3.4.22-5.1.21-.12,0-.12.15,0,.15,2.91,0,5.86.25,8.78.36s5.74.15,8.61.19c5.79.08,11.6,0,17.38-.18,1.59-.06,3.18-.08,4.77-.13L224,416c.76,0,1.51,0,2.27-.07C226.37,415.93,226.36,415.77,226.23,415.75Z" style="fill:#263238"></path><path d="M201,205.3,178.35,368.66c-.32-12.18-.64-23.44-.85-30.13-.11-3.77-.2-6.09-.24-6.29-.28-1.52-12.08-126.94-12.08-126.94Z" style="fill:#263238"></path><path d="M173.82,455.32c-2.36-.19-62.86-26.47-64.48-28.87-.2-.27,2-5.79,5.27-13.3l13.34-47,38.6,15.49-10.89,41.73s7,7.59,12.66,14v0a93.8,93.8,0,0,1,7.08,8.59C176.91,448.81,176.17,455.52,173.82,455.32Z" style="fill:#eb9481"></path><path d="M173.82,455.32c-2.36-.19-62.86-26.47-64.48-28.87-.2-.27,2-5.79,5.27-13.3,13.65,9.62,51.48,31.74,54,29.08,1-1.06.63-2.9-.25-4.82a93.8,93.8,0,0,1,7.08,8.59C176.91,448.81,176.17,455.52,173.82,455.32Z" style="fill:#263238"></path><path d="M110.27,408.31l48.37,15S182.26,340.46,184.07,321c1.79-19.29,3.52-58.7,4.29-87.29,0,0,8.08-4.78,10.13-7.39s3.89-12,7.93-21H147.24c-14.14,27.47-3.5,39.69-3.5,45.68,0,28.92-4.37,67.31-5.76,73C135.08,335.86,110.27,408.31,110.27,408.31Z" style="fill:#37474f"></path><path d="M158.53,412.73c-1.21-.5-2.58-.81-3.84-1.2-1.43-.43-2.87-.83-4.29-1.27-2.74-.85-5.5-1.66-8.26-2.44q-8.35-2.38-16.82-4.38l-4.66-1.07c-1.65-.38-3.34-.67-5-1.11-.13,0-.16.11,0,.15,2.82.74,5.6,1.75,8.39,2.61s5.51,1.63,8.27,2.42c5.57,1.57,11.19,3,16.83,4.31,1.56.35,3.1.74,4.65,1.11l2.49.55c.74.17,1.46.41,2.21.52A.1.1,0,0,0,158.53,412.73Z" style="fill:#263238"></path><path d="M199.87,225.67a44.74,44.74,0,0,0-8,4.74c-2.65,1.82-5.09,3.91-7.64,5.86-.1.08,0,.24.1.17,2.69-1.72,5.51-3.23,8.17-5a51.26,51.26,0,0,0,7.52-5.56C200.09,225.8,200,225.62,199.87,225.67Z" style="fill:#263238"></path><path d="M200.24,209c-.34,1.84-.79,3.67-1.19,5.5s-.65,3.47-1.1,5.17a8.8,8.8,0,0,1-2.41,4.33c-.67.63-1.42,1.18-2.14,1.76-.38.31-.8.6-1.2.92.05-.25.09-.49.13-.75.13-.69.25-1.39.36-2.09.26-1.55.51-3.11.75-4.66.47-3.06.9-6.15,1.54-9.18a.1.1,0,0,0-.2-.05c-.76,3-1.6,6-2.26,9-.33,1.48-1.49,8.8-1.54,9.32s-.1,1.07-.12,1.61a7,7,0,0,0,0,1.65c0,.13.2.11.25,0h0a6.49,6.49,0,0,0,.47-1.59c.13-.52.25-1.05.34-1.58,0-.19.06-.39.09-.59.72-.44,1.39-1,2.07-1.5s1.46-1,2.15-1.62a8.24,8.24,0,0,0,2.63-4.11,30.34,30.34,0,0,0,.87-5.27c.23-2.08.4-4.17.69-6.24C200.45,209,200.26,208.9,200.24,209Z" style="fill:#263238"></path><path d="M199,129.26c-.95,11.75-2.13,23.83-4.87,35.31-2.14,8.94-7,15.89-16.7,16.82-9,.86-21.45-1-28.05-7.81-3.08-3.17-3.75-7.15-2.94-11.39,1.13-5.89,10.3-37.77,13.09-47.73,1.7-6.06,3.38-12.21,6.14-17.91,5.78-12,12-11,12.86-11.15.81-.38,5.85-1.84,12.33,1.24A13.35,13.35,0,0,1,198,94.9C201.44,105.62,199.92,118.26,199,129.26Z" style="fill:#263238"></path><path d="M176.39,86.87c-7.93,2.46-10.83,10.36-13.63,17.4-3.9,9.81-7.64,19.69-10.9,29.74-1.56,4.83-3,9.7-4.33,14.6-1.25,4.7-2.88,9.67-3.22,14.54-.56,8,6.24,12.68,13.16,14.79a.27.27,0,0,0,.17-.52c-3.92-1.35-7.87-3-10.46-6.43-3.33-4.36-2.19-9.3-1.06-14.22,1.94-8.38,4.35-16.63,7-24.79s5.71-16.24,8.83-24.25c3-7.63,5.77-17.83,14.42-20.73C176.5,87,176.47,86.84,176.39,86.87Z" style="fill:#263238"></path><path d="M200.21,103.89c-.58-6.29-2.94-12.67-9.11-15.32,0,0,0,0,0,0,7.94,3.78,8.72,13.13,8.78,20.85q.1,12.21-.69,24.38c-.5,7.81-1.18,15.66-2.39,23.39-1.31,8.34-3.9,16-9.78,22.19a.13.13,0,1,0,.18.2c5.63-4.91,8.3-12.37,9.67-19.51a218.66,218.66,0,0,0,3.07-28.67C200.46,122.35,201.05,113,200.21,103.89Z" style="fill:#263238"></path><path d="M175.92,130.86c.38,1,6.21,7.1,10.93,6.27,1.53-.28.4-8.73.4-8.73l.06-.64.82-9L177,113.5l-1.59-.68s-.07,2.48-.11,5.56c0,.15,0,.29,0,.44a4.38,4.38,0,0,0,0,.51c0,.46,0,.93,0,1.4s0,.7,0,1.07,0,.75,0,1.12A58.59,58.59,0,0,0,175.92,130.86Z" style="fill:#eb9481"></path><path d="M175.3,118.38a18.13,18.13,0,0,0,12,9.38l.82-9L177,113.5l-1.59-.68S175.34,115.3,175.3,118.38Z" style="fill:#263238"></path><path d="M199.57,105.51c1.26,15.8-8.06,18.34-11.47,18.61-3.1.24-13.67.68-16.55-14.92S175.62,88,182.67,87.1,198.32,89.7,199.57,105.51Z" style="fill:#eb9481"></path><path d="M196.91,102.15a9.66,9.66,0,0,1-1.07-.22,1.79,1.79,0,0,1-1.06-.43.57.57,0,0,1,0-.69,1.41,1.41,0,0,1,1.37-.34,2,2,0,0,1,1.3.72A.6.6,0,0,1,196.91,102.15Z" style="fill:#263238"></path><path d="M186.39,102.37c.37-.05.7-.15,1.07-.23a1.79,1.79,0,0,0,1-.45.56.56,0,0,0,0-.69,1.4,1.4,0,0,0-1.38-.32,2.07,2.07,0,0,0-1.28.74A.6.6,0,0,0,186.39,102.37Z" style="fill:#263238"></path><path d="M188.86,106.36s-.08,0-.08.09c.07,1.08,0,2.33-1,2.72,0,0,0,.07,0,.06C189,109,189.1,107.37,188.86,106.36Z" style="fill:#263238"></path><path d="M187.86,105.26c-1.74-.07-1.76,3.41-.15,3.48S189.32,105.32,187.86,105.26Z" style="fill:#263238"></path><path d="M187.18,105.44c-.31.2-.61.54-1,.58s-.74-.33-1-.68c0,0-.06,0-.06,0,0,.66.23,1.35,1,1.45s1.13-.49,1.3-1.16C187.41,105.55,187.3,105.36,187.18,105.44Z" style="fill:#263238"></path><path d="M194.86,106.12s.08,0,.08.09c-.05,1.08.07,2.33,1.05,2.7,0,0,0,.07,0,.06C194.79,108.79,194.64,107.13,194.86,106.12Z" style="fill:#263238"></path><path d="M195.84,105c1.73-.1,1.82,3.38.21,3.48S194.38,105.09,195.84,105Z" style="fill:#263238"></path><path d="M196.57,105.22c.28.17.56.5.89.52s.65-.37.89-.74c0,0,.05,0,.05,0,0,.66-.17,1.36-.8,1.5s-1-.43-1.2-1.08C196.37,105.33,196.46,105.14,196.57,105.22Z" style="fill:#263238"></path><path d="M188.78,114.9c.25.27.49.63.88.68a3,3,0,0,0,1.17-.21,0,0,0,0,1,0,.06,1.46,1.46,0,0,1-1.4.51,1.13,1.13,0,0,1-.8-1C188.67,114.88,188.75,114.86,188.78,114.9Z" style="fill:#263238"></path><path d="M193.28,111s.23,1.61.23,2.37c0,.08-.18.11-.44.13,0,0,0,0,0,0a3.61,3.61,0,0,1-3.52-1.33.08.08,0,0,1,.12-.11,5.4,5.4,0,0,0,3.3.93c.05-.21-.49-2.75-.37-2.76a6.52,6.52,0,0,1,1.73.38c-.38-3.37-1.3-6.65-1.64-10a.1.1,0,0,1,.2,0,55.14,55.14,0,0,1,2.23,10.71C195.15,111.66,193.58,111.1,193.28,111Z" style="fill:#263238"></path><path d="M194.5,107.17c-.24-2.58.95-4.8,2.65-5s3.29,1.8,3.53,4.38-1,4.8-2.65,5S194.74,109.75,194.5,107.17Zm.63-.06c.21,2.23,1.48,3.94,2.84,3.82s2.3-2.05,2.09-4.28-1.49-3.94-2.85-3.82S194.92,104.88,195.13,107.11Z" style="fill:#263238"></path><path d="M182.75,108.28a4.39,4.39,0,1,1,4.81,4.26A4.56,4.56,0,0,1,182.75,108.28Zm.63-.06a3.76,3.76,0,1,0,3.36-4.4A3.92,3.92,0,0,0,183.38,108.22Z" style="fill:#263238"></path><path d="M191.23,107.05c2.26-1,3.39-.37,3.4-.36l.34-.53c-.05,0-1.39-.88-4,.32Z" style="fill:#263238"></path><path d="M183,107.84l.06-.63c-.42,0-10.12-.9-11.16-.86s-3.51,1.71-3.78,1.9l.36.52a11.67,11.67,0,0,1,3.4-1.78H172C172.76,107,179.55,107.53,183,107.84Z" style="fill:#263238"></path><path d="M172,108.07c1.71-.1,6.17-4.83,6.31-13.11,0,0-.64,7.43-1.19,8.52s2.49-2.66,2.69-9.33a27.27,27.27,0,0,0,6.86,3.55c3.15.88,5.08.85,5.31.62s-4.42-1.69-5.68-3.13c0,0,8.4,3.89,12.26,4.19.45,0,1-9.17-5-13.07s-15.45.32-18,2.78c0,0-3,.42-6.23,4.85S170.16,108.18,172,108.07Z" style="fill:#263238"></path><path d="M174.16,110.22s-3.43-5-5.68-3.76.29,8.41,2.92,9.41a2.69,2.69,0,0,0,3.61-1.41Z" style="fill:#eb9481"></path><path d="M169.26,108.5a0,0,0,0,0,0,.07c1.84.77,2.8,2.49,3.47,4.27a1.47,1.47,0,0,0-2.21-.42s0,.11.05.1a1.64,1.64,0,0,1,1.81.59,8,8,0,0,1,.86,1.47c.08.17.38.08.32-.11v0C173.6,112.07,171.79,108.76,169.26,108.5Z" style="fill:#263238"></path><path d="M173.61,115.51a1.16,1.16,0,1,1-1.16-1.15A1.16,1.16,0,0,1,173.61,115.51Z" style="fill:#fff"></path><path d="M209,210.65s-53.26.79-66.48-.14c0,0,10.78-61.1,25-76.54a21.66,21.66,0,0,1,1.68-1.65c.87-.73.75-6.56,1.16-7s17.69,1.83,17.91,2.25,1.11,5.92,1.11,5.92c3.92,5,16.53,22.28,18,29.41s-3.16,15-3.16,15Z" style="fill:#FFC727"></path><path d="M163.45,144.87c-3.15,15.18-1.28,48,6,54,12,9.82,40.84,12.69,48.89,13.64,3.47.41,10.38-22.3,8-25.23s-37.83-7.49-39.52-9c-1.17-1.08-6.68-20.91-11.43-32.09C169,131.06,164.6,139.27,163.45,144.87Z" style="fill:#eb9481"></path><path d="M220.34,185.45s10.64-.11,17.6.15c3.89.14,10.52,1,13.33,2.4,4.19,2.11,20.39,13.61,17.68,17.6-2.45,3.61-7.27-1.14-7.27-1.14s5.76,4.69,2.23,7.53-9.24-3.94-9.24-3.94,6.46,4.56,2.4,7.22c-3.52,2.32-10.91-4.8-10.91-4.8s7.31,4,3.93,6.77c-3.73,3-16.15-6.28-16.15-6.28-8.9,2-14.51,2-21.05.93C211.69,211.69,220.34,185.45,220.34,185.45Z" style="fill:#eb9481"></path><path d="M256.45,209.63,255,208.1a35.33,35.33,0,0,0-2.86-2.88c-1-.86-2-1.68-3.1-2.46s-2.34-1.56-3.44-2.41c-.09-.07-.19.06-.09.12a40.13,40.13,0,0,1,3.14,2.69c1,.9,2,1.82,3,2.73s2,1.72,3,2.59c.49.43,1,.88,1.45,1.33a11.07,11.07,0,0,0,1.39,1.27c.05,0,.11,0,.08-.08A8.29,8.29,0,0,0,256.45,209.63Z" style="fill:#263238"></path><path d="M262.86,205.46a54.2,54.2,0,0,0-5.2-5.46,37.42,37.42,0,0,0-6.11-4.45c-.08,0-.16.06-.1.12,1.88,1.69,3.79,3.35,5.7,5,.93.81,5.05,4.63,5.53,5C262.79,205.73,262.93,205.57,262.86,205.46Z" style="fill:#263238"></path><path d="M250.52,213.71a55.06,55.06,0,0,0-5-5.05,48.88,48.88,0,0,0-6.15-3.86c-.08,0-.16.08-.09.13,1.94,1.44,3.9,2.83,5.77,4.36.92.75,4.38,3.93,5.32,4.56C250.47,213.91,250.58,213.79,250.52,213.71Z" style="fill:#263238"></path><path d="M210.36,213.45l12.69-29.59s-34.76-5.75-35.83-6.45-7.41-23.78-11.48-32.84-11.06-14.38-13.76,5.07,1.21,43.2,5.12,48.14C171.84,203.76,190.61,211.33,210.36,213.45Z" style="fill:#FFC727"></path><path d="M192.5,209.71c-5.2-1.41-10.27-3.87-15.24-6-4.27-1.79-8.63-4-11-8.19a23.57,23.57,0,0,1-2.29-6.79c-.55-2.64-1-5.31-1.38-8q-.69-4.6-1.24-9.22c-.18-1.58-.36-3.16-.52-4.74s-.45-3.16-.51-4.75a.08.08,0,0,0-.16,0c.11,1.46,0,2.93.12,4.4,0,1,.12,1.92.19,2.88l-.28-.61a11.08,11.08,0,0,1-.7-2.18c0-.09-.17-.05-.15,0,.18.75.36,1.51.57,2.25q.15.54.36,1.08a7.06,7.06,0,0,0,.29.71q.36,4.31.93,8.58c.37,2.76.8,5.5,1.29,8.24a31.49,31.49,0,0,0,1.92,7.07,15.17,15.17,0,0,0,4.06,5.57,26.73,26.73,0,0,0,6,3.72,106.16,106.16,0,0,0,15.07,5.62C196,211.29,197.88,211.16,192.5,209.71Z" style="fill:#263238"></path><path d="M205.55,180.78c-1.28-.17-16.41-3.35-17-3.52a1.78,1.78,0,0,1-1.21-1.28c-.47-1.22-.88-2.47-1.32-3.7q-1.14-3.18-2.32-6.33c0-.47-.09-1-.14-1.41s-.15-1.12-.24-1.68c-.2-1.21-.56-2.4-.71-3.61,0-.12-.19-.08-.16,0a17.88,17.88,0,0,1,.54,3.64c.05.48.08,1,.11,1.45-.46-1.23-.93-2.46-1.42-3.68-.57-1.42-1.22-2.85-1.68-4.31,0-.1-.18-.05-.15,0,.52,1.31.89,2.7,1.3,4s.85,2.7,1.29,4.05c.86,2.65,1.77,5.28,2.69,7.92.44,1.27.87,2.56,1.34,3.82a2.72,2.72,0,0,0,2,1.93c2.63.71,15.49,2.84,17.05,2.9C205.68,181.07,205.72,180.8,205.55,180.78Z" style="fill:#263238"></path><path d="M216.62,184.32c-2,4.25-4,8.47-5.81,12.81A132.73,132.73,0,0,0,206,210.2a.08.08,0,0,0,.15.06c2-4.17,3.75-8.5,5.52-12.79s3.38-8.7,5.17-13C216.93,184.29,216.7,184.15,216.62,184.32Z" style="fill:#263238"></path><path d="M254,180.94c-1.53.86-10.29-1.56-13.84,1.1-2.35,1.76-4.65,6-5.15,11.53-.51,5.71,4,5.42,5.67,3a70.61,70.61,0,0,0,5.31-10,37.67,37.67,0,0,1,4.74,1.27Z" style="fill:#ad6359"></path><path d="M243.26,200.87c-2.71-2.84-16.25,7.57-12,12.3S246.32,204.09,243.26,200.87Z" style="fill:#ad6359"></path><path d="M247.78,204.94c-2.71-2.84-16.25,7.57-12,12.3S250.84,208.16,247.78,204.94Z" style="fill:#ad6359"></path><path d="M251.34,206.38c-2.85-2.21-13.71,9.14-9.16,12.84S254.57,208.88,251.34,206.38Z" style="fill:#ad6359"></path><path d="M255.21,207c-3.27-1.25-10.16,12.35-4.89,14.5S258.92,208.37,255.21,207Z" style="fill:#ad6359"></path><path d="M242.86,205.55a16.37,16.37,0,0,0-2.12,1.69c-.73.64-1.45,1.29-2.11,2a24.14,24.14,0,0,0-1.81,2.12c-.59.8-1.08,1.67-1.68,2.45a.08.08,0,1,0,.12.09,20.5,20.5,0,0,1,1.93-2.13c.65-.68,1.26-1.39,1.91-2.08s1.23-1.36,1.87-2,1.36-1.3,2-2C243,205.6,242.93,205.51,242.86,205.55Z" style="fill:#263238"></path><path d="M248.24,206.82c-.58.89-2.61,4.34-3.23,5.21s-1.27,1.74-1.93,2.59-1.3,1.78-2.05,2.58c-.06.07.05.18.12.11.75-.8,1.57-1.53,2.28-2.37s1.36-1.69,2-2.58a51.14,51.14,0,0,0,3-5.48C248.43,206.79,248.29,206.74,248.24,206.82Z" style="fill:#263238"></path><path d="M252,208.76c-.6,1.32-1.12,2.69-1.73,4-.3.65-.61,1.3-.91,2l-.42.95a6.37,6.37,0,0,1-.5,1.09c-.06.08.1.17.14.06a7.83,7.83,0,0,1,.7-1.13c.17-.3.35-.6.51-.9q.51-1,.93-1.95a28.94,28.94,0,0,0,1.46-4A.1.1,0,0,0,252,208.76Z" style="fill:#263238"></path></g></svg>