<svg xmlns="http://www.w3.org/2000/svg" viewBox="0 0 574.94 605.32">
  <defs>
    <filter id="luminosity-invert" width="532.13" height="532.13" x="21.36" y="36.52" color-interpolation-filters="sRGB" filterUnits="userSpaceOnUse">
      <feColorMatrix result="cm" values="-1 0 0 0 1 0 -1 0 0 1 0 0 -1 0 1 0 0 0 1 0"/>
    </filter>
    <style>
      .cls-7{fill:#fff}.cls-16{stroke:#231528;stroke-width:80px;fill:none;stroke-miterlimit:10}
    </style>
    <mask id="mask" width="532.13" height="532.13" x="21.36" y="36.52" maskUnits="userSpaceOnUse">
      <g filter="url(#luminosity-invert)">
        <circle cx="287.43" cy="302.59" r="266.07" fill="#231f20"/>
      </g>
    </mask>
  </defs>
  <g style="isolation:isolate">
    <g id="web_api-only">
      <g mask="url(#mask)" style="isolation:isolate;mix-blend-mode:color-dodge">
        <path fill="#f7ea99" d="M464.12 356.88c-18.26 12.58-24.48 25.98-20.21 43.47 4.11 16.81 18.12 28.46 29.14 35.26 5.12 3.16 10.53 5.9 15.94 8.28V343.24c-8.72 3.89-17.07 8.26-24.87 13.64Z"/>
        <path fill="#eaca00" d="M460.36 456.16c-21.33-13.17-35.12-30.48-39.91-50.08-6.72-27.48 3.36-50.73 29.96-69.07 12.2-8.41 25.3-14.64 38.58-19.97v-31.28c-1.95.63-3.91 1.28-5.85 1.89-26.42 8.42-51.38 16.4-71.36 36.35l-.51.52a68.09 68.09 0 0 0-8.39 10.39c-11.69 17.82-16.19 42.68-12.35 68.2a113.7 113.7 0 0 0 7.83 27.74c1.89 4.42 4.1 8.73 6.54 12.76 22.82 37.93 65.73 51.88 84.09 56.28v-29.98a164.97 164.97 0 0 1-28.63-13.75Z"/>
        <path fill="#bd9955" d="M384.22 456.07a129.01 129.01 0 0 1-8.05-15.71 137.34 137.34 0 0 1-9.51-33.65c-4.72-31.32 1.12-62.32 16.04-85.03a92.09 92.09 0 0 1 11.37-14.1l.65-.64c24.1-24.1 53.06-33.33 81.08-42.27 4.47-1.43 8.85-2.83 13.18-4.28v-76.36a198.93 198.93 0 0 0-14.81 4.28c-20.19 6.83-43.66 20.1-64.38 36.4-73.16 57.55-112.62 173.23-54.7 253.72 20.95 29.1 49.92 48.83 71.17 60.52h40.67a22.1 22.1 0 0 0 20.66-14.57c-19.24-3.99-73.84-19.25-103.36-68.3Z"/>
        <path fill="#386b7d" d="M488.99 123.99v35.18a217.67 217.67 0 0 0-22.55 6.26c-22.7 7.67-48.78 22.36-71.58 40.28-81.95 64.47-125.37 195.09-59.35 286.81 13.71 19.06 30.19 34.35 46.2 46.42h-74.83c-38.28-41.31-55.05-90.27-49.65-146.53a241.11 241.11 0 0 1 7.07-38.93 285.44 285.44 0 0 1 10.13-30.99 840.72 840.72 0 0 1 12.4-29.66c15.99-36.96 31.11-71.87 27.3-117.57a242.34 242.34 0 0 0-4.61-31.14 222.1 222.1 0 0 0-5.42-20.33c-9.29-29.16-25.87-59.37-54.5-85.11 20.7-2.46 42.1-2.44 63.72.03v41.17a22.12 22.12 0 0 0 22.07 22.05h131.54a22.18 22.18 0 0 1 19.3 11.42h.01a21.94 21.94 0 0 1 2.75 10.64Z"/>
        <path fill="#2a515e" d="M273.48 538.94h-30.57c-27.57-41.11-54.8-97.15-59.44-162.45-2.63-37.09 7.5-74.01 17.31-109.73 5.41-19.71 11-40.09 14.43-60.38 1.43-8.45 2.99-21.44 2.29-35.29-1.82-37.03-24.87-65.01-61.67-74.84a129.97 129.97 0 0 0-19.27-3.55c-2.93-.32-5.94-.55-9.01-.69C152.84 69.26 183.12 53.65 216.1 45c30.66 21.61 51.98 50.54 63.48 86.6 1.85 5.8 3.46 11.84 4.78 17.97a217.96 217.96 0 0 1 4.12 27.83c3.28 39.26-9.96 69.82-25.27 105.21a887.24 887.24 0 0 0-12.77 30.54 314.42 314.42 0 0 0-11.02 33.75 269.5 269.5 0 0 0-7.82 43.05c-4.17 43.61 2.74 97.58 41.88 148.99Z"/>
        <path fill="#4d2a54" d="M157.8 378.31c-2.95-41.47 7.78-80.56 18.16-118.36 5.48-19.99 10.66-38.86 13.88-57.87 1.21-7.18 2.54-18.17 1.96-29.71-1.28-26.06-16.41-44.26-42.6-51.25a102.36 102.36 0 0 0-15.42-2.83c-5.47-.59-11.35-.84-17.38-.71-21.08.42-42.53 4.87-64.41 10.18v55.94c31.68-2.74 76.14 1.14 91.31 40.41 3.23 8.34 4.85 17.91 4.81 28.43-.02 6.31-.64 13.1-1.83 20.15-3.59 21.31-10.53 41.36-17.23 60.76-8.23 23.82-16.01 46.32-17.87 70.53a251.18 251.18 0 0 0 .52 44.29c3.61 35.86 14.51 66.67 26.09 90.68H212c-26.01-42.27-49.68-97.03-54.2-160.63Z"/>
        <path fill="#331c38" d="M86.1 450.82a279.61 279.61 0 0 1-1.34-33.19c.11-5.15.36-10.35.77-15.64 2.12-27.51 10.81-52.65 19.21-76.96 6.65-19.25 12.93-37.44 16.17-56.63.95-5.69 1.45-11.06 1.47-15.98.03-7.3-1-13.71-3.07-19.05-9.48-24.53-42.91-26.13-67.31-23.7v307.19a22.12 22.12 0 0 0 22.06 22.06h35.35c-10.59-24.4-19.87-54.09-23.31-88.12Z"/>
      </g>
      <circle id="center_block_out" cx="288.49" cy="303.09" r="97.5" fill="#fff" opacity=".8"/>
      <g id="circles">
        <g id="outer_path" opacity=".5">
          <path d="M280.52 605.32c-22.07 0-44.3-2.49-66.38-7.52-77.29-17.61-143.36-64.35-186.05-131.6l70.93-45.02c30.73 48.42 78.25 82.06 133.79 94.71 55.4 12.63 112.26 2.87 160.07-27.48 47.82-30.35 80.84-77.64 93-133.15 12.19-55.65 1.97-112.96-28.76-161.38l70.93-45.02c42.69 67.25 56.86 146.94 39.9 224.37-16.99 77.57-63.17 143.66-130.05 186.11-47.81 30.35-102.06 45.98-157.39 45.98Z" class="cls-7"/>
          <path d="M46.88 456.46C4.19 389.21-9.97 309.53 6.98 232.09 23.97 154.53 70.15 88.43 137.03 45.98 203.91 3.53 283.38-10.13 360.8 7.52c77.29 17.61 143.36 64.35 186.05 131.6l-70.93 45.02c-30.73-48.42-78.25-82.06-133.79-94.71-55.41-12.63-112.26-2.87-160.07 27.48-47.82 30.35-80.84 77.64-93 133.15-12.19 55.65-1.97 112.96 28.76 161.38l-70.93 45.02Z" class="cls-7"/>
        </g>
        <g id="outer_stroke">
          <path d="M501.14 167.85C428.86 53.98 279.02 19.83 166.11 91.5c-112.9 71.66-145.78 221.79-73.5 335.65" class="cls-16"/>
          <path d="M73.72 437.33c72.27 113.87 222.12 148.02 335.02 76.35 112.9-71.66 145.78-221.79 73.51-335.66" class="cls-16"/>
        </g>
        <g id="inner">
          <path d="M380.11 242.85c36.14 56.93 19.7 132-36.75 167.83-56.45 35.83-131.37 18.76-167.51-38.18" class="cls-16"/>
          <path d="M399 232.68c-36.14-56.93-111.06-74.01-167.51-38.18-56.45 35.83-72.89 110.9-36.75 167.83" class="cls-16"/>
        </g>
      </g>
      <path id="state" fill="#231528" d="M253.32 255.12c.02.05 0 .07-.01.07-.03 0-.08-.04-.12-.07 0 0-3.59 94.02-3.16 94.25l75.7.41-1.92-75.98h.03c.08 0 .12-.05.11-.14l-28.44.41c.09-.08 0-18.41 0-18.41l-.11.01c-.1 0-.11-.05-.03-.15l-42.04-.41Z"/>
    </g>
  </g>
</svg>
