<svg xmlns="http://www.w3.org/2000/svg" viewBox="0 0 500 500">
  <ellipse cx="250" cy="438.84" fill="#ebebeb" rx="191.97" ry="22.45"/>
  <path fill="#ffc727" d="M342.16 356.63c-3.33.11-7.06.3-9.82-1.86-2.55-2-4.82-5-4.49-8.39.1-1 .33-1.57 1.37-1.16 1.59.64 2.82 2.39 3.92 3.62a33.74 33.74 0 0 0 4.63 4.39c1.18.91 2.46 1.7 3.67 2.58l.46.34.17.12h.09a.16.16 0 0 1 .14.07v.06a.18.18 0 0 1-.14.23Z"/>
  <path fill="#fff" d="M342.33 356.41c-2.94-.05-6.1.08-8.45-1.91a13.78 13.78 0 0 1-2.72-3.31c-.34-.55-1.35-2.2-.93-2.85.76-1.19 4.25 3.64 4.74 4.11a14.28 14.28 0 0 0 6.47 3.36l.46.34a16.28 16.28 0 0 1-4.87-1.87c-2.08-1.24-3.24-3.08-4.86-4.79-.36-.37-1.42-1.62-1.82-.84-.26.51.72 2.12.93 2.46a13.48 13.48 0 0 0 2.58 3.15c2.33 2 5.49 2 8.44 2.09Z"/>
  <path fill="#ffc727" d="M344 358.66c0 .13-.05.26-.08.39a.11.11 0 0 1-.06.07.16.16 0 0 1-.18-.07.11.11 0 0 1 0-.08v-.17c-.6-2.21-.83-4.51-1.45-6.71s-1.33-4.18-1.76-6.33c-.27-1.36-1.21-8.16 1.79-7.31 1.33.37 2.24 2.3 2.74 3.45a13.71 13.71 0 0 1 1.1 4.89c.26 4.12-1.26 7.89-2.1 11.87Z"/>
  <path fill="#fff" d="M345 350.19a16.32 16.32 0 0 0-.48-4.62c-.13-.52-.79-3-1.63-3-.55 0-.64 1.11-.69 1.47a14.55 14.55 0 0 0 .59 4.53 63.38 63.38 0 0 1 1.11 9.09c0 .2-.06.39-.08.58s0 .32-.06.48v.3a.16.16 0 0 0 .18.07c0-.13 0-.25.05-.38v.31l.06-.32a.64.64 0 0 0 0-.07v-.51a69.17 69.17 0 0 0 .95-7.93Zm-1 6.87a55.87 55.87 0 0 0-1.28-9.58 15 15 0 0 1-.39-2.41c0-.62.07-2.91 1.25-1.49.85 1 1.06 3.23 1.16 4.5a22.91 22.91 0 0 1-.08 4.22c-.21 1.59-.47 3.18-.66 4.76Z"/>
  <path fill="#ffc727" d="M345.8 367.81a.43.43 0 0 1-.13 0c-3.05-.15-7.11.13-9.65-1.89-1.87-1.49-3.71-4.43-3.12-6.93.67-2.82 4.48.56 5.49 1.38a93.6 93.6 0 0 1 7.47 7.27s.01.16-.06.17Z"/>
  <path fill="#fff" d="m345.9 367.73-.52-.33c-2-1.27-4-2.62-5.84-4.06-.48-.36-3.91-3.42-4.43-2.33-.31.67.82 2 1.19 2.47a9.26 9.26 0 0 0 2.31 2.06c2 1.27 4.5 1.54 6.8 2.15l.33.09h.05c.08.02.14-.01.11-.05Zm-6-1.74a9.61 9.61 0 0 1-2.63-1.78c-.52-.49-2.32-2.31-1.84-3.06.25-.4.47-.19 1 .05.22.11.44.24.65.37.51.34 1 .73 1.46 1.11q1.25 1 2.55 1.95c1.42 1 2.88 2 4.37 2.93a45.83 45.83 0 0 1-5.59-1.56Z"/>
  <path fill="#ffc727" d="M351.37 361.53a18.07 18.07 0 0 1-5.23 9.13h-.06a.12.12 0 0 1-.15-.05.14.14 0 0 1 0-.18l.16-.15c.5-4.15 1.06-8.27 1.49-12.43.1-1 .86-7.22 2.78-6.2 1.18.62 1.26 3.18 1.36 4.33a18 18 0 0 1-.35 5.55Z"/>
  <path fill="#fff" d="M350.26 356c-.1-.34-.28-.7-.67-.46-.75.47-1 3.4-1.16 4.21-.52 3.35-1.31 6.56-2.11 9.84l-.21.83-.18.25a.13.13 0 0 0 .15.05v-.08l.25-.33a21.42 21.42 0 0 0 3-5.88 20.7 20.7 0 0 0 .89-4.1 11.84 11.84 0 0 0 .04-4.33Zm-3.91 14.08-.12.16c0-.11.08-.22.11-.33a60.73 60.73 0 0 0 1.86-7.61c.23-1.31.37-2.63.63-3.93.12-.55.39-2.11.84-2.37s.45.36.49.71 0 .71 0 .95a21.05 21.05 0 0 1-3.81 12.39Z"/>
  <path fill="#ffc727" d="M346.65 379.6H346V378a233.7 233.7 0 0 0-.29-6.5 73.07 73.07 0 0 0-.29-3.68v-.42c0-.11 0-.22-.05-.33a26.33 26.33 0 0 0-2.09-8c-.39-.84-.81-1.66-1.26-2.48a1.71 1.71 0 0 0-.13-.23v-.07c0-.08-.09-.16-.14-.24a1.62 1.62 0 0 0-.1-.18c-1.41-2.48-3-4.85-4.56-7.24l-1.3-2.06a.57.57 0 0 1-.08-.13.56.56 0 0 1-.1-.15c-1.92-3-3.82-6.09-5.81-9.07-.08-.11.1-.21.17-.1 1.35 2 2.75 3.92 4.14 5.88l.55.78c.37.51.73 1 1.09 1.54.72 1 1.44 2.07 2.14 3.12a88 88 0 0 1 5.61 9.09l.35.71c.12.24.14.3.2.45l.24.53a28 28 0 0 1 2.06 9.6v1.02a1 1 0 0 0 0 .17 1.7 1.7 0 0 0 0 .22v.76c.09 2.16.14 4.33.19 6.49.06.74.08 1.43.11 2.12Z"/>
  <path fill="#ffc727" d="M328.44 340.35c-1.67-2.24-3.81-6.87-1.35-9.28a2.62 2.62 0 0 1 3.49-.26c1.3.94 1.88 2.72 2.31 4.19 1.12 3.93 1.87 7.93 3.28 11.78l.15.41c.03.08-.1.12-.13 0s-.09-.25-.14-.38c-2.65-1.89-5.63-3.81-7.61-6.46Z"/>
  <path fill="#fff" d="M336.19 346.79a.25.25 0 0 0 0-.07 28 28 0 0 1-1.56-2.9 55.88 55.88 0 0 1-2.4-6.44c-.27-.84-1.47-5-2.94-3.32a3.75 3.75 0 0 0-.44 2.77 10.25 10.25 0 0 0 1.29 3.86 18.78 18.78 0 0 0 5.54 5.79l.29.23.07.1a.25.25 0 0 0 0 .07.1.1 0 0 0 .13-.06l.02-.03Zm-.65-.46a22.1 22.1 0 0 1-4.7-4.71 11.75 11.75 0 0 1-1.53-3.12 10.06 10.06 0 0 1-.31-1.5 7.53 7.53 0 0 1-.07-1.16c0-.85.38-1.77.88-1.86s.83.25 1.24 1a6.47 6.47 0 0 1 .36.75 18.84 18.84 0 0 1 .7 1.95 61.94 61.94 0 0 0 1.95 5.42 28.35 28.35 0 0 0 1.83 3.55Z"/>
  <path fill="#ffc727" d="M159.25 346.63c-.28 2.23-.7 4.43-1.15 6.63-.26 1.24-.53 2.48-.78 3.73a9.21 9.21 0 0 0-.31 4.16 1.28 1.28 0 0 1 0 .19.17.17 0 0 1-.29-.05v-.09a6 6 0 0 1-.48-1.15 30.54 30.54 0 0 1-1.1-3.22A27.59 27.59 0 0 1 154 350a23.79 23.79 0 0 1 .65-6.18c.4-1.62 1-4 2.17-5.27s2 .68 2.31 1.58c.72 2.02.38 4.39.12 6.5Z"/>
  <path fill="#fff" d="M157.26 341.91c-.82 0-1.41 2.62-1.69 3.75a22.4 22.4 0 0 0-.7 5.46 29.36 29.36 0 0 0 1.68 9.7c0 .13.09.26.13.38v.09a.17.17 0 0 0 .29.05l-.13-.82c-.04-.28 0-.49-.07-.73a38.62 38.62 0 0 1 .5-8c.44-3.1 1.06-9.88-.01-9.88Zm-.59 18.43c0 .36.1.72.17 1.07l-.25-.77a32.83 32.83 0 0 1-1.53-8.56 23.55 23.55 0 0 1 .36-4.89 22.24 22.24 0 0 1 .63-2.56c.11-.35.7-2.55 1.21-2.44.35.08.43 2.06.44 2.1v1.19c0 .81-.07 1.63-.13 2.44-.16 1.76-.41 3.52-.62 5.28a30.48 30.48 0 0 0-.28 7.14Z"/>
  <path fill="#ffc727" d="M172 352.78a21.13 21.13 0 0 1-6.59 7c-1.39 1-2.83 2-4.24 3a23.68 23.68 0 0 0-3.66 2.82l-.14.15a6.36 6.36 0 0 0-.76 1.05.08.08 0 0 1-.07 0 .5.5 0 0 1 0 .13s-.06 0-.05 0v-.14a.09.09 0 0 1 0-.11v-.15c.43-3.4 2.8-6.83 4.81-9.45a18.13 18.13 0 0 1 7.59-6.12c.78-.3 2.56-1.13 3.35-.49s.11 1.69-.24 2.31Z"/>
  <path fill="#fff" d="M169.73 352.79c-.71-.71-2.79 1-3.32 1.45a36.3 36.3 0 0 0-4.31 4.19 31.21 31.21 0 0 0-5.51 8l-.07.09v.15a.09.09 0 0 0 0 .12.4.4 0 0 1 .1-.12c.26-.32.53-.63.81-.94l.14-.15a66.08 66.08 0 0 1 6.45-5.69 32 32 0 0 0 4.29-4.18c.3-.37 2.01-2.32 1.42-2.92Zm-.65 1.56c-1.76 2.92-4.81 5-7.39 7.17a35 35 0 0 0-4.91 4.66 33.19 33.19 0 0 1 5.09-7.17 47.6 47.6 0 0 1 3.5-3.6 17.45 17.45 0 0 1 2.13-1.7 7.12 7.12 0 0 1 1.44-.78c.98-.29.44.92.14 1.42Z"/>
  <path fill="#ffc727" d="M156.17 373.72a.21.21 0 0 1-.15.09v.12a.06.06 0 0 1-.08 0 29.57 29.57 0 0 1-6.78-9.92 15.76 15.76 0 0 1-1-4.89c0-1.14-.09-3.44.89-4.28 2-1.67 3.76 5.43 4 6.5.49 2 .81 4 1.26 5.91.49 2.15 1.14 4.25 1.78 6.36a.11.11 0 0 1 .08.11Z"/>
  <path fill="#fff" d="M156.17 373.72a9.76 9.76 0 0 1-.31-.55 33 33 0 0 1-3.55-9.54 29.33 29.33 0 0 0-1.31-5c-.16-.4-.65-1.91-1.3-1.15-.33.4-.06 3.27.08 4a20.83 20.83 0 0 0 1.6 4.88 34.33 34.33 0 0 0 4.51 7.33 1.56 1.56 0 0 0 .16.2v-.12a.21.21 0 0 0 .12-.05Zm-4-6.11a25.1 25.1 0 0 1-1.89-4.73 16.88 16.88 0 0 1-.41-2 10.54 10.54 0 0 1-.14-1.58c0-1.3.12-1.64.33-1.68s.32.11.71.89a8.86 8.86 0 0 1 .55 1.57q.3 1.16.54 2.31c.34 1.55.65 3.11 1.1 4.62a25.7 25.7 0 0 0 2.74 6.21 39.53 39.53 0 0 1-3.53-5.61Z"/>
  <path fill="#ffc727" d="M165 366.91a9.66 9.66 0 0 1-1.8 3.75c-1.64 2.26-3.73 4.14-5.51 6.27-.27.32-.53.65-.78 1 0 0-.23.51-.23.47s0-.19.09-.49a40.22 40.22 0 0 1 2.4-8.32 20.06 20.06 0 0 1 2.61-4.08c.5-.57 1.69-1.81 2.59-1.54s.77 2.22.63 2.94Z"/>
  <path fill="#fff" d="M163.55 366c-1-.59-3.42 3.81-3.76 4.38a28.29 28.29 0 0 0-2.81 6.72c-.08.26-.14.53-.21.8s-.09.48-.09.49l.23-.47.13-.17c.21-.28.43-.55.65-.8 1.07-1.61 2.17-3.2 3.21-4.82a26.51 26.51 0 0 0 2-3.67c.1-.29 1.1-2.21.65-2.46Zm-.28 1.24c-1.36 3.84-4.13 6.86-6.25 10.26l-.11.16a2.63 2.63 0 0 0 .09-.3 32.18 32.18 0 0 1 2.25-5.59 32.56 32.56 0 0 1 1.89-3.16 15.71 15.71 0 0 1 1.18-1.63c.2-.22.76-.8 1-.7s.04.72-.05.95Z"/>
  <path fill="#ffc727" d="M174.61 335.28c-2.84 6.53-10.3 9.57-13.54 15.87l-.28.59a.14.14 0 0 1-.22 0 .1.1 0 0 1 0-.11.91.91 0 0 1 .07-.14 33.79 33.79 0 0 1 4-11.43 17.24 17.24 0 0 1 7-7.41c.77-.39 2.26-1.22 3.11-.57s.25 2.4-.14 3.2Z"/>
  <path fill="#fff" d="M172.05 335.56c-.36-.27-.91.06-1.22.22a11 11 0 0 0-2.16 1.47 18.5 18.5 0 0 0-3.44 4.09 37.4 37.4 0 0 0-4 8.22 20.34 20.34 0 0 0-.56 2l-.06.25a.14.14 0 0 0 .22 0 5.94 5.94 0 0 1 .27-.57s0 0 0-.05a22 22 0 0 1 2-3.72 51.36 51.36 0 0 1 4.25-5.05c.58-.68 5.95-5.94 4.7-6.86Zm-.46 1.51a24 24 0 0 1-3.37 4.09c-1.18 1.32-2.37 2.62-3.53 4a24.74 24.74 0 0 0-2.49 3.4 19.08 19.08 0 0 0-1.55 3.14 27.36 27.36 0 0 1 1.11-3.27 47.88 47.88 0 0 1 2.76-5.5v-.06a22.71 22.71 0 0 1 3.15-4.39 12.43 12.43 0 0 1 2.33-1.98c.93-.6 1.75-1 2-.69s-.15.81-.41 1.26Z"/>
  <path fill="#ffc727" d="M164.68 342.94c-.85 1.84-1.67 3.7-2.48 5.58l-1.13 2.63v.05l-.41.95a58.86 58.86 0 0 0-3.36 8.85 26.76 26.76 0 0 0-.68 4.91v.79a.76.76 0 0 0 0 .15c-.05 1.43 0 2.87 0 4.27 0 1.95.2 3.88.39 5.81a1 1 0 0 0 0 .17 2.46 2.46 0 0 1 0 .26v.14a2.29 2.29 0 0 0 0 .25l.17 1.86h-.6a38 38 0 0 1-.71-5.75.45.45 0 0 1 0-.12v-1.25c0-.56 0-1.11-.05-1.66a41.39 41.39 0 0 1 .68-9.63 2.5 2.5 0 0 0 .07-.26.52.52 0 0 1 0-.11v-.18l.08-.3.15-.52.05-.16a63.76 63.76 0 0 1 3.28-7.92l.66-1.4.37-.78.58-1.17c.91-1.84 1.86-3.65 2.76-5.5.08-.12.22-.05.18.04Z"/>
  <path fill="#263238" d="m47.15 379.67 50.71-.25 50.71-.09 101.43-.16 101.43.16 50.71.09 50.72.25-50.72.24-50.71.09-101.43.17-101.43-.17-50.71-.09-50.71-.24z"/>
  <path fill="#ffc727" d="M74.34 86.53c0-5.66 25.38-14.15 65.72-21.15 50.66-8.8 96.69-10.82 113.93-5.88l.21 112.92c-17.23-4.94-63.27-2.92-113.93 5.88-40.34 7-65.73 15.49-65.71 21.15-.07-17.45-.15-95.45-.22-112.92Z" opacity=".4"/>
  <path fill="#ffc727" d="M110.75 173.56q-3.82 1-7.65 2.1V168q3.83-1.09 7.65-2.1Z"/>
  <path fill="#455a64" d="M200.39 155.13a395.05 395.05 0 0 0-84.32 11.66v-2.27a395.71 395.71 0 0 1 84.32-11.67Zm-29.84 7.42a399.12 399.12 0 0 0-54.48 9.65v-2.27a399.12 399.12 0 0 1 54.48-9.65Zm-72.5-70.28a394.84 394.84 0 0 1 66.22-14A376 376 0 0 1 230.49 76a393.4 393.4 0 0 0-66.22 2.55 411.45 411.45 0 0 0-66.22 13.72Zm0 13.09a395.87 395.87 0 0 1 66.22-14 376 376 0 0 1 66.22-2.23 392.35 392.35 0 0 0-66.22 2.55 410.37 410.37 0 0 0-66.22 13.68Zm0 13.08a394.84 394.84 0 0 1 66.22-14 376 376 0 0 1 66.22-2.24 393.41 393.41 0 0 0-66.22 2.56 411.42 411.42 0 0 0-66.22 13.68Zm0 13.09a395.87 395.87 0 0 1 66.22-14 376 376 0 0 1 66.22-2.23 392.35 392.35 0 0 0-66.22 2.55 410.37 410.37 0 0 0-66.22 13.68Zm0 13.08a394.84 394.84 0 0 1 66.22-14 376 376 0 0 1 66.22-2.24 393.41 393.41 0 0 0-66.22 2.56 411.42 411.42 0 0 0-66.22 13.68Z"/>
  <path fill="#455a64" d="M124.62 76.8c.2 12.18.15 24.42.23 36.63-.08 12.24 0 24.46-.23 36.73-.19-12.18-.14-24.42-.22-36.63.08-12.24.03-24.46.22-36.73Zm22.94-4.5c.2 12.2.15 24.43.23 36.65-.08 12.24 0 24.46-.23 36.71-.19-12.19-.15-24.42-.23-36.64.09-12.24.04-24.46.23-36.72Zm22.99-3.12c.19 12.21.14 24.44.22 36.66-.08 12.23 0 24.45-.22 36.7-.2-12.2-.15-24.44-.23-36.65.08-12.24.03-24.46.23-36.71Zm22.96-1.75c.2 12.22.15 24.45.23 36.67-.08 12.23 0 24.45-.23 36.69-.19-12.22-.14-24.45-.22-36.67.08-12.23.03-24.45.22-36.69Zm22.89-.38c.2 12.23.15 24.46.23 36.68-.08 12.23 0 24.46-.23 36.68-.19-12.23-.14-24.46-.22-36.68.08-12.23.03-24.46.22-36.68Z"/>
  <path fill="#ffc727" d="M101.37 134.15c4-1.15 6.41-15.12 12.12-16.6s6.31 8.13 11.13 7 4.67-18.08 11.16-19.39 5 5.94 11.78 4.78 4.23-16.75 11.34-17.76 4.24 21.53 11.65 20.69c4.68-.48 6.5-7.68 12.09-8.11 3.7-.27 5.88 3.1 10.72 2.86s5.89-13.76 11.91-13.88 6.71 7.94 11.13 8 6-13 14.09-12.63v51.76a393.34 393.34 0 0 0-129.12 15.29Z" opacity=".5"/>
  <path fill="#ffc727" d="M101.37 134.79v-1.28c1.21-.35 2.89-3.93 4.11-6.54 2.11-4.48 4.29-9.1 8-10.06s5.35 1.62 6.92 3.84c1.23 1.75 2.5 3.56 4.21 3.18 1.51-.35 2.82-4.72 3.77-7.92 1.56-5.23 3.18-10.65 7.39-11.48 3.76-.74 5.24 1 6.54 2.51s2.35 2.75 5.24 2.27c2.61-.43 3.64-4.34 4.63-8.12 1.16-4.44 2.37-9 6.71-9.64s5.41 4.85 6.58 10.59c.94 4.64 2.11 10.42 5.07 10.1 1.76-.18 3.2-1.78 4.73-3.47 1.86-2.06 4-4.39 7.36-4.64a9.72 9.72 0 0 1 5.17 1.36 10.75 10.75 0 0 0 5.55 1.5c1.67-.08 3.2-3.35 4.43-6 1.8-3.85 3.66-7.83 7.48-7.9s5.66 2.5 7.31 4.76c1.2 1.64 2.33 3.2 3.82 3.22 1.27 0 2.71-2.44 4-4.6 2.16-3.69 4.86-8.29 10.11-8v1.27c-4-.2-6.38 3.78-8.44 7.28-1.77 3-3.17 5.39-5.65 5.36s-4-1.92-5.43-3.92-3-4.1-5.7-4.06c-2.51 0-4.24 3.72-5.76 7-1.7 3.64-3.17 6.77-6.15 6.91a12.81 12.81 0 0 1-6.67-1.7 7.89 7.89 0 0 0-4.05-1.16c-2.44.18-4.19 2.09-5.87 4s-3.51 3.88-6.22 4.16c-4.54.49-5.67-5.07-6.88-11-.91-4.48-2-10.07-4.77-9.71s-4 4.62-4.93 8.34c-1.18 4.51-2.29 8.75-6.41 9.43s-5.51-1.1-6.85-2.66-2.27-2.64-4.93-2.12-4.35 5.85-5.62 10.11c-1.44 4.82-2.58 8.62-5.54 9.28s-4.35-1.38-5.87-3.55c-1.42-2-2.88-4.07-5.26-3.46s-4.61 5.14-6.32 8.77c-1.88 3.9-3.36 7.04-5.81 7.75Z"/>
  <path fill="#455a64" d="M101.37 83.59c.14 12 .27 24.11.28 36.2s.09 24.16.14 36.24l-.42-.18a403.41 403.41 0 0 1 64.58-13q16.19-1.87 32.36-2.4t32.18.43q-16-.74-32.18-.1t-32.31 2.5a401.71 401.71 0 0 0-64.58 13.17l-.43.12v-.3l.13-36.32c-.03-12.1.1-24.23.25-36.36Z"/>
  <path fill="#ffc727" d="m356.07 282.76-7.92-10.23 24.73-20.61a7.63 7.63 0 0 1 11 1.12A7.63 7.63 0 0 1 382.2 264Z"/>
  <path fill="#37474f" d="M418.93 293v35.44a7.77 7.77 0 0 1-7.78 7.77 7.77 7.77 0 0 1-7.77-7.77V293a7.77 7.77 0 0 1 7.77-7.77 7.78 7.78 0 0 1 7.78 7.77Z"/>
  <rect width="131.87" height="22.81" x="320.98" y="409.37" fill="#455a64" rx="11.09"/>
  <path fill="#455a64" d="M423.09 368.42h-72.35l-13.76 40.95h99.88l-13.77-40.95z"/>
  <path fill="#263238" d="m436.85 409.37-3.63-10.81h-92.6l-3.63 10.81h99.86z"/>
  <path fill="#ffc727" d="M416.51 321.21a10.26 10.26 0 0 0-13.71 2.71l-27.56 36.46a14.46 14.46 0 0 0 4.1 20.76 14.46 14.46 0 0 0 20.41-5.55l20.43-40.88a10.26 10.26 0 0 0-3.67-13.5Z"/>
  <path fill="#ffc727" d="M370.75 372.05a16.52 16.52 0 0 0 30.83 4.5l.4-.8 14.72-29.48 5.3-10.64a12.32 12.32 0 0 0-20.91-12.92l-27 35.75-.52.68a16.57 16.57 0 0 0-2.82 12.91ZM409.3 322a3.88 3.88 0 0 1 .77-.14 4.23 4.23 0 0 1 .7-.06 7.38 7.38 0 0 1 1.69.09 6 6 0 0 1 .71.15 7.32 7.32 0 0 1 .76.23l.15.06a6.65 6.65 0 0 1 .61.27 6.3 6.3 0 0 1 .72.4 5.33 5.33 0 0 1 .6.42 1.24 1.24 0 0 1 .28.22 3.28 3.28 0 0 1 .39.34 1 1 0 0 1 .18.18 2.63 2.63 0 0 1 .4.42 4.52 4.52 0 0 1 .4.49s.12.16.17.23a2.4 2.4 0 0 1 .22.37 3.24 3.24 0 0 1 .21.35 4 4 0 0 1 .25.51 5.26 5.26 0 0 1 .28.73 3.61 3.61 0 0 1 .21.75 4.85 4.85 0 0 1 .14.76 8.08 8.08 0 0 1-.82 5l-4.32 8.75-15.51 31-.55 1.1-.1.17-.36.62a14 14 0 0 1-1 1.37l-.33.36c-.21.23-.42.45-.64.66l-.06.06a12.45 12.45 0 0 1-15 1.48 12.36 12.36 0 0 1-4.25-16.62.36.36 0 0 1 .05-.09v-.05a10.63 10.63 0 0 1 .67-1 5.82 5.82 0 0 1 .36-.47l.36-.48 26.8-35.48a8 8 0 0 1 4.11-3 5 5 0 0 1 .75-.15Z"/>
  <path d="M370.75 372.05a16.52 16.52 0 0 0 30.83 4.5l.4-.8 14.72-29.48 5.3-10.64a12.32 12.32 0 0 0-20.91-12.92l-27 35.75-.52.68a16.57 16.57 0 0 0-2.82 12.91ZM409.3 322a3.88 3.88 0 0 1 .77-.14 4.23 4.23 0 0 1 .7-.06 7.38 7.38 0 0 1 1.69.09 6 6 0 0 1 .71.15 7.32 7.32 0 0 1 .76.23l.15.06a6.65 6.65 0 0 1 .61.27 6.3 6.3 0 0 1 .72.4 5.33 5.33 0 0 1 .6.42 1.24 1.24 0 0 1 .28.22 3.28 3.28 0 0 1 .39.34 1 1 0 0 1 .18.18 2.63 2.63 0 0 1 .4.42 4.52 4.52 0 0 1 .4.49s.12.16.17.23a2.4 2.4 0 0 1 .22.37 3.24 3.24 0 0 1 .21.35 4 4 0 0 1 .25.51 5.26 5.26 0 0 1 .28.73 3.61 3.61 0 0 1 .21.75 4.85 4.85 0 0 1 .14.76 8.08 8.08 0 0 1-.82 5l-4.32 8.75-15.51 31-.55 1.1-.1.17-.36.62a14 14 0 0 1-1 1.37l-.33.36c-.21.23-.42.45-.64.66l-.06.06a12.45 12.45 0 0 1-15 1.48 12.36 12.36 0 0 1-4.25-16.62.36.36 0 0 1 .05-.09v-.05a10.63 10.63 0 0 1 .67-1 5.82 5.82 0 0 1 .36-.47l.36-.48 26.8-35.48a8 8 0 0 1 4.11-3 5 5 0 0 1 .75-.15Z" opacity=".1"/>
  <path fill="#37474f" d="M397.45 375.45a12.4 12.4 0 1 0-17.07 4 12.38 12.38 0 0 0 17.07-4Z"/>
  <circle cx="386.92" cy="368.92" r="8.69" fill="#455a64" transform="rotate(-62.27 386.92 368.92)"/>
  <path fill="#37474f" d="M418 334.14a8.11 8.11 0 1 0-11.17 2.61 8.12 8.12 0 0 0 11.17-2.61Z"/>
  <path fill="#455a64" d="M416 332.86a5.69 5.69 0 1 0-7.83 1.83 5.68 5.68 0 0 0 7.83-1.83Zm-43.6-70.02 32.84 35.89a7.78 7.78 0 0 0 11 .48 7.78 7.78 0 0 0 .49-11l-32.85-35.89a7.79 7.79 0 0 0-11-.48 7.77 7.77 0 0 0-.48 11Z"/>
  <path fill="#37474f" d="M411 290.34a2.9 2.9 0 1 0 2.66 3.13 2.9 2.9 0 0 0-2.66-3.13Zm-32.8-35.82a2.9 2.9 0 1 0 2.66 3.12 2.9 2.9 0 0 0-2.66-3.12Z"/>
  <path fill="#455a64" d="m346.7 270.69 10.76 13.9-3.57 2.77-10.77-13.9z"/>
  <path fill="#37474f" d="m344.63 275.4 7.78 10.04-13.8 10.69-7.78-10.04z"/>
  <path fill="#455a64" d="m326.9 281.02 15.62 20.15-7.04 5.45-15.6-20.15z"/>
  <path fill="#37474f" d="M327.78 289.39a2.2 2.2 0 1 1 .39-3.08 2.2 2.2 0 0 1-.39 3.08Zm9.57 12.35a2.2 2.2 0 1 1 .39-3.08 2.2 2.2 0 0 1-.39 3.08Zm-36.78-7.49-4.2-5.42 24.98-.48 6.22 8.04-27-2.14zm-8.73 13.05-2.17-2.8 6.7-15.67 4.2 5.42-8.73 13.05zm31.3 16.1 4.2 5.42 6.71-24.07-6.22-8.04-4.69 26.69z"/>
  <path fill="#37474f" d="m308.33 328.59 2.17 2.8 16.84-2.57-4.2-5.42-14.81 5.19z"/>
  <path fill="#ffc727" d="M93.75 221.86 86.67 211l-27.55 16.67a7.63 7.63 0 0 0-2.54 10.76 7.63 7.63 0 0 0 10.88 2Z"/>
  <path fill="#37474f" d="M76.76 279.06c8.54 8.14 32 28 41.43 39.1a8.6 8.6 0 0 1-.88 11.58c-4.39 3.89-9.15 2.31-12.34-.56-9.62-8.65-32-30.37-41.22-41.6-2.75-3.31-1.35-8.41 2.25-10.76 3.58-2.36 7.65-.73 10.76 2.24Z"/>
  <rect width="131.87" height="22.81" x="47.15" y="409.37" fill="#455a64" rx="11.09"/>
  <path fill="#455a64" d="M149.26 368.42H76.91l-13.76 40.95h99.87l-13.76-40.95z"/>
  <path fill="#263238" d="m163.02 409.37-3.64-10.81h-92.6l-3.63 10.81h99.87z"/>
  <path fill="#ffc727" d="M113.08 315.1a10.26 10.26 0 0 0-10.23 9.53l-4.19 45.51a14.46 14.46 0 0 0 14.42 15.48 14.45 14.45 0 0 0 14.42-15.48l-4.19-45.51a10.25 10.25 0 0 0-10.23-9.53Z"/>
  <path fill="#ffc727" d="M101 382.42A16.52 16.52 0 0 0 129.56 370l-.08-.9-3-32.81-1.08-11.84a12.32 12.32 0 0 0-24.58 0l-4.1 44.61-.08.85a16.59 16.59 0 0 0 4.36 12.51Zm6.35-62.87a4.14 4.14 0 0 1 .58-.53 3.8 3.8 0 0 1 .57-.42 7.32 7.32 0 0 1 1.48-.81 5 5 0 0 1 .68-.25c.25-.08.51-.15.77-.21h.15l.66-.09a7.69 7.69 0 0 1 .83 0 5.85 5.85 0 0 1 .73 0 1.42 1.42 0 0 1 .36 0 2.74 2.74 0 0 1 .5.08 1.83 1.83 0 0 1 .25.06 3.68 3.68 0 0 1 .57.15 4.1 4.1 0 0 1 .59.2l.26.11a2.81 2.81 0 0 1 .39.19 3.9 3.9 0 0 1 .35.19c.16.09.31.2.48.31a4.52 4.52 0 0 1 .62.46 3.65 3.65 0 0 1 .58.53 7 7 0 0 1 .52.57 8.11 8.11 0 0 1 1.91 4.66l.9 9.77 3.19 34.55.11 1.23v.9a13.17 13.17 0 0 1-.11 1.68c0 .15-.06.32-.09.49l-.19.9v.07a12.39 12.39 0 0 1-24.35-2.7.38.38 0 0 1 0-.1.43.43 0 0 0 0-.05v-1.24a5.9 5.9 0 0 1 .06-.59v-.59l4.07-44.28a8.1 8.1 0 0 1 1.93-4.7 7 7 0 0 1 .65-.54Z"/>
  <path d="M101 382.42A16.52 16.52 0 0 0 129.56 370l-.08-.9-3-32.81-1.08-11.84a12.32 12.32 0 0 0-24.58 0l-4.1 44.61-.08.85a16.59 16.59 0 0 0 4.36 12.51Zm6.35-62.87a4.14 4.14 0 0 1 .58-.53 3.8 3.8 0 0 1 .57-.42 7.32 7.32 0 0 1 1.48-.81 5 5 0 0 1 .68-.25c.25-.08.51-.15.77-.21h.15l.66-.09a7.69 7.69 0 0 1 .83 0 5.85 5.85 0 0 1 .73 0 1.42 1.42 0 0 1 .36 0 2.74 2.74 0 0 1 .5.08 1.83 1.83 0 0 1 .25.06 3.68 3.68 0 0 1 .57.15 4.1 4.1 0 0 1 .59.2l.26.11a2.81 2.81 0 0 1 .39.19 3.9 3.9 0 0 1 .35.19c.16.09.31.2.48.31a4.52 4.52 0 0 1 .62.46 3.65 3.65 0 0 1 .58.53 7 7 0 0 1 .52.57 8.11 8.11 0 0 1 1.91 4.66l.9 9.77 3.19 34.55.11 1.23v.9a13.17 13.17 0 0 1-.11 1.68c0 .15-.06.32-.09.49l-.19.9v.07a12.39 12.39 0 0 1-24.35-2.7.38.38 0 0 1 0-.1.43.43 0 0 0 0-.05v-1.24a5.9 5.9 0 0 1 .06-.59v-.59l4.07-44.28a8.1 8.1 0 0 1 1.93-4.7 7 7 0 0 1 .65-.54Z" opacity=".1"/>
  <circle cx="113.08" cy="371.24" r="12.4" fill="#37474f" transform="rotate(-83 113.1 371.25)"/>
  <path fill="#455a64" d="M121.77 371.24a8.69 8.69 0 1 0-8.69 8.69 8.69 8.69 0 0 0 8.69-8.69Z"/>
  <circle cx="113.08" cy="325.28" r="8.11" fill="#37474f" transform="rotate(-45 113.08 325.27)"/>
  <path fill="#455a64" d="M118.77 325.28a5.69 5.69 0 1 0-5.69 5.68 5.69 5.69 0 0 0 5.69-5.68ZM70.35 233l6.84 48.17a7.78 7.78 0 0 1-6.61 8.79 7.77 7.77 0 0 1-8.79-6.61L55 235.14a7.77 7.77 0 0 1 6.6-8.79 7.76 7.76 0 0 1 8.75 6.65Z"/>
  <path fill="#37474f" d="M67.06 280.22a2.9 2.9 0 1 1 .72 4 2.91 2.91 0 0 1-.72-4Zm-6.82-48.08a2.9 2.9 0 1 1 .72 4 2.9 2.9 0 0 1-.72-4Z"/>
  <path fill="#455a64" d="m89.2 206.63 9.62 14.71-3.78 2.47-9.62-14.71z"/>
  <path fill="#37474f" d="m105.14 199.12 6.95 10.63-14.6 9.55-6.96-10.63z"/>
  <path fill="#455a64" d="m109.1 188.88 13.95 21.34-7.45 4.87-13.95-21.33z"/>
  <path fill="#37474f" d="M109.26 197.28a2.19 2.19 0 1 0-3-.63 2.19 2.19 0 0 0 3 .63Zm8.55 13.08a2.2 2.2 0 1 0-3-.64 2.21 2.21 0 0 0 3 .64Zm4.94-37.21-3.75-5.73-8.62 23.45 5.57 8.51 6.8-26.23zm15.18-3.99L136 166.2l-17 1.22 3.75 5.73 15.18-3.99zm4.99 34.85 3.75 5.74-24.93-1.52-5.57-8.51 26.75 4.29z"/>
  <path fill="#37474f" d="m152.66 191.7 1.94 2.96-7.93 15.09-3.75-5.74 9.74-12.31zm81.97 231.83c3.75-.36 49.66-2.28 50.3-2.28s2.47 7.27 2 8.24-36.73 11.1-44 11.66c-11 .86-32.86-4.6-33.82-5.13s-.17-6.33.64-7.4c.44-.53 21.14-4.73 24.88-5.09Z"/>
  <path fill="#ffc727" d="M211.05 430s6.42-13 14.38-17.78c3.13-1.85 19.58-5.55 19.58-5.55l28.54-6.85s7.57 9.56 8.28 12.27 1.86 12.28 1.86 12.28-32.64 11.14-42.69 11.15c-17.82.01-29.95-5.52-29.95-5.52Zm26.85-162.8c-4.24 6-11.74 56.38-9.83 61.19s23 10.3 28.26 6 10-63.43 6.28-67.73-8.94-6.78-13.13-6.3-7.94 1.72-11.58 6.84Z"/>
  <g opacity=".2">
    <path d="M255.2 269.62a.79.79 0 0 1-1 .37.79.79 0 1 1 .74-1.39.79.79 0 0 1 .26 1.02Zm0 0a.58.58 0 0 0-.32-.84.6.6 0 0 0-.72.28.6.6 0 0 0 .16.76.59.59 0 0 0 .88-.2Zm.21 7.31a.78.78 0 0 1-1 .37.8.8 0 0 1-.41-1.11.78.78 0 0 1 1.15-.27.77.77 0 0 1 .26 1.01Zm0 0a.58.58 0 0 0-.32-.84.6.6 0 0 0-.72.28.6.6 0 0 0 .16.76.59.59 0 0 0 .88-.2Zm.19 7.44a.79.79 0 0 1-1 .37.79.79 0 1 1 .74-1.39.79.79 0 0 1 .26 1.02Zm0 0a.59.59 0 0 0-.32-.85.61.61 0 0 0-.72.29.6.6 0 0 0 .16.76.59.59 0 0 0 .88-.2Zm-.55 7.53a.79.79 0 1 1-1.39-.74.79.79 0 1 1 1.39.74Zm0 0a.6.6 0 0 0-.33-.85.61.61 0 0 0-.72.29.6.6 0 1 0 1.05.56Zm-.3 7.24a.78.78 0 1 1-.23-1 .77.77 0 0 1 .23 1Zm0 0a.59.59 0 1 0-1-.56.61.61 0 0 0 .15.76.6.6 0 0 0 .85-.2Zm-.56 6.61a.78.78 0 1 1-1.38-.74.78.78 0 0 1 1.15-.27.77.77 0 0 1 .23 1.01Zm0 0a.59.59 0 1 0-1-.56.61.61 0 0 0 .15.76.6.6 0 0 0 .85-.2Zm-.87 6.66a.79.79 0 1 1-.23-1 .79.79 0 0 1 .23 1Zm0 0a.6.6 0 0 0-.33-.85.59.59 0 0 0-.71.28.61.61 0 0 0 .15.76.6.6 0 0 0 .89-.19Zm-.83 6.46a.78.78 0 1 1-.23-1 .78.78 0 0 1 .23 1Zm0 0a.59.59 0 0 0-.33-.84.58.58 0 0 0-.71.28.59.59 0 1 0 1 .56Zm-.76 5.99a.79.79 0 1 1-1.38-.75.8.8 0 0 1 1.15-.27.79.79 0 0 1 .23 1.02Zm0 0a.61.61 0 0 0-.32-.85.61.61 0 0 0-.72.29.59.59 0 1 0 1 .56Zm-1.2 6.14a.79.79 0 1 1-1.39-.74.79.79 0 0 1 1.39.74Zm0 0a.59.59 0 0 0-.33-.84.58.58 0 0 0-.71.28.59.59 0 0 0 .15.76.6.6 0 0 0 .89-.2Z"/>
    <path d="M257.3 265.31a136.84 136.84 0 0 1 .5 16.94c-.13 5.65-.49 11.3-1 16.93-.29 2.81-.58 5.62-1 8.43s-.76 5.6-1.17 8.39-.92 5.58-1.38 8.37l-1.65 8.31 1.46-8.35c.43-2.79.93-5.57 1.32-8.36s.8-5.6 1.1-8.4.62-5.62.89-8.43c.54-5.62.94-11.25 1.11-16.9.08-2.82.13-5.64.09-8.46s-.03-5.65-.27-8.47Z"/>
  </g>
  <path fill="#ffc727" d="M228.15 340.09c-.66 3.91 15.65 61.28 18.47 63.59s23.29-2 26.5-6.79.07-35.22-.91-41.05-15.47-23-17-22.17c-13.09 6.99-26.48 2.99-27.06 6.42Z"/>
  <g opacity=".2">
    <path d="M253.1 342.48a.79.79 0 1 1-.54-.89.78.78 0 0 1 .54.89Zm0 0a.59.59 0 1 0-.78.47.6.6 0 0 0 .78-.47Zm4 5.07a.78.78 0 0 1-.81.65.79.79 0 0 1-.73-.92.78.78 0 1 1 1.54.27Zm0 0a.59.59 0 1 0-.78.46.59.59 0 0 0 .78-.46Zm3.81 4.95a.8.8 0 0 1-.81.66.79.79 0 1 1 .27-1.55.79.79 0 0 1 .54.89Zm0 0a.59.59 0 1 0-.78.47.6.6 0 0 0 .78-.47Zm2.93 5.07a.79.79 0 1 1-.54-.9.8.8 0 0 1 .54.9Zm0 0a.59.59 0 1 0-.78.46.6.6 0 0 0 .78-.46Zm1.36 6.55a.78.78 0 1 1-1.54-.27.78.78 0 1 1 1.54.27Zm0 0a.59.59 0 1 0-1.16-.2.59.59 0 1 0 1.16.2Zm1.53 13.76a.78.78 0 1 1-1.54-.27.78.78 0 1 1 1.54.27Zm0 0a.59.59 0 1 0-1.16-.2.59.59 0 1 0 1.16.2Zm1.78 14.3a.78.78 0 1 1-.54-.89.79.79 0 0 1 .54.89Zm0 0a.59.59 0 1 0-.78.47.6.6 0 0 0 .78-.47ZM266 370.89a.79.79 0 1 1-.55-.89.8.8 0 0 1 .55.89Zm0 0a.59.59 0 1 0-1.17-.2.6.6 0 0 0 .38.67.61.61 0 0 0 .79-.47Zm1.37 14.01a.8.8 0 0 1-.81.66.79.79 0 1 1 .27-1.55.79.79 0 0 1 .54.89Zm0 0a.59.59 0 1 0-1.16-.2.59.59 0 0 0 .38.67.6.6 0 0 0 .78-.47Z"/>
    <path d="M253.15 338.23c3.15 3.87 6.23 7.81 9.13 11.88.73 1 1.44 2 2.11 3.11.34.52.66 1.07 1 1.62.16.28.28.59.42.88s.2.6.29.91a53.71 53.71 0 0 1 1.39 7.39c.64 5 1.08 9.94 1.5 14.92l.58 7.47c.19 2.48.37 5 .62 7.46-.34-2.47-.62-5-.9-7.44l-.79-7.43c-.5-5-.94-9.94-1.62-14.88a55.79 55.79 0 0 0-1.32-7.32c-.1-.29-.17-.59-.28-.88s-.23-.55-.38-.82c-.29-.54-.6-1.07-.94-1.6-.65-1.05-1.35-2.08-2-3.12a449.55 449.55 0 0 0-8.81-12.15Z"/>
  </g>
  <path fill="#37474f" d="M227.7 334.59c.34-3.25 1.63-16.5 2.4-16.87s4-1.05 4.63.35 2 14.94 3.39 15.54 13.3 2.27 19.17-1.22c1.1-.65 1.48 4.32.42 5.16s-10.29 4.39-18.76 3.2c-.9-.13-3 16.21-4.15 16.89s-4.14.6-4.87-.18-2.93-16.58-2.23-22.87Z"/>
  <ellipse cx="232.59" cy="337.18" fill="#455a64" rx="11.79" ry="8.48" transform="rotate(-88.39 232.59 337.18)"/>
  <path fill="#37474f" d="M246.62 403.68c-3.11-.55-1.88 4.34 4.23 5.2 9.27 1.3 23.21-5.18 24.26-8.22s-1-5.83-1.51-4.8-15.86 9.79-26.98 7.82Z"/>
  <path fill="#263238" d="M239.83 261.25c-2.17 5.17 4 11 8.9 13 8.37 3.5 13.22 2.43 15.48-1.44 2-3.48.54-12.94-7.51-16.16-8.49-3.35-15.86 2.2-16.87 4.6Z"/>
  <path fill="#ffc727" d="m289.44 421.46 3.66-19.11 27.31-3.84s13.54 21 13.48 20.93-44.45 2.02-44.45 2.02Z"/>
  <path d="m289.44 421.46 3.66-19.11 27.31-3.84s13.54 21 13.48 20.93-44.45 2.02-44.45 2.02Z" opacity=".1"/>
  <path fill="#37474f" d="M282 433.39s24.59-2 28.66-2.51 32.59 2.51 32.59 2.51 1.33 6.58 1.17 7.2-25.91 9.58-37 9.11-27.68-7.23-27.66-7.7 2.24-8.61 2.24-8.61Z"/>
  <path fill="#ffc727" d="M282.53 437.38s14.93 5.89 23.21 6 36.29-8 36.29-8-5.29-15.55-14-22.26-25.52-5.08-31.94-.68-13.56 24.94-13.56 24.94Zm9.63-172.23c4.95 5.38 18.72 54.45 17.42 59.47s-21.53 13.1-27.27 9.54-17.91-61.67-14.73-66.41 8-7.85 12.23-7.9 8.09.67 12.35 5.3Z"/>
  <g opacity=".2">
    <path d="M272.61 270.23a.8.8 0 0 1 1.18.13.79.79 0 0 1-.26 1.15.78.78 0 0 1-1-.24.8.8 0 0 1 .08-1.04Zm.8 1.13a.6.6 0 0 0 .06-.77.59.59 0 0 0-.74-.2.6.6 0 1 0 .68 1Zm-.09 6.16a.79.79 0 1 1 .91 1.27.78.78 0 0 1-1-.23.8.8 0 0 1 .09-1.04Zm.8 1.12a.61.61 0 0 0-.69-1 .61.61 0 0 0-.21.89.6.6 0 0 0 .9.11Zm-.05 6.28a.79.79 0 1 1 .91 1.28.81.81 0 0 1-1-.24.79.79 0 0 1 .09-1.04Zm.8 1.12a.6.6 0 1 0-.87-.04.61.61 0 0 0 .87 0Zm.7 6.28a.79.79 0 1 1 .91 1.28.81.81 0 0 1-1-.24.79.79 0 0 1 .09-1.04Zm.8 1.12a.6.6 0 0 0 .05-.77.58.58 0 0 0-.74-.19.6.6 0 0 0-.22.88.6.6 0 0 0 .91.08Zm.4 6.03a.79.79 0 1 1 .91 1.27.79.79 0 0 1-.91-1.27Zm.8 1.12a.6.6 0 0 0 .06-.77.61.61 0 0 0-.75-.2.6.6 0 1 0 .69 1Zm.58 5.41a.8.8 0 0 1 1.18.13.79.79 0 0 1-.26 1.15.78.78 0 0 1-1-.24.8.8 0 0 1 .08-1.04Zm.8 1.12a.58.58 0 0 0 .06-.76.59.59 0 1 0-1 .68.59.59 0 0 0 .99.03Zm.9 5.32a.8.8 0 0 1 1.18.13.79.79 0 0 1-.26 1.15.78.78 0 0 1-1-.24.8.8 0 0 1 .08-1.04Zm.8 1.12a.6.6 0 1 0-.9-.08.6.6 0 0 0 .9.08Zm.84 5.2a.79.79 0 1 1 .91 1.27.79.79 0 0 1-.91-1.27Zm.8 1.12a.6.6 0 1 0-.9-.08.6.6 0 0 0 .9.08Zm.71 4.72a.8.8 0 1 1-.1 1 .8.8 0 0 1 .1-1Zm.8 1.12a.6.6 0 1 0-.9-.08.6.6 0 0 0 .89.08Zm1.2 4.84a.79.79 0 1 1 .91 1.28.77.77 0 0 1-1-.24.79.79 0 0 1 .09-1.04Zm.8 1.13a.6.6 0 1 0-.9-.09.6.6 0 0 0 .86.09Z"/>
    <path d="M269.89 267.26a136.43 136.43 0 0 0 1.63 16.87c.84 5.59 1.9 11.15 3.1 16.67.64 2.76 1.28 5.51 2 8.24s1.46 5.46 2.22 8.18 1.62 5.42 2.42 8.13l2.68 8-2.5-8.1c-.77-2.71-1.62-5.41-2.35-8.14s-1.5-5.44-2.15-8.19-1.32-5.49-1.94-8.24a260.91 260.91 0 0 1-3.23-16.63c-.43-2.79-.83-5.58-1.14-8.39s-.63-5.58-.74-8.4Z"/>
  </g>
  <path fill="#ffc727" d="M312.3 330.3c.94 1.47 5.62 13.17 7.43 26.73 2.3 17.26 1.61 37.18.67 39-1.68 3.23-22.17 7.39-27 4.22s-10-31.23-11.1-38.09c-.95-5.84-.45-27 1.27-26.85 14.75 1.26 26.85-7.93 28.73-5.01Z"/>
  <g opacity=".2">
    <path d="M287.06 337.43a.8.8 0 0 1 1.17.2.79.79 0 0 1-1.33.84.81.81 0 0 1 .16-1.04Zm.74 1.17a.59.59 0 0 0 .1-.76.58.58 0 0 0-.73-.24.61.61 0 0 0-.27.87.6.6 0 0 0 .9.13Zm-.46 6.15a.79.79 0 1 1-.16 1 .78.78 0 0 1 .16-1Zm.74 1.16a.6.6 0 0 0-.63-1 .61.61 0 0 0-.27.87.6.6 0 0 0 .9.13Zm-.43 6.27a.79.79 0 0 1 1.17.19.79.79 0 1 1-1.33.84.78.78 0 0 1 .16-1.03Zm.74 1.16a.59.59 0 0 0 .1-.76.61.61 0 0 0-.73-.24.6.6 0 1 0 .63 1Zm.32 6.31a.8.8 0 0 1 1.17.2.79.79 0 1 1-1.17-.2Zm.74 1.17a.59.59 0 0 0 .1-.76.58.58 0 0 0-.73-.24.6.6 0 1 0 .63 1Zm.04 6.04a.8.8 0 0 1 1.17.2.78.78 0 1 1-1.17-.2Zm.74 1.17a.61.61 0 0 0-.63-1 .59.59 0 0 0-.27.87.61.61 0 0 0 .9.1Zm.26 5.39a.79.79 0 0 1 1.17.19.79.79 0 1 1-1.33.84.78.78 0 0 1 .16-1.03Zm.74 1.16a.6.6 0 0 0-.63-1 .6.6 0 1 0 .63 1Zm.58 5.42a.78.78 0 0 1 1.16.19.79.79 0 0 1-.33 1.14.79.79 0 0 1-.83-1.33Zm.73 1.16a.6.6 0 1 0-.9-.13.6.6 0 0 0 .9.13Zm.53 5.23a.8.8 0 0 1 1.17.2.79.79 0 0 1-.33 1.13.78.78 0 0 1-1-.29.8.8 0 0 1 .16-1.04Zm.73 1.17a.6.6 0 1 0-.89-.13.59.59 0 0 0 .89.13Zm.43 4.76a.78.78 0 0 1 1.16.19.79.79 0 1 1-1.16-.19Zm.73 1.16a.6.6 0 0 0-.63-1 .61.61 0 0 0-.27.87.6.6 0 0 0 .94.13Zm.88 4.91a.79.79 0 0 1 1.17.19.79.79 0 1 1-1.33.84.78.78 0 0 1 .16-1.03Zm.74 1.16a.59.59 0 0 0 .1-.76.59.59 0 1 0-.1.76Z"/>
    <path d="M284.64 336.1a129.74 129.74 0 0 0 .6 16.49c.5 5.48 1.23 10.93 2.09 16.37.47 2.71.94 5.42 1.5 8.12s1.12 5.39 1.72 8.07 1.28 5.36 1.92 8l2.19 8-2-8c-.62-2.68-1.3-5.35-1.86-8s-1.16-5.38-1.65-8.08-1-5.41-1.44-8.12c-.9-5.42-1.67-10.87-2.21-16.34-.26-2.73-.49-5.47-.63-8.22s-.28-5.54-.23-8.29Z"/>
  </g>
  <path fill="#37474f" d="M305.77 327.84c-1.39-3-7-15.06-7.81-15.15s-4.14.33-4.26 1.85 3 14.76 1.9 15.79a16.62 16.62 0 0 1-13.27 3.33c-1.25-.26 0 4.57 1.29 5s5.93 2.59 13.54-1.33c.81-.41 7.17 15.56 8.5 15.82s4.11-.8 4.54-1.78-1.74-17.81-4.43-23.53Z"/>
  <path fill="#455a64" d="M290 336.45a11.79 11.79 0 1 0 6.84-15.21 11.81 11.81 0 0 0-6.84 15.21Z"/>
  <path fill="#37474f" d="M320.31 395.36c2.61-1.78 3.49 3.2-1.73 6.48-7.93 5-23.29 4.79-25.49 2.45s-1.45-5.74-.59-5 18.5 2.43 27.81-3.93Z"/>
  <path fill="#263238" d="M290.38 261.24c1.95 5-4.13 10.42-8.8 12.25-8.08 3.14-12.69 2-14.75-1.74-1.86-3.37-.22-12.38 7.55-15.26 8.19-3.04 15.1 2.43 16 4.75Z"/>
  <path fill="#ffc727" d="M209.68 208.8c-2.6 3.85-1 22.88 3.66 25.28s34.43-17.18 35.81-20.28 5.52-21.93 2.2-21.79-36.35 8.86-41.67 16.79Z"/>
  <path d="M245.48 209.68a.84.84 0 0 1-.92-.64.85.85 0 1 1 1.67-.19.85.85 0 0 1-.75.83Zm0 0a.64.64 0 0 0 .54-.81.63.63 0 0 0-.69-.45.64.64 0 0 0-.57.6.65.65 0 0 0 .72.66Zm-6.96 4.13a.84.84 0 1 1 .75-.83.84.84 0 0 1-.75.83Zm0 0a.63.63 0 0 0 .54-.8.64.64 0 0 0-.69-.46.63.63 0 1 0 .15 1.26ZM232 218a.84.84 0 1 1 .76-.83.85.85 0 0 1-.76.83Zm0 0a.63.63 0 1 0-.71-.66.65.65 0 0 0 .71.66Zm-6.18 3.57a.84.84 0 1 1-.19-1.67.84.84 0 1 1 .19 1.67Zm0 0a.63.63 0 1 0-.14-1.26.63.63 0 1 0 .14 1.26Zm-6.38 3.32a.85.85 0 0 1-.92-.64.85.85 0 1 1 1.67-.19.85.85 0 0 1-.75.83Zm0 0a.65.65 0 0 0 .55-.81.64.64 0 0 0-.69-.45.63.63 0 0 0-.57.6.64.64 0 0 0 .71.66Zm-6.19 3.24a.84.84 0 1 1-.2-1.67.84.84 0 1 1 .2 1.67Zm0 0a.63.63 0 1 0-.72-.66.65.65 0 0 0 .72.66Zm35.38-17.53a299.82 299.82 0 0 1-16.53 10.75c-2.81 1.7-5.67 3.35-8.56 4.92s-5.83 3-8.84 4.38c3-1.47 5.82-3.05 8.68-4.66s5.69-3.29 8.5-5 5.61-3.42 8.4-5.15 5.58-3.47 8.35-5.24Z" opacity=".2"/>
  <path fill="#ffc727" d="M202.22 233.58c-7.53 0-38.36-24.65-37.94-30.32s13.84-17.78 19-17.06 21.89 17.62 24 21.36 2.97 26.02-5.06 26.02Z"/>
  <path d="M189.72 219.39a.84.84 0 1 1 1.06.37.87.87 0 0 1-1.06-.37Zm0 0a.64.64 0 1 0 1.11-.63.64.64 0 1 0-1.11.63Zm-5.56-4.56a.85.85 0 1 1 1.06.36.86.86 0 0 1-1.06-.36Zm0 0a.64.64 0 1 0 .33-.92.65.65 0 0 0-.33.92Zm-5.41-4.42a.84.84 0 1 1 1.46-.84.84.84 0 1 1-1.46.84Zm0 0a.64.64 0 0 0 .95.18.64.64 0 0 0-.63-1.1.64.64 0 0 0-.32.92Zm-5.02-4.08a.84.84 0 1 1 1.46-.84.84.84 0 1 1-1.46.84Zm0 0a.63.63 0 1 0 .32-.92.64.64 0 0 0-.32.92ZM188.11 220a31 31 0 0 1-5-3.14c-1.58-1.17-3.08-2.44-4.55-3.74s-2.87-2.68-4.25-4.07l-2-2.13-1.95-2.2 4.2 4.1c1.43 1.34 2.83 2.7 4.31 4s2.94 2.58 4.46 3.8q1.15.91 2.34 1.77a24.57 24.57 0 0 0 2.44 1.61Z" opacity=".2"/>
  <path fill="#37474f" d="M207.11 235.84c-9.07-1.43-17-8.59-17.25-9.32s1.71-2.8 3-3.23 10.95 3.84 11.63 2.63 4.26-13.87 1.64-19.87c-.47-1.08 5-.69 5.67.35s1.35 12.31-.53 19.93c-.2.81 13.55-1.73 14.07-.6s1.82 2.82 1 3.41-9.86 8.17-19.23 6.7Z"/>
  <path fill="#455a64" d="M209 222c5.93.78 10.29 4.86 9.73 9.13s-5.82 7.09-11.75 6.31-10.28-4.86-9.72-9.12 5.79-7.08 11.74-6.32Z"/>
  <path fill="#37474f" d="M162.75 202c2.3 2.32 8.71-.08 13-3.68s8.76-9.5 7.53-12.13c-.86-1.83-5.35-2.92-13.84 3.35s-7.81 11.33-6.69 12.46Z"/>
  <path fill="#ffc727" d="M163.77 199.89c3.83 1 15.72-8.8 16.24-13 .17-1.4-10.61-19.84-14.21-19.84s-17.63 16.15-15.5 20 11.45 12.3 13.47 12.84Z"/>
  <path fill="#37474f" d="M150.14 186.7c1.28.75 3.87-.58 5.25-2.71 1.93-3 1.77-5.1.87-6-.64-.64-3.48-.58-5.74 2.91-1.83 2.8-1.39 5.2-.38 5.8Zm8.67-13.01c1 1.06 3.89.45 5.78-1.25 2.64-2.38 3-4.45 2.4-5.57-.44-.79-3.2-1.47-6.3 1.3-2.5 2.24-2.69 4.68-1.88 5.52Z"/>
  <path fill="#ffc727" d="M166.11 166.53c-1.8-2.29-7.72-8.16-8.94-8.16-3.53 0-5.21 3.71-4.57 5.23.37.9 4.77 9 7 9.18 3.33.22 7.63-4.78 6.51-6.25ZM149.16 185c-1.29-2.65-4.23-9.76-3.53-11.89s2.38-3.5 3.53-3.23 6.86 6.83 7 9-5.93 8.37-7 6.12Z"/>
  <path fill="#37474f" d="M152.31 163.62c1.16.74 3.11-.31 4.39-1.73 1.68-1.87 1.38-3.71.35-4.3-.67-.39-2.76-.2-4.12 1.95-1 1.57-1.54 3.46-.62 4.08Zm-6.87 10.21c.36 1.11 2.57 1.07 4 .12s2.16-2.54 1.46-3.37a2.89 2.89 0 0 0-4 .2c-1.22 1.09-1.78 2.1-1.46 3.05Z"/>
  <path fill="#ffc727" d="M152 163.23c-2.69-.36-8.5-1.75-10.85-4.1-1.57-1.57-.58-2.93 1-3.2s12.51.34 14.11 2-2.1 5.6-4.26 5.3Zm-6.17 10.15c-.92-.83-.2-7.4.6-8.91s2.55-2.07 3.2-1 1.22 7.06.92 7.95c-.35 1.01-3.42 3.12-4.72 1.96Z"/>
  <path fill="#37474f" d="M239.18 241.37c0 2.15 1 19.22 3 21.13s10 5.4 16.07 6.55c8.11 1.54 19.21-.54 23.56-3.19s10.64-26 9.44-27-26.4-5.86-35.97-4.86-16.14 5.43-16.1 7.37Z"/>
  <path fill="#263238" d="M242.33 261.54a83.49 83.49 0 0 0 9.34 4.08 33.83 33.83 0 0 0 10 2.21 51.1 51.1 0 0 0 10.13-.65 94.91 94.91 0 0 0 9.84-2.07 76.5 76.5 0 0 1-9.8 2.23 51.38 51.38 0 0 1-10.17.73 34 34 0 0 1-10-2.31 68.83 68.83 0 0 1-9.34-4.22Z"/>
  <path fill="#263238" d="M241.92 259.17a86.14 86.14 0 0 0 9.74 4.25 34.78 34.78 0 0 0 10.34 2.31 54 54 0 0 0 10.56-.67 97.65 97.65 0 0 0 10.25-2.17 80.86 80.86 0 0 1-10.21 2.33 53.55 53.55 0 0 1-10.6.78 35.19 35.19 0 0 1-10.43-2.4 71.7 71.7 0 0 1-9.65-4.43Z"/>
  <path fill="#263238" d="M241.59 257a90.58 90.58 0 0 0 10.09 4.41 36.5 36.5 0 0 0 10.75 2.39 55.39 55.39 0 0 0 10.93-.7 101.62 101.62 0 0 0 10.64-2.29 82.84 82.84 0 0 1-10.58 2.41 55.77 55.77 0 0 1-11 .78 36.37 36.37 0 0 1-10.8-2.49 74.36 74.36 0 0 1-10.03-4.51Z"/>
  <path fill="#263238" d="M242 255a88.77 88.77 0 0 0 10.09 4.41 36.58 36.58 0 0 0 10.75 2.4 56.16 56.16 0 0 0 10.93-.7 104.25 104.25 0 0 0 10.62-2.25 82.43 82.43 0 0 1-10.58 2.4 55.77 55.77 0 0 1-11 .79 36.68 36.68 0 0 1-10.8-2.49A75.67 75.67 0 0 1 242 255Z"/>
  <path fill="#263238" d="M241.64 252.62a92.4 92.4 0 0 0 10.44 4.57 37.81 37.81 0 0 0 11.13 2.48 57.77 57.77 0 0 0 11.32-.72 106.36 106.36 0 0 0 11-2.34 85 85 0 0 1-11 2.49 57.28 57.28 0 0 1-11.36.81 37.66 37.66 0 0 1-11.17-2.57 77.8 77.8 0 0 1-10.36-4.72Z"/>
  <path fill="#263238" d="M241.09 250.05a95.54 95.54 0 0 0 10.72 4.69 38.58 38.58 0 0 0 11.43 2.55 58.62 58.62 0 0 0 11.63-.75 107 107 0 0 0 11.3-2.4 88 88 0 0 1-11.26 2.56 59.6 59.6 0 0 1-11.67.83 39.05 39.05 0 0 1-11.49-2.64 82 82 0 0 1-10.66-4.84Z"/>
  <path fill="#263238" d="M240.67 247.6a97.62 97.62 0 0 0 11.13 4.87 40.21 40.21 0 0 0 11.87 2.65 60.89 60.89 0 0 0 12.08-.78 109.55 109.55 0 0 0 11.73-2.49 91.29 91.29 0 0 1-11.69 2.65 61.17 61.17 0 0 1-12.12.86 40.37 40.37 0 0 1-11.93-2.74 84.4 84.4 0 0 1-11.07-5.02Z"/>
  <path fill="#263238" d="M240.46 245.25a99.4 99.4 0 0 0 11.43 5 41.43 41.43 0 0 0 12.2 2.73 63.47 63.47 0 0 0 12.41-.8 112.94 112.94 0 0 0 12-2.57 94 94 0 0 1-12 2.72 63 63 0 0 1-12.45.89 41.59 41.59 0 0 1-12.26-2.82 85.09 85.09 0 0 1-11.33-5.15Z"/>
  <path fill="#263238" d="M240.91 242.82a99.55 99.55 0 0 0 11.44 5 41.37 41.37 0 0 0 12.19 2.73 64.2 64.2 0 0 0 12.41-.8 113.12 113.12 0 0 0 12.05-2.56 94.59 94.59 0 0 1-12 2.72 62.94 62.94 0 0 1-12.45.89 41.84 41.84 0 0 1-12.26-2.8 86.5 86.5 0 0 1-11.38-5.18Z"/>
  <path fill="#263238" d="M241.37 240.39a99.4 99.4 0 0 0 11.43 5 41.36 41.36 0 0 0 12.2 2.73 63.48 63.48 0 0 0 12.41-.81 112.91 112.91 0 0 0 12-2.56 94 94 0 0 1-12 2.72 63 63 0 0 1-12.45.89 41.84 41.84 0 0 1-12.26-2.82 86.37 86.37 0 0 1-11.33-5.15Z"/>
  <path fill="#263238" d="M241.82 238a99.55 99.55 0 0 0 11.44 5 41 41 0 0 0 12.19 2.72 62.71 62.71 0 0 0 12.41-.8 112.91 112.91 0 0 0 12-2.56 94 94 0 0 1-12 2.72 62.19 62.19 0 0 1-12.45.88 41.51 41.51 0 0 1-12.25-2.81 86.5 86.5 0 0 1-11.34-5.15Z"/>
  <path fill="#263238" d="M242.28 235.53a99.4 99.4 0 0 0 11.43 5 41 41 0 0 0 12.2 2.72 62.56 62.56 0 0 0 12.4-.8 112.57 112.57 0 0 0 12.05-2.56 94.59 94.59 0 0 1-12 2.72 62.89 62.89 0 0 1-12.44.88 41.51 41.51 0 0 1-12.26-2.81 86.37 86.37 0 0 1-11.38-5.15Z"/>
  <path fill="#37474f" d="M255 192c-4-1.75-9.19 1.54-11.95 5.16-4.25 5.56-7 21.2-2.8 22.53S259.86 194.14 255 192Z"/>
  <path fill="#ffc727" d="M270.58 186.87c-9.28 0-21.84 5.45-25.91 15.58-3.29 8.17-8.49 35.47-6.51 46.77a6.58 6.58 0 0 0 3.23 4.14c3.71 0 7.42-13 14.07-14 7.83-1.16 10.09 22.49 23.88 20.53 2.78-.39 8.88-4.52 10.86-8.77 1.67-3.59 9.42-38 6.11-48.78-2.55-8.34-15.73-15.43-25.73-15.47Z"/>
  <path d="M286.43 223.07a1 1 0 1 1-.2-1.34 1 1 0 0 1 .2 1.34Zm0 0a.77.77 0 0 0-.34-1.12.76.76 0 0 0-.95.3.77.77 0 0 0 .12 1 .78.78 0 0 0 1.17-.18Zm-1.76 8.52a1 1 0 1 1-.2-1.34 1 1 0 0 1 .2 1.34Zm0 0a.77.77 0 1 0-1.16.17.78.78 0 0 0 1.16-.17Zm-1.67 8.28a1 1 0 1 1-.21-1.34 1 1 0 0 1 .21 1.34Zm0 0a.77.77 0 1 0-1.3-.82.77.77 0 1 0 1.3.82Zm-1.56 7.67a1 1 0 0 1-1.3.38 1 1 0 1 1 1.1-1.72 1 1 0 0 1 .2 1.34Zm0 0a.77.77 0 1 0-1.16.17.78.78 0 0 0 1.16-.17Zm-2.14 7.86a1 1 0 0 1-1.72-1.1 1 1 0 1 1 1.72 1.1Zm0 0a.78.78 0 0 0-.34-1.13.77.77 0 1 0 .34 1.13Zm9.7-34.49a74.54 74.54 0 0 1-1.32 9.53c-.6 3.15-1.32 6.28-2.08 9.39s-1.63 6.21-2.53 9.28l-1.4 4.61-1.5 4.56 2.53-9.27c.82-3.1 1.66-6.19 2.41-9.3s1.51-6.22 2.2-9.34c.34-1.57.65-3.14.94-4.71s.55-3.15.75-4.75Z" opacity=".2"/>
  <path fill="#37474f" d="M289.25 195.63c4.33-.19 8 4.76 9.28 9.13 2 6.72-1.14 22.3-5.53 22s-9.06-30.9-3.75-31.13Zm-36.5 14.73c-1.48 5.47.79 10.83 5.07 12s8.94-2.33 10.42-7.8-.79-10.83-5.07-12-8.94 2.34-10.42 7.8Z"/>
  <path fill="#ffc727" d="M253.34 210.48c-1.25 4.61.67 9.14 4.27 10.11s7.55-2 8.79-6.57-.66-9.13-4.27-10.11-7.54 1.97-8.79 6.57Zm84.86 29.72c4.87 5.74 4.95 38.48.35 41.83s-22.5 1-25.27-3.42-.74-28.08.77-32.08 18.95-12.45 24.15-6.33Z"/>
  <path d="M334.92 252.13a.84.84 0 1 1-.39-1 .85.85 0 0 1 .39 1Zm0 0a.64.64 0 0 0-.47-.85.63.63 0 0 0-.72.41.64.64 0 0 0 .27.78.65.65 0 0 0 .92-.34Zm.08 7.2a.85.85 0 1 1-.4-1.05.85.85 0 0 1 .4 1.05Zm0 0a.64.64 0 1 0-1.19-.45.64.64 0 0 0 .27.78.65.65 0 0 0 .92-.33Zm0 6.99a.84.84 0 1 1-.39-1.05.85.85 0 0 1 .39 1.05Zm0 0a.63.63 0 1 0-.91.33.64.64 0 0 0 .91-.33Zm.05 6.47a.85.85 0 1 1-.4-1.05.85.85 0 0 1 .4 1.05Zm0 0a.64.64 0 1 0-1.19-.45.64.64 0 0 0 .27.78.65.65 0 0 0 .92-.33ZM336.4 253a31.86 31.86 0 0 1 .75 5.84c.1 2 .08 3.92 0 5.88s-.24 3.92-.43 5.88l-.35 2.92-.45 2.9.48-5.85c.13-2 .28-3.91.33-5.86s.11-3.91.08-5.86c0-1-.05-2-.12-2.93a23.69 23.69 0 0 0-.29-2.92Z" opacity=".2"/>
  <path fill="#ffc727" d="M316.09 243.07c4.49 1.18 21.92-6.63 22.67-11.78s-39.3-33.84-45.64-34.13c-3.39-.15-1.3 13 .72 19.71.97 3.18 12.99 23.75 22.25 26.2Z"/>
  <path d="M294.07 202.77a.85.85 0 1 1-1.46.86.85.85 0 1 1 1.46-.86Zm0 0a.64.64 0 1 0-1.1.65.64.64 0 0 0 1.1-.65Zm6.59 4.7a.85.85 0 1 1-1.46.86.85.85 0 1 1 1.46-.86Zm0 0a.64.64 0 1 0-.32.92.64.64 0 0 0 .32-.92Zm6.47 4.3a.84.84 0 1 1-1.06-.35.85.85 0 0 1 1.06.35Zm0 0a.65.65 0 0 0-1-.17.64.64 0 0 0-.13.81.63.63 0 0 0 .78.28.64.64 0 0 0 .35-.92Zm5.75 4.23a.84.84 0 1 1-1.07-.35.86.86 0 0 1 1.07.35Zm0 0a.65.65 0 0 0-1-.17.64.64 0 0 0 .64 1.09.64.64 0 0 0 .36-.92Zm5.61 4.46a.84.84 0 1 1-1.45.85.84.84 0 1 1 1.45-.85Zm0 0a.63.63 0 1 0-1.09.64.62.62 0 0 0 .77.28.64.64 0 0 0 .32-.92Zm5.51 4.36a.84.84 0 1 1-1.07-.35.85.85 0 0 1 1.07.35Zm0 0a.64.64 0 0 0-1-.17.64.64 0 0 0 .64 1.09.64.64 0 0 0 .36-.92Zm-30.36-25.3c2.82 1.69 5.6 3.45 8.35 5.25s5.46 3.66 8.16 5.54 5.35 3.83 8 5.85 5.15 4.1 7.58 6.31c-2.54-2.1-5.15-4.09-7.78-6.06s-5.3-3.88-8-5.76-5.39-3.76-8.1-5.61-5.47-3.7-8.21-5.52Z" opacity=".2"/>
  <path fill="#37474f" d="M342.46 236.6c1.64 9-.25 18.84-.86 19.33s-3.85-.57-4.7-1.68-1.58-11.71-3-11.95-13.56.47-20.19 5c-1 .66-1.41-4.49-.64-5.46s11.18-5.32 19-6.05c.84-.08-5.12-11.85-5.19-13.09-.1-1.78 2.29-3.26 3.11-2.72s10.78 7.29 12.47 16.62Z"/>
  <path fill="#455a64" d="M328.79 239.38c-1.22-5.86 1.21-11.31 5.42-12.19s8.61 3.16 9.83 9-1.21 11.31-5.42 12.19-8.62-3.15-9.83-9Z"/>
  <path fill="#37474f" d="M339.06 280.4c-.37-3.24-6.9-5.32-12.46-5.11s-12.76 2.06-13.41 4.89c-.45 2 2.4 5.6 12.95 5.91s13.1-4.09 12.92-5.69Z"/>
  <path fill="#ffc727" d="M336 280c-2.81-2.81-18-.31-20.58 3.08-.86 1.12-1.92 23 1.19 24.78s26.81-4.84 26.92-9.26-6.1-17.18-7.53-18.6Z"/>
  <path fill="#37474f" d="M325.37 305.68c-.27-1.46-3-2.56-5.48-2.21-3.53.49-5 2-5.13 3.26-.07.9 1.83 3 5.95 2.46 3.29-.45 4.87-2.35 4.66-3.51Z"/>
  <path fill="#ffc727" d="M315.31 307.51c.2 2.9 1.8 11.08 2.82 11.77 2.91 2 6.39-.15 6.72-1.76.19-.95 1.12-10.16-.63-11.51-2.66-2.01-9.04-.31-8.91 1.5Z"/>
  <path fill="#37474f" d="M325.09 317.66c-.54-1.25-2.74-1.49-4.6-1-2.44.6-3.23 2.3-2.7 3.37.34.69 2.17 1.71 4.5.69 1.71-.72 3.24-2.06 2.8-3.06Z"/>
  <path fill="#ffc727" d="M324.68 318.94c1.76 2.07 5.17 7 5.36 10.3.12 2.21-1.52 2.57-2.89 1.71s-9.1-8.6-9.18-10.9 5.27-2.79 6.71-1.11Z"/>
  <path fill="#37474f" d="M333.3 303.57c-.31-1.45-3.05-2.46-5.55-2-3.51.61-4.95 2.14-5 3.43 0 .9 1.93 2.95 6 2.26 3.33-.59 4.8-2.54 4.55-3.69Z"/>
  <path fill="#ffc727" d="M323.31 305.74c.3 2.89 2.18 11 3.21 11.67 3 1.89 6.39-.36 6.66-2 .16-1 .78-10.19-1-11.49-2.74-1.92-9.06.01-8.87 1.82Z"/>
  <path fill="#37474f" d="M333.43 315.55c-.58-1.23-2.79-1.39-4.64-.87-2.41.68-3.14 2.4-2.58 3.46.36.68 2.23 1.63 4.53.54 1.67-.8 3.16-2.14 2.69-3.13Z"/>
  <path fill="#ffc727" d="M333.06 316.85c1.83 2 5.41 6.79 5.7 10.11.2 2.2-1.43 2.61-2.83 1.81s-9.38-8.29-9.54-10.58 5.18-2.98 6.67-1.34Z"/>
  <path fill="#37474f" d="M339.7 299.77c-.59-1.3-3.36-1.7-5.63-.79-3.19 1.28-4.24 3-4 4.24.14.86 2.4 2.39 6.13.91 2.97-1.19 3.97-3.33 3.5-4.36Z"/>
  <path fill="#ffc727" d="M330.72 303.82c.87 2.67 4.27 9.94 5.38 10.35 3.19 1.18 5.94-1.63 5.87-3.21 0-.94-1.31-9.76-3.27-10.62-2.96-1.34-8.52 1.81-7.98 3.48Z"/>
  <path fill="#37474f" d="M342.23 311c-.8-1.05-2.91-.76-4.54.1-2.14 1.13-2.48 2.9-1.74 3.78.47.57 2.42 1.09 4.37-.4 1.42-1.04 2.55-2.61 1.91-3.48Z"/>
  <path fill="#ffc727" d="M342.15 312.33c2.12 1.52 6.45 5.31 7.4 8.38.63 2-.83 2.75-2.31 2.27s-10.5-5.92-11.11-8.05 4.28-3.84 6.02-2.6Z"/>
  <path fill="#37474f" d="M344.61 295.38c-.84-1-3.41-.68-5.2.7-2.52 1.93-3 3.73-2.53 4.77.34.73 2.73 1.53 5.68-.71 2.37-1.81 2.73-3.96 2.05-4.76Z"/>
  <path fill="#ffc727" d="M337.64 301.21c1.43 2.16 6.27 7.78 7.35 7.87 3.13.26 4.88-2.93 4.42-4.32-.26-.82-3.59-8.35-5.54-8.63-2.96-.42-7.12 3.73-6.23 5.08Z"/>
  <path fill="#37474f" d="M348.78 303.22c-1.11-.51-2.7.66-3.65 2.08-1.24 1.85-.74 3.44.25 3.83.64.25 2.45-.18 3.38-2.25.67-1.5.9-3.27.02-3.66Z"/>
  <path fill="#ffc727" d="M349.28 304.3c2.39.31 7.57 1.49 9.69 3.56 1.4 1.38.54 2.6-.88 2.86s-11.13-.2-12.56-1.66 1.79-5 3.75-4.76Zm-86.2-105.84c4.09.69 11.46-6.5 13.87-11.68.16-.35-.6-3.93-1.32-8.32a85.58 85.58 0 0 1-1-8.38c0-.56-1.89.6-1.89.6l-3.49 1.09-11.56 3.62a44 44 0 0 1 2.31 10.43 7 7 0 0 1 0 1.13 1 1 0 0 0 0 .19c-.23 2.16-.88 10.65 3.08 11.32Z"/>
  <path fill="#263238" d="M260 187a1 1 0 0 0 0 .19 11.87 11.87 0 0 0 1.78 0c11.57-1 12.05-15.85 12.05-15.85l-4.57.5-11.56 3.62a44 44 0 0 1 2.3 10.36 7 7 0 0 1 0 1.18Z"/>
  <path fill="#37474f" d="M260 187.14c-1.42 2-3.35 11.49 2.7 13 7.2 1.78 14.3-8 15.06-12 .54-2.85-1-3.54-1-3.54-2.49 6.13-7.35 14-13.49 12.89-3.93-.72-3.27-10.35-3.27-10.35Zm-29.58-32.63c-1 .18-7 6.73-6.93 7.51s2.89 11 3.1 11.61 8.43 2.2 8.73 1.91-3.82-21.23-4.9-21.03Z"/>
  <path fill="#ffc727" d="M225.66 131.56c-.6 1.72 7.32 42.27 7.89 43.76s8.75 5.65 10.6 5.17 41.24-4.53 43.2-5.17 14.37-7 15.26-8.44-2.87-45-3-46.23-16.37-6.75-17.57-6.92-48.3 6.83-49.76 7.89-5.93 7.99-6.62 9.94Z"/>
  <path fill="#263238" d="M269.59 149.84c5.63-1.13 7.48 10.22 2.26 11.26s-6.98-10.32-2.26-11.26Zm-28.01 3.56c-5.73.49-4.33 11.9 1 11.45s3.79-11.85-1-11.45Zm11 10.29a11.12 11.12 0 0 1 7.63-.94 11.28 11.28 0 0 1-7.63.94Z"/>
  <path fill="#ffc727" d="M232.78 175.42c.43.47 4.88-.28 5.1-.48s-6.32-35.82-6.19-36.86 41.25-6 42.42-5.85 6.2 38.39 7.11 38.68 24.49-3.79 24.59-4.48-4.57-45.69-5.06-46.27-17.81-7.27-19-7.37-48.3 7.46-49.67 8.15-6.64 9.41-7 10.49 7.14 43.4 7.7 43.99Z"/>
  <path d="M232.78 175.42c.43.47 4.88-.28 5.1-.48s-6.32-35.82-6.19-36.86 41.25-6 42.42-5.85 6.2 38.39 7.11 38.68 24.49-3.79 24.59-4.48-4.57-45.69-5.06-46.27-17.81-7.27-19-7.37-48.3 7.46-49.67 8.15-6.64 9.41-7 10.49 7.14 43.4 7.7 43.99Z" opacity=".2"/>
  <path fill="#37474f" d="M290.5 168c-1-.61-3.07-16.47-2.56-17 .35-.39 10-3 15-2.81a24.28 24.28 0 0 1 5.86 1.65c.68.31 2.35 12.83 1.84 13.6a49.1 49.1 0 0 1-12 4.41 37.65 37.65 0 0 1-8.14.15Z"/>
  <path fill="#455a64" d="M295.53 152.69c.11-.51 12.18-3.18 13.27-2.91s3.11 12.62 1.84 13.6-11.71 5.09-12.36 4.31-3.36-12.25-2.75-15Z"/>
</svg>
