<svg xmlns="http://www.w3.org/2000/svg" viewBox="0 0 750 500">
  <g fill="#ebebeb">
    <ellipse cx="371" cy="396.82" rx="274.84" ry="23.23"/>
  </g>
  <path fill="#263238" d="m47.51 341.89 81.87-.24 81.87-.09 163.75-.17 163.75.17 81.87.09 81.87.24-81.87.25-81.87.09-163.75.16-163.75-.16-81.87-.09-81.87-.25z"/>
  <path fill="#c7c7c7" d="M47.51 331.32h654.98v10.58H47.51z"/>
  <path fill="#263238" d="M81.21 331.32a28.18 28.18 0 0 1 0 10.57 24.22 24.22 0 0 1-.5-5.28 24.89 24.89 0 0 1 .5-5.29Zm39.17 0a24.89 24.89 0 0 1 .5 5.29 24.22 24.22 0 0 1-.5 5.28 24.85 24.85 0 0 1-.5-5.28 25.55 25.55 0 0 1 .5-5.29Zm39.17 0a28.18 28.18 0 0 1 0 10.57 28.18 28.18 0 0 1 0-10.57Zm39.18 0a28.75 28.75 0 0 1 0 10.57 28.18 28.18 0 0 1 0-10.57Zm39.17 0a28.18 28.18 0 0 1 0 10.57 28.18 28.18 0 0 1 0-10.57Zm39.17 0a25.55 25.55 0 0 1 .5 5.29 24.85 24.85 0 0 1-.5 5.28 24.22 24.22 0 0 1-.5-5.28 25.55 25.55 0 0 1 .5-5.29Zm39.17 0a24.89 24.89 0 0 1 .5 5.29 24.22 24.22 0 0 1-.5 5.28 28.18 28.18 0 0 1 0-10.57Zm39.17 0a28.18 28.18 0 0 1 0 10.57 28.18 28.18 0 0 1 0-10.57Zm39.18 0a28.18 28.18 0 0 1 0 10.57 28.18 28.18 0 0 1 0-10.57Zm39.17 0a28.18 28.18 0 0 1 0 10.57 24.22 24.22 0 0 1-.5-5.28 24.89 24.89 0 0 1 .5-5.29Zm39.17 0a25.55 25.55 0 0 1 .5 5.29 24.22 24.22 0 0 1-.5 5.28 24.85 24.85 0 0 1-.5-5.28 25.55 25.55 0 0 1 .5-5.29Zm39.17 0a28.18 28.18 0 0 1 0 10.57 28.18 28.18 0 0 1 0-10.57Zm39.18 0a28.75 28.75 0 0 1 0 10.57 28.18 28.18 0 0 1 0-10.57Zm39.17 0a28.18 28.18 0 0 1 0 10.57 28.18 28.18 0 0 1 0-10.57Zm39.17 0a25.55 25.55 0 0 1 .5 5.29 24.85 24.85 0 0 1-.5 5.28 24.22 24.22 0 0 1-.5-5.28 24.89 24.89 0 0 1 .5-5.29Zm39.17 0a24.89 24.89 0 0 1 .5 5.29 24.22 24.22 0 0 1-.5 5.28 28.18 28.18 0 0 1 0-10.57Z"/>
  <path fill="#ffc727" d="M675.81 314.93h-4.52l1.15-96.48.1-8.04h2.02l.1 8.04 1.15 96.48z"/>
  <path fill="#263238" d="M674.66 218.45h-2.22l.1-8.04h2.02l.1 8.04z"/>
  <path fill="#ffc727" d="m662.28 181.15 1.77 31.49 2.08.33 1.89.3v-34l-4.02 1.32-1.72.56z"/>
  <path fill="#ffc727" d="M664.24 184.83s-7.67.07-7.51.5 3.24 1.29 3.52 1.49 3.2 5.79 4 5.79-.01-7.78-.01-7.78Zm.56 8.91s-7.66.08-7.51.51 3.25 1.29 3.52 1.49 3.21 5.78 4 5.78-.01-7.78-.01-7.78Zm.57 8.92s-7.67.08-7.51.51 3.24 1.29 3.52 1.48 3.2 5.79 4 5.79-.01-7.78-.01-7.78Z"/>
  <path d="m664 180.59 2.13 32.38 1.89.3v-34l-4.02 1.32z" opacity=".1"/>
  <path fill="#ffc727" d="m684.82 181.15-1.77 31.49-2.08.33-1.89.3v-34l4.02 1.32 1.72.56z"/>
  <path fill="#ffc727" d="M682.87 184.83s7.66.07 7.5.5-3.24 1.29-3.52 1.49-3.2 5.79-4 5.79.02-7.78.02-7.78Zm-.57 8.91s7.67.08 7.51.51-3.25 1.29-3.52 1.49-3.21 5.78-4 5.78.01-7.78.01-7.78Zm-.56 8.92s7.66.08 7.5.51-3.24 1.29-3.52 1.48-3.2 5.79-4 5.79.02-7.78.02-7.78Z"/>
  <path d="m683.1 180.59-2.13 32.38-1.89.3v-34l4.02 1.32z" opacity=".1"/>
  <path fill="#ffc727" d="m680.75 176.71-.63 37.33h-13.14l-.63-37.33h14.4z"/>
  <path fill="#dd6a57" d="M678.23 183.33a4.68 4.68 0 1 1-4.68-4.68 4.68 4.68 0 0 1 4.68 4.68Z"/>
  <path fill="#fff" d="M678.23 207a4.68 4.68 0 1 1-4.68-4.68 4.68 4.68 0 0 1 4.68 4.68Zm0-11.73a4.68 4.68 0 1 1-4.68-4.69 4.68 4.68 0 0 1 4.68 4.69Z"/>
  <path fill="#ffc727" d="M677.17 331.32h-7.24l.62-18.96.19-5.89h5.47l.23 5.89.73 18.96z"/>
  <path fill="#455a64" d="M676.44 312.36h-5.89l.19-5.89h5.47l.23 5.89z"/>
  <path fill="#ffc727" d="M140 355.29h119s-13-55.59-59.49-55.59S142 342.88 140 355.29Z"/>
  <path d="M140 355.29h119s-13-55.59-59.49-55.59S142 342.88 140 355.29Z" opacity=".2"/>
  <path fill="#ffc727" d="M485.3 361.29h119s-13-55.59-59.49-55.59-57.46 43.18-59.51 55.59Z"/>
  <path d="M485.3 361.29h119s-13-55.59-59.49-55.59-57.46 43.18-59.51 55.59Z" opacity=".2"/>
  <path fill="#ffc727" d="M112.77 253.9c-2.55 4-7 48.69-7.29 50.25s-4 8.4-4 9.7-1 21.42-.45 22.72a56.73 56.73 0 0 0 4.1 6.84c.65.78 17.51 15.29 19.4 15.49s19.33.32 19.66 0 2.34-54 55.26-54 52.34 57 53.32 57.22 237.87 5.6 237.87 5.6c0-8.73.68-60.67 52.59-60.67 33.82 0 50.91 27.87 51.5 48.43.24 8.56-1.19 18-.72 18 1.56 0 6.9.39 7.81 0s12-7.69 12.89-7.95 7.29-.39 8.85-.78 12.5-10 12.7-10.35.52-4.16.58-4.49 11.14-13.87 11.66-15.36.71-13.87.71-15.11-20.11-33.85-24.8-37.36-38.08-15.23-47.85-17-63.47-9.77-65.42-11.13-93.65-53.95-109.6-57.86c-12.89-3.12-162.09 1.17-169.9 1.56s-29.43 4.3-31.51 4.3-26-.13-27.47.52 0 6.38 1.82 7.42-57.28 36.98-61.71 44.01Z"/>
  <path fill="#455a64" d="M116.19 250.51c.56.52 9.89.75 10.87.36s59.74-39.48 59.78-40.62c0-.57-11-.42-12.36-.36s-59.37 39.64-58.29 40.62Z"/>
  <path fill="#263238" d="M181.63 249.89c2.55 7.52 311.18 21.58 312.87 17.94 1.25-2.7-26.36-24.87-39.25-32.1s-49.8-28.12-68-30.27-55-2-87.1-1.36c-31.84.58-69.33 1.36-82.61 7-11.61 5-37.93 32.81-35.91 38.79Z"/>
  <path fill="#455a64" d="M190.24 245.5c.77 2.83 68.93 10.16 148.81 13.87s119.32 4.29 120.3 3.9-2.74-21.67-4.1-23.43-58.59-31.05-67.57-31.84-57.52-.88-82-.49-75.57 3.32-84.27 6.83c-7.67 3.1-31.96 28.33-31.17 31.16Z"/>
  <path fill="#fff" d="m296 207.76-45.75 45.75c-8.16-.72-15.71-1.44-22.49-2.13L270.15 209c9.04-.58 18.05-1 25.85-1.24Zm163.19 51-4.61 4.61q-7 0-24.15-.46l23.8-23.79a6.5 6.5 0 0 1 1 .71c.99 1.26 3.17 12.48 3.96 18.93ZM330.1 207.32 281.45 256c-3.9-.27-7.73-.55-11.46-.84l47.74-47.75c3.92-.06 8.09-.09 12.37-.09Zm104.43 21.32L401.19 262l-11.86-.44 37-37c2.81 1.37 5.57 2.74 8.2 4.08ZM262 209.46l-41.15 41.17-3.14-.35 40.56-40.56Zm179.62 22.81-30 30.06-3.38-.12 31.12-31.13Zm-43.17-20.65-48.25 48.25-3.36-.14L396 210.61Zm-169.15.98L194.86 247c-1.15-.23-2.1-.45-2.83-.67l33-33c1.25-.24 2.67-.49 4.27-.73Z" opacity=".1"/>
  <path fill="#263238" d="M233 212.08c.32 0 .47.42.19 1.17-1.6 4.43-14.09 29.52-17.21 35.38a2.76 2.76 0 0 1-1.77 1.24l22 2.35a1.79 1.79 0 0 1-1.09-2c.22-1.39 8.39-30.88 11-38.13a3.09 3.09 0 0 1 1.47-1.54c.44 0-3.75.06-7.73.47a82.99 82.99 0 0 0-6.86 1.06Zm29-2.62s.4.22.42 1c.14 6.94.92 41.69.25 43.59a.75.75 0 0 1-.32.46l4.16.33a2 2 0 0 1-.38-1c-.47-5.87-.89-37.73-.81-43.62a1.79 1.79 0 0 1 .39-1Zm68.43-.71c.49 1.54 1.3 46.91 1.3 48.37s-1.67 1.81-1.67 1.81l25.79 1.2s-1.67-.47-2-1.25-8.4-49.7-8.35-50.34 1.32-1.24 1.32-1.24h-18a2.74 2.74 0 0 1 1.61 1.45Z"/>
  <path fill="#fff" d="M117.33 260.28c-3.17.4-10.29 7.81-10.81 9.37s-2.47 12.11-1.43 13.67 4.82 5.47 8.07 5.6 19.14-7.42 20.57-8.72 2.47-9.23.78-11.78-13.15-8.66-17.18-8.14Z"/>
  <path fill="#ebebeb" d="M133.73 280.2c-1.43 1.3-17.32 8.85-20.57 8.72-2.48-.1-5.27-2.4-6.91-4.18a10.54 10.54 0 0 0 6.36 2c1.75-.16 16.63-6.56 18.54-8.31s2-8.34 1.74-9.53-9.86-7.38-9.86-7.38c4.75 1.83 10.34 5.17 11.48 6.89 1.69 2.59.65 10.48-.78 11.79Z"/>
  <path fill="#fff" d="M104.18 319.19c-.88.88-1.18 7.49-.26 8.07s6.25.52 7.29 0 3.71-5.47 3.51-7.16-9.5-1.95-10.54-.91Zm475.27-36.59c2.81 4.55 23.44 12.6 31.15 13.87 4.86.8 21.68 1.86 22.66 1s-7.13-12.11-11.33-14.85-25.19-9.76-31.54-9.47-13.77 4.85-10.94 9.45Z"/>
  <path fill="#ebebeb" d="M633.26 297.45c-1 .88-17.8-.18-22.66-1-7.71-1.27-28.34-9.32-31.15-13.87s4.59-9.17 10.94-9.47a12.65 12.65 0 0 1 1.48 0c-5.91 2.18-7.12 6.8-3.52 9.44s15.14 8.81 19.75 10.1c4.44 1.25 21 3.83 22.44 2.7a2.88 2.88 0 0 0 .63-2.38c1.52 2.33 2.46 4.15 2.09 4.48Z"/>
  <g opacity=".5">
    <path d="M183.23 281.54a10.54 10.54 0 0 1-3 7.44 10.67 10.67 0 0 1-15.08.22 10.66 10.66 0 0 1 0-15.31 10.65 10.65 0 0 1 15.08.22 10.52 10.52 0 0 1 3 7.43Zm0 0a10.42 10.42 0 0 0-3.11-7.34 10.3 10.3 0 0 0-7.34-2.88 10.2 10.2 0 0 0-7.12 3.1 10.23 10.23 0 0 0 0 14.25 10.2 10.2 0 0 0 7.12 3.1 10.3 10.3 0 0 0 7.34-2.88 10.46 10.46 0 0 0 3.11-7.35ZM140 313.27c-1.06-2.36-2-4.74-3-7.14s-1.84-4.8-2.76-7.21-1.75-4.84-2.57-7.28-1.64-4.89-2.36-7.37c1.07 2.36 2 4.74 3 7.13s1.84 4.81 2.77 7.22 1.75 4.84 2.57 7.28 1.61 4.89 2.35 7.37Zm-36.64 0c5.13-.1 10.25-.09 15.38-.07l15.37.16 15.37.37c5.12.16 10.24.33 15.36.6-5.12.1-10.25.09-15.37.08l-15.38-.17-15.37-.37a716.6 716.6 0 0 1-15.36-.6Zm241.98-49.87 1.76 12.49.76 6.26c.12 1.05.23 2.09.31 3.15s0 2.1 0 3.16l-.17 25.22-.2 12.62-.11 6.3-.05 3.16-.24 3.14-1 12.58-1.06 12.52.64-12.59.72-12.58.18-3.15v-3.15l.06-6.3.13-12.59.43-25.2c0-1.05.09-2.11 0-3.14s-.15-2.09-.25-3.13l-.63-6.27Z"/>
    <path d="m483.83 269.13 2.17 12.55 1 6.32.26 1.57a8.53 8.53 0 0 1 .19 1.59v3.19c-.07 8.49-.28 17-.54 25.46q-.1 3.18-.27 6.36a23.53 23.53 0 0 1-1.22 6.28 173.04 173.04 0 0 1-3.95 12.12 93.14 93.14 0 0 1-5.08 11.7l-.79 1.4c-.27.46-.58.9-.87 1.35a12.07 12.07 0 0 1-1 1.29l-.52.63a2 2 0 0 1-.93.28c-2.15.22-4.26.25-6.39.32-17 .35-33.95.2-50.93.08s-33.95-.37-50.93-.68-33.94-.78-50.91-1.4c-8.48-.35-17-.63-25.44-1.39a19.56 19.56 0 0 1-3.22-.51c-.6-.23-.95-.51-1.46-.73s-.94-.46-1.42-.68c-1.93-.87-3.91-1.64-5.83-2.6a22.37 22.37 0 0 1-5.35-3.56 50.69 50.69 0 0 1-3.86-5.14c-4.78-7-9.35-14.18-13.91-21.33s-9.08-14.35-13.57-21.55-8.92-14.45-13.3-21.72l-1.62-2.74-.39-.72-.19-.36a1.83 1.83 0 0 1-.05-.4l-.16-1.58c-.18-2.12-.34-4.24-.42-6.36v-1.6a9.45 9.45 0 0 1 .34-1.56c.29-1 .64-2 1-3 .71-2 1.47-4 2.26-5.95q-1.16 3-2.21 6c-.34 1-.68 2-1 3a9.53 9.53 0 0 0-.33 1.55v1.59c.09 2.11.28 4.23.47 6.34l.17 1.58a2.44 2.44 0 0 0 .06.39l.19.34.38.67 1.64 2.73c4.43 7.23 9 14.42 13.48 21.6 9 14.35 18.07 28.74 27.6 42.78a50.4 50.4 0 0 0 3.78 5 22.1 22.1 0 0 0 5.22 3.45c1.89.93 3.86 1.69 5.81 2.57.49.22 1 .44 1.45.68s1 .56 1.39.7a20.64 20.64 0 0 0 3.06.46c8.43.74 16.93 1 25.41 1.31 17 .58 33.93.95 50.9 1.26s33.94.64 50.92.83 34 .37 50.91.07c2.11-.06 4.25-.09 6.33-.3.24 0 .55-.1.59-.11l.5-.6a10.47 10.47 0 0 0 .94-1.25c.28-.44.59-.87.86-1.32l.78-1.37a91.63 91.63 0 0 0 5.17-11.66q2.21-6 4-12.07a23.61 23.61 0 0 0 1.22-6.17l.29-6.36c.34-8.48.62-17 .76-25.45v-3.17a9.44 9.44 0 0 0-.18-1.58l-.25-1.57-1-6.28Zm109.24 21.58a58 58 0 0 1-7 5.05c-2.43 1.57-4.91 3.05-7.37 4.56s-5 2.91-7.51 4.31-5.06 2.77-7.65 4.06c2.41-1.6 4.86-3.13 7.31-4.65l7.4-4.48 7.46-4.37 3.74-2.18a35.65 35.65 0 0 0 3.62-2.3Z"/>
    <path d="m235.74 315.54 33.06.87 33.07 1 66.13 2.02 66.12 2.31 33.06 1.16 33.05 1.3-33.07-.87-33.06-1-66.13-2.02-66.12-2.31-33.06-1.17-33.05-1.29zm-1.95-47.39-1.3.07h-.32c-.07 0-.08.06-.12.16a4.25 4.25 0 0 0-.12.62 16.71 16.71 0 0 0-.05 2.55 10.35 10.35 0 0 0 .11 1.26 2.44 2.44 0 0 0 .14.55h.34c.84.08 1.71.1 2.56.13 3.44.11 6.89.22 10.33.28l5.16.15h3.68a2 2 0 0 0 .14-.32 5.13 5.13 0 0 0 .12-.59 14.06 14.06 0 0 0 .11-2.52 10.37 10.37 0 0 0-.11-1.25 2 2 0 0 0-.14-.48 1.46 1.46 0 0 0-.48-.14c-1.67-.29-3.41-.39-5.12-.56a47.48 47.48 0 0 1 5.19.14 1.39 1.39 0 0 1 .73.22 1.56 1.56 0 0 1 .3.72 10 10 0 0 1 .19 1.32 15.52 15.52 0 0 1 0 2.64 5.65 5.65 0 0 1-.11.68 1.21 1.21 0 0 1-.47.79.42.42 0 0 1-.25.08h-3.79l-5.18-.07c-3.44-.13-6.89-.23-10.33-.48-.87-.08-1.72-.13-2.6-.26a1.29 1.29 0 0 1-.38-.08.65.65 0 0 1-.22-.08.51.51 0 0 1-.16-.23 2.42 2.42 0 0 1-.16-.7 9.77 9.77 0 0 1-.05-1.32 16.23 16.23 0 0 1 .25-2.6 3.83 3.83 0 0 1 .18-.64.6.6 0 0 1 .08-.16.25.25 0 0 1 .21-.1h.32Zm126.55 3.13-1.29.07h-.32c-.07 0-.09.06-.13.16a3.22 3.22 0 0 0-.11.62 16.68 16.68 0 0 0-.06 2.55c0 .43.05.85.11 1.26a2.42 2.42 0 0 0 .15.55s0 .05 0 0h.34c.84.08 1.71.1 2.56.13 3.44.11 6.88.22 10.32.28l5.17.15h3.63c.06 0 .1 0 0 0a1.11 1.11 0 0 0 .13-.31 5.11 5.11 0 0 0 .13-.59 15.1 15.1 0 0 0 .11-2.52 10.37 10.37 0 0 0-.12-1.25 2.17 2.17 0 0 0-.13-.48 1.46 1.46 0 0 0-.48-.14c-1.68-.29-3.41-.39-5.12-.56a49.91 49.91 0 0 1 5.18.13 1.37 1.37 0 0 1 .73.23 1.59 1.59 0 0 1 .31.72c.09.44.14.88.19 1.32a15.52 15.52 0 0 1 0 2.64 5.65 5.65 0 0 1-.11.68c-.1.23-.06.48-.47.79a.43.43 0 0 1-.26.08h-3.79l-5.17-.07c-3.45-.13-6.89-.23-10.34-.49-.86-.07-1.71-.13-2.59-.25a1.41 1.41 0 0 1-.39-.08 1.11 1.11 0 0 1-.21-.08.74.74 0 0 1-.17-.23 2.45 2.45 0 0 1-.15-.7 11.77 11.77 0 0 1-.06-1.32 17.48 17.48 0 0 1 .26-2.6 3.79 3.79 0 0 1 .17-.64.83.83 0 0 1 .09-.16.24.24 0 0 1 .21-.1h.32Z"/>
  </g>
  <circle cx="198.44" cy="357.91" r="49.21" fill="#263238" transform="rotate(-45 198.43 357.9)"/>
  <circle cx="198.44" cy="357.91" r="35.93" fill="#dbdbdb" transform="rotate(-45 198.43 357.9)"/>
  <circle cx="198.44" cy="357.91" r="33.13" fill="#a6a6a6"/>
  <path fill="#dbdbdb" d="M203.64 349.6h-10.41c3.51-5.08-8.72-22.78-8.72-22.78L190 325c3.64 6.25 5.46 8.08 8.46 8.08s4.81-1.83 8.46-8.08l5.47 1.83s-12.26 17.69-8.75 22.77Zm-11.28.63-3.21 9.9c-3.74-4.91-24.36 1.26-24.36 1.26v-5.77c7.07-1.53 9.37-2.7 10.3-5.55s-.26-5.14-5.07-10.55l3.43-4.63s13 17.11 18.91 15.34Zm-2.88 10.92 8.42 6.12c-5.83 2-6.33 23.55-6.33 23.55l-5.5-1.73c.72-7.2.33-9.75-2.1-11.51s-5-1.35-11.6 1.56l-3.37-4.69s20.34-7.13 20.48-13.3Zm9.52 6.12 8.42-6.12c.14 6.17 20.45 13.3 20.45 13.3l-3.35 4.7c-6.62-2.92-9.17-3.33-11.59-1.57s-2.82 4.31-2.1 11.51l-5.5 1.73s-.53-21.51-6.33-23.55Zm8.73-7.14-3.22-9.9c5.91 1.77 19-15.34 19-15.34l3.44 4.64c-4.82 5.39-6 7.69-5.08 10.54s3.24 4 10.31 5.56l-.06 5.76s-20.65-6.17-24.39-1.26Z"/>
  <circle cx="198.44" cy="357.67" r="9.62" fill="#dbdbdb"/>
  <circle cx="542.78" cy="357.91" r="49.21" fill="#263238" transform="rotate(-20 534.46 355.08)"/>
  <circle cx="542.78" cy="357.91" r="35.93" fill="#dbdbdb" transform="rotate(-75.21 542.8 357.9)"/>
  <circle cx="542.78" cy="357.91" r="33.13" fill="#a6a6a6"/>
  <path fill="#dbdbdb" d="M548 349.6h-10.43c3.52-5.08-8.72-22.78-8.72-22.78l5.47-1.83c3.64 6.25 5.46 8.08 8.46 8.08s4.81-1.83 8.47-8.08l5.46 1.83s-12.24 17.7-8.71 22.78Zm-11.3.63-3.21 9.9c-3.74-4.91-24.36 1.26-24.36 1.26l-.05-5.77c7.07-1.53 9.37-2.7 10.3-5.55s-.26-5.14-5.07-10.55l3.43-4.63s13.05 17.11 18.96 15.34Zm-2.88 10.92 8.42 6.12c-5.82 2-6.33 23.55-6.33 23.55l-5.5-1.73c.73-7.2.33-9.75-2.09-11.51s-5-1.35-11.6 1.56l-3.35-4.69s20.31-7.13 20.45-13.3Zm9.5 6.12 8.42-6.12c.14 6.17 20.44 13.3 20.44 13.3l-3.35 4.7c-6.62-2.92-9.17-3.33-11.59-1.57s-2.82 4.31-2.1 11.51l-5.5 1.73s-.5-21.51-6.32-23.55Zm8.75-7.14-3.22-9.9c5.91 1.77 19-15.34 19-15.34l3.43 4.64c-4.82 5.39-6 7.69-5.07 10.54s3.23 4 10.3 5.56l-.06 5.76s-20.64-6.17-24.38-1.26Z"/>
  <circle cx="542.78" cy="357.67" r="9.62" fill="#dbdbdb"/>
  <path fill="#ffc727" d="M448.05 244.91c-1.79 1.8-1.63 17.84-.33 19.14s19.14 2.48 20.57-7.48-17.44-14.46-20.24-11.66Z"/>
  <path fill="#455a64" d="M513.14 254.5h-14.51c-37.76-24.91-89.58-49.56-89.58-49.56l8.6-2.07c31.37 15.18 91.86 49.91 93.45 51a9 9 0 0 0 2.04.63Z"/>
  <path fill="#fff" d="M140 325.76a63.45 63.45 0 0 1 11-13.54 69.55 69.55 0 0 1 14.18-10.32 68.73 68.73 0 0 1 33.82-8.33l4.4.2 2.2.11c.73.08 1.46.2 2.19.3l4.36.62c1.44.3 2.86.68 4.29 1a54.2 54.2 0 0 1 16.14 6.92 56.38 56.38 0 0 1 13.06 11.68 78.41 78.41 0 0 1 9.23 14.86 81.82 81.82 0 0 0-9.67-14.49 55.87 55.87 0 0 0-13.1-11.29c-9.86-6.15-21.57-8.65-33.1-8.76a70.64 70.64 0 0 0-17.21 1.85 68.6 68.6 0 0 0-16.2 6.1 69.36 69.36 0 0 0-14.22 9.95A66.22 66.22 0 0 0 140 325.76Zm344.78 0a63.45 63.45 0 0 1 11-13.54A69.55 69.55 0 0 1 510 301.9a68.73 68.73 0 0 1 33.84-8.33l4.4.2 2.2.11c.73.08 1.46.2 2.18.3l4.37.62c1.43.3 2.86.68 4.29 1a54.2 54.2 0 0 1 16.14 6.92 56.38 56.38 0 0 1 13.06 11.68 78.41 78.41 0 0 1 9.23 14.86c-2.86-5.08-5.81-10.13-9.67-14.49a56.28 56.28 0 0 0-13.1-11.29c-9.86-6.15-21.57-8.65-33.11-8.76a70.62 70.62 0 0 0-17.2 1.85 69.25 69.25 0 0 0-30.42 16.05 65.9 65.9 0 0 0-11.43 13.14ZM147.1 244.09c7.67-6 15.45-11.87 23.28-17.66s15.75-11.48 23.9-16.87a63.58 63.58 0 0 1 4.77-2.82 10 10 0 0 1 1.79-.67 291.06 291.06 0 0 1 21.35-5.1 84.24 84.24 0 0 1 14.58-1.5c4.88-.1 9.75-.09 14.62.14-4.87 0-9.74.14-14.59.44a83.74 83.74 0 0 0-14.42 1.8 487.5 487.5 0 0 0-14.19 3.37c-2.36.61-4.72 1.22-7 1.92a8.39 8.39 0 0 0-1.62.62c-.52.27-1.05.56-1.56.87-1 .61-2.06 1.26-3.08 1.92-8.15 5.28-16 11-24 16.61Z" opacity=".5"/>
  <path d="M528.85 308.54c-37.7 8.62-38.25 51.32-38.25 59.15 0 0-236.9-5.4-237.87-5.6-.79-.17-.55-37.55-28.51-51.8 12.56 6.21 28.65 21.25 34.74 43.21.66 2.34 35.16 6 94.13 7.89s110.23.7 120-.67 21.1-52.33 55.76-52.18Zm119.61 25.95c-.52 1.5-11.6 15-11.65 15.36s-.39 4.1-.59 4.5-11.14 10-12.7 10.34-7.94.52-8.84.78-12 7.55-12.9 7.94-6.25 0-7.81 0c-.47 0 1-9.41.72-18-.43-14.92-9.54-33.7-27.44-42.87 9.71 2.07 25.91 15.33 32.45 29s4.86 14.68 6.39 16.33 6.6-1.68 8.94-2.27 10-.78 12.9-1.36 3.4-5.86 5.41-7 12.22-9.3 15.12-12.75Z" opacity=".1"/>
  <path fill="#ffc727" d="M400 106.11c-1.24-12.48-9.84-24.9-25-24.9s-23.7 12.42-24.94 24.9c-1.91 19.26 11.09 36.71 24.94 52.63 13.86-15.92 26.86-33.37 25-52.63ZM375 120a13.67 13.67 0 1 1 13.68-13.66A13.65 13.65 0 0 1 375 120Z"/>
</svg>
