<svg xmlns="http://www.w3.org/2000/svg" viewBox="0 0 500 500"><g id="freepik--Shadow--inject-55"><ellipse cx="250" cy="432.63" rx="207.38" ry="24.7" style="fill:#ebebeb"></ellipse></g><g id="freepik--Podium--inject-55"><rect x="192.27" y="294.53" width="115.47" height="83.51" style="fill:#455a64"></rect><polygon points="307.73 303.31 192.27 307.8 192.27 294.53 307.73 294.53 307.73 303.31" style="fill:#37474f"></polygon><rect x="186.95" y="283.76" width="126.09" height="10.77" style="fill:#455a64"></rect><circle cx="250" cy="329.75" r="13.36" transform="translate(-113.9 526.75) rotate(-81.26)" style="fill:#37474f"></circle><path d="M251.84,323.07v14.19a1.34,1.34,0,0,1-1.35,1.32,1.3,1.3,0,0,1-1.32-1.32V325.43l-1,.55a1.19,1.19,0,0,1-.68.2,1.32,1.32,0,0,1-1.13-.68,1.28,1.28,0,0,1,.44-1.8l2.95-1.76s.08,0,.1-.05.07,0,.12-.07l.15,0s.07,0,.09,0a.5.5,0,0,1,.17,0h.27a.15.15,0,0,0,.09,0,.33.33,0,0,1,.15.05s.07,0,.09,0,.1.07.15.07a.23.23,0,0,0,.09.07l.1.07a.27.27,0,0,1,.09.1.29.29,0,0,1,.08.1l.09.09,0,0s0,.05,0,.07.05.07.05.12,0,.1.05.12a1,1,0,0,0,0,.12.21.21,0,0,0,.05.17Z" style="fill:#455a64"></path><rect x="100.65" y="314.66" width="91.61" height="63.37" style="fill:#37474f"></rect><polygon points="192.27 321.04 100.65 324.3 100.65 314.67 192.27 314.67 192.27 321.04" style="fill:#263238"></polygon><rect x="96.44" y="306.84" width="95.83" height="7.82" style="fill:#37474f"></rect><circle cx="146.46" cy="346.1" r="13.36" style="fill:#455a64"></circle><path d="M151.1,353.61a1.31,1.31,0,0,1-1.32,1.33h-8.56a1.31,1.31,0,0,1-1-.44,1.33,1.33,0,0,1,.07-1.87l7.12-6.45a3,3,0,0,0,1-2.31,3.1,3.1,0,0,0-.79-2.09,3.05,3.05,0,0,0-2.31-1,3.15,3.15,0,0,0-2.09.8l-.75.67a1.3,1.3,0,0,1-1.87-.1,1.32,1.32,0,0,1,.09-1.87l.75-.68a5.67,5.67,0,0,1,3.87-1.49,5.8,5.8,0,0,1,4.28,1.9,5.67,5.67,0,0,1,1.49,3.87,5.82,5.82,0,0,1-1.9,4.29l-4.54,4.11h5.12A1.32,1.32,0,0,1,151.1,353.61Z" style="fill:#37474f"></path><rect x="307.73" y="329.75" width="91.61" height="48.29" transform="translate(707.08 707.78) rotate(180)" style="fill:#37474f"></rect><polygon points="307.73 336.12 399.35 339.38 399.35 329.75 307.73 329.75 307.73 336.12" style="fill:#263238"></polygon><rect x="307.73" y="321.92" width="95.83" height="7.82" transform="translate(711.3 651.67) rotate(180)" style="fill:#37474f"></rect><circle cx="353.5" cy="356.12" r="13.36" style="fill:#455a64"></circle><path d="M356.14,354.74A5.87,5.87,0,0,1,357.9,359a6,6,0,0,1-10.2,4.23,1.36,1.36,0,0,1,1.92-1.92,3.24,3.24,0,0,0,2.29.93,3.32,3.32,0,0,0,2.31-.93,3.22,3.22,0,0,0,1-2.31,3.15,3.15,0,0,0-1-2.29,3.21,3.21,0,0,0-2.29-1,1.19,1.19,0,0,1-1-.43s0,0,0,0a1.36,1.36,0,0,1,0-1.92l2.45-2.5h-3.9a1.36,1.36,0,0,1,0-2.72h7.1a1.35,1.35,0,0,1,1.37,1.35,1.4,1.4,0,0,1-.17.65,1.65,1.65,0,0,1-.24.33l-3,3.13A5.44,5.44,0,0,1,356.14,354.74Z" style="fill:#37474f"></path></g><g id="freepik--Floor--inject-55"><polygon points="34.56 378.04 88.42 377.79 142.28 377.71 250 377.54 357.72 377.7 411.58 377.79 465.44 378.04 411.58 378.28 357.72 378.37 250 378.54 142.28 378.37 88.42 378.28 34.56 378.04" style="fill:#263238"></polygon></g><g id="freepik--Plant--inject-55"><path d="M85.05,300.31A64.05,64.05,0,0,0,83,312c.11.2.09.92,0,.72,0,.64-1,.53-1-.11,0-.41,0-.82,0-1.22-2.29-2.84-5.61-4.64-8.29-7.11a15.45,15.45,0,0,1-4.54-7.22c-2.23-7.67-.14-15.8-2.82-23.45C64,267,59.9,261.29,56.4,255.32,52.7,249,50,242.36,49.7,235c-.22-5.67.46-13.22,4.77-17.47,4.58-4.5,10.25-1.12,13.76,2.89C78.38,232,83.08,246.77,85,261.83c1,8.34,2.14,16.73,1.89,25.14A67.25,67.25,0,0,1,85.05,300.31Z" style="fill:#FFC727"></path><path d="M83,315.07a143.29,143.29,0,0,0-.27-23.62s0,0,0-.08c.12-6.39.63-12.75.38-19.14a113.58,113.58,0,0,0-2.81-20.52.07.07,0,0,0-.13,0,134,134,0,0,1,2.23,20.07q.2,5.42-.09,10.82c-.06,1.17-.17,2.35-.25,3.54h0a126.41,126.41,0,0,0-19-50.27c-.14-.21-.51,0-.38.23a131.43,131.43,0,0,1,15.47,37.27c-4.89-9.05-12.27-16.49-17.74-25.19,0-.05-.11,0-.08.05,4.91,9.68,13,17.32,18.21,26.85.9,3.89,1.64,7.82,2.19,11.76A131.46,131.46,0,0,1,82,303.19c-3-5.56-6.06-10.88-8.49-16.76-.07-.16-.29-.05-.24.1,2.07,6.11,4.85,12.69,8.75,17.9q0,5.81-.32,11.6c-.61,10.31-2.37,20.49-3.18,30.76a.24.24,0,0,0,.47.06A236,236,0,0,0,83,315.07Z" style="fill:#263238"></path><path d="M72.08,235.55c0-.07-.15,0-.12,0,1.88,5.21,3,10.49,4.31,15.83a.2.2,0,0,0,.39-.07C76.1,246,74.17,240.54,72.08,235.55Z" style="fill:#263238"></path><path d="M119.9,257.38a79.44,79.44,0,0,1-4.33,8.9c-3.39,6.16-6.93,11.8-7.57,19-.29,3.2-.39,6.42-1.36,9.5a28.86,28.86,0,0,1-3.79,7.44c-3.68,5.36-8.27,10-11.68,15.53a65.51,65.51,0,0,0-7.76,18.7c-.08.36-.65.27-.56-.09,0,0,0-.05,0-.08a.29.29,0,0,1,0-.08c-.54-15.38.69-30.87,5.38-45.6a157.46,157.46,0,0,1,7.45-19c2.52-5.34,5.65-10.48,10.06-14.47,2.86-2.58,9.07-7.46,13.14-4.88C120.82,253.5,120.67,255.46,119.9,257.38Z" style="fill:#FFC727"></path><path d="M104.45,292.24a127.48,127.48,0,0,1-8.94,12.84C94,307,92.51,309,91,310.9c-.71.92-1.49,1.83-2.14,2.82.41-1.62.8-3.23,1.22-4.85,2-7.77,3.89-15.61,6.84-23.08a156.12,156.12,0,0,1,10.68-20.93c.1-.17-.18-.3-.29-.13-3.25,5.34-6.55,10.68-9.28,16.31a88,88,0,0,0-3.94,9.68A148.47,148.47,0,0,1,99.37,270a.05.05,0,0,0-.1,0,70.84,70.84,0,0,0-5.44,21.51s0,0,0,0c-.66,2-1.27,4-1.85,6-2.42,8.6-4.55,17.29-6.52,26A93.47,93.47,0,0,1,87,306.51a.1.1,0,0,0-.2,0,54.24,54.24,0,0,0-1.49,18q-1.12,5-2.18,10c-1.51,7.09-3.37,14.3-4.25,21.5a.14.14,0,0,0,.28.05c1.06-3.88,1.69-7.91,2.56-11.83s1.75-7.88,2.67-11.8q2-8.6,4.16-17.13c.95-2.09,2.79-3.95,4.17-5.7,1.52-1.92,3-3.85,4.5-5.8a85.71,85.71,0,0,0,7.4-11.45C104.63,292.21,104.49,292.16,104.45,292.24Z" style="fill:#263238"></path><path d="M105.1,285.66a80.19,80.19,0,0,0-8.74,13.9c0,.06.06.12.1.06,3-4.61,5.84-9.26,8.78-13.87C105.29,285.67,105.16,285.59,105.1,285.66Z" style="fill:#263238"></path><path d="M39.65,272c2,3.43,4.26,7.55,3.41,11.67-.54,2.61-2.45,4.73-2.8,7.39-.77,5.87,5.08,9.75,9.32,12.53,10.56,6.93,25,13.1,27,27.25.07.5.94.37.87-.12a.29.29,0,0,0,0-.09s0,0,0-.08a54.22,54.22,0,0,0-.19-21.61c-1.58-7.29-4.76-13.84-8.52-20.25C62.38,277.81,55.65,266.71,46,258.41c-2.66-2.3-8.1-6.43-10.22-1.25S37.21,267.77,39.65,272Z" style="fill:#FFC727"></path><path d="M49.31,294.94c7,7.58,18.13,11.83,24.16,20.32A85.07,85.07,0,0,0,54.9,280.38a.27.27,0,0,1,.39-.38,68.79,68.79,0,0,1,15.17,22,98.46,98.46,0,0,0-6.54-16.71c-.1-.2.2-.38.31-.18a63.64,63.64,0,0,1,7,18.78c7.94,19.22,8.67,41.76,7,62,0,.29-.47.3-.46,0,.46-16,.2-32.21-3.63-47.8-.08-.32-.17-.64-.25-1C67.4,308,56.31,303.74,49.19,295.06,49.12,295,49.23,294.86,49.31,294.94Z" style="fill:#263238"></path><path d="M47.69,288.43c3.67,3.37,7.29,6.82,11,10.19,0,0,0,.1,0,.07a53.49,53.49,0,0,1-11.14-10A.16.16,0,0,1,47.69,288.43Z" style="fill:#263238"></path><path d="M47.11,273.82A114.66,114.66,0,0,0,58.1,289,.06.06,0,0,1,58,289a53.34,53.34,0,0,1-11.1-15.1A.12.12,0,0,1,47.11,273.82Z" style="fill:#263238"></path><polygon points="63.65 380.17 95.84 380.17 91.5 336.87 68.61 336.87 63.65 380.17" style="fill:#455a64"></polygon><polygon points="67.8 343.9 92.21 343.9 91.5 336.87 68.61 336.87 67.8 343.9" style="fill:#263238"></polygon><rect x="64.66" y="332.07" width="30.17" height="6.91" transform="translate(159.49 671.05) rotate(180)" style="fill:#455a64"></rect></g><g id="freepik--Characters--inject-55"><path d="M372.39,367.77s0,37.2,0,37.22c0,7.11-.06,13.35-.41,16.57a.07.07,0,0,1,0,.05,4.86,4.86,0,0,1-.51,2.2s0,0,0,.05c-2.11,1.44-58.94,3.39-61,2.79s-.45-6.36,1.7-8.2,23.58-12.31,23.58-12.31l.35-37.17Z" style="fill: rgb(235, 148, 129);"></path><path d="M372.38,397.36V405c0,7.11-.06,13.35-.41,16.57a.07.07,0,0,1,0,.05,9.5,9.5,0,0,1-.51,2.2s0,0,0,.05c-2.11,1.44-58.94,3.39-61,2.79s-.45-6.36,1.7-8.2,23.58-12.31,23.58-12.31l-.11-7.75Z" style="fill:#fff"></path><path d="M310.46,426.65c2,.6,58.84-1.34,61-2.79.82-.54,1-8.84,1-18.87,0-.1,0-.21,0-.31l-36.67.84,0,.63s-21.42,10.47-23.57,12.31S308.46,426.06,310.46,426.65Z" style="fill:#FFC727"></path><path d="M311,424.43c9.57-.57,48.23-1.94,57.73-1.76.08,0,.08.05,0,.06-9.47.76-48.14,1.82-57.72,1.85C310.83,424.58,310.83,424.44,311,424.43Z" style="fill:#263238"></path><path d="M332.66,406.36c3.74-.83,8.37-.41,11.34,2.18.12.1,0,.26-.15.22a53.43,53.43,0,0,0-11.16-1.92A.24.24,0,0,1,332.66,406.36Z" style="fill:#263238"></path><path d="M330,408.09c3.75-.83,8.38-.41,11.35,2.18.11.1,0,.26-.15.23A52.78,52.78,0,0,0,330,408.57.24.24,0,0,1,330,408.09Z" style="fill:#263238"></path><path d="M327.33,409.83c3.74-.84,8.37-.41,11.34,2.17.12.1,0,.26-.15.23a53.44,53.44,0,0,0-11.16-1.93A.24.24,0,0,1,327.33,409.83Z" style="fill:#263238"></path><polygon points="374.22 341.03 374.21 341.45 373.39 406.56 333.61 405.76 341.78 207.26 375.38 207.26 374.22 341.03" style="fill:#455a64"></polygon><path d="M335.28,399.13c6.21-.06,4.42-.13,10.63-.11,3,0,23,.07,25.85.58.06,0,.06.12,0,.13-2.85.43-22.82,0-25.85-.05-6.21-.14-4.43-.17-10.64-.37C335.16,399.31,335.16,399.13,335.28,399.13Z" style="fill:#263238"></path><path d="M366.64,377.05q.12-8.93.29-17.85.35-17.83.66-35.69.66-35.5,1.15-71c.2-13.36.19-26.72.54-40.06,0,0,.05,0,.05,0,.22,11.89.09,23.8.07,35.7s-.07,23.8-.19,35.7c-.23,23.67-.56,47.35-1.12,71-.16,6.68-.32,13.35-.55,20s-.38,13.36-.85,20a.08.08,0,0,1-.16,0C366.42,389,366.57,383,366.64,377.05Z" style="fill:#263238"></path><polygon points="375.38 207.67 374.5 309.02 347.56 207.27 375.37 207.27 375.38 207.67" style="fill:#263238"></polygon><path d="M433.25,349.17l19.2,31.21c3.12,6.39,5.74,12.05,6.82,15.11a.07.07,0,0,1,0,.05,5.07,5.07,0,0,1,.5,2.2s0,.05,0,.06c-1.28,2.22-51.64,28.62-53.71,28.95s-3.17-5.54-2-8.12,15.91-21.32,15.91-21.32L401.06,366Z" style="fill: rgb(235, 148, 129);"></path><path d="M459.77,397.75a.07.07,0,0,1,0,.05c-1.28,2.22-51.64,28.62-53.71,28.95s-3.16-5.54-2-8.12,15.91-21.32,15.91-21.32l-3.37-5.59c8.23-4.39,23.2-12.1,32.49-16.87l3.4,5.53c3.12,6.4,5.74,12.05,6.82,15.11a.43.43,0,0,1,0,.05A4.72,4.72,0,0,1,459.77,397.75Z" style="fill:#fff"></path><path d="M406.05,426.75c2.07-.33,52.43-26.73,53.71-28.95.5-.84-2.92-8.4-7.31-17.42-.05-.09-.09-.18-.14-.28l-32.68,16.67.3.54S405.17,416,404,418.63,404,427.08,406.05,426.75Z" style="fill:#FFC727"></path><path d="M405.6,424.5c8.38-4.66,42.62-22.66,51.26-26.62.07,0,.09,0,0,.05-8.2,4.8-42.59,22.51-51.21,26.71C405.49,424.72,405.42,424.59,405.6,424.5Z" style="fill:#263238"></path><path d="M417.25,398.84c3-2.37,7.37-4,11.17-3,.15,0,.09.25,0,.27a53.18,53.18,0,0,0-10.9,3.11A.24.24,0,0,1,417.25,398.84Z" style="fill:#263238"></path><path d="M415.6,401.56c3-2.38,7.37-4,11.17-3,.15,0,.09.25,0,.27a53.15,53.15,0,0,0-10.9,3.1A.24.24,0,0,1,415.6,401.56Z" style="fill:#263238"></path><path d="M414,404.27c3-2.37,7.37-4,11.17-3,.15,0,.09.25,0,.28a52.27,52.27,0,0,0-10.89,3.1A.24.24,0,0,1,414,404.27Z" style="fill:#263238"></path><path d="M345.22,207.23a.16.16,0,0,0,0,0c.15.69,2.49,11.59,4.93,20.95,1.77,6.84,3.59,12.85,4.64,13.47s6.95,3.26,8.88,4.06c0,0,13,64.77,19.83,84.85,6.32,18.54,32.48,68.08,32.48,68.08l37.94-19.18s-29.63-50.27-32.75-59.29c-4.83-14-22.93-82.27-22.93-82.27s.14-21.38-7.06-30.71Z" style="fill:#455a64"></path><path d="M416.54,391.28c5.43-3,3.83-2.24,9.28-5.21,2.67-1.45,20.23-11,22.95-11.9.06,0,.11.08.06.11-2.28,1.75-20,11-22.7,12.38-5.51,2.86-4,2-9.5,4.78C416.52,391.49,416.44,391.33,416.54,391.28Z" style="fill:#263238"></path><path d="M388.52,232c-1-.26-2.15-.35-3.21-.51-.86-.14-1.71-.29-2.56-.48a11.13,11.13,0,0,1-4.51-1.9,10.66,10.66,0,0,1-2.92-4.54c-.42-1-.86-2-1.3-2.95-.21-.48-.43-1-.65-1.42a16.54,16.54,0,0,1-.8-1.71c0-.08-.16,0-.13,0a9.71,9.71,0,0,1,.36,1.23c.15.47.28.95.43,1.43.26.85.52,1.7.8,2.54a19.76,19.76,0,0,0,1.81,4.47c1.57,2.5,4.37,3.5,7.17,3.86.8.1,1.61.16,2.42.2a16.46,16.46,0,0,0,3.06,0A.14.14,0,0,0,388.52,232Z" style="fill:#263238"></path><path d="M351.73,240.16a75.55,75.55,0,0,1,11.89,5.54.14.14,0,0,1-.11.25c-4-1.73-8.09-3.37-12-5.31A.26.26,0,0,1,351.73,240.16Z" style="fill:#263238"></path><path d="M350.52,212.72c0-.14.26-.17.25,0,0,4.76.28,8.94.68,13.39.18,2.06,1.84,13.47,5.42,12.63.6-.14.91-.73,1-1.63a14.53,14.53,0,0,0-.48-3.5c-.39-2.38-.71-4.78-.92-7.19a65.4,65.4,0,0,1,.15-13.49.12.12,0,0,1,.23,0,123.5,123.5,0,0,0,1.09,18.63c.45,3,1.94,7.43-1.16,7.88s-5.21-7-5.59-9.06A68.19,68.19,0,0,1,350.52,212.72Z" style="fill:#263238"></path><path d="M356.78,239a19.86,19.86,0,0,1,.8,2.36,5.27,5.27,0,0,1,.33,2,.13.13,0,0,1-.24,0,6.67,6.67,0,0,1-.83-1.89c-.28-.73-.56-1.46-.82-2.2A.4.4,0,0,1,356.78,239Z" style="fill:#263238"></path><path d="M443.69,373.21c-5.4-10.17-11-20.25-16.56-30.31-2.75-5-5.63-9.87-8.26-14.9a89.78,89.78,0,0,1-6-15.54q-5-16.29-9.5-32.73t-8.41-33c-.66-2.76-1.39-5.52-1.92-8.32a25.59,25.59,0,0,1,0-8.51,27.73,27.73,0,0,0,.06-7.93,52.67,52.67,0,0,0-1.86-7.75c-.42-1.34-.87-2.66-1.33-4-.05-.14-.28-.08-.23.07,1.63,5.36,3.31,10.77,2.95,16.44-.16,2.72-.89,5.4-.84,8.14a39.31,39.31,0,0,0,1.38,8q3.87,16.68,8.31,33.22t9.39,32.94a130.48,130.48,0,0,0,5.41,15.78c2.29,5.08,5.18,9.88,7.91,14.73,5.64,10,11.32,20,17.13,30q1.11,1.89,2.23,3.76C443.61,373.36,443.73,373.29,443.69,373.21Z" style="fill:#263238"></path><path d="M195,169.89c-3.07,1-18.66-17.22-16.18-19.43.55-.48,3.3-4.21,3.89-5,2.11-2.84,3.36-7,4.74-13.34,1.17-5.36,2.29-13.47,5.2-12.94,4.25.74,4.06,11.16,3.59,17.13,2.95-1.37,5.63-2.27,7.38-2.23,5.81.15,16,21.91,11.25,25.48C210.37,163,198.15,168.85,195,169.89Z" style="fill: rgb(235, 148, 129);"></path><path d="M366,156.33c-3.17,7-22.48,31.52-34.28,32.13-12,.61-36.9-18.37-40-19.52-8.47-3.15,8.31-28.43,12.67-25.38,7.29,5.08,26.14,23,29.6,21.57,7.27-3,13-7.46,23.56-13.66C364.88,147.15,369.46,148.66,366,156.33Z" style="fill: rgb(235, 148, 129);"></path><path d="M300.65,171.57c3.15-.72,9.88-21.49,7.65-23.95-.42-.47-3-3-3.95-4.06A43.74,43.74,0,0,1,297,131.25c-1.87-5.16-4.05-13-6.87-12.14-4.1,1.3-2.54,11.6-1.28,17.45-3.11-1-5.88-1.5-7.61-1.23-5.74.92-9.31,23.54-4.18,26.46C282,164.61,297.49,172.28,300.65,171.57Z" style="fill: rgb(235, 148, 129);"></path><path d="M222.33,170.24c2.33,0,4-.11,4.15-.12l-.32-4.6c-.1,0-10.66.69-16.09-1.5-4.32-1.76-9.09-13.91-11.2-24.64-1.34-6.8-.61-8.94-.05-9.62.12-.14.44-.53,1.66-.53h4.21c1.22,3.67,3.17,7.36,6.11,7.36h8.49V132h-8.15c-.7-.7-1.85-3.28-2.52-5.68l-.47-1.68h-7.67a6.37,6.37,0,0,0-5.22,2.22c-2,2.41-2.27,6.55-.91,13.43a87.05,87.05,0,0,0,4.87,16.18c2.77,6.52,5.84,10.51,9.12,11.84C212.38,169.93,218.35,170.24,222.33,170.24Z" style="fill:#FFC727"></path><polygon points="212.55 131.98 219.3 131.98 219.3 136.59 213.59 136.59 212.55 131.98" style="opacity:0.2"></polygon><path d="M226.48,170.12c-.18,0-1.82.12-4.15.12-.39,0-.79,0-1.21,0l-1-4.62c3.35.1,6-.07,6.08-.08Z" style="opacity:0.2"></path><path d="M266.51,170.24c-2.33,0-4-.11-4.15-.12l.31-4.6c.11,0,10.67.69,16.09-1.5,4.33-1.76,9.09-13.91,11.21-24.64,1.33-6.8.6-8.94,0-9.62-.12-.14-.44-.53-1.66-.53h-4.21c-1.22,3.67-3.18,7.36-6.11,7.36h-8.5V132h8.15a17.45,17.45,0,0,0,2.53-5.68l.47-1.68h7.67a6.38,6.38,0,0,1,5.22,2.22c2,2.41,2.26,6.55.91,13.43a87.06,87.06,0,0,1-4.88,16.18c-2.76,6.52-5.83,10.51-9.11,11.84C276.45,169.93,270.48,170.24,266.51,170.24Z" style="fill:#FFC727"></path><polygon points="276.29 131.98 269.54 131.98 269.54 136.59 275.25 136.59 276.29 131.98" style="opacity:0.2"></polygon><path d="M262.36,170.12c.18,0,1.82.12,4.15.12.39,0,.79,0,1.21,0l1-4.62c-3.35.1-6-.07-6.08-.08Z" style="opacity:0.2"></path><polygon points="220.38 216.21 220.38 218.79 268.45 218.79 268.45 216.21 264.33 216.21 261.27 211.81 247.28 206.24 247.28 178.94 241.56 178.94 241.56 206.24 227.57 211.81 224.5 216.21 220.38 216.21" style="fill:#FFC727"></polygon><rect x="239.98" y="179.71" width="8.88" height="2.87" transform="translate(488.84 362.29) rotate(180)" style="fill:#FFC727"></rect><polygon points="239.98 181.54 248.86 181.15 248.86 179.71 239.98 179.71 239.98 181.54" style="opacity:0.2"></polygon><path d="M215,121.56s2.25,37.19,8.11,47.47,18.37,11.15,21.29,11.15,15.42-.88,21.28-11.15,8.11-47.47,8.11-47.47Z" style="fill:#FFC727"></path><path d="M240,179.76c-5-.85-12.63-3.39-16.82-10.73-5.86-10.28-8.11-47.47-8.11-47.47h5.53c.76,7.81,2.25,37.64,6.49,46.32C230.75,175.47,239.36,179.54,240,179.76Z" style="fill:#fff;opacity:0.30000000000000004"></path><polygon points="264.33 216.21 224.5 216.21 225.6 214.63 262.26 213.24 264.33 216.21" style="opacity:0.2"></polygon><polygon points="244.42 133.3 247.58 139.71 254.64 140.73 249.53 145.71 250.74 152.75 244.42 149.43 238.1 152.75 239.31 145.71 234.19 140.73 241.26 139.71 244.42 133.3" style="opacity:0.1"></polygon><path d="M291,138.54c1.32,2.72-2.64,2.72-2.64,2.72s5.7,1.37,6,4.7-4.52,3-4.87,3c.3.08,5.5,1.47,5.44,4.84s-4.84,2.52-5.15,2.45c.26.16,3.69,2.34,3,4.89-1.09,4.38-10-.94-13.5.1,0,0,.24,1.09.24,1.27,0,0-7.45-1.88-8.87-4.64-1.19-2.32,1.64-3.6,1.64-3.6s-2.94-1.27-3-3.92c0-1.37,2.15-2.6,2.15-2.6a4,4,0,0,1-2.19-3.48c.09-1.89,2.25-2.83,2.25-2.83s-1.72-2.1-1-4C272,133.63,288.14,132.73,291,138.54Z" style="fill: rgb(235, 148, 129);"></path><path d="M271.85,141.27a0,0,0,0,1,0-.09,28.12,28.12,0,0,1,16.72.06c.17.06.15.36-.05.33A57.35,57.35,0,0,0,271.85,141.27Z" style="fill:#263238"></path><path d="M271.39,147.75c-.06,0-.08-.09,0-.11a26.28,26.28,0,0,1,18.23,1.19c.2.1.28.38,0,.29C285.68,147.56,276.58,147,271.39,147.75Z" style="fill:#263238"></path><path d="M290.07,156.61c-5.64-2.45-11.49-2.84-17.56-2.39-.08,0-.08-.1,0-.13,2.91-1,6.81-.92,9.84-.57a16.16,16.16,0,0,1,7.82,2.9C290.24,156.48,290.19,156.67,290.07,156.61Z" style="fill:#263238"></path><path d="M288.42,141.2c.2.07-.13.29.08.37.85.33,5.82,2.73,5.53,4.67-.24,1.56-2.5,2.33-3.48,2.28l-2.48-.12,2.29,1a10.41,10.41,0,0,1,2.78,1.74,3.64,3.64,0,0,1,1.39,2.62,2.09,2.09,0,0,1-1.53,2.11,6.31,6.31,0,0,1-3.14,0l-2.86-.67,2.48,1.56a9.53,9.53,0,0,1,1.87,1.54,4,4,0,0,1,1.09,2,1.86,1.86,0,0,1-.75,1.81,4.14,4.14,0,0,1-2.26.45,32.57,32.57,0,0,1-5-.77c-.84-.17-1.69-.34-2.54-.47a6.07,6.07,0,0,0-2.58,0,6.43,6.43,0,0,1,2.54.22c.83.19,1.65.42,2.48.65a27.71,27.71,0,0,0,5.09,1.06,4.87,4.87,0,0,0,2.74-.45,2.64,2.64,0,0,0,1.2-2.64,4.8,4.8,0,0,0-1.28-2.5,10.79,10.79,0,0,0-2.06-1.75l-.39.89a7.17,7.17,0,0,0,3.71.07,2.92,2.92,0,0,0,1.65-1.17,3.39,3.39,0,0,0,.56-1.93,4.58,4.58,0,0,0-1.75-3.31,10.89,10.89,0,0,0-3.1-1.86l-.19.85c1.25,0,3.87-.56,4.55-2.93C295.44,143.24,289.52,141.45,288.42,141.2Z" style="fill:#263238"></path><path d="M288.33,141.26a5.93,5.93,0,0,0,1.75-.63,1.41,1.41,0,0,0,.76-1.2,3,3,0,0,0-.63-1.5c-.36-.49-.76-1-1.2-1.48a4.57,4.57,0,0,1,1.7,1.05,2.84,2.84,0,0,1,1,1.93,2.08,2.08,0,0,1-.39,1.14,2.17,2.17,0,0,1-.93.65A3.21,3.21,0,0,1,288.33,141.26Z" style="fill:#263238"></path><path d="M195.89,137.64c-1.17,2.94,3,2.64,3,2.64s-5.84,1.87-5.88,5.37,5,2.83,5.32,2.79c-.31.11-5.63,2-5.3,5.49s5.25,2.25,5.57,2.16c-.26.19-3.67,2.73-2.81,5.34,1.47,4.5,10.37-1.76,14.11-.94,0,0-.16,1.16-.14,1.35,0,0,7.64-2.55,8.91-5.54,1.06-2.52-2-3.63-2-3.63s3-1.56,2.8-4.34c-.09-1.42-2.46-2.55-2.46-2.55a4.12,4.12,0,0,0,2-3.8c-.23-2-2.57-2.79-2.57-2.79s1.64-2.33.74-4.26C215.37,131,198.39,131.35,195.89,137.64Z" style="fill: rgb(235, 148, 129);"></path><path d="M216.08,139c.06,0,.08-.07,0-.08a29.47,29.47,0,0,0-17.47,1.35c-.18.08-.13.39.08.35A60.08,60.08,0,0,1,216.08,139Z" style="fill:#263238"></path><path d="M217.07,145.75c.06,0,.07-.11,0-.12a27.57,27.57,0,0,0-19,2.66c-.2.11-.27.42,0,.3C202.12,146.66,211.59,145.38,217.07,145.75Z" style="fill:#263238"></path><path d="M198.23,156.46c5.7-3,11.79-3.87,18.17-3.86.08,0,.08-.12,0-.14-3.12-.85-7.19-.43-10.33.16a17,17,0,0,0-8,3.64C198,156.34,198.11,156.53,198.23,156.46Z" style="fill:#263238"></path><path d="M198.76,140.22c-.21.09.15.3,0,.4-.87.4-5.88,3.3-5.42,5.31.37,1.61,2.79,2.23,3.81,2.11l2.58-.32-2.31,1.19a11,11,0,0,0-2.78,2,3.79,3.79,0,0,0-1.24,2.85,2.17,2.17,0,0,0,1.76,2.09,6.58,6.58,0,0,0,3.27-.28l2.94-.91-2.46,1.82a10.22,10.22,0,0,0-1.85,1.75,4.19,4.19,0,0,0-1,2.16,2,2,0,0,0,.92,1.85,4.42,4.42,0,0,0,2.41.29,34.72,34.72,0,0,0,5.19-1.2c.87-.24,1.74-.49,2.62-.69a6.45,6.45,0,0,1,2.69-.18,6.71,6.71,0,0,0-2.62.43c-.86.26-1.7.56-2.55.87a28.9,28.9,0,0,1-5.24,1.5,5,5,0,0,1-2.89-.25,2.78,2.78,0,0,1-1.47-2.67,5,5,0,0,1,1.15-2.71,10.88,10.88,0,0,1,2-2l.47.9a7.44,7.44,0,0,1-3.87.36,3.08,3.08,0,0,1-1.82-1.09,3.51,3.51,0,0,1-.73-2,4.81,4.81,0,0,1,1.57-3.61,11.69,11.69,0,0,1,3.09-2.18l.27.87c-1.31.12-4.09-.28-5-2.71C191.58,142.9,197.62,140.57,198.76,140.22Z" style="fill:#263238"></path><path d="M198.85,140.28a6.19,6.19,0,0,1-1.87-.53,1.48,1.48,0,0,1-.89-1.19,3.06,3.06,0,0,1,.54-1.62c.34-.54.72-1.09,1.14-1.64a5.11,5.11,0,0,0-1.69,1.23,2.93,2.93,0,0,0-.87,2.09,2.1,2.1,0,0,0,.5,1.16,2.24,2.24,0,0,0,1,.62A3.39,3.39,0,0,0,198.85,140.28Z" style="fill:#263238"></path><path d="M348.78,183.47,335,164.12A222.05,222.05,0,0,1,357,150.68c9.94-5,16.59-2.64,6.72,12.38S348.78,183.47,348.78,183.47Z" style="fill:#FFC727"></path><path d="M351.29,179.1a187,187,0,0,1-11.88-16.65c-.05-.06.07-.13.11-.06.89,1.4,7.72,10.21,11.89,16.64C351.46,179.1,351.34,179.16,351.29,179.1Z" style="fill:#263238"></path><path d="M363.73,163.06c-9.86,15-15,20.41-15,20.41l-7.87-11,27.37-22.34C369.23,152.26,368.09,156.42,363.73,163.06Z" style="fill:#263238"></path><path d="M398,220.61c-.14.15-57.72-1.3-58.23-1.93-.72-.87,10-56.77,20-69.14,2.5-3.1,10.53-3.5,14.23-.5C392.36,163.93,398.52,220.07,398,220.61Z" style="fill:#FFC727"></path><path d="M385.35,165.92l-32.84-1,.45-1.26,31.81,1C385,165.05,385.16,165.48,385.35,165.92Zm1.06,2.53-34.74-1.07c-.13.42-.27.84-.41,1.27l35.66,1.1Zm1.45,3.83-37.37-1.15c-.14.42-.27.84-.39,1.27l38.22,1.18C388.17,173.14,388,172.71,387.86,172.28Zm1.31,3.83-39.81-1.22-.36,1.26,40.58,1.25C389.45,177,389.31,176.54,389.17,176.11Zm1.19,3.82-42.06-1.29c-.12.42-.23.84-.35,1.26l42.79,1.32C390.61,180.79,390.49,180.36,390.36,179.93Zm1.09,3.82-44.16-1.36-.33,1.27L391.79,185C391.68,184.61,391.56,184.18,391.45,183.75Zm1,3.82-46.12-1.43c-.1.42-.21.85-.31,1.27l46.75,1.45C392.66,188.43,392.55,188,392.44,187.57Zm.91,3.81-48-1.48c-.11.42-.21.85-.3,1.27l48.55,1.5C393.55,192.24,393.46,191.81,393.35,191.38Zm.85,3.81-49.69-1.54-.3,1.28,50.26,1.55ZM395,199l-51.32-1.58c-.09.43-.18.85-.28,1.27l51.85,1.6C395.14,199.86,395.06,199.43,395,199Zm.72,3.81-52.85-1.63c-.1.43-.19.85-.28,1.27l53.35,1.65C395.84,203.67,395.77,203.24,395.69,202.8Zm.65,3.81-54.29-1.68c-.09.43-.17.86-.26,1.27l54.76,1.69Zm.59,3.81L341.3,208.7q-.12.65-.24,1.26l56.05,1.73C397.05,211.28,397,210.85,396.93,210.42Zm.52,3.8-56.85-1.76c-.07.45-.15.87-.21,1.27l57.22,1.76C397.56,215.09,397.51,214.66,397.45,214.22Zm.43,3.79L340,216.23c-.06.49-.12.92-.16,1.27L398,219.29C398,218.93,397.93,218.5,397.88,218Z" style="opacity:0.1"></path><path d="M366.4,145.79c-4.57.18-6.7,1.47-8.12,5.49s.41,8.31,3.72,8.92,8.7-2,12.08-7.17S372,145.57,366.4,145.79Z" style="fill:#455a64"></path><path d="M362.63,156.94c2.44.48,8.23-3.34,10.8-6.91a63,63,0,0,0,.21-6.49c.06-2.08.18-4.39.44-6.49l-13.59,1.56a33.74,33.74,0,0,1,.27,8.24,5.55,5.55,0,0,1-.19.85,1.27,1.27,0,0,0,0,.14C360.06,149.45,358.81,156.19,362.63,156.94Z" style="fill: rgb(235, 148, 129);"></path><path d="M360.57,147.7a1.27,1.27,0,0,0,0,.14,8.37,8.37,0,0,0,1.35.24c7.52.76,10.49-8.15,11.22-10.92l-12.61,1.45a34.05,34.05,0,0,1,.28,8.24A5.56,5.56,0,0,1,360.57,147.7Z" style="fill:#263238"></path><path d="M376.53,119.25c1.43,4.72-1.1,18.33-4.46,21.35-4.87,4.39-12.82,4.79-16.55-1.06-3.61-5.67,0-23.35,3.75-26.1C364.79,109.4,374.42,112.28,376.53,119.25Z" style="fill: rgb(235, 148, 129);"></path><path d="M364,126.81s.07.06.06.1c-.21.91-.29,2,.48,2.45,0,0,0,.06,0,0C363.54,129.07,363.66,127.64,364,126.81Z" style="fill:#263238"></path><path d="M365,126c1.5.18,1,3.15-.34,3S363.75,125.87,365,126Z" style="fill:#263238"></path><path d="M358.58,125.79s-.08,0-.08.07c-.11.93-.4,2-1.28,2.15a0,0,0,0,0,0,.05C358.26,128.07,358.62,126.68,358.58,125.79Z" style="fill:#263238"></path><path d="M357.91,124.7c-1.47-.34-2,2.62-.68,2.93S359.13,125,357.91,124.7Z" style="fill:#263238"></path><path d="M366.39,124.83a11.37,11.37,0,0,1-1.09-.58,2,2,0,0,1-1-.8.64.64,0,0,1,.22-.75,1.57,1.57,0,0,1,1.59.08,2.3,2.3,0,0,1,1.17,1.19A.67.67,0,0,1,366.39,124.83Z" style="fill:#263238"></path><path d="M357.05,123.38c.42,0,.81-.08,1.23-.12a2.05,2.05,0,0,0,1.23-.37.63.63,0,0,0,.08-.77,1.57,1.57,0,0,0-1.51-.53,2.26,2.26,0,0,0-1.53.66A.67.67,0,0,0,357.05,123.38Z" style="fill:#263238"></path><path d="M363.55,135.49c-.26.19-.52.45-.86.43a2.6,2.6,0,0,1-1-.39s-.06,0-.05,0a1.25,1.25,0,0,0,1.1.68,1,1,0,0,0,.85-.7C363.65,135.5,363.58,135.47,363.55,135.49Z" style="fill:#263238"></path><path d="M363,132.59a3.16,3.16,0,0,1-2.31,1.07,4,4,0,0,1-1.14-.12l-.21-.06-.19-.06a.23.23,0,0,1-.16-.23h0a.32.32,0,0,1,0-.09h0V133c.09-.71.32-1.78.32-1.78-.27.09-1.69.48-1.61.11a47.75,47.75,0,0,1,2.67-9.31.09.09,0,0,1,.17,0c-.52,3-1.54,5.79-2.1,8.74a5.17,5.17,0,0,1,1.55-.22c.09,0-.49,2-.51,2.38v0a4.41,4.41,0,0,0,3.41-.51C363,132.45,363.07,132.52,363,132.59Z" style="fill:#263238"></path><path d="M360,133.25a3.8,3.8,0,0,0,1.31,1.38,1.73,1.73,0,0,0,1,.22c.76-.08.89-.75.84-1.35a4.54,4.54,0,0,0-.19-.94A4.92,4.92,0,0,1,360,133.25Z" style="fill:#263238"></path><path d="M361.34,134.63a1.73,1.73,0,0,0,1,.22c.76-.08.89-.75.84-1.35A1.75,1.75,0,0,0,361.34,134.63Z" style="fill:#ff9bbc"></path><path d="M375.93,129.61s4-8.16,3.11-12.59c-.38-2-3.26-3.1-3.26-3.1a4.6,4.6,0,0,0-1.87-4.46c-2.6-2-8.33-1-8.33-1s-4.25-5.06-9.35-2.42-1.09,8.33-1.09,8.33-1.69,2.94,3.26,4.65,14.09-1.27,14.09-1.27a33.16,33.16,0,0,0,1.06,9.78A3,3,0,0,0,375.93,129.61Z" style="fill:#263238"></path><path d="M364.67,108.64a9.33,9.33,0,0,1,3.67-1,10.3,10.3,0,0,1,3.41.21,5.61,5.61,0,0,1,4.31,3.82,3.9,3.9,0,0,1-.47,3s-.08,0,0,0c1.08-1.63.22-3.93-1.17-5.08a8.39,8.39,0,0,0-5.78-1.55,16.41,16.41,0,0,0-3.87.78C364.64,108.77,364.6,108.67,364.67,108.64Z" style="fill:#263238"></path><path d="M352.67,109a4.57,4.57,0,0,1,2.88-3.19,7.75,7.75,0,0,1,5-.29,9.81,9.81,0,0,1,4.39,2.66s0,.07-.05,0a8.61,8.61,0,0,0-8.48-2.29,4.73,4.73,0,0,0-3.18,2.64,4.68,4.68,0,0,0,.49,3.92,8.78,8.78,0,0,0,3.72,3.1,0,0,0,1,1,0,.06,9,9,0,0,1-3.67-2.59A5.13,5.13,0,0,1,352.67,109Z" style="fill:#263238"></path><path d="M357.28,119.4a16.14,16.14,0,0,0,6.77.54,32.93,32.93,0,0,0,6.93-1.62c1.31-.45,2.6-.94,3.89-1.47,0,0,.06.05,0,.07a35.31,35.31,0,0,1-7,2.88,17.87,17.87,0,0,1-6.94.59,16,16,0,0,1-3.72-.94S357.25,119.39,357.28,119.4Z" style="fill:#263238"></path><path d="M373.59,130.34s3.18-4.33,5.15-3.19-.48,7.47-2.85,8.29a2.38,2.38,0,0,1-3.16-1.35Z" style="fill: rgb(235, 148, 129);"></path><path d="M378,129s.05.05,0,.06a6,6,0,0,0-3.2,3.7,1.32,1.32,0,0,1,2-.31s0,.09,0,.08a1.46,1.46,0,0,0-1.62.48,6.8,6.8,0,0,0-.8,1.29c-.08.14-.35.06-.29-.11l0,0C374,132,375.74,129.11,378,129Z" style="fill:#263238"></path><path d="M376.71,168.89c-2.44,5.89-16.71,36.84-25.74,41.46-13.45,6.86-34.69,9.05-42.49,9.19-3.4.06-6.6-25.64-3-26.24,7.67-1.29,31.86-3.05,34.31-4.21S357,170.66,365.17,162C376.11,150.38,382.64,154.59,376.71,168.89Z" style="fill: rgb(235, 148, 129);"></path><path d="M308.44,219.6c-11.17.92-28.37-8-30.42-9.82-1.75-1.56-2.64-2.39-2.64-2.39-3.2-2.74-3.25-5.25-3.25-5.25s-4.64-2.08-3.84-5.09c.88-3.38,7.22.21,11.91,0,10.76-.36,25.94-3.88,29-4.29Z" style="fill: rgb(235, 148, 129);"></path><path d="M291.74,204.64a67.43,67.43,0,0,1-9.43-.22,69.05,69.05,0,0,1-10.07-2.33.09.09,0,0,0-.06.16,36.68,36.68,0,0,0,19.57,2.67C291.91,204.89,291.9,204.64,291.74,204.64Z" style="fill:#263238"></path><path d="M292.9,211.1c-3.08-.13-8.5-.39-17.49-3.8,0,0-.05,0,0,0a32.93,32.93,0,0,0,17.49,4.06C293.07,211.4,293.11,211.11,292.9,211.1Z" style="fill:#263238"></path><path d="M293.14,195.85c1.38-.61,1.07-1.34-1.52-2s-13.43-1.16-12.94-4.93,15.76-2.86,20-1.4,10.78,5.4,10.78,5.4C306.44,193.33,299,194.94,293.14,195.85Z" style="fill: rgb(235, 148, 129);"></path><path d="M367,193l-17.92-15.64a222.21,222.21,0,0,1,18.37-18.16c8.53-7.17,15.54-6.4,9.4,10.5S367,193,367,193Z" style="fill:#FFC727"></path><path d="M368.47,188.2a188.16,188.16,0,0,1-15.39-13.46c-.06-.06,0-.14.09-.09,1.19,1.16,9.86,8.16,15.4,13.45C368.63,188.16,368.54,188.25,368.47,188.2Z" style="fill:#263238"></path><path d="M365.45,191.64A13,13,0,0,1,367,193c1.52-3.26,2.86-6.56,4.2-9.9.68-1.69,1.35-3.39,2-5.08s1.29-3.49,2.13-5.14c0,0,.1,0,.09,0a39.5,39.5,0,0,1-1.44,4.6l.12-.19c.45-.67.89-1.34,1.29-2,.05-.09.18,0,.13.06-.35.74-.71,1.49-1.12,2.19a9,9,0,0,1-.64,1l-.22.26c-.53,1.53-1.09,3-1.69,4.55-.67,1.69-1.4,3.36-2.16,5a47.22,47.22,0,0,1-2.6,5,9.54,9.54,0,0,1-1.72-1.61C365.39,191.69,365.4,191.62,365.45,191.64Z" style="fill:#263238"></path><path d="M349,177.4c1.93-2.26,3.93-4.63,6-6.74.73-.73,1.49-1.44,2.24-2.15.65-.94,1.42-1.8,2.14-2.68a.07.07,0,0,1,.11.1l-1.16,1.54q1.57-1.44,3.19-2.83s.09,0,.06.05c-2.1,2.07-4.16,4.19-6.21,6.31s-4.17,4.19-6.16,6.37c0,0,1.13,1,1.08,1A11.21,11.21,0,0,1,349,177.4Z" style="fill:#263238"></path><path d="M186.15,425.27c-1.94.63-57.35,0-59.45-1.31-.8-.52-1.19-8.59-1.38-18.36,0-2.11-.07-4.29-.08-6.5-.13-14.37.06-29.62.06-29.62l37.07.28-1.09,29.61-.23,6.5s21.12,9.72,23.26,11.45S188.09,424.64,186.15,425.27Z" style="fill: rgb(235, 148, 129);"></path><path d="M186.15,425.27c-1.94.63-57.35,0-59.45-1.31-.8-.52-1.19-8.59-1.37-18.36,0-2.11-.08-4.29-.09-6.5s0-4.58,0-6.84h36.35l-.26,7.11-.24,6.5s21.12,9.72,23.26,11.45S188.09,424.64,186.15,425.27Z" style="fill:#ebebeb"></path><path d="M186.32,425.35c-2,.63-57.68,0-59.79-1.32-1-.63-1.34-12.49-1.47-25l36.25.28-.23,6.54s21.23,9.76,23.39,11.51S188.27,424.72,186.32,425.35Z" style="fill:#FFC727"></path><path d="M185.54,423.11c-9.34-.32-47-.76-56.29-.38-.07,0-.07,0,0,.06,9.25.53,46.95.66,56.29.48C185.74,423.26,185.74,423.12,185.54,423.11Z" style="fill:#263238"></path><path d="M162.42,403.78c-3.67-.72-8.17-.2-11,2.39-.11.1,0,.25.15.21a51.88,51.88,0,0,1,10.84-2.13A.24.24,0,0,0,162.42,403.78Z" style="fill:#263238"></path><path d="M165.05,405.41c-3.67-.72-8.17-.21-11,2.38-.11.1,0,.26.15.22A51.79,51.79,0,0,1,165,405.88.24.24,0,0,0,165.05,405.41Z" style="fill:#263238"></path><path d="M167.69,407c-3.67-.73-8.17-.21-11,2.38-.11.1,0,.25.16.22a51,51,0,0,1,10.83-2.14A.23.23,0,0,0,167.69,407Z" style="fill:#263238"></path><path d="M170.33,408.66c-3.67-.72-8.17-.2-11,2.39-.11.1,0,.25.15.21a51.88,51.88,0,0,1,10.84-2.13A.24.24,0,0,0,170.33,408.66Z" style="fill:#263238"></path><path d="M169.29,395.36c-1.42-2-4.12-1.14-5.67.13a19.72,19.72,0,0,0-5.75,8.36.1.1,0,0,0,.09.13c0,.28.26.58.57.47,3.05-1.09,6.44-1.88,9.06-3.88C169.12,399.41,170.64,397.25,169.29,395.36Zm-6.48,6.49c-1.48.57-3,1.07-4.45,1.7a56.28,56.28,0,0,1,3.46-4.81,22.87,22.87,0,0,1,2-2.09c1.11-1,5.46-3,4.77,1C168.18,399.84,164.58,401.17,162.81,401.85Z" style="fill:#263238"></path><path d="M148.54,402.79c3,1.33,6.5,1.3,9.72,1.64.33,0,.5-.31.45-.58a.11.11,0,0,0,0-.15,19.65,19.65,0,0,0-7.55-6.78c-1.81-.87-4.63-1.08-5.55,1.2S146.78,402,148.54,402.79Zm-1.63-2.64c-1.62-3.75,3.1-2.76,4.41-2.06a23.46,23.46,0,0,1,2.4,1.56,59.19,59.19,0,0,1,4.5,3.87c-1.57-.27-3.15-.4-4.73-.61C151.61,402.66,147.8,402.22,146.91,400.15Z" style="fill:#263238"></path><path d="M114.15,210.83s10.81,91,11,92.26c0,.16-3.07,83.86-3.07,83.86h40.42s1.1-71.69-.4-86.08c-1.91-18.36-14-90-14-90Z" style="fill:#263238"></path><path d="M124.45,378.64c6.21-.13,4.42-.18,10.63-.24,3,0,23-.2,25.85.27a.06.06,0,0,1,0,.12c-2.84.47-22.81.3-25.85.27-6.21-.06-4.42-.11-10.63-.24A.09.09,0,1,1,124.45,378.64Z" style="fill:#37474f"></path><path d="M130.53,295.63c-.56-5.14-1.3-10.27-2-15.4q-2-15.5-4.11-31c-1.58-11.71-3.26-23.41-4.92-35.1,0-.15-.25-.14-.23,0q1.88,15.66,3.8,31.32c1.28,10.34,2.65,20.67,4,31s3.11,20.52,3.06,30.87c0,5.21-.25,10.42-.4,15.62s-.29,10.42-.43,15.63c-.31,11.8-.76,23.61-.64,35.41,0,.15.22.14.23,0,.72-10.51.94-21.06,1.29-31.59s.71-20.84.94-31.26A118,118,0,0,0,130.53,295.63Z" style="fill:#37474f"></path><path d="M88.88,423.41c-2-.57-47.51-32.13-48.49-34.43-.37-.87,3.84-7.78,9.16-16,1.15-1.77,2.35-3.59,3.57-5.43,8-12,16.67-24.49,16.67-24.49l30.53,21L82.81,388,79,393.27s12,19.89,12.83,22.53S90.84,424,88.88,423.41Z" style="fill: rgb(235, 148, 129);"></path><path d="M88.88,423.41c-2-.57-47.51-32.13-48.49-34.43-.37-.88,3.83-7.78,9.16-16,1.15-1.77,2.34-3.59,3.58-5.43s2.54-3.81,3.8-5.69L87,382.28,82.82,388,79,393.27s12,19.89,12.83,22.52S90.84,424,88.88,423.41Z" style="fill:#ebebeb"></path><path d="M89,423.57C87,423,41.2,391.26,40.21,389c-.45-1.07,5.89-11.1,12.81-21.52L82.87,388,79,393.26s12.11,20,12.91,22.65S90.94,424.14,89,423.57Z" style="fill:#FFC727"></path><path d="M89.58,421.28c-7.54-5.51-38.5-27-46.38-31.88-.07,0-.1,0,0,0,7.36,5.63,38.5,26.88,46.34,32C89.66,421.52,89.74,421.4,89.58,421.28Z" style="fill:#263238"></path><path d="M81.28,392.31c-2.63-2.66-6.65-4.76-10.45-4.2-.15,0-.11.23,0,.26A52.2,52.2,0,0,1,81,392.68.23.23,0,0,0,81.28,392.31Z" style="fill:#263238"></path><path d="M82.55,395.13c-2.63-2.65-6.65-4.75-10.45-4.2-.15,0-.11.23,0,.27a51.59,51.59,0,0,1,10.16,4.31A.24.24,0,0,0,82.55,395.13Z" style="fill:#263238"></path><path d="M83.82,398c-2.63-2.66-6.65-4.75-10.45-4.2-.15,0-.11.23,0,.27a51.56,51.56,0,0,1,10.16,4.3A.23.23,0,0,0,83.82,398Z" style="fill:#263238"></path><path d="M85.09,400.79c-2.63-2.66-6.65-4.76-10.45-4.21-.15,0-.11.23,0,.27a51.59,51.59,0,0,1,10.16,4.31A.23.23,0,0,0,85.09,400.79Z" style="fill:#263238"></path><path d="M91.7,389.19c0-2.46-2.77-3.26-4.77-3.07a19.55,19.55,0,0,0-9.45,3.7.09.09,0,0,0,0,.15.46.46,0,0,0,.21.71c3.13.81,6.39,2.05,9.67,1.87C89.28,392.45,91.75,391.51,91.7,389.19Zm-9,1.74c-1.55-.36-3.07-.79-4.64-1.09a58,58,0,0,1,5.57-2,20.57,20.57,0,0,1,2.8-.62c1.46-.2,6.23.53,3.4,3.47C88.26,392.28,84.54,391.36,82.69,390.93Z" style="fill:#263238"></path><path d="M70.35,383.71c1.75,2.78,4.65,4.71,7.12,6.8a.45.45,0,0,0,.7-.23.1.1,0,0,0,.13-.1,19.72,19.72,0,0,0-2.45-9.84c-1-1.74-3.23-3.49-5.27-2.12S69.32,382.08,70.35,383.71Zm.13-3.1c.76-4,4.11-.55,4.8.76A21.05,21.05,0,0,1,76.39,384,56.89,56.89,0,0,1,78,389.73c-1.15-1.1-2.38-2.09-3.57-3.15C73,385.32,70.05,382.82,70.48,380.61Z" style="fill:#263238"></path><path d="M148.18,210.83s-6.29,19.4-13.41,29.19c0,0-1.86,71.73-4.76,80-4.8,13.66-35.92,60.71-35.92,60.71L59.86,357.05S89.43,313.36,91.3,308.4c1.24-3.29,4.86-60.15,4.34-61.57-6.28-17.21,3.18-36,3.18-36Z" style="fill:#263238"></path><path d="M67.16,349.84c5.19,3.42,3.75,2.36,8.89,5.84,2.52,1.7,19.06,12.9,21.13,14.9,0,0,0,.13-.07.1-2.61-1.22-19-12.71-21.43-14.46-5.08-3.57-3.58-2.6-8.62-6.23C67,349.92,67.07,349.77,67.16,349.84Z" style="fill:#37474f"></path><path d="M100,244.75c-.51-2.24-1.08-4.47-1.41-6.74a32.79,32.79,0,0,1-.29-6.93,67.86,67.86,0,0,1,2.53-13.84c.31-1.13.63-2.26,1-3.38.06-.21-.25-.28-.32-.08A93.52,93.52,0,0,0,98,227.28a37.62,37.62,0,0,0,.35,13.34c.93,4.53,2.25,8.95,2.08,13.63-.1,2.42-3,47.49-3,49.83a19.24,19.24,0,0,1-.91,6.78,34.3,34.3,0,0,1-3.19,5.9c-1.23,2-2.47,4-3.73,6-4.93,7.89-10,15.71-15.26,23.38l-2,2.91c-.07.1.09.19.16.1,5.53-7.63,10.87-15.36,16-23.28,2.5-3.88,5-7.77,7.32-11.79A16.7,16.7,0,0,0,97.94,308c.28-2.17,3.34-54.36,3.16-56.71A47.24,47.24,0,0,0,100,244.75Z" style="fill:#37474f"></path><path d="M115.59,217.41c-.86,3.5-.73,7.87-3.22,10.74a8.52,8.52,0,0,1-4.82,2.51,23.21,23.21,0,0,1-6.28.34c-.09,0-.09.13,0,.16,3.75,1.19,8.95,1,11.79-2.1a9.5,9.5,0,0,0,2.17-5.16,46.77,46.77,0,0,0,.52-6.47A.08.08,0,0,0,115.59,217.41Z" style="fill:#37474f"></path><path d="M135,240.15a.28.28,0,0,0-.55,0c-.15,1.58-.12,3.18-.17,4.77l-.12,4.52c-.08,3.1-.14,6.2-.22,9.3-.14,6.19-.32,12.38-.58,18.57s-.54,12.38-.85,18.57c-.16,3.09-.34,6.18-.52,9.27a66.31,66.31,0,0,1-.92,8.89,52.69,52.69,0,0,1-6.71,17.14c-.08.13.11.22.2.11a40.85,40.85,0,0,0,7-14.86c1.4-5.79,1.54-11.78,1.88-17.7.7-12.49,1.16-25,1.48-37.51.08-3.51.16-7,.17-10.54,0-1.72,0-3.43,0-5.15S135.16,241.94,135,240.15Z" style="fill:#37474f"></path><path d="M141.34,237.12a77.21,77.21,0,0,0-11.9,5.28.13.13,0,1,0,.11.23c4-1.64,8.1-3.21,12-5.06A.25.25,0,1,0,141.34,237.12Z" style="fill:#37474f"></path><path d="M142.54,211c0-.14-.25-.17-.25,0a122.46,122.46,0,0,1-.67,12.76c-.19,2-1.85,12.85-5.43,12.05-.6-.13-.9-.69-1-1.55a13.21,13.21,0,0,1,.48-3.34c.4-2.27.72-4.56.92-6.86a60.1,60.1,0,0,0-.14-12.86.12.12,0,0,0-.24,0,111.12,111.12,0,0,1-1.09,17.76c-.44,2.83-1.94,7.09,1.17,7.52s5.2-6.69,5.59-8.64A62.45,62.45,0,0,0,142.54,211Z" style="fill:#37474f"></path><path d="M136.29,236a20.12,20.12,0,0,0-.81,2.25,5,5,0,0,0-.33,1.85c0,.12.18.14.25.06a6.61,6.61,0,0,0,.83-1.81c.27-.7.56-1.39.81-2.09C137.21,235.83,136.49,235.59,136.29,236Z" style="fill:#37474f"></path><path d="M153,181.86c-.55,0-3.12,0-6.88,0a21.14,21.14,0,0,1-1.87-12.69c.15-1-2.35,4.65-1.63,12.69-7.27,0-17.15-.05-25.79-.15-.08-3.38-.3-6.5-.3-6.5a37.05,37.05,0,0,1-1.58,6.48c-1.18,0-2.34,0-3.45,0a131.53,131.53,0,0,0-.26-14.36,46.41,46.41,0,0,1-4.64,14.28c-5.48-.13-9.09-.31-8.85-.56,8.54-9.29,2.61-14.92,5.19-23.24,3.09-10,11.78-11.32,11.72-18.86,0-6.14-.5-17.28,7.3-19.46a14.93,14.93,0,0,1,16.28-2.67c12.11,5,6.77,23.78,7.51,27.65,1,5.53,3.61,7.53,5.39,13.85s-1.17,10.52-1.61,14.81S154.36,181.88,153,181.86Z" style="fill:#263238"></path><path d="M97.52,179.61a21.35,21.35,0,0,0,2.8-5.29,11.12,11.12,0,0,0,.13-5.76,59.13,59.13,0,0,1-.85-6.09,15.91,15.91,0,0,1,.77-6.29,14,14,0,0,1,3.44-5.35,37.84,37.84,0,0,1,4.81-3.88,22.09,22.09,0,0,0,4.46-3.92,10.84,10.84,0,0,0,2.34-5.42,10.26,10.26,0,0,1-1.74,5.86,20.65,20.65,0,0,1-4.32,4.43,47.85,47.85,0,0,0-4.48,3.95,13.42,13.42,0,0,0-3,4.85,15.56,15.56,0,0,0-.73,5.7c.06,2,.38,3.95.59,6a20.24,20.24,0,0,1,.12,3.13,9,9,0,0,1-.78,3.09A17.26,17.26,0,0,1,97.52,179.61Z" style="fill:#263238"></path><path d="M145,124a30.72,30.72,0,0,1,1.48,7.36c.24,2.49.37,5,.47,7.48l.16,3.72a18.84,18.84,0,0,0,.47,3.57,20,20,0,0,0,3.18,6.42,29,29,0,0,1,1.91,3.32,17.4,17.4,0,0,1,1.27,3.7,26.42,26.42,0,0,1,.44,3.84,15.74,15.74,0,0,1-.32,3.87c-.25,1.27-.64,2.47-1,3.64a19.22,19.22,0,0,0-.66,3.59,7.63,7.63,0,0,0,2.84,6.4,7.75,7.75,0,0,1-3.62-6.43,18.59,18.59,0,0,1,.42-3.8c.25-1.25.6-2.44.76-3.62a19.8,19.8,0,0,0-.38-7.15,17.14,17.14,0,0,0-1.2-3.35,25.91,25.91,0,0,0-1.85-3.13,37.14,37.14,0,0,1-2-3.27,15.5,15.5,0,0,1-1.36-3.68,20.55,20.55,0,0,1-.39-3.86c0-1.26,0-2.51,0-3.75,0-2.5.06-5,0-7.46A35.43,35.43,0,0,0,145,124Z" style="fill:#263238"></path><path d="M133.39,163.3c9.83,12.75,24.28,24.22,30.64,24.22,7.37,0,20.85-9.42,33.32-18.55,2.73-2-15.31-21.83-17.07-20.23-6,5.49-17.65,15.57-18.9,15.95-1.42.43-13.12-5.13-20.41-9.59C129.48,148.09,126.44,154.27,133.39,163.3Z" style="fill: rgb(235, 148, 129);"></path><path d="M157.44,187.09l3-23.07s-10.81-5.85-22.45-11-12.81.76-3.16,13.53A89.64,89.64,0,0,0,157.44,187.09Z" style="fill:#FFC727"></path><path d="M141.52,155.87a1.52,1.52,0,1,1-1.52-1.52A1.52,1.52,0,0,1,141.52,155.87Zm-12.71,0a.47.47,0,0,0-.17,0,16.6,16.6,0,0,0,1.08,2.72,1.52,1.52,0,0,0-.91-2.74Zm7.08,6.94a1.52,1.52,0,1,0,1.52,1.52A1.52,1.52,0,0,0,135.89,162.81Zm20,4.81a1.53,1.53,0,1,0,1.52,1.52A1.52,1.52,0,0,0,155.87,167.62Zm-11.36,2.17a1.52,1.52,0,1,0,1.52,1.52A1.52,1.52,0,0,0,144.51,169.79Zm3-8.51a1.53,1.53,0,1,0,1.52,1.53A1.52,1.52,0,0,0,147.49,161.28Zm5.4,15.85a1.53,1.53,0,1,0,1.53,1.52A1.52,1.52,0,0,0,152.89,177.13Z" style="fill:#fff"></path><path d="M152.89,181.16a170.42,170.42,0,0,1,2.86-18.32c0-.07.13,0,.11,0-.31,1.47-1.47,11.54-2.84,18.32C153,181.28,152.89,181.24,152.89,181.16Z" style="fill:#263238"></path><path d="M159.29,172.74l-1.85,14.35a89.64,89.64,0,0,1-22.63-20.52c-3.53-4.67-5.61-8.42-6.26-11Z" style="fill:#263238"></path><path d="M149.56,192.44l1.17,24.46-55.09-1s12.19-47.48,24.83-60.26c6.33-6.39,13.46-5.64,17.85-.85,1.11,1.21,13.21,17.88,14.41,24.88C153.77,185.84,149.56,192.44,149.56,192.44Z" style="fill:#FFC727"></path><path d="M118.71,158.61a1.54,1.54,0,0,1-1.53,1.53,1.15,1.15,0,0,1-.26,0c.53-.79,1.06-1.53,1.6-2.22A1.46,1.46,0,0,1,118.71,158.61Zm-1.24,15.83A1.53,1.53,0,1,0,119,176,1.52,1.52,0,0,0,117.47,174.44Zm5.35,16.16a1.53,1.53,0,0,0,0,3.05,1.53,1.53,0,1,0,0-3.05Zm8.34,6.26a1.53,1.53,0,1,0,1.52,1.53A1.52,1.52,0,0,0,131.16,196.86Zm17.4,4.47a1.52,1.52,0,1,0,1.52,1.52A1.53,1.53,0,0,0,148.56,201.33Zm-23.09,3.15A1.52,1.52,0,1,0,127,206,1.52,1.52,0,0,0,125.47,204.48Zm-6.93,8.43a1.53,1.53,0,1,0,1.52,1.53A1.52,1.52,0,0,0,118.54,212.91Zm-17.28-10.06a1.53,1.53,0,1,0,1.53,1.52A1.52,1.52,0,0,0,101.26,202.85Zm22.38-37a1.53,1.53,0,1,0,1.52,1.52A1.52,1.52,0,0,0,123.64,165.83Zm15-10.64a1.4,1.4,0,0,0-.17.68,1.52,1.52,0,0,0,1.52,1.52l.27,0C139.57,156.39,139,155.64,138.65,155.19Zm-6.8,16.12a1.53,1.53,0,1,0,1.53,1.52A1.52,1.52,0,0,0,131.85,171.31Zm-5.16,9a1.53,1.53,0,1,0,1.52,1.53A1.53,1.53,0,0,0,126.69,180.33Zm-19.24,12.95a1.53,1.53,0,1,0,1.53,1.53A1.53,1.53,0,0,0,107.45,193.28Zm3,13.83a1.53,1.53,0,0,0,0,3,1.53,1.53,0,1,0,0-3Zm-7.48,5.4a1.53,1.53,0,1,0,1.52,1.52A1.52,1.52,0,0,0,103,212.51Zm32.31-25.42a1.53,1.53,0,1,0,1.52,1.53A1.53,1.53,0,0,0,135.33,187.09Zm7.89,6.19a1.53,1.53,0,1,0,1.53,1.53A1.53,1.53,0,0,0,143.22,193.28ZM145,210.57a1.53,1.53,0,1,0,1.53,1.53A1.52,1.52,0,0,0,145,210.57Zm-6.47-7.09A1.53,1.53,0,1,0,140,205,1.53,1.53,0,0,0,138.48,203.48Zm-5.8,8.42a1.52,1.52,0,1,0,1.53,1.52A1.52,1.52,0,0,0,132.68,211.9Zm-20.14-44.11c-.27.54-.54,1.08-.8,1.64a1.49,1.49,0,0,0,.83-1.34A1.53,1.53,0,0,0,112.54,167.79Zm16.27-11.92a1.53,1.53,0,1,0,1.52,1.52A1.52,1.52,0,0,0,128.81,155.87Zm7.08,6.94a1.52,1.52,0,1,0,1.52,1.52A1.52,1.52,0,0,0,135.89,162.81ZM115,185a1.53,1.53,0,1,0,1.52,1.53A1.52,1.52,0,0,0,115,185Zm.7,13.73a1.52,1.52,0,1,0,1.52,1.52A1.52,1.52,0,0,0,115.66,198.76Zm28.85-29a1.52,1.52,0,1,0,1.52,1.52A1.52,1.52,0,0,0,144.51,169.79Zm-4.51,9a1.53,1.53,0,1,0,1.52,1.52A1.52,1.52,0,0,0,140,178.81Zm9.34,6.63a1.53,1.53,0,1,0,1.52,1.52A1.52,1.52,0,0,0,149.34,185.44Zm3.39-5.77a13.64,13.64,0,0,0-.65-2.3,1.49,1.49,0,0,0-.71,1.28,1.51,1.51,0,0,0,1.43,1.52C152.78,180,152.76,179.84,152.73,179.67Zm-44.64-1.93c-.28.69-.56,1.38-.83,2.07a1.52,1.52,0,0,0,1-1.42A1.41,1.41,0,0,0,108.09,177.74Z" style="fill:#fff"></path><path d="M116.34,156.82C95.12,170.14,72,203.23,79.18,208.73c6.55,5,30.86,9.28,41,9.45,3,0,2.75-25.87-.44-25.93-3.86-.07-13.64.38-14,.26-.78-.27,14-22.43,19.15-31.08C132,149.37,124.31,151.81,116.34,156.82Z" style="fill: rgb(235, 148, 129);"></path><path d="M151.64,195.17a3.87,3.87,0,0,1-1.41,4.17,5.69,5.69,0,0,1,2,3.35c.32,2.33-3.19,3.86-3.19,3.86a7.08,7.08,0,0,1,1.51,3.87c.08,2.26-3.25,4.31-3.25,4.31a6.2,6.2,0,0,1-.81,4.24c-2.19,3.31-8.26,3.15-12.11,3.08s-14.73-3.86-16.88-4.37l.21-24.75s17.37-4.62,21.89-3.9C143.38,189.63,150.68,192.31,151.64,195.17Z" style="fill: rgb(235, 148, 129);"></path><path d="M150.07,198.94c-3.9-1.62-8.06-2-12.19-2.61a.08.08,0,0,0,0,.15c4.11.56,8.07,1.93,12.15,2.65A.1.1,0,0,0,150.07,198.94Z" style="fill:#263238"></path><path d="M148.93,206.23a10.83,10.83,0,0,0-2.84-.48c-1-.1-2-.18-3-.24-2-.13-4.08-.22-6.12-.24-.09,0-.11.13,0,.14q3,.19,6.08.52l3,.35a12.59,12.59,0,0,0,2.87.22A.14.14,0,0,0,148.93,206.23Z" style="fill:#263238"></path><path d="M147.19,214.72a8,8,0,0,0-2.58-.29l-2.78-.13c-1.86-.11-3.72-.21-5.57-.37-.09,0-.11.13,0,.14,1.88.18,3.76.38,5.64.54l2.78.23a7.41,7.41,0,0,0,2.53,0A.06.06,0,0,0,147.19,214.72Z" style="fill:#263238"></path><path d="M106.37,192.48a29.32,29.32,0,0,0-4.58.33c-1.52.16-3,.42-4.53.71a54.4,54.4,0,0,0-8.64,2.61c-.09,0,0,.18,0,.15,3-.81,6-1.44,9-2.09,1.47-.31,2.94-.59,4.41-.87s2.91-.4,4.32-.74C106.46,192.57,106.42,192.49,106.37,192.48Z" style="fill:#263238"></path><path d="M90.21,178.1l22.24,4.38a212.47,212.47,0,0,0,13.2-21.2c6-11.22,1.18-11.72-12.28-3.08A119.46,119.46,0,0,0,90.21,178.1Z" style="fill:#FFC727"></path><path d="M118.71,158.61a1.53,1.53,0,1,1-3,0,1.53,1.53,0,0,1,3,0ZM101.2,169.69a1.53,1.53,0,1,0,1.52,1.52A1.52,1.52,0,0,0,101.2,169.69Zm16.27,4.75a1.52,1.52,0,0,0-1.2,2.45c.49-.74,1-1.54,1.57-2.4A1.5,1.5,0,0,0,117.47,174.44Zm4.64-7.09a.47.47,0,0,0,0,.17c.31-.51.61-1,.92-1.57A1.51,1.51,0,0,0,122.11,167.35ZM111,166.56a1.53,1.53,0,1,0,1.53,1.53A1.53,1.53,0,0,0,111,166.56Zm16.24-9.17a1.5,1.5,0,0,0,0,.37c.23-.57.41-1.09.55-1.57A1.48,1.48,0,0,0,127.28,157.39Zm-20.56,19.48a1.52,1.52,0,1,0,1.52,1.52A1.53,1.53,0,0,0,106.72,176.87Z" style="fill:#fff"></path><path d="M113.34,178.39a168.15,168.15,0,0,1-18.19-3.53c-.07,0,0-.13,0-.12,1.46.37,11.47,1.9,18.2,3.53C113.47,178.29,113.42,178.4,113.34,178.39Z" style="fill:#263238"></path><path d="M121.67,170.09l-1.34,1.42c-.1.1-.19.21-.29.32,1-1.71,1.9-3.45,2.78-5.2a0,0,0,1,0-.06,0c-1.71,2.65-3.44,5.3-5.12,8s-3.47,5.17-5,7.88l-1-.17a.08.08,0,0,0,0,.15l1.11.38a.16.16,0,0,0,.17-.05,69.36,69.36,0,0,0,5.29-7.76c.45-.73.9-1.47,1.33-2.22a.57.57,0,0,1,.11-.11l.45-.5a23.39,23.39,0,0,0,1.67-2S121.7,170,121.67,170.09Z" style="fill:#263238"></path><path d="M127.93,154.9c.36.85,5.62,5.8,9.62,4.88,1.3-.31,0-7.49,0-7.49l0-.55.31-7.73-9.76-4-1.39-.51s0,2.12.15,4.76c0,.13,0,.25,0,.38s0,.29,0,.43c0,.39,0,.8,0,1.2s0,.6,0,.92,0,.64.06,1A50.26,50.26,0,0,0,127.93,154.9Z" style="fill: rgb(235, 148, 129);"></path><path d="M126.84,144.25a15.51,15.51,0,0,0,10.69,7.49l.31-7.73-9.76-4-1.39-.51S126.74,141.61,126.84,144.25Z" style="fill:#263238"></path><path d="M147.05,131.44c3.12,13.22-4.45,16.58-7.3,17.25-2.59.61-11.48,2.34-16-10.49s.7-18.46,6.54-20.16S143.94,118.21,147.05,131.44Z" style="fill: rgb(235, 148, 129);"></path><path d="M144.55,128.62a7.38,7.38,0,0,1-.94,0,1.44,1.44,0,0,1-1-.16.48.48,0,0,1-.14-.57,1.22,1.22,0,0,1,1.09-.55,1.78,1.78,0,0,1,1.22.36A.52.52,0,0,1,144.55,128.62Z" style="fill:#263238"></path><path d="M135.88,130.72a8.09,8.09,0,0,0,.84-.4,1.48,1.48,0,0,0,.79-.57.48.48,0,0,0-.13-.57,1.19,1.19,0,0,0-1.22,0,1.74,1.74,0,0,0-.93.86A.51.51,0,0,0,135.88,130.72Z" style="fill:#263238"></path><path d="M136.67,134.07a.83.83,0,0,1-.19.26.59.59,0,0,1-.47.2c-.55,0-.83-.56-.91-1.11,0,0,0-.07,0,0,.25.26.54.53.85.46a1.12,1.12,0,0,0,.52-.43A2.89,2.89,0,0,0,136.67,134.07Z" style="fill:#263238"></path><path d="M136.43,133.94a1.41,1.41,0,0,1,.16-.73,1,1,0,0,1,.66-.49.9.9,0,0,1,.79.22,1.59,1.59,0,0,1,.42.62,3,3,0,0,1,.12.43,1.91,1.91,0,0,1,0,.92,3.46,3.46,0,0,0-.18-.65,3.1,3.1,0,0,0-.26-.55c-.2-.36-.5-.63-.8-.55s-.51.38-.56.8a7,7,0,0,0,0,1.29A2.9,2.9,0,0,1,136.43,133.94Z" style="fill:#263238"></path><path d="M145.27,132a1.3,1.3,0,0,0,.3.13.63.63,0,0,0,.5-.08c.47-.3.42-.91.19-1.43,0,0,0,0,0,0-.07.36-.18.74-.48.84a1.14,1.14,0,0,1-.67-.09A2.4,2.4,0,0,1,145.27,132Z" style="fill:#263238"></path><path d="M145.41,131.78a1.36,1.36,0,0,0-.52-.55,1,1,0,0,0-.81-.07.94.94,0,0,0-.57.61,1.69,1.69,0,0,0,0,.74,3,3,0,0,0,.12.43,1.92,1.92,0,0,0,.49.78,2.59,2.59,0,0,1-.19-.64,4.39,4.39,0,0,1-.07-.61c0-.41.1-.8.4-.88s.63,0,.89.38a7.14,7.14,0,0,1,.65,1.12A2.93,2.93,0,0,0,145.41,131.78Z" style="fill:#263238"></path><path d="M139.93,140.85a1.45,1.45,0,0,0,.86.41,2.53,2.53,0,0,0,.94-.4,0,0,0,0,1,.05,0,1.25,1.25,0,0,1-1.07.69,1,1,0,0,1-.86-.68S139.89,140.83,139.93,140.85Z" style="fill:#263238"></path><path d="M142.94,136.72s.5,1.3.65,1.94c0,.06-.14.12-.35.18h0a3.1,3.1,0,0,1-3.2-.45c-.06-.05,0-.13.08-.11a4.63,4.63,0,0,0,2.94.15c0-.18-.93-2.2-.83-2.23a5.83,5.83,0,0,1,1.51,0c-1-2.74-2.35-5.31-3.26-8,0-.1.1-.17.15-.08a46.67,46.67,0,0,1,3.89,8.52C144.64,136.94,143.22,136.77,142.94,136.72Z" style="fill:#263238"></path><path d="M143.13,138.42a3.79,3.79,0,0,1-1,1.6,1.77,1.77,0,0,1-1,.4c-.77.06-1-.58-1.08-1.18a4.26,4.26,0,0,1,0-1A4.91,4.91,0,0,0,143.13,138.42Z" style="fill:#263238"></path><path d="M142.09,140a1.77,1.77,0,0,1-1,.4c-.77.06-1-.58-1.08-1.18A1.77,1.77,0,0,1,142.09,140Z" style="fill:#ff9bbc"></path><path d="M124.22,137.66c3.22-.7,2-5.76,2-5.76s3.56-1.15,2.5-7.09a9.13,9.13,0,0,0,7.65,2.76c1.08-.09-3-2-3-2s5.06,2.85,12.52-.36c.53-.22-2.09-9.1-8.83-10.52s-12.31,2.35-15.21,7.06c0,0-5.1,4.21-4.64,8.57S123,137.93,124.22,137.66Z" style="fill:#263238"></path><path d="M127.23,137.72s-3.55-3.77-5.3-2.45,1.35,7.09,3.7,7.59a2.29,2.29,0,0,0,2.87-1.66Z" style="fill: rgb(235, 148, 129);"></path><path d="M122.86,136.9a0,0,0,1,0,0,.06,5.81,5.81,0,0,1,3.49,3.17,1.26,1.26,0,0,0-1.93-.07s0,.09.06.07a1.42,1.42,0,0,1,1.61.27,7.1,7.1,0,0,1,.92,1.13c.09.13.33,0,.26-.13l0,0C127,139.36,125,136.79,122.86,136.9Z" style="fill:#263238"></path></g><g id="freepik--Lines--inject-55"><path d="M244,98.58a85.7,85.7,0,0,1-.5-9.73,85.82,85.82,0,0,1,.5-9.73,81.42,81.42,0,0,1,.5,9.73A81.31,81.31,0,0,1,244,98.58Z" style="fill:#263238"></path><path d="M224.22,104.31a81.55,81.55,0,0,1-5.3-8.18,82.17,82.17,0,0,1-4.43-8.67,95.74,95.74,0,0,1,9.73,16.85Z" style="fill:#263238"></path><path d="M209.93,119.17a83.31,83.31,0,0,1-8.68-4.43,83.11,83.11,0,0,1-8.17-5.29,81.26,81.26,0,0,1,8.67,4.43A84.46,84.46,0,0,1,209.93,119.17Z" style="fill:#263238"></path><path d="M278.91,117.81a83.11,83.11,0,0,1,8.17-5.29,81.41,81.41,0,0,1,8.68-4.43,83.25,83.25,0,0,1-8.18,5.29A83.16,83.16,0,0,1,278.91,117.81Z" style="fill:#263238"></path><path d="M264,103.52a86.2,86.2,0,0,1,4.43-8.67,85.23,85.23,0,0,1,5.3-8.18,83.31,83.31,0,0,1-4.43,8.68A83.21,83.21,0,0,1,264,103.52Z" style="fill:#263238"></path></g></svg>