<svg xmlns="http://www.w3.org/2000/svg" viewBox="0 0 500 500"><g id="freepik--Shadow--inject-8"><ellipse cx="151.31" cy="468.77" rx="105.49" ry="9.48" style="fill:#ebebeb"></ellipse></g><g id="freepik--Board--inject-8"><rect x="58.63" y="57.3" width="382.75" height="243.38" transform="translate(500 357.97) rotate(180)" style="fill:#fff"></rect><path d="M441.62,300.93H58.38V57H441.62Zm-382.74-.5H441.12V57.54H58.88Z" style="fill:#263238"></path><rect x="47.54" y="48.4" width="404.92" height="16.55" transform="translate(500 113.35) rotate(180)" style="fill:#ebebeb"></rect><rect x="88.7" width="3.6" height="48.4" style="fill:#ebebeb"></rect><rect x="248.2" width="3.6" height="48.4" style="fill:#ebebeb"></rect><rect x="407.71" width="3.6" height="48.4" style="fill:#ebebeb"></rect><rect x="444.61" y="64.95" width="0.97" height="125" style="fill:#263238"></rect><polygon points="446.83 194.49 443.37 194.49 444.24 189.52 445.96 189.52 446.83 194.49" style="fill:#263238"></polygon><rect x="448.12" y="64.95" width="0.97" height="180.83" style="fill:#263238"></rect><polygon points="450.33 249.43 446.88 249.43 447.74 244.47 449.47 244.47 450.33 249.43" style="fill:#263238"></polygon><path d="M208.32,231.11c.28,1.18.29,1.17-.36,2.11-.79,1.16-1.59,2.31-2.4,3.46-.36.55-.82,1-.86,1.65-.13,1.71-.25,3.41-.38,5.11-.07,1.12-1.25,2.29-1.83,3.18-.26.39-.46,1-.92,1.06s-1.47-.13-1.83.13l-3.36,2.31c-.24.15-.22,1.84-.26,2.13s0,1-.21,1.25c-.92,1.21-1.85,2.4-2.79,3.6s-1.7,2.2-2.56,3.28c-.19.26-2.88-.91-3.28-1-.25.93,1.28,1,1.44,1.82a5.21,5.21,0,0,1,.31,1.52,4,4,0,0,1-.77,1.14c-.57.84-1.31.82-2.22,1.07a3.88,3.88,0,0,1-2.19,0c.17.57.32.81.1,1.34-.11.33,0,.88-.16,1-.89.64-1.41.36-2.33-.1a7.13,7.13,0,0,0,0,1.53c.07.33.61.89.48,1.21-.29.6-.58,1.21-.85,1.82s-.38.54-1,.7-.63.59-.91,1.1c-.17.32.49.94.68,1.21s1.07,0,.91.62a2.9,2.9,0,0,1-.64,1.2,4.22,4.22,0,0,0-.92,1.25c-.23.73-.42.76-1,1.14s.07,2.29.19,3c.06.26,0,.86.24,1l1.43,1.21c.82.7,1.38.59,2.45.6l-2.9,1.31c-.76.36-.91.16-1.7-.23l-3.41-1.64c-.59-.27-.68-.94-.95-1.57-.63-1.5-1.67-3-1.48-4.65.27-2.5.56-5,.85-7.49s.37-4.9.82-7.26q.85-4.5,1.7-9c.34-1.83.69-3.65,1-5.46a15.76,15.76,0,0,0,.46-2.43,13.54,13.54,0,0,0-.25-2.09,6.15,6.15,0,0,0-.24-1.84c-.24-.39-1.05-.74-1.41-1-.7-.47-1.39-1-2.1-1.45a4.33,4.33,0,0,1-1.34-1.8l-2.59-4.85c-.7-1.33-1.41-2.65-2.13-4-.43-.82.3-2.33.51-3.18a5.73,5.73,0,0,1,.41-1.7l1.23-1.57c.9-1.16,1.68-1.83,1.44-3.47,0-.37-.28-.57,0-.85,0,0-.1-.56,0-.75.1-.5-1-.95-.88-1.43s.12-.52-.37-.8-.34-.18-.7,0a3.07,3.07,0,0,0-.72.57c-.13.12.23.55.31.68-.7.3-.67.39-1-.37-.15.41-.85-.29-1.24-.36-.2,0-.33.18-.46.1l-.63-.49c-.45-.33-1.31-.74-1.6-1.23s-.13-1-.46-1.39c-.84-1-1.34-1.8-2.49-2.13-.9-.25-2.39-.31-3.1-1l-1.85-1.83c-.41-.4-1,0-1.47.17-1.1.33-2.23-.46-3.29-.89l-2.54-1c-.26-.12-.77-.19-1-.4-.55-.57-1.1-1.13-1.66-1.69s-.2-.83,0-1.55c.13-.48-.75-1.4-1-1.77a4.74,4.74,0,0,0-.87-1.06l-1.79-1.66c-.13-.12,0-.51.07-.68s-.29-.48-.39-.59a7.63,7.63,0,0,0-1.31-1.46c-.44-.34-.92-.54-1.09-1.13-.09-.32-.35-1.87-.61-2l-1.65-.75a7.56,7.56,0,0,0,.7,2.32,7.67,7.67,0,0,1,1.47,2.15,2,2,0,0,0,.74,1,2.63,2.63,0,0,1,.52,1.06,4.32,4.32,0,0,1,.36,1.21c0,.68.31.19.51.35s.68.57.64.92-.48.56-.67.22a5.21,5.21,0,0,0-1.74-1.63c-.18-.13-.11-1-.13-1.21s-.56-.61-.8-.82-.49-.1-.75-.35l-.92-.8c.37-.05,1.22-.12.75-.82a2.8,2.8,0,0,0-1.24-1.24c-.42-.22-.54-.91-.71-1.36-.29-.74-.57-1.49-.86-2.26a3.58,3.58,0,0,0-2.18-1.75c-.61-.16-.83-.12-1.1-.66l-.05-.09c-.31-.68-.63-1.37-.95-2-.46-1-1.36-1.63-1.7-2.74a10.44,10.44,0,0,1-.31-3.87c.06-1.27.13-2.52.2-3.79a7.73,7.73,0,0,0-.62-3.15,16.33,16.33,0,0,1,2.06.63c0-1,.07-1.15-.59-1.87a8.6,8.6,0,0,0-1.56-1.31,7.54,7.54,0,0,0-1.62-.62c-.91-.4-1.05-.43-1.47-1.39-.46-1.13-2.13-1.72-2-3s0-1.05-.9-1.64c-.13-.07-.68,1.14-1.07.55s-.75-1.58-1.19-1.8a2.18,2.18,0,0,1-1.18-1.08,13.37,13.37,0,0,0-1.27-1.9,10.93,10.93,0,0,0-1.48-1,14.58,14.58,0,0,0-3.44-1.67c-.51-.18-1.13.25-1.63.13a7.75,7.75,0,0,1-1.64-1,2,2,0,0,0-1.57-.49c-.66.07-1,.24-.74,1.08.21.69-2.47,1.41-3,1.61a.41.41,0,0,1,.3-.61c-.46-.13-.11-1.44.18-1.59a2.77,2.77,0,0,1,1.74-.36c-.17-.16-.35-.32-.5-.48.18-.14.38-.29.59-.43a5.13,5.13,0,0,0-2.68,1.24,6.59,6.59,0,0,0-1.77,2.36l.82.2a12.07,12.07,0,0,1-2.72,2.52c-.54.39-2.23.82-2.31,1.61s-2.26,1.14-2.89,1.33a5.18,5.18,0,0,1-.79.11c-.32,0-.16.22-.41.38a1.59,1.59,0,0,1-1.48.31,7.79,7.79,0,0,1,1.67-1c.46-.27,1.79-1.55,2.19-.85.29-.5,1.35-1.68,1.93-1.28-.2-.55.79-.89.91-1.5a1.34,1.34,0,0,1,.43-1c.21-.21.43-.33.21-.66-.72.4-1.49,1-2.23.49-.26-.17-.75-.73-1-.6l-1.12.5L94,156c-.19.1-1.17.82-1.31.71-.36-.31-1.07-.67-1.31-1.08a7.5,7.5,0,0,1-.42-1.87c-.1-.44.26-.78.48-1.14.42-.74.37-.92,1.15-.85s.75-.46,1.31-.69,1,.21,1.31-.49-.12-.66-.49-1.08l.52-.3c-.25-.74-.84-.09-1.25.15s-.62-.05-1.16,0c-1.06.13-2.26.34-2.83-.81.13,0,.26-.17.39-.2-.52-.19-1.21-.26-1.57-.78a4.3,4.3,0,0,1,2.14-.76,1.81,1.81,0,0,0-.18-.23,3.44,3.44,0,0,1,1.75-.5c0,.85.62.72,1.27.89s.75-.12,1.25-.46l-.69-.29.27-.11c-.26-.21-.34-.44-.07-.64a7.2,7.2,0,0,1-1.7-.33c-.46-.16-.46-.91-.92-1.12s-1.65-.52-1.8-.85c-.06-.13.25-.78.29-.94s.35-.08.43-.08c.51-.05,1.28.13,1.6-.35a8.75,8.75,0,0,1,1.18-1.51,5.78,5.78,0,0,1,2.92-1.35,3.45,3.45,0,0,0,1.77-.55c.77-.61.71-.62,1.54-.19s2.84-.14,3.16.77c.23.66,2.41.6,3.13.69,1.1.14,2.18.27,3.27.46l4.8.85a14.07,14.07,0,0,1,3,1.23c.18.09,1.3-1.28,1.47-1.45s.88.59,1.23.43c.56-.24,3.11-1.8,3.48-1.19l-2.78,1.47c.72.5,3.08-1.57,3.28-.7.29-.31.57-.64.84-1s-.33-.35.07-.68c.72.84,1.43,1.6,2.2,2.34a2.66,2.66,0,0,1,.94-1.57c.34.36-.27.53.22.8.17.1-.12.49-.21.66.31-.08.9-.08,1.14-.28.09-.09-.11-.46.06-.48l.52-.08c.62-.09,1.44.5,2,.76a28.73,28.73,0,0,0,3.77,1c0-.09-.05-.19-.08-.27a3.31,3.31,0,0,1,1.88.86c.51.35-1,.89-1.16.94a4.54,4.54,0,0,0,1.62.4l2.7-.22c.41,0,1.15-.15,1.44.29l1.23,1.84c-.05-.25-.13-.53-.18-.8s.13-.3.1-.46c-.1-.64-.38-.48,0-1.1.24-.41,2.07-.47,1.67-1.11a5.66,5.66,0,0,1-2.49.62c.21-.8.54-.72,1.28-1s.86-.33,1.55.07c.21.12.32.58.44.78s.34.24.63.3a11.25,11.25,0,0,1,1.65.52c.47.17,3,.47,3.13.11.21-.73.26-1.08,1.06-1.08a7,7,0,0,1,1.57.41c-.07.24-.39,1-.3,1.19s.79.54,1,.66c-.27-.83-.57-1.55.45-1.71.42-.07.66-.44,1-.75s.08-.5,0-.8c-.26.13-.52.26-.78.37-.1-.82.49-.95,1.07-1,0-.65-.64-.19-1-.33s-1.39-.33-1.52-.67a4.19,4.19,0,0,1-.26-1.91c0-.73.35-.83.91-.6.1-.36-.14-.49-.43-.45.55-.36.62-.32.6-1a2.49,2.49,0,0,0-.31-1.4,3,3,0,0,1,0-1.42c0-.36.6-.17.88-.16-1-1.11.76-.79,1.45-.79a7.79,7.79,0,0,1,2.53.36c-.38.56-.9,1.77-1.45,2.1s-1.68,0-2.2,0c1.65.25-.25,1.31-.15,1.85.84-.15,1.31.59,1.47,1.38.1.52.92,1.14,1.25,1.54l-1.22.82c.4.16.74.43,1.11.17s.71.06,1.11.25l-.58.4c.39.35.59.35.46.88s-.21.65.26,1a2.18,2.18,0,0,0,.49-1.11c0-.19.17-1,.52-.76s1,.43,1,.69c.1.46.39,1-.17,1.16,0-.11-.06-.23-.06-.34-1.14.63,1.41,2.92,1.53,1.68,0-.34,0-.56.23-.77.11-.12.5-.33.5-.54,0-.92,0-.86.79-1.21-.31-.49-.6-.73-.49-1.31s.44-.43,1-.34c.34.06,1.26,0,1.5.29a1.66,1.66,0,0,0,1.21.73c-.27.49.16.81-.13,1.14s-.79.13-1.05.16a4.07,4.07,0,0,0,.78,1.31c.41.39.6.69.16,1.26a5.17,5.17,0,0,1-1.42.87c-.38.24-.66-.28-1-.56l.47,1.08-.73-.39a1.67,1.67,0,0,0,.08.3l-.75-.17c-.17,0,0-.48-.2-.48-.39,0-.92-.14-1.11.3.24.15.47.28.71.41a2.91,2.91,0,0,1-.85,1.06c-.56.32-.76.06-1.34-.26a5.91,5.91,0,0,0-2.68-.46l2.06,1a6.31,6.31,0,0,0,1.9.24c-.23.38-.59,1.4-1,1.57-.2.1-.51.32-.74.3s-.56-.12-.82.05c-.76.54-.82.57-1.68.31-.55-.17-1.09-.3-1.64-.44l1.09.49c-.08.07-.13.17-.21.24a1.19,1.19,0,0,1,1.19.16c.28.16.71.56.25.78a2.12,2.12,0,0,1-1.27.2c-.17,0-.45.6-.55.75a7.58,7.58,0,0,0-1.29,2.26c-.2.95-.39,1.9-.61,2.83.39.11,1.21.11,1.5.36s.5,1.4.66,1.82c.27.76.45.49,1.18.33a2.28,2.28,0,0,1,1.18.3,10.46,10.46,0,0,1,2.88,1.47c.3.22.91.86,1.27.89l1.65.18c.19,0,1.24,0,1.24.24,0,.76-.07,1.51-.1,2.27,0,1.07,1,1.88,1.63,2.64s1.88-.63,1.78-1.28-.23-1.36-.34-2c-.06-.36-.54-.83-.72-1.13.66-.44,2-.93,2.42-1.59a2.86,2.86,0,0,0,0-2.75,8.78,8.78,0,0,1-1-1.09c-.42-.61-.56-.55,0-1s.62-.44.4-1.22c-.11-.42-.37-.94-.24-1.35a2.08,2.08,0,0,0,0-1.69c-.15-.49.16-.65.65-.72.9-.1,1.74.68,2.63.26.56-.26.71,0,1.22.42.25.17,1,.47,1,.8.13.51.42.9,1,.81a1.8,1.8,0,0,1,1.16.35c-.23.4-.38.51-.31,1a2.17,2.17,0,0,1,0,1.26c.11,0,.24,0,.36,0-.22.27-.84.72-.51,1,.58-1.73,2.67,2,3.1-.29.09.1.26.12.36.22a2.64,2.64,0,0,0,.5-1.53c-.07-.39.51-1.16.89-1.06-.05.2-.1.4-.14.62.91,0,1.51,1.88,1.93,2.62.24.41,1,1.25,1,1.71,0,.26-.43.62-.37.88s.47.37.55.44.6.36.74.59-.11.58.26.59a2.53,2.53,0,0,1,1.56.45c.39.27,1.18.63.32.76a14.59,14.59,0,0,0-1.43.42c.29.12.68-.1,1-.19-.22.38-.89.42-1.27.54s-.26.84-.06.59a1,1,0,0,1,.57-.36c.21-.08.13-.21.27-.28a2.4,2.4,0,0,1,1.11-.31.61.61,0,0,1-.42-.22c.27,0,.81,0,.92.35s-.31.38-.06.7c.32-.56.7-.26,1.18-.1s.09.86,0,1.09c-.15.44.35.58,0,1.07a2.91,2.91,0,0,1-1.07.66c-.37.1-.74,0-1.18.16a1.94,1.94,0,0,0-.9.75,2.19,2.19,0,0,1-2.16.72,16.61,16.61,0,0,0-2.82-.07c-.87.05-1.75-.23-2,.9-.05.31-.89.39-1.11.55a7.32,7.32,0,0,0-1,1.08,12.63,12.63,0,0,1-1.56,1.84c1.15-.56,1.77-1.77,2.91-2.33.79-.37,2.94-1.58,3.5-.17-.1-.06-.2-.07-.3-.12.59.39-.21.69-.49.94s-.68-.25-1.11.06c.17,0,.59.5.62.5a1.2,1.2,0,0,1,.77,0,1.24,1.24,0,0,1-.5.79c.13,0,.29,0,.43,0-.21.61.42,1.1.88,1.21a1.67,1.67,0,0,0-.16.12c.66.32,1.33.59,1.9.17a2.61,2.61,0,0,1,.06.32.93.93,0,0,0,.4-.12c-.4-.52.39-1.25.67-1.67.53.19.23.65.11,1,.38-.28.92.29.59.44a2.36,2.36,0,0,1-1.31.36c.1.08.16.24.26.34l-1.63.66a1.67,1.67,0,0,0-.6.29c-.23.2-.29-.27-.49-.11-.38.3-.71.87-1.11,1.25s-.52-.1-.69-.16c-.58-.82.81-1.53,1.28-1.87s.16,0,.32.19.49-.11.78-.36c-.36,0-.83-.15-1.14.07a1.25,1.25,0,0,1,.3-.58c-.43-.11-1,.45-1.32.68s-.22-.19-.49.11-.44.08-.62.08c.27.87-1.23.56-1.43,1l-.17-.19c-.23.48-.46.52-.89.69s-.32.34-.44.65c-.18.46-1,2,.13,1.9a1.8,1.8,0,0,0-.08-.21,1.13,1.13,0,0,1,.24.28c-.34.25-.76,0-1.12,0-.19-.05-.13.49-.39.5a3.33,3.33,0,0,0-2,.61c.52-.06.95-.32,1.47-.41a1,1,0,0,1-.18.13c.15,0,.29,0,.44,0a2.42,2.42,0,0,1-1,.39c-.32,0-.89-.1-1.08.24.79.1-.36,1.62-.65,1.86.19-.33-.37-.55-.5-.94,0,.48.6,1.1.4,1.53a10.18,10.18,0,0,0-.72,1.38h-.09a2.21,2.21,0,0,1,.28-.89c-.22-.13-.12-.55-.52-.44a3.22,3.22,0,0,1,.2-.92c0-.05.29-.66,0-.44-.68.49-.47.8-.29,1.64a1.75,1.75,0,0,0-.64-.35c.17.26.59.33.72.58s-.15.75-.09.93c.1.33.56.16.43.71s-.37.4-.76.53c.33,0,.92-.11.83.39,0,.22-.73.23-.92.26.1.06.19.16.29.22-.14,0-.23.15-.42.14.16.42.4,0,.68.2-.19.12-.38.22-.56.32s-.36-.16-.48-.09-.46.66-.63.91-.52.08-.74.36a2.77,2.77,0,0,1-.63.72,3.14,3.14,0,0,0-1.57,1.78,2.48,2.48,0,0,0,.15,1.79,18,18,0,0,1,.9,2.46c.13.46.26,1.64-.07,2s-.47.58-.76.17c-.09-.12-.64-.61-.64-.66a7.65,7.65,0,0,0-.4-1c-.16-.36-.34-.56-.23-1l-.2.17c-.16-.54.34-1.32-.2-1.7s-.74-1-1.3-.79c-.3.1-.62.32-.9.13a4.45,4.45,0,0,0-.87-.56c-.49-.13-1.32.52-1.47-.32-.1.74-1.71.21-2.2.59.35,0,1.58.19.65.64.1,0,.6.21.62.31.07.26-.16.36-.33.34.13-.35-.38-.48-.62-.62.05.24,0,.31-.06.5-.22-.47-.42,0-.73-.22s-.55-.56-1-.4a.31.31,0,0,1-.19,0,2.55,2.55,0,0,1-.67-.24c-.46-.18-1.18.34-1.63.53-.72.29-2.45,1.57-2.45,2.62,0,.32.42.63.44,1a3.09,3.09,0,0,1-.22.79,6.47,6.47,0,0,0-.4,1.74,6.31,6.31,0,0,0,1,3.82c.49.73.68,1.25,1.47,1.48.17.06.43.46.57.42l1-.38a3.4,3.4,0,0,1,.88-.2c.25,0,.43.29.55.23a1.6,1.6,0,0,0,.42-.2c.07-.06-.12-.26,0-.36a1.41,1.41,0,0,0,.53-.73c.18-.64.13-1.37.79-1.64a5.54,5.54,0,0,1,1.48-.29c.39,0,1.47-.17,1.12.63-.14.33-.57,1.28-.8,1.31.11.06,0,.19.32.17a3.76,3.76,0,0,1-.29.28l.06.07.14-.1a6.62,6.62,0,0,0-.32,1.18.79.79,0,0,1-.18-.69,1.46,1.46,0,0,0-.26.45c.5,0-.08,1,.08,1.36s-.39.92-.6,1.13a13,13,0,0,0,2.2.18c.3,0,.52-.23.82-.18a4.52,4.52,0,0,1,1.12.15,1.39,1.39,0,0,1,1,1.54l-.24,1.5c0,.29-.28.55-.32.82-.17,1.36,1.47,3.56,2.69,3.05.77-.3,1.16-.62,2-.37a3.41,3.41,0,0,1,1.64,1.28c0-1,1.14-2.26,1.6-3,.14-.24,1-.39,1.27-.47l1.93-.69c.59-.22,1.67.3,2.24.43l4.59,1.08a4.55,4.55,0,0,1,2.31.8c1.19,1.16,2.39,2.29,3.58,3.45.75.72,2.39.73,3.36,1s1.59,1.72,2.17,2.45l1.71,2.26c.15.19.45.78.67.85l3.68,1.34c1.24.45,2.46.88,3.69,1.34a15,15,0,0,1,3,2.13c.17,0,1.31,0,1.34.16C208.06,230,208.19,230.57,208.32,231.11Z" style="fill:#ebebeb"></path><path d="M152.78,133.34c-.2.13-.4.24-.59.37.13,0,.23.2.38.26l-1.2.81c.8,0,1-.15,1.31.63.1-.1.29-.1.39-.22.09.2.17.42.26.62a3.23,3.23,0,0,0-.49.18c1.07.37-.56,1.46-1.15,1.2.14.45-.43.74-.78.67s-.64-.56-.93-.92c-.62-.8-1.5-1-2.26-1.6-.41-.33.07-.62.4-.72s.66.59,1,.65c.65.11.64-.48.64-.94,0-.23-.92-.48-1.12-.56.17-.16.46-.66.67-.68.51,0,.75-.19,1.21,0s.66.11,1.18-.07S152.34,133.11,152.78,133.34Z" style="fill:#ebebeb"></path><path d="M371.31,130.43c-.13-.58,1-1.18,1-.23.41-.36.88-.22,1.36-.2-.05.11,0,.26,0,.39a1.71,1.71,0,0,1,1.31-.09c.1,0,.66.1.7.21a1.34,1.34,0,0,1-.08.65,7.19,7.19,0,0,1-2.8.33C372.52,131.31,371.37,130.73,371.31,130.43Z" style="fill:#ebebeb"></path><path d="M411.16,146.94c-.3.26-.78.84-1.15.94s-.92-.15-1.27-.21c0,.59.1.78-.4,1s0,.74,0,1.11a2.42,2.42,0,0,1-1.45-.59c-.33-.24-1.07.19-1.17-.22-.14-.59-.05-1.15-.64-1.19l-1.92-.14c-.39,0,.26-1.17-.57-1-.44.07-.26,1.17-.29,1.58,0,.68-2.16.87-2.74,1,.49.36,1.08.52,1.11,1.2a2.88,2.88,0,0,0,.81,1.74c0,.06-.32.53-.41.58s-.63-.13-.8-.16-1-.38-1.3-.2c-1.18.7-2.34,1.42-3.52,2.14-.91.55-1.91.85-2.34,1.92-.82-.81-.86-.91-1.94-.77s-1.08.19-1.7,1.1c0-.32,0-.65,0-1-.31.16-.89.61-1.24.57s-.83-.31-1.09.11c-.59.95-1.17,1.89-1.76,2.82.32.12,1.41.25,1.31.62-.23.92-.27,1,.28,1.69-.92.4-1.74.8-1.26,2,.09.2-.7.5-.9.57-.43.16-.84.1-.88.64s.13,1.15-.46,1.29c-.74.2-.76.1-.89.92s-1.14,1.63-1.62,2.22c-.6-2.81-2.63-8.16.74-9.82,1-.46,1.52-.6,2.09-1.57a5.84,5.84,0,0,1,1.95-1.91c.56-.42,1.33-.65,1.5-1.4.13-.56.27-1.12.4-1.68.05-.13.81-.2,1-.23a3.62,3.62,0,0,0-1.42-.13c-.42.05-.65.7-.88,1.08a9.3,9.3,0,0,1-2.09,1.81,3,3,0,0,1,0-2.07,2.39,2.39,0,0,1-1.56.49c-.72,0-.89-.06-1.44.4a18.71,18.71,0,0,0-2.37,2.42c.23.2.82.49.64.81-.07.12-.86.17-1,.2-.82.1-1.64.2-2.45.28l.86-.61c-.77-.18-1.55-.32-2.33-.48-.21,0-.75.43-1,.55s-.55,0-.82,0a9.74,9.74,0,0,0-2.09-.1c-.44,0-1.75-.19-2.1.14-1.21,1.12-2.39,2.25-3.55,3.44a24.21,24.21,0,0,1-3.5,2.81c.16.42.44.39.8.42s.49,0,.68.43c0,.14.2.81.35.82.93.09,1,.23,1.46-.68.39-.76,2.61,1,2.49,1.66-.25,1.45-.59,2.89-.9,4.33a9.87,9.87,0,0,1-1.54,3.3,16.37,16.37,0,0,1-2.18,3.05L361,178.54a2.83,2.83,0,0,1-.25.24c-.33.34-1,.34-1.47.44-.21.05-.41-.58-.62-.62s-.66.39-.8.47c-.68.41-.69.59-1,1.43a3.81,3.81,0,0,1-.23.54l-.11.19a2.74,2.74,0,0,1-.3.43,4.06,4.06,0,0,1-.44.49c-.16.15-.31.31-.47.45l-.82.76a6.66,6.66,0,0,1,1.11,1.15h0a2.19,2.19,0,0,1,.26.41,1.68,1.68,0,0,1,.16.33,1.66,1.66,0,0,1,.1.29,1.09,1.09,0,0,1,.07.3,2.75,2.75,0,0,1,0,.91c-.13,1,0,1.23-.85,1.68a3.16,3.16,0,0,1-1.85.32c.08-.58.16-1.16.23-1.73s-.5-.62,0-1.22a.55.55,0,0,0,.13-.57s0-.07,0-.1a.35.35,0,0,0-.11-.13.43.43,0,0,0-.29-.07c-.43.06-1.12.35-1.27-.33-.07-.35.38-1.18.48-1.53a3.78,3.78,0,0,0-.79-.54,1.16,1.16,0,0,0-.29-.13c-.35,0-1,.6-1.3.79L349,184c-.34-.87.48-1.5,1-2-.54-.43-.56-.55-1.15-.26a4.7,4.7,0,0,0-1.05.75,3.53,3.53,0,0,1-1.24.79c-.1,0-1,.36-.78.65a8.18,8.18,0,0,1,1,1.19c.39.63.34.55,1,.23.9-.46,1.61-.07,2.57.19l-3.15,2.66a4.19,4.19,0,0,1,1.27,1.28c.33.74.67,1.47,1,2.19l-1.63-.3,1.73,1.27-1.28.9,1.58.48a25.41,25.41,0,0,1-2,3.78c-.89,1.13-1.57,2.39-2.85,2.93s-2.76,1.15-4.16,1.65l-1.3.48c-.36.13-.27.13-.18.54s.05.84-.44.59c-.12-.07-.27-.7-.33-.87.16,0,.31-.16.46-.19a1.66,1.66,0,0,0-1.9-.23c-.46.36-1.57.92-1.75,1.52-.06.19-.42,1-.33,1.14l.83,1.31a19.46,19.46,0,0,0,1.33,1.77c.56.74.87,1,.92,1.92,0,.56.34,1.91-.09,2.3a41.72,41.72,0,0,1-3.67,3.12c-.43-.44.16-1.09-.14-1.42s-.33-.36-.49-.53-.51-.54-.75-.81a3.12,3.12,0,0,0-2.32-1.28l.09-.74c-1,.05-.8.18-.88,1.24a6.72,6.72,0,0,1-.58,1.83,1,1,0,0,0,0,.43c0,.13,0,.26,0,.38,0,.52,0,.43.52.4.25,0,.55,1.55.63,1.84.15.48,1.07.91,1.43,1.18a3.83,3.83,0,0,1,1.06,1.21c.22.56,0,1.36.12,2a13.93,13.93,0,0,0,.68,1.67,4.68,4.68,0,0,1-2-1.2,2.55,2.55,0,0,1-.95-1.61c-.19-.56-.34-1.87-.75-2.29-.59-.63-1.18-1.25-1.77-1.89-.19-.2-.06-1.08.06-1.71a.64.64,0,0,1,0-.2h0c0-.14,0-.27.05-.36a17.72,17.72,0,0,0-.16-2.51,18.5,18.5,0,0,0-1.08-4.43c-.32.39-.64.76-.95,1.17s-.36.47-1,.33-.57-.09-.47-.78c0-.3.29-1.08.17-1.35a5.73,5.73,0,0,0-1.45-2.48,5.78,5.78,0,0,1-1.3-2.36c-.34.24-.85.78-1.27.84l-2.18.3c-.1,0-.57,0-.64.08s.09.65,0,.8l-1.08,1.1-3.05,3.14a5.21,5.21,0,0,1-1.47.74c-.55.27-.35.67-.33,1.32a8.07,8.07,0,0,1,0,1.9,4.1,4.1,0,0,0-.41,1.79,2.63,2.63,0,0,0,.1.36c.05.14.08.27.12.4a3.09,3.09,0,0,0,.14.32,2.34,2.34,0,0,0,.15.27,3.35,3.35,0,0,0,.31.4,6.32,6.32,0,0,1,.93,1.74c.5,1.17-1.49,2.18-1.63.61a13.81,13.81,0,0,1-.06-2c0-.66-.21-.78-.65-1.24l0,0c-.06.48,0,1-.36,1.23l-1.24.82c-1.15-2.19-2.13-4.44-3.14-6.71a11.75,11.75,0,0,1-.84-1.92,8.56,8.56,0,0,1,0-1.52c0-1.44-.09-2.9-.14-4.35-.31.42-.61.85-.91,1.27s-.35.36-.85.34-1.24-1.11-1.63-1.54c.41-.08,1.26,0,1.33-.6a2.59,2.59,0,0,1-.72.07,8.67,8.67,0,0,1-1.79-1c-.37-.22-.62-1.17-.8-1.57s-3.27.24-3.79.31a10.34,10.34,0,0,1-3.41-.57c-.49-.12-1.05-.06-1.3-.55-.46-.89-.34-1.15-1.23-.83a3.34,3.34,0,0,1-2,0c-.49-.07-.79-.68-1.23-.88a1.94,1.94,0,0,1-1.29-1.32c-.26-.56-.36-1.28-.95-1.38-1-.15-1-.11-1.72.73-.25.29.6,1.32.79,1.63.63,1.06,1.18,2.2,1.75,3.31.09-.51.18-1,.25-1.51a4.57,4.57,0,0,1,.36,2.37,6.27,6.27,0,0,0,2.65-.33,11.69,11.69,0,0,0,1.81-2.07c0,.63-.1,1.65.42,2a6.14,6.14,0,0,0,.95.65c.29.13.65,0,.81.35s.33.86.59.9c.44.09.27.41.23.87s-1,1.25-1.27,1.59c0-.15-.13-.28-.16-.43a3.16,3.16,0,0,0-.39,1.47c0,.55-.2.49-.66.72s-.94.45-1.41.66c-.27.13-.26.92-.53,1.05s-.56-.18-.8-.08-.69.3-1,.44-.4.85-.84,1l-2.33.84c-.23.08-.27.2-.42.43s-.43.26-.75.32c-.67.12-1.33.34-2,.53-.49.13-.59.69-1.13.69-.84,0-.91.19-1.07-.68s-.33-1.75-.49-2.63a10.13,10.13,0,0,0-1.61-3.44c-.42-.69-.48-.82-1.2-1.1-.41-.16-.41-1.41-.48-1.85a7.43,7.43,0,0,0-.84-1.86c-.19-.36-.59-.53-.81-.92-.46-.84-.93-1.66-1.39-2.49-.23-.42-.41-1.13-1-1,.06-.5.14-1,.2-1.52-.2.6-.4,1.22-.61,1.83a8.46,8.46,0,0,1-1.51-2.31c-.49.64.38,1.67.67,2.25l1.69,3.47c.35.7.22,1.48.72,2,.22.23.77.6.82.95.09.59.18,1.16.28,1.75,0,.35,0,1,.27,1.26a5.8,5.8,0,0,1,1,1,14.42,14.42,0,0,1,1,2.74c.11.29.93.24,1.13.49s.64.73.95,1.11c.54.6,1.6,1.28.78,2.08.55.16,1.15,1.31,1.6,1.2l4.56-1.22c.28-.08,1.1-.42,1.33,0,.14.24-.39,1.71-.46,2a15.2,15.2,0,0,1-1.73,3.44,11.7,11.7,0,0,1-1.6,2.62c-1.84,2-4,3.73-5.36,6.09-.31.52-2.27,3.2-1.95,3.67a2.41,2.41,0,0,1,.49,2,1.85,1.85,0,0,0,.53,1.72c.82,1.12.55,2.85.6,4.26a3.13,3.13,0,0,1-1.62,2.65c-.46.23-1.4.44-1.76.85l-1.37,1.61c-.4.46-.89.69-.64,1.29.17.41.8,1.36.74,1.8a6.58,6.58,0,0,1-.23,2.16c-.24.38-1.39.67-1.78.85-.65.32-.51.61-.58,1.4,0,.42.05,1.57-.2,1.91a34.32,34.32,0,0,1-2.35,3.33,19.84,19.84,0,0,1-1.56,1.35c-.29.25-.85,1-1.24,1.05-1.36.29-2.71.58-4.08.85-.62.13-1.25.26-1.87.41-.3.05-.92-.74-1.14-.94-.73-.68-.7-.66-.6-1.73a4.57,4.57,0,0,0-.56-1.49l-.95-2.37c-.19-.47-.76-.83-1.11-1.18s-.23-1.32-.29-1.65c-.13-.91-.27-1.82-.4-2.71a11.27,11.27,0,0,0-1.34-3.25l-1-2.12c-.15-.31.06-.89.1-1.22a12.17,12.17,0,0,1,1-4.35c.72-1.28.27-2.3,0-3.64s-.68-2.88-1-4.32a4.89,4.89,0,0,0-.95-1.3l-1.47-2c-.26-.36-.07-.82,0-1.26.1-.9.2-1.79.31-2.7.09-.76.13-.8-.31-1.42s-.49-.77-1.28-.72c-.46,0-1.4.31-1.73-.09L243.87,218c-.2-.24-3.07.22-3.43.39l-2,1c-.52.28-.77.14-1.34,0a2.46,2.46,0,0,0-1.59-.14l-2.23.79c-.34.13-.75-.35-1-.56-.72-.52-1.43-1-2.15-1.54a5.33,5.33,0,0,1-1.9-1.93l-2.72-4.74-.88-1.52c-.13-.23.35-1.11.45-1.36.14-.42.62-1.19.52-1.65-.18-.75-.33-1.5-.51-2.26a7.36,7.36,0,0,1-.43-1.93,4,4,0,0,1,.58-1c.88-1.59,1.74-3.17,2.62-4.75a5.72,5.72,0,0,1,2.4-2.11c.55-.34.79-.34.89-1l.39-2.5c.15-1,2.1-1.17,2.49-2.13.28-.67.39-1.6,1.07-1.79.17-.06.66.87,1.21.74.23-.05.79-.29,1-.18s.63.45.75.38a13.07,13.07,0,0,1,1.61-.95,12.67,12.67,0,0,1,3.37-1.05,3.7,3.7,0,0,1,1-.12,2.26,2.26,0,0,0,.82.27c.28,0,.54-.33.82-.37a3.88,3.88,0,0,1,.76,0,2.8,2.8,0,0,0,1.9-.23c.52-.3,1,.1,1.54.33-.4.88-.49.91,0,1.76.2.37-.6,1-.88,1.25.44.39,1,1.1,1.52,1.24l2.79.73c.7.19.5,1,1.22,1.3s1.21.16,1.79.58c.8.56,1.23.7,1.75-.32.13-.24-.27-.62-.14-.84s.32-.76.5-.82a3.64,3.64,0,0,1,2.25-.15c.2.05,0,.47.29.53s.83.16,1.25.26.36.23.53.57c.09.18.42-.21.56-.17l2,.59a1.5,1.5,0,0,0,1.54-.13c.78-.37.85-.49,1.61-.11a2,2,0,0,0,2.75-.87c.26-.72,1.54-2.95,1-3.68-.32-.48.37-1.47.21-1.66s-.44.13-.6.25-.43-.23-.63-.19-.48.59-.72.7a3.26,3.26,0,0,1-.94,0c-.58,0-.82-.61-1.35-.71-.36-.06-.65-.27-.8.13s-.15.45-.6.53-1.18-.53-1.54-.74c-.66-.38-1.81-2.31-1.09-3.11l-.72.08c-.11-.79.92-1,1.35-1a3.63,3.63,0,0,0,2-.45l-.68-.34c.13-.39,1-.22,1.34-.17.69.1.73-.09,1.28-.46a2.56,2.56,0,0,1,1.28-.57,3.79,3.79,0,0,0,1.61-.05c-.13.23.1.43.35.54s.23-.31.62.23c.14.19,1.19.35,1.52.49.58.23.94-.11,1.51,0a2.27,2.27,0,0,0,1.65-.52c.47-.29.21-1.09-.08-1.42s-.92-.55-1.36-1-.85-1-1.49-1.09a5.85,5.85,0,0,1-.63-.38c-.26-.17-.49-.37-.73-.56a2.84,2.84,0,0,1,.2-.29c.23.05.46.11.7.15-.21-.76.26-1,.82-1-.27-.22-.62-.42-.76-.72.23,0,.48,0,.71,0-.18-.53.53-.14.63-.47s-.45-.22-.61-.19c-.59.1-1.22.11-1.62.66v-.2a2.44,2.44,0,0,0-1.41.75c0-.09.07-.17.11-.26-.67-.07-.36.76-.1,1.08s.88.2,1.43.2c-.39.71-.84.17-1.27.4s-1.32,1-1.81.64c.3-.82-.09-.72-.77-1,.33-.19,1.63-.66.75-1a2.37,2.37,0,0,0-.88,0c-.2,0-.49-.31-.66-.44.36,0,.82.22,1-.18-.39.18-1.38-.26-1.63,0s-1,.87-1.06,1.28a3.56,3.56,0,0,1-.16.95c-.12.19-.63.16-.68.39-.14.72-.11,1.23-.69,1.61s-.43,1-.16,1.55c.18.35,1.08.77,1,.93-.16.46-1-.13-1.28.15l-1.34,1.26c-.06-.49.23-.58.56-.78-.26-.12-.56-.12-.86-.23-.46-.19-.74-.07-1.16-.19-.2-.06-.46.12-.66.2s.07.41,0,.49c-.36.3-.62,0-.93-.2-.35.39,0,.75.23,1.11.3.53.32.47-.12.92.56.39,1.18.53,1.07,1.34-.35-.26-.58-.58-.92-.13.43.09.47.36.16.6s-.16.41,0,.82c-.38-.08-.67,0-.84-.4s-.3-.23-.59,0c-.29-1-.49-1.08.28-1.7-.71,0-.71-.08-1.14-.73-.25-.36-.42-1-.74-1.24-.56-.46-.36-.82-.28-1.58s-.18-.71-.71-1.13a5.78,5.78,0,0,0-2.36-1.44c-.22,0-.73-.7-.81-.93a1.86,1.86,0,0,0-.79-1.28c-.24.72-.53.36-.62-.16s0-.39-.54-.23-.88.2-.54.83c.12.22-.3.74.07,1a4.57,4.57,0,0,1,1.1.82c.26.34.21.89.53,1.18s.59.6,1.1.63c.31,0,.87,0,.37.4.46.38,2.75,1.33,2.16,2.11-.23-.12-.89-1-1.15-.77a1,1,0,0,0-.41.71c-.08.33.13.3.36.49.68.52-.44.66-.4,1s-.85,1.22-.82.5a.94.94,0,0,0-.32,1.25c.22.45-.69.59-.79.23-.2-.64-2.39-.57-1.52-1.52a3.91,3.91,0,0,0,1.58.18,3.59,3.59,0,0,0,1.12-.26c.29-.18.05-.38.35-.56s-.3-1.45-.46-1.48-.62,0-.56-.32-.29-.47-.55-.34c.06-.3-.61-.79-.86-.75-.47.06-.74-.4-1.07-.75-.6-.57-1.43-.88-1.61-1.68s-.18-.81-.81-1.14c-.33-.17-.75-.3-1,0a8.37,8.37,0,0,1-2.12,1.4l-.95-.31-.75-.26c-.3-.08-.75.54-1,.74a0,0,0,0,0,0,0c-.07.16.22,1,0,1.25s-1,.5-1.3.66c-.93.49-1.22,1.24-1.77,2.19-.17.29.55.55.2,1-.2.29-.77.75-.6,1.11-.2,0-.68.05-.79.26s-.33.69-.51.7a11.75,11.75,0,0,1-1.78,0c-.52,0-.84.63-1.25.76s-1.05-.72-.58-1.05c-.46.22-.68-.54-1.27-.21s-.79-.15-1.21.17a3.8,3.8,0,0,0,.13-1c0-.19,0-.39,0-.58s-.22.05-.3-.07c-.35-.53-.09-.66.06-1.27s.56-1.48.33-2a2.84,2.84,0,0,1,0-1.66c-.31.26-.53-.23-.4-.54s.72-.29.94-.32c0-.07-.08-.13-.11-.19.57-.5.82.18,1.31.06a2.32,2.32,0,0,1,1.62,0c.52.17,1-.1,1.44.07a2.85,2.85,0,0,0,1.29.15c.58-.13.75-.88.79-1.6,0-.43,0-.87,0-1.14,0-.7.12-.92-.53-1.14-.39-.11-.43-.79-.36-1-.34.08-.21-.13-.36-.19s-.56-.1-.63-.15c-.28-.23-.39-.37-.74-.34a.52.52,0,0,1-.57-.29c.1,0,.2-.07.3-.08a.62.62,0,0,1-.39-.57,2.22,2.22,0,0,0,1.17-.2c.7-.5.3.39.76.28.16,0,1-.18,1-.42s-.05-.29-.08-.42-.09-.22-.13-.33-.09-.23-.15-.35c.19,0,.54,0,.61.16a.2.2,0,0,1,0,.07h0a.26.26,0,0,0,.29.28,2,2,0,0,0,1.23-.17c-.11,0-.23-.11-.34-.12a1,1,0,0,1,.23-.23,4.29,4.29,0,0,1,.89-.43c.55-.28,0-.62.25-1.05.11-.2,1-.39,1.19-.51a2,2,0,0,1,1.15-.14c-.17-.06-.62-.1-.62-.3s.42-.08.45-.12,0-.29.1-.39a2.32,2.32,0,0,0,.45-1.09c.05-.23.43-.19.59-.36.47-.58,1-.25,1.54-.43.08,0,0-.31.14-.32a4,4,0,0,1,.48-.07,2.66,2.66,0,0,1,.74.07c-.08-.45.31-.33.62-.37-.17-.06-.66-.48-.41-.67s0-.27-.09-.67.13-.67-.23-.95-.22-.41-.25-.81c0-.66.11-1.4.81-1.42.52,0,1-.59,1.47-.85-.36.51-.53,1.62.23,1.81-.45.72-1.3,1-1.15,1.91.13.7.78,1.29,1.42,1-.08.19-.17.38-.26.57.64.37,1.18-.54,1.73-.59a1.13,1.13,0,0,1,.79.51c.1.36.44.45.75.62a.76.76,0,0,0,.06-.34l-.53-.06c.39-.25,1.77-.27,2-.63a2,2,0,0,1,1.92-.59c0,.58.83.67,1.13.3.12-.13.18-.49.25-.56s.24,0,.31-.08.48-.28.62-.53a1.33,1.33,0,0,1-.39.58c1,.49.41-1.37.38-1.83a1.36,1.36,0,0,1,.3-.94c.22-.26,0-.66.4-.93.9-.66,1.11.82,1.78.86.37,0,.63-.5.57-.82s.14-1.06.09-1.11-.29.16-.36.1a5.28,5.28,0,0,1-.41-.41c-.08-.12-.27-.87-.17-.91a4.37,4.37,0,0,1,2.09-.59l1.54.19c.72.08.11-.18.53-.44s.68-.07,1-.27.72.07,1,.1c-.14-.47-1.09-.65-1.51-.82.07-.1.07-.29.16-.39-1.44.28-2.93.64-4.39.91-.15,0-.75.26-.85.1a1.29,1.29,0,0,0-.84-.73c-.57-.23-.53-.19-.43-.85a2.31,2.31,0,0,0,0-1.11,4.21,4.21,0,0,1-.34-1.33c.06-.28.65-.73.84-.95.46-.53,1.09-.87,1.54-1.44.23-.27.59-1,.89-1.09s.74.14.58-.43a1.45,1.45,0,0,0-1.47-1.1c-1,0-1.09-.07-1.79.71-.44.49-.67.89-.31,1.52s-2.39,2-2.62,2.27c-.68.86-1.83,2.23-1.1,3.49.32.54,1.21.52,1.5,1.15.2.44-.55.83-.88,1.1-.56.49-1,.69-1.11,1.45a9.1,9.1,0,0,1-.31,2.1c-.33.78-.91.78-1.59.93-.26.05-.24.37-.31.64s-.29.23-.61.25-.52.16-.59-.38a2.26,2.26,0,0,1-.08-1c.2-.55-.59-1.21-.91-1.63-.14-.18-.06-.52-.16-.73a5.7,5.7,0,0,1-.42-.86c0-.29.19-.77-.13-.84s-.3-.53-.4-.81a1.66,1.66,0,0,1-.91,1.24c-.41.29-.75.75-1.16,1-.65.4-2.31.2-2.33-.81-.05-1.25-.54-2.45-.48-3.69.06-1.06.13-1.06.91-1.72a6.4,6.4,0,0,1,1.38-.81,4.41,4.41,0,0,0,1.57-1c.42-.46.83-.89,1.28-1.32a14.38,14.38,0,0,0,2.1-3.18,21.71,21.71,0,0,1,2.43-2.9,9.06,9.06,0,0,1,2.71-2.47,31.91,31.91,0,0,1,3.76-1.37c.49-.14.75-.95,1.19-1.21a2.64,2.64,0,0,1,1.56-.27,3.54,3.54,0,0,0-1.1,1.87c.57-.12,1-1.05,1.4-1.5.07.27.12.56.17.85l.77-1c.1-.15.76,0,.93,0-.16.28-.32.52-.47.79.67.51.28-.73.83-.51s1.15.44,1.73.67-.42.65-.61.69a5.74,5.74,0,0,1-1.41-.13c.22.39.67.25.87.71,0,.11.62-.07.83-.06.49,0,1,.26,1.28-.17.15-.22.77.24,1,.34-.13.47-.56.18-.88.09-.14,1,1.5.59,2,.61a3.93,3.93,0,0,1,2.19.73,11.26,11.26,0,0,0,2.27,1.09,2.51,2.51,0,0,1,1.7,1.33c.23.72.2.7-.2,1.32-.25.38-.33.62-.74.75a2.94,2.94,0,0,1-2.1.13,19.24,19.24,0,0,1-4.62-1.57c.46.46,1.76,1.33,1.76,2s-.12,2.08.52,2.36,1.62,1.12,2.31.83c.42-.17.2-.83-.21-.83s-.58-.38-.87-.74c.65-.59.69-.44,1.49-.17l1.94.68a11.32,11.32,0,0,1-.5-1.49l1.46-1c.26-.18.74-.67,1-.58.52.16,1,.32,1.56.46,0-.29.3-.83.2-1.12,0-.07-.54-.89-.56-.78.11-.49.23-.95.33-1.42,0-.18-.51-.68-.62-.81l1.87.24c.47.06.78.77,1.06,1.16-.3,0-1.22-.06-1.38.23-.27.46.23.77.53,1.16s.81.16,1.29.07.15-.51.47-.93c.14-.19.69-.3.89-.4l1.69-.77,2.57-1.16c.25.8.25.79,1,1,.49.11.75-.81,1.18-.76a2.43,2.43,0,0,0,1.58-.1,1.81,1.81,0,0,1,1.57-.13c-.1.18-.21.37-.33.56.79.24.76.27,1.28-.42s.17-.72-.3-1.35a5.47,5.47,0,0,1,3.84.14l2.31.92a8.26,8.26,0,0,1,1.59,1.21c0-.29.34-1.27.1-1.42-.56-.44-1.13-.85-1.69-1.28-.38-.28.21-1.07.38-1.46s-.74-.65-1-.82l1.67-1.32c.38-.31.53-1.4.69-1.88s2.87.05,3.49.11c-.25.64-.48,1.31-.72,1.95-.13.33.44,1.13.6,1.44.27.58-.65,3.13-.19,3.44s1.17.44.88,1.13c-.17.39-.36,1.29-.7,1.51l-1.8,1.09c-.26.16-1.07-.11-1.38-.16a2.75,2.75,0,0,0,2.66.84,7.73,7.73,0,0,0,2.34-2c.68-.69-1.06-1.72.36-2.16.28-.08,1.06-.5,1.27-.26.36.44.72.85,1.1,1.27-.09-.56,0-1.08-.46-1.39a1.31,1.31,0,0,0-1.34-.34,5.54,5.54,0,0,1-1.62.22c-.1-.39-.44-1.07-.28-1.44s.74-1.08.44-1.53-1-1.09-.73-1.49.85-.62,1.39-.85.06-1.14,0-1.38c.3-.09.89.74.72,1.08-.42.8-.37.77.07,1.56.29.54,2.49.55,3.06.58a20.69,20.69,0,0,1-2.35-1c-.89-.42.65-1.08,1-1.2a3.18,3.18,0,0,1,2.59.32,6.81,6.81,0,0,1,.93.57c.29.21.69,0,1,0a4.55,4.55,0,0,0-.42-1.16c-.22-.2-1-.16-1.25-.22s-.44-1.64-.51-2.06l3.6-.36,2-.21c.45,0,.28-.52.29-1,0-.89,0-.89.65-1.31a11.41,11.41,0,0,1,1.53-.91,25.06,25.06,0,0,1,3.64-.67,36.11,36.11,0,0,0,6.43-1.47c.49-.19.28-1,.67-1.2.63-.31,1.25-.63,1.87-1a2.18,2.18,0,0,1,2.63.42c-.59.19-1.18.36-1.75.53l2.77.41-1.13,1,1.54.1c0-.2-.09-1,.1-1l1.21,0a3.26,3.26,0,0,1,1.8.25,8.18,8.18,0,0,1,1.8,1.25c.1.13.61.66.54.81s-.24.77-.41.89l-7.48,4.59,5.19-1.47c-.45,0-.9-.13-1.33-.2.53-.45,1.34-.88,2-.4a2.47,2.47,0,0,0,2.31.55,21.72,21.72,0,0,1,4.47.33c-.28.15-.57.33-.84.5.36.17,1,.68,1.39.66l1.79-.08c.34,0,1.32.15,1.38-.31.13-.9,0-.87.85-.89a9.64,9.64,0,0,0,1.7,0c.4-.07,1.26-.45,1.67-.32s.92,1.05,1.21,1.38-.21,1.3-.22,1.6a5.58,5.58,0,0,0,.22,1.69l1.62.92c.25.14,1-1.08,1.14-1.31.46-.62.37-.69,1-.29s.78.63,1.5.4c.44-.14,1-.49,1.45-.26s1,.75,1.4.61l1.67-.69c-.16-.29-.7-.9-.49-1.17s.67-1.15.92-1.12l3.21.41a20.12,20.12,0,0,1,2.43.62,12.43,12.43,0,0,1,2.79.72c.48.26,1.54,2,2,1.93l3.21-.54a5.92,5.92,0,0,1,2.56.51c.52.16.76.08.94.64a1.75,1.75,0,0,1,0,1.31,5,5,0,0,0,2.52.47A7.11,7.11,0,0,1,389,141c.39.06.93.31,1.27,0,.53-.39.46-.4.92.06s.82,1,1.24,1.21.95-.11,1.27-.13c-.1-.72-.2-1.43-.31-2.14l4.6.36c1.19.09,2.34.93,3.44,1.46,1.25.6,2.46,1.25,3.67,2a1.8,1.8,0,0,1,1.18,1.32c.36,1,.26,1.27,1.21,1.27-.12-.39-.23-.78-.35-1.17a6.25,6.25,0,0,1,2.35.36A6.41,6.41,0,0,1,411.16,146.94Z" style="fill:#ebebeb"></path><path d="M256.92,164a.92.92,0,0,0-.38-.15v0C256.65,163.91,256.87,164,256.92,164Z" style="fill:#ebebeb"></path><path d="M189.19,169.92c0,.17.32.23.45.3s.13.49.14.69c.32-.09,1.37-.48,1.63-.19s.39.39.32.89c0,.18.5.31.57.61.1.46.42,1.44.15,1.87s-.34.36-.75.2-.44-.2-.32-.79c-.79.06-.94.58-1.7.74a.57.57,0,0,1,.45-.62,4.22,4.22,0,0,0-2.52-.34c-.26,0-.91.12-1.1-.18a1.86,1.86,0,0,1,.12-1.14,6.75,6.75,0,0,0,1.67-2.48c.27-.66,1.08-1.67,1.83-1.36-.12.26-.25.52-.36.77C189.35,169.27,189.18,169.33,189.19,169.92Z" style="fill:#ebebeb"></path><path d="M334.1,229.79c0,.17-.07.34-.07.52-.85-.81-1.63-1.62-2.38-2.45a5.33,5.33,0,0,1-1-1.3,9.26,9.26,0,0,0-.93-2.07c-.19-.19-.45-.09-.54-.36s-.21-.82-.31-1.22c-.19-.69-1.07-.55-1.1-1.3s-.8-.82-1.16-1.15c-.18-.13-1.11-1.31-.91-1.6s1.29.29,1.54.3c.78.11.66.41,1.08,1a12,12,0,0,0,1.29,1.19c.47.43,1,.59,1.4,1.11.19.27.42.25.74.29.53.1.17.19.47.42s.48,0,.48.49c0,.24.54.2.63.62s-.27.38-.22.76.52.32.71.39.19.7.23.89c.06.35.46.33,0,.75a.72.72,0,0,1,1.21.75,20,20,0,0,0-.21,2.39C334.75,229.56,334.5,230.29,334.1,229.79Z" style="fill:#ebebeb"></path><path d="M235.85,164.81l-.16,0a.53.53,0,0,1,.35-.47A.37.37,0,0,1,235.85,164.81Z" style="fill:#ebebeb"></path><path d="M167.51,134.2a.61.61,0,0,1,.16-1.15l1,.39c.28.1.69-.12.95,0a4.75,4.75,0,0,1,1.87,1.49,6,6,0,0,0-1.46-.05c-.34.07-1.32.5-1.62.31s-.51-.21-.62-.37C167.6,134.53,167.94,134.4,167.51,134.2Z" style="fill:#ebebeb"></path><path d="M173,206c-.2-.6,1.47.08,1.88-.21-.42-.62-.35-.82-1-1.14.65-.3.82-.09,1.48-.09a1.54,1.54,0,0,0,.59-.14c.22-.13.58.12.81.19s.3-.13.47.2.26.45.71.53c.19,0,.6.29.49.49-.29.46-.2.12-.61.12s-.87.15-1.36.17c-.09,0-.16-.27-.44-.07s-.15.69-.31.75c-.38.13-.32-.51-.46-.58s-.52,0-.74,0C173.83,206.06,173.59,206.37,173,206Z" style="fill:#ebebeb"></path><path d="M258.38,140.12l-.09-.28a1,1,0,0,1,.42,0C258.74,140.16,258.62,140.29,258.38,140.12Z" style="fill:#ebebeb"></path><path d="M252.2,143.51a2.13,2.13,0,0,0,0-.25c.17-.16.33-.19.48,0A.43.43,0,0,1,252.2,143.51Z" style="fill:#ebebeb"></path><path d="M127.29,136.62a1.77,1.77,0,0,1-.46.08c-.1-.47.3-.8.56-1.13s-.29-.68.5-.75c0,0,0,0,0,0-.4-.39.31-1.06.61-1.35.16-.13-.52-1-.68-1.31.91-.13,1.82-.25,2.71-.39.59-.07,1.17.49,1.78.63h0a.82.82,0,0,0,.26,0,.75.75,0,0,0,.26,0c0,.11,0,.24-.08.36.6-.68,1.36-.39,2.05-.1a4.36,4.36,0,0,1,1,.63c.45.3.47.49.09.83a9.55,9.55,0,0,1-2.47,1.08c-.33.15-.51.13-.61.51s-.54.75-.94.49l-.25,1.22a5.17,5.17,0,0,1-.83.39c-.1,0-.06-.24-.17-.19s-.28.16-.41.25c-.86.49-.77.5-1.45-.28A3.77,3.77,0,0,0,127.29,136.62Z" style="fill:#ebebeb"></path><path d="M170.61,203.82c0-.38-.55-.23-.69-.3-.57-.26-.58-.85-1.08-.92s-1-.44-1.53-.47c-.3,0-.33-.23-.62-.14a.65.65,0,0,1-.68-.24.61.61,0,0,0,.48-.09c-.92-.94-2,1.17-2.91.68.48-.31.63-.87,1.21-1a5.48,5.48,0,0,1,2-.28,7.93,7.93,0,0,1,3.47,1.5.91.91,0,0,1,.07-.14,1.83,1.83,0,0,0,1.48.72c.12,0,.26.39.52.43a1.93,1.93,0,0,1,.87.52c-.36.11-.74.23-1.1.31a20.61,20.61,0,0,1-2.08,0C170.13,204.29,170.61,204,170.61,203.82Z" style="fill:#ebebeb"></path><path d="M234.25,161.32c.13-.16.42-.26.45-.37a1.05,1.05,0,0,1,.31-.62.86.86,0,0,0-.21-.07l.14-.08c-.16-.05-.27,0-.23-.27l.25.06c-.09-.15-.1-.35-.19-.49a.6.6,0,0,1,.63.06c-.11-.1-.21-.26-.33-.38a1.81,1.81,0,0,0,.09-.23l.27,0c-.14-.33.2-.68.27-.27.29-.13.08-.11.26,0a2.12,2.12,0,0,1,1.3-.25c-.12.61-.86.71-.94,1.09a1.5,1.5,0,0,1-.3,0c.15,0,.29.11.43.13-.14.09-.21.28-.33.39l.09.08c.19-.38,1.83-.58,2.07-.21.38.58-1.05,1.34-.75,2a.59.59,0,0,0-.64.26c1,.14,1.46.23,1.81,1.34.26.88,1.15,1,1.32,2a.49.49,0,0,0-.63-.2c.4,0,1.22.71.68,1.1.13.14,1.54-.42,1.44.41s-.49,1-1.1,1.49c.25,0,1.46.27.66.6a8.72,8.72,0,0,1-1.59.38c-.35.08-.41-.25-.72-.26s-.67.33-.87.43c-.72.34-.86-.45-1.26.53-.69-.5-1.23.52-1.73.16.27-.3.91-.62,1-1,.18-.72.77-.47,1.34-.4,0-.28.23-.43.4-.65l-.88.3c-.07,0-.49-.23-.65-.23l.15-.11c-.41-.23-.75.37-1-.09,0,0,0-.16,0-.23.23-.09.83-.2,1-.4.28-.39.05-.51.11-.91-.21,0-.41.07-.62.12.31-.22.49-.49.14-.77a.35.35,0,0,1,.49.22c.27-.22.53-.09.85,0a1.41,1.41,0,0,1-.06-.22c.16.09.12,0,.25.16l.1,0a1,1,0,0,1-.08-1.18c-.51.39-1-.9-.12-1.11-.48-.05-.91.39-1.26.16.13.39-.21.1-.43,0a1.42,1.42,0,0,0,0,.29c-.48-.36-.08-.42,0-.82s.07-.29,0-.63-.1-.35.15-.36a2.75,2.75,0,0,0-.1-.34c-.31.64-.67.28-.23-.08-.38.14-.36.49-.41.79s.05.83-.26.56c-.14-.13,0-.21.08-.39.12-.34,0-.34,0-.62s.16-.8.54-1c0-.05-.06-.09-.1-.12-.22.2-.38.46-.64.38.35.28-.18.48-.41.27C234.65,161.57,234.64,161.41,234.25,161.32Z" style="fill:#ebebeb"></path><path d="M235.32,162.93a.59.59,0,0,1-.16-.4C235.37,162.57,235.43,162.73,235.32,162.93Z" style="fill:#ebebeb"></path><path d="M136.91,127.84c.66.26.36.59,1.19.43.45-.07.89.52,1.24.79a1.65,1.65,0,0,1-.26.14c.53,0,.6-.1.75.49.06.26,1,.16,1.19.18.45,0,.94.27,1-.25,0-.26-.82-.46-1-.56l.66-.26-1-.6a4,4,0,0,0,.42-.38c.11-.13.23-.26.34-.4h0l.16-.23a.63.63,0,0,1,.46-.06.49.49,0,0,1,.22.35s0,.1,0,.16l0,.17a.45.45,0,0,0,.06.14.51.51,0,0,0,.18.26c.21.17.27.63.51.72s.55.19.68.65c.35-.45-.39-.71.5-.84.74-.1.8.44.67,1s-.29,1-.71,1h-1c-.31,0-.33.33-.52.34-.38,0-.59-.34-1-.21-.68.24-1.34.5-2,.73-1.21.45-1.67.68-2.79-.06.92-.31,2.29-.43,2.95-1.13-.34.24-1.14.47-1.34,0,0,.46-.8.31-1.13.34.07-.36.24-.67-.18-.82-.18.69-.28.74-.86,1.08-.07-.45-.61-.53-.43-.06a5.23,5.23,0,0,1-.68-.18c0-.09,0-.18.07-.26a2,2,0,0,1-1.32-.1c.39-.77,1.7-.38,2.33-.9-.22,0-1.86.55-1.91.1s1.91-.37,2.13-.51c-.49,0-1.24.2-1.67-.05v-.33a3.35,3.35,0,0,1,1.78-.14c-.2-.06-1-.16-1-.41S136.78,127.79,136.91,127.84Z" style="fill:#ebebeb"></path><path d="M372,270.53a1.77,1.77,0,0,1-1.6-1.24,5.1,5.1,0,0,1-.29-2.36l1.47.66c.26.12,1.1-.42,1.37-.52C374,267.39,373,270.72,372,270.53Z" style="fill:#ebebeb"></path><path d="M348.25,208.35c.09-.33-.21-.41-.17-.72.1-.54.19-1.1.27-1.65,0-.22.43-.35.62-.32.59.13.29.48,1,.15.21.46-.18.61-.1.95.13.61.38.31.15,1a2.42,2.42,0,0,1-.15.56c-.09.13-.42-.11-.41.12,0,.6-.4.39-.07,1.05.17.34,0,.79.46.82.16,0,.2-.36.43-.3a1.34,1.34,0,0,1,.52.18,2.4,2.4,0,0,0,.55.34c.14,0,.17-.36.34-.18.38.39.08.62-.36.41,0,.57.61.4.32,1-.17-.12-.72-.36-.72-.56,0-.59-.1-.52-.6-.71,0,.25-.08.48-.12.72a1.36,1.36,0,0,0-.43-.49c-.5-.3-.36,0-.76,0s-.85-.61-.28-.91c-.27-.1-.73-.13-.77-.47s-.34-1-.12-1.4Z" style="fill:#ebebeb"></path><path d="M230.59,167.67a1.65,1.65,0,0,0,.46-.23,4.14,4.14,0,0,1-.43-.13.88.88,0,0,0,.59-.39c.15-.21.65-.21.9-.26a1.82,1.82,0,0,0-1.08.12,5.41,5.41,0,0,1,.85-.91,2.34,2.34,0,0,1-1.06-.32c.13-.13.45-.33.39-.51-.11-.41-.21-.45.13-.65.19-.1.48.06.68.11s.45-.13.7-.33l-.6-.21c.3-.52.92-1.23,1.56-.85-.05.07-.09.16-.13.23.18-.05.7-.28.83-.12s.3.78.59.69c-.06.71-.24.72-.79,1.11a1.42,1.42,0,0,1,.34,1.17c-.08.3-.18.6-.27.9s-.3.09-.57.18c-.8.21-1.92,1.51-2.74.8.1,0,.16-.18.26-.24C231,167.77,230.81,167.73,230.59,167.67Z" style="fill:#ebebeb"></path><path d="M157,129.78c.44-.45-.26-1-.52-1.32-.43-.52-.72-.29-1.32-.22s-1,.22-1.6-.35-.85-1,0-1.19a4.3,4.3,0,0,1,1.77.19c.51.07.76.56,1.31.66s1.1-.35,1.61,0c.29.19.1.39.51.51s.57.17.86.24c-.11.48-1.12.08-1,.41,0,0,1,.6,1.17.69l.75.47c.13.09.43-.21.59-.23a5.9,5.9,0,0,1,1.74.38,3.61,3.61,0,0,1-.3-.25,10.77,10.77,0,0,0,1.45-.4c.52-.17.91.07,1.39-.09a3.22,3.22,0,0,1,3,.94c-.22.16-.43.33-.67.49a1.44,1.44,0,0,1,.8.31c-.49.16-.67.12-.81.64-.07.24-1.11.26-1.32.29a1.81,1.81,0,0,1-1-.19c-.42-.16-.1-.78-.68-.78,0,.23.07.46.12.68-.42.07-1.27.46-1.41-.15-.16.61-.91.45-1.21,0a2.6,2.6,0,0,1,0,.4c-.55,0-1.11-.06-1.65-.07s0-.64-.52-.84a2.82,2.82,0,0,0-.1.58c-.06-.13-.2-.22-.28-.35-.08.56-.41.42-.8.38s-.45-.12-.66-.58c-.28.2-.88.62-1.08.16C156.87,130.56,156.71,130.44,157,129.78Z" style="fill:#ebebeb"></path><path d="M234.14,162.43a1.66,1.66,0,0,1,.3-.22c.13.25.1.44-.13.51C234.22,162.59,234.38,162.49,234.14,162.43Z" style="fill:#ebebeb"></path><path d="M158.66,117.17c-.51-.23-1-.46-1.5-.71.78-.43,1.7-.93,2.43-.28.56-1.26,2-.64,3.06-.71l-.85-.4c.4,0,.8,0,1.21,0-.08-.22-.16-.43-.25-.63.36,0,.89-.11,1.2.11a6.28,6.28,0,0,0,1.41.91l3.16.79-2.86-1.56c.32-.27.78-.86,1.19-.89s.75-.06,1.13-.07.31-.33.54-.42a3.8,3.8,0,0,1,1.57.29l1.7.69c-.47-.4-1-.79-1.45-1.19l2.43,0c.56,0,1.18.66,1.66,1-.15-.27-.28-.53-.41-.81a28.73,28.73,0,0,1,3-.44,24.11,24.11,0,0,1,3.15.44l-1.66.94a7.38,7.38,0,0,1,3-.36,20.92,20.92,0,0,1,3.37.89c-.84.45-2,1.43-2.94,1.5-1.3.08-2.59.19-3.89.29l1.76.3-3,.89,5-1c0,.8-2.23,1.37-2.9,1.78a6.62,6.62,0,0,1-1.73,1c-.65.15-1.3.28-1.95.41l1.21,0a3.38,3.38,0,0,1-1.22,1c-.39.21-.92-.1-1.31-.2.06.2.12.41.17.61-1.11.21-2.23.33-3.35.46.46,0,2.23-.18,2.09.57h-1.86c.45.12,1.86.16,1.8.82l-1.61.22.92.49a2,2,0,0,1-1.23.91c-.31.11-1-.36-1.23-.21s.59.47,0,.94c-.17.16-1.15.86-.95,1.17s.23.23.57,0,.35,0,.65.13.13.52.16.72-.42.25-.55.29-.36-.18-.41-.16-.23.35-.39.41l-1.61.49c.11-.48.27-.64-.11-.92s-.44.3-.83-.11c0,.74-.89.34-1.09-.11.11.57-.39.36-.68.26s-.46.31-.94.31a9.55,9.55,0,0,1-1.19-.1c-.41,0-.78.29-.88-.31-.23.69-1,.26-1.08-.36-.35.4-.47.77-.88.26.3-.2-.08-.39.06-.56s.66-.29.88-.39c.62-.26.92-.1,1.44-.64-.74-.07-.75-.14-1.13-.85a2.84,2.84,0,0,1,1.56-.1c.46.08.5.79,1,.94,1.3.33,1.77-.4,2.51-1.44-.45.47-1.36,1.61-2.12,1.06-1-.69-.16-1.22.14-2.13-.41.39-.85,1.11-1.41,1-.8-.17-1.58-.23-.73-1.08a3.22,3.22,0,0,1,3.61-.21,5.4,5.4,0,0,0-1.61-2c-.71-.49-2-.4-1.34-1.69,0,0,2.19,0,2.32.1a10.76,10.76,0,0,1,2.3,1.39c-.54-.5-1.09-1-1.64-1.49,1.64-.31,3.24-.65,4.85-1.07l-.76-.35,1.21-1.09a7.22,7.22,0,0,0-2.39,1.47c-.25.23-1,.21-1.31.27l-1.51.29c.3-.26.62-.5.92-.76-.42.11-.82.24-1.22.37.1-.1.17-.24.27-.34-.17,0-.74.11-.76.31-.06.58-.12.46-.64.46a13.77,13.77,0,0,1-1.9-.2,4.42,4.42,0,0,1,2-1.11,3.69,3.69,0,0,0-2.26.74c-.69.46-1.44,0-2.19-.23a4.78,4.78,0,0,1,1.9-.38,4.77,4.77,0,0,0,2-.69,11.43,11.43,0,0,1-2.37.53c-.87,0-1.64.46-2.38-.07l1.3-1.09Z" style="fill:#ebebeb"></path><path d="M400.73,139c0-.15-.32-1.15-.22-1.19a4,4,0,0,1,1.31-.55l1.64.09c.42,0,.66.36,1,.65-.55.62-1.17.6-1.94.74-.23.06-.44-.12-.68,0Z" style="fill:#ebebeb"></path><path d="M219.93,140.17l-3.54,2.16a12.26,12.26,0,0,1-3.26,1l-2.17.59c-.48.11-.61.39-.94.8a9.19,9.19,0,0,1-1.29,1.62,6.62,6.62,0,0,1-1.63.53l-2.32.76c-.57.19-.56.2-.79.84-.43,1.18-.85,2.34-1.22,3.54-.49,1.48-1,3-1.44,4.46,0,.13-1.1.1-1.28,0l-2.31-.84c-.37-.15-1.05-.22-1.29-.59-.48-.75-1-1.5-1.44-2.26a19.19,19.19,0,0,1-2.25-3.91c-.31-.89-.63-1.78-.95-2.69a6.19,6.19,0,0,1,.22-2.32c0-.11,0-.73.11-.77.45-.18.88-.38,1.31-.55.13-.06.72-.2.74-.36.05-.48.11-.95.17-1.43l-1.89.57c-.86.26-.82.27-1.46-.45-.52-.56-.21-1,0-1.74s-.45-1.08-1-1.61-.1-.94.13-1.62.14-.79-.17-1.49a16.93,16.93,0,0,0-1.9-3.72c-.2-.26-.85-1.42-1.17-1.48l-1.9-.32a11.71,11.71,0,0,0-3.58-.3l-2.08.26c-.34,0-1.21-.69-1.51-.88L176,126.9c-.45-.27-.84-1.12-1.15-1.54-.1-.14-.59-.63-.55-.82s0-.89.3-1l3.14-.9a10.26,10.26,0,0,1,2.32-.46c.56,0,.65.09.86-.47s.41-1,.59-1.51c-.9-.1-1.71,0-2.37-.72,1.78-.93,3.58-1.85,5.38-2.78l2.18-1.12a6.8,6.8,0,0,1,2-.28l3.84-.5a6.86,6.86,0,0,1,2-.26,36.51,36.51,0,0,1,5.3,1.55,7.37,7.37,0,0,0-2.74-2.17l3.17-1.45c.72-.34,1.63.07,2.39.2s1.25.21,1.88.33.54-.78.91-1a3.38,3.38,0,0,1,1-.1l2.35-.2a29.26,29.26,0,0,1,6.45.52,20.36,20.36,0,0,1,5.43,1.92c-1,.34-1.89.69-2.84,1,.59.47,1.25.33,1.94.36s-.31,1.78-.4,2c.58-.25,1.77-1.08,2.38-1l1.56.26c.45.08.64-.42.91-.78.45-.53,1.74-.4,2.38-.29a17.11,17.11,0,0,1,2.62,1c-.75.45-1.51.88-2.28,1.33a6.71,6.71,0,0,1-2,.5c.19.17.37.33.57.49a8.08,8.08,0,0,1-1.7,1.51c-.59.42-1.31.68-1.69,1.33s-1.24,1.45-1,2.13c.37.9.86,1.11,1.62,1.62l-2.17,2.13c.5.35,1,.69,1.5,1s.34,1,.43,1.51c0,.21.37,1.47.24,1.62l-1.49,1.65a9.28,9.28,0,0,0-1.34,3.23c-.15.42.28,1.4.39,1.83C220.52,139.51,220.47,139.5,219.93,140.17Z" style="fill:#ebebeb"></path><path d="M321.78,120.45c.08-.21.31-1,.5-1s1-.14,1.05-.34c.15-.59.09-.75.61-.91s.9-.29,1.37-.42-.05-.53.63-.5,1.51,1,2,1.38c-.77.23-.77.13-.62,1,.08.4.91.37,1.26.46l-.74.77c.74-.28,1.13-.61,1.83-.23.32.18,0,.61-.13.93s.19.76.26,1a2.37,2.37,0,0,1-1.84.1,3.86,3.86,0,0,0-2.1-.2c-.72.07-1-.69-1.46-1.28s-1.37-.13-1.88-.1C322.41,121,321.73,120.57,321.78,120.45Z" style="fill:#ebebeb"></path><path d="M367.44,167.81a4.92,4.92,0,0,0,.22-1.55c-.1-.36-.19-.4.08-.62s.31.07.45-.06c.35-.31.14-.82-.17-1.13.83-.64.54.64.78,1.1.44.87-.24,1.3-.09,2.18,0,.27.36.49.43.76l.3,1.2a9,9,0,0,0,.82,2.26c-.51,0-.46-.91-1-.81-.8.16-.72.39-1,1.24-.2.62,0,.73.33,1.28s.78,1.15.35,1.61c0-.39-.2-1-.66-.89s-.47.68-.55,1.06a3,3,0,0,1-.16-1.55c0-.23-.19-.55-.06-.75a.88.88,0,0,0,.16-.88c-.14-.73-.42-.75-.07-1.47a3.92,3.92,0,0,0,.2-1.78C368.28,168.52,367.37,168.28,367.44,167.81Z" style="fill:#ebebeb"></path><path d="M281.67,119.21l-1.17-.31a5.24,5.24,0,0,1,3-.42,3.16,3.16,0,0,0,1.59-.25c.56-.14.86.13,1.33.45l-2.54.59c.07.25.13.48.2.72a5.68,5.68,0,0,1-2.12-.34l1.28-.87Z" style="fill:#ebebeb"></path><path d="M400,264.9c-.1.1.13.48-.15.35s-.72-.09-.71.33a5,5,0,0,1-.82,2c-.35.69-.86.45-1.32.16.24-.28.86-.92.6-1.41-.09-.16-.56-.18-.69-.26a6.93,6.93,0,0,1-.65-.58,2,2,0,0,0,.88-1.24c.19-.47-.16-1,0-1.45-.47.16-.9-1.4-1.1-1.83a1.12,1.12,0,0,0-.22.16c-.19-.4-.37-.79-.58-1.19.36.1.55.47.94.61.75.29.36.21.58.91a1.8,1.8,0,0,0,.35.5c.13.19,0,.49.06.68.32.65.66.23.61-.29.52.25.18,1.18.69,1.31.82.22,1,.28,1.68-.2C400.91,263.53,400.35,264.6,400,264.9Z" style="fill:#ebebeb"></path><path d="M352.59,232.6c-.47.41-1.43.14-2,.15-.26,0-.44.41-.85.34-.18,0-.23.15-.39.18s-.25-.26-.59,0c-.18-.2-1.42-.07-.95-.59s1.27.28,1.69,0c.2-.12.42.22.59.07s.36-.31.75-.29C351.52,232.57,351.92,232.35,352.59,232.6Z" style="fill:#ebebeb"></path><path d="M147.27,140.84c-.11,0-.24,0-.36-.05.26.26.19.56.17.91.35-.33.67-.62,1.17-.49-.3.43.16.36.16.69s-.75.43-.94.45c-.73.08-1.42-.33-2.16-.33.09-.06.16-.15.25-.2l-1.31-.26c.06-.12,0-.28.1-.39-.38-.12-.39.21-.65.43a1.44,1.44,0,0,1-.85.36c-.62.1-.85.55-1.48.59-.91.07-1.83.13-2.74.22-.75,0-.93-.38-.85-1.2-1.29-.06-2.86.2-3.32-1.42a8.84,8.84,0,0,1,2.66-.52,12.07,12.07,0,0,0,1.57.21c.23,0,1.33-.2.65-.37a9.87,9.87,0,0,0-2.78-.46c-.68,0-1.35,0-2,0-.52,0-.63-.23-1-.62l2-.89-1.91.05c.06-.1.07-.24.14-.34h-.9c-.1-.61.49-.92.85-1.25-.15,0-.28-.18-.41-.21a8.69,8.69,0,0,1,2.71-1.46c.52-.19.72-.38,1.18-.12.63.37.17.85-.26,1.21l.81-.07c.26,0,.33-.56.54-.62s1.29.59,1.62.76c-.13.16-.25.33-.38.51.49,0,.52,0,.78-.42.1-.18.75.1.94.16-.29-.31-.57-.59-.85-.9.49-.08,1.64,0,1.87.64.16.49.33,1,.5,1.47s.35.17.72,0q-.3-.79-.57-1.59c-.09-.23-.18-.48-.25-.71s.32-.33.1-.68c.19.09.81.55.92.36.26-.38.56.1.91.31.81.44,1,1.77,1.41,2.65.14.37-.17.8-.06,1.06s1,.63,1.26.78a3.15,3.15,0,0,0,2,.7c0,.39.11,1.53-.45.67,0,.11-.14.2-.17.31-.39-.33-.79-.53-.91.22A2.23,2.23,0,0,1,147.27,140.84Z" style="fill:#ebebeb"></path><path d="M340.18,223.05c-.51-.49-.36-.47,0-1.09s.72-.48,1.23-.65.61-.59.87-1c.39-.59.49-.59,1.16-.77.51-.13.2-.44.56-.86.2-.23.82-1.21,1.1-1.25s.94.63,1.11.86.31.52.51.56.43,0,.53.32l-.94.26.38.53c-.23.06-1.05,0-1.07.45a2,2,0,0,0,.06.57c.07.31.26.43.43.92.05.13-.14.38-.08.49s.41.38.56.52c.6.55.3.65-.35.51-.31-.08-.57.57-.54.93,0,.78.05.78-.51,1.27s-.56.37-.56.93,0,1.18,0,1.79c-.29,0-.31-.22-.22-.49l-1.25.62c0-.2-.07-.65-.28-.72s-.46,0-.59,0c-.76-.47-.84-.3-1.64.14,0-.23-.07-.47-.11-.7-.26.11-1.28.53-1.33,0s0-1.48-.46-1.88c-.07.27,0,.14-.31.29.08-.41-.06-.19-.12-.42a.38.38,0,0,1,0-.1,4,4,0,0,0-.13-.41c0-.15.18-.21.15-.33s-.32-.37-.29-.59.09-.72.13-1.06c.2-.13.39-.25.59-.36C338.78,223,339.72,222.94,340.18,223.05Z" style="fill:#ebebeb"></path><path d="M347.26,225.63c.16-.48.72-.72.34-1.27a2.6,2.6,0,0,1,.95-1.24c.41-.26,1.17.19,1.57.33s.29-.1.56-.07.58.25.78.12c.38-.25.71-.89,1.14-.91-.32.88-.89,2-1.89,1.41-.41-.23-1,0-1.45,0s-.78-.37-1.07,0c-.6.74.22,2.25,1,1.4.32-.36.15,0,.46-.06s.29-.21.64-.23.87-.43.69.29c-.74-.48-1,1.17-1.85.86.23.26.42.25.61.59s.22.42.33.64-.23.36-.19.47c.19.43.78.16.56.72,0-.13-.77.51-.66.51-.34.07-.63,0-.5-.48s-.39-.36-.53-.79c-.05-.19.27-.94-.13-.89-.74.08-.23.33-.28.72s0,.82,0,1.15c0,.17-.18.31-.2.49s.2.49.13.59-.83.14-1-.06.18-1.25.23-1.53c.08-.66-.39-.28-.58-.56-.34-.5-.2-.57.07-1.13C347.23,226.26,347.13,226,347.26,225.63Z" style="fill:#ebebeb"></path><path d="M284.92,237.43a4.43,4.43,0,0,1,.15,2.82l-.46-.46a6.93,6.93,0,0,1-.35,3.07q-.81,2.69-1.61,5.38c-.16.49-.3,1-.45,1.49,0,.05-1.18.4-1.34.49s-1.32-.31-1.35-.55a17.74,17.74,0,0,0-.36-1.93,3,3,0,0,1-.11-1.9c.18-.59.87-1.19.93-1.8a7.11,7.11,0,0,0-.44-2c-.08-.32.21-1.5.47-1.54a5.94,5.94,0,0,0,1.8-.67c.58-.29.79-.77,1.22-1.28s.81-.63.84-1.52c.06-1.13.81,0,1,.36Z" style="fill:#ebebeb"></path><path d="M151.11,127.51c.19-.12.58.14.77.21a1.55,1.55,0,0,1,.4.69c0,.23-.11.51-.1.77s.24.38.16.73c-.09-.09-.22-.12-.3-.2a.58.58,0,0,1-.23.52c.15.07.27.24.43.31-.42.41-1.07.19-1.56.16-.16,0-.24.28-.43.22s-.63-.07-.68-.48a2.49,2.49,0,0,1,.46-.05,1.68,1.68,0,0,0-.72-.19.64.64,0,0,1,.62-.26,1.54,1.54,0,0,0-.14-.13.44.44,0,0,0,.49-.3c-.61.07-1.22.13-1.83.26-.39.08-1.52,0-.72-.52H147a.81.81,0,0,1,.59-.28c.37-.07,1.09.29,1.21-.11-.45.13-.53-.3-.12-.46a4.78,4.78,0,0,0-.54,0c-.09-1.25,1.81.57,2.07.71l-.58-.78c.13,0,.28,0,.42,0-.09-.34-1.32-.4-.58-.69S150.57,127.85,151.11,127.51Z" style="fill:#ebebeb"></path><path d="M372.93,231l-.81.09c.07.2.14.63.3.75s.55.26.65.46c.39.8.36,1,1.18,1.05-.23.53.26.47.61.55-.35.3.38.8.61,1.05-.31.1-.9-.35-1.28-.42-.54-.1-1.08,0-1.48-.48s-1-1.06-1.53-1.61c-.25-.27-1.33-.21-1.69-.26s-.45,1-.77,1.18a2.85,2.85,0,0,1-1.87.16c-.4,0-.65-1-1-1l-1.91.2c.11-.95.19-.84,1-1.09-.23-.56-.46-1.14-.71-1.71-.14-.33-.89-.48-1.18-.59-.7-.31-1.41-.61-2.13-.91s-.59-.23-.72-.95c-.26.3-.5.6-.74.91-.29-.48-.57-.95-.85-1.44a2.65,2.65,0,0,1,1.71-.07,1,1,0,0,0,0-.42,2.94,2.94,0,0,1-1.64-.09c-.19-.1,0-.56-.19-.59l-.85-.13a1.75,1.75,0,0,1,2.11-.85c.51.13.67,0,.76.61a5.52,5.52,0,0,0,.39,1.47c.17.46.39.48.82.69.16.07.7-.82.82-1a1.69,1.69,0,0,1,1.64-.65l3.1,1.18a10.9,10.9,0,0,1,2,.78l1.19.75c.4.26.22.76.5,1.08C371.53,230.22,373,229.86,372.93,231Z" style="fill:#ebebeb"></path><path d="M367.12,178.57a1,1,0,0,0,.11-.72c0-.29.44-.55.34-.81s-.29-1.84.25-1.12a4.09,4.09,0,0,0,1.32,1.44c.85.43.88.62,1.57-.09.14.42-.6,1.25.39,1.23a1.48,1.48,0,0,1-1.33.51,1.2,1.2,0,0,0-.67.38,4.48,4.48,0,0,0-.25.76c-.29.15-1-.47-1.24-.69s-.54.1-.7.17-.46-.21-.75-.11c-.09.57.5.36.68.67s-.16.25-.29.21-.38.41-.49.37a3.72,3.72,0,0,1-.4-1.19c.1-.36.14-.36.46-.52.16-.09.14-.52.18-.71Z" style="fill:#ebebeb"></path><path d="M363.81,131.05c-.24-.3-.76-.68-.64-1.1.2-.75.51-.9,1.09-1.38s2,.74,2.61,1c-.09-.5-.31-.82.15-1,.26-.12.67.17.91.26.92.34,1.84.69,2.75,1.05a2.66,2.66,0,0,1-.82.67c-.4.25-.56.09-1-.1.11.2.24.41.36.61l-1,.21c-.21.05-.44-.63-.64-.56-.68.28-1.39.89-1.86.15-.27.63-.24.66-.88.72C364.46,131.59,364.13,131.26,363.81,131.05Z" style="fill:#ebebeb"></path><path d="M145.7,122.42l-.79,0c.27-.8.69-.64,1.47-.75s1,.36,1.25,1c.35-.18,1.58-.69,1.41.32.51-.09.62-.16,1,.17.23.19.21.18.1.48s.28.45.41.59c.93,1.06-.95,1.11-1.15.75s-.25-.66-.68-.71-1,0-1.31-.34-1.8,1-2-.36c.49-.32,1.57.3,1.5-.49l-.71-.13c.09-.06.15-.17.25-.23-.42-.42-.58.27-1,.23A3.32,3.32,0,0,1,145.7,122.42Z" style="fill:#ebebeb"></path><path d="M286.41,136.59c0-.55.63-.36.83-.76.28-.55-.24-.58.33-1,.15-.11,1.05-.6,1-.8-.1-.49-.29-.74,0-1.1s.83-.92,1.25-1.38a24.81,24.81,0,0,1,1.9-1.8,8.94,8.94,0,0,1,2.41-1,6.1,6.1,0,0,1,2.53-.45,7.25,7.25,0,0,0,2.91-1.16c.4-.32,2.59-.81,2.47.34-.08,1-2.2,1.33-2.73,1.5-1.07.37-2.13.68-3.2,1a9,9,0,0,0-2.21,1.41,5.47,5.47,0,0,0-1.43.92c-.33.43-.66.91-1,1.32-.61.71-1.61,1.62-1.6,2.68,0,1.35.84,1.93,1.8,2.59-.62.51-2.06.07-2.75,0a3.06,3.06,0,0,1-2-1.05C286.44,137.35,286.35,137.34,286.41,136.59Z" style="fill:#ebebeb"></path><path d="M234.28,160.8l-.1-.1a.34.34,0,0,0,.11-.07C234.35,160.72,234.28,160.76,234.28,160.8Z" style="fill:#ebebeb"></path><path d="M396.44,267.3c.1.36.21.72.31,1.08-.37.49-.75,1-1.11,1.46s-.33.53-.05,1.09a.47.47,0,0,1-.42-.37c-.72.53-1.05.67-1.28,1.58a9,9,0,0,1-1.15,1.93c-.32.52-1.42.14-1.72-.2s-1.73-.06-1.21-.75l1.51-2c.16-.22.7-.33.93-.44a3.79,3.79,0,0,0,.82-.64,6.22,6.22,0,0,0,.82-.72c.17-.29.14-.77.33-1s.43-.14.55-.67.27-.51.69-.74a2.21,2.21,0,0,1,.28,1C396,267.69,396.2,267.51,396.44,267.3Z" style="fill:#ebebeb"></path><path d="M343,233.1c-.34-.16-.7-.32-1.05-.46a4.53,4.53,0,0,1-1.38-.13c-.1,0-.15.16-.28.14s-.37-.05-.57-.07a4,4,0,0,1-.71-.24,4.33,4.33,0,0,0-.85-.31c-.27,0-.59.19-.86.13-.53-.1-1-.43-1.61-.53a1.31,1.31,0,0,1,.06-.27c-.48-.12-1.23-.16-.67-.81.19-.23.2-.34.48-.29s.53.28.63,0c.2.13,1.12.34,1.17.44.37.64.86.49,1.54.56.17,0,.4.15.47-.07s.25-.52.51-.19a1.56,1.56,0,0,0,1.34.21.75.75,0,0,0,.93.83C343.16,231.78,342.62,232.57,343,233.1Z" style="fill:#ebebeb"></path><path d="M174.94,138.71c.2.54.85.11,1-.32s2.13.72,2.5.91c-.16.53-.88.54-1.31.67.35.06.72,0,.59.48.35-.17.85-.28.92-.77.33.22.85.45.84.94a1.74,1.74,0,0,0-1.33.35,1.81,1.81,0,0,0,.92.24c.59-.11.55-.13.77.49-.38-.07-.77-.14-1.15-.23,0,.26.08.52.13.78l-.83.08c1,.45,1.93.82,2.93,1.2a2,2,0,0,1,1,.72c.42.46.69.44,1.3.53l-.39.59a4.61,4.61,0,0,1,1.48,0c.6.28.37.66.3,1.31-.3-.05-.77-.26-1,0,.25.1.48.22.71.33-.71.36-1,.72-1.64.26a3.63,3.63,0,0,1,0,1.57,4.28,4.28,0,0,1-1.76-1.39c.36-.16.89-.22.73-.77-.23.07-.72.38-.93.33s-.61-.64-.88-.8-.58-.22-.78.08c-.3.46.23.42.26.93-.26-.05-.5-.08-.76-.11.09.26.16.51.24.77.38-.15.48-.33.62.1s.23.73.35,1.11c.11-.58.4-.32.75-.16s.37.3.47.82.46.29.66.6a4.25,4.25,0,0,1,.15,1.2l-.45-.61c-.27.49.42.62.2,1.11a2.07,2.07,0,0,1-.33-.1c.07.19.15.38.22.56-.19.07-.71-.6-1-.79l-1.65-1c.07.15.07.34.14.47l-1-.44c.19.32.36.65.55,1s.64.19.85.33l1,.72c.33.23.2.39.14.83l-2.72-.7c-.33-.09-.3-.49-.5-.55l-1.38-.36.15-.23a2,2,0,0,1-1.15-.43l.72-.38c-.41-.23-.89-.18-1.15-.57-.47-.72-.46-1.17-1.18-.69,0-.32-.17-.48-.46-.43,0,.13-.07.28-.06.43-.42-.1-.86-.36-1.19-.05s-.91.22-1.37.25c-.3,0-.78-.56-.62-.85s.81-.49.73-.95a5.73,5.73,0,0,0,2.09.16c.18-.06,1.18-.2,1.24-.36.13-.35-.58-.71-.75-.84l1.67-1.68c.16-.16.4-.26.29-.48-.23-.43-.48-.86-.71-1.29-.36-.66-1.1-.49-1.44-1.08s-.23-.42-.69-.23l-1,.39c0-.87.16-.75.9-1-.4-.33-1.29-1.49-1.78-1,0-.23-.09-.46-.14-.69s-.41,0-.55-.05c-.42-.2-.36-1.05-.94-.5.46.13.52.36.72.81a5,5,0,0,1-2.85-.31c.28.25.55.51.82.77-.36.13-.46-.33-.79-.38-.11,0-.2.35-.35.29l-.66-.26a7.75,7.75,0,0,0-2.21-.11,2.41,2.41,0,0,1-1-.28c-.41-.37.13-.57-.61-.5-.33,0-.51.34-.92.11a3.06,3.06,0,0,1-1.32-1.25l2.11.19c-.7-.75-1.34-.65-2.31-.75a4.91,4.91,0,0,1-.23-1.21c-.06-.34.37-1.05.49-1.37a2.64,2.64,0,0,1,1.54-1.65,4.11,4.11,0,0,1,2.54-.32c-.05.27-.13.53-.2.79a10.19,10.19,0,0,0,2.08-.7,3.1,3.1,0,0,1,1,0c.38,0,.29.53.51.81s.37.27.57.67c.28.56.2.58-.1,1.14s.15.46.42.19c.49-.49.45-.46,1-.12.16.1.63-.5.78-.63s.82-.16,1.09-.19a2.94,2.94,0,0,1,1.87.74c.34.33,1.17,1.64,1.52,1.52.57-.21,1.62-.33,1.87.49C175.75,138.09,174.85,138.48,174.94,138.71Z" style="fill:#ebebeb"></path><path d="M129.81,129c-.32-.38-.3-.63-.1-.77a.64.64,0,0,1,.26-.13l.16,0,.17,0,.17,0c.43-.06,1.08-.87,1.41-1.16a3,3,0,0,1,2.18-.86c.31.13.59.32.87.06-.16-.06-.18-.15-.28-.2a1.27,1.27,0,0,1,.24-.07.58.58,0,0,1,.22,0h0a2,2,0,0,1,1,.42c-.4.14-1.26.57-.3.76a1.53,1.53,0,0,0-.36,0l-.11.06a.5.5,0,0,1,.23.23.53.53,0,0,1-.22.54,1.93,1.93,0,0,1-.73.48c-.59.16-1.27-.51-.58-1-.13-.12-.53-.16-.53.1,0,.52-.28.26-.58.45.23.07.38.31.17.53-.34.4-.5-.32-.69-.23s.2.56,0,.78-.54.23-.77.31c.07-.47-.28-.8-.55-.56,0,0,0,.1-.05.17s0,.18,0,.22a.3.3,0,0,1-.25,0Z" style="fill:#ebebeb"></path><path d="M329.8,124a10.5,10.5,0,0,1,1.29-1.89,1.43,1.43,0,0,1,1.77-.33c-.14.13-.3.26-.44.4.23,0,.9-.2,1.05,0,.36.42.44.62,1,.68.23,0,.66.64.46.8a1.59,1.59,0,0,1-.88.43l-1.56.29c-.28.05-.59-.33-.8-.27-.59.21-1.82,1.06-2.31.4C329.48,124.34,329.64,124.18,329.8,124Z" style="fill:#ebebeb"></path><path d="M234.81,162a2.56,2.56,0,0,1-.21.4C234.44,162.1,234.63,161.94,234.81,162Z" style="fill:#ebebeb"></path><path d="M359.19,190.62c-.26-.88,0-.71.33-1.43.23.18,1.7-.78,1.65.32,0,.16-.36.47-.45.6s-.32-.27-.43-.21C359.86,190.09,359.77,191,359.19,190.62Z" style="fill:#ebebeb"></path><path d="M162.37,150c.07-.17-.11-.48-.08-.66s.08-.55.15-.81c.18-.65.16-1.15.74-1.41s.76.66.1.78a.93.93,0,0,0,.19.37c.33-.44.43-.32.73,0s.59.13.84.3,2,1,1.33,1.69a1.39,1.39,0,0,1,1.44.37l-.77.51c-.52-.16-2-.32-1.85-1.17-.51.2-.46.62-1,.82-.32.11-.6.62-.95.88s-.32-.94-.45-1-1.16.23-1.33.24C161.62,150.63,162.29,150.14,162.37,150Z" style="fill:#ebebeb"></path><path d="M154.51,120.19c.15.06.3.07.45.12a2,2,0,0,1-.26-.25c.13,0,.24-.17.37-.2-.34-.24-.76.19-1.16,0l.2-.11a5.13,5.13,0,0,1-1.08-.2c.24-.11.49-.19.73-.28-.49-.5,1.08-.56,1.4-.63-.26-.23-.78-.17-1.11-.29.42-1.08,1.79-.1,2.18-.78-.38-.21-.84-.07-1.26-.21.35-.51,1.08-.25,1.54-.12.77.19,1.07.69,1.62,1.33a1.2,1.2,0,0,0,1.28.46c.46-.13.18.4.28.57a.85.85,0,0,0,.81.39c-.13-.21-.24-.42-.36-.63.55-.48,1.41.19.79.72,1,.11.78.47.38,1.26.36-.14,1.22-.61,1.28.16,0-.14.17-.26.21-.41a2.8,2.8,0,0,1,.75.82c-.46.14-1.58.74-1.85.5.2.46-.25.62-.54.86a1.36,1.36,0,0,1-.18-.92c-1.07.3.67,1.83-.93,1,.29.42.16.63,0,1.07l-1.14-1.11c.19.39.38.76.56,1.15-.4-.33-.61-.55-1.13-.53a.59.59,0,0,1,.4.41c-.78,0-1.91.12-2.42-.69l1.15-.13c-.56-.13-1.49,0-1.83-.46l.61,0a3.38,3.38,0,0,1-1.09-.42,16.85,16.85,0,0,1,3.45-.6,4.23,4.23,0,0,1-1.91-.09l1.26-.16c-.36-.33-1.21,0-1.72-.27.08.52-.22.13-.31.17-.27.13-.37.41-.69.23a1.85,1.85,0,0,0,0-.23c-.28-.11-.43.07-.66.25s-.3-.28-.56-.23-.37-.33-.09-.38.71,0,1-.39c-.7.28-1.85.28-2-.77Z" style="fill:#ebebeb"></path><path d="M352.92,215.39c-.05-.26-.09-.52-.13-.77a.73.73,0,0,1,.53.54c.24-.1.32.23.27.46,0,.08-.13.13-.18.2s.11.09.24.09a.73.73,0,0,1,0,.33c.4,0,.05,1.07,0,1.36a.67.67,0,0,1-.14-.11c0,.22,0,.42,0,.64-.23-.36-.07-.72-.32-1.07-.52.38-.24.67-.14,1.11.11.59-.58.85-.36.17h-.09c-.14.51-.93-.08-1.05-.4-.19-.49.46-1.42-.52-1.29,0,.12,0,.28,0,.41-.21-.14-.21-.05-.24-.34-.13.16-.16.08-.25.31-.17-.95-.54.36-.75.52-.44-.62.32-1.11.75-1.24.23-.07.07-.66.51-.63s.41.48.2.74c.37-.15.56-.83.95-.52,0-.36.07-.58.36-.39C352.67,215.31,352.61,215.35,352.92,215.39Z" style="fill:#ebebeb"></path><path d="M377.45,249.84a22.83,22.83,0,0,1,.56,3.83,22.12,22.12,0,0,1-1,4c-.27,1-1.43,1.82-1.61,2.88-.23,1.23-.1,3.17-1.53,3.21a1.69,1.69,0,0,0-1.57.72c-.29.28-1,.55-1.32.2-.59-.72-.54-1-1.24-.39s-.73.45-1.53.32c-1.23-.2-2.27-.59-2.57-2-.1-.42-.44-1.4-.91-1.4s-.37-1.27-.43-1.78c-.39.82-.36,1.29-1.21,1.1.52-.85,1.18-1.65.85-2.66a13.35,13.35,0,0,1-1.86,2.49,14.73,14.73,0,0,1-1-1.51c-.46-.82-.5-1-1.32-1.28a16.05,16.05,0,0,0-3.82-.81c-.39,0-1.05.58-1.4.78s-1.09-.12-1.58.12-1.29.4-1.51.87c-.07.15-.27.75-.4.75-.44,0-.87,0-1.3,0s-1.14.11-1.7.16c-.79.09-1,.31-1.57.91-.43.42-1.09.23-1.64.23s-1-.62-1.48-.95.56-1,.62-1.18a7.55,7.55,0,0,0-.32-2.25,13,13,0,0,0-1.12-3.67c-.23-.49-.56-.86-.39-1.39a1.69,1.69,0,0,0,0-1.59,4.23,4.23,0,0,1,.3-3.38c.13.29.25.59.36.89a2.74,2.74,0,0,1,1.21-1.61,4,4,0,0,1,1.6-.86l2.91-.67c.73-.18.73-.8,1-1.56.56-1.49,2.09-2.32,3.22-3.29.2-.17,1.07-1.15,1.31-1,.71.36,1.4.73,2.11,1.1a6.31,6.31,0,0,1,.84-2.33c.52-.76,1.26-.33,2.06-.2,0-.35-.05-.69-.07-1a14.67,14.67,0,0,1,2.19.16,2.15,2.15,0,0,1,1.8.82,3.58,3.58,0,0,0-1,1.54c-.2.85-.5,1.09.21,1.49s1.48.9,2.23,1.34c.41.26.76.95,1.16,1.1,1.13.41,1.59-2.19,1.56-3a7.17,7.17,0,0,1,0-2.12c.17-.6.23-1.83.9-2a16.15,16.15,0,0,1,1.17,3.83.79.79,0,0,1,1.22.61,2.56,2.56,0,0,0,.62,2c.45.5.26,1.26.26,1.94,0,.26,1.63,1,1.87,1.12.59.35.58.75.8,1.46.11.39.24.77.36,1.18s.51-.26.61-.22c.83.27.11.92.64,1.4Z" style="fill:#ebebeb"></path><path d="M357.71,188.77a1.93,1.93,0,0,0,1.64-1c.38-.54,1.5-.39,2.09-.46.32,0,.1.4.62.17.36-.16.06-.4.26-.68s.6-.59.62-.88c0-.54.18-.48.66-.67-.1.1-.49.7-.16.69a2.67,2.67,0,0,0,1-.36,2.42,2.42,0,0,0,1.11-1.46c.15-.44.29-.87.42-1.32.06-.16-.35-.32-.24-.65s.74-1.81,1-.73c-.13-.51.15-.88.62-.62-.06.29-.2.56-.07.82s.46.68.45,1,.1.84-.23,1.06-.21.47-.21.86c-.54-.27-.47.36-.46.73,0,.61-.18.62-.29,1.11,0,.26.08,1.15,0,1.18-.39.2-.46.58-.9.74,0-.2.08-.42.14-.64a5,5,0,0,0-.75.95c-.08-.18-.19-.37-.29-.56-.4.58-1.26.89-1.69.2-.38.26-.28.56,0,.84-.53-.1-.78.57-1.05.95-.49-.45-.91-.84-.23-1.41-.45-.05-1.11-.28-1.41.1a5.57,5.57,0,0,1-.72.27c-.29.19-.46.35-.71-.06-.23.84-.73.19-1.19.61.27.4.46,0,.66.36.07.11.39.55.3.72a4.32,4.32,0,0,1-1.09,1.86c-.72.51-.67-.84-.41-1.26.13-.2.41-.83-.1-.9s0,.6-.54.54l-.09-.7C357,189.83,358,189.51,357.71,188.77Z" style="fill:#ebebeb"></path><path d="M128.21,172.13a11.35,11.35,0,0,1-3.77-2.93c.69-.22.91.1,1.57.31.85.29,1,.09,1.45,1,.16.29.2.48.48.56s.54.13.66.32C129.06,172.15,129.16,172.48,128.21,172.13Z" style="fill:#ebebeb"></path><path d="M224.88,150.54l-.78.11c-.26,0-.21.22-.43.34a1.72,1.72,0,0,1-1.28.08,3.81,3.81,0,0,1-.76-.17c-.12-.09-.25-.49-.41-.46l-1.67.21c-.21-.59.64-.43.82-.93a2.08,2.08,0,0,1-.23,0c0-.07,0-.14.05-.22-.29.05-.41-.14-.21-.37-.38,0-1.54.26-1.64-.27.64,0,1.34-.28,2-.26,0-.06,0-.13,0-.19a.79.79,0,0,1-.7-.06c.24-.13.49-.24.73-.36-.3-.07-.88-.34-1.16-.24-.59.24-.75.36-1.34.11.21-.11.16-.18.41-.16a1.27,1.27,0,0,1,0-.27c.16.1.45.25.56.06s-.52-.2-.19-.61,1.18.64,1.1-.25c-.31,0-.55,0-.64-.32.68,0,.65.1,1.17.55.1.08.5.17.52.36a.31.31,0,0,1-.39.31c.16.3.35.58.53.87a5.74,5.74,0,0,1,.36-.84c.19-.32.58,0,.28-.68.38-.07.6.38.86.64-.12-.33,0-.74.39-.72s.53.33.79.72c0-.26-.07-.52-.12-.78.7.32.88,0,1.59,0-.42-1.08,2-.1,1.47.72.4-.16.66.1,1,.29.18.11-.08.57.25.8-.27.28-.49.68-.89.45,0,.56-.29.95-.8.81C225.84,149.72,225.18,150.35,224.88,150.54Z" style="fill:#ebebeb"></path><circle cx="170.38" cy="187.06" r="4.44" style="fill:#FFC727;opacity:0.4"></circle><path d="M172.76,187.06a2.38,2.38,0,1,1-2.38-2.38A2.38,2.38,0,0,1,172.76,187.06Z" style="fill:#FFC727;opacity:0.4"></path><circle cx="179.26" cy="217.74" r="4.44" style="fill:#FFC727;opacity:0.4"></circle><path d="M181.64,217.74a2.38,2.38,0,1,1-2.38-2.38A2.39,2.39,0,0,1,181.64,217.74Z" style="fill:#FFC727;opacity:0.4"></path><circle cx="194.28" cy="249.07" r="4.44" style="fill:#FFC727;opacity:0.4"></circle><path d="M196.66,249.07a2.38,2.38,0,1,1-2.38-2.37A2.37,2.37,0,0,1,196.66,249.07Z" style="fill:#FFC727;opacity:0.4"></path><circle cx="359.09" cy="245.98" r="4.44" style="fill:#FFC727;opacity:0.4"></circle><path d="M361.47,246a2.38,2.38,0,1,1-2.38-2.38A2.39,2.39,0,0,1,361.47,246Z" style="fill:#FFC727;opacity:0.4"></path><circle cx="310.45" cy="205.66" r="4.44" style="fill:#FFC727;opacity:0.4"></circle><path d="M312.83,205.66a2.38,2.38,0,1,1-2.38-2.38A2.39,2.39,0,0,1,312.83,205.66Z" style="fill:#FFC727;opacity:0.4"></path><circle cx="325.8" cy="143.53" r="4.44" style="fill:#FFC727;opacity:0.4"></circle><path d="M328.17,143.53a2.38,2.38,0,1,1-2.37-2.38A2.38,2.38,0,0,1,328.17,143.53Z" style="fill:#FFC727;opacity:0.4"></path><circle cx="263.87" cy="162.93" r="4.44" style="fill:#FFC727;opacity:0.4"></circle><path d="M266.25,162.93a2.38,2.38,0,1,1-2.38-2.37A2.38,2.38,0,0,1,266.25,162.93Z" style="fill:#FFC727;opacity:0.4"></path><circle cx="241.53" cy="198.99" r="4.44" style="fill:#FFC727;opacity:0.4"></circle><path d="M243.91,199a2.38,2.38,0,1,1-2.38-2.38A2.37,2.37,0,0,1,243.91,199Z" style="fill:#FFC727;opacity:0.4"></path><rect x="58.63" y="78.89" width="174.65" height="13.63" style="fill:#FFC727;opacity:0.5"></rect><rect x="237.67" y="78.89" width="10.85" height="13.63" transform="translate(486.19 171.42) rotate(180)" style="fill:#FFC727;opacity:0.5"></rect><rect x="252.45" y="78.89" width="4.87" height="13.63" transform="translate(509.78 171.42) rotate(180)" style="fill:#FFC727;opacity:0.5"></rect></g><g id="freepik--Projector--inject-8"><rect x="207.61" y="19.05" width="84.78" height="22.03" style="fill:#a6a6a6"></rect><rect x="216.43" y="23.73" width="31.85" height="1.47" style="fill:#263238"></rect><rect x="216.43" y="26.19" width="31.85" height="1.47" style="fill:#263238"></rect><rect x="216.43" y="28.65" width="31.85" height="1.47" style="fill:#263238"></rect><rect x="216.43" y="31.11" width="31.85" height="1.47" style="fill:#263238"></rect><rect x="251.72" y="23.73" width="31.85" height="1.47" style="fill:#263238"></rect><rect x="251.72" y="26.19" width="31.85" height="1.47" style="fill:#263238"></rect><rect x="251.72" y="28.65" width="31.85" height="1.47" style="fill:#263238"></rect><rect x="251.72" y="31.11" width="31.85" height="1.47" style="fill:#263238"></rect><rect x="218.01" y="34.87" width="11.32" height="3.7" style="fill:#a6a6a6"></rect><path d="M241.21,35.29H235.3a1.43,1.43,0,0,0,0,2.86h5.91a1.43,1.43,0,0,0,0-2.86Z" style="fill:#a6a6a6"></path><path d="M274,34.47h-9.3a2.26,2.26,0,0,0,0,4.51H274a2.26,2.26,0,1,0,0-4.51Z" style="fill:#c7c7c7"></path><path d="M254.8,36.72a2.55,2.55,0,1,1-2.55-2.54A2.54,2.54,0,0,1,254.8,36.72Z" style="fill:#a6a6a6"></path><path d="M266.73,36.72a1.43,1.43,0,1,1-1.43-1.43A1.43,1.43,0,0,1,266.73,36.72Z" style="fill:#a6a6a6"></path><path d="M270.76,36.72a1.43,1.43,0,1,1-1.43-1.43A1.43,1.43,0,0,1,270.76,36.72Z" style="fill:#a6a6a6"></path><path d="M274.79,36.72a1.43,1.43,0,1,1-1.43-1.43A1.43,1.43,0,0,1,274.79,36.72Z" style="fill:#a6a6a6"></path><rect x="219.4" y="35.46" width="8.56" height="2.53" style="fill:#455a64"></rect><path d="M240.46,35.65h-4.41a1.07,1.07,0,1,0,0,2.14h4.41a1.07,1.07,0,0,0,0-2.14Z" style="fill:#37474f"></path><path d="M254,36.72A1.73,1.73,0,1,1,252.25,35,1.72,1.72,0,0,1,254,36.72Z" style="fill:#263238"></path><path d="M266.31,36.72a1,1,0,1,1-1-1A1,1,0,0,1,266.31,36.72Z" style="fill:#455a64"></path><circle cx="269.33" cy="36.72" r="1.01" style="fill:#FFC727"></circle><path d="M274.38,36.72a1,1,0,1,1-1-1A1,1,0,0,1,274.38,36.72Z" style="fill:#fff"></path><path d="M265.83,36.72a.53.53,0,0,1-1.06,0,.53.53,0,0,1,1.06,0Z" style="fill:#263238"></path><circle cx="269.33" cy="36.72" r="0.53" style="fill:#263238"></circle><path d="M273.89,36.72a.53.53,0,0,1-.53.53.52.52,0,0,1-.52-.53.52.52,0,0,1,.52-.52A.52.52,0,0,1,273.89,36.72Z" style="fill:#263238"></path><rect x="218.55" y="41.09" width="6.54" height="2.3" style="fill:#37474f"></rect><rect x="219.67" y="43.39" width="4.3" height="1.54" style="fill:#263238"></rect><rect x="276.03" y="43.39" width="4.3" height="1.54" style="fill:#263238"></rect><rect x="274.91" y="41.09" width="6.54" height="2.3" style="fill:#37474f"></rect><rect x="246.1" width="7.8" height="19.05" style="fill:#263238"></rect></g><g id="freepik--Chair--inject-8"><polygon points="314.22 350.1 311.96 363.64 296.65 446.3 294.18 446.3 305.31 363.64 306.96 350.1 314.22 350.1" style="fill:#dbdbdb"></polygon><polygon points="306.96 350.1 314.22 350.1 311.96 363.64 305.31 363.64 306.96 350.1" style="fill:#a6a6a6"></polygon><polygon points="362.28 446.3 359.81 446.3 344.51 363.64 342.25 350.1 349.51 350.1 351.15 363.64 362.28 446.3" style="fill:#dbdbdb"></polygon><polygon points="349.51 350.1 351.15 363.64 344.51 363.64 342.25 350.1 349.51 350.1" style="fill:#a6a6a6"></polygon><polygon points="408.19 446.3 405.72 446.3 390.42 363.64 388.16 350.1 395.42 350.1 397.06 363.64 408.19 446.3" style="fill:#dbdbdb"></polygon><polygon points="397.06 363.64 390.42 363.64 388.16 350.1 395.42 350.1 397.06 363.64" style="fill:#a6a6a6"></polygon><polygon points="404.28 356.46 292.12 356.46 292.12 344.64 334.11 344.64 348.22 262.55 400 262.55 404.28 356.46" style="fill:#dbdbdb"></polygon><polygon points="404.28 356.46 398.16 356.46 394.18 262.55 400 262.55 404.28 356.46" style="fill:#a6a6a6"></polygon></g><g id="freepik--Floor--inject-8"><polygon points="29.82 446.3 84.86 446.06 139.91 445.97 250 445.8 360.09 445.97 415.13 446.06 470.18 446.3 415.13 446.55 360.09 446.63 250 446.8 139.91 446.63 84.86 446.55 29.82 446.3" style="fill:#263238"></polygon></g><g id="freepik--Plant--inject-8"><path d="M428.3,383.12s17.21-3.91,26.65-12.6,14.71-24.27,14.71-24.27a146.89,146.89,0,0,0-19.31,5.07,32.34,32.34,0,0,0-5.84,8.26,40.12,40.12,0,0,1-.05-5.91,26.65,26.65,0,0,0-6.13,3.73C430.51,364.24,428.3,383.12,428.3,383.12Z" style="fill:#FFC727"></path><path d="M458.91,353.82c2.34-1.63,4.73-3.19,7.07-4.83a.13.13,0,0,0-.14-.23c-4.44,2.65-8.81,5.48-13,8.45-1.48,1-2.93,2.11-4.36,3.2l.3-.51c.52-.86,1.06-1.71,1.61-2.56a36.17,36.17,0,0,1,3.65-4.87c.05-.06,0-.14-.08-.09-1.34,1.55-2.68,3.08-3.91,4.72-.58.78-1.12,1.59-1.63,2.41-.27.43-.53.86-.78,1.3l-.25.45c-2.23,1.75-4.4,3.57-6.47,5.5q-1.9,1.78-3.69,3.69c.66-2.08,1.24-4.19,2-6.24,0-.07-.08-.1-.11,0-.75,2.15-1.57,4.31-2.15,6.53q-2,2.13-3.77,4.43a2.86,2.86,0,0,1,.07-.28c.19-.81.39-1.62.61-2.42.42-1.56.88-3.11,1.4-4.63a26.92,26.92,0,0,1,4.63-8.74c.05-.06,0-.14-.09-.08a33.59,33.59,0,0,0-6.59,13.77c-.19.73-.36,1.47-.53,2.2-.08.39-.19.79-.25,1.19-.52.71-1,1.42-1.52,2.15a74.76,74.76,0,0,0-7.29,14.28,167.09,167.09,0,0,0-5.52,17.2.09.09,0,0,0,.18.05c3.37-10.08,6.81-20.3,12.57-29.3q1.83-2.85,3.93-5.5a32.72,32.72,0,0,0,8.37-1.67,37.12,37.12,0,0,0,8.39-4.05,50.47,50.47,0,0,0,4.3-3.25.06.06,0,1,0-.07-.09,34.29,34.29,0,0,1-7.89,4.77,42.92,42.92,0,0,1-8.69,2.92c-1.27.27-2.56.48-3.85.65a75.08,75.08,0,0,1,5.08-5.62c.58-.58,1.18-1.14,1.78-1.7a41,41,0,0,1,6.37-3.64c2.82-1.37,5.59-2.81,8.39-4.23,1.57-.8,3.14-1.62,4.72-2.4.07,0,0-.13-.06-.1-2.83,1.37-5.7,2.65-8.56,4-2.69,1.23-5.41,2.46-8,3.91l-.33.2c2.33-2,4.75-4,7.22-5.83Q455.38,356.27,458.91,353.82Z" style="fill:#263238"></path><path d="M457.93,362.69c-1.4.62-2.83,1.16-4.21,1.81s-2.78,1.45-4.13,2.25c-.06,0,0,.12.05.09,1.38-.66,2.77-1.27,4.13-2s2.76-1.45,4.19-2.07C458,362.78,458,362.66,457.93,362.69Z" style="fill:#263238"></path><path d="M372.37,296.35a24.62,24.62,0,0,1,5.14,14.3c.06,1.55-.18,3.7-.36,6.23a40.83,40.83,0,0,1,11.23,9.6A20.35,20.35,0,0,0,377,323.76a33.78,33.78,0,0,0,.66,5.15,19.31,19.31,0,0,1,7.3,1.44,16.44,16.44,0,0,0-6.59,1.31c3.07,9.76,12.19,19.79,37.39,24a52.83,52.83,0,0,0-4.47-35.45C403.78,305.42,372.37,296.35,372.37,296.35Z" style="fill:#FFC727"></path><path d="M424.5,397.49q-.64-6.25-1.63-12.47a249,249,0,0,0-5.08-24.66,100.87,100.87,0,0,0-3.63-11.24,16.9,16.9,0,0,0,.09-2c0-.81,0-1.62,0-2.42,0-1.62-.09-3.23-.23-4.84a57,57,0,0,0-1.55-9.44c-.46-1.8-1-3.56-1.52-5.34a.06.06,0,0,0-.11,0,70.49,70.49,0,0,1,1.86,9.43,87.92,87.92,0,0,1,.84,9.46c0,.86.05,1.73.05,2.59,0,.37,0,.74,0,1.12a81.6,81.6,0,0,0-4.24-8.79,108.09,108.09,0,0,0-8.62-12.9,5.59,5.59,0,0,0-.21-1.41c-.12-.56-.24-1.12-.37-1.68-.25-1.15-.54-2.3-.86-3.44-.62-2.28-1.45-4.49-2.16-6.74a.06.06,0,1,0-.11,0c.66,2.23,1.1,4.54,1.61,6.81.26,1.12.5,2.25.75,3.37l.36,1.69s0,.08,0,.13c-1-1.29-2.05-2.56-3.12-3.8-4.81-5.64-10.08-10.85-15.39-16-.65-.64-1.32-1.26-2-1.88a.06.06,0,1,0-.08.08c5.07,5.29,10.06,10.65,14.8,16.25,1.12,1.33,2.23,2.68,3.31,4-.57-.39-1.15-.76-1.72-1.14-1.46-.95-2.95-1.89-4.47-2.74s-3.07-1.7-4.64-2.48-3.35-1.45-4.9-2.35c-.07,0-.13.07-.06.1a36.77,36.77,0,0,1,4.6,2.54c1.53.91,3.06,1.83,4.57,2.78s3,1.87,4.43,2.82c1.23.8,2.44,1.67,3.71,2.41a120.84,120.84,0,0,1,8.07,11.74,87.83,87.83,0,0,1,4.17,7.91l-.9-.39-2.31-1c-1.48-.66-3-1.3-4.46-1.95-2.82-1.23-5.69-2.36-8.46-3.7a37.55,37.55,0,0,1-4.52-2.52c-.07,0-.12.06-.06.11,5.16,3.56,10.95,6.07,16.67,8.6l2.48,1.09c.68.3,1.36.64,2.06.9a86.63,86.63,0,0,1,4.26,11.68,233.15,233.15,0,0,1,5.48,24.37c1.45,8.22,2.42,16.51,3.18,24.82.1,1,.19,2.08.31,3.12a.33.33,0,0,0,.65,0C425.38,405.92,424.94,401.69,424.5,397.49Z" style="fill:#263238"></path><path d="M409.18,327.93c-.46-2.57-1.15-5.07-1.84-7.58,0-.07-.13,0-.11,0,.64,2.46,1.1,5,1.56,7.46s.89,5.11,1.25,7.67a0,0,0,1,0,.07,0A69,69,0,0,0,409.18,327.93Z" style="fill:#263238"></path><path d="M398.32,334.87a44.51,44.51,0,0,0-5.48-3.08c-.91-.48-1.84-.93-2.77-1.38s-2-.85-2.91-1.33c-.07,0-.12.07-.06.1.92.47,1.8,1,2.7,1.52s1.86,1,2.8,1.53c1.84,1,3.65,2.08,5.59,2.89A.14.14,0,0,0,398.32,334.87Z" style="fill:#263238"></path><path d="M428.61,353.29s15.93-3.8,23.25-14.49c7-10.21,9.24-27.6,9.42-29.13-.29,1.4-3.58,16.6-14.42,23.69C438.55,338.79,430.53,343.25,428.61,353.29Z" style="fill:#263238;opacity:0.1"></path><path d="M443.31,325.77a20.38,20.38,0,0,0-5.87,9.67s0,.05.05,0a23.81,23.81,0,0,1,5.9-9.61A.06.06,0,1,0,443.31,325.77Z" style="fill:#263238"></path><path d="M428.61,353.29s15.93-3.8,23.25-14.49c7-10.21,9.24-27.6,9.42-29.13a.66.66,0,0,1,0-.11s-7.64,10.86-15.67,13.63S426.31,335.54,428.61,353.29Z" style="fill:#FFC727"></path><path d="M458.47,315.55a63.83,63.83,0,0,1-4.92,8.42,33.79,33.79,0,0,1-6.56,6.74c-2.16,1.72-4.45,3.28-6.64,5l0-.07c.41-.61.85-1.21,1.31-1.79.91-1.16,1.9-2.26,2.91-3.35,2-2.15,4-4.26,5.77-6.58a24,24,0,0,0,2.56-4.12c0-.06-.08-.1-.11,0-2.59,5.38-7.75,8.83-11.43,13.37a22.13,22.13,0,0,0-1.47,2,8.28,8.28,0,0,0-.92,1.62,33.63,33.63,0,0,0-5.44,5.49,24.18,24.18,0,0,1,.64-3.09,15.93,15.93,0,0,1,1.69-4c0-.06-.06-.13-.09-.06a18.5,18.5,0,0,0-1.86,4,13.92,13.92,0,0,0-.58,3.44h0a30.11,30.11,0,0,0-2.15,3.34c.06-.34.13-.68.19-1,.32-1.58.67-3.17,1.08-4.73a28.61,28.61,0,0,1,3.83-9c.05-.06-.05-.12-.09-.06a34,34,0,0,0-4.25,8.78c-.51,1.56-.91,3.15-1.27,4.76-.18.78-.33,1.57-.48,2.35-.08.41-.17.83-.24,1.25a57.53,57.53,0,0,0-3.67,10.8,159.46,159.46,0,0,0-3.4,20.14,169.91,169.91,0,0,0-1.1,21.39c0,.9.07,1.79.12,2.69,0,.23.36.26.37,0,.16-3.54.25-7.07.46-10.61s.51-7.06.89-10.58a191.22,191.22,0,0,1,3.32-20.6c1.29-5.82,3-11.69,6.15-16.79a31.65,31.65,0,0,1,5.75-6.83c2.23-2,4.68-3.77,7-5.62a38.64,38.64,0,0,0,6.45-6.2,50.69,50.69,0,0,0,5.07-8.23c.37-.72.76-1.44,1.14-2.16C458.61,315.55,458.51,315.48,458.47,315.55Z" style="fill:#263238"></path><path d="M455.72,317.88a53,53,0,0,1-3.55,6.21,0,0,0,0,0,.08.05,43.6,43.6,0,0,0,3.58-6.22C455.87,317.85,455.75,317.82,455.72,317.88Z" style="fill:#263238"></path><path d="M370.15,346.25s-.26,22.64,13.28,29.17,20.8,1.09,30,3.28h0c-.36-.54-6.92-10-17.37-12.57C385.3,363.44,373.4,355.68,370.15,346.25Z" style="fill:#FFC727"></path><path d="M370.15,346.25s-.26,22.64,13.28,29.17,20.8,1.09,30,3.28h0A51.58,51.58,0,0,0,398,374.15C389.48,373.12,373.17,367.56,370.15,346.25Z" style="opacity:0.1"></path><path d="M414.32,379.11a22.85,22.85,0,0,0-5.39-3.65c-.29-.14-.59-.25-.88-.38s-.3-.35-.46-.52c-.4-.42-.83-.82-1.27-1.21a19.34,19.34,0,0,0-2.72-2c-2.25-1.32-4.7-2.24-7-3.47-.06,0-.12.07-.05.11,1.13.58,2.23,1.23,3.33,1.88s2.17,1.22,3.21,1.89a24,24,0,0,1,2.68,2c.24.21.47.44.7.67a36.37,36.37,0,0,0-4.58-1.22c-2.48-.5-5-.85-7.46-1.38a34.6,34.6,0,0,1-3.59-1c-1.12-.9-2.24-1.8-3.31-2.78a28.6,28.6,0,0,1-3.5-3.88c0-.06-.14,0-.09.06a41.74,41.74,0,0,0,5.54,6.12c-.58-.22-1.16-.46-1.73-.72a28,28,0,0,1-11.53-9.59c0-.07-.14,0-.1.06a31.63,31.63,0,0,0,9.33,9,28.44,28.44,0,0,0,5.9,2.79,54.06,54.06,0,0,0,7.32,1.73,50.32,50.32,0,0,1,7.18,1.71,21.53,21.53,0,0,1,6,3.16A28.26,28.26,0,0,1,420,388.59a50.57,50.57,0,0,1,4.46,16.55c0,.25.41.25.39,0C424.19,395.62,421.65,385.72,414.32,379.11Z" style="fill:#263238"></path><path d="M398.61,371.72a7.77,7.77,0,0,0-2.79-2.52,10.19,10.19,0,0,1-3.31-2.74c0-.06-.14,0-.1.06a10.93,10.93,0,0,0,2.93,2.62,10.15,10.15,0,0,1,3.18,2.64A.05.05,0,0,0,398.61,371.72Z" style="fill:#263238"></path><polygon points="405.79 395.82 406.4 408.27 408.29 446.3 436.69 446.3 438.58 408.27 439.19 395.82 405.79 395.82" style="fill:#37474f"></polygon><polygon points="405.79 395.82 406.4 408.27 438.58 408.27 439.19 395.82 405.79 395.82" style="fill:#263238"></polygon><rect x="403.8" y="390.62" width="37.39" height="11.88" transform="translate(844.98 793.12) rotate(180)" style="fill:#37474f"></rect></g><g id="freepik--Character--inject-8"><path d="M220.09,462.67c-2.33.75-68.82-.09-71.33-1.73-1-.61-1.41-10.31-1.61-22v-.37c0-2.41-.08-4.9-.08-7.42,0-.35,0-.7,0-1.05l3.22-34.49,44.47.44-4.38,34.17-.05,1.35-.27,7.07,0,.73s25.3,11.71,27.87,13.8S222.42,461.93,220.09,462.67Z" style="fill:#ad6359"></path><path d="M220.09,462.67c-2.33.75-68.82-.09-71.33-1.73-1-.61-1.41-10.31-1.61-22v-.37c0-2.41-.08-4.9-.08-7.42,0-.35,0-.7,0-1.05l43.31.12-.05,1.35-.27,7.07,0,.73s25.3,11.71,27.87,13.8S222.42,461.93,220.09,462.67Z" style="fill:#ebebeb"></path><path d="M220.09,462.67c-1.2.38-19.26.35-36.92,0-3.55-.07-7.08-.15-10.44-.24-12.6-.34-23-.86-24-1.49s-1.39-10-1.59-21.54c0-.16,0-.33,0-.49s0-.25,0-.37h0l42.85.07,0,.73s25.31,11.7,27.88,13.8S222.42,461.92,220.09,462.67Z" style="fill:#37474f"></path><path d="M219.37,460.08c-11.21-.42-56.44-1-67.55-.61-.09,0-.09.07,0,.08,11.1.65,56.34.91,67.55.72C219.6,460.26,219.61,460.09,219.37,460.08Z" style="fill:#263238"></path><path d="M194.83,438.79c-4.4-.88-9.81-.28-13.22,2.82-.13.12,0,.31.19.27a61.79,61.79,0,0,1,13-2.54A.28.28,0,0,0,194.83,438.79Z" style="fill:#263238"></path><path d="M198,440.74c-4.4-.88-9.81-.27-13.22,2.83-.13.12,0,.31.19.27a61.79,61.79,0,0,1,13-2.54A.28.28,0,0,0,198,440.74Z" style="fill:#263238"></path><path d="M201.15,442.7c-4.4-.88-9.81-.27-13.22,2.83-.13.12,0,.31.19.26a62.42,62.42,0,0,1,13-2.53A.28.28,0,0,0,201.15,442.7Z" style="fill:#263238"></path><path d="M183.17,462.66c-3.55-.07-7.08-.15-10.44-.24-12.6-.34-23-.86-24-1.49s-1.39-10-1.59-21.54c0-.16,0-.33,0-.49s0-.25,0-.37h0C153.07,442.64,173.76,456.41,183.17,462.66Z" style="fill:#263238"></path><path d="M192.61,438.75H144.73S154.35,326.92,154,325c-.48-2.5-3.31-13.82-7.08-28.61-1.18-4.62-2.45-9.59-3.77-14.73-3.58-13.92-7.52-29.12-11-42.35C127,219.44,123,204,123,204h40.58s4.74,15,10.7,34.49c9.72,31.71,22.71,75.34,24,85.94C200.35,341.6,192.61,438.75,192.61,438.75Z" style="fill:#263238"></path><path d="M190.49,430.58c-7.31-.15-5.21-.21-12.52-.28-3.58,0-27.11-.23-30.45.32-.07,0-.07.14,0,.15,3.35.55,26.87.34,30.45.31,7.31-.07,5.21-.13,12.52-.29A.11.11,0,0,0,190.49,430.58Z" style="fill:#37474f"></path><path d="M163,318.13c-1.57-6.93-3.92-13.71-6-20.5q-6.24-20.72-12.54-41.4-3.15-10.34-6.32-20.68-1.6-5.2-3.23-10.43c-1.07-3.39-2.28-6.76-3.25-10.19-.39-1.4-.6-.63-.1,1.14,1,3.57,2,7.15,3,10.71q3.1,10.58,6.23,21.15,6.24,21,12.57,42.06,3.16,10.53,6.35,21.07a86.89,86.89,0,0,1,2.59,10.19,46.86,46.86,0,0,1,.42,10.91c-.45,7.32-1.3,14.64-2,21.95s-1.35,14.65-2,22q-2,21.87-4,43.74-.24,2.76-.47,5.54c0,.62.89.57,1,0,1.57-14.42,2.78-28.88,4.13-43.31s2.69-28.73,4-43.1c.33-3.61.71-7.22.72-10.85A45,45,0,0,0,163,318.13Z" style="fill:#37474f"></path><path d="M159,204c-2.82,21.79-8.18,62.66-12.09,92.31C137.73,260.43,123,204,123,204Z" style="fill:#37474f"></path><path d="M168.49,463.32c-2.33.76-68.82.16-71.33-1.47-1-.61-1.45-10.3-1.69-22v-.37c0-2.41-.1-4.9-.11-7.43,0-.34,0-.69,0-1-.15-16.93,1.06-34.49,1.06-34.49l43.47.27-1.21,34.18,0,1.35-.24,7.07,0,.73s25.35,11.62,27.93,13.7S170.82,462.57,168.49,463.32Z" style="fill:#ad6359"></path><path d="M168.49,463.32c-2.33.76-68.82.16-71.33-1.47-1-.61-1.45-10.3-1.69-22v-.37c0-2.41-.1-4.9-.11-7.43,0-.34,0-.69,0-1l43.32,0,0,1.35-.24,7.07,0,.73s25.35,11.62,27.93,13.7S170.82,462.57,168.49,463.32Z" style="fill:#ebebeb"></path><path d="M168.49,463.32c-2.33.76-68.82.16-71.33-1.47-1-.61-1.45-10.3-1.69-22v-.37l42.9-.09,0,.73s25.35,11.62,27.93,13.7S170.82,462.57,168.49,463.32Z" style="fill:#37474f"></path><path d="M167.77,460.74c-11.21-.38-56.44-.84-67.55-.36-.09,0-.09.06,0,.07,11.1.61,56.33.71,67.54.47C168,460.92,168,460.75,167.77,460.74Z" style="fill:#263238"></path><path d="M143.15,439.53c-4.41-.86-9.81-.24-13.21,2.88-.13.12.05.3.19.26a61.65,61.65,0,0,1,13-2.58A.28.28,0,0,0,143.15,439.53Z" style="fill:#263238"></path><path d="M146.31,441.48c-4.4-.87-9.8-.24-13.2,2.87-.13.12,0,.31.18.27a61.88,61.88,0,0,1,13-2.59A.28.28,0,0,0,146.31,441.48Z" style="fill:#263238"></path><path d="M149.48,443.42c-4.4-.86-9.8-.23-13.2,2.88-.14.12,0,.31.18.26a62.51,62.51,0,0,1,13-2.58A.28.28,0,0,0,149.48,443.42Z" style="fill:#263238"></path><path d="M162.27,204s-.93,19.41-5.37,34.79c-.36,1.27-.74,2.52-1.16,3.73a71.08,71.08,0,0,0-11.69,6s-.47,15.62-.93,33.05c-.52,19.47-1.05,41.2-.94,45.81.41,17.24-2.13,112-2.13,112l-47.88.21s8.64-105.87,8.57-112.18c-.09-10.15,2.31-55,4.16-87.74,1.14-20.16,2.07-35.7,2.07-35.7Z" style="fill:#263238"></path><path d="M138.41,431c-7.32-.12-5.22-.19-12.53-.23-3.58,0-27.1-.12-30.44.45a.08.08,0,0,0,0,.15c3.34.54,26.86.23,30.44.18,7.32-.1,5.22-.15,12.53-.34A.11.11,0,1,0,138.41,431Z" style="fill:#37474f"></path><path d="M111,211c-.88,26.72-1.81,53.43-3,80.13s-2.8,53.57-5,80.29c-1.25,14.94-2.43,35.94-4,50.84,0,.1.15.13.16,0,3.48-26.5,5.42-59.26,7.12-85.92S109.08,283,110,256.28c.51-15.1.9-30.21,1.35-45.31C111.34,210.75,111,210.77,111,211Z" style="fill:#37474f"></path><path d="M157.73,241.4a88.17,88.17,0,0,0-13.68,7.17.16.16,0,1,0,.14.28c4.62-2.24,9.33-4.41,13.82-6.9A.31.31,0,0,0,157.73,241.4Z" style="fill:#37474f"></path><path d="M158,224.92c-.32,1.71-.73,3.39-1.1,5.08s-.6,3.21-1,4.78a8.08,8.08,0,0,1-2.22,4c-.62.58-1.31,1.09-2,1.62-.36.29-.75.56-1.12.85.05-.22.09-.45.13-.68l.33-1.94c.24-1.43.47-2.87.69-4.31.43-2.82.83-5.67,1.42-8.47a.09.09,0,0,0-.18,0c-.7,2.77-1.48,5.51-2.09,8.3-.3,1.37-1.37,8.14-1.42,8.62s-.09,1-.11,1.48a6.44,6.44,0,0,0,0,1.52c0,.12.18.1.23,0h0a5.77,5.77,0,0,0,.43-1.47c.12-.49.23-1,.32-1.47,0-.17,0-.36.08-.54.67-.4,1.29-.94,1.91-1.39s1.35-1,2-1.49a7.74,7.74,0,0,0,2.43-3.8,27.52,27.52,0,0,0,.79-4.86c.22-1.92.37-3.86.64-5.77C158.19,224.85,158,224.81,158,224.92Z" style="fill:#37474f"></path><path d="M142,145c4.56,11.69,27.82,39.23,37.3,41.4,6.86,1.58,31-7.9,38.66-13.34,2.17-1.54-8.65-28.92-13.17-26.06-6.38,4-21.48,12.95-24.23,12.95-1.93,0-12.56-7.4-28.75-20.68C142.89,131.88,139.31,138,142,145Z" style="fill:#eb9481"></path><path d="M217,173.29c3.32-.95,21-7.14,24.78-9.64s14.12-10.49,12.5-13.58-4.84-1-4.84-1,3.84-4.06,1.92-7-6.81.47-6.81.47,3.63-4.47,1.51-7.28-6.47,1.46-6.47,1.46,3.51-3.93.79-5.51c-3.28-1.91-8.94,6.06-13.31,8.51-1,.56-21,9.84-21,9.84Z" style="fill:#eb9481"></path><path d="M239.92,136.35c-4.17,5.85-7,7.68-13.56,10.36a.11.11,0,0,0,.06.21c6.65-2,10.54-3.83,13.8-10.39C240.37,136.21,240.12,136.07,239.92,136.35Z" style="fill:#263238"></path><path d="M244.82,142.06c-4.86,5.69-7.93,7.71-14.58,11-.09,0,0,.21.08.17,6.79-2.7,10.64-4.57,14.75-10.9C245.26,142.06,245.05,141.8,244.82,142.06Z" style="fill:#263238"></path><path d="M249.05,149.24c-5.11,5.17-8.37,7.53-15.24,9.91a.13.13,0,0,0,.07.26c7.24-1.75,11.33-4.66,15.31-10C249.46,149.05,249.37,148.91,249.05,149.24Z" style="fill:#263238"></path><path d="M201.77,153.14s3.49-8.3,5.83-11.61,15.58-12.43,17.72-9.68c2.75,3.55-3.86,10.32-7.53,13.22,0,0,6.38,8.2,2.69,14.09S201.77,153.14,201.77,153.14Z" style="fill:#eb9481"></path><path d="M225.75,133.07c.18,5.05-4.88,8.54-8.23,11.62a.41.41,0,0,0,.06.68c2.44,3.61,4.83,9.43,3.17,13.73a.11.11,0,0,0,.19.09c2.41-4.37.52-10.27-2.41-14.07,3.49-3.09,8.41-6.82,7.27-12.05A0,0,0,0,0,225.75,133.07Z" style="fill:#263238"></path><path d="M203.74,143.9l12.11,34.56s-28.81,11-37.12,8.68-29.55-26.49-36.95-41.22c-4.51-9,.77-15,11.19-7.08,10.71,8.13,25.75,19.39,26.9,19.79S203.74,143.9,203.74,143.9Z" style="fill:#FFC727"></path><path d="M202,164.6c-.74-2.59-3.61-13-4.12-15.62,0,0,0-.07.07,0,1,2.42,4.12,12.6,4.86,15.19a146.15,146.15,0,0,1,4,15.67c0,.09-.13.16-.17.06C204.76,174.89,203.47,169.72,202,164.6Z" style="fill:#263238"></path><path d="M141.78,145.92c6,11.93,21.08,30.1,31,37.77l-26.22-48.25h0C140.62,133.9,138.32,139.05,141.78,145.92Z" style="opacity:0.1"></path><path d="M104.77,223.83c.18.17,63.37-2.69,64-3.46.83-1.1-11.27-71.54-19.36-84.06-2.78-4.31-15-6.12-18.47-.9C108,170.22,104.14,223.2,104.77,223.83Z" style="fill:#dbdbdb"></path><path d="M132.85,133l7.81,32.6-.31,79.22L100.48,243l4.23-28.71s7-46.22,19.16-69.64C129,134.8,132.85,133,132.85,133Z" style="fill:#FFC727"></path><polygon points="132.85 133.02 134.08 159.97 138.55 163.02 134.84 170.17 140.46 216.83 140.66 165.62 132.85 133.02" style="opacity:0.1"></polygon><path d="M148.09,134.56s4.63,26.57,4.88,27.4,12.46,79.41,12.46,79.41l9.92-3.89-7.81-32.77S155.84,140.21,148.09,134.56Z" style="fill:#FFC727"></path><polygon points="148.09 134.56 156.28 158.31 154.37 161.96 158.18 165.95 160.02 206.59 153.45 164.49 148.09 134.56" style="opacity:0.1"></polygon><path d="M122.4,143.12C111.1,158.62,87.78,195,94.83,203.3c11.58,13.59,39,24.61,47.92,27.35,3.84,1.18,17.83-26.73,14.21-29.06-4.34-2.79-32.19-14-32.31-15.3s5.22-20.61,7-35.71C134,131.82,127.11,136.65,122.4,143.12Z" style="fill:#eb9481"></path><path d="M148.16,199.18s12.18,1.18,20.11,2.33c4.42.64,11.91,2.41,14.95,4.36,4.54,2.93,21.66,18.06,18.08,22.29-3.24,3.83-16.3-11-16.3-11s14.5,13.84,9.75,17.73S177.48,220,177.48,220s14.58,14.56,9.05,17.8c-4.18,2.45-16.48-13.91-16.48-13.91s12.45,12.6,8.26,15.3c-4.63,3-16.93-11.4-16.93-11.4-11.81,5.08-19.57,3.28-24.79.3C135.38,227.37,148.16,199.18,148.16,199.18Z" style="fill:#eb9481"></path><path d="M181,212.69c11.47,9.38,14.21,17.49,14.1,17.29-2.76-4.74-8.45-11-10.07-12.69s-2.48-2.83-4.09-4.54C180.85,212.7,180.91,212.65,181,212.69Z" style="fill:#263238"></path><path d="M174,217.74a50.37,50.37,0,0,1,12.19,13c.12.2,0,.2-.15,0-2-2.24-10-10.88-12.09-13C173.9,217.75,174,217.71,174,217.74Z" style="fill:#263238"></path><path d="M167.7,221.68a37.45,37.45,0,0,1,9.14,10.37c.12.19-.05.19-.2,0-3-3.5-5.28-6.27-9-10.26C167.53,221.74,167.62,221.62,167.7,221.68Z" style="fill:#263238"></path><path d="M148.4,197.2l-16,33.42s-36.34-19.44-39.1-29,22-52.07,29.81-60.53,10.29-4.95,10,4.76-8.13,39.93-7.94,40.5S148.4,197.2,148.4,197.2Z" style="fill:#FFC727"></path><path d="M128.1,172.11q.79-3.41,1.53-6.81c.26-1.18.51-2.36.79-3.54.12-.54.25-1.09.37-1.63a8,8,0,0,0,.2-.81,4.4,4.4,0,0,1,.28-1.08.06.06,0,0,1,.12,0c-.07.63.06.38-.07.85s-.13.71-.19,1.08c-.08.55-.18,1.09-.27,1.64-.19,1.13-.4,2.25-.62,3.37l-.09.44s0-.08,0-.12c.42-1.22.86-2.42,1.3-3.63a0,0,0,0,1,.09,0c-.3,1.25-.64,2.48-1.05,3.7-.24.7-.52,1.39-.81,2.08-.3,1.49-.6,3-.93,4.48-1,4.61-2,9.24-3.41,13.76,2,.91,4,1.73,5.9,2.65s3.91,1.86,5.86,2.8,3.89,1.88,5.82,2.86c.93.46,1.84.94,2.75,1.42s1.94,1.15,2.95,1.64c.1.05,0,.2-.1.15-1-.49-2.16-.85-3.22-1.32s-1.86-.81-2.79-1.23c-2-.9-3.93-1.84-5.88-2.77s-3.91-1.85-5.86-2.81-3.83-2-5.76-3a.2.2,0,0,1-.12-.14.25.25,0,0,1-.11-.26C125.82,181.33,127,176.73,128.1,172.11Z" style="fill:#263238"></path><path d="M132.69,210.32c1.18-2.42,6-12.07,7.38-14.37,0,0,.09,0,.07,0-.89,2.45-5.36,12.12-6.54,14.54a147.61,147.61,0,0,1-7.52,14.31c0,.08-.2,0-.16-.07C127.85,219.81,130.35,215.09,132.69,210.32Z" style="fill:#263238"></path><path d="M104,212.63c2.3,1.62,4.67,3.11,7,4.62l7.17,4.42,7.19,4.4c2.39,1.47,4.77,3,7.19,4.38l-.26.08c.57-1,1.12-2.09,1.71-3.13-.43,1.11-.9,2.2-1.36,3.3l-.08.18-.18-.09c-2.55-1.22-5-2.57-7.48-4S120,224,117.65,222.5s-4.76-3-7.05-4.66A64.34,64.34,0,0,1,104,212.63Z" style="fill:#263238"></path><path d="M145.89,144.6c-3.62.61-10.13-5.75-12.26-10.32-.14-.31.53-3.47,1.17-7.35.37-2.36.74-5,.9-7.41,0-.5,1.66.52,1.66.52l3.09,1,10.22,3.2a39.06,39.06,0,0,0-2.09,9.22,6.53,6.53,0,0,0,0,1s0,.1,0,.16C148.82,136.51,149.39,144,145.89,144.6Z" style="fill:#eb9481"></path><path d="M148.62,134.43s0,.1,0,.16a9.25,9.25,0,0,1-1.57,0c-10.22-.9-10.64-14-10.64-14l4,.44,10.22,3.2a39.06,39.06,0,0,0-2.09,9.22A6.53,6.53,0,0,0,148.62,134.43Z" style="fill:#263238"></path><path d="M153.75,95.18s5.42,2.26,6.41,7.76-.27,11.28-.75,11.56S153.75,95.18,153.75,95.18Z" style="fill:#263238"></path><path d="M134.21,103.2c-1.72,5.38.93,21,4.72,24.56,5.51,5.12,14.63,5.72,19-.92,4.24-6.43.43-26.77-3.82-30C147.85,92.11,136.75,95.25,134.21,103.2Z" style="fill:#eb9481"></path><path d="M138.55,127.6h0" style="fill:none;stroke:#dc6a57;stroke-linecap:round;stroke-linejoin:round;stroke-width:0px"></path><path d="M148.17,113.54s-.07.06-.06.1c.2,1,.26,2.29-.63,2.79,0,0,0,.07,0,.06C148.63,116.14,148.54,114.5,148.17,113.54Z" style="fill:#263238"></path><path d="M147.05,112.59c-1.72.15-1.29,3.57.3,3.43S148.49,112.46,147.05,112.59Z" style="fill:#263238"></path><path d="M154.65,112.59s.09,0,.09.08c.1,1.07.39,2.27,1.4,2.5,0,0,0,.07,0,.06C154.94,115.22,154.57,113.61,154.65,112.59Z" style="fill:#263238"></path><path d="M155.46,111.36c1.69-.34,2.25,3.07.68,3.38S154,111.65,155.46,111.36Z" style="fill:#263238"></path><path d="M145.5,111.19a13.64,13.64,0,0,0,1.27-.63,2.28,2.28,0,0,0,1.17-.89.74.74,0,0,0-.22-.87,1.84,1.84,0,0,0-1.84,0,2.69,2.69,0,0,0-1.37,1.33A.78.78,0,0,0,145.5,111.19Z" style="fill:#263238"></path><path d="M156.57,109.48a13.63,13.63,0,0,1-1.41-.19,2.3,2.3,0,0,1-1.39-.46.72.72,0,0,1-.07-.89,1.83,1.83,0,0,1,1.75-.56,2.65,2.65,0,0,1,1.73.81A.78.78,0,0,1,156.57,109.48Z" style="fill:#263238"></path><path d="M148.44,123.15c.28.22.58.53,1,.51a2.72,2.72,0,0,0,1.11-.41s.07,0,0,0a1.46,1.46,0,0,1-1.28.75,1.14,1.14,0,0,1-.95-.84C148.32,123.15,148.4,123.12,148.44,123.15Z" style="fill:#263238"></path><path d="M149.16,119.84a3.63,3.63,0,0,0,2.61,1.3,4.15,4.15,0,0,0,1.31-.1.94.94,0,0,0,.24-.06l.23-.06a.26.26,0,0,0,.18-.27h0a.43.43,0,0,0,0-.11h0l0-.09c-.08-.82-.31-2-.31-2,.32.11,1.92.6,1.85.18a54.51,54.51,0,0,0-2.76-10.76c0-.11-.22-.06-.19,0,.49,3.4,1.57,6.68,2.12,10.09a6.23,6.23,0,0,0-1.77-.31c-.11,0,.5,2.37.5,2.75v0a5,5,0,0,1-3.88-.7C149.16,119.68,149.09,119.76,149.16,119.84Z" style="fill:#263238"></path><path d="M152.54,120.69a4.25,4.25,0,0,1-1.55,1.54,1.9,1.9,0,0,1-1.16.22c-.87-.12-1-.89-.92-1.58a4.82,4.82,0,0,1,.25-1.06A5.65,5.65,0,0,0,152.54,120.69Z" style="fill:#263238"></path><path d="M151,122.23a1.9,1.9,0,0,1-1.16.22c-.87-.12-1-.89-.92-1.58A2,2,0,0,1,151,122.23Z" style="fill:#ff98b9"></path><path d="M135.09,118.25c1.91.16,2.8-5.67,2.94-7.87.11-1.94-.55-7.86-.55-8.27s8.93,3.43,13.16,1.13,6.37-7,6-8.91-7-5.49-11.9-4.69S134.62,98,134.62,98a23.54,23.54,0,0,0,1.53-3.35c-.12-.2-3,1.73-3.08,4.09,0,0,0-2.94-.23-2.94s-2.17,2.93-1.22,4.63c0,0-2.29,3-2,5.78S132.84,118.06,135.09,118.25Z" style="fill:#263238"></path><path d="M153.64,101.6a15.45,15.45,0,0,1-3.93,2.46,10.49,10.49,0,0,1-5,.27,15.82,15.82,0,0,1-4.82-1.6c-1.33-.69-2.58-1.59-4-2.16-.35-.14-.6.37-.36.61a16.61,16.61,0,0,0,9.5,4.25,9.54,9.54,0,0,0,8.64-3.79S153.66,101.59,153.64,101.6Z" style="fill:#263238"></path><path d="M147.32,119.13a4.45,4.45,0,1,1,4.24-5.62h0a4.46,4.46,0,0,1-3.14,5.46A4.72,4.72,0,0,1,147.32,119.13Zm-.12-8.31a3.51,3.51,0,0,0-.95.13,3.87,3.87,0,1,0,.95-.13Z" style="fill:#455a64"></path><path d="M157.45,117.73c-1.71,0-3.28-1.69-3.58-4a5.29,5.29,0,0,1,.52-3.21,2.77,2.77,0,0,1,4.71-.62,5.3,5.3,0,0,1,1.34,3c.32,2.44-.89,4.61-2.7,4.85A1.46,1.46,0,0,1,157.45,117.73Zm-.58-8.27a.82.82,0,0,0-.22,0,2.38,2.38,0,0,0-1.74,1.33,4.73,4.73,0,0,0-.45,2.85c.28,2.1,1.71,3.66,3.2,3.46s2.47-2.07,2.19-4.18a4.77,4.77,0,0,0-1.18-2.63A2.48,2.48,0,0,0,156.87,109.46Z" style="fill:#455a64"></path><path d="M151.48,114l-.44-.4c.59-.65,2-1.61,3.27-.6l-.38.46C152.83,112.59,151.53,114,151.48,114Z" style="fill:#455a64"></path><path d="M132,117.78l-.56-.2c.09-.26.95-2.57,2.24-3s9.22-.67,9.56-.68l0,.59c-2.3.09-8.48.38-9.41.66S132.18,117.15,132,117.78Z" style="fill:#455a64"></path><path d="M137.38,116s-3.57-5-5.85-3.75.42,8.58,3.12,9.56a2.73,2.73,0,0,0,3.65-1.49Z" style="fill:#eb9481"></path><path d="M132.36,114.29s-.05,0,0,.07c1.89.75,2.89,2.49,3.6,4.3a1.51,1.51,0,0,0-2.26-.4.06.06,0,0,0,.05.1,1.67,1.67,0,0,1,1.85.58,7.77,7.77,0,0,1,.9,1.49c.09.17.39.08.33-.12l0,0C136.83,117.86,134.94,114.51,132.36,114.29Z" style="fill:#263238"></path><path d="M148.69,134.33,145,143.28l-11-11.5-3.2,3.61s10.71,18.19,10.79,17.37l3.79-7.7,5.29,5.45L150.33,137Z" style="fill:#fff"></path><path d="M150.85,143.81c-.12-2.23-.18-4.48-.41-6.71,0-.07-.13-.11-.15,0-.47,2.15,0,10.69,0,12.73l0,0c-.22-.24-4.9-4.8-5-4.73-.81,1.22-3.6,6.83-3.79,7.34-1.69-2.89-8.19-13.39-10.21-16.13a.08.08,0,1,0-.13.08c1.49,3,10.09,17.19,10.23,17.15a87.87,87.87,0,0,0,4-8.14c.79,1,5.51,6.13,5.53,5.8A72.08,72.08,0,0,0,150.85,143.81Z" style="fill:#263238"></path></g><g id="freepik--Lectern--inject-8"><rect x="43.14" y="228.27" width="146.59" height="14.08" style="fill:#455a64"></rect><polygon points="53.99 242.35 178.87 242.35 169.87 468.76 63.99 468.76 53.99 242.35" style="fill:#455a64"></polygon><polygon points="71.15 271.15 161.71 271.15 155 439.96 78.61 439.96 71.15 271.15" style="fill:#263238"></polygon><polygon points="71.15 271.15 157.3 271.15 150.88 436.29 78.28 436.29 71.15 271.15" style="fill:#37474f"></polygon><polygon points="53.99 242.35 178.87 242.35 178.38 254.64 54.26 248.5 53.99 242.35" style="fill:#37474f"></polygon><rect x="59.46" y="225.01" width="18.5" height="3.26" transform="translate(137.43 453.28) rotate(180)" style="fill:#263238"></rect><polygon points="69.21 225.98 73.26 194.38 83.83 181.37 83.05 180.74 72.31 193.97 68.22 225.85 69.21 225.98" style="fill:#263238"></polygon><path d="M86.1,178.75c-1.7-1.63-5.57,2.12-3.73,3.89S87.62,180.21,86.1,178.75Z" style="fill:#263238"></path></g><g id="freepik--speech-bubble--inject-8"><path d="M169,96.2a12.1,12.1,0,0,1-2.07-6.67c0-8.45,9.29-15.31,20.73-15.31s20.72,6.86,20.72,15.31-9.28,15.31-20.72,15.31a24.89,24.89,0,0,1-14.3-4.24l-7.13,1.82Z" style="fill:#fffefd"></path><path d="M169,96.2a11.8,11.8,0,0,1-.56-12.84,16.33,16.33,0,0,1,4.57-5,21.88,21.88,0,0,1,6-3.1,28.07,28.07,0,0,1,6.66-1.37,28.67,28.67,0,0,1,6.8.34,22.52,22.52,0,0,1,12.15,5.9A14.45,14.45,0,0,1,208.27,86a11.88,11.88,0,0,1,.06,6.91,14.37,14.37,0,0,1-3.56,5.89,20.19,20.19,0,0,1-5.59,3.95,26.61,26.61,0,0,1-13.29,2.43,24.76,24.76,0,0,1-12.71-4.35l.19,0-7.16,1.71-.25.06.11-.22Zm0,0-2.66,6.26-.14-.16,7.11-1.92.1,0,.09.06a24.29,24.29,0,0,0,12.49,4,26.94,26.94,0,0,0,6.59-.47,23.53,23.53,0,0,0,6.26-2,19.19,19.19,0,0,0,5.31-3.81,13.28,13.28,0,0,0,3.3-5.51,10.87,10.87,0,0,0-.09-6.34,13.32,13.32,0,0,0-3.38-5.46,21.55,21.55,0,0,0-11.62-5.72,27.65,27.65,0,0,0-13.09.83,18.79,18.79,0,0,0-10.45,7.67A11.79,11.79,0,0,0,167,89.89,12.18,12.18,0,0,0,169,96.2Z" style="fill:#263238"></path><path d="M195.06,89.53a2.15,2.15,0,1,0,2.15-2.15A2.15,2.15,0,0,0,195.06,89.53Z" style="fill:#263238"></path><path d="M185.46,89.53a2.15,2.15,0,1,0,2.15-2.15A2.15,2.15,0,0,0,185.46,89.53Z" style="fill:#263238"></path><path d="M175.86,89.53A2.15,2.15,0,1,0,178,87.38,2.15,2.15,0,0,0,175.86,89.53Z" style="fill:#263238"></path></g></svg>