<svg xmlns="http://www.w3.org/2000/svg" viewBox="0 0 500 500"><g id="freepik--City--inject-8"><rect x="229.36" y="149" width="10.29" height="12.15" style="fill:#dbdbdb"></rect><rect x="239.65" y="149" width="6.52" height="12.6" style="fill:#c7c7c7"></rect><rect x="240.13" y="154.37" width="6.47" height="7.23" style="fill:#dbdbdb"></rect><rect x="246.6" y="154.37" width="4.04" height="7.23" style="fill:#c7c7c7"></rect><rect x="225.41" y="160.37" width="16.64" height="60.47" style="fill:#ebebeb"></rect><rect x="227.31" y="162.96" width="5.23" height="2.14" style="fill:#fff"></rect><rect x="234" y="162.96" width="5.23" height="2.14" style="fill:#fff"></rect><rect x="227.31" y="166.59" width="5.23" height="2.14" style="fill:#fff"></rect><rect x="234" y="166.59" width="5.23" height="2.14" style="fill:#fff"></rect><rect x="227.31" y="170.22" width="5.23" height="2.14" style="fill:#fff"></rect><rect x="234" y="170.22" width="5.23" height="2.14" style="fill:#fff"></rect><rect x="227.31" y="173.85" width="5.23" height="2.14" style="fill:#fff"></rect><rect x="234" y="173.85" width="5.23" height="2.14" style="fill:#fff"></rect><rect x="227.31" y="177.48" width="5.23" height="2.14" style="fill:#fff"></rect><rect x="234" y="177.48" width="5.23" height="2.14" style="fill:#fff"></rect><rect x="227.31" y="181.11" width="5.23" height="2.14" style="fill:#fff"></rect><rect x="234" y="181.11" width="5.23" height="2.14" style="fill:#fff"></rect><rect x="227.31" y="184.74" width="5.23" height="2.14" style="fill:#fff"></rect><rect x="234" y="184.74" width="5.23" height="2.14" style="fill:#fff"></rect><rect x="227.31" y="188.37" width="5.23" height="2.14" style="fill:#fff"></rect><rect x="234" y="188.37" width="5.23" height="2.14" style="fill:#fff"></rect><rect x="227.31" y="192" width="5.23" height="2.14" style="fill:#fff"></rect><rect x="234" y="192" width="5.23" height="2.14" style="fill:#fff"></rect><rect x="227.31" y="195.63" width="5.23" height="2.14" style="fill:#fff"></rect><rect x="234" y="195.63" width="5.23" height="2.14" style="fill:#fff"></rect><rect x="227.31" y="199.26" width="5.23" height="2.14" style="fill:#fff"></rect><rect x="234" y="199.26" width="5.23" height="2.14" style="fill:#fff"></rect><rect x="227.31" y="202.89" width="5.23" height="2.14" style="fill:#fff"></rect><rect x="234" y="202.89" width="5.23" height="2.14" style="fill:#fff"></rect><rect x="227.31" y="206.52" width="5.23" height="2.14" style="fill:#fff"></rect><rect x="234" y="206.52" width="5.23" height="2.14" style="fill:#fff"></rect><rect x="227.31" y="210.15" width="5.23" height="2.14" style="fill:#fff"></rect><rect x="234" y="210.15" width="5.23" height="2.14" style="fill:#fff"></rect><rect x="242.05" y="160.37" width="13.48" height="60.47" style="fill:#c7c7c7"></rect><rect x="249.88" y="210.15" width="4.3" height="2.14" transform="translate(504.06 422.43) rotate(180)" style="fill:#ebebeb"></rect><rect x="244.39" y="210.15" width="4.3" height="2.14" transform="translate(493.07 422.43) rotate(180)" style="fill:#ebebeb"></rect><rect x="249.88" y="206.52" width="4.3" height="2.14" transform="translate(504.06 415.17) rotate(180)" style="fill:#ebebeb"></rect><rect x="244.39" y="206.52" width="4.3" height="2.14" transform="translate(493.07 415.17) rotate(180)" style="fill:#ebebeb"></rect><rect x="249.88" y="202.89" width="4.3" height="2.14" transform="translate(504.06 407.91) rotate(180)" style="fill:#ebebeb"></rect><rect x="244.39" y="202.89" width="4.3" height="2.14" transform="translate(493.07 407.91) rotate(180)" style="fill:#ebebeb"></rect><rect x="249.88" y="199.26" width="4.3" height="2.14" transform="translate(504.06 400.65) rotate(180)" style="fill:#ebebeb"></rect><rect x="244.39" y="199.26" width="4.3" height="2.14" transform="translate(493.07 400.65) rotate(180)" style="fill:#ebebeb"></rect><rect x="249.88" y="195.63" width="4.3" height="2.14" transform="translate(504.06 393.4) rotate(180)" style="fill:#ebebeb"></rect><rect x="244.39" y="195.63" width="4.3" height="2.14" transform="translate(493.07 393.4) rotate(180)" style="fill:#ebebeb"></rect><rect x="249.88" y="192" width="4.3" height="2.14" transform="translate(504.06 386.14) rotate(180)" style="fill:#ebebeb"></rect><rect x="244.39" y="192" width="4.3" height="2.14" transform="translate(493.07 386.14) rotate(180)" style="fill:#ebebeb"></rect><rect x="249.88" y="188.37" width="4.3" height="2.14" transform="translate(504.06 378.88) rotate(180)" style="fill:#ebebeb"></rect><rect x="244.39" y="188.37" width="4.3" height="2.14" transform="translate(493.07 378.88) rotate(180)" style="fill:#ebebeb"></rect><rect x="249.88" y="184.74" width="4.3" height="2.14" transform="translate(504.06 371.62) rotate(180)" style="fill:#ebebeb"></rect><rect x="244.39" y="184.74" width="4.3" height="2.14" transform="translate(493.07 371.62) rotate(180)" style="fill:#ebebeb"></rect><rect x="249.88" y="181.11" width="4.3" height="2.14" transform="translate(504.06 364.36) rotate(180)" style="fill:#ebebeb"></rect><rect x="244.39" y="181.11" width="4.3" height="2.14" transform="translate(493.07 364.36) rotate(180)" style="fill:#ebebeb"></rect><rect x="249.88" y="177.48" width="4.3" height="2.14" transform="translate(504.06 357.1) rotate(180)" style="fill:#ebebeb"></rect><rect x="244.39" y="177.48" width="4.3" height="2.14" transform="translate(493.07 357.1) rotate(180)" style="fill:#ebebeb"></rect><rect x="249.88" y="173.85" width="4.3" height="2.14" transform="translate(504.06 349.84) rotate(180)" style="fill:#ebebeb"></rect><rect x="244.39" y="173.85" width="4.3" height="2.14" transform="translate(493.07 349.84) rotate(180)" style="fill:#ebebeb"></rect><rect x="249.88" y="170.22" width="4.3" height="2.14" transform="translate(504.06 342.58) rotate(180)" style="fill:#ebebeb"></rect><rect x="244.39" y="170.22" width="4.3" height="2.14" transform="translate(493.07 342.58) rotate(180)" style="fill:#ebebeb"></rect><rect x="249.88" y="166.59" width="4.3" height="2.14" transform="translate(504.06 335.33) rotate(180)" style="fill:#ebebeb"></rect><rect x="244.39" y="166.59" width="4.3" height="2.14" transform="translate(493.07 335.33) rotate(180)" style="fill:#ebebeb"></rect><rect x="249.88" y="162.96" width="4.3" height="2.14" transform="translate(504.06 328.07) rotate(180)" style="fill:#ebebeb"></rect><rect x="244.39" y="162.96" width="4.3" height="2.14" transform="translate(493.07 328.07) rotate(180)" style="fill:#ebebeb"></rect><rect x="345.61" y="135.1" width="16.35" height="85.73" style="fill:#dbdbdb"></rect><rect x="348.15" y="137.89" width="3.18" height="3.27" style="fill:#ebebeb"></rect><rect x="352.21" y="137.89" width="3.18" height="3.27" style="fill:#ebebeb"></rect><rect x="348.15" y="143.44" width="3.18" height="3.27" style="fill:#ebebeb"></rect><rect x="352.21" y="143.44" width="3.18" height="3.27" style="fill:#ebebeb"></rect><rect x="348.15" y="149" width="3.18" height="3.27" style="fill:#ebebeb"></rect><rect x="352.21" y="149" width="3.18" height="3.27" style="fill:#ebebeb"></rect><rect x="348.15" y="154.56" width="3.18" height="3.27" style="fill:#ebebeb"></rect><rect x="352.21" y="154.56" width="3.18" height="3.27" style="fill:#ebebeb"></rect><rect x="348.15" y="160.12" width="3.18" height="3.27" style="fill:#ebebeb"></rect><rect x="352.21" y="160.12" width="3.18" height="3.27" style="fill:#ebebeb"></rect><rect x="348.15" y="165.67" width="3.18" height="3.27" style="fill:#ebebeb"></rect><rect x="352.21" y="165.67" width="3.18" height="3.27" style="fill:#ebebeb"></rect><rect x="348.15" y="171.23" width="3.18" height="3.27" style="fill:#ebebeb"></rect><rect x="352.21" y="171.23" width="3.18" height="3.27" style="fill:#ebebeb"></rect><rect x="348.15" y="176.79" width="3.18" height="3.27" style="fill:#ebebeb"></rect><rect x="352.21" y="176.79" width="3.18" height="3.27" style="fill:#ebebeb"></rect><rect x="348.15" y="182.35" width="3.18" height="3.27" style="fill:#ebebeb"></rect><rect x="352.21" y="182.35" width="3.18" height="3.27" style="fill:#ebebeb"></rect><rect x="348.15" y="187.9" width="3.18" height="3.27" style="fill:#ebebeb"></rect><rect x="352.21" y="187.9" width="3.18" height="3.27" style="fill:#ebebeb"></rect><rect x="348.15" y="193.46" width="3.18" height="3.27" style="fill:#ebebeb"></rect><rect x="352.21" y="193.46" width="3.18" height="3.27" style="fill:#ebebeb"></rect><rect x="348.15" y="199.02" width="3.18" height="3.27" style="fill:#ebebeb"></rect><rect x="352.21" y="199.02" width="3.18" height="3.27" style="fill:#ebebeb"></rect><rect x="348.15" y="204.58" width="3.18" height="3.27" style="fill:#ebebeb"></rect><rect x="352.21" y="204.58" width="3.18" height="3.27" style="fill:#ebebeb"></rect><rect x="348.15" y="210.13" width="3.18" height="3.27" style="fill:#ebebeb"></rect><rect x="356.24" y="210.13" width="3.18" height="3.27" transform="translate(715.67 423.54) rotate(180)" style="fill:#ebebeb"></rect><rect x="356.24" y="204.58" width="3.18" height="3.27" transform="translate(715.67 412.43) rotate(180)" style="fill:#ebebeb"></rect><rect x="356.24" y="199.02" width="3.18" height="3.27" transform="translate(715.67 401.31) rotate(180)" style="fill:#ebebeb"></rect><rect x="356.24" y="193.46" width="3.18" height="3.27" transform="translate(715.67 390.2) rotate(180)" style="fill:#ebebeb"></rect><rect x="356.24" y="187.9" width="3.18" height="3.27" transform="translate(715.67 379.08) rotate(180)" style="fill:#ebebeb"></rect><rect x="356.24" y="182.35" width="3.18" height="3.27" transform="translate(715.67 367.97) rotate(180)" style="fill:#ebebeb"></rect><rect x="356.24" y="176.79" width="3.18" height="3.27" transform="translate(715.67 356.85) rotate(180)" style="fill:#ebebeb"></rect><rect x="356.24" y="171.23" width="3.18" height="3.27" transform="translate(715.67 345.74) rotate(180)" style="fill:#ebebeb"></rect><rect x="356.24" y="165.67" width="3.18" height="3.27" transform="translate(715.67 334.62) rotate(180)" style="fill:#ebebeb"></rect><rect x="356.24" y="160.12" width="3.18" height="3.27" transform="translate(715.67 323.51) rotate(180)" style="fill:#ebebeb"></rect><rect x="356.24" y="154.56" width="3.18" height="3.27" transform="translate(715.67 312.39) rotate(180)" style="fill:#ebebeb"></rect><rect x="356.24" y="149" width="3.18" height="3.27" transform="translate(715.67 301.28) rotate(180)" style="fill:#ebebeb"></rect><rect x="356.24" y="143.44" width="3.18" height="3.27" transform="translate(715.67 290.16) rotate(180)" style="fill:#ebebeb"></rect><rect x="356.24" y="137.89" width="3.18" height="3.27" transform="translate(715.67 279.04) rotate(180)" style="fill:#ebebeb"></rect><rect x="352.21" y="210.13" width="3.18" height="3.27" style="fill:#ebebeb"></rect><rect x="361.96" y="135.1" width="12.89" height="85.73" style="fill:#a6a6a6"></rect><rect x="370.9" y="210.13" width="2.63" height="3.27" transform="translate(744.43 423.54) rotate(180)" style="fill:#c7c7c7"></rect><rect x="367.54" y="210.13" width="2.63" height="3.27" transform="translate(737.71 423.54) rotate(180)" style="fill:#c7c7c7"></rect><rect x="370.9" y="204.58" width="2.63" height="3.27" transform="translate(744.43 412.43) rotate(180)" style="fill:#c7c7c7"></rect><rect x="367.54" y="204.58" width="2.63" height="3.27" transform="translate(737.71 412.43) rotate(180)" style="fill:#c7c7c7"></rect><rect x="370.9" y="199.02" width="2.63" height="3.27" transform="translate(744.43 401.31) rotate(180)" style="fill:#c7c7c7"></rect><rect x="367.54" y="199.02" width="2.63" height="3.27" transform="translate(737.71 401.31) rotate(180)" style="fill:#c7c7c7"></rect><rect x="370.9" y="193.46" width="2.63" height="3.27" transform="translate(744.43 390.2) rotate(180)" style="fill:#c7c7c7"></rect><rect x="367.54" y="193.46" width="2.63" height="3.27" transform="translate(737.71 390.2) rotate(180)" style="fill:#c7c7c7"></rect><rect x="370.9" y="187.9" width="2.63" height="3.27" transform="translate(744.43 379.08) rotate(180)" style="fill:#c7c7c7"></rect><rect x="367.54" y="187.9" width="2.63" height="3.27" transform="translate(737.71 379.08) rotate(180)" style="fill:#c7c7c7"></rect><rect x="370.9" y="182.35" width="2.63" height="3.27" transform="translate(744.43 367.97) rotate(180)" style="fill:#c7c7c7"></rect><rect x="367.54" y="182.35" width="2.63" height="3.27" transform="translate(737.71 367.97) rotate(180)" style="fill:#c7c7c7"></rect><rect x="370.9" y="176.79" width="2.63" height="3.27" transform="translate(744.43 356.85) rotate(180)" style="fill:#c7c7c7"></rect><rect x="367.54" y="176.79" width="2.63" height="3.27" transform="translate(737.71 356.85) rotate(180)" style="fill:#c7c7c7"></rect><rect x="370.9" y="171.23" width="2.63" height="3.27" transform="translate(744.43 345.74) rotate(180)" style="fill:#c7c7c7"></rect><rect x="367.54" y="171.23" width="2.63" height="3.27" transform="translate(737.71 345.74) rotate(180)" style="fill:#c7c7c7"></rect><rect x="370.9" y="165.67" width="2.63" height="3.27" transform="translate(744.43 334.62) rotate(180)" style="fill:#c7c7c7"></rect><rect x="367.54" y="165.67" width="2.63" height="3.27" transform="translate(737.71 334.62) rotate(180)" style="fill:#c7c7c7"></rect><rect x="370.9" y="160.12" width="2.63" height="3.27" transform="translate(744.43 323.51) rotate(180)" style="fill:#c7c7c7"></rect><rect x="367.54" y="160.12" width="2.63" height="3.27" transform="translate(737.71 323.51) rotate(180)" style="fill:#c7c7c7"></rect><rect x="370.9" y="154.56" width="2.63" height="3.27" transform="translate(744.43 312.39) rotate(180)" style="fill:#c7c7c7"></rect><rect x="367.54" y="154.56" width="2.63" height="3.27" transform="translate(737.71 312.39) rotate(180)" style="fill:#c7c7c7"></rect><rect x="370.9" y="149" width="2.63" height="3.27" transform="translate(744.43 301.28) rotate(180)" style="fill:#c7c7c7"></rect><rect x="367.54" y="149" width="2.63" height="3.27" transform="translate(737.71 301.28) rotate(180)" style="fill:#c7c7c7"></rect><rect x="370.9" y="143.44" width="2.63" height="3.27" transform="translate(744.43 290.16) rotate(180)" style="fill:#c7c7c7"></rect><rect x="367.54" y="143.44" width="2.63" height="3.27" transform="translate(737.71 290.16) rotate(180)" style="fill:#c7c7c7"></rect><rect x="370.9" y="137.89" width="2.63" height="3.27" transform="translate(744.43 279.04) rotate(180)" style="fill:#c7c7c7"></rect><rect x="364.21" y="137.89" width="2.63" height="3.27" style="fill:#c7c7c7"></rect><rect x="364.21" y="143.44" width="2.63" height="3.27" style="fill:#c7c7c7"></rect><rect x="364.21" y="149" width="2.63" height="3.27" style="fill:#c7c7c7"></rect><rect x="364.21" y="154.56" width="2.63" height="3.27" style="fill:#c7c7c7"></rect><rect x="364.21" y="160.12" width="2.63" height="3.27" style="fill:#c7c7c7"></rect><rect x="364.21" y="165.67" width="2.63" height="3.27" style="fill:#c7c7c7"></rect><rect x="364.21" y="171.23" width="2.63" height="3.27" style="fill:#c7c7c7"></rect><rect x="364.21" y="176.79" width="2.63" height="3.27" style="fill:#c7c7c7"></rect><rect x="364.21" y="182.35" width="2.63" height="3.27" style="fill:#c7c7c7"></rect><rect x="364.21" y="187.9" width="2.63" height="3.27" style="fill:#c7c7c7"></rect><rect x="364.21" y="193.46" width="2.63" height="3.27" style="fill:#c7c7c7"></rect><rect x="364.21" y="199.02" width="2.63" height="3.27" style="fill:#c7c7c7"></rect><rect x="364.21" y="204.58" width="2.63" height="3.27" style="fill:#c7c7c7"></rect><rect x="364.21" y="210.13" width="2.63" height="3.27" style="fill:#c7c7c7"></rect><rect x="367.54" y="137.89" width="2.63" height="3.27" transform="translate(737.71 279.04) rotate(180)" style="fill:#c7c7c7"></rect><rect x="250.17" y="130.48" width="19.35" height="90.35" style="fill:#ebebeb"></rect><rect x="249.7" y="128.5" width="19.81" height="1.98" style="fill:#c7c7c7"></rect><rect x="251.92" y="133.39" width="1.96" height="87.44" style="fill:#fff"></rect><rect x="255.39" y="133.39" width="1.96" height="87.44" style="fill:#fff"></rect><rect x="258.86" y="133.39" width="1.96" height="87.44" style="fill:#fff"></rect><rect x="262.33" y="133.39" width="1.96" height="87.44" style="fill:#fff"></rect><rect x="265.8" y="133.39" width="1.96" height="87.44" style="fill:#fff"></rect><rect x="251.92" y="135.89" width="1.96" height="3.9" style="fill:#ebebeb"></rect><rect x="255.39" y="135.89" width="1.96" height="3.9" style="fill:#ebebeb"></rect><rect x="258.86" y="135.89" width="1.96" height="3.9" style="fill:#ebebeb"></rect><rect x="262.33" y="135.89" width="1.96" height="3.9" style="fill:#ebebeb"></rect><rect x="265.8" y="135.89" width="1.96" height="3.9" style="fill:#ebebeb"></rect><rect x="251.92" y="142.24" width="1.96" height="3.91" style="fill:#ebebeb"></rect><rect x="255.39" y="142.24" width="1.96" height="3.91" style="fill:#ebebeb"></rect><rect x="258.86" y="142.24" width="1.96" height="3.91" style="fill:#ebebeb"></rect><rect x="262.33" y="142.24" width="1.96" height="3.91" style="fill:#ebebeb"></rect><rect x="265.8" y="142.24" width="1.96" height="3.91" style="fill:#ebebeb"></rect><rect x="251.92" y="148.59" width="1.96" height="3.9" style="fill:#ebebeb"></rect><rect x="255.39" y="148.59" width="1.96" height="3.9" style="fill:#ebebeb"></rect><rect x="258.86" y="148.59" width="1.96" height="3.9" style="fill:#ebebeb"></rect><rect x="262.33" y="148.59" width="1.96" height="3.9" style="fill:#ebebeb"></rect><rect x="265.8" y="148.59" width="1.96" height="3.9" style="fill:#ebebeb"></rect><rect x="251.92" y="154.93" width="1.96" height="3.91" style="fill:#ebebeb"></rect><rect x="255.39" y="154.93" width="1.96" height="3.91" style="fill:#ebebeb"></rect><rect x="258.86" y="154.93" width="1.96" height="3.91" style="fill:#ebebeb"></rect><rect x="262.33" y="154.93" width="1.96" height="3.91" style="fill:#ebebeb"></rect><rect x="265.8" y="154.93" width="1.96" height="3.91" style="fill:#ebebeb"></rect><rect x="251.92" y="161.28" width="1.96" height="3.9" style="fill:#ebebeb"></rect><rect x="255.39" y="161.28" width="1.96" height="3.9" style="fill:#ebebeb"></rect><rect x="258.86" y="161.28" width="1.96" height="3.9" style="fill:#ebebeb"></rect><rect x="262.33" y="161.28" width="1.96" height="3.9" style="fill:#ebebeb"></rect><rect x="265.8" y="161.28" width="1.96" height="3.9" style="fill:#ebebeb"></rect><rect x="251.92" y="167.63" width="1.96" height="3.91" style="fill:#ebebeb"></rect><rect x="255.39" y="167.63" width="1.96" height="3.91" style="fill:#ebebeb"></rect><rect x="258.86" y="167.63" width="1.96" height="3.91" style="fill:#ebebeb"></rect><rect x="262.33" y="167.63" width="1.96" height="3.91" style="fill:#ebebeb"></rect><rect x="265.8" y="167.63" width="1.96" height="3.91" style="fill:#ebebeb"></rect><rect x="251.92" y="173.97" width="1.96" height="3.9" style="fill:#ebebeb"></rect><rect x="255.39" y="173.97" width="1.96" height="3.9" style="fill:#ebebeb"></rect><rect x="258.86" y="173.97" width="1.96" height="3.9" style="fill:#ebebeb"></rect><rect x="262.33" y="173.97" width="1.96" height="3.9" style="fill:#ebebeb"></rect><rect x="265.8" y="173.97" width="1.96" height="3.9" style="fill:#ebebeb"></rect><rect x="251.92" y="180.32" width="1.96" height="3.9" style="fill:#ebebeb"></rect><rect x="255.39" y="180.32" width="1.96" height="3.9" style="fill:#ebebeb"></rect><rect x="258.86" y="180.32" width="1.96" height="3.9" style="fill:#ebebeb"></rect><rect x="262.33" y="180.32" width="1.96" height="3.9" style="fill:#ebebeb"></rect><rect x="265.8" y="180.32" width="1.96" height="3.9" style="fill:#ebebeb"></rect><rect x="251.92" y="186.67" width="1.96" height="3.91" style="fill:#ebebeb"></rect><rect x="255.39" y="186.67" width="1.96" height="3.91" style="fill:#ebebeb"></rect><rect x="258.86" y="186.67" width="1.96" height="3.91" style="fill:#ebebeb"></rect><rect x="262.33" y="186.67" width="1.96" height="3.91" style="fill:#ebebeb"></rect><rect x="265.8" y="186.67" width="1.96" height="3.91" style="fill:#ebebeb"></rect><rect x="251.92" y="193.01" width="1.96" height="3.9" style="fill:#ebebeb"></rect><rect x="255.39" y="193.01" width="1.96" height="3.9" style="fill:#ebebeb"></rect><rect x="258.86" y="193.01" width="1.96" height="3.9" style="fill:#ebebeb"></rect><rect x="262.33" y="193.01" width="1.96" height="3.9" style="fill:#ebebeb"></rect><rect x="265.8" y="193.01" width="1.96" height="3.9" style="fill:#ebebeb"></rect><rect x="251.92" y="199.36" width="1.96" height="3.9" style="fill:#ebebeb"></rect><rect x="255.39" y="199.36" width="1.96" height="3.9" style="fill:#ebebeb"></rect><rect x="258.86" y="199.36" width="1.96" height="3.9" style="fill:#ebebeb"></rect><rect x="262.33" y="199.36" width="1.96" height="3.9" style="fill:#ebebeb"></rect><rect x="265.8" y="199.36" width="1.96" height="3.9" style="fill:#ebebeb"></rect><rect x="251.92" y="205.7" width="1.96" height="3.9" style="fill:#ebebeb"></rect><rect x="255.39" y="205.7" width="1.96" height="3.9" style="fill:#ebebeb"></rect><rect x="258.86" y="205.7" width="1.96" height="3.9" style="fill:#ebebeb"></rect><rect x="262.33" y="205.7" width="1.96" height="3.9" style="fill:#ebebeb"></rect><rect x="265.8" y="205.7" width="1.96" height="3.9" style="fill:#ebebeb"></rect><rect x="251.92" y="212.05" width="1.96" height="3.9" style="fill:#ebebeb"></rect><rect x="255.39" y="212.05" width="1.96" height="3.9" style="fill:#ebebeb"></rect><rect x="258.86" y="212.05" width="1.96" height="3.9" style="fill:#ebebeb"></rect><rect x="262.33" y="212.05" width="1.96" height="3.9" style="fill:#ebebeb"></rect><rect x="265.8" y="212.05" width="1.96" height="3.9" style="fill:#ebebeb"></rect><rect x="251.92" y="218.4" width="1.96" height="2.43" style="fill:#ebebeb"></rect><rect x="255.39" y="218.4" width="1.96" height="2.43" style="fill:#ebebeb"></rect><rect x="258.86" y="218.4" width="1.96" height="2.43" style="fill:#ebebeb"></rect><rect x="262.33" y="218.4" width="1.96" height="2.43" style="fill:#ebebeb"></rect><rect x="265.8" y="218.4" width="1.96" height="2.43" style="fill:#ebebeb"></rect><rect x="269.51" y="130.48" width="12.42" height="90.35" style="fill:#dbdbdb"></rect><rect x="269.51" y="128.5" width="12.96" height="1.98" style="fill:#c7c7c7"></rect><rect x="271.26" y="133.39" width="1.96" height="87.44" style="fill:#c7c7c7"></rect><rect x="274.74" y="133.39" width="1.96" height="87.44" style="fill:#c7c7c7"></rect><rect x="278.21" y="133.39" width="1.96" height="87.44" style="fill:#c7c7c7"></rect><rect x="271.26" y="135.89" width="1.96" height="3.9" style="fill:#dbdbdb"></rect><rect x="274.74" y="135.89" width="1.96" height="3.9" style="fill:#dbdbdb"></rect><rect x="278.21" y="135.89" width="1.96" height="3.9" style="fill:#dbdbdb"></rect><rect x="271.26" y="142.24" width="1.96" height="3.91" style="fill:#dbdbdb"></rect><rect x="274.74" y="142.24" width="1.96" height="3.91" style="fill:#dbdbdb"></rect><rect x="278.21" y="142.24" width="1.96" height="3.91" style="fill:#dbdbdb"></rect><rect x="271.26" y="148.59" width="1.96" height="3.9" style="fill:#dbdbdb"></rect><rect x="274.74" y="148.59" width="1.96" height="3.9" style="fill:#dbdbdb"></rect><rect x="278.21" y="148.59" width="1.96" height="3.9" style="fill:#dbdbdb"></rect><rect x="271.26" y="154.93" width="1.96" height="3.91" style="fill:#dbdbdb"></rect><rect x="274.74" y="154.93" width="1.96" height="3.91" style="fill:#dbdbdb"></rect><rect x="278.21" y="154.93" width="1.96" height="3.91" style="fill:#dbdbdb"></rect><rect x="271.26" y="161.28" width="1.96" height="3.9" style="fill:#dbdbdb"></rect><rect x="274.74" y="161.28" width="1.96" height="3.9" style="fill:#dbdbdb"></rect><rect x="278.21" y="161.28" width="1.96" height="3.9" style="fill:#dbdbdb"></rect><rect x="271.26" y="167.63" width="1.96" height="3.91" style="fill:#dbdbdb"></rect><rect x="274.74" y="167.63" width="1.96" height="3.91" style="fill:#dbdbdb"></rect><rect x="278.21" y="167.63" width="1.96" height="3.91" style="fill:#dbdbdb"></rect><rect x="271.26" y="173.97" width="1.96" height="3.9" style="fill:#dbdbdb"></rect><rect x="274.74" y="173.97" width="1.96" height="3.9" style="fill:#dbdbdb"></rect><rect x="278.21" y="173.97" width="1.96" height="3.9" style="fill:#dbdbdb"></rect><rect x="271.26" y="180.32" width="1.96" height="3.9" style="fill:#dbdbdb"></rect><rect x="274.74" y="180.32" width="1.96" height="3.9" style="fill:#dbdbdb"></rect><rect x="278.21" y="180.32" width="1.96" height="3.9" style="fill:#dbdbdb"></rect><rect x="271.26" y="186.67" width="1.96" height="3.91" style="fill:#dbdbdb"></rect><rect x="274.74" y="186.67" width="1.96" height="3.91" style="fill:#dbdbdb"></rect><rect x="278.21" y="186.67" width="1.96" height="3.91" style="fill:#dbdbdb"></rect><rect x="271.26" y="193.01" width="1.96" height="3.9" style="fill:#dbdbdb"></rect><rect x="274.74" y="193.01" width="1.96" height="3.9" style="fill:#dbdbdb"></rect><rect x="278.21" y="193.01" width="1.96" height="3.9" style="fill:#dbdbdb"></rect><rect x="271.26" y="199.36" width="1.96" height="3.9" style="fill:#dbdbdb"></rect><rect x="274.74" y="199.36" width="1.96" height="3.9" style="fill:#dbdbdb"></rect><rect x="278.21" y="199.36" width="1.96" height="3.9" style="fill:#dbdbdb"></rect><rect x="271.26" y="205.7" width="1.96" height="3.9" style="fill:#dbdbdb"></rect><rect x="274.74" y="205.7" width="1.96" height="3.9" style="fill:#dbdbdb"></rect><rect x="278.21" y="205.7" width="1.96" height="3.9" style="fill:#dbdbdb"></rect><rect x="271.26" y="212.05" width="1.96" height="3.9" style="fill:#dbdbdb"></rect><rect x="274.74" y="212.05" width="1.96" height="3.9" style="fill:#dbdbdb"></rect><rect x="278.21" y="212.05" width="1.96" height="3.9" style="fill:#dbdbdb"></rect><rect x="271.26" y="218.4" width="1.96" height="2.43" style="fill:#dbdbdb"></rect><rect x="274.74" y="218.4" width="1.96" height="2.43" style="fill:#dbdbdb"></rect><rect x="278.21" y="218.4" width="1.96" height="2.43" style="fill:#dbdbdb"></rect><rect x="207.71" y="163.68" width="19.26" height="57.15" style="fill:#ebebeb"></rect><rect x="210.45" y="158.84" width="16.52" height="4.85" style="fill:#c7c7c7"></rect><rect x="209.83" y="166.21" width="15.04" height="54.62" style="fill:#dbdbdb"></rect><rect x="209.83" y="171.43" width="15.04" height="1.29" style="fill:#fff"></rect><rect x="209.83" y="176.77" width="15.04" height="1.29" style="fill:#fff"></rect><rect x="209.83" y="182.12" width="15.04" height="1.29" style="fill:#fff"></rect><rect x="209.83" y="187.46" width="15.04" height="1.29" style="fill:#fff"></rect><rect x="209.83" y="192.81" width="15.04" height="1.29" style="fill:#fff"></rect><rect x="209.83" y="198.16" width="15.04" height="1.29" style="fill:#fff"></rect><rect x="209.83" y="203.5" width="15.04" height="1.29" style="fill:#fff"></rect><rect x="209.83" y="208.85" width="15.04" height="1.29" style="fill:#fff"></rect><rect x="209.83" y="214.19" width="15.04" height="1.29" style="fill:#fff"></rect><rect x="209.83" y="219.54" width="15.04" height="1.29" style="fill:#fff"></rect><rect x="226.98" y="163.68" width="12.07" height="57.15" style="fill:#dbdbdb"></rect><rect x="226.98" y="158.84" width="10.26" height="4.85" style="fill:#a6a6a6"></rect><rect x="228.64" y="166.21" width="9.28" height="54.62" style="fill:#c7c7c7"></rect><rect x="228.64" y="171.43" width="9.28" height="1.29" style="fill:#fff"></rect><rect x="228.64" y="176.77" width="9.28" height="1.29" style="fill:#fff"></rect><rect x="228.64" y="182.12" width="9.28" height="1.29" style="fill:#fff"></rect><rect x="228.64" y="187.46" width="9.28" height="1.29" style="fill:#fff"></rect><rect x="228.64" y="192.81" width="9.28" height="1.29" style="fill:#fff"></rect><rect x="228.64" y="198.16" width="9.28" height="1.29" style="fill:#fff"></rect><rect x="228.64" y="203.5" width="9.28" height="1.29" style="fill:#fff"></rect><rect x="228.64" y="208.85" width="9.28" height="1.29" style="fill:#fff"></rect><rect x="228.64" y="214.19" width="9.28" height="1.29" style="fill:#fff"></rect><rect x="228.64" y="219.54" width="9.28" height="1.29" style="fill:#fff"></rect><rect x="316.92" y="163.68" width="19.26" height="57.15" style="fill:#ebebeb"></rect><rect x="319.66" y="158.84" width="16.52" height="4.85" style="fill:#c7c7c7"></rect><rect x="319.04" y="166.21" width="15.04" height="54.62" style="fill:#dbdbdb"></rect><rect x="319.04" y="171.43" width="15.04" height="1.29" style="fill:#fff"></rect><rect x="319.04" y="176.77" width="15.04" height="1.29" style="fill:#fff"></rect><rect x="319.04" y="182.12" width="15.04" height="1.29" style="fill:#fff"></rect><rect x="319.04" y="187.46" width="15.04" height="1.29" style="fill:#fff"></rect><rect x="319.04" y="192.81" width="15.04" height="1.29" style="fill:#fff"></rect><rect x="319.04" y="198.16" width="15.04" height="1.29" style="fill:#fff"></rect><rect x="319.04" y="203.5" width="15.04" height="1.29" style="fill:#fff"></rect><rect x="319.04" y="208.85" width="15.04" height="1.29" style="fill:#fff"></rect><rect x="319.04" y="214.19" width="15.04" height="1.29" style="fill:#fff"></rect><rect x="319.04" y="219.54" width="15.04" height="1.29" style="fill:#fff"></rect><rect x="336.19" y="163.68" width="12.07" height="57.15" style="fill:#dbdbdb"></rect><rect x="336.19" y="158.84" width="10.26" height="4.85" style="fill:#a6a6a6"></rect><rect x="337.85" y="166.21" width="9.28" height="54.62" style="fill:#c7c7c7"></rect><rect x="337.85" y="171.43" width="9.28" height="1.29" style="fill:#fff"></rect><rect x="337.85" y="176.77" width="9.28" height="1.29" style="fill:#fff"></rect><rect x="337.85" y="182.12" width="9.28" height="1.29" style="fill:#fff"></rect><rect x="337.85" y="187.46" width="9.28" height="1.29" style="fill:#fff"></rect><rect x="337.85" y="192.81" width="9.28" height="1.29" style="fill:#fff"></rect><rect x="337.85" y="198.16" width="9.28" height="1.29" style="fill:#fff"></rect><rect x="337.85" y="203.5" width="9.28" height="1.29" style="fill:#fff"></rect><rect x="337.85" y="208.85" width="9.28" height="1.29" style="fill:#fff"></rect><rect x="337.85" y="214.19" width="9.28" height="1.29" style="fill:#fff"></rect><rect x="337.85" y="219.54" width="9.28" height="1.29" style="fill:#fff"></rect><rect x="266.22" y="159.25" width="17.34" height="61.59" style="fill:#dbdbdb"></rect><rect x="268.95" y="162.62" width="3.07" height="2.39" style="fill:#c7c7c7"></rect><rect x="268.95" y="167.71" width="3.07" height="2.39" style="fill:#c7c7c7"></rect><rect x="268.95" y="172.81" width="3.07" height="2.39" style="fill:#c7c7c7"></rect><rect x="268.95" y="177.91" width="3.07" height="2.39" style="fill:#c7c7c7"></rect><rect x="268.95" y="183.01" width="3.07" height="2.39" style="fill:#c7c7c7"></rect><rect x="268.95" y="188.1" width="3.07" height="2.39" style="fill:#c7c7c7"></rect><rect x="268.95" y="193.2" width="3.07" height="2.39" style="fill:#c7c7c7"></rect><rect x="273.37" y="162.62" width="3.07" height="2.39" style="fill:#c7c7c7"></rect><rect x="273.37" y="167.71" width="3.07" height="2.39" style="fill:#c7c7c7"></rect><rect x="273.37" y="172.81" width="3.07" height="2.39" style="fill:#c7c7c7"></rect><rect x="273.37" y="177.91" width="3.07" height="2.39" style="fill:#c7c7c7"></rect><rect x="273.37" y="183.01" width="3.07" height="2.39" style="fill:#c7c7c7"></rect><rect x="273.37" y="188.1" width="3.07" height="2.39" style="fill:#c7c7c7"></rect><rect x="273.37" y="193.2" width="3.07" height="2.39" style="fill:#c7c7c7"></rect><rect x="277.77" y="162.62" width="3.07" height="2.39" style="fill:#c7c7c7"></rect><rect x="277.77" y="167.71" width="3.07" height="2.39" style="fill:#c7c7c7"></rect><rect x="277.77" y="172.81" width="3.07" height="2.39" style="fill:#c7c7c7"></rect><rect x="277.77" y="177.91" width="3.07" height="2.39" style="fill:#c7c7c7"></rect><rect x="277.77" y="183.01" width="3.07" height="2.39" style="fill:#c7c7c7"></rect><rect x="277.77" y="188.1" width="3.07" height="2.39" style="fill:#c7c7c7"></rect><rect x="277.77" y="193.2" width="3.07" height="2.39" style="fill:#c7c7c7"></rect><rect x="268.95" y="198.3" width="3.07" height="2.39" style="fill:#c7c7c7"></rect><rect x="273.37" y="198.3" width="3.07" height="2.39" style="fill:#c7c7c7"></rect><rect x="277.77" y="198.3" width="3.07" height="2.39" style="fill:#c7c7c7"></rect><rect x="268.95" y="203.39" width="3.07" height="2.39" style="fill:#c7c7c7"></rect><rect x="273.37" y="203.39" width="3.07" height="2.39" style="fill:#c7c7c7"></rect><rect x="277.77" y="203.39" width="3.07" height="2.39" style="fill:#c7c7c7"></rect><rect x="268.95" y="208.49" width="3.07" height="2.39" style="fill:#c7c7c7"></rect><rect x="273.37" y="208.49" width="3.07" height="2.39" style="fill:#c7c7c7"></rect><rect x="277.77" y="208.49" width="3.07" height="2.39" style="fill:#c7c7c7"></rect><rect x="268.95" y="213.59" width="3.07" height="2.39" style="fill:#c7c7c7"></rect><rect x="273.37" y="213.59" width="3.07" height="2.39" style="fill:#c7c7c7"></rect><rect x="277.77" y="213.59" width="3.07" height="2.39" style="fill:#c7c7c7"></rect><rect x="283.56" y="159.25" width="12.17" height="61.59" style="fill:#a6a6a6"></rect><rect x="291.99" y="192.82" width="2.5" height="2.39" transform="translate(586.47 388.03) rotate(180)" style="fill:#c7c7c7"></rect><rect x="291.99" y="187.72" width="2.5" height="2.39" transform="translate(586.47 377.83) rotate(180)" style="fill:#c7c7c7"></rect><rect x="291.99" y="182.63" width="2.5" height="2.39" transform="translate(586.47 367.64) rotate(180)" style="fill:#c7c7c7"></rect><rect x="291.99" y="177.53" width="2.5" height="2.39" transform="translate(586.47 357.44) rotate(180)" style="fill:#c7c7c7"></rect><rect x="291.99" y="172.43" width="2.5" height="2.39" transform="translate(586.47 347.25) rotate(180)" style="fill:#c7c7c7"></rect><rect x="291.99" y="167.33" width="2.5" height="2.39" transform="translate(586.47 337.05) rotate(180)" style="fill:#c7c7c7"></rect><rect x="291.99" y="162.24" width="2.5" height="2.39" transform="translate(586.47 326.86) rotate(180)" style="fill:#c7c7c7"></rect><rect x="288.39" y="192.82" width="2.5" height="2.39" transform="translate(579.28 388.03) rotate(180)" style="fill:#c7c7c7"></rect><rect x="288.39" y="187.72" width="2.5" height="2.39" transform="translate(579.28 377.83) rotate(180)" style="fill:#c7c7c7"></rect><rect x="288.39" y="182.63" width="2.5" height="2.39" transform="translate(579.28 367.64) rotate(180)" style="fill:#c7c7c7"></rect><rect x="288.39" y="177.53" width="2.5" height="2.39" transform="translate(579.28 357.44) rotate(180)" style="fill:#c7c7c7"></rect><rect x="288.39" y="172.43" width="2.5" height="2.39" transform="translate(579.28 347.25) rotate(180)" style="fill:#c7c7c7"></rect><rect x="288.39" y="167.33" width="2.5" height="2.39" transform="translate(579.28 337.05) rotate(180)" style="fill:#c7c7c7"></rect><rect x="288.39" y="162.24" width="2.5" height="2.39" transform="translate(579.28 326.86) rotate(180)" style="fill:#c7c7c7"></rect><rect x="284.81" y="192.82" width="2.5" height="2.39" transform="translate(572.12 388.03) rotate(180)" style="fill:#c7c7c7"></rect><rect x="284.81" y="187.72" width="2.5" height="2.39" transform="translate(572.12 377.83) rotate(180)" style="fill:#c7c7c7"></rect><rect x="291.99" y="197.92" width="2.5" height="2.39" transform="translate(586.47 398.22) rotate(180)" style="fill:#c7c7c7"></rect><rect x="288.39" y="197.92" width="2.5" height="2.39" transform="translate(579.28 398.22) rotate(180)" style="fill:#c7c7c7"></rect><rect x="284.81" y="197.92" width="2.5" height="2.39" transform="translate(572.12 398.22) rotate(180)" style="fill:#c7c7c7"></rect><rect x="291.99" y="203.01" width="2.5" height="2.39" transform="translate(586.47 408.41) rotate(180)" style="fill:#c7c7c7"></rect><rect x="288.39" y="203.01" width="2.5" height="2.39" transform="translate(579.28 408.41) rotate(180)" style="fill:#c7c7c7"></rect><rect x="284.81" y="203.01" width="2.5" height="2.39" transform="translate(572.12 408.41) rotate(180)" style="fill:#c7c7c7"></rect><rect x="291.99" y="208.11" width="2.5" height="2.39" transform="translate(586.47 418.61) rotate(180)" style="fill:#c7c7c7"></rect><rect x="288.39" y="208.11" width="2.5" height="2.39" transform="translate(579.28 418.61) rotate(180)" style="fill:#c7c7c7"></rect><rect x="284.81" y="208.11" width="2.5" height="2.39" transform="translate(572.12 418.61) rotate(180)" style="fill:#c7c7c7"></rect><rect x="291.99" y="213.21" width="2.5" height="2.39" transform="translate(586.47 428.8) rotate(180)" style="fill:#c7c7c7"></rect><rect x="288.39" y="213.21" width="2.5" height="2.39" transform="translate(579.28 428.8) rotate(180)" style="fill:#c7c7c7"></rect><rect x="284.81" y="213.21" width="2.5" height="2.39" transform="translate(572.12 428.8) rotate(180)" style="fill:#c7c7c7"></rect><rect x="284.81" y="182.63" width="2.5" height="2.39" transform="translate(572.12 367.64) rotate(180)" style="fill:#c7c7c7"></rect><rect x="284.81" y="177.53" width="2.5" height="2.39" transform="translate(572.12 357.44) rotate(180)" style="fill:#c7c7c7"></rect><rect x="284.81" y="172.43" width="2.5" height="2.39" transform="translate(572.12 347.25) rotate(180)" style="fill:#c7c7c7"></rect><rect x="284.81" y="167.33" width="2.5" height="2.39" transform="translate(572.12 337.05) rotate(180)" style="fill:#c7c7c7"></rect><rect x="284.81" y="162.24" width="2.5" height="2.39" transform="translate(572.12 326.86) rotate(180)" style="fill:#c7c7c7"></rect><rect x="406.07" y="159.25" width="17.34" height="61.59" style="fill:#dbdbdb"></rect><rect x="408.8" y="162.62" width="3.07" height="2.39" style="fill:#c7c7c7"></rect><rect x="408.8" y="167.71" width="3.07" height="2.39" style="fill:#c7c7c7"></rect><rect x="408.8" y="172.81" width="3.07" height="2.39" style="fill:#c7c7c7"></rect><rect x="408.8" y="177.91" width="3.07" height="2.39" style="fill:#c7c7c7"></rect><rect x="408.8" y="183.01" width="3.07" height="2.39" style="fill:#c7c7c7"></rect><rect x="408.8" y="188.1" width="3.07" height="2.39" style="fill:#c7c7c7"></rect><rect x="408.8" y="193.2" width="3.07" height="2.39" style="fill:#c7c7c7"></rect><rect x="413.21" y="162.62" width="3.07" height="2.39" style="fill:#c7c7c7"></rect><rect x="413.21" y="167.71" width="3.07" height="2.39" style="fill:#c7c7c7"></rect><rect x="413.21" y="172.81" width="3.07" height="2.39" style="fill:#c7c7c7"></rect><rect x="413.21" y="177.91" width="3.07" height="2.39" style="fill:#c7c7c7"></rect><rect x="413.21" y="183.01" width="3.07" height="2.39" style="fill:#c7c7c7"></rect><rect x="413.21" y="188.1" width="3.07" height="2.39" style="fill:#c7c7c7"></rect><rect x="413.21" y="193.2" width="3.07" height="2.39" style="fill:#c7c7c7"></rect><rect x="417.62" y="162.62" width="3.07" height="2.39" style="fill:#c7c7c7"></rect><rect x="417.62" y="167.71" width="3.07" height="2.39" style="fill:#c7c7c7"></rect><rect x="417.62" y="172.81" width="3.07" height="2.39" style="fill:#c7c7c7"></rect><rect x="417.62" y="177.91" width="3.07" height="2.39" style="fill:#c7c7c7"></rect><rect x="417.62" y="183.01" width="3.07" height="2.39" style="fill:#c7c7c7"></rect><rect x="417.62" y="188.1" width="3.07" height="2.39" style="fill:#c7c7c7"></rect><rect x="417.62" y="193.2" width="3.07" height="2.39" style="fill:#c7c7c7"></rect><rect x="408.8" y="198.3" width="3.07" height="2.39" style="fill:#c7c7c7"></rect><rect x="413.21" y="198.3" width="3.07" height="2.39" style="fill:#c7c7c7"></rect><rect x="417.62" y="198.3" width="3.07" height="2.39" style="fill:#c7c7c7"></rect><rect x="408.8" y="203.39" width="3.07" height="2.39" style="fill:#c7c7c7"></rect><rect x="413.21" y="203.39" width="3.07" height="2.39" style="fill:#c7c7c7"></rect><rect x="417.62" y="203.39" width="3.07" height="2.39" style="fill:#c7c7c7"></rect><rect x="408.8" y="208.49" width="3.07" height="2.39" style="fill:#c7c7c7"></rect><rect x="413.21" y="208.49" width="3.07" height="2.39" style="fill:#c7c7c7"></rect><rect x="417.62" y="208.49" width="3.07" height="2.39" style="fill:#c7c7c7"></rect><rect x="408.8" y="213.59" width="3.07" height="2.39" style="fill:#c7c7c7"></rect><rect x="413.21" y="213.59" width="3.07" height="2.39" style="fill:#c7c7c7"></rect><rect x="417.62" y="213.59" width="3.07" height="2.39" style="fill:#c7c7c7"></rect><rect x="423.41" y="159.25" width="12.17" height="61.59" style="fill:#a6a6a6"></rect><rect x="431.83" y="192.82" width="2.5" height="2.39" transform="translate(866.17 388.03) rotate(180)" style="fill:#c7c7c7"></rect><rect x="431.83" y="187.72" width="2.5" height="2.39" transform="translate(866.17 377.83) rotate(180)" style="fill:#c7c7c7"></rect><rect x="431.83" y="182.63" width="2.5" height="2.39" transform="translate(866.17 367.64) rotate(180)" style="fill:#c7c7c7"></rect><rect x="431.83" y="177.53" width="2.5" height="2.39" transform="translate(866.17 357.44) rotate(180)" style="fill:#c7c7c7"></rect><rect x="431.83" y="172.43" width="2.5" height="2.39" transform="translate(866.17 347.25) rotate(180)" style="fill:#c7c7c7"></rect><rect x="431.83" y="167.33" width="2.5" height="2.39" transform="translate(866.17 337.05) rotate(180)" style="fill:#c7c7c7"></rect><rect x="431.83" y="162.24" width="2.5" height="2.39" transform="translate(866.17 326.86) rotate(180)" style="fill:#c7c7c7"></rect><rect x="428.24" y="192.82" width="2.5" height="2.39" transform="translate(858.98 388.03) rotate(180)" style="fill:#c7c7c7"></rect><rect x="428.24" y="187.72" width="2.5" height="2.39" transform="translate(858.98 377.83) rotate(180)" style="fill:#c7c7c7"></rect><rect x="428.24" y="182.63" width="2.5" height="2.39" transform="translate(858.98 367.64) rotate(180)" style="fill:#c7c7c7"></rect><rect x="428.24" y="177.53" width="2.5" height="2.39" transform="translate(858.98 357.44) rotate(180)" style="fill:#c7c7c7"></rect><rect x="428.24" y="172.43" width="2.5" height="2.39" transform="translate(858.98 347.25) rotate(180)" style="fill:#c7c7c7"></rect><rect x="428.24" y="167.33" width="2.5" height="2.39" transform="translate(858.98 337.05) rotate(180)" style="fill:#c7c7c7"></rect><rect x="428.24" y="162.24" width="2.5" height="2.39" transform="translate(858.98 326.86) rotate(180)" style="fill:#c7c7c7"></rect><rect x="424.66" y="192.82" width="2.5" height="2.39" transform="translate(851.81 388.03) rotate(180)" style="fill:#c7c7c7"></rect><rect x="424.66" y="187.72" width="2.5" height="2.39" transform="translate(851.81 377.83) rotate(180)" style="fill:#c7c7c7"></rect><rect x="431.83" y="197.92" width="2.5" height="2.39" transform="translate(866.17 398.22) rotate(180)" style="fill:#c7c7c7"></rect><rect x="428.24" y="197.92" width="2.5" height="2.39" transform="translate(858.98 398.22) rotate(180)" style="fill:#c7c7c7"></rect><rect x="424.66" y="197.92" width="2.5" height="2.39" transform="translate(851.81 398.22) rotate(180)" style="fill:#c7c7c7"></rect><rect x="431.83" y="203.01" width="2.5" height="2.39" transform="translate(866.17 408.41) rotate(180)" style="fill:#c7c7c7"></rect><rect x="428.24" y="203.01" width="2.5" height="2.39" transform="translate(858.98 408.41) rotate(180)" style="fill:#c7c7c7"></rect><rect x="424.66" y="203.01" width="2.5" height="2.39" transform="translate(851.81 408.41) rotate(180)" style="fill:#c7c7c7"></rect><rect x="431.83" y="208.11" width="2.5" height="2.39" transform="translate(866.17 418.61) rotate(180)" style="fill:#c7c7c7"></rect><rect x="428.24" y="208.11" width="2.5" height="2.39" transform="translate(858.98 418.61) rotate(180)" style="fill:#c7c7c7"></rect><rect x="424.66" y="208.11" width="2.5" height="2.39" transform="translate(851.81 418.61) rotate(180)" style="fill:#c7c7c7"></rect><rect x="431.83" y="213.21" width="2.5" height="2.39" transform="translate(866.17 428.8) rotate(180)" style="fill:#c7c7c7"></rect><rect x="428.24" y="213.21" width="2.5" height="2.39" transform="translate(858.98 428.8) rotate(180)" style="fill:#c7c7c7"></rect><rect x="424.66" y="213.21" width="2.5" height="2.39" transform="translate(851.81 428.8) rotate(180)" style="fill:#c7c7c7"></rect><rect x="424.66" y="182.63" width="2.5" height="2.39" transform="translate(851.81 367.64) rotate(180)" style="fill:#c7c7c7"></rect><rect x="424.66" y="177.53" width="2.5" height="2.39" transform="translate(851.81 357.44) rotate(180)" style="fill:#c7c7c7"></rect><rect x="424.66" y="172.43" width="2.5" height="2.39" transform="translate(851.81 347.25) rotate(180)" style="fill:#c7c7c7"></rect><rect x="424.66" y="167.33" width="2.5" height="2.39" transform="translate(851.81 337.05) rotate(180)" style="fill:#c7c7c7"></rect><rect x="424.66" y="162.24" width="2.5" height="2.39" transform="translate(851.81 326.86) rotate(180)" style="fill:#c7c7c7"></rect><rect x="376.69" y="149" width="10.29" height="12.15" style="fill:#dbdbdb"></rect><rect x="386.98" y="149" width="6.52" height="12.6" style="fill:#c7c7c7"></rect><rect x="387.46" y="154.37" width="6.47" height="7.23" style="fill:#dbdbdb"></rect><rect x="393.93" y="154.37" width="4.04" height="7.23" style="fill:#c7c7c7"></rect><rect x="372.74" y="160.37" width="16.64" height="60.47" style="fill:#ebebeb"></rect><rect x="374.64" y="162.96" width="5.23" height="2.14" style="fill:#fff"></rect><rect x="381.33" y="162.96" width="5.23" height="2.14" style="fill:#fff"></rect><rect x="374.64" y="166.59" width="5.23" height="2.14" style="fill:#fff"></rect><rect x="381.33" y="166.59" width="5.23" height="2.14" style="fill:#fff"></rect><rect x="374.64" y="170.22" width="5.23" height="2.14" style="fill:#fff"></rect><rect x="381.33" y="170.22" width="5.23" height="2.14" style="fill:#fff"></rect><rect x="374.64" y="173.85" width="5.23" height="2.14" style="fill:#fff"></rect><rect x="381.33" y="173.85" width="5.23" height="2.14" style="fill:#fff"></rect><rect x="374.64" y="177.48" width="5.23" height="2.14" style="fill:#fff"></rect><rect x="381.33" y="177.48" width="5.23" height="2.14" style="fill:#fff"></rect><rect x="374.64" y="181.11" width="5.23" height="2.14" style="fill:#fff"></rect><rect x="381.33" y="181.11" width="5.23" height="2.14" style="fill:#fff"></rect><rect x="374.64" y="184.74" width="5.23" height="2.14" style="fill:#fff"></rect><rect x="381.33" y="184.74" width="5.23" height="2.14" style="fill:#fff"></rect><rect x="374.64" y="188.37" width="5.23" height="2.14" style="fill:#fff"></rect><rect x="381.33" y="188.37" width="5.23" height="2.14" style="fill:#fff"></rect><rect x="374.64" y="192" width="5.23" height="2.14" style="fill:#fff"></rect><rect x="381.33" y="192" width="5.23" height="2.14" style="fill:#fff"></rect><rect x="374.64" y="195.63" width="5.23" height="2.14" style="fill:#fff"></rect><rect x="381.33" y="195.63" width="5.23" height="2.14" style="fill:#fff"></rect><rect x="374.64" y="199.26" width="5.23" height="2.14" style="fill:#fff"></rect><rect x="381.33" y="199.26" width="5.23" height="2.14" style="fill:#fff"></rect><rect x="374.64" y="202.89" width="5.23" height="2.14" style="fill:#fff"></rect><rect x="381.33" y="202.89" width="5.23" height="2.14" style="fill:#fff"></rect><rect x="374.64" y="206.52" width="5.23" height="2.14" style="fill:#fff"></rect><rect x="381.33" y="206.52" width="5.23" height="2.14" style="fill:#fff"></rect><rect x="374.64" y="210.15" width="5.23" height="2.14" style="fill:#fff"></rect><rect x="381.33" y="210.15" width="5.23" height="2.14" style="fill:#fff"></rect><rect x="389.38" y="160.37" width="13.48" height="60.47" style="fill:#c7c7c7"></rect><rect x="397.21" y="210.15" width="4.3" height="2.14" transform="translate(798.72 422.43) rotate(180)" style="fill:#ebebeb"></rect><rect x="391.72" y="210.15" width="4.3" height="2.14" transform="translate(787.73 422.43) rotate(180)" style="fill:#ebebeb"></rect><rect x="397.21" y="206.52" width="4.3" height="2.14" transform="translate(798.72 415.17) rotate(180)" style="fill:#ebebeb"></rect><rect x="391.72" y="206.52" width="4.3" height="2.14" transform="translate(787.73 415.17) rotate(180)" style="fill:#ebebeb"></rect><rect x="397.21" y="202.89" width="4.3" height="2.14" transform="translate(798.72 407.91) rotate(180)" style="fill:#ebebeb"></rect><rect x="391.72" y="202.89" width="4.3" height="2.14" transform="translate(787.73 407.91) rotate(180)" style="fill:#ebebeb"></rect><rect x="397.21" y="199.26" width="4.3" height="2.14" transform="translate(798.72 400.65) rotate(180)" style="fill:#ebebeb"></rect><rect x="391.72" y="199.26" width="4.3" height="2.14" transform="translate(787.73 400.65) rotate(180)" style="fill:#ebebeb"></rect><rect x="397.21" y="195.63" width="4.3" height="2.14" transform="translate(798.72 393.4) rotate(180)" style="fill:#ebebeb"></rect><rect x="391.72" y="195.63" width="4.3" height="2.14" transform="translate(787.73 393.4) rotate(180)" style="fill:#ebebeb"></rect><rect x="397.21" y="192" width="4.3" height="2.14" transform="translate(798.72 386.14) rotate(180)" style="fill:#ebebeb"></rect><rect x="391.72" y="192" width="4.3" height="2.14" transform="translate(787.73 386.14) rotate(180)" style="fill:#ebebeb"></rect><rect x="397.21" y="188.37" width="4.3" height="2.14" transform="translate(798.72 378.88) rotate(180)" style="fill:#ebebeb"></rect><rect x="391.72" y="188.37" width="4.3" height="2.14" transform="translate(787.73 378.88) rotate(180)" style="fill:#ebebeb"></rect><rect x="397.21" y="184.74" width="4.3" height="2.14" transform="translate(798.72 371.62) rotate(180)" style="fill:#ebebeb"></rect><rect x="391.72" y="184.74" width="4.3" height="2.14" transform="translate(787.73 371.62) rotate(180)" style="fill:#ebebeb"></rect><rect x="397.21" y="181.11" width="4.3" height="2.14" transform="translate(798.72 364.36) rotate(180)" style="fill:#ebebeb"></rect><rect x="391.72" y="181.11" width="4.3" height="2.14" transform="translate(787.73 364.36) rotate(180)" style="fill:#ebebeb"></rect><rect x="397.21" y="177.48" width="4.3" height="2.14" transform="translate(798.72 357.1) rotate(180)" style="fill:#ebebeb"></rect><rect x="391.72" y="177.48" width="4.3" height="2.14" transform="translate(787.73 357.1) rotate(180)" style="fill:#ebebeb"></rect><rect x="397.21" y="173.85" width="4.3" height="2.14" transform="translate(798.72 349.84) rotate(180)" style="fill:#ebebeb"></rect><rect x="391.72" y="173.85" width="4.3" height="2.14" transform="translate(787.73 349.84) rotate(180)" style="fill:#ebebeb"></rect><rect x="397.21" y="170.22" width="4.3" height="2.14" transform="translate(798.72 342.58) rotate(180)" style="fill:#ebebeb"></rect><rect x="391.72" y="170.22" width="4.3" height="2.14" transform="translate(787.73 342.58) rotate(180)" style="fill:#ebebeb"></rect><rect x="397.21" y="166.59" width="4.3" height="2.14" transform="translate(798.72 335.33) rotate(180)" style="fill:#ebebeb"></rect><rect x="391.72" y="166.59" width="4.3" height="2.14" transform="translate(787.73 335.33) rotate(180)" style="fill:#ebebeb"></rect><rect x="397.21" y="162.96" width="4.3" height="2.14" transform="translate(798.72 328.07) rotate(180)" style="fill:#ebebeb"></rect><rect x="391.72" y="162.96" width="4.3" height="2.14" transform="translate(787.73 328.07) rotate(180)" style="fill:#ebebeb"></rect><rect x="299.01" y="181.43" width="19.62" height="39.4" style="fill:#c7c7c7"></rect><rect x="302.1" y="184.84" width="3.47" height="2.41" style="fill:#dbdbdb"></rect><rect x="302.1" y="190" width="3.47" height="2.41" style="fill:#dbdbdb"></rect><rect x="302.1" y="195.15" width="3.47" height="2.41" style="fill:#dbdbdb"></rect><rect x="302.1" y="200.31" width="3.47" height="2.41" style="fill:#dbdbdb"></rect><rect x="302.1" y="205.47" width="3.47" height="2.41" style="fill:#dbdbdb"></rect><rect x="302.1" y="210.62" width="3.47" height="2.41" style="fill:#dbdbdb"></rect><rect x="302.1" y="215.78" width="3.47" height="2.41" style="fill:#dbdbdb"></rect><rect x="307.09" y="184.84" width="3.47" height="2.41" style="fill:#dbdbdb"></rect><rect x="307.09" y="190" width="3.47" height="2.41" style="fill:#dbdbdb"></rect><rect x="307.09" y="195.15" width="3.47" height="2.41" style="fill:#dbdbdb"></rect><rect x="307.09" y="200.31" width="3.47" height="2.41" style="fill:#dbdbdb"></rect><rect x="307.09" y="205.47" width="3.47" height="2.41" style="fill:#dbdbdb"></rect><rect x="307.09" y="210.62" width="3.47" height="2.41" style="fill:#dbdbdb"></rect><rect x="307.09" y="215.78" width="3.47" height="2.41" style="fill:#dbdbdb"></rect><rect x="312.08" y="184.84" width="3.47" height="2.41" style="fill:#dbdbdb"></rect><rect x="312.08" y="190" width="3.47" height="2.41" style="fill:#dbdbdb"></rect><rect x="312.08" y="195.15" width="3.47" height="2.41" style="fill:#dbdbdb"></rect><rect x="312.08" y="200.31" width="3.47" height="2.41" style="fill:#dbdbdb"></rect><rect x="312.08" y="205.47" width="3.47" height="2.41" style="fill:#dbdbdb"></rect><rect x="312.08" y="210.62" width="3.47" height="2.41" style="fill:#dbdbdb"></rect><rect x="312.08" y="215.78" width="3.47" height="2.41" style="fill:#dbdbdb"></rect><rect x="305.57" y="177.33" width="13.06" height="4.11" style="fill:#dbdbdb"></rect><rect x="310.35" y="174.78" width="8.28" height="2.54" style="fill:#ebebeb"></rect><rect x="318.64" y="181.43" width="13.77" height="39.4" style="fill:#a6a6a6"></rect><rect x="328.17" y="215.39" width="2.83" height="2.41" transform="translate(659.16 433.2) rotate(180)" style="fill:#c7c7c7"></rect><rect x="328.17" y="210.24" width="2.83" height="2.41" transform="translate(659.16 422.89) rotate(180)" style="fill:#c7c7c7"></rect><rect x="328.17" y="205.08" width="2.83" height="2.41" transform="translate(659.16 412.57) rotate(180)" style="fill:#c7c7c7"></rect><rect x="328.17" y="199.92" width="2.83" height="2.41" transform="translate(659.16 402.26) rotate(180)" style="fill:#c7c7c7"></rect><rect x="328.17" y="194.77" width="2.83" height="2.41" transform="translate(659.16 391.95) rotate(180)" style="fill:#c7c7c7"></rect><rect x="328.17" y="189.61" width="2.83" height="2.41" transform="translate(659.16 381.64) rotate(180)" style="fill:#c7c7c7"></rect><rect x="328.17" y="184.46" width="2.83" height="2.41" transform="translate(659.16 371.33) rotate(180)" style="fill:#c7c7c7"></rect><rect x="324.1" y="215.39" width="2.83" height="2.41" transform="translate(651.03 433.2) rotate(180)" style="fill:#c7c7c7"></rect><rect x="324.1" y="210.24" width="2.83" height="2.41" transform="translate(651.03 422.89) rotate(180)" style="fill:#c7c7c7"></rect><rect x="324.1" y="205.08" width="2.83" height="2.41" transform="translate(651.03 412.57) rotate(180)" style="fill:#c7c7c7"></rect><rect x="324.1" y="199.92" width="2.83" height="2.41" transform="translate(651.03 402.26) rotate(180)" style="fill:#c7c7c7"></rect><rect x="324.1" y="194.77" width="2.83" height="2.41" transform="translate(651.03 391.95) rotate(180)" style="fill:#c7c7c7"></rect><rect x="324.1" y="189.61" width="2.83" height="2.41" transform="translate(651.03 381.64) rotate(180)" style="fill:#c7c7c7"></rect><rect x="324.1" y="184.46" width="2.83" height="2.41" transform="translate(651.03 371.33) rotate(180)" style="fill:#c7c7c7"></rect><rect x="320.05" y="215.39" width="2.83" height="2.41" transform="translate(642.92 433.2) rotate(180)" style="fill:#c7c7c7"></rect><rect x="320.05" y="210.24" width="2.83" height="2.41" transform="translate(642.92 422.89) rotate(180)" style="fill:#c7c7c7"></rect><rect x="320.05" y="205.08" width="2.83" height="2.41" transform="translate(642.92 412.57) rotate(180)" style="fill:#c7c7c7"></rect><rect x="320.05" y="199.92" width="2.83" height="2.41" transform="translate(642.92 402.26) rotate(180)" style="fill:#c7c7c7"></rect><rect x="320.05" y="194.77" width="2.83" height="2.41" transform="translate(642.92 391.95) rotate(180)" style="fill:#c7c7c7"></rect><rect x="320.05" y="189.61" width="2.83" height="2.41" transform="translate(642.92 381.64) rotate(180)" style="fill:#c7c7c7"></rect><rect x="320.05" y="184.46" width="2.83" height="2.41" transform="translate(642.92 371.33) rotate(180)" style="fill:#c7c7c7"></rect><rect x="318.64" y="177.33" width="11.68" height="4.11" style="fill:#c7c7c7"></rect><rect x="318.64" y="174.78" width="6.33" height="2.54" style="fill:#dbdbdb"></rect><rect x="428.24" y="181.43" width="19.62" height="39.4" style="fill:#c7c7c7"></rect><rect x="431.33" y="184.84" width="3.47" height="2.41" style="fill:#dbdbdb"></rect><rect x="431.33" y="190" width="3.47" height="2.41" style="fill:#dbdbdb"></rect><rect x="431.33" y="195.15" width="3.47" height="2.41" style="fill:#dbdbdb"></rect><rect x="431.33" y="200.31" width="3.47" height="2.41" style="fill:#dbdbdb"></rect><rect x="431.33" y="205.47" width="3.47" height="2.41" style="fill:#dbdbdb"></rect><rect x="431.33" y="210.62" width="3.47" height="2.41" style="fill:#dbdbdb"></rect><rect x="431.33" y="215.78" width="3.47" height="2.41" style="fill:#dbdbdb"></rect><rect x="436.32" y="184.84" width="3.47" height="2.41" style="fill:#dbdbdb"></rect><rect x="436.32" y="190" width="3.47" height="2.41" style="fill:#dbdbdb"></rect><rect x="436.32" y="195.15" width="3.47" height="2.41" style="fill:#dbdbdb"></rect><rect x="436.32" y="200.31" width="3.47" height="2.41" style="fill:#dbdbdb"></rect><rect x="436.32" y="205.47" width="3.47" height="2.41" style="fill:#dbdbdb"></rect><rect x="436.32" y="210.62" width="3.47" height="2.41" style="fill:#dbdbdb"></rect><rect x="436.32" y="215.78" width="3.47" height="2.41" style="fill:#dbdbdb"></rect><rect x="441.31" y="184.84" width="3.47" height="2.41" style="fill:#dbdbdb"></rect><rect x="441.31" y="190" width="3.47" height="2.41" style="fill:#dbdbdb"></rect><rect x="441.31" y="195.15" width="3.47" height="2.41" style="fill:#dbdbdb"></rect><rect x="441.31" y="200.31" width="3.47" height="2.41" style="fill:#dbdbdb"></rect><rect x="441.31" y="205.47" width="3.47" height="2.41" style="fill:#dbdbdb"></rect><rect x="441.31" y="210.62" width="3.47" height="2.41" style="fill:#dbdbdb"></rect><rect x="441.31" y="215.78" width="3.47" height="2.41" style="fill:#dbdbdb"></rect><rect x="434.8" y="177.33" width="13.07" height="4.11" style="fill:#dbdbdb"></rect><rect x="439.58" y="174.78" width="8.28" height="2.54" style="fill:#ebebeb"></rect><rect x="447.86" y="181.43" width="13.77" height="39.4" style="fill:#a6a6a6"></rect><rect x="457.4" y="215.39" width="2.83" height="2.41" transform="translate(917.62 433.2) rotate(180)" style="fill:#c7c7c7"></rect><rect x="457.4" y="210.24" width="2.83" height="2.41" transform="translate(917.62 422.89) rotate(180)" style="fill:#c7c7c7"></rect><rect x="457.4" y="205.08" width="2.83" height="2.41" transform="translate(917.62 412.57) rotate(180)" style="fill:#c7c7c7"></rect><rect x="457.4" y="199.92" width="2.83" height="2.41" transform="translate(917.62 402.26) rotate(180)" style="fill:#c7c7c7"></rect><rect x="457.4" y="194.77" width="2.83" height="2.41" transform="translate(917.62 391.95) rotate(180)" style="fill:#c7c7c7"></rect><rect x="457.4" y="189.61" width="2.83" height="2.41" transform="translate(917.62 381.64) rotate(180)" style="fill:#c7c7c7"></rect><rect x="457.4" y="184.46" width="2.83" height="2.41" transform="translate(917.62 371.33) rotate(180)" style="fill:#c7c7c7"></rect><rect x="453.33" y="215.39" width="2.83" height="2.41" transform="translate(909.49 433.2) rotate(180)" style="fill:#c7c7c7"></rect><rect x="453.33" y="210.24" width="2.83" height="2.41" transform="translate(909.49 422.89) rotate(180)" style="fill:#c7c7c7"></rect><rect x="453.33" y="205.08" width="2.83" height="2.41" transform="translate(909.49 412.57) rotate(180)" style="fill:#c7c7c7"></rect><rect x="453.33" y="199.92" width="2.83" height="2.41" transform="translate(909.49 402.26) rotate(180)" style="fill:#c7c7c7"></rect><rect x="453.33" y="194.77" width="2.83" height="2.41" transform="translate(909.49 391.95) rotate(180)" style="fill:#c7c7c7"></rect><rect x="453.33" y="189.61" width="2.83" height="2.41" transform="translate(909.49 381.64) rotate(180)" style="fill:#c7c7c7"></rect><rect x="453.33" y="184.46" width="2.83" height="2.41" transform="translate(909.49 371.33) rotate(180)" style="fill:#c7c7c7"></rect><rect x="449.27" y="215.39" width="2.83" height="2.41" transform="translate(901.38 433.2) rotate(180)" style="fill:#c7c7c7"></rect><rect x="449.27" y="210.24" width="2.83" height="2.41" transform="translate(901.38 422.89) rotate(180)" style="fill:#c7c7c7"></rect><rect x="449.27" y="205.08" width="2.83" height="2.41" transform="translate(901.38 412.57) rotate(180)" style="fill:#c7c7c7"></rect><rect x="449.27" y="199.92" width="2.83" height="2.41" transform="translate(901.38 402.26) rotate(180)" style="fill:#c7c7c7"></rect><rect x="449.27" y="194.77" width="2.83" height="2.41" transform="translate(901.38 391.95) rotate(180)" style="fill:#c7c7c7"></rect><rect x="449.27" y="189.61" width="2.83" height="2.41" transform="translate(901.38 381.64) rotate(180)" style="fill:#c7c7c7"></rect><rect x="449.27" y="184.46" width="2.83" height="2.41" transform="translate(901.38 371.33) rotate(180)" style="fill:#c7c7c7"></rect><rect x="447.86" y="177.33" width="11.68" height="4.11" style="fill:#c7c7c7"></rect><rect x="447.86" y="174.78" width="6.33" height="2.54" style="fill:#dbdbdb"></rect></g><g id="freepik--Floor--inject-8"><polygon points="38.37 220.83 91.28 220.59 144.18 220.5 250 220.33 355.82 220.5 408.73 220.59 461.63 220.83 408.73 221.08 355.82 221.16 250 221.33 144.18 221.16 91.28 221.07 38.37 220.83" style="fill:#263238"></polygon></g><g id="freepik--Arrows--inject-8"><polygon points="319.19 241.39 279.69 241.39 48.56 465.76 244 465.76 319.19 241.39" style="fill:#FFC727"></polygon><polygon points="342.38 241.39 256.51 241.39 316.32 221.27 342.38 241.39" style="fill:#FFC727"></polygon><polygon points="152.37 268.85 127.76 275.86 181.84 354.11 223.21 306.71 152.37 268.85" style="fill:#FFC727"></polygon><polygon points="175.05 262.39 100.92 283.51 120.22 259.73 175.05 262.39" style="fill:#FFC727"></polygon><polygon points="400.41 268.85 413.25 275.86 227.87 373.51 266.04 306.71 400.41 268.85" style="fill:#FFC727"></polygon><polygon points="388.57 262.39 427.26 283.51 447.87 259.73 388.57 262.39" style="fill:#FFC727"></polygon><g style="opacity:0.6000000000000001"><polygon points="319.19 241.39 279.69 241.39 48.56 465.76 244 465.76 319.19 241.39" style="fill:#fff"></polygon><polygon points="342.38 241.39 256.51 241.39 316.32 221.27 342.38 241.39" style="fill:#fff"></polygon><polygon points="152.37 268.85 127.76 275.86 181.84 354.11 223.21 306.71 152.37 268.85" style="fill:#fff"></polygon><polygon points="175.05 262.39 100.92 283.51 120.22 259.73 175.05 262.39" style="fill:#fff"></polygon><polygon points="400.41 268.85 413.25 275.86 227.87 373.51 266.04 306.71 400.41 268.85" style="fill:#fff"></polygon><polygon points="388.57 262.39 427.26 283.51 447.87 259.73 388.57 262.39" style="fill:#fff"></polygon></g></g><g id="freepik--Shadow--inject-8"><ellipse cx="175.3" cy="473.86" rx="129.76" ry="10.69" style="fill:#dbdbdb"></ellipse></g><g id="freepik--Character--inject-8"><path d="M53.21,405s-4.74,44.38-4.74,44.41c.16,8.19.45,15.38,1,19.08a.13.13,0,0,0,0,.06,5.66,5.66,0,0,0,.66,2.52.1.1,0,0,0,0,0c2.48,1.6,50.59,2.21,52.88,1.46s.34-7.34-2.18-9.4S90.74,449.7,90.74,449.7l4.33-44.34Z" style="fill:#f7a9a0"></path><path d="M93.12,451.71c-4.16-1.48-9.52-1.65-13.29.89-.14.1,0,.3.14.28a61.93,61.93,0,0,1,13-.63A.28.28,0,0,0,93.12,451.71Z" style="fill:#263238"></path><path d="M95.93,454.07c-4.17-1.48-9.53-1.65-13.29.89-.15.1,0,.3.14.28a61.84,61.84,0,0,1,13-.63A.28.28,0,0,0,95.93,454.07Z" style="fill:#263238"></path><path d="M98.73,456.43c-4.17-1.48-9.52-1.65-13.29.89-.15.1,0,.3.14.28a60.59,60.59,0,0,1,13-.63A.28.28,0,0,0,98.73,456.43Z" style="fill:#263238"></path><path d="M104.1,472.88c-2.29.76-51.49-.12-54-1.73-1-.6-1.42-10.15-1.66-21.71v-.37L90.76,449l0,.72s8.64,11.72,11.18,13.78S106.4,472.14,104.1,472.88Z" style="fill:#37474f"></path><path d="M48.46,449.07v.37c.24,11.56.7,21.12,1.66,21.71,1.12.73,15.34,1.25,30.69,1.54,18.38.34,22,.61,23.29.2,2.29-.75.32-7.35-2.19-9.4s-11.18-13.78-11.18-13.78l0-.72-14.11,0Z" style="fill:#455a64"></path><path d="M103.39,470.34c-11-.38-39.29-1.11-50.24-.64-.09,0-.09.06,0,.07,10.94.61,39.18,1,50.24.75C103.62,470.51,103.62,470.34,103.39,470.34Z" style="fill:#263238"></path><path d="M76.66,449c1.15,7.06,2.9,17.47,4.16,23.67,18.38.34,22,.61,23.29.2,2.29-.75.32-7.35-2.19-9.4s-11.18-13.78-11.18-13.78l0-.72Z" style="opacity:0.1"></path><path d="M45.53,449.86,93,449.51s4.52-82.29,7-107.92c3.06-32.06,7-112.07,7-112.07H66.54s-9.19,19.6-3.39,41.39l-5.89,78.67Z" style="fill:#263238"></path><path d="M49.55,441.49a36.43,36.43,0,0,1,3.77-.36c1.4-.12,2.8-.25,4.2-.33,2.7-.16,5.39-.25,8.09-.31,5.45-.11,10.89-.16,16.34-.08,3.09,0,6.19.11,9.29.24a.1.1,0,0,1,0,.19c-5.39.29-10.79.46-16.19.66s-10.79.39-16.18.38c-1.55,0-3.1,0-4.64-.06s-3.13.05-4.65-.14C49.48,441.66,49.44,441.52,49.55,441.49Z" style="fill:#37474f"></path><path d="M90.39,399.32c1.14-12.32,2.14-24.65,3.1-37q2.87-37,4.35-74.11c.56-13.88,1-27.76,1.29-41.64,0-.16.22-.14.22,0-.08,24.87-.92,49.76-2.19,74.61s-3,49.41-5.43,74c-1.35,13.83-2.85,27.65-4.77,41.4a.09.09,0,1,1-.17,0C88,424.2,89.25,411.77,90.39,399.32Z" style="fill:#37474f"></path><path d="M111.83,411.34s1.08,42.87,1.08,42.9c.16,8.19.45,15.38,1,19.08a.13.13,0,0,0,0,.06,5.71,5.71,0,0,0,.65,2.52l0,.05c2.47,1.61,68,2.21,70.32,1.46s.34-7.34-2.19-9.4-27.53-13.51-27.53-13.51l-1.48-42.83Z" style="fill:#f7a9a0"></path><path d="M112.69,445.44s.22,8.77.22,8.8c.16,8.19.45,15.38,1,19.08a.13.13,0,0,0,0,.06,11.18,11.18,0,0,0,.65,2.52l0,.05c2.47,1.61,68,2.21,70.32,1.46s.34-7.34-2.19-9.4-27.53-13.51-27.53-13.51l-.1-8.93Z" style="fill:#fff"></path><path d="M159.19,454.46c-4.38-.64-9.67.23-12.87,3.45-.12.12.06.3.2.25A60.55,60.55,0,0,1,159.19,455,.28.28,0,0,0,159.19,454.46Z" style="fill:#263238"></path><path d="M162.4,456.23c-4.38-.64-9.67.23-12.87,3.45-.12.12.06.3.19.25a60.8,60.8,0,0,1,12.68-3.15A.28.28,0,0,0,162.4,456.23Z" style="fill:#263238"></path><path d="M165.61,458c-4.38-.64-9.67.23-12.87,3.45-.13.12,0,.3.19.25a60.8,60.8,0,0,1,12.68-3.15A.28.28,0,0,0,165.61,458Z" style="fill:#263238"></path><path d="M184.89,477.41c-2.3.75-67.84.15-70.32-1.46-.95-.59-1.42-10.15-1.66-21.71v-.37l42.29-.08,0,.72S180.16,466,182.7,468,187.19,476.67,184.89,477.41Z" style="fill:#455a64"></path><path d="M184.17,474.86c-11-.37-55.64-.83-66.58-.36-.09,0-.09.06,0,.07,10.94.61,55.53.71,66.58.47C184.4,475,184.41,474.87,184.17,474.86Z" style="fill:#263238"></path><path d="M87.87,274.56s13.93,61,14.47,72.24c.46,9.6,7.43,108.2,7.43,108.2l49.24-.54S146.63,354,145.69,344c-1.75-18.7-12.47-69.81-25-115.39l-53.08.89s.86,24,12.06,41.12C79.7,270.63,84.67,272.83,87.87,274.56Z" style="fill:#263238"></path><path d="M112.23,445.88c5.69-.26,11.58-.53,17.28-.48s11.3,0,16.94.27c3.2.14,6.39.19,9.59.46.1,0,.1.16,0,.17-5.67.42-11.38.45-17.08.5s-11.29.07-16.94-.09c-3.2-.09-6.39-.2-9.59-.37C112.08,446.32,111.89,445.89,112.23,445.88Z" style="fill:#37474f"></path><path d="M100.06,275.54a44.84,44.84,0,0,1-7.32-.54,72.23,72.23,0,0,1-7.12-1.85,56.12,56.12,0,0,0-7-1,24.67,24.67,0,0,1-6.85-1.91.09.09,0,0,0-.08.15,42.7,42.7,0,0,0,6.57,2.72c2.35.7,4.79.76,7.17,1.3A61.09,61.09,0,0,0,92.79,276a26.26,26.26,0,0,0,7.3-.25C100.19,275.68,100.15,275.54,100.06,275.54Z" style="fill:#37474f"></path><path d="M99.52,328.31c-.35-2-.68-3.95-1.06-5.91-.76-4-1.54-7.95-2.42-11.89-1.74-7.84-3.36-15.72-5.23-23.53-1.06-4.42-2-8.9-3.28-13.25,0-.11-.17-.07-.16,0,.54,4,1.42,8,2.17,12s1.58,7.93,2.4,11.89c1.65,7.87,3.24,15.75,5.08,23.57.52,2.19,1,4.37,1.62,6.55s1,4.51,1.73,6.68a.09.09,0,0,0,.18,0C100.34,332.33,99.88,330.32,99.52,328.31Z" style="fill:#37474f"></path><path d="M119.42,255.49l5,22.84,4.89,22.87c1.63,7.62,3.19,15.26,4.76,22.9l2.29,11.47c.37,1.91.76,3.85,1,5.8l.62,5.82q2.28,23.28,4.36,46.57l2,23.3,1.91,23.31-2.4-23.26-2.32-23.28L137,347.29l-.6-5.81c-.19-1.93-.57-3.81-.92-5.73l-2.25-11.47-4.62-22.92L124,278.43Z" style="fill:#37474f"></path><path d="M99.43,170.65c-3.29.32-6.66-4.72-7.09-8.94,0-.31.69-3.09,1.5-6.53.48-2.09,1-4.44,1.27-6.6l13.15,5.13a35.07,35.07,0,0,0-2.44,8.15,4.58,4.58,0,0,0,0,.9.75.75,0,0,0,0,.15C105.84,164.64,102.61,170.33,99.43,170.65Z" style="fill:#f7a9a0"></path><path d="M90.18,130.29c-1.79,5.79.53,20.3,4.64,24,6,5.44,15.73,6,20.35-1.17,4.48-6.94,1.32-25.25-3.27-28.66C105.14,119.48,92.83,121.74,90.18,130.29Z" style="fill:#f7a9a0"></path><path d="M91,127.36s-3.33,3.57-3.74,5.65,0,10.06,3.4,15.15c1.25,1.84,1.18,5.69,3.23,7s11.37-4.07,12-5.66-1-6.78-1.35-8.94,2.17-2.59,2.85-2.23c4.26,2.28,4.76,7.94,5.16,7s1.73-3.85,1.81-5.93-3.61-8.36-3.45-10,2.5-.51,4-.77c.93-.16.7-5.76-.57-6.75s-4-.49-5.17-.57-2.58-1.58-5.7-1.66-6.84,1.64-8.35,2.23C92.72,122.79,91,127.36,91,127.36Z" style="fill:#263238"></path><path d="M111,142.44s-3.53-5.2-5.88-3.95.25,8.76,3,9.82a2.79,2.79,0,0,0,3.76-1.45Z" style="fill:#f7a9a0"></path><path d="M105.89,140.63s-.06.05,0,.07c1.92.81,2.9,2.61,3.59,4.47a1.54,1.54,0,0,0-2.3-.46.06.06,0,0,0,0,.11,1.71,1.71,0,0,1,1.88.62A8.08,8.08,0,0,1,110,147c.09.18.4.09.34-.11v-.05C110.38,144.37,108.52,140.91,105.89,140.63Z" style="fill:#263238"></path><path d="M55.15,253.65c.05.06,14.5,4.71,19.58,4.71.78,0,3.32-9.36,3.86-9.3s1.82,9.79,2.52,9.78c15.77,0,48.81-4.63,49.17-5s-5.07-20.61-5.53-23.29c-3.46-20.19-8.75-56.6-16.4-66.62-3.53-4.62-13.57-6.68-16.85-4.43-8.52,5.84-12.2,12.56-15.32,19.85-2.31,5.4-12.08,42.46-13.42,48.21C61.08,234.79,54.86,253.29,55.15,253.65Z" style="fill:#FFC727"></path><path d="M103.4,174.19c-2.53,22.48-2.79,39.09-2.15,43.78,1.63,12,7.75,33,10.1,37.58,1.52,3,29.92,0,28.52-3.31-4.76-11.28-16.21-39.44-16.36-39.84-1-2.74-4.05-22.23-8.06-36S104.69,162.77,103.4,174.19Z" style="fill:#f7a9a0"></path><path d="M139.37,250.83s7.68,20.73,6.85,29.72c-.42,4.51-5.3,23-9.81,21.94-4.09-1-1.46-6.93-1.46-6.93s-2.26,6.79-6,4.58.39-9.67.39-9.67-1.9,7.37-5.68,4.63c-3.29-2.38.6-11.47.6-11.47s-1.15,8-4.75,5.86c-4-2.33.12-16.69.12-16.69-7.5-7.38-8.69-11.6-8-18.64C111.7,253,139.37,250.83,139.37,250.83Z" style="fill:#f7a9a0"></path><path d="M128.5,292.61c.31-.6.6-1.2.9-1.8a33.6,33.6,0,0,0,1.61-3.57c.44-1.2.82-2.41,1.16-3.63s.6-2.64,1-3.92a.08.08,0,1,0-.15,0,36.48,36.48,0,0,1-1.35,3.75c-.47,1.21-.95,2.42-1.43,3.63s-.86,2.39-1.3,3.58c-.22.6-.47,1.19-.71,1.77a10.21,10.21,0,0,0-.66,1.69c0,.05.06.08.1,0A8.43,8.43,0,0,0,128.5,292.61Z" style="fill:#263238"></path><path d="M134.45,297a52.88,52.88,0,0,0,3.15-6.55,36.47,36.47,0,0,0,1.91-7,.07.07,0,0,0-.14,0c-.88,2.26-1.72,4.55-2.56,6.83-.42,1.12-2.44,6.13-2.59,6.68C134.18,297,134.38,297.06,134.45,297Z" style="fill:#263238"></path><path d="M122.81,288.67a51.75,51.75,0,0,0,2.84-6.21A46.78,46.78,0,0,0,127,275.6c0-.08-.12-.12-.14,0-.63,2.24-1.22,4.49-2,6.69-.36,1.08-2,5.29-2.29,6.35C122.61,288.69,122.75,288.75,122.81,288.67Z" style="fill:#263238"></path><path d="M108.14,255.12l31.24-9.42s-14-31.6-15.38-34.26-4.65-27-9.09-38.24-10.47-13.14-12.48,1.9-2.2,35.71-1.93,42.41S108.14,255.12,108.14,255.12Z" style="fill:#FFC727"></path><path d="M135.05,239.61c-1.18.16-2.33.55-3.5.83s-2.31.59-3.46.92c-2.22.62-4.43,1.28-6.63,1.95l-6.61,2c-2.28.7-4.63,1.31-6.85,2.19a.08.08,0,0,0,0,.16c2.33-.45,4.64-1.21,6.93-1.85l6.78-1.89c2.26-.64,4.52-1.29,6.77-2,1.1-.34,2.2-.68,3.29-1.06a33.72,33.72,0,0,0,3.29-1.16C135.2,239.71,135.13,239.6,135.05,239.61Z" style="fill:#263238"></path><path d="M110.79,254.32l-2.63.89-.09,0,0-.09c-1.56-6.11-3-12.26-4.38-18.41l-2-9.27c-.62-3.1-1.27-6.18-1.67-9.35a81.92,81.92,0,0,1-.21-9.52c.06-3.16.22-6.31.41-9.46.39-6.3.9-12.59,1.58-18.87-.32,6.3-.62,12.6-.86,18.9s-.55,12.64,0,18.83c.94,6.19,2.23,12.39,3.49,18.56l3.72,18.55-.11-.06Z" style="fill:#263238"></path><path d="M100.63,182.06l.17,1.38.2,1.35c.13.91.3,1.81.37,2.75a8.7,8.7,0,0,1-.86-2.67A6.66,6.66,0,0,1,100.63,182.06Z" style="fill:#263238"></path></g></svg>