<svg xmlns="http://www.w3.org/2000/svg" viewBox="0 0 500 500"><g id="freepik--Shadow--inject-15"><ellipse cx="192.04" cy="450.37" rx="108.11" ry="9.36" style="fill:#ebebeb"></ellipse></g><g id="freepik--Plant--inject-15"><rect x="282.45" y="360.57" width="173.81" height="68.27" style="fill:#263238"></rect><path d="M453,360.57s-2.4-10-7.18-11.59-7.69,3-7.69,3-1.13-9.59-7.91-12.47-11.86,3-11.86,3-5.2-12.18-14.5-12.18-14,17.82-14,17.82-5.48-5.31-11.11-2.31-5.62,14.76-5.62,14.76Z" style="fill:#37474f"></path><path d="M357.75,360.57h-72s2.37-9.13,7.14-9.77a7.09,7.09,0,0,1,7,3.58s-.22-12.73,8.7-14.9,16.4,9.08,16.4,9.08,5.59-6.41,13.21-6,9.55,11,9.55,11S354.68,349.89,357.75,360.57Z" style="fill:#37474f"></path><path d="M378.29,360.57H334.05s.11-5.92,4.45-7.49a6.31,6.31,0,0,1,6.94,1.5s1.77-10.89,9.88-10.89,12,9.39,12,9.39,1.82-2.84,6.32-2.31S378.29,360.57,378.29,360.57Z" style="fill:#455a64"></path><rect x="276.39" y="420.6" width="145.33" height="8.06" style="fill:#FFC727"></rect><rect x="276.39" y="410.6" width="145.33" height="8.06" style="fill:#FFC727"></rect><rect x="276.39" y="400.59" width="145.33" height="8.06" style="fill:#FFC727"></rect><rect x="276.39" y="390.59" width="145.33" height="8.06" style="fill:#FFC727"></rect><rect x="276.39" y="380.58" width="145.33" height="8.06" style="fill:#FFC727"></rect><rect x="276.39" y="370.58" width="145.33" height="8.06" style="fill:#FFC727"></rect><rect x="276.39" y="360.57" width="145.33" height="8.06" style="fill:#FFC727"></rect><rect x="421.73" y="420.6" width="40.6" height="8.06" style="fill:#FFC727"></rect><rect x="421.73" y="420.6" width="40.6" height="8.06" style="fill:#020100;opacity:0.2"></rect><rect x="421.73" y="410.6" width="40.6" height="8.06" style="fill:#FFC727"></rect><rect x="421.73" y="410.6" width="40.6" height="8.06" style="fill:#020100;opacity:0.2"></rect><rect x="421.73" y="400.59" width="40.6" height="8.06" style="fill:#FFC727"></rect><rect x="421.73" y="400.59" width="40.6" height="8.06" style="fill:#020100;opacity:0.2"></rect><rect x="421.73" y="390.59" width="40.6" height="8.06" style="fill:#FFC727"></rect><rect x="421.73" y="390.59" width="40.6" height="8.06" style="fill:#020100;opacity:0.2"></rect><rect x="421.73" y="380.58" width="40.6" height="8.06" style="fill:#FFC727"></rect><rect x="421.73" y="380.58" width="40.6" height="8.06" style="fill:#020100;opacity:0.2"></rect><rect x="421.73" y="370.58" width="40.6" height="8.06" style="fill:#FFC727"></rect><rect x="421.73" y="370.58" width="40.6" height="8.06" style="fill:#020100;opacity:0.2"></rect><rect x="421.73" y="360.57" width="40.6" height="8.06" style="fill:#FFC727"></rect><rect x="421.73" y="360.57" width="40.6" height="8.06" style="fill:#020100;opacity:0.2"></rect></g><g id="freepik--Floor--inject-15"><polygon points="34.98 428.85 88.73 428.6 142.49 428.52 250 428.35 357.51 428.51 411.27 428.6 465.02 428.85 411.27 429.09 357.51 429.18 250 429.35 142.49 429.18 88.73 429.09 34.98 428.85" style="fill:#263238"></polygon></g><g id="freepik--Drone--inject-15"><polygon points="357.37 111.85 343.63 120.06 342.17 126.09 344.73 126.09 345.89 121.5 361.63 111.85 357.37 111.85" style="fill:#FFC727"></polygon><polygon points="357.37 111.85 343.63 120.06 342.17 126.09 344.73 126.09 345.89 121.5 361.63 111.85 357.37 111.85" style="fill:#263238;opacity:0.1"></polygon><path d="M323.24,50.9a92.84,92.84,0,0,1,14.3,1.49,17.84,17.84,0,0,1,1.74.46,3.49,3.49,0,0,1,1.6.89.58.58,0,0,1,.08.51,1.06,1.06,0,0,1-.31.38,3.61,3.61,0,0,1-.81.45,13.75,13.75,0,0,1-1.73.53,55.43,55.43,0,0,1-7.12,1.1c-4.78.45-9.57.64-14.37.71s-9.59-.15-14.38-.28l7.19.11c2.4.07,4.79,0,7.19,0,4.79-.09,9.58-.31,14.35-.79a56.35,56.35,0,0,0,7.09-1,13.41,13.41,0,0,0,1.7-.52,3.76,3.76,0,0,0,.77-.41c.24-.17.36-.43.2-.65a3.49,3.49,0,0,0-1.5-.83c-.57-.18-1.15-.33-1.73-.46a62.65,62.65,0,0,0-7.1-1.06C328,51.23,325.63,51,323.24,50.9Z" style="fill:#c7c7c7"></path><path d="M293.74,56.56c-1.7-.15-3.39-.33-5.08-.58a19.77,19.77,0,0,1-5-1.25,2.26,2.26,0,0,1-.55-.38.61.61,0,0,1-.17-.67,2.16,2.16,0,0,1,1.06-.77,15.48,15.48,0,0,1,2.47-.72c1.67-.35,3.36-.59,5.05-.79,3.39-.36,6.79-.56,10.19-.69s6.81-.17,10.21-.11q-5.1.06-10.2.27c-3.4.16-6.79.39-10.17.78-1.69.18-3.38.41-5,.74a14.11,14.11,0,0,0-2.43.69,2,2,0,0,0-1,.67c-.15.35.28.66.63.83a20,20,0,0,0,4.9,1.29C290.36,56.15,292,56.37,293.74,56.56Z" style="fill:#c7c7c7"></path><path d="M298.33,50.17c-2.91.15-5.8.36-8.69.65A77.58,77.58,0,0,0,281,52.05a20.87,20.87,0,0,0-2.1.55,4.17,4.17,0,0,0-1.84,1c-.21.27,0,.61.24.81a4,4,0,0,0,.93.51,16.52,16.52,0,0,0,2.07.64,68.77,68.77,0,0,0,8.59,1.32c5.77.61,11.58.9,17.38,1,2.9.07,5.81.11,8.71,0l8.71-.09c-5.8.11-11.61.38-17.42.21s-11.62-.38-17.41-1a69.49,69.49,0,0,1-8.61-1.37,14.12,14.12,0,0,1-2.09-.67,4.17,4.17,0,0,1-1-.53,1.2,1.2,0,0,1-.37-.46.64.64,0,0,1,.09-.6,4.24,4.24,0,0,1,1.93-1.06c.7-.22,1.41-.4,2.12-.55A114.58,114.58,0,0,1,298.33,50.17Z" style="fill:#c7c7c7"></path><path d="M334,57.23c2.05-.21,4.1-.46,6.13-.79a24.09,24.09,0,0,0,5.95-1.52c.43-.21,1-.58.79-1a2.47,2.47,0,0,0-1.19-.84,17.76,17.76,0,0,0-2.95-.85c-2-.42-4.06-.7-6.1-.94-4.09-.5-8.21-.8-12.32-1S316.1,50,312,49.88c4.12,0,8.24,0,12.36.22s8.24.46,12.35.92c2,.26,4.09.55,6.11,1a17.3,17.3,0,0,1,3,.89,2.54,2.54,0,0,1,1.28.93.75.75,0,0,1-.21.79,3.16,3.16,0,0,1-.66.44,13.76,13.76,0,0,1-3,.94c-1,.23-2,.4-3.05.56C338.14,56.85,336.09,57.06,334,57.23Z" style="fill:#c7c7c7"></path><path d="M331.44,73.45a95.25,95.25,0,0,1,14.3,1.49,18.09,18.09,0,0,1,1.75.47,3.48,3.48,0,0,1,1.6.88.54.54,0,0,1,.07.51.93.93,0,0,1-.31.39,3.19,3.19,0,0,1-.81.44,12.85,12.85,0,0,1-1.73.54,57.05,57.05,0,0,1-7.11,1.09c-4.78.46-9.58.64-14.37.71s-9.59-.14-14.39-.27l7.19.1c2.4.07,4.8.06,7.19,0,4.79-.1,9.59-.31,14.35-.79a58.42,58.42,0,0,0,7.1-1,12.81,12.81,0,0,0,1.7-.52,3,3,0,0,0,.77-.41c.23-.16.36-.43.2-.64a3.38,3.38,0,0,0-1.51-.83,16.79,16.79,0,0,0-1.72-.47,67.9,67.9,0,0,0-7.1-1.06C336.22,73.79,333.83,73.6,331.44,73.45Z" style="fill:#c7c7c7"></path><path d="M301.94,79.11c-1.7-.14-3.39-.32-5.07-.57a20.3,20.3,0,0,1-5-1.26,2.79,2.79,0,0,1-.55-.37.64.64,0,0,1-.17-.67,2.07,2.07,0,0,1,1.07-.77,14.4,14.4,0,0,1,2.46-.72c1.68-.35,3.36-.59,5.06-.79,3.38-.37,6.79-.57,10.19-.7s6.8-.16,10.21-.11c-3.41,0-6.81.13-10.21.27s-6.79.39-10.17.78c-1.68.19-3.37.41-5,.75a14.45,14.45,0,0,0-2.44.68,2.07,2.07,0,0,0-1,.68c-.14.35.28.65.64.83a20.2,20.2,0,0,0,4.9,1.28C298.56,78.71,300.25,78.93,301.94,79.11Z" style="fill:#c7c7c7"></path><path d="M306.53,72.72c-2.9.16-5.8.36-8.69.65a80.74,80.74,0,0,0-8.61,1.23,21.64,21.64,0,0,0-2.1.56,4.14,4.14,0,0,0-1.83,1c-.21.27-.05.61.24.81a4.14,4.14,0,0,0,.93.5,14.47,14.47,0,0,0,2.06.64,69.08,69.08,0,0,0,8.59,1.33c5.78.61,11.58.9,17.39,1,2.9.07,5.8.1,8.71,0l8.71-.09c-5.81.12-11.62.38-17.43.22s-11.62-.38-17.4-1a70,70,0,0,1-8.62-1.37,15.81,15.81,0,0,1-2.09-.66,4.21,4.21,0,0,1-1-.54,1,1,0,0,1-.36-.46.67.67,0,0,1,.08-.6A4.32,4.32,0,0,1,287.08,75c.7-.22,1.4-.39,2.12-.55A115.75,115.75,0,0,1,306.53,72.72Z" style="fill:#c7c7c7"></path><path d="M342.24,79.79c2.05-.21,4.09-.46,6.13-.8a24.09,24.09,0,0,0,5.95-1.52c.43-.2,1-.57.78-1a2.43,2.43,0,0,0-1.19-.83,17.49,17.49,0,0,0-3-.85c-2-.43-4-.71-6.1-1-4.09-.49-8.2-.79-12.32-1s-8.24-.32-12.36-.38c4.12,0,8.25,0,12.37.22s8.24.45,12.34.92c2.05.25,4.09.55,6.11,1a18.19,18.19,0,0,1,3,.88,2.62,2.62,0,0,1,1.28.93.73.73,0,0,1-.21.8,2.92,2.92,0,0,1-.66.44,13.94,13.94,0,0,1-3,.93c-1,.23-2,.41-3,.56C346.34,79.4,344.29,79.62,342.24,79.79Z" style="fill:#c7c7c7"></path><path d="M414.16,51.16c-2.4.13-4.79.3-7.17.55a65.08,65.08,0,0,0-7.11,1,17.59,17.59,0,0,0-1.73.45,3.52,3.52,0,0,0-1.51.82c-.16.22,0,.48.2.65a3,3,0,0,0,.77.41,12,12,0,0,0,1.7.53,56,56,0,0,0,7.08,1.09c4.77.5,9.56.75,14.35.87,2.39.06,4.79.09,7.19,0l7.19-.07c-4.79.11-9.59.33-14.39.19s-9.59-.31-14.36-.79a56.86,56.86,0,0,1-7.11-1.13,12.89,12.89,0,0,1-1.73-.55,3.61,3.61,0,0,1-.81-.45.94.94,0,0,1-.3-.38.54.54,0,0,1,.07-.51A3.56,3.56,0,0,1,398.1,53a17.26,17.26,0,0,1,1.75-.45A92.74,92.74,0,0,1,414.16,51.16Z" style="fill:#c7c7c7"></path><path d="M443.62,57c1.7-.18,3.39-.39,5.06-.67a19.89,19.89,0,0,0,4.91-1.25c.35-.17.78-.48.64-.83a2.09,2.09,0,0,0-1-.68,14.13,14.13,0,0,0-2.43-.7c-1.66-.34-3.34-.58-5-.77-3.38-.41-6.77-.66-10.17-.84s-6.8-.27-10.2-.33c3.4,0,6.81,0,10.21.17s6.8.37,10.19.75c1.69.22,3.38.46,5,.82a14,14,0,0,1,2.46.74,2.15,2.15,0,0,1,1.07.77.64.64,0,0,1-.18.67,2.21,2.21,0,0,1-.55.37,19.38,19.38,0,0,1-5,1.23C447,56.68,445.32,56.85,443.62,57Z" style="fill:#c7c7c7"></path><path d="M439.07,50.57a114.32,114.32,0,0,1,17.32,1.82c.72.16,1.42.34,2.12.56A4.45,4.45,0,0,1,460.44,54a.67.67,0,0,1,.08.6,1.13,1.13,0,0,1-.37.46,3.83,3.83,0,0,1-1,.53,14.16,14.16,0,0,1-2.1.65,67.7,67.7,0,0,1-8.62,1.32c-5.79.55-11.6.78-17.41.87s-11.62-.17-17.42-.31l8.71.14c2.9.08,5.81.06,8.71,0,5.81-.12,11.61-.37,17.39-.95a69.4,69.4,0,0,0,8.6-1.28,14.43,14.43,0,0,0,2.06-.63,3.53,3.53,0,0,0,.94-.5c.29-.19.45-.53.24-.8a4.06,4.06,0,0,0-1.83-1,20.75,20.75,0,0,0-2.09-.57,80.12,80.12,0,0,0-8.61-1.28C444.87,51,442,50.74,439.07,50.57Z" style="fill:#c7c7c7"></path><path d="M403.32,57.43c-2.05-.18-4.1-.41-6.14-.71-1-.16-2-.34-3-.57a14,14,0,0,1-3-1,3.16,3.16,0,0,1-.66-.44.74.74,0,0,1-.2-.8A2.58,2.58,0,0,1,391.6,53a17.6,17.6,0,0,1,3-.87c2-.43,4.07-.71,6.12-.95,4.1-.45,8.22-.7,12.34-.85s8.25-.21,12.37-.15c-4.12,0-8.24.13-12.36.31s-8.23.46-12.33.93c-2,.23-4.09.5-6.1.91a16.68,16.68,0,0,0-3,.84,2.44,2.44,0,0,0-1.19.82c-.18.45.35.82.78,1a24,24,0,0,0,5.94,1.55C399.23,57,401.27,57.21,403.32,57.43Z" style="fill:#c7c7c7"></path><path d="M405.82,73.67c-2.39.13-4.78.3-7.17.54a65.25,65.25,0,0,0-7.1,1c-.59.13-1.17.28-1.73.46a3.46,3.46,0,0,0-1.51.82c-.16.22,0,.48.2.65a4,4,0,0,0,.76.41,14,14,0,0,0,1.7.53,56.46,56.46,0,0,0,7.09,1.09c4.76.5,9.55.75,14.34.87,2.4.06,4.8.09,7.19,0l7.19-.06c-4.79.1-9.58.33-14.38.19s-9.59-.31-14.37-.79a57.16,57.16,0,0,1-7.11-1.13,13.22,13.22,0,0,1-1.72-.55,3.22,3.22,0,0,1-.81-.45,1.06,1.06,0,0,1-.31-.38.57.57,0,0,1,.08-.51,3.39,3.39,0,0,1,1.6-.88,18,18,0,0,1,1.75-.46A93,93,0,0,1,405.82,73.67Z" style="fill:#c7c7c7"></path><path d="M435.29,79.5c1.69-.18,3.38-.39,5.06-.67a20.47,20.47,0,0,0,4.91-1.25c.35-.18.77-.48.63-.83a2,2,0,0,0-1-.68,14.67,14.67,0,0,0-2.43-.7c-1.66-.35-3.35-.58-5-.78-3.37-.4-6.76-.66-10.16-.83s-6.8-.27-10.2-.33c3.4,0,6.8,0,10.21.17s6.8.37,10.18.75c1.69.21,3.38.46,5,.82a15.4,15.4,0,0,1,2.46.73,2.08,2.08,0,0,1,1.06.78.61.61,0,0,1-.17.67,2.79,2.79,0,0,1-.55.37,20.36,20.36,0,0,1-5,1.23C438.68,79.19,437,79.36,435.29,79.5Z" style="fill:#c7c7c7"></path><path d="M430.74,73.08a114.59,114.59,0,0,1,17.32,1.82c.71.16,1.42.33,2.11.56a4.16,4.16,0,0,1,1.93,1.07.64.64,0,0,1,.09.6,1.13,1.13,0,0,1-.37.46,4,4,0,0,1-1,.53,15.32,15.32,0,0,1-2.09.65,68,68,0,0,1-8.62,1.32c-5.79.55-11.6.78-17.41.87s-11.62-.17-17.43-.32l8.72.14c2.9.09,5.8.07,8.71,0,5.8-.12,11.61-.38,17.38-1a68.85,68.85,0,0,0,8.6-1.28,14.56,14.56,0,0,0,2.07-.63,4.14,4.14,0,0,0,.93-.5c.29-.2.46-.53.25-.81a4.25,4.25,0,0,0-1.83-1c-.69-.22-1.39-.4-2.09-.56a78,78,0,0,0-8.61-1.28C436.53,73.47,433.64,73.25,430.74,73.08Z" style="fill:#c7c7c7"></path><path d="M395,79.94c-2.05-.19-4.1-.41-6.15-.71-1-.16-2-.34-3-.58a14.1,14.1,0,0,1-2.95-1,2.66,2.66,0,0,1-.66-.45.72.72,0,0,1-.2-.79,2.57,2.57,0,0,1,1.28-.93,17.2,17.2,0,0,1,3-.86c2-.43,4.07-.71,6.12-1,4.11-.44,8.23-.69,12.35-.85s8.25-.2,12.37-.14q-6.18,0-12.37.3c-4.11.19-8.23.47-12.32.94-2,.23-4.09.5-6.11.91a17.44,17.44,0,0,0-3,.83,2.5,2.5,0,0,0-1.2.83c-.17.44.36.82.78,1a24.63,24.63,0,0,0,5.94,1.55C390.89,79.45,392.94,79.72,395,79.94Z" style="fill:#c7c7c7"></path><polygon points="310.23 82.55 356.49 81.3 356.47 86.78 310.91 88.03 310.23 82.55" style="fill:#FFC727"></polygon><polygon points="310.23 82.55 356.49 81.3 356.47 86.78 310.91 88.03 310.23 82.55" style="opacity:0.1"></polygon><polygon points="328.49 89.89 313.81 90.33 313.13 87.97 329.19 87.53 328.49 89.89" style="fill:#FFC727"></polygon><polygon points="328.49 89.89 313.81 90.33 313.13 87.97 329.19 87.53 328.49 89.89" style="opacity:0.2"></polygon><rect x="318.81" y="77.83" width="4.75" height="4.75" transform="translate(0.23 -0.92) rotate(0.16)" style="fill:#263238"></rect><rect x="320.17" y="75.22" width="2.05" height="2.61" transform="translate(0.22 -0.91) rotate(0.16)" style="fill:#37474f"></rect><polygon points="320.17 75.6 296.8 75.53 296.8 76.02 314.15 77.46 320.17 76.42 320.17 75.6" style="fill:#a6a6a6"></polygon><polygon points="322.22 75.6 345.59 75.67 345.58 76.16 328.22 77.5 322.21 76.43 322.22 75.6" style="fill:#a6a6a6"></polygon><polygon points="427.76 82.88 381.51 81.37 381.5 86.85 427.05 88.37 427.76 82.88" style="fill:#FFC727"></polygon><polygon points="427.76 82.88 381.51 81.37 381.5 86.85 427.05 88.37 427.76 82.88" style="opacity:0.1"></polygon><polygon points="409.46 90.12 424.13 90.65 424.83 88.29 408.77 87.76 409.46 90.12" style="fill:#FFC727"></polygon><polygon points="409.46 90.12 424.13 90.65 424.83 88.29 408.77 87.76 409.46 90.12" style="opacity:0.2"></polygon><rect x="414.45" y="78.11" width="4.75" height="4.75" transform="translate(833.42 162.14) rotate(-179.84)" style="fill:#263238"></rect><rect x="415.81" y="75.5" width="2.05" height="2.61" transform="translate(833.45 154.8) rotate(-179.83)" style="fill:#37474f"></rect><polygon points="417.86 75.88 441.23 75.94 441.23 76.43 423.87 77.78 417.86 76.7 417.86 75.88" style="fill:#a6a6a6"></polygon><polygon points="415.82 75.87 392.45 75.8 392.44 76.29 409.8 77.74 415.81 76.69 415.82 75.87" style="fill:#a6a6a6"></polygon><polygon points="368.82 89.03 368.87 71.89 353.65 71.84 340.5 60.51 300.35 60.4 301.65 65.86 338.53 65.97 355.5 88.99 368.82 89.03" style="fill:#FFC727"></polygon><polygon points="319.72 68.28 305.05 68.23 304.36 65.87 320.42 65.92 319.72 68.28" style="fill:#FFC727"></polygon><polygon points="319.72 68.28 305.05 68.23 304.36 65.87 320.42 65.92 319.72 68.28" style="opacity:0.1"></polygon><rect x="309.58" y="55.68" width="4.75" height="4.75" transform="translate(0.17 -0.9) rotate(0.17)" style="fill:#263238"></rect><rect x="310.94" y="53.07" width="2.05" height="2.61" transform="translate(0.16 -0.88) rotate(0.16)" style="fill:#37474f"></rect><polygon points="310.94 53.45 287.57 53.38 287.57 53.87 304.93 55.31 310.94 54.27 310.94 53.45" style="fill:#a6a6a6"></polygon><polygon points="312.99 53.45 336.36 53.52 336.36 54.01 318.99 55.35 312.99 54.28 312.99 53.45" style="fill:#a6a6a6"></polygon><polygon points="368.82 89.03 368.87 71.89 384.09 71.93 397.31 60.67 437.46 60.79 436.12 66.25 399.25 66.14 382.14 89.06 368.82 89.03" style="fill:#FFC727"></polygon><polygon points="418.04 68.56 432.72 68.6 433.42 66.24 417.36 66.19 418.04 68.56" style="fill:#FFC727"></polygon><polygon points="418.04 68.56 432.72 68.6 433.42 66.24 417.36 66.19 418.04 68.56" style="opacity:0.1"></polygon><rect x="423.5" y="56.01" width="4.75" height="4.75" transform="translate(851.57 117.98) rotate(-179.84)" style="fill:#263238"></rect><rect x="424.86" y="53.4" width="2.05" height="2.61" transform="translate(851.6 110.63) rotate(-179.83)" style="fill:#37474f"></rect><polygon points="426.91 53.78 450.28 53.84 450.28 54.34 432.91 55.68 426.9 54.6 426.91 53.78" style="fill:#a6a6a6"></polygon><polygon points="424.86 53.77 401.49 53.7 401.49 54.2 418.85 55.64 424.86 54.6 424.86 53.77" style="fill:#a6a6a6"></polygon><polygon points="361.55 67.4 376.22 67.44 377.6 71.92 360.15 71.87 361.55 67.4" style="fill:#FFC727"></polygon><polygon points="361.55 67.4 376.22 67.44 377.6 71.92 360.15 71.87 361.55 67.4" style="opacity:0.1"></polygon><polygon points="380.14 111.85 357.37 111.85 355.5 88.99 382.24 88.99 380.14 111.85" style="fill:#FFC727"></polygon><circle cx="368.87" cy="100.42" r="9.97" transform="translate(-10.23 149.76) rotate(-22.64)" style="opacity:0.1"></circle><circle cx="368.87" cy="100.42" r="7.8" transform="translate(237.78 459.54) rotate(-85.18)" style="fill:#263238"></circle><path d="M371.46,100.42a2.59,2.59,0,1,1-2.59-2.59A2.58,2.58,0,0,1,371.46,100.42Z" style="fill:#37474f"></path><path d="M373,96.41a1.7,1.7,0,0,1-2.33.24c-.9-.53-1.34-1.48-1-2.13A2,2,0,0,1,373,96.41Z" style="fill:#fff"></path><path d="M374.6,99.27c-.37.21-.91,0-1.21-.55a1,1,0,0,1,.13-1.32c.37-.21.91,0,1.21.55A1,1,0,0,1,374.6,99.27Z" style="fill:#fff"></path><path d="M380.3,91.69a1,1,0,1,1-2,0,1,1,0,1,1,2,0Z" style="fill:#ce5a4a"></path><polygon points="355.5 88.99 382.24 88.99 382.19 89.6 355.64 90.72 355.5 88.99" style="opacity:0.1"></polygon><rect x="333.12" y="120.95" width="71.13" height="50.5" style="fill:#FFC727"></rect><rect x="333.12" y="120.95" width="71.13" height="50.5" style="fill:#263238;opacity:0.1"></rect><rect x="380.03" y="120.96" width="24.22" height="50.5" style="fill:#263238;opacity:0.2"></rect><path d="M402.58,168q-2.68-5.39-5.33-10.81L392,146.31l-5.18-10.91q-2.58-5.46-5.11-11,2.69,5.4,5.33,10.81l5.25,10.86L397.47,157Q400,162.48,402.58,168Z" style="fill:#FFC727"></path><path d="M402.58,124.43q-2.54,5.5-5.11,11l-5.19,10.91L387,157.17q-2.64,5.43-5.33,10.81,2.52-5.5,5.11-11L392,146.1l5.26-10.86Q399.89,129.82,402.58,124.43Z" style="fill:#FFC727"></path><polygon points="388.51 133.88 389.46 133.88 390.22 132.81 390.93 133.88 391.36 133.88 391.81 133.88 392.46 133.88 392.71 133.5 393.03 133.88 393.82 133.88 394.02 133.88 394.28 133.88 394.39 133.61 394.63 133.88 394.96 133.4 395.34 133.88 395.87 133.88 395.87 120.95 388.51 120.95 388.51 133.88" style="fill:#fff;opacity:0.7000000000000001"></polygon><rect x="346.56" y="160.9" width="0.51" height="7.27" transform="translate(693.63 329.06) rotate(180)" style="fill:#263238"></rect><rect x="345.32" y="160.9" width="0.52" height="7.27" transform="translate(691.16 329.06) rotate(180)" style="fill:#263238"></rect><rect x="344.09" y="160.9" width="0.52" height="7.27" transform="translate(688.69 329.06) rotate(180)" style="fill:#263238"></rect><rect x="342.85" y="160.9" width="0.52" height="7.27" transform="translate(686.22 329.06) rotate(180)" style="fill:#263238"></rect><rect x="341.61" y="160.9" width="0.52" height="7.27" transform="translate(683.74 329.06) rotate(180)" style="fill:#263238"></rect><rect x="340.38" y="160.9" width="0.52" height="7.27" transform="translate(681.27 329.06) rotate(180)" style="fill:#263238"></rect><rect x="339.14" y="160.9" width="0.52" height="7.27" transform="translate(678.8 329.06) rotate(180)" style="fill:#263238"></rect><rect x="337.91" y="160.9" width="0.52" height="7.27" transform="translate(676.33 329.06) rotate(180)" style="fill:#263238"></rect><rect x="336.67" y="160.9" width="0.52" height="7.27" transform="translate(673.85 329.06) rotate(180)" style="fill:#263238"></rect><path d="M352.13,167.61l-2,.55h4.65l-2-.56v-2.67c1.42-.19,2-1.59,2-4h-4.65c0,2.44.56,3.84,2,4Z" style="fill:#263238"></path><polygon points="355.88 164.6 357.1 164.6 357.1 168.16 360.21 168.16 360.21 164.6 361.43 164.6 358.65 160.9 355.88 164.6" style="fill:#263238"></polygon><polygon points="333.12 171.46 333.12 167.98 380.03 161.54 380.03 171.46 333.12 171.46" style="fill:#263238;opacity:0.1"></polygon><polygon points="380.13 111.85 393.87 120.06 395.34 126.09 392.77 126.09 391.61 121.5 375.87 111.85 380.13 111.85" style="fill:#FFC727"></polygon></g><g id="freepik--Character--inject-15"><path d="M181.52,378.17c0-39.09,25.48-70.89,56.8-70.89s56.8,31.8,56.8,70.89-25.48,70.89-56.8,70.89S181.52,417.26,181.52,378.17Zm5.68,0c0,36,22.93,65.21,51.12,65.21s51.11-29.25,51.11-65.21S266.5,313,238.32,313,187.2,342.22,187.2,378.17Z" style="fill:#263238"></path><path d="M183.59,378.17c0-34.65,22.54-62.84,50.25-62.84s50.25,28.19,50.25,62.84S261.54,441,233.84,441,183.59,412.82,183.59,378.17Zm4.06,0c0,32.41,20.72,58.78,46.19,58.78S280,410.58,280,378.17s-20.72-58.78-46.19-58.78S187.65,345.76,187.65,378.17Z" style="fill:#c7c7c7"></path><rect x="233.16" y="293.92" width="83.93" height="32.4" transform="translate(550.25 620.24) rotate(180)" style="fill:#a6a6a6"></rect><path d="M246.76,404.27h70.33v-4.06H246.76a11.54,11.54,0,0,1-11.53-11.53V231.49a15.62,15.62,0,0,0-15.6-15.6h-9.47V220h9.47a11.56,11.56,0,0,1,11.54,11.54V388.68A15.61,15.61,0,0,0,246.76,404.27Z" style="fill:#c7c7c7"></path><path d="M315.06,426.21h4.06v-134a14.06,14.06,0,0,0-14-14H233.2v4.06h71.88a10,10,0,0,1,10,10Z" style="fill:#c7c7c7"></path><ellipse cx="235.77" cy="378.17" rx="8.15" ry="10.27" style="fill:#c7c7c7"></ellipse><path d="M225,378.17c0,5.68,3.64,10.27,8.14,10.27s8.15-4.59,8.15-10.27-3.65-10.27-8.15-10.27S225,372.5,225,378.17Z" style="fill:#dbdbdb"></path><rect x="159.39" y="376.14" width="73.77" height="4.06" style="fill:#c7c7c7"></rect><ellipse cx="318.61" cy="437.64" rx="10.6" ry="13.37" style="fill:#c7c7c7"></ellipse><ellipse cx="315.21" cy="437.64" rx="10.6" ry="13.37" style="fill:#dbdbdb"></ellipse><rect x="197.58" y="213.74" width="25.15" height="8.07" transform="translate(420.31 435.56) rotate(180)" style="fill:#263238"></rect><rect x="159.39" y="232.36" width="71.71" height="77.76" transform="translate(390.49 542.48) rotate(180)" style="fill:#263238"></rect><rect x="241.31" y="430.56" width="94.19" height="12.15" transform="translate(576.8 873.27) rotate(180)" style="fill:#263238"></rect><path d="M344.36,432.81c-2.1.7-63.92.3-66.21-1.17-.27-.16-.36-5.75-.34-13.4v-.15c0-4.85-1.39-46.29-1.39-46.29l38.7-.21,2.3,40.8s8.34,3.51,15.6,7l0,0a86.29,86.29,0,0,1,9.26,4.79C344.63,426.07,346.47,432.12,344.36,432.81Z" style="fill:#eb9481"></path><path d="M344.36,432.81c-2.1.7-63.92.3-66.21-1.17-.26-.15-.35-5.32-.34-12.5,4.73.7,47.55,7,55.68,6.39,8.62-.65-5.15-8.22-5.15-8.22h.23c1.48.67,3,1.38,4.45,2.08l0,0a87.91,87.91,0,0,1,9.27,4.79C344.63,426.07,346.47,432.12,344.36,432.81Z" style="fill:#FFC727"></path><path d="M317.22,433.1c-17.71-.14-37.79-.63-39.07-1.46-.27-.16-.36-5.75-.34-13.41v-.14c0-4.85-1.39-46.29-1.39-46.29h3Z" style="fill:#263238;opacity:0.1"></path><path d="M219.29,257.88l6.09,11.74s62.51,8,76.32,26.53c15.87,21.29,19.95,114.22,19.95,114.22L276,409.5s-5.65-82.25-10.3-88.58-69.82-12.56-82.38-22.3-3.21-41.19-3.21-41.19Z" style="fill:#37474f"></path><path d="M276.51,401.13a38.13,38.13,0,0,1,4.14-.21l4.11-.07c2.8-.05,5.61,0,8.42,0,5.61,0,11.22.07,16.83.2,1.57,0,3.15.05,4.72.12s3.16.09,4.72.3c.06,0,.09.11,0,.12a75.28,75.28,0,0,1-8.23.29c-2.81,0-5.61.06-8.42.06q-8.42,0-16.83-.13c-1.58,0-3.15-.09-4.72-.14a41.36,41.36,0,0,1-4.72-.27C276.4,401.38,276.33,401.15,276.51,401.13Z" style="fill:#263238"></path><path d="M185.91,292.61c9.6,4.16,19.82,6.68,30.07,8.61s20.73,3.26,31.11,4.82c5.2.79,10.51,1.47,15.55,3a17.7,17.7,0,0,1,6.27,3,10.31,10.31,0,0,1,3.06,6c1.09,5.4,1.87,10.88,2.7,16.32S276.26,345.48,277,351c1.45,11.18,2.66,22.39,3.89,33.6.14,1.35.27,2.71.4,4.06,0,.14-.2.2-.22.05-1.43-11-2.7-22.09-4.15-33.12s-3-22.06-4.87-33c-.41-2.43-.64-5.07-1.63-7.35a8.93,8.93,0,0,0-5.18-4.55c-4.87-2-10.19-2.78-15.36-3.6-10.22-1.63-20.5-2.92-30.68-4.79a164.43,164.43,0,0,1-29.82-8.13c-1.17-.46-2.34-.94-3.5-1.43C185.8,292.7,185.84,292.58,185.91,292.61Z" style="fill:#263238"></path><path d="M312.46,433.36c-2.1.71-63.93.31-66.21-1.17-.28-.15-.36-5.75-.35-13.4v-.15c0-4.85-1.38-46.28-1.38-46.28l38.7-.22,2.3,40.81s8.34,3.5,15.6,7l0,0a83.78,83.78,0,0,1,9.26,4.8C312.72,426.62,314.57,432.68,312.46,433.36Z" style="fill:#eb9481"></path><path d="M312.46,433.36c-2.1.71-63.93.31-66.22-1.17-.26-.16-.35-5.51-.34-12.91,7.88,1.16,47,6.85,54.73,6.25,8.4-.63-4.51-7.87-5.13-8.21,1.83.84,3.76,1.72,5.62,2.61,0,0,0,0,0,0a84.38,84.38,0,0,1,9.26,4.79C312.72,426.62,314.57,432.68,312.46,433.36Z" style="fill:#FFC727"></path><path d="M286.79,410.89l-44.63-.14s5.12-87.61-3.23-93.71c-7.25-5.31-44.21-6.62-62.56-19.88-14.9-10.77-1.71-39.83-1.71-39.83l40.08.76s5.4,7.52,6.31,11.31c0,0,43.5,11.88,55.6,27.23C290.22,313.83,286.79,410.89,286.79,410.89Z" style="fill:#37474f"></path><path d="M243.21,403.12a39.49,39.49,0,0,1,4.07-.22l4-.07c2.76-.05,5.52,0,8.27,0,5.52,0,11,.06,16.55.18,1.55,0,3.1.05,4.64.12s3.11.08,4.64.29c.06,0,.09.12,0,.13a72.74,72.74,0,0,1-8.09.29c-2.76,0-5.52.07-8.27.07q-8.28,0-16.55-.11c-1.55,0-3.1-.08-4.64-.13a42.17,42.17,0,0,1-4.64-.27C243.1,403.37,243,403.14,243.21,403.12Z" style="fill:#263238"></path><path d="M221.05,269.4a313.63,313.63,0,0,1,33.41,12.3c4.89,2.2,9.89,4.37,14.37,7.36a30.12,30.12,0,0,1,10,10.78,46.75,46.75,0,0,1,4.5,14.13c.94,5.36,1.41,10.81,1.91,16.22,1.14,12.19,1.92,24.41,2.2,36.65s.09,24.55-.5,36.82c-.07,1.54-.19,3.09-.27,4.63a.08.08,0,1,1-.16,0c.45-12.08.37-24.22.06-36.3s-.93-24.19-1.94-36.25c-.48-5.78-1-11.56-1.75-17.31a60.83,60.83,0,0,0-3.37-14.4,28.53,28.53,0,0,0-8.53-11.93,61.63,61.63,0,0,0-13.35-7.66c-10.69-4.9-35.45-14.17-36.82-14.66C220.07,269.52,220.33,269.17,221.05,269.4Z" style="fill:#263238"></path><path d="M177,259.55c.4-1.57.42-.65.12,1.4a91.1,91.1,0,0,0-1.88,13.3,40.11,40.11,0,0,0,.35,9.42,16.81,16.81,0,0,0,4,8c4,4.13,9.47,6.81,14.8,8.5,6.09,1.92,12.39,3.12,18.6,4.57,6.45,1.5,27,6.88,28.37,7.47a4.73,4.73,0,0,1,2.54,2.3,20.69,20.69,0,0,1,1.21,4.07c3.05,12.49,3.33,24.36,3.39,37.15q.09,20.28-.78,40.52c-.07,1.64-.15,3.27-.2,4.9,0,.11-.17.1-.17,0,.2-6.78.19-13.57.21-20.35s.07-13.56.07-20.34c0-13,0-25-2.44-37.8-.32-1.63-1.66-7.79-2.64-8.82s-21.81-6.39-28.32-7.89c-6.2-1.44-12.48-2.62-18.6-4.41-5.37-1.56-11.22-4.18-15.54-7.85a17.05,17.05,0,0,1-4.32-6.53,21.44,21.44,0,0,1-1.27-8.7A83.25,83.25,0,0,1,177,259.55Z" style="fill:#263238"></path><path d="M183.69,273.87c3-1,6.59-1.4,9-3.62a8.16,8.16,0,0,0,2.19-3.86,19.09,19.09,0,0,0,.5-2.59c.11-.9.31-1.86.33-2.78,0-.1.16-.1.16,0,0,1,.21,2,.2,3.06a13.7,13.7,0,0,1-.3,2.7,8.66,8.66,0,0,1-2.19,4.28,8.89,8.89,0,0,1-4.33,2.16,28.84,28.84,0,0,1-5.52.94C183.53,274.18,183.54,273.92,183.69,273.87Z" style="fill:#263238"></path><path d="M207,217.55c10.81,18.3,25,34.38,32,33.95s28.56-23.64,31.43-30.32c1.24-2.88-15-13.45-18.14-12.2s-14,16.31-15.84,17.25c-1.33.68-13.52-9.82-23.21-16.53C207,205.43,201.24,207.91,207,217.55Z" style="fill:#eb9481"></path><path d="M268.3,225c1.84-2.05,10.44-13.15,11.93-16.44s5.08-13.07,2.68-14.47-3.69,1.39-3.69,1.39.87-4.37-1.68-5.55-4.4,3.2-4.4,3.2.56-4.55-2.07-5.55-3.74,3.73-3.74,3.73.7-4.14-1.81-4.05c-3,.1-3.46,7.88-5.37,11.38-.43.8-10,15.53-10,15.53Z" style="fill:#eb9481"></path><path d="M267.43,190.92c-.34,5.72-1.47,8.16-4.76,12.74-.06.09.06.21.13.12,3.63-4.19,5.5-7.05,4.91-12.86C267.68,190.64,267.45,190.65,267.43,190.92Z" style="fill:#263238"></path><path d="M273.16,192.7c-.87,5.9-2.08,8.56-5.17,13.62,0,.07.08.15.13.08,3.44-4.7,5.24-7.6,5.33-13.61C273.45,192.51,273.2,192.43,273.16,192.7Z" style="fill:#263238"></path><path d="M279.06,195.75c-1.26,5.66-2.46,8.63-6.08,13.15a.11.11,0,0,0,.16.15c4.14-4.25,5.67-8,6.09-13.24C279.25,195.45,279.14,195.39,279.06,195.75Z" style="fill:#263238"></path><path d="M248,217.08s-.91-7.12-.62-10.34,5.78-14.8,8.35-13.75c3.32,1.35,1.46,8.66.09,12.12,0,0,7.68,3.11,7.48,8.65S248,217.08,248,217.08Z" style="fill:#eb9481"></path><path d="M256.56,193.66c2.14,3.41,0,7.84-1,11.3a.32.32,0,0,0,.31.44c3.13,1.52,7.1,4.57,7.68,8.2a.08.08,0,1,0,.16,0c-.08-4-3.74-7.29-7.28-8.74,1.17-3.53,3.08-8.06.2-11.21C256.57,193.62,256.55,193.64,256.56,193.66Z" style="fill:#263238"></path><path d="M268.82,229.92l-23.68-14.58s-8.07,10.09-8.93,10.07S221.6,215,213.75,209.7s-12-1-7.61,7.22,21.05,34.49,31.74,35.24S268.82,229.92,268.82,229.92Z" style="fill:#FFC727"></path><path d="M209.92,220.49h-.07l-.13,0-.12.05-.08.05.48.41C210,220.88,210.11,220.56,209.92,220.49Zm24.06,4.6c-.09-.22-.5-.27-.69-.3a3.94,3.94,0,0,0-1.53,0,4.27,4.27,0,0,0-1,.27l-.49.2a0,0,0,0,1,0,0,9.36,9.36,0,0,0,1.54-.8,6.36,6.36,0,0,0,.7-.56,2.68,2.68,0,0,0,.5-.51l-.54-.38-.05,0a3.33,3.33,0,0,0-.79.42,5.1,5.1,0,0,0-.61.62,10.54,10.54,0,0,0-.89,1l0,0c.22-.42.41-.86.59-1.3a4.79,4.79,0,0,0,.43-1.7l-.45-.31a1.06,1.06,0,0,0-.27.29,2.09,2.09,0,0,0-.53,1.5c0,.47,0,.95,0,1.43h0c-.09-.48-.22-.94-.3-1.41a2.79,2.79,0,0,0-.55-1.47c-.11-.12-.33-.35-.51-.32s-.15.36-.13.49a4.07,4.07,0,0,0,.6,1.64c.2.38.39.78.61,1.15a.1.1,0,0,0-.05,0c-.1-.12-.2-.23-.29-.35s-.32-.55-.51-.81a3,3,0,0,0-1.19-.94c-.14-.06-.44-.16-.54,0s.09.45.17.58a3.69,3.69,0,0,0,1.17,1.09,10.38,10.38,0,0,0,1,.59c-.31-.1-.61-.19-.92-.27a3.38,3.38,0,0,0-1.73,0c-.19.06-1.1.47-.61.74a2.11,2.11,0,0,0,.83.15,5.13,5.13,0,0,0,1,0c.49-.06,1-.14,1.45-.23l0,.13a12.24,12.24,0,0,0-1.36.67,2.73,2.73,0,0,0-1.11,1.1c-.08.14-.27.43-.13.59s.38,0,.51,0A3,3,0,0,0,228.5,227l.63-.75c.1-.12.2-.26.31-.38a.27.27,0,0,0,.08.07l-.09.11a5.34,5.34,0,0,0-.8,1.2,3.4,3.4,0,0,0-.26.82,3.22,3.22,0,0,0-.09.87.59.59,0,0,0,.27.53c.2.09.4-.06.52-.21a1.66,1.66,0,0,0,.25-.65c.06-.31.12-.63.17-1,.1-.54.19-1.07.29-1.62h.09a7.67,7.67,0,0,0,.19,1.58,3.71,3.71,0,0,0,.67,1.52c.1.13.29.38.48.3s.19-.42.17-.61a5.22,5.22,0,0,0-.61-1.65c-.21-.42-.44-.82-.68-1.22a.18.18,0,0,0,.08-.07l.46.43a8.28,8.28,0,0,0,.83.74,4.73,4.73,0,0,0,1.65.66c.16,0,.44.07.39-.19a1.3,1.3,0,0,0-.46-.65,3.5,3.5,0,0,0-1.49-.81c-.42-.12-.86-.2-1.27-.34a.18.18,0,0,0,0-.12l.69.08a9.24,9.24,0,0,0,.92.11,3.23,3.23,0,0,0,1.73-.29C233.8,225.43,234.06,225.3,234,225.09Zm-12.68-9.6a3.3,3.3,0,0,0-1-.73,3.19,3.19,0,0,0-.79-.32l-.41-.1h0v0a9.86,9.86,0,0,0,1.41.23h.18l-.83-.6a6.85,6.85,0,0,0-.76.16,0,0,0,0,0,0,0,5.85,5.85,0,0,0,.56-.28l-.38-.26-.29.36,0,0c.07-.14.13-.28.19-.43l-.33-.24c0,.19-.07.38-.09.58h-.05a2.29,2.29,0,0,1,0-.37,2.83,2.83,0,0,1,0-.29c-.22-.17-.45-.33-.68-.49l.1.3a7,7,0,0,0,.37.89,7.36,7.36,0,0,0-.47-.63,2.72,2.72,0,0,0-1.11-.88c-.16-.06-.95-.24-.76.18a1.72,1.72,0,0,0,.46.51,4,4,0,0,0,.64.46c.34.21.7.39,1.06.57a.29.29,0,0,0,0,.1,10.25,10.25,0,0,0-1.23-.23,2.22,2.22,0,0,0-1.27.17c-.12.05-.39.15-.38.31s.22.23.34.26a2.47,2.47,0,0,0,1.37-.08l.78-.17.38-.1s0,.05,0,.08l-.11,0a4.38,4.38,0,0,0-1.12.39,2.91,2.91,0,0,0-.57.4,2.78,2.78,0,0,0-.5.53.49.49,0,0,0-.08.48c.08.15.29.15.44.12a1.25,1.25,0,0,0,.49-.3c.2-.17.39-.36.58-.54l1-.91s0,0,.06,0a6.33,6.33,0,0,0-.66,1.12,3.06,3.06,0,0,0-.32,1.33c0,.13,0,.39.17.43s.33-.18.41-.31a4.44,4.44,0,0,0,.43-1.38c.06-.37.11-.75.16-1.13h.08c0,.17.06.34.09.51a6.8,6.8,0,0,0,.17.9,4.2,4.2,0,0,0,.75,1.25c.09.11.26.26.35.06a1.11,1.11,0,0,0,0-.65,2.89,2.89,0,0,0-.58-1.27c-.21-.28-.45-.55-.64-.85l.07-.06c.13.14.27.26.4.39a6.88,6.88,0,0,0,.55.53,2.7,2.7,0,0,0,1.27.67c.13,0,.37.08.42-.11S221.41,215.61,221.3,215.49Zm29.19,4.17a2.47,2.47,0,0,0-.72-.12,5.77,5.77,0,0,0-.71.1c-.36.06-.73.12-1.08.21v0c.36-.17.7-.36,1-.56a4.18,4.18,0,0,0,1.1-.87l-.58-.35a1.79,1.79,0,0,0-.45.19,2.27,2.27,0,0,0-.5.48c-.25.3-.48.62-.73.92l0,0c.17-.35.31-.72.5-1.07a2.71,2.71,0,0,0,.36-1l-.54-.33a3.46,3.46,0,0,0-.38,1.28c-.05.34-.13.69-.17,1.05h0c0-.12,0-.24,0-.36s.07-.52.07-.78a2.45,2.45,0,0,0-.31-1.21c-.06-.1-.21-.32-.36-.25s-.16.34-.17.46a3,3,0,0,0,.22,1.3,7.46,7.46,0,0,0,.37.88c-.15-.21-.31-.43-.47-.63a2.72,2.72,0,0,0-1.11-.88c-.16-.06-1-.24-.76.18a1.61,1.61,0,0,0,.46.51,4.78,4.78,0,0,0,.64.47,10.72,10.72,0,0,0,1.06.56.36.36,0,0,0,0,.11,10.51,10.51,0,0,0-1.22-.24,2.21,2.21,0,0,0-1.27.17c-.12.05-.39.15-.38.32s.22.22.33.26a2.7,2.7,0,0,0,1.38-.08l.78-.18.37-.09s0,.05,0,.08l-.1,0a4.36,4.36,0,0,0-1.12.38,2.9,2.9,0,0,0-.58.41,3,3,0,0,0-.49.52.49.49,0,0,0-.08.48c.08.16.29.16.44.12a1.15,1.15,0,0,0,.48-.3l.59-.53c.34-.3.66-.61,1-.91l.07,0a5.91,5.91,0,0,0-.66,1.11,3.1,3.1,0,0,0-.32,1.33c0,.14,0,.39.17.43s.33-.18.41-.31a4.1,4.1,0,0,0,.42-1.38c.07-.37.12-.75.16-1.13h.09c0,.17,0,.34.08.51a9,9,0,0,0,.18.9,4.08,4.08,0,0,0,.75,1.25c.08.11.26.26.35.07a1.14,1.14,0,0,0,0-.66,2.91,2.91,0,0,0-.58-1.26c-.22-.3-.46-.56-.65-.87l.08-.05c.12.13.26.26.4.39a6.75,6.75,0,0,0,.54.53,2.69,2.69,0,0,0,1.28.67c.13,0,.37.08.42-.1s-.19-.43-.3-.54a3.34,3.34,0,0,0-1-.74,3.17,3.17,0,0,0-.79-.31l-.42-.12s0,0,0,0a9.79,9.79,0,0,0,1.42.24,5.93,5.93,0,0,0,.73,0,2.66,2.66,0,0,0,.63-.09c.09,0,.34-.1.28-.24S250.66,219.7,250.49,219.66Zm-6.78,15.89a2.85,2.85,0,0,0-.72-.11,4.33,4.33,0,0,0-.71.1,9.81,9.81,0,0,0-1.08.21,0,0,0,0,0,0,0,10.33,10.33,0,0,0,1-.55,3.79,3.79,0,0,0,1.14-.93c.08-.1.15-.23,0-.33s-.36-.06-.51,0a2.15,2.15,0,0,0-.59.24,2,2,0,0,0-.49.48c-.25.3-.48.62-.73.92l0,0c.17-.35.31-.72.5-1.07a2.3,2.3,0,0,0,.37-1.24c0-.13,0-.39-.17-.46s-.27.16-.33.25a3.54,3.54,0,0,0-.43,1.37c-.05.35-.13.7-.17,1.06h0a2.17,2.17,0,0,1,0-.36c0-.27.06-.52.06-.78a2.42,2.42,0,0,0-.31-1.21c-.06-.1-.21-.32-.36-.25s-.16.33-.17.46a3,3,0,0,0,.22,1.3,7.46,7.46,0,0,0,.37.88,7.36,7.36,0,0,0-.47-.63A2.72,2.72,0,0,0,239,234c-.16-.06-1-.24-.76.18a1.72,1.72,0,0,0,.46.51,4,4,0,0,0,.64.46,10.81,10.81,0,0,0,1.06.57.29.29,0,0,0,0,.1c-.41-.09-.81-.18-1.23-.23a2.21,2.21,0,0,0-1.27.17c-.12,0-.39.15-.38.32s.22.22.34.25a2.47,2.47,0,0,0,1.37-.08L240,236l.38-.1s0,0,0,.08l-.11,0a4.38,4.38,0,0,0-1.12.39,2.91,2.91,0,0,0-.57.4,2.78,2.78,0,0,0-.5.53.49.49,0,0,0-.08.48.38.38,0,0,0,.44.12,1.25,1.25,0,0,0,.49-.3c.2-.17.39-.36.58-.54l1-.91s0,0,.06,0a6.33,6.33,0,0,0-.66,1.12,3.06,3.06,0,0,0-.32,1.33c0,.13,0,.39.17.43s.33-.18.41-.31a4.44,4.44,0,0,0,.43-1.38c.06-.37.11-.75.16-1.13h.08c0,.17.06.34.09.51a6.8,6.8,0,0,0,.17.9,4.2,4.2,0,0,0,.75,1.25c.09.11.26.26.35.06a1.11,1.11,0,0,0,0-.65,2.89,2.89,0,0,0-.58-1.27c-.21-.28-.45-.55-.64-.85l.07-.06c.13.14.27.26.4.39a6.88,6.88,0,0,0,.55.53,2.7,2.7,0,0,0,1.27.67c.13,0,.37.08.42-.11s-.19-.42-.3-.53a4.26,4.26,0,0,0-1.8-1.06l-.41-.1h0v0a9.86,9.86,0,0,0,1.41.23,4.45,4.45,0,0,0,.73,0,2.84,2.84,0,0,0,.64-.1c.09,0,.33-.1.27-.23S243.88,235.6,243.71,235.55Zm18.47-4.48c-.09-.22-.5-.27-.69-.3a4.14,4.14,0,0,0-1.53,0,3.85,3.85,0,0,0-1,.28l-.49.2,0,0a10.86,10.86,0,0,0,1.55-.81,7.72,7.72,0,0,0,.7-.55,3.23,3.23,0,0,0,.54-.57c.07-.09.26-.34.1-.42s-.53,0-.73.11a3.77,3.77,0,0,0-.79.43,4.47,4.47,0,0,0-.61.62c-.31.33-.63.65-.9,1l0,0c.22-.42.41-.86.59-1.3a4.84,4.84,0,0,0,.43-1.74c0-.16,0-.34-.22-.35s-.39.21-.5.37a2.77,2.77,0,0,0-.4.66,2.89,2.89,0,0,0-.13.84c0,.47,0,1,0,1.43h0c-.09-.47-.23-.94-.31-1.42a2.75,2.75,0,0,0-.55-1.46c-.11-.13-.33-.35-.51-.33s-.15.36-.13.5a4.12,4.12,0,0,0,.6,1.64c.2.38.39.78.61,1.15a.05.05,0,0,0-.05,0c-.09-.12-.2-.23-.29-.36s-.32-.55-.51-.8a3,3,0,0,0-1.19-.94c-.14-.06-.44-.16-.54,0s.09.44.17.57a3.73,3.73,0,0,0,1.17,1.1,8.61,8.61,0,0,0,1,.58c-.31-.1-.61-.19-.92-.26a3.18,3.18,0,0,0-1.73,0c-.19.05-1.1.47-.61.73a2.12,2.12,0,0,0,.83.16,5.14,5.14,0,0,0,1,0c.49-.05,1-.14,1.45-.23,0,0,0,.09,0,.13a14.28,14.28,0,0,0-1.36.67,2.86,2.86,0,0,0-1.11,1.1c-.08.15-.27.43-.13.6s.38,0,.51,0A3.2,3.2,0,0,0,256.7,233l.63-.75c.1-.12.2-.26.31-.38a.27.27,0,0,0,.08.07l-.09.11a5.34,5.34,0,0,0-.8,1.2,3.27,3.27,0,0,0-.26.82,3.18,3.18,0,0,0-.09.87.61.61,0,0,0,.27.53.48.48,0,0,0,.52-.22,1.56,1.56,0,0,0,.25-.64c.06-.32.12-.64.17-1,.1-.54.19-1.07.29-1.61h.09a7.49,7.49,0,0,0,.19,1.57,3.75,3.75,0,0,0,.67,1.53c.1.12.29.38.48.29s.19-.42.17-.6a5.19,5.19,0,0,0-.61-1.66c-.21-.41-.44-.81-.68-1.21a.2.2,0,0,0,.08-.08l.46.44a9.74,9.74,0,0,0,.83.74,5.15,5.15,0,0,0,1.65.66c.16,0,.44.06.39-.2a1.35,1.35,0,0,0-.46-.65,3.49,3.49,0,0,0-1.49-.8c-.43-.12-.86-.2-1.27-.35a.28.28,0,0,0,0-.12c.22,0,.45.06.68.09a9.24,9.24,0,0,0,.92.11,3.43,3.43,0,0,0,1.73-.29C262,231.42,262.26,231.29,262.18,231.07Zm-32.25,16a3,3,0,0,0-.7-.32,2.63,2.63,0,0,0-.84,0l-.24,0c.4.36.79.71,1.19,1a3.17,3.17,0,0,0,.69,0c.16,0,.33-.07.32-.26S230.1,247.15,229.93,247.05Zm-.44-2.05a4,4,0,0,0-1.57.77c-.15.11-.31.21-.46.3l.42.4.45-.15a2.86,2.86,0,0,0,1.4-.7c.11-.12.31-.37.26-.55S229.62,245,229.49,245Zm-.9-1.28c-.16-.06-.43.14-.56.24a3.82,3.82,0,0,0-1,1.28l-.15.31c.14.14.28.28.42.4.17-.13.36-.26.52-.41a3,3,0,0,0,.81-1.29C228.71,244.11,228.78,243.8,228.59,243.72Zm-2-.07c-.08-.19-.59-1.05-.8-.53a2.16,2.16,0,0,0-.06.84,3.73,3.73,0,0,0,0,.47h0l1,1a.06.06,0,0,0,0,0A3.32,3.32,0,0,0,226.61,243.65Zm22.14,4.21a3.88,3.88,0,0,0-1.44.84c-.09.09-.26.24-.27.4.72-.42,1.44-.88,2.17-1.37A3.47,3.47,0,0,0,248.75,247.86Zm.2-1.46a4,4,0,0,0-.84-.17,3.7,3.7,0,0,0-.88,0,.64.64,0,0,0-.5.33c-.06.2.11.39.27.49a1.56,1.56,0,0,0,.67.18l1,.07,1.08.07.48-.33A5.71,5.71,0,0,0,249,246.4Zm.78-.75a2.8,2.8,0,0,0-1.22-1c-.15-.06-.46-.21-.6-.07s0,.39.05.52a3.14,3.14,0,0,0,1.23,1.14l.81.55.3.18.19-.14A11.41,11.41,0,0,0,249.73,245.65Zm1.28-1.46c-.08-.19-.59-1.05-.8-.53a2.16,2.16,0,0,0-.06.84,5.27,5.27,0,0,0,.13,1,11,11,0,0,0,.35,1.28l.47-.34c0-.17.05-.33.07-.5A3.32,3.32,0,0,0,251,244.19Zm2,.07c-.16-.06-.43.14-.56.24a3.82,3.82,0,0,0-1,1.28c-.09.17-.17.34-.25.52.6-.43,1.19-.89,1.79-1.35l.06-.16C253.11,244.65,253.18,244.34,253,244.26ZM216.66,232c-.06-.1-.21-.32-.36-.25s-.16.33-.17.46a1.82,1.82,0,0,0,0,.52c.25.35.5.71.77,1.06,0-.2.05-.39.05-.58A2.42,2.42,0,0,0,216.66,232Zm1.23-.32c-.14-.08-.27.16-.33.25a3.7,3.7,0,0,0-.42,1.37c0,.21-.07.43-.11.65l.24.33c.15-.3.27-.61.43-.9a2.3,2.3,0,0,0,.37-1.24C218.06,232,218,231.71,217.89,231.64Zm1.66,1.16c-.14-.12-.36-.05-.51,0a2.52,2.52,0,0,0-.59.24,2.07,2.07,0,0,0-.5.48c-.22.26-.42.54-.63.8a2,2,0,0,1,.17.23,9.5,9.5,0,0,0,.89-.48,4.05,4.05,0,0,0,1.14-.92C219.6,233,219.67,232.9,219.55,232.8Zm0,3.23a3.34,3.34,0,0,0-1-.74,3.23,3.23,0,0,0-.72-.3c.39.52.79,1,1.19,1.55a2.3,2.3,0,0,0,.42.13c.13,0,.37.08.42-.11S219.67,236.14,219.56,236Zm.3-1.59a2.92,2.92,0,0,0-.72-.11,5.52,5.52,0,0,0-.71.1c-.3,0-.6.1-.89.17l.24.33a8.26,8.26,0,0,0,1,.14,4.45,4.45,0,0,0,.73,0,2.24,2.24,0,0,0,.63-.1c.09,0,.34-.1.28-.23S220,234.49,219.86,234.44Zm-8.59-10.62a3.26,3.26,0,0,0-.71-.33,2,2,0,0,0-.6,0c.21.35.44.7.67,1.07a3,3,0,0,0,.73,0c.16,0,.33-.07.33-.26S211.43,223.91,211.27,223.82Zm-.4-2.07h-.05a4,4,0,0,0-1.47.71c.12.2.24.4.37.6a2.7,2.7,0,0,0,1.34-.69,1.36,1.36,0,0,0,.21-.29Zm-1-1.26h-.07l-.13,0-.12.05-.08.05-.15.11a2.59,2.59,0,0,0-.64.72l.5.83A3.06,3.06,0,0,0,210,221C210,220.88,210.11,220.56,209.92,220.49Z" style="fill:#fff"></path><path d="M238.48,252.18l-.6,0c-2.58-.18-5.52-1.86-8.54-4.4-.4-.34-.79-.69-1.19-1l-.27-.24-.42-.4a.68.68,0,0,1-.12-.12c-.14-.12-.28-.26-.42-.4l-.16-.15-1-1h0a90.76,90.76,0,0,1-6.77-7.89c-.4-.52-.8-1-1.19-1.55l-.05-.06-.24-.33,0-.06a2,2,0,0,0-.17-.23.18.18,0,0,0,0-.07l-.24-.33-.11-.15h0c-.27-.35-.52-.71-.77-1.06-2.05-2.83-3.92-5.64-5.52-8.17-.23-.37-.46-.72-.67-1.07-.09-.13-.17-.26-.24-.38s-.25-.4-.37-.6l-.12-.2-.5-.83c-1.08-1.79-2-3.34-2.59-4.52-3.1-5.82-1.94-9.65,1.78-9.53Z" style="opacity:0.1"></path><path d="M242.91,221.31c3.43,1.84,6.83,3.77,10.17,5.78,1.64,1,3.31,2,4.93,3s3.29,2.23,5,3.28a.11.11,0,0,1-.11.2c-1.66-1-3.39-1.81-5.05-2.76s-3.41-2-5.1-3.05c-3.35-2-6.66-4.11-9.9-6.29C242.74,221.4,242.81,221.25,242.91,221.31Z" style="fill:#263238"></path><path d="M223.59,263.75l-54.27,5.12s11.25-48.11,22.82-60c5.27-5.39,12.61-3.81,16.8-.18,1,.91,11.6,17.34,12.6,23.21.88,5.18-3.44,10.81-3.44,10.81Z" style="fill:#FFC727"></path><path d="M211,240.94a49.4,49.4,0,0,0-7.16,1.24c-1.17.31-2.31.67-3.45,1.06-.57.19-1.14.36-1.72.54a8.21,8.21,0,0,1-1.84.36,0,0,0,0,0,0,.09,13.23,13.23,0,0,0,1.78,0,13.66,13.66,0,0,0,1.69-.34c1.19-.3,2.36-.66,3.54-1,2.38-.64,4.77-1.27,7.19-1.73C211.09,241.12,211.06,240.93,211,240.94Z" style="fill:#263238"></path><path d="M216.94,243a52.34,52.34,0,0,0-6-.24c-1,0-2,.1-3,.2-.47,0-.95.11-1.42.18s-1,.21-1.55.27c-.06,0-.06.1,0,.09.49,0,1,0,1.49,0l1.5-.06,3-.09q3-.13,6-.17A.08.08,0,0,0,216.94,243Z" style="fill:#263238"></path><path d="M172,261.36l.06,0a5.73,5.73,0,0,0-.65,1.12,3.06,3.06,0,0,0-.32,1.33c0,.13,0,.39.16.43s.34-.18.41-.31a4.24,4.24,0,0,0,.43-1.39c.07-.37.12-.75.16-1.12h.09c0,.17.05.34.08.5a6.83,6.83,0,0,0,.18.9,3.87,3.87,0,0,0,.74,1.25c.09.11.26.26.36.07a1.11,1.11,0,0,0,0-.65,3,3,0,0,0-.57-1.27,10.61,10.61,0,0,1-.65-.85.27.27,0,0,0,.08-.07l.39.4c.24.23.3.31.55.53a2.75,2.75,0,0,0,1.27.67c.14,0,.37.07.43-.11s-.2-.42-.31-.54a3.22,3.22,0,0,0-1-.74,3.1,3.1,0,0,0-.78-.31l-.42-.12s0,0,0,0a8.48,8.48,0,0,0,1.41.24,6.1,6.1,0,0,0,.74,0,2.23,2.23,0,0,0,.63-.09c.09,0,.34-.1.27-.23s-.36-.24-.53-.29a3,3,0,0,0-.72-.11,4.18,4.18,0,0,0-.71.09c-.36.07-.73.12-1.08.22a0,0,0,0,0,0,0c.35-.17.7-.36,1-.56a4,4,0,0,0,1.15-.92c.08-.1.14-.23,0-.34s-.36-.05-.51,0a2.49,2.49,0,0,0-.59.23,2.28,2.28,0,0,0-.5.48c-.25.3-.47.62-.73.92l0,0c.18-.36.31-.73.5-1.07a2.36,2.36,0,0,0,.37-1.23c0-.13,0-.39-.18-.47s-.27.17-.33.26a3.42,3.42,0,0,0-.42,1.37c-.06.35-.14.7-.17,1.06h-.05c0-.12,0-.24,0-.37s.07-.52.07-.78a2.38,2.38,0,0,0-.28-1.14c-.13.47-.25.93-.37,1.38l0,.06a8.64,8.64,0,0,0,.38.88q-.23-.32-.48-.63c-.06.21-.12.41-.16.61h0l.46.23a.3.3,0,0,0,0,.1l-.48-.11a3.11,3.11,0,0,0-.11.41l.21-.05.37-.09,0,.08-.1,0-.53.14h0c-.09.33-.18.65-.26,1l0,0C171.32,262,171.64,261.66,172,261.36Z" style="fill:#fff"></path><path d="M177.19,245c-.07.21.11.39.27.49a1.39,1.39,0,0,0,.66.18l1,.07,1.64.11a.18.18,0,0,0,0,.1,7.18,7.18,0,0,0-1.54.35,3.89,3.89,0,0,0-1.45.83c-.11.12-.34.33-.24.51s.44.15.62.1a5,5,0,0,0,1.58-.78c.39-.25.77-.53,1.14-.81a.23.23,0,0,0,.07.07c-.13.16-.25.33-.37.5a9.44,9.44,0,0,0-.65.91,5.08,5.08,0,0,0-.48,1.71c0,.17,0,.45.24.37a1.28,1.28,0,0,0,.6-.53,3.56,3.56,0,0,0,.64-1.57c.07-.43.1-.86.2-1.28l.13,0c0,.23,0,.45,0,.67,0,.4,0,.53,0,.93a3.34,3.34,0,0,0,.48,1.69c.09.14.25.39.45.28s.21-.52.22-.72a4.05,4.05,0,0,0-.19-1.51,4.21,4.21,0,0,0-.39-1c-.08-.15-.18-.31-.25-.47h0a9.6,9.6,0,0,0,1,1.44,6.34,6.34,0,0,0,.63.64,2.64,2.64,0,0,0,.62.48c.1.05.37.21.43.05s-.09-.53-.19-.72a3.41,3.41,0,0,0-.51-.73,7.11,7.11,0,0,0-.68-.55c-.36-.26-.72-.55-1.1-.77l0,0a12.74,12.74,0,0,0,1.36.45,4.88,4.88,0,0,0,1.78.23c.15,0,.33-.07.32-.26s-.26-.36-.42-.45a2.82,2.82,0,0,0-.71-.32,2.37,2.37,0,0,0-.84,0l-1.43.14a.08.08,0,0,0,0,0c.46-.15.91-.34,1.38-.47a2.72,2.72,0,0,0,1.4-.71c.11-.12.31-.36.26-.54s-.37-.11-.5-.08a4.29,4.29,0,0,0-1.57.78c-.35.24-.73.47-1.07.73l0,0c.11-.11.2-.22.31-.32s.52-.38.75-.6a3.06,3.06,0,0,0,.8-1.28c0-.14.11-.46-.08-.53s-.43.14-.55.23a3.66,3.66,0,0,0-1,1.28,10.36,10.36,0,0,0-.47,1.08c.06-.32.12-.63.16-.95a3.35,3.35,0,0,0-.15-1.72c-.09-.18-.59-1-.81-.52a2.36,2.36,0,0,0-.06.84,5.05,5.05,0,0,0,.13,1c.1.48.24.95.38,1.42l-.11.05a13.23,13.23,0,0,0-.82-1.28,2.74,2.74,0,0,0-1.22-1c-.15-.06-.45-.22-.6-.07s0,.38.06.51a3.14,3.14,0,0,0,1.22,1.15l.81.54.41.26a.24.24,0,0,0-.06.09l-.12-.08a5.18,5.18,0,0,0-1.28-.66,3.39,3.39,0,0,0-.84-.17,2.88,2.88,0,0,0-.88,0C177.49,244.68,177.25,244.77,177.19,245Z" style="fill:#fff"></path><path d="M187.1,258.66c0,.15.23.22.34.26a2.66,2.66,0,0,0,1.37-.08l.78-.18c.13,0,.26-.07.39-.09a.17.17,0,0,0,0,.07l-.1,0a4.38,4.38,0,0,0-1.12.39,3.32,3.32,0,0,0-.58.4,2.73,2.73,0,0,0-.49.53.5.5,0,0,0-.09.48.39.39,0,0,0,.45.12,1.22,1.22,0,0,0,.48-.3l.59-.53c.33-.3.65-.61,1-.91l.06,0a6.33,6.33,0,0,0-.66,1.12,3.09,3.09,0,0,0-.31,1.33c0,.13,0,.39.16.43s.34-.18.41-.31a4.35,4.35,0,0,0,.43-1.38c.07-.37.12-.75.16-1.13h.09c0,.17,0,.34.08.51a6.83,6.83,0,0,0,.18.9,3.87,3.87,0,0,0,.74,1.25c.09.11.26.26.36.07a1.14,1.14,0,0,0,0-.66,2.89,2.89,0,0,0-.57-1.26c-.22-.29-.47-.56-.66-.86l.09-.06.39.39c.24.23.3.32.55.53a2.75,2.75,0,0,0,1.27.67c.14,0,.37.08.42-.1s-.19-.43-.3-.54a3.22,3.22,0,0,0-1-.74,3.55,3.55,0,0,0-.78-.32,3.25,3.25,0,0,1-.42-.11s0,0,0,0a8.5,8.5,0,0,0,1.41.25,6.1,6.1,0,0,0,.74,0,2.24,2.24,0,0,0,.63-.1c.09,0,.34-.09.27-.23s-.36-.24-.53-.28a2.58,2.58,0,0,0-.72-.12,5.52,5.52,0,0,0-.71.1,9.81,9.81,0,0,0-1.08.21,0,0,0,0,0,0,0,10.17,10.17,0,0,0,1-.55,4,4,0,0,0,1.15-.92c.08-.11.14-.24,0-.34s-.36-.05-.51,0a2.52,2.52,0,0,0-.59.24,2.07,2.07,0,0,0-.5.48c-.25.3-.48.62-.73.92l0,0c.17-.35.31-.72.5-1.07a2.37,2.37,0,0,0,.37-1.24c0-.13,0-.39-.18-.46s-.27.16-.33.26a3.42,3.42,0,0,0-.42,1.37c-.06.34-.14.69-.17,1.05h-.06c0-.12,0-.24,0-.36s.07-.52.07-.78a2.53,2.53,0,0,0-.31-1.21c-.06-.1-.21-.32-.36-.25s-.16.34-.18.46a3.21,3.21,0,0,0,.22,1.3c.11.3.24.59.38.88-.15-.21-.31-.43-.48-.63a2.69,2.69,0,0,0-1.1-.88c-.16-.06-1-.24-.77.18a1.87,1.87,0,0,0,.46.51,4.3,4.3,0,0,0,.65.47,10.72,10.72,0,0,0,1.06.56h0a.3.3,0,0,0,0,.1,10.12,10.12,0,0,0-1.22-.24,2.21,2.21,0,0,0-1.27.17C187.36,258.39,187.1,258.49,187.1,258.66Z" style="fill:#fff"></path><path d="M182.51,267.16a1.41,1.41,0,0,0-.07.47l.8-.07C183.08,267.27,182.7,266.72,182.51,267.16Z" style="fill:#fff"></path><path d="M185.35,230.35c.16,0,.33-.06.32-.25s-.25-.37-.42-.46a2.61,2.61,0,0,0-.7-.32,2.7,2.7,0,0,0-.85,0c-.47,0-.94.1-1.42.13a0,0,0,0,0,0,0c.46-.15.91-.34,1.37-.47a2.78,2.78,0,0,0,1.4-.7c.11-.12.31-.37.27-.55s-.38-.1-.51-.08a4.17,4.17,0,0,0-1.56.78c-.36.25-.74.47-1.08.74a.07.07,0,0,0,0,0l.31-.33c.24-.21.52-.37.75-.59a3,3,0,0,0,.81-1.29c0-.14.1-.46-.08-.53s-.44.14-.56.23a3.7,3.7,0,0,0-1,1.29,9.36,9.36,0,0,0-.47,1.07c.07-.31.12-.63.16-1a4.59,4.59,0,0,0,0-.91c-.21.52-.42,1.06-.62,1.59,0,.09.05.19.08.28l-.11.06-.06-.1-.09.22h0a.22.22,0,0,0-.05.08.51.51,0,0,0-.07.24s0,0,0,0h0a.14.14,0,0,0,0,.09h-.07L181,230a4.22,4.22,0,0,0,.36-.27l.08.08a6,6,0,0,0-.38.5c-.12.16-.25.32-.36.48h0l-.74,2s0,.08,0,.12,0,.44.24.37a1.37,1.37,0,0,0,.59-.53,3.65,3.65,0,0,0,.64-1.58c.07-.42.1-.86.2-1.28h0l.12,0c0,.1,0,.2,0,.3v.37c0,.4,0,.53,0,.93a3.24,3.24,0,0,0,.47,1.69c.09.14.25.39.45.28s.22-.52.22-.72a3.88,3.88,0,0,0-.19-1.51,4.18,4.18,0,0,0-.38-1c-.09-.15-.18-.3-.26-.46h0a11,11,0,0,0,1,1.44q.3.33.63.63a2.86,2.86,0,0,0,.62.48c.1.06.37.21.43.05s-.09-.53-.19-.72A3.31,3.31,0,0,0,184,231a5,5,0,0,0-.68-.54c-.36-.26-.72-.55-1.1-.78,0,0,0,0,0,0a12.74,12.74,0,0,0,1.36.45A4.88,4.88,0,0,0,185.35,230.35Z" style="fill:#fff"></path><path d="M193.78,237.46a1.18,1.18,0,0,0,.49-.3l.59-.53,1-.92a.07.07,0,0,0,.06,0,6.33,6.33,0,0,0-.66,1.12,3.25,3.25,0,0,0-.32,1.33c0,.13,0,.39.17.43s.33-.18.41-.31a4.35,4.35,0,0,0,.43-1.38c.07-.37.12-.75.16-1.13h.08c0,.17.06.34.09.51a6.83,6.83,0,0,0,.18.9,3.87,3.87,0,0,0,.74,1.25c.09.11.26.26.36.07a1.23,1.23,0,0,0,0-.66,2.8,2.8,0,0,0-.58-1.26c-.21-.29-.46-.56-.64-.86a.27.27,0,0,0,.08-.07c.12.14.26.27.39.4s.3.32.55.53a2.7,2.7,0,0,0,1.27.67c.14,0,.37.08.42-.1s-.19-.43-.3-.54a3.22,3.22,0,0,0-1-.74,3.77,3.77,0,0,0-.78-.32,3.25,3.25,0,0,1-.42-.11v0a8.5,8.5,0,0,0,1.41.25,5.88,5.88,0,0,0,.73,0,2.31,2.31,0,0,0,.64-.1c.09,0,.33-.09.27-.23s-.36-.24-.53-.28a2.59,2.59,0,0,0-.73-.12,5.77,5.77,0,0,0-.71.1c-.35.06-.72.12-1.08.21a0,0,0,0,0,0,0,10.33,10.33,0,0,0,1-.55,3.79,3.79,0,0,0,1.14-.92c.08-.11.15-.24,0-.34s-.35,0-.51,0a2.45,2.45,0,0,0-.58.24,1.9,1.9,0,0,0-.5.48c-.25.3-.48.62-.73.92l0,0c.18-.35.32-.72.5-1.07a2.28,2.28,0,0,0,.38-1.23c0-.14-.05-.4-.18-.47s-.27.16-.33.26a3.27,3.27,0,0,0-.42,1.37c-.06.34-.14.69-.17,1.05h-.06c0-.12,0-.24,0-.36s.06-.52.06-.78a2.52,2.52,0,0,0-.3-1.21c-.06-.1-.21-.32-.36-.25s-.17.34-.18.46a3,3,0,0,0,.22,1.3,7.46,7.46,0,0,0,.37.88c-.15-.21-.3-.43-.47-.63a2.66,2.66,0,0,0-1.11-.88c-.15-.06-1-.24-.76.18a1.72,1.72,0,0,0,.46.51,4.3,4.3,0,0,0,.65.47,10.72,10.72,0,0,0,1.06.56.36.36,0,0,0,0,.11,10.12,10.12,0,0,0-1.22-.24,2.25,2.25,0,0,0-1.28.17c-.12,0-.39.15-.38.32s.22.22.34.26a2.66,2.66,0,0,0,1.37-.08l.78-.18.38-.09s0,.05,0,.07l-.11,0a5.14,5.14,0,0,0-1.12.39,3.24,3.24,0,0,0-.57.4,2.73,2.73,0,0,0-.49.53.5.5,0,0,0-.09.48A.37.37,0,0,0,193.78,237.46Z" style="fill:#fff"></path><path d="M196.84,215.21c0-.22-.25-.36-.42-.45a3,3,0,0,0-.7-.33,2.68,2.68,0,0,0-.85,0c-.47,0-.94.1-1.42.13a.08.08,0,0,0,0,0c.46-.15.92-.34,1.38-.46a2.8,2.8,0,0,0,1.4-.71c.1-.12.31-.37.26-.54s-.37-.11-.5-.08a4.21,4.21,0,0,0-1.57.78c-.36.24-.73.47-1.07.73l0-.05c.1-.11.2-.22.31-.32s.51-.38.74-.6a3,3,0,0,0,.81-1.28c0-.14.11-.46-.08-.53s-.43.14-.56.23a3.69,3.69,0,0,0-1,1.28,8.54,8.54,0,0,0-.46,1.08c.06-.32.12-.63.16-1a3.36,3.36,0,0,0-.16-1.72c-.08-.19-.59-1-.8-.52a2.15,2.15,0,0,0-.06.84,5.05,5.05,0,0,0,.13,1c.1.47.24.94.38,1.41l-.11.06a13.23,13.23,0,0,0-.82-1.28,2.78,2.78,0,0,0-1.22-1c-.15-.06-.46-.22-.6-.07s0,.38.05.51a3.29,3.29,0,0,0,1.22,1.15l.82.54.41.26a.18.18,0,0,0-.06.09l-.12-.08a5.18,5.18,0,0,0-1.28-.66,3.58,3.58,0,0,0-.84-.17,2.88,2.88,0,0,0-.88,0,.6.6,0,0,0-.5.32c-.06.21.11.39.27.49a1.43,1.43,0,0,0,.67.18l1,.07,1.64.11a.15.15,0,0,0,0,.09,8.12,8.12,0,0,0-1.55.36,3.78,3.78,0,0,0-1.44.83c-.11.12-.35.33-.24.51s.44.14.62.1a5.07,5.07,0,0,0,1.58-.78c.39-.25.77-.53,1.14-.8a.13.13,0,0,0,.07.06c-.13.16-.25.33-.38.5a9.34,9.34,0,0,0-.64.91,4.86,4.86,0,0,0-.48,1.71c0,.17,0,.45.24.37a1.34,1.34,0,0,0,.6-.53,3.55,3.55,0,0,0,.63-1.57c.07-.43.1-.87.2-1.29l.13,0c0,.1,0,.21,0,.31v.37c0,.4,0,.53,0,.93a3.34,3.34,0,0,0,.48,1.69c.08.14.24.38.45.28s.21-.53.22-.72a3.86,3.86,0,0,0-.2-1.51,4.18,4.18,0,0,0-.38-1c-.09-.15-.18-.3-.26-.46l0,0a9.6,9.6,0,0,0,1,1.44,6.34,6.34,0,0,0,.63.64,3.59,3.59,0,0,0,.61.48c.1.05.37.21.44,0s-.1-.52-.2-.71a3.09,3.09,0,0,0-.51-.73,4.54,4.54,0,0,0-.68-.55,9.42,9.42,0,0,0-1.1-.77s0,0,0,0a12.69,12.69,0,0,0,1.36.44,4.71,4.71,0,0,0,1.78.24C196.68,215.45,196.85,215.4,196.84,215.21Z" style="fill:#fff"></path><path d="M204.83,265.52l1.18-.11a2.28,2.28,0,0,0,.21-.51c.05-.14.11-.46-.07-.53s-.44.14-.56.23A3,3,0,0,0,204.83,265.52Z" style="fill:#fff"></path><path d="M213.1,257.64c0,.15.23.22.34.26a2.66,2.66,0,0,0,1.37-.08l.79-.18.37-.09s0,.05,0,.08l-.1,0a4.36,4.36,0,0,0-1.12.38,2.9,2.9,0,0,0-.58.41,3,3,0,0,0-.49.52c-.08.14-.17.33-.08.48s.29.16.44.12a1.22,1.22,0,0,0,.48-.3l.59-.53c.33-.3.65-.61,1-.91l.06,0a5.87,5.87,0,0,0-.65,1.11,3.13,3.13,0,0,0-.32,1.33c0,.14,0,.4.16.44s.34-.19.42-.32a4.1,4.1,0,0,0,.42-1.38c.07-.37.12-.75.16-1.13h.09c0,.17,0,.34.08.51a6.83,6.83,0,0,0,.18.9,3.72,3.72,0,0,0,.75,1.25c.08.11.25.26.35.07a1.06,1.06,0,0,0,0-.66,3,3,0,0,0-.57-1.26c-.22-.29-.47-.56-.66-.86l.09-.06c.12.13.26.26.4.39a6.75,6.75,0,0,0,.54.53,2.64,2.64,0,0,0,1.28.67c.13,0,.36.08.42-.1s-.19-.43-.31-.54a3.18,3.18,0,0,0-1-.74,3.33,3.33,0,0,0-.79-.31l-.41-.11v0a11.5,11.5,0,0,0,1.41.23,6,6,0,0,0,.73,0,2.66,2.66,0,0,0,.63-.09c.09,0,.34-.1.28-.24s-.37-.24-.54-.28a2.25,2.25,0,0,0-.72-.11,4.18,4.18,0,0,0-.71.09,9.84,9.84,0,0,0-1.08.22,0,0,0,0,0,0,0c.36-.17.7-.36,1-.56a4.05,4.05,0,0,0,1.14-.92c.08-.11.15-.24,0-.34s-.36-.05-.51,0a2.52,2.52,0,0,0-.59.24,2.07,2.07,0,0,0-.5.48c-.25.3-.47.62-.73.92l0,0c.18-.36.31-.73.5-1.07a2.36,2.36,0,0,0,.37-1.23c0-.14,0-.4-.18-.47s-.27.16-.33.26a3.59,3.59,0,0,0-.42,1.37c-.05.34-.13.69-.17,1.05h0c0-.12,0-.24,0-.36s.07-.52.07-.78a2.45,2.45,0,0,0-.31-1.21c-.06-.1-.21-.32-.36-.25s-.16.34-.17.46a3,3,0,0,0,.21,1.3c.11.3.24.59.38.88l-.47-.63a2.81,2.81,0,0,0-1.11-.88c-.16-.05-1-.23-.77.18a1.79,1.79,0,0,0,.47.52,5,5,0,0,0,.64.46c.34.21.7.39,1.06.57a.3.3,0,0,0,0,.1c-.41-.1-.82-.18-1.22-.24a2.3,2.3,0,0,0-1.27.17C213.36,257.37,213.1,257.47,213.1,257.64Z" style="fill:#fff"></path><path d="M203.37,263.77a2.16,2.16,0,0,0-.07.84,7.9,7.9,0,0,0,.13,1l0,.08.9-.09a2.71,2.71,0,0,0-.18-1.26C204.09,264.11,203.58,263.25,203.37,263.77Z" style="fill:#fff"></path><path d="M219.49,235.06a2.24,2.24,0,0,0,.63-.1c.09,0,.34-.1.28-.23s-.37-.24-.54-.29a2.92,2.92,0,0,0-.72-.11,5.52,5.52,0,0,0-.71.1c-.36.06-.73.12-1.08.21v0c.36-.17.7-.36,1-.56a4.05,4.05,0,0,0,1.14-.92c.08-.11.15-.24,0-.34s-.36-.05-.51,0a2.52,2.52,0,0,0-.59.24,2.07,2.07,0,0,0-.5.48c-.25.3-.48.62-.72.92l0,0c.17-.35.31-.72.5-1.07a2.3,2.3,0,0,0,.37-1.24c0-.13,0-.39-.18-.46s-.27.16-.33.25a3.7,3.7,0,0,0-.42,1.37c0,.35-.13.7-.17,1.06h-.05c0-.12,0-.24,0-.36s.07-.52.07-.78a2.42,2.42,0,0,0-.31-1.21c-.06-.1-.21-.32-.36-.25s-.16.33-.17.46a2.9,2.9,0,0,0,.22,1.3,7.46,7.46,0,0,0,.37.88c-.15-.21-.31-.43-.47-.63a2.72,2.72,0,0,0-1.11-.88c-.16-.06-.95-.24-.76.18a1.6,1.6,0,0,0,.46.51,4.21,4.21,0,0,0,.64.47,10.72,10.72,0,0,0,1.06.56,1,1,0,0,0,0,.1c-.41-.09-.82-.18-1.22-.23a2.21,2.21,0,0,0-1.27.17c-.12.05-.39.15-.38.32s.22.22.33.25a2.46,2.46,0,0,0,1.37-.08l.79-.17.38-.1a.12.12,0,0,0,0,.08l-.11,0a4.38,4.38,0,0,0-1.12.39,3.32,3.32,0,0,0-.58.4,3.08,3.08,0,0,0-.49.53.49.49,0,0,0-.08.48.38.38,0,0,0,.44.12,1.15,1.15,0,0,0,.48-.3c.2-.17.4-.36.59-.54l1-.91a.07.07,0,0,0,.06,0,6.33,6.33,0,0,0-.66,1.12,3.1,3.1,0,0,0-.32,1.33c0,.13,0,.39.17.43s.33-.18.41-.31a4.17,4.17,0,0,0,.42-1.38c.07-.37.12-.75.16-1.13H217c0,.17.05.34.08.51a6.83,6.83,0,0,0,.18.9,4.2,4.2,0,0,0,.75,1.25c.08.11.26.26.35.07a1.06,1.06,0,0,0,0-.66,3,3,0,0,0-.57-1.27,10.74,10.74,0,0,1-.66-.85l.09-.06c.13.14.27.26.4.39a6.75,6.75,0,0,0,.54.53,2.73,2.73,0,0,0,1.28.67c.13,0,.37.08.42-.11s-.19-.42-.3-.53a3.34,3.34,0,0,0-1-.74,3.19,3.19,0,0,0-.79-.32l-.41-.1h0v0a9.86,9.86,0,0,0,1.41.23A4.45,4.45,0,0,0,219.49,235.06Z" style="fill:#fff"></path><path d="M201.06,264.7c-.13.13,0,.39.06.52a2,2,0,0,0,.48.6l1.25-.11a2.72,2.72,0,0,0-1.18-.94C201.51,264.71,201.21,264.55,201.06,264.7Z" style="fill:#fff"></path><path d="M206.75,227a3.55,3.55,0,0,0,.63-1.57c.08-.43.11-.87.21-1.29l.13,0c0,.23,0,.45,0,.68,0,.4,0,.53,0,.93a3.34,3.34,0,0,0,.48,1.69c.09.14.24.38.45.28s.21-.53.22-.72a4.05,4.05,0,0,0-.19-1.51,4.21,4.21,0,0,0-.39-1c-.08-.15-.17-.3-.25-.46l0,0a9.6,9.6,0,0,0,1,1.44,6.34,6.34,0,0,0,.63.64,3.3,3.3,0,0,0,.62.48c.1.05.37.21.43,0s-.09-.52-.2-.71a3.37,3.37,0,0,0-.5-.73,5.85,5.85,0,0,0-.68-.55,10.47,10.47,0,0,0-1.11-.77s0,0,0,0a13.63,13.63,0,0,0,1.37.44,4.65,4.65,0,0,0,1.77.24c.16,0,.33-.07.33-.26s-.26-.36-.42-.45a3.26,3.26,0,0,0-.71-.33,2.62,2.62,0,0,0-.84,0l-1.43.14a.08.08,0,0,0,0,0c.46-.15.91-.34,1.38-.47a2.8,2.8,0,0,0,1.4-.71c.11-.12.31-.37.26-.54s-.37-.11-.5-.08a4.29,4.29,0,0,0-1.57.78c-.35.24-.73.47-1.07.73l0-.05c.11-.11.2-.22.31-.32s.51-.38.75-.6A3.12,3.12,0,0,0,210,221c0-.14.11-.46-.08-.53s-.43.14-.55.23a3.57,3.57,0,0,0-1,1.28,8.6,8.6,0,0,0-.47,1.08c.06-.32.12-.63.16-1a3.25,3.25,0,0,0-.16-1.72c-.08-.19-.59-1-.8-.52a2.15,2.15,0,0,0-.06.84,5.05,5.05,0,0,0,.13,1c.1.48.24.95.38,1.42l-.11.05a13.23,13.23,0,0,0-.82-1.28,2.72,2.72,0,0,0-1.22-1c-.15-.06-.45-.22-.6-.07s0,.38.06.51a3.14,3.14,0,0,0,1.22,1.15l.81.54.41.26a.24.24,0,0,0-.06.09l-.12-.08a5.18,5.18,0,0,0-1.28-.66,3.39,3.39,0,0,0-.84-.17,2.88,2.88,0,0,0-.88,0c-.19,0-.43.12-.49.32s.11.39.27.49a1.36,1.36,0,0,0,.66.18l1,.07,1.64.11a.18.18,0,0,0,0,.1,7.18,7.18,0,0,0-1.54.35,3.89,3.89,0,0,0-1.45.83c-.11.12-.34.33-.24.51s.44.14.62.1a5.07,5.07,0,0,0,1.58-.78c.39-.25.77-.53,1.14-.81a.13.13,0,0,0,.08.07,6,6,0,0,0-.38.5,8,8,0,0,0-.65.91,5.08,5.08,0,0,0-.48,1.71c0,.17,0,.45.24.37A1.34,1.34,0,0,0,206.75,227Z" style="fill:#fff"></path><path d="M199,248.76c-.06.2.11.39.27.49a1.56,1.56,0,0,0,.67.18l1,.07,1.64.1a.15.15,0,0,0,0,.09,8.12,8.12,0,0,0-1.55.36,3.88,3.88,0,0,0-1.44.84c-.11.11-.35.33-.24.51s.44.14.62.1a5.54,5.54,0,0,0,1.58-.78c.39-.25.77-.53,1.14-.81a.23.23,0,0,0,.07.07c-.13.16-.25.33-.38.5a8.26,8.26,0,0,0-.64.91,4.8,4.8,0,0,0-.48,1.71c0,.17,0,.45.24.37a1.4,1.4,0,0,0,.6-.53,3.59,3.59,0,0,0,.63-1.57c.07-.43.1-.87.21-1.29l.12,0c0,.1,0,.2,0,.3v.37c0,.41,0,.53,0,.93a3.32,3.32,0,0,0,.48,1.69c.08.15.24.39.45.28s.21-.52.22-.72a3.89,3.89,0,0,0-.2-1.51,3.56,3.56,0,0,0-.38-.95c-.09-.15-.17-.31-.25-.46l0,0a11,11,0,0,0,1,1.44,6.24,6.24,0,0,0,.63.63,2.81,2.81,0,0,0,.61.48c.11.06.37.22.44.05s-.09-.52-.2-.71a3.15,3.15,0,0,0-.51-.74,5.2,5.2,0,0,0-.68-.54,12.57,12.57,0,0,0-1.09-.78,0,0,0,0,0,0,0,10.46,10.46,0,0,0,1.37.45,4.83,4.83,0,0,0,1.77.24c.16,0,.33-.07.32-.26s-.25-.36-.42-.46a3,3,0,0,0-.7-.32,2.63,2.63,0,0,0-.84,0l-1.43.14a.06.06,0,0,0,0,0c.46-.15.91-.34,1.38-.47a2.86,2.86,0,0,0,1.4-.7c.11-.12.31-.37.26-.55s-.37-.1-.5-.07a4,4,0,0,0-1.57.77c-.36.25-.73.47-1.07.74l-.05-.05a3.31,3.31,0,0,1,.32-.33c.23-.21.51-.37.74-.59a3,3,0,0,0,.81-1.29c0-.14.11-.45-.08-.53s-.43.14-.56.24a3.82,3.82,0,0,0-1,1.28,7.84,7.84,0,0,0-.46,1.07c.06-.31.12-.63.16-.95a3.32,3.32,0,0,0-.16-1.71c-.08-.19-.59-1-.8-.53a2.16,2.16,0,0,0-.06.84,5.27,5.27,0,0,0,.13,1,13.34,13.34,0,0,0,.39,1.41.34.34,0,0,0-.12.06,13.23,13.23,0,0,0-.82-1.28,2.8,2.8,0,0,0-1.22-1c-.15-.06-.46-.21-.6-.07s0,.39,0,.52a3.14,3.14,0,0,0,1.23,1.14l.81.55.42.25a.18.18,0,0,0-.07.1l-.12-.08a5.58,5.58,0,0,0-1.28-.67,4,4,0,0,0-.84-.17,3.7,3.7,0,0,0-.88,0A.64.64,0,0,0,199,248.76Z" style="fill:#fff"></path><path d="M199.29,216c2.81,5.8,8.57,28.77,9.35,29.72s26.73-5.36,31.73-6.13c3.39-.53,7.17,21.45.93,22.93-9.68,2.28-39.69,9.18-46.46,3s-4.78-42.33-3.85-49.26S194.69,206.46,199.29,216Z" style="fill:#eb9481"></path><path d="M252,241.58c-1.42-.34-1.25-1.09,1.1-2.17s12.61-3.38,11.51-6.89-15.52-.07-19.3,2a68.7,68.7,0,0,0-9.18,6.84C239.09,241.3,246.25,241.72,252,241.58Z" style="fill:#eb9481"></path><path d="M239.31,262.84c8.27-.61,18.61-.86,26.3-6.19a4.59,4.59,0,0,0,1.85-2.4c3.5-2.32,3.45-4.67,3.45-4.67,2.58-3.16,2.2-5.55,2.2-5.55s4.07-2.77,2.8-5.51c-1.41-3.08-6.85,1.42-11.35,2.07-10.31,1.47-25.39.68-28.41.81Z" style="fill:#eb9481"></path><path d="M254.84,249.73a66.73,66.73,0,0,0,9-1.8A66.66,66.66,0,0,0,273,244c.1,0,.17.09.08.14a35.43,35.43,0,0,1-18.22,5.74C254.71,249.87,254.69,249.75,254.84,249.73Z" style="fill:#263238"></path><path d="M254.82,256.09c2.92-.65,8.05-1.82,16-6.59,0,0,.06,0,0,0a31.74,31.74,0,0,1-16,6.68C254.67,256.25,254.63,256.13,254.82,256.09Z" style="fill:#263238"></path><path d="M254.88,259.5a49.78,49.78,0,0,0,12.56-5.26s.06,0,0,0c-5,3.45-7.25,4.13-12.57,5.39C254.72,259.72,254.69,259.55,254.88,259.5Z" style="fill:#263238"></path><path d="M234,237.45l-.52,27.31s-34.22,8.75-39.75.59-4.71-39.78-3-49.62,6.25-5.69,9.05,0,9.11,29,9.31,29.19S234,237.45,234,237.45Z" style="fill:#FFC727"></path><path d="M226.34,263.63c0-3.57.07-7.15.24-10.72.09-1.75.15-3.52.27-5.27s.36-3.63.48-5.44c0-.13.21-.14.21,0-.06,1.76,0,3.52,0,5.28s-.16,3.63-.24,5.44q-.26,5.37-.77,10.72C226.49,263.73,226.34,263.74,226.34,263.63Z" style="fill:#263238"></path><path d="M204.3,246.32c1.91-.64,3.8-1.36,5.72-2s3.9-1.23,5.86-1.83c3.85-1.18,7.69-2.35,11.55-3.5l3.26-.95a33.18,33.18,0,0,1,3.39-.9.13.13,0,0,1,.15.15c-.08.37-.16,3.16-.18,3.54a.06.06,0,0,1-.11,0c0-.32.08-3.07.05-3.39-.82.36-1.7.6-2.55.88l-2.92.95-5.76,1.79c-3.92,1.19-7.83,2.38-11.76,3.54-2.21.66-4.44,1.2-6.67,1.8C204.26,246.47,204.23,246.35,204.3,246.32Z" style="fill:#263238"></path><path d="M204.66,231.87c-1.25-4.29-2.46-8.56-3.53-12.89,0,0,0,0,0,0,.58,1.69,1.13,3.39,1.67,5.09-.11-1.09-.21-2.17-.27-3.26,0-.06.09-.07.09,0,.18,1.32.31,2.64.41,4q1.11,3.48,2.19,7c1.33,4.24,3.07,9.26,4.07,13,0,.12-.45.25-.49.14C207.44,241.07,205.9,236.14,204.66,231.87Z" style="fill:#263238"></path><path d="M207.89,268.14c0,.19-.16.24-.32.26a4.83,4.83,0,0,1-1.77-.24,10.46,10.46,0,0,1-1.37-.45,0,0,0,0,1,0,0,12.57,12.57,0,0,1,1.09.78c.14.1.28.2.41.31h-1.1c-.2-.29-.38-.6-.57-.91l0,0c.08.15.16.31.25.46a3.42,3.42,0,0,1,.21.43l-.78,0a.53.53,0,0,0,0-.13v-.37c0-.1,0-.2,0-.3l-.12,0a5.49,5.49,0,0,0-.14.81l-.7,0,.28-.37c.13-.17.25-.34.38-.5l-.07-.07c-.37.28-.75.56-1.14.81l-.13.08c-.52,0-1-.1-1.52-.17a4.17,4.17,0,0,1,1.13-.58,8.12,8.12,0,0,1,1.55-.36.15.15,0,0,1,0-.09l-1.64-.1-1-.07a1.56,1.56,0,0,1-.67-.18c-.16-.1-.33-.29-.27-.49a.64.64,0,0,1,.5-.33,3.7,3.7,0,0,1,.88,0,4,4,0,0,1,.84.17,5.58,5.58,0,0,1,1.28.67l.12.08a.18.18,0,0,1,.07-.1l-.42-.25-.81-.55a3.14,3.14,0,0,1-1.23-1.14c-.06-.13-.18-.39,0-.52s.45,0,.6.07a2.8,2.8,0,0,1,1.22,1,13.23,13.23,0,0,1,.82,1.28l.12-.06a13.34,13.34,0,0,1-.39-1.41,5.27,5.27,0,0,1-.13-1,2.16,2.16,0,0,1,.06-.84c.21-.52.72.34.8.53a3.32,3.32,0,0,1,.16,1.71c0,.32-.1.64-.16.95a7.84,7.84,0,0,1,.46-1.07,3.82,3.82,0,0,1,1-1.28c.13-.1.4-.3.56-.24s.12.39.08.53a3,3,0,0,1-.81,1.29c-.23.22-.51.38-.74.59a3.31,3.31,0,0,0-.32.33l0,.05c.34-.27.71-.49,1.07-.74a4,4,0,0,1,1.57-.77c.13,0,.44-.13.5.07s-.15.43-.26.55a2.86,2.86,0,0,1-1.4.7c-.47.13-.92.32-1.38.47a.06.06,0,0,1,0,0l1.43-.14a2.63,2.63,0,0,1,.84,0,3,3,0,0,1,.7.32C207.64,267.78,207.89,267.92,207.89,268.14Zm-16.34-12.3c0-.13,0-.39-.18-.46s-.27.16-.33.26a2.14,2.14,0,0,0-.25.56c.07.42.14.83.22,1.23a3.78,3.78,0,0,1,.17-.35A2.37,2.37,0,0,0,191.55,255.84Zm1.45,1c.08-.11.14-.24,0-.34s-.36-.05-.51,0a2.52,2.52,0,0,0-.59.24,2.07,2.07,0,0,0-.5.48l-.37.45s0,0,0,0c0,.16.07.31.1.47.24-.12.47-.25.69-.38A4,4,0,0,0,193,256.88ZM192,259a3.82,3.82,0,0,0-.75-.31l.21.88h0l.15.13a2.75,2.75,0,0,0,1.27.67c.14,0,.37.08.42-.1s-.19-.43-.3-.54A3.22,3.22,0,0,0,192,259Zm1.32-.84a2.58,2.58,0,0,0-.72-.12,5.52,5.52,0,0,0-.71.1l-.73.13c0,.13.06.25.08.37a6.51,6.51,0,0,0,1,.15,6.1,6.1,0,0,0,.74,0,2.24,2.24,0,0,0,.63-.1c.09,0,.34-.09.27-.23S193.51,258.23,193.34,258.19Zm.44-20.73a1.18,1.18,0,0,0,.49-.3l.59-.53,1-.92a.07.07,0,0,0,.06,0,6.33,6.33,0,0,0-.66,1.12,3.25,3.25,0,0,0-.32,1.33c0,.13,0,.39.17.43s.33-.18.41-.31a4.35,4.35,0,0,0,.43-1.38c.07-.37.12-.75.16-1.13h.08c0,.17.06.34.09.51a6.83,6.83,0,0,0,.18.9,3.87,3.87,0,0,0,.74,1.25c.09.11.26.26.36.07a1.23,1.23,0,0,0,0-.66,2.8,2.8,0,0,0-.58-1.26c-.21-.29-.46-.56-.64-.86a.27.27,0,0,0,.08-.07c.12.14.26.27.39.4s.3.32.55.53a2.7,2.7,0,0,0,1.27.67c.14,0,.37.08.42-.1s-.19-.43-.3-.54a3.22,3.22,0,0,0-1-.74,3.77,3.77,0,0,0-.78-.32,3.25,3.25,0,0,1-.42-.11v0a8.5,8.5,0,0,0,1.41.25,5.88,5.88,0,0,0,.73,0,2.31,2.31,0,0,0,.64-.1c.09,0,.33-.09.27-.23s-.36-.24-.53-.28a2.59,2.59,0,0,0-.73-.12,5.77,5.77,0,0,0-.71.1c-.35.06-.72.12-1.08.21a0,0,0,0,0,0,0,10.33,10.33,0,0,0,1-.55,3.79,3.79,0,0,0,1.14-.92c.08-.11.15-.24,0-.34s-.35,0-.51,0a2.45,2.45,0,0,0-.58.24,1.9,1.9,0,0,0-.5.48c-.25.3-.48.62-.73.92l0,0c.18-.35.32-.72.5-1.07a2.28,2.28,0,0,0,.38-1.23c0-.14-.05-.4-.18-.47s-.27.16-.33.26a3.27,3.27,0,0,0-.42,1.37c-.06.34-.14.69-.17,1.05h-.06c0-.12,0-.24,0-.36s.06-.52.06-.78a2.52,2.52,0,0,0-.3-1.21c-.06-.1-.21-.32-.36-.25s-.17.34-.18.46a3,3,0,0,0,.22,1.3,7.46,7.46,0,0,0,.37.88c-.15-.21-.3-.43-.47-.63a2.66,2.66,0,0,0-1.11-.88c-.15-.06-1-.24-.76.18a1.72,1.72,0,0,0,.46.51,4.3,4.3,0,0,0,.65.47,10.72,10.72,0,0,0,1.06.56.36.36,0,0,0,0,.11,10.12,10.12,0,0,0-1.22-.24,2.25,2.25,0,0,0-1.28.17c-.12,0-.39.15-.38.32s.22.22.34.26a2.66,2.66,0,0,0,1.37-.08l.78-.18.38-.09s0,.05,0,.07l-.11,0a5.14,5.14,0,0,0-1.12.39,3.24,3.24,0,0,0-.57.4,2.73,2.73,0,0,0-.49.53.5.5,0,0,0-.09.48A.37.37,0,0,0,193.78,237.46Zm2.64-22.7a3,3,0,0,0-.7-.33,2.68,2.68,0,0,0-.85,0c-.47,0-.94.1-1.42.13a.08.08,0,0,0,0,0c.46-.15.92-.34,1.38-.46a2.8,2.8,0,0,0,1.4-.71c.1-.12.31-.37.26-.54s-.37-.11-.5-.08a4.21,4.21,0,0,0-1.57.78c-.36.24-.73.47-1.07.73l0-.05c.1-.11.2-.22.31-.32s.51-.38.74-.6a3,3,0,0,0,.81-1.28c0-.14.11-.46-.08-.53s-.43.14-.56.23a3.69,3.69,0,0,0-1,1.28,8.54,8.54,0,0,0-.46,1.08c.06-.32.12-.63.16-1a3.36,3.36,0,0,0-.16-1.72,1.72,1.72,0,0,0-.52-.67,4.37,4.37,0,0,0-.34.47h0a2.9,2.9,0,0,0,0,.51,5.05,5.05,0,0,0,.13,1c.1.47.24.94.38,1.41l-.11.06a13.23,13.23,0,0,0-.82-1.28,3.7,3.7,0,0,0-.24-.29,8.83,8.83,0,0,0-.3.91c.28.17.54.35.81.53l.41.26a.18.18,0,0,0-.06.09l-.12-.08a5.31,5.31,0,0,0-1.1-.59c-.08.27-.15.55-.22.85l1.37.09a.15.15,0,0,0,0,.09,7.61,7.61,0,0,0-1.5.35c0,.23-.1.47-.14.71s0,.24-.07.37a7.66,7.66,0,0,0,.68-.41c.39-.25.77-.53,1.14-.8a.13.13,0,0,0,.07.06c-.13.16-.25.33-.38.5a9.34,9.34,0,0,0-.64.91,4.86,4.86,0,0,0-.48,1.71c0,.17,0,.45.24.37a1.34,1.34,0,0,0,.6-.53,3.55,3.55,0,0,0,.63-1.57c.07-.43.1-.87.2-1.29l.13,0c0,.1,0,.21,0,.31v.37c0,.4,0,.53,0,.93a3.34,3.34,0,0,0,.48,1.69c.08.14.24.38.45.28s.21-.53.22-.72a3.86,3.86,0,0,0-.2-1.51,4.18,4.18,0,0,0-.38-1c-.09-.15-.18-.3-.26-.46l0,0a9.6,9.6,0,0,0,1,1.44,6.34,6.34,0,0,0,.63.64,3.59,3.59,0,0,0,.61.48c.1.05.37.21.44,0s-.1-.52-.2-.71a3.09,3.09,0,0,0-.51-.73,4.54,4.54,0,0,0-.68-.55,9.42,9.42,0,0,0-1.1-.77s0,0,0,0a12.69,12.69,0,0,0,1.36.44,4.71,4.71,0,0,0,1.78.24c.16,0,.33-.07.32-.26S196.59,214.85,196.42,214.76Zm16.68,42.88c0,.15.23.22.34.26a2.66,2.66,0,0,0,1.37-.08l.79-.18.37-.09s0,.05,0,.08l-.1,0a4.36,4.36,0,0,0-1.12.38,2.9,2.9,0,0,0-.58.41,3,3,0,0,0-.49.52c-.08.14-.17.33-.08.48s.29.16.44.12a1.22,1.22,0,0,0,.48-.3l.59-.53c.33-.3.65-.61,1-.91l.06,0a5.87,5.87,0,0,0-.65,1.11,3.13,3.13,0,0,0-.32,1.33c0,.14,0,.4.16.44s.34-.19.42-.32a4.1,4.1,0,0,0,.42-1.38c.07-.37.12-.75.16-1.13h.09c0,.17,0,.34.08.51a6.83,6.83,0,0,0,.18.9,3.72,3.72,0,0,0,.75,1.25c.08.11.25.26.35.07a1.06,1.06,0,0,0,0-.66,3,3,0,0,0-.57-1.26c-.22-.29-.47-.56-.66-.86l.09-.06c.12.13.26.26.4.39a6.75,6.75,0,0,0,.54.53,2.64,2.64,0,0,0,1.28.67c.13,0,.36.08.42-.1s-.19-.43-.31-.54a3.18,3.18,0,0,0-1-.74,3.33,3.33,0,0,0-.79-.31l-.41-.11v0a11.5,11.5,0,0,0,1.41.23,6,6,0,0,0,.73,0,2.66,2.66,0,0,0,.63-.09c.09,0,.34-.1.28-.24s-.37-.24-.54-.28a2.25,2.25,0,0,0-.72-.11,4.18,4.18,0,0,0-.71.09,9.84,9.84,0,0,0-1.08.22,0,0,0,0,0,0,0c.36-.17.7-.36,1-.56a4.05,4.05,0,0,0,1.14-.92c.08-.11.15-.24,0-.34s-.36-.05-.51,0a2.52,2.52,0,0,0-.59.24,2.07,2.07,0,0,0-.5.48c-.25.3-.47.62-.73.92l0,0c.18-.36.31-.73.5-1.07a2.36,2.36,0,0,0,.37-1.23c0-.14,0-.4-.18-.47s-.27.16-.33.26a3.59,3.59,0,0,0-.42,1.37c-.05.34-.13.69-.17,1.05h0c0-.12,0-.24,0-.36s.07-.52.07-.78a2.45,2.45,0,0,0-.31-1.21c-.06-.1-.21-.32-.36-.25s-.16.34-.17.46a3,3,0,0,0,.21,1.3c.11.3.24.59.38.88l-.47-.63a2.81,2.81,0,0,0-1.11-.88c-.16-.05-1-.23-.77.18a1.79,1.79,0,0,0,.47.52,5,5,0,0,0,.64.46c.34.21.7.39,1.06.57a.3.3,0,0,0,0,.1c-.41-.1-.82-.18-1.22-.24a2.3,2.3,0,0,0-1.27.17C213.36,257.37,213.1,257.47,213.1,257.64Zm20.41,5.6,0-.88a2,2,0,0,0-.48.2,2.07,2.07,0,0,0-.5.48c-.25.3-.48.62-.72.92l0,0c.17-.35.31-.72.5-1.07a2.3,2.3,0,0,0,.37-1.24c0-.13,0-.39-.18-.46s-.27.16-.33.25a3.7,3.7,0,0,0-.42,1.37c-.05.35-.13.7-.17,1.06h0c0-.12,0-.24,0-.36,0-.27.07-.52.07-.78a2.42,2.42,0,0,0-.31-1.21c-.06-.1-.21-.32-.36-.25s-.16.33-.17.46A2.9,2.9,0,0,0,231,263a7.46,7.46,0,0,0,.37.88c-.15-.21-.31-.43-.47-.63a2.72,2.72,0,0,0-1.11-.88c-.16-.06-1-.24-.76.18a1.6,1.6,0,0,0,.46.51,4.21,4.21,0,0,0,.64.47,10.72,10.72,0,0,0,1.06.56,1,1,0,0,0,0,.1c-.41-.09-.82-.18-1.22-.23a2.21,2.21,0,0,0-1.27.17c-.12.05-.39.15-.38.32s.22.22.33.25a2.46,2.46,0,0,0,1.37-.08l.79-.17.38-.1a.12.12,0,0,0,0,.08l-.11,0a4.38,4.38,0,0,0-1.12.39,3.32,3.32,0,0,0-.58.4,3.08,3.08,0,0,0-.49.53s0,0,0,.06l1.49-.33,1-.88a.07.07,0,0,0,.06,0,5.41,5.41,0,0,0-.45.72l.57-.14.06-.52h.09c0,.16,0,.33.08.49l.4-.1a4.59,4.59,0,0,1-.33-.44l.09-.06c.13.14.27.26.4.39l.06.06.9-.22,0,0a3.19,3.19,0,0,0-.79-.32l-.41-.1h0v0a9.86,9.86,0,0,0,1.41.23h.12l0-.71a3.54,3.54,0,0,0-.47.07c-.36.06-.73.12-1.08.21v0c.36-.17.7-.36,1-.56A6.06,6.06,0,0,0,233.51,263.24ZM199,248.76c-.06.2.11.39.27.49a1.56,1.56,0,0,0,.67.18l1,.07,1.64.1a.15.15,0,0,0,0,.09,8.12,8.12,0,0,0-1.55.36,3.88,3.88,0,0,0-1.44.84c-.11.11-.35.33-.24.51s.44.14.62.1a5.54,5.54,0,0,0,1.58-.78c.39-.25.77-.53,1.14-.81a.23.23,0,0,0,.07.07c-.13.16-.25.33-.38.5a8.26,8.26,0,0,0-.64.91,4.8,4.8,0,0,0-.48,1.71c0,.17,0,.45.24.37a1.4,1.4,0,0,0,.6-.53,3.59,3.59,0,0,0,.63-1.57c.07-.43.1-.87.21-1.29l.12,0c0,.1,0,.2,0,.3v.37c0,.41,0,.53,0,.93a3.32,3.32,0,0,0,.48,1.69c.08.15.24.39.45.28s.21-.52.22-.72a3.89,3.89,0,0,0-.2-1.51,3.56,3.56,0,0,0-.38-.95c-.09-.15-.17-.31-.25-.46l0,0a11,11,0,0,0,1,1.44,6.24,6.24,0,0,0,.63.63,2.81,2.81,0,0,0,.61.48c.11.06.37.22.44.05s-.09-.52-.2-.71a3.15,3.15,0,0,0-.51-.74,5.2,5.2,0,0,0-.68-.54,12.57,12.57,0,0,0-1.09-.78,0,0,0,0,0,0,0,10.46,10.46,0,0,0,1.37.45,4.83,4.83,0,0,0,1.77.24c.16,0,.33-.07.32-.26s-.25-.36-.42-.46a3,3,0,0,0-.7-.32,2.63,2.63,0,0,0-.84,0l-1.43.14a.06.06,0,0,0,0,0c.46-.15.91-.34,1.38-.47a2.86,2.86,0,0,0,1.4-.7c.11-.12.31-.37.26-.55s-.37-.1-.5-.07a4,4,0,0,0-1.57.77c-.36.25-.73.47-1.07.74l-.05-.05a3.31,3.31,0,0,1,.32-.33c.23-.21.51-.37.74-.59a3,3,0,0,0,.81-1.29c0-.14.11-.45-.08-.53s-.43.14-.56.24a3.82,3.82,0,0,0-1,1.28,7.84,7.84,0,0,0-.46,1.07c.06-.31.12-.63.16-.95a3.32,3.32,0,0,0-.16-1.71c-.08-.19-.59-1-.8-.53a2.16,2.16,0,0,0-.06.84,5.27,5.27,0,0,0,.13,1,13.34,13.34,0,0,0,.39,1.41.34.34,0,0,0-.12.06,13.23,13.23,0,0,0-.82-1.28,2.8,2.8,0,0,0-1.22-1c-.15-.06-.46-.21-.6-.07s0,.39,0,.52a3.14,3.14,0,0,0,1.23,1.14l.81.55.42.25a.18.18,0,0,0-.07.1l-.12-.08a5.58,5.58,0,0,0-1.28-.67,4,4,0,0,0-.84-.17,3.7,3.7,0,0,0-.88,0A.64.64,0,0,0,199,248.76Zm23.3-2.73c-.06.2.11.39.27.49a1.56,1.56,0,0,0,.67.18l1,.07,1.64.1a.15.15,0,0,0,0,.09,8.12,8.12,0,0,0-1.55.36,3.88,3.88,0,0,0-1.44.84c-.11.11-.35.33-.24.51s.44.14.62.1a5.54,5.54,0,0,0,1.58-.78c.39-.25.77-.53,1.14-.81l.07.07c-.13.16-.25.33-.38.5a8.26,8.26,0,0,0-.64.91,4.8,4.8,0,0,0-.48,1.71c0,.17,0,.45.24.37a1.4,1.4,0,0,0,.6-.53,3.59,3.59,0,0,0,.63-1.57c.07-.43.1-.87.21-1.29l.12,0c0,.1,0,.2,0,.3V248c0,.41,0,.53,0,.93a3.32,3.32,0,0,0,.48,1.69c.08.15.24.39.45.28s.21-.52.22-.72a3.89,3.89,0,0,0-.2-1.51,3.56,3.56,0,0,0-.38-1c-.09-.15-.17-.31-.25-.46l0,0a11,11,0,0,0,1,1.44,6.24,6.24,0,0,0,.63.63,2.81,2.81,0,0,0,.61.48c.11.06.37.22.44,0s-.09-.52-.2-.71a3.15,3.15,0,0,0-.51-.74,5.2,5.2,0,0,0-.68-.54,12.57,12.57,0,0,0-1.09-.78,0,0,0,0,0,0,0,10.46,10.46,0,0,0,1.37.45,4.83,4.83,0,0,0,1.77.24c.16,0,.33-.07.32-.26s-.25-.36-.42-.46a3,3,0,0,0-.7-.32,2.63,2.63,0,0,0-.84,0l-1.43.14a.06.06,0,0,0,0,0c.46-.15.91-.34,1.38-.47a2.86,2.86,0,0,0,1.4-.7c.11-.12.31-.37.26-.55s-.37-.1-.5-.07a4,4,0,0,0-1.57.77c-.36.25-.73.47-1.07.74a.12.12,0,0,0,0,0,3.31,3.31,0,0,1,.32-.33c.23-.21.51-.37.74-.59a3,3,0,0,0,.81-1.29c0-.14.11-.45-.08-.53s-.43.14-.56.24a3.82,3.82,0,0,0-1,1.28,7.84,7.84,0,0,0-.46,1.07c.06-.31.12-.63.16-.95a3.32,3.32,0,0,0-.16-1.71c-.08-.19-.59-1.05-.8-.53a2.16,2.16,0,0,0-.06.84,5.27,5.27,0,0,0,.13,1,13.34,13.34,0,0,0,.39,1.41.34.34,0,0,0-.12.06,13.23,13.23,0,0,0-.82-1.28,2.8,2.8,0,0,0-1.22-1c-.15-.06-.46-.21-.6-.07s0,.39.05.52a3.14,3.14,0,0,0,1.23,1.14l.81.55.42.25a.18.18,0,0,0-.07.1l-.12-.08a5.58,5.58,0,0,0-1.28-.67,4,4,0,0,0-.84-.17,3.7,3.7,0,0,0-.88,0A.64.64,0,0,0,222.33,246Z" style="fill:#fff"></path><path d="M198.57,207.6c.16,1,4.89,6.28,9.32,6.41.7,0,.91-2.42.91-2.42.34-2,.49-4.1.49-4.1l.18-.57,2.42-8-9.09-6.84-1.32-.91s-.52,2.23-1.14,5l-.09.4c0,.16-.08.31-.11.45-.09.42-.19.84-.28,1.27s-.14.63-.2,1-.13.68-.2,1A54.92,54.92,0,0,0,198.57,207.6Z" style="fill:#eb9481"></path><path d="M200.34,196.18a16.78,16.78,0,0,0,9.13,10.74l2.42-8-9.09-6.84-1.32-.91S201,193.4,200.34,196.18Z" style="fill:#263238"></path><path d="M198.61,194.09c-3.46.27-11.09,5.13-12.56,10.31s.89,12.1,2.54,12.35,7.66-2.16,11.18-5.79S200.32,194,198.61,194.09Z" style="fill:#263238"></path><path d="M198.63,194.11c.1-.06.06-.24-.07-.21-2.86.8-5.61,2.68-8.07,4.28a17.31,17.31,0,0,0-5.32,4.75,8,8,0,0,0-1,6.59,16.25,16.25,0,0,0,3.86,7.29c.05.05.17,0,.12-.08-2.74-4.33-5.65-9.76-1.93-14.41C189.35,198.37,194.36,196.49,198.63,194.11Z" style="fill:#263238"></path><path d="M188.68,215.37c-2.73,1.24-8.45,8.88-8,14.65s7.21,12.4,8.78,12.56,6.25-6.93,7.14-11.35c.59-2.95-1.39-5.58-2.9-8.33C191.42,218.84,189.1,215.18,188.68,215.37Z" style="fill:#263238"></path><path d="M198.05,230c-.83-5.75-5.6-10.25-9-14.64a.05.05,0,0,0-.09.06c2.49,4.44,6.66,7.85,8.25,12.8a9.5,9.5,0,0,1-1.08,8.71c-1.63,2.22-4.06,3.74-6.25,5.36-.14.1,0,.31.18.21C194.48,239.45,198.91,236,198.05,230Z" style="fill:#263238"></path><path d="M188.22,216.07c.12-.11,0-.31-.16-.2-3.46,3.14-7.46,7.41-8.37,12.15-1,5.14,2.76,9,6.06,12.41a0,0,0,1,0,.07-.06c-3.29-3.42-7-7.8-5.64-12.92C181.33,223.05,185,219.09,188.22,216.07Z" style="fill:#263238"></path><path d="M189.69,242.34c2.15.58,5.68,3.29,7.16,7,2.52,6.42,4.75,4.58,12.39,4.8,6.46.18,9.23,6.78,6.68,10.87,0,0,1-4.64-3.58-5.84-5.48-1.42-15.68,6.18-22.81.4C180.31,252.12,189.69,242.34,189.69,242.34Z" style="fill:#263238"></path><path d="M193,244.85c-.1-.07,0-.24.13-.17a9.86,9.86,0,0,1,2.61,2.46c.93,1.28,1.28,2.8,2.11,4.12,2.1,3.37,6.47,2.3,9.72,1.85,4.34-.61,8.34,1.27,9.57,5.72a.05.05,0,0,1-.1,0,7.82,7.82,0,0,0-5.92-5.5c-2.73-.52-5.43.64-8.17.57-1.86-.05-3.79-.43-5-2a15.85,15.85,0,0,1-1.45-2.88A10.85,10.85,0,0,0,193,244.85Z" style="fill:#263238"></path><path d="M188.74,243.38s.1,0,.08.05c-1.92,2.92-4,5.87-3.93,9.52.05,3.93,2.8,7.29,6.25,8.93,3.86,1.84,7.15-.13,10.7-1.65,2.57-1.09,5.24-2,8.06-1.63.09,0,.07.15,0,.15-4.45-.08-8.06,2-12.07,3.56a8.52,8.52,0,0,1-9-1.51C182.79,256,184.33,248.73,188.74,243.38Z" style="fill:#263238"></path><path d="M195.22,191.88a1.18,1.18,0,0,0-1.32,2A1.18,1.18,0,0,0,195.22,191.88Z" style="fill:#FFC727"></path><path d="M196.68,193.52a1.18,1.18,0,0,0-1.32,2A1.18,1.18,0,0,0,196.68,193.52Z" style="fill:#FFC727"></path><path d="M198.42,194.9a1.18,1.18,0,0,0-1.32,2C198.34,197.73,199.67,195.78,198.42,194.9Z" style="fill:#FFC727"></path><path d="M200.27,196A1.18,1.18,0,0,0,199,198,1.18,1.18,0,0,0,200.27,196Z" style="fill:#FFC727"></path><path d="M202.33,196.81a1.18,1.18,0,0,0-1.32,2A1.18,1.18,0,0,0,202.33,196.81Z" style="fill:#FFC727"></path><path d="M204.42,197.2a1.18,1.18,0,0,0-1.32,2A1.18,1.18,0,0,0,204.42,197.2Z" style="fill:#FFC727"></path><path d="M221.38,183c4.77,13.86-3,18.29-6,19.31-2.72.94-12.08,3.76-18.26-9.53s-1.25-19.9,4.85-22.36S216.6,169.13,221.38,183Z" style="fill:#eb9481"></path><path d="M218.69,180.51a8.11,8.11,0,0,1-1,.12,1.61,1.61,0,0,1-1-.08.51.51,0,0,1-.2-.59,1.29,1.29,0,0,1,1.1-.69,1.88,1.88,0,0,1,1.33.26A.55.55,0,0,1,218.69,180.51Z" style="fill:#263238"></path><path d="M209.37,183.9a7.48,7.48,0,0,0,.86-.51,1.57,1.57,0,0,0,.78-.68.52.52,0,0,0-.2-.6,1.28,1.28,0,0,0-1.29.12,1.89,1.89,0,0,0-.91,1A.56.56,0,0,0,209.37,183.9Z" style="fill:#263238"></path><path d="M212.51,186.71s-.06.07,0,.11c.36.92.63,2-.1,2.64,0,0,0,.07,0,0C213.37,189,213,187.52,212.51,186.71Z" style="fill:#263238"></path><path d="M211.33,186c-1.53.43-.57,3.47.85,3.07S212.62,185.69,211.33,186Z" style="fill:#263238"></path><path d="M210.79,186.39c-.21.26-.38.65-.69.78s-.74-.08-1.07-.3c0,0-.06,0-.05,0,.18.58.59,1.11,1.25,1s.83-.75.79-1.38C211,186.42,210.87,186.29,210.79,186.39Z" style="fill:#263238"></path><path d="M218,184.55s.09,0,.1.06c.26.95.72,2,1.67,2,0,0,0,0,0,.06C218.72,186.89,218.12,185.49,218,184.55Z" style="fill:#263238"></path><path d="M218.57,183.3c1.48-.58,2.54,2.42,1.16,3S217.32,183.79,218.57,183.3Z" style="fill:#263238"></path><path d="M219.26,183.28c.3.07.63.28.92.2s.47-.51.57-.89c0,0,0,0,.06,0,.21.57.23,1.24-.28,1.54s-1-.08-1.35-.6C219.12,183.44,219.14,183.25,219.26,183.28Z" style="fill:#263238"></path><path d="M215.06,194.47c.29.16.6.41.95.34a2.55,2.55,0,0,0,1-.51,0,0,0,0,1,.06,0,1.33,1.33,0,0,1-1.07.84,1.07,1.07,0,0,1-1-.64S215,194.45,215.06,194.47Z" style="fill:#263238"></path><path d="M217.77,189.45s.74,1.54,1,2.2a4.42,4.42,0,0,1-3.9-.13c-.07-.05,0-.15.07-.13a5,5,0,0,0,3.14,0c0-.2-1.2-2.32-1.1-2.36a5.79,5.79,0,0,1,1.61-.16c-1.29-2.82-3-5.41-4.25-8.24a.1.1,0,0,1,.16-.1,50.18,50.18,0,0,1,4.95,8.68C219.59,189.52,218.07,189.47,217.77,189.45Z" style="fill:#263238"></path><path d="M218.12,191.65a4.07,4.07,0,0,1-1.14,1.7,1.8,1.8,0,0,1-1,.42c-.83,0-1.08-.64-1.14-1.28a4.51,4.51,0,0,1,0-1A5.3,5.3,0,0,0,218.12,191.65Z" style="fill:#263238"></path><path d="M217,193.35a1.8,1.8,0,0,1-1,.42c-.83,0-1.08-.64-1.14-1.28A1.87,1.87,0,0,1,217,193.35Z" style="fill:#ff98b9"></path><path d="M208.86,171.56a6.44,6.44,0,0,1,.73,3.7c-.73,3.52-4.73,3.62-5.72,5.19s.09,3.78-.72,5.22c-1.12,2-3.35,1.87-3.33,3s.14,4.8-1.13,5.58-13.33-20.68,5-24.44c0,0,2.24-1.63,6.57-.63,4.79,1.09,8.37,7.64,8.37,7.64s-.11-.08-.86-.47c-1.07-.56-1.58-1.19-2.35-1.53-1.2-.53-1.68-.1-2.92-.61A12.24,12.24,0,0,1,208.86,171.56Z" style="fill:#263238"></path><path d="M208.34,170.63a12.86,12.86,0,0,1,1.21,2.64,5.27,5.27,0,0,1,.28,2.79,3.91,3.91,0,0,1-1.68,2.13c-.79.53-1.72.86-2.55,1.46a2.81,2.81,0,0,0-1,1.21,3.86,3.86,0,0,0-.19,1.52,5.28,5.28,0,0,1-.39,2.76,3.21,3.21,0,0,1-2.18,1.62,7,7,0,0,0-2.78.84,7.09,7.09,0,0,1,2.83-.62,3.51,3.51,0,0,0,2.44-1.66,5.32,5.32,0,0,0,.5-2.94A3.38,3.38,0,0,1,205,181a2.46,2.46,0,0,1,.85-1c.75-.56,1.68-.91,2.51-1.48a5,5,0,0,0,1.12-1,3.16,3.16,0,0,0,.68-1.37,5.58,5.58,0,0,0-.42-2.95A12.77,12.77,0,0,0,208.34,170.63Z" style="fill:#263238"></path><path d="M208.89,171.37a10,10,0,0,0,1.49,2.28,4.8,4.8,0,0,0,2.31,1.55,7.81,7.81,0,0,0,1.38.18,2.21,2.21,0,0,1,1.14.41,7.08,7.08,0,0,0,1,.88,3,3,0,0,0,1.32.38,3.28,3.28,0,0,1-1.19-.57,7,7,0,0,1-.94-.95,2.29,2.29,0,0,0-1.33-.58,7.12,7.12,0,0,1-1.3-.19,5.05,5.05,0,0,1-2.17-1.37A19,19,0,0,1,208.89,171.37Z" style="fill:#263238"></path><path d="M198.87,197.89a2.73,2.73,0,0,0,.7,0,2.32,2.32,0,0,0,1.43-.62,2.47,2.47,0,0,0,.44-.55,2.78,2.78,0,0,0,.34-.93l-1.74-3.6s-4.22-3.66-5.95-2.05S196.29,197.6,198.87,197.89Z" style="fill:#eb9481"></path><path d="M195.25,191.78a0,0,0,0,0,0,.07,6.29,6.29,0,0,1,4.09,3,1.37,1.37,0,0,0-2.08.13s0,.1.07.08a1.52,1.52,0,0,1,1.76.11,7.35,7.35,0,0,1,1.11,1.12c.11.13.36,0,.26-.17l0,0C200,194,197.58,191.43,195.25,191.78Z" style="fill:#263238"></path><path d="M198.92,197.24a.68.68,0,1,0,.32-.91A.68.68,0,0,0,198.92,197.24Z" style="fill:#fff"></path><path d="M197.32,196.58a.48.48,0,0,0,.64.23.48.48,0,0,0-.41-.87A.48.48,0,0,0,197.32,196.58Z" style="fill:#fff"></path><rect x="159.23" y="293.92" width="84.05" height="32.4" transform="translate(402.51 620.24) rotate(180)" style="fill:#a6a6a6"></rect><path d="M173,404.27h70.32v-4.06H173a11.55,11.55,0,0,1-11.54-11.53V231.49a15.61,15.61,0,0,0-15.59-15.6h-9.48V220h9.48a11.55,11.55,0,0,1,11.53,11.54V388.68A15.61,15.61,0,0,0,173,404.27Z" style="fill:#c7c7c7"></path><path d="M241.25,426.21h4.06v-134a14.06,14.06,0,0,0-14-14H159.39v4.06h71.88a10,10,0,0,1,10,10Z" style="fill:#c7c7c7"></path><rect x="123.77" y="213.74" width="25.15" height="8.07" transform="translate(272.7 435.56) rotate(180)" style="fill:#263238"></rect><path d="M106.91,378.17c0-39.09,25.48-70.89,56.8-70.89s56.8,31.8,56.8,70.89-25.48,70.89-56.8,70.89S106.91,417.26,106.91,378.17Zm5.69,0c0,36,22.93,65.21,51.11,65.21s51.12-29.25,51.12-65.21S191.9,313,163.71,313,112.6,342.22,112.6,378.17Z" style="fill:#263238"></path><path d="M109,378.17c0-34.65,22.54-62.84,50.25-62.84s50.25,28.19,50.25,62.84S186.94,441,159.23,441,109,412.82,109,378.17Zm4.06,0c0,32.41,20.72,58.78,46.19,58.78s46.19-26.37,46.19-58.78-20.72-58.78-46.19-58.78S113,345.76,113,378.17Z" style="fill:#c7c7c7"></path><ellipse cx="161.15" cy="378.17" rx="8.15" ry="10.27" style="fill:#c7c7c7"></ellipse><ellipse cx="158.54" cy="378.17" rx="8.15" ry="10.27" style="fill:#dbdbdb"></ellipse><ellipse cx="242.14" cy="437.64" rx="10.6" ry="13.37" style="fill:#c7c7c7"></ellipse><ellipse cx="238.74" cy="437.64" rx="10.6" ry="13.37" style="fill:#dbdbdb"></ellipse></g></svg>
