<svg xmlns="http://www.w3.org/2000/svg" viewBox="0 0 500 500"><g id="freepik--Table--inject-19"><path d="M54.55,465.88c125.22-.61,265.68-.61,390.9,0-125.22.62-265.68.62-390.9,0Z" style="fill:#263238"></path></g><g id="freepik--Character--inject-19"><path d="M306.72,465.88h-88.5l-.16-.72c-2.26-10-4.51-20.07-6.71-29.81-.14-.7-.3-1.38-.46-2.06-.38-1.7-.75-3.4-1.13-5.08l-3.23-14.36c-.26-1.18-.53-2.33-.79-3.48,0-.18-.07-.35-.12-.53-.17-.81-.36-1.62-.54-2.44q-.69-3-1.33-5.92c-.17-.72-.33-1.44-.48-2.14s-.35-1.55-.53-2.31c-.22-1-.45-2-.67-3l-.39-1.73c-.57-2.55-1.14-5-1.67-7.44a.31.31,0,0,1,0-.08c-.15-.66-.29-1.32-.44-2-.09-.42-.19-.83-.28-1.22-.19-.83-.38-1.65-.55-2.47-.56-2.44-1.08-4.78-1.58-7-.16-.7-.31-1.37-.45-2q-.16-.68-.3-1.32c-.12-.53-.23-1.05-.35-1.56-.22-1-.43-1.91-.64-2.81s-.38-1.71-.56-2.52c-.12-.53-.23-1-.35-1.54l-.41-1.84c-.07-.3-.14-.6-.2-.89s-.13-.58-.19-.85a.58.58,0,0,1,0-.1c-.07-.25-.11-.48-.17-.73s-.12-.52-.17-.78c-.1-.43-.19-.85-.28-1.25s-.16-.67-.22-1-.19-.83-.28-1.21c-.14-.64-.27-1.21-.39-1.73-.06-.3-.13-.59-.19-.85l-.09-.4c-.09-.39-.16-.72-.22-1s-.09-.37-.12-.5a1.12,1.12,0,0,0,0-.21s0-.06,0-.08a.11.11,0,0,1,0-.07.35.35,0,0,1,0-.1h78.75s.15.45.42,1.32c0,.11.07.23.11.35.2.66.47,1.49.78,2.5.09.27.18.56.27.85l1.28,4.11c.13.39.25.79.38,1.2s.26.83.4,1.26.27.88.41,1.33.22.71.34,1.08l.55,1.76c.15.49.31,1,.48,1.52s.32,1,.49,1.58c1.93,6.21,4.26,13.72,6.88,22.18.25.84.51,1.67.78,2.53q.24.76.48,1.56c.16.52.32,1.05.49,1.58.65,2.11,1.32,4.28,2,6.48l1.55,5c.34,1.14.69,2.28,1.05,3.45s.72,2.31,1.08,3.49c.17.59.35,1.18.53,1.77.05.16.09.3.15.46.15.47.35,1.14.59,1.94.1.34.2.67.31,1,.06.18.11.36.17.55s.19.65.29,1,.28.91.43,1.37.23.8.36,1.19c.06.23.14.45.2.67l1.24,4c.26.85.48,1.59.65,2.13l.13.46c0,.13.08.23.11.32,2.79,9.21,5.67,18.75,8.56,28.36C305,460.07,305.86,463,306.72,465.88Z" style="fill:#FFC727"></path><path d="M306.72,465.88h-88.5l-.16-.72c-2.26-10-4.51-20.07-6.71-29.81-.14-.7-.3-1.38-.46-2.06-.38-1.7-.75-3.4-1.13-5.08l-3.23-14.36c-.26-1.18-.53-2.33-.79-3.48,0-.18-.07-.35-.12-.53-.17-.81-.36-1.62-.54-2.44q-.69-3-1.33-5.92c-.17-.72-.33-1.44-.48-2.14s-.35-1.55-.53-2.31c-.22-1-.45-2-.67-3l-.39-1.73c-.57-2.55-1.14-5-1.67-7.44a.31.31,0,0,1,0-.08c-.15-.66-.29-1.32-.44-2-.09-.42-.19-.83-.28-1.22-.19-.83-.38-1.65-.55-2.47-.56-2.44-1.08-4.78-1.58-7-.16-.7-.31-1.37-.45-2q-.16-.68-.3-1.32c-.12-.53-.23-1.05-.35-1.56-.22-1-.43-1.91-.64-2.81s-.38-1.71-.56-2.52c-.12-.53-.23-1-.35-1.54l-.41-1.84c-.07-.3-.14-.6-.2-.89s-.13-.58-.19-.85a.58.58,0,0,1,0-.1c-.07-.25-.11-.48-.17-.73s-.12-.52-.17-.78c-.1-.43-.19-.85-.28-1.25s-.16-.67-.22-1-.19-.83-.28-1.21c-.14-.64-.27-1.21-.39-1.73-.06-.3-.13-.59-.19-.85l-.09-.4c-.09-.39-.16-.72-.22-1s-.09-.37-.12-.5a1.12,1.12,0,0,0,0-.21s0-.06,0-.08a.11.11,0,0,1,0-.07.35.35,0,0,1,0-.1h78.75s.15.45.42,1.32c0,.11.07.23.11.35.2.66.47,1.49.78,2.5.09.27.18.56.27.85l1.28,4.11c.13.39.25.79.38,1.2s.26.83.4,1.26.27.88.41,1.33.22.71.34,1.08l.55,1.76c.15.49.31,1,.48,1.52s.32,1,.49,1.58c1.93,6.21,4.26,13.72,6.88,22.18.25.84.51,1.67.78,2.53q.24.76.48,1.56c.16.52.32,1.05.49,1.58.65,2.11,1.32,4.28,2,6.48l1.55,5c.34,1.14.69,2.28,1.05,3.45s.72,2.31,1.08,3.49c.17.59.35,1.18.53,1.77.05.16.09.3.15.46.15.47.35,1.14.59,1.94.1.34.2.67.31,1,.06.18.11.36.17.55s.19.65.29,1,.28.91.43,1.37.23.8.36,1.19c.06.23.14.45.2.67l1.24,4c.26.85.48,1.59.65,2.13l.13.46c0,.13.08.23.11.32,2.79,9.21,5.67,18.75,8.56,28.36C305,460.07,305.86,463,306.72,465.88Z" style="opacity:0.2"></path><path d="M232.67,465.88h-1.9q-4-16.61-8-33.22c-.05-.25-.12-.49-.17-.74q-4.92-20.52-9.8-41.05c-1.64-6.91-3.21-13.85-4.8-20.78-.79-3.44-.45-4.93.16-2.22,1.52,6.65,3.43,13.2,5.11,19.79s3.39,13.49,5.08,20.24q3.07,12.33,6.12,24.67,1.92,7.73,3.82,15.46c1.07,4.29,2.12,8.59,3.18,12.88Q232.05,463.4,232.67,465.88Z" style="opacity:0.1"></path><path d="M261.25,346.76c-1.06,8.15-2.59,19-4.44,31.7v0c-1.39,9.52-3,20-4.62,31.18h0q-1,6.81-2.09,13.88a.41.41,0,0,0,0,.11c-.1.6-.19,1.2-.27,1.81-.3,1.92-.58,3.86-.88,5.8-1.71,11.33-3.47,23-5.21,34.61H218.21c0-.24-.1-.48-.15-.72-2.26-10-4.51-20.07-6.71-29.81-.14-.69-.3-1.38-.45-2.06h0c-.38-1.7-.75-3.4-1.13-5.08l-3.23-14.36c-.26-1.18-.53-2.33-.79-3.48,0-.18-.07-.35-.12-.53-.17-.81-.36-1.62-.54-2.44q-.69-3-1.33-5.92c-.17-.72-.33-1.44-.48-2.14s-.35-1.55-.53-2.31c-.22-1-.45-2-.67-3l-.39-1.73c-.57-2.55-1.14-5-1.67-7.44a.31.31,0,0,1,0-.08c-.15-.66-.29-1.32-.44-2-.09-.42-.19-.83-.28-1.22-.19-.83-.38-1.65-.55-2.47-.56-2.44-1.08-4.78-1.58-7-.16-.7-.31-1.37-.45-2q-.16-.68-.3-1.32c-.12-.53-.23-1.05-.35-1.56-.22-1-.43-1.91-.64-2.81s-.38-1.71-.56-2.52c-.12-.53-.23-1-.35-1.54l-.41-1.84c-.07-.3-.14-.6-.2-.89s-.13-.58-.19-.85a.58.58,0,0,1,0-.1c-.07-.25-.11-.48-.17-.73s-.12-.52-.17-.78c-.1-.43-.19-.85-.28-1.25s-.16-.67-.22-1-.19-.83-.28-1.21c-.14-.64-.27-1.21-.39-1.73-.06-.3-.13-.59-.19-.85l-.09-.4c-.09-.39-.16-.72-.22-1s-.09-.37-.12-.5a1.12,1.12,0,0,0,0-.21s0-.06,0-.08a.11.11,0,0,1,0-.07.35.35,0,0,1,0-.1Z" style="opacity:0.1"></path><path d="M267.64,346.75h0c0,.81-1.9,38-10.44,67.51-.68,2.47-1.44,4.89-2.24,7.22,0,0-1.74.63-4.86,2.06-.42.18-.87.4-1.34.62l-.1,0c-2,1-4.48,2.19-7.33,3.73h0l-1.44.79q-2.71,1.48-5.81,3.34c-.58.34-1.17.7-1.77,1.07l-.05,0s-.34,11.28-.81,27.75c0,1.61-.09,3.27-.14,5h-77c.73-11,1.45-21.18,2.12-29.72l0-.36c0-.09,0-.21,0-.33a1.24,1.24,0,0,1,0-.18c.52-6.7,1-12.33,1.46-16.49,0-.2,0-.38.05-.53s0-.15,0-.2,0-.15,0-.21a16,16,0,0,0,0-2.14c0-.36,0-.74-.05-1.14,0-.61-.08-1.29-.13-2,0-.47-.08-1-.12-1.47,0-.32-.06-.64-.08-1-.06-.67-.12-1.37-.19-2.08-.1-1.22-.22-2.49-.33-3.8-.08-.92-.15-1.86-.23-2.8,0-.31-.05-.64-.08-.95-.06-.95-.13-1.92-.19-2.88v0c-.06-1.19-.13-2.38-.18-3.54,0-.4,0-.79,0-1.17,0,0,0,0,0,0,0-.46,0-.91,0-1.34,0-1.53,0-3,.06-4.36a1.41,1.41,0,0,1,0-.21c0-.44,0-.86.08-1.27s.08-.94.14-1.38c.63-5.19,1.46-10.1,2.35-14.56.1-.55.21-1.1.33-1.64.81-3.93,1.65-7.47,2.43-10.49L162,357c.31-1.23.62-2.38.92-3.41,0-.18.09-.34.14-.51.57-2,1.06-3.63,1.4-4.71.08-.24.14-.45.2-.63.21-.64.33-1,.33-1H267.64Z" style="fill:#FFC727"></path><path d="M267.64,346.75h0c0,.81-1.9,38-10.44,67.51-.68,2.47-1.44,4.89-2.24,7.22,0,0-1.74.63-4.86,2.06-.42.18-.87.4-1.34.62l-.1,0c-2,1-4.48,2.19-7.33,3.73h0l-1.44.79q-2.71,1.48-5.81,3.34c-.58.34-1.17.7-1.77,1.07l-.05,0s-.34,11.28-.81,27.75c0,1.61-.09,3.27-.14,5h-77c.73-11,1.45-21.18,2.12-29.72l0-.36c0-.09,0-.21,0-.33a1.24,1.24,0,0,1,0-.18c.52-6.7,1-12.33,1.46-16.49,0-.2,0-.38.05-.53s0-.15,0-.2,0-.15,0-.21a16,16,0,0,0,0-2.14c0-.36,0-.74-.05-1.14,0-.61-.08-1.29-.13-2,0-.47-.08-1-.12-1.47,0-.32-.06-.64-.08-1-.06-.67-.12-1.37-.19-2.08-.1-1.22-.22-2.49-.33-3.8-.08-.92-.15-1.86-.23-2.8,0-.31-.05-.64-.08-.95-.06-.95-.13-1.92-.19-2.88v0c-.06-1.19-.13-2.38-.18-3.54,0-.4,0-.79,0-1.17,0,0,0,0,0,0,0-.46,0-.91,0-1.34,0-1.53,0-3,.06-4.36a1.41,1.41,0,0,1,0-.21c0-.44,0-.86.08-1.27s.08-.94.14-1.38c.63-5.19,1.46-10.1,2.35-14.56.1-.55.21-1.1.33-1.64.81-3.93,1.65-7.47,2.43-10.49L162,357c.31-1.23.62-2.38.92-3.41,0-.18.09-.34.14-.51.57-2,1.06-3.63,1.4-4.71.08-.24.14-.45.2-.63.21-.64.33-1,.33-1H267.64Z" style="opacity:0.2"></path><path d="M253.42,422.44a166.47,166.47,0,0,0-26.25,12.23.3.3,0,0,0,.24.54c8.84-3.8,17.86-7.43,26.48-11.71A.58.58,0,0,0,253.42,422.44Z" style="fill:#263238"></path><path d="M256.23,361.77c0-.31-.56-.38-.56,0,.07,10.5-.6,19.74-1.48,29.55-.41,4.55-4.08,29.73-12,27.89-1.32-.31-2-1.61-2.2-3.6-.25-2.4.65-5.34,1.05-7.72.87-5.27,1.58-10.56,2-15.88a144.59,144.59,0,0,0-.32-29.78.26.26,0,0,0-.51,0c0,13.76-.35,27.48-2.4,41.11-1,6.54-4.29,16.4,2.56,17.41s11.48-15.49,12.33-20C257.13,388.13,257.22,374.52,256.23,361.77Z" style="fill:#263238"></path><path d="M242.42,419.84a43.32,43.32,0,0,0-1.77,5.22,11.7,11.7,0,0,0-.74,4.28c0,.28.4.31.55.12a15.29,15.29,0,0,0,1.83-4.17c.6-1.62,1.24-3.22,1.79-4.85A.88.88,0,0,0,242.42,419.84Z" style="fill:#263238"></path><path d="M167.28,399.16c.55,5.43,1,10.87,1.38,16.32l-.76,20.07-1.15,30.33h-1c.45-10.87.86-21.06,1.23-30.28.29-7.39.56-14.17.8-20.16,0,0-1.23-16.1-1.23-16.21l-.39-4.06c-.6-4.05.57-8.23,1.25-12.21,2.16-10.67,4.77-21.24,7.45-31.78-2.51,10.58-5,21.19-7,31.88-.61,4-1.7,8-1.06,12Z" style="opacity:0.1"></path><path d="M295.55,428.82l-139.13,7.34c.19-2,1.48-16.78,1.65-18.3.46-4.28-2.59-23.51-1.35-33.55A205.49,205.49,0,0,1,165,346.76H270.19s9.17,29.08,20.75,66.94C291.52,415.6,295,426.89,295.55,428.82Z" style="opacity:0.1"></path><path d="M251.12,247.37c17.91,16.11,81.65,82.7,76.21,104.41-5.06,20.2-23.89,23.58-36.2,12.64-17.84-15.86-46.07-77.65-53.18-96.63C231.18,249.73,233.51,231.55,251.12,247.37Z" style="fill:#FFC727"></path><g style="opacity:0.2"><path d="M251.12,247.37c17.91,16.11,81.65,82.7,76.21,104.41-5.06,20.2-23.89,23.58-36.2,12.64-17.84-15.86-46.07-77.65-53.18-96.63C231.18,249.73,233.51,231.55,251.12,247.37Z"></path></g><path d="M286.88,284.42c-10.52,7-22.2,14.82-32.17,21.27,0-.09-.08-.17-.12-.26-2.05-4.24-4-8.38-5.83-12.33,4.13-2.68,8.52-5.58,13-8.52,1.86-1.25,3.74-2.49,5.6-3.73,3.43-2.28,6.87-4.57,10.2-6.81,3,3.24,6.07,6.64,9.14,10.14A2.31,2.31,0,0,1,286.88,284.42Z" style="fill:#ebebeb"></path><path d="M290.11,288.13c-10.88,7.28-23,15.35-33.22,22q-1.11-2.22-2.18-4.41c0-.09-.08-.17-.12-.26,9.91-6.42,21.57-14.18,32.09-21.25a2.31,2.31,0,0,1,.2.24C288,285.64,289,286.89,290.11,288.13Z" style="fill:#FFC727"></path><path d="M277.54,274c-3.33,2.24-6.77,4.53-10.2,6.81-1.86,1.24-3.74,2.48-5.6,3.73-4.46,2.94-8.85,5.84-13,8.52q-1.11-2.44-2.15-4.75c8.64-5.65,18.35-12.11,27.35-18.14Q275.73,272.07,277.54,274Z" style="fill:#FFC727"></path><path d="M310.36,370.17c-6.47,1.31-13.54-.69-19.23-5.75-17.84-15.85-46.07-77.65-53.18-96.63-5.69-15.21-4.93-30.53,6-25.49Z" style="opacity:0.1"></path><path d="M284.07,378.05l12.23,42.13-40.41,4.25-10.07-22.65-12.46,23.78L149.47,424l5.94-45.24s-3.66-5.92-1.58-15.11c6.72-29.71,27.21-93.48,51.46-118,13.17-13.33,34.67-7.83,40.84-1.53,19.46,19.87,39,109.52,41.57,120.69C288.7,369.25,284.12,378,284.07,378.05Z" style="fill:#FFC727"></path><g style="opacity:0.2"><path d="M284.07,378.05l12.23,42.13-40.41,4.25-10.07-22.65-12.46,23.78L149.47,424l5.94-45.24s-3.66-5.92-1.58-15.11c6.72-29.71,27.21-93.48,51.46-118,13.17-13.33,34.67-7.83,40.84-1.53,19.46,19.87,39,109.52,41.57,120.69C288.7,369.25,284.12,378,284.07,378.05Z"></path></g><path d="M275.28,314.83h-.14l-3.85.19h-.19l-5.91.28H265l-6,.24-2.14.07-5.07.15h0c-2.73.07-5.3.1-7.57.1l-14.1,0c-23.75,0-46.45-.12-62-.24,2-5.71,4.26-11.49,6.59-17.18v0l5.52,0,10,0c12,.07,25.71.1,39.77.1h14.08c4.67,0,10.62-.18,16.8-.42l9.36-.41S273.72,309.22,275.28,314.83Z" style="fill:#ebebeb"></path><path d="M276.69,319.94c-10.61.53-23.72,1.1-32.38,1.12H230.24c-24.77,0-48.35-.12-63.94-.24.58-1.7,1.19-3.43,1.81-5.15,18.61.12,47.48.27,76.19.2,2.24,0,4.77,0,7.5-.12h0c1.62,0,3.33-.08,5.07-.15l2.14-.07,6-.24h.18l5.91-.28h.19l3.85-.19h.14C275.76,316.55,276.24,318.25,276.69,319.94Z" style="fill:#FFC727"></path><path d="M260.91,298.2c-6.18.24-12.13.4-16.8.42H230c-14.06,0-27.74,0-39.77-.1l-10,0-5.52,0v0c.72-1.72,1.45-3.45,2.17-5.15,18.23.12,42.79.2,67.22.15,6.62,0,15.87-.34,24.6-.74.53,1.69,1.07,3.38,1.58,5.09C270.27,297.79,264,298.08,260.91,298.2Z" style="fill:#FFC727"></path><polygon points="235.88 420.76 235.71 421.08 233.36 425.55 149.46 424 150.08 419.22 150.13 418.91 233.33 420.88 235.88 420.76" style="fill:#FFC727"></polygon><polygon points="296.3 420.19 255.89 424.43 253.99 420.17 253.85 419.86 255.77 419.76 294.92 415.46 295.03 415.82 296.3 420.19" style="fill:#FFC727"></polygon><polygon points="291.14 402.4 256.16 406.23 255.51 406.27 255.34 406.29 247.99 406.65 245.83 401.78 243.16 406.89 233.4 407.37 233.31 407.37 151.89 405.46 152.58 400.28 233.33 402.18 255.77 401.08 289.68 397.35 291.13 402.37 291.14 402.4" style="fill:#FFC727"></polygon><polygon points="243.16 406.89 235.88 420.76 235.71 421.08 233.45 421.19 150.08 419.22 150.13 418.91 151.89 405.46 233.27 407.39 243.16 406.89" style="fill:#ebebeb"></polygon><polygon points="295.03 415.82 256.23 420.07 253.99 420.17 253.85 419.86 247.99 406.65 255.34 406.29 255.51 406.27 291.13 402.37 291.14 402.4 294.92 415.46 295.03 415.82" style="fill:#ebebeb"></polygon><path d="M245.82,401.78c1.77-6.38,3.8-12.76,5.06-19.19a27.76,27.76,0,0,0-.21-4.86c-.9-8.86-2.92-25.56-3.95-34.58-.37-3.31-1.3-11.67-1.6-14.86-.54-6.22,1.66-12.39,1.65-18.57a8.44,8.44,0,0,0-.19-1.1c-3-13.27-6.62-30.33-9.44-43.76l-3.94-19.51L238,264.67c3.21,13.44,7.18,30.3,10.17,43.61,1,6.55-2,13.3-1.37,19.87.27,3.15,1.15,11.58,1.49,14.83,1.28,12.09,2.69,25,3.51,37.17.21,4.17-1.77,8.22-2.81,12.18-1,3.17-2.05,6.31-3.14,9.45Z" style="fill:#263238"></path><polygon points="288.49 388.38 152.97 388.38 154.41 378.82 286.62 378.82 288.49 388.38" style="fill:#263238"></polygon><rect x="234.03" y="375.92" width="27.92" height="15.37" style="fill:#a6a6a6"></rect><polygon points="250.64 375.91 235.26 391.28 234.03 391.28 234.03 384.71 242.85 375.91 250.64 375.91" style="fill:#dbdbdb"></polygon><polygon points="261.94 388.29 261.94 391.28 258.96 391.28 261.94 388.29" style="fill:#dbdbdb"></polygon><polygon points="256.32 375.91 240.95 391.28 237.05 391.28 252.42 375.91 256.32 375.91" style="fill:#dbdbdb"></polygon><polygon points="261.94 379.1 261.94 380.1 250.76 391.28 249.76 391.28 261.94 379.1" style="fill:#dbdbdb"></polygon><polygon points="238.43 375.91 234.03 380.31 234.03 379.34 237.47 375.91 238.43 375.91" style="fill:#dbdbdb"></polygon><path d="M197.82,250.87c-26,22.76-63.55,64-62.06,74.86,3.72,27.22,28.8,68.67,39.26,81.41,6.1,7.43,46.91-22.83,41.82-29.7-8-10.84-32.23-52.07-34.39-56.52-1.16-2.37,17-34.63,26.94-56.76C220.18,240.1,210.5,239.77,197.82,250.87Z" style="fill:#ad6359"></path><path d="M252.67,417.22c-2.33,4.93-7.92,4.17-7.92,4.17a11.62,11.62,0,0,1-1.81,7.7c-2.8,3.89-10.12,1.2-10.12,1.2a14.4,14.4,0,0,1-3.2,7.82c-3.05,3.45-10.83,1.79-10.83,1.79a12.6,12.6,0,0,1-7.14,5.1c-7.88,1.79-16.57-7-22.15-12.46s-17.21-28.45-19.65-32.22l36-34s32.06,17.56,37.71,25C248.28,397.49,255.27,411.68,252.67,417.22Z" style="fill:#ad6359"></path><path d="M244.8,421.11c-3.47-7.84-9.06-14.24-14.29-20.94-.11-.14-.35,0-.23.19,5.27,6.6,9.17,14.16,14.17,21A.21.21,0,0,0,244.8,421.11Z" style="fill:#263238"></path><path d="M233.16,429.7a22.1,22.1,0,0,0-3.5-4.67q-2-2.36-4.15-4.64-4.22-4.58-8.66-8.93c-.13-.13-.36,0-.23.18,2.8,3.05,5.55,6.13,8.22,9.29,1.33,1.58,2.66,3.17,4,4.77a27,27,0,0,0,3.91,4.36A.3.3,0,0,0,233.16,429.7Z" style="fill:#263238"></path><path d="M218.68,439.76c-.67-1.55-2.23-2.84-3.39-4q-2-2-3.9-4.11c-2.59-2.75-5.18-5.5-7.68-8.35a.15.15,0,0,0-.23.19c2.52,2.9,5,5.83,7.54,8.71q1.88,2.11,3.77,4.22c1.08,1.19,2.29,2.8,3.75,3.52A.11.11,0,0,0,218.68,439.76Z" style="fill:#263238"></path><path d="M164,405.53l52-35-31.11-49.43c9.17-17.73,26.25-52.77,30.74-66,5.28-15.5-3.71-17.46-16.94-7.31-30.27,23.21-63.19,68-65,77.33C131,338.54,164,405.53,164,405.53Z" style="fill:#FFC727"></path><path d="M164,405.53l52-35-31.11-49.43c9.17-17.73,26.25-52.77,30.74-66,5.28-15.5-3.71-17.46-16.94-7.31-30.27,23.21-63.19,68-65,77.33C131,338.54,164,405.53,164,405.53Z" style="opacity:0.2"></path><path d="M200.76,346.22c-18.81,12-35.92,23-49.6,31.68,0-.1-.08-.2-.11-.3-1.81-4-3.65-8.28-5.42-12.53l15-9.59,2.6-1.65c9.29-5.94,19.47-12.44,30.16-19.29L200.6,346Z" style="fill:#ebebeb"></path><path d="M203.35,350.35c-19.08,12.21-36.43,23.29-50.16,32q-1-2.17-2-4.49c0-.1-.08-.2-.11-.3C164.67,368.91,181.79,358,200.6,346l.16.27Z" style="fill:#FFC727"></path><path d="M193.41,334.54c-10.69,6.85-20.87,13.35-30.16,19.29l-2.6,1.65-15,9.59c-.68-1.62-1.34-3.23-2-4.86,13.27-8.46,29.42-18.77,47-30Z" style="fill:#FFC727"></path><path d="M201.47,287.65c-1.92,4.07-3.92,8.19-5.86,12.2a1.3,1.3,0,0,0-.14.26c-12.92-5-24.93-9.69-35.51-13.81.06-.08.14-.16.21-.24,3-3.59,6.16-7.22,9.44-10.8a0,0,0,0,1,0,0l3.85,1.52,12.23,4.76,7.81,3,4.62,1.8Z" style="fill:#ebebeb"></path><path d="M195.61,299.85a1.3,1.3,0,0,0-.14.26c-.72,1.49-1.44,3-2.17,4.39l-36.58-14.24c1.06-1.31,2.14-2.62,3.24-4,.06-.08.14-.16.21-.24C170.73,290.18,182.72,294.84,195.61,299.85Z" style="fill:#FFC727"></path><path d="M203.68,283c-.73,1.56-1.45,3.12-2.19,4.68h0l-3.33-1.3-4.62-1.8-7.81-3-12.23-4.76-3.87-1.5a0,0,0,0,1,0,0c1.22-1.37,2.48-2.73,3.75-4.07Z" style="fill:#FFC727"></path><path d="M162.4,389.09c2.8-2.76,16.1-12.06,19.44-14.34s17-11,20.48-13.31c.19-.13.43.1.24.24-3.37,2.36-16.41,12.14-19.72,14.45s-16.7,11.44-20.32,13.13A.1.1,0,0,1,162.4,389.09Z" style="fill:#263238"></path><path d="M206.07,278.46c-6,14.35-14.26,28.68-20.31,42.49,5.15,9.14,11.05,17.91,16.49,26.89q7,11.27,14,22.61l-.07.05-1.43.9,1.34-1,0,.11q-7.5-10.92-14.78-22c-5.48-8.28-10.91-16.65-16.06-25.15a6.2,6.2,0,0,1-1.08-2.43c5.95-14.78,14.67-28.29,21.95-42.44Z" style="fill:#263238"></path><path d="M206.42,281A15.8,15.8,0,0,1,202.1,286c1.43-1.66,2.74-3.53,4.32-5.05Z" style="fill:#263238"></path><path d="M291.93,358c2.44,16.51,24.78,12.68,32.37,3.83,17.79-20.78,27.57-46.72,32.86-70.89,1.7-7.77-42.63-27-47.1-19.73C305.39,278.79,287,324.51,291.93,358Z" style="fill:#ad6359"></path><path d="M366.15,264c-.53,10.19-9.77,30.6-13.89,34.66s-39.35-10.48-40.91-16.22,2.88-39.89,9.81-47.67S366.7,253.43,366.15,264Z" style="fill:#ad6359"></path><path d="M312.91,248.86c4.55,2.92,6.71-1,6.71-1s-4,9.7.54,13.59c4.37,3.75,9.15-3.36,9.5-3.86-.21.51-3.65,9.52,1.31,13,5.15,3.58,8.72-4.38,8.95-4.89,0,.55-.48,7.79,3.88,9.55,7.49,3,9.13-15.47,14.32-19.46,0,0,7.76,8,8,8.21,0,0,1.92-17.57-3.85-24.26a5.63,5.63,0,0,0-6.93-1.4s1.24-5.59-2.57-8.43c-2-1.45-6,.4-6,.4s.81-4.52-2.75-6.83c-2.82-1.86-6.46.29-6.46.29s8.67-21.77,3.23-24.71c-9.38-5.06-25.32,42.54-29.83,43.89C308.73,243.61,310.93,247.59,312.91,248.86Z" style="fill:#ad6359"></path><path d="M336.93,224a.08.08,0,0,0-.1-.12c-7.82,5.93-14.6,14.84-17.47,24.29-.1.31.34,1.75.47,1.41C323,241.08,329.73,231.53,336.93,224Z" style="fill:#263238"></path><path d="M346.81,230.15c.08-.08-.05-.21-.15-.14-8,6.15-15.38,16.4-17.41,27.68-.07.39.25.81.37.37C331.54,250.66,340.3,236.89,346.81,230.15Z" style="fill:#263238"></path><path d="M340.05,266.52c2.37-10.73,7.94-19.64,15-28,.09-.1-.07-.22-.17-.15-4.55,3.13-8.48,8.9-11.16,13.65a29,29,0,0,0-4,14.38C339.67,266.64,340,266.75,340.05,266.52Z" style="fill:#263238"></path><path d="M319.44,248c-.11.37,1-.06.91.31-1.07,4.09-2.62,11.5.51,13.12,2.51,1.29,6-1.18,6.95-2.66l2.43-3.71-1,4.33a18.08,18.08,0,0,0-.41,5.86,6.5,6.5,0,0,0,2.34,4.76,3.73,3.73,0,0,0,4.67,0,11.17,11.17,0,0,0,3.25-4.58l2-4.84-.33,5.22a16.66,16.66,0,0,0,.26,4.34,7,7,0,0,0,1.74,3.66,3.32,3.32,0,0,0,3.42.82,7.4,7.4,0,0,0,3-2.81,58.23,58.23,0,0,0,4.16-8.1c.64-1.39,1.28-2.8,2-4.17a10.94,10.94,0,0,1,2.73-3.72,11.83,11.83,0,0,0-2.34,3.9c-.6,1.41-1.13,2.85-1.67,4.29a49.08,49.08,0,0,1-3.81,8.5,8.61,8.61,0,0,1-3.52,3.48,4.71,4.71,0,0,1-5.09-1,8.51,8.51,0,0,1-2.27-4.48,18.62,18.62,0,0,1-.37-4.83l1.69.38a12.73,12.73,0,0,1-3.79,5.44,5.35,5.35,0,0,1-3.44,1.18,6.11,6.11,0,0,1-3.37-1.22,8.2,8.2,0,0,1-3-6,19.84,19.84,0,0,1,.55-6.43l1.44.61c-1.29,1.84-4.88,5-9,3.51C315,260.28,318.64,249.82,319.44,248Z" style="fill:#263238"></path><path d="M311.35,282.43s-13.25-24.91-11-34.18,22.37-15.94,30.09-17.2c10.64-1.75,10.82,6.06,6.69,10.17-4.8,4.77-14,9.23-14.68,9.55,0,0,13.46,9.61,12.66,21.63S311.35,282.43,311.35,282.43Z" style="fill:#ad6359"></path><path d="M315.83,235.55c5.83-2.64,12-5.47,18.52-5.51,3.95.11,7.27,3.24,6.1,7.36-1.84,6.23-11.83,12-17.68,14.21l.15-1.61a26.22,26.22,0,0,1,4.79,4,25.92,25.92,0,0,1,7.43,16.41c-1.51-8.4-7.25-15.7-14.62-19.79l1.66-.69c4.7-2,18.4-9.48,16.41-15.59-.56-1.61-2.45-2.52-4.38-2.73-6.2-.17-12.45,2.12-18.38,3.94Z" style="fill:#263238"></path><path d="M299.72,287.13l58.34,13.56s-13.5,51-36.2,64.32c-11.52,6.74-22.37,7-28.1.65C280.46,351,299.72,287.13,299.72,287.13Z" style="fill:#FFC727"></path><path d="M299.72,287.13l58.34,13.56s-13.5,51-36.2,64.32c-11.52,6.74-22.37,7-28.1.65C280.46,351,299.72,287.13,299.72,287.13Z" style="opacity:0.2"></path><path d="M302.09,301.62c3.92.21,19.76,3.76,23.7,4.69s19.6,5.18,23.64,6.15c.22.05.21.38,0,.33-4-.89-20-3.92-24-4.81s-19.71-4.62-23.39-6.15C301.92,301.77,302,301.61,302.09,301.62Z" style="fill:#263238"></path><path d="M348.56,327.65c-1.77,4.14-3.77,8.41-6,12.56a2,2,0,0,0-.13.25c-14.86-3-35.44-7.31-52-11,0-.11,0-.21,0-.31.62-4.48,1.4-9,2.26-13.32,7.37,1.63,15.53,3.4,23.67,5.13l2.45.5,2.8.61,2.34.48,1.14.25c1.32.26,2.62.54,3.91.8l1.16.25L341,326.08l6.9,1.41Z" style="fill:#ebebeb"></path><path d="M342.56,340.21a2,2,0,0,0-.13.25c-.83,1.52-1.67,3-2.55,4.48-14.64-3-34.19-7.08-50.07-10.61.16-1.62.36-3.25.59-4.87,0-.11,0-.21,0-.31C307,332.84,327.62,337.14,342.56,340.21Z" style="fill:#FFC727"></path><path d="M350.58,322.76c-.62,1.59-1.31,3.22-2,4.87-.24,0-.47-.08-.71-.14l-6.9-1.41-10.78-2.23L329,323.6c-1.29-.26-2.59-.54-3.91-.8l-1.14-.25-2.34-.48-2.8-.61-2.45-.5c-8.14-1.73-16.3-3.5-23.67-5.13.34-1.74.68-3.43,1.06-5.08C312.11,314.85,335.55,319.69,350.58,322.76Z" style="fill:#FFC727"></path><path d="M299.25,288.9c-2.74,17.33-7.06,36.54-9.93,53.85l-.5,3.62c.48-19.51,5.19-38.75,10.43-57.47Z" style="fill:#263238"></path><path d="M210.24,267.55c-5.33-16.94-5.15-37.45,18.06-36.15a31,31,0,0,1,19.29,9.27c5.84,7.17,7.37,16.65,8.92,25.45-2.69-8.13-4.93-17.21-10.68-23.66a31.64,31.64,0,0,0-17.78-7.68c-21.05-1.42-19.54,17.44-17.81,32.77Z" style="fill:#263238"></path><path d="M199.73,214.26s-9.64-36.59-5.33-50.39,17.09-21.17,21.13-22c2.77-.59,14.44-3.1,25.14,4a34.07,34.07,0,0,1,11.45,12.87C260.4,175.53,199.73,214.26,199.73,214.26Z" style="fill:#FFC727"></path><g style="opacity:0.1"><path d="M199.73,214.26s-9.64-36.59-5.33-50.39,17.09-21.17,21.13-22c2.77-.59,14.44-3.1,25.14,4a34.07,34.07,0,0,1,11.45,12.87C260.4,175.53,199.73,214.26,199.73,214.26Z"></path></g><path d="M209.41,147.12S215.22,163,216,164.24,229.25,167,229.25,167s5.8-7.26,6.08-10.12-6.23-17.35-6.23-17.35-6.08,1.35-10.6-2.71A20.48,20.48,0,0,1,209.41,147.12Z" style="fill:#ebebeb"></path><g style="opacity:0.4"><path d="M225.1,139.62l-13.69,12.89c-.62-1.64-1.15-3.11-1.52-4.08l10.78-10.15A11.86,11.86,0,0,0,225.1,139.62Z" style="fill:#fff"></path><path d="M235.34,156.83c-.29,2.87-6.1,10.12-6.1,10.12s-2-.24-4.47-.6l10.56-10A3.4,3.4,0,0,1,235.34,156.83Z" style="fill:#fff"></path><path d="M229.28,139.9l-16.71,15.72c-.24-.68-.5-1.35-.76-2l14.74-13.9a12.35,12.35,0,0,0,2.54-.22S229.15,139.63,229.28,139.9Z" style="fill:#fff"></path><path d="M234,151.5l-14.73,13.89a20.39,20.39,0,0,1-2.28-.63l16.25-15.3C233.52,150.15,233.76,150.84,234,151.5Z" style="fill:#fff"></path><path d="M231.89,146,215,161.93a2.52,2.52,0,0,1-.12-.29h0l16.87-15.9A2.23,2.23,0,0,1,231.89,146Z" style="fill:#fff"></path><path d="M235.19,155.45l-11.4,10.76a2.93,2.93,0,0,0-.41-.07l11.73-11A3.21,3.21,0,0,0,235.19,155.45Z" style="fill:#fff"></path></g><path d="M211.4,147.82q2.4,6.31,4.92,12.59c.34,2.69,3.11,2.53,5.23,3.05s4.45.69,6.68,1c1-1.93,4.05-5.18,4.81-8a6.77,6.77,0,0,0-.45-3,124.36,124.36,0,0,0-4.67-12l.2.1a10.89,10.89,0,0,1-9.11-2.37l.21-.06a17.11,17.11,0,0,1-7.82,8.73Zm0,0A17.38,17.38,0,0,0,219,139l.07-.18.15.12a10.6,10.6,0,0,0,9,2.2,122.66,122.66,0,0,1,4.86,12.1,6.89,6.89,0,0,1,.48,3.28c-1.09,3.14-3.26,5.7-5.22,8.32-3.67-.56-7.44-.84-10.94-2.1a1.11,1.11,0,0,1-.64-.65c-2-4.67-3.6-9.5-5.32-14.27Z" style="fill:#dbdbdb"></path><path d="M199.22,225.41c5.89,3.33,35.31,9.28,54.53-6.23,12.9-10.43,15-48.92,8.14-62.37-5.5-10.77-47.07-7.14-58.7,5.42S190.09,220.24,199.22,225.41Z" style="fill:#FFC727"></path><path d="M236.88,261.48c-6.82,1.46-18.25-9.18-22.66-17.69-.3-.58.72-6.64,1.61-14.06.52-4.5,1-9.53,1.09-14.14,0-1,28.82,7.67,28.82,7.67s-3.07,9.62-3.2,17.68a10.51,10.51,0,0,0,.16,1.9c0,.08,0,.19,0,.31C243.24,246.76,243.48,260.07,236.88,261.48Z" style="fill:#ad6359"></path><path d="M245.73,223.26s-2.88,9.07-3.18,17c-8.1-.9-21.52-4.57-26.08-16.89.23-2.6.4-5.24.45-7.76C216.94,214.63,245.73,223.26,245.73,223.26Z" style="fill:#263238"></path><path d="M208.62,182.07c-2.37,10.47,5.24,39.67,13,45.73,11.28,8.78,28.64,8.41,35.83-4.89,7-12.89-3.62-50.77-12.21-56.16C232.61,158.81,212.11,166.59,208.62,182.07Z" style="fill:#ad6359"></path><path d="M234.58,198.36c0-.07-.13.13-.11.21.49,2,.72,4.31-.93,5.36,0,0,0,.13,0,.11C235.71,203.26,235.36,200.15,234.58,198.36Z" style="fill:#263238"></path><path d="M232.36,196.67c-3.25.45-2.11,6.91.9,6.49S235.08,196.29,232.36,196.67Z" style="fill:#263238"></path><path d="M246.49,196.18c0-.08.17.06.18.15.29,2,1,4.27,2.89,4.61a.06.06,0,0,1,0,.12C247.3,201.13,246.44,198.13,246.49,196.18Z" style="fill:#263238"></path><path d="M247.91,193.77c3.17-.81,4.56,5.6,1.62,6.35S245.25,194.45,247.91,193.77Z" style="fill:#263238"></path><path d="M229.9,194.3a25.56,25.56,0,0,0,2.53-.93,4.35,4.35,0,0,0,2.39-1.44,1.37,1.37,0,0,0-.24-1.67,3.42,3.42,0,0,0-3.47-.31,5,5,0,0,0-2.89,2.22A1.48,1.48,0,0,0,229.9,194.3Z" style="fill:#263238"></path><path d="M250.15,190.8a26.83,26.83,0,0,1-2.68.32,4.37,4.37,0,0,1-2.79-.19,1.4,1.4,0,0,1-.54-1.61,3.46,3.46,0,0,1,3-1.85,5,5,0,0,1,3.58.67A1.48,1.48,0,0,1,250.15,190.8Z" style="fill:#263238"></path><path d="M236.51,216.53c.56.38,1.15.94,1.89.88a5.41,5.41,0,0,0,2.06-.89c.06,0,.14,0,.11.09a2.76,2.76,0,0,1-2.35,1.54,2.18,2.18,0,0,1-1.89-1.5C236.28,216.54,236.43,216.47,236.51,216.53Z" style="fill:#263238"></path><path d="M237.56,210.17a6.94,6.94,0,0,0,5.08,2.23,8.69,8.69,0,0,0,2.47-.32,3.09,3.09,0,0,0,.46-.14,4.13,4.13,0,0,0,.42-.14.52.52,0,0,0,.33-.52v0a.73.73,0,0,0-.05-.2h0l0-.18c-.23-1.55-.79-3.86-.79-3.86.61.18,3.71,1,3.52.17-1.57-6.6-3.32-13.93-6.28-20.16a.19.19,0,0,0-.35.12c1.26,6.39,3.63,12.52,5,18.93a11.85,11.85,0,0,0-3.38-.41c-.21.1,1.16,4.46,1.21,5.16a.17.17,0,0,1,0,.08c-2.53.79-4.62.35-7.44-1C237.54,209.87,237.41,210,237.56,210.17Z" style="fill:#263238"></path><path d="M244,211.65a8.07,8.07,0,0,1-2.87,2.89A3.56,3.56,0,0,1,239,215c-1.63-.21-1.86-1.65-1.74-2.92a8.56,8.56,0,0,1,.46-2A10.38,10.38,0,0,0,244,211.65Z" style="fill:#263238"></path><path d="M241.1,214.54A3.56,3.56,0,0,1,239,215c-1.63-.21-1.86-1.65-1.74-2.92C238.92,212,240.74,212.92,241.1,214.54Z" style="fill:#ff9abb"></path><path d="M211.45,207.23c4.51.58,7.2-5.08,7.92-7.94s-3.27-15.72-1.75-20.08,5.72-7.26,9.44-6.72,8.88,2.65,11.48,2,2.62-5,4.46-5.3c4-.59,9.38,7.22,10.75,11.54,0,0-2.48-18.82-22.07-17.76-19.11,1-23.32,14.87-24.14,20.8C206,195.15,211.45,207.23,211.45,207.23Z" style="fill:#263238"></path><path d="M206.5,202.93c.76,2.4,4.17,2.45,5.38,1.21s-2.49-13.93,2.28-26.25c3.12-8,28.74-12.11,32.91-7.82,5.62,5.78,8.66,16.57,8.66,16.57a23.24,23.24,0,0,0,.38-4.69c0-3-2.71-13.3-9-17.09-8.86-5.37-29.53-2.33-36.43,7.41S204.8,197.54,206.5,202.93Z" style="fill:#455a64"></path><path d="M219.13,208.74s-7.58-8.92-11.69-6.13,2.22,16.17,7.49,17.58a5.2,5.2,0,0,0,6.67-3.44Z" style="fill:#ad6359"></path><path d="M209.35,206.4a.07.07,0,0,0,0,.14c3.71,1.1,5.9,4.24,7.54,7.54-1.18-1.22-2.7-1.8-4.35-.37-.08.07,0,.21.12.18a3.2,3.2,0,0,1,3.61.78,15.57,15.57,0,0,1,1.94,2.67c.2.31.76.08.6-.27l0-.08C218.42,212.43,214.28,206.39,209.35,206.4Z" style="fill:#263238"></path><path d="M212.79,243.81s-.34-11.5,0-12.22,16.78,9.75,18.31,10.33S236,254.25,236,254.25s1.62-11.2,2.18-11.62,5.16-4.37,5.73-4.44-.41,11.83-.48,13.55-.55,9.5-6.15,10.31S218.9,257,212.79,243.81Z" style="fill:#FFC727"></path><path d="M212.79,243.81s-.34-11.5,0-12.22,16.78,9.75,18.31,10.33S236,254.25,236,254.25s1.62-11.2,2.18-11.62,5.16-4.37,5.73-4.44-.41,11.83-.48,13.55-.55,9.5-6.15,10.31S218.9,257,212.79,243.81Z" style="opacity:0.2"></path><path d="M216.4,303.61c-.82-2.73-6.64-35.84-6.16-36.06s10.94-9.31,26.23-10.72c11-1,19,6.83,19.64,7.12s1.73,22.33,2,27S216.4,303.61,216.4,303.61Z" style="fill:#455a64;opacity:0.1"></path><g style="opacity:0.1"><path d="M242.66,257.17l-29.48,29.48c-.47-2.63-.91-5.28-1.33-7.73l21.72-21.72c1-.15,1.91-.27,2.9-.36A21.34,21.34,0,0,1,242.66,257.17Z" style="fill:#fff"></path><path d="M257.51,280.47l-18,18.06c-4,1-8.2,2-11.85,2.78L257,272C257.16,274.61,257.35,277.62,257.51,280.47Z" style="fill:#fff"></path><path d="M228.41,258.34l-17.13,17.13c-.24-1.47-.45-2.78-.62-3.92l10.64-10.64A50.67,50.67,0,0,1,228.41,258.34Z" style="fill:#fff"></path><path d="M256.58,266.88l-35.9,35.89-1,.21,36.86-36.86C256.53,266.34,256.54,266.6,256.58,266.88Z" style="fill:#fff"></path><path d="M245.57,257.93l-31.84,31.82a6.5,6.5,0,0,0-.14-.69l31.35-31.34A5.81,5.81,0,0,1,245.57,257.93Z" style="fill:#fff"></path><path d="M258,288.78l-6.06,6.06c-.41.15-.84.31-1.29.46l7.31-7.31C257.94,288.27,258,288.53,258,288.78Z" style="fill:#fff"></path></g><path d="M215.8,304.6l-.22-.74c-.44-1.47-2.18-10.93-3.59-19.08-3.05-17.58-2.88-17.65-2.11-18l.33-.26A51.41,51.41,0,0,1,236.39,256c6.61-.59,13.24,1.71,19.69,6.87.22.18.37.3.45.35.62.29,1,.47,2.37,27.06l0,.67c.25,4.9-29.55,11.09-42.37,13.52ZM211.07,268c.27,3.42,4.72,29.26,6,34.63,19.23-3.69,39.86-9.13,40.2-11.62l0-.67c-1-19.91-1.54-24.82-1.77-25.83l-.41-.33c-6.09-4.88-12.3-7.07-18.46-6.5a49.66,49.66,0,0,0-25.31,10.2Z" style="fill:#455a64"></path><path d="M243.31,319.9c-8.24,3.16-17.19-1.43-21.39-4.93-4.88-4.05-7.95-11.84-4.74-18.14,2.64-5.18,9.33-4.48,13.22-5.51.41-.12,7.48-5.95,12.38-5.7,2.5.14,5,2.71,8,3.55s6.18-.22,6.76,1c.81,1.75,0,10.4-.95,14.45,0,0,0,0,0,0s-.06.26-.09.37C255.45,308.81,251.55,316.74,243.31,319.9Z" style="fill:#263238"></path><path d="M224.86,291.21c-9.36.6-12.3,9.6-11.74,15.05.72,7,5,12.09,12.23,12,7.54-.13,11.52-7.51,11.49-13.76C236.8,297.39,231.72,290.77,224.86,291.21Z" style="fill:#37474f"></path><path d="M232.86,300.48c-2.55-8.35-11-9.89-15.32-7.5-5,2.73-8.1,9.39-6,16.51,2.42,8.12,10.18,10.23,14.2,8.72C231.68,316,235.11,307.85,232.86,300.48Z" style="fill:#455a64"></path><path d="M227.56,302.92a5.58,5.58,0,0,0-7.68-3.76,7.07,7.07,0,0,0-3,8.27,5.56,5.56,0,0,0,7,4.11C226.84,310.42,228.68,306.61,227.56,302.92Z" style="fill:#37474f"></path><path d="M254.81,290.19a21.67,21.67,0,0,0-5.33,10.37c-1.34,6,.2,11,.69,11.36a65.92,65.92,0,0,0,6.75,2.4c.28.07-1.53-5.91.09-12.78,2.12-9,6-11.24,5.83-11.34S255.15,289.92,254.81,290.19Z" style="fill:#37474f"></path><path d="M262.84,290.2c-1.56-.16-5,4.86-6.73,12-1.36,5.74.14,12,.81,12.15.27.07,5.23-4.07,6.84-11.28S263.55,290.27,262.84,290.2Z" style="fill:#455a64"></path><path d="M261.78,296.61c-.58,0-2.07,2.68-2.81,5.82-.64,2.74-.24,5.66,0,5.72a11.09,11.09,0,0,0,2.83-5.5C262.58,299.2,262,296.62,261.78,296.61Z" style="fill:#37474f"></path></g><g id="freepik--emergency-kit--inject-19"><circle cx="296.17" cy="401.74" r="47.35" transform="translate(-143.64 637.69) rotate(-81.81)" style="fill:#ebebeb"></circle><rect x="266.38" y="385.76" width="59.59" height="38.95" style="fill:#FFC727"></rect><rect x="271.77" y="385.81" width="3.17" height="38.95" style="opacity:0.1"></rect><rect x="317.5" y="385.81" width="3.17" height="38.95" style="opacity:0.1"></rect><path d="M308.91,385.76h-4v-3.21a2.84,2.84,0,0,0-2.84-2.84H290.28a2.84,2.84,0,0,0-2.84,2.84v3.21h-4v-3.21a6.85,6.85,0,0,1,6.84-6.84h11.79a6.85,6.85,0,0,1,6.84,6.84Z" style="fill:#FFC727"></path><rect x="293.79" y="397.05" width="4.76" height="16.38" style="fill:#fff"></rect><rect x="293.79" y="397.05" width="4.76" height="16.38" transform="translate(701.41 109.06) rotate(90)" style="fill:#fff"></rect><path d="M296.13,455.28a53.55,53.55,0,1,1,41.08-19.11l-.38-.32.38.32A53.47,53.47,0,0,1,296.13,455.28Zm.13-106.12c-1.55,0-3.1.07-4.67.21a52.28,52.28,0,1,0,4.67-.21Z" style="fill:#ebebeb"></path></g><g id="freepik--smoke-detector--inject-19"><circle cx="387.5" cy="331.74" r="47.35" transform="translate(-73.74 113.88) rotate(-15.28)" style="fill:#ebebeb"></circle><rect x="355.93" y="311.09" width="63.14" height="17.88" style="fill:#FFC727"></rect><path d="M391.43,320a3.93,3.93,0,1,1-3.93-3.93A3.93,3.93,0,0,1,391.43,320Z" style="opacity:0.1"></path><path d="M389.7,320a2.2,2.2,0,1,1-2.2-2.2A2.2,2.2,0,0,1,389.7,320Z" style="fill:#fff"></path><rect x="363.75" y="335.03" width="47.5" height="2.9" style="fill:#FFC727"></rect><path d="M407.88,337.92c-3.17,2.79-11.1,4.76-20.38,4.76s-17.21-2-20.38-4.76Z" style="fill:#FFC727"></path><path d="M407.88,337.92a11.52,11.52,0,0,1-2.92,1.79l-37.08-1.2a8,8,0,0,1-.76-.59Z" style="opacity:0.1"></path><polygon points="411.25 335.03 363.75 335.03 358.75 328.97 416.25 328.97 411.25 335.03" style="fill:#455a64"></polygon><rect x="364.86" y="328.97" width="1.5" height="6.06" style="fill:#37474f"></rect><rect x="369.24" y="328.97" width="1.5" height="6.06" style="fill:#37474f"></rect><rect x="373.61" y="328.97" width="1.5" height="6.06" style="fill:#37474f"></rect><rect x="377.99" y="328.97" width="1.5" height="6.06" style="fill:#37474f"></rect><rect x="382.37" y="328.97" width="1.5" height="6.06" style="fill:#37474f"></rect><rect x="386.75" y="328.97" width="1.5" height="6.06" style="fill:#37474f"></rect><rect x="391.13" y="328.97" width="1.5" height="6.06" style="fill:#37474f"></rect><rect x="395.51" y="328.97" width="1.5" height="6.06" style="fill:#37474f"></rect><rect x="399.89" y="328.97" width="1.5" height="6.06" style="fill:#37474f"></rect><rect x="404.26" y="328.97" width="1.5" height="6.06" style="fill:#37474f"></rect><rect x="408.64" y="328.97" width="1.5" height="6.06" style="fill:#37474f"></rect><path d="M387.25,351.72a14.41,14.41,0,0,1-7.2-1.79,1,1,0,1,1,1-1.73c4.13,2.36,9.7,1.64,13.13,0A1,1,0,1,1,395,350,18.19,18.19,0,0,1,387.25,351.72Z" style="fill:#263238"></path><path d="M386.9,357.41A25.89,25.89,0,0,1,374,354.22a1,1,0,0,1-.37-1.36,1,1,0,0,1,1.36-.38c7.89,4.51,18.5,3.16,25,0a1,1,0,0,1,.87,1.8A32.79,32.79,0,0,1,386.9,357.41Z" style="fill:#263238"></path><path d="M387.41,385.32a53.73,53.73,0,1,1,4.76-.21C390.58,385.25,389,385.32,387.41,385.32Zm.13-106.12a52.54,52.54,0,1,0,33.75,12.27A52.48,52.48,0,0,0,387.54,279.2Z" style="fill:#ebebeb"></path></g><g id="freepik--fire-escape-ladders--inject-19"><circle cx="412.47" cy="219.42" r="47.35" transform="translate(-34.35 355.93) rotate(-45)" style="fill:#ebebeb"></circle><path d="M401.23,204.12a4.61,4.61,0,0,1,4.64-4.49,4.56,4.56,0,0,1,4.47,4.63,4.51,4.51,0,0,1-4.61,4.47A4.56,4.56,0,0,1,401.23,204.12Z" style="fill:#37474f"></path><path d="M414.38,211.4c-.48.65-4.33,4.84-6.07,6.57-1.92,1.93-3.09,1.93-5,0-.9-.9-1.78-1.82-2.62-2.67l-5,5.1c1.55,1.55,3.2,3.33,5,4.94a3.16,3.16,0,0,1,1.08,3.48c-.8,3.57-1.37,7.18-2,10.78a3,3,0,0,1-3.4,2.66,3,3,0,0,1-2.55-3.54c.4-2.82.87-5.62,1.27-8.43a1.4,1.4,0,0,0-.24-1c-1.37-1.5-2.78-2.95-4.23-4.48-1.69,1.8-3.36,3.55-5,5.33a2.16,2.16,0,0,1-1.8.78c-3,0-6-.07-9,0-1.88,0-3.59-.46-3.95-2.35a4,4,0,0,1,0-1.38c.36-1.89,2.05-2.46,3.93-2.38s3.8,0,5.69,0a1.5,1.5,0,0,0,1-.37c3.68-4.07,11.05-12.38,11.1-12.5a2.23,2.23,0,0,0-2.4.71c-1.25,1.47-2.63,2.83-4,4.22s-2.83,1.45-4,.31a2.72,2.72,0,0,1,.33-4c2.13-2,4.25-4.06,6.42-6.05a2.27,2.27,0,0,1,1.37-.55c2.48-.05,5,0,7.46,0a3.65,3.65,0,0,1,2.64,1.06c1.62,1.52,3.29,3,4.89,4.54.6.59,1,.5,1.51-.06,1-1.06,2.78-2.65,3.68-3.76C413.74,205,416.81,209,414.38,211.4Z" style="fill:#37474f"></path><rect x="420.55" y="200.85" width="11.44" height="7.69" transform="translate(-41.5 273.96) rotate(-34.07)" style="fill:#FFC727"></rect><polygon points="427.69 196.58 434.33 206.4 435.7 198.32 427.69 196.58" style="fill:#FFC727"></polygon><path d="M405.65,242.81a1,1,0,0,1-1-1v-6.87a1,1,0,0,1,1-1h9.92a1,1,0,0,1,0,2h-8.92v5.87A1,1,0,0,1,405.65,242.81Z" style="fill:#FFC727"></path><path d="M415.57,235.94a1,1,0,0,1-1-1v-6.87a1,1,0,0,1,1-1h9.91a1,1,0,0,1,0,2h-8.91v5.87A1,1,0,0,1,415.57,235.94Z" style="fill:#FFC727"></path><path d="M425.48,229.07a1,1,0,0,1-1-1v-6.88a1,1,0,0,1,1-1h9.92a1,1,0,0,1,0,2h-8.92v5.88A1,1,0,0,1,425.48,229.07Z" style="fill:#FFC727"></path><path d="M435.4,222.19a1,1,0,0,1-1-1v-6.87a1,1,0,0,1,1-1h9.92a1,1,0,0,1,0,2H436.4v5.87A1,1,0,0,1,435.4,222.19Z" style="fill:#FFC727"></path><path d="M445.32,215.32a1,1,0,0,1-1-1v-6.87a1,1,0,0,1,1-1h8.92a1,1,0,0,1,0,2h-7.92v5.87A1,1,0,0,1,445.32,215.32Z" style="fill:#FFC727"></path><path d="M412.42,273a53.53,53.53,0,1,1,41.08-19.11h0A53.47,53.47,0,0,1,412.42,273Zm.14-106.12c-1.55,0-3.11.07-4.67.2a52.57,52.57,0,1,0,44.85,86.17h0a52.58,52.58,0,0,0-40.18-86.37Z" style="fill:#ebebeb"></path></g><g id="freepik--fire-alarm--inject-19"><circle cx="359.4" cy="117.33" r="47.35" transform="translate(-6.78 211.4) rotate(-32.49)" style="fill:#ebebeb"></circle><path d="M359.35,170.88a53.55,53.55,0,1,1,41.08-19.11A53.32,53.32,0,0,1,359.35,170.88Zm.14-106.12c-1.55,0-3.11.07-4.67.2a52.57,52.57,0,1,0,44.85,86.16l.38.33-.38-.33a52.57,52.57,0,0,0-40.18-86.36Z" style="fill:#ebebeb"></path><path d="M373.27,140.84v-3c4.72,0,11.72-9,11.72-13.66h3C388,130.51,379.77,140.84,373.27,140.84Z" style="fill:#37474f"></path><rect x="342.31" y="136.77" width="34.17" height="11.22" style="fill:#37474f"></rect><circle cx="386.49" cy="123.96" r="3.14" style="fill:#FFC727"></circle><circle cx="359.4" cy="116.64" r="23.74" style="fill:#FFC727"></circle><circle cx="359.4" cy="116.64" r="8.59" style="opacity:0.1"></circle><circle cx="359.4" cy="116.64" r="2.93" style="opacity:0.1"></circle><path d="M340,114.08l-.17,0a1,1,0,0,1-.82-1.15c1.2-7.06,8.11-16.81,19.8-16.81h.6a1,1,0,0,1,1,1,1,1,0,0,1-1,1h-.56c-11.51,0-17,10.14-17.8,15.14A1,1,0,0,1,340,114.08Z" style="fill:#fff"></path><path d="M362.68,127.92a1,1,0,0,1-.16-2,7,7,0,0,0,6.14-5.33,1,1,0,1,1,1.9.61,9.08,9.08,0,0,1-7.72,6.7Z" style="fill:#fff"></path><circle cx="339.77" cy="117.07" r="1.16" style="fill:#fff"></circle><path d="M338.36,98.53a1.09,1.09,0,0,1-.39-.08,1,1,0,0,1-.53-1.31,10.74,10.74,0,0,1,7.23-6.24,1,1,0,0,1,1.18.79,1,1,0,0,1-.79,1.17,8.78,8.78,0,0,0-5.78,5.06A1,1,0,0,1,338.36,98.53Z" style="fill:#263238"></path><path d="M333.2,98.09a1,1,0,0,1-.4-.08,1,1,0,0,1-.52-1.31c2-4.61,6.66-9.8,12.72-11a1,1,0,0,1,1.18.78,1,1,0,0,1-.79,1.18c-5.32,1-9.57,5.83-11.27,9.82A1,1,0,0,1,333.2,98.09Z" style="fill:#263238"></path><path d="M380.44,98.53a1,1,0,0,1-.92-.61,8.78,8.78,0,0,0-5.78-5.06,1,1,0,0,1-.79-1.17,1,1,0,0,1,1.18-.79,10.76,10.76,0,0,1,7.23,6.24,1,1,0,0,1-.53,1.31A1.09,1.09,0,0,1,380.44,98.53Z" style="fill:#263238"></path><path d="M385.6,98.09a1,1,0,0,1-.92-.61c-1.7-4-5.95-8.77-11.27-9.82a1,1,0,0,1-.79-1.18,1,1,0,0,1,1.18-.78c6.06,1.2,10.76,6.39,12.72,11A1,1,0,0,1,386,98,1,1,0,0,1,385.6,98.09Z" style="fill:#263238"></path></g><g id="freepik--fire-exit--inject-19"><circle cx="253.12" cy="73.24" r="47.35" transform="translate(-8.28 106.46) rotate(-23.38)" style="fill:#ebebeb"></circle><path d="M253.08,126.79a53.55,53.55,0,1,1,41.08-19.12l-.39-.32.39.32A53.48,53.48,0,0,1,253.08,126.79Zm.08-106.1A52.56,52.56,0,1,0,293.39,107h0a52.55,52.55,0,0,0-40.23-86.34Z" style="fill:#ebebeb"></path><rect x="245.29" y="41.66" width="34.43" height="61.16" style="fill:#fff"></rect><rect x="247.67" y="44.33" width="29.53" height="58.49" style="fill:#37474f"></rect><rect x="250.16" y="73.24" width="2.07" height="4.48" style="fill:#ebebeb"></rect><rect x="272.65" y="73.24" width="2.07" height="4.48" style="fill:#ebebeb"></rect><rect x="250.16" y="76.58" width="24.57" height="1.14" style="fill:#ebebeb"></rect><rect x="250.66" y="76.33" width="1.06" height="1.81" style="fill:#c7c7c7"></rect><rect x="273.16" y="76.33" width="1.06" height="1.81" style="fill:#c7c7c7"></rect><rect x="220.52" y="63.91" width="17.94" height="18.67" style="fill:#FFC727"></rect><polygon points="238.46 58.85 238.46 87.63 252.23 73.24 238.46 58.85" style="fill:#FFC727"></polygon><path d="M271.66,102.82s-6.44-.7-6.44-6.19c0-4,3.21-4.85,1.67-9.46,0,0,1.31-.1,2.78,2.81,0,0-2-6.51,3.9-9.42,0,0-1.28,3.1.37,5.3s6.15,5.25,6.15,9.92a7,7,0,0,1-5.41,7s2.66-1.88,2-4.74-4.56-4.47-4.56-7.91a13.18,13.18,0,0,0-1.76,6.92,4.24,4.24,0,0,1-.57-2.55A6.06,6.06,0,0,0,271.66,102.82Z" style="fill:#FFC727"></path></g><g id="freepik--fire-hydrant--inject-19"><circle cx="143.36" cy="107.77" r="47.35" transform="translate(29.1 246.02) rotate(-87.36)" style="fill:#ebebeb"></circle><rect x="129.29" y="92.4" width="29.02" height="53.9" style="fill:#FFC727"></rect><rect x="127.36" y="90.27" width="32.87" height="2.12" style="fill:#FFC727"></rect><rect x="127.36" y="86.78" width="32.87" height="2.12" style="fill:#FFC727"></rect><rect x="129.29" y="88.9" width="29.02" height="1.37" style="fill:#FFC727"></rect><rect x="129.29" y="88.9" width="29.02" height="1.37" style="opacity:0.1"></rect><path d="M158.28,86.78h-29a14.51,14.51,0,0,1,29,0Z" style="fill:#FFC727"></path><path d="M158.28,86.78h-29a13.36,13.36,0,0,1,.21-1.81l28.1-1.83A14.19,14.19,0,0,1,158.28,86.78Z" style="opacity:0.1"></path><path d="M133.12,83.1a1.1,1.1,0,0,1-.31,0,1,1,0,0,1-.64-1.26c1-3.08,3.18-5.2,6.7-6.5a1,1,0,0,1,.69,1.88c-2.94,1.08-4.69,2.74-5.49,5.23A1,1,0,0,1,133.12,83.1Z" style="fill:#fff"></path><polygon points="158.31 92.39 158.31 95.58 129.29 96.94 129.29 92.39 158.31 92.39" style="opacity:0.1"></polygon><rect x="132.52" y="99.58" width="2.5" height="43.4" style="opacity:0.1"></rect><rect x="137.53" y="99.58" width="2.5" height="43.4" style="opacity:0.1"></rect><rect x="142.55" y="99.58" width="2.5" height="43.4" style="opacity:0.1"></rect><rect x="147.56" y="99.58" width="2.5" height="43.4" style="opacity:0.1"></rect><rect x="152.58" y="99.58" width="2.5" height="43.4" style="opacity:0.1"></rect><rect x="124.16" y="102.64" width="5.13" height="13.31" style="fill:#FFC727"></rect><rect x="122.21" y="103.77" width="1.95" height="11.39" style="fill:#FFC727"></rect><rect x="122.21" y="103.77" width="1.95" height="11.39" style="opacity:0.1"></rect><path d="M122.21,106.12v6.34a3.17,3.17,0,0,1,0-6.34Z" style="fill:#FFC727"></path><polygon points="129.29 102.64 129.29 115.95 128.1 115.95 126 102.64 129.29 102.64" style="opacity:0.1"></polygon><rect x="158.31" y="102.64" width="5.13" height="13.31" transform="translate(321.74 218.58) rotate(180)" style="fill:#FFC727"></rect><rect x="163.43" y="103.77" width="1.95" height="11.39" transform="translate(328.82 218.93) rotate(180)" style="fill:#FFC727"></rect><rect x="163.43" y="103.77" width="1.95" height="11.39" transform="translate(328.82 218.93) rotate(180)" style="opacity:0.1"></rect><path d="M165.39,106.12v6.34a3.17,3.17,0,0,0,0-6.34Z" style="fill:#FFC727"></path><polygon points="158.31 102.64 158.31 115.95 159.5 115.95 161.6 102.64 158.31 102.64" style="opacity:0.1"></polygon><circle cx="143.8" cy="109.29" r="10.03" transform="translate(-36.72 115.4) rotate(-39.17)" style="fill:#FFC727"></circle><path d="M150.67,109.29a6.88,6.88,0,1,1-6.87-6.87A6.88,6.88,0,0,1,150.67,109.29Z" style="opacity:0.1"></path><rect x="142.82" y="67.54" width="1.95" height="11.39" transform="translate(217.04 -70.56) rotate(90)" style="fill:#FFC727"></rect><rect x="142.82" y="67.54" width="1.95" height="11.39" transform="translate(217.04 -70.56) rotate(90)" style="opacity:0.1"></rect><path d="M147.14,72.26H140.8a3.17,3.17,0,0,1,6.34,0Z" style="fill:#FFC727"></path><path d="M143.27,161.35a53.58,53.58,0,1,1,41.13-19.14l-.38-.32.38.32A53.23,53.23,0,0,1,148,161.14C146.44,161.28,144.85,161.35,143.27,161.35Zm.14-106.12A52.5,52.5,0,1,0,177.16,67.5,52.5,52.5,0,0,0,143.41,55.23Z" style="fill:#ebebeb"></path></g><g id="freepik--Extinguisher--inject-19"><path d="M81.44,258.33a53.56,53.56,0,1,1,41.08-19.12h0A53.48,53.48,0,0,1,81.44,258.33Zm.14-106.12c-1.56,0-3.11.06-4.68.2a52.57,52.57,0,1,0,44.86,86.16h0a52.57,52.57,0,0,0-40.18-86.36Z" style="fill:#ebebeb"></path><circle cx="81.49" cy="204.78" r="47.35" transform="translate(-120.94 117.6) rotate(-45)" style="fill:#ebebeb"></circle><path d="M81.56,176.41h0a13,13,0,0,1,13,13v56.94a0,0,0,0,1,0,0h-26a0,0,0,0,1,0,0V189.38A13,13,0,0,1,81.56,176.41Z" style="fill:#FFC727"></path><rect x="67.35" y="226.24" width="28.41" height="8.68" style="fill:#263238"></rect><rect x="75.38" y="191.58" width="15.4" height="27.41" style="fill:#fff"></rect><rect x="67.35" y="196.27" width="28.41" height="8.68" style="fill:#263238"></rect><rect x="74" y="173.28" width="15.12" height="5.48" style="fill:#263238"></rect><polygon points="74 173.28 74 178.76 65.74 187.02 65.74 208.6 63.22 208.6 63.22 184.61 74 173.28" style="fill:#263238"></polygon><rect x="77.5" y="167.45" width="8.12" height="5.83" style="fill:#fff"></rect><rect x="75.75" y="163.69" width="11.62" height="3.77" style="fill:#263238"></rect><polygon points="80.68 163.69 90.98 153.39 92.82 154.73 84.7 163.69 80.68 163.69" style="fill:#263238"></polygon><path d="M71.63,187.54a1,1,0,0,1-1-1,7.61,7.61,0,0,1,6.41-7,1,1,0,0,1,1.15.83,1,1,0,0,1-.82,1.15,5.63,5.63,0,0,0-4.74,5A1,1,0,0,1,71.63,187.54Z" style="fill:#fff"></path></g><g id="freepik--fire-proof-safe--inject-19"><circle cx="96.44" cy="318.87" r="47.35" transform="translate(-236.46 331.36) rotate(-75.32)" style="fill:#ebebeb"></circle><path d="M96.39,372.41a53.53,53.53,0,1,1,41.08-19.11h0A53.47,53.47,0,0,1,96.39,372.41Zm.14-106.12c-1.55,0-3.11.07-4.67.21a52.57,52.57,0,1,0,44.85,86.16h0a52.58,52.58,0,0,0-40.18-86.37Z" style="fill:#ebebeb"></path><rect x="66.35" y="294.41" width="60.18" height="47.77" style="fill:#455a64"></rect><polygon points="113.82 347.48 118.58 347.48 119.86 342.18 113.82 342.18 113.82 347.48" style="fill:#455a64"></polygon><polygon points="113.82 342.18 113.82 344.2 119.6 343.24 119.86 342.18 113.82 342.18" style="fill:#37474f"></polygon><polygon points="79.21 347.48 74.44 347.48 73.17 342.18 79.21 342.18 79.21 347.48" style="fill:#455a64"></polygon><polygon points="79.21 342.18 79.21 344.2 73.42 343.24 73.17 342.18 79.21 342.18" style="fill:#37474f"></polygon><rect x="73.37" y="301.45" width="46.13" height="33.69" style="fill:#37474f"></rect><rect x="69.3" y="309.15" width="8.24" height="3.59" transform="translate(384.37 237.53) rotate(90)" style="fill:#263238"></rect><rect x="69.3" y="323.93" width="8.24" height="3.59" transform="translate(399.15 252.31) rotate(90)" style="fill:#263238"></rect><circle cx="95.86" cy="318.29" r="10.63" style="fill:#455a64"></circle><path d="M102.29,317.72a5.07,5.07,0,0,0-.19-1.1,6.41,6.41,0,0,0-1.67-2.9,6.47,6.47,0,0,0-.85-.72,6.24,6.24,0,0,0-3.17-1.15,5.12,5.12,0,0,0-.56,0,4.8,4.8,0,0,0-.55,0A6.24,6.24,0,0,0,92.14,313a6.56,6.56,0,0,0-.86.72,6.41,6.41,0,0,0-1.67,2.9,5.07,5.07,0,0,0-.19,1.1,3.64,3.64,0,0,0,0,.57A6,6,0,0,0,90,321a4.42,4.42,0,0,0,.55,1,6.25,6.25,0,0,0,2.57,2.15,5.27,5.27,0,0,0,1.05.39,6.49,6.49,0,0,0,3.35,0,4.72,4.72,0,0,0,1-.39,6.14,6.14,0,0,0,2.57-2.16,4.45,4.45,0,0,0,.56-1,6.16,6.16,0,0,0,.62-2.74A3.64,3.64,0,0,0,102.29,317.72Zm-6.44,5.93a5.36,5.36,0,1,1,5.36-5.36A5.36,5.36,0,0,1,95.85,323.65Z" style="fill:#37474f"></path><path d="M96.41,307.68v4.7H95.3v-4.7h1.11Z" style="fill:#37474f"></path><path d="M92.48,313.41l-.85.71-.35-.4-2.67-3.19c.27-.27.56-.5.85-.74L92.14,313Z" style="fill:#37474f"></path><path d="M90.13,316.71l-.2,1.1-.51-.09L85.31,317c0-.37.11-.73.19-1.09l4.11.72Z" style="fill:#37474f"></path><path d="M91,321.73l-.45.27-3.62,2.08a8.89,8.89,0,0,1-.55-1L90,321l.45-.26Z" style="fill:#37474f"></path><path d="M94.36,324.05l-.18.49-1.42,3.92a7.31,7.31,0,0,1-1.05-.39l1.42-3.92.18-.49Z" style="fill:#37474f"></path><path d="M100,328.07a6.25,6.25,0,0,1-1.05.38l-1.43-3.91-.18-.49,1.05-.39.18.49Z" style="fill:#37474f"></path><path d="M105.32,323.12a6.51,6.51,0,0,1-.56,1L101.15,322l-.44-.26.56-1,.44.26Z" style="fill:#37474f"></path><path d="M106.41,317l-4.12.73-.51.09-.19-1.1.51-.09,4.12-.72C106.3,316.26,106.36,316.62,106.41,317Z" style="fill:#37474f"></path><path d="M103.1,310.53l-2.67,3.19-.34.4-.86-.71.35-.41,2.68-3.19A9.41,9.41,0,0,1,103.1,310.53Z" style="fill:#37474f"></path><path d="M92.92,318.61a1,1,0,0,1-1-1,3.83,3.83,0,0,1,3.22-3.53,1,1,0,0,1,.32,2,1.8,1.8,0,0,0-1.54,1.55A1,1,0,0,1,92.92,318.61Z" style="fill:#fff"></path><path d="M120.41,306.83s-6.44-.7-6.44-6.19c0-4,3.22-4.85,1.68-9.46,0,0,1.3-.1,2.77,2.81,0,0-2-6.51,3.9-9.42,0,0-1.28,3.11.37,5.3s6.16,5.25,6.16,9.92a7,7,0,0,1-5.42,7s2.67-1.88,2-4.73-4.56-4.48-4.56-7.91a13.15,13.15,0,0,0-1.76,6.92,4.3,4.3,0,0,1-.58-2.56A6.06,6.06,0,0,0,120.41,306.83Z" style="fill:#FFC727"></path></g><g id="freepik--fire-exit-sign--inject-19"><circle cx="181.22" cy="396.65" r="47.35" transform="translate(-227.39 244.32) rotate(-45)" style="fill:#ebebeb"></circle><path d="M181.18,450.2a53.56,53.56,0,1,1,41.08-19.12A53.37,53.37,0,0,1,181.18,450.2Zm.13-106.12c-1.55,0-3.1.06-4.67.2a52.57,52.57,0,1,0,44.86,86.16h0a52.57,52.57,0,0,0-40.19-86.36Z" style="fill:#ebebeb"></path><rect x="175.04" y="412.81" width="2.39" height="13" style="fill:#263238"></rect><polygon points="209.47 364.66 209.47 425.81 206.96 425.81 206.96 367.32 177.43 367.32 177.43 386.73 175.04 386.73 175.04 364.66 209.47 364.66" style="fill:#263238"></polygon><path d="M153.42,425.81s-6.44-.69-6.44-6.19c0-4,3.21-4.84,1.68-9.46,0,0,1.3-.1,2.77,2.82,0,0-2-6.51,3.9-9.42,0,0-1.28,3.1.37,5.3s6.15,5.24,6.15,9.91a7,7,0,0,1-5.41,7s2.67-1.87,2-4.73-4.56-4.48-4.56-7.91a13.15,13.15,0,0,0-1.76,6.92,4.28,4.28,0,0,1-.58-2.55A6,6,0,0,0,153.42,425.81Z" style="fill:#FFC727"></path><path d="M186.57,387.66a4.56,4.56,0,0,1,9.12.15,4.51,4.51,0,0,1-4.62,4.46A4.56,4.56,0,0,1,186.57,387.66Z" style="fill:#37474f"></path><path d="M199.73,395c-.48.65-4.33,4.84-6.07,6.57-1.93,1.93-3.09,1.92-5,0-.9-.91-1.79-1.82-2.62-2.68l-5,5.11c1.55,1.55,3.19,3.33,5,4.94a3.15,3.15,0,0,1,1.09,3.48c-.81,3.57-1.38,7.18-2,10.78a3,3,0,0,1-3.39,2.66,3,3,0,0,1-2.55-3.55c.4-2.81.87-5.61,1.27-8.42a1.39,1.39,0,0,0-.25-1c-1.36-1.5-2.78-2.95-4.23-4.47-1.68,1.8-3.35,3.54-5,5.33a2.2,2.2,0,0,1-1.79.78c-3,0-6-.08-9,0-1.87,0-3.58-.46-3.94-2.36a3.51,3.51,0,0,1,0-1.37c.36-1.9,2-2.46,3.93-2.38s3.79,0,5.69,0a1.5,1.5,0,0,0,1-.37c3.68-4.08,11-12.38,11.1-12.5a2.22,2.22,0,0,0-2.41.71c-1.25,1.46-2.62,2.83-3.95,4.22s-2.83,1.45-4,.3a2.7,2.7,0,0,1,.32-4c2.13-2,4.26-4.07,6.43-6.06a2.27,2.27,0,0,1,1.37-.54c2.48-.05,5,0,7.45,0a3.67,3.67,0,0,1,2.65,1.06c1.62,1.52,3.29,3,4.88,4.53.61.59,1,.51,1.52-.06,1-1.05,2.78-2.64,3.68-3.75C199.09,388.55,202.16,392.52,199.73,395Z" style="fill:#37474f"></path></g></svg>