<svg xmlns="http://www.w3.org/2000/svg" viewBox="0 0 500 500"><g id="freepik--Floor--inject-17"><path d="M26.69,478.14c143.07-.62,303.55-.62,446.62,0-143.07.61-303.55.61-446.62,0Z" style="fill:#263238"></path></g><g id="freepik--Lines--inject-17"><path d="M260.43,77.39a116.23,116.23,0,0,1,5.69-21.2,117.86,117.86,0,0,1-5.69,21.2Z" style="fill:#263238"></path><path d="M240.14,80.05a116.72,116.72,0,0,1-11-19,117,117,0,0,1,11,19Z" style="fill:#263238"></path><path d="M227.68,96.27a117.64,117.64,0,0,1-21.2-5.69,117,117,0,0,1,21.2,5.69Z" style="fill:#263238"></path><path d="M225,109.63a57.81,57.81,0,0,1-13.35,7.7,57.81,57.81,0,0,1,13.35-7.7Z" style="fill:#263238"></path><path d="M286.18,112a53.45,53.45,0,0,1,14.32,3.85A53.83,53.83,0,0,1,286.18,112Z" style="fill:#263238"></path><path d="M276.65,89.85a116.94,116.94,0,0,1,19-11,116.94,116.94,0,0,1-19,11Z" style="fill:#263238"></path><path d="M218,88.83a21.13,21.13,0,0,1,8.5,3.72,21.27,21.27,0,0,1-8.5-3.72Z" style="fill:#263238"></path><path d="M273.73,57.66a186.31,186.31,0,0,1-12.44,24.68,186.93,186.93,0,0,1,12.44-24.68Z" style="fill:#263238"></path><path d="M283.3,94.52a122.71,122.71,0,0,1,22.39-2,123.6,123.6,0,0,1-22.39,2Z" style="fill:#263238"></path><path d="M221.75,106.88a87.76,87.76,0,0,1-18.2,5.62,88.37,88.37,0,0,1,18.2-5.62Z" style="fill:#263238"></path></g><g id="freepik--character-3--inject-17"><path d="M333.88,105.6s-2.11-4.75-6.1-5.18-5,2-7.47,1.9-7.39-1.8-10.39.08-3,6.91-4.49,8.13-5.35.67-6.95,4.11c-1.86,4,.26,7-.3,9.15-.91,3.57-4,6-2.84,10.6,1.24,5,5.22,5.64,7.52,7.62s1.77,6.8,7.31,8.21,7.69-1.83,11.21-2.46,7.81,2.48,11.78.8,3.53-5.3,4.86-6.9,4.15-1.11,5.86-4-.51-6.31-.49-7.59c0-2.18,1.71-3,1.8-6.15s-3.16-5.92-3.7-7c-1.3-2.54,1.33-6.81-1.09-9.37A6.21,6.21,0,0,0,333.88,105.6Z" style="fill:#263238"></path><path d="M308,104.67c-.68,2.13-1.25,4.78-3.66,5.6-3.48.87-7.13,2.82-7.16,6.85-.2,2.23,1.26,4.39.89,6.73-.79,2.07-2.29,3.75-2.81,6.16a7.69,7.69,0,0,0,.13,4.38c-1.44-2.81-.4-6.15,1-8.78.18-.34.59-1.16.75-1.5a3.69,3.69,0,0,0-.07-2.47c-1.83-4.92-.57-9.85,4.92-11.36,1.4-.44,2.93-.54,3.95-1.69a18.07,18.07,0,0,0,2.08-3.92Z" style="fill:#263238"></path><path d="M330,149.05c5.79,0,6.29-1.4,8.14-6.45a2.83,2.83,0,0,1,1.48-1.29c2-.89,4-1.87,4.65-4.15.83-2.06-.16-4.32-.76-6.48a24.65,24.65,0,0,1,1.36,3.16,6.19,6.19,0,0,1-1.78,6.6c-1.22,1.06-2.77,1.36-3.94,2.29a8.4,8.4,0,0,0-.82,1.82c-1.34,4.26-4.14,5.23-8.33,4.5Z" style="fill:#263238"></path><path d="M314.82,160.25c-13.95,15.11-42.1,39.89-48.19,29.63-8.47-14.28-12.78-43.57-14.06-54.33-.72-6.1,28.08-10.5,28.68-5,.81,7.46,2.71,27.73,4.22,30.56.8,1.5,18.59-6.77,27.57-10.54C326,145.17,319.27,155.43,314.82,160.25Z" style="fill:#ad6359"></path><path d="M276.52,132.15c-.11-3.31-1.5-21.6-2.52-25.82C272.12,98.57,268.46,91,265.12,91c-2.67,0-2.89,4.81-2.89,4.81s-2.9-4.51-6.09-3.42S255,98.86,255,98.86s-3.3-4.42-6.41-3.1-.15,6.36-.15,6.36-2.83-4.18-4.94-2c-2.53,2.6,3.57,9.71,4.83,14.35.19.71,1.41,12.05,3.5,19.22a12.81,12.81,0,0,0,3.8,5.76Z" style="fill:#ad6359"></path><path d="M248,102.07c4.47,5.24,5.52,8.31,6.49,15a.11.11,0,0,0,.21,0c-.35-6.66-1.12-10.69-6.46-15.24C248,101.62,247.82,101.82,248,102.07Z" style="fill:#263238"></path><path d="M254.67,98.64c3.67,6.17,4.57,9.57,5.52,16.63,0,.1.19.08.18,0-.36-7-.88-11.06-5.36-16.74C254.8,98.25,254.5,98.36,254.67,98.64Z" style="fill:#263238"></path><path d="M262.26,96.06c3,6.31,4,10,3.87,17a.13.13,0,0,0,.26,0c.82-7.1-.44-11.74-3.93-17.08C262.22,95.63,262.07,95.67,262.26,96.06Z" style="fill:#263238"></path><path d="M280,132.49s3.57-7.86,4.38-11.65-1.4-19.06-4.72-18.77c-4.29.37-4.75,9.43-4.4,13.9,0,0-9.93.85-11.67,7.28S280,132.49,280,132.49Z" style="fill:#ad6359"></path><path d="M275.12,112.74c.16,1.14.26,2.28.37,3.42l-.24.07a26.61,26.61,0,0,0-11.64,6.41,25.05,25.05,0,0,0-2.93,3.45,15.44,15.44,0,0,1,2.44-3.91,19.78,19.78,0,0,1,12.05-6.47l-.23.26c.05-1.07.09-2.15.18-3.23Z" style="fill:#263238"></path><path d="M286.07,136.73l-35,11.32s8.39,43.93,15.39,46.21c11.15,3.64,36.6-18.89,46.23-29.09s15.88-22.82-1.58-14.54c-15.07,7.14-24,10.65-24.36,10.37S286.07,136.73,286.07,136.73Z" style="fill:#FFC727"></path><path d="M286.73,160.24a79.51,79.51,0,0,1-.36,10.46c-.15,1.72-.38,3.44-.62,5.15a37.84,37.84,0,0,1-1,5.05c0,.06-.1,0-.1,0,0-1.72.2-3.46.37-5.17s.31-3.44.49-5.16c.36-3.44.58-6.9,1-10.33C286.58,160.11,286.73,160.13,286.73,160.24Z" style="fill:#263238"></path><path d="M283.36,144.9c-1.61.39-3.19.91-4.77,1.39s-3.15,1-4.72,1.5c-3.14,1-6.28,2.08-9.39,3.18l-2.56.91c-.91.34-1.77.79-2.68,1.11-.07,0,0,.14,0,.11.77-.23,1.58-.37,2.36-.59s1.62-.48,2.42-.74l4.72-1.52c3.14-1,6.27-2.08,9.38-3.21,1.75-.64,3.54-1.24,5.25-2A.08.08,0,0,0,283.36,144.9Z" style="fill:#263238"></path><path d="M312.69,165.17c-9.62,10.21-35.06,32.73-46.22,29.1-2.6-.85-5.39-7.45-7.88-15.41l63-28.84a4.91,4.91,0,0,0,.54.66C321.71,154,317.64,159.92,312.69,165.17Z" style="opacity:0.1"></path><path d="M246.36,478.19c2.42.76,73.16-.77,75.74-2.49,1-.64-5.06-67.64-5.06-67.64l-44.87.85,5.1,44.82s-26.1,12.37-28.74,14.56S243.93,477.45,246.36,478.19Z" style="fill:#ad6359"></path><path d="M246.36,478.19c2.42.76,73.16-.77,75.74-2.49.31-.2.41-7-.72-15.86-12.83,2.15-58.61,9.18-62.18,7.08-2.48-1.46-.28-3.75,1.75-5.28-5.84,2.91-11.3,5.72-12.42,6.66C245.9,470.48,243.94,477.45,246.36,478.19Z" style="fill:#263238"></path><path d="M276,443l44-.62s-8.72-105.49-8.36-107.52c.46-2.6,31.71-125.12,31.71-125.12h-42S268.22,323.93,267,334.93C265.1,352.7,276,443,276,443Z" style="fill:#455a64"></path><path d="M316.09,432.42c-2.6-.18-5.23-.15-7.84-.19s-5.22,0-7.84,0c-5.22,0-10.44.13-15.66.28-1.43,0-2.86.08-4.29.15s-3,.33-4.57.38a.1.1,0,0,0,0,.19c1.29,0,2.57.2,3.85.24s2.67.05,4,.05l7.83,0c5.22-.05,10.45-.12,15.67-.33,2.95-.13,5.92-.16,8.86-.46A.14.14,0,0,0,316.09,432.42Z" style="fill:#263238"></path><path d="M334.16,219.62c-3.76,13.32-7.2,26.76-10.57,40.18s-6.73,26.87-10.07,40.3q-2.52,10.08-5,20.16c-1.62,6.54-3.52,13.12-3.92,19.88s.47,13.8,1,20.64,1.16,13.75,1.77,20.63c1.2,13.76,2.36,27.53,3.85,41.25.19,1.72.37,3.44.55,5.16a.12.12,0,0,0,.23,0c-.91-13.76-1.86-27.52-3-41.27q-.82-10.32-1.68-20.64c-.57-6.86-1.37-13.75-1.58-20.63s1.05-13.61,2.72-20.32l5-19.72q5-20.14,10.06-40.31c3.73-15,7.46-30.12,10.75-45.27A.06.06,0,1,0,334.16,219.62Z" style="fill:#263238"></path><path d="M343.41,209.73S330,262.29,320.62,299.3l-17.89-89.57Z" style="fill:#263238"></path><path d="M299.18,478.36c2.43.76,73.17-.77,75.75-2.5,1-.64-3.53-67.68-3.53-67.68L328,409l2.14,44.86s-26.1,12.36-28.74,14.56S296.76,477.61,299.18,478.36Z" style="fill:#ad6359"></path><path d="M299.18,478.36c2.42.75,73.17-.78,75.75-2.5.31-.2.24-6.82,0-15.87-12.83,2.15-59.33,9.19-62.89,7.09-2.49-1.46-.29-3.74,1.75-5.28-5.84,2.92-11.3,5.72-12.43,6.66C298.73,470.65,296.76,477.61,299.18,478.36Z" style="fill:#263238"></path><path d="M302.73,209.71s2.37,29.72,7.27,37.18A74.45,74.45,0,0,1,322.19,253s.17,79.5.12,84.28c-.2,17.86,7.23,104.85,7.23,104.85l44.41-.42s-11.5-151.17-14.18-185.78c0,0,2-11.05,1.59-16.64-1.06-13.53-6.17-29.53-6.17-29.53Z" style="fill:#455a64"></path><path d="M318.36,238l-.51-3.34c-.31-2-.73-4.06-1.08-6.09-.81-4.6-1.66-9.22-2.68-13.79,0-.11-.21-.08-.2,0,.18,1.85.39,3.69.65,5.52s.45,3.68.7,5.52c.52,3.64,1,7.28,1.64,10.9.24,1.4,1.11,3.9-.9,4.33-1.59.34-2.75-1.22-3.22-2.53a31.57,31.57,0,0,1-1.07-5q-.49-2.76-.88-5.53c-.56-4-1.19-8-1.84-12,0-.12-.21-.08-.2,0a121.26,121.26,0,0,0,.89,12.33c.26,2,.55,3.91.88,5.85a20.42,20.42,0,0,0,1.35,5.46,4.43,4.43,0,0,0,3.32,2.67h.09a.12.12,0,0,0-.05.12c0,.65,0,1.31.07,2s.2,1.28.32,1.92a13.74,13.74,0,0,0,.5,1.91c.11.3.22.6.35.88s.35.53.52.81c.07.12.21,0,.22-.07h0c0-.11,0-.22,0-.32s0,0,0-.06h0a5.44,5.44,0,0,0,0-.57c-.05-.32-.12-.63-.19-.94-.14-.61-.31-1.23-.47-1.84s-.3-1.24-.46-1.85-.37-1.25-.52-1.89a.07.07,0,0,0,0-.06,2.9,2.9,0,0,0,2.8-1.76A5.12,5.12,0,0,0,318.36,238Z" style="fill:#263238"></path><path d="M325.79,253.94a35,35,0,0,0-4.18-2.75,39.77,39.77,0,0,0-4.76-2.47c-3.22-1.4-6.53-2.35-9.84-3.45-.1,0-.17.14-.07.18,3.21,1.27,6.29,3,9.39,4.49q2.3,1.11,4.63,2.14c1.55.69,3.11,1.49,4.71,2.08C325.79,254.2,325.88,254,325.79,253.94Z" style="fill:#263238"></path><path d="M347,229.12c-2.26,0-10.08-.57-12.39-3.16a15.82,15.82,0,0,1-2.89-5.21,50.07,50.07,0,0,1-1.76-6.34c0-.1-.18-.07-.18,0a24.6,24.6,0,0,0,.91,7.19c.55,2,1.28,4.2,2.89,5.59a11.23,11.23,0,0,0,6.13,2.24,28.23,28.23,0,0,0,7.29-.1C347.16,229.34,347.17,229.12,347,229.12Z" style="fill:#263238"></path><path d="M297.42,229.73a7.57,7.57,0,0,0,3-1.81c1.7-2.57,2.12-10.75,2.26-12.9,0-.1.06-.07.06,0,0,2.41-.09,4.87-.28,7.19a26.07,26.07,0,0,1-.89,5.59c-.52,1.46-3.4,2.47-4.15,2.14C297.37,230,297.37,229.73,297.42,229.73Z" style="fill:#263238"></path><path d="M372,433.08c-2.6-.19-5.23-.16-7.84-.19s-5.22-.05-7.83,0c-5.23.05-10.45.13-15.67.28-1.43,0-2.86.08-4.29.15s-3,.33-4.57.39c-.12,0-.11.18,0,.18,1.28,0,2.56.2,3.85.24s2.66.05,4,.05l7.83,0c5.23-.05,10.45-.12,15.67-.33,2.95-.12,5.92-.16,8.86-.46A.13.13,0,1,0,372,433.08Z" style="fill:#263238"></path><path d="M366.56,427.29h0a.54.54,0,0,0,.52-.56L353.23,254.57c.13-.75,2.95-10.37,3.2-15.28.27-5.19-5.1-25.43-5.33-26.29a.54.54,0,0,0-.66-.38.53.53,0,0,0-.38.66c.05.21,5.55,20.93,5.29,26s-3.18,15.13-3.2,15.21S366,426.78,366,426.78A.55.55,0,0,0,366.56,427.29Z" style="fill:#263238"></path><path d="M302,193.09l-2.83,17.24,57.73-.09s-11.17-48.88-20.64-58.85c-7.52-7.92-16.2-7.19-21.66-1.49-1.37,1.45-15.15,22.13-16.78,30.6C296.41,188,302,193.09,302,193.09Z" style="fill:#FFC727"></path><g style="opacity:0.1"><path d="M314.75,191.1a23.24,23.24,0,0,0-5.82.55,30.56,30.56,0,0,0-2.93.89c-.49.18-1,.32-1.46.46a3.81,3.81,0,0,1-1.51.21s-.07.1,0,.11a5.86,5.86,0,0,0,1.37.23,6.73,6.73,0,0,0,1.39-.19c1-.22,2-.53,3-.77a51.51,51.51,0,0,1,6-1.21C314.8,191.36,314.84,191.1,314.75,191.1Z" style="fill:#020100"></path><path d="M323.61,193.57a56.58,56.58,0,0,0-7.35-.69,35.17,35.17,0,0,0-3.7.1l-1.76.15c-.65.07-1.29.24-1.93.3-.07,0-.07.12,0,.12.61,0,1.22,0,1.83,0l1.85,0c1.22,0,2.45,0,3.68,0,2.46,0,4.92,0,7.37.13C323.74,193.81,323.74,193.59,323.61,193.57Z" style="fill:#020100"></path></g><path d="M315.07,149.45c-.85,1.21-5.37,12.89-4.65,13.53s11.23,1.48,12.33.8,4.35-14.81,4.32-15.73S315.07,149.45,315.07,149.45Z" style="fill:#ad6359"></path><path d="M327.07,148.05c-.17,1.11-4.89,8.59-9.9,8.71-1.64,0-2.24-8.87-2.24-8.87l-.2-.65L312,138.18l10.33-7.73,1.5-1s.58,2.53,1.27,5.69c0,.15.06.29.1.45l.12.51c.11.47.22,1,.32,1.43s.15.72.22,1.11.14.77.22,1.15A60.1,60.1,0,0,1,327.07,148.05Z" style="fill:#ad6359"></path><path d="M325.11,135.11a19,19,0,0,1-10.38,12.13L312,138.18l10.33-7.73,1.5-1S324.42,132,325.11,135.11Z" style="fill:#263238"></path><path d="M302.91,118c-6.88,15.12,1.4,21,4.66,22.43,3,1.34,13.22,5.54,21.62-8.79s3.55-22.31-3.06-25.74S309.79,102.86,302.91,118Z" style="fill:#ad6359"></path><path d="M305.85,117.74c.38.09.75.11,1.14.17a1.86,1.86,0,0,0,1.19,0,.6.6,0,0,0,.25-.68,1.46,1.46,0,0,0-1.23-.82,2.13,2.13,0,0,0-1.54.24A.64.64,0,0,0,305.85,117.74Z" style="fill:#263238"></path><path d="M316.4,121.24c-.35-.18-.64-.41-1-.62s-.69-.39-.87-.81a.59.59,0,0,1,.25-.68,1.47,1.47,0,0,1,1.48.18,2.21,2.21,0,0,1,1,1.19A.64.64,0,0,1,316.4,121.24Z" style="fill:#263238"></path><path d="M307.17,121.13s-.1,0-.11.07c-.34,1.08-.91,2.26-2,2.28,0,0-.05.06,0,.06C306.29,123.79,307,122.21,307.17,121.13Z" style="fill:#263238"></path><path d="M306.6,119.69c-1.67-.73-3,2.67-1.45,3.34S308,120.3,306.6,119.69Z" style="fill:#263238"></path><path d="M305.81,119.63c-.34.08-.74.3-1.07.2s-.51-.6-.61-1c0-.05-.05,0-.07,0-.27.64-.32,1.41.26,1.77s1.16,0,1.57-.64C306,119.82,305.94,119.6,305.81,119.63Z" style="fill:#263238"></path><path d="M313.34,123.58s.06.08,0,.12c-.42,1-.74,2.32.09,3,0,0,0,.08,0,.06C312.33,126.19,312.76,124.51,313.34,123.58Z" style="fill:#263238"></path><path d="M314.69,122.82c1.76.51.62,4-1,3.51S313.22,122.4,314.69,122.82Z" style="fill:#263238"></path><path d="M315.34,123.29c.22.27.38.7.7.83s.78-.14,1.14-.42c0,0,.05,0,0,.06-.2.67-.65,1.28-1.33,1.2s-.86-.78-.8-1.49C315.1,123.34,315.26,123.18,315.34,123.29Z" style="fill:#263238"></path><path d="M310.4,132.26c-.32.2-.66.5-1.07.44a3,3,0,0,1-1.12-.54s-.08,0-.06,0a1.53,1.53,0,0,0,1.26.92,1.22,1.22,0,0,0,1.09-.79C310.53,132.27,310.45,132.23,310.4,132.26Z" style="fill:#263238"></path><path d="M307,127s-.69,1.56-.91,2.33c0,.07.16.16.41.25h0a3.81,3.81,0,0,0,3.93-.36c.07-.06,0-.16-.09-.13a5.72,5.72,0,0,1-3.59,0c0-.23,1.26-2.63,1.14-2.68a7.31,7.31,0,0,0-1.85-.1c1.34-3.29,3.19-6.34,4.47-9.64.05-.12-.12-.21-.18-.11a57.76,57.76,0,0,0-5.26,10.18C304.89,127.2,306.63,127.08,307,127Z" style="fill:#263238"></path><path d="M306.64,129.35a4.66,4.66,0,0,0,1.26,2,2.1,2.1,0,0,0,1.16.49c.93.07,1.23-.71,1.31-1.43a5.56,5.56,0,0,0,0-1.17A6,6,0,0,1,306.64,129.35Z" style="fill:#263238"></path><path d="M307.9,131.3a2.1,2.1,0,0,0,1.16.49c.93.07,1.23-.71,1.31-1.43A2.13,2.13,0,0,0,307.9,131.3Z" style="fill:#ff9abb"></path><path d="M328.89,132.47a6.84,6.84,0,0,1-2.16-6.43,17.8,17.8,0,0,1-5.4-7.66c0,.36.1,3,.19,4.29C311.9,117.86,311,109.19,311,109.19a18.23,18.23,0,0,0-6.27,5.17s1.71-6.26,6.11-9.51a10.45,10.45,0,0,1,10.46-1.49,14.94,14.94,0,0,1,12.79,8.33C338.62,120.77,328.89,132.47,328.89,132.47Z" style="fill:#263238"></path><path d="M314.28,118.78a19.62,19.62,0,0,0,4.66,3.4s0,0,0,0a16.49,16.49,0,0,1-6.16-6.64,15.27,15.27,0,0,1-1.32-3.7,10.75,10.75,0,0,1-.24-4.26.08.08,0,0,0-.16,0,12.63,12.63,0,0,0-.34,4.24,11.64,11.64,0,0,0,1.29,4,13.43,13.43,0,0,0,2.26,3" style="fill:#263238"></path><path d="M326.26,131.69s5.15-3.68,6.94-1.67-3.3,8.18-6.24,8.22a2.81,2.81,0,0,1-3-2.68Z" style="fill:#ad6359"></path><path d="M331.7,131.75s0,.07,0,.08c-2.09.09-3.65,1.44-4.95,3a1.55,1.55,0,0,1,2.33.37c0,.05,0,.11-.08.08a1.75,1.75,0,0,0-2-.06,8.21,8.21,0,0,0-1.37,1.14c-.14.14-.41-.06-.28-.22l0,0C326.15,133.72,329.11,131.1,331.7,131.75Z" style="fill:#263238"></path><path d="M333.88,149.56c18.19,16.85,34.24,42.87,33.18,57.64-1.05,14.59-6,12.76-7.45,12.55-8.75-1.3-25.2-41.63-30.23-58.65C324.8,145.56,329.38,145.39,333.88,149.56Z" style="fill:#FFC727"></path><path d="M348.84,207.41c-.87-1.92-1.77-3.82-2.61-5.75l-2.58-5.76c-1.7-3.85-3.43-7.68-5.07-11.56s-3.34-7.72-5-11.6c-.81-1.94-1.6-3.88-2.36-5.84S329.75,163,329,161a114.79,114.79,0,0,0,3.87,12c1.47,3.95,3.11,7.84,4.75,11.72s3.44,7.7,5.3,11.48S346.71,203.77,348.84,207.41Z" style="fill:#263238"></path><path d="M330.68,166a18.88,18.88,0,0,0-1-2c-.2-.31-.38-.64-.59-.95s-.4-.63-.64-.94a5.48,5.48,0,0,0,.79,2.15A6,6,0,0,0,330.68,166Z" style="fill:#263238"></path><rect x="278.91" y="176.21" width="39.52" height="51.45" transform="translate(-51.4 115.7) rotate(-20.23)" style="fill:#FFC727"></rect><rect x="278.91" y="176.21" width="39.52" height="51.45" transform="translate(-51.4 115.7) rotate(-20.23)" style="opacity:0.30000000000000004"></rect><rect x="280.63" y="175.09" width="18.73" height="5.68" transform="translate(-43.55 110.84) rotate(-20.16)" style="fill:#c7c7c7"></rect><polygon points="293.82 173.5 291.65 174.3 290.75 171.84 285.49 173.77 286.39 176.23 284.23 177.03 282.58 172.55 292.21 169.02 293.82 173.5" style="fill:#c7c7c7"></polygon><path d="M363.35,219.5c-5.9,3.31-15.57,1.53-41.52-5.23-3.59-.93-3.8-28.05.08-27.24,4.9,1,23.67,6,25,6.52C358.1,198.09,367.35,217.25,363.35,219.5Z" style="fill:#ad6359"></path><path d="M331.92,191.31s-8.92-5.79-14.54-7.38a37.65,37.65,0,0,0-18-.16c-6.39,1.5-20.8,9.52-19.21,14.08C281.63,202,296,193,296,193s-16.1,6.72-13.46,11.36,18.67-6.68,18.67-6.68-16.39,7.26-12.91,11.62c2.64,3.3,17.73-6.15,17.73-6.15s-14,6.35-11.48,9.85c2.83,3.88,17.31-4,17.31-4,8,7.82,15.18,8.08,20.2,7.8C333.23,216.79,331.92,191.31,331.92,191.31Z" style="fill:#ad6359"></path><path d="M301.37,190.34c-1.92.72-3.87,1.44-5.72,2.33s-3.67,1.84-5.42,2.9a35,35,0,0,0-6.46,4.76c3.72-3,10.3-6.28,12.15-7.16s3.64-1.87,5.49-2.76C301.46,190.39,301.42,190.33,301.37,190.34Z" style="fill:#263238"></path><path d="M304.7,197c-2.41,1-4.84,2-7.21,3.09s-4.49,2.4-6.77,3.69c-.17.1-.06.16.12.07,2.32-1.2,4.56-2.12,6.9-3.29s4.62-2.42,7-3.5C304.77,197,304.74,197,304.7,197Z" style="fill:#263238"></path><path d="M308.58,202.13a58.53,58.53,0,0,0-10.67,5.57c-.16.1,0,.17.17.07,3.51-1.92,6.25-3.45,10.55-5.51C308.7,202.23,308.66,202.1,308.58,202.13Z" style="fill:#263238"></path><path d="M330.65,188.11l3.47,32s25.79,4.69,29.89-1.07c3.59-5-6.51-20.62-14.35-24.89C346.39,192.42,330.65,188.11,330.65,188.11Z" style="fill:#FFC727"></path><path d="M330.77,189.18l-.06-1.08-.07.06c2.66.85,5.32,1.68,8,2.56s5.3,1.73,7.88,2.74a30.46,30.46,0,0,1,3.78,1.66,23.73,23.73,0,0,1,3.4,2.32,26.26,26.26,0,0,1,5.43,6.25,22,22,0,0,0-5-6.7,19.64,19.64,0,0,0-3.43-2.49,33.37,33.37,0,0,0-3.85-1.77c-2.62-1-5.29-1.84-8-2.62s-5.39-1.47-8.12-2.06h-.08v.07Z" style="fill:#263238"></path><path d="M338.15,193.44c.08,1.62.29,3.23.46,4.83s.35,3.22.56,4.82c.41,3.2.84,6.4,1.31,9.6.12.88.26,1.75.4,2.62s.43,1.85.57,2.78a.06.06,0,1,0,.11,0c-.08-.79-.06-1.59-.13-2.39s-.16-1.63-.26-2.45c-.19-1.61-.38-3.21-.59-4.81-.41-3.21-.83-6.41-1.34-9.6-.29-1.8-.53-3.63-.92-5.41A.09.09,0,0,0,338.15,193.44Z" style="fill:#263238"></path><path d="M333.81,217.31c.17.94.3,1.89.45,2.84l-.11-.13a136.08,136.08,0,0,0,19.32,1.7,48.21,48.21,0,0,0,6.45-.44,31.69,31.69,0,0,1-6.44.95,74.37,74.37,0,0,1-19.38-1.93l-.11,0c-.06-1-.14-2-.18-3Z" style="fill:#263238"></path></g><g id="freepik--character-2--inject-17"><path d="M269.46,478.27c-2.44.79-72.06-.1-74.69-1.82-1-.64-1.47-10.79-1.68-23.07V453c-.05-2.53-.08-5.13-.09-7.78,0-.36,0-.72,0-1.09L196.36,408l44.95.45-3,35.78-.05,1.42-.28,7.4,0,.77s26.49,12.26,29.18,14.45S271.9,477.49,269.46,478.27Z" style="fill:#d3766a"></path><path d="M269.46,478.27c-2.44.79-72.06-.1-74.69-1.82-1-.64-1.47-10.79-1.68-23.07V453c-.05-2.53-.08-5.13-.09-7.78,0-.36,0-.72,0-1.09l45.35.12-.05,1.42-.28,7.4,0,.77s26.49,12.26,29.18,14.45S271.9,477.49,269.46,478.27Z" style="fill:#ebebeb"></path><path d="M269.47,478.26c-1.26.41-20.17.37-38.66,0-3.72-.07-7.42-.16-10.94-.25-13.19-.36-24.08-.9-25.09-1.56s-1.47-10.5-1.67-22.56c0-.17,0-.34,0-.51s0-.27,0-.4h0l44.87.08,0,.77s26.5,12.25,29.18,14.44S271.91,477.48,269.47,478.26Z" style="fill:#FFC727"></path><path d="M269.47,478.26c-1.26.41-20.17.37-38.66,0-3.72-.07-7.42-.16-10.94-.25-13.19-.36-24.08-.9-25.09-1.56s-1.47-10.5-1.67-22.56c0-.17,0-.34,0-.51s0-.27,0-.4h0l44.87.08,0,.77s26.5,12.25,29.18,14.44S271.91,477.48,269.47,478.26Z" style="opacity:0.5"></path><path d="M268.71,475.56c-11.74-.44-59.1-1.1-70.73-.64-.09,0-.09.07,0,.07,11.62.69,59,1,70.72.76C269,475.74,269,475.57,268.71,475.56Z" style="fill:#263238"></path><path d="M243,453.26c-4.61-.92-10.26-.29-13.84,3-.13.12.05.32.2.27A64.9,64.9,0,0,1,243,453.84.29.29,0,0,0,243,453.26Z" style="fill:#263238"></path><path d="M246.32,455.31c-4.61-.92-10.27-.29-13.84,3-.14.12,0,.32.2.27a65.54,65.54,0,0,1,13.61-2.65A.29.29,0,0,0,246.32,455.31Z" style="fill:#263238"></path><path d="M249.63,457.36c-4.61-.92-10.27-.28-13.84,3-.14.13,0,.32.19.28a65,65,0,0,1,13.62-2.66A.29.29,0,0,0,249.63,457.36Z" style="fill:#263238"></path><path d="M230.81,478.26c-3.72-.07-7.42-.16-10.94-.25-13.19-.36-24.08-.9-25.09-1.56s-1.47-10.5-1.67-22.56c0-.17,0-.34,0-.51s0-.27,0-.4h0C199.29,457.3,221,471.71,230.81,478.26Z" style="opacity:0.1"></path><path d="M240.69,453.1H190.55s10.07-118.51,9.68-120.55c-.5-2.62-3.47-14.47-7.41-30-1.24-4.84-2.57-10-4-15.43-3.74-14.57-7.86-30.49-11.46-44.34-5.39-20.76-9.6-31.46-9.6-31.46h42.5s34.93,100,36.32,120.69C247.83,350.07,240.69,453.1,240.69,453.1Z" style="fill:#FFC727"></path><path d="M240.69,453.1H190.55s10.07-118.51,9.68-120.55c-.5-2.62-3.47-14.47-7.41-30-1.24-4.84-2.57-10-4-15.43-3.74-14.57-7.86-30.49-11.46-44.34-5.39-20.76-9.6-31.46-9.6-31.46h42.5s34.93,100,36.32,120.69C247.83,350.07,240.69,453.1,240.69,453.1Z" style="opacity:0.7000000000000001"></path><path d="M238.47,444.54c-7.66-.16-5.46-.22-13.12-.29-3.74,0-28.37-.25-31.88.33-.07,0-.07.15,0,.16,3.51.58,28.14.36,31.88.32,7.66-.07,5.46-.13,13.12-.3A.11.11,0,0,0,238.47,444.54Z" style="fill:#263238"></path><path d="M209.66,325.4c-1.65-7.25-4.1-14.35-6.24-21.46q-6.53-21.69-13.13-43.35c-2.2-7.22-12.39-34.23-13.4-37.82-.41-1.46-.63-.66-.11,1.2,1.06,3.74,18.48,57.29,22.89,72Q203,307,206.31,318A89.16,89.16,0,0,1,209,328.67a49,49,0,0,1,.45,11.42c-.48,7.67-1.37,15.33-2.08,23s-1.41,15.34-2.12,23c-1.41,15.26-2.82,31.91-4.19,47.18-.17,1.94-.34,3.87-.49,5.81-.05.65.93.6,1,0,1.65-15.09,2.91-31.62,4.32-46.74s2.82-30.08,4.22-45.12c.35-3.78.75-7.56.75-11.36A46.38,46.38,0,0,0,209.66,325.4Z" style="fill:#263238"></path><path d="M205.47,211.37c-2.94,22.82-8.56,60.19-12.65,91.23-9.59-37.61-25-91.23-25-91.23Z" style="fill:#263238"></path><path d="M217.61,477.44c-2.44.8-72.07.16-74.7-1.55-1-.63-1.51-10.78-1.76-23.06,0-.13,0-.26,0-.39,0-2.53-.1-5.13-.11-7.78,0-.36,0-.72,0-1.09-.16-17.72,1.11-36.11,1.11-36.11l45.51.28-1.26,35.79-.05,1.41-.25,7.41,0,.76s26.54,12.16,29.24,14.35S220.05,476.65,217.61,477.44Z" style="fill:#d3766a"></path><path d="M217.61,477.44c-2.44.8-72.07.16-74.7-1.55-1-.63-1.51-10.78-1.76-23.06,0-.13,0-.26,0-.39,0-2.53-.1-5.13-.11-7.78,0-.36,0-.72,0-1.09l45.36,0-.05,1.41-.25,7.41,0,.76s26.54,12.16,29.24,14.35S220.05,476.65,217.61,477.44Z" style="fill:#ebebeb"></path><path d="M217.61,477.44c-2.44.8-72.07.16-74.7-1.55-1-.63-1.51-10.78-1.76-23.06,0-.13,0-.26,0-.39l44.93-.09,0,.76s26.54,12.16,29.24,14.35S220.05,476.65,217.61,477.44Z" style="fill:#FFC727"></path><path d="M217.61,477.44c-2.44.8-72.07.16-74.7-1.55-1-.63-1.51-10.78-1.76-23.06,0-.13,0-.26,0-.39l44.93-.09,0,.76s26.54,12.16,29.24,14.35S220.05,476.65,217.61,477.44Z" style="opacity:0.5"></path><path d="M216.84,474.73c-11.73-.39-59.09-.88-70.72-.38-.1,0-.1.07,0,.08,11.62.64,59,.74,70.72.49C217.09,474.92,217.09,474.74,216.84,474.73Z" style="fill:#263238"></path><path d="M191.07,452.52c-4.61-.9-10.27-.24-13.83,3-.14.12,0,.32.19.27a65,65,0,0,1,13.61-2.7A.3.3,0,0,0,191.07,452.52Z" style="fill:#263238"></path><path d="M194.38,454.56c-4.61-.9-10.26-.24-13.82,3-.14.12,0,.32.19.27a64.23,64.23,0,0,1,13.61-2.7A.3.3,0,0,0,194.38,454.56Z" style="fill:#263238"></path><path d="M197.7,456.6c-4.61-.9-10.27-.24-13.83,3-.14.13,0,.32.2.28a64.26,64.26,0,0,1,13.6-2.7A.3.3,0,0,0,197.7,456.6Z" style="fill:#263238"></path><path d="M210,211.36a164.63,164.63,0,0,1-5.63,31c-.37,1.33-.78,2.64-1.21,3.9,0,0-3.76,1.76-11.16,6.3,0,0-.49,16.36-1,34.6-.53,20.4-1.09,43.15-1,48,.43,18.05-2.24,117.31-2.24,117.31l-50.13.22s9-110.85,9-117.47c-.1-10.63,2.17-53.3,4.11-87.56,0,0-2.35-7.86-2.2-10.42,1-15.65,4.61-25.84,4.61-25.84Z" style="fill:#FFC727"></path><path d="M210,211.36a164.63,164.63,0,0,1-5.63,31c-.37,1.33-.78,2.64-1.21,3.9,0,0-3.76,1.76-11.16,6.3,0,0-.49,16.36-1,34.6-.53,20.4-1.09,43.15-1,48,.43,18.05-2.24,117.31-2.24,117.31l-50.13.22s9-110.85,9-117.47c-.1-10.63,2.17-53.3,4.11-87.56,0,0-2.35-7.86-2.2-10.42,1-15.65,4.61-25.84,4.61-25.84Z" style="opacity:0.7000000000000001"></path><path d="M186.1,443.54c-7.65-.13-5.45-.2-13.11-.24-3.75,0-28.38-.12-31.88.47-.08,0-.08.15,0,.16,3.5.56,28.13.24,31.88.18,7.66-.1,5.46-.16,13.11-.35A.11.11,0,1,0,186.1,443.54Z" style="fill:#263238"></path><path d="M157.4,218.64c-.92,28-1.89,50.51-3.13,78.47s-2.94,56.1-5.28,84.08c-1.3,15.63-2.54,37.63-4.22,53.22,0,.11.15.15.16,0,3.65-27.74,5.67-62.05,7.46-90s3-55.88,4-83.84c.53-15.81.94-26.2,1.41-42C157.76,218.4,157.41,218.42,157.4,218.64Z" style="fill:#263238"></path><path d="M159.33,236.81c1.23-.31,2.55-.41,3.81-.61,1-.16,2-.34,3-.56a13.28,13.28,0,0,0,5.36-2.26c2.5-2,5.37-11.85,5.72-12.48.6-1.09.78-.14.78,0,0,1.14-2.63,9.81-3.65,11.43-1.86,3-5.18,4.16-8.51,4.58-1,.12-1.91.18-2.87.24a21,21,0,0,1-3.63,0C159.19,237.12,159.13,236.86,159.33,236.81Z" style="fill:#263238"></path><path d="M203,246.51a88.79,88.79,0,0,0-14.12,6.58.16.16,0,0,0,.13.29c4.75-2,9.6-4,14.24-6.3A.31.31,0,0,0,203,246.51Z" style="fill:#263238"></path><path d="M204.44,213.93c0-.16-.3-.2-.3,0a157.06,157.06,0,0,1-.8,15.89c-.22,2.45-2.19,16-6.44,15-.71-.16-1.08-.86-1.19-1.94a16.93,16.93,0,0,1,.57-4.15c.47-2.83.85-5.68,1.09-8.54a77.28,77.28,0,0,0-.17-16,.14.14,0,0,0-.28,0,145.91,145.91,0,0,1-1.29,22.11c-.53,3.52-2.3,8.82,1.38,9.37s6.18-8.33,6.63-10.76A81.29,81.29,0,0,0,204.44,213.93Z" style="fill:#263238"></path><path d="M197,245.17a23.06,23.06,0,0,0-.95,2.8,6.35,6.35,0,0,0-.4,2.31.16.16,0,0,0,.29.06,8.05,8.05,0,0,0,1-2.24c.32-.87.67-1.73,1-2.61A.47.47,0,0,0,197,245.17Z" style="fill:#263238"></path><path d="M189.07,154.35c8.6,17.34,29.74,47.81,38,40.2,12.37-11.37,21.25-39.51,24.3-49.36,1.71-5.52-26-11.56-27.49-6.55-2.14,7.12-6.93,23.74-9,25.9-1.12,1.14-14.5-12.67-21.62-18.44C183,137.77,186.31,148.82,189.07,154.35Z" style="fill:#d3766a"></path><path d="M229.74,141.74c-.19-3.11-.51-20.38.08-24.43,1.07-7.44,3.82-14.9,7-15.14,2.51-.2,3.14,4.25,3.14,4.25s2.31-4.48,5.41-3.74,1.64,5.94,1.64,5.94,2.71-4.43,5.74-3.46.7,5.94.7,5.94,2.29-4.17,4.45-2.32c2.61,2.22-2.48,9.42-3.25,13.88-.12.68-.26,11.42-1.59,18.32a11.94,11.94,0,0,1-3.05,5.74Z" style="fill:#d3766a"></path><path d="M253.78,111c-3.73,5.31-4.44,8.27-4.76,14.65a.1.1,0,0,1-.2,0c-.26-6.27.1-10.12,4.71-14.85C253.76,110.59,254,110.77,253.78,111Z" style="fill:#263238"></path><path d="M247.26,108.39c-2.9,6.11-3.44,9.38-3.71,16.08,0,.09-.17.09-.17,0-.28-6.6-.15-10.45,3.55-16.18C247.09,108,247.39,108.11,247.26,108.39Z" style="fill:#263238"></path><path d="M239.91,106.65c-2.22,6.17-2.87,9.75-2.13,16.27a.12.12,0,0,1-.23,0c-1.41-6.58-.63-11,2.17-16.36C239.91,106.24,240.05,106.26,239.91,106.65Z" style="fill:#263238"></path><path d="M226.55,142.36s-4.05-7.05-5.14-10.54-.37-18,2.77-18c4,0,5.29,8.42,5.35,12.64,0,0,9.38-.08,11.58,5.8S226.55,142.36,226.55,142.36Z" style="fill:#d3766a"></path><path d="M229.33,123.42c.19,1,.33,2,.47,3l-.25-.24a18.52,18.52,0,0,1,11.88,5,14.89,14.89,0,0,1,2.62,3.46,23.71,23.71,0,0,0-3.07-3,25.3,25.3,0,0,0-11.46-5l-.25,0c0-1.08,0-2.16.06-3.25Z" style="fill:#263238"></path><path d="M221.27,140.7l28.63,19.49s-19.2,37.48-26.14,37.69c-11,.34-28.08-26.75-34.08-38.52s-8.32-24.82,5.28-12.72c11.73,10.44,18.91,16,19.26,15.82S221.27,140.7,221.27,140.7Z" style="fill:#37474f"></path><path d="M214.45,161.77a76.38,76.38,0,0,0-2.44,9.55c-.32,1.6-.57,3.21-.81,4.82a37.06,37.06,0,0,0-.44,4.82c0,.06.08.06.1,0,.43-1.56.73-3.18,1-4.77s.63-3.19.92-4.79c.59-3.21,1.3-6.39,1.79-9.61C214.62,161.7,214.48,161.68,214.45,161.77Z" style="fill:#263238"></path><path d="M221.56,148.8c1.35.78,2.64,1.67,3.94,2.52s2.59,1.72,3.87,2.6q3.85,2.66,7.65,5.36c.69.5,1.38,1,2.06,1.5s1.4,1.18,2.13,1.72a.05.05,0,1,1-.06.09c-.64-.42-1.33-.76-2-1.17s-1.33-.86-2-1.3l-3.86-2.63c-2.56-1.76-5.12-3.54-7.63-5.38-1.41-1-2.87-2.05-4.22-3.18A.08.08,0,0,1,221.56,148.8Z" style="fill:#263238"></path><path d="M189.69,159.36c6,11.77,23,38.86,34.07,38.53,2.57-.09,6.85-5.31,11.2-11.85l-49.28-42.71a5.39,5.39,0,0,1-.66.45C184.48,146.91,186.6,153.3,189.69,159.36Z" style="opacity:0.1"></path><path d="M148.82,230.24c.17.18,70.48-2.91,71.09-3.66.84-1.06-21.29-73.38-28.94-82.45-1.64-1.94-6.76-2.26-11.06-1.52a19.61,19.61,0,0,0-3.3.84l-.11,0a7.91,7.91,0,0,0-2.4,1.31C162.51,155,156.64,186,154.75,196.16,151.61,213,148.21,229.61,148.82,230.24Z" style="fill:#ebebeb"></path><path d="M179.91,142.61s14.35,26.15,15.73,34.21,2.19,56.72,2.19,56.72l-54.35,2.52s8.2-28.8,8.23-30.61c0,0,6.22-33.22,13.25-47.63C172.94,141.45,179.91,142.61,179.91,142.61Z" style="fill:#37474f"></path><path d="M191.41,143.74s10.42,27.24,11.05,29.83,13.29,58.7,13.29,58.7l6.34-4.07-6.86-23.28S197,150.22,191.41,143.74Z" style="fill:#37474f"></path><path d="M191.37,152.84c-3.29.78-11.29-4-13.64-8.7-.16-.32,1-11.17,1.07-13.7,0-.52,15.73,4.45,15.73,4.45a40.68,40.68,0,0,0-1.89,9.66,5,5,0,0,0,.07,1s0,.11,0,.17C193,147.75,194.89,152,191.37,152.84Z" style="fill:#d3766a"></path><path d="M192.71,145.59s0,.11,0,.17a10.85,10.85,0,0,1-1.63,0c-9.33-.56-11.36-12.35-11.73-15.33,2.81.51,15.18,4.43,15.18,4.43a39.91,39.91,0,0,0-1.9,9.66A5,5,0,0,0,192.71,145.59Z" style="fill:#263238"></path><path d="M173.21,112.34c-1,5.8,3.94,21.59,8.36,24.69,6.41,4.51,15.91,3.84,19.49-3.64,3.46-7.25-3.36-27.7-8.2-30.43C185.72,99,174.7,103.77,173.21,112.34Z" style="fill:#d3766a"></path><path d="M201.06,133.39c-3.58,7.48-13.08,8.15-19.49,3.64-1.79-1.26-3.67-4.61-5.21-8.52l2.66-6.84s2.55,4.46,4.84,5.6c4.11,2,10,.5,11.39-3l1.84-.25s3.3,1.91,4.41-1.44C202.23,126.9,202.25,130.92,201.06,133.39Z" style="fill:#263238;opacity:0.30000000000000004"></path><path d="M175.87,126.19c2.47.1,3.3-2.18,3.56-3.76s-2.29-10.28-1.67-12.71,2.76-4.2,4.8-4.08,6,1.54,7.4,1.09.07-3.07,1.06-3.29c2.15-.51,5.67,4.29,6.61,6.56,0,0-2.06-10.49-13.53-8.56-10.25,1.72-11.25,9-11.42,12.25C172.35,119.9,175.87,126.19,175.87,126.19Z" style="fill:#263238"></path><path d="M179.17,124.6s-4.4-4.68-6.57-3,1.65,8.79,4.57,9.43a2.85,2.85,0,0,0,3.56-2.07Z" style="fill:#d3766a"></path><path d="M173.74,123.58s0,.07,0,.08c2.06.51,3.34,2.16,4.33,3.93a1.57,1.57,0,0,0-2.39-.09c-.05,0,0,.11.07.1a1.72,1.72,0,0,1,2,.33,8.18,8.18,0,0,1,1.14,1.41c.12.16.42,0,.32-.17l0,0C178.87,126.64,176.44,123.45,173.74,123.58Z" style="fill:#263238"></path><path d="M189.81,119.65s-.07.07-.05.12c.36,1,.59,2.32-.26,3a0,0,0,0,0,0,.06C190.65,122.27,190.32,120.59,189.81,119.65Z" style="fill:#263238"></path><path d="M188.51,118.83c-1.75.4-.82,3.87.8,3.5S190,118.49,188.51,118.83Z" style="fill:#263238"></path><path d="M196.09,118.16s.1,0,.11.08c.25,1.08.72,2.28,1.79,2.38,0,0,0,.06,0,.06C196.76,120.83,196.15,119.23,196.09,118.16Z" style="fill:#263238"></path><path d="M196.75,116.78c1.7-.59,2.76,2.85,1.19,3.4S195.33,117.28,196.75,116.78Z" style="fill:#263238"></path><path d="M187.17,118.53a13.47,13.47,0,0,0,1.39-.49,2.41,2.41,0,0,0,1.33-.78.77.77,0,0,0-.13-.92,1.87,1.87,0,0,0-1.9-.19,2.78,2.78,0,0,0-1.59,1.2A.81.81,0,0,0,187.17,118.53Z" style="fill:#263238"></path><path d="M197.29,114.08a14.61,14.61,0,0,1-1.48,0,2.39,2.39,0,0,1-1.51-.28.76.76,0,0,1-.19-.91,1.87,1.87,0,0,1,1.72-.82,2.74,2.74,0,0,1,1.91.59A.81.81,0,0,1,197.29,114.08Z" style="fill:#263238"></path><path d="M191.3,129.9c.32.19.67.47,1.07.39a2.85,2.85,0,0,0,1.09-.57s.07,0,.06,0a1.51,1.51,0,0,1-1.21,1,1.21,1.21,0,0,1-1.1-.73C191.17,129.92,191.25,129.88,191.3,129.9Z" style="fill:#263238"></path><path d="M191.79,126.33a3.8,3.8,0,0,0,2.88,1A4.8,4.8,0,0,0,196,127a1.73,1.73,0,0,0,.24-.1l.23-.1a.27.27,0,0,0,.15-.29h0s0-.07,0-.11h0l0-.09c-.2-.84-.62-2.08-.62-2.08.35.07,2.08.36,1.94-.07a57.21,57.21,0,0,0-4.38-10.72.1.1,0,0,0-.19.08c1,3.44,2.58,6.68,3.62,10.11a7,7,0,0,0-1.87-.06c-.1.06.85,2.38.91,2.76v0a5.28,5.28,0,0,1-4.11-.16C191.77,126.17,191.7,126.26,191.79,126.33Z" style="fill:#263238"></path><path d="M195.43,127.08a4.42,4.42,0,0,1-1.47,1.67,2,2,0,0,1-1.16.3c-.9-.06-1.07-.84-1-1.54a4.76,4.76,0,0,1,.18-1.09A5.72,5.72,0,0,0,195.43,127.08Z" style="fill:#263238"></path><path d="M194,128.75a2,2,0,0,1-1.16.3c-.9-.06-1.07-.84-1-1.54A2,2,0,0,1,194,128.75Z" style="fill:#f291b8"></path><polygon points="192.78 144.97 191.81 151.81 177.91 139.87 177.14 143.74 190.98 157.7 192.09 152.59 195.5 155.41 194.56 147.84 192.78 144.97" style="fill:#ebebeb"></polygon><path d="M177.14,143.73c4.75,4.52,9.39,9.15,14,13.81l-.39.11,1.14-5.11.07-.33.26.22,3.38,2.86-.26.14c-.29-2.53-.53-5.06-.78-7.59.39,2.65.8,5.29,1.14,7.94l-.3-.25L192,152.74l.33-.11-1.09,5.12-.09.41c-4.71-4.75-9.4-9.53-14-14.43Z" style="fill:#263238"></path><path d="M177.21,144.17l-.26-4.29s7.23,5.86,7.87,6.92,2.6,12.77,2.6,12.77S178.93,149,177.21,144.17Z" style="fill:#37474f"></path><path d="M168,169.4c-7.39-11.05-14.17-25-23.1-40.63-10-17.43-18.43-35.46-20.5-39.25-2.66-4.87,27.44-7.39,28.75-3.81.85,2.29,7.72,19.63,14,35.47s9.54,33.57,12,44.91C181.85,179.19,173.43,177.55,168,169.4Z" style="fill:#d3766a"></path><path d="M120.39,81.4c.86,5.69,7.19,16.65,9.74,18.7S151.65,92,152.21,88.71,148.36,66.45,144,62.47,119.49,75.5,120.39,81.4Z" style="fill:#d3766a"></path><path d="M149.46,69.93c-2.4,1.89-3.82-.17-3.82-.17s2.78,5.22.45,7.66-5.33-1.37-5.55-1.64c.14.28,2.57,5.15,0,7.36s-5.14-2-5.3-2.25c.05.31.71,4.35-1.65,5.59-4,2.11-6-8.19-9.13-10.14,0,0-3.91,4.94-4,5.06s-2.06-9.77.81-13.85A3.17,3.17,0,0,1,125,66.38s-1-3.08,1-4.88c1-.93,3.41-.11,3.41-.11a4,4,0,0,1,1.16-4c1.49-1.2,3.65-.19,3.65-.19s-1.06.15,1.83-1.8C141,52,147.62,66,150.22,66.49,151.52,66.75,150.5,69.1,149.46,69.93Z" style="fill:#d3766a"></path><path d="M134.58,57.3c-.05,0,0-.1,0-.07A28.44,28.44,0,0,1,145.8,69.9c.07.17-.1,1-.19.82C143.35,66.12,139,61.13,134.58,57.3Z" style="fill:#263238"></path><path d="M129.36,61.3s0-.12.08-.08A26.58,26.58,0,0,1,140.77,75.8c.06.21-.1.47-.19.23C139.09,72,133.4,64.73,129.36,61.3Z" style="fill:#263238"></path><path d="M135.19,81.37c-1.92-5.91-5.55-10.6-10-14.88-.06-.06,0-.13.09-.1,2.73,1.51,5.26,4.53,7,7a16.36,16.36,0,0,1,3.06,7.86C135.41,81.41,135.23,81.49,135.19,81.37Z" style="fill:#263238"></path><path d="M145.74,69.78c.08.2-.57,0-.49.23.82,2.23,2.11,6.31.44,7.4-1.34.86-3.43-.33-4.06-1.11l-1.57-2,.8,2.38a10.17,10.17,0,0,1,.56,3.27,3.67,3.67,0,0,1-1,2.8,2.09,2.09,0,0,1-2.62.26,6.32,6.32,0,0,1-2.09-2.39l-1.41-2.6.48,2.91a9.57,9.57,0,0,1,.09,2.45,4,4,0,0,1-.77,2.16,1.88,1.88,0,0,1-1.87.65,4.26,4.26,0,0,1-1.86-1.41,32.51,32.51,0,0,1-2.78-4.32c-.44-.75-.88-1.5-1.36-2.24a6.19,6.19,0,0,0-1.74-1.93A6.48,6.48,0,0,1,126,78.4c.42.76.8,1.53,1.18,2.31a27.73,27.73,0,0,0,2.61,4.57A4.92,4.92,0,0,0,131.94,87a2.67,2.67,0,0,0,2.8-.86,4.92,4.92,0,0,0,1-2.64,10.93,10.93,0,0,0-.06-2.74l-.94.31A7.26,7.26,0,0,0,137.21,84a3.08,3.08,0,0,0,2,.47,3.42,3.42,0,0,0,1.83-.88A4.6,4.6,0,0,0,142.37,80a11.29,11.29,0,0,0-.67-3.59l-.78.43c.83,1,3,2.56,5.27,1.47C148.91,76.46,146.29,70.79,145.74,69.78Z" style="fill:#263238"></path><path d="M152.21,88.71s6-14.74,4.25-19.82-13.46-7.71-17.86-8c-6.08-.39-5.75,4-3.19,6.09,3,2.41,8.4,4.4,8.78,4.55,0,0-7,6.14-5.91,12.85S152.21,88.71,152.21,88.71Z" style="fill:#d3766a"></path><path d="M147.08,62.61c-3.44-.72-7.08-1.71-10.57-1.26-2.66.53-3.16,2.79-1.36,4.69a13.56,13.56,0,0,0,2.74,2.13,26.5,26.5,0,0,0,7.22,3.2A16.68,16.68,0,0,0,138.79,80a15.53,15.53,0,0,0-.62,3.33,14.7,14.7,0,0,1,3.32-9.59,14.47,14.47,0,0,1,2.45-2.5l.15.76a25,25,0,0,1-6.71-3c-1.52-1-3.25-2.15-3.95-4-.9-2.15.81-4.13,2.95-4.37,3.69-.32,7.25.86,10.7,2Z" style="fill:#263238"></path><path d="M126.5,102.19l30-15.62s11.17,28.67,14.69,38.59S179,159.89,180,169s-5.38,9.65-11.54,1.87-21.16-36.71-21.84-37.51S126.5,102.19,126.5,102.19Z" style="fill:#37474f"></path><path d="M144.57,101.15c-1.88,1-3.73,2.09-5.59,3.16-.89.51-1.79,1-2.66,1.56s-1.95,1.11-2.85,1.76c-.06,0,0,.13.06.1,1-.4,2-1,3-1.45s1.83-.93,2.74-1.41c1.9-1,3.8-2,5.67-3,3.76-2.07,7.45-4.24,11.12-6.46a.09.09,0,0,0-.08-.15C152.15,97.15,148.34,99.09,144.57,101.15Z" style="fill:#263238"></path><path d="M164.52,107.27c3.22,8.09,6.86,16.09,9.2,24.49a239.74,239.74,0,0,1,4.63,25.74c-1.65-7.54-3.69-18.14-5.57-25.5-2.24-8.4-5.78-16.39-8.26-24.73Z" style="fill:#263238"></path><path d="M176.67,147.05a21.15,21.15,0,0,1,2.39,6,20.75,20.75,0,0,1-2.39-6Z" style="fill:#263238"></path></g><g id="freepik--character-4--inject-17"><path d="M425.1,407.41s.72,45.29.72,45.32c-.11,8.49-.36,15.93-.85,19.76a.15.15,0,0,1,0,.07,5.92,5.92,0,0,1-.66,2.61l-.05.05c-2.55,1.68-70.4,2.78-72.78,2s-.41-7.6,2.19-9.75,28.4-14.18,28.4-14.18l-.29-45.9Z" style="fill:#eb9481"></path><path d="M426,443.62s-.16,9.08-.16,9.11c-.11,8.49-.36,15.93-.85,19.76a.15.15,0,0,1,0,.07,11.11,11.11,0,0,1-.66,2.61l-.05.05c-2.55,1.68-70.4,2.78-72.78,2s-.41-7.6,2.19-9.75,28.4-14.18,28.4-14.18l.05-9.25Z" style="fill:#fff"></path><path d="M377.91,453.3c4.52-.7,10,.16,13.34,3.47.13.13-.05.31-.2.26a62.94,62.94,0,0,0-13.14-3.16A.29.29,0,0,1,377.91,453.3Z" style="fill:#263238"></path><path d="M374.6,455.15c4.52-.7,10,.17,13.34,3.48.13.13-.05.31-.2.26a63,63,0,0,0-13.14-3.17A.29.29,0,0,1,374.6,455.15Z" style="fill:#263238"></path><path d="M371.29,457c4.53-.7,10,.16,13.34,3.47.13.13-.05.31-.19.26a63.82,63.82,0,0,0-13.15-3.16A.29.29,0,0,1,371.29,457Z" style="fill:#263238"></path><path d="M351.47,477.24c2.38.76,70.2.91,72.75-.78,1-.62,1.43-11.76,1.59-23.73v-.37l-43.78.21,0,.75s-25.78,12-28.4,14.18S349.08,476.49,351.47,477.24Z" style="fill:#FFC727"></path><path d="M352.19,474.6c11.43-.47,57.59-1.27,68.93-.86.09,0,.09.07,0,.07-11.32.71-57.48,1.14-68.93,1C352,474.78,352,474.61,352.19,474.6Z" style="fill:#263238"></path><path d="M385.5,452.69,360,477.62a83,83,0,0,1-8.57-.38c-2.38-.76-.39-7.6,2.2-9.74s28.4-14.19,28.4-14.19l0-.73,3.34,0Z" style="opacity:0.1"></path><path d="M427.38,452.16l-49.47.58s-1.14-83.72-1.09-110.38c.06-30.44,4.62-121.29,4.62-121.29l36.7.36a116.45,116.45,0,0,1,8,28.68c.59,4.24-.08,16.6-1.54,22.25l-1.31,74Z" style="fill:#263238"></path><path d="M384.72,399.29c-.44-13.22-.69-29.45-.92-42.68q-.71-39.67.2-79.37c.34-14.84.88-29.67,1.47-44.51,0-.17-.25-.16-.26,0-1.67,26.54-2.47,53.15-2.76,79.75s0,55.93,1,82.37c.59,14.84,1.35,29.69,2.6,44.49a.1.1,0,0,0,.2,0C385.79,426,385.17,412.64,384.72,399.29Z" style="fill:#37474f"></path><path d="M384.42,443.19c9.87-.66,19.78-.68,29.66-.49,2.8.05,5.59.13,8.38.27a.08.08,0,0,1,0,.16c-9.87.6-19.79.72-29.67.52-2.79,0-5.58-.14-8.37-.29A.09.09,0,0,1,384.42,443.19Z" style="fill:#37474f"></path><path d="M357.91,410.75s-.17,42.6-.17,42.63c-.11,8.49-.36,15.93-.85,19.77a.06.06,0,0,1,0,.06,6,6,0,0,1-.66,2.61l-.05.06c-2.55,1.67-70.41,2.77-72.79,2s-.4-7.6,2.2-9.74S314,454,314,454l2.49-43.09Z" style="fill:#eb9481"></path><path d="M357.91,444.27s-.17,9.08-.17,9.11c-.11,8.49-.36,15.93-.85,19.77a.06.06,0,0,1,0,.06,12.32,12.32,0,0,1-.66,2.61l-.05.06c-2.55,1.67-70.41,2.77-72.79,2s-.4-7.6,2.2-9.74S314,454,314,454l0-9.24Z" style="fill:#fff"></path><path d="M309.83,454c4.53-.7,10,.16,13.35,3.47.13.13-.06.31-.2.26a63.67,63.67,0,0,0-13.15-3.16A.29.29,0,0,1,309.83,454Z" style="fill:#263238"></path><path d="M306.52,455.8c4.53-.69,10,.17,13.35,3.48.13.13-.06.31-.2.26a63.69,63.69,0,0,0-13.15-3.17A.29.29,0,0,1,306.52,455.8Z" style="fill:#263238"></path><path d="M303.22,457.66c4.52-.7,10,.16,13.34,3.48.13.12-.05.31-.2.26a63,63,0,0,0-13.14-3.17A.29.29,0,0,1,303.22,457.66Z" style="fill:#263238"></path><path d="M283.39,477.89c2.38.76,70.47,1.18,73-.5,1-.62,1.17-12,1.33-24V453l-43.78.22,0,.74s-25.79,12-28.4,14.18S281,477.14,283.39,477.89Z" style="fill:#FFC727"></path><path d="M284.12,475c11.43-.39,57.59-.92,68.93-.44.09,0,.09.07,0,.07-11.33.64-57.49.79-68.93.56C283.88,475.23,283.87,475.05,284.12,475Z" style="fill:#263238"></path><path d="M396.38,268.2s-27.12,64.22-29.52,74.49c-2.27,9.69-6.28,110.69-6.28,110.69L312.23,453s7.11-102.09,8-112.45c1.18-13.6,13-44.62,25.57-77.78,5.32-14,12.47-27.83,16.23-41.9l55,.54s-.73,24.82-12.19,42.66C404.81,264.08,399.67,266.39,396.38,268.2Z" style="fill:#263238"></path><path d="M316.69,444c9.87-.48,19.79-.31,29.66.07,2.8.1,5.58.24,8.37.43a.08.08,0,0,1,0,.15c-9.88.42-19.8.35-29.67,0-2.79-.11-5.59-.25-8.37-.46A.08.08,0,1,1,316.69,444Z" style="fill:#37474f"></path><path d="M383.76,269.3a44.72,44.72,0,0,0,7.58-.61,75.28,75.28,0,0,0,7.36-2,59.87,59.87,0,0,1,7.2-1.11,24.91,24.91,0,0,0,7.07-2c.1,0,.19.11.08.16a42.94,42.94,0,0,1-6.78,2.87c-2.43.74-4.95.82-7.41,1.39a61.18,61.18,0,0,1-7.57,1.66,27,27,0,0,1-7.56-.2C383.64,269.45,383.67,269.3,383.76,269.3Z" style="fill:#37474f"></path><path d="M379,309.41c.53-1.5,1-3,1.6-4.5,1.13-3,2.28-6.05,3.54-9.05,2.49-6,4.85-12,7.49-17.88,1.49-3.36,2.84-6.76,4.58-10.06.05-.08.2,0,.18.05-.89,3.07-2.14,6.08-3.27,9.11s-2.32,6-3.52,9.05c-2.38,6-4.72,12-7.32,17.92-.73,1.67-1.48,3.33-2.27,5s-1.44,3.43-2.4,5.07c-.05.09-.21.05-.19,0C377.83,312.48,378.49,311,379,309.41Z" style="fill:#37474f"></path><path d="M369,224.25c0-.17.18-.06.17.07a54.54,54.54,0,0,1-2.75,13.43l-4.67,12.94-9.36,25.89c-7,19.43-14.18,38.77-20.62,58.37a25.34,25.34,0,0,0-1.21,6.65c-2.21,24.89-5.45,70.53-7.56,96,0,.09-.24.2-.24,0,0-.4,1.8-27.44,1.8-27.44,1.14-16.34,2.62-38.86,3.92-54.91.36-4.58.71-9.15,1.14-13.72a26.15,26.15,0,0,1,1.22-6.85c9.12-27.52,20.34-56.84,30.46-84.13l4.89-12.87A52.35,52.35,0,0,0,369,224.25Z" style="fill:#37474f"></path><path d="M368.68,166.44c3.06.23,9.62-5.3,12.26-10.05.18-.32-.3-3.77-.69-8-.22-2.56-.41-5.42-.39-8l-16.45,3.89a41.64,41.64,0,0,1,1.52,10.06,6.15,6.15,0,0,1-.12,1.08.88.88,0,0,0,0,.17C364.44,157.6,363.88,166.07,368.68,166.44Z" style="fill:#eb9481"></path><path d="M364.79,155.56a8.93,8.93,0,0,0,1.68.1c9.12-.14,11.71-11.17,12.35-15l-15.41,3.64a41.66,41.66,0,0,1,1.52,10.07,5.92,5.92,0,0,1-.12,1.06C364.81,155.44,364.79,155.5,364.79,155.56Z" style="fill:#263238"></path><path d="M363.29,112.33a9,9,0,0,0-5.33,4.24c-1.57,3.24-1.34,9.1-1.34,9.1Z" style="fill:#263238"></path><path d="M380.91,137.57c-2,4.48-4.42,8.4-6.57,9.69-6.94,4.19-16.69,2.82-19.84-5.15-2.14-5.41,1.39-17.13,5.48-24.52a0,0,0,0,1,0,0c1.75-3.16,3.6-5.53,5.15-6.27,7.66-3.61,18.67,2.14,19.6,11.09C385.09,125.74,383.34,132.07,380.91,137.57Z" style="fill:#eb9481"></path><path d="M366.12,129.35s.07.08.05.12c-.42,1.08-.72,2.38.13,3.09a0,0,0,1,1,0,.05C365.13,132,365.55,130.3,366.12,129.35Z" style="fill:#263238"></path><path d="M367.5,128.56c1.79.49.68,4-1,3.58S366,128.15,367.5,128.56Z" style="fill:#263238"></path><path d="M360,127.61s-.1,0-.12.07c-.3,1.11-.84,2.33-1.95,2.39,0,0-.05.05,0,.06C359.2,130.34,359.91,128.71,360,127.61Z" style="fill:#263238"></path><path d="M359.4,126.16c-1.73-.69-3,2.81-1.38,3.45S360.84,126.73,359.4,126.16Z" style="fill:#263238"></path><path d="M369.34,127.46a13.9,13.9,0,0,1-1.22-.92c-.47-.35-.88-.59-1.07-1.17a.78.78,0,0,1,.4-.87,2,2,0,0,1,1.94.4,2.9,2.9,0,0,1,1.2,1.67A.84.84,0,0,1,369.34,127.46Z" style="fill:#263238"></path><path d="M358.61,124.19c.52.07,1,0,1.53.07a2.42,2.42,0,0,0,1.57-.22.79.79,0,0,0,.24-.93,2,2,0,0,0-1.74-.92,2.8,2.8,0,0,0-2,.52A.84.84,0,0,0,358.61,124.19Z" style="fill:#263238"></path><path d="M363.92,139.83a1.8,1.8,0,0,1-1.13.35,3.08,3.08,0,0,1-1.09-.64s-.08,0-.07,0a1.54,1.54,0,0,0,1.21,1,1.23,1.23,0,0,0,1.17-.7A.06.06,0,0,0,363.92,139.83Z" style="fill:#263238"></path><path d="M363.79,136.17a4,4,0,0,1-3,.89,5,5,0,0,1-1.36-.36l-.25-.11-.23-.11a.31.31,0,0,1-.15-.32h0a.49.49,0,0,1,0-.11h0l0-.09c.24-.85.72-2.12.72-2.12-.35.06-2.15.28-2-.16a58.35,58.35,0,0,1,5-10.87.11.11,0,0,1,.19.09c-1.18,3.5-3,6.78-4.19,10.28a6.87,6.87,0,0,1,1.93,0c.11.07-1,2.42-1.06,2.81v0a5.39,5.39,0,0,0,4.25,0C363.82,136,363.88,136.11,363.79,136.17Z" style="fill:#263238"></path><path d="M360,136.42a4.62,4.62,0,0,0,1.35,1.94,2.09,2.09,0,0,0,1.19.45c.95.05,1.22-.75,1.28-1.49a5.24,5.24,0,0,0-.07-1.18A6,6,0,0,1,360,136.42Z" style="fill:#263238"></path><path d="M361.39,138.36a2.09,2.09,0,0,0,1.19.45c.95.05,1.22-.75,1.28-1.49A2.15,2.15,0,0,0,361.39,138.36Z" style="fill:#ff9abb"></path><path d="M379.15,136.74c-3-.68-.87-8.84-.87-8.84s-5.72-2.34-4.47-10.15c0,0-9.31.9-12.67-4.62s11.1-13.63,22.3.07c0,0,6.23,2.69,5.93,8.25S382.74,137.56,379.15,136.74Z" style="fill:#263238"></path><path d="M374.22,116.92a.08.08,0,0,1,.13.08c-2.2,4.84-.06,10.26,5.46,11.22a.15.15,0,0,1,0,.29C374.19,128.1,370.53,121.54,374.22,116.92Z" style="fill:#263238"></path><path d="M371.84,105.79s0,0,0,0a18.71,18.71,0,0,0-5.69.06c-2.81.58-6.84,2.86-5.81,6.34,1.41,4.76,8,5.15,12.09,5.09a.21.21,0,0,1,.06.42c-4.3.79-12.5-.67-12.91-6.19C359.13,105.42,367.79,104.92,371.84,105.79Z" style="fill:#263238"></path><path d="M377.61,134.54s4.87-4.52,7-2.67-2.34,8.95-5.4,9.39a2.94,2.94,0,0,1-3.52-2.38Z" style="fill:#eb9481"></path><path d="M383.28,133.87c.05,0,0,.08,0,.08-2.16.38-3.61,2-4.75,3.75a1.62,1.62,0,0,1,2.47.07c.05,0,0,.12-.08.1a1.8,1.8,0,0,0-2.08.2,8.26,8.26,0,0,0-1.27,1.37c-.14.16-.44,0-.32-.2l0,0C377.77,136.66,380.5,133.54,383.28,133.87Z" style="fill:#263238"></path><path d="M362.67,164l.11-9,18-7.4,1.94,6.34a29.18,29.18,0,0,1-6.65,9.84C371.56,167.88,366.25,168.06,362.67,164Z" style="fill:#ebebeb"></path><path d="M423.88,237.91c-.14.21-69.37,6.68-70.13,6-1.05-.92.11-67.66,9.74-84.79,2.41-4.29,13.57-8.6,18.73-5.75C400.27,163.37,424.38,237.15,423.88,237.91Z" style="fill:#37474f"></path><path d="M374.51,163.23c-11.7-7.94-26.48-15.26-43-24.88-18.46-10.73-25.68-17.73-29.69-20-5.16-2.87-21.49,21.52-17.69,23,2.43.91,22.34,13.81,39.12,20.55S358.87,172.31,370.9,175C384.8,178.06,383.13,169.09,374.51,163.23Z" style="fill:#eb9481"></path><path d="M302.55,122.52A74.85,74.85,0,0,0,297,109.07c-2-3.68-6-9.68-8.73-11.71-4.06-3-23-13.14-25.53-8.61-2.31,4.1,15,10.72,15,10.72S260.86,91.24,259,96.7,277.72,107,277.72,107s-17.58-8.06-18.61-2.14c-.79,4.48,17.62,10,17.62,10s-15.15-6.83-16.16-2.26c-1.11,5.06,15.57,11.16,15.57,11.16-.6,12.06,4.11,14.56,8,17.61C285.15,142.15,302.55,122.52,302.55,122.52Z" style="fill:#eb9481"></path><path d="M283.81,101.94c-1.95-1-3.92-2.1-6-3s-4.11-1.65-6.21-2.32a38.3,38.3,0,0,0-8.46-1.82c5.07.87,12.42,3.84,14.46,4.71s4.11,1.61,6.14,2.47C283.83,102,283.86,102,283.81,101.94Z" style="fill:#263238"></path><path d="M280.84,109.36c-2.55-1.22-5-2.52-7.65-3.63s-5.15-1.91-7.81-2.83c-.2-.07-.17.06,0,.14,2.62,1,5,2.17,7.58,3.23s5.26,2,7.82,3.15A0,0,0,1,0,280.84,109.36Z" style="fill:#263238"></path><path d="M279.43,116.18a63,63,0,0,0-12.11-4.65c-.21-.06-.15.11.05.18,4.06,1.47,7.25,2.6,12,4.61C279.43,116.35,279.51,116.23,279.43,116.18Z" style="fill:#263238"></path><path d="M303.38,118.6l-16.84,31.8s30.39,12.11,40.91,15.93,36.86,8.51,46.49,9.71,10.3-5.64,2.09-12.25S337.17,141,336.32,140.28,303.38,118.6,303.38,118.6Z" style="fill:#37474f"></path><path d="M302.13,137.81c1.1-2,2.25-4,3.41-5.92.55-.94,1.09-1.89,1.68-2.82s1.19-2.07,1.88-3a.07.07,0,0,1,.12.06c-.44,1.09-1.06,2.13-1.58,3.19s-1,1.94-1.51,2.9c-1.07,2-2.14,4-3.25,6-2.23,4-4.57,7.88-7,11.76a.09.09,0,1,1-.15-.08C297.82,145.83,299.91,141.8,302.13,137.81Z" style="fill:#263238"></path><path d="M348.24,171.79a254.29,254.29,0,0,0,27.45,4.44C367.64,174.62,339.26,169.46,348.24,171.79Z" style="fill:#263238"></path><path d="M364.54,174.64a22.32,22.32,0,0,0,6.39,2.43,22.1,22.1,0,0,0-6.39-2.43Z" style="fill:#263238"></path></g><g id="freepik--character-1--inject-17"><path d="M135.48,167c-4.87,13.19-12.6,27.65-20.42,45-8.73,19.34-18.91,37.78-20.87,41.9-2.51,5.3-26-17.8-23.72-21.15,1.44-2.14,47.11-64,55.31-73.16C135.25,149.05,139.08,157.27,135.48,167Z" style="fill:#f7a9a0"></path><path d="M73.63,229.37c-2.36,2.41-14.86,16.31-17.25,20-4.4,6.84-7.43,14.89-5,17.32,1.91,1.93,5.58-1.26,5.58-1.26s-1.29,5.31,1.77,6.89,5.55-3.69,5.55-3.69-.92,5.54,2.24,6.9,4.78-4.36,4.78-4.36-1.08,5,2,5.05c3.7,0,4.65-9.47,7.18-13.66.38-.64,12.14-9.07,15.94-15.66a14,14,0,0,0,2-5.5Z" style="fill:#f7a9a0"></path><path d="M71.36,271.14c2-6.16,3.43-8.69,7.58-14,.08-.1-.2-.2-.29-.11-4.39,4.61-6.36,7.78-7.55,14.09C71,271.44,71.27,271.44,71.36,271.14Z" style="fill:#263238"></path><path d="M64.44,268.74c2-7.05,3.84-10.1,8.36-15.78.06-.08-.06-.19-.14-.12-4.9,5.2-7.53,8.44-8.56,15.74C64.06,268.91,64.35,269.06,64.44,268.74Z" style="fill:#263238"></path><path d="M57.18,265.31c2.12-6.77,3.9-10.28,8.8-15.42a.13.13,0,0,0-.18-.19c-5.51,4.75-7.76,9.11-8.82,15.53C56.91,265.67,57,265.74,57.18,265.31Z" style="fill:#263238"></path><path d="M96.46,244.34s-.1,8.79-1,12.65S85.94,274,83,272.27c-3.8-2.2-.31-10.76,1.94-14.73,0,0-8.79-5.07-7.62-11.76S96.46,244.34,96.46,244.34Z" style="fill:#f7a9a0"></path><path d="M83.47,260.48c.39-1,.81-2,1.24-3.06l.08.34a20.25,20.25,0,0,1-8.31-11.17,15.72,15.72,0,0,1-.58-4.66,24.57,24.57,0,0,0,1.22,4.45,27,27,0,0,0,8,10.94l.19.16c-.59,1-1.18,2-1.81,3Z" style="fill:#263238"></path><path d="M100.52,246.61,71.71,228.2a16.69,16.69,0,0,1,2.7-8.42c5.67-8.76,17-21.93,21.2-28.1,6.3-9.17,24.91-28.19,32-34.72s11.59-1.39,8.76,8.71-18.27,40.89-18.54,42c-.19.77-6.24,21.52-11.22,32.62A14.16,14.16,0,0,1,100.52,246.61Z" style="fill:#FFC727"></path><path d="M90.32,230.61c1.92,1.21,3.86,2.37,5.8,3.53.94.56,1.87,1.13,2.82,1.66s2,1.23,3.08,1.72c.08,0,.14-.05.07-.11-.9-.73-1.94-1.35-2.89-2s-1.81-1.22-2.72-1.81c-1.89-1.24-3.78-2.49-5.7-3.68-3.85-2.41-7.75-4.69-11.69-6.93a.08.08,0,0,0-.09.14C82.73,225.68,86.48,228.2,90.32,230.61Z" style="fill:#263238"></path><path d="M136.39,165.66c-2.82,10.1-18.28,40.9-18.54,42-.19.76-6.24,21.51-11.22,32.6a14.15,14.15,0,0,1-6.11,6.37L71.71,228.2a14.86,14.86,0,0,1,.58-3.66l57.41-69.21C135.56,151.53,138.94,156.6,136.39,165.66Z" style="opacity:0.1"></path><path d="M92.81,381.88S71,420.52,71,420.55c-3.51,7.79-6.45,14.68-7.64,18.39a.14.14,0,0,0,0,.06,6.06,6.06,0,0,0-.51,2.67s0,.05,0,.07c1.61,2.61,63.06,32.48,65.55,32.8s3.6-6.77,2.14-9.83-19.88-25-19.88-25l21.45-38.79Z" style="fill:#f7a9a0"></path><path d="M127.38,474.31c-2.49-.32-63-30-64.57-32.57l0-.07a6.06,6.06,0,0,1,.51-2.67s0,0,0-.05c1.19-3.71,4.13-10.61,7.63-18.4,0,0,3.68-6.76,5.15-9.1l39.08,20.2-4.55,8s17.43,21.73,18.9,24.79S129.88,474.64,127.38,474.31Z" style="fill:#ebebeb"></path><path d="M128.5,473.48c-2.51-.38-63.73-31.92-65.3-34.61-.61-1,3.47-10.19,8.71-21.16l.17-.34,39.72,19.91-.36.66s18,22.56,19.45,25.69S131,473.87,128.5,473.48Z" style="fill:#FFC727"></path><path d="M129,470.75c-10.19-5.57-51.81-27.08-62.31-31.81-.09,0-.11,0,0,.06,10,5.75,51.78,26.91,62.26,31.92C129.17,471,129.25,470.86,129,470.75Z" style="fill:#fff"></path><path d="M114.7,439.77c-3.67-2.85-9-4.78-13.55-3.49-.18.05-.11.3,0,.33a64.24,64.24,0,0,1,13.22,3.67A.29.29,0,0,0,114.7,439.77Z" style="fill:#263238"></path><path d="M116.72,443.05c-3.67-2.85-9-4.79-13.55-3.49-.18.05-.11.3,0,.33a64.21,64.21,0,0,1,13.22,3.66A.29.29,0,0,0,116.72,443.05Z" style="fill:#263238"></path><path d="M118.74,446.33c-3.67-2.86-9-4.79-13.55-3.5-.18.05-.11.31,0,.33a64.06,64.06,0,0,1,13.22,3.67A.29.29,0,0,0,118.74,446.33Z" style="fill:#263238"></path><path d="M78.65,429.44c-3.29-4.51-10.3.61-7,5.12S82,434,78.65,429.44Z" style="fill:#fff"></path><path d="M114.14,441.33l4.4,27.49c5.54,2.75,9.37,4.57,10,4.66,2.5.39,3.79-6.74,2.39-9.85C129.82,461.26,119.22,447.74,114.14,441.33Z" style="opacity:0.1"></path><path d="M130.57,471.76c.88,1-1.26,4.55-2.2,4.44s-67.55-34.8-68.55-35.64,1.51-4.69,2.94-4.22S130.57,471.76,130.57,471.76Z" style="fill:#FFC727"></path><path d="M130.57,471.76c.88,1-1.26,4.55-2.2,4.44s-67.55-34.8-68.55-35.64,1.51-4.69,2.94-4.22S130.57,471.76,130.57,471.76Z" style="opacity:0.4"></path><path d="M76,407.84l44,23.51s55.59-79.21,56.7-100c1.53-28.75-23-120-23-120l-39.14-.26s15.91,93.84,14.62,109.85C128.52,329.3,76,407.84,76,407.84Z" style="fill:#263238"></path><path d="M123.88,422.25c-2.27-1.63-23.14-13.73-39-21.45-.1-.06-.17.09-.08.16,4.82,3.18,36,20.25,39,21.46C123.86,422.46,124,422.32,123.88,422.25Z" style="fill:#37474f"></path><path d="M134.63,300.87c-1.82-13.73-3.82-27.45-6.1-41.11s-4.71-27.44-7.58-41.06q-.53-2.49-1.08-5a.2.2,0,0,0-.4.08c2.42,13.51,4.9,27,7.12,40.55s4.28,27.11,6.14,40.71q.69,5,1.35,10.1a92.15,92.15,0,0,1,1,10.49,27,27,0,0,1-1.68,9.82,57.45,57.45,0,0,1-4.51,8.84c-7.08,12-38.8,64.34-39.63,65.86-.05.1.09.21.15.11,7.61-11.81,31.23-49.53,38.41-61.71,3.24-5.49,7-11.05,8-17.46C136.93,314.45,135.51,307.48,134.63,300.87Z" style="fill:#37474f"></path><path d="M123.35,407.84s-.44,44.66-.44,44.69c.24,8.54.6,16,1.14,19.88a.13.13,0,0,0,0,.06,6,6,0,0,0,.71,2.63l0,0c2.59,1.65,70.91,1.75,73.29,1s.3-7.65-2.35-9.77S167,452.47,167,452.47l0-44.63Z" style="fill:#f7a9a0"></path><path d="M123,443.36s-.09,9.14-.09,9.17c.24,8.54.6,16,1.14,19.88a.13.13,0,0,0,0,.06,11.26,11.26,0,0,0,.71,2.63l0,0c2.59,1.65,70.91,1.75,73.29,1s.3-7.65-2.35-9.77S167,452.47,167,452.47v-9.31Z" style="fill:#ebebeb"></path><path d="M198.15,476c-2.42.77-71.28-.44-73.87-2.16-1-.63-1.41-10.67-1.55-22.82v-.38l44.43.28,0,.75s26.15,12.26,28.8,14.44S200.57,475.26,198.15,476Z" style="fill:#FFC727"></path><path d="M197.41,473.34c-11.6-.49-58.44-1.37-69.95-1-.09,0-.09.06,0,.07,11.49.74,58.34,1.23,70,1.09C197.66,473.52,197.66,473.35,197.41,473.34Z" style="fill:#fff"></path><path d="M170.86,451.89c-4.55-.93-10.15-.33-13.7,2.87-.14.12,0,.31.19.27a64.31,64.31,0,0,1,13.48-2.56A.29.29,0,0,0,170.86,451.89Z" style="fill:#263238"></path><path d="M174.12,453.94c-4.55-.93-10.15-.33-13.7,2.86-.13.13,0,.32.19.28a63.68,63.68,0,0,1,13.48-2.56A.29.29,0,0,0,174.12,453.94Z" style="fill:#263238"></path><path d="M177.39,456c-4.56-.93-10.16-.33-13.7,2.87-.14.12,0,.31.18.27a64.4,64.4,0,0,1,13.49-2.56A.29.29,0,0,0,177.39,456Z" style="fill:#263238"></path><path d="M199.24,473.57c1.23.5.89,4.63,0,4.95s-76-1.34-77.24-1.65-.72-4.88.76-5.09S199.24,473.57,199.24,473.57Z" style="fill:#FFC727"></path><path d="M199.24,473.57c1.23.5.89,4.63,0,4.95s-76-1.34-77.24-1.65-.72-4.88.76-5.09S199.24,473.57,199.24,473.57Z" style="opacity:0.4"></path><path d="M134,458.57c-5-2.59-9,5.1-4,7.69S138.92,461.16,134,458.57Z" style="fill:#fff"></path><path d="M153.23,211.24l0,0c-.26.81-14.32,39.36-15.65,40-1.5.69,31.08,55.41,33,80.84,1.23,16.26-1.19,108.27-1.19,108.27H121.75s2.29-82.72,3.38-108.94c.42-10.16-32.7-60.77-33.11-92.28-.13-9.93,7-28.08,7-28.08Z" style="fill:#263238"></path><path d="M125.4,330.73c0-.43-.33-.56-.36-.13-1.08,14.19-1.33,28.3-2,42.5s-.29,17.59-.93,31.76c-.35,8,0,16.06-.2,24.08a.1.1,0,0,0,.2,0C123.59,414.81,125.39,338.76,125.4,330.73Z" style="fill:#37474f"></path><path d="M170.57,332.66a70.38,70.38,0,0,0-1-10.45,51.44,51.44,0,0,0-2.94-9.8c-2.63-6.64-5.74-13.11-8.71-19.6s-6.09-13.11-9.26-19.61q-2.69-5.47-5.39-10.93c-1.83-3.68-3.8-7.3-5.72-10.93a.13.13,0,0,0-.23.11c3.05,6.55,6.07,13.12,9.12,19.68s6.05,13.13,9.05,19.71,5.9,13,8.68,19.49a63.4,63.4,0,0,1,3.4,9.64,56.6,56.6,0,0,1,1.4,10.37c.46,8.14.68,16.3,1.48,24.41,0,.1.18.09.18,0C170.9,347.4,170.79,340,170.57,332.66Z" style="fill:#37474f"></path><path d="M165.93,431c-2.77-.36-23.87-1.09-41.52-.34a.1.1,0,0,0,0,.19c5.76.51,38.27.73,41.5.35C166,431.15,166.06,431,165.93,431Z" style="fill:#37474f"></path><path d="M144.15,249.12a91.16,91.16,0,0,0-14.9,5.16.16.16,0,0,0,.1.31c5-1.57,10.09-3,15-4.87A.31.31,0,0,0,144.15,249.12Z" style="fill:#37474f"></path><path d="M149,216.47c0-.17-.28-.24-.3-.06-.55,5.69-1.42,10.66-2.44,15.92-.48,2.44-3.86,15.87-8,14.44-.7-.24-1-1-1-2.07a17.17,17.17,0,0,1,1-4.13c.76-2.8,1.44-5.62,2-8.48a78.87,78.87,0,0,0,1.48-16.15.14.14,0,0,0-.28,0,149,149,0,0,1-3.58,22.13c-.9,3.49-3.24,8.64.42,9.57s7.08-7.75,7.79-10.15A82.34,82.34,0,0,0,149,216.47Z" style="fill:#37474f"></path><path d="M138.25,247.15a22.3,22.3,0,0,0-1.25,2.72,6.65,6.65,0,0,0-.64,2.29c0,.15.2.18.29.09a8.23,8.23,0,0,0,1.23-2.16c.41-.84.84-1.67,1.23-2.52A.48.48,0,0,0,138.25,247.15Z" style="fill:#37474f"></path><path d="M130.28,344.72c.25-6.77,1-13.87-1.22-20.4a66.9,66.9,0,0,0-4.35-9.27q-2.47-4.79-4.86-9.6c-6.36-12.86-12.36-25.91-17.72-39.22-2.58-6.41-4.88-13-5.8-19.86a61,61,0,0,1,1.33-21.61c.4-1.76.83-3.51,1.31-5.26,0-.12-.16-.2-.2-.07a71,71,0,0,0-3.71,20.66,58.16,58.16,0,0,0,3.58,19.75c2.28,6.65,5.14,13.11,8,19.55q4.35,9.94,9.05,19.75c3.12,6.49,6.44,12.88,9.73,19.29a34.68,34.68,0,0,1,3.65,9.73,50,50,0,0,1,.4,10.66c-.57,15-1.86,64.83-2.05,79.77l-.06,5.69a.13.13,0,0,0,.26,0C128.53,409.4,129.74,359.66,130.28,344.72Z" style="fill:#37474f"></path><path d="M119.6,221c0-.11-.17-.09-.18,0-.56,4.12-.88,8.39-2.88,12.13-1.82,3.44-5,5.65-8.48,7.2a64.41,64.41,0,0,1-6.18,2.28.13.13,0,0,0,.05.25c3.93-.82,7.94-1.74,11.36-3.95,3.67-2.37,5.56-6.16,6.16-10.4A37.08,37.08,0,0,0,119.6,221Z" style="fill:#37474f"></path><path d="M150.4,115.82c-6.65,9.7-.35,17-3.36,20.17-7.86,8.38-1.75,10.64-3.76,13.63-1.65,2.45-8.79,4.91-5.49,12.94l33.44-2.87c.54-5.58-5.25-8.05-5.92-11.91s3.61-8.11-4.46-15.77C155.61,127,153.59,111.17,150.4,115.82Z" style="fill:#263238"></path><path d="M158.76,200.31l1.87,16.91-64.95-5.17s20.58-45.93,30.68-55.13c8-7.32,16.58-6,21.57.08,1.26,1.53,13.43,23,14.44,31.52A14.56,14.56,0,0,1,158.76,200.31Z" style="fill:#FFC727"></path><path d="M146.53,195.94a20.09,20.09,0,0,1,5.16,1.39,26.59,26.59,0,0,1,2.53,1.32c.42.24.83.46,1.26.67a3.38,3.38,0,0,0,1.33.42s0,.11,0,.12a4.75,4.75,0,0,1-1.25,0,5.27,5.27,0,0,1-1.23-.38c-.86-.37-1.72-.81-2.58-1.2a48.46,48.46,0,0,0-5.22-2.08C146.45,196.19,146.45,195.92,146.53,195.94Z" style="fill:#263238"></path><path d="M142.5,199.12a19.45,19.45,0,0,1,4.2-.61,13.87,13.87,0,0,1,2.13.15l1,.18c.37.07.74.24,1.12.31,0,0,0,.12,0,.12a9.21,9.21,0,0,0-1.05,0h-1.06c-.7,0-1.41,0-2.11,0-1.42,0-2.83,0-4.24,0C142.44,199.35,142.43,199.14,142.5,199.12Z" style="fill:#263238"></path><path d="M136.66,172.4c22.2,9.49,48,12.24,53.65,10.2,6.18-2.25,20.73-13.38,33-25.75,2.51-2.53-18.85-20.15-21.63-17.55-7.3,6.82-20.27,20.74-23.79,21.83-3.26,1-23.71-.07-36.13.91C129.84,163,126.33,168,136.66,172.4Z" style="fill:#f7a9a0"></path><path d="M199.48,142.22s2.9-10.61,5.11-17.46c1.24-3.82,3.95-10.19,6.14-12.58C214,108.61,230,95.74,233.22,99.55,236.12,103,221,112.31,221,112.31s14.46-10.74,17.19-5.94-15.79,13-15.79,13,15.1-10.7,17.13-5.31c1.54,4.08-14.82,12.48-14.82,12.48s13.05-9.11,14.81-5c1.94,4.55-12.67,13.26-12.67,13.26,2.71,11.23-.6,17.69-3.5,22C222.61,157.89,199.48,142.22,199.48,142.22Z" style="fill:#f7a9a0"></path><path d="M215.72,115.71c1.66-1.33,3.32-2.68,5.09-3.85s3.57-2.28,5.43-3.28a35.5,35.5,0,0,1,7.64-3.21c-4.62,1.72-11,5.81-12.77,7s-3.58,2.25-5.34,3.42A0,0,0,0,1,215.72,115.71Z" style="fill:#263238"></path><path d="M219.84,122.16c2.18-1.6,4.29-3.27,6.55-4.77s4.5-2.72,6.84-4.06c.18-.1.18,0,0,.14-2.28,1.43-4.29,2.93-6.55,4.39s-4.6,2.82-6.81,4.35C219.84,122.24,219.81,122.18,219.84,122.16Z" style="fill:#263238"></path><path d="M222.38,128.33A60.39,60.39,0,0,1,233,121.8c.18-.09.16.08,0,.18-3.56,2.11-6.36,3.73-10.46,6.46C222.4,128.48,222.31,128.38,222.38,128.33Z" style="fill:#263238"></path><path d="M197.51,141.74,222.44,161s1,2.61-4.11,7.24S200.78,181.85,189.44,184s-42.07-5.73-52-10.45-10-10.14,2.33-12.14,34.26-.67,36.54-1.27,12.54-12.9,15.35-15.4A12.94,12.94,0,0,1,197.51,141.74Z" style="fill:#FFC727"></path><path d="M182.05,185.18a56.82,56.82,0,0,1-8.31-1.12c-2.17-.4-20.18-4.92-22.33-5.37a22.66,22.66,0,0,1-4.36-.12c-.06,0-.05-.1,0-.1,1.1,0,2.2,0,3.3,0l-.84-.17c-3.2-.65-6.37-1.41-9.53-2.28,0,0,0-.11,0-.1,5.52,1,26.88,6.16,32.4,7.12,2.73.48,5.47,1,8.22,1.21a30.57,30.57,0,0,0,8.48-.62,87.52,87.52,0,0,0,9.25-2.59.19.19,0,0,1,.14.36C193.24,183.48,187.76,185.36,182.05,185.18Z" style="fill:#263238"></path><path d="M136.69,155.82c.24,1.1,5.29,8.27,10.28,8.14,1.62,0,1.77-8.92,1.77-8.92l.16-.65,2.24-9.14-10.64-7.13-1.54-1s-.45,2.54-1,5.71c0,.14,0,.29-.07.45s-.07.35-.1.51l-.24,1.44c-.06.37-.11.72-.16,1.11s-.11.77-.16,1.15A61.07,61.07,0,0,0,136.69,155.82Z" style="fill:#f7a9a0"></path><path d="M138,142.88a18.87,18.87,0,0,0,10.92,11.51l2.24-9.14-10.64-7.13-1.54-1S138.51,139.71,138,142.88Z" style="fill:#263238"></path><path d="M160,125.28c7,14.95-1.15,20.84-4.37,22.34-2.93,1.37-13.07,5.66-21.59-8.48s-3.79-22.13,2.74-25.61S152.94,110.33,160,125.28Z" style="fill:#f7a9a0"></path><path d="M158.66,126a10.57,10.57,0,0,1-1.13.14,1.83,1.83,0,0,1-1.18-.08.58.58,0,0,1-.23-.68,1.46,1.46,0,0,1,1.25-.79,2.21,2.21,0,0,1,1.51.28A.63.63,0,0,1,158.66,126Z" style="fill:#263238"></path><path d="M148.12,129c.35-.17.64-.38,1-.58a1.88,1.88,0,0,0,.88-.79.6.6,0,0,0-.23-.68,1.47,1.47,0,0,0-1.47.14,2.19,2.19,0,0,0-1,1.15A.63.63,0,0,0,148.12,129Z" style="fill:#263238"></path><path d="M151.45,131.23s-.07.08,0,.12c.42,1,.73,2.31-.1,3,0,0,0,.07,0,.06C152.44,133.82,152,132.15,151.45,131.23Z" style="fill:#263238"></path><path d="M150.1,130.47c-1.75.5-.63,3.95,1,3.49S151.56,130.06,150.1,130.47Z" style="fill:#263238"></path><path d="M149.48,130.87c-.24.3-.42.74-.77.89s-.85-.08-1.23-.34c0,0-.06,0,0,.06.21.67.68,1.26,1.42,1.13s1-.85.9-1.57C149.74,130.9,149.58,130.76,149.48,130.87Z" style="fill:#263238"></path><path d="M157.2,129c0-.05.1,0,.11.07.3,1.08.84,2.27,1.92,2.32,0,0,.05,0,0,.06C158,131.63,157.31,130,157.2,129Z" style="fill:#263238"></path><path d="M157.8,127.55c1.68-.68,2.91,2.74,1.35,3.36S156.39,128.11,157.8,127.55Z" style="fill:#263238"></path><path d="M158.59,127.51c.34.09.72.32,1,.23s.53-.58.64-1c0,0,.05,0,.07,0,.25.64.28,1.4-.3,1.75s-1.16-.09-1.55-.68C158.43,127.7,158.46,127.48,158.59,127.51Z" style="fill:#263238"></path><path d="M153.59,140c.31.21.64.52,1,.48a3.06,3.06,0,0,0,1.14-.5,0,0,0,0,1,.05,0,1.5,1.5,0,0,1-1.29.86,1.2,1.2,0,0,1-1-.82C153.46,140,153.54,139.92,153.59,140Z" style="fill:#263238"></path><path d="M157.18,134.88s.63,1.58.82,2.35c0,.07-.16.15-.42.23h0a3.79,3.79,0,0,1-3.89-.49c-.07-.06,0-.17.09-.14a5.67,5.67,0,0,0,3.57.14c0-.23-1.16-2.66-1-2.7a7,7,0,0,1,1.84,0c-1.21-3.32-2.94-6.41-4.1-9.73,0-.12.13-.2.19-.1a56.6,56.6,0,0,1,4.86,10.3C159.24,135.13,157.52,134.94,157.18,134.88Z" style="fill:#263238"></path><path d="M157.43,137.19a4.6,4.6,0,0,1-1.32,1.9,2,2,0,0,1-1.17.44c-.93,0-1.2-.74-1.25-1.46a5.06,5.06,0,0,1,.07-1.16A5.83,5.83,0,0,0,157.43,137.19Z" style="fill:#263238"></path><path d="M156.11,139.09a2,2,0,0,1-1.17.44c-.93,0-1.2-.74-1.25-1.46A2.11,2.11,0,0,1,156.11,139.09Z" style="fill:#ff9abb"></path><path d="M143,111.74c-7.74.58-13.86,3.13-16.41,7.35-5.3,8.8.33,21.69-2.13,24.65-6.43,7.71-1,9.37-2.59,12.08-1.31,2.22-7.41,4.73-4.12,11.57l31.94-3.66c.19-4.9-5-6.76-5.77-10.09s2.74-7.27-4.69-13.54C134.44,136,143,111.74,143,111.74Z" style="fill:#263238"></path><path d="M133,139.24c1.89-.36,6.28-1.22,8.4-4.19,1.17-1.64,1.92-4.1,1.71-8.09-.37-7,3-12.49,11-10.5,0,0-.14-6.52-4.93-7.84s-7.88,3.88-7.88,3.88-9.39,1.51-12.44,9.73S133,139.24,133,139.24Z" style="fill:#263238"></path><path d="M139.4,137.41s-5.16-3.6-6.91-1.59,3.36,8.09,6.29,8.11a2.8,2.8,0,0,0,3-2.7Z" style="fill:#f7a9a0"></path><path d="M134,137.53c-.05,0,0,.07,0,.07,2.07.07,3.64,1.4,5,2.89a1.54,1.54,0,0,0-2.31.4c0,.05,0,.11.08.08a1.71,1.71,0,0,1,2-.09,8.25,8.25,0,0,1,1.38,1.12c.14.13.4-.06.27-.22l0,0C139.53,139.42,136.56,136.85,134,137.53Z" style="fill:#263238"></path></g></svg>
