<svg xmlns="http://www.w3.org/2000/svg" viewBox="0 0 750 500"><g id="freepik--hospital-building--inject-143"><rect x="116.42" y="195.06" width="517.17" height="34.12" style="fill:#FFC727"></rect><rect x="116.42" y="195.06" width="517.17" height="34.12" style="fill:#fff;opacity:0.7000000000000001"></rect><polygon points="633.59 195.06 116.42 195.06 116.42 204.74 633.59 201.16 633.59 195.06" style="fill:#FFC727;opacity:0.5"></polygon><rect x="110.82" y="187.86" width="528.36" height="7.21" style="fill:#FFC727"></rect><rect x="160.69" y="177.26" width="47.22" height="10.59" style="fill:#c7c7c7"></rect><rect x="167.83" y="171.01" width="6.68" height="6.25" style="fill:#c7c7c7"></rect><rect x="194.08" y="171.01" width="6.68" height="6.25" style="fill:#c7c7c7"></rect><rect x="564.8" y="177.26" width="47.22" height="10.59" style="fill:#c7c7c7"></rect><rect x="571.94" y="171.01" width="6.68" height="6.25" style="fill:#c7c7c7"></rect><rect x="598.2" y="171.01" width="6.68" height="6.25" style="fill:#c7c7c7"></rect><rect x="506.26" y="177.26" width="47.22" height="10.59" style="fill:#c7c7c7"></rect><rect x="513.4" y="171.01" width="6.68" height="6.25" style="fill:#c7c7c7"></rect><rect x="539.65" y="171.01" width="6.68" height="6.25" style="fill:#c7c7c7"></rect><rect x="83.11" y="236.39" width="583.78" height="222.04" style="fill:#FFC727"></rect><rect x="83.11" y="236.39" width="583.78" height="222.04" style="fill:#fff;opacity:0.7000000000000001"></rect><rect x="83.11" y="426.81" width="583.78" height="31.62" style="fill:#FFC727;opacity:0.5"></rect><rect x="77.51" y="229.19" width="594.97" height="7.21" style="fill:#FFC727"></rect><polygon points="666.89 236.39 83.11 236.39 83.11 246.07 666.89 242.49 666.89 236.39" style="fill:#FFC727;opacity:0.5"></polygon><rect x="93.72" y="257.29" width="25.62" height="37.51" style="fill:#37474f"></rect><rect x="121.25" y="257.29" width="25.62" height="37.51" style="fill:#37474f"></rect><rect x="148.78" y="257.29" width="25.62" height="37.51" style="fill:#37474f"></rect><rect x="183.71" y="257.29" width="25.62" height="37.51" style="fill:#37474f"></rect><rect x="211.24" y="257.29" width="25.62" height="37.51" style="fill:#37474f"></rect><rect x="238.77" y="257.29" width="25.62" height="37.51" style="fill:#37474f"></rect><rect x="93.72" y="307.95" width="25.62" height="37.51" style="fill:#37474f"></rect><rect x="121.25" y="307.95" width="25.62" height="37.51" style="fill:#37474f"></rect><rect x="148.78" y="307.95" width="25.62" height="37.51" style="fill:#37474f"></rect><rect x="183.71" y="307.95" width="25.62" height="37.51" style="fill:#37474f"></rect><rect x="211.24" y="307.95" width="25.62" height="37.51" style="fill:#37474f"></rect><rect x="238.77" y="307.95" width="25.62" height="37.51" style="fill:#37474f"></rect><rect x="93.72" y="358.6" width="25.62" height="37.51" style="fill:#37474f"></rect><rect x="121.25" y="358.6" width="25.62" height="37.51" style="fill:#37474f"></rect><rect x="148.78" y="358.6" width="25.62" height="37.51" style="fill:#37474f"></rect><rect x="183.71" y="358.6" width="25.62" height="37.51" style="fill:#37474f"></rect><rect x="211.24" y="358.6" width="25.62" height="37.51" style="fill:#37474f"></rect><rect x="238.77" y="358.6" width="25.62" height="37.51" style="fill:#37474f"></rect><rect x="485.61" y="257.29" width="25.62" height="37.51" style="fill:#37474f"></rect><rect x="513.14" y="257.29" width="25.62" height="37.51" style="fill:#37474f"></rect><rect x="540.67" y="257.29" width="25.62" height="37.51" style="fill:#37474f"></rect><rect x="575.6" y="257.29" width="25.62" height="37.51" style="fill:#37474f"></rect><rect x="603.13" y="257.29" width="25.62" height="37.51" style="fill:#37474f"></rect><rect x="630.66" y="257.29" width="25.62" height="37.51" style="fill:#37474f"></rect><rect x="485.61" y="307.95" width="25.62" height="37.51" style="fill:#37474f"></rect><rect x="513.14" y="307.95" width="25.62" height="37.51" style="fill:#37474f"></rect><rect x="540.67" y="307.95" width="25.62" height="37.51" style="fill:#37474f"></rect><rect x="575.6" y="307.95" width="25.62" height="37.51" style="fill:#37474f"></rect><rect x="603.13" y="307.95" width="25.62" height="37.51" style="fill:#37474f"></rect><rect x="630.66" y="307.95" width="25.62" height="37.51" style="fill:#37474f"></rect><rect x="485.61" y="358.6" width="25.62" height="37.51" style="fill:#37474f"></rect><rect x="513.14" y="358.6" width="25.62" height="37.51" style="fill:#37474f"></rect><rect x="540.67" y="358.6" width="25.62" height="37.51" style="fill:#37474f"></rect><rect x="575.6" y="358.6" width="25.62" height="37.51" style="fill:#37474f"></rect><rect x="603.13" y="358.6" width="25.62" height="37.51" style="fill:#37474f"></rect><rect x="630.66" y="358.6" width="25.62" height="37.51" style="fill:#37474f"></rect><rect x="83.11" y="299.15" width="583.78" height="4.33" style="fill:#fff"></rect><rect x="83.11" y="349.8" width="583.78" height="4.33" style="fill:#fff"></rect><rect x="83.11" y="400.46" width="583.78" height="4.33" style="fill:#fff"></rect><polygon points="666.89 303.48 83.11 303.48 83.11 306.6 666.89 305.04 666.89 303.48" style="fill:#FFC727;opacity:0.5"></polygon><polygon points="666.89 354.13 83.11 354.13 83.11 357.25 666.89 355.69 666.89 354.13" style="fill:#FFC727;opacity:0.5"></polygon><polygon points="666.89 404.79 83.11 404.79 83.11 407.9 666.89 406.35 666.89 404.79" style="fill:#FFC727;opacity:0.5"></polygon><path d="M93.72,288.78l25.62-25.62v11.36L99.06,294.8H93.72Zm31.49-31.49-4,4v11.36l15.33-15.32Zm68.61,138.82h11.37l31.67-31.67V358.6h-5.53Zm45-33.58,3.93-3.93h-3.93Zm5.71-17.08h11.37l8.54-8.54V325.54Zm249.83-88.16-8.7,8.7v11.36l20.07-20.06Zm16.92,138.82v-2.79l-2.79,2.79Zm1.91,0h6.67l19-18.95V365.79l-25.62,25.62ZM546,358.6l-5.28,5.28v11.37l16.65-16.65Zm20.34-13.15v-7.19l-7.19,7.19ZM575.6,329v11.37l25.62-25.62V308H596.6Zm27.53-16.16L608,308h-4.84Zm18-18,7.63-7.63V275.8l-19,19Zm26.14-37.51-16.6,16.6v11.37l25.62-25.62v-2.35Zm-3.49,138.82h11.37l1.14-1.14V383.6Zm-550-85.9v5.69l8-7.95H96Zm21.1-15.41,4.52-4.52v-5.69L109.13,294.8Zm31.82-37.51-25.39,25.39v5.69l25.62-25.62v-5.46Zm2.14,0v3.55l3.55-3.55Zm336.83,65.47v5.69l20.5-20.5h-5.69Zm33.65-28,19.5-19.5v-5.69L513.57,294.8Zm31.82-37.51L540.67,267.7v5.69l16.11-16.1Zm59.77,138.82,17.9-17.9v-5.69l-23.59,23.59Zm31.82-37.51-12,12v5.69l17.7-17.7Zm13.15-13.15h.46V345ZM538.76,396.11v-5.35l-5.35,5.35Zm1.91-1.57,25.62-25.62v-5.69l-25.62,25.62Zm34.93-34.93,1-1h-1Zm14.16-14.16L601.22,334V328.3l-17.15,17.15ZM621.57,308l-18.44,18.44v5.69L627.26,308Zm13.15-13.15h5.69l15.87-15.87v-5.69ZM93.72,326v1.3L113,308h-1.3Zm68.67-68.67L124.88,294.8h1.3l20.69-20.69,1.91-1.91,14.91-14.91Zm53.84,138.82,20.63-20.63v-1.3l-21.93,21.93Zm36.21-37.51-13.67,13.67v1.3l15-15ZM150.56,396.11l23.84-23.84V371l-25.14,25.14Zm36.21-37.51-3.06,3.06V363l4.36-4.36Zm14.45-13.15,8.11-8.11V336l-9.41,9.41Zm10-11.32v1.3l25.62-25.62v-1.3Zm39.33-39.33h1.3l12.52-12.52V281Zm-148,101.31,16.79-16.79v-5.69L96.86,396.11Zm31.82-37.51-13.12,13.12v5.69l18.81-18.81Zm14.41-13.15h4.43l21.19-21.19v-5.69l-25.62,25.62ZM185,308l-1.31,1.31V315l7-7Zm18.84-13.15,5.47-5.47v-5.69L198.17,294.8Zm31.82-37.51-24.44,24.44v5.69l25.62-25.61v-4.52Zm3.09,0v2.61l2.61-2.61ZM224.3,396.11l12.56-12.56v-5.69l-18.25,18.25Zm31.82-37.51L238.77,376v5.69l23-23Zm.13,37.51h1.3l6.84-6.84V388Zm244.08,0,10.9-10.9v-1.3L499,396.11Zm36.21-37.51L513.14,382v1.3l24.7-24.7ZM551,345.45l15.3-15.3v-1.3l-16.6,16.6Zm36.2-37.5L575.6,319.54v1.3L588.49,308Zm14-13.15v-.88l-.88.88Zm1.91-1.49,25.62-25.61v-1.3L603.13,292Zm34.73-36-7.2,7.2v1.3l8.5-8.5ZM603.13,376.14l-1.91,1.91-18.06,18.06h1.3l16.76-16.76,1.91-1.91L622,358.6h-1.3Zm30.69-30.69h1.3l21.16-21.16V323Zm3.31,50.66h1.3l17.85-17.85V377Z" style="fill:#fff;opacity:0.2"></path><polygon points="270.86 458.46 274.36 458.46 274.36 195.06 267.03 195.06 270.86 458.46" style="fill:#FFC727;opacity:0.5"></polygon><polygon points="479.14 458.46 475.64 458.46 475.64 195.06 482.97 195.06 479.14 458.46" style="fill:#FFC727;opacity:0.5"></polygon><rect x="304.81" y="87.92" width="140.37" height="28.04" style="fill:#FFC727"></rect><rect x="304.81" y="87.92" width="140.37" height="28.04" style="fill:#fff;opacity:0.6000000000000001"></rect><polygon points="445.19 87.92 304.81 87.92 304.81 97.6 445.19 94.02 445.19 87.92" style="fill:#FFC727;opacity:0.5"></polygon><rect x="299.22" y="80.72" width="151.56" height="7.21" style="fill:#FFC727"></rect><rect x="274.36" y="140.81" width="201.28" height="317.62" style="fill:#FFC727"></rect><rect x="274.36" y="140.81" width="201.28" height="317.62" style="fill:#fff;opacity:0.7000000000000001"></rect><rect x="274.36" y="121.99" width="18.61" height="336.44" style="fill:#FFC727"></rect><rect x="274.36" y="121.99" width="18.61" height="336.44" style="fill:#fff;opacity:0.8"></rect><rect x="457.03" y="121.99" width="18.61" height="336.44" style="fill:#FFC727"></rect><rect x="457.03" y="121.99" width="18.61" height="336.44" style="fill:#fff;opacity:0.8"></rect><rect x="292.97" y="110.35" width="164.05" height="30.45" style="fill:#FFC727"></rect><path d="M311.49,134v-16.3a1.5,1.5,0,0,1,1.52-1.52,1.52,1.52,0,0,1,1.55,1.52v6.63h7.15v-6.63a1.5,1.5,0,0,1,1.52-1.52,1.52,1.52,0,0,1,1.55,1.52V134a1.53,1.53,0,0,1-1.55,1.52,1.51,1.51,0,0,1-1.52-1.52v-6.63h-7.15V134a1.53,1.53,0,0,1-1.55,1.52A1.51,1.51,0,0,1,311.49,134Z" style="fill:#fff"></path><path d="M345.5,118.59a10.15,10.15,0,0,1,0,14,9,9,0,0,1-6.6,3,9.29,9.29,0,0,1-6.77-3,10.29,10.29,0,0,1,0-14,9.21,9.21,0,0,1,6.77-3A9,9,0,0,1,345.5,118.59Zm-.36,7a7.15,7.15,0,0,0-1.88-4.83,6,6,0,0,0-4.36-2,6,6,0,0,0-4.48,2,7,7,0,0,0-1.88,4.83,6.92,6.92,0,0,0,1.88,4.81,5.9,5.9,0,0,0,8.84,0A7.06,7.06,0,0,0,345.14,125.58Z" style="fill:#fff"></path><path d="M353,130.72a1.43,1.43,0,0,1,2-.19,9,9,0,0,0,5.28,2.12,5.93,5.93,0,0,0,3.45-1,2.49,2.49,0,0,0,1.19-2,1.59,1.59,0,0,0-.25-.88,2.6,2.6,0,0,0-.83-.83,11,11,0,0,0-3.78-1.3H360a14.84,14.84,0,0,1-3.56-1.08,5.88,5.88,0,0,1-2.57-2.15,4.19,4.19,0,0,1-.64-2.26,5.12,5.12,0,0,1,2.21-4,8.18,8.18,0,0,1,4.78-1.46,10.84,10.84,0,0,1,6,2.21,1.42,1.42,0,0,1,.39,2,1.39,1.39,0,0,1-2,.41,8,8,0,0,0-4.45-1.76,5.27,5.27,0,0,0-3.09.93,2.2,2.2,0,0,0-1.05,1.75,1.32,1.32,0,0,0,.19.77,2.74,2.74,0,0,0,.75.72,9.55,9.55,0,0,0,3.45,1.21h.06a16.87,16.87,0,0,1,3.81,1.16,6.48,6.48,0,0,1,2.76,2.29,4.56,4.56,0,0,1,.66,2.35,5.33,5.33,0,0,1-2.37,4.28,8.62,8.62,0,0,1-5.11,1.58,11.91,11.91,0,0,1-7.07-2.76A1.47,1.47,0,0,1,353,130.72Z" style="fill:#fff"></path><path d="M378.48,128h-3.4v6a1.53,1.53,0,0,1-3.06,0v-16.3a1.51,1.51,0,0,1,1.52-1.52h4.94a5.91,5.91,0,1,1,0,11.82Zm-3.4-3.06h3.4a2.85,2.85,0,1,0,0-5.69h-3.4Z" style="fill:#fff"></path><path d="M388.31,117.71a1.5,1.5,0,0,1,1.52-1.52,1.54,1.54,0,0,1,1.55,1.52V134a1.55,1.55,0,0,1-1.55,1.52,1.51,1.51,0,0,1-1.52-1.52Z" style="fill:#fff"></path><path d="M408.37,119.26H404V134a1.52,1.52,0,0,1-3,0V119.26h-4.37a1.55,1.55,0,0,1-1.52-1.55,1.5,1.5,0,0,1,1.52-1.52h11.8a1.51,1.51,0,0,1,1.52,1.52A1.56,1.56,0,0,1,408.37,119.26Z" style="fill:#fff"></path><path d="M421.68,131H415l-1.35,3.59a1.55,1.55,0,0,1-1.44,1,1.46,1.46,0,0,1-.52-.09,1.56,1.56,0,0,1-.91-2l6.1-16.26a1.54,1.54,0,0,1,1.46-1,1.52,1.52,0,0,1,1.47,1l6.1,16.26a1.56,1.56,0,0,1-.91,2,1.38,1.38,0,0,1-.52.09,1.48,1.48,0,0,1-1.41-1Zm-1.13-3L418.31,122l-2.23,5.94Z" style="fill:#fff"></path><path d="M429.67,134v-16.3a1.51,1.51,0,0,1,1.52-1.52,1.54,1.54,0,0,1,1.54,1.52v14.75h7.49a1.54,1.54,0,0,1,0,3.07h-9A1.51,1.51,0,0,1,429.67,134Z" style="fill:#fff"></path><polygon points="453.53 458.43 457.03 458.43 457.03 140.81 449.72 151.22 453.53 458.43" style="fill:#FFC727;opacity:0.5"></polygon><polygon points="296.47 458.43 292.97 458.43 292.97 140.81 300.28 151.22 296.47 458.43" style="fill:#FFC727;opacity:0.5"></polygon><rect x="292.97" y="196.94" width="164.05" height="4.33" style="fill:#fff"></rect><polygon points="457.03 201.27 292.97 201.27 292.97 204.39 457.03 202.83 457.03 201.27" style="fill:#FFC727;opacity:0.5"></polygon><polygon points="457.03 259.44 292.97 259.44 292.97 262.56 457.03 261 457.03 259.44" style="fill:#FFC727;opacity:0.5"></polygon><polygon points="457.03 317.61 292.97 317.61 292.97 320.73 457.03 319.17 457.03 317.61" style="fill:#FFC727;opacity:0.5"></polygon><rect x="292.97" y="255.11" width="164.05" height="4.33" style="fill:#fff"></rect><rect x="309.24" y="151.26" width="25.62" height="37.51" style="fill:#37474f"></rect><rect x="344.54" y="151.26" width="25.62" height="37.51" style="fill:#37474f"></rect><rect x="379.84" y="151.26" width="25.62" height="37.51" style="fill:#37474f"></rect><rect x="415.14" y="151.26" width="25.62" height="37.51" style="fill:#37474f"></rect><rect x="309.24" y="209.44" width="25.62" height="37.51" style="fill:#37474f"></rect><rect x="344.54" y="209.44" width="25.62" height="37.51" style="fill:#37474f"></rect><rect x="379.84" y="209.44" width="25.62" height="37.51" style="fill:#37474f"></rect><rect x="415.14" y="209.44" width="25.62" height="37.51" style="fill:#37474f"></rect><rect x="309.24" y="267.61" width="25.62" height="37.51" style="fill:#37474f"></rect><rect x="344.54" y="267.61" width="25.62" height="37.51" style="fill:#37474f"></rect><rect x="379.84" y="267.61" width="25.62" height="37.51" style="fill:#37474f"></rect><rect x="415.14" y="267.61" width="25.62" height="37.51" style="fill:#37474f"></rect><rect x="309.24" y="325.77" width="25.62" height="37.51" style="fill:#37474f"></rect><rect x="344.54" y="325.77" width="25.62" height="37.51" style="fill:#37474f"></rect><rect x="379.84" y="325.77" width="25.62" height="37.51" style="fill:#37474f"></rect><rect x="415.14" y="325.77" width="25.62" height="37.51" style="fill:#37474f"></rect><polygon points="457.03 317.61 292.97 317.61 292.97 320.72 457.03 319.17 457.03 317.61" style="fill:#FFC727;opacity:0.5"></polygon><rect x="292.97" y="313.28" width="164.05" height="4.33" style="fill:#fff"></rect><polygon points="457.03 375.78 292.97 375.78 292.97 378.9 457.03 377.34 457.03 375.78" style="fill:#FFC727;opacity:0.5"></polygon><polygon points="457.03 375.77 292.97 375.77 292.97 378.89 457.03 377.33 457.03 375.77" style="fill:#FFC727;opacity:0.5"></polygon><rect x="292.97" y="371.44" width="164.05" height="4.33" style="fill:#fff"></rect><rect x="341.97" y="397.83" width="64.61" height="60.6" style="fill:#fff"></rect><rect x="341.97" y="401.82" width="30.65" height="56.61" style="fill:#37474f"></rect><rect x="375.94" y="401.82" width="30.65" height="56.61" style="fill:#37474f"></rect><rect x="332.09" y="397.83" width="9.88" height="60.6" style="fill:#fff"></rect><rect x="370.06" y="344.84" width="9.88" height="96.1" transform="translate(767.89 17.89) rotate(90)" style="fill:#fff"></rect><rect x="406.58" y="397.83" width="9.88" height="60.6" style="fill:#fff"></rect><polygon points="332.09 397.83 332.09 399.52 416.47 400.13 416.47 397.83 332.09 397.83" style="fill:#ebebeb"></polygon><g style="opacity:0.2"><polygon points="361.14 401.82 341.97 420.99 341.97 409.63 349.78 401.82 361.14 401.82" style="fill:#fff"></polygon><polygon points="372.62 435.76 372.62 441.44 355.63 458.43 349.95 458.43 372.62 435.76" style="fill:#fff"></polygon><polygon points="406.58 401.82 406.58 407.48 375.94 438.12 375.94 432.44 406.56 401.82 406.58 401.82" style="fill:#fff"></polygon></g><g style="opacity:0.2"><polygon points="322.32 267.61 333.69 267.61 309.24 292.06 309.24 280.69 322.32 267.61" style="fill:#fff"></polygon><polygon points="344.54 245.39 370.16 219.77 370.16 231.14 354.36 246.94 344.54 246.94 344.54 245.39" style="fill:#fff"></polygon><polygon points="380.49 209.44 391.86 209.44 379.84 221.46 379.84 210.09 380.49 209.44" style="fill:#fff"></polygon><polygon points="405.46 184.47 405.46 188.77 401.16 188.77 405.46 184.47" style="fill:#fff"></polygon><polygon points="388.32 363.28 405.46 346.14 405.46 357.5 399.68 363.28 388.32 363.28" style="fill:#fff"></polygon><polygon points="437.19 325.77 415.14 347.82 415.14 336.46 425.83 325.77 437.19 325.77" style="fill:#fff"></polygon><polygon points="379.84 361.27 405.46 335.65 405.46 336.95 379.84 362.57 379.84 361.27" style="fill:#fff"></polygon><polygon points="416.64 325.77 415.14 327.27 415.14 325.97 415.34 325.77 416.64 325.77" style="fill:#fff"></polygon><polygon points="440.76 300.35 440.76 301.65 437.29 305.12 435.99 305.12 440.76 300.35" style="fill:#fff"></polygon><polygon points="309.24 301.8 334.86 276.18 334.86 277.48 309.24 303.1 309.24 301.8" style="fill:#fff"></polygon><polygon points="344.54 267.61 344.73 267.61 344.54 267.8 344.54 267.61" style="fill:#fff"></polygon><polygon points="364.1 246.94 370.16 240.88 370.16 242.18 365.4 246.94 364.1 246.94" style="fill:#fff"></polygon><polygon points="401.6 209.44 402.9 209.44 379.84 232.5 379.84 231.2 401.6 209.44" style="fill:#fff"></polygon><polygon points="440.76 170.28 440.76 171.58 423.57 188.77 422.27 188.77 440.76 170.28" style="fill:#fff"></polygon><polygon points="309.24 236.13 334.86 210.51 334.86 211.81 309.24 237.43 309.24 236.13" style="fill:#fff"></polygon><polygon points="356.6 188.77 370.16 175.21 370.16 176.51 357.9 188.77 356.6 188.77" style="fill:#fff"></polygon><polygon points="395.41 151.26 379.84 166.83 379.84 165.53 394.11 151.26 395.41 151.26" style="fill:#fff"></polygon><polygon points="334.86 158.11 334.86 163.81 309.9 188.77 309.24 188.77 309.24 183.73 334.86 158.11" style="fill:#fff"></polygon><polygon points="309.24 351.47 334.86 325.85 334.86 331.55 309.24 357.17 309.24 351.47" style="fill:#fff"></polygon><polygon points="393.1 267.61 398.8 267.61 379.84 286.57 370.16 296.25 361.29 305.12 355.59 305.12 370.16 290.55 379.84 280.87 393.1 267.61" style="fill:#fff"></polygon><polygon points="440.76 219.96 440.76 225.65 419.47 246.94 415.14 246.94 415.14 245.58 440.76 219.96" style="fill:#fff"></polygon><polygon points="309.6 305.12 334.86 279.86 334.86 285.55 315.29 305.12 309.6 305.12" style="fill:#fff"></polygon><polygon points="347.11 267.61 352.8 267.61 344.54 275.87 344.54 270.18 347.11 267.61" style="fill:#fff"></polygon><polygon points="367.78 246.94 370.16 244.56 370.16 246.94 367.78 246.94" style="fill:#fff"></polygon><polygon points="405.28 209.44 405.46 209.44 405.46 214.95 379.84 240.57 379.84 234.88 405.28 209.44" style="fill:#fff"></polygon><polygon points="440.76 173.96 440.76 179.65 431.64 188.77 425.95 188.77 440.76 173.96" style="fill:#fff"></polygon><polygon points="326.59 325.77 327.89 325.77 309.24 344.42 309.24 343.12 326.59 325.77" style="fill:#fff"></polygon><polygon points="384.75 267.61 386.05 267.61 379.84 273.82 370.16 283.5 348.54 305.12 347.24 305.12 384.75 267.61" style="fill:#fff"></polygon><polygon points="405.42 246.94 405.46 246.9 405.46 246.94 405.42 246.94" style="fill:#fff"></polygon><polygon points="440.76 211.6 440.76 212.9 415.14 238.52 415.14 237.22 440.76 211.6" style="fill:#fff"></polygon></g><circle cx="375" cy="80.72" r="19.06" style="fill:#37474f"></circle><rect x="371.9" y="68.79" width="6.2" height="23.85" style="fill:#fff"></rect><rect x="371.9" y="68.79" width="6.2" height="23.85" transform="translate(294.28 455.72) rotate(-90)" style="fill:#fff"></rect></g><g id="freepik--Floor--inject-143"><path d="M60.7,458.43c201.36-.61,427.24-.62,628.6,0-201.36.62-427.24.61-628.6,0Z" style="fill:#263238"></path></g><g id="freepik--Ambulance--inject-143"><path d="M251.52,408.25H245.9l.47-2.34.39-1.87a.69.69,0,0,1,.68-.56h2.75a.69.69,0,0,1,.68.59l0,.19Z" style="fill:#FFC727"></path><polygon points="252.26 409.25 244.83 410.5 245.33 408.24 245.38 408 252.02 408 252.15 408.71 252.26 409.25" style="fill:#ebebeb"></polygon><path d="M255.36,408.49l-1.09,24.17-.22,4.8L253.53,449H220.37l2.38-11.35.74-3.55a2.24,2.24,0,0,1,.2-.53,2,2,0,0,1,.54-.66,2.13,2.13,0,0,1,.61-.34l10-3.48a2.08,2.08,0,0,0,1.25-1.23l6-16.1a2.06,2.06,0,0,1,1.6-1.32Z" style="fill:#fff"></path><polygon points="251.12 413.27 251.03 414.88 251.01 415.26 250.7 420.76 250.52 423.88 250.45 425.03 250.43 425.41 250.34 426.94 248.75 427.09 248.35 427.13 247.16 427.24 243.91 427.54 239.14 427.99 239.58 426.69 239.76 426.14 241.64 420.62 242.4 418.39 243.97 413.77 247.25 413.54 248.83 413.43 251.12 413.27" style="fill:#37474f"></polygon><g style="opacity:0.30000000000000004"><polygon points="250.7 420.76 250.52 423.88 247.16 427.24 243.91 427.54 250.7 420.76" style="fill:#fff"></polygon><polygon points="248.83 413.43 241.64 420.62 242.4 418.39 247.25 413.54 248.83 413.43" style="fill:#fff"></polygon><polygon points="251.03 414.88 251.01 415.26 239.58 426.69 239.76 426.14 251.03 414.88" style="fill:#fff"></polygon><polygon points="250.45 425.03 250.43 425.41 248.75 427.09 248.35 427.13 250.45 425.03" style="fill:#fff"></polygon></g><polygon points="239.14 427.99 243.97 413.77 251.12 413.27 251.12 413.27 244.42 414.55 239.14 427.99" style="fill:#263238"></polygon><rect x="235.24" y="429.4" width="0.23" height="18.93" style="fill:#ebebeb"></rect><path d="M254.17,432.67l-.23,4.79-31.19.14.74-3.55a2.24,2.24,0,0,1,.2-.53Z" style="fill:#FFC727"></path><path d="M222.34,432.88l2.69-.42L223.46,438l-1.39-.15a.57.57,0,0,1-.51-.61l.3-3.84A.57.57,0,0,1,222.34,432.88Z" style="fill:#FFC727"></path><path d="M237.42,424.54c.65.55.06,5.51-.4,5.42a5.27,5.27,0,0,1-1.84-.58c-.4-.32-2.64-4.33-2.09-5.16S236.92,424.12,237.42,424.54Z" style="fill:#ebebeb"></path><path d="M309.4,407.41l-50.73-1.83,1.66-3.44h0l1-2.09a3.37,3.37,0,0,1,3-1.91l39.53-.89a3.37,3.37,0,0,1,3.32,2.41l.31,1.06h0Z" style="fill:#ebebeb"></path><polygon points="262.05 402.86 262.56 401.55 266.31 401.52 266.2 403.02 262.05 402.86" style="fill:#263238"></polygon><polygon points="302.08 403.48 302.18 401.66 306.67 401.99 306.7 403.45 302.08 403.48" style="fill:#263238"></polygon><path d="M314.77,449H253.4l.54-11.49.23-4.79,1.19-25.24,0-.46a2.81,2.81,0,0,1,3-2.67L309,405.74a2.83,2.83,0,0,1,2.64,2.6l1.75,23,.45,5.85Z" style="fill:#fff"></path><polygon points="281.51 414.09 281.49 414.73 281.38 417.99 281.37 418.36 281.31 420.28 281.21 423.32 281.1 426.62 277.87 426.66 274.89 426.7 273.02 426.72 272.65 426.72 269.46 426.76 267.98 426.78 261.39 426.86 261.02 426.86 259 426.89 258.36 426.89 258.47 424.48 258.61 421.05 258.63 420.68 258.7 418.97 258.77 417.44 258.96 413.04 262.98 413.23 264.38 413.29 265.94 413.37 266.28 413.38 269.42 413.53 272.23 413.66 274.13 413.75 274.48 413.76 280.7 414.06 281.51 414.09" style="fill:#37474f"></polygon><g style="opacity:0.30000000000000004"><polygon points="272.23 413.66 259 426.89 258.36 426.89 258.47 424.48 269.42 413.53 272.23 413.66" style="fill:#fff"></polygon><polygon points="281.31 420.28 281.21 423.32 277.87 426.66 274.89 426.7 281.31 420.28" style="fill:#fff"></polygon><polygon points="281.51 414.09 281.49 414.73 269.46 426.76 267.98 426.78 280.7 414.06 281.51 414.09" style="fill:#fff"></polygon><polygon points="264.38 413.29 258.7 418.97 258.77 417.44 262.98 413.23 264.38 413.29" style="fill:#fff"></polygon><polygon points="266.28 413.38 258.61 421.05 258.63 420.68 265.94 413.37 266.28 413.38" style="fill:#fff"></polygon><polygon points="274.48 413.76 261.39 426.86 261.02 426.86 274.13 413.75 274.48 413.76" style="fill:#fff"></polygon><polygon points="281.38 417.99 281.37 418.36 273.02 426.72 272.65 426.72 281.38 417.99" style="fill:#fff"></polygon></g><polygon points="258.36 426.89 258.96 413.04 281.51 414.09 260.19 414.23 258.36 426.89" style="fill:#263238"></polygon><polygon points="313.88 437.2 313.88 437.2 254.05 437.46 253.94 437.46 254.16 432.67 254.27 432.66 313.43 431.36 313.88 437.2" style="fill:#FFC727"></polygon><polygon points="299.94 424.89 297.27 424.89 297 415.05 299.94 415.05 299.94 424.89" style="fill:#FFC727"></polygon><polygon points="303.49 418.51 303.57 421.44 293.72 421.43 293.65 418.77 303.49 418.51" style="fill:#FFC727"></polygon><polygon points="314.77 451.13 218.84 451.13 218.84 448.04 218.84 448.04 314.77 448.04 314.77 451.13" style="fill:#ebebeb"></polygon><polygon points="216.67 446.55 227.06 447.19 227.06 451.61 215.9 451.61 216.67 446.55" style="fill:#dbdbdb"></polygon><path d="M316.49,446.6l-4.42.53a1,1,0,0,0-.93,1v3.48h7l-.64-4.16A1,1,0,0,0,316.49,446.6Z" style="fill:#dbdbdb"></path><path d="M303.31,451.75a1.16,1.16,0,0,1-1.14-1c0-.22-.89-5.4-6.11-5.4s-6,5.17-6,5.39a1.15,1.15,0,0,1-2.27-.31,8.33,8.33,0,0,1,8.3-7.37,8.44,8.44,0,0,1,8.38,7.36,1.15,1.15,0,0,1-1,1.3Z" style="fill:#dbdbdb"></path><path d="M296.1,444.44c9,0,9,14,0,14S287.06,444.44,296.1,444.44Z" style="fill:#263238"></path><path d="M296.1,448.26c4.1,0,4.1,6.37,0,6.37S292,448.26,296.1,448.26Z" style="fill:#ebebeb"></path><path d="M245.1,451.75a1.14,1.14,0,0,1-1.13-1c0-.22-.89-5.4-6.11-5.4s-6,5.17-6,5.39a1.14,1.14,0,0,1-1.29,1,1.16,1.16,0,0,1-1-1.29c.35-2.55,2.53-7.37,8.31-7.37s8,4.81,8.37,7.36a1.14,1.14,0,0,1-1,1.3Z" style="fill:#dbdbdb"></path><path d="M237.86,444.44c9,0,9,14,0,14S228.82,444.44,237.86,444.44Z" style="fill:#263238"></path><path d="M237.86,448.26c4.1,0,4.1,6.37,0,6.37S233.76,448.26,237.86,448.26Z" style="fill:#ebebeb"></path></g></svg>