<svg xmlns="http://www.w3.org/2000/svg" viewBox="0 0 750 500"><g id="freepik--background-complete--inject-134"><path d="M186.78,264H58.09V55.73H186.78ZM62.09,260H182.78V59.73H62.09Z" style="fill:#ebebeb"></path><rect x="120.38" y="60.78" width="4" height="201.21" style="fill:#ebebeb"></rect><rect x="54.46" y="63.82" width="135.95" height="5.57" style="fill:#ebebeb"></rect><rect x="54.46" y="70.08" width="135.95" height="5.57" style="fill:#ebebeb"></rect><rect x="54.46" y="76.35" width="135.95" height="5.57" style="fill:#ebebeb"></rect><rect x="54.46" y="82.62" width="135.95" height="5.57" style="fill:#ebebeb"></rect><rect x="54.46" y="88.88" width="135.95" height="5.57" style="fill:#ebebeb"></rect><rect x="54.46" y="95.15" width="135.95" height="5.57" style="fill:#ebebeb"></rect><rect x="54.46" y="101.41" width="135.95" height="5.57" style="fill:#ebebeb"></rect><rect x="54.46" y="107.68" width="135.95" height="5.57" style="fill:#ebebeb"></rect><rect x="54.46" y="113.95" width="135.95" height="5.57" style="fill:#ebebeb"></rect><rect x="177.53" y="62.69" width="1" height="108.39" style="fill:#263238"></rect><polygon points="179.81 175.73 176.26 175.73 177.15 170.63 178.92 170.63 179.81 175.73" style="fill:#263238"></polygon><rect x="181.13" y="62.69" width="1" height="165.73" style="fill:#263238"></rect><polygon points="183.41 232.17 179.86 232.17 180.75 227.07 182.52 227.07 183.41 232.17" style="fill:#263238"></polygon><rect x="48.26" y="54.95" width="148.36" height="11.65" style="fill:#dbdbdb"></rect><rect x="658.81" y="385.26" width="51.08" height="5.81" style="fill:#c7c7c7"></rect><rect x="681.32" y="97.57" width="6.05" height="287.69" style="fill:#c7c7c7"></rect><rect x="681.32" y="97.57" width="6.05" height="30.67" style="fill:#a6a6a6"></rect><polygon points="716.39 115.33 652.31 115.33 656.96 100.02 657.13 99.48 670.68 54.95 698.01 54.95 711.57 99.49 711.57 99.5 711.72 100 716.39 115.33" style="fill:#ebebeb"></polygon><path d="M673,65.24a.43.43,0,0,1-.43.43.43.43,0,1,1,0-.86A.43.43,0,0,1,673,65.24Z" style="fill:#fff"></path><path d="M680.84,65.24a.43.43,0,1,1-.43-.43A.43.43,0,0,1,680.84,65.24Z" style="fill:#fff"></path><path d="M688.73,65.24a.43.43,0,1,1-.43-.43A.43.43,0,0,1,688.73,65.24Z" style="fill:#fff"></path><path d="M696.62,65.24a.43.43,0,1,1-.43-.43A.43.43,0,0,1,696.62,65.24Z" style="fill:#fff"></path><path d="M676.89,59.71a.43.43,0,1,1-.86,0,.43.43,0,1,1,.86,0Z" style="fill:#fff"></path><path d="M684.78,59.71a.43.43,0,1,1-.86,0,.43.43,0,1,1,.86,0Z" style="fill:#fff"></path><path d="M692.67,59.71a.43.43,0,0,1-.43.43.43.43,0,0,1-.43-.43.44.44,0,0,1,.43-.43A.43.43,0,0,1,692.67,59.71Z" style="fill:#fff"></path><path d="M665.06,76.71a.44.44,0,0,1-.87,0,.44.44,0,0,1,.87,0Z" style="fill:#fff"></path><path d="M673,76.71a.43.43,0,0,1-.43.43.43.43,0,0,1-.43-.43.43.43,0,0,1,.43-.43A.44.44,0,0,1,673,76.71Z" style="fill:#fff"></path><path d="M680.84,76.71a.43.43,0,0,1-.86,0,.43.43,0,0,1,.86,0Z" style="fill:#fff"></path><path d="M688.73,76.71a.43.43,0,0,1-.86,0,.43.43,0,0,1,.86,0Z" style="fill:#fff"></path><path d="M696.62,76.71a.43.43,0,1,1-.86,0,.43.43,0,1,1,.86,0Z" style="fill:#fff"></path><path d="M704.51,76.71a.43.43,0,1,1-.86,0,.43.43,0,1,1,.86,0Z" style="fill:#fff"></path><path d="M669,71.19a.43.43,0,1,1-.43-.43A.43.43,0,0,1,669,71.19Z" style="fill:#fff"></path><path d="M676.89,71.19a.43.43,0,1,1-.43-.43A.43.43,0,0,1,676.89,71.19Z" style="fill:#fff"></path><path d="M684.78,71.19a.43.43,0,1,1-.43-.43A.43.43,0,0,1,684.78,71.19Z" style="fill:#fff"></path><path d="M692.67,71.19a.43.43,0,0,1-.43.43.43.43,0,0,1,0-.86A.43.43,0,0,1,692.67,71.19Z" style="fill:#fff"></path><path d="M700.56,71.19a.43.43,0,0,1-.43.43.43.43,0,1,1,0-.86A.43.43,0,0,1,700.56,71.19Z" style="fill:#fff"></path><path d="M665.06,88.19a.44.44,0,1,1-.43-.43A.43.43,0,0,1,665.06,88.19Z" style="fill:#fff"></path><path d="M673,88.19a.43.43,0,0,1-.43.43.43.43,0,1,1,0-.86A.43.43,0,0,1,673,88.19Z" style="fill:#fff"></path><path d="M680.84,88.19a.43.43,0,1,1-.43-.43A.43.43,0,0,1,680.84,88.19Z" style="fill:#fff"></path><path d="M688.73,88.19a.43.43,0,1,1-.43-.43A.43.43,0,0,1,688.73,88.19Z" style="fill:#fff"></path><path d="M696.62,88.19a.43.43,0,1,1-.43-.43A.43.43,0,0,1,696.62,88.19Z" style="fill:#fff"></path><path d="M704.51,88.19a.43.43,0,1,1-.43-.43A.43.43,0,0,1,704.51,88.19Z" style="fill:#fff"></path><path d="M669,82.66a.43.43,0,1,1-.43-.43A.43.43,0,0,1,669,82.66Z" style="fill:#fff"></path><path d="M676.89,82.66a.43.43,0,1,1-.43-.43A.43.43,0,0,1,676.89,82.66Z" style="fill:#fff"></path><path d="M684.78,82.66a.43.43,0,1,1-.43-.43A.43.43,0,0,1,684.78,82.66Z" style="fill:#fff"></path><path d="M692.67,82.66a.43.43,0,0,1-.43.43.43.43,0,0,1,0-.86A.43.43,0,0,1,692.67,82.66Z" style="fill:#fff"></path><path d="M700.56,82.66a.43.43,0,0,1-.43.43.43.43,0,1,1,0-.86A.43.43,0,0,1,700.56,82.66Z" style="fill:#fff"></path><path d="M657.17,99.66a.4.4,0,0,1-.21.36l.17-.54A.39.39,0,0,1,657.17,99.66Z" style="fill:#fff"></path><circle cx="664.63" cy="99.66" r="0.43" style="fill:#fff"></circle><path d="M673,99.66a.43.43,0,0,1-.43.43.43.43,0,1,1,0-.86A.43.43,0,0,1,673,99.66Z" style="fill:#fff"></path><path d="M680.84,99.66a.43.43,0,1,1-.43-.43A.43.43,0,0,1,680.84,99.66Z" style="fill:#fff"></path><path d="M688.73,99.66a.43.43,0,1,1-.43-.43A.43.43,0,0,1,688.73,99.66Z" style="fill:#fff"></path><circle cx="696.19" cy="99.66" r="0.43" style="fill:#fff"></circle><path d="M704.51,99.66a.43.43,0,1,1-.43-.43A.43.43,0,0,1,704.51,99.66Z" style="fill:#fff"></path><path d="M711.72,100a.39.39,0,0,1-.18-.34.41.41,0,0,1,0-.16Z" style="fill:#fff"></path><path d="M661.11,94.14a.43.43,0,1,1-.43-.44A.43.43,0,0,1,661.11,94.14Z" style="fill:#fff"></path><path d="M669,94.14a.43.43,0,1,1-.43-.44A.43.43,0,0,1,669,94.14Z" style="fill:#fff"></path><path d="M676.89,94.14a.43.43,0,1,1-.43-.44A.43.43,0,0,1,676.89,94.14Z" style="fill:#fff"></path><path d="M684.78,94.14a.43.43,0,1,1-.43-.44A.43.43,0,0,1,684.78,94.14Z" style="fill:#fff"></path><path d="M692.67,94.14a.43.43,0,0,1-.43.43.44.44,0,0,1,0-.87A.44.44,0,0,1,692.67,94.14Z" style="fill:#fff"></path><path d="M700.56,94.14a.43.43,0,0,1-.43.43.44.44,0,0,1,0-.87A.44.44,0,0,1,700.56,94.14Z" style="fill:#fff"></path><path d="M708.46,94.14a.44.44,0,1,1-.44-.44A.44.44,0,0,1,708.46,94.14Z" style="fill:#fff"></path><path d="M657.17,111.14a.44.44,0,1,1-.44-.44A.44.44,0,0,1,657.17,111.14Z" style="fill:#fff"></path><path d="M665.06,111.14a.44.44,0,1,1-.43-.44A.44.44,0,0,1,665.06,111.14Z" style="fill:#fff"></path><path d="M673,111.14a.44.44,0,0,1-.43.43.44.44,0,0,1,0-.87A.44.44,0,0,1,673,111.14Z" style="fill:#fff"></path><path d="M680.84,111.14a.43.43,0,1,1-.43-.44A.43.43,0,0,1,680.84,111.14Z" style="fill:#fff"></path><path d="M688.73,111.14a.43.43,0,1,1-.43-.44A.43.43,0,0,1,688.73,111.14Z" style="fill:#fff"></path><path d="M696.62,111.14a.43.43,0,1,1-.43-.44A.43.43,0,0,1,696.62,111.14Z" style="fill:#fff"></path><path d="M704.51,111.14a.43.43,0,1,1-.43-.44A.43.43,0,0,1,704.51,111.14Z" style="fill:#fff"></path><path d="M712.4,111.14a.43.43,0,1,1-.43-.44A.43.43,0,0,1,712.4,111.14Z" style="fill:#fff"></path><path d="M661.11,105.61a.43.43,0,1,1-.43-.43A.43.43,0,0,1,661.11,105.61Z" style="fill:#fff"></path><path d="M669,105.61a.43.43,0,1,1-.43-.43A.43.43,0,0,1,669,105.61Z" style="fill:#fff"></path><path d="M676.89,105.61a.43.43,0,1,1-.43-.43A.43.43,0,0,1,676.89,105.61Z" style="fill:#fff"></path><path d="M684.78,105.61a.43.43,0,1,1-.43-.43A.43.43,0,0,1,684.78,105.61Z" style="fill:#fff"></path><path d="M692.67,105.61a.43.43,0,0,1-.43.43.43.43,0,0,1,0-.86A.43.43,0,0,1,692.67,105.61Z" style="fill:#fff"></path><path d="M700.56,105.61a.43.43,0,0,1-.43.43.43.43,0,1,1,0-.86A.43.43,0,0,1,700.56,105.61Z" style="fill:#fff"></path><path d="M708.46,105.61a.44.44,0,1,1-.44-.43A.44.44,0,0,1,708.46,105.61Z" style="fill:#fff"></path></g><g id="freepik--Floor--inject-134"><polygon points="39.68 391.06 123.51 390.82 207.34 390.73 375 390.57 542.66 390.73 626.49 390.82 710.32 391.06 626.49 391.31 542.66 391.4 375 391.56 207.34 391.4 123.51 391.31 39.68 391.06" style="fill:#263238"></polygon></g><g id="freepik--Shadows--inject-134"><ellipse cx="183.41" cy="441.82" rx="149.13" ry="25.18" style="fill:#ebebeb"></ellipse><ellipse cx="644.31" cy="436.83" rx="83.12" ry="21.67" style="fill:#ebebeb"></ellipse></g><g id="freepik--Shelves--inject-134"><rect x="217.88" y="54.95" width="223.58" height="321.08" style="fill:#dbdbdb"></rect><rect x="234.66" y="70.93" width="190.01" height="275.26" style="fill:#fff"></rect><rect x="234.66" y="136.03" width="190.01" height="4.95" style="fill:#dbdbdb"></rect><rect x="234.66" y="206.09" width="190.01" height="4.95" style="fill:#dbdbdb"></rect><rect x="234.66" y="276.14" width="190.01" height="4.95" style="fill:#dbdbdb"></rect><rect x="232.58" y="98.35" width="55.78" height="19.56" transform="translate(368.6 -152.34) rotate(90)" style="fill:#a6a6a6"></rect><rect x="257.41" y="107.37" width="6.13" height="19.56" transform="translate(377.62 -143.32) rotate(90)" style="fill:#FFC727"></rect><rect x="259.33" y="82.6" width="2.27" height="19.56" transform="translate(352.85 -168.1) rotate(90)" style="fill:#FFC727"></rect><rect x="378.76" y="98.36" width="55.78" height="19.56" transform="translate(298.52 514.8) rotate(-90)" style="fill:#455a64"></rect><rect x="403.59" y="89.34" width="6.13" height="19.56" transform="translate(307.53 505.78) rotate(-90)" style="fill:#FFC727"></rect><rect x="405.52" y="121.79" width="2.27" height="19.56" transform="translate(538.22 -275.09) rotate(90)" style="fill:#FFC727"></rect><rect x="405.52" y="111.3" width="2.27" height="19.56" transform="translate(527.74 -285.57) rotate(90)" style="fill:#FFC727"></rect><rect x="326.38" y="100.71" width="55.78" height="14.83" transform="translate(462.4 -246.14) rotate(90)" style="fill:#455a64"></rect><rect x="351.2" y="109.73" width="6.13" height="14.83" transform="translate(471.42 -237.12) rotate(90)" style="fill:#FFC727"></rect><rect x="353.13" y="84.96" width="2.27" height="14.83" transform="translate(446.64 -261.89) rotate(90)" style="fill:#FFC727"></rect><rect x="244.55" y="96.65" width="65.07" height="13.67" transform="translate(380.57 -173.6) rotate(90)" style="fill:#FFC727"></rect><rect x="264.51" y="85.48" width="25.03" height="8.2" transform="translate(366.6 -187.44) rotate(90)" style="fill:#fff"></rect><rect x="389.96" y="101.31" width="61.19" height="8.24" transform="translate(315.13 525.98) rotate(-90)" style="fill:#a6a6a6"></rect><rect x="408.82" y="88.36" width="23.53" height="4.94" transform="translate(329.76 511.42) rotate(-90)" style="fill:#ebebeb"></rect><rect x="338.77" y="99.44" width="59.5" height="13.67" transform="translate(262.24 474.79) rotate(-90)" style="fill:#FFC727"></rect><rect x="357.13" y="114.88" width="22.88" height="8.2" transform="translate(249.59 487.56) rotate(-90)" style="fill:#fff"></rect><rect x="270.8" y="99.71" width="49.43" height="23.21" transform="translate(406.83 -184.19) rotate(90)" style="fill:#a6a6a6"></rect><rect x="293.21" y="116.88" width="4.61" height="23.21" transform="translate(424 -167.02) rotate(90)" style="fill:#455a64"></rect><rect x="294.62" y="110.66" width="1.79" height="23.21" transform="translate(417.78 -173.24) rotate(90)" style="fill:#455a64"></rect><rect x="219.45" y="104.79" width="46.45" height="16.03" transform="translate(355.48 -129.87) rotate(90)" style="fill:#FFC727"></rect><rect x="240.51" y="120.93" width="4.33" height="16.03" transform="translate(371.62 -113.73) rotate(90)" style="fill:#455a64"></rect><rect x="240.51" y="93.3" width="4.33" height="16.03" transform="translate(344 -141.36) rotate(90)" style="fill:#455a64"></rect><rect x="241.84" y="99.27" width="1.68" height="16.03" transform="translate(349.96 -135.39) rotate(90)" style="fill:#455a64"></rect><rect x="353.57" y="92.73" width="65.08" height="21.53" transform="translate(489.6 -282.62) rotate(90)" style="fill:#a6a6a6"></rect><rect x="383.08" y="115.34" width="6.07" height="21.53" transform="translate(512.21 -260.01) rotate(90)" style="fill:#263238"></rect><rect x="383.08" y="76.63" width="6.07" height="21.53" transform="translate(473.51 -298.72) rotate(90)" style="fill:#263238"></rect><rect x="384.94" y="85" width="2.35" height="21.53" transform="translate(481.87 -290.35) rotate(90)" style="fill:#263238"></rect><polygon points="339.2 136.03 318.9 82.89 326.51 80.71 346.81 133.85 339.2 136.03" style="fill:#455a64"></polygon><polygon points="337.05 130.4 335.16 125.45 342.77 123.27 344.66 128.22 337.05 130.4" style="fill:#FFC727"></polygon><polygon points="324.98 98.8 323.09 93.85 330.7 91.67 332.59 96.62 324.98 98.8" style="fill:#FFC727"></polygon><rect x="281.71" y="98.84" width="62.61" height="11.79" transform="translate(208.28 417.74) rotate(-90)" style="fill:#455a64"></rect><rect x="310.09" y="77.09" width="5.84" height="11.79" transform="translate(230.03 395.99) rotate(-90)" style="fill:#a6a6a6"></rect><rect x="310.09" y="114.32" width="5.84" height="11.79" transform="translate(192.8 433.22) rotate(-90)" style="fill:#a6a6a6"></rect><rect x="311.88" y="106.27" width="2.26" height="11.79" transform="translate(200.85 425.17) rotate(-90)" style="fill:#a6a6a6"></rect><rect x="370.97" y="308.49" width="55.78" height="19.56" transform="translate(717.13 -80.59) rotate(90)" style="fill:#455a64"></rect><rect x="395.8" y="317.51" width="6.13" height="19.56" transform="translate(726.15 -71.57) rotate(90)" style="fill:#FFC727"></rect><rect x="397.73" y="292.74" width="2.27" height="19.56" transform="translate(701.38 -96.34) rotate(90)" style="fill:#FFC727"></rect><rect x="238.07" y="308.5" width="55.78" height="19.56" transform="translate(-52.32 584.25) rotate(-90)" style="fill:#455a64"></rect><rect x="262.9" y="299.49" width="6.13" height="19.56" transform="translate(-43.3 575.23) rotate(-90)" style="fill:#FFC727"></rect><rect x="264.83" y="331.93" width="2.27" height="19.56" transform="translate(607.67 75.74) rotate(90)" style="fill:#FFC727"></rect><rect x="264.83" y="321.45" width="2.27" height="19.56" transform="translate(597.19 65.26) rotate(90)" style="fill:#FFC727"></rect><rect x="268.93" y="310.86" width="55.78" height="14.83" transform="translate(615.1 21.45) rotate(90)" style="fill:#455a64"></rect><rect x="293.76" y="319.88" width="6.13" height="14.83" transform="translate(624.11 30.47) rotate(90)" style="fill:#FFC727"></rect><rect x="295.69" y="295.1" width="2.27" height="14.83" transform="translate(599.34 5.69) rotate(90)" style="fill:#FFC727"></rect><rect x="349.71" y="306.79" width="65.07" height="13.67" transform="translate(695.88 -68.62) rotate(90)" style="fill:#FFC727"></rect><rect x="369.8" y="295.62" width="25.03" height="8.2" transform="translate(682.03 -82.59) rotate(90)" style="fill:#ebebeb"></rect><rect x="305.72" y="311.45" width="61.19" height="8.24" transform="translate(20.74 651.88) rotate(-90)" style="fill:#FFC727"></rect><rect x="324.51" y="298.5" width="23.53" height="4.94" transform="translate(35.3 637.25) rotate(-90)" style="fill:#a6a6a6"></rect><rect x="252.83" y="309.58" width="59.5" height="13.67" transform="translate(-33.84 598.99) rotate(-90)" style="fill:#FFC727"></rect><rect x="271.07" y="325.03" width="22.88" height="8.2" transform="translate(-46.61 611.65) rotate(-90)" style="fill:#ebebeb"></rect><rect x="339.11" y="309.86" width="49.43" height="23.21" transform="translate(685.28 -42.36) rotate(90)" style="fill:#a6a6a6"></rect><rect x="361.52" y="327.03" width="4.61" height="23.21" transform="translate(702.45 -25.19) rotate(90)" style="fill:#455a64"></rect><rect x="362.93" y="320.81" width="1.79" height="23.21" transform="translate(696.23 -31.41) rotate(90)" style="fill:#455a64"></rect><rect x="393.43" y="314.93" width="46.45" height="16.03" transform="translate(739.61 -93.71) rotate(90)" style="fill:#a6a6a6"></rect><rect x="414.49" y="331.07" width="4.33" height="16.03" transform="translate(755.74 -77.57) rotate(90)" style="fill:#455a64"></rect><rect x="414.49" y="303.45" width="4.33" height="16.03" transform="translate(728.12 -105.19) rotate(90)" style="fill:#455a64"></rect><rect x="415.82" y="309.42" width="1.68" height="16.03" transform="translate(734.09 -99.22) rotate(90)" style="fill:#455a64"></rect><rect x="212.88" y="302.87" width="65.08" height="21.53" transform="translate(559.06 68.21) rotate(90)" style="fill:#a6a6a6"></rect><rect x="242.39" y="325.48" width="6.07" height="21.53" transform="translate(581.67 90.82) rotate(90)" style="fill:#455a64"></rect><rect x="242.39" y="286.78" width="6.07" height="21.53" transform="translate(542.97 52.11) rotate(90)" style="fill:#455a64"></rect><rect x="244.25" y="295.14" width="2.35" height="21.53" transform="translate(551.33 60.48) rotate(90)" style="fill:#455a64"></rect><polygon points="311.85 346.18 332.15 293.04 324.54 290.86 304.24 344 311.85 346.18" style="fill:#a6a6a6"></polygon><polygon points="314 340.54 315.89 335.59 308.28 333.41 306.39 338.36 314 340.54" style="fill:#455a64"></polygon><polygon points="326.07 308.94 327.96 303.99 320.35 301.81 318.46 306.76 326.07 308.94" style="fill:#455a64"></polygon><rect x="315.02" y="308.98" width="62.61" height="11.79" transform="translate(31.45 661.2) rotate(-90)" style="fill:#455a64"></rect><rect x="343.41" y="287.23" width="5.84" height="11.79" transform="translate(53.2 639.45) rotate(-90)" style="fill:#a6a6a6"></rect><rect x="343.41" y="324.46" width="5.84" height="11.79" transform="translate(15.97 676.68) rotate(-90)" style="fill:#a6a6a6"></rect><rect x="345.19" y="316.41" width="2.26" height="11.79" transform="translate(24.02 668.63) rotate(-90)" style="fill:#a6a6a6"></rect><rect x="343.02" y="168.4" width="55.78" height="19.56" transform="translate(549.09 -192.73) rotate(90)" style="fill:#455a64"></rect><rect x="367.85" y="177.42" width="6.13" height="19.56" transform="translate(558.11 -183.71) rotate(90)" style="fill:#FFC727"></rect><rect x="369.77" y="152.65" width="2.27" height="19.56" transform="translate(533.34 -208.48) rotate(90)" style="fill:#FFC727"></rect><rect x="224.79" y="168.41" width="55.78" height="19.56" transform="translate(74.48 430.87) rotate(-90)" style="fill:#455a64"></rect><rect x="249.61" y="159.4" width="6.13" height="19.56" transform="translate(83.5 421.85) rotate(-90)" style="fill:#FFC727"></rect><rect x="251.54" y="191.84" width="2.27" height="19.56" transform="translate(454.3 -51.06) rotate(90)" style="fill:#FFC727"></rect><rect x="251.54" y="181.36" width="2.27" height="19.56" transform="translate(443.81 -61.54) rotate(90)" style="fill:#FFC727"></rect><rect x="289.11" y="170.77" width="55.78" height="14.83" transform="translate(330.43 -185.22) rotate(62.78)" style="fill:#455a64"></rect><rect x="318.06" y="178.79" width="6.13" height="14.83" transform="translate(339.8 -184.54) rotate(62.78)" style="fill:#FFC727"></rect><rect x="308.66" y="156.76" width="2.27" height="14.83" transform="translate(314.05 -186.41) rotate(62.77)" style="fill:#FFC727"></rect><rect x="321.76" y="166.7" width="65.07" height="13.67" transform="translate(527.84 -180.76) rotate(90)" style="fill:#FFC727"></rect><rect x="341.85" y="155.53" width="25.03" height="8.2" transform="translate(513.99 -194.73) rotate(90)" style="fill:#fff"></rect><rect x="214.97" y="178.15" width="47.63" height="8.24" transform="translate(56.51 421.05) rotate(-90)" style="fill:#a6a6a6"></rect><rect x="229.58" y="168.44" width="18.32" height="4.95" transform="translate(67.84 409.65) rotate(-90)" style="fill:#ebebeb"></rect><rect x="261.07" y="169.49" width="59.5" height="13.67" transform="translate(114.49 467.14) rotate(-90)" style="fill:#FFC727"></rect><rect x="279.32" y="184.94" width="22.88" height="8.2" transform="translate(101.72 479.8) rotate(-90)" style="fill:#fff"></rect><rect x="386.9" y="168.32" width="59.51" height="16.03" transform="translate(592.99 -240.33) rotate(90)" style="fill:#a6a6a6"></rect><rect x="413.88" y="188.99" width="5.55" height="16.03" transform="translate(613.66 -219.65) rotate(90)" style="fill:#455a64"></rect><rect x="413.88" y="153.6" width="5.55" height="16.03" transform="translate(578.27 -255.04) rotate(90)" style="fill:#455a64"></rect><rect x="415.58" y="161.25" width="2.15" height="16.03" transform="translate(585.92 -247.39) rotate(90)" style="fill:#455a64"></rect><rect x="240.68" y="162.78" width="65.08" height="21.53" transform="translate(446.76 -99.68) rotate(90)" style="fill:#a6a6a6"></rect><rect x="270.19" y="185.39" width="6.07" height="21.53" transform="translate(469.37 -77.07) rotate(90)" style="fill:#263238"></rect><rect x="270.19" y="146.69" width="6.07" height="21.53" transform="translate(430.67 -115.77) rotate(90)" style="fill:#263238"></rect><rect x="272.04" y="155.05" width="2.35" height="21.53" transform="translate(439.03 -107.41) rotate(90)" style="fill:#a6a6a6"></rect><polygon points="388.3 206.09 408.6 152.95 400.99 150.77 380.69 203.91 388.3 206.09" style="fill:#FFC727"></polygon><polygon points="390.45 200.45 392.35 195.5 384.73 193.32 382.84 198.27 390.45 200.45" style="fill:#455a64"></polygon><polygon points="402.52 168.85 404.42 163.9 396.81 161.72 394.91 166.67 402.52 168.85" style="fill:#455a64"></polygon><rect x="375.7" y="240.83" width="55.78" height="14.83" transform="translate(651.84 -155.35) rotate(90)" style="fill:#455a64"></rect><rect x="400.53" y="249.85" width="6.13" height="14.83" transform="translate(660.86 -146.33) rotate(90)" style="fill:#FFC727"></rect><rect x="402.45" y="225.08" width="2.27" height="14.83" transform="translate(636.08 -171.1) rotate(90)" style="fill:#FFC727"></rect><rect x="385.3" y="236.77" width="65.07" height="13.67" transform="translate(661.44 -174.24) rotate(90)" style="fill:#FFC727"></rect><rect x="405.27" y="225.6" width="25.03" height="8.2" transform="translate(647.48 -188.08) rotate(90)" style="fill:#ebebeb"></rect><rect x="359.86" y="239.82" width="49.43" height="23.21" transform="translate(133.15 636) rotate(-90)" style="fill:#a6a6a6"></rect><rect x="382.27" y="222.65" width="4.61" height="23.21" transform="translate(150.32 618.83) rotate(-90)" style="fill:#263238"></rect><rect x="383.68" y="228.87" width="1.79" height="23.21" transform="translate(144.1 625.05) rotate(-90)" style="fill:#263238"></rect><rect x="226.12" y="242.21" width="55.78" height="12.04" transform="translate(502.25 -5.78) rotate(90)" style="fill:#455a64"></rect><rect x="250.95" y="251.23" width="6.13" height="12.04" transform="translate(511.26 3.24) rotate(90)" style="fill:#FFC727"></rect><rect x="252.87" y="226.46" width="2.27" height="12.04" transform="translate(486.49 -21.53) rotate(90)" style="fill:#FFC727"></rect><rect x="296.65" y="237.25" width="62.92" height="14.83" transform="translate(572.78 -83.44) rotate(90)" style="fill:#455a64"></rect><rect x="324.65" y="247.43" width="6.91" height="14.83" transform="translate(582.95 -73.27) rotate(90)" style="fill:#FFC727"></rect><rect x="326.83" y="219.49" width="2.57" height="14.83" transform="translate(555.01 -101.21) rotate(90)" style="fill:#FFC727"></rect><rect x="243.12" y="233.55" width="59.5" height="25.66" transform="translate(26.49 519.24) rotate(-90)" style="fill:#FFC727"></rect><rect x="261.53" y="251.39" width="22.88" height="15.4" transform="translate(13.88 532.07) rotate(-90)" style="fill:#ebebeb"></rect><rect x="270.72" y="237.95" width="53.16" height="23.21" transform="translate(546.86 -47.74) rotate(90)" style="fill:#a6a6a6"></rect><rect x="294.82" y="256.42" width="4.95" height="23.21" transform="translate(565.33 -29.28) rotate(90)" style="fill:#455a64"></rect><rect x="296.34" y="249.73" width="1.92" height="23.21" transform="translate(558.64 -35.97) rotate(90)" style="fill:#455a64"></rect><rect x="211.57" y="239.72" width="59.51" height="13.33" transform="translate(487.71 5.06) rotate(90)" style="fill:#a6a6a6"></rect><rect x="238.55" y="260.39" width="5.55" height="13.33" transform="translate(508.38 25.73) rotate(90)" style="fill:#263238"></rect><rect x="238.55" y="225.01" width="5.55" height="13.33" transform="translate(473 -9.65) rotate(90)" style="fill:#263238"></rect><rect x="240.25" y="232.65" width="2.15" height="13.33" transform="translate(480.64 -2.01) rotate(90)" style="fill:#263238"></rect><rect x="314.34" y="240.97" width="56.35" height="13.99" transform="translate(590.48 -94.55) rotate(90)" style="fill:#a6a6a6"></rect><rect x="339.89" y="260.55" width="5.25" height="13.99" transform="translate(610.06 -74.98) rotate(90)" style="fill:#FFC727"></rect><rect x="339.89" y="227.03" width="5.25" height="13.99" transform="translate(576.54 -108.49) rotate(90)" style="fill:#FFC727"></rect><rect x="341.5" y="234.28" width="2.04" height="13.99" transform="translate(583.79 -101.25) rotate(90)" style="fill:#FFC727"></rect><rect x="284.85" y="240.3" width="59.89" height="11.79" transform="translate(68.61 560.99) rotate(-90)" style="fill:#FFC727"></rect><rect x="312.01" y="219.49" width="5.58" height="11.79" transform="translate(89.42 540.19) rotate(-90)" style="fill:#ebebeb"></rect><rect x="312.01" y="255.11" width="5.58" height="11.79" transform="translate(53.8 575.8) rotate(-90)" style="fill:#ebebeb"></rect><rect x="313.72" y="247.41" width="2.16" height="11.79" transform="translate(61.5 568.11) rotate(-90)" style="fill:#ebebeb"></rect><rect x="234.66" y="376.03" width="206.61" height="23.4" style="fill:#dbdbdb"></rect><rect x="234.66" y="376.04" width="206.61" height="7.49" style="fill:#a6a6a6"></rect><rect x="424.49" y="54.95" width="223.58" height="321.08" style="fill:#dbdbdb"></rect><rect x="441.27" y="70.93" width="190.01" height="275.26" style="fill:#fff"></rect><rect x="441.27" y="136.03" width="190.01" height="4.95" style="fill:#dbdbdb"></rect><rect x="441.27" y="206.09" width="190.01" height="4.95" style="fill:#dbdbdb"></rect><rect x="441.27" y="276.14" width="190.01" height="4.95" style="fill:#dbdbdb"></rect><rect x="439.19" y="238.46" width="55.78" height="19.56" transform="translate(715.32 -218.85) rotate(90)" style="fill:#a6a6a6"></rect><rect x="464.02" y="247.48" width="6.13" height="19.56" transform="translate(724.34 -209.83) rotate(90)" style="fill:#FFC727"></rect><rect x="465.95" y="222.7" width="2.27" height="19.56" transform="translate(699.57 -234.6) rotate(90)" style="fill:#FFC727"></rect><rect x="593.62" y="238.47" width="55.78" height="19.56" transform="translate(373.26 869.76) rotate(-90)" style="fill:#a6a6a6"></rect><rect x="618.45" y="229.45" width="6.13" height="19.56" transform="translate(382.28 860.74) rotate(-90)" style="fill:#FFC727"></rect><rect x="620.37" y="261.89" width="2.27" height="19.56" transform="translate(893.18 -349.84) rotate(90)" style="fill:#FFC727"></rect><rect x="620.37" y="251.41" width="2.27" height="19.56" transform="translate(882.7 -360.32) rotate(90)" style="fill:#FFC727"></rect><rect x="451.16" y="236.76" width="65.07" height="13.67" transform="translate(727.29 -240.11) rotate(90)" style="fill:#FFC727"></rect><rect x="471.12" y="225.59" width="25.03" height="8.2" transform="translate(713.32 -253.95) rotate(90)" style="fill:#ebebeb"></rect><rect x="499.05" y="241.41" width="61.19" height="8.24" transform="translate(284.1 775.17) rotate(-90)" style="fill:#FFC727"></rect><rect x="517.91" y="228.46" width="23.53" height="4.94" transform="translate(298.74 760.61) rotate(-90)" style="fill:#455a64"></rect><rect x="553.62" y="239.55" width="59.5" height="13.67" transform="translate(336.99 829.75) rotate(-90)" style="fill:#FFC727"></rect><rect x="571.99" y="254.99" width="22.88" height="8.2" transform="translate(324.34 842.52) rotate(-90)" style="fill:#ebebeb"></rect><rect x="477.41" y="239.82" width="49.43" height="23.21" transform="translate(753.55 -250.7) rotate(90)" style="fill:#455a64"></rect><rect x="499.82" y="256.99" width="4.61" height="23.21" transform="translate(770.72 -233.53) rotate(90)" style="fill:#a6a6a6"></rect><rect x="501.23" y="250.77" width="1.79" height="23.21" transform="translate(764.5 -239.75) rotate(90)" style="fill:#a6a6a6"></rect><rect x="426.06" y="244.9" width="46.45" height="16.03" transform="translate(702.2 -196.38) rotate(90)" style="fill:#455a64"></rect><rect x="447.13" y="261.03" width="4.33" height="16.03" transform="translate(718.34 -180.24) rotate(90)" style="fill:#a6a6a6"></rect><rect x="447.13" y="233.41" width="4.33" height="16.03" transform="translate(690.72 -207.86) rotate(90)" style="fill:#a6a6a6"></rect><rect x="448.45" y="239.38" width="1.68" height="16.03" transform="translate(696.69 -201.9) rotate(90)" style="fill:#a6a6a6"></rect><rect x="568.43" y="232.83" width="65.08" height="21.53" transform="translate(844.57 -357.37) rotate(90)" style="fill:#455a64"></rect><rect x="597.94" y="255.44" width="6.07" height="21.53" transform="translate(867.18 -334.76) rotate(90)" style="fill:#a6a6a6"></rect><rect x="597.94" y="216.74" width="6.07" height="21.53" transform="translate(828.47 -373.47) rotate(90)" style="fill:#a6a6a6"></rect><rect x="599.79" y="225.1" width="2.35" height="21.53" transform="translate(836.84 -365.1) rotate(90)" style="fill:#a6a6a6"></rect><polygon points="554.1 276.14 533.8 223 541.41 220.82 561.71 273.96 554.1 276.14" style="fill:#455a64"></polygon><polygon points="551.95 270.51 550.05 265.55 557.66 263.37 559.56 268.33 551.95 270.51" style="fill:#a6a6a6"></polygon><polygon points="539.88 238.91 537.98 233.95 545.59 231.77 547.49 236.73 539.88 238.91" style="fill:#a6a6a6"></polygon><rect x="488.32" y="238.94" width="62.61" height="11.79" transform="translate(274.79 764.46) rotate(-90)" style="fill:#a6a6a6"></rect><rect x="516.71" y="217.19" width="5.84" height="11.79" transform="translate(296.54 742.71) rotate(-90)" style="fill:#a6a6a6"></rect><rect x="516.71" y="254.42" width="5.83" height="11.79" transform="translate(259.31 779.94) rotate(-90)" style="fill:#a6a6a6"></rect><rect x="518.49" y="246.38" width="2.26" height="11.79" transform="translate(267.35 771.9) rotate(-90)" style="fill:#a6a6a6"></rect><rect x="467.14" y="98.36" width="55.78" height="19.56" transform="translate(603.18 -386.9) rotate(90)" style="fill:#a6a6a6"></rect><rect x="491.97" y="107.38" width="6.13" height="19.56" transform="translate(612.19 -377.88) rotate(90)" style="fill:#FFC727"></rect><rect x="493.9" y="82.61" width="2.27" height="19.56" transform="translate(587.42 -402.65) rotate(90)" style="fill:#FFC727"></rect><rect x="552.55" y="100.71" width="55.78" height="14.83" transform="translate(688.57 -472.31) rotate(90)" style="fill:#a6a6a6"></rect><rect x="577.37" y="109.73" width="6.13" height="14.83" transform="translate(697.59 -463.29) rotate(90)" style="fill:#FFC727"></rect><rect x="579.3" y="84.96" width="2.27" height="14.83" transform="translate(672.82 -488.06) rotate(90)" style="fill:#FFC727"></rect><rect x="479.11" y="96.66" width="65.07" height="13.67" transform="translate(615.14 -408.15) rotate(90)" style="fill:#FFC727"></rect><rect x="499.07" y="85.49" width="25.03" height="8.2" transform="translate(601.18 -422) rotate(90)" style="fill:#fff"></rect><rect x="603.36" y="108.1" width="47.63" height="8.24" transform="translate(514.95 739.39) rotate(-90)" style="fill:#455a64"></rect><rect x="618.05" y="98.38" width="18.32" height="4.94" transform="translate(526.35 728.06) rotate(-90)" style="fill:#ebebeb"></rect><rect x="586.47" y="99.44" width="59.5" height="13.67" transform="translate(509.94 722.49) rotate(-90)" style="fill:#FFC727"></rect><rect x="604.83" y="114.88" width="22.88" height="8.2" transform="translate(497.29 735.26) rotate(-90)" style="fill:#fff"></rect><rect x="505.36" y="99.71" width="49.43" height="23.21" transform="translate(641.39 -418.76) rotate(90)" style="fill:#455a64"></rect><rect x="527.77" y="116.88" width="4.61" height="23.21" transform="translate(658.57 -401.59) rotate(90)" style="fill:#a6a6a6"></rect><rect x="529.18" y="110.66" width="1.79" height="23.21" transform="translate(652.35 -407.81) rotate(90)" style="fill:#a6a6a6"></rect><rect x="419.54" y="98.26" width="59.51" height="16.03" transform="translate(555.57 -343.01) rotate(90)" style="fill:#455a64"></rect><rect x="446.52" y="118.93" width="5.55" height="16.03" transform="translate(576.24 -322.34) rotate(90)" style="fill:#a6a6a6"></rect><rect x="446.52" y="83.55" width="5.55" height="16.03" transform="translate(540.85 -357.73) rotate(90)" style="fill:#a6a6a6"></rect><rect x="448.22" y="91.19" width="2.15" height="16.03" transform="translate(548.5 -350.08) rotate(90)" style="fill:#a6a6a6"></rect><rect x="566.08" y="92.73" width="65.08" height="21.53" transform="translate(702.11 -495.13) rotate(90)" style="fill:#455a64"></rect><rect x="595.58" y="115.34" width="6.07" height="21.53" transform="translate(724.72 -472.52) rotate(90)" style="fill:#a6a6a6"></rect><rect x="595.58" y="76.63" width="6.07" height="21.53" transform="translate(686.01 -511.22) rotate(90)" style="fill:#a6a6a6"></rect><rect x="597.44" y="85" width="2.35" height="21.53" transform="translate(694.38 -502.86) rotate(90)" style="fill:#a6a6a6"></rect><polygon points="477.65 136.03 457.35 82.89 464.96 80.71 485.26 133.85 477.65 136.03" style="fill:#FFC727"></polygon><polygon points="475.5 130.4 473.6 125.45 481.21 123.27 483.11 128.22 475.5 130.4" style="fill:#a6a6a6"></polygon><polygon points="463.42 98.8 461.53 93.85 469.14 91.67 471.04 96.62 463.42 98.8" style="fill:#a6a6a6"></polygon><rect x="535.83" y="98.84" width="62.61" height="11.79" transform="translate(462.4 671.86) rotate(-90)" style="fill:#455a64"></rect><rect x="564.21" y="77.09" width="5.84" height="11.79" transform="translate(484.15 650.11) rotate(-90)" style="fill:#a6a6a6"></rect><rect x="564.21" y="114.32" width="5.84" height="11.79" transform="translate(446.92 687.34) rotate(-90)" style="fill:#a6a6a6"></rect><rect x="566" y="106.27" width="2.26" height="11.79" transform="translate(454.97 679.29) rotate(-90)" style="fill:#a6a6a6"></rect><rect x="565.8" y="308.52" width="55.78" height="19.56" transform="translate(911.99 -275.39) rotate(90)" style="fill:#a6a6a6"></rect><rect x="590.63" y="317.54" width="6.13" height="19.56" transform="translate(921.01 -266.37) rotate(90)" style="fill:#FFC727"></rect><rect x="592.55" y="292.77" width="2.27" height="19.56" transform="translate(896.24 -291.14) rotate(90)" style="fill:#FFC727"></rect><rect x="431.4" y="308.52" width="55.78" height="19.56" transform="translate(140.99 777.59) rotate(-90)" style="fill:#FFC727"></rect><rect x="456.23" y="299.5" width="6.13" height="19.56" transform="translate(150.01 768.57) rotate(-90)" style="fill:#a6a6a6"></rect><rect x="458.16" y="331.95" width="2.27" height="19.56" transform="translate(801.02 -117.57) rotate(90)" style="fill:#a6a6a6"></rect><rect x="458.16" y="321.46" width="2.27" height="19.56" transform="translate(790.53 -128.05) rotate(90)" style="fill:#a6a6a6"></rect><rect x="511.67" y="310.87" width="55.78" height="14.83" transform="translate(857.85 -221.27) rotate(90)" style="fill:#a6a6a6"></rect><rect x="536.5" y="319.89" width="6.13" height="14.83" transform="translate(866.87 -212.25) rotate(90)" style="fill:#FFC727"></rect><rect x="538.42" y="295.12" width="2.27" height="14.83" transform="translate(842.1 -237.03) rotate(90)" style="fill:#FFC727"></rect><rect x="544.54" y="306.82" width="65.07" height="13.67" transform="translate(890.73 -263.42) rotate(90)" style="fill:#FFC727"></rect><rect x="564.62" y="295.65" width="25.03" height="8.2" transform="translate(876.89 -277.39) rotate(90)" style="fill:#fff"></rect><rect x="421.58" y="318.26" width="47.63" height="8.24" transform="translate(123.02 767.77) rotate(-90)" style="fill:#455a64"></rect><rect x="436.2" y="308.54" width="18.32" height="4.94" transform="translate(134.34 756.37) rotate(-90)" style="fill:#ebebeb"></rect><rect x="495.56" y="309.6" width="59.5" height="13.67" transform="translate(208.88 841.75) rotate(-90)" style="fill:#FFC727"></rect><rect x="513.81" y="325.04" width="22.88" height="8.2" transform="translate(196.11 854.4) rotate(-90)" style="fill:#fff"></rect><rect x="533.94" y="309.87" width="49.43" height="23.21" transform="translate(880.13 -237.17) rotate(90)" style="fill:#455a64"></rect><rect x="556.35" y="327.04" width="4.61" height="23.21" transform="translate(897.3 -220) rotate(90)" style="fill:#a6a6a6"></rect><rect x="557.76" y="320.82" width="1.79" height="23.21" transform="translate(891.08 -226.22) rotate(90)" style="fill:#a6a6a6"></rect><rect x="593.52" y="308.42" width="59.51" height="16.03" transform="translate(939.71 -306.83) rotate(90)" style="fill:#455a64"></rect><rect x="620.5" y="329.09" width="5.55" height="16.03" transform="translate(960.38 -286.16) rotate(90)" style="fill:#a6a6a6"></rect><rect x="620.5" y="293.71" width="5.55" height="16.03" transform="translate(925 -321.55) rotate(90)" style="fill:#a6a6a6"></rect><rect x="622.2" y="301.35" width="2.15" height="16.03" transform="translate(932.64 -313.9) rotate(90)" style="fill:#a6a6a6"></rect><rect x="475.17" y="302.89" width="65.08" height="21.53" transform="translate(821.37 -194.07) rotate(90)" style="fill:#455a64"></rect><rect x="504.68" y="325.5" width="6.07" height="21.53" transform="translate(843.98 -171.46) rotate(90)" style="fill:#a6a6a6"></rect><rect x="504.68" y="286.79" width="6.07" height="21.53" transform="translate(805.27 -210.16) rotate(90)" style="fill:#a6a6a6"></rect><rect x="506.54" y="295.16" width="2.35" height="21.53" transform="translate(813.64 -201.8) rotate(90)" style="fill:#a6a6a6"></rect><polygon points="476.65 346.19 496.95 293.05 489.34 290.87 469.04 344.01 476.65 346.19" style="fill:#a6a6a6"></polygon><polygon points="478.81 340.56 480.7 335.61 473.09 333.43 471.19 338.38 478.81 340.56" style="fill:#FFC727"></polygon><polygon points="490.88 308.96 492.77 304.01 485.16 301.83 483.26 306.78 490.88 308.96" style="fill:#FFC727"></polygon><rect x="578.06" y="309" width="62.61" height="11.79" transform="translate(294.47 924.25) rotate(-90)" style="fill:#FFC727"></rect><rect x="606.44" y="287.25" width="5.84" height="11.79" transform="translate(316.22 902.5) rotate(-90)" style="fill:#ebebeb"></rect><rect x="606.44" y="324.48" width="5.84" height="11.79" transform="translate(278.99 939.73) rotate(-90)" style="fill:#ebebeb"></rect><rect x="608.23" y="316.43" width="2.26" height="11.79" transform="translate(287.04 931.69) rotate(-90)" style="fill:#ebebeb"></rect><rect x="582.31" y="170.78" width="55.78" height="14.83" transform="translate(788.4 -432.01) rotate(90)" style="fill:#a6a6a6"></rect><rect x="607.14" y="179.8" width="6.13" height="14.83" transform="translate(797.42 -423) rotate(90)" style="fill:#FFC727"></rect><rect x="609.07" y="155.03" width="2.27" height="14.83" transform="translate(772.65 -447.77) rotate(90)" style="fill:#FFC727"></rect><rect x="591.92" y="166.71" width="65.07" height="13.67" transform="translate(798 -450.91) rotate(90)" style="fill:#FFC727"></rect><rect x="611.88" y="155.54" width="25.03" height="8.2" transform="translate(784.04 -464.75) rotate(90)" style="fill:#ebebeb"></rect><rect x="566.47" y="169.77" width="49.43" height="23.21" transform="translate(772.56 -409.82) rotate(90)" style="fill:#455a64"></rect><rect x="588.88" y="186.94" width="4.61" height="23.21" transform="translate(789.73 -392.65) rotate(90)" style="fill:#a6a6a6"></rect><rect x="590.29" y="180.72" width="1.79" height="23.21" transform="translate(783.51 -398.87) rotate(90)" style="fill:#a6a6a6"></rect><rect x="440.87" y="172.16" width="55.78" height="12.04" transform="translate(646.95 -290.58) rotate(90)" style="fill:#a6a6a6"></rect><rect x="465.7" y="181.18" width="6.13" height="12.04" transform="translate(655.96 -281.56) rotate(90)" style="fill:#FFC727"></rect><rect x="467.63" y="156.41" width="2.27" height="12.04" transform="translate(631.19 -306.34) rotate(90)" style="fill:#FFC727"></rect><rect x="541.48" y="167.98" width="60.65" height="15.56" transform="translate(396.04 747.56) rotate(-90)" style="fill:#a6a6a6"></rect><rect x="568.47" y="158.18" width="6.66" height="15.56" transform="translate(405.85 737.76) rotate(-90)" style="fill:#FFC727"></rect><rect x="570.57" y="193.45" width="2.47" height="15.56" transform="translate(773.03 -370.57) rotate(90)" style="fill:#FFC727"></rect><rect x="570.57" y="182.05" width="2.47" height="15.56" transform="translate(761.63 -381.97) rotate(90)" style="fill:#FFC727"></rect><rect x="503.26" y="167.2" width="62.92" height="14.83" transform="translate(709.34 -360.11) rotate(90)" style="fill:#a6a6a6"></rect><rect x="531.27" y="177.37" width="6.91" height="14.83" transform="translate(719.51 -349.94) rotate(90)" style="fill:#FFC727"></rect><rect x="533.44" y="149.43" width="2.57" height="14.83" transform="translate(691.57 -377.88) rotate(90)" style="fill:#FFC727"></rect><rect x="528.78" y="170.83" width="62.59" height="7.9" transform="translate(385.3 734.85) rotate(-90)" style="fill:#FFC727"></rect><rect x="548.07" y="185.78" width="24.08" height="4.74" transform="translate(371.96 748.26) rotate(-90)" style="fill:#ebebeb"></rect><rect x="422.26" y="165.6" width="59.51" height="21.47" transform="translate(628.34 -275.68) rotate(90)" style="fill:#455a64"></rect><rect x="449.24" y="186.27" width="5.55" height="21.47" transform="translate(649.01 -255.01) rotate(90)" style="fill:#a6a6a6"></rect><rect x="449.24" y="150.88" width="5.55" height="21.47" transform="translate(613.63 -290.39) rotate(90)" style="fill:#a6a6a6"></rect><rect x="450.93" y="158.53" width="2.15" height="21.47" transform="translate(621.27 -282.74) rotate(90)" style="fill:#a6a6a6"></rect><rect x="520.96" y="170.92" width="56.35" height="13.99" transform="translate(727.04 -371.22) rotate(90)" style="fill:#455a64"></rect><rect x="546.51" y="190.49" width="5.25" height="13.99" transform="translate(746.62 -351.65) rotate(90)" style="fill:#a6a6a6"></rect><rect x="546.51" y="156.98" width="5.25" height="13.99" transform="translate(713.11 -385.16) rotate(90)" style="fill:#a6a6a6"></rect><rect x="548.11" y="164.22" width="2.04" height="13.99" transform="translate(720.35 -377.92) rotate(90)" style="fill:#a6a6a6"></rect><rect x="450.73" y="170.24" width="59.89" height="11.79" transform="translate(304.54 656.82) rotate(-90)" style="fill:#FFC727"></rect><rect x="477.89" y="149.44" width="5.58" height="11.79" transform="translate(325.35 636.01) rotate(-90)" style="fill:#ebebeb"></rect><rect x="477.89" y="185.05" width="5.58" height="11.79" transform="translate(289.73 671.63) rotate(-90)" style="fill:#ebebeb"></rect><rect x="479.6" y="177.36" width="2.16" height="11.79" transform="translate(297.43 663.93) rotate(-90)" style="fill:#ebebeb"></rect><rect x="424.49" y="376.03" width="206.8" height="23.4" style="fill:#dbdbdb"></rect><rect x="424.5" y="376.04" width="206.79" height="7.49" style="fill:#a6a6a6"></rect></g><g id="freepik--character-2--inject-134"><path d="M584.49,436.53c2.2.71,64.93-.09,67.29-1.64.91-.57,1.33-9.72,1.52-20.79v-.35q.06-3.42.08-7c0-.32,0-.65,0-1l-40.87.11.05,1.28.25,6.67,0,.68s-23.88,11.05-26.3,13S582.28,435.83,584.49,436.53Z" style="fill:#ebebeb"></path><path d="M584.48,436.52c1.13.37,18.18.33,34.83,0,3.35-.07,6.68-.14,9.86-.23,11.88-.32,21.7-.81,22.61-1.4s1.32-9.47,1.5-20.33c0-.15,0-.31,0-.46s0-.24,0-.35h0l-40.43.06,0,.69s-23.88,11-26.29,13S582.28,435.82,584.48,436.52Z" style="fill:#FFC727"></path><path d="M585.16,434.08c10.58-.39,53.25-1,63.73-.57.09,0,.09.06,0,.07-10.47.62-53.15.86-63.72.68C584.94,434.25,584.94,434.09,585.16,434.08Z" style="fill:#263238"></path><path d="M608.32,414c4.15-.83,9.25-.25,12.46,2.67.13.11,0,.29-.17.25a58,58,0,0,0-12.27-2.39A.27.27,0,0,1,608.32,414Z" style="fill:#263238"></path><path d="M605.34,415.84c4.15-.83,9.25-.26,12.46,2.67.13.11,0,.29-.17.25a58.18,58.18,0,0,0-12.27-2.4A.26.26,0,0,1,605.34,415.84Z" style="fill:#263238"></path><path d="M602.36,417.69c4.15-.83,9.25-.26,12.46,2.67.13.11,0,.29-.17.24a58.8,58.8,0,0,0-12.27-2.39A.26.26,0,0,1,602.36,417.69Z" style="fill:#263238"></path><path d="M619.31,436.52c3.35-.07,6.68-.14,9.86-.23,11.88-.32,21.7-.81,22.61-1.4s1.32-9.47,1.5-20.33c0-.15,0-.31,0-.46s0-.24,0-.35h0C647.71,417.63,628.19,430.62,619.31,436.52Z" style="fill:#263238"></path><path d="M610.41,414h45.18s-9.08-105.53-8.72-107.37c.45-2.36,3.12-13,6.67-27,1.12-4.37,2.32-9.05,3.57-13.9,3.37-13.13,7.08-27.48,10.32-40,4.86-18.7,8.65-33.23,8.65-33.23H637.8s-4.47,14.14-10.1,32.55c-9.17,29.91-21.42,71.07-22.63,81.08C603.1,322.3,610.41,414,610.41,414Z" style="fill:#263238"></path><path d="M612.41,406.25c6.9-.14,4.92-.2,11.82-.26,3.37,0,25.57-.22,28.72.3a.07.07,0,0,1,0,.14c-3.15.52-25.35.32-28.72.29-6.9-.07-4.92-.12-11.82-.27A.1.1,0,0,1,612.41,406.25Z" style="fill:#37474f"></path><path d="M638.37,300.15c1.48-6.53,3.7-12.93,5.62-19.34q5.88-19.53,11.83-39.05,3-9.76,6-19.51c1-3.28,2-6.57,3.05-9.84s2.15-6.39,3.06-9.62c.37-1.32.57-.6.1,1.07-1,3.37-1.89,6.75-2.88,10.11q-2.91,10-5.88,20-5.88,19.84-11.86,39.67-3,9.94-6,19.88a82.17,82.17,0,0,0-2.45,9.62,44.84,44.84,0,0,0-.4,10.29c.43,6.91,1.23,13.81,1.87,20.71s1.28,13.82,1.91,20.73q1.9,20.63,3.78,41.26c.16,1.75.31,3.49.44,5.24.05.58-.84.54-.9,0-1.48-13.6-2.62-27.24-3.89-40.86s-2.54-27.11-3.8-40.66c-.32-3.4-.68-6.81-.68-10.23A41.85,41.85,0,0,1,638.37,300.15Z" style="fill:#37474f"></path><path d="M676.09,192.52a.66.66,0,0,0,0,.09c-.34,1.28-4,15.32-8.64,33.14-3.23,12.48-6.95,26.83-10.32,40-.24,1-.49,1.89-.73,2.82-4.43-26.39-12-58.37-14.24-76Z" style="fill:#37474f"></path><path d="M633.16,437.14c2.2.72,64.94.15,67.31-1.39.91-.57,1.36-9.72,1.59-20.78v-.35c.05-2.28.09-4.63.1-7,0-.33,0-.65,0-1l-40.87,0,0,1.27.23,6.68,0,.68s-23.91,11-26.34,12.93S631,436.43,633.16,437.14Z" style="fill:#ebebeb"></path><path d="M633.16,437.14c2.2.72,64.94.15,67.31-1.39.91-.57,1.36-9.72,1.59-20.78v-.35l-40.48-.08,0,.68s-23.91,11-26.34,12.93S631,436.43,633.16,437.14Z" style="fill:#FFC727"></path><path d="M633.85,434.7c10.57-.35,53.25-.79,63.73-.34.08,0,.08.06,0,.07-10.47.58-53.15.67-63.73.45C633.63,434.87,633.63,434.71,633.85,434.7Z" style="fill:#263238"></path><path d="M657.08,414.69c4.15-.81,9.25-.22,12.45,2.72.13.11,0,.29-.17.24a58.78,58.78,0,0,0-12.26-2.43A.27.27,0,0,1,657.08,414.69Z" style="fill:#263238"></path><path d="M654.09,416.53c4.16-.81,9.25-.22,12.46,2.71.12.12,0,.29-.18.25a58.65,58.65,0,0,0-12.26-2.43A.27.27,0,0,1,654.09,416.53Z" style="fill:#263238"></path><path d="M651.1,418.37c4.16-.82,9.25-.22,12.46,2.71.12.12,0,.29-.17.25a58.8,58.8,0,0,0-12.26-2.44A.26.26,0,0,1,651.1,418.37Z" style="fill:#263238"></path><path d="M639,192.51s.88,18.32,5.07,32.83c.34,1.2.7,2.38,1.1,3.51a68.66,68.66,0,0,1,11,5.68s.44,14.74.88,31.18c.48,18.37,1,38.87.88,43.22-.39,16.26,2,105.7,2,105.7l45.17.19S697,314.94,697.08,309c.09-9.57-2.17-51.9-3.92-82.77-1.07-19-1.95-33.69-1.95-33.69Z" style="fill:#263238"></path><path d="M661.55,406.6c6.9-.12,4.92-.18,11.82-.22,3.38,0,25.57-.11,28.72.43a.07.07,0,0,1,0,.14c-3.16.51-25.35.21-28.72.17-6.9-.1-4.92-.15-11.82-.32A.1.1,0,0,1,661.55,406.6Z" style="fill:#37474f"></path><path d="M687.41,199.07c.83,25.2,1.7,50.4,2.82,75.59s2.65,50.54,4.76,75.76c1.18,14.09,2.28,33.9,3.8,48,0,.09-.13.12-.14,0-3.29-25-5.11-55.91-6.73-81.07s-2.7-50.35-3.55-75.54c-.48-14.25-.85-28.5-1.27-42.75C687.09,198.85,687.4,198.87,687.41,199.07Z" style="fill:#37474f"></path><path d="M643.32,227.76a84,84,0,0,1,12.91,6.77.15.15,0,0,1-.14.26c-4.35-2.11-8.8-4.15-13-6.51A.29.29,0,0,1,643.32,227.76Z" style="fill:#37474f"></path><path d="M643.07,212.22c.3,1.6.69,3.19,1,4.79s.57,3,1,4.5a7.64,7.64,0,0,0,2.1,3.78c.59.55,1.23,1,1.86,1.53.34.27.7.53,1.05.8L650,227c-.11-.61-.21-1.22-.31-1.83-.23-1.35-.44-2.71-.65-4.06-.41-2.67-.78-5.36-1.34-8a.09.09,0,0,1,.17,0c.66,2.61,1.4,5.2,2,7.84.29,1.29,1.3,7.67,1.34,8.12s.09.94.1,1.41a5.27,5.27,0,0,1,0,1.43c0,.12-.16.1-.21,0h0a5.79,5.79,0,0,1-.41-1.38c-.11-.46-.22-.92-.3-1.39,0-.16,0-.33-.07-.5-.63-.39-1.22-.89-1.81-1.32s-1.27-.9-1.87-1.41a7.1,7.1,0,0,1-2.29-3.58,25.26,25.26,0,0,1-.75-4.59c-.21-1.81-.35-3.63-.61-5.44C642.89,212.15,643.05,212.11,643.07,212.22Z" style="fill:#37474f"></path><path d="M656.67,145.66c-6.23,4-22.75,11.12-41,12.71-7,.61-36.95-24.75-39.1-28.29-1.51-2.48,16.79-18.85,19.42-16.79,4.6,3.62,20.43,23,22.08,23.3,2.53.41,20.35.62,34-.2C662,135.8,667,139,656.67,145.66Z" style="fill:#c95f50"></path><path d="M579.78,133.37c-1.2-1-11-7.85-14.31-13.82-1.76-3.16-5.61-12.41-3.82-13.72,1.63-1.19,3.31,1.08,3.31,1.08s-1.65-4.14.64-5.78,4.92,2.34,4.92,2.34-1.39-4.38,1-5.84,4.38,3,4.38,3-1.46-3.94,1-4.32c3-.45,4.86,7.13,7.4,10.23C584.91,107.21,597,120,597,120Z" style="fill:#c95f50"></path><path d="M576.07,100.62c1.39,5.57,3,7.76,7,11.67.08.08,0,.21-.1.14-4.35-3.46-6.72-5.93-7.21-11.76C575.78,100.39,576,100.35,576.07,100.62Z" style="fill:#263238"></path><path d="M570.69,103.47c1.94,5.66,3.63,8,7.6,12.46.06.06,0,.17-.11.11-4.26-4-6.56-6.52-7.76-12.43C570.36,103.34,570.6,103.21,570.69,103.47Z" style="fill:#263238"></path><path d="M565.16,107.12c2.28,5.34,4,8,8.42,11.83a.11.11,0,0,1-.13.17c-4.87-3.42-7.05-6.78-8.44-11.92C564.91,106.85,565,106.78,565.16,107.12Z" style="fill:#263238"></path><rect x="554.94" y="83.5" width="35.07" height="44.69" transform="matrix(0.94, 0.34, -0.34, 0.94, 70.08, -188.31)" style="fill:#FFC727"></rect><rect x="582.55" y="88.34" width="6.61" height="44.69" transform="translate(72.52 -192.57) rotate(19.87)" style="fill:#FFC727"></rect><rect x="582.55" y="88.34" width="6.61" height="44.69" transform="translate(72.52 -192.57) rotate(19.87)" style="opacity:0.1"></rect><rect x="586.81" y="97.3" width="6.61" height="3.21" transform="translate(68.77 -194.72) rotate(19.87)" style="fill:#455a64"></rect><rect x="578.05" y="121.52" width="6.61" height="3.21" transform="translate(76.48 -190.3) rotate(19.87)" style="fill:#455a64"></rect><rect x="580.51" y="113.33" width="6.61" height="5.97" transform="translate(74.31 -191.55) rotate(19.87)" style="fill:#455a64"></rect><path d="M601.62,120.49s-2.65-6.68-4.46-9.36-12.24-10.19-14-8c-2.26,2.79,2.91,8.31,5.79,10.68,0,0-5.23,6.45-2.38,11.21S601.62,120.49,601.62,120.49Z" style="fill:#c95f50"></path><path d="M582.8,104.07c-.23,4,3.76,6.9,6.39,9.41a.34.34,0,0,1-.06.54c-2,2.85-4,7.45-2.77,10.91a.08.08,0,1,1-.15.07c-1.85-3.52-.25-8.21,2.16-11.19-2.74-2.53-6.61-5.59-5.61-9.75C582.77,104,582.8,104,582.8,104.07Z" style="fill:#263238"></path><path d="M636.18,156,624,135.6s26.11-1.51,33.91.21c8.78,1.94,5.87,6-1.3,10.66S636.18,156,636.18,156Z" style="fill:#263238"></path><path d="M629.29,136.29c.53.64,4.44,6.94,5.26,8.33s4.23,7,5,8.52c0,.07,0,.13-.1.07-1-1.34-4.44-7-5.31-8.41s-4.6-7.71-4.91-8.46C629.16,136.28,629.25,136.25,629.29,136.29Z" style="fill:#263238"></path><path d="M631.47,148.12l4.71,7.86s13.22-4.85,20.38-9.5c5.24-3.41,8.21-6.51,6-8.67Z" style="fill:#263238"></path><path d="M696.26,212.45c-.15.17-62.64.57-63.21-.07-.8-.9,13.08-68.65,19.46-77,1.37-1.79,10-4.23,15-.16,10.62,8.65,19.84,38.35,22,47.31C693,197.26,696.77,211.87,696.26,212.45Z" style="fill:#FFC727"></path><path d="M655.24,144.43c2.15.32,8.47-3.61,10.86-7.86.16-.3-.92-12-.89-14.39,0-.48-14.78,3.41-14.78,3.41a37,37,0,0,1,1.32,9,4.86,4.86,0,0,1-.11,1,.7.7,0,0,0,0,.16C651.3,137.58,652.09,144,655.24,144.43Z" style="fill:#c95f50"></path><path d="M664.26,122.25c-.6,3.55-3,13.51-11.13,13.6a10.07,10.07,0,0,1-1.51-.1c0-.06,0-.12,0-.16a7.4,7.4,0,0,0,.1-1,37.77,37.77,0,0,0-1.31-9S661,122.81,664.26,122.25Z" style="fill:#263238"></path><path d="M659.51,132.23h0" style="fill:none;stroke:#c95f50;stroke-linecap:round;stroke-linejoin:round;stroke-width:0px"></path><path d="M667.75,104.92c1.41,5.28-1.9,20.26-5.73,23.49-5.56,4.68-14.39,4.83-18.3-1.79-3.79-6.42.86-25.87,5.12-28.78C655.11,93.56,665.68,97.13,667.75,104.92Z" style="fill:#c95f50"></path><path d="M652.65,113.73s.07.07.06.11c-.25,1-.37,2.19.47,2.73a0,0,0,1,1,0,.05C652.08,116.22,652.25,114.64,652.65,113.73Z" style="fill:#263238"></path><path d="M653.78,112.87c1.65.23,1.08,3.51-.45,3.3S652.39,112.68,653.78,112.87Z" style="fill:#263238"></path><path d="M647.05,112.68s-.09,0-.09.07c-.15,1-.49,2.18-1.47,2.35,0,0,0,.06,0,.06C646.64,115.2,647.08,113.67,647.05,112.68Z" style="fill:#263238"></path><path d="M646.33,111.46c-1.62-.41-2.32,2.85-.82,3.23S647.68,111.8,646.33,111.46Z" style="fill:#263238"></path><path d="M655.42,112.14c-.43-.19-.79-.44-1.2-.67a2.21,2.21,0,0,1-1.08-.92.71.71,0,0,1,.25-.82,1.74,1.74,0,0,1,1.77.13,2.58,2.58,0,0,1,1.27,1.35A.75.75,0,0,1,655.42,112.14Z" style="fill:#263238"></path><path d="M645.52,108.87c.47,0,.9-.07,1.37-.11a2.21,2.21,0,0,0,1.37-.38.71.71,0,0,0,.11-.86,1.77,1.77,0,0,0-1.66-.62,2.6,2.6,0,0,0-1.72.7A.75.75,0,0,0,645.52,108.87Z" style="fill:#263238"></path><path d="M652.26,123.16c-.28.19-.58.48-1,.44a2.77,2.77,0,0,1-1-.44s-.07,0,0,0a1.39,1.39,0,0,0,1.2.78,1.09,1.09,0,0,0,1-.76C652.38,123.16,652.31,123.13,652.26,123.16Z" style="fill:#263238"></path><path d="M651.73,119.92a3.56,3.56,0,0,1-2.59,1.14,4.42,4.42,0,0,1-1.25-.16l-.24-.07a.9.9,0,0,1-.21-.08.24.24,0,0,1-.17-.26h0l0-.1h0l0-.09c.12-.78.4-2,.4-2-.31.09-1.89.49-1.79.09a52.51,52.51,0,0,1,3.18-10.26.1.1,0,0,1,.18.06c-.64,3.26-1.84,6.38-2.53,9.63a6.31,6.31,0,0,1,1.72-.21c.1.06-.59,2.27-.62,2.63v0a4.9,4.9,0,0,0,3.79-.49C651.73,119.77,651.8,119.85,651.73,119.92Z" style="fill:#263238"></path><path d="M648.42,120.58a4.14,4.14,0,0,0,1.42,1.56,1.84,1.84,0,0,0,1.11.27c.85-.07,1-.81,1-1.48a4.43,4.43,0,0,0-.2-1A5.35,5.35,0,0,1,648.42,120.58Z" style="fill:#263238"></path><path d="M649.84,122.14a1.84,1.84,0,0,0,1.11.27c.85-.07,1-.81,1-1.48A2,2,0,0,0,649.84,122.14Z" style="fill:#ff9cbd"></path><path d="M645.09,104c4.8,4,12.33-.65,12.33-.65a5.61,5.61,0,0,0,5.33,4.07s.19,8.79,2.49,9c3.49.31,5.69-11.44,4.81-13.88s-3.79-3.31-3.79-3.31a5.76,5.76,0,0,0-2-3.68c-2.22-2.05-10.68-.36-10.68-.36a7.69,7.69,0,0,0-1.84-3.05,2.16,2.16,0,0,0-3.13,0,5.26,5.26,0,0,1,.63,2.22c.17,2.58-1.9,2.38-1.67.08a3.62,3.62,0,0,1,1-2.3c-.89-1.61-2.52-2.26-3.61-1.55C643,91.85,641.09,100.66,645.09,104Z" style="fill:#263238"></path><path d="M664.08,117.1s3.69-4.68,5.83-3.34-.82,8.26-3.47,9.08a2.65,2.65,0,0,1-3.46-1.62Z" style="fill:#c95f50"></path><path d="M669,115.72a0,0,0,0,1,0,.07c-1.86.63-2.91,2.27-3.68,4a1.46,1.46,0,0,1,2.2-.28s0,.11-.06.1a1.61,1.61,0,0,0-1.81.47,7.23,7.23,0,0,0-.94,1.39c-.1.16-.39.06-.31-.13v0C664.52,119,666.51,115.81,669,115.72Z" style="fill:#263238"></path><path d="M673.56,142.25c8.38,14.12,23.09,49.18,17.42,56.56-7.63,9.94-32.07,22.27-40,23.48-3.41.52-11.82-25.22-8.47-26.74,4-1.83,26.35-11.8,26.42-13.14s-3.05-17.61-3.74-31.53C664.43,134.73,669,134.5,673.56,142.25Z" style="fill:#c95f50"></path><path d="M648.11,195.8s-10.34-1.74-17.15-2.55c-3.8-.45-10.38-.65-13.33.29-4.4,1.41-21.92,10.13-19.9,14.42,1.83,3.88,15.93-5.51,15.93-5.51s-15.06,8.22-12,12.5,17.58-8.47,17.58-8.47-15.29,8.8-11.43,12.71c2.91,2.95,16.71-7.84,16.71-7.84S611.43,219,614.3,222.17c3.16,3.5,16.53-5.67,16.53-5.67,8.64,6.82,15.54,6.54,20.43,5.75C652.44,222.06,648.11,195.8,648.11,195.8Z" style="fill:#c95f50"></path><path d="M618.69,199.27c-1.8.9-3.64,1.8-5.36,2.86s-3.4,2.18-5,3.4a34.23,34.23,0,0,0-5.82,5.32c3.33-3.31,9.42-7.2,11.14-8.26s3.38-2.2,5.09-3.26C618.78,199.31,618.73,199.25,618.69,199.27Z" style="fill:#263238"></path><path d="M622.63,205.4c-2.26,1.26-4.54,2.42-6.74,3.77s-4.15,2.81-6.24,4.3c-.16.12,0,.17.12.06,2.15-1.41,4.24-2.55,6.41-3.93s4.28-2.85,6.48-4.14C622.7,205.44,622.66,205.39,622.63,205.4Z" style="fill:#263238"></path><path d="M627,210.06a58.05,58.05,0,0,0-9.87,6.54c-.15.13,0,.17.17.06,3.24-2.24,5.76-4,9.76-6.47C627.08,210.15,627,210,627,210.06Z" style="fill:#263238"></path><path d="M666.32,167.92l23.79,0s-12.1-23.19-17.58-29c-6.17-6.54-8.17-2-8.49,6.59S666.32,167.92,666.32,167.92Z" style="fill:#263238"></path><path d="M666.92,163.88c.83-.12,8.24-.17,9.85-.14s8.2.06,9.86.22a.06.06,0,0,1,0,.12c-1.66.15-8.3.13-9.94.14s-9-.11-9.79-.23C666.85,164,666.87,163.89,666.92,163.88Z" style="fill:#263238"></path></g><g id="freepik--character-1--inject-134"><rect x="145.35" y="267.04" width="87.04" height="2.09" style="fill:#FFC727"></rect><path d="M230.55,267H147.19l3.5-2.29s24.54-3.11,31.4-3S197.48,265,197.48,265a24.78,24.78,0,0,1,11.94-3.31c6.87-.08,17.63,3,17.63,3Z" style="fill:#ebebeb"></path><path d="M152.24,263.76c3.77-.84,7.57-1.5,11.39-2.11s7.63-1.12,11.49-1.48a51.35,51.35,0,0,1,5.84-.26,34.12,34.12,0,0,1,5.8.77,41.7,41.7,0,0,1,5.6,1.62,18.29,18.29,0,0,1,5.12,2.73,20.34,20.34,0,0,0-5.3-2.2,41.34,41.34,0,0,0-5.58-1.28,40.3,40.3,0,0,0-5.68-.55,55,55,0,0,0-5.7.31c-3.82.33-7.65.8-11.48,1.21S156.09,263.39,152.24,263.76Z" style="fill:#ebebeb"></path><path d="M197.48,265.6a13.3,13.3,0,0,1,7-4.39,22.32,22.32,0,0,1,8.37-.67A52.43,52.43,0,0,1,221,262l4,1.08c1.32.41,2.65.79,4,1.22-2.74-.38-5.44-.95-8.14-1.44s-5.4-1-8.11-1.18a25.56,25.56,0,0,0-8.05.37,17.81,17.81,0,0,0-3.83,1.29A12.14,12.14,0,0,0,197.48,265.6Z" style="fill:#ebebeb"></path><path d="M197.48,265.79c-1.79-.47-3.59-.87-5.39-1.24s-3.62-.72-5.44-.95c-3.63-.59-7.3-.2-11,0l-11,.73c-3.68.25-7.37.47-11,.67q5.5-.61,11-1.11c3.68-.33,7.36-.6,11-.86s7.41-.59,11.09.1A76.07,76.07,0,0,1,197.48,265.79Z" style="fill:#dbdbdb"></path><path d="M197.48,265.79a28.64,28.64,0,0,1,7-2.44,26.51,26.51,0,0,1,7.44-.62,57.08,57.08,0,0,1,7.37,1,73.87,73.87,0,0,1,7.21,1.83c-1.21-.27-2.42-.51-3.64-.73s-2.43-.46-3.65-.66a67.3,67.3,0,0,0-7.33-.91,28.14,28.14,0,0,0-7.32.47,34.71,34.71,0,0,0-3.6.83A25.3,25.3,0,0,0,197.48,265.79Z" style="fill:#dbdbdb"></path><path d="M197.48,266.24c-1.64-.32-3.28-.56-4.93-.75s-3.3-.37-5-.47-3.31-.17-5-.14l-5,.22-10,.33c-3.32.09-6.65.15-10,.17q5-.36,9.95-.61l10-.47,5-.17c1.67,0,3.34.07,5,.23A63.12,63.12,0,0,1,197.48,266.24Z" style="fill:#dbdbdb"></path><path d="M197.48,266c2.51-.53,5-1,7.59-1.25a35.4,35.4,0,0,1,3.86-.26c1.29,0,2.57,0,3.86.11q3.84.27,7.66.77t7.6,1.21l-7.65-.77c-2.55-.24-5.1-.5-7.65-.64-1.27-.09-2.55-.14-3.82-.16s-2.54.09-3.82.18C202.57,265.42,200,265.7,197.48,266Z" style="fill:#dbdbdb"></path><polygon points="157.34 327.53 159.72 341.76 175.79 428.58 178.38 428.58 166.69 341.76 164.97 327.53 157.34 327.53" style="fill:#dbdbdb"></polygon><polygon points="164.97 327.53 157.34 327.53 159.72 341.76 166.69 341.76 164.97 327.53" style="fill:#a6a6a6"></polygon><polygon points="106.86 428.58 109.45 428.58 125.53 341.76 127.9 327.53 120.28 327.53 118.55 341.76 106.86 428.58" style="fill:#dbdbdb"></polygon><polygon points="120.28 327.53 118.55 341.76 125.53 341.76 127.9 327.53 120.28 327.53" style="fill:#a6a6a6"></polygon><polygon points="58.64 428.58 61.23 428.58 77.31 341.76 79.68 327.53 72.06 327.53 70.33 341.76 58.64 428.58" style="fill:#dbdbdb"></polygon><polygon points="70.33 341.76 77.31 341.76 79.68 327.53 72.06 327.53 70.33 341.76" style="fill:#a6a6a6"></polygon><polygon points="62.75 334.22 180.55 334.22 180.55 321.81 136.45 321.81 121.63 235.58 67.24 235.58 62.75 334.22" style="fill:#dbdbdb"></polygon><polygon points="62.75 334.22 69.17 334.22 73.35 235.58 67.24 235.58 62.75 334.22" style="fill:#a6a6a6"></polygon><path d="M167.29,436.21c-2.28-.31-59.65-28.94-61.11-31.35-.18-.28,2.29-5.52,5.81-12.65,7.93-16.13,23.8-43.4,23.8-43.4l34.54,19.41-19,36s6.38,7.73,11.56,14.29c0,0,0,0,0,0a90.61,90.61,0,0,1,6.43,8.7C170.62,430.05,169.56,436.52,167.29,436.21Z" style="fill:#d3766a"></path><path d="M106.18,404.86c1.46,2.41,58.83,31,61.11,31.35s3.33-6.16,2-9a90.61,90.61,0,0,0-6.43-8.7s0,0,0,0c-2.74-3.46-5.81-7.25-8.09-10.06,1.68,2.51,4.46,7.09,2.83,8-3,1.64-28.72-11.71-45.63-24.21C108.47,399.34,106,404.58,106.18,404.86Z" style="fill:#263238"></path><path d="M158.14,401l-40-21.12s30.53-59.83,29.73-60.87c-2.8-3.61-36.61-2-51.21-16.48C81.18,287.2,93,265.33,93,265.33h40.39s-.37,11,1.37,12.39c1.15,1,60.53,6.69,62.86,22.36C201.63,327.21,158.14,401,158.14,401Z" style="fill:#455a64"></path><path d="M160.63,393.58c-4.81-2.91-9.74-5.58-14.69-8.25s-9.93-5.27-15-7.76c-2.83-1.41-5.74-2.68-8.58-4.08-.09-.05-.16.09-.07.14,2.49,1.33,4.91,2.8,7.4,4.15s4.9,2.66,7.36,4c5,2.64,10,5.21,14.94,7.81,2.81,1.47,5.65,2.86,8.51,4.22A.11.11,0,0,0,160.63,393.58Z" style="fill:#263238"></path><path d="M163.75,312.41c-1-2.05-3.62-2.36-5.59-2.85l-16.11-4c-9.52-2.36-19.32-4.58-27.85-9.62-4.07-2.41-8-5.46-10.06-9.85s-2-9.08-2.07-13.72c0-1.15.06-2.29.14-3.44,0-.1-.15-.09-.16,0-.29,4.57-.76,9.14.26,13.66a18.69,18.69,0,0,0,2.56,6.17,21.12,21.12,0,0,0,4.65,4.88c7.54,5.91,17,8.74,26.14,11.08,5.17,1.32,10.36,2.58,15.55,3.84l8,2a7.32,7.32,0,0,1,3.29,1.29,3.44,3.44,0,0,1,1,2.9,11,11,0,0,1-.81,3.19c-.48,1.25-1,2.5-1.49,3.74-1,2.43-2,4.85-3,7.26q-3.13,7.27-6.52,14.46c-4.49,9.53-9.29,18.92-14.18,28.25-.61,1.16-1.2,2.34-1.8,3.5a.06.06,0,1,0,.11.06C141,366,145.89,356.52,150.55,347s9-19.07,12.77-28.92C164,316.33,164.62,314.19,163.75,312.41Z" style="fill:#263238"></path><path d="M276.42,438.33c-2.19.72-66.3,0-68.66-1.49-.29-.17-.31-13.91-.31-13.91-10.52-23.9-20-47-20-47l44.82-.06,15.85,40.71s9.12,4.16,16.65,7.79l0,0a89.66,89.66,0,0,1,9.58,5C276.72,431.34,278.6,437.63,276.42,438.33Z" style="fill:#d3766a"></path><path d="M207.23,422.43c.07.17.15.33.22.5,0,0,0,13.74.31,13.91,2.36,1.54,66.47,2.22,68.66,1.5s.3-7-2.1-8.95a89.66,89.66,0,0,0-9.58-5h0c-2.41-1.17-5-2.39-7.38-3.5,2.49,1.63,5.44,3.94,4.51,5.18C259.7,428.92,227.87,427.24,207.23,422.43Z" style="fill:#263238"></path><path d="M244.77,408l-48.4-.36S172,344.91,168.1,340.7c-2-2.13-15.31-4.5-31.22-8l-.08,0c-5.88-1.29-12.11-2.74-18.24-4.39-16-4.26-31.33-9.86-38.32-17.6-14.63-16.17,0-45.39,0-45.39h41.21s1,12.72-2.13,20.51c0,0,30.32,4.45,55.85,12.73,14.47,4.7,27.4,10.63,32.41,17.68C217.35,330,244.77,408,244.77,408Z" style="fill:#455a64"></path><path d="M239.31,400.7c-5.61-.41-11.22-.56-16.84-.69s-11.24-.2-16.86-.13c-3.16,0-6.33.21-9.49.26-.1,0-.11.15,0,.15,2.83.06,5.65.27,8.48.35s5.57.14,8.36.19c5.62.09,11.24.12,16.86.18,3.16,0,6.33,0,9.49-.1A.11.11,0,0,0,239.31,400.7Z" style="fill:#263238"></path><path d="M101.23,271.33a2.7,2.7,0,0,1-.24.55.07.07,0,0,0,0,.1c-.55,1.69-.77,3.48-1.29,5.17a8.15,8.15,0,0,1-3.13,4.47c-3.2,2.22-7,3.23-10.76,4.15a.1.1,0,0,0,0,.2,20.43,20.43,0,0,0,6.35-1,16.62,16.62,0,0,0,5.35-2.56,8.38,8.38,0,0,0,3.06-4.62,27.37,27.37,0,0,0,.54-3,22.58,22.58,0,0,0,.37-3.47A.16.16,0,0,0,101.23,271.33Z" style="fill:#263238"></path><path d="M126.86,283a45.8,45.8,0,0,0-7.41,2.83l-.12.05a1.74,1.74,0,0,0,.11-.45l.09-.54c0-.18,0-.37.06-.56l0-.28v0a2.24,2.24,0,0,0,1.59-.82,6,6,0,0,0,1-2.33c.28-1.05.53-2.11.77-3.18s.47-2.38.66-3.58a24.76,24.76,0,0,0,.41-3.54.17.17,0,0,0-.34,0c-.27,1.09-.4,2.22-.6,3.33s-.45,2.21-.7,3.31-.53,2.2-.83,3.29-.55,2.38-1.67,2.69c-2.31.66-1.27-4.53-1.17-5.55.23-2.35.38-4.75.79-7.08a.08.08,0,0,0-.15,0c-.5,2.14-1.08,4.24-1.46,6.41-.19,1.06-.32,2.14-.44,3.21a5,5,0,0,0,.22,2.76,2,2,0,0,0,1.53,1.13l-.08.24c0,.18-.11.35-.15.52l-.12.53a1.28,1.28,0,0,0-.08.64.27.27,0,0,0,.12.14c-1,.42-2,.85-3,1.31a25.27,25.27,0,0,0-3.55,1.72c-.14.06,0,.25.1.22a25.08,25.08,0,0,0,3.72-1.35c1.24-.47,2.46-1,3.68-1.48a47.54,47.54,0,0,0,7-3.28A.12.12,0,0,0,126.86,283Z" style="fill:#263238"></path><path d="M192.73,377.29c-2.56-6.31-5.25-12.58-8.11-18.76s-5.87-12.33-9-18.38c-1.37-2.63-2.62-5.3-5.38-6.71a19.17,19.17,0,0,0-3.95-1.41c-1.61-.44-3.22-.85-4.83-1.25-13.13-3.32-26.4-6.06-39.43-9.71-6.52-1.83-13-3.89-19.29-6.36-5.12-2-10.23-4.32-14.49-7.85a23.52,23.52,0,0,1-5.2-5.92c-1.62-2.71-5.39-10.07.2-32.35,0-.1-.11-.17-.13-.08-4.46,15.88-3.52,24.52-2.71,27.67a20.33,20.33,0,0,0,3.66,7.39c3.3,4.21,8,7.13,12.73,9.42a133.59,133.59,0,0,0,17.67,6.62c13,4.06,26.32,6.92,39.56,10.06,3.29.78,6.57,1.57,9.83,2.41,2.93.75,6.34,1.34,8.44,3.72a19.68,19.68,0,0,1,2.44,4c.79,1.52,1.56,3,2.33,4.56q2.37,4.68,4.63,9.41,8.92,18.66,16.25,38c.61,1.6,1.2,3.2,1.82,4.8a.1.1,0,0,0,.19-.06C197.8,390.06,195.3,383.65,192.73,377.29Z" style="fill:#263238"></path><path d="M178.39,362.8a185.58,185.58,0,0,0-6.87-17.26c-1.28-2.53-2.73-5.54-5.53-6.62a41.09,41.09,0,0,0-4.59-1.27c-1.63-.41-3.25-.81-4.88-1.19q-4.89-1.17-9.81-2.19a111.64,111.64,0,0,0-11-1.89c-.09,0-.09.13,0,.16,3.13.91,6.33,1.6,9.5,2.36s6.2,1.47,9.29,2.23,6.35,1.57,9.51,2.4a7.86,7.86,0,0,1,3.71,2c1.42,1.4,9.67,20.3,10.46,21.84C178.36,363.78,178.52,363.27,178.39,362.8Z" style="fill:#263238"></path><path d="M197.69,307.62a98.66,98.66,0,0,0-17.57-8.4c-4.61-1.64-9.35-2.9-14.07-4.18q-14.55-4-29.43-6.63-4.23-.77-8.48-1.43a75.19,75.19,0,0,0-8.33-1,.09.09,0,0,0,0,.17c2.45.6,5,1,7.46,1.4s4.91.87,7.36,1.34c4.9.93,9.78,2,14.64,3.06,9.63,2.19,19.22,4.76,28.69,7.55,7.88,2.32,15.32,6.61,19.55,8.51A.21.21,0,0,0,197.69,307.62Z" style="fill:#263238"></path><path d="M122.23,174.75c-1-4.57-6.08-14.91-16.11-12.89-14.32,2.89-16.39,30.48-23.52,39.08-12.91,15.58-13.33,31-2.75,33.47,11.86,2.76,23.4-10,23-37.5-.27-17.22,4.58-24.85,8-24.34s5.3,4.86,5.3,4.86Z" style="fill:#263238"></path><path d="M121.75,173a28,28,0,0,0-2.87-6.06,16.49,16.49,0,0,0-4.68-4.92,11.23,11.23,0,0,0-6.62-1.92,14.45,14.45,0,0,0-6.65,1.85,16,16,0,0,0-5,4.69,29.73,29.73,0,0,0-3.21,6,60.08,60.08,0,0,0-3.32,13A88.61,88.61,0,0,1,93.59,173a31.79,31.79,0,0,1,3.27-5.67,15.19,15.19,0,0,1,4.7-4.3,13.42,13.42,0,0,1,6.07-1.75,10.45,10.45,0,0,1,6,1.56,16.85,16.85,0,0,1,4.71,4.44,28.68,28.68,0,0,1,1.83,2.76C120.75,171,121.27,172,121.75,173Z" style="fill:#263238"></path><path d="M102.9,187.42c-.15,2.73,0,5.47.06,8.2s.17,5.45.17,8.17-.08,5.43-.35,8.11a41.27,41.27,0,0,1-1.46,7.92,21,21,0,0,1-3.49,7.1,22.77,22.77,0,0,1-6,5.19,17,17,0,0,1-7.55,2.42,15.5,15.5,0,0,1-4-.21,14.9,14.9,0,0,1-2-.52,7,7,0,0,1-1.84-.85,10.11,10.11,0,0,0,3.73,1.69,15.75,15.75,0,0,0,4.11.51,17,17,0,0,0,4.14-.59A18.33,18.33,0,0,0,92.32,233a22,22,0,0,0,3.46-2.36l.79-.68.76-.71a16.32,16.32,0,0,0,1.44-1.56,22.06,22.06,0,0,0,3.76-7.48,52.64,52.64,0,0,0,1.58-16.41c-.08-2.74-.3-5.47-.54-8.19S103,190.15,102.9,187.42Z" style="fill:#263238"></path><path d="M123.05,174.83c.15-1.27-.61-3-1.41-3.31s-7.18,1.74-7.85,3.27S115.7,178,115.7,178Z" style="fill:#FFC727"></path><path d="M113.48,214.86c4.84,8.25,34.92,41.69,55.89,39,7.12-.91,4.73-29.48-11-56.81-.46-.81-21.62,3.95-21.11,9.09.05.55,4.59,13.88,5.08,13.49s-8.23-4.11-22.75-10.1C112.75,206.71,110.58,209.93,113.48,214.86Z" style="fill:#d3766a"></path><path d="M142.21,218.49c2.32,6.83,4.78,13.61,7.43,20.32.73,1.87,1.45,3.74,2.18,5.62,0,.06-.08.1-.11,0a102.51,102.51,0,0,1-4.49-9.84c-1.31-3.32-2.57-6.71-3.55-10.15-.57-2-1.1-4-1.59-6C142.06,218.44,142.18,218.41,142.21,218.49Z" style="fill:#263238"></path><path d="M160.82,202.16s-3.36-8.65-8.53-13.38c-3.58-3.26-8.62-8.53-22.44-4.3-3.28,1-8.61,6.57-6.54,8.49s6.31-3.92,11.14-4.47c0,0-4.48,5.1-3.34,8.35a61.64,61.64,0,0,0,3.57,8.27,14,14,0,0,0,1.6-.53s1.16,3,5.66,4.95Z" style="fill:#d3766a"></path><path d="M148.38,186.21c-2.54-.06-7.92-.09-12.33,1.42-4.9,1.67-13.89,6.21-12.62,9.81.93,2.65,4.52,1.21,4.52,1.21s-3.32,2.66-2,4.87c1.25,2,4,.73,4,.73s-1.73,2-.16,3.66c1.89,2.05,6.42-3.35,10.12-2.93C140.74,205.08,148.38,186.21,148.38,186.21Z" style="fill:#d3766a"></path><path d="M138.68,192.51a20.62,20.62,0,0,0-10.71,6c-.07.08,0,.17,0,.11a50.58,50.58,0,0,1,10.69-6.1S138.7,192.51,138.68,192.51Z" style="fill:#263238"></path><path d="M136.31,187.14a20.66,20.66,0,0,0-10.71,6c-.07.08,0,.17,0,.11a51,51,0,0,1,10.69-6.11S136.34,187.13,136.31,187.14Z" style="fill:#263238"></path><path d="M140.22,197.5a23.24,23.24,0,0,0-10.33,6.67c-.07.08,0,.18,0,.11a54.57,54.57,0,0,1,10.31-6.73S140.25,197.5,140.22,197.5Z" style="fill:#263238"></path><path d="M136.64,205.64a9.79,9.79,0,0,1,5.81-1.62.06.06,0,0,1,0,.12c-1.67.37-3,.75-3.05.76,2.12,2.56,5.87,3.61,7.48,3.91.1,0,.07.17,0,.17-3,0-6.22-1.34-7.67-4a25.47,25.47,0,0,1-2.52.75S136.61,205.67,136.64,205.64Z" style="fill:#263238"></path><path d="M142.19,218.22l-18.48,10.56a161,161,0,0,1-10.85-12.61c-4.6-6.44-3.28-9.66,6.15-7.43C125.33,210.23,142.19,218.22,142.19,218.22Z" style="fill:#FFC727"></path><path d="M115.69,213.27a.44.44,0,1,1-.44-.43A.44.44,0,0,1,115.69,213.27Zm6.15-.43a.43.43,0,1,0,.43.43A.43.43,0,0,0,121.84,212.84Zm6.59,0a.43.43,0,1,0,.43.43A.43.43,0,0,0,128.43,212.84ZM112,208.3a2.15,2.15,0,0,0-.38.15h0a.38.38,0,0,0-.1.27.43.43,0,1,0,.86,0A.41.41,0,0,0,112,208.3Zm6.13.25a.47.47,0,0,0,0,.17.43.43,0,0,0,.86,0Zm3.69,13.31a.44.44,0,1,0,.43.44A.44.44,0,0,0,121.84,221.86Zm6.59,0a.44.44,0,1,0,.43.44A.44.44,0,0,0,128.43,221.86Zm6.59,0a.44.44,0,0,0-.43.44.36.36,0,0,0,.07.22l.74-.42A.42.42,0,0,0,135,221.86Zm-16.47-4.54a.43.43,0,1,0,.43.43A.43.43,0,0,0,118.55,217.32Zm6.59,0a.43.43,0,1,0,.43.43A.44.44,0,0,0,125.14,217.32Zm6.58,0a.43.43,0,1,0,.44.43A.43.43,0,0,0,131.72,217.32Zm6.59,0a.43.43,0,1,0,.43.43A.43.43,0,0,0,138.31,217.32Zm-13.17,9a.44.44,0,1,0,.43.43A.44.44,0,0,0,125.14,226.34Z" style="fill:#fff"></path><path d="M126,227.5c-.22.08-2.15,1.1-2.27,1.21-.85-.93-1.68-1.88-2.53-2.8-.43-.46-.87-.92-1.31-1.37s-1-1.08-1.44-1.51c-.07-.07-.16,0-.1.08.5.63.9,1.07,1.33,1.61s.8.95,1.21,1.41c.88,1,1.77,2.06,2.69,3a22.25,22.25,0,0,0,2.46-1.56S126,227.49,126,227.5Z" style="fill:#263238"></path><path d="M139.31,217.54c-2.79,1.35-5.56,2.74-8.27,4.25-1.36.76-2.7,1.53-4,2.33s-2.57,1.72-3.91,2.5c-.07,0,0,.16.07.11,1.29-.84,2.72-1.52,4-2.29l4-2.3c2.7-1.51,5.39-3,8.12-4.49C139.46,217.61,139.39,217.51,139.31,217.54Z" style="fill:#263238"></path><path d="M134,269.89s-19.39,4.6-56.13,1.42c0,0,14.37-45.85,25.94-58.21,5.26-5.62,10.41-4.76,14.77-1.15,1.08.91,14.57,18,15.72,24,1,5.28-3.28,11.13-3.28,11.13Z" style="fill:#FFC727"></path><path d="M125.66,221c1.69,2.7,3.53,5.3,5.23,8a37.25,37.25,0,0,1,2.37,4.1,10.5,10.5,0,0,1,1.16,4.54,8.07,8.07,0,0,0-.09-2.4,11,11,0,0,0-.72-2.3,31.15,31.15,0,0,0-2.3-4.21c-.81-1.22-1.64-2.44-2.5-3.62-.14-.42-.31-.83-.47-1.24a14.19,14.19,0,0,0-.88-1.74,14.73,14.73,0,0,0,.65,1.83c.08.17.15.33.22.5Q127,222.72,125.66,221Z" style="fill:#263238"></path><path d="M109.1,213.27a.44.44,0,1,1-.43-.43A.43.43,0,0,1,109.1,213.27Zm6.15-.43a.43.43,0,1,0,.44.43A.43.43,0,0,0,115.25,212.84Zm-3.54-3.78a.38.38,0,0,0,.25.09.34.34,0,0,0,.22-.07Zm-9.63,12.8a.44.44,0,1,0,.43.44A.44.44,0,0,0,102.08,221.86Zm6.59,0a.44.44,0,1,0,.43.44A.44.44,0,0,0,108.67,221.86Zm6.58,0a.44.44,0,1,0,.44.44A.44.44,0,0,0,115.25,221.86Zm6.59,0a.44.44,0,1,0,.43.44A.44.44,0,0,0,121.84,221.86Zm-16.47-4.54a.43.43,0,1,0,.43.43A.43.43,0,0,0,105.37,217.32Zm6.59,0a.43.43,0,1,0,.43.43A.43.43,0,0,0,112,217.32Zm6.59,0a.43.43,0,1,0,.43.43A.43.43,0,0,0,118.55,217.32ZM95.49,230.89a.43.43,0,1,0,.43.43A.43.43,0,0,0,95.49,230.89Zm6.59,0a.43.43,0,1,0,.43.43A.43.43,0,0,0,102.08,230.89Zm6.59,0a.43.43,0,1,0,.43.43A.44.44,0,0,0,108.67,230.89Zm6.58,0a.43.43,0,1,0,.44.43A.43.43,0,0,0,115.25,230.89Zm6.59,0a.43.43,0,1,0,.43.43A.43.43,0,0,0,121.84,230.89Zm6.59,0a.43.43,0,1,0,.43.43A.43.43,0,0,0,128.43,230.89Zm-29.65-4.55a.44.44,0,1,0,.44.43A.44.44,0,0,0,98.78,226.34Zm6.59,0a.44.44,0,1,0,.43.43A.43.43,0,0,0,105.37,226.34Zm6.59,0a.44.44,0,1,0,.43.43A.43.43,0,0,0,112,226.34Zm6.59,0a.44.44,0,1,0,.43.43A.43.43,0,0,0,118.55,226.34Zm6.59,0a.44.44,0,1,0,.43.43A.44.44,0,0,0,125.14,226.34ZM89.19,240l-.3.75h0a.43.43,0,0,0,.43-.43A.42.42,0,0,0,89.19,240Zm6.3-.11a.43.43,0,0,0-.43.43.43.43,0,1,0,.86,0A.43.43,0,0,0,95.49,239.92Zm6.59,0a.43.43,0,0,0-.43.43.43.43,0,1,0,.86,0A.43.43,0,0,0,102.08,239.92Zm6.59,0a.44.44,0,0,0-.44.43.44.44,0,0,0,.87,0A.43.43,0,0,0,108.67,239.92Zm6.58,0a.43.43,0,0,0-.43.43.44.44,0,0,0,.87,0A.44.44,0,0,0,115.25,239.92Zm6.59,0a.43.43,0,0,0-.43.43.43.43,0,1,0,.86,0A.43.43,0,0,0,121.84,239.92Zm6.59,0a.43.43,0,0,0-.43.43.43.43,0,0,0,.86,0A.43.43,0,0,0,128.43,239.92ZM92.2,235.37a.43.43,0,1,0,.43.43A.44.44,0,0,0,92.2,235.37Zm6.58,0a.43.43,0,1,0,.44.43A.43.43,0,0,0,98.78,235.37Zm6.59,0a.43.43,0,1,0,.43.43A.43.43,0,0,0,105.37,235.37Zm6.59,0a.43.43,0,1,0,.43.43A.43.43,0,0,0,112,235.37Zm6.59,0a.43.43,0,1,0,.43.43A.43.43,0,0,0,118.55,235.37Zm6.59,0a.43.43,0,1,0,.43.43A.44.44,0,0,0,125.14,235.37Zm6.58,0a.43.43,0,1,0,.44.43A.43.43,0,0,0,131.72,235.37ZM88.9,248.94a.43.43,0,1,0,.43.43A.43.43,0,0,0,88.9,248.94Zm6.59,0a.43.43,0,1,0,.43.43A.43.43,0,0,0,95.49,248.94Zm6.59,0a.43.43,0,1,0,.43.43A.43.43,0,0,0,102.08,248.94Zm6.59,0a.43.43,0,1,0,.43.43A.44.44,0,0,0,108.67,248.94Zm6.58,0a.43.43,0,1,0,.44.43A.43.43,0,0,0,115.25,248.94Zm6.59,0a.43.43,0,1,0,.43.43A.43.43,0,0,0,121.84,248.94Zm6.59,0a.43.43,0,1,0,.43.43A.43.43,0,0,0,128.43,248.94ZM92.2,244.39a.44.44,0,1,0,.43.43A.44.44,0,0,0,92.2,244.39Zm6.58,0a.44.44,0,1,0,.44.43A.44.44,0,0,0,98.78,244.39Zm6.59,0a.44.44,0,1,0,.43.43A.43.43,0,0,0,105.37,244.39Zm6.59,0a.44.44,0,1,0,.43.43A.43.43,0,0,0,112,244.39Zm6.59,0a.44.44,0,1,0,.43.43A.43.43,0,0,0,118.55,244.39Zm6.59,0a.44.44,0,1,0,.43.43A.44.44,0,0,0,125.14,244.39Zm6.58,0a.44.44,0,1,0,.44.43A.44.44,0,0,0,131.72,244.39ZM82.35,258c-.1.26-.19.51-.28.76a.36.36,0,0,0,.24.09.44.44,0,0,0,.44-.43A.42.42,0,0,0,82.35,258Zm6.55,0a.43.43,0,1,0,.43.43A.43.43,0,0,0,88.9,258Zm6.59,0a.43.43,0,1,0,.43.43A.43.43,0,0,0,95.49,258Zm6.59,0a.43.43,0,1,0,.43.43A.43.43,0,0,0,102.08,258Zm6.59,0a.43.43,0,1,0,.43.43A.44.44,0,0,0,108.67,258Zm6.58,0a.43.43,0,1,0,.44.43A.43.43,0,0,0,115.25,258Zm6.59,0a.43.43,0,1,0,.43.43A.43.43,0,0,0,121.84,258Zm6.59,0a.43.43,0,1,0,.43.43A.43.43,0,0,0,128.43,258Zm-42.82-4.55a.43.43,0,1,0,.43.43A.43.43,0,0,0,85.61,253.42Zm6.59,0a.43.43,0,1,0,.43.43A.44.44,0,0,0,92.2,253.42Zm6.58,0a.43.43,0,1,0,.44.43A.43.43,0,0,0,98.78,253.42Zm6.59,0a.43.43,0,1,0,.43.43A.43.43,0,0,0,105.37,253.42Zm6.59,0a.43.43,0,1,0,.43.43A.43.43,0,0,0,112,253.42Zm6.59,0a.43.43,0,1,0,.43.43A.43.43,0,0,0,118.55,253.42Zm6.59,0a.43.43,0,1,0,.43.43A.44.44,0,0,0,125.14,253.42Zm6.68,0a.16.16,0,0,0-.1,0,.43.43,0,0,0,0,.86.46.46,0,0,0,.2-.05ZM82.31,267a.43.43,0,1,0,.44.43A.43.43,0,0,0,82.31,267Zm6.59,0a.43.43,0,1,0,.43.43A.43.43,0,0,0,88.9,267Zm6.59,0a.43.43,0,1,0,.43.43A.43.43,0,0,0,95.49,267Zm6.59,0a.43.43,0,1,0,.43.43A.43.43,0,0,0,102.08,267Zm6.59,0a.43.43,0,1,0,.43.43A.44.44,0,0,0,108.67,267Zm6.58,0a.43.43,0,1,0,.44.43A.43.43,0,0,0,115.25,267Zm6.59,0a.43.43,0,1,0,.43.43A.43.43,0,0,0,121.84,267Zm6.59,0a.43.43,0,1,0,.43.43A.43.43,0,0,0,128.43,267Zm-42.82-4.55a.44.44,0,1,0,.43.44A.44.44,0,0,0,85.61,262.44Zm6.59,0a.44.44,0,1,0,.43.44A.44.44,0,0,0,92.2,262.44Zm6.58,0a.44.44,0,1,0,.44.44A.44.44,0,0,0,98.78,262.44Zm6.59,0a.44.44,0,1,0,.43.44A.44.44,0,0,0,105.37,262.44Zm6.59,0a.44.44,0,1,0,.43.44A.44.44,0,0,0,112,262.44Zm6.59,0a.44.44,0,1,0,.43.44A.44.44,0,0,0,118.55,262.44Zm6.59,0a.44.44,0,1,0,.43.44A.44.44,0,0,0,125.14,262.44Zm6.58,0a.44.44,0,1,0,.44.44A.44.44,0,0,0,131.72,262.44Zm-46.11,9a.41.41,0,0,0-.42.39l.85.05h0A.43.43,0,0,0,85.61,271.47Zm6.59,0a.44.44,0,0,0-.44.43.4.4,0,0,0,.14.31l.56,0a.4.4,0,0,0,.17-.33A.43.43,0,0,0,92.2,271.47Zm6.58,0a.43.43,0,1,0,.44.43A.43.43,0,0,0,98.78,271.47Zm6.59,0a.43.43,0,1,0,.43.43A.43.43,0,0,0,105.37,271.47Zm6.59,0a.43.43,0,0,0-.43.43.41.41,0,0,0,.2.36h0l.47,0a.39.39,0,0,0,.18-.34A.43.43,0,0,0,112,271.47Zm6.59,0a.43.43,0,0,0-.43.43h0l.85-.06A.42.42,0,0,0,118.55,271.47Z" style="fill:#fff"></path><path d="M101.83,215.68c-9.55,16.22-21.88,43.2-14.37,48,12.36,7.84,45.8,9.13,53.43,9.12,3.3,0,7.2-22,4.7-24.5s-37.41-.18-37.91-2.28c-.29-1.19,1.26-11.89,3.07-25.18C112.84,205.47,104.56,211,101.83,215.68Z" style="fill:#d3766a"></path><path d="M139.7,247.2s9.94-1.29,16.48-1.83c3.64-.3,9.95-.26,12.73.74,4.16,1.51,20.6,10.45,18.52,14.48-1.89,3.66-15-5.82-15-5.82s14.12,8.39,11,12.37-16.51-8.71-16.51-8.71,14.31,8.95,10.48,12.55c-2.89,2.72-15.7-8.08-15.7-8.08s12.25,7.77,9.39,10.7c-3.15,3.23-15.6-6-15.6-6-8.5,6.22-15.09,5.71-19.73,4.78C134.63,272.16,139.7,247.2,139.7,247.2Z" style="fill:#d3766a"></path><path d="M167.7,251.55c1.69.93,3.41,1.85,5,2.93s3.17,2.2,4.67,3.42a32.53,32.53,0,0,1,5.38,5.29c-3.07-3.28-8.76-7.21-10.36-8.28s-3.15-2.22-4.76-3.3C167.61,251.59,167.66,251.53,167.7,251.55Z" style="fill:#263238"></path><path d="M163.72,257.28c2.11,1.28,4.25,2.46,6.31,3.83s3.87,2.84,5.81,4.34c.15.11,0,.16-.11.05-2-1.43-4-2.58-6-4s-4-2.87-6.06-4.19C163.65,257.31,163.69,257.26,163.72,257.28Z" style="fill:#263238"></path><path d="M159.42,261.58a55.76,55.76,0,0,1,9.2,6.6c.14.12,0,.16-.16.05-3-2.26-5.37-4-9.1-6.53C159.3,261.66,159.35,261.54,159.42,261.58Z" style="fill:#263238"></path><path d="M138,247.26q6.5-.82,13-1.52c4.14-.45,8.41-1.05,12.58-.68a21.82,21.82,0,0,1,6.7,1.61c.09,0,0,.17-.07.14a35,35,0,0,0-12.52-1.1c-4.14.24-8.28.73-12.41,1.14-2.42.23-4.84.41-7.26.59A.09.09,0,0,1,138,247.26Z" style="fill:#263238"></path><path d="M89.62,236.26l21.11-2.69A160.27,160.27,0,0,0,111.8,217c-.2-7.91-3.19-9.69-9.38-2.22C98.27,219.74,89.62,236.26,89.62,236.26Z" style="fill:#FFC727"></path><path d="M109.1,213.27a.44.44,0,1,1-.43-.43A.43.43,0,0,1,109.1,213.27Zm-7,8.59a.44.44,0,1,0,.43.44A.44.44,0,0,0,102.08,221.86Zm6.59,0a.44.44,0,1,0,.43.44A.44.44,0,0,0,108.67,221.86Zm-3.3-4.54a.43.43,0,1,0,.43.43A.43.43,0,0,0,105.37,217.32Zm6.43,0a.43.43,0,0,0,0,.8C111.81,217.88,111.81,217.61,111.8,217.35ZM95.49,230.89a.43.43,0,1,0,.43.43A.43.43,0,0,0,95.49,230.89Zm6.59,0a.43.43,0,1,0,.43.43A.43.43,0,0,0,102.08,230.89Zm6.59,0a.43.43,0,1,0,.43.43A.44.44,0,0,0,108.67,230.89Zm-9.89-4.55a.44.44,0,1,0,.44.43A.44.44,0,0,0,98.78,226.34Zm6.59,0a.44.44,0,1,0,.43.43A.43.43,0,0,0,105.37,226.34Zm-13.17,9a.44.44,0,0,0-.44.43.29.29,0,0,0,0,.18l.81-.1a.19.19,0,0,0,0-.08A.43.43,0,0,0,92.2,235.37Z" style="fill:#fff"></path><path d="M108.16,233.91c.22-.07,2.38-.42,2.54-.4.11-1.25.21-2.51.33-3.76.07-.62.14-1.25.22-1.87s.16-1.48.24-2.09c0-.09.14-.09.13,0,0,.8-.07,1.4-.09,2.09s-.07,1.24-.12,1.86c-.11,1.3-.17,2.7-.35,4a22,22,0,0,1-2.9.24A0,0,0,0,1,108.16,233.91Z" style="fill:#263238"></path><path d="M91.5,234c3-.6,6.1-1.16,9.17-1.59,1.54-.21,3.07-.4,4.61-.56s3.1-.17,4.63-.36a.07.07,0,1,1,0,.13c-1.53.11-3.07.42-4.61.61l-4.61.6c-3.06.41-6.13.82-9.19,1.3C91.43,234.14,91.42,234,91.5,234Z" style="fill:#263238"></path><path d="M110.09,210.84c0,1,3.53,8.19,8,8.8,1.46.2,2.89-7.73,2.89-7.73l.24-.56,3.35-7.85-8.48-7.95-1.24-1.08s-.78,2.21-1.71,5c-.05.13-.09.26-.13.4s-.12.3-.16.44c-.15.41-.3.83-.43,1.25s-.21.63-.31,1-.21.66-.31,1A55,55,0,0,0,110.09,210.84Z" style="fill:#d3766a"></path><path d="M113.15,199.44a17.1,17.1,0,0,0,8.08,11.91l3.35-7.85-8.48-7.95-1.24-1.08S114.08,196.68,113.15,199.44Z" style="fill:#263238"></path><path d="M138.62,193.58c-1.85,14.87-11,15.44-14.17,15-2.9-.37-12.77-2-12.46-17s7.8-18.82,14.5-18.33S140.47,178.72,138.62,193.58Z" style="fill:#d3766a"></path><path d="M125.75,208.6a11.8,11.8,0,0,0,5.64-1.67,13.52,13.52,0,0,0,3.71-3.75c2.16-3.14,2.91-6.94,3.24-10.67.2-2.27.22-4.54.31-6.82,0-.17.24-.14.25,0,.27,4.24.32,8.59-.86,12.71a16.64,16.64,0,0,1-6.06,8.94,10,10,0,0,1-6.24,1.41A.08.08,0,0,1,125.75,208.6Z" style="fill:#263238"></path><path d="M136.84,190.75c-.34-.09-.64-.23-1-.35a1.67,1.67,0,0,1-.92-.56.52.52,0,0,1,.1-.64,1.32,1.32,0,0,1,1.33-.12,2,2,0,0,1,1.11.86A.57.57,0,0,1,136.84,190.75Z" style="fill:#263238"></path><path d="M126.68,189.23c.36,0,.69,0,1-.06a1.73,1.73,0,0,0,1-.27.53.53,0,0,0,.09-.64,1.32,1.32,0,0,0-1.24-.5,2,2,0,0,0-1.31.5A.57.57,0,0,0,126.68,189.23Z" style="fill:#263238"></path><path d="M128.5,193.21s-.09,0-.09.08c-.09,1-.37,2.17-1.33,2.39a0,0,0,0,0,0,.06C128.22,195.72,128.57,194.19,128.5,193.21Z" style="fill:#263238"></path><path d="M127.73,192c-1.62-.32-2.15,2.93-.65,3.23S129.08,192.32,127.73,192Z" style="fill:#263238"></path><path d="M127.06,192.11c-.31.14-.65.42-1,.4s-.65-.42-.85-.79c0,0-.06,0-.07,0a1.21,1.21,0,0,0,.68,1.5c.6.19,1.12-.29,1.38-.89C127.26,192.24,127.19,192.06,127.06,192.11Z" style="fill:#263238"></path><path d="M134.13,193.91s.07.06.06.1c-.2,1-.27,2.18.59,2.67,0,0,0,.07,0,.06C133.67,196.39,133.78,194.83,134.13,193.91Z" style="fill:#263238"></path><path d="M135.21,193c1.63.15,1.21,3.41-.31,3.27S133.83,192.89,135.21,193Z" style="fill:#263238"></path><path d="M135.86,193.32c.23.21.45.55.75.61s.67-.24.94-.55c0,0,0,0,0,0-.07.63-.36,1.25-1,1.29s-.9-.55-1-1.19C135.65,193.4,135.76,193.24,135.86,193.32Z" style="fill:#263238"></path><path d="M127,201.46c.19.28.36.65.71.76a2.69,2.69,0,0,0,1.13,0s.06,0,0,.06a1.36,1.36,0,0,1-1.38.28,1.09,1.09,0,0,1-.6-1.05C126.93,201.42,127,201.42,127,201.46Z" style="fill:#263238"></path><path d="M131.19,200.4a4.25,4.25,0,0,1-1.77,1.14,1.86,1.86,0,0,1-1.14,0c-.8-.29-.76-1-.55-1.67a4.56,4.56,0,0,1,.45-1A5.43,5.43,0,0,0,131.19,200.4Z" style="fill:#263238"></path><path d="M129.42,201.54a1.86,1.86,0,0,1-1.14,0c-.8-.29-.76-1-.55-1.67A1.94,1.94,0,0,1,129.42,201.54Z" style="fill:#ff9cbd"></path><path d="M131.8,198.45s0,1.54-.12,2.25c0,.06-.19.07-.43.05h0a3.41,3.41,0,0,1-3.09-1.75.08.08,0,0,1,.12-.09,5.09,5.09,0,0,0,2.95,1.35c.08-.19,0-2.63.06-2.62a5.91,5.91,0,0,1,1.56.61c.13-3.21-.25-6.4-.07-9.59a.1.1,0,0,1,.19,0,51.07,51.07,0,0,1,.51,10.32C133.45,199.37,132.07,198.61,131.8,198.45Z" style="fill:#263238"></path><path d="M113,193c1.63,0,6.25-4,7.06-11.87,0,0-1.22,7-1.84,8s2.59-2.31,3.33-8.61a25.46,25.46,0,0,0,6.19,3.93c2.91,1.1,4.74,1.23,5,1s-4-2-5.1-3.44c0,0,7.61,4.39,11.25,5,.42.07,1.69-8.59-3.64-12.78s-14.65-1-17.26,1.12c0,0-2.87.16-6.31,4.07S111.19,192.9,113,193Z" style="fill:#263238"></path><path d="M124.94,197.73a4.7,4.7,0,1,1,5.89-4.51h0a4.7,4.7,0,0,1-4.74,4.66A4.83,4.83,0,0,1,124.94,197.73Zm2.23-8.49a3.73,3.73,0,0,0-1-.13,4,4,0,1,0,1,.13Z" style="fill:#FFC727"></path><path d="M135.63,199.18c-1.74-.46-2.85-2.66-2.51-5.09a5.63,5.63,0,0,1,1.44-3.11,3.14,3.14,0,0,1,2.68-1,3.1,3.1,0,0,1,2.29,1.75,5.64,5.64,0,0,1,.52,3.39c-.36,2.57-2.21,4.44-4.12,4.17Zm1.76-8.58-.23,0a2.53,2.53,0,0,0-2.15.87,5,5,0,0,0-1.27,2.76c-.31,2.23.7,4.22,2.28,4.44s3.09-1.41,3.41-3.63a5,5,0,0,0-.46-3A2.59,2.59,0,0,0,137.39,190.6Z" style="fill:#FFC727"></path><path d="M130.6,193.73l-.33-.53c.79-.49,2.53-1.06,3.5.32l-.52.36C132.39,192.64,130.67,193.69,130.6,193.73Z" style="fill:#FFC727"></path><path d="M109.69,192l-.51-.36c.17-.24,1.7-2.34,3.12-2.37s9.56,1.94,9.91,2l-.15.61c-2.36-.56-8.72-2-9.75-2S110.1,191.42,109.69,192Z" style="fill:#FFC727"></path><path d="M111.28,197.14a3.47,3.47,0,0,0,.64.32,2.47,2.47,0,0,0,1.59.07,2.38,2.38,0,0,0,.64-.31,3,3,0,0,0,.74-.7l0-4.09s-2.23-5.25-4.54-4.56S109,195.71,111.28,197.14Z" style="fill:#d3766a"></path><path d="M110.7,189.91a0,0,0,1,0,0,.06,6.43,6.43,0,0,1,2.4,4.61,1.41,1.41,0,0,0-2-.81s0,.1,0,.1a1.55,1.55,0,0,1,1.56.89,7.43,7.43,0,0,1,.51,1.53c.05.17.34.15.32,0v0C114,194,113,190.63,110.7,189.91Z" style="fill:#263238"></path><path d="M111.61,196.56a.71.71,0,0,0,.69.71.7.7,0,0,0,.7-.69.69.69,0,0,0-.68-.7A.69.69,0,0,0,111.61,196.56Z" style="fill:#fff"></path><path d="M110.44,195.24a.49.49,0,0,0,.48.5.5.5,0,0,0,.5-.49.48.48,0,0,0-.49-.49A.48.48,0,0,0,110.44,195.24Z" style="fill:#fff"></path></g><g id="freepik--Desk--inject-134"><rect x="39.68" y="269.13" width="278.16" height="8.16" style="fill:#37474f"></rect><rect x="44.29" y="277.3" width="268.93" height="3.37" style="fill:#263238"></rect><rect x="56.03" y="280.67" width="37.79" height="162.34" style="fill:#37474f"></rect><rect x="56.04" y="280.67" width="37.79" height="18.03" style="fill:#263238"></rect><rect x="263.69" y="280.67" width="37.79" height="162.34" style="fill:#37474f"></rect><rect x="263.7" y="280.67" width="37.79" height="18.03" style="fill:#263238"></rect></g><g id="freepik--Books--inject-134"><rect x="40.36" y="250.6" width="44.71" height="7.62" style="fill:#455a64"></rect><rect x="76.17" y="250.6" width="4.17" height="7.62" style="fill:#ebebeb"></rect><rect x="49.58" y="250.6" width="4.17" height="7.62" style="fill:#ebebeb"></rect><rect x="56.6" y="250.6" width="1.62" height="7.62" style="fill:#ebebeb"></rect><rect x="42.63" y="258.22" width="55.32" height="10.92" style="fill:#FFC727"></rect><rect x="62.72" y="259.35" width="35.23" height="8.65" transform="translate(160.67 527.35) rotate(180)" style="fill:#fff"></rect><path d="M95.67,261.13c-2.75-.06-5.49-.11-8.24-.13l-8.24,0L71,261c-2.75,0-5.5.07-8.24.13q4.11.09,8.24.13l8.23,0,8.24,0C90.18,261.23,92.92,261.19,95.67,261.13Z" style="fill:#dbdbdb"></path><path d="M95.67,262.83c-2.75-.07-5.49-.11-8.24-.13l-8.24,0-8.23,0q-4.12,0-8.24.13,4.11.09,8.24.12l8.23,0,8.24,0C90.18,262.93,92.92,262.89,95.67,262.83Z" style="fill:#dbdbdb"></path><path d="M95.67,264.52c-2.75-.06-5.49-.1-8.24-.12l-8.24,0-8.23,0q-4.12,0-8.24.13c2.74.06,5.49.11,8.24.13l8.23,0,8.24,0C90.18,264.63,92.92,264.58,95.67,264.52Z" style="fill:#dbdbdb"></path><path d="M95.67,266.22c-2.75-.06-5.49-.11-8.24-.13l-8.24,0-8.23,0c-2.75,0-5.5.07-8.24.13,2.74.06,5.49.11,8.24.13l8.23,0,8.24,0C90.18,266.33,92.92,266.28,95.67,266.22Z" style="fill:#dbdbdb"></path><rect x="47.09" y="244.78" width="50.24" height="5.82" style="fill:#263238"></rect><rect x="47.09" y="245.39" width="29.51" height="4.61" style="fill:#fff"></rect><path d="M49,249.05l6.9,0H69.7l6.91,0L69.7,249l-6.9,0-6.9,0Z" style="fill:#dbdbdb"></path><path d="M49,248.14q3.45,0,6.9.05l6.9,0,6.9,0q3.47,0,6.91-.05l-6.91,0H55.9Z" style="fill:#dbdbdb"></path><path d="M49,247.24l6.9,0H69.7l6.91,0-6.91-.05-6.9,0-6.9,0Z" style="fill:#dbdbdb"></path><path d="M49,246.33q3.45,0,6.9,0l6.9,0,6.9,0q3.47,0,6.91,0l-6.91-.05H55.9Z" style="fill:#dbdbdb"></path></g></svg>