<svg xmlns="http://www.w3.org/2000/svg" viewBox="0 0 500 500"><g id="freepik--Shadow--inject-206"><ellipse cx="250" cy="439.56" rx="172.17" ry="17.2" style="fill:#ebebeb"></ellipse></g><g id="freepik--Building--inject-206"><rect x="309.55" y="313.62" width="37.57" height="75.44" style="fill:#37474f"></rect><rect x="315.46" y="320.15" width="6.65" height="4.62" style="fill:#455a64"></rect><rect x="315.46" y="330.02" width="6.65" height="4.62" style="fill:#455a64"></rect><rect x="315.46" y="339.89" width="6.65" height="4.62" style="fill:#455a64"></rect><rect x="315.46" y="349.77" width="6.65" height="4.62" style="fill:#455a64"></rect><rect x="315.46" y="359.64" width="6.65" height="4.62" style="fill:#455a64"></rect><rect x="315.46" y="369.51" width="6.65" height="4.62" style="fill:#455a64"></rect><rect x="315.46" y="379.38" width="6.65" height="4.62" style="fill:#455a64"></rect><rect x="325.02" y="320.15" width="6.65" height="4.62" style="fill:#455a64"></rect><rect x="325.02" y="330.02" width="6.65" height="4.62" style="fill:#455a64"></rect><rect x="325.02" y="339.89" width="6.65" height="4.62" style="fill:#455a64"></rect><rect x="325.02" y="349.77" width="6.65" height="4.62" style="fill:#455a64"></rect><rect x="325.02" y="359.64" width="6.65" height="4.62" style="fill:#455a64"></rect><rect x="325.02" y="369.51" width="6.65" height="4.62" style="fill:#455a64"></rect><rect x="325.02" y="379.38" width="6.65" height="4.62" style="fill:#455a64"></rect><rect x="334.57" y="320.15" width="6.65" height="4.62" style="fill:#455a64"></rect><rect x="334.57" y="330.02" width="6.65" height="4.62" style="fill:#455a64"></rect><rect x="334.57" y="339.89" width="6.65" height="4.62" style="fill:#455a64"></rect><rect x="334.57" y="349.77" width="6.65" height="4.62" style="fill:#455a64"></rect><rect x="334.57" y="359.64" width="6.65" height="4.62" style="fill:#455a64"></rect><rect x="334.57" y="369.51" width="6.65" height="4.62" style="fill:#455a64"></rect><rect x="334.57" y="379.38" width="6.65" height="4.62" style="fill:#455a64"></rect><rect x="322.11" y="305.76" width="25.02" height="7.86" style="fill:#455a64"></rect><rect x="331.26" y="300.89" width="15.86" height="4.87" style="fill:#37474f"></rect><rect x="347.12" y="313.62" width="26.36" height="75.44" style="fill:#263238"></rect><rect x="365.38" y="378.65" width="5.41" height="4.62" transform="translate(736.16 761.91) rotate(180)" style="fill:#37474f"></rect><rect x="365.38" y="368.77" width="5.41" height="4.62" transform="translate(736.16 742.17) rotate(180)" style="fill:#37474f"></rect><rect x="365.38" y="358.9" width="5.41" height="4.62" transform="translate(736.16 722.43) rotate(180)" style="fill:#37474f"></rect><rect x="365.38" y="349.03" width="5.41" height="4.62" transform="translate(736.16 702.68) rotate(180)" style="fill:#37474f"></rect><rect x="365.38" y="339.16" width="5.41" height="4.62" transform="translate(736.16 682.94) rotate(180)" style="fill:#37474f"></rect><rect x="365.38" y="329.29" width="5.41" height="4.62" transform="translate(736.16 663.19) rotate(180)" style="fill:#37474f"></rect><rect x="365.38" y="319.41" width="5.41" height="4.62" transform="translate(736.16 643.45) rotate(180)" style="fill:#37474f"></rect><rect x="357.59" y="378.65" width="5.41" height="4.62" transform="translate(720.59 761.91) rotate(180)" style="fill:#37474f"></rect><rect x="357.59" y="368.77" width="5.41" height="4.62" transform="translate(720.59 742.17) rotate(180)" style="fill:#37474f"></rect><rect x="357.59" y="358.9" width="5.41" height="4.62" transform="translate(720.59 722.43) rotate(180)" style="fill:#37474f"></rect><rect x="357.59" y="349.03" width="5.41" height="4.62" transform="translate(720.59 702.68) rotate(180)" style="fill:#37474f"></rect><rect x="357.59" y="339.16" width="5.41" height="4.62" transform="translate(720.59 682.94) rotate(180)" style="fill:#37474f"></rect><rect x="357.59" y="329.29" width="5.41" height="4.62" transform="translate(720.59 663.19) rotate(180)" style="fill:#37474f"></rect><rect x="357.59" y="319.41" width="5.41" height="4.62" transform="translate(720.59 643.45) rotate(180)" style="fill:#37474f"></rect><rect x="349.82" y="378.65" width="5.41" height="4.62" transform="translate(705.06 761.91) rotate(180)" style="fill:#37474f"></rect><rect x="349.82" y="368.77" width="5.41" height="4.62" transform="translate(705.06 742.17) rotate(180)" style="fill:#37474f"></rect><rect x="349.82" y="358.9" width="5.41" height="4.62" transform="translate(705.06 722.43) rotate(180)" style="fill:#37474f"></rect><rect x="349.82" y="349.03" width="5.41" height="4.62" transform="translate(705.06 702.68) rotate(180)" style="fill:#37474f"></rect><rect x="349.82" y="339.16" width="5.41" height="4.62" transform="translate(705.06 682.94) rotate(180)" style="fill:#37474f"></rect><rect x="349.82" y="329.29" width="5.41" height="4.62" transform="translate(705.06 663.19) rotate(180)" style="fill:#37474f"></rect><rect x="349.82" y="319.41" width="5.41" height="4.62" transform="translate(705.06 643.45) rotate(180)" style="fill:#37474f"></rect><rect x="347.12" y="305.76" width="22.37" height="7.86" style="fill:#37474f"></rect><rect x="347.12" y="300.89" width="12.12" height="4.87" style="fill:#263238"></rect></g><g id="freepik--Location--inject-206"><path d="M336.9,97.46H347c-22.23,0-40.24,18.29-40.24,40.85s18,40.87,40.24,40.87H336.9c-22.23,0-40.24-18.29-40.24-40.87S314.67,97.46,336.9,97.46Z" style="fill:#FFC727"></path><g style="opacity:0.1"><path d="M336.9,97.46H347c-22.23,0-40.24,18.29-40.24,40.85s18,40.87,40.24,40.87H336.9c-22.23,0-40.24-18.29-40.24-40.87S314.67,97.46,336.9,97.46Z"></path></g><path d="M347,295.11H336.9c40.85-47.59,79.11-99.76,73.49-157.36-3.66-37.31-29-74.47-73.49-74.47H347c44.5,0,69.83,37.16,73.48,74.47C426.15,195.35,387.89,247.52,347,295.11Z" style="fill:#FFC727"></path><g style="opacity:0.1"><path d="M347,295.11H336.9c40.85-47.59,79.11-99.76,73.49-157.36-3.66-37.31-29-74.47-73.49-74.47H347c44.5,0,69.83,37.16,73.48,74.47C426.15,195.35,387.89,247.52,347,295.11Z"></path></g><path d="M410.38,137.75c5.63,57.6-32.63,109.77-73.48,157.37-40.8-47.6-79.06-99.77-73.44-157.37,3.66-37.31,29-74.46,73.44-74.46S406.73,100.44,410.38,137.75ZM336.9,179.18c22.28,0,40.29-18.29,40.29-40.87s-18-40.85-40.29-40.85-40.24,18.29-40.24,40.85,18,40.87,40.24,40.87" style="fill:#FFC727"></path></g><g id="freepik--Floor--inject-206"><polygon points="50.88 393.7 100.66 393.46 150.44 393.37 250 393.2 349.56 393.37 399.34 393.46 449.12 393.7 399.34 393.95 349.56 394.04 250 394.2 150.44 394.04 100.66 393.95 50.88 393.7" style="fill:#263238"></polygon><rect x="50.7" y="389.06" width="398.6" height="4.64" style="fill:#c7c7c7"></rect><path d="M62.23,389.06a13.56,13.56,0,0,1,0,4.64,12.92,12.92,0,0,1,0-4.64Z" style="fill:#263238"></path><path d="M75.64,389.06a13.56,13.56,0,0,1,0,4.64,13.56,13.56,0,0,1,0-4.64Z" style="fill:#263238"></path><path d="M89.05,389.06a13.56,13.56,0,0,1,0,4.64,13.56,13.56,0,0,1,0-4.64Z" style="fill:#263238"></path><path d="M102.46,389.06a13.56,13.56,0,0,1,0,4.64,13.56,13.56,0,0,1,0-4.64Z" style="fill:#263238"></path><path d="M115.88,389.06a13.56,13.56,0,0,1,0,4.64,12.92,12.92,0,0,1,0-4.64Z" style="fill:#263238"></path><path d="M129.29,389.06a13.56,13.56,0,0,1,0,4.64,13.56,13.56,0,0,1,0-4.64Z" style="fill:#263238"></path><path d="M142.7,389.06a13.56,13.56,0,0,1,0,4.64,13.56,13.56,0,0,1,0-4.64Z" style="fill:#263238"></path><path d="M156.11,389.06a13.56,13.56,0,0,1,0,4.64,13.56,13.56,0,0,1,0-4.64Z" style="fill:#263238"></path><path d="M169.53,389.06a13.56,13.56,0,0,1,0,4.64,12.92,12.92,0,0,1,0-4.64Z" style="fill:#263238"></path><path d="M182.94,389.06a13.56,13.56,0,0,1,0,4.64,13.56,13.56,0,0,1,0-4.64Z" style="fill:#263238"></path><path d="M196.35,389.06a13.56,13.56,0,0,1,0,4.64,13.56,13.56,0,0,1,0-4.64Z" style="fill:#263238"></path><path d="M209.76,389.06a13.56,13.56,0,0,1,0,4.64,13.56,13.56,0,0,1,0-4.64Z" style="fill:#263238"></path><path d="M223.18,389.06a13.56,13.56,0,0,1,0,4.64,12.92,12.92,0,0,1,0-4.64Z" style="fill:#263238"></path><path d="M236.59,389.06a13.56,13.56,0,0,1,0,4.64,13.56,13.56,0,0,1,0-4.64Z" style="fill:#263238"></path><path d="M250,389.06a13.56,13.56,0,0,1,0,4.64,13.56,13.56,0,0,1,0-4.64Z" style="fill:#263238"></path><path d="M263.41,389.06a13.56,13.56,0,0,1,0,4.64,13.56,13.56,0,0,1,0-4.64Z" style="fill:#263238"></path><path d="M276.83,389.06a13.56,13.56,0,0,1,0,4.64,12.92,12.92,0,0,1,0-4.64Z" style="fill:#263238"></path><path d="M290.24,389.06a13.56,13.56,0,0,1,0,4.64,13.56,13.56,0,0,1,0-4.64Z" style="fill:#263238"></path><path d="M303.65,389.06a13.56,13.56,0,0,1,0,4.64,13.56,13.56,0,0,1,0-4.64Z" style="fill:#263238"></path><path d="M317.06,389.06a13.56,13.56,0,0,1,0,4.64,13.56,13.56,0,0,1,0-4.64Z" style="fill:#263238"></path><path d="M330.47,389.06a12.92,12.92,0,0,1,0,4.64,13.56,13.56,0,0,1,0-4.64Z" style="fill:#263238"></path><path d="M343.89,389.06a13.56,13.56,0,0,1,0,4.64,13.56,13.56,0,0,1,0-4.64Z" style="fill:#263238"></path><path d="M357.3,389.06a13.56,13.56,0,0,1,0,4.64,13.56,13.56,0,0,1,0-4.64Z" style="fill:#263238"></path><path d="M370.71,389.06a13.56,13.56,0,0,1,0,4.64,13.56,13.56,0,0,1,0-4.64Z" style="fill:#263238"></path><path d="M384.12,389.06a12.92,12.92,0,0,1,0,4.64,13.56,13.56,0,0,1,0-4.64Z" style="fill:#263238"></path><path d="M397.54,389.06a13.56,13.56,0,0,1,0,4.64,13.56,13.56,0,0,1,0-4.64Z" style="fill:#263238"></path><path d="M411,389.06a13.56,13.56,0,0,1,0,4.64,11.31,11.31,0,0,1-.2-2.32A12.12,12.12,0,0,1,411,389.06Z" style="fill:#263238"></path><path d="M424.36,389.06a13.56,13.56,0,0,1,0,4.64,13.56,13.56,0,0,1,0-4.64Z" style="fill:#263238"></path><path d="M437.77,389.06a12.92,12.92,0,0,1,0,4.64,13.56,13.56,0,0,1,0-4.64Z" style="fill:#263238"></path></g><g id="freepik--Plants--inject-206"><path d="M92.45,389.06h-22s0-3.27,2.21-4.14a3,3,0,0,1,3.45.83s.88-6,4.91-6S87,384.92,87,384.92a3.09,3.09,0,0,1,3.14-1.28C92.36,383.94,92.45,389.06,92.45,389.06Z" style="fill:#37474f"></path><path d="M445.86,389.06s-.67-3.14-2-3.63a1.91,1.91,0,0,0-2.16.93s-.32-3-2.23-3.9-3.34.94-3.34.94-1.46-3.81-4.08-3.81-3.94,5.57-3.94,5.57-1.54-1.66-3.12-.72-1.58,4.62-1.58,4.62Z" style="fill:#37474f"></path><path d="M240.59,389.06s-.67-3.14-2-3.63a1.92,1.92,0,0,0-2.17.93s-.31-3-2.22-3.9-3.34.94-3.34.94-1.47-3.81-4.08-3.81-3.94,5.57-3.94,5.57-1.54-1.66-3.12-.72-1.59,4.62-1.59,4.62Z" style="fill:#37474f"></path><path d="M74.41,389.06H54.14s.67-2.86,2-3.06a2,2,0,0,1,2,1.12s-.06-4,2.45-4.66,4.61,2.84,4.61,2.84a5,5,0,0,1,3.72-1.88c2.15.13,2.69,3.45,2.69,3.45S73.55,385.72,74.41,389.06Z" style="fill:#455a64"></path><path d="M222.48,389.06H202.21s.67-2.86,2-3.06a2,2,0,0,1,2,1.12s-.06-4,2.45-4.66,4.62,2.84,4.62,2.84a5,5,0,0,1,3.72-1.88c2.14.13,2.69,3.45,2.69,3.45S221.62,385.72,222.48,389.06Z" style="fill:#455a64"></path><path d="M424.84,389.06H412.38s0-1.85,1.26-2.34a1.66,1.66,0,0,1,1.95.46s.5-3.4,2.78-3.4,3.37,2.94,3.37,2.94a1.76,1.76,0,0,1,1.78-.73C424.79,386.16,424.84,389.06,424.84,389.06Z" style="fill:#455a64"></path><path d="M272.47,389.06H260s0-1.85,1.25-2.34a1.67,1.67,0,0,1,2,.46s.5-3.4,2.78-3.4,3.37,2.94,3.37,2.94a1.76,1.76,0,0,1,1.78-.73C272.42,386.16,272.47,389.06,272.47,389.06Z" style="fill:#455a64"></path></g><g id="freepik--Character--inject-206"><path d="M220.86,442.91c-2.33.75-68.82-.1-71.33-1.74-1-.61-1.41-10.3-1.6-22v-.37c-.05-2.42-.08-4.91-.09-7.43,0-.35,0-.69,0-1l3.22-34.49,44.48.43-4.38,34.17-.06,1.36-.26,7.07,0,.73s25.31,11.7,27.88,13.8S223.19,442.16,220.86,442.91Z" style="fill:#dd6a57"></path><path d="M220.86,442.91c-2.33.75-68.82-.1-71.33-1.74-1-.61-1.41-10.3-1.6-22v-.37c-.05-2.42-.08-4.91-.09-7.43,0-.35,0-.69,0-1l43.32.11-.06,1.36-.26,7.07,0,.73s25.31,11.7,27.88,13.8S223.19,442.16,220.86,442.91Z" style="fill:#ebebeb"></path><path d="M220.87,442.9c-1.2.39-19.27.35-36.92,0-3.55-.07-7.08-.15-10.45-.24-12.59-.34-23-.86-24-1.49s-1.4-10-1.6-21.54c0-.17,0-.33,0-.49s0-.26,0-.38H148l42.85.07,0,.74s25.3,11.7,27.87,13.79S223.2,442.16,220.87,442.9Z" style="fill:#FFC727"></path><path d="M220.14,440.32c-11.2-.42-56.43-1.05-67.54-.61-.09,0-.09.07,0,.07,11.09.66,56.33.92,67.54.72C220.38,440.5,220.38,440.33,220.14,440.32Z" style="fill:#263238"></path><path d="M195.6,419c-4.4-.88-9.8-.27-13.21,2.83-.13.12,0,.31.18.26a62.51,62.51,0,0,1,13-2.53A.28.28,0,0,0,195.6,419Z" style="fill:#263238"></path><path d="M198.76,421c-4.4-.88-9.8-.27-13.21,2.83-.14.12,0,.3.18.26a62.38,62.38,0,0,1,13-2.53A.28.28,0,0,0,198.76,421Z" style="fill:#263238"></path><path d="M201.92,422.94c-4.4-.88-9.8-.27-13.21,2.83-.14.12,0,.3.18.26a61.78,61.78,0,0,1,13-2.53A.28.28,0,0,0,201.92,422.94Z" style="fill:#263238"></path><path d="M184,442.9c-3.55-.07-7.08-.15-10.45-.24-12.59-.34-23-.86-24-1.49s-1.4-10-1.6-21.54c0-.17,0-.33,0-.49s0-.26,0-.38H148C153.85,422.88,174.54,436.65,184,442.9Z" style="fill:#263238"></path><path d="M193.39,419H145.5s9.62-111.85,9.24-113.8c-.48-2.5-3.31-13.82-7.07-28.61-1.18-4.63-2.46-9.59-3.78-14.74-3.57-13.91-7.51-29.12-10.94-42.35-5.15-19.82-9.18-35.22-9.18-35.22h40.59s4.73,15,10.7,34.5c9.72,31.7,22.7,75.33,24,85.94C201.13,321.84,193.39,419,193.39,419Z" style="fill:#455a64"></path><path d="M191.27,410.82c-7.32-.15-5.22-.21-12.53-.28-3.58,0-27.1-.24-30.45.32-.07,0-.07.13,0,.15,3.35.55,26.87.34,30.45.3,7.31-.07,5.21-.13,12.53-.28A.11.11,0,0,0,191.27,410.82Z" style="fill:#263238"></path><path d="M163.75,298.36c-1.57-6.92-3.92-13.7-6-20.5q-6.24-20.7-12.54-41.39-3.13-10.35-6.32-20.68-1.6-5.22-3.23-10.43c-1.07-3.4-2.28-6.77-3.24-10.2-.39-1.39-.61-.63-.11,1.15,1,3.57,2,7.14,3.05,10.7q3.1,10.59,6.24,21.16,6.23,21,12.57,42.05,3.16,10.54,6.34,21.07a85.6,85.6,0,0,1,2.59,10.2,46.8,46.8,0,0,1,.43,10.9c-.46,7.33-1.31,14.64-2,21.95s-1.35,14.65-2,22q-2,21.85-4,43.73-.26,2.77-.47,5.55c-.05.62.89.57.95,0,1.58-14.41,2.78-28.87,4.13-43.31s2.69-28.73,4-43.09c.33-3.61.72-7.22.72-10.85A44.59,44.59,0,0,0,163.75,298.36Z" style="fill:#263238"></path><path d="M159.75,184.27c-2.81,21.8-8.17,62.67-12.08,92.32-9.16-35.92-23.9-92.31-23.9-92.31Z" style="fill:#263238"></path><path d="M169.27,443.56c-2.33.76-68.82.16-71.34-1.48-1-.6-1.44-10.29-1.68-22,0-.13,0-.25,0-.37,0-2.42-.09-4.91-.11-7.43,0-.35,0-.69,0-1-.16-16.93,1.06-34.5,1.06-34.5l43.46.28-1.21,34.17,0,1.36-.24,7.07,0,.73s25.35,11.61,27.93,13.7S171.6,442.81,169.27,443.56Z" style="fill:#dd6a57"></path><path d="M169.27,443.56c-2.33.76-68.82.16-71.34-1.48-1-.6-1.44-10.29-1.68-22,0-.13,0-.25,0-.37,0-2.42-.09-4.91-.11-7.43,0-.35,0-.69,0-1l43.31-.05,0,1.36-.24,7.07,0,.73s25.35,11.61,27.93,13.7S171.6,442.81,169.27,443.56Z" style="fill:#ebebeb"></path><path d="M169.27,443.56c-2.33.76-68.82.16-71.34-1.48-1-.6-1.44-10.29-1.68-22,0-.13,0-.25,0-.37l42.91-.09,0,.73s25.35,11.61,27.93,13.7S171.6,442.81,169.27,443.56Z" style="fill:#FFC727"></path><path d="M168.54,441c-11.21-.37-56.44-.84-67.55-.36-.09,0-.09.07,0,.07,11.1.62,56.34.72,67.55.48C168.77,441.15,168.78,441,168.54,441Z" style="fill:#263238"></path><path d="M143.92,419.77c-4.4-.87-9.8-.24-13.2,2.87-.13.12,0,.31.18.26a62.51,62.51,0,0,1,13-2.58A.28.28,0,0,0,143.92,419.77Z" style="fill:#263238"></path><path d="M147.09,421.71c-4.41-.86-9.81-.23-13.21,2.88-.13.12.05.31.19.26a62.29,62.29,0,0,1,13-2.58A.28.28,0,0,0,147.09,421.71Z" style="fill:#263238"></path><path d="M150.25,423.66c-4.4-.86-9.8-.23-13.2,2.88-.13.12,0,.3.18.26a61.86,61.86,0,0,1,13-2.58A.28.28,0,0,0,150.25,423.66Z" style="fill:#263238"></path><path d="M163.05,184.27s-.94,19.42-5.38,34.8c-.35,1.27-.74,2.52-1.16,3.72a72.26,72.26,0,0,0-11.69,6s-.47,15.62-.93,33c-.51,19.48-1,41.21-.94,45.81.42,17.24-2.13,112-2.13,112L93,419.9s8.63-105.86,8.57-112.18c-.1-10.15,2.3-55,4.16-87.73,1.13-20.16,2.06-35.71,2.06-35.71Z" style="fill:#455a64"></path><path d="M139.18,411.18c-7.31-.12-5.21-.19-12.53-.22-3.58,0-27.1-.12-30.44.45-.07,0-.07.13,0,.15,3.35.54,26.87.23,30.45.17,7.31-.1,5.21-.15,12.52-.33A.11.11,0,0,0,139.18,411.18Z" style="fill:#263238"></path><path d="M111.77,191.22c-.88,26.71-1.8,53.42-3,80.12s-2.8,53.58-5,80.3c-1.25,14.93-2.42,35.93-4,50.83,0,.1.14.14.15,0,3.48-26.5,5.42-59.26,7.13-85.93s2.86-53.36,3.76-80.06c.52-15.11.9-30.21,1.35-45.32C112.11,191,111.78,191,111.77,191.22Z" style="fill:#263238"></path><path d="M158.5,221.63a88.68,88.68,0,0,0-13.68,7.18c-.17.1,0,.37.14.28,4.62-2.25,9.34-4.41,13.82-6.91A.31.31,0,0,0,158.5,221.63Z" style="fill:#263238"></path><path d="M158.77,205.16c-.32,1.7-.73,3.39-1.1,5.08s-.59,3.2-1,4.77a8.2,8.2,0,0,1-2.23,4c-.62.57-1.3,1.09-2,1.62l-1.11.85.12-.69c.12-.64.23-1.29.33-1.93.24-1.44.47-2.87.69-4.31.43-2.82.83-5.68,1.42-8.47a.09.09,0,0,0-.18-.05c-.7,2.77-1.48,5.51-2.09,8.31-.3,1.37-1.37,8.13-1.42,8.61s-.09,1-.1,1.49a5.53,5.53,0,0,0,0,1.52c0,.12.17.1.23,0h0a5.66,5.66,0,0,0,.43-1.47,14.62,14.62,0,0,0,.32-1.46c0-.18.06-.36.08-.54.67-.41,1.29-.94,1.91-1.39s1.36-1,2-1.5a7.57,7.57,0,0,0,2.43-3.79,28.6,28.6,0,0,0,.8-4.87c.21-1.92.37-3.85.64-5.77C159,205.09,158.79,205,158.77,205.16Z" style="fill:#263238"></path><path d="M145.81,134.19c2.65,7.4,12,24,26.34,37.07,5.55,5.05,46.84,1.73,50.93.14,2.86-1.12,8.2-21.93,5.19-23.81-5.64-3.53-42.55,4.61-44.12,3.78-2.4-1.28-18.29-11.93-28.53-22.05C148.15,121.94,141.4,121.87,145.81,134.19Z" style="fill:#dd6a57"></path><path d="M156.42,156.06l23.42-9.3s-21-18.07-28.7-21.64c-8.65-4-8.81,1.28-5.77,9.82S156.42,156.06,156.42,156.06Z" style="fill:#37474f"></path><path d="M174.89,143.91c-.86.19-8.2,3-9.78,3.62s-8.09,3.19-9.67,4a.06.06,0,0,0,0,.12c1.7-.48,8.26-3,9.89-3.66s8.83-3.54,9.58-4C175,144,175,143.9,174.89,143.91Z" style="fill:#263238"></path><path d="M165.45,152.47l-9,3.59s-8-12.59-11-21.12c-2.22-6.24-2.73-10.76.53-11.16Z" style="fill:#263238"></path><path d="M102.4,205.41c.15.17,66.38.6,67-.07.85-1-13.86-72.77-20.63-81.66-1.45-1.9-10.58-4.49-15.88-.17-11.26,9.17-21,40.64-23.3,50.14C105.83,189.31,101.85,204.79,102.4,205.41Z" style="fill:#FFC727"></path><path d="M149.14,124.24H132c.28-.26.56-.5.84-.73a6.55,6.55,0,0,1,.53-.39h14.73a2.91,2.91,0,0,1,.62.56A5.43,5.43,0,0,1,149.14,124.24Z" style="opacity:0.1"></path><path d="M150.74,127.46H129.09c.31-.39.62-.77.94-1.13h20.22C150.41,126.68,150.57,127.06,150.74,127.46Z" style="opacity:0.1"></path><path d="M152,130.68H126.77c.26-.39.51-.76.77-1.13h24Z" style="opacity:0.1"></path><path d="M153.07,133.89H124.8c.22-.38.44-.76.67-1.13H152.7C152.83,133.13,153,133.51,153.07,133.89Z" style="opacity:0.1"></path><path d="M154.09,137.11H123c.2-.38.39-.76.6-1.13h30.1C153.85,136.35,154,136.73,154.09,137.11Z" style="opacity:0.1"></path><path d="M155,140.33H121.43c.18-.38.36-.76.55-1.13h32.73Z" style="opacity:0.1"></path><path d="M156,143.54H120l.51-1.13h35.17C155.74,142.78,155.84,143.16,156,143.54Z" style="opacity:0.1"></path><path d="M156.82,146.76H118.56l.48-1.13h37.48Z" style="opacity:0.1"></path><path d="M157.67,150H117.26c.14-.38.29-.75.45-1.13h39.67C157.47,149.22,157.57,149.6,157.67,150Z" style="opacity:0.1"></path><path d="M158.49,153.19H116c.14-.38.28-.75.43-1.13h41.76C158.3,152.44,158.4,152.81,158.49,153.19Z" style="opacity:0.1"></path><path d="M159.3,156.41H114.85c.13-.38.27-.75.41-1.13H159C159.11,155.66,159.2,156,159.3,156.41Z" style="opacity:0.1"></path><path d="M160.08,159.62H113.74c.12-.37.25-.75.39-1.12h45.68Z" style="opacity:0.1"></path><path d="M160.85,162.84H112.68l.36-1.13h47.54Z" style="opacity:0.1"></path><path d="M161.6,166.06H111.68c.11-.37.22-.75.34-1.13h49.33C161.43,165.31,161.52,165.69,161.6,166.06Z" style="opacity:0.1"></path><path d="M162.35,169.27H110.74l.32-1.12h51C162.17,168.53,162.26,168.9,162.35,169.27Z" style="opacity:0.1"></path><path d="M163.07,172.49h-53.2c.09-.35.19-.73.29-1.13h52.66C162.9,171.74,163,172.11,163.07,172.49Z" style="opacity:0.1"></path><path d="M163.79,175.71h-54.7l.27-1.13h54.18C163.62,175,163.7,175.34,163.79,175.71Z" style="opacity:0.1"></path><path d="M164.49,178.92H108.31l.27-1.12h55.67Z" style="opacity:0.1"></path><path d="M165.17,182.14H107.53l.27-1.13h57.13C165,181.39,165.1,181.76,165.17,182.14Z" style="opacity:0.1"></path><path d="M165.85,185.36h-59.1l.27-1.13h58.6C165.7,184.61,165.78,185,165.85,185.36Z" style="opacity:0.1"></path><path d="M166.51,188.57H106l.27-1.13h60C166.36,187.82,166.44,188.2,166.51,188.57Z" style="opacity:0.1"></path><path d="M167.16,191.79h-62c.1-.37.19-.75.28-1.13h61.47C167,191,167.09,191.42,167.16,191.79Z" style="opacity:0.1"></path><path d="M167.79,195H104.42c.09-.37.17-.74.27-1.13h62.88C167.64,194.27,167.72,194.64,167.79,195Z" style="opacity:0.1"></path><path d="M168.39,198.22H103.67c.08-.37.17-.74.26-1.13h64.25C168.25,197.48,168.32,197.85,168.39,198.22Z" style="opacity:0.1"></path><path d="M169,201.44H103c.07-.35.15-.73.25-1.13h65.55C168.83,200.71,168.89,201.08,169,201.44Z" style="opacity:0.1"></path><path d="M169.41,204.66h-67c0-.3.09-.68.17-1.13h66.72C169.34,204,169.38,204.37,169.41,204.66Z" style="opacity:0.1"></path><polygon points="151.97 207.29 162.56 162.02 166.74 121.43 188.7 127.26 207.06 123.58 223.47 130.6 246.84 125.31 231.03 168.18 224.37 211.59 206.7 215.97 188.93 208.34 170.92 214.23 151.97 207.29" style="fill:#ebebeb"></polygon><polygon points="170.92 214.23 188.7 127.26 207.06 123.58 188.93 208.34 170.92 214.23" style="fill:#dbdbdb"></polygon><polygon points="206.7 215.97 223.47 130.6 246.84 125.31 231.03 168.18 224.37 211.59 206.7 215.97" style="fill:#dbdbdb"></polygon><path d="M242.44,144.71c.73,4.3,3.93,10.3,3.43,13.5a3.73,3.73,0,0,1-3.06,3.22s2.66,2.42,1.72,5.25c-.48,1.46-3.24,2-3.24,2a4.44,4.44,0,0,1,1.06,4.5c-.79,2-3.43,2.18-3.43,2.18s1.06,2.86-.39,4.6c-2.93,3.54-20.42-1.4-21.3-8.61-.41-3.36,3.79-1.92,3.79-1.92s-5.55-3.53-4.62-7.17,6.28-1.43,6.28-1.43-5.35-3.47-4-7.14,6.38-.7,6.38-.7-3.15-3.73-1.47-6.31c2.75-4.25,9.93,4.08,14,4.26l2.09-6.15Z" style="fill:#dd6a57"></path><path d="M244,151.09c-.34-4.14,2.82-5,3.61-8.91.88-4.37-4.49-4.68-7.85,2.36l-2.17,6.37Z" style="fill:#dd6a57"></path><path d="M238.51,175.42a.05.05,0,0,1,0,.1,31.61,31.61,0,0,1-17.72-6.17c-.16-.13,0-.44.18-.34A64.65,64.65,0,0,0,238.51,175.42Z" style="fill:#263238"></path><path d="M241.37,168.71c.07,0,0,.13,0,.12a29.49,29.49,0,0,1-18.91-7.93c-.17-.17-.16-.5.06-.32C226.14,163.69,235.6,167.6,241.37,168.71Z" style="fill:#263238"></path><path d="M224.79,152.48c5.09,4.66,11.15,7.22,17.76,9,.08,0,0,.15,0,.15-3.47,0-7.56-1.52-10.65-3a18.12,18.12,0,0,1-7.24-5.93C224.56,152.55,224.68,152.38,224.79,152.48Z" style="fill:#263238"></path><path d="M124,129.42c-11.66,12.92-34.26,46.28-29.91,55.13,5.85,11.92,28.05,29.7,36,32.61,3.43,1.25,18.19-23.61,15-25.89-3.8-2.73-24.92-17.76-24.71-19.17s6.85-17.65,10.47-32C135.08,123.5,130.41,122.32,124,129.42Z" style="fill:#dd6a57"></path><path d="M130.69,188.93s10.73-2.89,17.83-4.46c4-.87,10.89-1.75,14.09-1.06,4.79,1,24.17,8.42,22.48,13.16-1.53,4.29-17.37-4.17-17.37-4.17s16.74,7.12,13.95,11.94-19.42-7.11-19.42-7.11,17,7.7,13.37,12.22c-2.77,3.42-18.44-6.55-18.44-6.55s14.59,6.73,11.9,10.36c-3,4-18-4.27-18-4.27-8.42,8.09-16,9.61-21,8.17C128.87,216.8,130.69,188.93,130.69,188.93Z" style="fill:#dd6a57"></path><path d="M162.09,189.56c2,.77,4,1.53,5.94,2.47s3.81,1.95,5.64,3.06a36.49,36.49,0,0,1,6.69,5c-3.86-3.15-10.68-6.62-12.61-7.56s-3.78-2-5.7-2.92C162,189.61,162,189.54,162.09,189.56Z" style="fill:#263238"></path><path d="M158.56,196.44c2.51,1.09,5,2.07,7.5,3.27s4.67,2.54,7,3.9c.19.11.07.17-.12.07-2.41-1.26-4.74-2.24-7.16-3.48s-4.81-2.56-7.27-3.7A0,0,0,1,1,158.56,196.44Z" style="fill:#263238"></path><path d="M154.48,201.8a60.61,60.61,0,0,1,11.08,5.88c.17.11,0,.18-.17.08-3.65-2-6.49-3.65-11-5.83C154.36,201.9,154.4,201.77,154.48,201.8Z" style="fill:#263238"></path><path d="M126.17,157.6l-24.72-4.93s17.41-21.57,24.32-26.47c7.78-5.51,8.9-.33,7.45,8.62S126.17,157.6,126.17,157.6Z" style="fill:#37474f"></path><path d="M126.39,153.28c-.83-.3-8.52-1.9-10.2-2.21s-8.53-1.64-10.29-1.82a.06.06,0,0,0,0,.12c1.69.5,8.6,1.87,10.3,2.22s9.35,1.77,10.21,1.81C126.45,153.4,126.45,153.3,126.39,153.28Z" style="fill:#263238"></path><path d="M140.72,118.7c-5.45-.61-12,4.06-7.14,10.37s10,7.54,12.88,6.66c3.41-1.07,4.68-8,3.84-11.22S145.37,119.22,140.72,118.7Z" style="fill:#455a64"></path><path d="M145.2,133.45c-2.28.34-9-3.83-11.51-8.33-.17-.31,1-12.76.95-15.25,0-.51,15.66,3.61,15.66,3.61a39.51,39.51,0,0,0-1.4,9.58,5.48,5.48,0,0,0,.12,1s0,.1,0,.17C149.38,126.19,148.54,133,145.2,133.45Z" style="fill:#dd6a57"></path><path d="M135.64,109.94c.63,3.77,3.16,14.32,11.8,14.42a10,10,0,0,0,1.6-.11l0-.17a6.5,6.5,0,0,1-.11-1,39.74,39.74,0,0,1,1.39-9.58S139.11,110.54,135.64,109.94Z" style="fill:#263238"></path><path d="M157.54,85.74s4.72,3.15,4.63,8.55-2.35,10.64-2.85,10.82S157.54,85.74,157.54,85.74Z" style="fill:#263238"></path><path d="M136.16,88.82c-2.8,5.07-3.25,21.33-.14,25.63,4.52,6.24,13.56,8.66,19.28,2.86,5.54-5.63,5.75-26.83,2.12-30.91C152.07,80.39,140.29,81.34,136.16,88.82Z" style="fill:#dd6a57"></path><path d="M149.42,101.76s-.08,0-.08.1c0,1.09-.19,2.35-1.19,2.68a0,0,0,0,0,0,.06C149.37,104.47,149.6,102.8,149.42,101.76Z" style="fill:#263238"></path><path d="M148.48,100.59c-1.75-.19-2,3.33-.38,3.51S150,100.75,148.48,100.59Z" style="fill:#263238"></path><path d="M155.45,102.12c0-.05.08,0,.08.1-.12,1.09-.06,2.36.9,2.79,0,0,0,.07,0,.06C155.22,104.81,155.17,103.13,155.45,102.12Z" style="fill:#263238"></path><path d="M156.51,101.05c1.76,0,1.65,3.52,0,3.53S155,101.05,156.51,101.05Z" style="fill:#263238"></path><path d="M147,99.41a11.6,11.6,0,0,0,1.4-.38,2.34,2.34,0,0,0,1.35-.66.75.75,0,0,0-.05-.91,1.84,1.84,0,0,0-1.85-.33,2.72,2.72,0,0,0-1.65,1.07A.79.79,0,0,0,147,99.41Z" style="fill:#263238"></path><path d="M158,98.59a13,13,0,0,1-1.37-.46,2.36,2.36,0,0,1-1.31-.74.75.75,0,0,1,.1-.91,1.87,1.87,0,0,1,1.87-.22,2.74,2.74,0,0,1,1.58,1.16A.79.79,0,0,1,158,98.59Z" style="fill:#263238"></path><path d="M147.4,111.55c.24.28.48.65.87.71a2.91,2.91,0,0,0,1.2-.19s.07,0,0,.06a1.46,1.46,0,0,1-1.43.49,1.17,1.17,0,0,1-.79-1C147.28,111.53,147.37,111.51,147.4,111.55Z" style="fill:#263238"></path><path d="M148.78,108.36a3.78,3.78,0,0,0,2.37,1.84,4.94,4.94,0,0,0,1.33.15,1.11,1.11,0,0,0,.26,0l.24,0a.28.28,0,0,0,.24-.23h0V110h0v-.1c.09-.84.1-2.13.1-2.13.29.18,1.81,1,1.82.56a56.19,56.19,0,0,0-.64-11.36.1.1,0,0,0-.2,0c-.18,3.51.25,7,.13,10.55a6.67,6.67,0,0,0-1.72-.65c-.12,0,0,2.48,0,2.85a.1.1,0,0,1,0,0,5.17,5.17,0,0,1-3.77-1.47C148.82,108.2,148.73,108.27,148.78,108.36Z" style="fill:#263238"></path><path d="M152,109.89a4.44,4.44,0,0,1-1.87,1.24,1.93,1.93,0,0,1-1.21,0c-.86-.29-.82-1.09-.61-1.76a4.7,4.7,0,0,1,.47-1A5.66,5.66,0,0,0,152,109.89Z" style="fill:#263238"></path><path d="M150.15,111.13a1.93,1.93,0,0,1-1.21,0c-.86-.29-.82-1.09-.61-1.76A2,2,0,0,1,150.15,111.13Z" style="fill:#ff9cbd"></path><path d="M134.22,104.12c1.94.65,4.32-5.18,5-7.42.6-2,1.39-8.28,1.5-8.71s8.39,5.78,13.35,4.45,8.34-5.68,8.46-7.74-5.89-7.43-11.17-7.82-12.6,6.18-12.6,6.18A24.36,24.36,0,0,0,141.19,80c-.08-.24-3.52,1-4.21,3.47,0,0,.75-3,.49-3.11s-3,2.5-2.42,4.5c0,0-3.13,2.59-3.48,5.5S131.94,103.37,134.22,104.12Z" style="fill:#263238"></path><path d="M157.6,91.49a16.6,16.6,0,0,1-4.69,1.56,11.23,11.23,0,0,1-5.29-1,16.73,16.73,0,0,1-4.6-2.86c-1.2-1-2.27-2.29-3.56-3.22-.33-.24-.72.23-.53.53a17.63,17.63,0,0,0,8.79,6.78,10.18,10.18,0,0,0,9.9-1.78S157.62,91.48,157.6,91.49Z" style="fill:#263238"></path><path d="M146.44,107.58a4.84,4.84,0,1,1,5.6-5.21h0a4.86,4.86,0,0,1-4.4,5.25A4.79,4.79,0,0,1,146.44,107.58Zm1.45-8.92a4.51,4.51,0,0,0-1,0,4.2,4.2,0,1,0,1,0Z" style="fill:#FFC727"></path><path d="M157.54,108c-1.83-.3-3.18-2.44-3.07-5a5.73,5.73,0,0,1,1.17-3.34,3,3,0,0,1,5.15.23,5.82,5.82,0,0,1,.88,3.42c-.12,2.67-1.83,4.77-3.82,4.68Zm1-9-.25,0a2.56,2.56,0,0,0-2.11,1.09,5.21,5.21,0,0,0-1,3c-.1,2.3,1.14,4.24,2.77,4.31s3-1.75,3.14-4a5.08,5.08,0,0,0-.77-3A2.65,2.65,0,0,0,158.5,99Z" style="fill:#FFC727"></path><path d="M151.85,102.93l-.39-.52c.76-.58,2.49-1.34,3.61,0l-.49.42C153.58,101.63,151.92,102.87,151.85,102.93Z" style="fill:#FFC727"></path><path d="M131.2,103.44l-.56-.32c.15-.26,1.51-2.56,3-2.73s9,.81,9.41.87l-.09.64a82.19,82.19,0,0,0-9.24-.87C132.72,101.14,131.56,102.81,131.2,103.44Z" style="fill:#FFC727"></path><path d="M136.8,102.29s-2.58-5.76-5.13-4.93-1.28,8.7,1.23,10.22a2.81,2.81,0,0,0,4-.77Z" style="fill:#dd6a57"></path><path d="M132.09,99.6s-.06.05,0,.07c1.75,1.13,2.42,3.08,2.77,5a1.55,1.55,0,0,0-2.2-.85s0,.12,0,.12a1.73,1.73,0,0,1,1.75.94,8.83,8.83,0,0,1,.6,1.68c.06.19.38.15.35,0v0C135.88,104.09,134.64,100.34,132.09,99.6Z" style="fill:#263238"></path></g></svg>