<svg xmlns="http://www.w3.org/2000/svg" viewBox="0 0 500 500"><g id="freepik--background-complete--inject-76"><polygon points="73.95 357.3 72.95 357.3 72.95 231.8 46.22 195.32 46.22 126.82 47.22 126.82 47.22 194.99 73.95 231.47 73.95 357.3" style="fill:#ebebeb"></polygon><path d="M46.72,127.36a2.88,2.88,0,1,1,2.88-2.87A2.88,2.88,0,0,1,46.72,127.36Zm0-4.75a1.88,1.88,0,1,0,1.88,1.88A1.88,1.88,0,0,0,46.72,122.61Z" style="fill:#ebebeb"></path><polygon points="67.07 357.3 66.07 357.3 66.07 236.21 39.34 199.73 39.34 151.82 40.34 151.82 40.34 199.4 67.07 235.88 67.07 357.3" style="fill:#ebebeb"></polygon><path d="M39.84,152.36a2.88,2.88,0,1,1,2.87-2.88A2.88,2.88,0,0,1,39.84,152.36Zm0-4.75a1.88,1.88,0,1,0,1.87,1.87A1.88,1.88,0,0,0,39.84,147.61Z" style="fill:#ebebeb"></path><rect x="79.59" y="190.89" width="1" height="166.41" style="fill:#ebebeb"></rect><path d="M80.09,191.39A2.88,2.88,0,1,1,83,188.52,2.88,2.88,0,0,1,80.09,191.39Zm0-4.75A1.88,1.88,0,1,0,82,188.52,1.88,1.88,0,0,0,80.09,186.64Z" style="fill:#ebebeb"></path><polygon points="86.97 357.3 85.97 357.3 85.97 272.6 86.03 272.49 104.12 238.37 104.12 177.13 105.12 177.13 105.12 238.62 86.97 272.85 86.97 357.3" style="fill:#ebebeb"></polygon><path d="M104.62,177.63a2.88,2.88,0,1,1,2.88-2.87A2.87,2.87,0,0,1,104.62,177.63Zm0-4.75a1.88,1.88,0,1,0,1.88,1.88A1.88,1.88,0,0,0,104.62,172.88Z" style="fill:#ebebeb"></path><polygon points="93.32 357.3 92.32 357.3 92.32 276.25 92.39 276.14 113.72 238.41 113.72 198.13 114.72 198.13 114.72 238.67 93.32 276.51 93.32 357.3" style="fill:#ebebeb"></polygon><path d="M114.22,198.63a2.88,2.88,0,1,1,2.87-2.88A2.88,2.88,0,0,1,114.22,198.63Zm0-4.75a1.88,1.88,0,1,0,1.87,1.87A1.88,1.88,0,0,0,114.22,193.88Z" style="fill:#ebebeb"></path><rect x="46.73" y="307.1" width="21.41" height="21.41" style="fill:#dbdbdb"></rect><circle cx="57.44" cy="317.8" r="7.15" style="fill:#ebebeb"></circle><rect x="54.52" y="314.91" width="1.61" height="5.9" style="fill:#a6a6a6"></rect><rect x="59" y="314.91" width="1.61" height="5.9" style="fill:#a6a6a6"></rect><path d="M140.86,361.37H95.94c-14.75,0-19.21-19.91-21.88-31.8a44.33,44.33,0,0,0-1.78-6.7c-2.31-4.81-8.37-4.1-8.63-4.07l-.26-2c.32,0,7.75-.94,10.69,5.18A42.4,42.4,0,0,1,76,329.13c2.53,11.31,6.77,30.24,19.92,30.24h41.95c1.89,0,3.14,0,3.24,1.12A.85.85,0,0,1,140.86,361.37Z" style="fill:#263238"></path><rect x="50.83" y="315.12" width="12.28" height="5.37" transform="translate(-260.83 374.78) rotate(-90)" style="fill:#a6a6a6"></rect><rect x="58" y="315.64" width="7.66" height="4.34" transform="translate(-255.98 379.63) rotate(-90)" style="fill:#c7c7c7"></rect><path d="M444.26,72.41H417V60.47h27.23Zm-26.48-.75h25.73V61.22H417.78Z" style="fill:#ebebeb"></path><path d="M459,58.3H431.8V46.36H459Zm-26.48-.75h25.73V47.11H432.55Z" style="fill:#ebebeb"></path><path d="M276.86,182.53H249.62V170.59h27.24Zm-26.48-.75h25.73V171.34H250.38Z" style="fill:#ebebeb"></path><path d="M291.63,168.42H264.4V156.48h27.23Zm-26.48-.75h25.73V157.23H265.15Z" style="fill:#ebebeb"></path><path d="M306.34,182.53H279.11V170.59h27.23Zm-26.48-.75h25.73V171.34H279.86Z" style="fill:#ebebeb"></path><path d="M68.2,58.3H41V46.36H68.2Zm-26.48-.75H67.45V47.11H41.72Z" style="fill:#ebebeb"></path><path d="M83,272.6H55.74V260.66H83Zm-26.48-.75H82.22V261.41H56.49Z" style="fill:#ebebeb"></path><path d="M68.2,258.49H41V246.55H68.2Zm-26.48-.75H67.45V247.3H41.72Z" style="fill:#ebebeb"></path><path d="M444.26,272.6H417V260.66h27.23Zm-26.48-.75h25.73V261.41H417.78Z" style="fill:#ebebeb"></path></g><g id="freepik--Shadow--inject-76"><ellipse cx="250" cy="450.63" rx="124.03" ry="17.21" style="fill:#ebebeb"></ellipse></g><g id="freepik--Floor--inject-76"><polygon points="36.23 357.39 89.67 357.15 143.11 357.06 250 356.89 356.89 357.06 410.33 357.15 463.77 357.39 410.33 357.64 356.89 357.73 250 357.89 143.11 357.72 89.67 357.64 36.23 357.39" style="fill:#263238"></polygon></g><g id="freepik--Plant--inject-76"><path d="M432.88,304.07a222.51,222.51,0,0,0-.32-23.67,301.27,301.27,0,0,0-7.42-48.23c-2.07-8.92-4.61-17.7-7.26-26.46-.09-.26-.51-.19-.43.09,8.2,30.89,14.93,62.78,14.47,94.89-.13,9-1.17,17.82-2,26.75,0,.24.37.34.42.09A133.79,133.79,0,0,0,432.88,304.07Z" style="fill:#FFC727"></path><path d="M417.45,205.8s-12.43,31.55-9.65,39,8.52,9,8.52,9-7.61,10.86-2.29,21,17.12,9.71,17.91,21.25C431.94,296.05,432.59,247.77,417.45,205.8Z" style="fill:#FFC727"></path><path d="M430.58,276.12a.2.2,0,0,0,0-.17,289,289,0,0,0-12.05-63.47c0-.06-.12,0-.11,0q3.7,13.84,6.53,27.84A13.76,13.76,0,0,0,419,237a0,0,0,0,0,0,.07,15.61,15.61,0,0,1,6.13,4.09c.36,1.83.72,3.66,1.06,5.49-2.78-3.11-6.63-4.65-10.49-6.11-.05,0-.08.06,0,.08,4,1.64,8,3.75,10.74,7.2q1.41,7.86,2.49,15.77a15,15,0,0,0-7.41-4.25c-.09,0-.14.1-.05.13a15.57,15.57,0,0,1,7.52,4.82l.05,0c.24,1.85.48,3.71.7,5.57a19.4,19.4,0,0,0-5.2-3.14c-.05,0-.07.06,0,.08a17.93,17.93,0,0,1,5.2,3.45.08.08,0,0,0,.07,0c.2,1.77.41,3.54.59,5.31a25.33,25.33,0,0,0-10.55-7.53c-.08,0-.12.09,0,.13a27.43,27.43,0,0,1,10.39,8,.24.24,0,0,0,.26.09q.41,4.06.71,8.15s.06,0,.06,0Q430.92,280.29,430.58,276.12Z" style="fill:#263238"></path><path d="M420.6,233.9a15.54,15.54,0,0,0-7.47-2.33c-.06,0-.07.08,0,.09a29.5,29.5,0,0,1,7.39,2.42C420.61,234.12,420.69,234,420.6,233.9Z" style="fill:#263238"></path><path d="M422.11,267.3a16,16,0,0,0-5.61-1.92c-.07,0-.07.1,0,.11a21.41,21.41,0,0,1,5.55,1.94C422.12,267.47,422.18,267.34,422.11,267.3Z" style="fill:#263238"></path><path d="M465.56,245.28a84.87,84.87,0,0,0-14.39,12.57A51.89,51.89,0,0,0,441.08,275a127.8,127.8,0,0,0-7.51,40.92,98.94,98.94,0,0,0,2.21,23,.22.22,0,0,0,.43-.09,129.24,129.24,0,0,1,.23-40.23c2.13-13,5.49-27.25,13.78-37.86,4.52-5.77,10.15-10.32,15.72-15C466.24,245.47,465.86,245.07,465.56,245.28Z" style="fill:#FFC727"></path><path d="M435.4,306.49a77.4,77.4,0,0,1,10.48-13.4c6.22-6.22,11.46-10.64,12.27-14.75s-6.23-7.14-6.23-7.14,8.6,1.55,11-2.07,3.49-24.52,3.49-24.52-15.66,11.17-22.95,26.84S435.4,306.49,435.4,306.49Z" style="fill:#FFC727"></path><path d="M461,250c-6.58,6.47-13.21,13.36-17.09,21.86a84.38,84.38,0,0,0-3.46,9h0c-.2.62-.4,1.24-.59,1.86a.17.17,0,0,0,0,.1,178.5,178.5,0,0,0-4.45,19.32c0,.05.06.07.07,0,.67-3.26,1.42-6.55,2.25-9.84a.15.15,0,0,0,.09,0,13.58,13.58,0,0,1,4.11-1c.09,0,.09-.17,0-.17a15.55,15.55,0,0,0-4.06.74c.76-3,1.58-5.91,2.51-8.83a44,44,0,0,1,9.28-1.21s0-.05,0-.05a34.51,34.51,0,0,0-9.13.78c.16-.5.33-1,.49-1.5a49.53,49.53,0,0,1,6.18-1,0,0,0,1,0,0-.06,30,30,0,0,0-6.05.73c.85-2.52,1.77-5,2.79-7.42a45.05,45.05,0,0,1,3-5.74,38.36,38.36,0,0,1,5-.9c.05,0,0-.08,0-.08a13.75,13.75,0,0,0-4.69.46q1.23-2,2.61-3.89h0c3.52-.78,7.07-1.5,10.66-.82.07,0,.09-.1,0-.11-3.42-.9-6.81-.38-10.22.29l1.14-1.47a23.46,23.46,0,0,1,6.56-1s0-.07,0-.07a17,17,0,0,0-6.11.54c2.9-3.6,6.11-7,9.28-10.34C461.22,249.9,461.11,249.81,461,250Z" style="fill:#263238"></path><path d="M460.78,264.23a14.16,14.16,0,0,0-3.12-.11c-.12,0-.11.22,0,.22,1,0,2.06,0,3.09,0C460.85,264.35,460.86,264.23,460.78,264.23Z" style="fill:#263238"></path><path d="M449.51,284.52a14,14,0,0,0-4.83,1s0,.07,0,.06c1.59-.38,3.2-.53,4.81-.79C449.65,284.73,449.65,284.52,449.51,284.52Z" style="fill:#263238"></path><path d="M446.13,277.51a10.15,10.15,0,0,0-2.05.18c-.06,0-.06.12,0,.12a10,10,0,0,0,2.05-.09C446.26,277.7,446.25,277.51,446.13,277.51Z" style="fill:#263238"></path><path d="M389.5,267.48a70.84,70.84,0,0,1,14.55,6.85,43.61,43.61,0,0,1,12.13,11.51,107.79,107.79,0,0,1,15.54,31.39,83.57,83.57,0,0,1,3.52,19.13.18.18,0,0,1-.36,0,108.82,108.82,0,0,0-9.48-32.51c-4.75-10.07-10.75-20.78-19.91-27.45-5-3.63-10.6-6-16.19-8.52C389,267.79,389.21,267.37,389.5,267.48Z" style="fill:#FFC727"></path><path d="M428.06,310a64.82,64.82,0,0,0-11.58-8.42c-6.47-3.6-11.73-6-13.33-9.1s3.39-7.22,3.39-7.22-6.61,3.24-9.35.86-8.5-19-8.5-19,15.26,5.43,24.78,16.42S428.06,310,428.06,310Z" style="fill:#FFC727"></path><path d="M427.27,306.61c-7.63-14.32-17.81-27.28-31.76-35.83,0,0,0,0,0,0a70.65,70.65,0,0,1,10.21,8,16.13,16.13,0,0,0-8.2,1.73,0,0,0,0,0,0,.09,22.32,22.32,0,0,1,8.44-1.43.24.24,0,0,0,.09,0c.5.47,1,.94,1.47,1.42a25.77,25.77,0,0,0-4.38.59s0,.06,0,.06a22.51,22.51,0,0,1,4.63-.39A98.12,98.12,0,0,1,415,289a7.34,7.34,0,0,0-3.06.23.06.06,0,1,0,0,.11,16.26,16.26,0,0,1,3.27,0c.42.53.84,1.06,1.25,1.6a29.79,29.79,0,0,0-9.26.89s0,.09,0,.08a36.93,36.93,0,0,1,9.5-.62c.39.51.76,1.05,1.14,1.57a19.77,19.77,0,0,0-5.51.63.06.06,0,0,0,0,.11,21.07,21.07,0,0,1,5.71-.45q2.46,3.4,4.72,6.92a5.09,5.09,0,0,0-2.42.14,0,0,0,0,0,0,.07,10.43,10.43,0,0,1,2.62.12q2,3.18,3.93,6.4C427.08,306.93,427.37,306.8,427.27,306.61Z" style="fill:#263238"></path><path d="M415.4,294.73a11.89,11.89,0,0,0-4.43.54s0,.07,0,.07a32.48,32.48,0,0,1,4.4-.45C415.49,294.88,415.51,294.74,415.4,294.73Z" style="fill:#263238"></path><path d="M402.1,277.28a7.33,7.33,0,0,0-2,.12c-.08,0-.06.13,0,.12.67-.07,1.33,0,2-.07A.09.09,0,0,0,402.1,277.28Z" style="fill:#263238"></path><polygon points="447.74 357.39 413.31 357.39 418.22 321.43 419.47 312.21 441.57 312.21 442.83 321.43 447.74 357.39" style="fill:#c7c7c7"></polygon><polygon points="442.83 321.43 418.22 321.43 419.47 312.21 441.57 312.21 442.83 321.43" style="fill:#a6a6a6"></polygon><rect x="416.31" y="309.01" width="28.42" height="7.81" style="fill:#c7c7c7"></rect></g><g id="freepik--control-panel--inject-76"><polygon points="425.73 403.02 74.27 403.02 74.27 314.55 93.96 253.97 93.96 53.05 406.04 53.05 406.04 253.97 425.73 314.55 425.73 403.02" style="fill:#455a64"></polygon><rect x="74.27" y="314.55" width="351.46" height="88.48" style="fill:#37474f"></rect><rect x="93.96" y="73.93" width="312.09" height="180.04" style="fill:#37474f"></rect><rect x="179.29" y="127.46" width="141.42" height="103.84" style="fill:#a6a6a6"></rect><rect x="194.94" y="213.55" width="5.68" height="5.68" style="fill:#FFC727"></rect><rect x="204.56" y="213.55" width="62.15" height="1.68" style="fill:#fff"></rect><rect x="204.56" y="217.55" width="40.16" height="1.68" style="fill:#fff"></rect><path d="M192.41,147.66c19.19-.12,38.39-.09,57.59-.14s38.4,0,57.59.14c-19.19.12-38.39.09-57.59.14S211.6,147.78,192.41,147.66Z" style="fill:#fff"></path><path d="M192.41,159c19.19-.12,38.39-.09,57.59-.14s38.4,0,57.59.14c-19.19.12-38.39.09-57.59.14S211.6,159.16,192.41,159Z" style="fill:#fff"></path><path d="M192.41,170.42c19.19-.12,38.39-.09,57.59-.14s38.4,0,57.59.14c-19.19.12-38.39.09-57.59.14S211.6,170.54,192.41,170.42Z" style="fill:#fff"></path><path d="M192.41,181.8c19.19-.12,38.39-.09,57.59-.14s38.4,0,57.59.14c-19.19.12-38.39.09-57.59.14S211.6,181.92,192.41,181.8Z" style="fill:#fff"></path><path d="M192.41,193.18c19.19-.12,38.39-.09,57.59-.14s38.4,0,57.59.14c-19.19.12-38.39.09-57.59.14S211.6,193.3,192.41,193.18Z" style="fill:#fff"></path><path d="M215.6,140.26c.17,10.63.12,21.27.19,31.9s0,21.27-.19,31.9c-.17-10.63-.13-21.27-.2-31.9S215.43,150.89,215.6,140.26Z" style="fill:#fff"></path><path d="M235.52,140.26c.17,10.63.12,21.27.19,31.9s0,21.27-.19,31.9c-.17-10.63-.13-21.27-.2-31.9S235.35,150.89,235.52,140.26Z" style="fill:#fff"></path><path d="M255.44,140.26c.17,10.63.12,21.27.19,31.9s0,21.27-.19,31.9c-.17-10.63-.13-21.27-.2-31.9S255.27,150.89,255.44,140.26Z" style="fill:#fff"></path><path d="M275.36,140.26c.16,10.63.12,21.27.19,31.9s0,21.27-.19,31.9c-.17-10.63-.13-21.27-.2-31.9S275.19,150.89,275.36,140.26Z" style="fill:#fff"></path><path d="M295.27,140.26c.17,10.63.13,21.27.2,31.9s0,21.27-.2,31.9c-.17-10.63-.12-21.27-.19-31.9S295.11,150.89,295.27,140.26Z" style="fill:#fff"></path><path d="M195.31,184.93c3.51,0,5.61-11.56,10.59-11.56s5.5,8.43,9.7,8.43S219.66,167,225.3,167s4.32,6,10.22,6,3.67-14,9.83-14,3.67,19.23,10.09,19.23c4.06,0,5.63-6.11,10.48-6.11,3.21,0,5.1,3.06,9.3,3.06s5.12-11.75,10.36-11.75,5.84,6.95,9.69,6.95S300.52,159,307.59,159v45H195.31Z" style="fill:#FFC727;opacity:0.5"></path><path d="M195.31,185.48v-1.11c1.06,0,2.53-2.7,3.6-4.67,1.84-3.39,3.74-6.89,7-6.89s4.67,2.56,6,4.83c1.07,1.77,2.18,3.6,3.67,3.6,1.31,0,2.45-3.55,3.28-6.15,1.35-4.26,2.76-8.66,6.42-8.66,3.26,0,4.54,1.73,5.67,3.25s2,2.76,4.55,2.76c2.26,0,3.15-3.26,4-6.41,1-3.71,2.05-7.55,5.82-7.55s4.68,4.83,5.69,10c.82,4.13,1.84,9.28,4.4,9.28,1.52,0,2.77-1.27,4.1-2.61,1.61-1.64,3.44-3.5,6.38-3.5a9.06,9.06,0,0,1,4.49,1.5,9.5,9.5,0,0,0,4.81,1.56c1.45,0,2.78-2.79,3.85-5,1.56-3.3,3.18-6.71,6.51-6.71s4.92,2.22,6.36,4.18c1,1.43,2,2.77,3.34,2.77,1.1,0,2.36-2.16,3.47-4.06,1.89-3.26,4.24-7.32,8.84-7.32v1.12c-3.54,0-5.58,3.51-7.38,6.62-1.55,2.66-2.77,4.76-4.93,4.76s-3.47-1.64-4.74-3.38-2.62-3.57-5-3.57c-2.19,0-3.69,3.16-5,5.94-1.48,3.12-2.75,5.8-5.34,5.8a11.21,11.21,0,0,1-5.78-1.8,7.47,7.47,0,0,0-3.52-1.25c-2.12,0-3.63,1.53-5.09,3s-3,3.09-5.39,3.09c-3.93,0-4.92-5-6-10.24-.79-4-1.77-9-4.13-9s-3.43,3.52-4.27,6.64c-1,3.76-2,7.31-5.56,7.31s-4.78-1.78-6-3.35-2-2.66-4.27-2.66-3.78,4.32-4.89,7.79c-1.25,3.93-2.24,7-4.81,7s-3.79-2.08-5.12-4.29c-1.23-2-2.5-4.15-4.58-4.15s-4,3.43-5.52,6.18C198.75,183.11,197.46,185.48,195.31,185.48Z" style="fill:#FFC727"></path><path d="M195.31,141c.13,10.52.24,21,.25,31.56l.12,31.55-.37-.26,56.14.07,28.07,0,28.07.14-28.07.15-28.07,0-56.14.06h-.37v-.26l.12-31.55C195.07,162,195.18,151.47,195.31,141Z" style="fill:#fff"></path><rect x="330.06" y="127.46" width="60.81" height="47.72" style="fill:#a6a6a6"></rect><path d="M334.67,133.09l25.8-.07c8.59,0,17.19,0,25.79.07-8.6.06-17.2,0-25.79.07Z" style="fill:#fff"></path><path d="M334.67,135.14l25.8-.07c8.59,0,17.19,0,25.79.07-8.6.06-17.2,0-25.79.07Z" style="fill:#fff"></path><path d="M334.67,137.19l25.8-.07c8.59,0,17.19,0,25.79.07-8.6.06-17.2,0-25.79.07Z" style="fill:#fff"></path><path d="M334.67,139.24l25.8-.07c8.59,0,17.19,0,25.79.07-8.6.06-17.2,0-25.79.07Z" style="fill:#fff"></path><path d="M334.67,141.29l25.8-.07c8.59,0,17.19,0,25.79.07-8.6.06-17.2,0-25.79.06Z" style="fill:#fff"></path><path d="M334.67,143.34l25.8-.07c8.59,0,17.19,0,25.79.07-8.6.06-17.2,0-25.79.06Z" style="fill:#fff"></path><path d="M334.67,145.39l25.8-.07c8.59,0,17.19,0,25.79.07-8.6.06-17.2,0-25.79.06Z" style="fill:#fff"></path><path d="M334.67,147.44l25.8-.07c8.59,0,17.19,0,25.79.07-8.6.05-17.2,0-25.79.06Z" style="fill:#fff"></path><path d="M334.67,149.49l25.8-.07c8.59,0,17.19,0,25.79.07-8.6,0-17.2,0-25.79.06Z" style="fill:#fff"></path><path d="M334.67,151.54l25.8-.07c8.59,0,17.19,0,25.79.07-8.6.05-17.2,0-25.79.06Z" style="fill:#fff"></path><path d="M334.67,153.59l25.8-.07c8.59,0,17.19,0,25.79.07-8.6,0-17.2,0-25.79.06Z" style="fill:#fff"></path><path d="M334.67,155.64l25.8-.07c8.59,0,17.19,0,25.79.07-8.6.05-17.2,0-25.79.06Z" style="fill:#fff"></path><path d="M334.67,157.69l25.8-.07c8.59,0,17.19,0,25.79.07-8.6.05-17.2,0-25.79.06Z" style="fill:#fff"></path><path d="M334.67,159.74l25.8-.07c8.59,0,17.19,0,25.79.07-8.6,0-17.2,0-25.79.06Z" style="fill:#fff"></path><path d="M334.67,161.79l25.8-.07c8.59,0,17.19,0,25.79.07-8.6.05-17.2,0-25.79.06Z" style="fill:#fff"></path><rect x="340.13" y="147.44" width="3.91" height="16.74" style="fill:#FFC727"></rect><rect x="347.38" y="140.36" width="3.91" height="23.82" style="fill:#fff"></rect><rect x="354.64" y="145.46" width="3.91" height="18.72" style="fill:#a6a6a6"></rect><rect x="361.9" y="139.24" width="3.91" height="24.94" style="fill:#FFC727"></rect><rect x="369.15" y="142.58" width="3.91" height="21.59" style="fill:#fff"></rect><rect x="376.41" y="154.82" width="3.91" height="9.36" style="fill:#a6a6a6"></rect><path d="M336.07,131.65l.11,8.13.07,8.13q.08,8.13.08,16.27l-.26-.25h12.55l12.55,0,12.54.08,12.55.15-12.55.14-12.54.08-12.55,0h-12.8v-.24c0-5.43,0-10.85.07-16.27l.08-8.13Z" style="fill:#fff"></path><rect x="340.13" y="165.89" width="3.91" height="0.34" style="fill:#fff"></rect><rect x="347.38" y="165.89" width="3.91" height="0.34" style="fill:#fff"></rect><rect x="354.64" y="165.89" width="3.91" height="0.34" style="fill:#fff"></rect><rect x="361.9" y="165.89" width="3.91" height="0.34" style="fill:#fff"></rect><rect x="369.15" y="165.89" width="3.91" height="0.34" style="fill:#fff"></rect><rect x="376.41" y="165.89" width="3.91" height="0.34" style="fill:#fff"></rect><rect x="335.82" y="169.01" width="2.76" height="2.76" style="fill:#FFC727"></rect><rect x="340.49" y="169.01" width="15.1" height="0.82" style="fill:#fff"></rect><rect x="340.49" y="170.95" width="4.42" height="0.82" style="fill:#fff"></rect><rect x="330.06" y="183.58" width="60.81" height="47.72" style="fill:#a6a6a6"></rect><rect x="334.64" y="189.46" width="51.65" height="30.47" style="fill:#dbdbdb"></rect><rect x="337.38" y="193.31" width="46.16" height="2.63" style="fill:#fff"></rect><rect x="337.38" y="193.31" width="23.6" height="2.63" style="fill:#FFC727"></rect><rect x="337.38" y="198.34" width="46.16" height="2.63" style="fill:#fff"></rect><rect x="337.38" y="198.34" width="42.34" height="2.63" style="fill:#FFC727"></rect><rect x="337.38" y="203.38" width="46.16" height="2.63" style="fill:#fff"></rect><rect x="337.38" y="203.38" width="13.66" height="2.63" style="fill:#FFC727"></rect><rect x="337.38" y="208.42" width="46.16" height="2.63" style="fill:#fff"></rect><rect x="337.38" y="208.42" width="36.28" height="2.63" style="fill:#FFC727"></rect><rect x="337.38" y="213.45" width="46.16" height="2.63" style="fill:#fff"></rect><rect x="337.38" y="213.45" width="26.67" height="2.63" style="fill:#FFC727"></rect><rect x="334.32" y="223.71" width="2.76" height="2.76" style="fill:#FFC727"></rect><rect x="339" y="223.71" width="15.1" height="0.82" style="fill:#fff"></rect><rect x="339" y="225.66" width="4.42" height="0.82" style="fill:#fff"></rect><polygon points="96.05 303.23 90.03 303.23 101.54 265.02 107.07 265.02 96.05 303.23" style="fill:#263238"></polygon><rect x="97.62" y="269.35" width="1.86" height="16.22" style="fill:#fff"></rect><path d="M101.87,268.63a3.32,3.32,0,1,1-3.32-3.32A3.31,3.31,0,0,1,101.87,268.63Z" style="fill:#FFC727"></path><polygon points="108.18 303.23 102.16 303.23 112.68 265.02 118.2 265.02 108.18 303.23" style="fill:#263238"></polygon><rect x="109.25" y="277.23" width="1.86" height="8.34" style="fill:#fff"></rect><path d="M113.5,276.51a3.32,3.32,0,1,1-3.32-3.33A3.32,3.32,0,0,1,113.5,276.51Z" style="fill:#FFC727"></path><polygon points="120.31 303.23 114.29 303.23 123.81 265.02 129.33 265.02 120.31 303.23" style="fill:#263238"></polygon><rect x="120.88" y="285.57" width="1.86" height="11.11" style="fill:#fff"></rect><path d="M125.13,296a3.32,3.32,0,1,1-3.32-3.33A3.32,3.32,0,0,1,125.13,296Z" style="fill:#FFC727"></path><polygon points="132.44 303.23 126.42 303.23 134.94 265.02 140.47 265.02 132.44 303.23" style="fill:#263238"></polygon><rect x="132.51" y="273.4" width="1.86" height="12.17" style="fill:#fff"></rect><circle cx="133.44" cy="272.68" r="3.32" style="fill:#FFC727"></circle><polygon points="177.26 303.23 175.06 303.23 179.59 265.02 181.6 265.02 177.26 303.23" style="fill:#263238"></polygon><polygon points="184.63 269.81 175.53 269.81 175.77 267.96 184.82 267.96 184.63 269.81" style="fill:#FFC727"></polygon><polygon points="190.53 303.23 188.34 303.23 191.77 265.02 193.79 265.02 190.53 303.23" style="fill:#263238"></polygon><polygon points="195.07 294.28 185.46 294.28 185.64 292.43 195.21 292.43 195.07 294.28" style="fill:#FFC727"></polygon><polygon points="203.81 303.23 201.61 303.23 203.96 265.02 205.97 265.02 203.81 303.23" style="fill:#263238"></polygon><polygon points="209.05 274.35 199.86 274.35 199.99 272.49 209.14 272.49 209.05 274.35" style="fill:#FFC727"></polygon><polygon points="217.09 303.23 214.89 303.23 216.14 265.02 218.16 265.02 217.09 303.23" style="fill:#263238"></polygon><polygon points="221.4 279.65 212.1 279.65 212.18 277.8 221.44 277.8 221.4 279.65" style="fill:#FFC727"></polygon><polygon points="230.36 303.23 228.16 303.23 228.33 265.02 230.34 265.02 230.36 303.23" style="fill:#263238"></polygon><polygon points="234.12 293.35 224.53 293.35 224.56 291.5 234.11 291.5 234.12 293.35" style="fill:#FFC727"></polygon><polygon points="156.44 268.97 148.74 268.97 149.49 265.02 157.12 265.02 156.44 268.97" style="fill:#dbdbdb"></polygon><polygon points="155.27 275.82 147.45 275.82 148.2 271.87 155.94 271.87 155.27 275.82" style="fill:#a6a6a6"></polygon><polygon points="154.09 282.68 146.15 282.68 146.9 278.72 154.77 278.72 154.09 282.68" style="fill:#FFC727"></polygon><polygon points="152.92 289.53 144.86 289.53 145.61 285.57 153.6 285.57 152.92 289.53" style="fill:#dbdbdb"></polygon><polygon points="151.75 296.38 143.56 296.38 144.31 292.43 152.43 292.43 151.75 296.38" style="fill:#a6a6a6"></polygon><polygon points="150.58 303.23 142.27 303.23 143.02 299.28 151.25 299.28 150.58 303.23" style="fill:#dbdbdb"></polygon><polygon points="168.22 268.97 160.52 268.97 161.16 265.02 168.79 265.02 168.22 268.97" style="fill:#dbdbdb"></polygon><polygon points="167.23 275.82 159.41 275.82 160.05 271.87 167.8 271.87 167.23 275.82" style="fill:#FFC727"></polygon><polygon points="166.25 282.68 158.31 282.68 158.95 278.72 166.82 278.72 166.25 282.68" style="fill:#a6a6a6"></polygon><polygon points="165.26 289.53 157.2 289.53 157.84 285.57 165.83 285.57 165.26 289.53" style="fill:#dbdbdb"></polygon><polygon points="164.28 296.38 156.09 296.38 156.73 292.43 164.85 292.43 164.28 296.38" style="fill:#a6a6a6"></polygon><polygon points="163.29 303.23 154.99 303.23 155.63 299.28 163.86 299.28 163.29 303.23" style="fill:#FFC727"></polygon><polygon points="318.64 270.94 312.63 270.94 311.5 265.02 317.43 265.02 318.64 270.94" style="fill:#a6a6a6"></polygon><polygon points="320.29 279.01 314.17 279.01 313.04 273.09 319.08 273.09 320.29 279.01" style="fill:#FFC727"></polygon><polygon points="321.94 287.09 315.71 287.09 314.58 281.17 320.73 281.17 321.94 287.09" style="fill:#dbdbdb"></polygon><polygon points="323.59 295.16 317.25 295.16 316.12 289.24 322.38 289.24 323.59 295.16" style="fill:#263238"></polygon><polygon points="325.24 303.23 318.79 303.23 317.66 297.31 324.03 297.31 325.24 303.23" style="fill:#a6a6a6"></polygon><polygon points="326.6 270.94 320.6 270.94 319.36 265.02 325.28 265.02 326.6 270.94" style="fill:#dbdbdb"></polygon><polygon points="328.4 279.01 322.29 279.01 321.05 273.09 327.08 273.09 328.4 279.01" style="fill:#263238"></polygon><polygon points="330.2 287.09 323.97 287.09 322.74 281.17 328.88 281.17 330.2 287.09" style="fill:#a6a6a6"></polygon><polygon points="332 295.16 325.66 295.16 324.42 289.24 330.68 289.24 332 295.16" style="fill:#FFC727"></polygon><polygon points="333.8 303.23 327.35 303.23 326.11 297.31 332.48 297.31 333.8 303.23" style="fill:#dbdbdb"></polygon><polygon points="334.57 270.94 328.57 270.94 327.22 265.02 333.14 265.02 334.57 270.94" style="fill:#a6a6a6"></polygon><polygon points="336.52 279.01 330.4 279.01 329.06 273.09 335.09 273.09 336.52 279.01" style="fill:#dbdbdb"></polygon><polygon points="338.46 287.09 332.24 287.09 330.89 281.17 337.04 281.17 338.46 287.09" style="fill:#FFC727"></polygon><polygon points="340.41 295.16 334.07 295.16 332.73 289.24 338.98 289.24 340.41 295.16" style="fill:#a6a6a6"></polygon><polygon points="342.36 303.23 335.91 303.23 334.56 297.31 340.93 297.31 342.36 303.23" style="fill:#FFC727"></polygon><polygon points="342.54 270.94 336.53 270.94 335.08 265.02 341 265.02 342.54 270.94" style="fill:#FFC727"></polygon><polygon points="344.63 279.01 338.52 279.01 337.06 273.09 343.1 273.09 344.63 279.01" style="fill:#a6a6a6"></polygon><polygon points="346.73 287.09 340.5 287.09 339.05 281.17 345.19 281.17 346.73 287.09" style="fill:#dbdbdb"></polygon><polygon points="348.82 295.16 342.49 295.16 341.03 289.24 347.29 289.24 348.82 295.16" style="fill:#263238"></polygon><polygon points="350.92 303.23 344.47 303.23 343.01 297.31 349.38 297.31 350.92 303.23" style="fill:#dbdbdb"></polygon><polygon points="310.1 303.23 241.6 303.23 240.66 265.02 303.53 265.02 310.1 303.23" style="fill:#263238"></polygon><polygon points="246.92 269.35 243.81 269.35 243.79 268.56 246.89 268.56 246.92 269.35" style="fill:#FFC727"></polygon><path d="M375.69,276.05H353.05c-1.71-6.09,1.84-11,7.94-11S373.67,270,375.69,276.05Z" style="fill:#fff"></path><path d="M366.34,276.05H362.4a1.39,1.39,0,0,1,1.38-1.92A2.87,2.87,0,0,1,366.34,276.05Z" style="fill:#FFC727"></path><polygon points="364.87 276.05 362.13 268.73 363.87 276.05 364.87 276.05" style="fill:#FFC727"></polygon><polygon points="361.9 267.36 361.5 267.36 361.07 265.94 361.47 265.94 361.9 267.36" style="fill:#263238"></polygon><polygon points="357.82 268.42 357.54 268.62 356.45 267.39 356.74 267.19 357.82 268.42" style="fill:#263238"></polygon><polygon points="355.44 271.52 355.34 271.87 353.88 271.16 353.99 270.81 355.44 271.52" style="fill:#263238"></polygon><polygon points="355.27 275.44 355.39 275.83 353.93 275.83 353.82 275.44 355.27 275.44" style="fill:#263238"></polygon><polygon points="373.2 275.85 373.07 275.45 374.53 275.45 374.66 275.85 373.2 275.85" style="fill:#263238"></polygon><polygon points="370.83 271.88 370.51 271.54 371.53 270.82 371.85 271.17 370.83 271.88" style="fill:#263238"></polygon><polygon points="366.64 268.63 366.23 268.43 366.56 267.19 366.97 267.39 366.64 268.63" style="fill:#263238"></polygon><path d="M382,295.16H358.41c-1.71-6.09,2.07-11,8.43-11S380,289.07,382,295.16Z" style="fill:#fff"></path><path d="M372.28,295.16h-4.11a1.42,1.42,0,0,1,1.46-1.92A2.94,2.94,0,0,1,372.28,295.16Z" style="fill:#FFC727"></path><polygon points="371.04 294.59 363.7 289.76 370.03 294.89 371.04 294.59" style="fill:#FFC727"></polygon><polygon points="367.77 286.47 367.35 286.47 366.92 285.05 367.33 285.05 367.77 286.47" style="fill:#263238"></polygon><polygon points="363.49 287.53 363.19 287.73 362.08 286.5 362.38 286.3 363.49 287.53" style="fill:#263238"></polygon><polygon points="360.96 290.63 360.85 290.98 359.34 290.27 359.45 289.92 360.96 290.63" style="fill:#263238"></polygon><polygon points="360.74 294.55 360.86 294.94 359.33 294.94 359.22 294.55 360.74 294.55" style="fill:#263238"></polygon><polygon points="379.45 294.96 379.32 294.56 380.84 294.56 380.97 294.96 379.45 294.96" style="fill:#263238"></polygon><polygon points="377.02 290.99 376.7 290.65 377.78 289.93 378.1 290.28 377.02 290.99" style="fill:#263238"></polygon><polygon points="372.7 287.74 372.27 287.54 372.63 286.31 373.06 286.5 372.7 287.74" style="fill:#263238"></polygon><path d="M403.5,276.05H380.85c-2.09-6.09,1.15-11,7.24-11S401.09,270,403.5,276.05Z" style="fill:#fff"></path><path d="M394.14,276.05H390.2a1.31,1.31,0,0,1,1.26-1.92A3.1,3.1,0,0,1,394.14,276.05Z" style="fill:#FFC727"></path><polygon points="392.66 275.89 386.15 269.9 391.4 275.75 392.66 275.89" style="fill:#FFC727"></polygon><polygon points="389.16 267.36 388.76 267.36 388.23 265.94 388.63 265.94 389.16 267.36" style="fill:#263238"></polygon><polygon points="385.15 268.42 384.87 268.62 383.71 267.39 383.99 267.19 385.15 268.42" style="fill:#263238"></polygon><polygon points="382.96 271.52 382.88 271.87 381.38 271.16 381.46 270.81 382.96 271.52" style="fill:#263238"></polygon><polygon points="383.04 275.44 383.18 275.83 381.72 275.83 381.58 275.44 383.04 275.44" style="fill:#263238"></polygon><polygon points="400.99 275.85 400.84 275.45 402.3 275.45 402.45 275.85 400.99 275.85" style="fill:#263238"></polygon><polygon points="398.37 271.88 398.03 271.54 399.01 270.82 399.34 271.17 398.37 271.88" style="fill:#263238"></polygon><polygon points="393.98 268.63 393.55 268.43 393.8 267.19 394.22 267.39 393.98 268.63" style="fill:#263238"></polygon><path d="M411.06,295.16H387.43c-2.1-6.09,1.37-11,7.73-11S408.65,289.07,411.06,295.16Z" style="fill:#fff"></path><path d="M401.3,295.16h-4.12a1.34,1.34,0,0,1,1.35-1.92A3.18,3.18,0,0,1,401.3,295.16Z" style="fill:#FFC727"></path><polygon points="398.74 295.22 403.78 291.2 397.91 294.37 398.74 295.22" style="fill:#FFC727"></polygon><polygon points="396.24 286.47 395.82 286.47 395.29 285.05 395.71 285.05 396.24 286.47" style="fill:#263238"></polygon><polygon points="392.03 287.53 391.74 287.73 390.55 286.5 390.84 286.3 392.03 287.53" style="fill:#263238"></polygon><polygon points="389.7 290.63 389.61 290.98 388.05 290.27 388.14 289.92 389.7 290.63" style="fill:#263238"></polygon><polygon points="389.72 294.55 389.86 294.94 388.34 294.94 388.2 294.55 389.72 294.55" style="fill:#263238"></polygon><polygon points="408.45 294.96 408.3 294.56 409.82 294.56 409.98 294.96 408.45 294.96" style="fill:#263238"></polygon><polygon points="405.78 290.99 405.43 290.65 406.46 289.93 406.81 290.28 405.78 290.99" style="fill:#263238"></polygon><polygon points="401.25 287.74 400.81 287.54 401.09 286.31 401.53 286.5 401.25 287.74" style="fill:#263238"></polygon><rect x="109.13" y="90.18" width="37.02" height="2.8" style="fill:#263238"></rect><rect x="109.13" y="97.81" width="37.02" height="2.8" style="fill:#263238"></rect><rect x="109.13" y="105.44" width="37.02" height="2.8" style="fill:#263238"></rect><rect x="109.13" y="113.07" width="37.02" height="2.8" style="fill:#263238"></rect><rect x="109.13" y="155.18" width="59.58" height="20.69" style="fill:#a6a6a6"></rect><rect x="112.9" y="158.6" width="20.99" height="1.75" style="fill:#dbdbdb"></rect><rect x="112.9" y="161.62" width="20.99" height="1.75" style="fill:#dbdbdb"></rect><rect x="112.9" y="164.65" width="20.99" height="1.75" style="fill:#dbdbdb"></rect><rect x="112.9" y="167.68" width="20.99" height="1.75" style="fill:#dbdbdb"></rect><rect x="112.9" y="170.71" width="20.99" height="1.75" style="fill:#dbdbdb"></rect><path d="M143,160.33a1.73,1.73,0,1,1-1.73-1.73A1.73,1.73,0,0,1,143,160.33Z" style="fill:#FFC727"></path><path d="M148.75,160.33A1.74,1.74,0,1,1,147,158.6,1.73,1.73,0,0,1,148.75,160.33Z" style="fill:#FFC727"></path><path d="M154.46,160.33a1.74,1.74,0,1,1-1.73-1.73A1.73,1.73,0,0,1,154.46,160.33Z" style="fill:#FFC727"></path><path d="M160.17,160.33a1.74,1.74,0,1,1-1.74-1.73A1.73,1.73,0,0,1,160.17,160.33Z" style="fill:#FFC727"></path><path d="M165.87,160.33a1.73,1.73,0,1,1-1.73-1.73A1.72,1.72,0,0,1,165.87,160.33Z" style="fill:#FFC727"></path><path d="M143,165.52a1.73,1.73,0,1,1-1.73-1.73A1.74,1.74,0,0,1,143,165.52Z" style="fill:#FFC727"></path><path d="M148.75,165.52a1.74,1.74,0,1,1-1.73-1.73A1.74,1.74,0,0,1,148.75,165.52Z" style="fill:#FFC727"></path><path d="M154.46,165.52a1.74,1.74,0,1,1-1.73-1.73A1.74,1.74,0,0,1,154.46,165.52Z" style="fill:#FFC727"></path><path d="M160.17,165.52a1.74,1.74,0,1,1-1.74-1.73A1.74,1.74,0,0,1,160.17,165.52Z" style="fill:#FFC727"></path><path d="M165.87,165.52a1.73,1.73,0,1,1-1.73-1.73A1.73,1.73,0,0,1,165.87,165.52Z" style="fill:#FFC727"></path><path d="M143,170.72a1.73,1.73,0,1,1-1.73-1.73A1.73,1.73,0,0,1,143,170.72Z" style="fill:#FFC727"></path><path d="M148.75,170.72A1.74,1.74,0,1,1,147,169,1.73,1.73,0,0,1,148.75,170.72Z" style="fill:#FFC727"></path><path d="M154.46,170.72a1.74,1.74,0,1,1-1.73-1.73A1.73,1.73,0,0,1,154.46,170.72Z" style="fill:#FFC727"></path><path d="M160.17,170.72a1.74,1.74,0,1,1-1.74-1.73A1.73,1.73,0,0,1,160.17,170.72Z" style="fill:#FFC727"></path><path d="M165.87,170.72a1.73,1.73,0,1,1-1.73-1.73A1.72,1.72,0,0,1,165.87,170.72Z" style="fill:#FFC727"></path><rect x="136.29" y="158.6" width="1" height="13.85" style="fill:#263238"></rect><rect x="109.13" y="210.62" width="59.58" height="20.69" style="fill:#a6a6a6"></rect><rect x="112.9" y="214.04" width="20.99" height="1.75" style="fill:#dbdbdb"></rect><rect x="112.9" y="217.06" width="20.99" height="1.75" style="fill:#dbdbdb"></rect><rect x="112.9" y="220.09" width="20.99" height="1.75" style="fill:#dbdbdb"></rect><rect x="112.9" y="223.12" width="20.99" height="1.75" style="fill:#dbdbdb"></rect><rect x="112.9" y="226.14" width="20.99" height="1.75" style="fill:#dbdbdb"></rect><path d="M143,215.77a1.73,1.73,0,1,1-1.73-1.73A1.74,1.74,0,0,1,143,215.77Z" style="fill:#FFC727"></path><path d="M148.75,215.77A1.74,1.74,0,1,1,147,214,1.74,1.74,0,0,1,148.75,215.77Z" style="fill:#FFC727"></path><path d="M154.46,215.77a1.74,1.74,0,1,1-1.73-1.73A1.74,1.74,0,0,1,154.46,215.77Z" style="fill:#FFC727"></path><path d="M160.17,215.77a1.74,1.74,0,1,1-1.74-1.73A1.74,1.74,0,0,1,160.17,215.77Z" style="fill:#FFC727"></path><path d="M165.87,215.77a1.73,1.73,0,1,1-1.73-1.73A1.73,1.73,0,0,1,165.87,215.77Z" style="fill:#FFC727"></path><path d="M143,221a1.73,1.73,0,1,1-1.73-1.73A1.73,1.73,0,0,1,143,221Z" style="fill:#FFC727"></path><path d="M148.75,221a1.74,1.74,0,1,1-1.73-1.73A1.73,1.73,0,0,1,148.75,221Z" style="fill:#FFC727"></path><path d="M154.46,221a1.74,1.74,0,1,1-1.73-1.73A1.73,1.73,0,0,1,154.46,221Z" style="fill:#FFC727"></path><path d="M160.17,221a1.74,1.74,0,1,1-1.74-1.73A1.73,1.73,0,0,1,160.17,221Z" style="fill:#FFC727"></path><path d="M165.87,221a1.73,1.73,0,1,1-1.73-1.73A1.72,1.72,0,0,1,165.87,221Z" style="fill:#FFC727"></path><path d="M143,226.16a1.73,1.73,0,1,1-1.73-1.73A1.74,1.74,0,0,1,143,226.16Z" style="fill:#FFC727"></path><path d="M148.75,226.16a1.74,1.74,0,1,1-1.73-1.73A1.74,1.74,0,0,1,148.75,226.16Z" style="fill:#FFC727"></path><path d="M154.46,226.16a1.74,1.74,0,1,1-1.73-1.73A1.74,1.74,0,0,1,154.46,226.16Z" style="fill:#FFC727"></path><path d="M160.17,226.16a1.74,1.74,0,1,1-1.74-1.73A1.74,1.74,0,0,1,160.17,226.16Z" style="fill:#FFC727"></path><path d="M165.87,226.16a1.73,1.73,0,1,1-1.73-1.73A1.73,1.73,0,0,1,165.87,226.16Z" style="fill:#FFC727"></path><rect x="136.29" y="214.04" width="1" height="13.85" style="fill:#263238"></rect><rect x="109.13" y="182.9" width="59.58" height="20.69" style="fill:#a6a6a6"></rect><rect x="112.9" y="186.32" width="20.99" height="1.75" style="fill:#dbdbdb"></rect><rect x="112.9" y="189.34" width="20.99" height="1.75" style="fill:#dbdbdb"></rect><rect x="112.9" y="192.37" width="20.99" height="1.75" style="fill:#dbdbdb"></rect><rect x="112.9" y="195.4" width="20.99" height="1.75" style="fill:#dbdbdb"></rect><rect x="112.9" y="198.42" width="20.99" height="1.75" style="fill:#dbdbdb"></rect><path d="M143,188.05a1.73,1.73,0,1,1-1.73-1.73A1.74,1.74,0,0,1,143,188.05Z" style="fill:#FFC727"></path><path d="M148.75,188.05a1.74,1.74,0,1,1-1.73-1.73A1.74,1.74,0,0,1,148.75,188.05Z" style="fill:#FFC727"></path><path d="M154.46,188.05a1.74,1.74,0,1,1-1.73-1.73A1.74,1.74,0,0,1,154.46,188.05Z" style="fill:#FFC727"></path><path d="M160.17,188.05a1.74,1.74,0,1,1-1.74-1.73A1.74,1.74,0,0,1,160.17,188.05Z" style="fill:#FFC727"></path><path d="M165.87,188.05a1.73,1.73,0,1,1-1.73-1.73A1.73,1.73,0,0,1,165.87,188.05Z" style="fill:#FFC727"></path><path d="M143,193.24a1.73,1.73,0,1,1-1.73-1.73A1.74,1.74,0,0,1,143,193.24Z" style="fill:#FFC727"></path><path d="M148.75,193.24a1.74,1.74,0,1,1-1.73-1.73A1.74,1.74,0,0,1,148.75,193.24Z" style="fill:#FFC727"></path><path d="M154.46,193.24a1.74,1.74,0,1,1-1.73-1.73A1.74,1.74,0,0,1,154.46,193.24Z" style="fill:#FFC727"></path><path d="M160.17,193.24a1.74,1.74,0,1,1-1.74-1.73A1.74,1.74,0,0,1,160.17,193.24Z" style="fill:#FFC727"></path><path d="M165.87,193.24a1.73,1.73,0,1,1-1.73-1.73A1.73,1.73,0,0,1,165.87,193.24Z" style="fill:#FFC727"></path><path d="M143,198.44a1.73,1.73,0,1,1-1.73-1.73A1.74,1.74,0,0,1,143,198.44Z" style="fill:#FFC727"></path><path d="M148.75,198.44a1.74,1.74,0,1,1-1.73-1.73A1.74,1.74,0,0,1,148.75,198.44Z" style="fill:#FFC727"></path><path d="M154.46,198.44a1.74,1.74,0,1,1-1.73-1.73A1.74,1.74,0,0,1,154.46,198.44Z" style="fill:#FFC727"></path><path d="M160.17,198.44a1.74,1.74,0,1,1-1.74-1.73A1.74,1.74,0,0,1,160.17,198.44Z" style="fill:#FFC727"></path><path d="M165.87,198.44a1.73,1.73,0,1,1-1.73-1.73A1.73,1.73,0,0,1,165.87,198.44Z" style="fill:#FFC727"></path><rect x="136.29" y="186.32" width="1" height="13.85" style="fill:#263238"></rect><rect x="109.13" y="127.46" width="59.58" height="20.69" style="fill:#a6a6a6"></rect><path d="M128.59,137.81a6.93,6.93,0,1,1-.91-3.46A6.95,6.95,0,0,1,128.59,137.81Z" style="fill:#fff"></path><path d="M127.68,134.35l-6,3.46v-7A7,7,0,0,1,127.68,134.35Z" style="fill:#FFC727"></path><circle cx="121.64" cy="137.81" r="4.81" style="fill:#a6a6a6"></circle><path d="M145.81,137.81a6.77,6.77,0,0,1-.08,1,6.95,6.95,0,1,1-.84-4.47A6.88,6.88,0,0,1,145.81,137.81Z" style="fill:#fff"></path><path d="M145.81,137.81a6.77,6.77,0,0,1-.08,1l-6.88-1v-7a7,7,0,0,1,6,3.5A6.88,6.88,0,0,1,145.81,137.81Z" style="fill:#FFC727"></path><path d="M143.66,137.81a4.81,4.81,0,1,1-4.81-4.82A4.81,4.81,0,0,1,143.66,137.81Z" style="fill:#a6a6a6"></path><path d="M163.16,137.81a6.94,6.94,0,0,1-4.47,6.49,6.84,6.84,0,0,1-2.49.46,7,7,0,1,1,7-6.95Z" style="fill:#fff"></path><path d="M163.16,137.81a6.94,6.94,0,0,1-4.47,6.49l-2.49-6.49v-7a7,7,0,0,1,7,7Z" style="fill:#FFC727"></path><circle cx="156.2" cy="137.81" r="4.81" style="fill:#a6a6a6"></circle><rect x="179.29" y="90.18" width="76.13" height="25.7" style="fill:#a6a6a6"></rect><path d="M187.6,96.57a2.15,2.15,0,1,1-2.15-2.15A2.15,2.15,0,0,1,187.6,96.57Z" style="fill:#fff"></path><circle cx="192.54" cy="96.57" r="2.15" style="fill:#FFC727"></circle><circle cx="199.63" cy="96.57" r="2.15" style="fill:#263238"></circle><path d="M208.87,96.57a2.15,2.15,0,1,1-2.15-2.15A2.15,2.15,0,0,1,208.87,96.57Z" style="fill:#FFC727"></path><path d="M216,96.57a2.15,2.15,0,1,1-2.15-2.15A2.15,2.15,0,0,1,216,96.57Z" style="fill:#FFC727"></path><path d="M187.6,103a2.15,2.15,0,1,1-2.15-2.16A2.15,2.15,0,0,1,187.6,103Z" style="fill:#263238"></path><path d="M194.69,103a2.15,2.15,0,1,1-2.15-2.16A2.15,2.15,0,0,1,194.69,103Z" style="fill:#fff"></path><path d="M201.78,103a2.15,2.15,0,1,1-2.15-2.16A2.15,2.15,0,0,1,201.78,103Z" style="fill:#FFC727"></path><path d="M208.87,103a2.15,2.15,0,1,1-2.15-2.16A2.15,2.15,0,0,1,208.87,103Z" style="fill:#fff"></path><path d="M216,103a2.15,2.15,0,1,1-2.15-2.16A2.15,2.15,0,0,1,216,103Z" style="fill:#263238"></path><path d="M187.6,109.48a2.15,2.15,0,1,1-2.15-2.15A2.15,2.15,0,0,1,187.6,109.48Z" style="fill:#FFC727"></path><path d="M194.69,109.48a2.15,2.15,0,1,1-2.15-2.15A2.15,2.15,0,0,1,194.69,109.48Z" style="fill:#FFC727"></path><path d="M201.78,109.48a2.15,2.15,0,1,1-2.15-2.15A2.15,2.15,0,0,1,201.78,109.48Z" style="fill:#263238"></path><path d="M208.87,109.48a2.15,2.15,0,1,1-2.15-2.15A2.15,2.15,0,0,1,208.87,109.48Z" style="fill:#FFC727"></path><path d="M216,109.48a2.15,2.15,0,1,1-2.15-2.15A2.15,2.15,0,0,1,216,109.48Z" style="fill:#FFC727"></path><circle cx="220.9" cy="96.57" r="2.15" style="fill:#fff"></circle><path d="M223.05,103a2.15,2.15,0,1,1-2.15-2.16A2.15,2.15,0,0,1,223.05,103Z" style="fill:#FFC727"></path><path d="M223.05,109.48a2.15,2.15,0,1,1-2.15-2.15A2.15,2.15,0,0,1,223.05,109.48Z" style="fill:#fff"></path><circle cx="227.99" cy="96.57" r="2.15" style="fill:#263238"></circle><path d="M230.14,103a2.15,2.15,0,1,1-2.15-2.16A2.15,2.15,0,0,1,230.14,103Z" style="fill:#fff"></path><path d="M230.14,109.48a2.15,2.15,0,1,1-2.15-2.15A2.15,2.15,0,0,1,230.14,109.48Z" style="fill:#FFC727"></path><path d="M237.23,96.57a2.15,2.15,0,1,1-2.15-2.15A2.15,2.15,0,0,1,237.23,96.57Z" style="fill:#FFC727"></path><path d="M237.23,103a2.15,2.15,0,1,1-2.15-2.16A2.15,2.15,0,0,1,237.23,103Z" style="fill:#FFC727"></path><path d="M237.23,109.48a2.15,2.15,0,1,1-2.15-2.15A2.15,2.15,0,0,1,237.23,109.48Z" style="fill:#fff"></path><path d="M244.32,96.57a2.15,2.15,0,1,1-2.15-2.15A2.15,2.15,0,0,1,244.32,96.57Z" style="fill:#263238"></path><path d="M244.32,103a2.15,2.15,0,1,1-2.15-2.16A2.15,2.15,0,0,1,244.32,103Z" style="fill:#fff"></path><path d="M244.32,109.48a2.15,2.15,0,1,1-2.15-2.15A2.15,2.15,0,0,1,244.32,109.48Z" style="fill:#263238"></path><path d="M251.42,96.57a2.16,2.16,0,1,1-2.16-2.15A2.16,2.16,0,0,1,251.42,96.57Z" style="fill:#fff"></path><path d="M251.42,103a2.16,2.16,0,1,1-2.16-2.16A2.16,2.16,0,0,1,251.42,103Z" style="fill:#FFC727"></path><path d="M251.42,109.48a2.16,2.16,0,1,1-2.16-2.15A2.16,2.16,0,0,1,251.42,109.48Z" style="fill:#FFC727"></path><circle cx="278.85" cy="103.03" r="12.85" style="fill:#fff"></circle><path d="M278.85,103l-9.53-4.92a10.73,10.73,0,0,1,19.09,0Z" style="fill:#FFC727"></path><path d="M281.49,103a2.64,2.64,0,1,1-2.64-2.64A2.64,2.64,0,0,1,281.49,103Z" style="fill:#263238"></path><polygon points="278.86 102.61 277.92 101.73 284.53 95.56 278.86 102.61" style="fill:#263238"></polygon><circle cx="307.86" cy="103.03" r="12.85" style="fill:#fff"></circle><path d="M307.86,103l-9.54-4.92a10.73,10.73,0,0,1,19.1,0Z" style="fill:#dbdbdb"></path><path d="M310.49,103a2.63,2.63,0,1,1-2.63-2.64A2.63,2.63,0,0,1,310.49,103Z" style="fill:#263238"></path><polygon points="308.46 102.52 307.2 102.26 309.65 93.56 308.46 102.52" style="fill:#263238"></polygon><circle cx="336.86" cy="103.03" r="12.85" style="fill:#fff"></circle><path d="M336.86,103l-9.53-4.92a10.73,10.73,0,0,1,19.09,0Z" style="fill:#FFC727"></path><path d="M339.5,103a2.64,2.64,0,1,1-2.64-2.64A2.64,2.64,0,0,1,339.5,103Z" style="fill:#263238"></path><polygon points="337.69 101.83 336.73 102.7 331.16 95.58 337.69 101.83" style="fill:#263238"></polygon><circle cx="365.87" cy="103.03" r="12.85" style="fill:#fff"></circle><path d="M365.87,103l-9.54-4.92a10.73,10.73,0,0,1,19.1,0Z" style="fill:#dbdbdb"></path><path d="M368.5,103a2.64,2.64,0,1,1-2.63-2.64A2.63,2.63,0,0,1,368.5,103Z" style="fill:#263238"></path><polygon points="367.06 102.27 365.82 102.64 363.79 93.83 367.06 102.27" style="fill:#263238"></polygon><rect x="385.96" y="110.96" width="4.91" height="4.91" style="fill:#a6a6a6"></rect><rect x="385.96" y="104.04" width="4.91" height="4.91" style="fill:#a6a6a6"></rect><rect x="385.96" y="97.11" width="4.91" height="4.91" style="fill:#a6a6a6"></rect><rect x="385.96" y="90.18" width="4.91" height="4.91" style="fill:#a6a6a6"></rect></g><g id="freepik--Character--inject-76"><path d="M309.21,254.22c-6.41,19.25-12.41,33.89-18.28,37.15-4.73,2.63-11.22,4.24-17.84,5.21A163.24,163.24,0,0,1,251.74,298c-2.2,0-4,0-5.32,0-3.21,0-6.87-21.52-4.42-23.92.57-.55,2.71-.85,5.69-1,10-.51,29.64.66,30.89-.37s12.32-14.3,21.7-24.65C306.75,240.92,312.76,243.54,309.21,254.22Z" style="fill:#ad6359"></path><path d="M255.42,296.36a74.94,74.94,0,0,1-9.76,2.79c-2.63.46-10.24,1.56-11-1.29-.54-1.94,3.86-3.11,7-4,1.63-.47,3.73-1.88,3.39-2.94-.61-1.84-4.81-.53-7.62.71-5.43,2.39-12.81,7-15.64,4-1.06-1.11.5-2.74,2.7-4.26-3.48,1.67-7.12,2.95-8.36,1.77a1.73,1.73,0,0,1-.12-2.36,2.3,2.3,0,0,1-2.46-.67c-.93-1.22-.23-2.8,1.11-4.34a1.25,1.25,0,0,1-.89-.73c-1.85-3.66,10.42-12.18,14.38-12.66a86.27,86.27,0,0,1,23.66.9C255.8,277.36,255.43,296.36,255.42,296.36Z" style="fill:#ad6359"></path><path d="M237.45,283.89a18.65,18.65,0,0,0-7.91,2.08c-2.86,1.52-5.25,3.77-7.93,5.56-.07.05,0,.16.08.11,1.27-.94,2.65-1.75,4-2.63s2.54-1.78,3.87-2.55a18.48,18.48,0,0,1,7.93-2.52A0,0,0,0,0,237.45,283.89Z" style="fill:#263238"></path><path d="M235.87,278.83a47.19,47.19,0,0,0-9.17,2.07c-3.2,1.21-5.86,3.47-8.47,5.63q-2.34,2-4.61,4c-.06,0,0,.16.08.11q4-3.36,8.15-6.49a24.56,24.56,0,0,1,8.62-4.17c1.78-.46,3.59-.78,5.41-1.1A0,0,0,0,0,235.87,278.83Z" style="fill:#263238"></path><path d="M233.15,274.26c-3,.27-5.56.49-8.31,1.76a41.83,41.83,0,0,0-8.59,5.89c-1.43,1.21-2.81,2.48-4.18,3.76,0,.05,0,.15.09.1A96.88,96.88,0,0,1,222,278a19.48,19.48,0,0,1,5.31-2.67,35,35,0,0,1,5.84-1S233.16,274.25,233.15,274.26Z" style="fill:#263238"></path><path d="M304.11,273.72,287.26,262s8.43-11.59,15.29-16.85,9.11-.57,7.51,7.7S304.11,273.72,304.11,273.72Z" style="fill:#FFC727"></path><path d="M290.23,259.58a128.49,128.49,0,0,1,14.23,10.07s0,.14-.08.12c-4-2.52-11.71-8.13-14.26-10C290.07,259.71,290.18,259.55,290.23,259.58Z" style="fill:#263238"></path><path d="M288.64,263l15.47,10.74s4.35-12.59,5.95-20.86c1-5.34.46-9.18-1.92-9.83Z" style="fill:#263238"></path><path d="M297.88,245.28c2.94.42,5.84-4.33,6.94-7.77.09-.27-.49-2.79-1.09-5.91-.35-1.89-.69-4-.87-6l-12,4.09a31.16,31.16,0,0,1,1.87,7.39,5.42,5.42,0,0,1,0,.81s0,.08,0,.13C292.62,239.61,295.05,244.87,297.88,245.28Z" style="fill:#ad6359"></path><path d="M292.73,237.93v.13A6.09,6.09,0,0,0,294,238c6.64-.75,8-9,8.22-12.15l-11.33,3.87a31,31,0,0,1,1.86,7.39A3.64,3.64,0,0,1,292.73,237.93Z" style="fill:#263238"></path><path d="M308,209.84c1.2,5.29-1.87,18.1-5.8,21.16-5.69,4.44-14.47,4.26-18.1-2.46-3.53-6.51.56-22.65,4.9-25.38C295.39,199.14,306.23,202,308,209.84Z" style="fill:#ad6359"></path><path d="M285.32,210.49s-.44,3.12,1.54,4.19c.16.08,5.95,15.58,17,15,0,0,8.75-9,7.06-17.62-1.09-5.6-4.8-7.36-4.8-7.36s-7.42-7.37-16.62-4.41S282,209.91,285.32,210.49Z" style="fill:#263238"></path><path d="M278.53,386.57s.21,39.72.21,39.75c-.16,7.34-.44,13.77-.9,17.08a.13.13,0,0,1,0,.06,5.11,5.11,0,0,1-.59,2.25l0,.05c-2.22,1.43-60.91,1.79-63,1.11s-.28-6.58,2-8.41,24.69-12,24.69-12l.14-39.7Z" style="fill:#ad6359"></path><path d="M279,418.44s-.23,7.85-.23,7.88c-.16,7.34-.44,13.77-.9,17.08a.13.13,0,0,1,0,.06,10,10,0,0,1-.59,2.25l0,.05c-2.22,1.43-60.91,1.79-63,1.11s-.28-6.58,2-8.41,24.69-12,24.69-12l.11-8Z" style="fill:#fff"></path><path d="M237.31,426.4c3.92-.57,8.65.22,11.51,3.12.11.11,0,.26-.17.22a54.62,54.62,0,0,0-11.34-2.85A.25.25,0,0,1,237.31,426.4Z" style="fill:#263238"></path><path d="M234.44,428c3.91-.56,8.65.23,11.5,3.12.12.11-.05.27-.17.23a54.64,54.64,0,0,0-11.34-2.86A.25.25,0,0,1,234.44,428Z" style="fill:#263238"></path><path d="M231.56,429.55c3.92-.57,8.65.23,11.51,3.12.11.11,0,.27-.18.22A54.46,54.46,0,0,0,231.55,430,.25.25,0,0,1,231.56,429.55Z" style="fill:#263238"></path><path d="M214.24,446.87c2.06.68,60.73.32,63-1.11.85-.53,1.3-9.09,1.54-19.44,0-.11,0-.21,0-.32l-37.86-.19v.64s-22.39,10.18-24.68,12S212.19,446.2,214.24,446.87Z" style="fill:#37474f"></path><path d="M278.75,426v.34c-.25,10.34-.68,18.9-1.54,19.43s-13.73,1.08-27.48,1.29c-16.45.26-34.36.19-35.48-.17-2.05-.68-.27-6.59,2-8.42s24.67-12,24.67-12l0-.64,12.63.06Z" style="fill:#FFC727"></path><path d="M214.89,444.59c9.89-.3,49.81-.59,59.61-.14.08,0,.08.06,0,.06-9.8.52-49.72.48-59.61.24C214.68,444.75,214.68,444.6,214.89,444.59Z" style="fill:#263238"></path><path d="M253.51,425.87c-1,6.32-2.64,15.64-3.79,21.18-16.45.26-34.36.19-35.48-.17-2.05-.68-.27-6.59,2-8.42s24.67-12,24.67-12l0-.64Z" style="opacity:0.1"></path><path d="M280.76,421.6l-42.45-.44s-.19-79,2.71-97.21c3.51-22.06,38.84-17.55,49.86-25.11,2.09-1.42,2.1-12.41,2.1-12.41l31.73.63s9.51,22.38-.6,39.85c-6.25,10.79-44.83,11.34-44.83,11.34Z" style="fill:#263238"></path><path d="M280.76,421.6l-42.45-.44s-.19-79,2.71-97.21c3.51-22.06,38.84-17.55,49.86-25.11,2.09-1.42,2.1-12.41,2.1-12.41l29.59.63s10.11,22.17,0,39.63c-6.25,10.79-43.29,11.56-43.29,11.56Z" style="fill:#263238"></path><path d="M277.76,414.1c-1.09-.22-2.27-.23-3.38-.34s-2.5-.23-3.75-.31c-2.42-.15-4.83-.24-7.25-.29-4.87-.12-9.74-.18-14.62-.12q-4.15,0-8.32.19c-.11,0-.1.17,0,.17,4.83.27,9.66.45,14.5.64s9.66.38,14.48.38c1.39,0,2.77,0,4.16,0s2.8.06,4.16-.12C277.82,414.25,277.85,414.12,277.76,414.1Z" style="fill:#37474f"></path><path d="M322.56,326.69c-6.24,10.79-43.28,11.56-43.28,11.56l.23,4.81-.14,0-40.22,10.1c.4-12.72,1-23.75,1.87-29.25,3.51-22.06,38.84-17.55,49.86-25.11,2.08-1.42,2.09-12.41,2.09-12.41l29.59.63S332.68,309.23,322.56,326.69Z" style="fill:#37474f"></path><path d="M222,391.58S216.7,430,216.7,430c-.17,7.34-.45,13.77-.9,17.09a.11.11,0,0,1,0,.05,5.06,5.06,0,0,1-.59,2.25l0,.05c-2.21,1.43-60.9,1.79-63,1.11s-.28-6.57,2-8.41,24.68-12,24.68-12l5.68-38.34Z" style="fill:#ad6359"></path><path d="M217.79,422.1S216.7,430,216.7,430c-.17,7.34-.45,13.77-.9,17.09a.11.11,0,0,1,0,.05,9.81,9.81,0,0,1-.59,2.25l0,.05c-2.21,1.43-60.9,1.79-63,1.11s-.28-6.57,2-8.41,24.68-12,24.68-12l1.19-8Z" style="fill:#fff"></path><path d="M175.27,430.05c3.92-.57,8.65.22,11.51,3.12.11.11-.05.27-.18.22a54.37,54.37,0,0,0-11.33-2.85A.25.25,0,0,1,175.27,430.05Z" style="fill:#263238"></path><path d="M172.39,431.62c3.92-.56,8.66.23,11.51,3.12.11.12-.05.27-.17.23a54.62,54.62,0,0,0-11.34-2.85A.25.25,0,0,1,172.39,431.62Z" style="fill:#263238"></path><path d="M169.52,433.2c3.92-.57,8.65.23,11.51,3.12.11.11-.05.27-.18.22a55.26,55.26,0,0,0-11.34-2.85A.25.25,0,0,1,169.52,433.2Z" style="fill:#263238"></path><path d="M152.2,450.52c2.05.68,60.73.32,63-1.11.85-.53,1.3-9.09,1.54-19.44v-.32l-37.86-.19,0,.64s-22.4,10.18-24.68,12S150.15,449.85,152.2,450.52Z" style="fill:#FFC727"></path><path d="M152.85,448.24c9.89-.3,49.81-.59,59.61-.14.08,0,.08.06,0,.06-9.8.52-49.72.48-59.61.24C152.64,448.4,152.64,448.25,152.85,448.24Z" style="fill:#263238"></path><path d="M237,347.45c-2.62,8.2-18.76,78.09-18.76,78.09l-43.21-.6s18.55-89.27,29-102.3c17-21.1,70.68-19.5,71.72-21.63A86,86,0,0,0,281,286.1l42.75.94s11.09,32.69-3.46,43.87C304.54,343,238.61,342.27,237,347.45Z" style="fill:#263238"></path><path d="M216,417.37c-4.92-.25-10-.5-14.94-.47s-9.78,0-14.66.21c-2.77.12-5.53.16-8.29.39a.07.07,0,1,0,0,.15c4.91.4,9.85.43,14.77.49s9.77.09,14.66-.05c2.77-.07,5.53-.16,8.3-.31C216.15,417.77,216.32,417.38,216,417.37Z" style="fill:#37474f"></path><path d="M276.79,279.14l-4.41,21.26s47.22,1.6,58.33,1c0,0-10.7-45.4-22.37-58.59-5.84-6.6-12.86-6.25-17.41-1.81-1.15,1.12-15,18.67-16.54,25.44C273,272.45,276.79,279.14,276.79,279.14Z" style="fill:#FFC727"></path><path d="M308.07,286.93a5,5,0,0,0-1.16,1.58,5.24,5.24,0,0,0,1.63-1.09,5.62,5.62,0,0,0,1.16-1.58A5,5,0,0,0,308.07,286.93Zm-13.59-45.61a4.84,4.84,0,0,0-1.15,1.58,5.56,5.56,0,0,0,1.62-1.09,5.67,5.67,0,0,0,1.16-1.59A5,5,0,0,0,294.48,241.32ZM280,281.09a5,5,0,0,0-1.16,1.58,4.89,4.89,0,0,0,1.63-1.1,5.07,5.07,0,0,0,1.15-1.58A4.84,4.84,0,0,0,280,281.09Zm3,12.07a5.35,5.35,0,0,0-1.59-1.16,5.35,5.35,0,0,0,1.09,1.63,5.18,5.18,0,0,0,1.59,1.16A5.48,5.48,0,0,0,283,293.16ZM299,264a5.18,5.18,0,0,0-1.58-1.16,5.18,5.18,0,0,0,1.09,1.63,5.07,5.07,0,0,0,1.58,1.15A5.08,5.08,0,0,0,299,264Zm22.73,29.85a5.28,5.28,0,0,0-1.94.3,5.68,5.68,0,0,0,3.87.08A5.06,5.06,0,0,0,321.72,293.83Zm-11.15-23.17a5.3,5.3,0,0,0-1.95.3,5.3,5.3,0,0,0,1.93.38,5.08,5.08,0,0,0,1.94-.3A5.29,5.29,0,0,0,310.57,270.66Zm-25.14-3.28a5.49,5.49,0,0,0-1.94.3,5.67,5.67,0,0,0,3.87.08A5.1,5.1,0,0,0,285.43,267.38ZM296.81,293a5.47,5.47,0,0,0-1.94.31,5.47,5.47,0,0,0,1.92.38,5.11,5.11,0,0,0,1.95-.31A5.76,5.76,0,0,0,296.81,293Zm2.79-43a5.33,5.33,0,0,0-2,.3,5.3,5.3,0,0,0,1.93.38,5.49,5.49,0,0,0,1.94-.3A5.29,5.29,0,0,0,299.6,250Zm-12.86,1.46a5.52,5.52,0,0,0-.38,1.93,5.29,5.29,0,0,0,.31,1.94,5.76,5.76,0,0,0,.38-1.93A5.32,5.32,0,0,0,286.74,251.46Zm21.64,48.94a4.35,4.35,0,0,0-.28,1h.53A5.13,5.13,0,0,0,308.38,300.4Zm-12.53-23.3a5.09,5.09,0,0,0-.37,1.93,5.23,5.23,0,0,0,.29,1.94,5.05,5.05,0,0,0,.38-1.92A4.91,4.91,0,0,0,295.85,277.1Zm25.28.5a4.92,4.92,0,0,0-.38,1.93,5.24,5.24,0,0,0,.3,1.94,5.84,5.84,0,0,0,.08-3.87Zm-9.57-22.3a5.21,5.21,0,0,0-.38,1.92,5.28,5.28,0,0,0,.3,1.94,5.26,5.26,0,0,0,.38-1.93A5.19,5.19,0,0,0,311.56,255.3Z" style="fill:#fff"></path><path d="M294.47,256c-5.54,19.45-12.16,36.56-16.92,38.76-13.93,6.42-32.27,7.07-40.28,6.68-3.45-.18-4.84-24-1.37-25.29,3.9-1.44,26.3-.29,27.9-.85,1.21-.42,11.05-12.76,19.69-23.87C295,236.68,298.16,243.05,294.47,256Z" style="fill:#ad6359"></path><path d="M240.6,275.56s-10.71-2.27-17.5-3.39c-3.79-.62-10.39-1.11-13.38-.29-4.48,1.22-22.43,9.19-20.59,13.59,1.67,4,16.22-4.83,16.22-4.83s-15.47,7.59-12.59,12,18-7.72,18-7.72-15.72,8.15-12,12.24c2.8,3.09,17.11-7.13,17.11-7.13s-13.46,7.1-10.73,10.4c3,3.65,16.83-4.95,16.83-4.95,8.36,7.21,15.23,6.64,20.17,6.06C243.31,301.41,240.6,275.56,240.6,275.56Z" style="fill:#ad6359"></path><path d="M210.53,277.67c-1.85.83-3.73,1.65-5.5,2.64s-3.5,2-5.17,3.18a34.86,34.86,0,0,0-6.07,5.08c3.48-3.17,9.76-6.8,11.53-7.79s3.48-2.06,5.25-3A0,0,0,0,0,210.53,277.67Z" style="fill:#263238"></path><path d="M214.21,284c-2.32,1.15-4.66,2.22-6.92,3.48s-5.36,3.11-7.52,4.52c-.17.1-.08.39.09.29,2.22-1.32,5.47-3.08,7.7-4.37s4.41-2.67,6.68-3.87C214.28,284,214.25,284,214.21,284Z" style="fill:#263238"></path><path d="M218.34,288.86A57.49,57.49,0,0,0,208.17,295c-.16.11,0,.16.16.06,3.35-2.1,5.95-3.78,10.07-6.07C218.46,289,218.42,288.82,218.34,288.86Z" style="fill:#263238"></path><path d="M272.9,262.26l18.22,7.36s4.86-12.83,5.48-21.08-4.33-7.6-10.11-2S272.9,262.26,272.9,262.26Z" style="fill:#FFC727"></path><path d="M291.51,266A123.63,123.63,0,0,0,276,259.85s-.09.11-.06.12c4.14,1.92,12.65,5.12,15.51,6.17C291.49,266.16,291.56,266,291.51,266Z" style="fill:#263238"></path><path d="M295.34,259.1s0,0,0,0c-.36.62-.68,1.26-1,1.91.37-1.44.72-2.88,1-4.32,0-.05-.06-.07-.07,0-1.41,4.22-2.91,8.4-4.22,12.64-.48,0-.95-.09-1.41-.17a.06.06,0,0,0,0,.12c.5.15,1,.33,1.49.52a.24.24,0,0,0,.32-.1,63.31,63.31,0,0,0,2.54-7.36c.21-.38.41-.76.59-1.15A14.6,14.6,0,0,0,295.34,259.1Z" style="fill:#263238"></path><path d="M302.4,202.28c1,.13,5.39-.38,8.31,3.6,2.77,3.76,3.76,15.22,4.35,17.71s3.87,2.87,4.64,5.77c.67,2.49-1.14,3.41-1.33,5.24-.14,1.42,1.29,3.54,0,5.65-1.18,1.91-3.25,1.5-4.5,2.1s-2,3.5-4.34,4.28-4.36-1.32-5.59-1.31-2.68,3.78-6.69,3.46-5.16-3.72-6.82-4.38-5.81.49-7.71-1.58-2.23-4.82-3.08-5.84-2.64-.85-3.71-3.2,1.12-3.84,1.43-5.88c.21-1.43-1.05-2.73-.17-4.9,1.22-3,4.87-2.35,6.26-5.42,1.09-2.4,3.34-12.86,9.65-15.44C297.46,200.36,302.4,202.28,302.4,202.28Z" style="fill:#263238"></path><path d="M314.94,223a3.51,3.51,0,0,0,1.07,1.35l1.31,1.12a11.1,11.1,0,0,1,2.31,2.44,3.49,3.49,0,0,1,.39,3,5.16,5.16,0,0,1-.84,1.39,6.05,6.05,0,0,0-1,1.52,2.92,2.92,0,0,0,.17,1.89c.18.55.39,1.08.55,1.62a4.11,4.11,0,0,1-.1,3.14,2.35,2.35,0,0,1-1.1,1.08,4.24,4.24,0,0,1-1.6.34c-.56,0-1.13,0-1.71,0a2.85,2.85,0,0,0-1.67.38,3.06,3.06,0,0,1,1.67-.21c.56,0,1.14.11,1.72.12a4.5,4.5,0,0,0,1.76-.3,2.78,2.78,0,0,0,1.37-1.21,4.45,4.45,0,0,0,.23-3.55c-.15-.57-.36-1.11-.53-1.65a2.41,2.41,0,0,1-.14-1.47c.35-.92,1.38-1.74,1.77-2.93a3.9,3.9,0,0,0-.53-3.52,11.32,11.32,0,0,0-2.53-2.41l-1.4-1A3.79,3.79,0,0,1,314.94,223Z" style="fill:#263238"></path><path d="M287.27,208a50.65,50.65,0,0,0-2.63,5.58c-.43.93-.82,1.87-1.32,2.75a6.67,6.67,0,0,1-.82,1.22,1,1,0,0,1-.23.22,1.23,1.23,0,0,1-.28.18,6.9,6.9,0,0,1-.67.32,29.63,29.63,0,0,0-2.82,1.31,5.3,5.3,0,0,0-2.26,2.26,3.31,3.31,0,0,0-.31,1.61,3.91,3.91,0,0,0,.47,1.53,6.61,6.61,0,0,1,1,2.88,6.31,6.31,0,0,0-.67-3,3.85,3.85,0,0,1-.35-1.42,2.77,2.77,0,0,1,.36-1.36,5.1,5.1,0,0,1,2.09-2c.87-.48,1.83-.82,2.79-1.23.24-.11.48-.22.71-.35A2.29,2.29,0,0,0,283,218a7,7,0,0,0,.88-1.34,25.73,25.73,0,0,0,1.26-2.85l1.06-2.9A24.94,24.94,0,0,1,287.27,208Z" style="fill:#263238"></path><path d="M278.66,236.29a5.2,5.2,0,0,1,.66,2.06c.16.72.31,1.44.51,2.16a10.59,10.59,0,0,0,.77,2.12,4.94,4.94,0,0,0,1.47,1.82,6.18,6.18,0,0,0,4.5.52c.73-.13,1.45-.31,2.16-.43a4.64,4.64,0,0,1,2.16,0,4.31,4.31,0,0,0-2.19-.33c-.75.06-1.48.18-2.2.25a6.24,6.24,0,0,1-4.06-.56,4.45,4.45,0,0,1-1.29-1.57,12.94,12.94,0,0,1-.84-2c-.25-.68-.46-1.39-.68-2.09-.12-.35-.24-.7-.38-1.05A2.12,2.12,0,0,0,278.66,236.29Z" style="fill:#263238"></path><polygon points="348.02 356.19 238.18 356.19 238.18 344.61 279.3 344.61 293.12 264.21 343.83 264.21 348.02 356.19" style="fill:#FFC727"></polygon><polygon points="348.02 356.19 238.18 356.19 238.18 344.61 279.3 344.61 293.12 264.21 343.83 264.21 348.02 356.19" style="opacity:0.30000000000000004"></polygon><g style="opacity:0.1"><polygon points="298.55 264.21 284.74 344.61 279.31 344.61 293.13 264.21 298.55 264.21"></polygon><rect x="238.19" y="344.61" width="5.43" height="11.58"></rect></g><rect x="294.67" y="356.19" width="6.73" height="4.78" style="fill:#a6a6a6"></rect><rect x="291.94" y="360.97" width="12.17" height="50.95" style="fill:#c7c7c7"></rect><rect x="286.59" y="384.96" width="5.35" height="2.26" style="fill:#a6a6a6"></rect><rect x="275.71" y="383.77" width="10.88" height="4.64" style="fill:#c7c7c7"></rect><rect x="290" y="411.92" width="15.69" height="14.15" style="fill:#c7c7c7"></rect><polygon points="299.62 458.67 296.35 458.67 294.52 418.12 301.45 418.12 299.62 458.67" style="fill:#a6a6a6"></polygon><polygon points="255.09 451.65 252.19 449.43 290 416.01 290 426.07 255.09 451.65" style="fill:#a6a6a6"></polygon><polygon points="340.59 451.65 343.5 449.43 305.69 416.01 305.69 426.07 340.59 451.65" style="fill:#a6a6a6"></polygon><rect x="291.94" y="408.21" width="12.17" height="3.71" style="fill:#a6a6a6"></rect><circle cx="254.96" cy="458.21" r="7.95" style="fill:#263238"></circle><circle cx="254.96" cy="458.21" r="3.74" style="fill:#fff"></circle><circle cx="340.76" cy="458.21" r="7.95" style="fill:#263238"></circle><path d="M344.5,458.21a3.74,3.74,0,1,1-3.74-3.73A3.74,3.74,0,0,1,344.5,458.21Z" style="fill:#fff"></path><rect x="295.4" y="456.17" width="4.99" height="13.08" style="fill:#263238"></rect></g></svg>