<svg xmlns="http://www.w3.org/2000/svg" viewBox="0 0 500 500">
  <path fill="#dbdbdb" d="M42.91 225s75.57-43.44 122.43-43.44c56.28 0 111 19.35 131.7 25.75 54.49 16.79 160 17.69 160 17.69Z"/>
  <path fill="#c7c7c7" d="M457.09 225s-42.91-25.27-91.38-25.27c-33.84 0-82.4 5.23-128.13 13.81C220.16 216.77 129.51 225 129.51 225Z"/>
  <path fill="#ebebeb" d="M63 157.94c5.27 0 137-.92 174.15-.92 2.6 0-.69-4.5-2.12-4.82-4.58-1-9.34-1-14-1.53a45.87 45.87 0 0 1-13.33-3.34c-3.66-1.55-7.31-3.33-11.27-4-7.66-1.2-14.39 3-21.57 4.78a16.31 16.31 0 0 1-13.07-1.78c-3.32-2-6.34-4.38-9.81-6.14a53.86 53.86 0 0 0-43-2 50.41 50.41 0 0 0-9.42 4.82c-3.51 2.3-6.53 5.25-10 7.52-7.8 5.05-17.45 3.41-25.95 6.3-.52.23-1.05 1.11-.61 1.11Zm242.59-97.18c7 0 124.38.77 131.76.53a.57.57 0 0 0 .28-1c-4.65-2.31-9.92-1.84-14.76-3.47-2.84-1-4.59-2.82-6.56-5a13.53 13.53 0 0 0-6.11-4 12.93 12.93 0 0 0-6.65-.21c-2.38.57-4.45 1.93-6.72 2.79-5.64 2.13-11.12.11-15.15-4.06-3.32-3.44-6.59-6.69-11.1-8.54a14.71 14.71 0 0 0-11.76-.16c-4.31 2-7.26 5.87-11.31 8.23-4.79 2.8-10.53 2.14-15.82 3s-9.36 5.31-14 7.88a9.94 9.94 0 0 1-5.06 1.57c-1 0-2.06-.31-3.08-.44-1.6-.2-3.12-.15-4.2 1.18-.27.32-.21 1.7.24 1.7ZM40.37 94.18c5.1 0 90.81.57 96.19.4.39 0 .6-.58.22-.77-3.4-1.69-7.25-1.35-10.78-2.54-2.08-.7-3.35-2-4.79-3.61a9.92 9.92 0 0 0-4.46-2.91 9.43 9.43 0 0 0-4.86-.15c-1.74.41-3.25 1.41-4.91 2-4.12 1.56-8.12.08-11.06-3-2.42-2.51-4.81-4.88-8.1-6.23a10.78 10.78 0 0 0-8.59-.12c-3.14 1.43-5.3 4.29-8.25 6-3.5 2.05-7.69 1.57-11.56 2.18s-6.83 3.88-10.22 5.75a7.32 7.32 0 0 1-3.7 1.15c-.76 0-1.5-.23-2.25-.32a3.07 3.07 0 0 0-3.06.86c-.19.31-.19 1.31.18 1.31Zm322.95 55.27c5.09 0 90.8.56 96.19.39.39 0 .59-.58.21-.77-3.4-1.68-7.25-1.34-10.78-2.53-2.07-.7-3.35-2.06-4.79-3.62a10 10 0 0 0-4.46-2.91 9.39 9.39 0 0 0-4.85-.15 42 42 0 0 0-4.91 2c-4.12 1.55-8.12.08-11.06-3-2.43-2.51-4.81-4.88-8.11-6.23a10.72 10.72 0 0 0-8.58-.12c-3.15 1.42-5.3 4.29-8.26 6-3.5 2-7.68 1.56-11.55 2.18s-6.84 3.87-10.23 5.75a7.24 7.24 0 0 1-3.69 1.14 21.37 21.37 0 0 1-2.25-.32 3.09 3.09 0 0 0-3.07.87c-.19.31-.13 1.32.19 1.32Zm-174.68-13.92c.1.29 135.1 0 133.39 0-.77 0 1.18-1.16.42-1.53-4.39-2.18-9.2-2.25-14-2.69a21.51 21.51 0 0 1-8.18-2c-2.54-1.33-4.13-3.64-5.93-5.78a25.34 25.34 0 0 0-23.05-8.73c-9.6 1.5-17.17 8.81-26.78 10.16-5.78.81-11.24-1.43-16.89-2.22a20.7 20.7 0 0 0-12.62 2.34c-3 1.51-5.85 2.78-9.3 3-2.64.19-5.29-.12-7.94-.14a17.75 17.75 0 0 0-11.76 4.69c-.4.37-1.76 2.9 2.64 2.9Z"/>
  <path fill="#455a64" d="M44.82 200.91c1.75 1.75 22.1 2.53 29.5 2.53s27.74-.78 29.49-2.53-22.9-137-29.49-137-31.24 135.26-29.5 137Z"/>
  <path fill="#37474f" d="M44.41 166.45c5 1.92 23.65 9.5 27.67 11.71v-2.54q-6.75-4-13.51-7.88c-4.83-2.81-10-5.32-14.53-8.64-.22-.16-.1-.61.2-.48 5 2.07 9.59 5.13 14.22 7.85s9.11 5.45 13.62 8.24q0-9.72.08-19.44A153.8 153.8 0 0 1 51 144.48c-.23-.14-.08-.56.19-.45a155.53 155.53 0 0 1 21 10.37c0-3.37 0-6.74.07-10.11.19-17.35.22-34.73.66-52.08C68.51 90 64 88 59.55 85.78c-.29-.15-.09-.66.22-.54C64.25 87 68.56 89.07 73 91c.24-9 .58-17.91 1.12-26.85a.23.23 0 0 1 .46 0c.62 16.62.57 33.27.36 49.9 4.58-3.65 9.45-6.88 14.11-10.42.18-.14.35.17.18.3-4.87 3.71-9.42 7.81-14.3 11.5v2.82c5-2.27 10-4.38 15-6.52.4-.17.75.39.35.58-5.11 2.45-10.2 5-15.37 7.26-.12 8.24-.26 16.48-.36 24.72-.19 14.39-.51 28.77-.81 43.16q14-7.11 28.29-13.82c.36-.17.68.34.32.55a296.92 296.92 0 0 1-28.64 14.38c-.25 11.95-.5 23.91-.65 35.86a.57.57 0 0 1-1.13 0c.17-15.25.19-30.49.23-45.74-4.93-1.22-23.59-9.21-28-11.4-.55-.22-.23-1.01.25-.83Z"/>
  <path fill="#455a64" d="M398.53 201.47c1.7 1.71 21.57 2.47 28.8 2.47s27.1-.76 28.81-2.47-22.36-133.79-28.81-133.79-30.51 132.09-28.8 133.79Z"/>
  <path fill="#37474f" d="M398.13 167.82c4.91 1.87 23.1 9.27 27 11.43v-2.48c-4.38-2.58-8.79-5.14-13.19-7.7-4.72-2.74-9.79-5.2-14.19-8.43-.22-.16-.1-.6.2-.48 4.85 2 9.36 5 13.89 7.67s8.89 5.33 13.3 8q0-9.49.08-19a151.11 151.11 0 0 1-20.73-10.53c-.23-.14-.08-.56.19-.45A152.3 152.3 0 0 1 425.25 156c0-3.29 0-6.58.07-9.87.19-16.95.22-33.92.65-50.87-4.31-2.18-8.75-4.1-13.06-6.28-.29-.15-.09-.64.22-.52 4.37 1.7 8.58 3.73 12.88 5.62.23-8.75.56-17.49 1.09-26.22a.23.23 0 0 1 .46 0c.6 16.23.55 32.48.35 48.74 4.46-3.57 9.23-6.73 13.77-10.18.18-.14.35.16.18.29-4.76 3.62-9.2 7.63-14 11.23v2.76c4.85-2.22 9.76-4.28 14.66-6.38.38-.16.73.39.33.58-5 2.39-9.95 4.83-15 7.08-.12 8-.26 16.1-.36 24.15-.18 14.05-.49 28.1-.79 42.15q13.71-6.93 27.63-13.49c.36-.17.66.33.31.53a291 291 0 0 1-28 14 4100.4 4100.4 0 0 0-.64 35 .56.56 0 0 1-1.11 0c.17-14.89.19-29.78.23-44.67-4.82-1.2-23-9-27.37-11.13-.41-.11-.1-.89.38-.7ZM129 204.21c1.51 1.51 19.07 2.18 25.45 2.18s24-.67 25.46-2.18S160.12 86 154.42 86 127.46 202.7 129 204.21Z"/>
  <path fill="#455a64" d="M128.62 174.47c4.34 1.65 20.41 8.2 23.88 10.1v-2.19q-5.82-3.42-11.66-6.8c-4.17-2.43-8.65-4.6-12.54-7.46-.19-.14-.09-.53.18-.42 4.28 1.79 8.27 4.44 12.27 6.78s7.86 4.71 11.75 7.11q0-8.39.07-16.78a132.32 132.32 0 0 1-18.31-9.31c-.2-.12-.07-.48.16-.39a135.35 135.35 0 0 1 18.16 8.95c0-2.91 0-5.82.06-8.72.16-15 .19-30 .57-44.95-3.81-1.92-7.73-3.62-11.54-5.55-.25-.13-.08-.57.19-.46 3.86 1.51 7.59 3.3 11.38 5 .21-7.72.5-15.45 1-23.16a.2.2 0 0 1 .4 0c.54 14.34.49 28.7.31 43.06 3.95-3.15 8.16-5.94 12.18-9 .15-.12.3.14.15.26-4.2 3.19-8.13 6.74-12.34 9.92v2.44c4.29-2 8.63-3.78 13-5.63.34-.15.65.34.3.5-4.41 2.11-8.8 4.27-13.26 6.26l-.32 21.34c-.16 12.41-.43 24.83-.7 37.25q12.12-6.14 24.42-11.93c.32-.15.59.29.28.47a252.51 252.51 0 0 1-24.72 12.41c-.21 10.32-.43 20.64-.56 31a.49.49 0 0 1-1 0c.14-13.16.16-26.32.2-39.48-4.26-1.06-20.36-8-24.19-9.84-.47-.25-.19-.94.23-.78Z"/>
  <path fill="#37474f" d="M320.86 199.7c1.84 1.84 23.21 2.65 31 2.65s29.14-.81 31-2.65-24.05-143.88-31-143.88-32.86 142.05-31 143.88Z"/>
  <path fill="#455a64" d="M320.43 163.51c5.28 2 24.84 10 29.07 12.3v-2.67q-7.08-4.17-14.19-8.28c-5.07-3-10.53-5.59-15.26-9.07-.23-.17-.11-.65.21-.52 5.22 2.18 10.07 5.4 14.94 8.26s9.56 5.72 14.3 8.65q0-10.22.09-20.42a162.58 162.58 0 0 1-22.29-11.33c-.25-.15-.08-.6.2-.48a163.53 163.53 0 0 1 22.1 10.89c0-3.54 0-7.07.07-10.61.2-18.23.23-36.48.7-54.71-4.64-2.34-9.42-4.4-14.05-6.75-.31-.16-.09-.69.23-.56 4.71 1.83 9.24 4 13.85 6 .25-9.4.61-18.8 1.19-28.19a.24.24 0 0 1 .48 0c.65 17.46.6 34.93.38 52.41 4.8-3.84 9.92-7.23 14.81-11 .19-.14.38.18.19.32-5.11 3.89-9.89 8.2-15 12.08v3c5.21-2.38 10.5-4.6 15.76-6.85.41-.18.78.41.36.61-5.36 2.57-10.71 5.2-16.14 7.62-.12 8.66-.27 17.31-.38 26-.2 15.11-.53 30.22-.85 45.33q14.75-7.45 29.72-14.51c.38-.18.71.35.33.57a309.51 309.51 0 0 1-30.08 15.1c-.26 12.56-.52 25.12-.68 37.67a.6.6 0 0 1-1.19 0c.18-16 .2-32 .25-48-5.19-1.28-24.78-9.67-29.43-12-.53-.23-.2-1.06.31-.86Zm-171.34 43.8c-1.28 1.28-16.22 1.85-21.65 1.85s-20.37-.57-21.65-1.85 16.81-100.56 21.65-100.56 22.93 99.25 21.65 100.56Z"/>
  <path fill="#37474f" d="M149.39 182c-3.69 1.41-17.36 7-20.31 8.6v-1.87l9.91-5.78c3.55-2.07 7.36-3.91 10.67-6.34.16-.12.07-.45-.15-.36a88.55 88.55 0 0 0-10.45 5.75c-3.36 2-6.68 4-10 6.05 0-4.76 0-9.52-.06-14.28a113.3 113.3 0 0 0 15.57-7.92c.18-.1.06-.41-.14-.33a115.76 115.76 0 0 0-15.43 7.64c0-2.47 0-4.95-.05-7.42-.14-12.74-.16-25.49-.49-38.23 3.24-1.63 6.58-3.08 9.82-4.72.21-.11.06-.48-.16-.39-3.29 1.28-6.46 2.8-9.68 4.22a588.5 588.5 0 0 0-.83-19.7.17.17 0 0 0-.34 0 733.2 733.2 0 0 0-.26 36.63c-3.36-2.68-6.94-5.05-10.36-7.65-.13-.1-.26.12-.13.22 3.58 2.72 6.92 5.73 10.5 8.44v2.07c-3.64-1.66-7.34-3.21-11-4.79-.29-.12-.54.29-.25.43 3.75 1.8 7.48 3.63 11.28 5.33l.27 18.14c.14 10.56.37 21.12.59 31.68q-10.31-5.21-20.77-10.14c-.26-.12-.49.25-.23.4a219.54 219.54 0 0 0 21 10.56c.19 8.77.37 17.55.48 26.33a.42.42 0 0 0 .83 0c-.12-11.2-.14-22.39-.17-33.58 3.62-.9 17.31-6.76 20.57-8.37.38-.16.12-.74-.23-.62Z"/>
  <path fill="#455a64" d="M398.29 207.31c-1.28 1.28-16.21 1.85-21.65 1.85s-20.36-.57-21.65-1.85 16.81-100.56 21.65-100.56 22.93 99.25 21.65 100.56Z"/>
  <path fill="#37474f" d="M398.59 182c-3.69 1.41-17.36 7-20.31 8.6v-1.87l9.92-5.78c3.55-2.07 7.36-3.91 10.67-6.34.16-.12.07-.45-.15-.36a87.76 87.76 0 0 0-10.45 5.75c-3.36 2-6.69 4-10 6.05q0-7.14-.06-14.28a113.42 113.42 0 0 0 15.58-7.92c.17-.1.06-.41-.14-.33a115.17 115.17 0 0 0-15.44 7.61c0-2.47 0-4.95-.06-7.42-.13-12.74-.16-25.49-.48-38.23 3.24-1.63 6.58-3.08 9.82-4.72.21-.11.06-.48-.17-.39-3.29 1.28-6.45 2.8-9.68 4.22-.17-6.57-.42-13.14-.83-19.7a.17.17 0 1 0-.33 0 733.2 733.2 0 0 0-.27 36.63c-3.36-2.68-6.94-5.05-10.35-7.65-.14-.1-.26.12-.13.22 3.57 2.72 6.91 5.73 10.49 8.44v2.07c-3.64-1.66-7.33-3.21-11-4.79-.29-.12-.55.29-.26.43 3.75 1.8 7.49 3.63 11.28 5.33l.27 18.14c.14 10.56.37 21.12.6 31.68q-10.31-5.21-20.77-10.14c-.27-.12-.5.25-.24.4a220.72 220.72 0 0 0 21 10.56c.19 8.77.37 17.55.49 26.33a.41.41 0 0 0 .82 0c-.12-11.2-.14-22.39-.17-33.58 3.63-.9 17.32-6.76 20.57-8.37.38-.13.19-.71-.22-.59Z"/>
  <path fill="#263238" d="M38.64 225c135.41-.62 287.31-.62 422.72 0-135.41.61-287.31.61-422.72 0Z"/>
  <path fill="#455a64" d="M427 238.47a46.38 46.38 0 0 1 8.28 13.44 26.66 26.66 0 0 1 1.38 8.08 32.23 32.23 0 0 1-.66 8.82.34.34 0 0 1-.66-.09 76.5 76.5 0 0 0 .33-8.29 27.69 27.69 0 0 0-1.19-8.3 56.1 56.1 0 0 0-7.48-13.62s0-.06 0-.04Z"/>
  <path fill="#37474f" d="M433.74 262.12a24.49 24.49 0 0 1 1.07-6.18c1.24-3.78 2.71-7.65 5.35-10.69.07-.08.23 0 .16.13-2.26 3.33-3.39 7.22-4.57 11a28.45 28.45 0 0 0-1 6.16 40.25 40.25 0 0 1-.68 6.5c-.05.22-.44.25-.47 0a34.27 34.27 0 0 1 .14-6.92Z"/>
  <path fill="#455a64" d="M422.92 246.15a33.32 33.32 0 0 1 9.78 8.8c1.37 1.85 1.81 4.15 2.28 6.36a36.12 36.12 0 0 1 .9 7.53c0 .44-.72.57-.79.11-.33-2.25-.6-4.5-1-6.74s-.69-4.81-2-6.72a38.57 38.57 0 0 0-9.32-9.15.11.11 0 0 1 .15-.19Z"/>
  <path fill="#ffc727" d="M386.16 300.69a64.3 64.3 0 0 1-.93 5.35l-.62 3a7.25 7.25 0 0 0-.26 3.36.81.81 0 0 1 0 .15.13.13 0 0 1-.23 0 .19.19 0 0 1 0-.07 4.32 4.32 0 0 1-.39-.93 23.42 23.42 0 0 1-.89-2.6 22.55 22.55 0 0 1-.88-5.54 19 19 0 0 1 .53-5c.32-1.31.77-3.26 1.75-4.26s1.61.55 1.87 1.28a12.05 12.05 0 0 1 .05 5.26Z"/>
  <path fill="#fff" d="M384.55 296.88c-.65 0-1.13 2.11-1.36 3a18.19 18.19 0 0 0-.56 4.41 23.25 23.25 0 0 0 1.36 7.83c0 .1.06.2.1.3a.25.25 0 0 0 0 .07.13.13 0 0 0 .23 0c0-.22-.07-.44-.1-.66s-.05-.39-.06-.59a31.42 31.42 0 0 1 .4-6.49c.36-2.4.86-7.87-.01-7.87Zm-.47 14.88c0 .29.08.58.13.86l-.19-.62a26.28 26.28 0 0 1-1.24-6.91 18.68 18.68 0 0 1 .29-3.95 18.39 18.39 0 0 1 .51-2.07c.09-.28.57-2.05 1-2s.35 1.66.36 1.7v1c0 .66-.05 1.32-.11 2-.12 1.43-.33 2.84-.5 4.26a24.8 24.8 0 0 0-.25 5.73Z"/>
  <path fill="#ffc727" d="M396.48 305.65a17 17 0 0 1-5.32 5.69c-1.12.82-2.28 1.6-3.42 2.39a18.71 18.71 0 0 0-3 2.28l-.11.12a4.5 4.5 0 0 0-.61.84.07.07 0 0 1-.06 0 .3.3 0 0 1 0 .1v-.11a.08.08 0 0 1 0-.09v-.11c.34-2.75 2.26-5.52 3.88-7.63a14.64 14.64 0 0 1 6.13-4.95c.63-.24 2.07-.91 2.71-.4s.06 1.38-.2 1.87Z"/>
  <path fill="#fff" d="M394.62 305.66c-.57-.57-2.25.84-2.67 1.17a27.87 27.87 0 0 0-3.48 3.39 25 25 0 0 0-4.45 6.43l-.06.07v.12a.08.08 0 0 0 0 .09l.08-.1q.32-.39.66-.75a1.31 1.31 0 0 1 .11-.12 54.38 54.38 0 0 1 5.21-4.6 25.64 25.64 0 0 0 3.46-3.37c.24-.27 1.62-1.85 1.14-2.33Zm-.52 1.26c-1.42 2.36-3.88 4.08-6 5.79a29.39 29.39 0 0 0-4 3.76 26.73 26.73 0 0 1 4.11-5.78 35.34 35.34 0 0 1 2.83-2.91 15.17 15.17 0 0 1 1.71-1.38 5.93 5.93 0 0 1 1.17-.62c.86-.24.42.74.18 1.14Z"/>
  <path fill="#ffc727" d="M383.68 322.56a.17.17 0 0 1-.13.07v.06h-.06a23.64 23.64 0 0 1-5.48-8 12.62 12.62 0 0 1-.79-4c0-.92-.08-2.78.71-3.45 1.59-1.35 3 4.39 3.26 5.25.39 1.58.65 3.18 1 4.77s.92 3.43 1.44 5.13a.14.14 0 0 1 .05.17Z"/>
  <path fill="#fff" d="M383.68 322.56a3.83 3.83 0 0 1-.25-.44 26.9 26.9 0 0 1-2.87-7.71 24.17 24.17 0 0 0-1.06-4c-.12-.32-.52-1.54-1.05-.92-.27.32 0 2.64.07 3.23a16.39 16.39 0 0 0 1.29 3.94 27.72 27.72 0 0 0 3.64 5.92 1 1 0 0 0 .13.16v-.06a.14.14 0 0 0 .1-.12Zm-3.23-4.93a19.66 19.66 0 0 1-1.53-3.82 14.82 14.82 0 0 1-.33-1.61 8 8 0 0 1-.11-1.28c0-1.05.09-1.32.26-1.36s.26.09.57.72a6.4 6.4 0 0 1 .45 1.27c.16.62.3 1.24.44 1.87.27 1.25.52 2.5.89 3.73a20.56 20.56 0 0 0 2.21 5 31.66 31.66 0 0 1-2.85-4.52Z"/>
  <path fill="#ffc727" d="M390.81 317.06a7.94 7.94 0 0 1-1.46 3c-1.32 1.82-3 3.33-4.45 5.06l-.63.79-.18.38c.01-.03 0-.16.07-.4a31.73 31.73 0 0 1 1.94-6.72 16.48 16.48 0 0 1 2.1-3.3c.41-.46 1.37-1.46 2.1-1.24s.62 1.85.51 2.43Z"/>
  <path fill="#fff" d="M389.63 316.32c-.77-.48-2.76 3.08-3 3.54a22.63 22.63 0 0 0-2.27 5.42l-.17.65c-.05.22-.07.39-.07.39l.18-.38.11-.13.52-.65c.86-1.3 1.75-2.58 2.59-3.89a20.65 20.65 0 0 0 1.61-3c.07-.19.87-1.74.5-1.95Zm-.22 1c-1.1 3.09-3.34 5.53-5.05 8.28l-.08.13a2.17 2.17 0 0 1 .07-.24 26 26 0 0 1 1.81-4.52 25.3 25.3 0 0 1 1.53-2.55 13.8 13.8 0 0 1 .95-1.32c.16-.18.62-.64.77-.56s.07.58 0 .79Z"/>
  <path fill="#ffc727" d="M398.56 291.53c-2.29 5.27-8.31 7.72-10.92 12.81l-.22.48a.11.11 0 0 1-.18 0 .08.08 0 0 1 0-.08l.06-.12a27.23 27.23 0 0 1 3.22-9.23 13.94 13.94 0 0 1 5.62-6c.62-.32 1.82-1 2.51-.46s.2 1.95-.09 2.6Z"/>
  <path fill="#fff" d="M396.5 291.75c-.29-.21-.74.05-1 .18a8.52 8.52 0 0 0-1.74 1.19 14.38 14.38 0 0 0-2.77 3.3 29.89 29.89 0 0 0-3.28 6.63c-.17.54-.33 1.07-.45 1.61v.2a.11.11 0 0 0 .18 0c.06-.16.14-.31.21-.46a18.28 18.28 0 0 1 1.64-3 40.65 40.65 0 0 1 3.44-4.07c.44-.59 4.78-4.84 3.77-5.58Zm-.37 1.22a20 20 0 0 1-2.72 3.3c-1 1.07-1.92 2.12-2.85 3.2a20.09 20.09 0 0 0-2 2.74 16.22 16.22 0 0 0-1.26 2.54 22.18 22.18 0 0 1 .9-2.64 39 39 0 0 1 2.22-4.43v-.06a17.74 17.74 0 0 1 2.54-3.54 10.68 10.68 0 0 1 1.81-1.54c.75-.49 1.41-.8 1.6-.56s-.03.63-.24 1.02Z"/>
  <path fill="#ffc727" d="M390.55 297.71a180.94 180.94 0 0 0-2.92 6.63l-.33.77a47.88 47.88 0 0 0-2.69 7.13 20.87 20.87 0 0 0-.55 4v4.2c0 1.58.16 3.14.31 4.7a.57.57 0 0 0 0 .13v.33a1.5 1.5 0 0 0 0 .2l.14 1.5H384a31.15 31.15 0 0 1-.59-4.64v-.55a5.25 5.25 0 0 1 0-.56v-1.34a33.71 33.71 0 0 1 .55-7.77 2.09 2.09 0 0 0 0-.21v-.09a.8.8 0 0 1 0-.15l.06-.24.12-.42v-.13a50.41 50.41 0 0 1 2.65-6.4l.53-1.13.3-.63.47-.94c.73-1.48 1.5-2.95 2.22-4.43.16-.09.27-.03.24.04Z"/>
  <path fill="#a6a6a6" d="M442.07 269.87h-14.34s1.54-3.43 2.91-4.26a12 12 0 0 1 7.08-.92c1.99.54 4.35 5.18 4.35 5.18Z"/>
  <path fill="#c7c7c7" d="M368.8 329.63H391s-2.71-8-9.89-8.2-12.31 8.2-12.31 8.2Zm55.43-56.03h-7.15s.92-2.08 2-2.5a5.7 5.7 0 0 1 4.11 1 6.29 6.29 0 0 1 1.04 1.5Z"/>
  <path fill="#a6a6a6" d="M293.78 260.24h-46.89s7.65-8.76 13.42-10.42 14.16-2.66 19-1.56 14.47 11.98 14.47 11.98Z"/>
  <path fill="#c7c7c7" d="M289.77 262.21h-12.58s1.61-3.66 3.51-4.39 6.22.66 7.24 1.68a11.68 11.68 0 0 1 1.83 2.71Zm-162 0h-17s2.18-5 4.76-5.95 8.41.9 9.8 2.28a15.73 15.73 0 0 1 2.44 3.67Z"/>
  <path fill="#455a64" d="M415.67 344.19c6.76 7.95 12.78 16.9 16.47 26.73 1.92 5.11 2.5 10.65 2.76 16.07a65.06 65.06 0 0 1-1.31 17.56c-.17.72-1.38.58-1.32-.18a154.17 154.17 0 0 0 .66-16.51c-.18-5.46-.53-11.32-2.37-16.51-3.39-9.56-9.06-18.89-15-27.1 0-.05.07-.11.11-.06Z"/>
  <path fill="#37474f" d="M429 391.24a49.71 49.71 0 0 1 2.14-12.24c2.48-7.52 5.4-15.24 10.65-21.27.15-.18.46.05.32.24-4.5 6.62-6.74 14.37-9.09 21.93a55.92 55.92 0 0 0-1.92 12.27c-.35 4.22-.32 8.81-1.35 12.92-.11.44-.88.5-.95 0-.62-4.5-.1-9.38.2-13.85Z"/>
  <path fill="#455a64" d="M428.27 391.24a49.25 49.25 0 0 0-2.13-12.24c-2.47-7.52-5.39-15.24-10.65-21.27-.15-.18-.45.05-.32.24 4.5 6.62 6.75 14.37 9.09 21.93a56.54 56.54 0 0 1 1.93 12.27c.34 4.22.32 8.81 1.35 12.92.11.44.88.5.95 0 .61-4.5.09-9.38-.22-13.85Z"/>
  <path fill="#455a64" d="M407.49 359.46A66.35 66.35 0 0 1 427 377c2.73 3.68 3.6 8.25 4.54 12.65a71.41 71.41 0 0 1 1.79 15c0 .87-1.43 1.13-1.57.21-.66-4.46-1.2-8.94-2-13.4s-1.37-9.58-3.91-13.38c-4.84-7.23-11.64-13.06-18.56-18.21-.23-.2-.05-.55.2-.41Z"/>
  <path fill="#c7c7c7" d="M458.85 413.34h-55.27s6.76-19.89 24.66-20.44 30.61 20.44 30.61 20.44Z"/>
  <path fill="#455a64" d="M96 246.31c-6.3 7.35-11.87 15.62-15.28 24.69-1.78 4.72-2.31 9.85-2.55 14.86a59.71 59.71 0 0 0 1.21 16.23.62.62 0 0 0 1.22-.09 141.27 141.27 0 0 1-.6-15.31c.17-5.05.49-10.46 2.19-15.26 3.12-8.85 8.37-17.43 13.81-25.06.05-.05 0-.1 0-.06Z"/>
  <path fill="#37474f" d="M83.61 289.81a45.55 45.55 0 0 0-2-11.36c-2.29-7-5-14.09-9.85-19.67-.13-.16-.41.05-.29.23 4.16 6.12 6.23 13.28 8.41 20.28a51.63 51.63 0 0 1 1.77 11.34c.32 3.9.3 8.14 1.25 11.95.11.41.82.46.88 0 .6-4.12.12-8.64-.17-12.77Z"/>
  <path fill="#455a64" d="M103.51 260.43a61.46 61.46 0 0 0-18 16.19c-2.52 3.41-3.33 7.63-4.2 11.7a66.71 66.71 0 0 0-1.65 13.86c0 .8 1.32 1 1.45.2.61-4.14 1.11-8.28 1.82-12.4s1.27-8.86 3.62-12.37c4.47-6.69 10.76-12.07 17.15-16.84a.2.2 0 0 0-.19-.34Z"/>
  <path fill="#ffc727" d="M58.39 279.26c-2.5.09-5.28.23-7.35-1.39-1.91-1.49-3.61-3.72-3.36-6.28.07-.73.24-1.18 1-.87 1.19.48 2.11 1.79 2.93 2.71a25.12 25.12 0 0 0 3.47 3.29c.89.68 1.84 1.27 2.75 1.93l.34.25.13.1h.07a.11.11 0 0 1 .1.05s0 0 0 .05a.12.12 0 0 1-.08.16Z"/>
  <path fill="#fff" d="M58.51 279.1c-2.19 0-4.56.06-6.32-1.43a10.16 10.16 0 0 1-2-2.48c-.25-.41-1-1.64-.7-2.13.57-.89 3.19 2.73 3.55 3.07a10.73 10.73 0 0 0 4.85 2.52l.34.25a11.85 11.85 0 0 1-3.64-1.4c-1.56-.93-2.43-2.3-3.64-3.58-.27-.28-1.06-1.21-1.36-.63-.2.38.54 1.59.69 1.84a10.44 10.44 0 0 0 1.93 2.36c1.75 1.53 4.11 1.47 6.32 1.56-.03.02-.02.03-.02.05Z"/>
  <path fill="#ffc727" d="M59.77 280.78c0 .1 0 .2-.06.29v.05a.1.1 0 0 1-.13-.05s0 0 0-.06v-.08c-.44-1.65-.61-3.37-1.08-5s-1-3.13-1.32-4.74c-.2-1-.91-6.11 1.34-5.47 1 .28 1.68 1.72 2 2.58a10.54 10.54 0 0 1 .83 3.66c.18 3.04-.96 5.85-1.58 8.82Z"/>
  <path fill="#fff" d="M60.48 274.44a11.88 11.88 0 0 0-.36-3.46c-.1-.39-.58-2.26-1.22-2.21-.41 0-.48.83-.51 1.1a10.57 10.57 0 0 0 .44 3.39 47.26 47.26 0 0 1 .83 6.81c0 .14 0 .29-.06.43s0 .24-.05.36 0 .08 0 .13v.09a.11.11 0 0 0 .14.05v-.28a1.85 1.85 0 0 1 0 .23v-.23a.13.13 0 0 0 0-.06v-.37a52.28 52.28 0 0 0 .79-5.98Zm-.75 5.14q-.1-2-.39-4a48.95 48.95 0 0 0-.57-3.17 11.18 11.18 0 0 1-.29-1.81c0-.46.05-2.18.93-1.12a6.9 6.9 0 0 1 .87 3.37 16.69 16.69 0 0 1-.06 3.16c-.12 1.21-.32 2.39-.49 3.57Z"/>
  <path fill="#ffc727" d="M61.11 287.64H61c-2.29-.12-5.33.1-7.23-1.41-1.4-1.12-2.78-3.32-2.34-5.2.51-2.1 3.36.43 4.11 1a69.67 69.67 0 0 1 5.6 5.44s.02.15-.03.17Z"/>
  <path fill="#fff" d="m61.19 287.57-.4-.25q-2.25-1.41-4.37-3c-.35-.27-2.92-2.56-3.31-1.74-.23.49.62 1.5.89 1.84a6.92 6.92 0 0 0 1.73 1.55c1.52.94 3.37 1.15 5.09 1.61l.24.06s.15-.04.13-.07Zm-4.52-1.3a7.27 7.27 0 0 1-2-1.33c-.38-.37-1.73-1.73-1.37-2.29.19-.3.35-.14.71 0a5.5 5.5 0 0 1 .48.28c.39.26.74.55 1.09.83a54.7 54.7 0 0 0 5.18 3.66 36 36 0 0 1-4.09-1.15Z"/>
  <path fill="#ffc727" d="M65.28 282.93a13.49 13.49 0 0 1-3.91 6.84.08.08 0 0 1-.11 0 .09.09 0 0 1 0-.13l.12-.12c.37-3.1.79-6.19 1.11-9.3.07-.73.65-5.4 2.08-4.64.89.47 1 2.38 1 3.24a13.33 13.33 0 0 1-.29 4.11Z"/>
  <path fill="#fff" d="M64.45 278.77c-.08-.26-.21-.52-.5-.34-.56.35-.78 2.54-.87 3.15-.39 2.5-1 4.91-1.58 7.36l-.15.62-.14.19a.09.09 0 0 0 .11 0 .14.14 0 0 0 0-.06l.19-.25a16.1 16.1 0 0 0 2.26-4.4 15.29 15.29 0 0 0 .67-3.07 9 9 0 0 0 .01-3.2Zm-2.93 10.54-.08.12.07-.25a44.71 44.71 0 0 0 1.4-5.7c.17-1 .27-2 .47-2.94.09-.41.29-1.58.63-1.77s.33.27.37.53 0 .54 0 .71a15.79 15.79 0 0 1-2.86 9.3Z"/>
  <path fill="#ffc727" d="M61.75 296.46h-.46v-1.2c0-1.62-.12-3.25-.21-4.87-.06-.92-.12-1.84-.22-2.75a.28.28 0 0 1 0-.09v-.23a2 2 0 0 0 0-.24 19.6 19.6 0 0 0-1.56-6 17.7 17.7 0 0 0-1-1.86l-.09-.17a1.62 1.62 0 0 0-.1-.18l-.08-.13c-1.05-1.86-2.26-3.64-3.41-5.43l-1-1.54a.41.41 0 0 1-.05-.09l-.08-.11c-1.44-2.28-2.85-4.57-4.35-6.8-.06-.08.08-.15.13-.07 1 1.48 2.06 2.93 3.1 4.4l.41.58.82 1.16 1.6 2.33a67.92 67.92 0 0 1 4.2 6.8l.26.54c0 .11.11.23.15.34l.18.39a21.34 21.34 0 0 1 1.54 7.19v1.62c.07 1.62.11 3.24.15 4.86l.07 1.55Z"/>
  <path fill="#ffc727" d="M48.12 267.08c-1.25-1.68-2.85-5.15-1-6.95a2 2 0 0 1 2.61-.19 5.66 5.66 0 0 1 1.72 3.13c.85 2.94 1.41 5.94 2.46 8.82l.12.31c.03.06-.08.09-.1 0s-.07-.19-.1-.28c-2-1.42-4.23-2.85-5.71-4.84Z"/>
  <path fill="#fff" d="M53.92 271.9a20.79 20.79 0 0 1-1.17-2.18 42.72 42.72 0 0 1-1.8-4.81c-.2-.63-1.1-3.72-2.2-2.49a2.75 2.75 0 0 0-.32 2.07 7.6 7.6 0 0 0 1 2.89 14.09 14.09 0 0 0 4.15 4.34l.22.17v.07a.07.07 0 0 0 .1-.05.06.06 0 0 0 .02-.01Zm-.49-.34a16.59 16.59 0 0 1-3.52-3.56 8.91 8.91 0 0 1-1.14-2.34 7.36 7.36 0 0 1-.25-1.13 5.14 5.14 0 0 1-.05-.87c0-.64.28-1.33.66-1.4s.62.19.92.72a4.18 4.18 0 0 1 .28.56c.2.48.36 1 .52 1.47.26.81.52 1.62.81 2.43.2.55.41 1.09.65 1.62a19.67 19.67 0 0 0 1.37 2.66Z"/>
  <path fill="#ffc727" d="M70.5 282.12c-.13 1-.32 2-.52 3l-.35 1.7a4 4 0 0 0-.15 1.88v.08a.08.08 0 0 1-.13 0 2.63 2.63 0 0 1-.21-.53 14 14 0 0 1-.51-1.46 13.1 13.1 0 0 1-.49-3.11 10.62 10.62 0 0 1 .3-2.81 5.54 5.54 0 0 1 1-2.39c.5-.51.91.31 1 .72a6.72 6.72 0 0 1 .06 2.92Z"/>
  <path fill="#fff" d="M69.6 280c-.37 0-.64 1.19-.77 1.7a10.41 10.41 0 0 0-.32 2.48 13.14 13.14 0 0 0 .77 4.4 1.21 1.21 0 0 0 0 .18.07.07 0 0 0 .13 0 2.2 2.2 0 0 1-.06-.37v-.33a17.72 17.72 0 0 1 .22-3.64c.23-1.36.51-4.42.03-4.42Zm-.27 8.37c0 .16 0 .32.07.48 0-.12-.07-.23-.11-.35a15.06 15.06 0 0 1-.69-3.88 11 11 0 0 1 .16-2.22 8.94 8.94 0 0 1 .29-1.16c0-.16.32-1.16.55-1.11s.19.93.19.95v.54c0 .37 0 .74-.06 1.11-.07.8-.18 1.6-.28 2.4a14.06 14.06 0 0 0-.12 3.22Z"/>
  <path fill="#ffc727" d="M76.3 284.91a9.74 9.74 0 0 1-3 3.2c-.63.46-1.28.9-1.92 1.34a11.23 11.23 0 0 0-1.67 1.28l-.06.07a2.62 2.62 0 0 0-.34.48.08.08 0 0 1 0 .05v-.07a.17.17 0 0 0 0-.07 9.79 9.79 0 0 1 2.18-4.29 8.29 8.29 0 0 1 3.45-2.78c.35-.13 1.16-.51 1.52-.22s-.02.73-.16 1.01Z"/>
  <path fill="#fff" d="M75.25 284.92c-.32-.32-1.26.47-1.5.66a16 16 0 0 0-2 1.9 14 14 0 0 0-2.5 3.62s0 .05 0 .07l.37-.43.06-.07a31.25 31.25 0 0 1 2.93-2.58 15.83 15.83 0 0 0 1.95-1.89c.19-.12.96-1.01.69-1.28Zm-.29.71a14.17 14.17 0 0 1-3.35 3.25 15.45 15.45 0 0 0-2.23 2.12 15.27 15.27 0 0 1 2.31-3.26 18.8 18.8 0 0 1 1.59-1.63 7 7 0 0 1 1-.77 3.24 3.24 0 0 1 .66-.36c.4-.13.16.42.06.65Z"/>
  <path fill="#ffc727" d="M69.1 294.42h-.07a13.21 13.21 0 0 1-3.07-4.5 6.76 6.76 0 0 1-.45-2.22c0-.52 0-1.56.4-1.94.9-.76 1.71 2.47 1.83 2.95.22.89.37 1.79.57 2.68s.52 1.93.81 2.89l-.02.14Z"/>
  <path fill="#fff" d="m69.1 294.42-.14-.25a15.25 15.25 0 0 1-1.61-4.33 13.41 13.41 0 0 0-.59-2.26c-.07-.18-.3-.86-.59-.52a5.1 5.1 0 0 0 0 1.82 9.63 9.63 0 0 0 .73 2.22 15.4 15.4 0 0 0 2 3.32l.07.09s.12-.07.13-.09Zm-1.81-2.77a11.35 11.35 0 0 1-.86-2.15 9.18 9.18 0 0 1-.19-.91 5.83 5.83 0 0 1-.06-.72c0-.59 0-.74.15-.76s.15.05.32.4a3.84 3.84 0 0 1 .25.72l.25 1c.15.7.29 1.41.5 2.09a11.47 11.47 0 0 0 1.24 2.82 17.52 17.52 0 0 1-1.6-2.49Z"/>
  <path fill="#ffc727" d="M73.11 291.33a4.4 4.4 0 0 1-.82 1.7c-.74 1-1.69 1.88-2.5 2.85a7.5 7.5 0 0 0-.35.44 1.9 1.9 0 0 1-.11.21s0-.08 0-.22a18.86 18.86 0 0 1 1.09-3.78 9.26 9.26 0 0 1 1.19-1.85c.23-.26.77-.82 1.17-.7s.39 1.02.33 1.35Z"/>
  <path fill="#fff" d="M72.45 290.91c-.43-.27-1.55 1.73-1.7 2a12.56 12.56 0 0 0-1.28 3.09c0 .12-.07.24-.1.36s0 .22 0 .22a2 2 0 0 0 .11-.21l.06-.08.29-.36c.49-.73 1-1.45 1.46-2.19a11.56 11.56 0 0 0 .9-1.66c.02-.18.45-1.08.26-1.17Zm-.12.56c-.62 1.74-1.88 3.11-2.84 4.66v.07-.13a14.34 14.34 0 0 1 1-2.54 14.64 14.64 0 0 1 .86-1.43 8.36 8.36 0 0 1 .53-.75c.09-.1.35-.36.44-.31s.05.32.01.43Z"/>
  <path fill="#ffc727" d="M77.47 277c-1.29 3-4.68 4.35-6.14 7.2l-.13.26a.06.06 0 0 1-.1 0v-.11a15.43 15.43 0 0 1 1.81-5.19 7.83 7.83 0 0 1 3.16-3.36c.35-.18 1-.56 1.41-.26s.15 1.07-.01 1.46Z"/>
  <path fill="#fff" d="M76.31 277.1c-.17-.12-.41 0-.56.1a4.65 4.65 0 0 0-1 .67 7.76 7.76 0 0 0-1.56 1.86 16.32 16.32 0 0 0-1.84 3.72 9.46 9.46 0 0 0-.26.91v.11a.06.06 0 0 0 .1 0l.12-.26a9.57 9.57 0 0 1 .92-1.69 23.16 23.16 0 0 1 1.93-2.29c.28-.33 2.72-2.71 2.15-3.13Zm-.21.69a11.23 11.23 0 0 1-1.53 1.85c-.53.6-1.08 1.19-1.6 1.8a10.69 10.69 0 0 0-1.13 1.56 8.28 8.28 0 0 0-.71 1.43 13.08 13.08 0 0 1 .51-1.49 21.59 21.59 0 0 1 1.25-2.5 10.61 10.61 0 0 1 1.42-2 5.6 5.6 0 0 1 1-.86c.42-.28.79-.45.9-.32s.01.32-.11.53Z"/>
  <path fill="#ffc727" d="M73 280.45c-.38.83-.75 1.68-1.12 2.53l-.51 1.19-.18.43a26.19 26.19 0 0 0-1.51 4 11.75 11.75 0 0 0-.31 2.22v2.37c0 .89.09 1.76.17 2.64v.26a.45.45 0 0 0 0 .11c0 .28 0 .56.07.85h-.31a19 19 0 0 1-.32-2.61v-.06a2.11 2.11 0 0 1 0-.25v-1.07a18.28 18.28 0 0 1 .31-4.37s0-.08 0-.12v-.26a2.17 2.17 0 0 1 .07-.24V288a28.39 28.39 0 0 1 1.49-3.6l.3-.63.17-.36.26-.53 1.25-2.5c.09 0 .17.03.17.07Z"/>
  <path fill="#a6a6a6" d="M48.17 301.65h32.47s-3.49-7.76-6.57-9.64-11.51-3.32-16-2.08-9.9 11.72-9.9 11.72Z"/>
  <path fill="#c7c7c7" d="M69.64 305.46h20.55s-2.51-7.4-9.17-7.61-11.38 7.61-11.38 7.61Z"/>
  <path fill="#a6a6a6" d="M88.16 383.73h169.66s-18.26-40.53-34.36-50.36-60.14-17.37-83.76-10.9-51.54 61.26-51.54 61.26Z"/>
  <path fill="#f7a9a0" d="M332.29 283.25c-2.89 21.94-67.65 94.16-67.65 94.16l-40.1-34.14 38.32-52.43s-65.11 38-97.68 20.74c-14.62-7.74-25.47-21.5-25.47-21.5l42.51-22.67s10.5 1.2 18 .1c25.91-3.79 72.54-25.43 99-22.68 17.78 1.84 35.78 18.3 33.07 38.42Z"/>
  <path fill="#263238" d="M277 271.68a51.11 51.11 0 0 0-4.06 5.2c-1.4 1.83-2.81 3.63-4.2 5.46v.06l.74-1.61c.88-1.81 1.58-3.69 2.62-5.43.06-.1-.1-.2-.16-.1-1.07 1.73-2.31 3.37-3.22 5.18-.43.86-.84 1.72-1.21 2.6l-.61 1.45a7.23 7.23 0 0 0-.26.7c-.62.85-1.23 1.7-1.83 2.57-1.33 1.92-2.5 3.95-3.84 5.85-.07.1.09.2.16.1 1.36-1.79 2.89-3.46 4.27-5.24s2.73-3.67 4.05-5.54 2.54-3.68 3.83-5.51a55.34 55.34 0 0 0 3.87-5.65c-.01-.07-.09-.15-.15-.09Z"/>
  <path d="m295.05 244.6-54 57.13c-21.93 9.66-55.36 20.72-75.88 9.85-14.62-7.74-25.47-21.5-25.47-21.5l42.51-22.67s10.5 1.19 18 .1c24.61-3.61 67.85-23.26 94.84-22.91Z" opacity=".1"/>
  <path fill="#f7a9a0" d="M267.52 430.45c-2.89-1-64.71-50.15-65.94-53.69-.5-1.33 6.44-11.27 15.18-23.05l.27-.36c1.8-2.43 25.83-35.15 25.83-35.15l42.3 34.71-25.66 33.15-1.59 1.5s13.22 28.19 14.17 32.23-1.69 11.7-4.56 10.66Z"/>
  <path fill="#ebebeb" d="M267.52 430.45c-2.89-1-64.71-50.15-65.94-53.69-.5-1.33 6.44-11.28 15.18-23.05l.27-.37L221 348l42.74 32.64-4.2 5.42-1.59 1.49s13.22 28.2 14.17 32.23-1.73 11.71-4.6 10.67Z"/>
  <path fill="#ffc727" d="M267.46 431.19c-2.9-1-65-50.76-66.26-54.33-.49-1.35 6.52-11.38 15.33-23.27l42.39 33.17s-1 .75-.84 1c2 3.85 13.64 28.39 14.53 32.16.95 4.08-2.24 12.32-5.15 11.27Z"/>
  <path fill="#263238" d="M268.6 427.81c-10.83-9-51.58-41.94-63-50-.1-.07-.15 0-.06.07 10.54 9.13 51.57 41.73 62.88 50.11.27.18.41.01.18-.18Zm1.59-13.6c-4.68-3.85-10.31-6.26-14.13-6.75s-7.48 0-9.15 2.36c0 .07.17.25.24.19 4.57-3.41 14.71-1.58 22.93 4.34.16.12.27-.01.11-.14Zm-11.77-25.98c-4.17-3.78-10.38-6.6-16.05-5.46-.22 0-.15.35 0 .4a77.31 77.31 0 0 1 15.63 5.64.35.35 0 0 0 .42-.58Zm2.14 4.14c-4.17-3.78-10.38-6.6-16.05-5.46-.22 0-.15.36 0 .4a78.31 78.31 0 0 1 15.67 5.69.35.35 0 0 0 .38-.63Zm2.15 4.14c-4.18-3.78-10.39-6.6-16-5.46-.22.05-.16.36 0 .41a77.09 77.09 0 0 1 15.64 5.64.36.36 0 0 0 .36-.59Zm2.14 4.15c-4.18-3.78-10.39-6.6-16.05-5.46-.22 0-.16.35 0 .4a77.22 77.22 0 0 1 15.63 5.64.35.35 0 0 0 .42-.58Zm-48.13-31.11c-5-3.9-11 3.82-6.06 7.72s11.04-3.82 6.06-7.72Z"/>
  <path fill="#263238" d="M272.92 381c-.58-3.66-4.8-4.3-7.74-3.62a29.54 29.54 0 0 0-13.35 7.42.15.15 0 0 0 0 .24.69.69 0 0 0 .46 1c4.84.57 9.95 1.77 14.82.84 2.89-.55 6.35-2.45 5.81-5.88Zm-13.09 4.41c-2.39-.22-4.75-.56-7.15-.69a88.74 88.74 0 0 1 7.9-4.17 32.18 32.18 0 0 1 4.05-1.49c2.15-.58 9.4-.46 5.77 4.5-2 2.72-7.73 2.09-10.57 1.83Z"/>
  <path fill="#263238" d="M240 377.1c3.18 3.81 7.9 6.1 12 8.72a.68.68 0 0 0 1-.49.14.14 0 0 0 .17-.16 29.48 29.48 0 0 0-5.64-14.2c-1.85-2.39-5.52-4.56-8.28-2.1-2.66 2.34-1.15 6.01.75 8.23Zm-.43-4.65c.34-6.14 6-1.64 7.32.17a33 33 0 0 1 2.2 3.72 87.17 87.17 0 0 1 3.47 8.22c-1.93-1.41-4-2.65-6-4-2.39-1.56-7.22-4.72-7.04-8.11Z"/>
  <path fill="#455a64" d="m226.85 259-13.16 54.51s-27.57 8.68-46.85 0-27.13-23.45-27.13-23.45l44.22-24.41s9.35 1.3 14.67 1.12 28.25-7.77 28.25-7.77Z"/>
  <path fill="#f7a9a0" d="M187 212.5c10 19.59 26.13 42 31.36 45 6.62 3.78 44.29 4.3 46.1 4.05 4.47-.66 5.33-34.25.52-33.75-7.33.75-33.39 5.8-35.32 4.61s-16.3-12.21-31.34-24.87c-10.39-8.73-17.53-7.2-11.32 4.96Z"/>
  <path fill="#f7a9a0" d="M260.52 260.75a98 98 0 0 0 13.79 2.17c3.65.13 14.18.23 14.72-3.77.38-2.73-5.8-3.52-10.16-4.17-2.3-.35-5.41-1.88-5.13-3.37.49-2.6 6.43-1.6 10.46-.44 7.79 2.25 18.64 7.09 21.93 2.59 1.24-1.7-1.18-3.61-4.43-5.27 5 1.62 10.19 2.69 11.64.86.84-1 .62-2.14-.27-3.23a3.11 3.11 0 0 0 3.21-1.36c1-1.82-.19-3.82-2.29-5.67a1.71 1.71 0 0 0 1.07-1.16c1.84-5.29-16.35-14.59-21.82-14.52-16.09.2-31.91 4.89-31.91 4.89-4.77 6.26-.82 32.45-.81 32.45Z"/>
  <path fill="#263238" d="M279.34 241.18a26.51 26.51 0 0 1 11.1 1.35c4.49 1.58 7.79 3.91 11.77 6.09.1.06 0 .23-.09.17-1.89-1-9.61-4.79-11.56-5.59a25.4 25.4 0 0 0-11.22-2v-.02Zm1.21-7.18a62.54 62.54 0 0 1 12.81 1.12c4.57 1 8.58 3.62 12.51 6.08 2.36 1.47 4.7 3 7 4.58.09.07 0 .23-.09.16q-6-3.83-12.24-7.29a33.22 33.22 0 0 0-12.44-4.07c-2.5-.3-5-.41-7.54-.51-.05.03-.06-.07-.01-.07Zm2.85-6.68c4.08-.17 7.63-.34 11.58.87 5.24 1.61 10.79 5.15 12.74 6.4 2.15 1.39 4.26 2.85 6.34 4.34.09.06 0 .21-.1.15a132 132 0 0 0-14.77-8.74 26.16 26.16 0 0 0-7.69-2.64 46.62 46.62 0 0 0-8.1-.35v-.03Z"/>
  <path fill="#ffc727" d="m201.39 241.17 11.88-25.08a178 178 0 0 0-17.37-12.39c-10.21-6.43-15.22-2.94-9.15 12.16a103.32 103.32 0 0 0 14.64 25.31Z"/>
  <path fill="#263238" d="M209.61 214.36c-1.1 1.75-1.93 3.69-2.87 5.53s-1.8 3.52-2.64 5.3q-2.61 5.56-5 11.23c0 .06.07.12.11.05q2.78-5.4 5.41-10.87c.88-1.82 1.7-3.66 2.53-5.5s1.84-3.74 2.55-5.69c.04-.06-.06-.12-.09-.05Z"/>
  <path d="M186.75 215.86a103.32 103.32 0 0 0 14.64 25.31l9.93-21-24.74-19.36c-3.13 1.05-3.5 5.94.17 15.05Z" opacity=".1"/>
  <path fill="#ffc727" d="m139.12 286.06 75.61-9.35-4.89-25.6s5.21-7.28 4.37-15.11c-1.13-10.46-17.5-29.68-18.83-30.86-5.35-4.74-10.88-5.45-16.13-3.54-21.87 7.96-40.13 84.46-40.13 84.46Z"/>
  <path fill="#fff" d="m195.66 205.42-25.3 3.1.87-1 23.57-2.9.58.5Zm4.6 5.48-34.7 4.26-.59 1 35.91-4.41Zm4.71 6.34-43.65 5.36-.47.94 44.68-5.49Zm4.17 6.41L157.77 230l-.42.93 52.27-6.42Zm3.37 6.52-57.87 7.1-.37.92 58.58-7.19-.34-.83Zm1.77 6.7-62.47 7.67-.33.92 62.82-7.72-.02-.87Zm-65.05 14.91-.32.91 64.09-7.86.31-.91Zm60.64-.52L146.82 259l-.29.92 63.5-7.8Zm1.29 6.76-66.58 8.18-.27.91 67-8.23Zm1.29 6.77-70 8.59-.26.91 70.4-8.64Zm1.29 6.76-73.22 9-.23.91 73.62-9Z"/>
  <path fill="#263238" d="M187.51 246.18a62.9 62.9 0 0 1 9.31.27c1.54.18 3.05.43 4.57.72.76.14 1.52.25 2.28.37a10.15 10.15 0 0 0 2.4.12.06.06 0 1 1 0 .11 15.62 15.62 0 0 1-2.27.26 14.88 14.88 0 0 1-2.21-.11c-1.56-.17-3.11-.41-4.66-.59-3.14-.38-6.28-.75-9.44-.89a.13.13 0 0 1 .02-.26Zm-7.22 3.74a69 69 0 0 1 7.57-1.39 40.6 40.6 0 0 1 3.83-.28h1.83c.61 0 1.35.08 2 .06.07 0 .08.11 0 .11-.64 0-1.27.17-1.9.24l-1.91.21-3.81.42c-2.55.26-5.08.54-7.62.88-.1-.02-.11-.17.01-.25Zm25.81-56.13c4 .29 12.74 5.79 14.46 11.71s-.94 13.87-2.82 14.16-8.78-2.42-12.84-6.55-.75-19.46 1.2-19.32Z"/>
  <path fill="#263238" d="M206.09 193.81c-.12-.06-.07-.28.07-.24 3.28.89 6.44 3 9.28 4.85a19.7 19.7 0 0 1 6.12 5.4 9.12 9.12 0 0 1 1.21 7.53 18.74 18.74 0 0 1-4.37 8.38c-.06.06-.2 0-.14-.1 3.12-5 6.4-11.21 2.12-16.51-3.65-4.5-9.38-6.61-14.29-9.31Z"/>
  <path fill="#263238" d="M217.62 218.09c3.13 1.39 9.74 10.1 9.31 16.71s-8.17 14.25-10 14.44-7.21-7.89-8.26-12.94c-.69-3.38 1.55-6.4 3.27-9.56 2.57-4.67 5.2-8.87 5.68-8.65Z"/>
  <path fill="#263238" d="M207 234.94c.91-6.59 6.34-11.77 10.18-16.82 0-.05.14 0 .1.06-2.81 5.11-7.57 9-9.36 14.72a10.94 10.94 0 0 0 1.3 10c1.88 2.52 4.68 4.25 7.19 6.08.17.12 0 .36-.2.25-5.05-3.53-10.16-7.49-9.21-14.29Zm11.15-16.06c-.14-.13 0-.35.19-.23 4 3.57 8.59 8.43 9.67 13.85 1.17 5.88-3.1 10.39-6.85 14.26 0 .05-.13 0-.08-.07 3.73-3.95 7.94-9 6.37-14.83-1.36-5.04-5.57-9.54-9.3-12.98Z"/>
  <path fill="#263238" d="M216.65 249c-2.45.69-6.48 3.82-8.14 8.12-2.84 7.37-5.41 5.27-14.16 5.58-7.39.25-10.52 7.82-7.57 12.49 0 0-1.17-5.31 4.07-6.71 6.25-1.67 18 7 26.11.3 10.51-8.68-.31-19.78-.31-19.78Z"/>
  <path fill="#263238" d="M212.93 251.87c.11-.09 0-.28-.15-.2a11.5 11.5 0 0 0-3 2.84c-1 1.47-1.44 3.21-2.37 4.73-2.39 3.87-7.4 2.68-11.12 2.18-5-.67-9.55 1.51-10.92 6.62a.06.06 0 1 0 .11 0 8.91 8.91 0 0 1 6.75-6.33c3.12-.62 6.22.69 9.35.58 2.14-.07 4.34-.51 5.7-2.3a18.21 18.21 0 0 0 1.64-3.31 12.34 12.34 0 0 1 4.01-4.81Z"/>
  <path fill="#263238" d="M217.75 250.15s-.12 0-.09.06c2.22 3.32 4.59 6.69 4.56 10.87 0 4.5-3.15 8.36-7.09 10.27-4.4 2.13-8.19-.1-12.26-1.81-3-1.24-6-2.25-9.24-1.82-.1 0-.08.17 0 .17 5.09-.12 9.23 2.25 13.84 4 3.77 1.44 7.11.72 10.25-1.79 6.93-5.53 5.12-13.85.03-19.95Z"/>
  <path fill="#f7a9a0" d="M184.38 203.58c-.06 1.32 3.64 11 9.38 12.28 1.86.42 4.6-9.68 4.6-9.68l.38-.69 5.21-9.8-11.58-12.77s-7.97 20.08-7.99 20.66Z"/>
  <path fill="#263238" d="m204 195.69-5.21 9.79a22.25 22.25 0 0 1-9.07-15.69l2.67-6.81a.28.28 0 0 0 0-.06l1.49 1.53Z"/>
  <path fill="#f7a9a0" d="M221.77 182.64c-3.31 19.18-15.18 19.37-19.31 18.65-3.76-.65-16.45-3.35-15.14-22.77s11.27-23.94 19.93-22.91 17.82 7.85 14.52 27.03Z"/>
  <path fill="#263238" d="M219.54 179.69c-.43-.16-.8-.38-1.21-.58a2.23 2.23 0 0 1-1.12-.83.71.71 0 0 1 .2-.83 1.74 1.74 0 0 1 1.74 0 2.52 2.52 0 0 1 1.33 1.24.75.75 0 0 1-.94 1ZM206.23 178c.46.05.89 0 1.34 0a2.18 2.18 0 0 0 1.38-.22.68.68 0 0 0 .2-.82 1.71 1.71 0 0 0-1.54-.79 2.52 2.52 0 0 0-1.75.49.74.74 0 0 0 .37 1.34Zm1.98 3.48s-.11 0-.12.1c-.25 1.3-.74 2.75-2 2.92 0 0-.05.07 0 .08 1.46.11 2.1-1.82 2.12-3.1Z"/>
  <path fill="#263238" d="M207.36 179.88c-2.05-.62-3.13 3.52-1.24 4.09s2.95-3.58 1.24-4.09Z"/>
  <path fill="#263238" d="M206.49 179.88c-.43.14-.89.46-1.33.39s-.79-.61-1-1.12c0-.05-.07 0-.08 0a1.57 1.57 0 0 0 .69 2c.75.31 1.49-.25 1.89-1 .07-.07 0-.32-.17-.27Zm9.37 3.26s.09.09.07.14c-.39 1.27-.62 2.79.43 3.52v.07c-1.36-.58-1.07-2.59-.5-3.73Z"/>
  <path fill="#263238" d="M217.37 182.11c2.1.4 1.14 4.57-.8 4.2s-.96-4.53.8-4.2Z"/>
  <path fill="#263238" d="M218.17 182.59c.28.29.52.77.9.89s.89-.24 1.28-.61c0 0 .07 0 .06.06-.16.8-.62 1.57-1.42 1.55s-1.08-.82-1.09-1.66c0-.15.16-.35.27-.23Zm-13.12 9.67c.2.4.36.91.8 1.1a3.61 3.61 0 0 0 1.46.15c.05 0 .07.05 0 .08a1.78 1.78 0 0 1-1.82.13 1.39 1.39 0 0 1-.61-1.44.07.07 0 0 1 .17-.02Zm6.84-3.49s-.27 2-.52 2.88c0 .08-.26.06-.57 0a4.44 4.44 0 0 1-3.71-2.75.1.1 0 0 1 .17-.09 6.71 6.71 0 0 0 3.59 2.21c.14-.23.35-3.41.5-3.38a8.24 8.24 0 0 1 1.91 1c.68-4.11.7-8.3 1.44-12.38a.13.13 0 0 1 .25 0 67.89 67.89 0 0 1-1 13.39c-.08.56-1.75-.65-2.06-.88Z"/>
  <path fill="#263238" d="M210.86 191.27a5.42 5.42 0 0 1-2.44 1.28 2.43 2.43 0 0 1-1.47-.16c-1-.47-.87-1.44-.53-2.24a5.82 5.82 0 0 1 .7-1.19 7 7 0 0 0 3.74 2.31Z"/>
  <path fill="#ff9cbd" d="M208.42 192.55a2.43 2.43 0 0 1-1.47-.16c-1-.47-.87-1.44-.53-2.24a2.51 2.51 0 0 1 2 2.4Z"/>
  <path fill="#263238" d="M188 180.36c2.13.21 8.55-4.71 10.35-14.87 0 0-2.25 9-3.15 10.24s3.59-2.77 5.16-10.94c0 0 4 4 7.72 5.71s6.09 2.05 6.41 1.82-5.1-2.95-6.36-5c0 0 9.55 6.45 14.25 7.57.54.13 3-11.08-3.57-17s-19.06-2.66-22.68-.13c0 0-.8-.54-5.66 4.26s-4.79 18.11-2.47 18.34Z"/>
  <path fill="#ffc727" d="M222.54 162.76c-2.23-.49-14.61.12-20.13 2.62s-15.24 10.7-15.74 11.13-3.44-19.94 13-24c17.99-4.39 22.87 10.25 22.87 10.25Z"/>
  <path fill="#ffc727" d="M187.61 175.66s10.66-14.65 16.68-18.07 19.6-5.54 28.09-2c6.62 2.76-9.25 11.52-9.25 11.52a6 6 0 0 0-3-3.3c-4.13-1.55-11.47 0-15.88 1.61-5.58 1.99-16.64 10.24-16.64 10.24Z"/>
  <path d="M187.61 175.66s10.66-14.65 16.68-18.07 19.6-5.54 28.09-2c6.62 2.76-9.25 11.52-9.25 11.52a6 6 0 0 0-3-3.3c-4.13-1.55-11.47 0-15.88 1.61-5.58 1.99-16.64 10.24-16.64 10.24Z" opacity=".2"/>
  <path fill="#f7a9a0" d="M190.11 180.52s-2.56-7-5.61-6.19-2.21 10.09.62 12.08a3.28 3.28 0 0 0 4.71-.59Z"/>
  <path fill="#263238" d="M184.81 177v.08c2 1.47 2.58 3.81 2.83 6.13a1.82 1.82 0 0 0-2.5-1.17.07.07 0 0 0 0 .13 2 2 0 0 1 2 1.25 9.49 9.49 0 0 1 .57 2c.06.22.44.21.42 0 .75-2.87-.39-7.35-3.32-8.42Z"/>
  <path fill="#f7a9a0" d="M170 210.35c-9.16 14.14-28.36 62.6-18.41 69.82s57.13-10.86 69.93-19.28c3.8-2.5-15.19-25.76-20.06-25.69-4.05.05-22.26 11.72-23 10.62s1.52-11.17 4-29.56c2.78-21.19-7.21-14.05-12.46-5.91Zm50.55 13.85c9.71-2.74 12.63-2 19.59-8.63 4.57-4.37 9.33-3.33 7.24 2.91-3.42 10.2-15.21 16.38-19.91 17.34Z"/>
  <path fill="#f7a9a0" d="M195.57 237.37s10.27-7.72 20.33-11.67c7-2.73 22.75-7 40.32 6.75 4.17 3.26 7.8 10.86-.94 8-6.21-2-9.53-5.18-13.36-5.7 0 0 3.47 10.21 0 14.26a97.52 97.52 0 0 1-9.71 9.94 20.44 20.44 0 0 1-2-1.65s-3.56 3.48-11.12 3.8Z"/>
  <path fill="#f7a9a0" d="M223 224.16c3.69 1.31 11.46 4.24 17 8.85 6.13 5.11 16.57 16.61 12.75 21.1-2.8 3.3-7.18-.75-7.18-.75s3.32 5.67.13 8.09c-2.9 2.21-6.09-1.12-6.09-1.12s1.42 3.78-1.78 5.36c-3.86 1.91-6.2-6.33-11.77-7.77-1.31-.32-3.06-33.76-3.06-33.76Z"/>
  <path fill="#263238" d="M233.45 238.59c3.27 1.8 9.63 7.82 12.1 14.61 0 .16 0 .28-.12.15a78.39 78.39 0 0 0-12-14.71s-.02-.07.02-.05Zm-4.98 6.34c2.65 1.85 8.93 8.34 11.2 15.31.05.16 0 .28-.12.14A84.16 84.16 0 0 0 228.42 245s.01-.09.05-.07Zm13.44-10.24c3.36.51 5.68 1.8 8.66 3.31a44.8 44.8 0 0 0 4.52 2.06c1.42.53 3.5 1.34 4.75 0a2.7 2.7 0 0 0 .23-2.72 13 13 0 0 0-2.28-3.42s0-.1.06-.07a18.59 18.59 0 0 1 2.39 3 4.26 4.26 0 0 1 .64 2.47c-.22 1.85-2.29 2.37-3.84 2.09a14.3 14.3 0 0 1-2.71-.88c-.85-.34-1.67-.72-2.49-1.12-1.68-.83-3.31-1.75-5-2.59a41.52 41.52 0 0 0-5-2.05.06.06 0 0 1 .07-.08Z"/>
  <path fill="#263238" d="M250.24 245.11a102.48 102.48 0 0 0-8.38-10.33l.06-.07c2.84 2 7.76 7.81 9 9.7s2.63 4.3 2.94 6.53c.47 3.37-1.68 4.32-2.49 4.6a4.4 4.4 0 0 1-2.93-.08 8.8 8.8 0 0 1-2.94-2.08s0-.11.06-.07c1.35 1.16 3.47 2.21 5.27 1.71a3.05 3.05 0 0 0 1.93-1.41 4 4 0 0 0 .17-2.79 18.74 18.74 0 0 0-2.69-5.71Zm-4.76 8.27c1.24 2.21 2.72 5.11 1.13 7.56a4.41 4.41 0 0 1-3.73 1.63 5.81 5.81 0 0 1-3.66-1.91l.75-.35c.35 1.55.51 3.5-.68 4.83a3.53 3.53 0 0 1-4.82.54c-2.64-1.89-3.9-4.82-6.67-6.51l.57-.07c-1.7 1.64-5 2.1-6.75 2-2.65 1.36-8 4.07-10.71 5.4 2.61-1.48 7.84-4.43 10.46-5.88 2.3-.24 5-.65 6.62-2.41a17 17 0 0 1 3.87 3.4 16 16 0 0 0 3.15 3.21 2.69 2.69 0 0 0 4.32-2.18 17.22 17.22 0 0 0-.46-3.66l1 1.1c1.53 1.87 4.61 2.51 6.29.49s.27-5.06-.69-7.22Zm-67.05-7.56a61.43 61.43 0 0 1-9.34 5.85 29.22 29.22 0 0 1 9.34-5.85Z"/>
  <path fill="#ffc727" d="m154.73 236.07 27.62-2.69a178.85 178.85 0 0 0 1.71-21.27c.27-12.07-5.3-14.58-15.13-1.61a103.37 103.37 0 0 0-14.2 25.57Z"/>
  <path fill="#263238" d="M182 229.34c-2.07 0-4.16.24-6.22.38s-3.94.27-5.9.47q-6.12.62-12.2 1.48c-.07 0-.06.13 0 .13a315.7 315.7 0 0 0 18.12-1.65c2-.24 4.16-.34 6.19-.74a.06.06 0 0 0 .01-.07Z"/>
  <path fill="#263238" d="M183.08 230.61c.15-1 .26-2 .36-3 0-.21 0-.41.05-.62a36 36 0 0 0 1-3.66h-.07c-.33.92-.6 1.85-.84 2.79.13-1.54.24-3.09.22-4.63h-.08c-.33 2-.51 4-.77 6-.12 1-.61 5.77-.67 5.79s-2.3.29-2.44.36-.08.19 0 .19l2.85-.27s.31-2.1.39-2.95Z"/>
  <path fill="#455a64" d="m213.28 263.26 74.25-.93.04 3.33-74.25.93z"/>
  <path fill="#37474f" d="m287.54 262.31.04 3.33-44.54.56 2.51-3.36 41.99-.53z"/>
  <path fill="#37474f" d="m254.06 266.06 72.37-.91 5.41-49.23-72.37.92-5.41 49.22z"/>
  <path fill="#455a64" d="m257.85 266.01 72.37-.91 5.41-49.22-72.38.91-5.4 49.22z"/>
  <path fill="#fff" d="M292.33 241a4.32 4.32 0 0 0 4.38 4.35 4.5 4.5 0 0 0 4.43-4.46 4.32 4.32 0 0 0-4.38-4.35 4.5 4.5 0 0 0-4.43 4.46Z"/>
  <path fill="#f7a9a0" d="M436.56 358.65c-1 2.9-49.6 65.13-53.12 66.4-1.33.51-11.34-6.35-23.18-15l-.37-.27c-2.45-1.78-34.54-24.47-34.54-24.47l33.52-43.65 33.37 25.38 1.51 1.57s28.08-13.46 32.1-14.45 11.72 1.61 10.71 4.49Z"/>
  <path fill="#ebebeb" d="M436.56 358.65c-1 2.9-49.6 65.13-53.12 66.4-1.33.5-11.34-6.35-23.18-15l-.37-.27-6.4-4.56 32.68-42.8 6.07 4.61 1.51 1.58s28.08-13.46 32.1-14.45 11.72 1.61 10.71 4.49Z"/>
  <path fill="#ffc727" d="M437.3 358.7c-1 2.92-50.2 65.44-53.76 66.73-1.35.5-11.44-6.42-23.4-15.13l32.8-42.67s.75 1 1.05.83c3.83-2 28.27-13.88 32-14.81 4.08-.98 12.33 2.13 11.31 5.05Z"/>
  <path fill="#263238" d="M433.91 357.59c-8.91 10.91-41.5 51.94-49.45 63.41-.07.1 0 .15.07.06 9-10.62 41.29-51.93 49.56-63.31.18-.26.01-.39-.18-.16Zm-13.62-1.47c-3.81 4.71-6.17 10.36-6.62 14.19s0 7.48 2.43 9.13c.07 0 .25-.18.19-.25-3.45-4.53-1.71-14.69 4.14-23 .12-.13-.01-.19-.14-.07Zm-26.96 15.15c-3.75 4.21-6.51 10.44-5.32 16.1 0 .22.35.15.4 0a77.55 77.55 0 0 1 5.51-15.69.36.36 0 0 0-.59-.41Zm4.12-2.17c-3.74 4.2-6.51 10.43-5.32 16.09.05.22.36.15.4 0a78.08 78.08 0 0 1 5.47-15.71.35.35 0 0 0-.55-.38Zm4.13-2.18c-3.75 4.2-6.51 10.44-5.32 16.1 0 .22.35.15.4 0a76.86 76.86 0 0 1 5.51-15.68.36.36 0 0 0-.59-.42Zm4.12-2.18c-3.74 4.21-6.51 10.44-5.32 16.1.05.22.36.15.4 0a78.16 78.16 0 0 1 5.51-15.69.36.36 0 0 0-.59-.41ZM376.09 410c-3.85 5 3.92 11 7.78 6s-3.87-11-7.78-6Z"/>
  <path fill="#263238" d="M386 356.84c-3.65.61-4.25 4.84-3.55 7.77a29.7 29.7 0 0 0 7.54 13.29.16.16 0 0 0 .24 0 .68.68 0 0 0 1-.47c.53-4.84 1.69-10 .72-14.82-.62-2.87-2.54-6.34-5.95-5.77Zm4.53 13.05c-.2 2.39-.52 4.76-.63 7.15a85.88 85.88 0 0 1-4.23-7.85 31.31 31.31 0 0 1-1.53-4c-.6-2.15-.54-9.4 4.45-5.82 2.71 1.94 2.13 7.68 1.89 10.52Z"/>
  <path fill="#263238" d="M382.36 389.84c3.78-3.22 6-7.95 8.62-12.08a.68.68 0 0 0-.5-1 .15.15 0 0 0-.17-.17 29.46 29.46 0 0 0-14.14 5.76c-2.37 1.87-4.52 5.56-2 8.3 2.33 2.6 5.99 1.06 8.19-.81Zm-4.64.47c-6.15-.28-1.7-6 .1-7.32a31.58 31.58 0 0 1 3.7-2.23c2.64-1.41 5.43-2.41 8.19-3.55-1.39 2-2.61 4-3.93 6-1.58 2.39-4.68 7.25-8.06 7.1Z"/>
  <path fill="#f7a9a0" d="m382.88 359.94-32.13 43.36-109.1-77.13-11.41-7.92s-3.22 2.18-8.08 4.86c-6.76 3.73-16.65 8.46-25.4 9.75-14.68 2.17-39.19 1.94-51.56-14.61-10.42-13.93-4.76-32.1-4.76-32.1l16.12-6.92s29.08-22.74 61.33-30c16-3.58 30.89 8.74 44.93 17.53 13.58 8.52 120.06 93.18 120.06 93.18Z"/>
  <path d="M230.24 318.25s-3.22 2.18-8.08 4.86c-8.6-10.28-17.54-22.49-18.09-23.16Z" opacity=".1"/>
  <path fill="#263238" d="M238.42 324.3c5.6 4.37 11.42 8.51 17.23 12.62s11.57 8.19 17.44 12.16c1.69 1.14 8.49 5.88 10.22 6.7a.09.09 0 1 0 .09-.15c-1.53-1.09-7.31-5.59-8.75-6.64-2.82-2.07-5.66-4.1-8.5-6.14a920.42 920.42 0 0 0-17.43-12.19c-3.33-2.26-6.64-4.54-10-6.69-.25-.13-.5.18-.3.33Z"/>
  <path fill="#455a64" d="M195.94 255.58s-4.12 33.72-3.09 40.54 12.69 35.17 12.69 35.17-42 11.29-56.65-6.15-10-33.76-8.45-39l16.12-6.92s12.94-12.83 39.38-23.64Z"/>
  <path fill="#37474f" d="m186.44 258.63 12.75-5.57s-2.59 38.74-2.08 42 11.51 37.43 11.51 37.43l-13.8 1.73s-9-28.14-9.88-35.79c-.85-7.43 1.5-39.8 1.5-39.8Z"/>
  <path fill="#263238" d="M170.53 268.59c-2.28 1.58-4.48 3.26-6.73 4.89s-4.5 3.1-6.6 4.84-4.2 3.68-6.2 5.59c-1 .92-1.94 1.85-2.88 2.8a26.85 26.85 0 0 0-2.75 3c-.07.1.08.22.17.16a31.67 31.67 0 0 0 3.06-2.49l3.18-2.71c2-1.75 4.14-3.44 6.19-5.19s3.91-3.64 5.93-5.39 4.42-3.64 6.66-5.42c.06-.04.02-.12-.03-.08Zm25.14-11.79c20.34-9.14 30.59-12.56 51-.91a192.66 192.66 0 0 1 15.08 9.64c19.47 13.76 38.12 28.6 56.67 43.56-22.61-16.75-48.3-38-72.2-52.41-20.44-11.73-29.95-8.29-50.56.12Z"/>
</svg>
