<svg xmlns="http://www.w3.org/2000/svg" viewBox="0 0 500 500"><g id="freepik--Shadow--inject-21"><ellipse cx="250" cy="457.66" rx="163.62" ry="14.42" style="fill:#ebebeb"></ellipse></g><g id="freepik--Window--inject-21"><path d="M66.34,69.65V355.4H433.66V69.65ZM426.26,348.41H73.74V76.64H426.26Z" style="fill:#c7c7c7"></path><rect x="73.74" y="76.64" width="352.52" height="271.77" style="fill:#fff"></rect><g style="opacity:0.2"><polygon points="225 76.64 73.74 219.44 73.74 174.41 177.3 76.64 225 76.64" style="fill:#ebebeb"></polygon><polygon points="426.26 174.99 426.26 220.03 290.31 348.41 242.61 348.41 426.26 174.99" style="fill:#ebebeb"></polygon><polygon points="426.26 83.14 426.26 105.66 169.15 348.41 145.29 348.41 426.26 83.14" style="fill:#ebebeb"></polygon><polygon points="426.26 314.35 426.26 336.87 414.04 348.41 390.19 348.41 426.26 314.35" style="fill:#ebebeb"></polygon><polygon points="115.01 76.64 73.74 115.62 73.74 93.08 91.16 76.64 115.01 76.64" style="fill:#ebebeb"></polygon><polygon points="293.3 76.64 73.74 283.93 73.74 278.32 287.33 76.64 293.3 76.64" style="fill:#ebebeb"></polygon><polygon points="408.61 76.64 120.76 348.41 114.81 348.41 402.64 76.64 408.61 76.64" style="fill:#ebebeb"></polygon><polygon points="426.26 286.57 426.26 292.19 366.73 348.41 360.76 348.41 426.26 286.57" style="fill:#ebebeb"></polygon><polygon points="151.31 76.64 73.74 149.89 73.74 144.25 145.37 76.64 151.31 76.64" style="fill:#ebebeb"></polygon></g><rect x="187.92" y="69.65" width="7.4" height="285.75" style="fill:#c7c7c7"></rect></g><g id="freepik--shop-roof--inject-21"><path d="M447.24,76.15H52.76c23.61-19.9,28.37-35.9,28.37-35.9H418.85S423.61,56.25,447.24,76.15Z" style="fill:#FFC727"></path><path d="M134.56,40.25a46.24,46.24,0,0,1-2,9.45c-.47,1.55-1.19,3.08-1.8,4.61-.33.77-.78,1.52-1.16,2.28a21.11,21.11,0,0,1-1.26,2.26,59.21,59.21,0,0,1-6.45,8.83c-1.28,1.44-2.6,2.87-4,4.27s-3,2.77-4.67,4.1l-.06.06v0H83.51c1.86-1.29,3.52-2.63,5.14-4s3.27-2.78,4.73-4.22a71.36,71.36,0,0,0,7.84-8.83,44.65,44.65,0,0,0,5.42-9.24,27.53,27.53,0,0,0,2.2-9.63Z" style="fill:#ebebeb"></path><path d="M183.84,40.25c-.2,1.52-.33,3.12-.47,4.62l-.56,4.53c-.53,3-.89,6-1.68,9-.35,1.5-.78,3-1.18,4.49s-.94,3-1.51,4.45a36.47,36.47,0,0,1-4.63,8.73v.07H144.18a37,37,0,0,0,4.12-4.08,40.87,40.87,0,0,0,3.36-4.34,46.83,46.83,0,0,0,4.76-9,46.7,46.7,0,0,0,1.48-4.57c.2-.77.44-1.53.58-2.3l.38-2.31a18,18,0,0,0,.27-2.31l.16-2.31c0-1.54,0-3.18-.14-4.71Z" style="fill:#ebebeb"></path><path d="M236.55,40.25c-.27,1.67-.42,3.43-.64,5.1l-.45,5c-.27,3.33-.39,6.67-.61,10-.07,3.34-.24,6.68-.24,10,0,1.93,0,3.86,0,5.79H204.84a41.22,41.22,0,0,0,1.42-4.42,41.46,41.46,0,0,0,1.07-4.47,80.45,80.45,0,0,0,1.26-9,81.58,81.58,0,0,0,.31-9c0-1.5-.09-3-.18-4.49s-.25-3.08-.45-4.58Z" style="fill:#ebebeb"></path><path d="M265.35,76.15c0-1.93,0-3.86,0-5.79,0-3.33-.17-6.67-.24-10s-.34-6.67-.61-10l-.45-5c-.22-1.67-.37-3.43-.64-5.1h28.28c-.2,1.5-.32,3.09-.45,4.58s-.16,3-.18,4.49a81.58,81.58,0,0,0,.31,9,80.45,80.45,0,0,0,1.26,9,41.46,41.46,0,0,0,1.07,4.47,41.22,41.22,0,0,0,1.42,4.42Z" style="fill:#ebebeb"></path><path d="M326.2,76.15v0l0,0a37.11,37.11,0,0,1-4.61-8.73c-.57-1.47-1.06-3-1.51-4.45s-.83-3-1.18-4.49c-.79-3-1.15-6-1.68-9l-.56-4.53c-.14-1.5-.27-3.1-.47-4.62h24.69c-.09,1.53-.16,3.17-.14,4.71l.16,2.31a18,18,0,0,0,.27,2.31l.38,2.31c.14.77.38,1.53.58,2.3a46.7,46.7,0,0,0,1.48,4.57,46.83,46.83,0,0,0,4.76,9,40.87,40.87,0,0,0,3.36,4.34,37,37,0,0,0,4.12,4.08Z" style="fill:#ebebeb"></path><path d="M386.88,76.15v0l-.06-.06c-1.66-1.33-3.21-2.7-4.67-4.1s-2.73-2.83-4-4.27a59.21,59.21,0,0,1-6.45-8.83,21.11,21.11,0,0,1-1.26-2.26c-.38-.76-.83-1.51-1.16-2.28-.61-1.53-1.33-3.06-1.8-4.61a46.24,46.24,0,0,1-2-9.45h25.72a27.53,27.53,0,0,0,2.2,9.63,44.65,44.65,0,0,0,5.42,9.24A71.36,71.36,0,0,0,406.62,68c1.46,1.44,3.05,2.84,4.73,4.22s3.28,2.69,5.14,4Z" style="fill:#ebebeb"></path><rect x="52.77" y="76.15" width="394.46" height="11.69" style="fill:#FFC727"></rect><polygon points="113.43 87.83 83.09 87.83 83.54 76.15 112.98 76.15 113.43 87.83" style="fill:#ebebeb"></polygon><polygon points="174.12 87.83 143.78 87.83 144.23 76.15 173.67 76.15 174.12 87.83" style="fill:#ebebeb"></polygon><polygon points="234.81 87.83 204.47 87.83 204.92 76.15 234.36 76.15 234.81 87.83" style="fill:#ebebeb"></polygon><polygon points="295.5 87.83 265.15 87.83 265.61 76.15 295.05 76.15 295.5 87.83" style="fill:#ebebeb"></polygon><path d="M355.73,76.15H326.29l-.45,11.68h30.35Zm.09,9.89h.05l0,.1s0,0,0,0Z" style="fill:#ebebeb"></path><path d="M355.87,86l0,.1s0,0,0,0l-.05-.06Z" style="fill:#FFC727"></path><path d="M416.42,76.15H387l-.45,11.68h30.34Zm.07,9.89h.08l.05.11a.12.12,0,0,1-.05-.05Z" style="fill:#ebebeb"></path><path d="M416.57,86l.05.11a.12.12,0,0,1-.05-.05l-.08-.06Z" style="fill:#FFC727"></path><g style="opacity:0.1"><path d="M108.84,40.25a27.53,27.53,0,0,1-2.2,9.63,44.65,44.65,0,0,1-5.42,9.24A71.36,71.36,0,0,1,93.38,68c-1.46,1.44-3,2.84-4.73,4.22s-3.28,2.69-5.14,4l-.08,0-.05,0,.05-.09h-.65v0l.06-.06a106.71,106.71,0,0,0,9.24-8.41,94.21,94.21,0,0,0,7.64-8.78,58.87,58.87,0,0,0,5.76-9.11l1.1-2.32c.35-.77.56-1.57.89-2.35A41.92,41.92,0,0,0,108.84,40.25Z"></path><path d="M133.71,49.78a34.88,34.88,0,0,1-3.87,9.28A48.38,48.38,0,0,1,123.18,68a57.51,57.51,0,0,1-9.34,8.18.09.09,0,0,1,0,0l0,0,0-.06h-.67v0l.06-.06c1.66-1.33,3.21-2.7,4.67-4.1s2.73-2.83,4-4.27a59.21,59.21,0,0,0,6.45-8.83,21.11,21.11,0,0,0,1.26-2.26c.38-.76.83-1.51,1.16-2.28.61-1.53,1.33-3.06,1.8-4.61a46.24,46.24,0,0,0,2-9.45A29.6,29.6,0,0,1,133.71,49.78Z"></path><path d="M236.75,50.36c0,3.34-.17,6.67-.24,10s-.34,6.67-.63,10c-.16,1.92-.33,3.85-.54,5.77h-.69c0-1.93-.05-3.86,0-5.79,0-3.33.17-6.67.24-10,.22-3.33.34-6.67.61-10l.45-5c.22-1.67.37-3.43.64-5.1.11,1.67.11,3.44.18,5.11Z"></path><path d="M265.39,70.36c0,1.93,0,3.86,0,5.79h-.69c-.21-1.92-.38-3.85-.54-5.77-.29-3.34-.41-6.67-.63-10s-.22-6.67-.24-10l0-5c.07-1.67.07-3.44.18-5.11.27,1.67.42,3.43.64,5.1l.45,5c.27,3.33.39,6.67.61,10S265.39,67,265.39,70.36Z"></path><path d="M208.59,58.3a80.45,80.45,0,0,1-1.26,9,41.46,41.46,0,0,1-1.07,4.47,41.22,41.22,0,0,1-1.42,4.42h-.71v0c.8-3,1.25-5.93,1.75-8.91s.76-6,1.12-8.94.47-6,.73-8.94l.54-9.07c.2,1.5.32,3.09.45,4.58s.16,3,.18,4.49A81.58,81.58,0,0,1,208.59,58.3Z"></path><path d="M184.09,44.88c0,1.52-.06,3-.11,4.55a57.52,57.52,0,0,1-1.26,9.07,47.17,47.17,0,0,1-2.88,9,34.72,34.72,0,0,1-2.25,4.42,24,24,0,0,1-3.09,4.24s0,0,0,0h0l0,0h-.68v-.07a36.47,36.47,0,0,0,4.63-8.73c.57-1.47,1.06-3,1.51-4.45s.83-3,1.18-4.49c.79-3,1.15-6,1.68-9l.56-4.53c.14-1.5.27-3.1.47-4.62C184,41.77,184,43.37,184.09,44.88Z"></path><path d="M159.29,45l-.16,2.31a18,18,0,0,1-.27,2.31l-.38,2.31c-.14.77-.38,1.53-.58,2.3a46.7,46.7,0,0,1-1.48,4.57,46.83,46.83,0,0,1-4.76,9,40.87,40.87,0,0,1-3.36,4.34,37,37,0,0,1-4.12,4.08s0,0-.05,0l0,0,0-.08h-.67v0l0,0a46.56,46.56,0,0,0,6.78-8.55,59.6,59.6,0,0,0,4.58-8.9,63,63,0,0,0,2.84-9.08c.43-1.52.54-3.05.86-4.58s.35-3.17.6-4.7C159.24,41.78,159.31,43.42,159.29,45Z"></path><path d="M417.22,76.15h-.65l.05.09-.05,0-.08,0c-1.86-1.29-3.52-2.63-5.14-4s-3.27-2.78-4.73-4.22a71.36,71.36,0,0,1-7.84-8.83,44.65,44.65,0,0,1-5.42-9.24,27.53,27.53,0,0,1-2.2-9.63,41.92,41.92,0,0,0,1.37,4.83c.33.78.54,1.58.89,2.35l1.1,2.32a58.87,58.87,0,0,0,5.76,9.11,94.21,94.21,0,0,0,7.64,8.78,106.71,106.71,0,0,0,9.24,8.41l.06.06Z"></path><path d="M386.88,76.15h-.67l0,.06,0,0a.09.09,0,0,1,0,0A57.51,57.51,0,0,1,376.82,68a48.38,48.38,0,0,1-6.66-8.91,34.88,34.88,0,0,1-3.87-9.28,29.6,29.6,0,0,1-.85-9.53,46.24,46.24,0,0,0,2,9.45c.47,1.55,1.19,3.08,1.8,4.61.33.77.78,1.52,1.16,2.28a21.11,21.11,0,0,0,1.26,2.26,59.21,59.21,0,0,0,6.45,8.83c1.28,1.44,2.6,2.87,4,4.27s3,2.77,4.67,4.1l.06.06Z"></path><path d="M295.87,76.11v0h-.71a41.22,41.22,0,0,1-1.42-4.42,41.46,41.46,0,0,1-1.07-4.47,80.45,80.45,0,0,1-1.26-9,81.58,81.58,0,0,1-.31-9c0-1.5.09-3,.18-4.49s.25-3.08.45-4.58l.54,9.07c.26,3,.38,6,.73,8.94s.61,6,1.12,8.94S295.07,73.16,295.87,76.11Z"></path><path d="M326.2,76.15h-.68l0,0h0s0,0,0,0a24,24,0,0,1-3.09-4.24,34.72,34.72,0,0,1-2.25-4.42,47.17,47.17,0,0,1-2.88-9A57.52,57.52,0,0,1,316,49.43c0-1.52-.11-3-.11-4.55s.13-3.11.25-4.63c.2,1.52.33,3.12.47,4.62l.56,4.53c.53,3,.89,6,1.68,9,.35,1.5.78,3,1.18,4.49s.94,3,1.51,4.45a37.11,37.11,0,0,0,4.61,8.73l0,0Z"></path><path d="M356.54,76.15h-.67l0,.08,0,0s0,0-.05,0a37,37,0,0,1-4.12-4.08,40.87,40.87,0,0,1-3.36-4.34,46.83,46.83,0,0,1-4.76-9,46.7,46.7,0,0,1-1.48-4.57c-.2-.77-.44-1.53-.58-2.3l-.38-2.31a18,18,0,0,1-.27-2.31L340.71,45c0-1.54.05-3.18.14-4.71.25,1.53.34,3.17.6,4.7s.43,3.06.86,4.58a63,63,0,0,0,2.84,9.08,59.6,59.6,0,0,0,4.58,8.9,46.56,46.56,0,0,0,6.78,8.55l0,0Z"></path></g><g style="opacity:0.1"><path d="M325.52,86l0,.08s0,0,0-.05l0,0Z"></path><path d="M355.91,86.14s0,0,0,0l-.05-.06h.05Z"></path><path d="M386.21,86l.07.11a.46.46,0,0,0-.07-.07l0,0Z"></path><path d="M416.62,86.15a.12.12,0,0,1-.05-.05l-.08-.06h.08Z"></path><polygon points="83.54 76.15 83.09 87.83 82.64 76.15 83.54 76.15"></polygon><polygon points="113.88 76.15 113.43 87.83 112.98 76.15 113.88 76.15"></polygon><polygon points="144.23 76.15 143.78 87.83 143.33 76.15 144.23 76.15"></polygon><polygon points="174.57 76.15 174.12 87.83 173.67 76.15 174.57 76.15"></polygon><polygon points="204.92 76.15 204.47 87.83 204.01 76.15 204.92 76.15"></polygon><polygon points="235.26 76.15 234.81 87.83 234.36 76.15 235.26 76.15"></polygon><polygon points="265.61 76.15 265.15 87.83 264.7 76.15 265.61 76.15"></polygon><polygon points="295.95 76.15 295.5 87.83 295.05 76.15 295.95 76.15"></polygon><polygon points="326.29 76.15 325.84 87.83 325.39 76.15 326.29 76.15"></polygon><polygon points="356.64 76.15 356.19 87.83 355.73 76.15 356.64 76.15"></polygon><polygon points="386.98 76.15 386.53 87.83 386.08 76.15 386.98 76.15"></polygon><polygon points="417.33 76.15 416.87 87.83 416.42 76.15 417.33 76.15"></polygon></g><g style="opacity:0.1"><rect x="52.77" y="76.15" width="394.46" height="11.69"></rect></g></g><g id="freepik--Shoes--inject-21"><rect x="87.87" y="129.91" width="77.72" height="6.86" style="fill:#c7c7c7"></rect><rect x="87.87" y="194.89" width="77.72" height="6.86" style="fill:#c7c7c7"></rect><rect x="87.87" y="259.86" width="77.72" height="6.86" style="fill:#c7c7c7"></rect><rect x="87.87" y="324.84" width="77.72" height="6.86" style="fill:#c7c7c7"></rect><rect x="87.87" y="194.9" width="77.72" height="6.86" style="fill:#c7c7c7"></rect><path d="M156.38,129.61c-1.84.6-54.26.75-56.25-.52-.76-.49-1.47-9.1-.69-18l33.79.28s19.35,9.12,21.38,10.76S158.21,129,156.38,129.61Z" style="fill:#455a64"></path><path d="M157.15,128.45a1.28,1.28,0,0,1-.77,1.16c-1.83.6-54.26.75-56.26-.53-.18-.11-.35-.69-.5-1.62h44.32a9.08,9.08,0,0,1,2.47-5.17,7.93,7.93,0,0,1,4.91-2.09,29.05,29.05,0,0,1,3.28,1.89,9,9,0,0,1,2.57,5.37A4,4,0,0,1,157.15,128.45Z" style="fill:#fff"></path><path d="M155.64,127.51c-8.78-.28-44.24-.58-52.94-.18-.07,0-.07,0,0,0,8.7.47,44.16.47,52.94.27C155.83,127.65,155.83,127.51,155.64,127.51Z" style="fill:#263238"></path><path d="M151.25,120.19A7,7,0,0,0,146,122.3a6.86,6.86,0,0,0-2,4.67s.1.06.11,0a8.16,8.16,0,0,1,7.16-6.67C151.32,120.29,151.32,120.19,151.25,120.19Z" style="fill:#263238"></path><path d="M136,112.24c-3.52-.07-7.6,1.14-9.81,4-.08.11.07.23.18.18a48.47,48.47,0,0,1,9.69-3.75A.22.22,0,0,0,136,112.24Z" style="fill:#263238"></path><path d="M138.69,113.32c-3.52-.07-7.61,1.14-9.81,4-.09.11.07.23.18.17a49.2,49.2,0,0,1,9.68-3.74A.22.22,0,0,0,138.69,113.32Z" style="fill:#263238"></path><path d="M141.39,114.4c-3.51-.08-7.6,1.14-9.81,4-.08.11.08.23.18.17a49.05,49.05,0,0,1,9.69-3.74A.22.22,0,0,0,141.39,114.4Z" style="fill:#263238"></path><path d="M144.1,115.47c-3.52-.07-7.6,1.14-9.81,4-.08.11.07.23.18.18a47.84,47.84,0,0,1,9.69-3.74A.23.23,0,0,0,144.1,115.47Z" style="fill:#263238"></path><path d="M105,117.49c-4,0-4,6.12,0,6.13S109,117.51,105,117.49Z" style="fill:#fff"></path><path d="M139.85,102.89c-1.77-1.49-4-.07-5.13,1.46a18.51,18.51,0,0,0-3,7c-.08.35-.14.7-.19,1,0,.16,0,.31,0,.45s0,0,0,0a.23.23,0,0,1,0,.12c0,.12,0,.23,0,.35a.11.11,0,0,0,.12.11.44.44,0,0,0,.35.34.34.34,0,0,0,.27-.05c.69-.47,1.42-.94,2.15-1.41l.39-.25a19.2,19.2,0,0,0,4.8-4C140.65,106.62,141.52,104.29,139.85,102.89Zm-4.37,7.44-1.77,1.23c-.51.35-1,.72-1.52,1.09l-.18.13a1.24,1.24,0,0,1-.18.14,1.59,1.59,0,0,1,.07-.2s0,0,0,0c.16-.46.33-.92.49-1.37a30.41,30.41,0,0,1,1.45-3.6,19.27,19.27,0,0,1,1.29-2.36c.77-1.16,4.25-4.08,4.57-.25C139.89,107.24,136.93,109.28,135.48,110.33Z" style="fill:#263238"></path><path d="M132.21,113.11a.09.09,0,0,0,0-.14l-.22-.19s0-.06-.08-.07,0,0,0,0a3.68,3.68,0,0,0-.37-.32,14.14,14.14,0,0,0-1.44-1.07,17.94,17.94,0,0,0-6.36-2.72c-1.84-.38-4.46.1-4.75,2.4a1.85,1.85,0,0,0,0,.23c-.11,2,2,3.07,3.73,3.34a17.46,17.46,0,0,0,5.44-.17c1.27-.2,2.54-.44,3.77-.63h0A.43.43,0,0,0,132.21,113.11Zm-5,.39c-1.78.21-5.35.72-6.65-1a2.87,2.87,0,0,1-.65-1.31c-.27-1.78,3-1.88,4.17-1.61a19.24,19.24,0,0,1,2.56.86c.62.25,1.23.52,1.83.82,1,.48,2,1,3,1.53a0,0,0,0,1,0,0,.87.87,0,0,1,.19.1l-.22,0a4.23,4.23,0,0,0-.5.05C129.72,113.15,128.49,113.35,127.25,113.5Z" style="fill:#263238"></path><path d="M156.38,259.31c-1.84.6-54.26.76-56.25-.52-.76-.48-1.47-9.09-.69-18l33.79.28s19.35,9.12,21.38,10.75S158.21,258.71,156.38,259.31Z" style="fill:#FFC727"></path><path d="M155.64,257.21c-8.78-.28-44.23-.57-52.94-.18-.07,0-.07.05,0,.06,8.7.46,44.16.47,52.94.27C155.83,257.35,155.83,257.22,155.64,257.21Z" style="fill:#263238"></path><path d="M151.25,249.89A7.08,7.08,0,0,0,146,252a6.85,6.85,0,0,0-2,4.68c0,.05.09.05.1,0a8.17,8.17,0,0,1,7.16-6.68C151.32,250,151.32,249.9,151.25,249.89Z" style="fill:#263238"></path><path d="M136,242c-3.52-.08-7.6,1.14-9.81,4-.08.11.08.23.18.17a49.05,49.05,0,0,1,9.69-3.74A.22.22,0,0,0,136,242Z" style="fill:#263238"></path><path d="M138.69,243c-3.52-.08-7.61,1.13-9.81,4-.09.11.07.23.18.18a49.2,49.2,0,0,1,9.68-3.74A.22.22,0,0,0,138.69,243Z" style="fill:#263238"></path><path d="M141.39,244.1c-3.51-.07-7.6,1.14-9.8,4-.09.11.07.23.17.18a47.84,47.84,0,0,1,9.69-3.74A.22.22,0,0,0,141.39,244.1Z" style="fill:#263238"></path><path d="M144.1,245.18c-3.52-.07-7.6,1.14-9.81,4-.08.11.08.23.18.18a48.47,48.47,0,0,1,9.69-3.75A.22.22,0,0,0,144.1,245.18Z" style="fill:#263238"></path><path d="M105,248.7c-4,0-4,6.12,0,6.14S109,248.72,105,248.7Z" style="fill:#263238"></path><path d="M139.85,232.59c-1.77-1.49-4-.06-5.13,1.46a18.63,18.63,0,0,0-3,7,9.6,9.6,0,0,0-.18,1.05l-.06.44s0,0,0,0v.12c0,.13,0,.25,0,.37a.09.09,0,0,0,.12.09.44.44,0,0,0,.35.34.34.34,0,0,0,.27-.05c.7-.47,1.42-.94,2.15-1.41l.38-.23a18.9,18.9,0,0,0,4.81-4C140.65,236.32,141.52,234,139.85,232.59ZM135.48,240l-1.77,1.24-1.49,1.07a1.75,1.75,0,0,0-.2.16l-.19.14.07-.21v0c.16-.46.33-.9.48-1.36a34.94,34.94,0,0,1,1.46-3.61,20.71,20.71,0,0,1,1.29-2.36c.78-1.15,4.25-4.06,4.57-.23C139.89,236.94,136.93,239,135.48,240Z" style="fill:#263238"></path><path d="M132.22,242.83a.12.12,0,0,0,0-.16,1,1,0,0,0-.21-.17.25.25,0,0,0-.09-.09s0,0,0,0a2,2,0,0,0-.36-.31,12.3,12.3,0,0,0-1.43-1.06,18.25,18.25,0,0,0-6.37-2.74c-1.85-.37-4.47.11-4.76,2.4a1.93,1.93,0,0,0,0,.24c-.1,2,2,3.06,3.73,3.34a17.59,17.59,0,0,0,5.46-.18c1.26-.2,2.52-.44,3.75-.63h0A.43.43,0,0,0,132.22,242.83Zm-5,.37c-1.78.22-5.35.72-6.65-.95A2.89,2.89,0,0,1,120,241c-.27-1.79,3-1.88,4.17-1.61a20.71,20.71,0,0,1,2.56.84c.64.25,1.25.53,1.86.84,1,.48,2,1,3,1.51h0l.19.1-.2,0a4.57,4.57,0,0,0-.52.05C129.73,242.85,128.49,243.05,127.25,243.2Z" style="fill:#263238"></path><path d="M156.38,325.66c-1.84.6-54.26.76-56.25-.52-.76-.48-1.47-18-.69-27l33.79.28s.23,9.05.64,9.25c3.37,1.59,18.93,9,20.74,10.45C156.63,319.78,158.21,325.06,156.38,325.66Z" style="fill:#455a64"></path><path d="M155.64,323.56c-8.78-.28-44.23-.57-52.94-.18-.07,0-.07.05,0,.05,8.7.47,44.16.48,52.94.27C155.83,323.7,155.83,323.57,155.64,323.56Z" style="fill:#263238"></path><path d="M151.25,316.24a7.08,7.08,0,0,0-5.27,2.11,6.81,6.81,0,0,0-2,4.67c0,.06.09.06.1,0a8.16,8.16,0,0,1,7.16-6.67A.06.06,0,0,0,151.25,316.24Z" style="fill:#263238"></path><path d="M134.46,301.74c-3.24-1.38-7.48-1.78-10.59.06-.12.07,0,.24.1.23a48.68,48.68,0,0,1,10.38.13A.22.22,0,0,0,134.46,301.74Z" style="fill:#263238"></path><path d="M134.8,304.54c-3.23-1.38-7.48-1.78-10.59.06-.12.07,0,.24.1.23a48,48,0,0,1,10.38.13A.22.22,0,0,0,134.8,304.54Z" style="fill:#263238"></path><path d="M135.14,307.33c-3.23-1.37-7.47-1.77-10.59.06-.12.07,0,.24.1.23a48.78,48.78,0,0,1,10.39.14A.22.22,0,0,0,135.14,307.33Z" style="fill:#263238"></path><path d="M106.43,298.59c.15,1.87.23,3.73.29,5.59s.07,3.73.08,5.59,0,3.73-.08,5.59-.13,3.73-.29,5.59c-.16-1.86-.23-3.73-.29-5.59s-.08-3.73-.09-5.59,0-3.73.09-5.59S106.27,300.46,106.43,298.59Z" style="fill:#263238"></path><path d="M156.38,194.81c-1.84.6-54.26.75-56.25-.52-.76-.48-1.47-30.6-.69-39.53l33.79.28s.23,21.61.64,21.8c3.37,1.6,18.93,9,20.74,10.46C156.63,188.93,158.21,194.21,156.38,194.81Z" style="fill:#FFC727"></path><path d="M156.38,194.81c-1.84.6-54.26.75-56.25-.52-.76-.48-1.47-30.6-.69-39.53l33.79.28s.23,21.61.64,21.8c3.37,1.6,18.93,9,20.74,10.46C156.63,188.93,158.21,194.21,156.38,194.81Z" style="opacity:0.2"></path><path d="M155.64,192.71c-8.78-.28-44.23-.57-52.94-.18-.07,0-.07.05,0,.05,8.7.47,44.16.48,52.94.27C155.83,192.85,155.83,192.71,155.64,192.71Z" style="fill:#263238"></path><path d="M151.25,185.39A7,7,0,0,0,146,187.5a6.81,6.81,0,0,0-2,4.67c0,.05.09.06.1,0a8.16,8.16,0,0,1,7.16-6.67C151.32,185.49,151.32,185.39,151.25,185.39Z" style="fill:#263238"></path><path d="M134.38,171.05c-3.19-1.47-7.42-2-10.59-.25-.12.07,0,.24.09.23a48.1,48.1,0,0,1,10.38.44A.22.22,0,0,0,134.38,171.05Z" style="fill:#263238"></path><path d="M134.64,173.85c-3.19-1.47-7.42-2-10.59-.25-.12.07,0,.25.1.24a48.65,48.65,0,0,1,10.37.43A.22.22,0,0,0,134.64,173.85Z" style="fill:#263238"></path><path d="M134.14,168.24c-3.19-1.47-7.42-2-10.59-.25-.12.07,0,.24.1.24a48.65,48.65,0,0,1,10.37.43A.22.22,0,0,0,134.14,168.24Z" style="fill:#263238"></path><path d="M133.89,165.44c-3.19-1.47-7.42-2-10.59-.25-.12.07,0,.24.09.23a48.1,48.1,0,0,1,10.38.44A.22.22,0,0,0,133.89,165.44Z" style="fill:#263238"></path><path d="M133.64,162.63c-3.19-1.47-7.42-2-10.59-.25-.12.07,0,.24.09.24a48.74,48.74,0,0,1,10.38.43A.22.22,0,0,0,133.64,162.63Z" style="fill:#263238"></path><path d="M133.39,159.82c-3.2-1.47-7.42-2-10.59-.24-.12.06,0,.24.09.23a48.1,48.1,0,0,1,10.38.44A.23.23,0,0,0,133.39,159.82Z" style="fill:#263238"></path><path d="M134.9,176.66c-3.19-1.47-7.42-2-10.58-.25-.13.07,0,.24.09.23a49.29,49.29,0,0,1,10.37.44A.22.22,0,0,0,134.9,176.66Z" style="fill:#263238"></path><path d="M106.43,154.81c.15,2.95.23,5.89.29,8.83s0,5.88.08,8.82,0,5.88-.08,8.82-.13,5.88-.29,8.82c-.16-2.94-.23-5.88-.29-8.82s-.06-5.88-.09-8.82,0-5.88.09-8.82S106.27,157.76,106.43,154.81Z" style="fill:#263238"></path></g><g id="freepik--Floor--inject-21"><polygon points="42.29 412.84 94.21 412.6 146.14 412.51 250 412.35 353.86 412.51 405.79 412.6 457.71 412.84 405.79 413.09 353.86 413.18 250 413.34 146.14 413.18 94.21 413.09 42.29 412.84" style="fill:#263238"></polygon><rect x="48.87" y="407.18" width="402.27" height="5.83" style="fill:#c7c7c7"></rect><path d="M77.07,407.18a8.46,8.46,0,0,1,.48,2.91,8.25,8.25,0,0,1-.48,2.92,8,8,0,0,1-.48-2.92A8.23,8.23,0,0,1,77.07,407.18Z" style="fill:#263238"></path><path d="M108.51,407.18a9.09,9.09,0,0,1,0,5.83,9.09,9.09,0,0,1,0-5.83Z" style="fill:#263238"></path><path d="M140,407.18a8.23,8.23,0,0,1,.48,2.91A8,8,0,0,1,140,413a9.09,9.09,0,0,1,0-5.83Z" style="fill:#263238"></path><path d="M171.39,407.18a9.09,9.09,0,0,1,0,5.83,9.27,9.27,0,0,1,0-5.83Z" style="fill:#263238"></path><path d="M202.84,407.18a8.21,8.21,0,0,1,.47,2.91,8,8,0,0,1-.47,2.92,9.09,9.09,0,0,1,0-5.83Z" style="fill:#263238"></path><path d="M234.28,407.18a9.09,9.09,0,0,1,0,5.83,8,8,0,0,1-.48-2.92A8.23,8.23,0,0,1,234.28,407.18Z" style="fill:#263238"></path><path d="M265.72,407.18a8.23,8.23,0,0,1,.48,2.91,8,8,0,0,1-.48,2.92,9.09,9.09,0,0,1,0-5.83Z" style="fill:#263238"></path><path d="M297.16,407.18a9.09,9.09,0,0,1,0,5.83,8,8,0,0,1-.47-2.92A8.21,8.21,0,0,1,297.16,407.18Z" style="fill:#263238"></path><path d="M328.61,407.18a9.27,9.27,0,0,1,0,5.83,9.09,9.09,0,0,1,0-5.83Z" style="fill:#263238"></path><path d="M360.05,407.18a9.09,9.09,0,0,1,0,5.83,8,8,0,0,1-.48-2.92A8.23,8.23,0,0,1,360.05,407.18Z" style="fill:#263238"></path><path d="M391.49,407.18a9.09,9.09,0,0,1,0,5.83,9.09,9.09,0,0,1,0-5.83Z" style="fill:#263238"></path><path d="M422.93,407.18a8.23,8.23,0,0,1,.48,2.91,8,8,0,0,1-.48,2.92,8.25,8.25,0,0,1-.48-2.92A8.46,8.46,0,0,1,422.93,407.18Z" style="fill:#263238"></path></g><g id="freepik--Character--inject-21"><path d="M231.15,394.43s-3,41.07-3,41.1c0,8,.06,15.1.46,18.74a.13.13,0,0,0,0,.06,5.62,5.62,0,0,0,.58,2.49l0,.05c2.39,1.63,66.67,3.83,68.93,3.15s.52-7.19-1.91-9.27-26.67-13.92-26.67-13.92l2.56-41.06Z" style="fill:#ad6359"></path><path d="M298.22,460c-2.27.68-66.54-1.52-68.93-3.16l0-.05a5.67,5.67,0,0,1-.58-2.48.13.13,0,0,1,0-.06c-.39-3.65-.5-10.7-.46-18.74,0,0,.51-7.13,1.11-15.44L270.56,422l-.92,14.81s24.22,11.85,26.66,13.92S300.49,459.35,298.22,460Z" style="fill:#ebebeb"></path><path d="M298.5,460.13c-2.31.68-67.58-1.13-70-2.8-.93-.63-1.14-22.51.18-33.6l42.05,1.64s-.06,11.28.44,11.53c4.13,2.12,23.23,11.93,25.43,13.81C299,452.82,300.81,459.45,298.5,460.13Z" style="fill:#FFC727"></path><path d="M297.66,457.48c-10.92-.68-55.05-2.4-65.9-2.24-.09,0-.09.06,0,.07,10.81.91,54.95,2.27,65.9,2.35C297.89,457.67,297.89,457.5,297.66,457.48Z" style="fill:#263238"></path><path d="M292.48,448.2a8.8,8.8,0,0,0-6.64,2.43,8.49,8.49,0,0,0-2.67,5.74c0,.07.12.07.13,0a10.16,10.16,0,0,1,9.17-8A.07.07,0,0,0,292.48,448.2Z" style="fill:#263238"></path><path d="M273.77,437.73c-4.38-.23-9.51,1.13-12.37,4.6-.11.14.09.29.22.23a60.32,60.32,0,0,1,12.2-4.29A.27.27,0,0,0,273.77,437.73Z" style="fill:#263238"></path><path d="M277.09,439.17c-4.37-.22-9.5,1.13-12.36,4.61-.11.13.08.29.22.23a60.32,60.32,0,0,1,12.2-4.29A.28.28,0,0,0,277.09,439.17Z" style="fill:#263238"></path><path d="M280.42,440.62c-4.37-.23-9.5,1.13-12.36,4.6-.11.14.08.29.22.23a60.32,60.32,0,0,1,12.2-4.29A.27.27,0,0,0,280.42,440.62Z" style="fill:#263238"></path><path d="M283.75,442.06c-4.37-.22-9.5,1.13-12.36,4.61-.11.13.08.29.21.23a60.62,60.62,0,0,1,12.21-4.29A.28.28,0,0,0,283.75,442.06Z" style="fill:#263238"></path><path d="M235.46,428c-4.91-.17-5.19,7.47-.27,7.64S240.38,428.21,235.46,428Z" style="fill:#263238"></path><path d="M278.93,426.23c-2.14-1.92-5-.24-6.43,1.62a19.46,19.46,0,0,0-1.77,2.76,23.27,23.27,0,0,0-2.47,7.13,3.43,3.43,0,0,0-.08.56.21.21,0,0,0,0,.15c0,.16-.05.31-.07.45a.12.12,0,0,0,.14.12.57.57,0,0,0,.43.44.43.43,0,0,0,.34,0c.88-.56,1.8-1.11,2.73-1.67l.49-.29a24,24,0,0,0,6.12-4.82C279.8,430.9,281,428,278.93,426.23Zm-5.71,9.1-2.15,1.39c-.69.45-1.37.9-2,1.38a1.5,1.5,0,0,0-.23.15c-.07.06-.16.11-.24.17,0-.09.07-.16.1-.25v0c.69-1.71,1.31-3.45,2.12-5.1.14-.34.32-.67.49-1a23.27,23.27,0,0,1,1.7-2.89c1-1.4,5.45-4.91,5.69-.13C278.82,431.65,275.06,434.09,273.22,435.33Z" style="fill:#263238"></path><path d="M269.05,438.68a.13.13,0,0,0,0-.19l-.26-.24-.08-.09s0,0-.05,0l-.42-.39a23.19,23.19,0,0,0-9.58-5c-2.29-.54-5.56,0-6,2.8s2.29,4.17,4.5,4.59a21.41,21.41,0,0,0,6.78,0c1.59-.2,3.18-.46,4.72-.65h0A.53.53,0,0,0,269.05,438.68Zm-6.22.28c-2.2.21-6.66.69-8.22-1.44-2.81-3.88,2.83-4,4.49-3.51a25.49,25.49,0,0,1,3.16,1.17,61.76,61.76,0,0,1,5.91,3.12h0l.22.13-.24,0-.66,0C266,438.62,264.4,438.82,262.83,439Z" style="fill:#263238"></path><path d="M228.11,417.71l45.95,1.89s2.13-64.15,1.11-91.15c-1.11-29.31-13.71-116.55-13.71-116.55h-38s9.71,87.58,9.91,116.91C233.58,356,228.11,417.71,228.11,417.71Z" style="fill:#37474f"></path><path d="M254,211.9l-22.83,79c-2.7-37.37-7.7-79-7.7-79Z" style="fill:#263238"></path><path d="M230.68,216.2l2.41,26,2.24,26.06c1.43,17.37,2.79,34.75,3.82,52.17.25,4.35.41,8.72.34,13.1s-.26,8.72-.48,13.08q-.67,13.07-1.68,26.1c-.66,8.7-3.09,34.3-3.09,34.3s1.76-25.65,2.33-34.35,1.13-17.39,1.54-26.1c.2-4.35.36-8.7.44-13.05s-.12-8.68-.39-13c-.95-17.4-2.32-34.78-3.59-52.16Z" style="fill:#263238"></path><path d="M272.63,411c-7-.47-5-.44-12-.83-3.44-.2-26-1.46-29.22-1.08a.08.08,0,0,0,0,.15c3.18.68,25.76,1.54,29.19,1.67,7,.26,5,.11,12,.3A.11.11,0,0,0,272.63,411Z" style="fill:#263238"></path><path d="M158.14,371.14l-21,35.47c-3.62,7.18-6.67,13.55-7.94,17a.14.14,0,0,0,0,.06,5.71,5.71,0,0,0-.59,2.49s0,.05,0,.06c1.41,2.53,58,33.14,60.3,33.54s3.67-6.21,2.42-9.15-17.67-24.34-17.67-24.34l20.59-35.62Z" style="fill:#ad6359"></path><path d="M189,459.75c-2.33-.41-58.89-31-60.3-33.55a.64.64,0,0,1,0-.07,5.7,5.7,0,0,1,.59-2.48.43.43,0,0,1,0,0c1.28-3.44,4.33-9.81,7.94-17l7.88-13.32,36.07,20.11-7.42,12.85s16.4,21.4,17.67,24.34S191.28,460.16,189,459.75Z" style="fill:#ebebeb"></path><path d="M189.16,460c-2.37-.43-60-31.13-61.43-33.71-.55-1,9-20.66,15.13-30l36.92,20.21S174.7,426.54,175,427c2.75,3.74,15.47,21,16.6,23.69C192.9,453.67,191.53,460.39,189.16,460Z" style="fill:#FFC727"></path><path d="M189.59,457.23c-9.48-5.48-48.21-26.69-58-31.38-.08,0-.11,0,0,.06,9.27,5.63,48.18,26.52,57.94,31.47C189.71,457.49,189.79,457.34,189.59,457.23Z" style="fill:#263238"></path><path d="M189.08,446.61a8.75,8.75,0,0,0-7-.79,8.52,8.52,0,0,0-4.95,3.95c0,.06.08.12.12.07A10.15,10.15,0,0,1,189,446.73.07.07,0,0,0,189.08,446.61Z" style="fill:#263238"></path><path d="M177,428.89c-3.82-2.15-9-3.23-13.12-1.39-.16.08,0,.3.09.3a61.06,61.06,0,0,1,12.84,1.6A.28.28,0,0,0,177,428.89Z" style="fill:#263238"></path><path d="M179.34,431.67c-3.82-2.15-9-3.23-13.12-1.39-.16.07-.06.3.09.3a60.39,60.39,0,0,1,12.83,1.6A.28.28,0,0,0,179.34,431.67Z" style="fill:#263238"></path><path d="M181.67,434.45c-3.81-2.16-9-3.23-13.12-1.39-.16.07-.05.29.09.3a59.77,59.77,0,0,1,12.84,1.6A.27.27,0,0,0,181.67,434.45Z" style="fill:#263238"></path><path d="M184,437.22c-3.82-2.15-9-3.22-13.12-1.38-.16.07-.06.29.09.3a60.47,60.47,0,0,1,12.84,1.59A.28.28,0,0,0,184,437.22Z" style="fill:#263238"></path><path d="M147,403.14c-4.32-2.34-8,4.37-3.64,6.72S151.35,405.49,147,403.14Z" style="fill:#263238"></path><path d="M186.74,420.9c-1.05-2.67-4.36-2.44-6.47-1.41a18.38,18.38,0,0,0-2.82,1.68,23.43,23.43,0,0,0-5.38,5.27,3.73,3.73,0,0,0-.33.48.18.18,0,0,0-.08.12c-.1.13-.18.25-.26.37a.11.11,0,0,0,.07.17.57.57,0,0,0,.19.59.4.4,0,0,0,.32.1l3.19-.28.57,0a24,24,0,0,0,7.63-1.59C185.44,425.47,187.77,423.43,186.74,420.9Zm-9.16,5.6-2.55.29c-.81.09-1.63.19-2.43.32l-.27,0-.29,0,.2-.17,0,0c1.37-1.23,2.71-2.51,4.17-3.63.28-.23.58-.45.88-.67a24.59,24.59,0,0,1,2.81-1.83c1.53-.81,7.07-2,5.16,2.42C184.24,425.7,179.78,426.21,177.58,426.5Z" style="fill:#263238"></path><path d="M172.35,427.64c.08,0,.13-.08.1-.16a1.85,1.85,0,0,0-.12-.33l0-.12s0,0,0,0c-.06-.19-.13-.37-.2-.55a23.21,23.21,0,0,0-6.34-8.76c-1.81-1.5-5-2.52-6.64-.17s.19,4.75,2,6.11a21.49,21.49,0,0,0,6.06,3c1.51.53,3.05,1,4.52,1.53h0A.54.54,0,0,0,172.35,427.64Zm-5.69-2.52c-2.06-.79-6.27-2.35-6.72-4.95-.79-4.72,4.3-2.29,5.59-1.14a26.76,26.76,0,0,1,2.31,2.45,63.07,63.07,0,0,1,3.89,5.43h0a2.43,2.43,0,0,1,.14.2l-.22-.08-.61-.26C169.6,426.2,168.13,425.69,166.66,425.12Z" style="fill:#263238"></path><path d="M257.57,211.87v0c-.17.78-2.83,13.1-5.58,23.69-2,7.74-4.07,14.54-5.25,15.24-1.34.79-7.86,3.68-10.05,4.59,0,0-14.67,73.25-22.42,96-7.15,21-27.34,61-27.34,61L145.2,389.34s22.94-39.5,26.46-49.7c5.47-15.82,25.94-93,25.94-93s-.16-24.18,8-34.73Z" style="fill:#37474f"></path><path d="M188.72,402.86c-6.14-3.42-4.33-2.52-10.5-5.88-3-1.64-22.87-12.42-26-13.46-.06,0-.12.08-.06.13,2.58,2,22.62,12.4,25.67,14,6.23,3.24,4.48,2.24,10.75,5.41C188.74,403.11,188.83,402.93,188.72,402.86Z" style="fill:#263238"></path><path d="M208.61,239.87c1.17-.3,2.43-.39,3.63-.58,1-.16,1.93-.33,2.89-.54a12.8,12.8,0,0,0,5.1-2.14c1.66-1.3,2.5-3.26,3.3-5.14.48-1.12,1-2.23,1.47-3.34.24-.54.49-1.08.74-1.61a18.69,18.69,0,0,0,.9-1.93c0-.1.19-.05.15,0a13.79,13.79,0,0,0-.41,1.39l-.48,1.62c-.3,1-.59,1.93-.91,2.88a23.13,23.13,0,0,1-2,5c-1.78,2.83-4.94,4-8.11,4.36-.91.12-1.82.18-2.74.23a19,19,0,0,1-3.46,0A.16.16,0,0,1,208.61,239.87Z" style="fill:#263238"></path><path d="M250.22,249.11a85.66,85.66,0,0,0-13.46,6.26c-.16.1,0,.36.13.28,4.53-1.94,9.15-3.81,13.57-6A.3.3,0,0,0,250.22,249.11Z" style="fill:#263238"></path><path d="M251.58,218.07c0-.15-.29-.19-.29,0a148.24,148.24,0,0,1-.76,15.14c-.21,2.34-2.08,15.23-6.13,14.29-.68-.15-1-.82-1.13-1.84a15.8,15.8,0,0,1,.54-4c.45-2.7.81-5.41,1-8.13a74.11,74.11,0,0,0-.17-15.26.13.13,0,0,0-.26,0,140,140,0,0,1-1.23,21.07c-.51,3.35-2.2,8.4,1.31,8.92s5.89-7.94,6.32-10.25A77.2,77.2,0,0,0,251.58,218.07Z" style="fill:#263238"></path><path d="M244.51,247.83a21.54,21.54,0,0,0-.91,2.67,6,6,0,0,0-.38,2.2c0,.14.2.16.28.06a7.91,7.91,0,0,0,.94-2.14c.31-.82.63-1.64.92-2.48A.45.45,0,0,0,244.51,247.83Z" style="fill:#263238"></path><path d="M155.6,383.59c6.1-11.5,15.7-29.45,18.68-35.14a102,102,0,0,0,6.79-17.57q5.67-18.42,10.74-37t9.51-37.36c.75-3.13,1.57-6.25,2.17-9.41a28.83,28.83,0,0,0,0-9.63,31,31,0,0,1-.07-9,59.86,59.86,0,0,1,2.1-8.77c.48-1.51,1-3,1.51-4.5a.14.14,0,0,1,.26.08c-1.85,6-3.74,12.17-3.34,18.58.19,3.09,1,6.11.95,9.21a43.43,43.43,0,0,1-1.56,9.11q-4.37,18.85-9.4,37.57T183.3,327c-1.82,6-3.53,12.11-6.11,17.85s-12.37,23.32-18.94,34.55l-2.52,4.26C155.68,383.77,155.55,383.68,155.6,383.59Z" style="fill:#263238"></path><path d="M243.12,152.14c3.65,15.46,12.41,38.07,18.44,45,6.71,7.75,37.1.21,55.84-5,3.73-1-3.3-29.44-7.22-28.14-10.24,3.42-31.93,12-34,10.82-1.73-1-15-16.54-21.79-25.71C243.56,134.56,240.54,141.25,243.12,152.14Z" style="fill:#ad6359"></path><path d="M309.63,192.52c-3.3-.73-7.29-22.6-5-25.18a13.35,13.35,0,0,1,2.83-2h0a49.26,49.26,0,0,0,7.17-12.43c1.93-5.4,4.18-13.64,7.12-12.71,4.29,1.34,2.7,12.1,1.42,18.22,3.24-1,6.13-1.59,7.93-1.31,6,.93,5.23,28.23-.12,31.3C325.85,191.35,312.92,193.26,309.63,192.52Z" style="fill:#ad6359"></path><polygon points="372.29 240.49 316.94 251.81 313.49 193.78 352.69 185.76 372.29 240.49" style="fill:#455a64"></polygon><polygon points="352.69 185.76 358.07 243.4 372.29 240.49 352.69 185.76" style="fill:#37474f"></polygon><path d="M325.32,195.41h-1.8c0-.05,0-5,.12-10a9.37,9.37,0,0,1,9.09-9c3.28-.14,7.31,1.62,7.87,7,.59,5.79.71,8.55.71,8.67l-1.8.07s-.12-2.83-.71-8.56c-.42-4.15-3.37-5.52-6-5.41a7.56,7.56,0,0,0-7.35,7.24C325.35,190.43,325.32,195.36,325.32,195.41Z" style="fill:#263238"></path><path d="M358.73,242.81c1-1,2-2,3-3s2.08-1.93,3.15-2.87l.15-.13.17.09c1.08.51,2.16,1,3.22,1.57s2.12,1.1,3.16,1.7c-1.13-.4-2.24-.84-3.35-1.3s-2.19-.94-3.28-1.44l.32,0c-1.06,1-2.13,1.87-3.22,2.78S359.88,242,358.73,242.81Z" style="fill:#fff"></path><path d="M365.1,237.17c-1-3.55-1.89-7.11-2.79-10.67s-1.77-7.14-2.65-10.71-1.7-7.15-2.51-10.74l-1.2-5.38c-.38-1.8-.78-3.59-1.15-5.39.5,1.77,1,3.55,1.43,5.32l1.37,5.34c.91,3.57,1.76,7.14,2.65,10.71s1.69,7.15,2.5,10.74S364.37,233.56,365.1,237.17Z" style="fill:#fff"></path><path d="M326.77,194.92a2.4,2.4,0,1,1-2.83-1.87A2.4,2.4,0,0,1,326.77,194.92Z" style="fill:#263238"></path><path d="M342.58,191.69a2.4,2.4,0,1,1-2.83-1.87A2.4,2.4,0,0,1,342.58,191.69Z" style="fill:#263238"></path><polygon points="332.58 151.83 329.96 184.78 311.83 184.78 309.21 151.83 332.58 151.83" style="fill:#FFC727"></polygon><rect x="307.5" y="148.86" width="26.64" height="4.8" style="fill:#455a64"></rect><polygon points="332.31 148.86 309.32 148.86 310.67 143.46 330.97 143.46 332.31 148.86" style="fill:#37474f"></polygon><path d="M327.19,168.6c0,4.27-2.82,7.74-6.29,7.74s-6.3-3.47-6.3-7.74,2.82-7.75,6.3-7.75S327.19,164.32,327.19,168.6Z" style="fill:#fff"></path><path d="M321.61,157.49c-1.53,2.76,2.6,3,2.6,3s-6,1.1-6.5,4.56,4.54,3.42,4.9,3.43c-.32.06-5.82,1.22-5.95,4.74s4.91,2.9,5.23,2.85c-.28.15-4,2.22-3.46,4.92.89,4.63,10.47-.41,14.07.87,0,0-1.48,6.34-1.49,6.53,0,0,9.22-4.61,10.69-9.55a3.29,3.29,0,0,0-1.51-3.84s3.14-1.16,3.32-3.92c.09-1.43-2.1-2.84-2.1-2.84a4.14,4.14,0,0,0,2.49-3.5c0-2-2.19-3.08-2.19-3.08s1.92-2.09,1.28-4.11C341.71,153.46,324.89,151.59,321.61,157.49Z" style="fill:#ad6359"></path><path d="M341.39,161.42c.05,0,.08-.06,0-.08a29.35,29.35,0,0,0-17.44-.9c-.18.05-.17.37,0,.35A60.22,60.22,0,0,1,341.39,161.42Z" style="fill:#263238"></path><path d="M341.5,168.21c.06,0,.08-.09,0-.12a27.49,27.49,0,0,0-19.08.21c-.21.08-.31.38-.06.29C326.61,167.2,336.14,167.14,341.5,168.21Z" style="fill:#263238"></path><path d="M321.52,176.39c6-2.24,12.14-2.32,18.44-1.5.09,0,.09-.1,0-.13-3-1.24-7.05-1.35-10.22-1.16a17,17,0,0,0-8.33,2.57C321.34,176.24,321.39,176.43,321.52,176.39Z" style="fill:#263238"></path><path d="M324.12,160.41c-.22.06.11.31-.1.38-.91.29-6.23,2.51-6,4.56.16,1.64,2.48,2.56,3.5,2.57l2.59,0-2.44.88a10.58,10.58,0,0,0-3,1.65,3.76,3.76,0,0,0-1.59,2.65,2.16,2.16,0,0,0,1.47,2.29,6.54,6.54,0,0,0,3.27.15l3-.53-2.67,1.48a9.93,9.93,0,0,0-2,1.5,4.09,4.09,0,0,0-1.25,2,2,2,0,0,0,.68,1.94,4.25,4.25,0,0,0,2.33.59,34.21,34.21,0,0,0,5.29-.52c.89-.13,1.78-.26,2.68-.34a6.39,6.39,0,0,1,2.68.16,6.76,6.76,0,0,0-2.65.09c-.88.15-1.76.34-2.63.53a28.88,28.88,0,0,1-5.37.82,5.07,5.07,0,0,1-2.82-.62,2.76,2.76,0,0,1-1.11-2.82,5,5,0,0,1,1.48-2.54,10.73,10.73,0,0,1,2.25-1.7l.35.95a7.61,7.61,0,0,1-3.87-.14,3.15,3.15,0,0,1-1.66-1.32,3.61,3.61,0,0,1-.47-2,4.8,4.8,0,0,1,2-3.36,11.83,11.83,0,0,1,3.33-1.76l.15.9c-1.31-.05-4-.8-4.57-3.32C316.68,162.14,323,160.61,324.12,160.41Z" style="fill:#263238"></path><path d="M324.21,160.48a6.48,6.48,0,0,1-1.79-.76,1.48,1.48,0,0,1-.72-1.3,3,3,0,0,1,.74-1.52c.4-.49.85-1,1.33-1.48a5,5,0,0,0-1.83,1,2.94,2.94,0,0,0-1.12,2,2.1,2.1,0,0,0,.34,1.2,2.14,2.14,0,0,0,.94.74A3.35,3.35,0,0,0,324.21,160.48Z" style="fill:#263238"></path><path d="M304,165.13l8.06,32.22s-36.61,9.87-49.61,2.51c-5.36-3-17.4-35.6-20.49-47.08s.57-19,12.07-5.26,22.19,25.64,23.4,25.61S304,165.13,304,165.13Z" style="fill:#FFC727"></path><path d="M297.82,169.57a67.34,67.34,0,0,0,1.41,6.6c.53,2.27,1.13,4.52,1.72,6.78s3.24,11.18,3.9,13.41a.08.08,0,1,0,.15,0c-.52-2.28-2.59-11.28-3.18-13.48s-1.16-4.42-1.81-6.62a67.6,67.6,0,0,0-2.09-6.66C297.9,169.51,297.82,169.51,297.82,169.57Z" style="fill:#263238"></path><path d="M279,202.56c-6.55.17-12.6-.49-16.51-2.7-5.36-3-17.4-35.59-20.48-47.08-2-7.33-1.2-13.06,2.61-12.65Z" style="opacity:0.1"></path><path d="M239.51,138.92c-5.62-3-21.08-4.34-27.3-.16-7.86,5.27-15.1,35.82-11.89,37.63,5.72,3.22,25.52-14.53,29.84-21.81S239.51,138.92,239.51,138.92Z" style="fill:#FFC727"></path><path d="M239.51,138.92s-5,8.37-9.35,15.66-24.12,25-29.84,21.8c-2.52-1.42,1.44-20.7,7.08-31.39l29.16-7.24A15.75,15.75,0,0,1,239.51,138.92Z" style="opacity:0.1"></path><path d="M199.18,226.67c.17.18,64.4-.6,65-1.33a19.66,19.66,0,0,0,2.91-14.12c-4.29-21.85-15.68-63.21-19.91-70.06-2.65-4.28-13.38-5.75-18-1.78-8.63,7.35-25.58,50.84-31.32,73.46C195.81,220.81,199,226.51,199.18,226.67Z" style="fill:#FFC727"></path><path d="M264.84,224.31a1.76,1.76,0,0,1-.14.23,57.15,57.15,0,0,1-5.48-5.3c-2.12-2.3-4.14-4.7-6.07-7.16-3.88-4.9-7.53-10-11.57-14.75-.89-1-1.78-2.06-2.7-3.07l-.33-.36c-1.08-1.17-2.19-2.31-3.36-3.4a48.52,48.52,0,0,0-7.36-5.74,32.52,32.52,0,0,0-8.53-3.71c-.76-.17-1.5-.41-2.27-.52l-2.3-.34c-.77-.1-1.55-.09-2.33-.14l-1.16-.05-1.17,0c-.5,0-1,0-1.51.05.05-.12.1-.25.14-.38.45,0,.91,0,1.36,0l1.18,0,1.17.06c.79.05,1.58,0,2.35.15l2.33.35c.78.12,1.53.37,2.3.54a33.1,33.1,0,0,1,8.59,3.78,48.61,48.61,0,0,1,7.36,5.81c1.19,1.12,2.33,2.3,3.43,3.51l.33.37c.89,1,1.76,2,2.62,3,4,4.8,7.68,9.86,11.58,14.74,1.94,2.45,4,4.84,6.08,7.13A58.49,58.49,0,0,0,264.84,224.31Zm-.92-27.58a30.06,30.06,0,0,0-3-1.49,31.85,31.85,0,0,0-8.41-2.33l-.26,0-.4-.05a42.81,42.81,0,0,0-9.4.26,35.13,35.13,0,0,0-3.67.76,1.8,1.8,0,0,0-.22.06,36,36,0,0,0-5.15,1.78,39.69,39.69,0,0,0-8.12,4.73,59.66,59.66,0,0,0-7,6.27c-4.37,4.5-8.17,9.49-12.26,14.2a65.75,65.75,0,0,1-5.62,5.82h.69a65.3,65.3,0,0,0,5.28-5.51c4.1-4.74,7.89-9.72,12.23-14.2a61.14,61.14,0,0,1,6.95-6.22,39.66,39.66,0,0,1,8-4.69,35.65,35.65,0,0,1,5.3-1.82l.22,0c1.13-.29,2.26-.53,3.4-.72a42.55,42.55,0,0,1,9.3-.3l.77.1.27,0a32,32,0,0,1,8,2.21,27.7,27.7,0,0,1,3.23,1.6C264,197,264,196.87,263.92,196.73Zm3.19,14.49a.5.5,0,0,1,0-.12c-.9-1-1.76-2-2.62-3-4-4.76-7.7-9.84-11.58-14.74l0-.07c-.11-.14-.22-.28-.34-.41-1.8-2.29-3.69-4.53-5.67-6.68a56.14,56.14,0,0,0-6.85-6.41,35.52,35.52,0,0,0-8-4.89,32.1,32.1,0,0,0-9.08-2.42,42.85,42.85,0,0,0-9.4.26c-.75.12-1.49.25-2.23.41-.06.17-.13.33-.2.5.83-.2,1.66-.36,2.5-.5a42.53,42.53,0,0,1,9.3-.3,31.73,31.73,0,0,1,9,2.34,35.5,35.5,0,0,1,8,4.8,56.53,56.53,0,0,1,6.85,6.36c2,2.09,3.8,4.26,5.58,6.49l.33.42.17.21c3.9,4.89,7.58,9.94,11.59,14.75.93,1.09,1.86,2.18,2.83,3.24C267.14,211.4,267.13,211.31,267.11,211.22Zm-16.64-62.29A38.45,38.45,0,0,1,243,153.2a36.67,36.67,0,0,1-5.29,1.81l-.23.06c-1.13.29-2.26.52-3.4.71a42.57,42.57,0,0,1-9.3.31,31.48,31.48,0,0,1-5.53-1.1l-.15.31a32.83,32.83,0,0,0,5.64,1.16,42.85,42.85,0,0,0,9.4-.26c1.23-.2,2.46-.45,3.67-.77a.9.9,0,0,0,.22-.06,36,36,0,0,0,5.15-1.77,39.48,39.48,0,0,0,7.42-4.23C250.57,149.22,250.52,149.07,250.47,148.93Zm5.93,19a32.46,32.46,0,0,1-7.62-3.44,48.52,48.52,0,0,1-7.36-5.74c-1.17-1.09-2.28-2.23-3.36-3.41l-.32-.36c-.93-1-1.82-2-2.71-3.07s-1.58-1.89-2.35-2.85l-.32-.39c-1.82-2.29-3.6-4.62-5.38-6.95a1.71,1.71,0,0,0-.11.14c1.75,2.26,3.49,4.53,5.27,6.77l.31.39c.8,1,1.61,2,2.44,3s1.73,2,2.62,3q.15.18.33.36c1.09,1.21,2.23,2.39,3.42,3.51a49.26,49.26,0,0,0,7.37,5.82,32.39,32.39,0,0,0,7.87,3.55A3.57,3.57,0,0,1,256.4,168Zm-6.57-20.81a46.44,46.44,0,0,1-12.24,1.78l-1.16,0-1.17-.05c-.77,0-1.55,0-2.32-.14l-.58-.08-.22,0-1.51-.22c-.77-.12-1.51-.36-2.27-.53a31.07,31.07,0,0,1-4.46-1.57l-.14.26a32.41,32.41,0,0,0,4.52,1.62c.76.18,1.51.42,2.29.55l1.88.28.23,0,.22,0c.78.1,1.57.1,2.35.15l1.18.06,1.17,0a48,48,0,0,0,9.34-1c1-.21,2-.46,3-.75A3.25,3.25,0,0,1,249.83,147.15Z" style="fill:#fff"></path><polygon points="228.22 325.85 160.47 320.75 175.56 252.49 223.54 256.11 228.22 325.85" style="fill:#a6a6a6"></polygon><polygon points="223.54 256.11 210.81 324.54 228.22 325.85 223.54 256.11" style="fill:#c7c7c7"></polygon><path d="M187.69,258.46l-2.39-.61c0-.06,1.67-6.6,3.42-13.2,1.89-7.13,9.09-10.17,15-9,4.39.89,9.17,4.53,8.14,11.88-1.09,7.87-1.83,11.56-1.86,11.72l-2.42-.49s.76-3.79,1.84-11.57c.79-5.65-2.68-8.42-6.19-9.12-4.75-1-10.58,1.47-12.1,7.2C189.35,251.87,187.71,258.39,187.69,258.46Z" style="fill:#263238"></path><path d="M211.77,324.08c1.46-.88,3-1.68,4.48-2.48s3.05-1.55,4.59-2.28l.21-.1.18.15c1.08.95,2.16,1.89,3.2,2.88s2.1,2,3.1,3c-1.18-.83-2.32-1.71-3.44-2.61s-2.23-1.81-3.33-2.74l.39,0q-2.29,1.13-4.64,2.17C214.94,322.81,213.38,323.49,211.77,324.08Z" style="fill:#fff"></path><path d="M221,319.64c0-4.42.14-8.84.27-13.26s.31-8.83.46-13.25.39-8.83.63-13.24l.37-6.63c.15-2.2.28-4.41.45-6.61,0,2.21-.06,4.42-.1,6.63l-.17,6.63c-.12,4.42-.31,8.83-.46,13.25s-.39,8.83-.63,13.25S221.33,315.23,221,319.64Z" style="fill:#fff"></path><path d="M189.77,258.28a3.27,3.27,0,1,1-3.15-3.39A3.28,3.28,0,0,1,189.77,258.28Z" style="fill:#263238"></path><path d="M211.78,259.13a3.27,3.27,0,1,1-3.15-3.4A3.27,3.27,0,0,1,211.78,259.13Z" style="fill:#263238"></path><polygon points="215.67 343.31 139.68 323.74 170.7 249.19 224.53 263.05 215.67 343.31" style="fill:#FFC727"></polygon><polygon points="224.53 263.05 196.15 338.28 215.67 343.31 224.53 263.05" style="fill:#FFC727"></polygon><polygon points="224.53 263.05 196.15 338.28 215.67 343.31 224.53 263.05" style="opacity:0.1"></polygon><path d="M184.48,258.42l-2.24-1.11c0-.06,3.08-6.21,6.24-12.4,3.42-6.68,11.24-8.15,16.83-5.71,4.18,1.83,8.14,6.48,5.54,13.57-2.79,7.59-4.32,11.11-4.39,11.25l-2.29-1s1.57-3.61,4.33-11.11c2-5.45-.86-8.95-4.2-10.41-4.52-2-10.84-.81-13.59,4.56C187.56,252.23,184.51,258.36,184.48,258.42Z" style="fill:#263238"></path><g style="opacity:0.1"><path d="M197.33,338c1.85-.71,3.73-1.31,5.6-1.91s3.78-1.14,5.68-1.65l.27-.08.16.21c1,1.3,2.08,2.59,3.06,3.93s2,2.66,2.91,4.05c-1.17-1.19-2.28-2.42-3.38-3.67s-2.17-2.51-3.22-3.79l.42.14c-1.89.54-3.8,1-5.71,1.51S199.28,337.6,197.33,338Z"></path><path d="M208.72,334.78c.94-5,2-10,3-15s2.14-10,3.21-15,2.24-10,3.41-14.93l1.77-7.45c.62-2.48,1.21-5,1.86-7.44-.46,2.52-1,5-1.46,7.52L219,290c-1,5-2.15,10-3.22,15s-2.24,10-3.41,14.94S210,329.83,208.72,334.78Z"></path></g><path d="M186.58,258.7a3.33,3.33,0,1,1-2.39-4.06A3.32,3.32,0,0,1,186.58,258.7Z" style="fill:#263238"></path><path d="M208.29,264.29a3.33,3.33,0,1,1-2.39-4.06A3.32,3.32,0,0,1,208.29,264.29Z" style="fill:#263238"></path><path d="M221.67,141.89c-7.38,3-37.54,19.54-41,25-6.35,9.86-4.15,44.4-3.16,52.21.43,3.4,28.48,1.51,28.28-2.15-.14-2.47-5.4-33.95-4.6-36.57s18.34-20.31,28.41-28.82C239.15,143.45,237.31,135.59,221.67,141.89Z" style="fill:#ad6359"></path><path d="M211.66,247.37a4.2,4.2,0,0,1-4.79-.17,6.21,6.21,0,0,1-2.89,3.09c-2.34,1.06-5-2.14-5-2.14a7.63,7.63,0,0,1-3.57,2.79c-2.34.79-5.51-2.06-5.51-2.06a6.74,6.74,0,0,1-4.68.47c-4.13-1.26-5.84-7.64-7-11.69s-.54-16.57-.67-19l25.9-7.47s10.22,16.7,10.87,21.64C214.87,237,214.34,245.49,211.66,247.37Z" style="fill:#ad6359"></path><path d="M207.23,246.9c.48-4.57-.42-9-1.06-13.54a.08.08,0,0,0-.16,0c.69,4.47.49,9,1,13.51A.11.11,0,0,0,207.23,246.9Z" style="fill:#263238"></path><path d="M199.27,248a12.09,12.09,0,0,0-.39-3.1c-.21-1.09-.44-2.18-.69-3.26q-.74-3.26-1.64-6.46c0-.09-.18-.08-.16,0,.49,2.16,1,4.33,1.35,6.51q.3,1.63.57,3.27A13.89,13.89,0,0,0,199,248,.16.16,0,0,0,199.27,248Z" style="fill:#263238"></path><path d="M189.86,248.79a8.36,8.36,0,0,0-.5-2.78c-.25-1-.49-2-.72-2.95-.47-2-.94-3.94-1.34-5.92,0-.1-.18-.08-.16,0,.4,2,.77,4,1.18,6.06l.63,3a8,8,0,0,0,.81,2.64S189.85,248.84,189.86,248.79Z" style="fill:#263238"></path><path d="M205.57,211.15l-30.21,7.15s-3-38.23,4.27-52.55c3-5.9,30.54-21.32,42.73-25.18s20.49-.3,6.23,12.71-26.5,25.07-26.42,26.38S205.57,211.15,205.57,211.15Z" style="fill:#FFC727"></path><path d="M205.94,175.6c1-.78,6.06-6.07,7.8-7.78,1.42-1.4,2.87-2.77,4.32-4.13,1-.71,2-1.4,3-2.13a.07.07,0,0,0-.08-.11l-2.09,1.46c1.86-1.73,3.73-3.47,5.56-5.23.05-.05,0-.11-.07-.07-3.17,2.56-6.25,5.2-9.26,8a122.2,122.2,0,0,0-9.72,10C204.73,176.35,205.07,176.31,205.94,175.6Z" style="fill:#263238"></path><path d="M202.68,206c-2.1.17-4.21.66-6.28,1s-4.31.87-6.46,1.33-10.67,2.57-12.8,3.1a.07.07,0,1,0,0,.14c2.17-.39,10.73-2,12.84-2.42s4.21-.9,6.31-1.41a64.25,64.25,0,0,0,6.37-1.69S202.73,206,202.68,206Z" style="fill:#263238"></path><path d="M203.68,193.85c.59,2.86,1,5.73,1.32,8.61.16,1.44.29,2.89.41,4.33s.2,2.9.24,4.35v.08h-.06l-.83.11.79-.26-.05.08c-.29-1.43-.49-2.87-.72-4.3s-.37-2.88-.52-4.32C204,199.66,203.72,196.77,203.68,193.85Z" style="fill:#263238"></path><path d="M242.72,149c-3.5.85-10.32-4.89-12.73-9.22-.16-.29.28-3.43.62-7.27.2-2.33.37-4.93.36-7.31l15,3.53a37.63,37.63,0,0,0-1.38,9.16,5,5,0,0,0,.1,1s0,.1,0,.17C245,140.85,246.1,148.15,242.72,149Z" style="fill:#ad6359"></path><path d="M244.66,138.84a.61.61,0,0,1,0,.15,9.07,9.07,0,0,1-1.53.1c-8.65-.13-10.76-10.7-11.17-13.68l3.74.88,10.22,2.41a37.73,37.73,0,0,0-1.38,9.16A5.17,5.17,0,0,0,244.66,138.84Z" style="fill:#263238"></path><path d="M230,107.84c-1.61,5.42,1.37,21,5.24,24.49,5.62,5,14.75,5.42,19-1.31,4.11-6.54-.13-26.81-4.45-29.94C243.47,96.46,232.42,99.83,230,107.84Z" style="fill:#ad6359"></path><path d="M245.46,117.52s-.07.07-.06.11c.22,1.05.31,2.28-.58,2.81,0,0,0,.07,0,.06C246,120.12,245.84,118.48,245.46,117.52Z" style="fill:#263238"></path><path d="M244.32,116.6c-1.72.18-1.22,3.6.37,3.43S245.75,116.44,244.32,116.6Z" style="fill:#263238"></path><path d="M251.33,116.57s.09,0,.1.08c.12,1.07.44,2.27,1.44,2.48,0,0,0,.06,0,.06C251.68,119.19,251.28,117.6,251.33,116.57Z" style="fill:#263238"></path><path d="M252.12,115.33c1.68-.38,2.31,3,.75,3.37S250.71,115.64,252.12,115.33Z" style="fill:#263238"></path><path d="M242.74,115.23a12.6,12.6,0,0,0,1.26-.66,2.31,2.31,0,0,0,1.15-.91.75.75,0,0,0-.24-.86,1.82,1.82,0,0,0-1.84.08,2.64,2.64,0,0,0-1.35,1.36A.78.78,0,0,0,242.74,115.23Z" style="fill:#263238"></path><path d="M253.19,113.42a13.22,13.22,0,0,1-1.41-.16,2.33,2.33,0,0,1-1.41-.43.72.72,0,0,1-.08-.89,1.82,1.82,0,0,1,1.73-.6,2.67,2.67,0,0,1,1.76.78A.78.78,0,0,1,253.19,113.42Z" style="fill:#263238"></path><path d="M245.61,127.31c.29.21.59.52,1,.49a2.81,2.81,0,0,0,1.1-.43,0,0,0,0,1,.05,0,1.43,1.43,0,0,1-1.26.77,1.13,1.13,0,0,1-1-.82C245.49,127.32,245.57,127.28,245.61,127.31Z" style="fill:#263238"></path><path d="M246.26,124a3.63,3.63,0,0,0,2.64,1.25,4.17,4.17,0,0,0,1.31-.13.94.94,0,0,0,.24-.06l.23-.07a.28.28,0,0,0,.18-.27h0a.44.44,0,0,0,0-.1h0l0-.09c-.09-.82-.35-2-.35-2,.32.11,1.93.57,1.85.15a54.29,54.29,0,0,0-3-10.71.1.1,0,0,0-.19.05c.57,3.39,1.72,6.65,2.34,10a6.16,6.16,0,0,0-1.78-.27c-.11.05.54,2.36.56,2.74v0a5,5,0,0,1-3.9-.62C246.26,123.82,246.19,123.9,246.26,124Z" style="fill:#263238"></path><path d="M249.72,125a4.22,4.22,0,0,1-1.59,1.44,1.84,1.84,0,0,1-1.14.16c-.86-.15-.94-.92-.83-1.58a4.52,4.52,0,0,1,.29-1A5.52,5.52,0,0,0,249.72,125Z" style="fill:#263238"></path><path d="M248.13,126.45a1.84,1.84,0,0,1-1.14.16c-.86-.15-.94-.92-.83-1.58A2,2,0,0,1,248.13,126.45Z" style="fill:#ff98b9"></path><path d="M230.32,122.13c-.5-1.39-5.23-16.49-4.94-18.19.26-1.55,2-1,2-1.13s0-1.48.8-2.06a2.34,2.34,0,0,1,1.86-.1s.16-1.48,1.06-1.94a1.85,1.85,0,0,1,1.82.27,2.47,2.47,0,0,1,1.35-1.85,1.6,1.6,0,0,1,1.83.55s.29-1.42,1.23-1.76,1.85.64,1.85.64.44-1.31,1.6-1.4a1.85,1.85,0,0,1,1.71,1.14s.6-1.28,1.7-1.38,1.57,1.23,1.57,1.23.36-1.25,1.4-1.24,1.38,1.43,1.38,1.43.48-1.38,1.72-1.07c1.91.48,2.75,9.36,3.44,13.2,0,0-.64-1.81-1.44-1.83s-1.3,1.29-2.75,1.72c-2.07.61-5.73-1.62-8.58-.8s-4.65,3.9-5.36,8.38C234.76,121,231.5,125.45,230.32,122.13Z" style="fill:#263238"></path><path d="M248.14,117.38a4.65,4.65,0,1,0-4.28,6,4.12,4.12,0,0,0,1.14-.19,4.65,4.65,0,0,0,3.14-5.77Zm-3.31,5.18a4,4,0,1,1-2.28-7.72,3.79,3.79,0,0,1,1-.16,4,4,0,0,1,1.29,7.88Z" style="fill:#FFC727"></path><path d="M244.83,122.56a4,4,0,1,1-2.28-7.72,3.79,3.79,0,0,1,1-.16,4,4,0,0,1,1.29,7.88Z" style="fill:#263238"></path><path d="M257.39,116.49a5.51,5.51,0,0,0-1.47-3.06,3,3,0,0,0-2.66-1A3.08,3.08,0,0,0,251,114.2a5.53,5.53,0,0,0-.47,3.36c.37,2.39,2.05,4.15,3.83,4.08a1.53,1.53,0,0,0,.3,0C256.58,121.32,257.79,119,257.39,116.49ZM254.6,121c-1.55.24-3.09-1.35-3.43-3.54a4.92,4.92,0,0,1,.41-3,2.48,2.48,0,0,1,1.78-1.43,1.6,1.6,0,0,1,.23,0,2.55,2.55,0,0,1,1.89.85,4.94,4.94,0,0,1,1.3,2.72C257.12,118.78,256.14,120.76,254.6,121Z" style="fill:#FFC727"></path><path d="M254.6,121c-1.55.24-3.09-1.35-3.43-3.54a4.92,4.92,0,0,1,.41-3,2.48,2.48,0,0,1,1.78-1.43,1.6,1.6,0,0,1,.23,0,2.55,2.55,0,0,1,1.89.85,4.94,4.94,0,0,1,1.3,2.72C257.12,118.78,256.14,120.76,254.6,121Z" style="fill:#263238"></path><path d="M248.07,117.94l-.47-.41c.61-.69,2.09-1.73,3.4-.7l-.38.48C249.45,116.39,248.12,117.88,248.07,117.94Z" style="fill:#FFC727"></path><path d="M227.8,122.31l-.59-.19c.09-.28.94-2.7,2.27-3.14s9.6-.91,10-.94l0,.62c-2.39.15-8.83.6-9.8.91S228,121.65,227.8,122.31Z" style="fill:#FFC727"></path><path d="M234,120.55s-3.68-5-5.93-3.63.6,8.58,3.32,9.5a2.73,2.73,0,0,0,3.62-1.57Z" style="fill:#ad6359"></path><path d="M228.9,119a0,0,0,0,0,0,.07c1.9.71,3,2.44,3.69,4.23a1.51,1.51,0,0,0-2.27-.35c-.05,0,0,.11.05.1a1.67,1.67,0,0,1,1.87.54,8.29,8.29,0,0,1,.93,1.47c.09.17.4.07.33-.12l0,0C233.45,122.47,231.49,119.15,228.9,119Z" style="fill:#263238"></path></g></svg>