<svg xmlns="http://www.w3.org/2000/svg" viewBox="0 0 500 500"><g id="freepik--Floor--inject-18"><polygon points="246.26 474.05 253.74 474.05 251.74 411.54 248.26 411.54 246.26 474.05" style="fill:#ebebeb"></polygon><polygon points="454.45 474.05 461.93 474.05 421.23 411.54 417.76 411.54 454.45 474.05" style="fill:#ebebeb"></polygon><polygon points="45.55 474.05 38.07 474.05 78.77 411.54 82.24 411.54 45.55 474.05" style="fill:#ebebeb"></polygon><rect x="64.16" y="436.81" width="371.69" height="3.14" style="fill:#ebebeb"></rect><polygon points="49.15 474.05 99.36 473.81 149.58 473.72 250 473.55 350.42 473.72 400.64 473.81 450.85 474.05 400.64 474.3 350.42 474.38 250 474.55 149.58 474.38 99.36 474.29 49.15 474.05" style="fill:#263238"></polygon><polygon points="49.15 411.54 99.36 411.3 149.58 411.21 250 411.05 350.42 411.21 400.64 411.3 450.85 411.54 400.64 411.79 350.42 411.88 250 412.04 149.58 411.88 99.36 411.79 49.15 411.54" style="fill:#263238"></polygon><polygon points="49.15 401.79 99.36 401.55 149.58 401.46 250 401.29 350.42 401.46 400.64 401.55 450.85 401.79 400.64 402.03 350.42 402.12 250 402.29 149.58 402.12 99.36 402.03 49.15 401.79" style="fill:#263238"></polygon></g><g id="freepik--Hurdle--inject-18"><rect x="172.61" y="431.83" width="82.24" height="7.2" style="fill:#263238"></rect><rect x="162.93" y="347.1" width="176.66" height="7.2" transform="translate(601.95 99.44) rotate(90)" style="fill:#263238"></rect><rect x="245.81" y="240.67" width="10.91" height="53.06" style="fill:#FFC727"></rect></g><g id="freepik--Character--inject-18"><path d="M252.79,168.6s-3.47,30.61-10.46,37c0,0-25.29,65.88-35.48,80.41-15.09,21.51-111.37-11.84-111.37-11.84l10.45-41s68.66,14.81,69,13.08c2.21-9.81,18.5-39,18.05-40.71-5.17-20,8.3-41.82,8.3-41.82Z" style="fill:#ad6359"></path><path d="M175.83,237.22l52.41,11.95,14.09-43.57s8.56-7.3,10.47-37.18l-51.46-4.84s-14.12,21.11-11.89,39.11Z" style="fill:#FFC727"></path><path d="M175.83,237.22l52.41,11.95,14.09-43.57s8.56-7.3,10.47-37.18l-51.46-4.84s-14.12,21.11-11.89,39.11Z" style="opacity:0.5"></path><path d="M203.82,186.78a71.88,71.88,0,0,0-1,11.32c0,.94,0,1.88.08,2.81l.08,1.42.15,1.39a33.69,33.69,0,0,0,1,5.37l.15.51-.19.5c-2.28,6.2-4.59,12.37-7,18.53q-2.39,6.17-4.83,12.35l-4-.91,12.73-30.68a35.86,35.86,0,0,1-.73-5.43l-.07-1.48,0-1.48c0-1,0-2,.08-3A65.61,65.61,0,0,1,202,186.41c.49-1.89.95-3.79,1.59-5.63s1.28-3.68,2-5.48c.34-.91.75-1.79,1.16-2.67l1.2-2.64c.88-1.73,1.82-3.42,2.72-5.12-.73,1.79-1.49,3.55-2.2,5.34s-1.35,3.6-1.88,5.45-1.12,3.66-1.54,5.53S204.18,184.91,203.82,186.78Z" style="fill:#FFC727"></path><path d="M207.19,187.07a64.64,64.64,0,0,0-.41,11.47,51.59,51.59,0,0,0,1.72,11.26l.06.2-.06.17-11.31,31.92-1.94-.44,12.12-31.71a51.77,51.77,0,0,1-1.44-11.37,64.07,64.07,0,0,1,.71-11.58,66.67,66.67,0,0,1,2.66-11.27c.54-1.85,1.32-3.62,2-5.42s1.62-3.49,2.43-5.25c-.77,1.77-1.62,3.5-2.31,5.31s-1.37,3.58-1.86,5.45A66.55,66.55,0,0,0,207.19,187.07Z" style="fill:#FFC727"></path><path d="M242.33,205.6l-8.67,26.83-46.37-24.24,2.16-5.5c-2.23-18,11.88-39.12,11.88-39.12l51.47,4.85C250.89,198.29,242.33,205.6,242.33,205.6Z" style="opacity:0.1"></path><path d="M43.89,291.18c-.24-2.42,14.3-66.67,16.41-68.76.79-.81,55.94,13.43,55.94,13.43l-13.15,40.82-30.83-9.2S56.15,289,53.59,291,44.13,293.59,43.89,291.18Z" style="fill:#ad6359"></path><path d="M90.45,229.3l-8.34,41.11-9.85-2.93S56.15,289,53.59,291s-9.45,2.56-9.7.14,14.3-66.66,16.41-68.75C60.71,222,76,225.68,90.45,229.3Z" style="fill:#ebebeb"></path><path d="M88.67,228.86l-8.15,41.08-1-.29,8.15-41Z" style="fill:#FFC727"></path><path d="M86.06,228.21l-8.14,41-1-.28L85.09,228C85.41,228.05,85.74,228.12,86.06,228.21Z" style="fill:#FFC727"></path><path d="M43.87,291.46c-.24-2.4,13.93-67.26,16-69.36.79-.79,11.09.27,21.8,3.61L72.39,268s-16.32,21.22-18.87,23.27S44.11,293.86,43.87,291.46Z" style="fill:#FFC727"></path><path d="M46.63,291.12c2.69-10.66,12.52-53.93,14.37-64.67,0-.09,0-.1-.07,0C58,236.94,48.56,280.29,46.46,291.08,46.41,291.31,46.58,291.35,46.63,291.12Z" style="fill:#263238"></path><path d="M56.76,287.71a8.88,8.88,0,0,0-1.17-7A8.6,8.6,0,0,0,50.4,277c-.06,0-.09.11,0,.13a10.2,10.2,0,0,1,6.25,10.54A.07.07,0,0,0,56.76,287.71Z" style="fill:#263238"></path><path d="M70.55,271.16c1-4.28.64-9.6-2.27-13.06-.11-.13-.3,0-.26.17a61.19,61.19,0,0,1,2,12.84A.27.27,0,0,0,70.55,271.16Z" style="fill:#263238"></path><path d="M68.51,274.18c1-4.28.64-9.6-2.27-13.06-.11-.13-.3,0-.26.17a60.63,60.63,0,0,1,2,12.85A.28.28,0,0,0,68.51,274.18Z" style="fill:#263238"></path><path d="M66.47,277.2c1-4.28.64-9.59-2.27-13.05-.11-.14-.3,0-.26.17a60.44,60.44,0,0,1,2,12.84A.28.28,0,0,0,66.47,277.2Z" style="fill:#263238"></path><path d="M64.43,280.22c1-4.27.64-9.59-2.27-13.05-.11-.14-.3,0-.26.17a60.44,60.44,0,0,1,2,12.84A.28.28,0,0,0,64.43,280.22Z" style="fill:#263238"></path><path d="M70.57,231.48c1.07-4.82-6.42-6.5-7.49-1.67S69.49,236.31,70.57,231.48Z" style="fill:#fff"></path><path d="M81,278.39c2.3-1.77,1.15-4.91-.41-6.66a23.2,23.2,0,0,0-7.75-5.52c-.4-.19-.82-.36-1.22-.51a3.65,3.65,0,0,1-.53-.19h0l-.14,0-.44-.14a.11.11,0,0,0-.14.12.54.54,0,0,0-.51.34.4.4,0,0,0,0,.34c.39,1,.77,2,1.15,3a5.62,5.62,0,0,0,.19.53,23.71,23.71,0,0,0,3.64,7C76.19,278.38,78.78,280.06,81,278.39ZM73,271.06c-.36-.83-.7-1.67-1-2.5s-.59-1.41-.91-2.11c0-.1-.09-.2-.13-.28l-.12-.27.24.14,0,0c.52.33,1,.65,1.54,1a41.88,41.88,0,0,1,4,2.74A25.45,25.45,0,0,1,79.18,272c1.2,1.26,3.83,6.29-.93,5.65C75.63,277.28,73.91,273.11,73,271.06Z" style="fill:#263238"></path><path d="M70.48,266.32a.13.13,0,0,0,.19.06l.27-.21a.23.23,0,0,0,.12-.08s0,0,0,0a2.21,2.21,0,0,0,.49-.36,15.36,15.36,0,0,0,1.67-1.45,23.11,23.11,0,0,0,5.05-7.07c.95-2.15,1.06-5.48-1.66-6.45a1.67,1.67,0,0,0-.3-.08c-2.43-.66-4.27,1.65-5.07,3.67A22,22,0,0,0,70,261.05c-.09,1.59-.12,3.19-.22,4.75v0A.52.52,0,0,0,70.48,266.32Zm.87-6.17c.2-2.23.55-6.73,2.94-7.87a3.58,3.58,0,0,1,1.77-.45c2.25.15,1.48,4.23.85,5.53a25.84,25.84,0,0,1-1.72,2.91c-.47.71-1,1.38-1.51,2-.86,1.1-1.76,2.13-2.64,3.2h0c-.06.07-.11.15-.17.21a2.13,2.13,0,0,0,0-.25c0-.22.06-.42.08-.65C71.12,263.27,71.2,261.71,71.35,260.15Z" style="fill:#263238"></path><path d="M456,239.4c-.36,2.4-30.38,61-32.94,62.54-1,.59-50.87-26.87-50.87-26.87l19.59-37.42,30.86,17.68s20.94-16.83,23.93-18.19S456.39,237,456,239.4Z" style="fill:#ad6359"></path><path d="M456,239.4c-.35,2.39-30.37,61-32.93,62.54-.5.3-14.09-6.9-27.1-13.92l18.86-37.17,7.82,4.48s20.94-16.83,23.93-18.2S456.4,237,456,239.4Z" style="fill:#ebebeb"></path><polygon points="419.9 253.74 401.6 291.04 400.71 290.57 419.02 253.24 419.9 253.74" style="fill:#FFC727"></polygon><path d="M417.55,252.4l-18.33,37.37-.88-.48,18.35-37.39Z" style="fill:#FFC727"></path><path d="M456.12,239.13c-.36,2.39-30.16,61.71-32.71,63.22-1,.58-10.68-3-20.23-8.9l19.51-38.7s21.07-16.51,24-17.86S456.48,236.74,456.12,239.13Z" style="fill:#FFC727"></path><path d="M453.36,238.77c-5.25,9.67-25.5,49.14-29.95,59.1,0,.08,0,.11.06,0,5.41-9.47,25.34-49.11,30-59C453.62,238.64,453.47,238.57,453.36,238.77Z" style="fill:#263238"></path><path d="M442.71,239.57a8.82,8.82,0,0,0-.61,7.08,8.57,8.57,0,0,0,4.11,4.86c.06,0,.12-.08.06-.12a10.21,10.21,0,0,1-3.44-11.76C442.86,239.55,442.75,239.49,442.71,239.57Z" style="fill:#263238"></path><path d="M425.24,252.18c-2.06,3.89-3,9.14-1,13.21.08.16.3.05.3-.09a61.19,61.19,0,0,1,1.26-12.94A.28.28,0,0,0,425.24,252.18Z" style="fill:#263238"></path><path d="M428,249.76c-2.06,3.89-3,9.14-1,13.21.07.16.3,0,.3-.1a60.5,60.5,0,0,1,1.25-12.93A.27.27,0,0,0,428,249.76Z" style="fill:#263238"></path><path d="M430.69,247.34c-2.06,3.89-3,9.14-1,13.21.08.16.3.05.3-.1a61.1,61.1,0,0,1,1.26-12.93A.28.28,0,0,0,430.69,247.34Z" style="fill:#263238"></path><path d="M433.42,244.92c-2.06,3.89-3,9.14-1,13.21.07.16.3.05.3-.1a60.44,60.44,0,0,1,1.25-12.93A.27.27,0,0,0,433.42,244.92Z" style="fill:#263238"></path><path d="M415.39,290.62c-2.24,4.4,4.6,7.88,6.84,3.47S417.63,286.21,415.39,290.62Z" style="fill:#fff"></path><path d="M417,242.6c-2.67,1.14-2.33,4.47-1.26,6.56a23.34,23.34,0,0,0,6.14,7.26c.35.29.71.55,1.06.8.17.1.33.21.47.31s0,0,0,0l.13.07.39.24a.12.12,0,0,0,.17-.08.55.55,0,0,0,.58-.2.44.44,0,0,0,.1-.33c-.14-1-.25-2.12-.37-3.2a5.35,5.35,0,0,0-.05-.55,23.69,23.69,0,0,0-1.8-7.65C421.57,243.8,419.47,241.52,417,242.6Zm5.86,9.06c.14.9.26,1.8.39,2.68s.23,1.52.36,2.27a2.44,2.44,0,0,0,.06.31c0,.09,0,.2.05.29l-.2-.2s0,0,0,0c-.42-.44-.82-.88-1.25-1.31A43,43,0,0,1,419,252a24.87,24.87,0,0,1-1.92-2.77c-.85-1.52-2.15-7,2.31-5.24C421.84,245,422.47,249.46,422.82,251.66Z" style="fill:#263238"></path><path d="M424.11,256.88a.13.13,0,0,0-.17-.1,1.8,1.8,0,0,0-.31.14.23.23,0,0,0-.14.05s0,0,0,0a2.53,2.53,0,0,0-.56.23,15.9,15.9,0,0,0-2,1,23.1,23.1,0,0,0-6.64,5.6c-1.46,1.85-2.39,5.05,0,6.66l.27.15c2.2,1.24,4.55-.54,5.83-2.3a22.14,22.14,0,0,0,2.88-6.21c.48-1.51.91-3.06,1.39-4.54v0A.52.52,0,0,0,424.11,256.88Zm-2.37,5.77c-.75,2.11-2.21,6.38-4.8,6.9a3.51,3.51,0,0,1-1.82,0c-2.15-.7-.4-4.46.54-5.57a24.3,24.3,0,0,1,2.38-2.38,25.3,25.3,0,0,1,2-1.61c1.1-.85,2.23-1.63,3.35-2.45h0c.07,0,.14-.12.21-.16a1.7,1.7,0,0,0-.09.24c-.08.2-.16.39-.23.6C422.73,259.68,422.26,261.17,421.74,262.65Z" style="fill:#263238"></path><path d="M398.41,241.59l-21.33,36.15S308.87,237.86,305.26,237c-6.94-1.66-82.1-11.83-96.11-26.77-18.42-19.65-4.45-46.15-4.45-46.15l48.7,4.4s-.5,11.05.5,12.62c4,6.36,56.3,9.08,70.35,15.64C339.58,203.9,398.41,241.59,398.41,241.59Z" style="fill:#ad6359"></path><path d="M262.1,230.81l20.45-43.55s-25.29-4.89-26.8-6.87c-2.34-3.07-2.35-11.91-2.35-11.91l-53.44-5s-17.11,29.16-2.81,46.39C209.15,224.29,262.1,230.81,262.1,230.81Z" style="fill:#FFC727"></path><g style="opacity:0.5"><path d="M262.1,230.81l20.45-43.55s-25.29-4.89-26.8-6.87c-2.34-3.07-2.35-11.91-2.35-11.91l-53.44-5s-17.11,29.16-2.81,46.39C209.15,224.29,262.1,230.81,262.1,230.81Z"></path></g><path d="M267.48,219.35,265,224.58l-3.61-.59c-4.69-.79-9.36-1.67-14-2.68s-9.28-2.13-13.87-3.46A113.29,113.29,0,0,1,220,213.1a54.48,54.48,0,0,1-6.47-3.27,26.48,26.48,0,0,1-5.82-4.57,13.62,13.62,0,0,1-2.16-3.12,16.55,16.55,0,0,1-.79-1.65c-.27-.56-.48-1.13-.69-1.7a29.67,29.67,0,0,1-1.59-7.09,43.34,43.34,0,0,1,1.18-14.24,61.43,61.43,0,0,1,4.87-13.21,60.71,60.71,0,0,0-4.14,13.37A42.36,42.36,0,0,0,204,191.5a28.56,28.56,0,0,0,1.85,6.61c.22.52.45,1,.71,1.54s.52,1,.83,1.48a11,11,0,0,0,2,2.59,24.5,24.5,0,0,0,5.5,3.84,51.93,51.93,0,0,0,6.29,2.77c8.7,3.18,17.92,5,27.14,6.57q6.92,1.11,13.9,1.9C263.92,219,265.7,219.18,267.48,219.35Z" style="fill:#FFC727"></path><path d="M269.73,214.58l-.9,1.89c-7.61-.75-15.15-1.87-22.66-3.24A146.48,146.48,0,0,1,222.06,207a47.74,47.74,0,0,1-5.72-2.55,19.08,19.08,0,0,1-5.09-3.73,8.94,8.94,0,0,1-1-1.29l-.76-1.38-.67-1.42-.58-1.46a27.23,27.23,0,0,1-1.38-6.1,39.12,39.12,0,0,1,.78-12.4,53.81,53.81,0,0,1,4-11.73,53.91,53.91,0,0,0-3.77,11.78,39,39,0,0,0-.53,12.29,27.12,27.12,0,0,0,1.47,5.95l.59,1.4.68,1.38.78,1.31a7.27,7.27,0,0,0,.91,1.16,18,18,0,0,0,4.95,3.46,47.09,47.09,0,0,0,5.66,2.4,146.59,146.59,0,0,0,24,5.69C254.14,213,261.94,214,269.73,214.58Z" style="fill:#FFC727"></path><path d="M299.66,249.82a1.86,1.86,0,0,0,0-.22c0-.09,0-.09,0-.16h0a.59.59,0,0,0,0,.11c0,.07.05.14.07.2l0,.11.07.12,0,0C299.83,250,299.76,249.89,299.66,249.82Z" style="fill:#455a64"></path><path d="M261.07,120.4c5.86,25.63,15.23,48.21,22.81,50.94,10.18,3.66,35.56.48,48.58-2.39,3.82-.85-3.34-30.49-7.43-29.59-4.95,1.09-30.43,7.1-30.94,7.06-1.08-.1-17-25.68-21.24-31.56C265.82,105.05,258.46,109,261.07,120.4Z" style="fill:#ad6359"></path><path d="M351.78,163.64c-5.54,3.44-19.61,6-23.24,5.36s-8.86-24.45-6.42-27.36,22-13,28.56-12.25S357.51,160.08,351.78,163.64Z" style="fill:#ad6359"></path><path d="M340.29,130.21c-1.57,3.08,2.95,3.17,2.95,3.17s-6.54,1.44-6.93,5.24,5.1,3.57,5.49,3.57c-.34.08-6.31,1.56-6.31,5.42s5.47,3,5.83,2.9c-.31.18-4.26,2.59-3.6,5.52,1.15,5,11.45-.86,15.43.41,0,0-1.38,7-1.37,7.2,0,0,9.9-5.4,11.31-10.87a3.6,3.6,0,0,0-1.8-4.14s3.39-1.39,3.48-4.42c.05-1.56-2.4-3-2.4-3a4.51,4.51,0,0,0,2.58-3.93c-.06-2.16-2.51-3.28-2.51-3.28s2-2.37,1.23-4.55C362.11,125,343.65,123.63,340.29,130.21Z" style="fill:#ad6359"></path><path d="M362.08,133.74c.06,0,.08-.08,0-.09a32.08,32.08,0,0,0-19.1-.3c-.2.06-.18.41.05.38A65.6,65.6,0,0,1,362.08,133.74Z" style="fill:#263238"></path><path d="M362.46,141.16c.07,0,.09-.11,0-.13-6.16-2-14.21-2.08-20.86,1-.23.1-.33.43-.06.33C346.14,140.63,356.55,140.2,362.46,141.16Z" style="fill:#263238"></path><path d="M340.93,150.88c6.49-2.67,13.19-3,20.11-2.35.09,0,.1-.12,0-.14-3.3-1.25-7.76-1.2-11.22-.88a18.6,18.6,0,0,0-9,3.15C340.73,150.73,340.79,150.94,340.93,150.88Z" style="fill:#263238"></path><path d="M343.24,133.38a21,21,0,0,0-3.55,1.5,7.12,7.12,0,0,0-2.79,2.43,2.38,2.38,0,0,0-.28,1.64,3.47,3.47,0,0,0,.77,1.53,4.1,4.1,0,0,0,3.16,1.14l2.83-.08-2.63,1.06a11.83,11.83,0,0,0-3.22,1.93,4.14,4.14,0,0,0-1.64,3,2.36,2.36,0,0,0,1.7,2.44,7.14,7.14,0,0,0,3.59,0l3.28-.7L341.6,151a10.86,10.86,0,0,0-2.18,1.72,4.45,4.45,0,0,0-1.28,2.24,2.14,2.14,0,0,0,.81,2.1,4.87,4.87,0,0,0,2.58.56,37.2,37.2,0,0,0,5.76-.78c1-.17,1.94-.35,2.92-.48a7.1,7.1,0,0,1,2.94.08,7.47,7.47,0,0,0-2.9.19c-1,.2-1.9.45-2.85.69a30.54,30.54,0,0,1-5.85,1.1,5.44,5.44,0,0,1-3.11-.57,3,3,0,0,1-1.32-3,5.44,5.44,0,0,1,1.52-2.83A12.13,12.13,0,0,1,341,150l.43,1a8.34,8.34,0,0,1-4.24,0,3.41,3.41,0,0,1-1.87-1.38,3.76,3.76,0,0,1-.59-2.21,5.22,5.22,0,0,1,2.07-3.76,12.78,12.78,0,0,1,3.58-2.06l.2,1a4.89,4.89,0,0,1-3.83-1.62,4.2,4.2,0,0,1-.86-1.94,3,3,0,0,1,.45-2.08,7.28,7.28,0,0,1,3.16-2.41A16.92,16.92,0,0,1,343.24,133.38Z" style="fill:#263238"></path><path d="M325.14,139.33S341,116.68,346.8,127.22c1.73,3.12,5.1,18,2.11,18.77-3.85.95-6.41-5-7.43-9,0,0-4.31,8.46-11.09,7.22A6.85,6.85,0,0,1,325.14,139.33Z" style="fill:#ad6359"></path><path d="M346.27,126.37a14.42,14.42,0,0,1,1.93,3.74,32,32,0,0,1,1.2,4.06,47.75,47.75,0,0,1,1.27,8.38,7.54,7.54,0,0,1-.18,2.24,3,3,0,0,1-.55,1.16,2.27,2.27,0,0,1-.53.48,2.11,2.11,0,0,1-.65.26,3.51,3.51,0,0,1-2.44-.32,6.53,6.53,0,0,1-1.8-1.44,12.73,12.73,0,0,1-2.22-3.76A28.66,28.66,0,0,1,341,137.1l.91.09a16.2,16.2,0,0,1-1.84,2.67,15.29,15.29,0,0,1-2.28,2.27,11.34,11.34,0,0,1-2.78,1.6,8.39,8.39,0,0,1-3.12.59,9.54,9.54,0,0,0,3-.9,11.11,11.11,0,0,0,2.52-1.77,14.9,14.9,0,0,0,2.06-2.28,15.91,15.91,0,0,0,1.58-2.61l.54-1.13.37,1.22a32,32,0,0,0,1.37,3.89,12.39,12.39,0,0,0,2.07,3.41c.84.93,2,1.68,3.08,1.41s1.11-1.68,1.09-3a36,36,0,0,0-.31-4.12c-.15-1.39-.32-2.77-.57-4.13A26.9,26.9,0,0,0,346.27,126.37Z" style="fill:#263238"></path><path d="M284,171.38l-.14,0c-7.56-2.73-16.94-25.31-22.8-50.94-1.91-8.34,1.53-12.7,6.26-10.57Z" style="opacity:0.1"></path><path d="M192.45,176.13c.09.24,67.32,6.67,68.21,6.19.53-.29-2.37-7.86.48-19.64,3.78-15.64,9.87-39,9.7-50.26-.07-5-13.68-12.62-22.94-7.33C217.25,122.59,192.12,175.28,192.45,176.13Z" style="fill:#FFC727"></path><path d="M252.19,127.34c-7.21,10.37-26.16,20.14-33,20.28-3.81.07-6.72-1.58-7.87-4.94q1.95-2.87,4.06-5.75c9-12.37,20.12-24.62,32-31.58l.45-.27a12.48,12.48,0,0,1,1.93-.89h0a10.82,10.82,0,0,1,4.51,0C261,106,255.25,122.94,252.19,127.34Z" style="fill:#fff;opacity:0.30000000000000004"></path><path d="M251.06,125c-6.24,9-22.63,17.41-28.52,17.53-3.77.08-6.53-1.8-7.14-5.62,9-12.37,20.12-24.62,32-31.58A11.32,11.32,0,0,1,253,105C258.69,106.5,253.7,121.21,251.06,125Z" style="fill:#fff;opacity:0.30000000000000004"></path><path d="M234.16,159.45s1.72-7.62,2.68-10.65a98.47,98.47,0,0,1,4-9.3s11.14,2.52,14.37,3l9.52,1.38s-1.64,7.76-2.22,10.08c-.65,2.63-2.41,9.71-2.41,9.71s-6.85-.31-12.75-1.2C243.27,161.84,234.16,159.45,234.16,159.45Z" style="fill:#fff"></path><path d="M240.18,150.59a7.85,7.85,0,0,1,1.5-3.5,2.73,2.73,0,0,1,2.56-1.28,2.76,2.76,0,0,1,1.94,2.1,8.08,8.08,0,0,1,.15,3.8,8,8,0,0,1-1.49,3.5,2.38,2.38,0,0,1-4.5-.82A8.09,8.09,0,0,1,240.18,150.59Zm4.8.87a6.17,6.17,0,0,0-.09-2.82c-.23-.71-.58-1.09-1-1.14s-.84.15-1.32.72a6.19,6.19,0,0,0-1.08,2.61,6.12,6.12,0,0,0,.09,2.81c.24.73.6,1.09,1,1.16s.83-.15,1.3-.74A6.09,6.09,0,0,0,245,151.46Z" style="fill:#263238"></path><path d="M251.9,151.55a4.59,4.59,0,0,1-1,5.35,2.63,2.63,0,0,1-4.26-.77,1.05,1.05,0,0,1,.22-1.23.61.61,0,0,1,1,.18,1.48,1.48,0,0,0,1,.81,1.55,1.55,0,0,0,1.28-.38,2.39,2.39,0,0,0,.75-1.38,2.26,2.26,0,0,0-.22-1.54,1.5,1.5,0,0,0-1-.82.56.56,0,0,1-.45-.37s0,0,0,0a1.05,1.05,0,0,1,.2-1.22l1.53-1.36-2-.36a.81.81,0,0,1-.53-1,.8.8,0,0,1,.84-.73l3.58.66a.8.8,0,0,1,.54,1,1.14,1.14,0,0,1-.16.39,1.56,1.56,0,0,1-.16.2l-1.9,1.7A2.85,2.85,0,0,1,251.9,151.55Z" style="fill:#263238"></path><path d="M259.9,156.78a.79.79,0,0,1-.83.72l-.13,0-.21,1.16c-.09.48-.44.79-.82.72a.76.76,0,0,1-.51-1l.21-1.16-3.8-.7h0a.57.57,0,0,1-.38-.26,1,1,0,0,1,.11-1.19l5.78-6.21s0,0,0,0l.05-.06.06,0,.06,0a.19.19,0,0,1,.08,0s0,0,.06,0,0,0,.08,0a.05.05,0,0,0,.05,0l.08,0H260l.06,0s.05,0,.07,0l0,0,.05.07s0,0,.06.05a0,0,0,0,1,0,0,0,0,0,0,1,0,0l0,.07,0,.07a.16.16,0,0,1,0,.08.19.19,0,0,0,0,.07v.09s0,0,0,.07a.31.31,0,0,1,0,.09.22.22,0,0,0,0,.08v0l-1.13,6.16.12,0A.79.79,0,0,1,259.9,156.78Zm-1.29-5-3.11,3.33,2.42.44Z" style="fill:#263238"></path><path d="M249.9,142.55s2.84.65,3.34.72l3,.44-.05.57s-2.37-.25-3.18-.41-3.25-.77-3.25-.77Z" style="fill:#FFC727"></path><path d="M245.46,160.42s2.85.59,3.34.66l3,.38,0,.57s-2.38-.21-3.19-.35-3.27-.7-3.27-.7Z" style="fill:#FFC727"></path><path d="M264.27,125.4c-3.09-.08-1.94-16.26-5.66-20.54-.25-.28,1-1.45,2.93-5.27,1.14-2.32,2.36-4.93,3.31-7.39L278,100.6s-6.4,10.42-6.42,10.49C271.2,113.13,268.66,125.51,264.27,125.4Z" style="fill:#ad6359"></path><path d="M278,100.6s-6.4,10.42-6.41,10.48c-.05.26-.14.68-.26,1.23-7.42-3.08-9.33-10.09-9.8-12.78,1.14-2.31,2.35-4.89,3.27-7.33Z" style="fill:#263238"></path><path d="M267.39,73.77c-3.95,4.68-7.76,21.47-5.41,26.59,3.4,7.41,12.3,11.78,19.43,6.93,6.92-4.71,11.5-26.68,8.57-31.66C285.66,68.28,273.23,66.84,267.39,73.77Z" style="fill:#ad6359"></path><path d="M278,89.87c0-.05-.09,0-.1.08-.18,1.15-.57,2.43-1.68,2.62,0,0,0,.06,0,.06C277.53,92.69,278,91,278,89.87Z" style="fill:#263238"></path><path d="M277.23,88.48c-1.81-.48-2.64,3.17-1,3.62S278.74,88.89,277.23,88.48Z" style="fill:#263238"></path><path d="M284.77,91.16s.07.07.06.12c-.29,1.12-.44,2.45.5,3.06,0,0,0,.08,0,.06C284.09,93.94,284.31,92.17,284.77,91.16Z" style="fill:#263238"></path><path d="M286,90.21c1.85.27,1.17,4-.55,3.7S284.49,90,286,90.21Z" style="fill:#263238"></path><path d="M276,86.47c.4.33.83.58,1.26.87a2.56,2.56,0,0,0,1.46.65.8.8,0,0,0,.7-.67,2,2,0,0,0-1-1.72,2.84,2.84,0,0,0-2-.61A.84.84,0,0,0,276,86.47Z" style="fill:#263238"></path><path d="M287.79,88.47a14.65,14.65,0,0,1-1.36-.71,2.46,2.46,0,0,1-1.26-1,.79.79,0,0,1,.26-.93,2,2,0,0,1,2,.07,2.91,2.91,0,0,1,1.47,1.46A.85.85,0,0,1,287.79,88.47Z" style="fill:#263238"></path><path d="M274.59,100.12c.21.33.4.76.8.88a3.07,3.07,0,0,0,1.28,0,0,0,0,0,1,0,.07,1.59,1.59,0,0,1-1.58.28,1.23,1.23,0,0,1-.66-1.2C274.47,100.08,274.56,100.08,274.59,100.12Z" style="fill:#263238"></path><path d="M276.55,97a4,4,0,0,0,2.18,2.3,5.36,5.36,0,0,0,1.37.38l.27,0h.26a.28.28,0,0,0,.28-.2h0a.43.43,0,0,0,0-.11h0l0-.1c.22-.87.44-2.21.44-2.21.28.23,1.74,1.33,1.82.87a60.1,60.1,0,0,0,1.16-12,.11.11,0,0,0-.22,0c-.75,3.64-.86,7.39-1.55,11.07a7.07,7.07,0,0,0-1.7-1c-.13,0-.37,2.6-.5,3l0,0a5.49,5.49,0,0,1-3.7-2.15C276.61,96.85,276.5,96.9,276.55,97Z" style="fill:#263238"></path><path d="M279.69,99.13a4.75,4.75,0,0,1-2.15,1,2.1,2.1,0,0,1-1.27-.21c-.85-.44-.68-1.27-.36-2a5,5,0,0,1,.66-1A6.07,6.07,0,0,0,279.69,99.13Z" style="fill:#263238"></path><path d="M277.54,100.13a2.1,2.1,0,0,1-1.27-.21c-.85-.44-.68-1.27-.36-2A2.19,2.19,0,0,1,277.54,100.13Z" style="fill:#ff99ba"></path><path d="M271.39,82.62c-.51,1.36-4.2,5.1-2,5.93,1.42.54,1.56-2.73,1.62-3.78A9.1,9.1,0,0,1,271.39,82.62Z" style="fill:#ebebeb"></path><path d="M274.29,80c-.34.91-2.63,3.49-1.34,4,.83.3,1-1.86,1.08-2.56A6.85,6.85,0,0,1,274.29,80Z" style="fill:#ebebeb"></path><path d="M262.84,84.48c1.22-.17,4.33-3,5.66-4.07s3.55-8,4.15-10a11.41,11.41,0,0,0-5.38,3.48C265.61,75.79,264,80,262.84,84.48Z" style="fill:#263238;opacity:0.2"></path><path d="M284.31,79.84a5.6,5.6,0,0,1-5.4.47,5.66,5.66,0,0,1-3.31-4.42c0-.06-.1,0-.09,0a5.63,5.63,0,0,0,3.21,4.83,5.72,5.72,0,0,0,5.66-.77C284.45,79.9,284.38,79.79,284.31,79.84Z" style="fill:#263238"></path><path d="M282.4,65.08a8.74,8.74,0,0,0-8.17,2,6.19,6.19,0,0,0-1.66,3.76s.11.07.12,0a6.83,6.83,0,0,1,4.75-5.11,8.84,8.84,0,0,1,7.78,1.16A5.6,5.6,0,0,1,287.47,70c0,.13.28.12.27,0C287.43,67.8,285.23,65.79,282.4,65.08Z" style="fill:#263238"></path><path d="M298.59,76.78a7.17,7.17,0,0,0-1.9-4.49c-1.59-1.7-3.79-2.12-6-2.49-.06,0-.07.08,0,.09A9.75,9.75,0,0,1,295.87,72a7,7,0,0,1,2.22,4.13,6.83,6.83,0,0,1-5,7.41,7,7,0,0,1-5.4-.92c-.07,0-.14,0-.08.09a7,7,0,0,0,9.23-1.1A7.1,7.1,0,0,0,298.59,76.78Z" style="fill:#263238"></path><path d="M265.46,76.72s-1.39-6.37,2-8.9c1.9-1.43,6.47.11,6.47.11a8.71,8.71,0,0,1,6.32-2.05c4.13.2,8.1,3.76,8.1,3.76s4.27-1.08,7.17,1.86c4,4.1,1.38,11.25-4.12,12.25-3.86.7-7.63-3.6-7.63-3.6-.46-.07-5.77,1.4-8.07-3.62,0,0-3.49,1.7-5.51-.74A4.19,4.19,0,0,1,265.46,76.72Z" style="fill:#263238"></path><path d="M265.29,87.88s-1.5-6.51-4.31-6.18-3.12,8.78-.83,10.88a3,3,0,0,0,4.29,0Z" style="fill:#ad6359"></path><path d="M261,84.12a0,0,0,0,0,0,.07c1.58,1.54,1.87,3.7,1.83,5.8a1.63,1.63,0,0,0-2.1-1.33.06.06,0,0,0,0,.12,1.82,1.82,0,0,1,1.62,1.35,8.37,8.37,0,0,1,.28,1.86c0,.21.37.24.38,0V92C264,89.56,263.45,85.42,261,84.12Z" style="fill:#263238"></path><path d="M252.57,105.36c3.27,2.42,3.69,7.94-.65,15s-20.22,15.79-23.69,12c-4.76-5.19,8.61-17.87,14-22.16C247.41,106.14,251.13,104.29,252.57,105.36Z" style="fill:#ad6359"></path><path d="M251,103.18c-18-17.78-42.78-30.89-49.83-28.2-10.12,3.85-31.73,22.15-40.27,32.4-2.5,3,21.32,22,24,18.83,3.25-3.89,22.68-22.6,23.1-22.87.92-.59,26.12,9.76,32.72,12.35C252.88,120.44,258.12,110.2,251,103.18Z" style="fill:#ad6359"></path><path d="M158.22,154.36a4.67,4.67,0,0,1-2.87-4.49,6.92,6.92,0,0,1-4.65-.69c-2.45-1.47-1.22-5.94-1.22-5.94a8.54,8.54,0,0,1-4.79-1.51c-2.2-1.64-1.6-6.34-1.6-6.34a7.47,7.47,0,0,1-3.38-4c-1.45-4.58,3.3-10.17,6.29-13.76s14.82-11,16.93-12.58l23.17,19s-8.82,19.89-12.93,23.6C169.7,150.77,161.64,155.63,158.22,154.36Z" style="fill:#ad6359"></path><path d="M155.86,150c4.48-2.44,8-6.08,11.7-9.51.09-.07,0-.2-.12-.12-3.65,3.45-7.94,6.13-11.72,9.44C155.61,149.91,155.74,150.08,155.86,150Z" style="fill:#263238"></path><path d="M149.85,143.41a13,13,0,0,0,2.6-2.31c.86-.88,1.71-1.78,2.54-2.69,1.67-1.82,3.3-3.67,4.87-5.58.07-.08,0-.21-.12-.13-1.67,1.81-3.36,3.6-5.1,5.34-.87.87-1.75,1.73-2.64,2.59a16.26,16.26,0,0,0-2.38,2.53A.18.18,0,0,0,149.85,143.41Z" style="fill:#263238"></path><path d="M143.16,135.32a9,9,0,0,0,2.23-2.21l2.24-2.52c1.51-1.67,3-3.34,4.58-5,.07-.08-.05-.21-.12-.13-1.6,1.64-3.22,3.25-4.8,4.9-.77.81-1.55,1.63-2.31,2.45a8.65,8.65,0,0,0-1.91,2.4A.07.07,0,0,0,143.16,135.32Z" style="fill:#263238"></path><path d="M241.5,116.54l-.94-.58q2.52.87,5.11,1.55s.05-.05,0-.07c-1.86-.78-3.73-1.53-5.63-2.22-.9-.32-1.07-.35-2-.64s-.57.14-.17.34a8.67,8.67,0,0,0,1.63.69c.22.16.43.32.67.47s.76.46,1.16.66c.79.41,1.6.8,2.4,1.18,0,0,0,0,0,0C243,117.49,242.25,117,241.5,116.54Z" style="fill:#263238"></path></g></svg>
