<svg xmlns="http://www.w3.org/2000/svg" viewBox="0 0 500 500"><g id="freepik--Floor--inject-50"><path d="M45.75,458.43c130.86-.61,277.64-.62,408.5,0-130.86.62-277.64.61-408.5,0Z" style="fill:#263238"></path><rect x="43.65" y="458.43" width="412.71" height="7.13" style="fill:#c7c7c7"></rect><path d="M72.58,458.43a11.88,11.88,0,0,1,.49,3.57,11.5,11.5,0,0,1-.49,3.56,11.5,11.5,0,0,1-.49-3.56A11.88,11.88,0,0,1,72.58,458.43Z" style="fill:#263238"></path><path d="M104.84,458.43a12.2,12.2,0,0,1,.49,3.57,11.81,11.81,0,0,1-.49,3.56,13.21,13.21,0,0,1,0-7.13Z" style="fill:#263238"></path><path d="M137.1,458.43a12.2,12.2,0,0,1,.49,3.57,11.81,11.81,0,0,1-.49,3.56,13.21,13.21,0,0,1,0-7.13Z" style="fill:#263238"></path><path d="M169.35,458.43a13.21,13.21,0,0,1,0,7.13,13.21,13.21,0,0,1,0-7.13Z" style="fill:#263238"></path><path d="M201.61,458.43a13.21,13.21,0,0,1,0,7.13,11.81,11.81,0,0,1-.49-3.56A12.2,12.2,0,0,1,201.61,458.43Z" style="fill:#263238"></path><path d="M233.87,458.43a11.88,11.88,0,0,1,.49,3.57,11.5,11.5,0,0,1-.49,3.56,11.5,11.5,0,0,1-.49-3.56A11.88,11.88,0,0,1,233.87,458.43Z" style="fill:#263238"></path><path d="M266.13,458.43a11.88,11.88,0,0,1,.49,3.57,11.5,11.5,0,0,1-.49,3.56,11.5,11.5,0,0,1-.49-3.56A11.88,11.88,0,0,1,266.13,458.43Z" style="fill:#263238"></path><path d="M298.39,458.43a12.2,12.2,0,0,1,.49,3.57,11.81,11.81,0,0,1-.49,3.56,13.21,13.21,0,0,1,0-7.13Z" style="fill:#263238"></path><path d="M330.65,458.43a13.21,13.21,0,0,1,0,7.13,13.21,13.21,0,0,1,0-7.13Z" style="fill:#263238"></path><path d="M362.9,458.43a13.21,13.21,0,0,1,0,7.13,11.81,11.81,0,0,1-.49-3.56A12.2,12.2,0,0,1,362.9,458.43Z" style="fill:#263238"></path><path d="M395.16,458.43a13.21,13.21,0,0,1,0,7.13,11.81,11.81,0,0,1-.49-3.56A12.2,12.2,0,0,1,395.16,458.43Z" style="fill:#263238"></path><path d="M427.42,458.43a11.88,11.88,0,0,1,.49,3.57,11.5,11.5,0,0,1-.49,3.56,11.5,11.5,0,0,1-.49-3.56A11.88,11.88,0,0,1,427.42,458.43Z" style="fill:#263238"></path></g><g id="freepik--fire-hydrant--inject-50"><rect x="56.06" y="384.33" width="39.78" height="73.89" style="fill:#FFC727"></rect><rect x="53.41" y="381.41" width="45.07" height="2.91" style="fill:#FFC727"></rect><rect x="53.41" y="376.62" width="45.07" height="2.91" style="fill:#FFC727"></rect><rect x="56.06" y="379.54" width="39.78" height="1.88" style="fill:#FFC727"></rect><rect x="56.06" y="379.54" width="39.78" height="1.88" style="opacity:0.1"></rect><path d="M95.81,376.63H56.09a19.89,19.89,0,0,1,39.72,0Z" style="fill:#FFC727"></path><path d="M95.81,376.63H56.09a16.8,16.8,0,0,1,.29-2.48l38.52-2.51A20,20,0,0,1,95.81,376.63Z" style="opacity:0.1"></path><polygon points="95.84 384.32 95.84 388.69 56.06 390.56 56.06 384.32 95.84 384.32" style="opacity:0.1"></polygon><rect x="60.49" y="394.18" width="3.42" height="59.5" style="opacity:0.1"></rect><rect x="67.36" y="394.18" width="3.42" height="59.5" style="opacity:0.1"></rect><rect x="74.24" y="394.18" width="3.42" height="59.5" style="opacity:0.1"></rect><rect x="81.11" y="394.18" width="3.42" height="59.5" style="opacity:0.1"></rect><rect x="87.98" y="394.18" width="3.42" height="59.5" style="opacity:0.1"></rect><rect x="49.03" y="398.37" width="7.03" height="18.24" style="fill:#FFC727"></rect><rect x="46.35" y="399.91" width="2.68" height="15.62" style="fill:#FFC727"></rect><rect x="46.35" y="399.91" width="2.68" height="15.62" style="opacity:0.1"></rect><path d="M46.35,403.14v8.7a4.36,4.36,0,0,1,0-8.7Z" style="fill:#FFC727"></path><polygon points="56.06 398.36 56.06 416.61 54.42 416.61 51.54 398.36 56.06 398.36" style="opacity:0.1"></polygon><rect x="95.84" y="398.37" width="7.03" height="18.24" transform="translate(198.71 814.98) rotate(180)" style="fill:#FFC727"></rect><rect x="102.87" y="399.91" width="2.68" height="15.62" transform="translate(208.42 815.45) rotate(180)" style="fill:#FFC727"></rect><rect x="102.87" y="399.91" width="2.68" height="15.62" transform="translate(208.42 815.45) rotate(180)" style="opacity:0.1"></rect><path d="M105.55,403.14v8.7a4.36,4.36,0,0,0,0-8.7Z" style="fill:#FFC727"></path><polygon points="95.84 398.36 95.84 416.61 97.47 416.61 100.35 398.36 95.84 398.36" style="opacity:0.1"></polygon><circle cx="75.95" cy="407.49" r="13.74" transform="translate(-265.89 173.05) rotate(-45)" style="fill:#FFC727"></circle><path d="M85.37,407.49A9.43,9.43,0,1,1,76,398.06,9.42,9.42,0,0,1,85.37,407.49Z" style="opacity:0.1"></path><rect x="74.61" y="350.26" width="2.68" height="15.62" transform="translate(434.02 282.12) rotate(90)" style="fill:#FFC727"></rect><rect x="74.61" y="350.26" width="2.68" height="15.62" transform="translate(434.02 282.12) rotate(90)" style="opacity:0.1"></rect><path d="M80.54,356.73h-8.7a4.36,4.36,0,0,1,8.7,0Z" style="fill:#FFC727"></path></g><g id="freepik--Character--inject-50"><path d="M225.91,446.75c-2.2-.76-52.26-39.31-53.24-42-.38-1,4.81-8.64,11.35-17.67l.21-.28c1.34-1.86,25.43-32.95,25.43-32.95l32.93,26L216.8,411.33l-.43.54s12.56,23.33,13.32,26.38S228.11,447.52,225.91,446.75Z" style="fill:#ad6359"></path><path d="M172.68,404.76c1,2.68,51,41.24,53.23,42s4.53-5.45,3.78-8.5-13.32-26.39-13.32-26.39l.44-.53,3.18-3.4-32.31-25.64c-1.07,1.25-3.26,4.25-3.45,4.52-.08.09-.14.19-.21.28C177.48,396.13,172.28,403.75,172.68,404.76Z" style="fill:#ebebeb"></path><path d="M226.43,447c-2.22-.75-53-39.23-54-41.92-.46-1.24,7.27-12.37,15.67-23.94l33.09,24.93L216.54,412s12.84,23.42,13.63,26.49S228.65,447.79,226.43,447Z" style="fill:#FFC727"></path><path d="M227.24,444.46c-8.35-6.66-42.65-32.73-51.41-38.68-.07,0-.1,0,0,.06,8.13,6.78,42.65,32.56,51.35,38.75C227.32,444.73,227.42,444.6,227.24,444.46Z" style="fill:#263238"></path><path d="M228.29,434.14a8.56,8.56,0,0,0-6.66-1.78,8.31,8.31,0,0,0-5.35,3.1c0,.05.06.12.11.08a9.9,9.9,0,0,1,11.82-1.29C228.28,434.29,228.36,434.19,228.29,434.14Z" style="fill:#263238"></path><path d="M194.09,373.25l32.19,26.8s51.57-60.85,53.46-70c2.15-10.39,8.13-91.76,8-95.82-.17-4.92-5.59-26.53-5.59-26.53H243.51s-5.4,106.42-6.53,109.71C235.77,321,194.09,373.25,194.09,373.25Z" style="fill:#37474f"></path><polygon points="190.68 378.34 195.2 369.8 228.67 399.14 222.09 404.91 190.68 378.34" style="fill:#455a64"></polygon><path d="M229.33,392c-5-4.81-24.41-20.23-26.82-21.5-.06,0-.13.07-.09.11,1.76,2.09,18.28,15.66,26.78,21.55C229.29,392.2,229.41,392.06,229.33,392Z" style="fill:#263238"></path><path d="M284.06,223.71a11.28,11.28,0,0,0-1.58-.37,9.45,9.45,0,0,1-1.62-.62,12.33,12.33,0,0,1-3-2.11,11.2,11.2,0,0,1-2.29-3.68c-.34-.78-1.91-4.92-1.93-5s-.16,0-.14.06c.11.57,1.19,4.15,1.51,5.05a11.66,11.66,0,0,0,2.39,4.27,9.39,9.39,0,0,0,3.29,2.22,7.41,7.41,0,0,0,1.77.48,2.87,2.87,0,0,0,1.62-.1C284.19,223.92,284.13,223.74,284.06,223.71Z" style="fill:#263238"></path><path d="M249.89,209.59,249.07,231l-.92,21.37-2.06,42.73c-.38,7.12-.76,14.23-1.21,21.36,0,.88-.12,1.79-.21,2.7a1.09,1.09,0,0,1-.09.41,2.28,2.28,0,0,1-.17.35c-.11.2-.23.4-.36.59-.24.38-.5.75-.76,1.12-1,1.46-2.11,2.89-3.19,4.31-2.15,2.84-4.37,5.63-6.59,8.43q-6.66,8.35-13.43,16.65l-13.62,16.48,13.28-16.75c4.43-5.59,8.86-11.18,13.23-16.81q3.28-4.22,6.51-8.47c1.07-1.42,2.14-2.85,3.15-4.3.26-.37.51-.73.74-1.1s.52-.73.5-1c.07-.85.14-1.72.18-2.62.42-7.11.78-14.23,1.14-21.35l2.25-42.71,1.18-21.36Z" style="fill:#263238"></path><path d="M280.52,324.39c-.29,2.62-.54,4.57-.77,5.67-1.07,5.13-17.8,26.57-32.26,44.39l-9.92-62.39c1.76-22.14,5.94-104.36,5.94-104.36h19.25Z" style="fill:#263238"></path><path d="M336.29,445.06c-2,1.13-64.19,12.57-66.83,11.5-1-.38-3.21-9.34-5.55-20.24,0-.12,0-.23-.07-.35-.49-2.24-7.49-40.94-7.49-40.94l38.42-6.57,9.08,39.68.11.69s25.75,6.26,28.53,7.74S338.32,443.94,336.29,445.06Z" style="fill:#ad6359"></path><path d="M269.46,456.56c2.65,1.08,64.79-10.37,66.83-11.5s-1-7-3.8-8.49S304,428.82,304,428.82l-.1-.68-.4-4.64-40.67,6.88c.21,1.64,1,5.27,1,5.6,0,.11.05.22.07.34C266.26,447.22,268.45,456.18,269.46,456.56Z" style="fill:#ebebeb"></path><path d="M336.84,444.86C334.8,446,272.26,458,269.58,457c-1.23-.48-4.34-13.67-7.32-27.66l40.66-7.93,1.22,7.37s26,6.12,28.81,7.58S338.89,443.71,336.84,444.86Z" style="fill:#FFC727"></path><path d="M335.47,442.53c-10.54,1.76-52.85,9.83-63.13,12.37-.09,0-.08.08,0,.07,10.48-1.52,52.73-9.93,63.15-12.26C335.72,442.66,335.69,442.5,335.47,442.53Z" style="fill:#263238"></path><path d="M328.5,434.85a8.58,8.58,0,0,0-5.78,3.77,8.32,8.32,0,0,0-1.27,6.05c0,.06.13,0,.13,0a9.89,9.89,0,0,1,6.94-9.65A.07.07,0,0,0,328.5,434.85Z" style="fill:#263238"></path><path d="M275.25,207.71s-1,16.51-5.58,28.28c0,0-6.57,4.1-7.26,4.74l39.14,176.32-40.13,7.8s-15.77-85.42-17.11-91.27c-2.16-9.4-19.2-89.34-19.95-93.88-1.58-9.5,7.19-32,7.19-32Z" style="fill:#37474f"></path><path d="M297.45,408.24c-11,1.65-32.14,6.13-34.73,7.2a.08.08,0,0,0,0,.14c2.81,0,28.51-5.14,34.74-7.14C297.6,408.41,297.57,408.22,297.45,408.24Z" style="fill:#263238"></path><path d="M236.49,223.71c.8-.18,1.66-.12,2.47-.23a20.07,20.07,0,0,0,2.55-.47,19,19,0,0,0,4.57-1.87,9.72,9.72,0,0,0,3.31-3.52c.47-.75,2.6-4.81,2.62-4.84s.26,0,.24.08c-.12.57-1.52,4.1-1.95,5a9.52,9.52,0,0,1-3.42,4.11,15.08,15.08,0,0,1-5.06,2,15.38,15.38,0,0,1-2.79.31,7.06,7.06,0,0,1-2.59-.24C236.3,223.92,236.37,223.74,236.49,223.71Z" style="fill:#263238"></path><path d="M270.63,235.55a66.31,66.31,0,0,0-10.58,4.81.12.12,0,0,0,.1.21c3.56-1.49,7.19-2.91,10.67-4.6A.23.23,0,0,0,270.63,235.55Z" style="fill:#263238"></path><path d="M272,211.2c0-.12-.23-.15-.23,0,0,4.22-.31,7.92-.7,11.86-.18,1.82-1.74,11.91-4.91,11.15-.53-.13-.79-.66-.87-1.46a12.61,12.61,0,0,1,.45-3.09c.37-2.11.67-4.23.87-6.37a57.51,57.51,0,0,0,0-12,.1.1,0,0,0-.2,0,110.9,110.9,0,0,1-1.11,16.49c-.43,2.62-1.78,6.57,1,7s4.67-6.18,5-8A60.63,60.63,0,0,0,272,211.2Z" style="fill:#263238"></path><path d="M266.23,234.46a17.29,17.29,0,0,0-.74,2.09,4.84,4.84,0,0,0-.31,1.72c0,.11.16.12.22,0a5.8,5.8,0,0,0,.75-1.66c.25-.65.51-1.29.74-1.94A.35.35,0,0,0,266.23,234.46Z" style="fill:#263238"></path><path d="M234.84,207.71q-1.65,6.27-3.07,12.61c-.94,4.22-1.84,8.46-2.37,12.74l-.14,1.61c0,.53,0,1.06,0,1.6l.47,3.17,1.21,6.37,2.58,12.73,10.61,50.84,10.62,50.83L260,385.64l5.2,25.44-5.64-25.34L254,360.36l-10.82-50.8c-3.51-16.95-7.05-33.9-10.4-50.89l-2.47-12.75-1.15-6.39-.45-3.25A29.43,29.43,0,0,1,229,233c.61-4.31,1.58-8.53,2.59-12.74S233.67,211.88,234.84,207.71Z" style="fill:#263238"></path><polygon points="261.99 428.36 258.01 419.55 301.7 411.08 302.24 419.82 261.99 428.36" style="fill:#455a64"></polygon><path d="M314.8,131.28l-8.61,26.83c-.35.78,0,1.45.8,1.5l14.07.9a2.29,2.29,0,0,0,2.05-1.32l8.61-26.83c.34-.79,0-1.46-.81-1.51l-14.07-.9A2.27,2.27,0,0,0,314.8,131.28Z" style="fill:#37474f"></path><path d="M316.47,131.37l-8.61,26.83a1,1,0,0,0,.8,1.51l14.07.89a2.29,2.29,0,0,0,2-1.32l8.61-26.83c.34-.78,0-1.46-.8-1.51l-14.08-.9A2.29,2.29,0,0,0,316.47,131.37Z" style="fill:#455a64"></path><path d="M320.25,132.86a1.2,1.2,0,0,1-2.39-.2,1.2,1.2,0,1,1,2.39.2Z" style="fill:#263238"></path><path d="M268.37,165.56c6.72,17.52,23.88,40.67,31.26,41.3,3.52.31,10.2,1.38,15.11-2.32,10.71-8.09,21.34-22.13,23.76-31.66.86-3.39-15.31-12-18-9.43-6.25,6.13-16,19.41-17,19.26-3.76-.57-17.21-15.08-27.72-22.88C264.72,151.58,265.69,158.57,268.37,165.56Z" style="fill:#ad6359"></path><path d="M340.2,155.17c-1.26-7.11-2.67-8.73-.56-15.29,1.39-4.31-.76-7-4.12-3.75-5.5,5.38-5.79,14.88-4.95,18.21Z" style="fill:#ad6359"></path><path d="M337.46,175.82s3.82-9.49,3.23-17.2c-.41-5.32-2.6-16.81-16.91-23.82-3.4-1.67-9.42-1.63-4.86,3.1,3.24,3.36,6.31,4.52,7.83,6.81,0,0-7.65,1-9.18,4.42a69.48,69.48,0,0,0-3.37,9.35,15.51,15.51,0,0,0,1.69.78s-1.12,3.38,1,8.34Z" style="fill:#ad6359"></path><path d="M339.48,153.61c-2-2-6.3-6.05-11-8.17-5.2-2.35-15.86-5.48-17.55-1.62-1.25,2.83,2.72,4.38,2.72,4.38s-4.68-.36-5.24,2.44c-.52,2.55,2.62,3.57,2.62,3.57s-2.88.26-2.9,2.82c0,3.07,6,2,8.67,5.14C317.41,162.88,339.48,153.61,339.48,153.61Z" style="fill:#ad6359"></path><path d="M326.93,151.35a22.79,22.79,0,0,0-13.17-3.22c-.12,0-.17.11-.06.12a56.17,56.17,0,0,1,13.21,3.15S327,151.37,326.93,151.35Z" style="fill:#263238"></path><path d="M324.4,156.54a25.45,25.45,0,0,0-13.33-2.44c-.12,0-.17.12-.06.13a59.61,59.61,0,0,1,13.38,2.36A0,0,0,0,0,324.4,156.54Z" style="fill:#263238"></path><path d="M313.64,169.81l19.88,20s-16.49,15.85-21,17.41c-4.81,1.68-12.75,3.78-18.72-1.87s-18.35-23.75-25.78-37.8.65-13.88,6.82-9.14,28,24,28.73,23.51S313.64,169.81,313.64,169.81Z" style="fill:#FFC727"></path><path d="M317.9,203.71a24.23,24.23,0,0,1-5.36,3.53c-4.82,1.68-12.76,3.78-18.72-1.87s-18.35-23.75-25.78-37.8c-5.39-10.2-2.62-12.9,1.67-11.81Z" style="opacity:0.1"></path><path d="M327.27,192.2c-1.51-.95-10.38-9.23-15.9-15.7-.09-.1,0-.19.14-.1.69.65,14.9,14.22,15.94,15.66C327.54,192.18,327.38,192.27,327.27,192.2Z" style="fill:#263238"></path><path d="M281.67,196.21l.76,11.62H231.34s6.79-35.84,22-50c7.6-7.06,15.78-5.85,20.61-.12,1.23,1.45,11.19,17.83,12.24,25.95C287.08,190.86,281.67,196.21,281.67,196.21Z" style="fill:#fff"></path><path d="M267.54,153s5.75,65.52,3.14,106.71c-.87,13.71-4.05,31.54-4.64,32.34-1.88,2.55-55.1-5.87-55.1-5.87s13.68-65.64,19-77.44C229.94,208.74,239.4,149.73,267.54,153Z" style="fill:#FFC727"></path><path d="M267.54,153s2.6,65.62,3.14,106.71c.24,18.43,1.34,31.18,1.91,31.93,1.21,1.58,21.23-3.58,21.23-3.58L283.76,195s3.87-5.87,3.44-11.31c-.28-3.51-6.81-17.56-12.42-25.38C271.7,154,268.57,153,267.54,153Z" style="fill:#FFC727"></path><path d="M274,192.72a56.48,56.48,0,0,0-8.38,1.45c-1.37.36-2.71.79-4,1.24-.67.23-1.34.43-2,.63a8.88,8.88,0,0,1-2.16.42.06.06,0,0,0,0,.11,16,16,0,0,0,2.08-.06,17.06,17.06,0,0,0,2-.39c1.38-.36,2.75-.78,4.14-1.14,2.79-.75,5.58-1.49,8.41-2C274.18,192.93,274.14,192.7,274,192.72Z" style="fill:#263238"></path><path d="M281,195.16a63.28,63.28,0,0,0-7-.28c-1.17,0-2.33.12-3.5.24-.55.06-1.11.13-1.66.21s-1.21.25-1.82.32c-.07,0-.07.11,0,.1.58-.05,1.17,0,1.75,0l1.75-.06c1.16,0,2.33-.06,3.5-.11,2.34-.1,4.66-.18,7-.2A.1.1,0,0,0,281,195.16Z" style="fill:#263238"></path><path d="M270.88,161.21c1.24,5.59,2.49,11.17,3.55,16.79.52,2.82,1.09,5.61,1.39,8.49a20.35,20.35,0,0,1-1.49,8.41c-1,20.74-2.25,44.43-3.65,65.09.7-20.68,1.85-44.41,3-65.12a21.2,21.2,0,0,0,1.57-8.34c-.24-2.81-.77-5.64-1.24-8.45-1-5.63-2-11.26-3.12-16.87Z" style="fill:#263238"></path><path d="M249.89,158.42c-17.95,11.94-41.76,41.06-39.62,48.19,2.39,7.95,27.41-8.82,27.58-10.07.14-.94,12-16.2,19.8-31.44C264.61,151.45,254.32,155.47,249.89,158.42Z" style="fill:#FFC727"></path><path d="M240.88,192.33c4.4-7.39,9.67-15.24,14.25-22.52a210.32,210.32,0,0,1-14.25,22.52Z" style="fill:#263238"></path><path d="M252.67,174.06c.75-.94,1.66-1.71,2.35-2.69a5.9,5.9,0,0,1-2.35,2.69Z" style="fill:#263238"></path><path d="M271.67,164a31.93,31.93,0,0,0,4.73-10c.26-1.23,9.27-2.17,12.36-8,2.67-5,1.32-21.4-2.28-28.79s-21.31,32-21.31,32Z" style="fill:#FFC727"></path><path d="M271.08,162.63c2.29-3,4.26-9.15,4.48-10.19s8.18-2.45,10.79-7.36c2.25-4.24,1.77-18.07-1.26-24.29s-19.34,29.53-19.34,29.53Z" style="opacity:0.1"></path><path d="M259.89,154.31c.12,1.15,6,8.76,11.1,9.18,1.66.13,1.29-8.62,1.29-8.62l.23-.65,3.31-9.08-10.06-8.48-1.47-1.14s-.74,2.55-1.63,5.72c0,.15-.09.3-.13.46s-.11.34-.15.51c-.14.47-.28,1-.41,1.44s-.2.73-.29,1.12-.19.77-.29,1.16A62.66,62.66,0,0,0,259.89,154.31Z" style="fill:#ad6359"></path><path d="M262.66,141.24a19.39,19.39,0,0,0,9.85,13l3.31-9.08-10.06-8.48-1.47-1.14S263.55,138.07,262.66,141.24Z" style="fill:#263238"></path><path d="M289.11,129c2.5,16.78-7.26,20.17-10.88,20.7-3.28.49-14.53,1.73-18.75-14.7s2.79-22.89,10.24-24.4S286.61,112.26,289.11,129Z" style="fill:#ad6359"></path><path d="M286.75,127.87a11.66,11.66,0,0,1-1.17-.14,2,2,0,0,1-1.15-.38.59.59,0,0,1-.06-.73,1.46,1.46,0,0,1,1.44-.47,2.18,2.18,0,0,1,1.44.66A.64.64,0,0,1,286.75,127.87Z" style="fill:#263238"></path><path d="M275.64,128.56a11,11,0,0,0,1.12-.33,2,2,0,0,0,1.08-.56.6.6,0,0,0-.06-.74,1.49,1.49,0,0,0-1.5-.22,2.24,2.24,0,0,0-1.31.88A.64.64,0,0,0,275.64,128.56Z" style="fill:#263238"></path><path d="M278.41,132.64s-.08.06-.08.11c.16,1.14.15,2.48-.85,3,0,0,0,.07,0,.06C278.74,135.47,278.74,133.69,278.41,132.64Z" style="fill:#263238"></path><path d="M277.26,131.54c-1.87.06-1.62,3.78.11,3.73S278.82,131.5,277.26,131.54Z" style="fill:#263238"></path><path d="M276.54,131.79c-.31.23-.61.62-1,.69s-.82-.29-1.14-.65c0,0-.07,0-.07,0,0,.71.36,1.43,1.14,1.48s1.16-.61,1.29-1.34C276.79,131.88,276.66,131.7,276.54,131.79Z" style="fill:#263238"></path><path d="M284.9,132.09s.09,0,.1.1c0,1.15.26,2.47,1.32,2.79,0,0,0,.07,0,.07C285,134.94,284.74,133.19,284.9,132.09Z" style="fill:#263238"></path><path d="M285.86,130.83c1.85-.25,2.21,3.46.5,3.69S284.31,131,285.86,130.83Z" style="fill:#263238"></path><path d="M286.66,131c.31.16.63.49,1,.48s.67-.44.89-.85c0,0,0,0,.06,0,.09.71-.07,1.47-.74,1.67s-1.13-.37-1.37-1.06C286.45,131.14,286.53,130.93,286.66,131Z" style="fill:#263238"></path><path d="M278.18,141.72c.26.29.51.68.92.74a3,3,0,0,0,1.26-.2s.08,0,.05.06a1.54,1.54,0,0,1-1.51.52,1.21,1.21,0,0,1-.83-1.08C278.06,141.69,278.15,141.68,278.18,141.72Z" style="fill:#263238"></path><path d="M283.07,137.61s.21,1.72.2,2.54c0,.07-.2.11-.47.12h0a3.86,3.86,0,0,1-3.73-1.49.08.08,0,0,1,.12-.11,5.77,5.77,0,0,0,3.52,1.05c.06-.22-.47-2.94-.34-2.95a7.1,7.1,0,0,1,1.84.44c-.34-3.61-1.26-7.14-1.55-10.74,0-.13.18-.17.21,0a58.44,58.44,0,0,1,2.17,11.5C285.06,138.38,283.39,137.75,283.07,137.61Z" style="fill:#263238"></path><path d="M259.26,134.52c2.81.36,3.75-5.52,3.75-5.52s5.72.31,8-7.84a12.7,12.7,0,0,1-2.87,6.69s10.15-.57,14.82-8.81c0,0-1.91,4.22-3.57,5.67,0,0,4.29-1,6.53-4.31,0,0,1.52,5,2.82,6.38,0,0,.46-17.69-16-16.62,0,0-10.28.17-14.36,8.1S259.26,134.52,259.26,134.52Z" style="fill:#263238"></path><path d="M262.91,135.07s-4-5.06-6.34-3.6.94,9,3.81,9.83a2.87,2.87,0,0,0,3.75-1.77Z" style="fill:#ad6359"></path><path d="M257.56,133.6a0,0,0,0,0,0,.07c2,.68,3.17,2.45,4,4.3a1.6,1.6,0,0,0-2.4-.29s0,.12.06.11a1.76,1.76,0,0,1,2,.49,9.09,9.09,0,0,1,1,1.51c.11.17.42.06.34-.14l0-.05C262.45,137.09,260.27,133.68,257.56,133.6Z" style="fill:#263238"></path><path d="M271.67,164c-1-5.08-5.59-12.28-7.8-17.75S261.08,133,263,124.86s10.86-14.35,14.34-14.26,7.67,4.3,9.66,7.65c0,0-4.2-10.39-11.45-11.09-10.25-1-24.24,6-29.39,15s-9.13,27-5.15,32.14,14.61.75,15.75,1.68a76.75,76.75,0,0,0,10.05,6.84C270,164.4,271.67,164,271.67,164Z" style="fill:#FFC727"></path><path d="M256.77,156c4.11,2.66,7.91,5.91,12.47,7.76-4.8-1.2-8.81-4.57-12.47-7.76Z" style="fill:#263238"></path><path d="M264.68,161.64A11.76,11.76,0,0,0,267.8,164a4.8,4.8,0,0,1-3.12-2.34Z" style="fill:#263238"></path><rect x="255.51" y="66.45" width="3.75" height="146.46" transform="translate(-20.31 46.71) rotate(-9.98)" style="fill:#dbdbdb"></rect><polygon points="246 54.85 239.15 56.05 237.29 37.45 241.39 36.73 246 54.85" style="fill:#dbdbdb"></polygon><path d="M286.07,230c-9.91,1.75-16.45-5-17.79-12.67l-1.72-9.76,5.39-1,1.72,9.77c.65,3.69,3.79,9.57,11.45,8.22,6.79-1.19,7.8-8.33,7.22-11.6l-1.62-9.23,5.39-.95,1.62,9.23a17.74,17.74,0,0,1-1.47,10.21A13.49,13.49,0,0,1,286.07,230Z" style="fill:#a6a6a6"></path><path d="M355.37,96.48s-16.7-4.27-26.25-2.32-25.82,11.48-25.82,11.48-16.93-3.41-26.79-1.94S253,114.49,253,114.49s-16.06-4.11-25.82-2.1-24.5,11-24.5,11-18.57-3.39-28.21-2-23.88,11.14-23.88,11.14c10.33-34.55,42.39-73.17,91.2-81.76S333.88,67.52,355.37,96.48Z" style="fill:#455a64"></path><g style="opacity:0.1"><path d="M355.37,96.48c-4.06-3.37-8.16-6.68-12.35-9.87s-8.38-6.38-12.69-9.4c-8.61-6-17.42-11.85-26.88-16.37a62.2,62.2,0,0,0-14.69-5.29c-5.13-1.15-10.32-1.95-15.53-2.7s-10.44-1.24-15.69-1.58-10.52-.56-15.79-.52a184.66,184.66,0,0,1,31.62,1c5.25.58,10.48,1.44,15.65,2.52a63.45,63.45,0,0,1,15,5.28,144.37,144.37,0,0,1,13.83,7.81c4.46,2.83,8.84,5.79,13.07,9A283.65,283.65,0,0,1,355.37,96.48Z"></path><path d="M303.28,105.64c-1.52-3.24-3.14-6.44-4.9-9.55s-3.54-6.2-5.5-9.18C289,81,284.71,75.15,279.43,70.48s-11.58-8.19-17.94-11.38c-3.19-1.61-6.45-3.07-9.75-4.44s-6.62-2.7-10-3.91A132,132,0,0,1,262,58.13a80.51,80.51,0,0,1,18.4,11.3,37.92,37.92,0,0,1,3.85,3.86c1.21,1.34,2.34,2.74,3.46,4.16a96,96,0,0,1,6.13,8.88A116,116,0,0,1,303.28,105.64Z"></path><path d="M253,114.49c-1.22-5.26-2.29-10.55-3.33-15.84s-2-10.6-3-15.91-1.83-10.63-2.65-16l-1.21-8c-.35-2.68-.75-5.34-1.06-8,.62,2.63,1.15,5.28,1.73,7.91l1.6,7.94c1,5.29,2,10.6,3,15.9s1.82,10.63,2.64,16S252.31,109.13,253,114.49Z"></path><path d="M150.55,132.51a286.76,286.76,0,0,1,16.08-27.25c2.9-4.42,6-8.7,9.23-12.89a142.42,142.42,0,0,1,10.33-12.05,63.43,63.43,0,0,1,12.33-10.1c4.49-2.78,9.11-5.37,13.85-7.71a184.72,184.72,0,0,1,29.38-11.76q-7.45,2.66-14.67,5.88c-4.82,2.11-9.57,4.39-14.21,6.84s-9.25,5-13.68,7.84a62.54,62.54,0,0,0-12,10c-7.35,7.48-13.65,16-19.68,24.57-3,4.31-5.91,8.71-8.72,13.16S153.21,128,150.55,132.51Z"></path><path d="M202.64,123.35A116.7,116.7,0,0,1,205,102a97.22,97.22,0,0,1,2.72-10.45c.57-1.71,1.16-3.41,1.85-5.09a36.18,36.18,0,0,1,2.3-4.93,80.32,80.32,0,0,1,13.43-16.9,131,131,0,0,1,16.48-13.84c-2.76,2.29-5.46,4.64-8.07,7.08s-5.2,4.91-7.65,7.5c-4.88,5.18-9.57,10.63-13,16.83s-5.36,13.13-7,20q-1.23,5.2-2,10.51C203.39,116.23,203,119.78,202.64,123.35Z"></path></g><path d="M210.79,208.21c4.94,3.47,15.91,1.62,39.55-2.07,3.28-.52,4.08-25.06.56-24.7-4.44.47-21.56,3.22-22.78,3.58C217.78,188.05,207.44,205.86,210.79,208.21Z" style="fill:#ad6359"></path><path d="M280.15,178.69a3.8,3.8,0,0,1-.7,4.3,5.68,5.68,0,0,1,2.46,3c.68,2.23-2.51,4.28-2.51,4.28a7,7,0,0,1,2.09,3.54c.44,2.2-2.49,4.73-2.49,4.73a6.13,6.13,0,0,1-.12,4.28c-1.62,3.58-7.57,4.39-11.35,4.94s-15-1.43-17.19-1.59l-3.73-24.22s16.24-7.29,20.77-7.31C271.2,174.6,278.77,176.05,280.15,178.69Z" style="fill:#ad6359"></path><path d="M279.22,182.63c-4.07-1-8.19-.66-12.33-.61-.09,0-.09.15,0,.15,4.12-.11,8.2.6,12.31.66A.1.1,0,0,0,279.22,182.63Z" style="fill:#263238"></path><path d="M279.27,189.94a10.87,10.87,0,0,0-2.85,0c-1,.07-2,.15-3,.25-2,.2-4,.44-6,.74-.09,0-.09.15,0,.14,2-.19,4-.35,6-.46l3-.14a12.25,12.25,0,0,0,2.84-.24A.14.14,0,0,0,279.27,189.94Z" style="fill:#263238"></path><path d="M278.92,198.52a7.68,7.68,0,0,0-2.57.12c-.91.11-1.83.22-2.74.31-1.83.2-3.66.4-5.5.53-.09,0-.09.15,0,.14,1.86-.12,3.73-.22,5.59-.36l2.75-.23a7.09,7.09,0,0,0,2.47-.42A0,0,0,0,0,278.92,198.52Z" style="fill:#263238"></path><path d="M247,181.1l3.77,26.73s-37.55,5.58-39.93.38,6.08-19.28,15.16-22.86C230.79,183.44,247,181.1,247,181.1Z" style="fill:#FFC727"></path><path d="M222.11,187.49c3.17-3,7.94-3.58,12.06-4.41,3.75-.62,9.16-1.69,12.82-2l0,.63-.13-.62c-3.32,1-9,2-12.62,2.72-4.11.77-8.71,1.13-12.18,3.67Z" style="fill:#263238"></path><path d="M244.85,206.57c-.59-1.68-2.36-13.68-2.65-22.18,0-.13.16-.13.18,0,.13.94,2.78,20.41,2.7,22.19C245.07,206.72,244.89,206.69,244.85,206.57Z" style="fill:#263238"></path><path d="M229.37,210.13c5.11-.83,10.83-1.38,16-1.87,1.78-.15,3.58-.28,5.32-.54l-.08.12c-.05-.56-.09-1.13-.12-1.69.13.58.25,1.17.37,1.76l-.1,0a113.63,113.63,0,0,1-21.39,2.19Z" style="fill:#263238"></path></g><g id="freepik--Rain--inject-50"><path d="M396.94,211c5.13,7.54,10.47,16,15,23.92-5.13-7.54-10.46-16-15-23.92Z" style="fill:#263238"></path><path d="M126.8,88c11.32,16.85,23.48,35.57,34.25,52.78C149.72,123.91,137.57,105.19,126.8,88Z" style="fill:#263238"></path><path d="M204.94,230.58c11.33,16.84,23.48,35.57,34.26,52.77-11.33-16.84-23.48-35.57-34.26-52.77Z" style="fill:#263238"></path><path d="M381.42,162.32c11.32,16.85,23.48,35.57,34.25,52.78-11.33-16.85-23.48-35.58-34.25-52.78Z" style="fill:#263238"></path><path d="M215,165.94c11.32,16.85,23.47,35.57,34.25,52.78C238,201.87,225.81,183.15,215,165.94Z" style="fill:#263238"></path><path d="M77.53,324.09c11.33,16.85,23.48,35.57,34.26,52.78C100.46,360,88.31,341.29,77.53,324.09Z" style="fill:#263238"></path><path d="M314.34,170.42c14.06,21.1,29.54,45,43.09,66.4-14.06-21.1-29.55-45-43.09-66.4Z" style="fill:#263238"></path><path d="M168.7,46.52c14.06,21.1,29.55,45,43.09,66.4-14.06-21.11-29.54-45-43.09-66.4Z" style="fill:#263238"></path><path d="M405.75,392c14.06,21.1,29.55,45,43.09,66.4-14.06-21.1-29.54-45-43.09-66.4Z" style="fill:#263238"></path><path d="M403.43,264c14.06,21.1,29.55,45,43.09,66.4-14.06-21.1-29.54-45-43.09-66.4Z" style="fill:#263238"></path><path d="M321,332.91c14.06,21.1,29.54,45,43.09,66.4-14.06-21.1-29.55-45-43.09-66.4Z" style="fill:#263238"></path><path d="M104,392c14.06,21.1,29.55,45,43.1,66.4-14.07-21.1-29.55-45-43.1-66.4Z" style="fill:#263238"></path><path d="M334.81,53.33c11.32,16.84,23.48,35.57,34.25,52.77-11.32-16.84-23.48-35.57-34.25-52.77Z" style="fill:#263238"></path><path d="M140.67,275.88c11.33,16.84,23.48,35.57,34.25,52.77-11.32-16.84-23.47-35.57-34.25-52.77Z" style="fill:#263238"></path><path d="M327,269.28c11.32,16.85,23.47,35.57,34.25,52.78-11.33-16.85-23.48-35.57-34.25-52.78Z" style="fill:#263238"></path><path d="M272.8,309.06c11.32,16.85,23.48,35.57,34.25,52.78-11.33-16.85-23.48-35.58-34.25-52.78Z" style="fill:#263238"></path><path d="M69.94,162c11.32,16.85,23.48,35.57,34.25,52.78C92.86,197.88,80.71,179.15,69.94,162Z" style="fill:#263238"></path><path d="M47.59,230.58c11.32,16.84,23.48,35.57,34.25,52.77-11.33-16.84-23.48-35.57-34.25-52.77Z" style="fill:#263238"></path><path d="M433.16,142.1q6.54,9.47,12.24,19.48-6.56-9.47-12.24-19.48Z" style="fill:#263238"></path><path d="M74.59,104.64c5.12,7.54,10.47,16,15,23.92-5.13-7.53-10.47-16-15-23.92Z" style="fill:#263238"></path><path d="M110.62,202.86c5.13,7.54,10.47,16,15,23.92-5.13-7.54-10.47-16-15-23.92Z" style="fill:#263238"></path><path d="M57.19,214.82c5.13,7.54,10.47,16,15,23.92-5.13-7.54-10.46-16-15-23.92Z" style="fill:#263238"></path><path d="M164.37,132.56q6.67,9.67,12.5,19.88-6.68-9.67-12.5-19.88Z" style="fill:#263238"></path><path d="M140,155.44q6.67,9.67,12.5,19.89-6.68-9.68-12.5-19.89Z" style="fill:#263238"></path><path d="M104.37,63.8q6.67,9.67,12.5,19.88Q110.2,74,104.37,63.8Z" style="fill:#263238"></path><path d="M387.43,83.85q6.68,9.68,12.5,19.88-6.68-9.66-12.5-19.88Z" style="fill:#263238"></path><path d="M232.42,84.13a107.43,107.43,0,0,1,7.86,12.5,105.77,105.77,0,0,1-7.86-12.5Z" style="fill:#263238"></path><path d="M352.44,101.87a105.77,105.77,0,0,1,7.86,12.5,105.77,105.77,0,0,1-7.86-12.5Z" style="fill:#263238"></path><path d="M253.37,51.3a105.77,105.77,0,0,1,7.86,12.5,107.43,107.43,0,0,1-7.86-12.5Z" style="fill:#263238"></path><path d="M216,109.69c5.13,7.54,10.47,16,15,23.92-5.13-7.54-10.46-16-15-23.92Z" style="fill:#263238"></path><path d="M166.84,92c5.13,7.54,10.47,16,15,23.92-5.13-7.54-10.47-16-15-23.92Z" style="fill:#263238"></path><path d="M298.69,164.32c5.12,7.54,10.47,16,15,23.92-5.13-7.54-10.47-16-15-23.92Z" style="fill:#263238"></path><path d="M404.46,417.62c5.13,7.54,10.47,16,15,23.92-5.13-7.54-10.46-16-15-23.92Z" style="fill:#263238"></path><path d="M125.16,405.66c5.13,7.54,10.47,16,15,23.92-5.13-7.54-10.46-16-15-23.92Z" style="fill:#263238"></path><path d="M79,434.42c5.13,7.54,10.47,16,15,23.92-5.13-7.54-10.46-16-15-23.92Z" style="fill:#263238"></path><path d="M265.14,285c5.12,7.54,10.46,16,15,23.92-5.13-7.53-10.46-16-15-23.92Z" style="fill:#263238"></path><path d="M364.9,271.39c5.13,7.54,10.47,16,15,23.92-5.13-7.53-10.46-16-15-23.92Z" style="fill:#263238"></path><path d="M204.27,165.59c5.13,7.54,10.47,16,15,23.91-5.13-7.53-10.46-16-15-23.91Z" style="fill:#263238"></path><path d="M186.21,214c5.12,7.53,10.46,16,15,23.91-5.13-7.53-10.46-16-15-23.91Z" style="fill:#263238"></path><path d="M261.21,373.63c5.13,7.54,10.47,16,15,23.92-5.13-7.54-10.46-16-15-23.92Z" style="fill:#263238"></path><path d="M376.61,345.19c5.13,7.54,10.47,16,15,23.92-5.13-7.54-10.47-16-15-23.92Z" style="fill:#263238"></path><path d="M420.16,321.08c5.13,7.54,10.47,16,15,23.92-5.13-7.54-10.46-16-15-23.92Z" style="fill:#263238"></path><path d="M380.5,127.16c5.13,7.53,10.47,16,15,23.91-5.13-7.53-10.46-16-15-23.91Z" style="fill:#263238"></path><path d="M313.43,219c5.12,7.54,10.47,16,15,23.92-5.13-7.54-10.47-16-15-23.92Z" style="fill:#263238"></path><path d="M367.69,158.42c5.12,7.54,10.47,16,15,23.92-5.13-7.54-10.47-16-15-23.92Z" style="fill:#263238"></path><path d="M298.24,63.51c5.12,7.54,10.47,16,15,23.92-5.13-7.54-10.47-16-15-23.92Z" style="fill:#263238"></path><path d="M287.44,98q5.93,8.48,11,17.5-5.93-8.47-11-17.5Z" style="fill:#263238"></path><path d="M145.7,245c5.13,7.54,10.47,16,15,23.91-5.13-7.53-10.47-16-15-23.91Z" style="fill:#263238"></path><path d="M171.35,309.4c5.13,7.54,10.47,16,15,23.92-5.13-7.54-10.46-16-15-23.92Z" style="fill:#263238"></path><path d="M158.54,340.67c5.12,7.54,10.46,16,15,23.92-5.12-7.54-10.46-16-15-23.92Z" style="fill:#263238"></path><path d="M103.1,282.18c5.13,7.54,10.47,16,15,23.92-5.13-7.54-10.46-16-15-23.92Z" style="fill:#263238"></path><path d="M342.67,389.84c5.12,7.54,10.46,16,15,23.92-5.12-7.54-10.46-16-15-23.92Z" style="fill:#263238"></path><path d="M370.08,434.42c5.13,7.54,10.47,16,15,23.92-5.13-7.54-10.47-16-15-23.92Z" style="fill:#263238"></path><path d="M138.84,387.61a102.58,102.58,0,0,1,7.74,12.31,103.38,103.38,0,0,1-7.74-12.31Z" style="fill:#263238"></path><path d="M116.45,348a104.67,104.67,0,0,1,7.74,12.31A103.38,103.38,0,0,1,116.45,348Z" style="fill:#263238"></path><path d="M127.14,447.1c4.52-3.12,11,3.36,13.92,6.58a54.35,54.35,0,0,1,3.41,4.32c-1.25-1.35-2.41-2.76-3.7-4.06-3-3-9.05-9.39-13.63-6.84Z" style="fill:#263238"></path><path d="M148.21,458c-.68-4.6.35-11.05,5.49-12.54-4.72,2.14-5.41,7.93-5.49,12.54Z" style="fill:#263238"></path><path d="M375,453.34c3.54-1.1,7.26,1,9.41,3.74.29.42.58.83.86,1.26-.37-.36-.7-.74-1.05-1.09-2.4-2.44-5.69-4.33-9.22-3.91Z" style="fill:#263238"></path><path d="M385.4,458.34c-.73-2.75.75-6.29,3.83-6.57-2.74,1-3.77,3.81-3.83,6.57Z" style="fill:#263238"></path><path d="M52.62,335c5.13,7.54,10.47,16,15,23.92-5.13-7.54-10.46-16-15-23.92Z" style="fill:#263238"></path><path d="M57.5,353.9c3.53-1.09,7.25,1,9.4,3.75.29.41.59.83.86,1.25-.36-.36-.69-.73-1-1.09-2.4-2.43-5.69-4.33-9.22-3.91Z" style="fill:#263238"></path><path d="M68,358.9c-.73-2.74.74-6.28,3.83-6.57-2.75,1-3.78,3.82-3.83,6.57Z" style="fill:#263238"></path><path d="M191.67,38.79c5.12,7.54,10.46,16,15,23.92-5.12-7.54-10.46-16-15-23.92Z" style="fill:#263238"></path><path d="M196.54,57.71c3.53-1.09,7.26,1,9.41,3.75.29.41.58.82.85,1.25-.36-.36-.69-.73-1-1.09-2.4-2.43-5.69-4.33-9.22-3.91Z" style="fill:#263238"></path><path d="M207,62.71c-.73-2.74.74-6.28,3.83-6.57-2.74,1-3.78,3.81-3.83,6.57Z" style="fill:#263238"></path><path d="M440.91,453.34c2.85-1.17,5.51,1.53,6.68,3.9.15.37.33.73.47,1.1-.47-.65-.9-1.3-1.38-1.91-1.4-1.74-3.37-3.52-5.77-3.09Z" style="fill:#263238"></path><path d="M448.58,458.34c-.73-2.75.75-6.29,3.83-6.57-2.74,1-3.77,3.81-3.83,6.57Z" style="fill:#263238"></path><path d="M89,455c2.19-1,4.19,1.4,4.75,3.32-1.19-1.49-2.59-3.55-4.75-3.32Z" style="fill:#263238"></path><path d="M94.06,458.34c-.62-1.82.44-4.3,2.54-4.37-1.76.78-2.38,2.53-2.54,4.37Z" style="fill:#263238"></path><path d="M282.47,31.21c5.13,7.54,10.47,16,15,23.92-5.13-7.54-10.46-16-15-23.92Z" style="fill:#263238"></path><path d="M292.44,51.81c2.19-1,4.19,1.41,4.75,3.32-1.19-1.49-2.59-3.55-4.75-3.32Z" style="fill:#263238"></path><path d="M297.54,55.13c-.62-1.82.44-4.29,2.54-4.36-1.76.78-2.38,2.53-2.54,4.36Z" style="fill:#263238"></path><path d="M256.16,60.48c2.19-1,4.19,1.41,4.75,3.32-1.19-1.49-2.59-3.55-4.75-3.32Z" style="fill:#263238"></path><path d="M261.26,63.8c-.62-1.82.44-4.3,2.54-4.36-1.76.77-2.37,2.52-2.54,4.36Z" style="fill:#263238"></path><path d="M176.81,112.62c2.19-1,4.19,1.41,4.75,3.32-1.19-1.49-2.59-3.55-4.75-3.32Z" style="fill:#263238"></path><path d="M181.9,115.94c-.62-1.82.45-4.29,2.55-4.36-1.76.78-2.38,2.53-2.55,4.36Z" style="fill:#263238"></path><path d="M175.05,453.41c2.81-1.16,5.43,1.51,6.58,3.85.16.36.33.71.47,1.08-.46-.64-.89-1.28-1.37-1.88-1.37-1.72-3.31-3.47-5.68-3Z" style="fill:#263238"></path><path d="M182.62,458.34c-.73-2.71.73-6.2,3.77-6.48-2.7,1-3.71,3.76-3.77,6.48Z" style="fill:#263238"></path></g></svg>
