<?xml version="1.0" encoding="UTF-8"?><svg xmlns="http://www.w3.org/2000/svg" viewBox="0 0 2153.97 718.59"><defs><style>.cls-1{fill:none;stroke:#292b2a;stroke-miterlimit:10;stroke-width:2px;}.cls-2{fill:#4d2a54;}.cls-2,.cls-3,.cls-4,.cls-5,.cls-6,.cls-7,.cls-8,.cls-9,.cls-10{stroke-width:0px;}.cls-3{fill:#2c586a;}.cls-4{fill:#3b1d42;}.cls-5{fill:#22404b;}.cls-6{fill:#251329;}.cls-7{fill:#ac8743;}.cls-8{fill:#321c38;}.cls-9{fill:#e3c022;}.cls-10{fill:#f4e686;}</style></defs><g id="SGID_30"><polygon id="Inside" class="cls-1" points="-2255.56 -762.03 -2293.82 -762.03 -2245.35 -845.97 -2279.47 -905.06 -2347.7 -905.06 -2381.82 -845.97 -2333.36 -762.03 -2371.62 -762.03 -2420.08 -845.97 -2366.84 -938.2 -2260.34 -938.2 -2207.09 -845.97 -2255.56 -762.03"/><polygon id="Middle" class="cls-1" points="-2117.48 -845.97 -2215.54 -1015.8 -2269.9 -1015.8 -2269.9 -982.66 -2234.67 -982.66 -2155.75 -845.97 -2234.67 -709.28 -2392.51 -709.28 -2471.43 -845.97 -2392.51 -982.66 -2357.27 -982.66 -2357.27 -1015.8 -2411.64 -1015.8 -2509.69 -845.97 -2411.64 -676.14 -2215.54 -676.14 -2117.48 -845.97"/><polygon id="Outside" class="cls-1" points="-2027.88 -845.97 -2170.73 -1093.4 -2456.44 -1093.4 -2599.29 -845.97 -2456.44 -598.54 -2376.58 -598.54 -2376.58 -631.68 -2437.31 -631.68 -2561.03 -845.97 -2437.31 -1060.26 -2189.86 -1060.26 -2066.14 -845.97 -2189.86 -631.68 -2261.21 -631.68 -2261.21 -598.54 -2170.73 -598.54 -2027.88 -845.97"/></g><g id="Discover"><path class="cls-10" d="M609.67,577.94c-2.47-28.43-6.17-70.93-12.41-117.44-26.25,19.67-54.73,39.66-83.34,57.32-18.27,28.03-38.38,55.69-57.92,81.14,82.28,11.8,153.07,14.84,157.76,15.04-1.05-1.03-2.22-14.51-4.09-36.06Z"/><path class="cls-7" d="M527,211.48c24.81,16.31,49.26,34.05,72.01,51.41,11.76-82.15,14.8-152.78,14.99-157.46-1.03,1.05-14.51,2.22-36.06,4.09-28.43,2.47-70.93,6.17-117.43,12.41,17.44,23.27,35.08,48.29,51.17,73.59,5.37,5.07,10.48,10.38,15.32,15.95Z"/><path class="cls-9" d="M580.97,365.13c6.83,31.61,12.13,64.37,16.29,95.37,66.41-49.77,118.49-97.56,121.94-100.74-1.47.01-11.83-8.69-28.39-22.6-21.84-18.36-54.52-45.79-91.81-74.26-4.52,31.58-10.35,64.85-17.79,96.75-.05,1.81-.09,3.62-.24,5.48Z"/><path class="cls-9" d="M549.32,457.87c-5.47,11.78-11.37,22.52-17.78,31.78-5.6,9.38-11.5,18.79-17.61,28.17,28.61-17.66,57.09-37.64,83.34-57.32-4.16-31.01-9.46-63.76-16.29-95.37-2.15,27.13-14.21,59.19-31.66,92.74Z"/><path class="cls-9" d="M581.35,356.63c0,.98-.1,2.02-.13,3.02,7.44-31.9,13.27-65.17,17.79-96.75-22.75-17.36-47.19-35.1-72.01-51.41,33.77,38.91,54.35,89.58,54.35,145.14Z"/><path class="cls-6" d="M120.19,456.29c-11.76,82.16-14.8,152.79-14.99,157.47,1.03-1.05,14.51-2.22,36.06-4.09,28.47-2.47,71.06-6.18,117.64-12.44-19.95-26.43-40.28-55.18-58.51-84.22-27.6-17.73-54.96-37.46-80.2-56.73Z"/><path class="cls-5" d="M211.92,191.53c16.19-24.58,33.77-48.8,50.98-71.34-82.15-11.76-152.78-14.8-157.46-14.99,1.05,1.03,2.22,14.51,4.09,36.06,2.47,28.43,6.17,70.93,12.41,117.44,23.46-17.58,48.7-35.37,74.22-51.57,5-5.46,10.25-10.66,15.76-15.6Z"/><path class="cls-4" d="M137.84,356.63c0-1.19.16-2.34.18-3.52-6.73-31.32-11.96-63.72-16.08-94.42C55.53,308.47,3.44,356.26,0,359.43c1.47-.01,11.83,8.69,28.39,22.6,21.84,18.36,54.51,45.79,91.8,74.26,4.53-31.61,10.36-64.9,17.81-96.83-.03-.93-.15-1.92-.15-2.84Z"/><path class="cls-4" d="M137.99,359.47c-7.45,31.92-13.28,65.22-17.81,96.83,25.25,19.27,52.6,39,80.2,56.73-34.57-55.08-61.26-111.01-62.4-153.56Z"/><path class="cls-4" d="M196.16,207.13c-25.52,16.2-50.76,33.98-74.22,51.57,4.12,30.69,9.35,63.1,16.08,94.42.88-56.29,22.78-107.35,58.13-145.98Z"/><path class="cls-3" d="M359.6,134.87c5.85,0,11.6.43,17.33.87,27.91-5.65,56.41-10.17,83.57-13.81C410.73,55.53,362.94,3.44,359.77,0c.01,1.47-8.69,11.83-22.6,28.39-18.36,21.84-45.79,54.51-74.26,91.81,27.9,3.99,57.1,9.01,85.53,15.25,3.72-.19,7.4-.56,11.17-.56Z"/><path class="cls-3" d="M511.68,195.53c-16.09-25.31-33.73-50.33-51.17-73.59-27.16,3.64-55.66,8.16-83.57,13.81,52.05,4.04,98.97,26,134.74,59.78Z"/><path class="cls-3" d="M348.43,135.44c-28.43-6.24-57.63-11.25-85.53-15.25-17.21,22.54-34.79,46.75-50.98,71.34,36.63-32.79,84.13-53.48,136.51-56.09Z"/><path class="cls-6" d="M527,211.48c-4.84-5.58-9.95-10.89-15.32-15.95-35.77-33.78-82.69-55.75-134.74-59.78-5.74-.45-11.48-.87-17.33-.87-3.77,0-7.44.38-11.17.56-52.38,2.62-99.88,23.3-136.51,56.09-5.52,4.94-10.77,10.14-15.76,15.6-35.36,38.63-57.25,89.69-58.13,145.98-.02,1.18-.18,2.33-.18,3.52,0,.92.13,1.91.15,2.84,1.13,42.55,27.83,98.47,62.4,153.56,18.22,29.04,38.56,57.79,58.51,84.22,50.06,66.33,97.33,117.88,100.53,121.35-.01-1.51,8.93-12.16,23.23-29.18,18.22-21.69,45.15-53.75,73.34-90.45,19.54-25.44,39.65-53.11,57.92-81.14,6.11-9.38,12.01-18.79,17.61-28.17,6.41-9.26,12.31-20,17.78-31.78,17.44-33.55,29.5-65.61,31.66-92.74.15-1.86.19-3.67.24-5.48.03-1,.13-2.04.13-3.02,0-55.57-20.58-106.23-54.35-145.14ZM361.7,396.66c-26.57,0-48.1-21.54-48.1-48.1s21.54-48.1,48.1-48.1,48.1,21.53,48.1,48.1-21.54,48.1-48.1,48.1Z"/><path class="cls-8" d="M754.36,448.6v-237.71h100.69c25.62,0,48.42,4.73,68.41,14.18,19.98,9.45,35.67,23.04,47.08,40.75,11.4,17.72,17.1,39.03,17.1,63.93s-5.7,46.21-17.1,63.93c-11.4,17.72-27.09,31.3-47.08,40.75-19.98,9.45-42.79,14.18-68.41,14.18h-100.69ZM803.55,409.89h51.5c17.42,0,31.96-3.23,43.62-9.68,11.66-6.45,20.43-15.68,26.32-27.68,5.89-12,8.84-26.26,8.84-42.79s-2.95-30.79-8.84-42.79c-5.89-12-14.67-21.22-26.32-27.68-11.66-6.45-26.2-9.68-43.62-9.68h-51.5v160.29Z"/><path class="cls-8" d="M1020.68,253v-42.11h47.65v42.11h-47.65ZM1020.68,448.6v-169.8h47.65v169.8h-47.65Z"/><path class="cls-8" d="M1167.48,452c-12.68,0-24.11-1.08-34.3-3.23-10.18-2.15-20.4-5.26-30.65-9.34l4.23-36c9.86,5.09,19.57,9.2,29.11,12.31,9.54,3.11,19.57,4.67,30.07,4.67,9.48,0,16.72-1.36,21.71-4.08,5-2.72,7.49-7.02,7.49-12.9,0-4.41-1.31-8.04-3.94-10.87-2.63-2.83-6.57-5.38-11.82-7.64-5.25-2.26-11.79-4.7-19.6-7.3-11.79-3.85-21.81-8.04-30.07-12.57-8.26-4.53-14.54-9.99-18.83-16.38-4.29-6.39-6.44-14.29-6.44-23.69s2.88-18.34,8.65-25.81c5.76-7.47,13.96-13.3,24.6-17.49,10.63-4.19,23.25-6.28,37.85-6.28,12.17,0,23.09,1.19,32.76,3.57,9.67,2.38,18.61,5.6,26.8,9.68l-4.23,36c-8.58-5.32-17.23-9.71-25.94-13.16-8.71-3.45-18.25-5.18-28.63-5.18-8.2,0-14.54,1.47-19.02,4.41-4.49,2.95-6.73,7.13-6.73,12.57,0,6.57,3.14,11.49,9.42,14.77,6.27,3.28,16.33,7.3,30.17,12.06,8.97,3.06,16.75,6.23,23.35,9.51,6.6,3.29,12.07,6.91,16.43,10.87,4.35,3.96,7.59,8.46,9.7,13.5,2.11,5.04,3.17,10.84,3.17,17.4,0,10.75-2.92,19.9-8.74,27.42-5.83,7.53-14.35,13.27-25.56,17.23-11.21,3.96-24.88,5.94-41.02,5.94Z"/><path class="cls-8" d="M1364.62,452c-22.03,0-40.51-3.99-55.44-11.97-14.92-7.98-26.2-18.62-33.82-31.92-7.62-13.3-11.43-27.99-11.43-44.06s3.78-30.99,11.34-44.4c7.56-13.41,18.89-24.14,34.01-32.18,15.11-8.04,34.07-12.06,56.88-12.06,10.76,0,20.49,1.05,29.21,3.14,8.71,2.1,16.14,4.67,22.29,7.73l-3.84,33.96c-5.89-2.72-12.52-4.98-19.89-6.79-7.37-1.81-15.08-2.72-23.15-2.72-18.45,0-32.73,4.92-42.85,14.77-10.12,9.85-15.18,22.7-15.18,38.54s5.19,27.71,15.56,37.95c10.38,10.25,24.4,15.37,42.08,15.37,7.56,0,15.02-.99,22.39-2.97,7.36-1.98,14.51-4.73,21.42-8.24l4.23,35.66c-6.66,3.06-14.7,5.52-24.12,7.39-9.42,1.87-19.31,2.8-29.69,2.8Z"/><path class="cls-8" d="M1536.02,452c-20.88,0-38.69-4.02-53.42-12.05-14.73-8.04-25.97-18.73-33.72-32.09-7.75-13.36-11.62-27.96-11.62-43.81s3.87-30.67,11.62-44.15c7.75-13.47,18.99-24.25,33.72-32.35,14.73-8.09,32.54-12.14,53.42-12.14s38.69,4.05,53.42,12.14c14.73,8.09,25.97,18.88,33.72,32.35,7.75,13.47,11.63,28.19,11.63,44.15s-3.88,30.45-11.63,43.81c-7.75,13.36-18.99,24.06-33.72,32.09-14.73,8.04-32.54,12.05-53.42,12.05ZM1536.02,417.36c16.01,0,28.34-4.95,36.99-14.86,8.65-9.9,12.97-22.72,12.97-38.46s-4.32-28.95-12.97-38.97c-8.65-10.02-20.98-15.03-36.99-15.03s-28.18,5.01-36.89,15.03c-8.71,10.02-13.07,23.01-13.07,38.97s4.35,28.55,13.07,38.46c8.71,9.91,21.01,14.86,36.89,14.86Z"/><path class="cls-8" d="M1717.03,448.6l-73.79-169.8h46.88l47.27,117.5,47.27-117.5h46.89l-73.79,169.8h-40.74Z"/><path class="cls-8" d="M1944.15,452c-23.19,0-42.5-4.1-57.93-12.31-15.44-8.21-27-19.07-34.68-32.6-7.69-13.53-11.53-28.33-11.53-44.4s3.62-29.83,10.86-42.96c7.24-13.13,17.84-23.69,31.8-31.67,13.96-7.98,31-11.97,51.11-11.97,18.45,0,33.82,3.34,46.12,10.02,12.3,6.68,21.52,15.59,27.67,26.74,6.15,11.15,9.22,23.46,9.22,36.93,0,3.74-.26,7.5-.77,11.29-.51,3.79-1.28,7.73-2.31,11.8h-124.13c1.79,10.53,5.54,19.05,11.24,25.55,5.7,6.51,12.68,11.29,20.95,14.35,8.26,3.06,17.13,4.58,26.61,4.58,11.15,0,21.52-1.27,31.13-3.82,9.61-2.55,18.45-5.91,26.52-10.1l2.31,35.66c-7.3,3.4-16.4,6.4-27.29,9-10.89,2.6-23.19,3.91-36.89,3.91ZM1890.73,344.35h77.63c0-5.09-1.09-10.21-3.27-15.37-2.18-5.15-5.8-9.48-10.86-12.99-5.06-3.51-11.88-5.26-20.46-5.26-12.3,0-21.97,3.17-29.01,9.51-7.05,6.34-11.72,14.38-14.03,24.11Z"/><path class="cls-8" d="M2049.45,448.6v-169.8h44.58l1.15,18c4.87-4.75,11.72-9.51,20.56-14.26,8.84-4.75,18.51-7.13,29.01-7.13,3.07,0,5.89.23,8.46.68l-3.46,41.43c-2.82-.68-5.61-1.13-8.36-1.36-2.76-.23-5.48-.34-8.17-.34-8.07,0-15.44,1.64-22.1,4.92-6.66,3.28-11.34,7.3-14.03,12.06v115.8h-47.65Z"/><path class="cls-2" d="M777.37,550.17c-5.84,0-10.66-1.16-14.47-3.47-3.81-2.31-6.65-5.56-8.51-9.74-1.87-4.18-2.8-9.08-2.8-14.72v-35.57h11.38v32.63c0,2.96.19,5.67.58,8.11s1.09,4.55,2.11,6.31c1.02,1.76,2.48,3.12,4.38,4.07,1.9.95,4.34,1.42,7.34,1.42s5.44-.47,7.34-1.42c1.9-.95,3.36-2.3,4.38-4.07s1.73-3.87,2.11-6.31c.38-2.45.58-5.15.58-8.11v-32.63h11.38v35.57c0,5.63-.93,10.54-2.8,14.72-1.87,4.18-4.71,7.42-8.51,9.74-3.81,2.31-8.63,3.47-14.47,3.47Z"/><path class="cls-2" d="M828.14,549.81c-2.79,0-5.05-.57-6.8-1.71-1.75-1.14-3.04-2.6-3.87-4.38-.83-1.78-1.25-3.63-1.25-5.56v-24.63h-6.31l.98-9.07h5.33v-9.78l11.03-1.16v10.94h9.78v9.07h-9.78v20.1c0,2.25.13,3.88.4,4.87.27.99.87,1.62,1.82,1.87.95.25,2.46.38,4.53.38h3.02l-.98,9.07h-7.91Z"/><path class="cls-2" d="M853.83,549.81c-2.37,0-4.53-.53-6.49-1.58-1.96-1.05-3.51-2.57-4.67-4.56-1.16-1.99-1.73-4.39-1.73-7.2,0-2.52.58-4.68,1.76-6.47,1.17-1.79,2.71-3.29,4.62-4.49,1.91-1.2,3.99-2.15,6.22-2.84,2.24-.7,4.45-1.21,6.62-1.53,2.18-.33,4.1-.52,5.76-.58-.12-2.55-.77-4.4-1.96-5.56-1.19-1.16-3.2-1.73-6.05-1.73-1.99,0-3.92.27-5.8.82-1.88.55-4.01,1.4-6.38,2.56l-.98-8.98c2.67-1.3,5.34-2.28,8.02-2.93,2.68-.65,5.4-.98,8.16-.98,3.32,0,6.18.59,8.58,1.78,2.4,1.19,4.25,3.09,5.56,5.71,1.3,2.62,1.96,6.08,1.96,10.38v12c0,2.22.1,3.83.31,4.82.21.99.59,1.62,1.16,1.89.56.27,1.38.4,2.44.4h1.42l-.98,9.07h-4c-1.66,0-3.13-.22-4.42-.65-1.29-.43-2.39-1.03-3.31-1.8-.92-.77-1.66-1.67-2.22-2.71-1.45,1.63-3.42,2.9-5.89,3.8-2.48.9-5.05,1.36-7.71,1.36ZM858.46,541.37c.98,0,2.19-.26,3.65-.78,1.45-.52,2.76-1.33,3.91-2.42v-10.14c-2.08.09-4.15.43-6.22,1.02s-3.81,1.47-5.2,2.62c-1.39,1.16-2.09,2.61-2.09,4.36s.47,3.15,1.42,4.02c.95.87,2.46,1.31,4.53,1.31Z"/><path class="cls-2" d="M888.42,548.92v-66.69h11.03v28.72l-2.49-1.96c1.87-1.3,3.9-2.5,6.09-3.6,2.19-1.1,4.82-1.65,7.87-1.65,3.91,0,7.1.87,9.56,2.6,2.46,1.73,4.27,4.13,5.42,7.2,1.16,3.07,1.73,6.62,1.73,10.65v24.72h-11.03v-23.92c0-4.15-.67-7.22-2-9.2-1.33-1.99-3.51-2.98-6.54-2.98-2.58,0-4.69.6-6.34,1.8-1.65,1.2-3.09,2.82-4.33,4.87l2.04-5.96v35.39h-11.03Z"/><path class="cls-2" d="M940.08,509.44h-5.16l3.82-10.67h-4.53v-12.09h11.56v11.03l-5.69,11.74Z"/><path class="cls-2" d="M965.07,549.81c-2.93,0-5.58-.28-7.94-.84-2.36-.56-4.72-1.38-7.09-2.45l.98-9.43c2.28,1.33,4.53,2.41,6.74,3.22,2.21.82,4.53,1.22,6.96,1.22,2.19,0,3.87-.36,5.02-1.07,1.16-.71,1.73-1.84,1.73-3.38,0-1.16-.3-2.1-.91-2.85-.61-.74-1.52-1.41-2.73-2s-2.73-1.23-4.53-1.91c-2.73-1.01-5.05-2.1-6.96-3.29-1.91-1.18-3.36-2.62-4.36-4.29-.99-1.67-1.49-3.74-1.49-6.2s.67-4.8,2-6.76c1.33-1.96,3.23-3.48,5.69-4.58,2.46-1.1,5.38-1.65,8.76-1.65,2.82,0,5.34.31,7.58.93,2.24.62,4.3,1.47,6.2,2.53l-.98,9.43c-1.99-1.39-3.99-2.54-6-3.45-2.02-.9-4.22-1.36-6.62-1.36-1.9,0-3.36.39-4.4,1.16-1.04.77-1.56,1.87-1.56,3.29,0,1.72.73,3.01,2.18,3.87,1.45.86,3.78,1.91,6.98,3.16,2.07.8,3.88,1.63,5.4,2.49,1.53.86,2.79,1.81,3.8,2.85,1.01,1.04,1.76,2.22,2.25,3.53.49,1.32.73,2.84.73,4.56,0,2.82-.67,5.21-2.02,7.18-1.35,1.97-3.32,3.48-5.91,4.51-2.59,1.04-5.76,1.56-9.49,1.56Z"/><path class="cls-2" d="M1010.06,497.71v-11.03h11.03v11.03h-11.03ZM1010.06,548.92v-44.46h11.03v44.46h-11.03Z"/><path class="cls-2" d="M1031.4,548.92v-44.46h9.43l.71,6.49-1.6-1.96c1.69-1.33,3.71-2.54,6.07-3.62s5.1-1.62,8.25-1.62c2.37,0,4.47.35,6.29,1.04,1.82.7,3.39,1.69,4.69,2.98,1.3,1.29,2.36,2.82,3.16,4.6l-2.67-.62c1.42-2.55,3.5-4.52,6.25-5.91,2.74-1.39,5.85-2.09,9.31-2.09,4.09,0,7.42.84,10,2.53s4.48,4.07,5.69,7.14c1.22,3.07,1.82,6.66,1.82,10.78v24.72h-11.03v-23.92c0-4.15-.65-7.22-1.93-9.2-1.29-1.99-3.43-2.98-6.42-2.98-1.48,0-2.78.26-3.89.78-1.11.52-2.03,1.28-2.76,2.27-.73.99-1.27,2.19-1.62,3.6-.36,1.41-.53,2.99-.53,4.73v24.72h-11.03v-23.92c0-2.76-.29-5.04-.87-6.85-.58-1.81-1.5-3.15-2.76-4.02-1.26-.87-2.9-1.31-4.91-1.31-2.58,0-4.69.6-6.34,1.8-1.65,1.2-3.09,2.82-4.33,4.87l2.04-5.96v35.39h-11.03Z"/><path class="cls-2" d="M1118.27,549.81c-2.37,0-4.53-.53-6.49-1.58-1.96-1.05-3.51-2.57-4.67-4.56-1.16-1.99-1.73-4.39-1.73-7.2,0-2.52.58-4.68,1.76-6.47,1.17-1.79,2.71-3.29,4.62-4.49,1.91-1.2,3.99-2.15,6.22-2.84,2.24-.7,4.45-1.21,6.62-1.53,2.18-.33,4.1-.52,5.76-.58-.12-2.55-.77-4.4-1.96-5.56-1.19-1.16-3.2-1.73-6.05-1.73-1.99,0-3.92.27-5.8.82-1.88.55-4.01,1.4-6.38,2.56l-.98-8.98c2.67-1.3,5.34-2.28,8.02-2.93,2.68-.65,5.4-.98,8.16-.98,3.32,0,6.18.59,8.58,1.78,2.4,1.19,4.25,3.09,5.56,5.71,1.3,2.62,1.96,6.08,1.96,10.38v12c0,2.22.1,3.83.31,4.82.21.99.59,1.62,1.16,1.89.56.27,1.38.4,2.45.4h1.42l-.98,9.07h-4c-1.66,0-3.13-.22-4.42-.65-1.29-.43-2.39-1.03-3.31-1.8-.92-.77-1.66-1.67-2.22-2.71-1.45,1.63-3.42,2.9-5.89,3.8-2.48.9-5.05,1.36-7.71,1.36ZM1122.9,541.37c.98,0,2.19-.26,3.65-.78,1.45-.52,2.76-1.33,3.91-2.42v-10.14c-2.08.09-4.15.43-6.22,1.02s-3.81,1.47-5.2,2.62c-1.39,1.16-2.09,2.61-2.09,4.36s.47,3.15,1.42,4.02c.95.87,2.46,1.31,4.53,1.31Z"/><path class="cls-2" d="M1170.56,571.33c-4.15,0-7.77-.51-10.87-1.53-3.1-1.02-5.5-2.48-7.2-4.38-1.71-1.9-2.56-4.16-2.56-6.8,0-2.22.62-4.2,1.85-5.94,1.23-1.73,3.02-3.25,5.36-4.56-1.19-.71-2.13-1.6-2.85-2.67-.71-1.07-1.07-2.28-1.07-3.65s.41-2.66,1.22-3.71c.82-1.05,1.89-1.89,3.22-2.51-2.25-1.6-3.96-3.65-5.11-6.16-1.16-2.5-1.73-5.22-1.73-8.16,0-3.2.7-6.14,2.09-8.83,1.39-2.68,3.43-4.83,6.11-6.45,2.68-1.61,5.96-2.42,9.85-2.42,2.02,0,3.88.25,5.58.76,1.7.5,3.22,1.2,4.56,2.09.89-.5,2.18-.96,3.87-1.36,1.69-.4,3.57-.6,5.65-.6h2.85l-.71,6.94h-5.07c-.44,0-.92.03-1.42.09.89,1.36,1.56,2.89,2,4.58s.67,3.42.67,5.2c0,3.2-.69,6.14-2.07,8.83s-3.4,4.83-6.07,6.45c-2.67,1.62-5.94,2.42-9.83,2.42-.83,0-1.63-.06-2.4-.18-.77-.12-1.54-.27-2.31-.44-.65.27-.98.74-.98,1.42,0,.8.49,1.41,1.47,1.82.98.42,2.5.79,4.58,1.11l7.65.98c4.77.62,8.51,1.97,11.23,4.05,2.71,2.07,4.07,5.02,4.07,8.85,0,2.96-.85,5.55-2.56,7.76-1.7,2.21-4.17,3.93-7.4,5.16-3.23,1.23-7.11,1.84-11.65,1.84ZM1171,562.97c3.73,0,6.56-.46,8.49-1.38,1.93-.92,2.89-2.33,2.89-4.22,0-1.69-.67-2.93-2.02-3.73-1.35-.8-3.49-1.42-6.42-1.87l-9.74-1.42c-1.45.56-2.67,1.34-3.65,2.33-.98.99-1.47,2.29-1.47,3.89,0,2.16,1.05,3.77,3.16,4.82,2.1,1.05,5.02,1.58,8.76,1.58ZM1168.87,530.78c2.64,0,4.63-.87,5.98-2.6,1.35-1.73,2.02-4.04,2.02-6.91s-.67-5.22-2.02-6.94c-1.35-1.72-3.34-2.58-5.98-2.58s-4.68.86-6.05,2.58c-1.36,1.72-2.04,4.03-2.04,6.94s.68,5.18,2.04,6.91c1.36,1.73,3.38,2.6,6.05,2.6Z"/><path class="cls-2" d="M1218.57,549.81c-5.37,0-9.83-1.07-13.4-3.22-3.57-2.15-6.25-4.99-8.03-8.54s-2.67-7.42-2.67-11.63.84-7.81,2.51-11.25c1.67-3.44,4.13-6.2,7.36-8.29s7.17-3.13,11.83-3.13c4.27,0,7.83.88,10.67,2.62,2.84,1.75,4.98,4.08,6.4,7,1.42,2.92,2.13,6.14,2.13,9.67,0,.98-.06,1.96-.18,2.96-.12.99-.3,2.02-.53,3.09h-28.72c.42,2.76,1.28,4.99,2.6,6.69,1.32,1.71,2.93,2.96,4.85,3.76,1.91.8,3.96,1.2,6.16,1.2,2.58,0,4.98-.33,7.2-1,2.22-.67,4.27-1.55,6.13-2.65l.53,9.34c-1.69.89-3.79,1.67-6.31,2.36-2.52.68-5.37,1.02-8.54,1.02ZM1206.21,521.63h17.96c0-1.33-.25-2.67-.76-4.02s-1.34-2.48-2.51-3.4c-1.17-.92-2.75-1.38-4.74-1.38-2.84,0-5.08.83-6.71,2.49-1.63,1.66-2.71,3.76-3.25,6.31Z"/><path class="cls-2" d="M1242.94,548.92v-44.46h10.31l.27,4.71c1.13-1.25,2.71-2.49,4.76-3.74,2.04-1.24,4.28-1.87,6.71-1.87.71,0,1.36.06,1.96.18l-.8,10.85c-.65-.18-1.3-.3-1.93-.36s-1.27-.09-1.89-.09c-1.87,0-3.57.43-5.11,1.29-1.54.86-2.62,1.91-3.25,3.16v30.32h-11.03Z"/><path class="cls-2" d="M1275.83,570.44l9.87-24.45-18.5-41.52h12.27l11.38,28.63,11.56-28.63h12.27l-27.83,65.98h-11.03Z"/><path class="cls-2" d="M1349.63,549.81c-2.37,0-4.54-.53-6.49-1.58s-3.51-2.57-4.67-4.56c-1.16-1.99-1.73-4.39-1.73-7.2,0-2.52.58-4.68,1.76-6.47s2.71-3.29,4.62-4.49c1.91-1.2,3.99-2.15,6.22-2.84,2.24-.7,4.45-1.21,6.62-1.53s4.1-.52,5.76-.58c-.12-2.55-.77-4.4-1.96-5.56-1.19-1.16-3.2-1.73-6.05-1.73-1.99,0-3.92.27-5.8.82-1.88.55-4.01,1.4-6.38,2.56l-.98-8.98c2.67-1.3,5.34-2.28,8.03-2.93,2.68-.65,5.4-.98,8.16-.98,3.32,0,6.18.59,8.58,1.78,2.4,1.19,4.25,3.09,5.56,5.71,1.3,2.62,1.96,6.08,1.96,10.38v12c0,2.22.1,3.83.31,4.82.21.99.59,1.62,1.16,1.89.56.27,1.38.4,2.45.4h1.42l-.98,9.07h-4c-1.66,0-3.13-.22-4.42-.65-1.29-.43-2.39-1.03-3.31-1.8-.92-.77-1.66-1.67-2.22-2.71-1.45,1.63-3.42,2.9-5.89,3.8-2.48.9-5.05,1.36-7.71,1.36ZM1354.26,541.37c.98,0,2.19-.26,3.65-.78,1.45-.52,2.76-1.33,3.91-2.42v-10.14c-2.08.09-4.15.43-6.22,1.02-2.08.59-3.81,1.47-5.2,2.62-1.39,1.16-2.09,2.61-2.09,4.36s.47,3.15,1.42,4.02c.95.87,2.46,1.31,4.53,1.31Z"/><path class="cls-2" d="M1384.31,548.92v-44.46h10.31l.44,8.27-2.58-3.38c1.69-1.42,3.7-2.71,6.05-3.87s5.07-1.73,8.18-1.73c5.69,0,9.92,1.89,12.67,5.67,2.76,3.78,4.13,8.68,4.13,14.69v24.81h-11.03v-23.92c0-4.15-.69-7.22-2.07-9.2-1.38-1.99-3.62-2.98-6.74-2.98-2.52,0-4.58.62-6.18,1.84-1.6,1.23-3.01,2.87-4.22,4.91l2.05-5.42v34.77h-11.03Z"/><path class="cls-2" d="M1451.35,549.81c-4.51,0-8.29-1.05-11.36-3.16-3.07-2.1-5.38-4.91-6.94-8.4-1.56-3.5-2.33-7.32-2.33-11.47s.78-7.97,2.33-11.47c1.56-3.5,3.87-6.3,6.94-8.4,3.07-2.1,6.85-3.16,11.36-3.16,3.26,0,6.02.54,8.27,1.62,2.25,1.08,4.24,2.47,5.96,4.16l-2.67,2.31v-29.61h11.03v66.69h-10.4l-.53-7.56,3.2,2.31c-2.07,1.9-4.22,3.39-6.45,4.49-2.22,1.1-5.02,1.65-8.4,1.65ZM1452.96,540.74c2.43,0,4.42-.59,5.96-1.78,1.54-1.18,2.68-2.82,3.42-4.91.74-2.09,1.11-4.51,1.11-7.27s-.37-5.18-1.11-7.27c-.74-2.09-1.88-3.73-3.42-4.91s-3.53-1.78-5.96-1.78-4.28.59-5.91,1.78c-1.63,1.19-2.88,2.82-3.74,4.91-.86,2.09-1.29,4.51-1.29,7.27s.43,5.18,1.29,7.27c.86,2.09,2.1,3.73,3.74,4.91,1.63,1.19,3.6,1.78,5.91,1.78Z"/><path class="cls-2" d="M1527.29,549.81c-3.38,0-6.3-.55-8.76-1.65-2.46-1.1-4.76-2.59-6.89-4.49l3.29-2.31-.53,7.56h-10.31v-66.69h11.03v29.61l-2.67-1.69c1.96-2.01,4.14-3.59,6.56-4.71,2.42-1.13,5.18-1.69,8.29-1.69,4.36,0,8.02,1.05,10.98,3.16,2.96,2.1,5.21,4.91,6.74,8.4,1.53,3.5,2.29,7.32,2.29,11.47s-.76,7.97-2.29,11.47c-1.53,3.5-3.77,6.3-6.74,8.4-2.96,2.11-6.62,3.16-10.98,3.16ZM1525.69,540.74c2.19,0,4.06-.59,5.6-1.78,1.54-1.18,2.71-2.82,3.51-4.91.8-2.09,1.2-4.51,1.2-7.27s-.4-5.18-1.2-7.27c-.8-2.09-1.97-3.73-3.51-4.91s-3.41-1.78-5.6-1.78c-2.58,0-4.68.59-6.31,1.78-1.63,1.19-2.84,2.82-3.62,4.91-.79,2.09-1.18,4.51-1.18,7.27s.39,5.18,1.18,7.27c.78,2.09,1.99,3.73,3.62,4.91,1.63,1.19,3.73,1.78,6.31,1.78Z"/><path class="cls-2" d="M1564.55,549.81c-2.37,0-4.54-.53-6.49-1.58s-3.51-2.57-4.67-4.56c-1.16-1.99-1.73-4.39-1.73-7.2,0-2.52.58-4.68,1.76-6.47s2.71-3.29,4.62-4.49c1.91-1.2,3.99-2.15,6.22-2.84,2.24-.7,4.45-1.21,6.62-1.53s4.1-.52,5.76-.58c-.12-2.55-.77-4.4-1.96-5.56-1.19-1.16-3.2-1.73-6.05-1.73-1.99,0-3.92.27-5.8.82-1.88.55-4.01,1.4-6.38,2.56l-.98-8.98c2.67-1.3,5.34-2.28,8.03-2.93,2.68-.65,5.4-.98,8.16-.98,3.32,0,6.18.59,8.58,1.78,2.4,1.19,4.25,3.09,5.56,5.71,1.3,2.62,1.96,6.08,1.96,10.38v12c0,2.22.1,3.83.31,4.82.21.99.59,1.62,1.16,1.89.56.27,1.38.4,2.45.4h1.42l-.98,9.07h-4c-1.66,0-3.13-.22-4.42-.65-1.29-.43-2.39-1.03-3.31-1.8-.92-.77-1.66-1.67-2.22-2.71-1.45,1.63-3.42,2.9-5.89,3.8-2.48.9-5.05,1.36-7.71,1.36ZM1569.17,541.37c.98,0,2.19-.26,3.65-.78,1.45-.52,2.76-1.33,3.91-2.42v-10.14c-2.08.09-4.15.43-6.22,1.02-2.08.59-3.81,1.47-5.2,2.62-1.39,1.16-2.09,2.61-2.09,4.36s.47,3.15,1.42,4.02c.95.87,2.46,1.31,4.53,1.31Z"/><path class="cls-2" d="M1611.85,549.81c-2.93,0-5.58-.28-7.94-.84-2.36-.56-4.72-1.38-7.09-2.45l.98-9.43c2.28,1.33,4.53,2.41,6.74,3.22s4.53,1.22,6.96,1.22c2.19,0,3.87-.36,5.02-1.07,1.16-.71,1.73-1.84,1.73-3.38,0-1.16-.3-2.1-.91-2.85-.61-.74-1.52-1.41-2.73-2-1.22-.59-2.73-1.23-4.54-1.91-2.73-1.01-5.05-2.1-6.96-3.29-1.91-1.18-3.36-2.62-4.36-4.29s-1.49-3.74-1.49-6.2.67-4.8,2-6.76c1.33-1.96,3.23-3.48,5.69-4.58,2.46-1.1,5.38-1.65,8.76-1.65,2.82,0,5.34.31,7.58.93,2.24.62,4.3,1.47,6.2,2.53l-.98,9.43c-1.99-1.39-3.99-2.54-6-3.45s-4.22-1.36-6.62-1.36c-1.9,0-3.36.39-4.4,1.16-1.04.77-1.56,1.87-1.56,3.29,0,1.72.73,3.01,2.18,3.87,1.45.86,3.78,1.91,6.98,3.16,2.07.8,3.87,1.63,5.4,2.49,1.53.86,2.79,1.81,3.8,2.85,1.01,1.04,1.76,2.22,2.25,3.53.49,1.32.73,2.84.73,4.56,0,2.82-.67,5.21-2.02,7.18-1.35,1.97-3.32,3.48-5.91,4.51s-5.76,1.56-9.49,1.56Z"/><path class="cls-2" d="M1658.26,549.81c-5.37,0-9.83-1.07-13.4-3.22-3.57-2.15-6.25-4.99-8.03-8.54s-2.67-7.42-2.67-11.63.84-7.81,2.51-11.25c1.67-3.44,4.13-6.2,7.36-8.29s7.17-3.13,11.83-3.13c4.27,0,7.83.88,10.67,2.62,2.84,1.75,4.98,4.08,6.4,7,1.42,2.92,2.13,6.14,2.13,9.67,0,.98-.06,1.96-.18,2.96-.12.99-.3,2.02-.53,3.09h-28.72c.42,2.76,1.28,4.99,2.6,6.69,1.32,1.71,2.93,2.96,4.85,3.76,1.91.8,3.96,1.2,6.16,1.2,2.58,0,4.98-.33,7.2-1,2.22-.67,4.27-1.55,6.13-2.65l.53,9.34c-1.69.89-3.79,1.67-6.31,2.36-2.52.68-5.37,1.02-8.54,1.02ZM1645.9,521.63h17.96c0-1.33-.25-2.67-.76-4.02s-1.34-2.48-2.51-3.4c-1.17-.92-2.75-1.38-4.74-1.38-2.84,0-5.08.83-6.71,2.49-1.63,1.66-2.71,3.76-3.25,6.31Z"/><path class="cls-2" d="M1702.63,548.92v-44.46h9.43l.71,6.49-1.6-1.96c1.69-1.33,3.71-2.54,6.07-3.62,2.36-1.08,5.11-1.62,8.25-1.62,2.37,0,4.47.35,6.29,1.04,1.82.7,3.39,1.69,4.69,2.98,1.3,1.29,2.36,2.82,3.16,4.6l-2.67-.62c1.42-2.55,3.5-4.52,6.25-5.91,2.74-1.39,5.85-2.09,9.31-2.09,4.09,0,7.42.84,10,2.53,2.58,1.69,4.47,4.07,5.69,7.14,1.21,3.07,1.82,6.66,1.82,10.78v24.72h-11.03v-23.92c0-4.15-.64-7.22-1.93-9.2-1.29-1.99-3.43-2.98-6.42-2.98-1.48,0-2.78.26-3.89.78-1.11.52-2.03,1.28-2.76,2.27-.73.99-1.27,2.19-1.62,3.6-.36,1.41-.53,2.99-.53,4.73v24.72h-11.03v-23.92c0-2.76-.29-5.04-.87-6.85s-1.5-3.15-2.76-4.02-2.9-1.31-4.91-1.31c-2.58,0-4.69.6-6.34,1.8-1.64,1.2-3.09,2.82-4.33,4.87l2.05-5.96v35.39h-11.03Z"/><path class="cls-2" d="M1789.51,549.81c-2.37,0-4.54-.53-6.49-1.58s-3.51-2.57-4.67-4.56c-1.16-1.99-1.73-4.39-1.73-7.2,0-2.52.58-4.68,1.76-6.47s2.71-3.29,4.62-4.49c1.91-1.2,3.99-2.15,6.22-2.84,2.24-.7,4.45-1.21,6.62-1.53s4.1-.52,5.76-.58c-.12-2.55-.77-4.4-1.96-5.56-1.19-1.16-3.2-1.73-6.05-1.73-1.99,0-3.92.27-5.8.82-1.88.55-4.01,1.4-6.38,2.56l-.98-8.98c2.67-1.3,5.34-2.28,8.03-2.93,2.68-.65,5.4-.98,8.16-.98,3.32,0,6.18.59,8.58,1.78,2.4,1.19,4.25,3.09,5.56,5.71,1.3,2.62,1.96,6.08,1.96,10.38v12c0,2.22.1,3.83.31,4.82.21.99.59,1.62,1.16,1.89.56.27,1.38.4,2.45.4h1.42l-.98,9.07h-4c-1.66,0-3.13-.22-4.42-.65-1.29-.43-2.39-1.03-3.31-1.8-.92-.77-1.66-1.67-2.22-2.71-1.45,1.63-3.42,2.9-5.89,3.8-2.48.9-5.05,1.36-7.71,1.36ZM1794.13,541.37c.98,0,2.19-.26,3.65-.78,1.45-.52,2.76-1.33,3.91-2.42v-10.14c-2.08.09-4.15.43-6.22,1.02-2.08.59-3.81,1.47-5.2,2.62-1.39,1.16-2.09,2.61-2.09,4.36s.47,3.15,1.42,4.02c.95.87,2.46,1.31,4.53,1.31Z"/><path class="cls-2" d="M1824.18,570.44v-65.98h8.89l2.13,7.38-3.29-1.16c2.04-2.1,4.27-3.79,6.67-5.05,2.4-1.26,5.33-1.89,8.8-1.89,4.36,0,8.02,1.05,10.98,3.16,2.96,2.1,5.21,4.91,6.74,8.4,1.53,3.5,2.29,7.32,2.29,11.47s-.76,7.97-2.29,11.47c-1.53,3.5-3.77,6.3-6.74,8.4-2.96,2.11-6.62,3.16-10.98,3.16-3.47,0-6.28-.47-8.45-1.42-2.16-.95-4.36-2.46-6.58-4.54l2.85-2.22v28.81h-11.03ZM1845.7,540.74c3.29,0,5.85-1.3,7.67-3.89s2.73-5.95,2.73-10.07-.91-7.51-2.73-10.09c-1.82-2.58-4.38-3.87-7.67-3.87-2.55,0-4.64.59-6.27,1.78-1.63,1.19-2.83,2.82-3.6,4.91-.77,2.09-1.16,4.51-1.16,7.27s.38,5.18,1.16,7.27c.77,2.09,1.97,3.73,3.6,4.91,1.63,1.19,3.72,1.78,6.27,1.78Z"/><path class="cls-2" d="M1907.68,549.81c-2.93,0-5.58-.28-7.94-.84-2.36-.56-4.72-1.38-7.09-2.45l.98-9.43c2.28,1.33,4.53,2.41,6.74,3.22s4.53,1.22,6.96,1.22c2.19,0,3.87-.36,5.02-1.07,1.16-.71,1.73-1.84,1.73-3.38,0-1.16-.3-2.1-.91-2.85-.61-.74-1.52-1.41-2.73-2-1.22-.59-2.73-1.23-4.54-1.91-2.73-1.01-5.05-2.1-6.96-3.29-1.91-1.18-3.36-2.62-4.36-4.29s-1.49-3.74-1.49-6.2.67-4.8,2-6.76c1.33-1.96,3.23-3.48,5.69-4.58,2.46-1.1,5.38-1.65,8.76-1.65,2.82,0,5.34.31,7.58.93,2.24.62,4.3,1.47,6.2,2.53l-.98,9.43c-1.99-1.39-3.99-2.54-6-3.45s-4.22-1.36-6.62-1.36c-1.9,0-3.36.39-4.4,1.16-1.04.77-1.56,1.87-1.56,3.29,0,1.72.73,3.01,2.18,3.87,1.45.86,3.78,1.91,6.98,3.16,2.07.8,3.87,1.63,5.4,2.49,1.53.86,2.79,1.81,3.8,2.85,1.01,1.04,1.76,2.22,2.25,3.53.49,1.32.73,2.84.73,4.56,0,2.82-.67,5.21-2.02,7.18-1.35,1.97-3.32,3.48-5.91,4.51s-5.76,1.56-9.49,1.56Z"/><path class="cls-2" d="M1954.09,549.81c-5.37,0-9.83-1.07-13.4-3.22-3.57-2.15-6.25-4.99-8.03-8.54s-2.67-7.42-2.67-11.63.84-7.81,2.51-11.25c1.67-3.44,4.13-6.2,7.36-8.29s7.17-3.13,11.83-3.13c4.27,0,7.83.88,10.67,2.62,2.84,1.75,4.98,4.08,6.4,7,1.42,2.92,2.13,6.14,2.13,9.67,0,.98-.06,1.96-.18,2.96-.12.99-.3,2.02-.53,3.09h-28.72c.42,2.76,1.28,4.99,2.6,6.69,1.32,1.71,2.93,2.96,4.85,3.76,1.91.8,3.96,1.2,6.16,1.2,2.58,0,4.98-.33,7.2-1,2.22-.67,4.27-1.55,6.13-2.65l.53,9.34c-1.69.89-3.79,1.67-6.31,2.36-2.52.68-5.37,1.02-8.54,1.02ZM1941.73,521.63h17.96c0-1.33-.25-2.67-.76-4.02s-1.34-2.48-2.51-3.4c-1.17-.92-2.75-1.38-4.74-1.38-2.84,0-5.08.83-6.71,2.49-1.63,1.66-2.71,3.76-3.25,6.31Z"/><path class="cls-2" d="M1978.45,548.92v-44.46h10.31l.27,4.71c1.13-1.25,2.71-2.49,4.76-3.74,2.04-1.24,4.28-1.87,6.71-1.87.71,0,1.36.06,1.96.18l-.8,10.85c-.65-.18-1.3-.3-1.93-.36s-1.27-.09-1.89-.09c-1.87,0-3.57.43-5.11,1.29-1.54.86-2.62,1.91-3.25,3.16v30.32h-11.03Z"/><path class="cls-2" d="M2019.98,548.92l-17.07-44.46h10.85l10.94,30.77,10.94-30.77h10.85l-17.07,44.46h-9.43Z"/><path class="cls-2" d="M2051.9,497.71v-11.03h11.03v11.03h-11.03ZM2051.9,548.92v-44.46h11.03v44.46h-11.03Z"/><path class="cls-2" d="M2093.87,549.81c-5.1,0-9.37-1.04-12.83-3.13-3.45-2.09-6.06-4.88-7.83-8.36-1.76-3.48-2.65-7.33-2.65-11.54s.87-8.11,2.62-11.63c1.75-3.51,4.37-6.32,7.87-8.42,3.5-2.1,7.88-3.16,13.16-3.16,2.49,0,4.74.27,6.76.82,2.02.55,3.74,1.22,5.16,2.02l-.89,8.89c-1.36-.71-2.9-1.3-4.6-1.78-1.71-.47-3.49-.71-5.36-.71-4.27,0-7.57,1.29-9.91,3.87-2.34,2.58-3.51,5.94-3.51,10.09s1.2,7.25,3.6,9.94c2.4,2.68,5.65,4.02,9.74,4.02,1.75,0,3.47-.26,5.18-.78,1.7-.52,3.36-1.24,4.96-2.16l.98,9.34c-1.54.8-3.4,1.45-5.58,1.93-2.18.49-4.47.73-6.87.73Z"/><path class="cls-2" d="M2134.77,549.81c-5.37,0-9.83-1.07-13.4-3.22-3.57-2.15-6.25-4.99-8.03-8.54s-2.67-7.42-2.67-11.63.84-7.81,2.51-11.25c1.67-3.44,4.13-6.2,7.36-8.29s7.17-3.13,11.83-3.13c4.27,0,7.83.88,10.67,2.62,2.84,1.75,4.98,4.08,6.4,7,1.42,2.92,2.13,6.14,2.13,9.67,0,.98-.06,1.96-.18,2.96-.12.99-.3,2.02-.53,3.09h-28.72c.42,2.76,1.28,4.99,2.6,6.69,1.32,1.71,2.93,2.96,4.85,3.76,1.91.8,3.96,1.2,6.16,1.2,2.58,0,4.98-.33,7.2-1,2.22-.67,4.27-1.55,6.13-2.65l.53,9.34c-1.69.89-3.79,1.67-6.31,2.36-2.52.68-5.37,1.02-8.54,1.02ZM2122.41,521.63h17.96c0-1.33-.25-2.67-.76-4.02s-1.34-2.48-2.51-3.4c-1.17-.92-2.75-1.38-4.74-1.38-2.84,0-5.08.83-6.71,2.49-1.63,1.66-2.71,3.76-3.25,6.31Z"/></g></svg>