<svg xmlns="http://www.w3.org/2000/svg" viewBox="0 0 500 500"><g id="freepik--Floor--inject-272"><polygon points="31.14 399.77 85.85 399.52 140.57 399.44 250 399.27 359.43 399.43 414.15 399.52 468.86 399.77 414.15 400.01 359.43 400.1 250 400.27 140.57 400.1 85.85 400.01 31.14 399.77" style="fill:#263238"></polygon></g><g id="freepik--Shadows--inject-272"><ellipse cx="57.17" cy="457.65" rx="33.09" ry="8.62" style="fill:#ebebeb"></ellipse><ellipse cx="397.61" cy="409.85" rx="69.03" ry="12.06" style="fill:#ebebeb"></ellipse><ellipse cx="216.38" cy="433.18" rx="166.98" ry="19.04" style="fill:#ebebeb"></ellipse></g><g id="freepik--Board--inject-272"><rect x="150.02" y="104.7" width="199.86" height="132.09" style="fill:#ebebeb"></rect><rect x="145.26" y="98.23" width="209.48" height="6.47" style="fill:#455a64"></rect><rect x="298.32" y="132.14" width="26.56" height="31.47" style="fill:#fff"></rect><path d="M312.56,134.28a1,1,0,1,1-1-1A1,1,0,0,1,312.56,134.28Z" style="fill:#455a64"></path><path d="M303.37,138.44c2.69-.21,5.38-.22,8.06-.25s5.37,0,8.06.25c-2.69.21-5.37.22-8.06.25S306.06,138.65,303.37,138.44Z" style="fill:#ebebeb"></path><path d="M303.37,140.93a38.49,38.49,0,0,1,8.76,0,38.49,38.49,0,0,1-8.76,0Z" style="fill:#ebebeb"></path><path d="M303.37,143.41c1.87-.19,3.74-.24,5.6-.25s3.73.06,5.6.25a52.46,52.46,0,0,1-5.6.25A55.35,55.35,0,0,1,303.37,143.41Z" style="fill:#ebebeb"></path><path d="M303.37,145.9c2.34-.19,4.67-.24,7-.25s4.66.06,7,.25c-2.34.2-4.67.24-7,.25S305.71,146.1,303.37,145.9Z" style="fill:#ebebeb"></path><path d="M303.37,148.39c2-.2,4.06-.24,6.09-.25s4.05.05,6.08.25c-2,.2-4.05.24-6.08.25S305.4,148.58,303.37,148.39Z" style="fill:#ebebeb"></path><path d="M303.37,150.88c2.6-.21,5.2-.22,7.79-.25s5.19,0,7.79.25c-2.6.2-5.19.22-7.79.25S306,151.08,303.37,150.88Z" style="fill:#ebebeb"></path><path d="M303.37,153.36a50.73,50.73,0,0,1,10.06,0,50.73,50.73,0,0,1-10.06,0Z" style="fill:#ebebeb"></path><path d="M303.37,155.85c2.69-.21,5.38-.22,8.06-.25s5.37,0,8.06.25c-2.69.21-5.37.22-8.06.25S306.06,156.06,303.37,155.85Z" style="fill:#ebebeb"></path><path d="M303.37,158.34c2.69-.21,5.38-.22,8.06-.25s5.37,0,8.06.25c-2.69.21-5.37.22-8.06.25S306.06,158.54,303.37,158.34Z" style="fill:#ebebeb"></path><rect x="307" y="175.36" width="31.43" height="37.24" style="fill:#fff"></rect><path d="M323.67,180.38a1,1,0,1,1-.95-.95A1,1,0,0,1,323.67,180.38Z" style="fill:#455a64"></path><path d="M311.4,184.65a22.63,22.63,0,0,1,3.48-.25,21.49,21.49,0,0,1,3.49.25,21.49,21.49,0,0,1-3.49.25A22.63,22.63,0,0,1,311.4,184.65Z" style="fill:#ebebeb"></path><path d="M311.4,187.46a40.81,40.81,0,0,1,9,0,40.81,40.81,0,0,1-9,0Z" style="fill:#ebebeb"></path><path d="M311.4,190.27a30.85,30.85,0,0,1,4.18-.25,29.31,29.31,0,0,1,4.18.25,35.07,35.07,0,0,1-8.36,0Z" style="fill:#ebebeb"></path><path d="M311.4,193.07a35.07,35.07,0,0,1,8.36,0,35.07,35.07,0,0,1-8.36,0Z" style="fill:#ebebeb"></path><path d="M311.4,195.88a26.48,26.48,0,0,1,7.26,0,26.48,26.48,0,0,1-7.26,0Z" style="fill:#ebebeb"></path><path d="M311.4,198.69a43.37,43.37,0,0,1,9.3,0,38.13,38.13,0,0,1-4.65.25A40.25,40.25,0,0,1,311.4,198.69Z" style="fill:#ebebeb"></path><path d="M311.4,201.5a29.54,29.54,0,0,1,7.67,0,29.54,29.54,0,0,1-7.67,0Z" style="fill:#ebebeb"></path><path d="M311.4,204.31a40.79,40.79,0,0,1,4.81-.25,38.75,38.75,0,0,1,4.81.25,46.4,46.4,0,0,1-9.62,0Z" style="fill:#ebebeb"></path><path d="M311.4,207.11a46.4,46.4,0,0,1,9.62,0,46.4,46.4,0,0,1-9.62,0Z" style="fill:#ebebeb"></path><path d="M325.13,184.65a38.88,38.88,0,0,1,4.57-.25,37,37,0,0,1,4.57.25,37,37,0,0,1-4.57.25A38.88,38.88,0,0,1,325.13,184.65Z" style="fill:#ebebeb"></path><path d="M325.13,187.46a18.19,18.19,0,0,1,6,0,18.19,18.19,0,0,1-6,0Z" style="fill:#ebebeb"></path><path d="M325.13,190.27a32.64,32.64,0,0,1,4.3-.25,31.1,31.1,0,0,1,4.3.25,37.11,37.11,0,0,1-8.6,0Z" style="fill:#ebebeb"></path><path d="M325.13,193.07a35.07,35.07,0,0,1,8.36,0,35.07,35.07,0,0,1-8.36,0Z" style="fill:#ebebeb"></path><path d="M325.13,195.88a41.89,41.89,0,0,1,9.14,0,41.89,41.89,0,0,1-9.14,0Z" style="fill:#ebebeb"></path><path d="M325.13,198.69a26.55,26.55,0,0,1,7.27,0,23.44,23.44,0,0,1-3.64.25A24.61,24.61,0,0,1,325.13,198.69Z" style="fill:#ebebeb"></path><path d="M325.13,201.5a37.11,37.11,0,0,1,8.6,0,37.11,37.11,0,0,1-8.6,0Z" style="fill:#ebebeb"></path><path d="M325.13,204.31a19.65,19.65,0,0,1,3.33-.25,18.63,18.63,0,0,1,3.32.25,22.24,22.24,0,0,1-6.65,0Z" style="fill:#ebebeb"></path><path d="M325.13,207.11a20.48,20.48,0,0,1,6.38,0,20.48,20.48,0,0,1-6.38,0Z" style="fill:#ebebeb"></path><rect x="322.44" y="123.48" width="15.98" height="15.98" style="fill:#FFC727"></rect><path d="M331.38,125.11a1,1,0,1,1-.95-1A1,1,0,0,1,331.38,125.11Z" style="fill:#455a64"></path><circle cx="206.76" cy="167.33" r="34.85" transform="translate(-4.18 329.36) rotate(-76.51)" style="fill:#455a64"></circle><path d="M206.76,167.33l-12.44,32.55a34.85,34.85,0,1,1,47.28-32.55Z" style="fill:#dbdbdb"></path><path d="M206.76,167.33l28,20.76a34.86,34.86,0,1,1,6.85-20.76Z" style="fill:#dbdbdb"></path><path d="M206.76,167.33l-30.94,16a34.85,34.85,0,1,1,65.78-16Z" style="fill:#FFC727"></path><polygon points="220.91 152.11 220.38 151.58 237.08 134.88 258.3 134.88 258.3 135.63 237.39 135.63 220.91 152.11" style="fill:#c7c7c7"></polygon><rect x="225.8" y="172.68" width="32.5" height="0.75" style="fill:#c7c7c7"></rect><polygon points="258.3 209.38 236.23 209.38 236.12 209.25 220.35 189.93 220.94 189.46 236.59 208.63 258.3 208.63 258.3 209.38" style="fill:#c7c7c7"></polygon><circle cx="258.3" cy="135.25" r="1.61" style="fill:#c7c7c7"></circle><circle cx="258.3" cy="173.05" r="1.61" style="fill:#c7c7c7"></circle><path d="M259.91,209a1.61,1.61,0,1,1-1.61-1.61A1.61,1.61,0,0,1,259.91,209Z" style="fill:#c7c7c7"></path><rect x="264.41" y="134.88" width="14.51" height="0.75" style="fill:#c7c7c7"></rect><rect x="264.41" y="137.28" width="20.27" height="0.75" style="fill:#c7c7c7"></rect><rect x="264.41" y="139.68" width="17.43" height="0.75" style="fill:#c7c7c7"></rect><rect x="264.41" y="142.08" width="22.18" height="0.75" style="fill:#c7c7c7"></rect><rect x="264.41" y="144.48" width="19.22" height="0.75" style="fill:#c7c7c7"></rect><rect x="264.41" y="146.88" width="16.46" height="0.75" style="fill:#c7c7c7"></rect><rect x="264.41" y="172.68" width="20.03" height="0.75" style="fill:#c7c7c7"></rect><rect x="264.41" y="175.08" width="13.54" height="0.75" style="fill:#c7c7c7"></rect><rect x="264.41" y="177.48" width="18.41" height="0.75" style="fill:#c7c7c7"></rect><rect x="264.41" y="179.88" width="20.03" height="0.75" style="fill:#c7c7c7"></rect><rect x="264.41" y="182.28" width="22.18" height="0.75" style="fill:#c7c7c7"></rect><rect x="264.41" y="184.68" width="16.46" height="0.75" style="fill:#c7c7c7"></rect><rect x="264.41" y="208.63" width="16.79" height="0.75" style="fill:#c7c7c7"></rect><rect x="264.41" y="211.03" width="22.18" height="0.75" style="fill:#c7c7c7"></rect><rect x="264.41" y="213.44" width="14.02" height="0.75" style="fill:#c7c7c7"></rect><rect x="264.41" y="215.84" width="22.18" height="0.75" style="fill:#c7c7c7"></rect><rect x="264.41" y="218.24" width="19.16" height="0.75" style="fill:#c7c7c7"></rect><rect x="264.41" y="220.64" width="11.81" height="0.75" style="fill:#c7c7c7"></rect><rect x="150.02" y="104.7" width="199.86" height="8.4" style="fill:#dbdbdb"></rect></g><g id="freepik--character-3--inject-272"><path d="M353.52,407.66c1.71.5,50.11-1.39,51.9-2.64.69-.46.83-7.53.75-16.07v-.27c0-1.76,0-3.57-.08-5.41,0-.25,0-.5,0-.76-.26-12.32-.8-25.11-.8-25.11l-30.62,1.18-.12,24.85.07,1,.33,5.15,0,.53s-18.2,9-20,10.58S351.81,407.16,353.52,407.66Z" style="fill:#dc6a57"></path><path d="M353.52,407.66c1.71.5,50.11-1.39,51.9-2.64.69-.46.83-7.53.75-16.07v-.27c0-1.76,0-3.57-.08-5.41,0-.25,0-.5,0-.76l-31.54.92.07,1,.33,5.15,0,.53s-18.2,9-20,10.58S351.81,407.16,353.52,407.66Z" style="fill:#455a64"></path><path d="M353.53,407.66c.85.25,13.54-.11,26.16-.68,12.45-.56,24.84-1.34,25.73-2,.68-.46.82-7.21.75-15.5,0-.19,0-.38,0-.58v-.27l-31.24.87,0,.54s-18.2,9-20,10.58S351.81,407.16,353.53,407.66Z" style="fill:#37474f"></path><path d="M354,405.76c8.15-.52,41.07-1.85,49.16-1.74.07,0,.07,0,0,.05-8.06.69-41,1.75-49.16,1.82C353.83,405.89,353.82,405.77,354,405.76Z" style="fill:#263238"></path><path d="M371.45,389.78c3.19-.72,7.14-.38,9.68,1.81.1.08,0,.22-.13.19a45.1,45.1,0,0,0-9.52-1.59A.21.21,0,0,1,371.45,389.78Z" style="fill:#263238"></path><path d="M369.19,391.27c3.19-.73,7.13-.39,9.68,1.8.1.09,0,.23-.13.2a45.12,45.12,0,0,0-9.52-1.6A.2.2,0,0,1,369.19,391.27Z" style="fill:#263238"></path><path d="M366.93,392.76c3.19-.73,7.13-.39,9.67,1.8.1.09,0,.22-.12.2a45.12,45.12,0,0,0-9.52-1.6A.2.2,0,0,1,366.93,392.76Z" style="fill:#263238"></path><path d="M368.62,387.46c2.34,1.68,5.33,2.28,8,3.16.27.09.48-.18.48-.42a.08.08,0,0,0,.07-.12,17.07,17.07,0,0,0-5.23-7.16c-1.38-1.07-3.76-1.76-4.95,0S367.26,386.48,368.62,387.46Zm-.91-2.55c-.71-3.5,3.15-1.8,4.13-1a19.83,19.83,0,0,1,1.78,1.77,50.28,50.28,0,0,1,3.14,4.12c-1.29-.52-2.62-.91-3.93-1.38C371.27,387.9,368.09,386.84,367.71,384.91Z" style="fill:#263238"></path><path d="M387.72,384.77c-.85-2-3.32-1.72-4.87-.91a17.15,17.15,0,0,0-6.43,6.11.08.08,0,0,0,.05.13.39.39,0,0,0,.4.5c2.81-.39,5.85-.45,8.45-1.68C386.84,388.2,388.53,386.63,387.72,384.77ZM381,389.15c-1.37.22-2.75.37-4.11.65a48.77,48.77,0,0,1,3.83-3.49,19.4,19.4,0,0,1,2.06-1.43c1.12-.64,5.22-1.62,3.9,1.7C386,388.41,382.64,388.88,381,389.15Z" style="fill:#263238"></path><path d="M379.69,407c12.45-.56,24.84-1.34,25.73-2,.68-.46.82-7.21.75-15.5C400.66,392.9,387.91,401.44,379.69,407Z" style="fill:#263238"></path><path d="M415.65,226s-7.28,81.84-8.46,88.09c-.28,1.42-.45,9.16-.56,19.1-.25,21.7-.1,54.9-.1,54.9H372.39s1-61.87,2.52-74.35S386.09,226,386.09,226Z" style="fill:#455a64"></path><path d="M373.93,382.16c5.33-.11,3.8-.15,9.13-.2,2.6,0,19.74-.18,22.17.23a.06.06,0,0,1,0,.11c-2.43.4-19.57.25-22.17.22-5.33,0-3.8-.09-9.13-.2C373.83,382.32,373.83,382.17,373.93,382.16Z" style="fill:#263238"></path><path d="M400,349.33q.06-7.43.11-14.85c0-4.8,0-9.6.26-14.39.46-9.71,2.43-19.25,3.83-28.84s2.57-19.23,3.63-28.87c1.18-10.82,2.23-21.65,3.34-32.48,0-.07.13-.07.12,0-1.61,19.33-3.41,38.66-6.08,57.87q-1,7.17-2.18,14.31c-.8,4.82-1.59,9.64-2,14.51s-.43,9.56-.48,14.34l-.15,14.85q-.17,16.49-.32,33c0,.21-.33.2-.33,0Q399.92,364,400,349.33Z" style="fill:#263238"></path><path d="M422.85,226s-14.48,81.84-15.66,88.09c-.28,1.42-.45,9.16-.56,19.1v0L390.35,226Z" style="fill:#263238"></path><path d="M390.53,410.41c1.71.5,50.1-1.39,51.9-2.64.69-.46.82-7.52.74-16.07a2.44,2.44,0,0,0,0-.27c0-1.76,0-3.57-.08-5.41,0-.25,0-.5,0-.75a197,197,0,0,0-2.42-25.11l-30.74,1.17,1.63,24.85.06,1,.33,5.15,0,.53s-18.2,9-20,10.58S388.81,409.91,390.53,410.41Z" style="fill:#dc6a57"></path><path d="M390.53,410.41c1.71.5,50.1-1.39,51.9-2.64.69-.46.82-7.52.74-16.07a2.44,2.44,0,0,0,0-.27c0-1.76,0-3.57-.08-5.41,0-.25,0-.5,0-.75l-31.53.91.06,1,.33,5.15,0,.53s-18.2,9-20,10.58S388.81,409.91,390.53,410.41Z" style="fill:#455a64"></path><path d="M390.53,410.41c1.71.5,50.1-1.39,51.9-2.64.69-.46.82-7.52.74-16.07a2.44,2.44,0,0,0,0-.27l-31.23.88,0,.53s-18.2,9-20,10.58S388.81,409.91,390.53,410.41Z" style="fill:#37474f"></path><path d="M391,408.51c8.15-.52,41.07-1.85,49.16-1.74.07,0,.07,0,0,.05-8.07.69-41,1.75-49.16,1.82C390.83,408.64,390.83,408.52,391,408.51Z" style="fill:#263238"></path><path d="M408.46,392.53c3.19-.72,7.13-.38,9.67,1.81.1.08,0,.22-.13.19a44.9,44.9,0,0,0-9.51-1.59A.21.21,0,0,1,408.46,392.53Z" style="fill:#263238"></path><path d="M406.2,394c3.18-.73,7.13-.39,9.67,1.8.1.09,0,.23-.13.2a45.67,45.67,0,0,0-9.51-1.6A.2.2,0,0,1,406.2,394Z" style="fill:#263238"></path><path d="M403.93,395.51c3.19-.73,7.14-.39,9.68,1.8.1.09,0,.23-.13.2a45.12,45.12,0,0,0-9.52-1.6A.2.2,0,0,1,403.93,395.51Z" style="fill:#263238"></path><path d="M405.63,390.21c2.34,1.68,5.32,2.28,8,3.16.28.09.49-.18.49-.42a.09.09,0,0,0,.07-.12,17.15,17.15,0,0,0-5.23-7.16c-1.39-1.07-3.77-1.76-5,0S404.26,389.23,405.63,390.21Zm-.92-2.55c-.7-3.5,3.15-1.8,4.14-1a19.71,19.71,0,0,1,1.77,1.77,50.39,50.39,0,0,1,3.15,4.12c-1.3-.51-2.62-.91-3.93-1.38C408.27,390.65,405.1,389.59,404.71,387.66Z" style="fill:#263238"></path><path d="M424.72,387.52c-.85-2-3.32-1.72-4.87-.91a17.15,17.15,0,0,0-6.43,6.11.09.09,0,0,0,.05.13c0,.24.12.54.41.5,2.8-.38,5.84-.45,8.44-1.68C423.84,391,425.53,389.38,424.72,387.52ZM418,391.9c-1.38.22-2.75.37-4.12.65,1.26-1.19,2.46-2.43,3.83-3.49a18.48,18.48,0,0,1,2.07-1.42c1.12-.65,5.21-1.63,3.89,1.69C423,391.16,419.64,391.64,418,391.9Z" style="fill:#263238"></path><path d="M410.73,392.18l34.11-1.45s-9.31-71.15-9.48-75.75c-.45-11.93-7.64-89-7.64-89H386.06s2.62,17.79,7.12,29.07a52.28,52.28,0,0,1,8.72,4s3.9,51,4,57.32C406.23,328.92,410.73,392.18,410.73,392.18Z" style="fill:#455a64"></path><path d="M411.64,385.93c5.32-.34,3.78-.32,9.11-.59,2.6-.14,19.71-1,22.17-.71.05,0,.05.09,0,.1-2.42.51-19.54,1.09-22.15,1.17-5.33.18-3.8.07-9.13.18C411.54,386.09,411.54,385.93,411.64,385.93Z" style="fill:#263238"></path><path d="M424.66,230.56c1.55,19.4,3.14,38.81,4.91,58.2S433.44,327.65,436,347c1.42,10.82,2.25,22.36,3.93,33.15,0,.07-.1.1-.11,0-3.44-19.17-5.23-39.24-7.38-58.58s-3.9-38.74-5.47-58.14c-.89-11-1.69-22-2.53-32.93C424.41,230.4,424.65,230.4,424.66,230.56Z" style="fill:#263238"></path><path d="M391.69,254.28A64.85,64.85,0,0,1,401.9,259a.12.12,0,0,1-.1.21c-3.44-1.47-6.94-2.88-10.29-4.55A.22.22,0,0,1,391.69,254.28Z" style="fill:#263238"></path><path d="M390.6,230.7c0-.12.22-.15.22,0,0,4.08.23,7.67.57,11.48.16,1.77,1.59,11.56,4.66,10.85.51-.12.77-.63.86-1.41a12.9,12.9,0,0,0-.41-3c-.34-2-.62-4.1-.79-6.17a55.93,55.93,0,0,1,.12-11.57.1.1,0,0,1,.2,0,108.12,108.12,0,0,0,.93,16c.39,2.54,1.67,6.37-1,6.76s-4.47-6-4.8-7.77A58.61,58.61,0,0,1,390.6,230.7Z" style="fill:#263238"></path><path d="M396,253.27a18,18,0,0,1,.69,2,4.75,4.75,0,0,1,.28,1.66c0,.11-.15.12-.21.05a5.87,5.87,0,0,1-.71-1.62c-.24-.63-.48-1.25-.7-1.89A.34.34,0,0,1,396,253.27Z" style="fill:#263238"></path><path d="M394.67,189c-4.88,6.36-27.55,24.29-36.7,23.59-6-.46-25.69-11.58-30-15.26-5-4.32,3.48-17.56,7.19-16.36,4.62,1.5,20.41,11.58,24.69,12.71,2.46.66,17.36-7,31.23-14.23C396.35,176.72,398,184.66,394.67,189Z" style="fill:#ad6359"></path><path d="M334.48,203.47s19.11,12.43,26.95,10c3.89-1.23,10.22-4.76,16.45-9s12.54-9.36,16-13.45c4.05-4.83,4.3-9.3,2.23-11.34a4.27,4.27,0,0,0-3.17-1.16h0a10,10,0,0,0-4.87,1.62c-8.31,5-25.07,13.23-27.07,13s-15-7.94-15-7.94Z" style="fill:#FFC727"></path><polygon points="331.18 203.13 336.37 205.64 348.75 185.19 343.88 182.13 331.18 203.13" style="fill:#FFC727"></polygon><path d="M347.78,186.84a167,167,0,0,1-10.66,17.66c0,.08-.16,0-.11-.08,1-1.52,6-10.63,10.65-17.66A.07.07,0,1,1,347.78,186.84Z" style="fill:#263238"></path><path d="M377.88,204.46c6.32-4.31,12.54-9.36,16-13.45,4.05-4.83,4.3-9.3,2.23-11.34-1.79-.67-3-1.11-3.17-1.16h0C392.62,179,383.59,194.35,377.88,204.46Z" style="fill:#263238"></path><path d="M331.15,175.05c-2.84-1-6-2.39-9.19-2.33s-5.79,4.24-5.79,5.43,1.2,8.65,4.36,8.65,1.25-5.72,1.37-6.38.24-1.49.84-1.43,11,5,11,5Z" style="fill:#ad6359"></path><path d="M331,175.49c-.18,0-8.65-3.34-11.81-3.28s-5.79,4.23-5.79,5.43,1.19,8.65,4.35,8.65,1.26-5.73,1.38-6.39.24-1.49.83-1.43,11,5,11,5Z" style="fill:#ad6359"></path><path d="M318.78,185.89a3.75,3.75,0,0,0,.52-1.87,6.53,6.53,0,0,0-.11-2,10.61,10.61,0,0,1-.38-1.74,3.36,3.36,0,0,1,.44-1.67c.24-.44.7-.29,1.1-.15a16.66,16.66,0,0,1,1.72.77c.61.3,1.21.62,1.8.93a15.61,15.61,0,0,1,1.84,1s0,.1,0,.08a16.32,16.32,0,0,1-1.6-.72l-1.81-.83c-.57-.25-1.12-.53-1.69-.77-.2-.09-.61-.31-.83-.25s-.36.64-.42.84a2.94,2.94,0,0,0,.11,1.71,9.12,9.12,0,0,1,.33,1.73,4.84,4.84,0,0,1-.13,1.65,6.74,6.74,0,0,1-.76,1.36C318.84,186,318.73,185.94,318.78,185.89Z" style="fill:#263238"></path><path d="M341,183.79s-8.76-8-10.59-9.57c-3.66-3.19-19.07-9.48-21.22-9.71s-2.92,4.18,7.54,8.75c5.51,2.41,6.49,5.57,6.39,7.32s-1.78,5-4.72,4.93-4.85-4.37-7.56-4.85-.92,4.48,1,7.34a18,18,0,0,0,7.92,6.18c2.55,1,10.43,4.35,10.43,4.35Z" style="fill:#ad6359"></path><path d="M314.73,183.44c1.11.86,2.36,2,3.82,2a3.54,3.54,0,0,0,3.19-2.15,5.63,5.63,0,0,0,.77-4.07,6.8,6.8,0,0,0-2-3.3,16.68,16.68,0,0,0-4-2.66c-.07,0,0-.12.06-.09,1.35.6,5.56,2.33,6.41,6.05a5.76,5.76,0,0,1-.82,4.14,4.07,4.07,0,0,1-3,2.42c-1.74.14-3.24-1.27-4.49-2.33C314.59,183.44,314.67,183.4,314.73,183.44Z" style="fill:#263238"></path><path d="M384.23,236.66c.75.61,18.92.83,32.69.83,8.44,0,15.23-.09,15.31-.22.16-.28-10.63-44.65-26.38-57.08a15.6,15.6,0,0,0-4.59-2.62c-2.89-1-10.38-.15-11.17,1C383.47,187.66,383.46,236.05,384.23,236.66Z" style="fill:#FFC727"></path><polygon points="394.79 190.06 392.63 186.48 389.61 189.69 390.72 192.7 393.95 192.66 394.79 190.06" style="fill:#37474f"></polygon><polygon points="393.95 192.66 398.11 225.24 393.64 236.29 389.29 225.24 390.72 192.7 393.95 192.66" style="fill:#37474f"></polygon><path d="M390.1,178.26l2.87,6.67,8.16-8.73,2.43,2.68s-7.84,13.73-7.91,13.12l-2.92-5.73-3.9,4.13.07-10.14Z" style="fill:#FFC727"></path><path d="M388.58,185.39c.07-1.68.09-3.36.24-5,0-.06.1-.09.11,0,.38,1.6.08,8,.13,9.53h0c.17-.18,3.63-3.65,3.66-3.59.63.9,2.77,5.08,2.92,5.46,1.24-2.18,6.52-10.79,8-12.86a.06.06,0,0,1,.1,0c-1.09,2.3-7.9,13.66-8,13.63a65.34,65.34,0,0,1-3.06-6.06,43.75,43.75,0,0,1-4.08,4.4A53.11,53.11,0,0,1,388.58,185.39Z" style="fill:#263238"></path><path d="M392.71,186c2.76.4,7-4.13,8.58-7.64.1-.24-.46-2.63-1-5.56-.32-1.78-.64-3.77-.81-5.61,0-.38-1.25.43-1.25.43l-2.33.78-7.7,2.6a29.34,29.34,0,0,1,1.73,7,3.83,3.83,0,0,1,0,.76s0,.08,0,.13C389.8,180.25,390.05,185.56,392.71,186Z" style="fill:#ad6359"></path><path d="M389.91,178.67s0,.08,0,.13a8.15,8.15,0,0,0,1.19,0C398.84,177.9,399,168,399,168l-3.06.4-7.7,2.6a29.34,29.34,0,0,1,1.73,7A3.83,3.83,0,0,1,389.91,178.67Z" style="fill:#263238"></path><path d="M380.67,164.53h0c.25,3.88,1.08,7.49,2.65,9.25,4,4.51,10.8,3.05,14.38-1.39a11,11,0,0,0,1.6-4.6c.83-4.84.58-11.65-.75-14.37-2.79-5.7-11.47-6.84-15.65-2.59C381.21,152.56,380.3,158.82,380.67,164.53Z" style="fill:#ad6359"></path><path d="M399,162.92c-2.77,0-3.33-5-3.33-5s-4.75-.75-5.46-4.32c0,0-4.5,2.9-8.05,1.63s-2.83-5.28-2.44-6.14,2.36.73,2.36.73.22-2.27.82-2.51,1.27,1.14,1.27,1.14a29.35,29.35,0,0,1,8.71-1.46c4.14.09,6.21,4.26,6.21,4.26s2.22.46,2.95,2S400.77,162.91,399,162.92Z" style="fill:#263238"></path><path d="M396.8,157.93c-3.67.51-6.12-1.92-6.67-5.44a0,0,0,0,0-.07,0c.12,3.28,3.2,6.91,6.77,5.59A.08.08,0,0,0,396.8,157.93Z" style="fill:#263238"></path><path d="M399,151.16s-.06.06,0,.08a7.21,7.21,0,0,1,2.94,1.75,4.46,4.46,0,0,1,.38,3.9c-.5,2-1.51,4.59-3.29,5.77-.1.07,0,.22.11.16,2.13-1.27,3.36-4.64,3.64-7C403.08,153.2,401.44,151.72,399,151.16Z" style="fill:#263238"></path><path d="M386.2,154.62a5.41,5.41,0,0,1-5.61-.06c-1.94-1.34-1.54-3.57-.71-5.43,0-.09-.09-.19-.16-.1a4.25,4.25,0,0,0,.38,5.52,5.64,5.64,0,0,0,6.25.3C386.5,154.76,386.35,154.53,386.2,154.62Z" style="fill:#263238"></path><path d="M380.67,164.54c.25,3.88,1.08,7.49,2.65,9.25,4,4.51,10.8,3.05,14.38-1.39a11,11,0,0,0,1.6-4.6,42.87,42.87,0,0,0-.34-6.09c-.21-1.13-2.3-.52-2.3-.52a9,9,0,0,1-1.12,4.87c-1.31,1.7-4.4,1.61-5.48,1.5s-3.24-1.08-5.36-.41c-.94.3-1.8,1-2.7.61S380.7,164.72,380.67,164.54Z" style="fill:#263238;opacity:0.30000000000000004"></path><path d="M397.57,163.37s2.12-4.17,4-3.46.62,6.49-1.3,7.52a2.08,2.08,0,0,1-2.91-.72Z" style="fill:#ad6359"></path><path d="M401.16,161.56s0,0,0,.05a5.22,5.22,0,0,0-2.23,3.62,1.14,1.14,0,0,1,1.65-.54,0,0,0,0,1,0,.08,1.29,1.29,0,0,0-1.34.63,6.84,6.84,0,0,0-.51,1.22c0,.14-.28.1-.25-.05v0C398.19,164.73,399.24,162,401.16,161.56Z" style="fill:#263238"></path><path d="M387.49,162.86s.06,0,.06.07c0,.81,0,1.75.77,2,0,0,0,.05,0,.05C387.42,164.87,387.32,163.62,387.49,162.86Z" style="fill:#263238"></path><path d="M388.24,162c1.31-.06,1.34,2.56.13,2.62S387.14,162.09,388.24,162Z" style="fill:#263238"></path><path d="M383.35,162.89s-.06,0-.06.08c0,.81-.06,1.74-.79,2,0,0,0,0,0,0C383.4,164.9,383.52,163.66,383.35,162.89Z" style="fill:#263238"></path><path d="M382.61,162.06c-1.3-.09-1.37,2.53-.16,2.61S383.71,162.12,382.61,162.06Z" style="fill:#263238"></path><path d="M389.26,160.82a8.71,8.71,0,0,1-1-.34,1.75,1.75,0,0,1-1-.55.54.54,0,0,1,.08-.67,1.34,1.34,0,0,1,1.38-.16,2,2,0,0,1,1.17.85A.59.59,0,0,1,389.26,160.82Z" style="fill:#263238"></path><path d="M381.58,160.75a8.83,8.83,0,0,0,1-.28,1.85,1.85,0,0,0,1-.49.57.57,0,0,0-.05-.68,1.35,1.35,0,0,0-1.37-.24,2,2,0,0,0-1.22.79A.59.59,0,0,0,381.58,160.75Z" style="fill:#263238"></path><path d="M388.9,170.22c-.2.19-.39.46-.68.49a2.25,2.25,0,0,1-.88-.19s0,0,0,0a1.06,1.06,0,0,0,1,.42.83.83,0,0,0,.63-.72S388.92,170.19,388.9,170.22Z" style="fill:#263238"></path><path d="M388,167.8a2.77,2.77,0,0,1-1.83,1.26,3.64,3.64,0,0,1-1,.06l-.19,0-.18,0a.19.19,0,0,1-.16-.18h0v-.09h0v-.07c0-.63,0-1.58,0-1.58-.23.12-1.39.66-1.37.33a40.94,40.94,0,0,1,1-8.38.08.08,0,0,1,.15,0c0,2.61-.5,5.19-.56,7.8a5.11,5.11,0,0,1,1.3-.41c.09,0-.12,1.84-.09,2.12v0a3.82,3.82,0,0,0,2.85-.93C388,167.69,388.06,167.74,388,167.8Z" style="fill:#263238"></path><path d="M385.55,168.79a3.33,3.33,0,0,0,1.33,1,1.45,1.45,0,0,0,.9.05c.64-.18.65-.78.52-1.28a3.47,3.47,0,0,0-.3-.78A4.2,4.2,0,0,1,385.55,168.79Z" style="fill:#fff"></path><path d="M405.85,180.19l11.07,57.3c8.44,0,15.23-.09,15.31-.22C432.39,237,421.6,192.62,405.85,180.19Z" style="fill:#263238"></path><path d="M445.18,262.52c1.61,2.93,1.3,8.11,3.73,7.61,2.17-.45,2-4.06,2-4.06s1.46,4,3.66,2.88,1.24-5.08,1.24-5.08,1.07,3.41,3.18,2.11,1.9-4.79,1.9-4.79,1,.77,2.05-.82c1.54-2.27-.26-7.92-1.9-10.65s-9.66-11.5-10.91-12.82l-17.6,10.38s.68,6.19,1.41,9.29,6,12.65,8.42,11.51-1.36-7.82-1.93-9.65-.25-2.29.65-1.66A38.8,38.8,0,0,1,445.18,262.52Z" style="fill:#ad6359"></path><path d="M450.85,265.91c-.54-5-1.65-7.12-4.74-11-.06-.07,0-.18.11-.1,3.37,3.53,5.14,6,4.88,11.1C451.09,266.14,450.88,266.14,450.85,265.91Z" style="fill:#263238"></path><path d="M455.82,264.09c-1-5.16-2.2-7.45-5.14-11.76,0-.06.06-.14.1-.08,3.24,4,5,6.46,5.29,11.75C456.09,264.24,455.87,264.33,455.82,264.09Z" style="fill:#263238"></path><path d="M460.88,261.15c-1.35-4.93-2.54-7.5-5.93-11.32-.08-.09.05-.21.14-.13A16.92,16.92,0,0,1,461,261.09C461.07,261.41,461,261.46,460.88,261.15Z" style="fill:#263238"></path><path d="M407.18,181.76c15.41,13.51,40.55,50.8,43.56,55.93,2.05,3.48-16.11,14.68-17.14,12.11-1.33-3.29-20.75-40.22-26.49-55.6C403.94,185.73,404,179,407.18,181.76Z" style="fill:#ad6359"></path><path d="M451.76,234.82,431,247.13S411.53,209,406.93,194.89c-5.12-15.76-5.47-20.39,5.53-8.41S451.76,234.82,451.76,234.82Z" style="fill:#FFC727"></path><path d="M406.7,196.93c.34.46.66.92,1,1.39l.5.73.16.24c-.74-2-1.45-4-2.15-6,0,0,0,0,0,0,1.24,3.28,2.59,6.51,3.94,9.74s2.55,6.32,4,9.4c.07.13-.14.25-.2.11-1.39-3.12-2.85-6.18-4.11-9.36-.43-1.06-.83-2.13-1.23-3.2a.05.05,0,0,1,0,0,4.47,4.47,0,0,0-.45-.76l-.49-.72c-.32-.49-.64-1-.94-1.48C406.65,196.94,406.68,196.91,406.7,196.93Z" style="fill:#263238"></path><polygon points="453.55 235.52 449.97 231.01 428.62 244.91 431.67 249.78 453.55 235.52" style="fill:#FFC727"></polygon><path d="M429.8,244.21c7.94-6.1,17.21-11.31,18.76-12.34.07-.05.14.08.07.12-1.58.93-11.52,8-18.76,12.35C429.79,244.39,429.72,244.26,429.8,244.21Z" style="fill:#263238"></path></g><g id="freepik--character-2--inject-272"><polygon points="289.83 360.21 287.99 371.25 275.52 438.57 273.51 438.57 282.58 371.25 283.92 360.21 289.83 360.21" style="fill:#a6a6a6"></polygon><polygon points="283.92 360.21 289.83 360.21 287.99 371.25 282.58 371.25 283.92 360.21" style="fill:#263238"></polygon><polygon points="328.98 438.57 326.97 438.57 314.5 371.25 312.66 360.21 318.57 360.21 319.91 371.25 328.98 438.57" style="fill:#a6a6a6"></polygon><polygon points="318.57 360.21 319.91 371.25 314.5 371.25 312.66 360.21 318.57 360.21" style="fill:#263238"></polygon><polygon points="366.37 438.57 364.36 438.57 351.89 371.25 350.05 360.21 355.96 360.21 357.3 371.25 366.37 438.57" style="fill:#a6a6a6"></polygon><polygon points="357.3 371.25 351.89 371.25 350.05 360.21 355.96 360.21 357.3 371.25" style="fill:#263238"></polygon><polygon points="363.18 365.39 271.83 365.39 271.83 355.77 306.03 355.77 317.52 288.9 359.7 288.9 363.18 365.39" style="fill:#a6a6a6"></polygon><polygon points="363.18 365.39 358.2 365.39 354.96 288.9 359.7 288.9 363.18 365.39" style="fill:#dbdbdb"></polygon><path d="M173.19,430.82c1.69.58,50.12.75,52-.42.71-.43,1.15-7.49,1.43-16,0,0,1.64-2,4.08-4.83,7.07-8.33,20.87-24.51,20.87-24.51l-37.13-.2-16.35,24.71-2.71,4.1,0,.53s-18.57,8.22-20.47,9.72S171.5,430.25,173.19,430.82Z" style="fill:#dc6a57"></path><path d="M173.19,430.82c1.69.58,50.12.75,52-.42.71-.43,1.15-7.49,1.43-16,0,0,1.64-2,4.08-4.83H198.05l-2.71,4.1,0,.53s-18.57,8.22-20.47,9.72S171.5,430.25,173.19,430.82Z" style="fill:#37474f"></path><path d="M173.19,430.82c1.69.58,50.12.75,52-.42.71-.43,1.15-7.49,1.43-16a2.44,2.44,0,0,1,0-.27l-31.25-.46v.53s-18.56,8.23-20.46,9.72S171.5,430.25,173.19,430.82Z" style="fill:#37474f"></path><path d="M173.74,428.94c8.17-.17,41.11-.09,49.2.36.06,0,.06.05,0,.05-8.09.35-41,0-49.2-.27C173.57,429.07,173.57,429,173.74,428.94Z" style="fill:#263238"></path><path d="M191.87,413.73c3.21-.59,7.14-.09,9.58,2.21.1.09,0,.22-.13.19a45.47,45.47,0,0,0-9.44-2A.2.2,0,0,1,191.87,413.73Z" style="fill:#263238"></path><path d="M189.54,415.11c3.22-.58,7.14-.08,9.59,2.22.1.09,0,.22-.14.19a45.2,45.2,0,0,0-9.44-2A.21.21,0,0,1,189.54,415.11Z" style="fill:#263238"></path><path d="M187.22,416.5c3.21-.58,7.14-.08,9.59,2.22.09.09,0,.22-.14.19a45.34,45.34,0,0,0-9.44-2A.21.21,0,0,1,187.22,416.5Z" style="fill:#263238"></path><path d="M189.14,411.28c2.26,1.78,5.22,2.51,7.87,3.5.27.11.49-.15.5-.4.06,0,.1-.05.08-.11a17.2,17.2,0,0,0-4.92-7.38c-1.34-1.13-3.69-1.92-5-.19S187.81,410.25,189.14,411.28Zm-.81-2.58c-.56-3.53,3.22-1.67,4.17-.79a17.4,17.4,0,0,1,1.7,1.84,49.75,49.75,0,0,1,3,4.25c-1.27-.57-2.58-1-3.87-1.54C191.76,411.84,188.63,410.64,188.33,408.7Z" style="fill:#263238"></path><path d="M208.33,409.41c-.77-2-3.24-1.86-4.83-1.12a17.18,17.18,0,0,0-6.68,5.83.08.08,0,0,0,0,.13c-.05.24.09.55.38.52,2.82-.26,5.86-.19,8.52-1.31C207.3,412.8,209.06,411.31,208.33,409.41Zm-6.9,4.09c-1.38.16-2.76.26-4.14.47,1.31-1.13,2.56-2.32,4-3.32a19.33,19.33,0,0,1,2.12-1.33c1.15-.6,5.28-1.41,3.82,1.85C206.41,413,203.08,413.31,201.43,413.5Z" style="fill:#263238"></path><path d="M193.1,413.84,212,415.7l18.66,1.83s37.82-49,40.13-51.31c5.25-5.25,46.7-17.82,58-29.07,12-11.92,6.76-27,6.76-27H304.21s.08,12.21-1.59,12.73c-18.06,5.61-52.11,17.9-59.93,24.81C228.66,360.1,193.1,413.84,193.1,413.84Z" style="fill:#455a64"></path><path d="M199,408.09c5.3.5,3.79.28,9.09.84,2.59.28,19.63,2.09,22,2.77.05,0,0,.11,0,.11-2.47.12-19.47-2-22.06-2.31-5.29-.67-3.76-.53-9-1.25A.08.08,0,0,1,199,408.09Z" style="fill:#263238"></path><path d="M223,416.78l7.63.75s37.82-49,40.13-51.31c5.25-5.25,46.7-17.82,58-29.07,12-11.92,6.76-27,6.76-27H323.15l-2,.53-62.25,37.49Z" style="fill:#263238"></path><path d="M235.75,440.88c1.7.54,50.13-.08,51.95-1.28.7-.44,1-7.5,1.17-16.05v-.26c0-1.76.05-3.58.06-5.41,0-.26,0-.51,0-.76.06-12.33-.13-25.12-.13-25.12l-32.4.32,1,24.89,0,1,.19,5.15,0,.53s-18.43,8.53-20.3,10.06S234.05,440.34,235.75,440.88Z" style="fill:#dc6a57"></path><path d="M235.75,440.88c1.7.54,50.13-.08,51.95-1.28.7-.44,1-7.5,1.17-16.05v-.26c0-1.76.05-3.58.06-5.41,0-.26,0-.51,0-.76l-31.55.09,0,1,.19,5.15,0,.53s-18.43,8.53-20.3,10.06S234.05,440.34,235.75,440.88Z" style="fill:#455a64"></path><path d="M235.75,440.88c1.7.54,50.13-.08,51.95-1.28.7-.44,1-7.5,1.17-16.05v-.26l-31.25,0,0,.53s-18.43,8.53-20.3,10.06S234.05,440.34,235.75,440.88Z" style="fill:#37474f"></path><path d="M236.28,439c8.16-.3,41.1-.77,49.19-.45.06,0,.06,0,0,0-8.08.48-41,.68-49.19.54C236.1,439.12,236.1,439,236.28,439Z" style="fill:#263238"></path><path d="M254.15,423.48c3.2-.64,7.13-.2,9.62,2,.1.09,0,.23-.13.2a45.57,45.57,0,0,0-9.48-1.85A.2.2,0,0,1,254.15,423.48Z" style="fill:#263238"></path><path d="M251.84,424.9c3.21-.64,7.14-.2,9.63,2.06.09.09,0,.22-.14.19a45.46,45.46,0,0,0-9.47-1.84A.21.21,0,0,1,251.84,424.9Z" style="fill:#263238"></path><path d="M249.54,426.33c3.21-.64,7.14-.2,9.63,2.06.09.09,0,.22-.14.19a44.82,44.82,0,0,0-9.47-1.84A.21.21,0,0,1,249.54,426.33Z" style="fill:#263238"></path><path d="M251.38,421.08c2.29,1.74,5.26,2.42,7.92,3.37a.39.39,0,0,0,.5-.41.09.09,0,0,0,.08-.12,17.14,17.14,0,0,0-5-7.29c-1.35-1.11-3.71-1.86-5-.11S250,420.07,251.38,421.08Zm-.85-2.57c-.62-3.52,3.19-1.72,4.16-.86a18.5,18.5,0,0,1,1.72,1.82c1.13,1.32,2,2.77,3,4.19-1.28-.55-2.59-1-3.89-1.47C254,421.59,250.86,420.45,250.53,418.51Z" style="fill:#263238"></path><path d="M270.54,418.89c-.81-2-3.28-1.8-4.85-1a17.22,17.22,0,0,0-6.59,5.94.09.09,0,0,0,0,.13c0,.24.1.55.39.51,2.81-.31,5.86-.29,8.49-1.45C269.57,422.3,271.3,420.78,270.54,418.89Zm-6.83,4.2c-1.38.19-2.76.31-4.13.54a48.74,48.74,0,0,1,3.92-3.38,18,18,0,0,1,2.1-1.37c1.13-.61,5.25-1.49,3.85,1.79C268.68,422.48,265.35,422.87,263.71,423.09Z" style="fill:#263238"></path><path d="M256.3,423.45l35.26.79s-4.29-51.83-3.52-56.37c.36-2.1,42.58-8.28,56.13-22.5,11.67-12.24.93-35.19.93-35.19l-32-.83s-1.05,9.84,1.24,15.93c0,0-49.86,12-55.46,22.91C253,359.87,256.3,423.45,256.3,423.45Z" style="fill:#455a64"></path><path d="M255.84,363.1c.22-2.87.55-5.73,1-8.57.24-1.41.51-2.81.83-4.21a13,13,0,0,1,1.29-3.68c1.25-2.19,3.58-3.58,5.7-4.81a57.93,57.93,0,0,1,7.18-3.48c5.11-2.08,10.39-3.69,15.64-5.37,3.16-1,6.32-2,9.49-3s6.48-1.87,9.69-2.92a.06.06,0,0,1,0,.11c-2.81.94-5.57,2-8.36,3s-5.46,1.92-8.2,2.86L282,335.84c-2.54.87-5.09,1.71-7.6,2.67a66.27,66.27,0,0,0-7.16,3.17A23.87,23.87,0,0,0,261,345.8c-1.86,1.9-2.25,4.66-2.75,7.16-.56,2.84-1,5.7-1.26,8.58-.66,6.35-1.14,12.33-1.4,18.7,0,.43-.24.78-.24.36C255.27,374.77,255.39,368.92,255.84,363.1Z" style="fill:#263238"></path><path d="M283.78,367.42a2.29,2.29,0,0,1,1.54-1.65c2-.92,4.05-1.71,6.11-2.47,8.16-3,16.59-5.2,24.81-8a103,103,0,0,0,12.23-5c1.94-1,3.85-2,5.69-3.14a31.55,31.55,0,0,0,5.46-4.1c7-6.81,6.5-17.3,4.93-26.15-.21-1.21-.45-2.41-.68-3.62a.06.06,0,0,1,.12,0c1.68,8.73,3.49,18.56-1.42,26.63-2.26,3.73-5.93,6.24-9.62,8.41a81.54,81.54,0,0,1-11.89,5.59c-8.14,3.13-16.59,5.32-24.86,8.07-2.11.7-4.22,1.43-6.29,2.23-1,.4-2.06.81-3.08,1.24s-2.42.76-2.72,1.86a4.77,4.77,0,0,0,0,1.6c.05.66.09,1.32.14,2l.27,3.86.54,7.62q1.08,15.35,2.14,30.68c.09,1.26.18,2.51.26,3.76,0,.15-.22.13-.23,0-.76-10.19-1.47-20.39-2.19-30.58q-.56-7.68-1.09-15.35l-.13-1.77A7.26,7.26,0,0,1,283.78,367.42Z" style="fill:#263238"></path><path d="M333.25,315.87c0-.06.12-.05.11,0a11.21,11.21,0,0,0,.33,4.61,6.76,6.76,0,0,0,2.18,2.91c2.32,1.86,5.26,2.1,8,2.83a.12.12,0,0,1,0,.23c-3,0-6.25-.69-8.61-2.62a6.87,6.87,0,0,1-2.22-3.16A8.7,8.7,0,0,1,333.25,315.87Z" style="fill:#263238"></path><path d="M257.68,417.84c5.33,0,3.8-.11,9.13-.1,2.61,0,19.74.07,22.18.5.05,0,.05.1,0,.11-2.44.37-19.57,0-22.18,0-5.32-.11-3.79-.14-9.12-.31C257.58,418,257.58,417.84,257.68,417.84Z" style="fill:#263238"></path><path d="M312.85,311.51c.15,1.95.26,3.91.5,5.86.11.92.2,1.85.38,2.76a1.78,1.78,0,0,0,.49,1.05,2.25,2.25,0,0,0,1.18.4,1.28,1.28,0,0,0,1.59-1.25c.17-1.78-.35-8-.37-8.48,0-.1.33-.1.34,0,.48,3.91,1.13,8.89.3,9.74a2.6,2.6,0,0,1-3.39.24,2.46,2.46,0,0,1-.75-1.59c-.12-.85-.16-1.73-.22-2.58-.16-2-.33-4.09-.37-6.13C312.52,311.33,312.83,311.32,312.85,311.51Z" style="fill:#263238"></path><path d="M313.84,322.21a5.7,5.7,0,0,1,.15.74c.05.25.11.5.17.74s.11.5.18.74.11.49.16.74a.1.1,0,0,1-.18.06,6,6,0,0,1-.3-.69c-.08-.25-.16-.5-.23-.75s-.12-.49-.17-.74a3.44,3.44,0,0,1-.13-.78A.18.18,0,0,1,313.84,322.21Z" style="fill:#263238"></path><path d="M314.18,271.43c-1.15,5.86-13.25,21.54-25,30.45-7.06,5.36-36.33,6.38-42.37,4.92-6.86-1.65-4.88-17.86-.89-19,5-1.41,29.84,1.44,36.81-2.63A179,179,0,0,0,303.35,271C309.5,265.87,315.27,265.87,314.18,271.43Z" style="fill:#dd6a57"></path><path d="M250,307.12c-2.39.08-10.56-1.21-16.49-3.4-2.87-1.07-10.81-5-10.16-7.27s3.07-1.33,3.07-1.33-3.1-2.16-2.24-4.39,4.58-.63,4.58-.63-3-2.45-2-4.61,4.49.07,4.49.07-2.88-2.12-1.29-3.54c1.91-1.72,6.76,2.78,10,3.8.74.23,15.25,3.62,15.25,3.62Z" style="fill:#dd6a57"></path><path d="M231.26,285.55c3.57,3.3,5.71,4.12,10.42,5,.09,0,.09.16,0,.15-4.69-.43-7.52-1.08-10.58-5C230.94,285.52,231.09,285.39,231.26,285.55Z" style="fill:#263238"></path><path d="M228.52,290c4,3.1,6.32,4,11.19,5.28a.07.07,0,0,1,0,.13c-4.87-.85-7.68-1.56-11.28-5.19C228.23,290.08,228.34,289.87,228.52,290Z" style="fill:#263238"></path><path d="M226.71,295.36c4.11,2.72,6.59,3.84,11.48,4.46a.09.09,0,0,1,0,.18,16.35,16.35,0,0,1-11.53-4.5C226.41,295.29,226.45,295.19,226.71,295.36Z" style="fill:#263238"></path><rect x="197.81" y="266.88" width="49.19" height="35.48" transform="translate(42.19 -28.42) rotate(8.08)" style="fill:#ebebeb"></rect><rect x="207" y="272.24" width="3.58" height="19.66" transform="translate(41.7 -26.53) rotate(8.08)" style="fill:#FFC727"></rect><rect x="212.32" y="280.14" width="3.58" height="12.54" transform="translate(42.36 -27.24) rotate(8.08)" style="fill:#FFC727"></rect><rect x="218.34" y="278.07" width="3.58" height="15.46" transform="translate(42.34 -28.1) rotate(8.08)" style="fill:#FFC727"></rect><rect x="223.69" y="285.53" width="3.58" height="8.79" transform="translate(42.97 -28.8) rotate(8.08)" style="fill:#FFC727"></rect><rect x="229.9" y="280.94" width="3.58" height="14.24" transform="translate(42.77 -29.69) rotate(8.08)" style="fill:#FFC727"></rect><rect x="235.91" y="279.06" width="3.58" height="16.95" transform="translate(42.74 -30.54) rotate(8.07)" style="fill:#FFC727"></rect><path d="M206.3,269.58q-.56,5.43-1.22,10.86c-.44,3.61-.89,7.23-1.4,10.83l-.38-.51,9.37,1.29,9.35,1.39c3.12.45,6.23,1,9.34,1.47s6.22,1,9.32,1.61c-3.14-.32-6.27-.66-9.4-1s-6.26-.75-9.38-1.18L212.53,293l-9.36-1.36-.45-.07.07-.44c.52-3.61,1.09-7.21,1.67-10.8S205.65,273.16,206.3,269.58Z" style="fill:#c7c7c7"></path><path d="M204.87,271.36a5.49,5.49,0,0,1,2.32.33,5.49,5.49,0,0,1-2.32-.33Z" style="fill:#c7c7c7"></path><path d="M204.59,273.35a5.08,5.08,0,0,1,1.17,0,5,5,0,0,1,1.14.29,5.08,5.08,0,0,1-1.17,0A5,5,0,0,1,204.59,273.35Z" style="fill:#c7c7c7"></path><path d="M204.3,275.34a5.49,5.49,0,0,1,2.32.33,5.06,5.06,0,0,1-1.17,0A5.24,5.24,0,0,1,204.3,275.34Z" style="fill:#c7c7c7"></path><path d="M204,277.33a5.8,5.8,0,0,1,1.18.05,5.13,5.13,0,0,1,1.14.28,5.49,5.49,0,0,1-2.32-.33Z" style="fill:#c7c7c7"></path><path d="M203.74,279.33a5.06,5.06,0,0,1,1.17,0,5.24,5.24,0,0,1,1.15.29,5.94,5.94,0,0,1-2.32-.33Z" style="fill:#c7c7c7"></path><path d="M203.46,281.32a5.08,5.08,0,0,1,1.17,0,5,5,0,0,1,1.14.29,5.08,5.08,0,0,1-1.17,0A5,5,0,0,1,203.46,281.32Z" style="fill:#c7c7c7"></path><path d="M203.17,283.31a5.49,5.49,0,0,1,2.32.33,5.49,5.49,0,0,1-2.32-.33Z" style="fill:#c7c7c7"></path><path d="M202.89,285.3a5.49,5.49,0,0,1,2.32.33,5.49,5.49,0,0,1-2.32-.33Z" style="fill:#c7c7c7"></path><path d="M202.61,287.3a5.06,5.06,0,0,1,1.17,0,5.24,5.24,0,0,1,1.15.29,5.77,5.77,0,0,1-1.18-.05A5,5,0,0,1,202.61,287.3Z" style="fill:#c7c7c7"></path><path d="M202.33,289.29a5.08,5.08,0,0,1,1.17,0,5,5,0,0,1,1.14.29,5.47,5.47,0,0,1-2.31-.33Z" style="fill:#c7c7c7"></path><path d="M216.64,270.53c1.29,0,2.57.13,3.85.25s2.55.29,3.82.46,2.54.38,3.8.62,2.52.5,3.77.83c-1.3,0-2.58-.13-3.85-.25s-2.55-.29-3.83-.46-2.53-.38-3.79-.63S217.89,270.86,216.64,270.53Z" style="fill:#c7c7c7"></path><path d="M219.24,272.7a31.56,31.56,0,0,1,9.53,1.35,30.74,30.74,0,0,1-9.53-1.35Z" style="fill:#c7c7c7"></path><path d="M204.86,295.55l-2.44-.35.34-2.45,2.45.35Zm-1.88-.77,1.46.2.2-1.45-1.45-.21Z" style="fill:#c7c7c7"></path><path d="M206.75,293.57c3.9.35,7.77.88,11.64,1.4s7.73,1.14,11.57,1.9c-3.9-.35-7.77-.88-11.64-1.4S210.59,294.33,206.75,293.57Z" style="fill:#c7c7c7"></path><path d="M206.61,294.55c2.22.12,4.41.38,6.6.68s4.36.67,6.52,1.18c-2.22-.12-4.41-.38-6.59-.68S208.77,295.05,206.61,294.55Z" style="fill:#c7c7c7"></path><path d="M206.48,295.52c2.71.18,5.39.55,8.07.9s5.36.8,8,1.39c-2.71-.18-5.39-.55-8.08-.9S209.13,296.11,206.48,295.52Z" style="fill:#c7c7c7"></path><path d="M258.53,287.46a59.84,59.84,0,0,0-8.46-2.41c-2.72-.35-13.34,2.08-12.94,4.41.51,3,6.91,2.8,10,2.29,0,0,1.17,6.94,5.8,7.79S258.53,287.46,258.53,287.46Z" style="fill:#dd6a57"></path><path d="M237.54,290.23c2.44,2.4,6.5,1.47,9.56,1.21a.28.28,0,0,1,.31.34c.69,2.88,2.5,6.73,5.4,7.87a.07.07,0,0,1,0,.14c-3.28-.8-5.36-4.44-5.91-7.64-3.15.32-7.26,1.07-9.35-1.89A0,0,0,0,1,237.54,290.23Z" style="fill:#263238"></path><path d="M264.19,286.42l.81,22.32s18.76-1.62,25.79-6.45c8.16-5.61,17.69-17.52,22-24.79s5.08-16.44-7.91-8.31-21.7,14.79-23.81,15.59S264.19,286.42,264.19,286.42Z" style="fill:#ebebeb"></path><polygon points="265.85 285.01 267.66 309.76 261.83 310.58 260.18 284.78 265.85 285.01" style="fill:#ebebeb"></polygon><path d="M266,286.89c0-.08-.14-.06-.14,0-.12,5.46,1,17.1,1.36,20.85a.13.13,0,0,0,.25,0C267.41,304,266.1,288.8,266,286.89Z" style="fill:#263238"></path><path d="M301,323.05c1.21,1,50.74,1.58,51,1.24s-13.53-52.86-31.65-59.36c-2.87-1-10.37-.28-11.18.8C302.34,274.78,300.21,322.42,301,323.05Z" style="fill:#ebebeb"></path><path d="M303.86,283.76c-.15,1.24-.37,2.48-.56,3.72l-.18-1.58c0-.08-.14-.08-.13,0,.06.68.09,1.37.12,2l0,.85c-.09.84-.18,1.34-.22,2.19,0,.15.07.2.13-.07.17-.85.78-5.44.94-7.16C304,283.7,303.87,283.68,303.86,283.76Z" style="fill:#263238"></path><polygon points="313.5 277.44 311.58 273.73 308.44 277.02 309.27 279.82 312.19 280.1 313.5 277.44" style="fill:#FFC727"></polygon><polygon points="312.19 280.1 314.56 312.76 308.76 323.75 306.44 312.44 309.27 279.82 312.19 280.1" style="fill:#FFC727"></polygon><path d="M309.1,265.47l2.78,6.7,8.27-8.61,2.4,2.71s-8,13.62-8.09,13l-2.84-5.77-4,4.08.21-10.13Z" style="fill:#ebebeb"></path><path d="M307.48,272.58c.09-1.68.14-3.36.3-5,0-.06.1-.09.12,0,.35,1.61,0,8,0,9.54v0c.17-.17,3.67-3.59,3.71-3.54.61.92,2.7,5.12,2.84,5.5,1.27-2.16,6.66-10.7,8.17-12.75.05-.06.14,0,.1.06-1.11,2.28-8.08,13.54-8.18,13.52a64.82,64.82,0,0,1-3-6.11,45,45,0,0,1-4.14,4.35A50.44,50.44,0,0,1,307.48,272.58Z" style="fill:#263238"></path><path d="M311.85,273c2.75.41,7-4.1,8.61-7.6.1-.24-.45-2.63-1-5.57-.31-1.78-.63-3.78-.78-5.61,0-.38-1.26.42-1.26.42l-2.33.77L307.39,258a29.07,29.07,0,0,1,1.7,7,3.83,3.83,0,0,1,0,.76s0,.08,0,.13C309,267.31,309.18,272.62,311.85,273Z" style="fill:#dd6a57"></path><path d="M309.08,265.73s0,.08,0,.13a7,7,0,0,0,1.19,0c7.75-.81,7.9-10.77,7.9-10.77l-3.06.39L307.39,258a29.07,29.07,0,0,1,1.7,7A3.83,3.83,0,0,1,309.08,265.73Z" style="fill:#263238"></path><path d="M318.94,240.45c1.86,3.86,1.51,15.91-1,19-3.6,4.43-10.39,5.84-14.38,1.31s-3.14-20.09-.28-23C307.52,233.54,316.19,234.74,318.94,240.45Z" style="fill:#dd6a57"></path><path d="M301.93,242.49c4,2.75,9.49-1.4,9.49-1.4a4.35,4.35,0,0,0,4.42,2.76s.78,6.79,2.57,6.78c2.72,0,3.57-9.27,2.71-11.08a4.84,4.84,0,0,0-3.16-2.29,4.46,4.46,0,0,0-1.86-2.7c-1.85-1.42-8.28.49-8.28.49a5.94,5.94,0,0,0-1.64-2.22,1.67,1.67,0,0,0-2.42.22,4.12,4.12,0,0,1,.65,1.67c.32,2-1.3,2-1.29.18a2.76,2.76,0,0,1,.64-1.85c-.8-1.18-2.11-1.56-2.9-.93C299.42,233.26,298.6,240.21,301.93,242.49Z" style="fill:#263238"></path><path d="M308.35,249.55s.06,0,.06.07c-.07.81,0,1.74.71,2,0,0,0,.05,0,.05C308.22,251.54,308.16,250.3,308.35,249.55Z" style="fill:#263238"></path><path d="M309.11,248.75c1.3,0,1.27,2.56.07,2.59S308,248.77,309.11,248.75Z" style="fill:#263238"></path><path d="M303.61,249.49s-.06,0-.06.07c0,.81-.1,1.73-.83,2,0,0,0,0,0,0C303.62,251.48,303.76,250.25,303.61,249.49Z" style="fill:#263238"></path><path d="M302.9,248.64c-1.29-.11-1.42,2.49-.22,2.59S304,248.74,302.9,248.64Z" style="fill:#263238"></path><path d="M310.15,247.57c-.36-.1-.67-.24-1-.37a1.7,1.7,0,0,1-.95-.57.55.55,0,0,1,.1-.66,1.37,1.37,0,0,1,1.37-.13,2,2,0,0,1,1.15.88A.59.59,0,0,1,310.15,247.57Z" style="fill:#263238"></path><path d="M301.91,247.32a7.53,7.53,0,0,0,1-.26,1.69,1.69,0,0,0,1-.46.54.54,0,0,0,0-.67,1.36,1.36,0,0,0-1.36-.27,2,2,0,0,0-1.23.75A.59.59,0,0,0,301.91,247.32Z" style="fill:#263238"></path><path d="M309.12,256.68c-.15.22-.29.51-.57.59a2.22,2.22,0,0,1-.89,0,0,0,0,0,0,0,0,1.11,1.11,0,0,0,1.09.24.87.87,0,0,0,.49-.82C309.21,256.65,309.15,256.65,309.12,256.68Z" style="fill:#263238"></path><path d="M308.13,254.35a2.69,2.69,0,0,1-1.84,1.2,3.64,3.64,0,0,1-1,0l-.36-.05a.2.2,0,0,1-.16-.19h0s.07-1.72.07-1.72c-.23.11-1.39.61-1.37.29a41.68,41.68,0,0,1,1.15-8.29.08.08,0,0,1,.15,0c-.08,2.58-.61,5.14-.73,7.73a5,5,0,0,1,1.3-.38s-.15,2.11-.14,2.13a3.82,3.82,0,0,0,2.85-.85C308.12,254.23,308.18,254.29,308.13,254.35Z" style="fill:#263238"></path><path d="M305.71,255.41a3.2,3.2,0,0,0,1.37.92,1.5,1.5,0,0,0,.89,0c.63-.21.61-.8.46-1.3a3.22,3.22,0,0,0-.34-.75A4.21,4.21,0,0,1,305.71,255.41Z" style="fill:#263238"></path><path d="M307.08,256.33a1.5,1.5,0,0,0,.89,0c.63-.21.61-.8.46-1.3A1.53,1.53,0,0,0,307.08,256.33Z" style="fill:#ff9cbd"></path><path d="M302,253.32c-1.19,0-2.17-1.47-2.17-3.27s1-3.28,2.17-3.28,2.17,1.47,2.17,3.28S303.16,253.32,302,253.32Zm0-6.11c-.95,0-1.73,1.27-1.73,2.84s.78,2.83,1.73,2.83,1.73-1.27,1.73-2.83S302.91,247.21,302,247.21Z" style="fill:#FFC727"></path><path d="M309.31,253.32a3.28,3.28,0,1,1,3.06-3.27A3.17,3.17,0,0,1,309.31,253.32Zm0-6.11a2.84,2.84,0,1,0,2.62,2.84A2.73,2.73,0,0,0,309.31,247.21Z" style="fill:#FFC727"></path><path d="M306.39,249.75c-1.64-.58-2.38,0-2.38,0l-.28-.35s.92-.7,2.81,0Z" style="fill:#FFC727"></path><path d="M312.15,249.76l-.08-.43c.28-.06,7-1.29,7.7-1.33a8.19,8.19,0,0,1,2.75,1.07l-.21.38a8.59,8.59,0,0,0-2.49-1h0C319.23,248.47,314.55,249.32,312.15,249.76Z" style="fill:#FFC727"></path><path d="M317.54,251.16s2.15-4.15,4-3.43.59,6.49-1.34,7.51a2.07,2.07,0,0,1-2.9-.74Z" style="fill:#dd6a57"></path><path d="M321.14,249.37s.05,0,0,0A5.27,5.27,0,0,0,318.9,253a1.15,1.15,0,0,1,1.66-.54s0,.08,0,.08a1.26,1.26,0,0,0-1.33.63,5.89,5.89,0,0,0-.52,1.21c-.05.14-.29.1-.26,0v0C318.15,252.53,319.22,249.81,321.14,249.37Z" style="fill:#263238"></path><path d="M303.27,315.21a137.86,137.86,0,0,1-14,1.48c-3,.06-8.09.62-10.25,1.67-3.25,1.57-15.82,10.2-13.79,13.29,1.83,2.8,11.69-6,11.69-6s-10.73,8-7.9,10.94,12.64-8.44,12.64-8.44-10.83,8.45-7.43,11.05c2.57,2,12-7.87,12-7.87s-9.27,7.33-6.71,9.46c2.82,2.36,12.13-6.17,12.13-6.17,7.41,4.32,14.32,1.77,18,.63C310.58,335,303.27,315.21,303.27,315.21Z" style="fill:#dd6a57"></path><path d="M279.81,323.13a42.5,42.5,0,0,0-10.31,9.77c-.17.25-.3.48-.29.46,2.24-2.22,9.43-9.18,10.64-10.18A0,0,0,0,0,279.81,323.13Z" style="fill:#263238"></path><path d="M284.15,327c-4,1.95-7.68,6.26-9.13,7.64-.12.1,0,.13.09,0,1.51-1.32,7.51-6.39,9.07-7.63C284.21,327,284.18,327,284.15,327Z" style="fill:#263238"></path><path d="M287.6,330.41a20.84,20.84,0,0,0-6.5,5.8c-.1.13,0,.13.13,0,2.26-2.08,3.61-3.41,6.43-5.74C287.7,330.46,287.66,330.38,287.6,330.41Z" style="fill:#263238"></path><path d="M322.51,269.69c-1,6,2.61,36.78,2.21,37.89s-25.1,8.89-29.65,10.07c-3.16.82,5.25,18.81,11.32,18.11,9.4-1.07,34.06-7.71,38.13-15.42s-9-36.82-12-42.73S323.36,264.69,322.51,269.69Z" style="fill:#dd6a57"></path><path d="M323.57,307.12c1.59-1.6-1.87-24.19-1.74-32.82s2.52-9.05,8.74-.34,17.72,37.5,15.28,44.76-13.31,12.41-33.35,17l-11.09-21.92S322.36,308.33,323.57,307.12Z" style="fill:#ebebeb"></path><path d="M322,285.48c0-.09-.15-.08-.14,0,.08.5.28,2.19.51,4.41a5.55,5.55,0,0,0-.2-.52c-.22-.5-.46-1-.69-1.51a.07.07,0,1,0-.12.06,10.75,10.75,0,0,1,.64,1.53c.09.26.18.51.26.76s.13.44.22.65c.63,6,1.44,15,1,15.81-.85,1-19.47,6.54-21.44,7.06a.07.07,0,0,0,0,.14c2.08-.65,20.06-5.24,21.67-6.71C325.13,305.84,322.2,287.49,322,285.48Z" style="fill:#263238"></path><path d="M346.44,312.37c-.59-5.38-2.82-10.42-4.76-15.42-.59-1.5-1.18-3-1.8-4.49s-1.33-2.95-1.81-4.48a.07.07,0,1,0-.12,0c.59,1.32,1,2.74,1.48,4.11s.88,2.48,1.33,3.71c.9,2.49,1.86,5,2.75,7.44a46.93,46.93,0,0,1,2.14,7.33,17.45,17.45,0,0,1,0,7.71c-.73,2.59-2.5,4.49-4.36,6.33-.08.08,0,.24.13.17a13,13,0,0,0,4.22-5.14A14.25,14.25,0,0,0,346.44,312.37Z" style="fill:#263238"></path><polygon points="296.98 313.86 304.06 312.38 314.56 336.31 308.69 338.31 296.98 313.86" style="fill:#ebebeb"></polygon><path d="M304.83,314.05c0-.08-.15,0-.12.07,1.73,5.18,7.35,17.49,9,20.9.06.13.27,0,.22-.1C312.58,331.34,305.62,315.8,304.83,314.05Z" style="fill:#263238"></path><path d="M304.12,312.35c-.1-.05-.18,0-.28,0l-.4.1-.75.18c-.53.13-1.05.28-1.59.36a.07.07,0,1,0,0,.14c.51-.15,1-.23,1.56-.35l.75-.17.4-.09c.11,0,.23,0,.3-.12S304.14,312.36,304.12,312.35Z" style="fill:#263238"></path></g><g id="freepik--character-1--inject-272"><polygon points="135.86 360.21 137.7 371.25 150.16 438.57 152.17 438.57 143.11 371.25 141.77 360.21 135.86 360.21" style="fill:#a6a6a6"></polygon><polygon points="141.77 360.21 135.86 360.21 137.7 371.25 143.11 371.25 141.77 360.21" style="fill:#263238"></polygon><polygon points="96.71 438.57 98.72 438.57 111.18 371.25 113.03 360.21 107.11 360.21 105.77 371.25 96.71 438.57" style="fill:#a6a6a6"></polygon><polygon points="107.11 360.21 105.77 371.25 111.18 371.25 113.03 360.21 107.11 360.21" style="fill:#263238"></polygon><polygon points="59.32 438.57 61.33 438.57 73.79 371.25 75.63 360.21 69.72 360.21 68.38 371.25 59.32 438.57" style="fill:#a6a6a6"></polygon><polygon points="68.38 371.25 73.79 371.25 75.63 360.21 69.72 360.21 68.38 371.25" style="fill:#263238"></polygon><polygon points="62.5 365.39 153.85 365.39 153.85 355.77 119.66 355.77 108.16 288.9 65.99 288.9 62.5 365.39" style="fill:#a6a6a6"></polygon><polygon points="62.5 365.39 67.48 365.39 70.73 288.9 65.99 288.9 62.5 365.39" style="fill:#dbdbdb"></polygon><path d="M101.52,236.45c-4.9,3.33-11,32.69-13.09,35.82-1.51,2.22-3.4,4.44-3.31,5.68s5.37,7.39,15.37,9.33,19.86-2.84,20.86-4.1-1.64-5.57-1.54-9.46,3.56-25.11,1.44-31.44C118.85,235.11,108.16,231.92,101.52,236.45Z" style="fill:#263238"></path><path d="M122.05,282a18.64,18.64,0,0,1-1.5-8c0-3.1.45-6.2.79-9.28.36-3.25.73-6.49,1.08-9.74a30.1,30.1,0,0,0,.19-8.63,15.88,15.88,0,0,0-3.54-7.52s-.07,0,0,0a17,17,0,0,1,3.29,7.52c.52,3.06,0,6.2-.33,9.26s-.71,6.38-1.06,9.56c-.32,2.93-.68,5.88-.71,8.83,0,2.72.24,5.74,1.68,8.08C121.94,282.15,122.09,282.07,122.05,282Z" style="fill:#263238"></path><path d="M102.38,236.26c-2.55,1.38-3.8,4.13-4.82,6.76-1.38,3.59-2.65,7.22-3.84,10.87s-2.26,7.6-3.46,11.37a39.77,39.77,0,0,1-5.21,10.3c0,.08,0,.17.1.1,4.76-5.57,6.23-13.1,8.41-19.91q1.8-5.67,3.81-11.26c1.08-3,2.2-6.44,5-8.17C102.46,236.29,102.42,236.23,102.38,236.26Z" style="fill:#263238"></path><path d="M104.72,235.22c-5.35,2.1-7.46,8.08-9.18,13.18-2.05,6.07-3.53,12.31-5.33,18.45-1,3.46-1.93,7.22-4.18,10.1-.06.09.06.2.13.11a20.43,20.43,0,0,0,3.44-7.15c1-3,1.83-6.12,2.68-9.2,1.68-6.1,3.22-12.4,5.85-18.17,1.39-3,3.46-6,6.61-7.26C104.78,235.27,104.76,235.21,104.72,235.22Z" style="fill:#263238"></path><path d="M168.24,352c-2.15,4.8-4.87,10.06-7.83,15.38-11.12,20.06-25.55,41-25.55,41l-26-12.8s8.92-16.17,15.86-30c1.15-2.3,2.25-4.54,3.25-6.62v0c3.15-6.62,5.23-11.71,4.6-12.52-2.17-2.8-29,.41-40.37-10.84-12-11.92-2.83-28.88-2.83-28.88h31.32s.49,4,1.84,5.07c.89.74,4.28,1.85,8.93,3.28,8.66,2.65,21.68,6.38,30.92,10.78,4.39,2.09,7.93,4.33,9.75,6.68C174.4,335.46,172.35,342.89,168.24,352Z" style="fill:#eb9481"></path><path d="M147.33,438.06c-1.77-.24-46.26-22.44-47.39-24.3-.14-.22,1.78-4.28,4.51-9.81,6.15-12.51,18.45-33.66,18.45-33.66l26.78,15-14.74,27.93s4.95,6,9,11.08h0a71.14,71.14,0,0,1,5,6.75C149.91,433.29,149.09,438.31,147.33,438.06Z" style="fill:#eb9481"></path><path d="M147.33,438.06c-1.77-.24-46.26-22.44-47.39-24.3-.14-.22,1.78-4.28,4.51-9.81,9.88,7.79,37.48,26,39.46,24.05.78-.76.59-2.15,0-3.64a71.14,71.14,0,0,1,5,6.75C149.91,433.29,149.09,438.31,147.33,438.06Z" style="fill:#37474f"></path><path d="M168.24,352c-2.15,4.8-4.87,10.06-7.83,15.38l-35.69-1.81c1.15-2.3,2.25-4.54,3.25-6.62v0c3.15-6.62,5.23-11.71,4.6-12.52-2.17-2.8-29,.41-40.37-10.84-12-11.92-2.83-28.88-2.83-28.88h31.32s.49,4,1.84,5.07c.89.74,4.28,1.85,8.93,3.28Z" style="fill:#263238"></path><path d="M162.38,325.84c-3,2.32-5,7.29-5,7.29-19.28,6.54-24.18,14.11-24.81,13.3-2.17-2.8-29,.41-40.37-10.84-12-11.92-2.83-28.88-2.83-28.88h31.32s.49,4,1.84,5.07C125.08,313.9,148.17,319.08,162.38,325.84Z" style="fill:#37474f"></path><path d="M203.11,442.46c-1.72.45-51.31-3.08-53.07-4.38-.21-.15,0-4.63.42-10.78.91-13.91,2.77-36.36,2.77-36.36l31.94,1.89-3,31.44s6.86,3.65,12.51,6.82c0,0,0,0,0,0a70.57,70.57,0,0,1,7.18,4.33C203.68,437.05,204.84,442,203.11,442.46Z" style="fill:#eb9481"></path><path d="M203.11,442.46c-1.72.45-51.31-3.08-53.07-4.38-.21-.15,0-4.63.42-10.78,12.11,3.42,44.55,9.68,45.65,7.16.44-1-.27-2.22-1.38-3.36a70.57,70.57,0,0,1,7.18,4.33C203.68,437.05,204.84,442,203.11,442.46Z" style="fill:#37474f"></path><path d="M182.77,418.26,151.28,417s3.94-48.62.89-51.88c-1.54-1.65-11.87-3.49-24.2-6.19l-.07,0c-4.56-1-9.39-2.12-14.15-3.4-12.38-3.3-24.29-7.65-29.71-13.65-11.34-12.54,0-35.19,0-35.19h32s.79,9.86-1.65,15.9c0,0,23.51,3.45,43.31,9.87,11.21,3.64,21.24,8.24,25.12,13.71C190.36,356.89,182.77,418.26,182.77,418.26Z" style="fill:#eb9481"></path><path d="M157.66,332.48C141.17,338.54,128,359,128,359l-.07,0-14.15-3.4c-12.38-3.3-24.29-7.65-29.71-13.65-11.34-12.54,0-35.19,0-35.19h32s.79,9.86-1.65,15.9C114.35,322.61,137.86,326.06,157.66,332.48Z" style="fill:#37474f"></path><path d="M173,338.5a116.84,116.84,0,0,0-11.18-4.76,109.72,109.72,0,0,0-11.33-3.62c-2.22-.58-4.47-1.05-6.72-1.49a.07.07,0,0,0,0,.13c7.92,1.57,15.46,4.73,23,7.61,2.06.79,4.13,1.62,6.22,2.31C173,338.72,173.06,338.55,173,338.5Z" style="fill:#263238"></path><path d="M153.48,369.87a10.37,10.37,0,0,0-.92-4.27,3.86,3.86,0,0,0-2.67-1.62c-.1,0-.11.1,0,.14a3.76,3.76,0,0,1,2.47,2.26,32.14,32.14,0,0,1,.49,4.7,74.32,74.32,0,0,1,.29,8.7c0,.18.26.17.27,0A68.15,68.15,0,0,0,153.48,369.87Z" style="fill:#263238"></path><path d="M111.14,305.89c2.89,3.15,7.36,6,12.09,8.35,5.56,2.78,18.23,8.63,19.2,8.95,2.42.78,11-15.67,9.73-18.09-.29-.55-28.28-9.72-29-10.8s-3.55-8.8-7.62-19.49c-2.71-7.13-8.27-11.27-8.94-1.61C106.16,280.25,107.54,302,111.14,305.89Z" style="fill:#eb9481"></path><path d="M137.5,320.58a65.34,65.34,0,0,0,7,4.92c2,1.09,7.74,4.07,9.16,2,1-1.4-2.22-3.55-4.44-5.13-1.17-.83-2.46-2.53-1.89-3.28,1-1.3,4,.91,5.88,2.67,3.67,3.4,8.3,9.09,11.37,7.53,1.15-.59.35-2.32-1-4.14,2.31,2.29,4.87,4.32,6.18,3.71a1.46,1.46,0,0,0,.75-1.85,1.9,1.9,0,0,0,2.14.14c1.08-.71,1-2.16.32-3.76a1,1,0,0,0,.91-.34c2.48-2.4-4.95-12.59-8-14.07a73.33,73.33,0,0,0-19.13-5.81C142.44,305.32,137.5,320.58,137.5,320.58Z" style="fill:#eb9481"></path><path d="M155.13,317.11c3.5,1.87,6,4.19,8.71,8.37,0,.08.19,0,.14-.07-2.3-4.33-4.06-6.25-8.76-8.53C155,316.77,154.91,317,155.13,317.11Z" style="fill:#263238"></path><path d="M159.1,313.8c6.09,3.7,8.32,8.87,11.4,13.21a.05.05,0,1,0,.08-.06c-2.66-4.45-4.14-9.23-11.31-13.36C159.06,313.47,158.9,313.68,159.1,313.8Z" style="fill:#263238"></path><path d="M163.3,311.25c4.82,3,6.91,7.46,9.48,11.89a.09.09,0,0,0,.17-.08c-2.18-4.78-4.45-9.41-9.55-11.93C163.11,311,163,311.08,163.3,311.25Z" style="fill:#263238"></path><path d="M148.16,301.42,137.88,321.5l-.38.74s-23.82-10.93-27.25-16.6c0-.1-.11-.19-.15-.28-1-2.05-1.84-5.86-2.45-10.29a189.12,189.12,0,0,1-1.51-22.79c0-8.69,6-5.31,8.51,0s8.22,21.1,8.95,21.83S148.16,301.42,148.16,301.42Z" style="fill:#FFC727"></path><path d="M134,320a.1.1,0,0,1-.19-.06,10.62,10.62,0,0,1,.93-2.42c.37-.85.74-1.7,1.12-2.55.72-1.64,1.47-3.25,2.23-4.87s1.56-3.3,2.37-4.93,1.72-3.23,2.52-4.87c.05-.09.17,0,.12.06-.84,1.68-1.55,3.43-2.34,5.14s-1.51,3.23-2.26,4.85-1.51,3.32-2.27,5c-.36.78-.72,1.56-1.07,2.34A10.86,10.86,0,0,1,134,320Zm12.32-17.83a3,3,0,0,0-.64-.33l-.66-.27c-.45-.18-.91-.34-1.35-.52-.08,0-.13.09,0,.12.44.2.87.43,1.3.64l.65.31a3.15,3.15,0,0,0,.67.24A.11.11,0,0,0,146.28,302.17Zm-1.75,3.68a3,3,0,0,0-.64-.33l-.66-.26c-.45-.18-.9-.34-1.35-.53a.07.07,0,0,0,0,.13c.44.2.87.43,1.31.64.21.1.42.21.64.3a2.45,2.45,0,0,0,.67.24A.11.11,0,0,0,144.53,305.85Zm-1.75,3.69a2.76,2.76,0,0,0-.64-.33c-.21-.1-.43-.18-.65-.27-.45-.17-.91-.33-1.35-.52-.08,0-.13.09,0,.13.44.2.87.42,1.3.64.21.1.43.21.65.3a2.55,2.55,0,0,0,.67.24C142.82,309.75,142.86,309.6,142.78,309.54ZM141,313.23a3,3,0,0,0-.64-.33l-.66-.27c-.45-.18-.91-.34-1.35-.52-.08,0-.13.09,0,.12.44.2.87.43,1.3.64l.65.31a3.15,3.15,0,0,0,.67.24A.11.11,0,0,0,141,313.23Zm-1.75,3.68a2.56,2.56,0,0,0-.64-.32l-.66-.27c-.45-.18-.9-.34-1.35-.53a.07.07,0,0,0,0,.13c.44.2.87.43,1.31.64.21.1.42.21.64.3a2.87,2.87,0,0,0,.67.25A.11.11,0,0,0,139.29,316.91Zm-1.75,3.69a2.76,2.76,0,0,0-.64-.33c-.21-.1-.43-.18-.65-.27-.45-.17-.91-.33-1.35-.52a.07.07,0,0,0-.05.13c.44.2.87.43,1.3.64.21.1.43.21.65.3a2.55,2.55,0,0,0,.67.24C137.58,320.81,137.62,320.67,137.54,320.6Z" style="fill:#263238"></path><path d="M111.18,306.92a4,4,0,0,1-.25-1.42,3.9,3.9,0,0,1,.25-1.42,3.7,3.7,0,0,1,.25,1.42A3.77,3.77,0,0,1,111.18,306.92Z" style="fill:#fff"></path><path d="M121.94,306.05a3.94,3.94,0,0,1,1.42-.25,3.74,3.74,0,0,1,1.42.25,3.74,3.74,0,0,1-1.42.25A3.94,3.94,0,0,1,121.94,306.05Z" style="fill:#fff"></path><path d="M118,287.73a4.16,4.16,0,0,1,2.84,0,4.16,4.16,0,0,1-2.84,0Z" style="fill:#fff"></path><path d="M128.12,311.92a4.19,4.19,0,0,1,2.85,0,4.19,4.19,0,0,1-2.85,0Z" style="fill:#fff"></path><path d="M111.94,294.38a4,4,0,0,1-1.18-.83,3.86,3.86,0,0,1-.83-1.18,3.67,3.67,0,0,1,1.18.82A3.91,3.91,0,0,1,111.94,294.38Z" style="fill:#fff"></path><path d="M132.77,317.46a4.2,4.2,0,0,1,2,2,4.09,4.09,0,0,1-2-2Z" style="fill:#fff"></path><path d="M130.31,299.19a4.09,4.09,0,0,1,1.19.83,3.84,3.84,0,0,1,.82,1.18,3.67,3.67,0,0,1-1.18-.82A3.91,3.91,0,0,1,130.31,299.19Z" style="fill:#fff"></path><path d="M120.38,297.59a4.09,4.09,0,0,1-2,2,4.2,4.2,0,0,1,2-2Z" style="fill:#fff"></path><path d="M139.43,305.61a4.2,4.2,0,0,1-2,2,3.59,3.59,0,0,1,.83-1.18A3.7,3.7,0,0,1,139.43,305.61Z" style="fill:#fff"></path><path d="M118,287.73a4.16,4.16,0,0,1,2.84,0,4.16,4.16,0,0,1-2.84,0Z" style="fill:#fff"></path><path d="M114.66,274a4.2,4.2,0,0,1-2-2,4.2,4.2,0,0,1,2,2Z" style="fill:#fff"></path><path d="M115.31,280.11a3.86,3.86,0,0,1-.83,1.18,3.75,3.75,0,0,1-1.18.83,4.2,4.2,0,0,1,2-2Z" style="fill:#fff"></path><path d="M137.88,321.5l-.38.74s-23.82-10.93-27.25-16.6c0-.1-.11-.19-.15-.28-1-2.05-1.84-5.86-2.45-10.29Z" style="fill:#263238"></path><path d="M102.55,267.23c.15.79,3.62,6,7.17,6,1.16,0,1.41-6.31,1.41-6.31l.13-.46L113,260l-7.45-5.26-1.08-.7s-.36,1.8-.79,4.05c0,.1,0,.2-.06.32s-.06.24-.08.36c-.06.33-.13.68-.19,1s-.1.51-.14.79-.09.54-.13.81A42.23,42.23,0,0,0,102.55,267.23Z" style="fill:#eb9481"></path><path d="M103.69,258.05a13.45,13.45,0,0,0,7.57,8.38L113,260l-7.45-5.26-1.08-.7S104.12,255.8,103.69,258.05Z" style="fill:#263238"></path><path d="M122.36,249.93c.55,11.74-6.42,13.39-9,13.5-2.3.1-10.14.17-11.89-11.45s3.53-15.58,8.77-16.1S121.82,238.19,122.36,249.93Z" style="fill:#eb9481"></path><path d="M120.61,248c-.28,0-.53-.1-.8-.15a1.31,1.31,0,0,1-.78-.31.42.42,0,0,1,0-.51,1,1,0,0,1,1-.26,1.52,1.52,0,0,1,1,.51A.45.45,0,0,1,120.61,248Z" style="fill:#263238"></path><path d="M112.5,247.8a7.55,7.55,0,0,0,.79-.19,1.29,1.29,0,0,0,.77-.34.42.42,0,0,0,0-.51,1,1,0,0,0-1-.22,1.51,1.51,0,0,0-.94.56A.45.45,0,0,0,112.5,247.8Z" style="fill:#263238"></path><path d="M114.49,251s-.06,0-.06.07c.06.8,0,1.72-.71,2,0,0,0,0,0,0C114.61,253,114.67,251.73,114.49,251Z" style="fill:#263238"></path><path d="M113.73,250.19c-1.29,0-1.26,2.54-.07,2.58S114.81,250.22,113.73,250.19Z" style="fill:#263238"></path><path d="M113.23,250.33c-.23.14-.45.4-.72.43s-.55-.23-.76-.49c0,0,0,0,0,0,0,.5.19,1,.72,1.07s.83-.38.95-.88C113.4,250.4,113.32,250.27,113.23,250.33Z" style="fill:#263238"></path><path d="M118.93,250.78s.07,0,.06.07c0,.8.09,1.72.81,2,0,0,0,0,0,0C118.91,252.76,118.78,251.53,118.93,250.78Z" style="fill:#263238"></path><path d="M119.65,249.94c1.28-.1,1.39,2.48.19,2.58S118.57,250,119.65,249.94Z" style="fill:#263238"></path><path d="M120.19,250.09c.21.13.42.37.67.38s.48-.28.65-.56c0,0,0,0,0,0,0,.49-.11,1-.58,1.12s-.76-.3-.9-.79C120,250.18,120.11,250,120.19,250.09Z" style="fill:#263238"></path><path d="M114.45,257.55c.19.2.37.46.66.5a2.16,2.16,0,0,0,.86-.17,0,0,0,0,1,0,0,1.08,1.08,0,0,1-1,.4.87.87,0,0,1-.61-.73S114.42,257.53,114.45,257.55Z" style="fill:#263238"></path><path d="M117.74,254.59s.19,1.2.2,1.76c0,0-.14.08-.33.09h0a2.69,2.69,0,0,1-2.62-.95.06.06,0,0,1,.08-.08,4.06,4.06,0,0,0,2.46.65c0-.16-.39-2-.3-2a5,5,0,0,1,1.28.27c-.32-2.5-1-4.92-1.32-7.41,0-.08.12-.11.14,0a40.42,40.42,0,0,1,1.77,7.92C119.13,255.09,118,254.69,117.74,254.59Z" style="fill:#263238"></path><path d="M102.35,251.64c1.14-.26,1.75-3.47,1.75-3.47a15.16,15.16,0,0,0,8.34-3.52,22.42,22.42,0,0,0,3.73-4.57,22.78,22.78,0,0,0,2.73,3.75A26.89,26.89,0,0,0,122,246.6s.16-5.14-1.53-7.1c-2.46-2.86-7.25-6.19-13.67-3.27,0,0-4.7,2-5.91,5.87S100.8,252,102.35,251.64Z" style="fill:#263238"></path><path d="M103.42,251.91S101,248.15,99.31,249s0,6.24,1.93,7.05a2,2,0,0,0,2.71-1Z" style="fill:#eb9481"></path><path d="M99.84,250.53s0,0,0,.05a5,5,0,0,1,2.46,3.24,1.09,1.09,0,0,0-1.62-.36s0,.08,0,.07A1.23,1.23,0,0,1,102,254a6.6,6.6,0,0,1,.6,1.11c.06.13.28.07.24-.07v0C103,253.27,101.7,250.78,99.84,250.53Z" style="fill:#263238"></path><path d="M102.22,255.4a1.57,1.57,0,0,0-.59,3.08A1.57,1.57,0,0,0,102.22,255.4Z" style="fill:#fff"></path><path d="M124,310.92c-.85,1.79-12.78,6.47-25.87,5.71A68.21,68.21,0,0,1,79.9,313s8.76-31.46,10.69-35.27a29.86,29.86,0,0,1,6.8-9.14,15.18,15.18,0,0,1,3.08-2.08c.7-1.05.67-4.26,1.17-4.44s10.34,3.76,10.47,4a15.25,15.25,0,0,1,0,2.87c.66.66,10.28,13.4,10.87,17.39.69,4.7-2.39,9.19-2.39,9.19Z" style="fill:#FFC727"></path><path d="M111.18,306.92a4,4,0,0,1-.25-1.42,3.9,3.9,0,0,1,.25-1.42,3.7,3.7,0,0,1,.25,1.42A3.77,3.77,0,0,1,111.18,306.92Z" style="fill:#fff"></path><path d="M105.7,287a4.16,4.16,0,0,1,0-2.84,4.16,4.16,0,0,1,0,2.84Z" style="fill:#fff"></path><path d="M93.74,279.94a4.19,4.19,0,0,1,0-2.85,4.19,4.19,0,0,1,0,2.85Z" style="fill:#fff"></path><path d="M92.63,303a4.16,4.16,0,0,1,0-2.84,4.16,4.16,0,0,1,0,2.84Z" style="fill:#fff"></path><path d="M100.64,299.19a3.74,3.74,0,0,1,1.42-.25,3.55,3.55,0,0,1,1.42.25,4.16,4.16,0,0,1-2.84,0Z" style="fill:#fff"></path><path d="M90.55,287.4a4.19,4.19,0,0,1,2.85,0,4.19,4.19,0,0,1-2.85,0Z" style="fill:#fff"></path><path d="M104.27,273.2a4.19,4.19,0,0,1,2.85,0,4.19,4.19,0,0,1-2.85,0Z" style="fill:#fff"></path><path d="M89.45,311.92a4.16,4.16,0,0,1,2.84,0,4.16,4.16,0,0,1-2.84,0Z" style="fill:#fff"></path><path d="M118,287.73a4.16,4.16,0,0,1,2.84,0,4.16,4.16,0,0,1-2.84,0Z" style="fill:#fff"></path><path d="M109,314.22a4.19,4.19,0,0,1,2.85,0,3.77,3.77,0,0,1-1.42.25A4,4,0,0,1,109,314.22Z" style="fill:#fff"></path><path d="M101.05,309.91a3.91,3.91,0,0,1,1.19.83,3.84,3.84,0,0,1,.82,1.18,3.7,3.7,0,0,1-1.18-.83A3.75,3.75,0,0,1,101.05,309.91Z" style="fill:#fff"></path><path d="M88.26,296.07a3.91,3.91,0,0,1-1.19-.83,3.84,3.84,0,0,1-.82-1.18,4.2,4.2,0,0,1,2,2Z" style="fill:#fff"></path><path d="M111.94,294.38a4,4,0,0,1-1.18-.83,3.86,3.86,0,0,1-.83-1.18,3.67,3.67,0,0,1,1.18.82A3.91,3.91,0,0,1,111.94,294.38Z" style="fill:#fff"></path><path d="M114.66,274a4.2,4.2,0,0,1-2-2,4.2,4.2,0,0,1,2,2Z" style="fill:#fff"></path><path d="M101.64,281.12a4.2,4.2,0,0,1-2-2,4,4,0,0,1,2,2Z" style="fill:#fff"></path><path d="M117.87,310.54a3.75,3.75,0,0,1,1.18.83,3.7,3.7,0,0,1,.83,1.18,4.2,4.2,0,0,1-2-2Z" style="fill:#fff"></path><path d="M120.38,297.59a4.09,4.09,0,0,1-2,2,4.2,4.2,0,0,1,2-2Z" style="fill:#fff"></path><path d="M99.36,291.8a4.18,4.18,0,0,1-.83,1.18,3.79,3.79,0,0,1-1.19.83,4.06,4.06,0,0,1,2-2Z" style="fill:#fff"></path><path d="M84.6,305.61a4.2,4.2,0,0,1-2,2,3.59,3.59,0,0,1,.83-1.18A3.7,3.7,0,0,1,84.6,305.61Z" style="fill:#fff"></path><path d="M115.31,280.11a3.86,3.86,0,0,1-.83,1.18,3.75,3.75,0,0,1-1.18.83,4.2,4.2,0,0,1,2-2Z" style="fill:#fff"></path><path d="M99.81,269a3.91,3.91,0,0,1-.83,1.19,3.84,3.84,0,0,1-1.18.82,4.2,4.2,0,0,1,2-2Z" style="fill:#fff"></path><path d="M93.43,276.72c2.09,12.18,24.39,34.58,31.38,34.81,11.5.37,29.62-8,34.79-11,2.23-1.32-5.08-20.07-7.76-19.35-3.21.86-26.32,13.1-27.5,11.88-.67-.69-12.07-10.34-18.76-16C96.28,269.18,92.72,272.54,93.43,276.72Z" style="fill:#eb9481"></path><path d="M148.58,283.66s6.21-4.84,10.43-7.82c2.35-1.66,6.64-4.15,8.92-4.58,3.42-.65,18.13-1.16,18.33,2.41.18,3.22-12.51,2.06-12.51,2.06s12.91,0,12.42,4-14.67.69-14.67.69,13.27.35,12.12,4.31c-.87,3-13.87.8-13.87.8s11.4.38,10.64,3.5c-.84,3.45-13,2.17-13,2.17-3.28,7.61-8,9.89-11.46,11.12C155.12,302.59,148.58,283.66,148.58,283.66Z" style="fill:#eb9481"></path><path d="M169.28,275.42c1.52-.05,3.06-.11,4.57,0s3,.22,4.54.45a26.14,26.14,0,0,1,5.75,1.43,56.78,56.78,0,0,0-10.33-1.47c-1.51-.08-3-.24-4.53-.33C169.24,275.48,169.25,275.42,169.28,275.42Z" style="fill:#263238"></path><path d="M168.88,280.89c1.94,0,3.86,0,5.8.08s3.75.37,5.67.61c.15,0,.09.09-.06.08-1.92-.16-3.72-.16-5.64-.3s-3.85-.35-5.78-.42C168.84,280.94,168.85,280.89,168.88,280.89Z" style="fill:#263238"></path><path d="M167.68,285.52a43.31,43.31,0,0,1,8.87.8c.15,0,.06.11-.09.09-2.94-.32-5.25-.59-8.77-.78A.06.06,0,0,1,167.68,285.52Z" style="fill:#263238"></path><path d="M148.37,280.82l10.35,21.46s-21.4,11.38-34.52,10.15S97.59,291.82,94.06,281.1s2.76-12.67,9.89-7,19.7,16.29,20.6,16.37S148.37,280.82,148.37,280.82Z" style="fill:#FFC727"></path><path d="M111.18,306.92a4,4,0,0,1-.25-1.42,3.9,3.9,0,0,1,.25-1.42,3.7,3.7,0,0,1,.25,1.42A3.77,3.77,0,0,1,111.18,306.92Z" style="fill:#fff"></path><path d="M105.7,287a4.16,4.16,0,0,1,0-2.84,4.16,4.16,0,0,1,0,2.84Z" style="fill:#fff"></path><path d="M93.74,279.94a4.19,4.19,0,0,1,0-2.85,4.19,4.19,0,0,1,0,2.85Z" style="fill:#fff"></path><path d="M149.06,296.49a4.19,4.19,0,0,1,0-2.85,4.19,4.19,0,0,1,0,2.85Z" style="fill:#fff"></path><path d="M121.94,306.05a3.94,3.94,0,0,1,1.42-.25,3.74,3.74,0,0,1,1.42.25,3.74,3.74,0,0,1-1.42.25A3.94,3.94,0,0,1,121.94,306.05Z" style="fill:#fff"></path><path d="M147.64,303.23a4.16,4.16,0,0,1,2.84,0,4.16,4.16,0,0,1-2.84,0Z" style="fill:#fff"></path><path d="M118,287.73a4.16,4.16,0,0,1,2.84,0,4.16,4.16,0,0,1-2.84,0Z" style="fill:#fff"></path><path d="M109,314.22a4.19,4.19,0,0,1,2.85,0,3.77,3.77,0,0,1-1.42.25A4,4,0,0,1,109,314.22Z" style="fill:#fff"></path><path d="M145,287.38a4.09,4.09,0,0,1-1.19-.83,3.84,3.84,0,0,1-.82-1.18,3.67,3.67,0,0,1,1.18.82A3.91,3.91,0,0,1,145,287.38Z" style="fill:#fff"></path><path d="M111.94,294.38a4,4,0,0,1-1.18-.83,3.86,3.86,0,0,1-.83-1.18,3.67,3.67,0,0,1,1.18.82A3.91,3.91,0,0,1,111.94,294.38Z" style="fill:#fff"></path><path d="M130.31,299.19a4.09,4.09,0,0,1,1.19.83,3.84,3.84,0,0,1,.82,1.18,3.67,3.67,0,0,1-1.18-.82A3.91,3.91,0,0,1,130.31,299.19Z" style="fill:#fff"></path><path d="M101.64,281.12a4.2,4.2,0,0,1-2-2,4,4,0,0,1,2,2Z" style="fill:#fff"></path><path d="M120.38,297.59a4.09,4.09,0,0,1-2,2,4.2,4.2,0,0,1,2-2Z" style="fill:#fff"></path><path d="M134.33,290a3.84,3.84,0,0,1-.82,1.18,3.91,3.91,0,0,1-1.19.83,4.2,4.2,0,0,1,2-2Z" style="fill:#fff"></path><path d="M141.34,296.91a3.86,3.86,0,0,1-.83,1.18,3.7,3.7,0,0,1-1.18.83,3.7,3.7,0,0,1,.83-1.18A3.86,3.86,0,0,1,141.34,296.91Z" style="fill:#fff"></path><path d="M139.43,305.61a4.2,4.2,0,0,1-2,2,3.59,3.59,0,0,1,.83-1.18A3.7,3.7,0,0,1,139.43,305.61Z" style="fill:#fff"></path><path d="M122.47,312.42a18.81,18.81,0,0,1-6.92-2.63,45,45,0,0,1-10.43-9.22c-1.19-1.36-2.31-2.77-3.39-4.22l-.16-.12-.57-.42c-.38-.27-.74-.58-1.1-.88-.73-.63-1.41-1.32-2.14-2-.07-.06,0-.16.09-.1.71.66,1.48,1.21,2.24,1.8l.9.68c-.12-.16-.25-.32-.36-.48-1.42-2-2.66-4.13-3.95-6.23,0-.07.08-.14.12-.07a60.68,60.68,0,0,0,4.67,6.58,86.21,86.21,0,0,0,9.59,10.44,26.54,26.54,0,0,0,11.46,6.64C122.64,312.26,122.59,312.44,122.47,312.42Zm.41-23.07q-3-2.57-6-5c-.73-.59-1.47-1.16-2.2-1.73l-.26-.33c-.19-.22-.41-.44-.61-.65a16.73,16.73,0,0,1-1.29-1.38c-.06-.08-.18,0-.11.08a16.22,16.22,0,0,1,1.2,1.43l.06.07c-1-.77-2-1.52-3.08-2.26-.08-.05-.16.05-.08.11,2.11,1.64,4.08,3.39,6.15,5l6.08,4.84C122.82,289.66,123,289.47,122.88,289.35Zm30.62,11.22c-.39-.77-.76-1.54-1.14-2.31-.8-1.64-1.62-3.27-2.42-4.9l-2.34-4.82c-.82-1.69-1.73-3.35-2.5-5.06a.07.07,0,1,0-.12.06c.76,1.65,1.42,3.36,2.18,5s1.53,3.3,2.32,4.95,1.56,3.21,2.37,4.8l1.27,2.48a11.13,11.13,0,0,0,1.29,2.25c.07.08.19,0,.17-.11A11.24,11.24,0,0,0,153.5,300.57Zm-5-18.44a2.6,2.6,0,0,0-.66.29c-.21.1-.42.22-.62.34-.42.23-.84.49-1.26.71-.08,0,0,.16.07.12.43-.21.88-.4,1.31-.6l.65-.31a2.92,2.92,0,0,0,.61-.37A.11.11,0,0,0,148.53,282.13Zm1.75,3.68a2.69,2.69,0,0,0-.65.29l-.63.34c-.42.24-.83.49-1.26.71a.07.07,0,0,0,.07.12c.43-.21.88-.4,1.32-.6l.64-.31a2.68,2.68,0,0,0,.61-.37C150.47,285.92,150.38,285.79,150.28,285.81Zm1.76,3.68a2.6,2.6,0,0,0-.66.29l-.62.34c-.42.24-.84.49-1.26.72-.08,0,0,.16.07.12.43-.22.88-.41,1.31-.61l.65-.31a2.55,2.55,0,0,0,.61-.37C152.22,289.6,152.14,289.47,152,289.49Zm1.75,3.69a3.11,3.11,0,0,0-.65.28c-.22.11-.42.23-.63.35-.42.23-.83.48-1.26.71a.07.07,0,0,0,.07.12c.43-.22.88-.4,1.32-.61l.64-.31a2.65,2.65,0,0,0,.61-.36A.11.11,0,0,0,153.79,293.18Zm1.76,3.68a2.76,2.76,0,0,0-.66.29c-.21.1-.42.22-.62.34-.42.23-.83.49-1.26.71-.08,0,0,.16.07.12.43-.21.88-.4,1.32-.6l.64-.31a2.92,2.92,0,0,0,.61-.37A.11.11,0,0,0,155.55,296.86Zm1.76,3.68a2.6,2.6,0,0,0-.66.29l-.63.34c-.42.24-.83.49-1.25.72-.08,0,0,.15.06.12.44-.22.88-.41,1.32-.61l.64-.31a2.75,2.75,0,0,0,.62-.37C157.49,300.65,157.41,300.52,157.31,300.54Zm-11.63,7.64c-.79.21-1.55.54-2.33.79s-1.56.51-2.34.75q-2.4.72-4.86,1.26c-1.6.35-3.21.66-4.82.95a39,39,0,0,1-5.17.6c-.09,0-.08.13,0,.13a37.75,37.75,0,0,0,5.12-.32,44.67,44.67,0,0,0,4.88-.93c1.66-.41,3.31-.87,4.93-1.39.79-.25,1.56-.51,2.33-.8a18.38,18.38,0,0,0,2.3-.92A.07.07,0,0,0,145.68,308.18Z" style="fill:#263238"></path></g><g id="freepik--Plant--inject-272"><path d="M79.71,387.27c-9.62,13-19.65,28.15-22.1,44.49a.22.22,0,0,0,.43.08,96.94,96.94,0,0,1,4.25-13.08c6.33-1.74,12.53-3.17,15.85-9.45,3.39-6.45,3-14.87,2.32-21.89C80.41,387,79.9,387,79.71,387.27Z" style="fill:#FFC727"></path><path d="M62.39,418.64c4.32-9.7,9.87-19.44,16.92-27.41,0-.06.12,0,.08.07-4.62,5.68-8.13,11.87-11.56,18.16,3.19-3.23,6.68-6.13,9.7-9.56.06-.06.15,0,.09.1-3,3.59-6.26,7.5-10.17,10.16q-1.56,2.89-3.17,5.81c.26-.15.53-.28.8-.41a0,0,0,1,1,0,.07c-.29.15-.59.31-.9.44-.5.91-1,1.83-1.53,2.74C62.58,419,62.3,418.84,62.39,418.64Z" style="fill:#263238"></path><path d="M65.6,415.25A56.21,56.21,0,0,0,73,410.32c.06-.05.15,0,.09.09a38.82,38.82,0,0,1-7.37,5C65.59,415.49,65.48,415.32,65.6,415.25Z" style="fill:#263238"></path><path d="M56.5,429.33c0,.2.36.19.35,0,0-5.38,0-10.78.09-16.19,1.38-2.78,4.34-4.32,6.39-6.55a28.61,28.61,0,0,0,3.84-5.34,38.43,38.43,0,0,0,4.45-14.84c.57-5.76-1.61-24.75-4-24.09-1.26.34-5.33,9.75-6.41,12.86a89.67,89.67,0,0,0-3.83,15.76C55.37,403.59,55.54,416.59,56.5,429.33Z" style="fill:#FFC727"></path><path d="M56.46,406.12l0,0c.29-6.81,1.83-13.69,3.26-20.29,1.55-7.11,3.36-13.81,7-20.15.06-.12.24,0,.18.1a75.35,75.35,0,0,0-5.64,15.47c.25-.38.55-.74.8-1.11.1-.14.34,0,.24.14a10.31,10.31,0,0,1-1.15,1.62l0,0C59.9,387,59,392.18,58.22,397.37c.06-.06.11-.14.17-.2a.05.05,0,0,1,.08.06l-.31.52c-.39,2.63-.75,5.26-1.12,7.86,4.69-4,8.7-8.73,11-14.55,0,0,0,0,0,0-2.21,6-5.7,11.41-11.07,15.07l-.3,2.1c0,.15-.25.11-.25,0,0-.62,0-1.24.06-1.87A.14.14,0,0,1,56.46,406.12Z" style="fill:#263238"></path><path d="M58.67,396.25a108.24,108.24,0,0,0,9.55-16.45c0-.06.14,0,.12.05a53.14,53.14,0,0,1-9.49,16.54C58.76,396.49,58.6,396.36,58.67,396.25Z" style="fill:#263238"></path><path d="M63.43,378.48c1.49-2.62,3.05-5.18,4.45-7.86,0-.07.14,0,.11.07a40.67,40.67,0,0,1-4.33,7.93A.14.14,0,0,1,63.43,378.48Z" style="fill:#263238"></path><path d="M62.85,379.63a0,0,0,1,1,0,0A0,0,0,1,1,62.85,379.63Z" style="fill:#263238"></path><path d="M52.86,413.77a54.72,54.72,0,0,1-1.26,10.6c.06.38.11.76.17,1.16a50.44,50.44,0,0,0,1.89-11.82.33.33,0,0,0,0-.36h0a78.21,78.21,0,0,0-1.19-16c-1.66-9.89-5.3-19.38-12.2-26.79a.49.49,0,0,0-.76.16c-2.78,7.07-1.81,15.51.56,22.57A41.17,41.17,0,0,0,45.56,404C47.92,407.32,50.94,410.14,52.86,413.77Z" style="fill:#FFC727"></path><path d="M41.11,373.85c6.53,10.61,11.08,23.18,11.64,35.71,0,.22-.37.28-.4.06-.15-1.13-.33-2.25-.51-3.36h0a42.59,42.59,0,0,1-7.41-8.56.06.06,0,0,1,.09-.07,90.62,90.62,0,0,0,7.2,7.84c-.47-2.77-1-5.5-1.68-8.18l-.51-.61c-.12-.13.07-.33.19-.2l.16.18a95.48,95.48,0,0,0-3.42-10.85c-1.66-2-3.52-3.7-4.74-6.09a.05.05,0,0,1,.09-.05c1,1.37,1.92,2.74,3,4,.44.51.93,1,1.38,1.47A82.4,82.4,0,0,0,40.85,374,.15.15,0,0,1,41.11,373.85Z" style="fill:#263238"></path><path d="M42.43,386.93c2.11,2.85,4.52,5.56,6.48,8.5.06.08-.07.17-.14.1A43.4,43.4,0,0,1,42.29,387C42.23,386.93,42.37,386.85,42.43,386.93Z" style="fill:#263238"></path><path d="M49.21,396.09l.09.09c.06.06,0,.16-.1.09l-.09-.09A.07.07,0,1,1,49.21,396.09Z" style="fill:#263238"></path><path d="M30.87,394.24a32.47,32.47,0,0,0,6.89,16.18,17.14,17.14,0,0,0,5.6,4.36c2.42,1.2,5,2.58,7.46,3.57a48.76,48.76,0,0,1,2.64,9.38l.24-.83c-1.6-13.81-10.54-25.62-22-33.2A.55.55,0,0,0,30.87,394.24Z" style="fill:#FFC727"></path><path d="M34.82,398.32c-.08-.07,0-.21.11-.15a46.84,46.84,0,0,1,14.58,18c.08.19-.18.35-.29.17-.53-.94-1.07-1.84-1.62-2.73h0c-2.61-.49-5.08-2.33-7-4.07a.06.06,0,0,1,.08-.08,15.83,15.83,0,0,0,3.3,2.32,35.21,35.21,0,0,0,3.32,1.31c-1-1.53-2-3-3-4.43a30.64,30.64,0,0,1-7.85-4.41c-.07-.06,0-.18.08-.13a78.63,78.63,0,0,0,7.29,3.9,64.76,64.76,0,0,0-5.15-6c-.89-.47-1.79-.94-2.65-1.44a.08.08,0,0,1,.06-.14,9.56,9.56,0,0,1,2,1C37,400.36,36,399.33,34.82,398.32Z" style="fill:#263238"></path><path d="M35.06,403.09a2.75,2.75,0,0,1,.44.32s0,.09,0,.07a2.59,2.59,0,0,1-.46-.26C34.91,403.17,35,403,35.06,403.09Z" style="fill:#263238"></path><polygon points="71.55 457.65 40.22 457.65 42.74 429.12 43.3 422.82 68.47 422.82 69.02 429.12 71.55 457.65" style="fill:#455a64"></polygon><polygon points="69.02 429.12 42.74 429.12 43.3 422.82 68.47 422.82 69.02 429.12" style="fill:#263238"></polygon><rect x="41.8" y="418.42" width="28.16" height="6.23" style="fill:#455a64"></rect></g></svg>