<?xml version="1.0" encoding="UTF-8" standalone="no"?>
<svg
   xml:space="preserve"
   viewBox="0 0 42.500446 47.73"
   version="1.1"
   id="svg3"
   sodipodi:docname="dnr-logo.svg"
   width="42.500446"
   height="47.73"
   inkscape:version="1.3.2 (091e20e, 2023-11-25)"
   xmlns:inkscape="http://www.inkscape.org/namespaces/inkscape"
   xmlns:sodipodi="http://sodipodi.sourceforge.net/DTD/sodipodi-0.dtd"
   xmlns="http://www.w3.org/2000/svg"
   xmlns:svg="http://www.w3.org/2000/svg"><defs
   id="defs3" /><sodipodi:namedview
   id="namedview3"
   pagecolor="#ffffff"
   bordercolor="#666666"
   borderopacity="1.0"
   inkscape:showpageshadow="2"
   inkscape:pageopacity="0.0"
   inkscape:pagecheckerboard="0"
   inkscape:deskcolor="#d1d1d1"
   inkscape:zoom="10.728571"
   inkscape:cx="13.841545"
   inkscape:cy="23.861518"
   inkscape:window-width="1392"
   inkscape:window-height="1027"
   inkscape:window-x="127"
   inkscape:window-y="25"
   inkscape:window-maximized="0"
   inkscape:current-layer="svg3" />
  <path
   fill="#ebe4d9"
   d="m 2.2702223,0.1 a 0.95,0.95 0 0 0 -0.96,0.92 L 2.2225027e-4,46.81 A 0.9,0.9 0 0 0 0.90022225,47.73 H 41.600222 a 0.9,0.9 0 0 0 0.9,-0.92 l -1.45,-37.99 a 0.97,0.97 0 0 0 -0.96,-0.92 h -11.62 c -0.52,0 -1,-0.41 -1.07,-0.92 l -0.9,-6.08 a 1.1,1.1 0 0 0 -1.07,-0.9 z"
   id="path1" />
  <path
   fill="#48391c"
   d="m 9.9302223,21.63 h -4.1 l 0.21,-0.84 V 15.1 l -0.21,-0.84 h 4.1 l 1.4799997,1.47 v 4.42 l -1.4799997,1.47 z m -0.2,-5.31 -0.27,-0.53 -0.53,-0.26 h -1.15 l -0.1,0.1 v 4.47 l 0.15,0.16 h 1.1 l 0.53,-0.26 0.26,-0.53 v -3.15 z m 8.9999997,-1.81 v 7.93 h -1.66 l -2.75,-5.5 -0.25,-0.64 0.06,0.64 v 4.48 l 0.26,1.02 h -2.17 l 0.25,-1.02 v -6.91 l -0.32,-1.02 h 2.49 l 2.24,4.48 0.26,0.63 -0.07,-0.63 v -3.46 l -0.25,-1.02 h 2.17 z m 4.64,7.12 -0.9,-2.73 -0.21,-0.11 h -0.8 l -0.1,0.1 v 1.9 l 0.21,0.84 h -2 l 0.22,-0.84 V 15.1 l -0.21,-0.84 h 4.29 l 1.27,1.26 v 1.79 l -1.16,1.16 0.79,2.15 0.58,1 h -2 z m 0.1,-5.42 -0.21,-0.42 -0.53,-0.26 h -1.26 l -0.1,0.1 v 1.8 l 0.1,0.1 h 1.26 l 0.53,-0.27 0.2,-0.42 v -0.63 z"
   id="path2" />
  <path
   fill="#dd5623"
   d="m 18.640222,7.68 v 2.78 h 0.71 V 9.24 h 1.06 v 1.23 h 0.72 v -2.8 h -0.72 V 8.7 h -1.04 V 7.68 Z m -1.54,2.22 0.19,0.56 h 0.74 l -1.03,-2.78 h -0.83 l -1.03,2.78 h 0.73 l 0.2,-0.56 z m -0.52,-1.5 0.34,1 h -0.68 z M 9.3002223,7.68 v 1.78 c 0,0.34 0.1,0.6 0.31,0.79 0.21,0.18 0.5199997,0.27 0.9299997,0.27 0.4,0 0.72,-0.09 0.93,-0.27 0.2,-0.19 0.31,-0.45 0.31,-0.8 V 7.68 h -0.72 v 1.74 c 0,0.2 -0.04,0.34 -0.13,0.43 -0.09,0.09 -0.21,0.14 -0.39,0.14 -0.18,0 -0.32,-0.05 -0.4,-0.14 -0.08,-0.1 -0.12,-0.24 -0.12,-0.44 V 7.67 H 9.3002223 Z m 4.6599997,2.79 V 8.22 h 0.87 V 7.68 h -2.46 v 0.54 h 0.87 v 2.25 z M 2.7002223,28.5 c 0,0 6.27,-1.55 7.3199997,-0.94 l 4.45,3.36 -1.11,-2.04 3.06,-1.32 3.08,0.46 -2.43,-1.28 -5.27,1.39 -1.72,-2.52 -1.1699997,0.36 z M 39.370222,9.38 h -13.11 l -1.46,-7.8 -21.0099997,1.25 18.6699997,0.48 3.03,7.98 11.72,0.06 -0.98,8.59 -0.86,-0.9 -3.56,3.04 3.14,-1.59 1.14,0.67 -0.6,5.23 c 0.44,0.3 1.4,0.98 2.22,1.79 0.56,0.36 -0.03,0.5 -0.43,0.36 -0.4,-0.13 -1.27,-0.9 -1.89,-1.26 l -0.25,2.18 c 0.75,0.24 1.75,0.59 2.36,0.9 l -0.06,0.1 c -0.56,-0.18 -1.48,-0.48 -2.34,-0.65 a 9.54,9.54 0 0 0 -1.04,-0.14 c -1.15,-0.07 -3.55,0.82 -3.55,0.82 -0.98,-0.06 -2.52,0.43 -2.52,0.43 -0.12,0.15 -1.17,0.3 -1.17,0.3 -0.37,-0.15 -1.4,-0.08 -1.4,-0.08 -0.36,0.08 -0.3,-0.14 -0.3,-0.14 1.04,-0.93 1.01,-1.2 1.01,-1.2 0,0 -0.71,-0.33 -2.87,0.23 l -0.02,-0.01 c -0.29,-0.03 -0.12,-0.22 -0.12,-0.22 0.3,-0.32 1.54,-0.66 1.54,-0.66 a 5.46,5.46 0 0 0 3.18,-1.5 c 0.22,-0.24 0.47,-0.04 0.47,-0.04 0.68,0.48 2.13,1 2.13,1 0.44,0 0.14,-0.22 0.14,-0.22 a 8.8,8.8 0 0 1 -1.73,-1.03 c -0.4,-0.24 0.04,-0.32 0.04,-0.32 0.3,-0.1 1.03,-0.6 1.03,-0.6 0.32,-0.28 1.27,-0.4 1.27,-0.4 l 2.16,0.03 c 0.1,0.17 1.56,0.78 1.56,0.78 0.49,0.12 2.23,1.49 2.23,1.49 0.58,0.34 0.41,0.02 0.41,0.02 -2,-2.03 -4.1,-2.86 -4.1,-2.86 -0.18,-0.15 -0.05,-0.47 -0.05,-0.47 0.68,-0.7 0.7,-1.58 0.7,-1.58 l -0.22,-1.16 c 0,-0.2 -0.17,-0.02 -0.17,-0.02 a 9.63,9.63 0 0 1 -0.18,1.67 c -0.65,1.65 -2.23,1.4 -2.23,1.4 -0.45,0 -0.48,-0.2 -0.48,-0.2 0.15,-0.33 0.12,-2.57 0.12,-2.57 -0.12,-1 -0.74,-2.05 -0.74,-2.05 -0.21,-0.12 -0.39,-0.68 -0.39,-0.68 -0.03,-0.36 -0.24,-0.42 -0.24,-0.42 -0.03,0.5 0.24,1.1 0.24,1.1 0,0.36 0.48,1.52 0.48,1.52 0.09,0.92 -0.15,1.66 -0.15,1.66 -0.2,2.03 -1.75,2.8 -1.75,2.8 -0.66,0.48 -0.33,-0.42 -0.33,-0.42 a 7.56,7.56 0 0 0 1.63,-1.51 c 0.36,-0.66 0.15,-0.78 0.15,-0.78 -1.34,2 -2.53,2.11 -2.53,2.11 l 0.12,-1.6 0.36,-1.73 c 0.09,-0.35 0,-0.5 0,-0.5 a 8.85,8.85 0 0 0 -0.83,2.08 l -0.06,1.87 -1.16,-0.06 c -0.5,-0.06 -0.06,-0.9 -0.06,-0.9 0.8,-0.94 1.3,-3.44 1.3,-3.44 0.13,-0.83 0.4,-1.49 0.4,-1.49 0.23,-0.95 -0.13,-0.44 -0.13,-0.44 -0.44,0.95 -1.07,3.18 -1.07,3.18 a 11.33,11.33 0 0 1 -2.85,4.46 c -0.03,-0.1 -0.03,-0.44 -0.03,-0.44 0.18,-0.28 0.18,-0.72 0.18,-0.72 0.12,-0.44 0,-0.39 0,-0.39 l -0.24,0.72 a 2.47,2.47 0 0 0 -0.33,1.03 c -0.5,-0.02 -0.86,-0.83 -0.86,-0.83 -0.39,-0.5 0.39,-2.29 0.39,-2.29 0.2,-0.35 0.77,-1.6 0.77,-1.6 0.2,-0.5 -0.12,-0.33 -0.12,-0.33 -0.24,0.77 -0.65,1.4 -0.65,1.4 -0.39,0.41 -0.9,1.9 -0.9,1.9 l -0.08,0.48 c 0,0.92 0.8,1.72 0.8,1.72 v 0.24 c -0.1,0.42 -0.36,0.24 -0.36,0.24 -0.03,-0.42 -0.77,-1.52 -0.77,-1.52 -0.06,-0.39 0.12,-1.58 0.12,-1.58 0.09,-0.35 0,-0.41 0,-0.41 -0.3,0.2 -0.36,0.86 -0.36,0.86 l -0.06,1.04 c 0.03,0.8 0.6,1.49 0.6,1.49 0.23,0.47 -0.18,0.18 -0.18,0.18 -0.15,-0.3 -0.6,-0.63 -0.6,-0.63 -0.38,-0.06 -0.71,-0.95 -0.71,-0.95 0.03,-0.15 -0.06,-0.48 -0.06,-0.48 -0.18,-0.3 -0.06,-0.6 -0.06,-0.6 0.18,-0.23 0.15,-0.8 0.15,-0.8 0.12,-0.26 0.03,-0.2 0.03,-0.2 -0.48,0.41 -0.42,1.6 -0.42,1.6 -0.06,0.39 -0.12,0.3 -0.12,0.3 -0.15,-0.18 0.03,-1.04 0.03,-1.04 0,-0.54 -0.12,-0.4 -0.12,-0.4 l -0.12,0.87 c -0.33,0.91 0.63,1.6 0.63,1.6 0.62,0.41 1.2,1.55 1.2,1.55 -0.1,0.03 -0.14,0.33 -0.14,0.33 -0.37,-0.04 -0.63,0.26 -0.63,0.26 -0.36,-0.19 -1.13,0.03 -1.13,0.03 l -2.97,0.63 c -0.37,0.33 -0.19,0.8 -0.19,0.8 0.11,0.4 0.96,0.78 0.96,0.78 -0.19,0.22 -0.74,0.36 -0.74,0.36 0,0.59 0.37,0.84 0.37,0.84 l 1.36,0.15 c 0.36,0.59 1.06,0.77 1.06,0.77 0.44,0.85 1.54,1 1.54,1 0.85,1.07 2.68,1.72 2.68,1.72 0.25,0.36 0.56,0.64 0.92,0.85 h -0.01 c 0.5,0.31 2,1.13 3.68,0.87 0.12,-0.05 0.3,-0.08 0.48,-0.04 l 0.27,0.14 0.06,0.05 c 0.24,0.24 1.23,0.5 1.5,0.68 0.03,0.02 0.06,0.03 0.07,0.05 0.1,0.17 -1.96,-0.7 -2.41,-0.53 -0.99,0.38 -1.63,0.55 -4.36,-1.04 l -16.7799997,4.01 -4.27,3.7 38.3399997,-0.01 -1.36,-36.35 z m -15.66,18.36 c 0.3,-0.15 1.33,-1.2 1.33,-1.2 0.18,-0.26 0.8,-0.14 0.8,-0.14 0.22,0.18 1.29,0.24 1.29,0.24 l -0.03,0.56 c -0.48,0.92 -3,1.4 -3,1.4 0.02,-0.21 -0.4,-0.48 -0.4,-0.48 -0.14,-0.12 0,-0.38 0,-0.38"
   id="path3" />
</svg>
