<?xml version="1.0" encoding="UTF-8" standalone="no"?>
<!-- Created with Inkscape (http://www.inkscape.org/) -->

<svg
   width="87.610825mm"
   height="58.40836mm"
   viewBox="0 0 87.610824 58.408359"
   version="1.1"
   id="svg1"
   xml:space="preserve"
   inkscape:version="1.3.2 (091e20e, 2023-11-25)"
   sodipodi:docname="udot-logo.svg"
   xmlns:inkscape="http://www.inkscape.org/namespaces/inkscape"
   xmlns:sodipodi="http://sodipodi.sourceforge.net/DTD/sodipodi-0.dtd"
   xmlns="http://www.w3.org/2000/svg"
   xmlns:svg="http://www.w3.org/2000/svg"><sodipodi:namedview
     id="namedview1"
     pagecolor="#ffffff"
     bordercolor="#666666"
     borderopacity="1.0"
     inkscape:showpageshadow="2"
     inkscape:pageopacity="0.0"
     inkscape:pagecheckerboard="0"
     inkscape:deskcolor="#d1d1d1"
     inkscape:document-units="mm"
     inkscape:zoom="0.78751403"
     inkscape:cx="179.67934"
     inkscape:cy="110.47422"
     inkscape:window-width="1392"
     inkscape:window-height="1027"
     inkscape:window-x="0"
     inkscape:window-y="25"
     inkscape:window-maximized="0"
     inkscape:current-layer="layer1" /><defs
     id="defs1" /><g
     inkscape:label="Layer 1"
     inkscape:groupmode="layer"
     id="layer1"
     transform="translate(-57.503435,-119.2594)"><g
       id="g1"
       transform="translate(-3.6957013)"><path
         style="fill:#d7e0f0"
         d="m 74.966383,159.57017 c -0.105314,-0.13429 -0.102319,-0.13728 0.03197,-0.032 0.08149,0.0639 0.148166,0.13059 0.148166,0.14817 0,0.0697 -0.06953,0.0248 -0.180133,-0.1162 z m 15.843432,-8.89 c -3.1e-5,-0.0576 3.553973,-0.0567 7.916368,0.002 0.931333,0.0126 -0.468842,0.0315 -3.1115,0.0421 -2.642658,0.0106 -4.804849,-0.009 -4.804868,-0.0442 z m 32.258035,-21.86517 -5.54567,-0.0442 5.56684,-0.0202 c 3.66827,-0.0133 5.56683,0.009 5.56683,0.0644 0,0.0466 -0.01,0.0756 -0.0212,0.0644 -0.0116,-0.0111 -2.51671,-0.0401 -5.56683,-0.0644 z"
         id="path6" /><path
         style="fill:#acc2e1"
         d="m 78.347975,161.01517 c 0.06112,-0.0245 0.134143,-0.0215 0.162277,0.007 0.02813,0.0281 -0.02187,0.0481 -0.111125,0.0445 -0.09863,-0.004 -0.118694,-0.0241 -0.05115,-0.0511 z m -3.635592,-1.699 c -0.105314,-0.13429 -0.102319,-0.13728 0.03197,-0.032 0.08149,0.0639 0.148166,0.13059 0.148166,0.14817 0,0.0697 -0.06953,0.0248 -0.180133,-0.1162 z m 28.008267,-8.63594 c 1.3122,-0.0131 3.4839,-0.0131 4.826,-2e-5 1.34211,0.0131 0.2685,0.0238 -2.3858,0.0239 -2.6543,1e-5 -3.75239,-0.0107 -2.4402,-0.0238 z m -5.490929,-31.41138 c 2.064079,-0.0126 5.416879,-0.0126 7.450669,1e-5 2.03378,0.0126 0.34499,0.023 -3.75287,0.023 -4.097871,-1e-5 -5.761878,-0.0103 -3.697799,-0.023 z m 32.082299,-1e-5 c 3.59727,-0.0122 9.48372,-0.0122 13.081,0 3.59727,0.0122 0.65405,0.0222 -6.5405,0.0222 -7.19455,0 -10.13778,-0.01 -6.5405,-0.0222 z"
         id="path5" /><path
         style="fill:#86a7d4"
         d="m 86.915183,161.00995 c 22.525177,-0.0576 38.249367,-0.0578 38.213917,-4.5e-4 -0.0216,0.0349 -10.52402,0.0542 -23.33875,0.0427 -12.814724,-0.0114 -19.50855,-0.0304 -14.875167,-0.0423 z m -13.605962,-5.10161 c 0,-0.25612 0.01587,-0.36089 0.03527,-0.23284 0.0194,0.12806 0.0194,0.33761 0,0.46567 -0.0194,0.12806 -0.03527,0.0233 -0.03527,-0.23283 z m 38.222799,-5.22806 c 0.8964,-0.0137 2.36325,-0.0137 3.25966,0 0.89641,0.0137 0.16299,0.0249 -1.62983,0.0249 -1.79282,0 -2.52624,-0.0112 -1.62983,-0.0249 z"
         id="path4" /><path
         style="fill:#6991ca"
         d="m 75.05105,159.57017 c -0.105314,-0.13429 -0.10232,-0.13728 0.03197,-0.032 0.08149,0.0639 0.148167,0.13059 0.148167,0.14817 0,0.0697 -0.06953,0.0248 -0.180133,-0.1162 z m -0.508,-0.508 c -0.105314,-0.13429 -0.10232,-0.13728 0.03197,-0.032 0.08149,0.0639 0.148167,0.13059 0.148167,0.14817 0,0.0697 -0.06953,0.0248 -0.180133,-0.1162 z"
         id="path3" /><path
         style="fill:#5986c5"
         d="m 77.450764,160.8175 c -1.832914,-0.48045 -3.389139,-1.9218 -3.915989,-3.62691 -0.241571,-0.78183 -0.226105,-1.91103 0.03612,-2.63692 0.109342,-0.30268 4.639535,-8.34178 10.067096,-17.86467 l 9.868293,-17.31433 7.372446,-0.0216 c 4.05485,-0.0119 7.37245,-4.8e-4 7.37245,0.0254 0,0.0258 -3.81516,6.85403 -8.478128,15.17374 -4.662973,8.31971 -8.609819,15.36632 -8.770769,15.65913 l -0.292637,0.53239 12.855934,-0.001 12.85594,-0.001 6.15406,-10.98443 6.15406,-10.98443 -5.53672,-0.0423 -5.53671,-0.0423 2.59998,-4.67588 2.59999,-4.67589 12.97689,-0.002 12.97689,-0.002 -0.16461,0.3175 c -0.0905,0.17462 -5.42177,9.5377 -11.84719,20.80683 l -11.68258,20.48933 -23.52403,0.0166 c -22.908875,0.0161 -23.540159,0.0123 -24.140783,-0.14509 z"
         id="path2" /><path
         style="fill:#e76823"
         d="m 61.199451,177.56211 c 0.02269,-0.0584 1.205597,-2.18256 2.628672,-4.72044 l 2.58741,-4.61433 12.705158,-0.0214 c 6.987837,-0.0118 12.704338,0.007 12.703335,0.0423 -0.001,0.0351 -1.176058,2.15927 -2.611232,4.72044 l -2.609408,4.65667 -12.722599,0.0214 c -10.168151,0.0171 -12.714314,1.4e-4 -12.681336,-0.0847 z m 27.432346,0.0421 c 0.0183,-0.0349 1.210031,-2.16852 2.64829,-4.74133 l 2.615015,-4.67784 h 7.135708 c 3.92464,0 7.13571,0.0153 7.13571,0.034 0,0.0187 -1.18514,2.15228 -2.63364,4.74134 l -2.63363,4.70738 h -7.150366 c -3.932699,0 -7.135388,-0.0286 -7.117087,-0.0635 z m 16.320943,5.7e-4 c 0.002,-0.0352 1.179,-2.15957 2.61567,-4.72074 l 2.61211,-4.65666 6.05606,-0.0217 6.05606,-0.0217 -1.17182,2.09606 c -0.64449,1.15283 -1.83338,3.27715 -2.64196,4.72072 l -1.47016,2.62467 -6.02976,0.0217 c -3.31637,0.0119 -6.02816,-0.007 -6.0262,-0.0423 z"
         id="path1" /></g></g></svg>
