<svg xmlns="http://www.w3.org/2000/svg" viewBox="0 0 500 500">
  <ellipse cx="250" cy="450.58" fill="#ebebeb" rx="90.08" ry="14.23"/>
  <path fill="#37474f" d="M185.6 406.49H98.27s.2-13 8.79-16.44a11.7 11.7 0 0 1 13.69 3.28s3.5-23.9 19.5-23.9 23.65 20.62 23.65 20.62 3.58-6.23 12.46-5.07 9.24 21.51 9.24 21.51Zm281 0s-2.68-12.49-8-14.41-8.6 3.68-8.6 3.68-1.26-11.94-8.84-15.51-13.29 3.75-13.29 3.75-5.82-15.15-16.21-15.15S396 391 396 391s-6.13-6.61-12.42-2.88-6.29 18.36-6.29 18.36Z"/>
  <path fill="#455a64" d="M113.92 406.49H33.4s2.65-11.35 8-12.15 7.83 4.46 7.83 4.46S49 383 59 380.27s18.33 11.29 18.33 11.29 6.25-8 14.77-7.47 10.69 13.69 10.69 13.69 7.71-4.57 11.13 8.71Zm269.17 0h-49.48s.12-7.36 5-9.31a6.63 6.63 0 0 1 7.76 1.85s2-13.53 11-13.53 13.4 11.68 13.4 11.68 2-3.53 7.07-2.88 5.25 12.19 5.25 12.19Z"/>
  <path fill="#263238" d="m21.68 406.49 57.08-.24 57.08-.09 114.16-.17 114.16.17 57.08.09 57.08.24-57.08.25-57.08.08-114.16.17-114.16-.17-57.08-.08-57.08-.25z"/>
  <path fill="#ffc727" d="M377.69 319.58a127.09 127.09 0 0 1-24.39 75.06A127.7 127.7 0 1 1 250 191.89q5.25 0 10.4.42a127 127 0 0 1 55.87 18.1A128.27 128.27 0 0 1 358.34 252a127.11 127.11 0 0 1 19.35 67.58Z"/>
  <g opacity=".2">
    <path d="M277.57 379.84c-1.61 4.3 1.08 4.48 1.25 6.26s0 5.19-5.18 10.38-13.77 4.11-15.56 6.26S253.25 414 249 417s-5 1.25-11.09 2.51-10.73 9.12-12.52 12.87.36 10-3.93 10.2-6.26-9.13-10.19-14.13-5.27-9.45-6.48-15.34.71-18.24 0-23.07-13.59-13.41-18.24-19.32-11.09-17.7-10.73-21.64a16 16 0 0 1 5.36-9.83c2.15-1.61 1.25-2.5 1.61-3.94s2.15-1.78 2.5-3.57-1.07-7.16-2.86-8.05-3 2.15-4.11 1.61-4.29-4.29-5.54-4.65-.9 2.33-2.69-1.07-2.68-12-4.11-13.42-2.5 2.51-5.9 0-4.83-7.33-6.26-8-3.4.18-4.87-2.69 1.29-8 0-7.51-4.07 4.65-4.79.72 3.58-17.17 2.86-24.32a28.6 28.6 0 0 1 6.8-20.75s.71-3.93 1.43-6.44 16.1-12.51 17.88-15.37a13.81 13.81 0 0 0 1.27-5.09 127 127 0 0 1 75.6-24.82q5.25 0 10.4.42l.36.47c1.55 2 3.22 3.22 7.75 4.89s5.6 3.82 4.65 5.6-2.5 2.15-4.29 2.27-3.46-.84-5.36.36-3.82 7.63-6.32 8-6.92-5.73-7.87-7.51 2.14-5.61.68-7.4-4-1.43-8.08-1.79-13.47 1.2-13.11 2.75 13.83-.24 14.19 2.86-9.9 8.34-11.68 7.87-4.18-3.58-6.8-3.94-4.77 1.79-6.42 2-3.59-1.79-6.1-1.31-3.1 2.62-4.41 3.46-4.41.83-4.77 2.74 3.93 3 5 4.17-1.32 5.25-.24 6.08 7.75-5 9.42-6.44 3.1-7.63 6.67-7.51 4.77 6.2 6 6.8 3.81-1.43 7.75-.6 6.67 9.42 7.39 12 2.38 5.25 1 6.32-7.87-.71-8.7-2.38 4.29-4.18 3.93-4.77-3.34-1.43-4.89-.5-2.26 2.88-3.93 3.36-6.08-4.53-7.27-3.1 1.19 6 2.38 7 5.6 1.66 6 2.86-3 3.81-7 3.57-7.39-3.34-8.95-2-.71 4.76-1.78 6-6.92.36-9.78 3.45-4.17 7.75-7 10.38-4.17-.72-8 3-4.41 11.92-4.53 14.78 0 5.13-.95 4.77-2.27-2.86-2.63-4.41.84-4.18.84-5.13-5.49-5.84-8.71-6.32-6.08 2.15-8.46 4.06-6.68 1.55-8.23 3.1-2.74 15.26-1.55 18.48 2.74 3.22 6.56 1.55 1.67-4.89 3.94-4.18a5.33 5.33 0 0 1 3.45 5c0 1.91-4.53 6.44-3.93 7.75s4.53-.24 6.43.36 2.87 1.79 2.27 6.67-.24 8.71 2.62 10.32 4.47-2.33 5.73-1.79 3 3.4 4.82 3.22.9-1.79 4.3-2.86 2.14-1.79 2.86-3.94 2.86-3.93 5.18-2.86.72 2.68.9 4.47 4.29 2 7.51 3 5 0 11.44 2.15 6.8 8.58 9.48 9.65 11.63-.71 18.07 3.94 4.64 13.23 7.86 15.74 15.2 5.9 19.85 6.79 5.37-2.32 9.12-1.43 5.91 2 7.16 7.15c.94 4.65-13.04 14.2-14.65 18.49Z"/>
    <path d="M181.48 288.4c.12 1 3.1 1.43 6.68 3.46s4.88 8 6.79 7.87 1.31-2.86 2-3.58 1.91-2.27 0-3.82-3.77-4.88-7.25-5.36-4.08-1.91-5.63-1.79a2.7 2.7 0 0 0-2.59 3.22Zm19.67 10.02c-.53 1.46 0 2.5 3.82 3.45s7.39-.95 6.2-1.73-3-.41-2.27-1.72.47-3.22-2.63-2.87-4.64 1.55-5.12 2.87Zm13.35.4c-1.3.19-2 2.46-.71 3.89s1.31 1.19 2.86 0 3.93-1.79 3.34-3-4.17-1.08-5.49-.89Zm10.38 4.87c.58-1.78 3.57 0 4.88 1.88s.72 4.65 0 6.68-1.19 4.41-2.86 3.45.12-3.81-.12-5.48-2.38-5.06-1.9-6.53Zm51.38-99.46c-.62 1.5 2.27 2 3.94 3s3 1.55 3.93 0-.36-3.34-1.67-3.7-5.6-.73-6.2.7Zm22.53 13.95c1.11 1.16 3 .95 4.3 2.62s.83 4.53 2.5 5.37 2.86 0 3-1.2-2.38-4.17-2.15-4.76 3.46.83 4.18 2.62-.72 4.29.95 4.77 1.31-1.67 2-2.15 2.26-.24 2.14-1.67-2-4.53-3.57-5.6-2.74-2.27-5.37-2.86-5.12-.12-6.44 1-2.21 1.14-1.54 1.86Zm51.59 22.47a2.15 2.15 0 0 1-.68 1.25c-2.5 1.79-5.48-4.41-8.94-5.6s-5-5.6-5.72-4.65-.48 2.27-1.55 3.81-2.62 1.2-3.34 4.18 3.34 8.46 2.39 10.25-2.15 1.19-4.06 1.08-1.55 1.54-4.05.83-.36-3.82-4.29-7.51-5.25-4.41-4.41-6.08-.36-4.05 1.43-4.29 3.21 2.38 4.41 3.1 2.74-1.43 2.86-3.34-4.18-4.53-5.73-6-1.67-6.87-1.07-7.94 2.39-.72 2.86-3.34c.28-1.54-2.16-4.12-4.22-6a128.44 128.44 0 0 1 34.11 30.25Zm17.8 106.89c.36-3.82-1.55-4.06.36-11.09s-2-14.55-3.46-16.1-4.53-1.07-7 .48-.72 2.74-2.39 3.34-3.33-.36-4.88-.24-3 4.05-6.32 3.93-5.49-4.88-8-8.28-7.63-5.55-9.3-9.72 1.55-10.61.83-15.5-3.93-3.81-4.53-6.55.48-1.43 1.31-4.06-.95-4.05.72-8.58 4.65-6.8 3.93-8.82-3-5.37-3.1-7.75 2.27-2.27 6.8-5.61 5.72-3.1 9.18-1.91a50.19 50.19 0 0 0 7.63 2.15c2 .36 4.77 5.6 5.6 5.36s1-1.78 1.32-4a5.1 5.1 0 0 1 1.48-2.57 127.74 127.74 0 0 1-5 142.67c12.1-18.61 14.46-43.34 14.82-47.15Z"/>
  </g>
  <path d="M348.92 400.32A127.69 127.69 0 1 1 250 191.89q5.25 0 10.41.42c.95.07 1.9.16 2.84.26a117 117 0 1 0 85.67 207.75Z" opacity=".1"/>
  <path fill="#fff" d="M377.69 319.58a127 127 0 0 1-24.39 75.06 128.25 128.25 0 0 1-45.86 39 129 129 0 0 0 40.27-36.08 128.48 128.48 0 0 0 5.07-143.49 129.17 129.17 0 0 0-42.32-41.81A127.6 127.6 0 0 0 254.28 194a129.5 129.5 0 0 0-10.46-.42 128.49 128.49 0 0 0-30.82 3.77 127.41 127.41 0 0 1 37-5.46q5.25 0 10.41.42a126.8 126.8 0 0 1 55.86 18.1 128.42 128.42 0 0 1 34.11 30.24 127.51 127.51 0 0 1 27.31 78.93Z" opacity=".3"/>
  <path fill="#fff" d="M306.41 273.1h64.5s-3.21-4.18-6.75-4.7c0 0-6.87-20.47-18.38-20.61-10.71-.14-15 12.59-15 12.59s-4.95-5.71-9.69-3.1-7.42 10.08-7.42 10.08-5.33 2.87-7.26 5.74Zm-58.9 61.52H166s0-5.21 11.24-6.23c0 0 10.26-22.78 25.92-19.72 9.75 1.91 14.74 15.3 14.74 15.3s7.37-10.54 13.27-8.5 9.39 13.26 9.39 13.26 6.03 2.94 6.95 5.89Zm77.36-91.87h-55.46s5.23-4.87 7.56-4.87 9.11-16.35 17.79-15.65S308 235.1 308 235.1s10.58-3.31 16.87 7.65ZM176.52 357.76h-47.43s2.36-3.07 5-3.45c0 0 5.06-15.05 13.52-15.16 7.87-.1 11 9.25 11 9.25s3.64-4.19 7.13-2.27 5.45 7.41 5.45 7.41 3.91 2.11 5.33 4.22Zm99.96 38.9H341s-3.21-4.17-6.75-4.69c0 0-6.87-20.47-18.38-20.62-10.7-.13-15 12.59-15 12.59s-5-5.71-9.7-3.1-7.42 10.08-7.42 10.08-5.34 2.87-7.27 5.74Z"/>
  <path fill="#263238" d="M242.06 41c16.41 7.75 26.67 39.55 18.4 65.4-8.94 27.94-37.54 33.27-54 27.3-17.46-6.37-22.72-25.7-14.79-37.19 7.67-11.15 20.26-14.45 23.68-24.63C217 67 216.76 58 218.87 50.69c2.35-8.15 13.27-14.41 23.19-9.69Z"/>
  <path fill="#263238" d="M248.39 45.4A69.66 69.66 0 0 1 263 69.33a56.74 56.74 0 0 1 3.09 13.81 54.26 54.26 0 0 1 .14 7.1 64.09 64.09 0 0 1-.76 7.05c-1.58 9.29-5.38 18.43-11.93 25.35a40.11 40.11 0 0 1-11.34 8.4 40.88 40.88 0 0 1-13.47 3.96A41 41 0 0 0 253 122.12c6.3-6.89 10-15.83 11.5-25a65 65 0 0 0 .8-6.94 54.05 54.05 0 0 0-.1-7 59 59 0 0 0-2.91-13.64 69.51 69.51 0 0 0-5.81-12.72 72.17 72.17 0 0 0-8.09-11.42ZM217.18 60a43.35 43.35 0 0 1-1.1 7.74A24.86 24.86 0 0 1 213 75a21.08 21.08 0 0 1-5.45 5.73c-2.14 1.5-4.25 3-6.27 4.59A38.7 38.7 0 0 0 191 96.63a23.11 23.11 0 0 0-2.71 14.92 22.7 22.7 0 0 1-.37-7.8 20.35 20.35 0 0 1 .88-3.84 24.17 24.17 0 0 1 1.53-3.64c2.45-4.71 6.3-8.49 10.36-11.75 2.05-1.63 4.23-3.09 6.35-4.56a21.33 21.33 0 0 0 5.34-5.42c2.9-4.22 4.08-9.42 4.8-14.54Z"/>
  <path fill="#eb9481" d="M238.51 97.25c-4.68 11.89-31.18 57.27-57.89 53.86-9.07-1.16-6-37.55 14-72.36.59-1 27.53 5 26.89 11.59-.07.7-7.07 15.65-6.29 15.84.12 0 3.42-3 17.87-15.57 7.2-6.31 8.09-.13 5.42 6.64Z"/>
  <path fill="#263238" d="M215.21 106.05q-4.44 13-9.46 25.88c-.94 2.38-1.86 4.77-2.78 7.15 0 .09.1.14.14.06a132.16 132.16 0 0 0 5.71-12.54 138.29 138.29 0 0 0 6.53-20.51.09.09 0 0 0-.14-.04Z"/>
  <path fill="#fff" d="M216.57 103.21s-2 1.88-.8 3.24 3.84 0 3.84 0-1.3 2.28.11 3.49 3.76-.65 3.76-.65-1.28 2.33.11 3.55 3.65-.76 3.65-.76-1.17 2.41 0 3.53 3.26-.92 3.26-.92-1.15 2.39.12 3.33 3.35-1.43 3.35-1.43Z"/>
  <path fill="#ffc727" d="m215.6 103.65 18.28 14s7.76-16.78 8.64-23.79-1-10.51-11.17-3.37a107.33 107.33 0 0 0-15.75 13.16Z"/>
  <path fill="#263238" d="M242.52 93.84c-.88 7-8.64 23.79-8.64 23.79l-12.95-9.9 17.64-21c3.83-.89 4.55 2.27 3.95 7.11Z"/>
  <path fill="#eb9481" d="M191.51 85.25s4.28-11 10.86-17c4.56-4.16 11-10.88 28.57-5.48 4.18 1.28 11 8.36 8.34 10.81s-8-5-14.19-5.69c0 0 5.7 6.5 4.26 10.63A81.44 81.44 0 0 1 224.8 89a17.94 17.94 0 0 1-2.05-.68s-1.47 3.83-7.2 6.31Z"/>
  <path fill="#eb9481" d="M207.35 64.94c3.24-.07 10.09-.11 15.71 1.8 6.23 2.13 17.68 7.92 16.06 12.51-1.19 3.36-5.75 1.54-5.75 1.54s4.23 3.38 2.49 6.19c-1.58 2.56-5 .93-5 .93s2.21 2.5.21 4.67c-2.4 2.61-8.18-4.27-12.9-3.74-1.09.16-10.82-23.9-10.82-23.9Z"/>
  <path fill="#263238" d="M219.71 73a26.25 26.25 0 0 1 13.64 7.69c.08.1.05.23 0 .15A64.7 64.7 0 0 0 219.69 73s-.02 0 .02 0Zm3.01-6.88a26.25 26.25 0 0 1 13.64 7.69c.08.1.06.22-.05.15a64.7 64.7 0 0 0-13.61-7.78s-.02-.06.02-.06Zm-4.98 13.2c2.59.64 9.35 3.79 13.16 8.49.08.11 0 .23-.05.15a69.91 69.91 0 0 0-13.13-8.58l.02-.06Zm4.56 10.36a12.56 12.56 0 0 0-7.41-2.07.08.08 0 0 0 0 .16c2.12.47 3.85 1 3.88 1-2.7 3.26-7.48 4.59-9.53 5-.13 0-.08.22 0 .22 3.76 0 7.92-1.71 9.76-5.11a31.86 31.86 0 0 0 3.22 1c.08-.1.12-.16.08-.2Z"/>
  <path fill="#eb9481" d="M145.9 223.32c.71-2.31 40-56.79 42.78-57.89.32-.14 18.73 12.35 18.73 12.35.77 1 35.05-7.08 35.05-7.08l1.29 41.55-62.78.08s-8.37 5.18-16 9.41a96.54 96.54 0 0 1-10.08 5.18c-3.18.88-9.71-1.31-8.99-3.6Z"/>
  <path fill="#ebebeb" d="M154.83 226.93a93.49 93.49 0 0 0 10.08-5.18c7.66-4.23 16-9.41 16-9.41h14l21.09-35.8c-4.78 1-8.35 1.55-8.59 1.23 0 0-18.41-12.48-18.73-12.34-2.74 1.1-42.07 55.58-42.78 57.89s5.8 4.49 8.93 3.61Z"/>
  <path fill="#455a64" d="M145.53 223.4c.75-2.37 40.26-56.83 43.08-58 1.07-.43 10.06 4.84 18.8 12.33l-25.52 35.08s-24 13.4-27.19 14.3-9.91-1.35-9.17-3.71Z"/>
  <path fill="#263238" d="M148.28 224.2c6.85-9 33.62-45.78 39.71-55.16 0-.08 0-.12-.06 0-7 8.73-33.46 45.76-39.8 55.09-.13.16 0 .26.15.07Zm10.92.88a9.07 9.07 0 0 0 1.73-7.08 8.76 8.76 0 0 0-3.39-5.58c-.06 0-.13.06-.08.11a10.47 10.47 0 0 1 1.62 12.47c-.08.07.06.15.12.08Zm19.7-10.02c2.7-3.62 4.49-8.79 3.15-13.23-.06-.17-.3-.1-.32 0a62.66 62.66 0 0 1-3.33 12.91.29.29 0 0 0 .5.32Zm-3.15 2.02c2.71-3.62 4.49-8.79 3.15-13.23-.05-.17-.3-.1-.32.05a62 62 0 0 1-3.32 12.91.28.28 0 0 0 .49.27Zm-3.14 2.02c2.7-3.62 4.48-8.79 3.14-13.23-.05-.17-.29-.09-.32.06a62.17 62.17 0 0 1-3.32 12.91.29.29 0 0 0 .5.26Zm-3.15 2.02c2.7-3.61 4.49-8.79 3.15-13.22-.06-.18-.3-.1-.32 0a63.28 63.28 0 0 1-3.29 12.96.28.28 0 0 0 .46.26ZM195 177.65c3-4.1-3.42-8.72-6.38-4.6s3.38 8.72 6.38 4.6Z"/>
  <path fill="#263238" d="M185.78 226.08c2.88-.74 3.07-4.16 2.31-6.45a23.72 23.72 0 0 0-6.94-10.1.11.11 0 0 0-.18 0 .55.55 0 0 0-.78.44c-.08 3.91-.66 8.07.45 11.89.65 2.27 2.43 4.91 5.14 4.22ZM181.27 216c0-1.92.09-3.83 0-5.76 1.35 2 2.78 3.88 3.93 6a25.63 25.63 0 0 1 1.49 3.13c.63 1.66 1.08 7.47-3.15 5-2.33-1.49-2.26-6.12-2.27-8.37Z"/>
  <path fill="#263238" d="M186.39 199.47c-2.8 2.82-4.28 6.76-6.06 10.24a.55.55 0 0 0 .47.76.11.11 0 0 0 .14.12 23.67 23.67 0 0 0 10.91-5.59c1.77-1.65 3.23-4.75 1.05-6.77s-4.9-.41-6.51 1.24Zm3.68-.7c4.92-.2 1.76 4.69.41 5.86a24.35 24.35 0 0 1-2.8 2 70.7 70.7 0 0 1-6.3 3.4c1-1.66 1.81-3.38 2.73-5.07 1.1-1.96 3.24-6.08 5.96-6.19Zm54-38.04 28.17-3.46s40.31-13.6 64.17-8.43c27.35 5.92 32.54 37.36 5.6 51.22-26.66 13.71-146.63 14.3-146.63 14.3l24-39.14s39-11 73.63-10.6l-48.63 7.75Z"/>
  <path fill="#455a64" d="M244.71 168.76c4.17-.87 8.41-1.4 12.64-2s8.53-1.08 12.81-1.54a253.3 253.3 0 0 1 25.69-1.5h2.41c.17-.06.35-.1.52-.15l1.23-.3c.77-.17 1.55-.3 2.33-.44 1.61-.28 3.24-.49 4.84-.83.1 0 .14.13.05.15-1.62.4-3.2.9-4.82 1.29-.47.12-.93.23-1.4.33 3.15.1 6.29.27 9.44.48.1 0 .1.16 0 .16-4.27-.16-8.58-.09-12.85.08s-8.49.36-12.73.7c-8.56.68-17.12 1.65-25.64 2.73-4.78.61-9.58 1.32-14.39 1.63-.47.07-.6-.69-.13-.79ZM205.17 213c1.48-2.49 2.73-5.14 4.07-7.7l4.06-7.71c2.71-5.13 12.45-22.37 13.42-23.59.06-.07.19 0 .16.1-.44 1.33-6.51 12.74-7.9 15.28-2.8 5.09-5.74 10.09-8.64 15.12-.83 1.43-1.69 2.85-2.53 4.28s-1.74 2.83-2.51 4.3c-.04.04-.18-.08-.13-.08Z"/>
  <path fill="#eb9481" d="M344.36 223.9c-.76-2.29-41.31-55.87-44.08-56.9-.32-.14-18.44 12.76-18.44 12.76-.75 1-35.21-6.28-35.21-6.28l-.34 41.57 62.77-1.34s8.47 5 16.23 9a93.27 93.27 0 0 0 10.2 5c3.17.8 9.64-1.53 8.87-3.81Z"/>
  <path fill="#ebebeb" d="M335.52 227.71c-1.21-.31-5.43-2.43-10.2-5-7.75-4.06-16.23-9-16.23-9l-14 .3-21.87-35.29c4.8.85 8.38 1.36 8.62 1 0 0 18.12-12.9 18.44-12.76 2.77 1 43.32 54.61 44.08 56.9s-5.7 4.66-8.84 3.85Z"/>
  <path fill="#455a64" d="M344.73 224c-.8-2.35-41.53-55.9-44.38-57-1.07-.41-9.94 5.07-18.51 12.75l26.3 34.49s24.27 12.86 27.51 13.69 9.88-1.61 9.08-3.93Z"/>
  <path fill="#263238" d="M342 224.83c-7-8.81-34.64-45-40.94-54.25-.05-.07 0-.11.05 0 7.18 8.58 34.49 45 41 54.18.18.15.04.24-.11.07ZM331.11 226a9.07 9.07 0 0 1-1.9-7 8.77 8.77 0 0 1 3.27-5.65s.13.06.08.11a10.46 10.46 0 0 0-1.34 12.49c.05.05-.06.05-.11.05Zm-19.93-9.61c-2.78-3.56-4.68-8.69-3.44-13.16.05-.17.29-.1.32.05a62.92 62.92 0 0 0 3.61 12.83.29.29 0 0 1-.49.28Zm3.19 1.95c-2.78-3.56-4.68-8.69-3.44-13.16.05-.17.29-.1.32 0a62.92 62.92 0 0 0 3.61 12.83.29.29 0 0 1-.49.33Zm3.2 1.95c-2.79-3.56-4.69-8.69-3.45-13.16.05-.17.3-.1.32.05a62.92 62.92 0 0 0 3.61 12.82.28.28 0 0 1-.48.29Zm3.19 1.95c-2.79-3.56-4.69-8.69-3.45-13.15.05-.18.3-.11.32 0a62.32 62.32 0 0 0 3.62 12.91.29.29 0 0 1-.49.24Zm-26.49-42.88c-3-4 3.22-8.8 6.28-4.75s-3.22 8.79-6.28 4.75Z"/>
  <path fill="#263238" d="M309.6 223.27c1-3.84.35-8 .17-11.9 0-.4-.46-.54-.78-.42a.11.11 0 0 0-.18 0 23.71 23.71 0 0 0-6.71 10.26c-.71 2.31-.44 5.72 2.45 6.39 2.73.6 4.45-2.09 5.05-4.33Zm-2.85 2.43c-4.18 2.62-3.86-3.19-3.27-4.88a25.47 25.47 0 0 1 1.42-3.15 70.23 70.23 0 0 1 3.79-6.08c0 1.92.1 3.83.14 5.75.05 2.3.22 6.92-2.08 8.36Z"/>
  <path fill="#263238" d="M296.81 199.9c-2.13 2.06-.61 5.12 1.2 6.74A23.7 23.7 0 0 0 309 212c.09 0 .14-.05.14-.13.33-.06.65-.41.45-.76-1.86-3.44-3.42-7.35-6.28-10.11-1.63-1.64-4.49-3.06-6.5-1.1Zm8.93 6.54c1 1.67 1.83 3.38 2.85 5-2.15-1-4.33-2-6.38-3.26a25.22 25.22 0 0 1-2.84-2c-1.38-1.13-4.65-5.95.28-5.86 2.72.09 4.95 4.13 6.09 6.12Zm-61.01-45.71h-28.17s-29.47-14.16-53.21-8.46c-27.21 6.55-30.69 40.73-10.35 52.81 25.77 15.31 140.45 12.35 140.45 12.35l-24.79-42s-38.14-8-72.72-6.86l48.79 6.65Z"/>
  <path fill="#455a64" d="M270.31 178.12a.8.8 0 0 1-.05-.21v-.18l-.11-.41a8 8 0 0 0-.29-.82c-.11-.27-.22-.53-.35-.8a7 7 0 0 0-.51-.7s-.05 0-.07-.05h-.13c-4.19-.78-32.69-4.86-36.93-5.34s-8.55-.89-12.84-1.25a256.63 256.63 0 0 0-25.72-.92c-.8 0-1.6 0-2.41.07l-.52-.13c-.42-.1-.82-.2-1.24-.28-.77-.15-1.55-.26-2.33-.38-1.63-.25-3.25-.42-4.87-.72-.1 0-.14.13 0 .15 1.63.36 3.22.83 4.85 1.18.47.11.93.21 1.4.3-3.14.17-6.28.41-9.42.69-.1 0-.1.17 0 .16 4.27-.25 8.57-.28 12.85-.21s8.5.17 12.74.41a552.8 552.8 0 0 1 25.7 2.15c4.79.51 33.85 4.75 38.67 4.95h.06c0 .11.08.22.13.33l.41.77c.14.25.27.49.43.73l.23.35.12.17a1 1 0 0 1 .13.18c-.04-.02.13-.09.07-.19Z"/>
  <path fill="#455a64" d="M284.51 214.88c-1.53-2.46-2.84-5.08-4.25-7.61l-4.26-7.62c-2.82-5.06-12.95-22.08-13.95-23.27-.06-.08-.19 0-.16.09.48 1.32 6.8 12.59 8.25 15.11 2.91 5 6 9.95 9 14.91.86 1.42 1.75 2.82 2.63 4.23s1.8 2.79 2.6 4.24c.06.09.19.04.14-.08Z"/>
  <path fill="#ffc727" d="m222.51 129.77-5.75 33.69s30.08 11.74 66.48-.15c0 0-10.78-59.1-25-74.53-7.11-7.72-15.46-7.14-20.78-1.75-1.35 1.37-15.41 20.6-17.1 28.71-1.48 7.16 2.15 14.03 2.15 14.03Z"/>
  <path fill="#eb9481" d="M262.25 88.67c28.92 19.18 54.57 46.64 52.81 55.92-1.86 9.81-21.69 23-36.78 27.12-3.37.92-16.37-23.92-12.89-25.29 2.71-1.07 13.43-6.71 14.83-8.52 1-1.26-19.65-27.75-26.84-41.69-7.53-14.6 1.12-12.67 8.87-7.54Z"/>
  <path fill="#eb9481" d="M271.78 145.35s-10.5 1.68-17.32 3.11c-3.81.8-10.2 2.74-12.73 4.6-3.78 2.79-17.81 16.86-14.47 20.33 3 3.15 7-2.35 7-2.35s-4.88 5.6-.93 7.8 8.45-5.44 8.45-5.44-5.6 5.58-1.15 7.53c3.85 1.69 9.94-6.57 9.94-6.57s-6.52 5.21-2.73 7.33c4.18 2.34 14.86-8.9 14.86-8.9 9.11.47 14.64-.47 20.91-2.64 1.12-.39-11.83-24.8-11.83-24.8Z"/>
  <path fill="#263238" d="m240.26 175.26 1.15-1.75a36.13 36.13 0 0 1 2.34-3.32c.84-1 1.73-2 2.64-2.95s2-1.92 3-3c.08-.08.2 0 .12.11a35.16 35.16 0 0 0-2.65 3.18l-2.49 3.19c-.82 1.06-1.69 2-2.53 3-.41.51-.81 1-1.2 1.57a12 12 0 0 1-1.16 1.48.06.06 0 0 1-.09-.07 8.44 8.44 0 0 1 .87-1.44Zm-7.02-3.03a53.58 53.58 0 0 1 4.21-6.26 38 38 0 0 1 5.27-5.41c.07-.06.17 0 .12.1-1.57 2-3.18 3.94-4.77 5.9-.79.95-4.2 5.41-4.62 5.83-.1.1-.26-.04-.21-.16Zm13.55 6.06a53.63 53.63 0 0 1 4.07-5.82 49.34 49.34 0 0 1 5.4-4.84c.08 0 .18.05.12.11-1.68 1.74-3.37 3.45-5 5.28-.78.88-3.66 4.6-4.47 5.38-.03.08-.16-.02-.12-.11Z"/>
  <path fill="#fff" d="M261.39 113.09s1.39 2.38 3 1.49.87-3.74.87-3.74 1.93 1.78 3.43.67.19-3.81.19-3.81 2 1.76 3.49.68.07-3.73.07-3.73 2.09 1.68 3.45.77-.18-3.39-.18-3.39 2.07 1.65 3.27.62-.65-3.58-.65-3.58Z"/>
  <path fill="#ffc727" d="m261.61 114.13 17.68-14.73S264.65 88.12 258 85.71s-10.48-1.33-5.77 10.14a108 108 0 0 0 9.38 18.28Z"/>
  <path fill="#263238" d="M253.67 100a.08.08 0 0 0-.13.08c.26.65 2.26 4.44 2.69 5.27-.15-.15-2.32-2.07-2.65-2.44-.07-.08-.18 0-.11.11.35.37 3.34 3.57 3.5 3.69.35.65 3.73 6.48 4.42 7.37.19.24.28 0 .21-.27-.27-1.02-7.33-13.07-7.93-13.81Z"/>
  <path fill="#fff" d="M244.46 81.58c-6.85.81-10.8 12-9.15 13.63s5.59-2 5.59-2 2.55 4.76 5.95 3.38c5.76-2.34 6.84-16.11-2.39-15.01Z"/>
  <path fill="#eb9481" d="M249.26 83.71c-.22 1.58-3.69 8.83-8.48 8.84-2.46 0-2.81-8.61-2.81-8.61l-.15-.63-2-8.81 11.83-7.58s1.68 16.34 1.61 16.79Z"/>
  <path fill="#263238" d="M248.26 73a18.15 18.15 0 0 1-10.44 10.29l-2-8.81 11.83-7.58.61 6.1Z"/>
  <path fill="#eb9481" d="M221.77 64.86c2.8 15.61 12.47 15.69 15.83 15.08 3.06-.55 13.39-2.82 12.21-18.63s-9.32-19.45-16.37-18.55-14.44 6.49-11.67 22.1Z"/>
  <path fill="#263238" d="M226.23 60.28c.35-.13.66-.31 1-.47a1.74 1.74 0 0 0 .92-.67.57.57 0 0 0-.16-.67 1.41 1.41 0 0 0-1.42 0 2 2 0 0 0-1.08 1 .6.6 0 0 0 .74.81Zm10.55-2.52a7.94 7.94 0 0 1-1.09 0 1.73 1.73 0 0 1-1.12-.18.55.55 0 0 1-.16-.67 1.39 1.39 0 0 1 1.26-.64 2.05 2.05 0 0 1 1.42.41.6.6 0 0 1-.31 1.08Zm-1.11 4.39s.09 0 .1.07c.19 1.07.59 2.25 1.63 2.39v.06c-1.2.09-1.72-1.49-1.73-2.52Z"/>
  <path fill="#263238" d="M236.37 60.84c1.67-.49 2.54 2.88 1 3.34s-2.37-2.92-1-3.34Z"/>
  <path fill="#263238" d="M237.08 60.85c.34.11.72.38 1.08.32s.65-.5.83-.91h.06a1.26 1.26 0 0 1-.57 1.64c-.61.25-1.21-.2-1.54-.81-.06-.09 0-.29.14-.24Zm-7.89 2.78s-.07.07-.05.12c.31 1 .49 2.27-.36 2.87 0 0 0 .07 0 0 1.13-.42.87-2.06.41-2.99Z"/>
  <path fill="#263238" d="M228 62.79c-1.71.32-.95 3.72.64 3.43s.76-3.7-.64-3.43Z"/>
  <path fill="#263238" d="M227.31 63.17c-.23.24-.42.63-.74.73s-.72-.2-1-.5c0 0-.05 0 0 .05.13.65.49 1.28 1.15 1.26s.88-.66.89-1.34c-.07-.13-.21-.29-.3-.2Zm9.98 7.35c-.12.35-.19.77-.52 1a2.89 2.89 0 0 1-1.15.3v.07a1.48 1.48 0 0 0 1.49-.11 1.16 1.16 0 0 0 .31-1.24c-.03-.08-.12-.07-.13-.02ZM231.6 68s.17 1.62.35 2.36a4.1 4.1 0 0 0 3.58-2.14c0-.08-.08-.14-.14-.08a5.38 5.38 0 0 1-3 1.71c-.1-.19-.19-2.78-.31-2.76a6.53 6.53 0 0 0-1.59.79c-.44-3.37-.35-6.77-.84-10.12 0-.11-.2-.11-.2 0a54.55 54.55 0 0 0 .44 10.93c.11.43 1.45-.5 1.71-.69Z"/>
  <path fill="#263238" d="M232.94 70a3.94 3.94 0 0 0 1.83.77 1.74 1.74 0 0 0 1.06-.21c.7-.39.53-1.09.24-1.64a4.07 4.07 0 0 0-.57-.81 5.16 5.16 0 0 1-2.56 1.89Z"/>
  <path fill="#ff9bbc" d="M234.77 70.8a1.74 1.74 0 0 0 1.06-.21c.7-.39.53-1.09.24-1.64a1.84 1.84 0 0 0-1.3 1.85Z"/>
  <path fill="#eb9481" d="M247.55 63s2-5.68 4.54-5.07 1.85 8.21-.44 9.84a2.68 2.68 0 0 1-3.85-.45Z"/>
  <path fill="#263238" d="M251.85 60.05s.06 0 0 .07c-1.59 1.2-2.08 3.11-2.27 5a1.47 1.47 0 0 1 2-1 .05.05 0 0 1 0 .1 1.66 1.66 0 0 0-1.61 1 8.38 8.38 0 0 0-.45 1.65c0 .18-.35.17-.34 0-.62-2.27.29-5.93 2.67-6.82Z"/>
  <path fill="#455a64" d="M251.21 67.23a.69.69 0 1 1-.69-.68.68.68 0 0 1 .69.68Z"/>
  <path fill="#263238" d="M250.85 67.23a.33.33 0 1 1-.33-.32.32.32 0 0 1 .33.32Z"/>
  <circle cx="251.66" cy="66.12" r=".48" fill="#455a64"/>
  <path fill="#263238" d="M236.38 80.08a11.61 11.61 0 0 1-10.12-5c-2.24-3.21-3.37-7.2-4.18-11-.26-1.2-.47-2.42-.64-3.64a18 18 0 0 1-.26-3.51c0-.1-.16-.1-.15 0 .1 1.13.05 2.27.1 3.4s.17 2.25.34 3.37A35.32 35.32 0 0 0 223 70c1.27 3.65 3.28 7.19 6.78 9.1a10.28 10.28 0 0 0 6.6 1c.06.05.05-.03 0-.02Z"/>
  <path fill="#263238" d="M249.72 61.41c-1.79.35-7.6-3.34-9.89-11.8 0 0 2.59 7.46 3.44 8.43S240 56 238.08 49.17a28.41 28.41 0 0 1-6.08 5.42c-3 1.73-5 2.2-5.28 2s4.09-2.89 5-4.7c0 0-7.59 6.18-11.49 7.49-.45.15-3.38-9.15 1.74-14.71s15.93-3.69 19.18-1.83c0 0 3.18-.34 7.66 3.36s2.83 14.85.91 15.21Z"/>
</svg>
