<svg xmlns="http://www.w3.org/2000/svg" viewBox="0 0 750 500"><g id="freepik--background-complete--inject-98"><path d="M134,111.92l-10.53-6.53-2,3.23a2.93,2.93,0,0,1-2.77,1.36,16.33,16.33,0,0,0-1.85,0,3,3,0,0,1-2.68-1.54l-1.79-3.34-10.93,5.85,1.8,3.35a3,3,0,0,1-.2,3.07,17.26,17.26,0,0,0-1,1.58,2.92,2.92,0,0,1-2.67,1.55l-3.79-.12-.39,12.39,3.81.11a2.94,2.94,0,0,1,2.56,1.73c.13.27.27.55.41.82s.3.53.46.79a3,3,0,0,1,0,3.08l-2,3.24L111,149l2-3.24a3,3,0,0,1,2.78-1.36c.61,0,1.22.07,1.84.06A3,3,0,0,1,120.3,146l1.8,3.34L133,143.51l-1.79-3.34a3,3,0,0,1,.19-3.08,14.1,14.1,0,0,0,1-1.57,2.94,2.94,0,0,1,2.68-1.55l3.8.11.38-12.38-3.8-.12a3,3,0,0,1-2.56-1.72c-.13-.28-.26-.55-.41-.82s-.3-.54-.45-.8a2.94,2.94,0,0,1,0-3.09Zm-7.82,10.49a10.15,10.15,0,1,1-13.74-4.15A10.15,10.15,0,0,1,126.19,122.41Z" style="fill:#ebebeb"></path><path d="M101.66,171.39l-4.34-7.52L95,165.2a2.07,2.07,0,0,1-2.16-.07,9.73,9.73,0,0,0-1.13-.65,2.08,2.08,0,0,1-1.14-1.84V160H81.91v2.66a2.08,2.08,0,0,1-1.14,1.84,9.73,9.73,0,0,0-1.13.65,2.07,2.07,0,0,1-2.16.07l-2.3-1.33-4.34,7.52,2.31,1.33a2.05,2.05,0,0,1,1,1.91c0,.22,0,.43,0,.64s0,.43,0,.64a2.06,2.06,0,0,1-1,1.91l-2.32,1.34,4.34,7.52,2.3-1.33a2.09,2.09,0,0,1,2.17.07,9.6,9.6,0,0,0,1.12.65,2.08,2.08,0,0,1,1.14,1.84v2.65h8.68v-2.65a2.08,2.08,0,0,1,1.14-1.84,9.6,9.6,0,0,0,1.12-.65,2.09,2.09,0,0,1,2.17-.07l2.3,1.33,4.34-7.52-2.31-1.33a2.06,2.06,0,0,1-1-1.91c0-.22,0-.43,0-.65s0-.42,0-.64a2.05,2.05,0,0,1,1-1.91Zm-8.3,3.88a7.11,7.11,0,1,1-7.11-7.11A7.11,7.11,0,0,1,93.36,175.27Z" style="fill:#ebebeb"></path><path d="M652.68,224.92l-4.34-7.52-2.3,1.33a2.05,2.05,0,0,1-2.16-.08c-.37-.23-.74-.45-1.13-.65a2.06,2.06,0,0,1-1.14-1.83v-2.66h-8.68v2.66a2,2,0,0,1-1.15,1.83c-.38.2-.76.42-1.12.65a2.05,2.05,0,0,1-2.16.08l-2.31-1.33-4.33,7.52,2.31,1.33a2.05,2.05,0,0,1,1,1.91c0,.22,0,.43,0,.64s0,.43,0,.64a2.05,2.05,0,0,1-1,1.91l-2.31,1.34,4.33,7.52,2.31-1.33a2.09,2.09,0,0,1,2.17.07,11.27,11.27,0,0,0,1.12.65,2.07,2.07,0,0,1,1.14,1.83v2.66h8.68v-2.66a2.07,2.07,0,0,1,1.14-1.83,11.27,11.27,0,0,0,1.12-.65,2.07,2.07,0,0,1,2.16-.07l2.31,1.33,4.34-7.52-2.31-1.33a2.09,2.09,0,0,1-1-1.91c0-.22,0-.43,0-.65s0-.42,0-.64a2.06,2.06,0,0,1,1-1.91Zm-8.3,3.88a7.11,7.11,0,1,1-7.11-7.11A7.11,7.11,0,0,1,644.38,228.8Z" style="fill:#ebebeb"></path><g id="freepik--aiZGp2--inject-98"><path d="M570.91,91.32a68.06,68.06,0,0,0-4.61,21.06H547.65v-.52l.15-1.43a52.2,52.2,0,0,1,1.23-7.35,56.62,56.62,0,0,1,4.15-11.5.42.42,0,0,1,.45-.27h17.28Z" style="fill:#ebebeb"></path><path d="M570.35,138.37H553.21a.4.4,0,0,1-.42-.27,52.24,52.24,0,0,1-4.25-13,49.65,49.65,0,0,1-.84-6.56c0-.07,0-.14-.05-.22v-.51a2.4,2.4,0,0,1,.28,0H566c.33,0,.32,0,.34.34.12,1.5.22,3,.36,4.49a58,58,0,0,0,1.15,7.06,64.36,64.36,0,0,0,2.43,8.39C570.29,138.18,570.31,138.26,570.35,138.37Z" style="fill:#ebebeb"></path><path d="M642.43,143.8c0,.1-.1.18-.14.25a52,52,0,0,1-4.86,6.3,47.61,47.61,0,0,1-7.12,6.56,50.84,50.84,0,0,1-16.68,8.36,52.4,52.4,0,0,1-7.14,1.52l-.7.12h-.41l-.4-.25.46-.33A54.64,54.64,0,0,0,619,153.22a61.76,61.76,0,0,0,5.53-9.16.39.39,0,0,1,.42-.27h17.53Z" style="fill:#ebebeb"></path><path d="M625.29,112.37H601.21v-21H620a.35.35,0,0,1,.37.25,58,58,0,0,1,3.83,12.33,60.1,60.1,0,0,1,.93,6.67C625.19,111.16,625.24,111.75,625.29,112.37Z" style="fill:#ebebeb"></path><path d="M625.14,118c0,.5,0,1-.07,1.48-.1,1.18-.19,2.35-.35,3.52-.23,1.61-.47,3.22-.8,4.82a56.84,56.84,0,0,1-3.12,10.27.41.41,0,0,1-.44.31H601.07V118Z" style="fill:#ebebeb"></path><path d="M595.78,91.45v21.07H572.27c0-.53.05-1.06.11-1.58.12-1.17.21-2.36.4-3.53.29-1.78.59-3.57,1-5.33a54.69,54.69,0,0,1,3.39-10.37.38.38,0,0,1,.4-.26h18.23Z" style="fill:#ebebeb"></path><path d="M595.81,118.26q0,9.9,0,19.81v.3H577a.39.39,0,0,1-.42-.27,54.13,54.13,0,0,1-3.2-10.62c-.35-1.87-.62-3.76-.85-5.65-.16-1.23-.2-2.48-.28-3.73a.78.78,0,0,1,0-.13h23.23C595.75,118,595.81,118,595.81,118.26Z" style="fill:#ebebeb"></path><path d="M650.82,112.52H631.09a68.45,68.45,0,0,0-4.6-21.2h18.39a.4.4,0,0,1,.43.26,51.79,51.79,0,0,1,4.55,13.19,57.39,57.39,0,0,1,1,7.4Z" style="fill:#ebebeb"></path><path d="M650.83,117.82c0,.48,0,.93-.06,1.38a52.91,52.91,0,0,1-.65,5.32,51.65,51.65,0,0,1-3.63,11.84c-.26.61-.56,1.22-.83,1.83a.28.28,0,0,1-.29.18H627.24l-.2,0c.22-.63.44-1.24.65-1.85a63.83,63.83,0,0,0,2.44-9.61,61.6,61.6,0,0,0,.85-7.16c0-.56.07-1.13.09-1.7,0-.15,0-.22.21-.21a1.08,1.08,0,0,0,.18,0Z" style="fill:#ebebeb"></path><path d="M641.89,86l0,.08H624.35a.4.4,0,0,1-.42-.24,58.91,58.91,0,0,0-8.56-12.69A47.69,47.69,0,0,0,608.8,67c-1.18-.91-2.4-1.76-3.6-2.63a1.3,1.3,0,0,1-.2-.15,2,2,0,0,1,.24-.16c0-.11-.07-.22-.12-.38A50.9,50.9,0,0,1,622.57,69,50.27,50.27,0,0,1,641.89,86Z" style="fill:#ebebeb"></path><path d="M592.44,166.67a1.76,1.76,0,0,1-.5.08,46.47,46.47,0,0,1-5.62-1.09,50.24,50.24,0,0,1-10-3.71,51.54,51.54,0,0,1-10.21-6.7,48.71,48.71,0,0,1-6.13-6.14,51.34,51.34,0,0,1-3.83-5.3.79.79,0,0,1-.08-.16H572.4a.39.39,0,0,1,.4.26,63,63,0,0,0,5.91,9.63,61.3,61.3,0,0,0,6.92,7.66,53.69,53.69,0,0,0,6.66,5.36S592.34,166.59,592.44,166.67Z" style="fill:#ebebeb"></path><path d="M592.23,64.24c-.74.53-1.6,1.14-2.44,1.78A61.36,61.36,0,0,0,582,73.27a54.54,54.54,0,0,0-8.17,11.65c-.14.27-.26.55-.42.8a.36.36,0,0,1-.25.16c-.29,0-.58,0-.87,0H556.59c8.75-12.36,20.5-19.79,35.46-22.06l-.11.21Z" style="fill:#ebebeb"></path><path d="M618.1,143.81a56.18,56.18,0,0,1-8,10.76,50.08,50.08,0,0,1-9.08,7.71V143.81Z" style="fill:#ebebeb"></path><path d="M595.78,143.82v18.11a52.36,52.36,0,0,1-16.34-18.11Z" style="fill:#ebebeb"></path><path d="M617.57,85.87H601.21V68.62a49.77,49.77,0,0,1,9.18,7.68A58.2,58.2,0,0,1,617.57,85.87Z" style="fill:#ebebeb"></path><path d="M595.78,69.16V86h-15.7A49.76,49.76,0,0,1,595.78,69.16Z" style="fill:#ebebeb"></path></g><path d="M103.54,335.77A29,29,0,1,1,74.9,302.56v29Z" style="fill:#dbdbdb"></path><path d="M109.76,325.62a28.24,28.24,0,0,1-.32,4.25l-28.65-4.25v-29a29,29,0,0,1,29,29Z" style="fill:#ebebeb"></path><rect x="89.59" y="347.06" width="30.8" height="1" style="fill:#c7c7c7"></rect><path d="M122.55,350.22a2.66,2.66,0,1,1,2.66-2.66A2.66,2.66,0,0,1,122.55,350.22Zm0-4.32a1.66,1.66,0,1,0,1.66,1.66A1.66,1.66,0,0,0,122.55,345.9Z" style="fill:#c7c7c7"></path><rect x="130.38" y="345.94" width="23.92" height="1.08" style="fill:#c7c7c7"></rect><rect x="130.38" y="348.1" width="13.54" height="1.08" style="fill:#c7c7c7"></rect><rect x="173.61" y="82.95" width="9.43" height="67.1" style="fill:#ebebeb"></rect><rect x="189.81" y="99.19" width="9.43" height="50.86" style="fill:#ebebeb"></rect><rect x="206.02" y="124.62" width="9.43" height="25.43" style="fill:#ebebeb"></rect><rect x="222.23" y="110.1" width="9.43" height="39.95" style="fill:#ebebeb"></rect><rect x="238.43" y="94.84" width="9.43" height="55.21" style="fill:#ebebeb"></rect><rect x="254.64" y="85.87" width="9.43" height="64.18" style="fill:#ebebeb"></rect><path d="M168.14,74.42l.11,18.91.05,18.9.08,37.82-.24-.24q13,0,26,0l26,.05,26,0,26,.14-26,.14-26,.05-26,0c-8.67,0-17.34,0-26,0h-.24v-.24l.08-37.82.05-18.9Z" style="fill:#ebebeb"></path><path d="M166.06,78.21a8.15,8.15,0,0,1,4.16,0,8.15,8.15,0,0,1-4.16,0Z" style="fill:#ebebeb"></path><path d="M166.06,84a8.15,8.15,0,0,1,4.16,0,8.15,8.15,0,0,1-4.16,0Z" style="fill:#ebebeb"></path><path d="M166.06,89.71a7.43,7.43,0,0,1,2.08-.27,7.08,7.08,0,0,1,2.08.27,7.07,7.07,0,0,1-2.08.26A7.42,7.42,0,0,1,166.06,89.71Z" style="fill:#ebebeb"></path><path d="M166.06,95.45a7.42,7.42,0,0,1,2.08-.26,7.07,7.07,0,0,1,2.08.26,7.08,7.08,0,0,1-2.08.27A7.43,7.43,0,0,1,166.06,95.45Z" style="fill:#ebebeb"></path><path d="M166.06,101.2a8.45,8.45,0,0,1,4.16,0,8.15,8.15,0,0,1-4.16,0Z" style="fill:#ebebeb"></path><path d="M166.06,107a8.15,8.15,0,0,1,4.16,0,8.15,8.15,0,0,1-4.16,0Z" style="fill:#ebebeb"></path><path d="M166.06,112.7a8.15,8.15,0,0,1,4.16,0,8.15,8.15,0,0,1-4.16,0Z" style="fill:#ebebeb"></path><path d="M166.06,118.45a8.15,8.15,0,0,1,4.16,0,8.45,8.45,0,0,1-4.16,0Z" style="fill:#ebebeb"></path><path d="M166.06,124.19a8.45,8.45,0,0,1,4.16,0,7.08,7.08,0,0,1-2.08.27A7.43,7.43,0,0,1,166.06,124.19Z" style="fill:#ebebeb"></path><path d="M166.06,129.94a8.45,8.45,0,0,1,4.16,0,8.15,8.15,0,0,1-4.16,0Z" style="fill:#ebebeb"></path><path d="M166.06,135.69a8.15,8.15,0,0,1,4.16,0,8.15,8.15,0,0,1-4.16,0Z" style="fill:#ebebeb"></path><path d="M166.06,141.44a8.15,8.15,0,0,1,4.16,0,8.15,8.15,0,0,1-4.16,0Z" style="fill:#ebebeb"></path></g><g id="freepik--Shadow--inject-98"><ellipse cx="158.5" cy="450.49" rx="110.68" ry="16.84" style="fill:#ebebeb"></ellipse></g><g id="freepik--Floor--inject-98"><polygon points="46.54 390.5 128.66 390.26 210.77 390.17 375 390 539.23 390.17 621.35 390.25 703.46 390.5 621.35 390.75 539.23 390.83 375 391 210.77 390.83 128.66 390.74 46.54 390.5" style="fill:#263238"></polygon></g><g id="freepik--Device--inject-98"><rect x="212.32" y="140.23" width="381.74" height="255.35" style="fill:#dbdbdb"></rect><rect x="215.1" y="143.35" width="376.19" height="249.12" style="fill:#263238"></rect><rect x="162.6" y="414.73" width="481.17" height="17.53" style="fill:#c7c7c7"></rect><polygon points="162.6 414.73 212.32 395.58 594.06 395.58 643.78 414.73 162.6 414.73" style="fill:#dbdbdb"></polygon><polygon points="216.76 407.94 248.85 395.58 557.53 395.58 589.62 407.94 216.76 407.94" style="fill:#263238"></polygon><rect x="236.36" y="162.27" width="333.67" height="211.27" style="fill:#fff"></rect><rect x="236.07" y="162.27" width="333.95" height="8.13" style="fill:#455a64"></rect><circle cx="240.52" cy="166.34" r="2.02" style="fill:#c7c7c7"></circle><circle cx="248.75" cy="166.34" r="2.02" style="fill:#fff"></circle><circle cx="256.98" cy="166.34" r="2.02" style="fill:#FFC727"></circle><rect x="251.15" y="299.35" width="50.72" height="34.7" style="fill:#ebebeb"></rect><path d="M251.15,301.89c2.18,1.23,4.32,2.53,6.48,3.79s4.29,2.57,6.42,3.88c4.28,2.6,8.51,5.26,12.75,7.92h-.57c4.23-2.66,8.47-5.32,12.74-7.92,2.13-1.31,4.28-2.6,6.42-3.88s4.3-2.56,6.48-3.79c-2.05,1.44-4.13,2.82-6.2,4.23s-4.16,2.77-6.26,4.14c-4.18,2.75-8.39,5.44-12.61,8.12l-.29.18-.28-.18c-4.22-2.68-8.44-5.37-12.62-8.12q-3.14-2.06-6.26-4.14C255.29,304.71,253.2,303.33,251.15,301.89Z" style="fill:#fff"></path><path d="M251.28,327.88c1.53-1.34,3.13-2.6,4.75-3.83s3.27-2.41,4.93-3.59,3.35-2.3,5.06-3.39,3.44-2.17,5.23-3.15c-1.53,1.34-3.13,2.6-4.75,3.83s-3.27,2.41-4.93,3.59-3.35,2.29-5.06,3.39S253.07,326.9,251.28,327.88Z" style="fill:#fff"></path><path d="M301.75,327.88c-1.79-1-3.52-2.05-5.23-3.15s-3.39-2.24-5.06-3.39-3.32-2.36-4.93-3.59-3.22-2.49-4.76-3.83c1.79,1,3.52,2.05,5.23,3.15s3.39,2.24,5.06,3.39,3.32,2.36,4.93,3.59S300.21,326.54,301.75,327.88Z" style="fill:#fff"></path><polygon points="305.08 341.89 308.3 349.68 305.08 351.01 301.84 343.17 296.52 347.3 296.52 325.37 311.87 340.88 305.08 341.89" style="fill:#263238"></polygon><path d="M296.52,323a3.15,3.15,0,0,1,0-2.21,3.31,3.31,0,0,1,0,2.21Z" style="fill:#263238"></path><path d="M294.62,323.76a2.87,2.87,0,0,1-.92-.64,2.91,2.91,0,0,1-.64-.92,3.28,3.28,0,0,1,1.56,1.56Z" style="fill:#263238"></path><path d="M293.83,325.66a2.85,2.85,0,0,1-1.1.2,2.82,2.82,0,0,1-1.1-.2,2.81,2.81,0,0,1,1.1-.19A2.84,2.84,0,0,1,293.83,325.66Z" style="fill:#263238"></path><path d="M294.62,327.56a3,3,0,0,1-.64.92,2.87,2.87,0,0,1-.92.64,3.17,3.17,0,0,1,1.56-1.56Z" style="fill:#263238"></path><path d="M299.2,325.66a2.89,2.89,0,0,1,1.11-.19,2.84,2.84,0,0,1,1.1.19,2.85,2.85,0,0,1-1.1.2A2.9,2.9,0,0,1,299.2,325.66Z" style="fill:#263238"></path><path d="M298.42,323.76a2.72,2.72,0,0,1,.64-.91,2.79,2.79,0,0,1,.92-.65,2.91,2.91,0,0,1-.64.92A2.87,2.87,0,0,1,298.42,323.76Z" style="fill:#263238"></path><polygon points="450.89 348.1 413.19 338.42 425.62 290.02 453.61 297.21 460.95 308.93 450.89 348.1" style="fill:#ebebeb"></polygon><polygon points="453.61 297.21 460.95 308.93 451.24 306.43 453.61 297.21" style="fill:#dbdbdb"></polygon><rect x="426.71" y="301.76" width="21.64" height="1.28" transform="translate(786.1 704.12) rotate(-165.6)" style="fill:#dbdbdb"></rect><rect x="425.9" y="304.9" width="21.64" height="1.28" transform="translate(783.74 710.09) rotate(-165.6)" style="fill:#dbdbdb"></rect><rect x="425.1" y="308.03" width="21.64" height="1.28" transform="translate(781.37 716.06) rotate(-165.6)" style="fill:#dbdbdb"></rect><rect x="424.13" y="312.42" width="31.71" height="1.28" transform="translate(788.29 725.71) rotate(-165.6)" style="fill:#dbdbdb"></rect><rect x="423.33" y="315.56" width="31.71" height="1.28" transform="translate(785.93 731.69) rotate(-165.6)" style="fill:#dbdbdb"></rect><rect x="422.52" y="318.69" width="31.71" height="1.28" transform="translate(783.56 737.66) rotate(-165.6)" style="fill:#dbdbdb"></rect><rect x="421.72" y="321.83" width="31.71" height="1.28" transform="translate(781.19 743.64) rotate(-165.6)" style="fill:#dbdbdb"></rect><rect x="420.91" y="324.97" width="31.71" height="1.28" transform="translate(778.83 749.61) rotate(-165.6)" style="fill:#dbdbdb"></rect><rect x="420.11" y="328.1" width="31.71" height="1.28" transform="translate(776.47 755.59) rotate(-165.6)" style="fill:#dbdbdb"></rect><rect x="419.3" y="331.24" width="31.71" height="1.28" transform="translate(774.1 761.56) rotate(-165.6)" style="fill:#dbdbdb"></rect><rect x="418.5" y="334.38" width="31.71" height="1.28" transform="translate(771.73 767.53) rotate(-165.6)" style="fill:#dbdbdb"></rect><rect x="417.69" y="337.51" width="31.71" height="1.28" transform="translate(769.37 773.51) rotate(-165.6)" style="fill:#dbdbdb"></rect><polygon points="334.53 279.8 383.22 281.6 384.39 249.04 335.7 247.24 334.53 279.8" style="fill:#ebebeb"></polygon><polygon points="336.63 277.85 381.27 279.5 382.29 250.99 337.65 249.34 336.63 277.85" style="fill:#fff"></polygon><path d="M341.38,258.38a4.86,4.86,0,1,0,5-4.68A4.85,4.85,0,0,0,341.38,258.38Z" style="fill:#dbdbdb"></path><polygon points="350.49 278.41 381.24 279.54 366.64 258.13 350.49 278.41" style="fill:#dbdbdb"></polygon><polygon points="338.43 277.97 363.82 278.91 351.63 264.87 338.43 277.97" style="fill:#ebebeb"></polygon><polygon points="316.12 302.97 363.82 293.02 357.13 261.13 309.44 271.07 316.12 302.97" style="fill:#ebebeb"></polygon><polygon points="317.69 300.57 361.43 291.45 355.57 263.53 311.83 272.65 317.69 300.57" style="fill:#fff"></polygon><path d="M317.62,280.53a4.86,4.86,0,1,0,3.77-5.75A4.87,4.87,0,0,0,317.62,280.53Z" style="fill:#dbdbdb"></path><polygon points="331.28 297.78 361.4 291.5 342.08 274.22 331.28 297.78" style="fill:#dbdbdb"></polygon><polygon points="319.47 300.25 344.34 295.07 329.13 284.36 319.47 300.25" style="fill:#ebebeb"></polygon></g><g id="freepik--Plant--inject-98"><path d="M651.46,300.93c7.54-15.48,20.72-23.43,35.58-19s17.16,25.11,6.07,30.35-22.18-10.05-28-13.19S651.46,300.93,651.46,300.93Z" style="fill:#FFC727"></path><path d="M644.17,342.16c0-1.87.11-3.73.18-5.6.13-3.73.25-7.46.39-11.18.26-6.82,1-13.51,3.81-19.8a30.72,30.72,0,0,1,12-13.77,25.07,25.07,0,0,1,6.28-2.71,14.7,14.7,0,0,1,7.33-4,30.07,30.07,0,0,1,10.45-.26c.13,0,.13.21,0,.19a25.2,25.2,0,0,0-9.89.71,20.91,20.91,0,0,0-4,1.55,19.58,19.58,0,0,0-2.31,1.46,21.24,21.24,0,0,1,9.08.09,20.38,20.38,0,0,1,3.15,1,9.09,9.09,0,0,1,2.48-.21,14.06,14.06,0,0,1,3.22.46,24.08,24.08,0,0,1,6.11,2.67c.11.06,0,.22-.1.16a22.77,22.77,0,0,0-6-2.24,19.81,19.81,0,0,0-3.06-.45,13.94,13.94,0,0,0-1.71,0,19.74,19.74,0,0,1,9.61,9.57c0,.12-.12.21-.18.1a18,18,0,0,0-12.24-9.82c-.33-.08-.66-.12-1-.19.11.48.09,1,.16,1.5.1.75.22,1.5.37,2.25a39.26,39.26,0,0,0,1.21,4.53,37.27,37.27,0,0,0,1.8,4.4,21.52,21.52,0,0,0,2.51,4.24.09.09,0,1,1-.15.11c-.89-1.4-1.93-2.68-2.75-4.14a30.23,30.23,0,0,1-2-4.32,28.9,28.9,0,0,1-1.33-4.64q-.24-1.26-.39-2.52a6.11,6.11,0,0,1-.09-1.54,20.74,20.74,0,0,0-5.28-.11c.66,3.7,1.37,7.55,3.44,10.76.07.1-.11.2-.17.09a43.53,43.53,0,0,1-2.56-5.28,20.44,20.44,0,0,1-1.27-5.51,24.33,24.33,0,0,0-8.72,2.93,28.77,28.77,0,0,0-11.62,12.71,47.68,47.68,0,0,0-4.3,18.21c-.5,7.91-.6,15.88-1.39,23.77,0,.52-.87.69-1,.11A27.6,27.6,0,0,1,644.17,342.16Z" style="fill:#263238"></path><path d="M661.58,290.57A8.62,8.62,0,0,1,663.3,289a22.92,22.92,0,0,1,1.91-1.46,14.14,14.14,0,0,1,4.28-2c.12,0,.17.16,0,.19a11.29,11.29,0,0,0-4.23,2.07c-.63.47-1.23,1-1.82,1.47a10.44,10.44,0,0,1-1.73,1.47C661.65,290.81,661.51,290.68,661.58,290.57Z" style="fill:#263238"></path><path d="M685.63,296.18a46.45,46.45,0,0,1,3.46,4.57,27.7,27.7,0,0,1,2.57,5.1s-.07.08-.09,0a61.37,61.37,0,0,0-6.08-9.56C685.41,296.22,685.55,296.08,685.63,296.18Z" style="fill:#263238"></path><path d="M669.42,294.65a11,11,0,0,0,.85,2.8,18.6,18.6,0,0,0,1.44,2.48c0,.05-.05.11-.09.07a10.05,10.05,0,0,1-2.39-5.3C669.21,294.57,669.4,294.52,669.42,294.65Z" style="fill:#263238"></path><path d="M645.22,301.32s-10.67-13.41-31.26-8.66c-19.57,4.52-28.6,40.41-8.83,44.7s16.29-28.92,23.5-34.55C633.92,298.67,641.53,299.56,645.22,301.32Z" style="fill:#FFC727"></path><path d="M598.06,312.26A40.36,40.36,0,0,1,602.3,309a18.39,18.39,0,0,1,4.52-2.26,26.27,26.27,0,0,1,8.91-8.41l-.61,0c-1.1,0-2.18,0-3.28,0a18.38,18.38,0,0,0-6.35,1.59.1.1,0,0,1-.08-.18,28.62,28.62,0,0,1,6.34-1.91,17.36,17.36,0,0,1,3.22-.28c.57,0,1.15,0,1.73.1l.33,0a27.58,27.58,0,0,1,5.93-2.19l-.57-.15a28.92,28.92,0,0,0-3-.5,23.52,23.52,0,0,0-6.16.09c-.13,0-.16-.18,0-.19a39.27,39.27,0,0,1,6.23-.25,25.54,25.54,0,0,1,5.18.67,25.93,25.93,0,0,1,3.75-.43c7.18-.3,15,2.38,19.43,8.28s5.28,13.79,6.07,20.91a159.28,159.28,0,0,1,.78,29.93c0,.59-.87.48-.89-.08-.27-8.46-.57-16.92-1.38-25.36-.37-3.9-.79-7.82-1.44-11.69a34,34,0,0,0-2.84-9.63,17.56,17.56,0,0,0-6.94-7.47,23.46,23.46,0,0,0-9.85-3,26.61,26.61,0,0,0-9.24.87,6.16,6.16,0,0,1,.06,1.82,10.22,10.22,0,0,1-.46,2.25,11.38,11.38,0,0,1-.86,2c-.38.7-.86,1.33-1.28,2-.07.11-.24,0-.16-.11a9.43,9.43,0,0,0,1.59-4.06,16.48,16.48,0,0,0,.25-2.1c0-.53,0-1.06,0-1.59a27.07,27.07,0,0,0-9,4.74c-.51.4-1,.83-1.46,1.26a10.44,10.44,0,0,1,1.75,2.15,21.75,21.75,0,0,1,1.83,3.26,27.64,27.64,0,0,1,1.9,7.16c0,.13-.18.16-.19,0a20.85,20.85,0,0,0-2.35-6.79,27.18,27.18,0,0,0-1.82-3c-.35-.49-.71-1-1.08-1.46-.2-.25-.42-.51-.62-.78a28.42,28.42,0,0,0-5.84,8.22l0,0a14,14,0,0,1,2.42,3.46,31,31,0,0,1,1.92,4.13,67.77,67.77,0,0,1,2.46,8.39c0,.12-.17.16-.19,0a35.23,35.23,0,0,0-2.92-8.27c-.62-1.29-1.27-2.56-2-3.82a35.66,35.66,0,0,1-1.94-3.6,26.76,26.76,0,0,0-2.35,9.54c0,.13-.2.11-.19,0a33.22,33.22,0,0,1,4.62-14.63c-1.26.53-2.52,1.05-3.73,1.7a20.7,20.7,0,0,0-4.29,3C598.09,312.5,598,312.34,598.06,312.26Z" style="fill:#263238"></path><path d="M613.16,313c.62,2,1.39,4,2,6.06a23,23,0,0,1,.91,6.05c0,.06-.09.06-.1,0A58.21,58.21,0,0,0,613,313.08.1.1,0,1,1,613.16,313Z" style="fill:#263238"></path><path d="M600.12,308a11.1,11.1,0,0,1,2.72-2,20.82,20.82,0,0,1,3.16-1.12c.12,0,.16.17,0,.2a12,12,0,0,0-3,1.25,22.76,22.76,0,0,0-2.8,1.71A.06.06,0,1,1,600.12,308Z" style="fill:#263238"></path><path d="M635.08,283.41s-2-24.09-19.88-31.9c-15-6.52-23.51,10.29-12.94,20.57C610.81,280.4,624.53,276.65,635.08,283.41Z" style="fill:#FFC727"></path><path d="M605.57,256.18a76.25,76.25,0,0,1,8,3.77,60.7,60.7,0,0,1,6.18,4.1c-.3-.61-.56-1.24-.85-1.84-.47-.93-1-1.84-1.53-2.72a25.33,25.33,0,0,0-3.94-5,.1.1,0,0,1,.14-.14,39.63,39.63,0,0,1,4.15,4.83,29.69,29.69,0,0,1,1.71,2.73,11.34,11.34,0,0,1,1.2,2.77l.2.15a58.32,58.32,0,0,1,8.55,8.37c-.05-.24-.1-.48-.16-.69-.34-1.18-.7-2.34-1.09-3.5a29.67,29.67,0,0,0-3.23-7c-.07-.1.1-.2.17-.09a55.44,55.44,0,0,1,3.75,6.85,27.76,27.76,0,0,1,1.24,3.56,15.58,15.58,0,0,1,.58,2.42c.78,1,1.55,2,2.27,3,7.69,10.95,11.55,24.18,12.47,37.43a114.63,114.63,0,0,1,.2,11.87,74,74,0,0,1-1,11.9c0,.25-.44.18-.43-.07.09-3.48.45-6.94.52-10.42s-.06-7-.34-10.46a97.3,97.3,0,0,0-3.91-20.5,73.3,73.3,0,0,0-9.1-19.27c-.76-.15-1.5-.35-2.25-.54s-1.79-.46-2.68-.71a26.88,26.88,0,0,1-5-1.83c-.11-.06,0-.23.1-.17a16,16,0,0,0,5.07,1.75c1.4.28,2.86.46,4.26.78-1.3-1.89-2.68-3.72-4.16-5.47a31.19,31.19,0,0,1-10.19-.76,39.93,39.93,0,0,1-5.22-1.63c-1.79-.69-3.49-1.58-5.26-2.32-.13-.05,0-.25.08-.17a30,30,0,0,0,10.33,3.38,65.11,65.11,0,0,0,9.66.8c-1.27-1.46-2.59-2.89-4-4.22-4.7-4.48-10.29-8.6-16.48-10.74C605.39,256.32,605.46,256.13,605.57,256.18Z" style="fill:#263238"></path><path d="M620.15,256.25a26.73,26.73,0,0,1,2.19,3.21,17.07,17.07,0,0,1,1.58,3.74s0,.07-.07,0c-.6-1.18-1.1-2.41-1.71-3.59a17.89,17.89,0,0,0-2.14-3.25C619.92,256.29,620.07,256.15,620.15,256.25Z" style="fill:#263238"></path><path d="M603.49,264.27a18.81,18.81,0,0,0,3.68,1.53,31.72,31.72,0,0,0,3.74,1c.05,0,0,.11,0,.1a18.18,18.18,0,0,1-3.87-.84,33.78,33.78,0,0,1-3.63-1.63C603.28,264.38,603.38,264.21,603.49,264.27Z" style="fill:#263238"></path><path d="M649,279.07c.12,1,2.71-8.74,17.85-17.43,13.75-7.89,30.17-28.41,16.68-41.38C672.65,209.8,644,232.61,649,279.07Z" style="fill:#FFC727"></path><path d="M638.58,335.18a269.82,269.82,0,0,1,2.4-30.45,137,137,0,0,1,6.4-27.25c1.13-3.18,2.41-6.32,3.81-9.4a21.57,21.57,0,0,1,.06-3.6c.08-1.54.22-3.08.36-4.62s.3-3.07.48-4.61.51-3.06.57-4.59c0-.14.23-.11.19,0a31.82,31.82,0,0,0-.54,4.88c-.12,1.48-.2,3-.25,4.46s0,3,0,4.47c0,.53,0,1.1.05,1.68,1.43-3,2.95-6,4.6-8.86-1-6.28.31-12.84,1.59-19,0-.12.22-.06.19.06a53.89,53.89,0,0,0-1,9.73c-.05,2.58.07,5.16.08,7.73.36-.61.72-1.23,1.09-1.84q3-4.82,6.29-9.4a14.89,14.89,0,0,1,.15-4.47,33.91,33.91,0,0,1,1.1-4.89c.48-1.61,1-3.18,1.67-4.73s1.53-3.1,2.17-4.7c0-.13.25,0,.17.08a23.76,23.76,0,0,0-1.89,4.75,43.12,43.12,0,0,0-1.24,4.72c-.32,1.59-.58,3.19-.81,4.8-.14,1.06-.24,2.17-.42,3.24a115.5,115.5,0,0,1,10.6-12.34c.09-.09.22,0,.14.15a139.66,139.66,0,0,0-15.4,20.94c-.16.28-.32.56-.49.84.84-.52,1.8-.94,2.58-1.37q2.21-1.23,4.42-2.43t4.29-2.34c.73-.41,1.45-.83,2.2-1.22a17.85,17.85,0,0,0,2.57-1.42c.11-.09.24.09.11.16-1.45.8-2.74,2-4.15,2.89s-2.85,1.77-4.32,2.59c-2.69,1.5-5.62,2.58-8.27,4.13q-2.76,4.83-5.09,9.89c1.61-1,3.25-2,4.91-2.95,1.08-.6,2.15-1.19,3.24-1.76a16.32,16.32,0,0,0,3.05-1.85.1.1,0,0,1,.14.15,29,29,0,0,1-5.82,4c-1.94,1.14-3.91,2.24-5.93,3.23q-2.43,5.33-4.39,10.83c-6.37,18.05-8.71,37.21-9.83,56.24-.33,5.67-.51,11.34-.58,17s.23,11.34.22,17c0,.16-.27.2-.3,0-.68-5-.8-10.15-1-15.21S638.47,340.33,638.58,335.18Z" style="fill:#263238"></path><path d="M666.09,253.48a73,73,0,0,0,8-4.16,85.62,85.62,0,0,0,7.64-4.85s.09,0,.05.07a64.31,64.31,0,0,1-7.34,5.13,72,72,0,0,1-8.31,4C666.07,253.7,666,253.53,666.09,253.48Z" style="fill:#263238"></path><path d="M661.7,233.08c.23-.88.51-1.74.8-2.6a.1.1,0,0,1,0-.1c.19-.49.4-1,.59-1.46a.91.91,0,0,1,.08-.17,2.33,2.33,0,0,1,.11-.28s.06,0,0,0-.1.34-.15.5a2.29,2.29,0,0,1-.08.28,72.2,72.2,0,0,0-2.25,10.28c0,.11-.18.12-.17,0A34.42,34.42,0,0,1,661.7,233.08Z" style="fill:#263238"></path><polygon points="622.58 338.84 623.66 351.64 626.97 390.7 662.4 390.7 665.71 351.64 666.79 338.84 622.58 338.84" style="fill:#455a64"></polygon><polygon points="622.58 338.84 623.66 351.64 665.71 351.64 666.79 338.84 622.58 338.84" style="fill:#263238"></polygon><rect x="619.1" y="333.7" width="51.16" height="12.29" transform="translate(1289.37 679.68) rotate(180)" style="fill:#455a64"></rect></g><g id="freepik--Arrows--inject-98"><rect x="465.79" y="300.29" width="16.13" height="62.93" style="fill:#FFC727"></rect><rect x="465.79" y="366.33" width="16.13" height="10.36" style="fill:#FFC727"></rect><rect x="465.79" y="379.8" width="16.13" height="6.39" style="fill:#FFC727"></rect><rect x="465.79" y="389.3" width="16.13" height="3.17" style="fill:#FFC727"></rect><polygon points="487.29 300.29 460.41 300.29 473.85 281.69 487.29 300.29" style="fill:#FFC727"></polygon><rect x="497.89" y="280.29" width="16.13" height="82.93" style="fill:#FFC727"></rect><rect x="497.89" y="366.33" width="16.13" height="10.36" style="fill:#FFC727"></rect><rect x="497.89" y="379.8" width="16.13" height="6.39" style="fill:#FFC727"></rect><rect x="497.89" y="389.3" width="16.13" height="3.17" style="fill:#FFC727"></rect><polygon points="519.4 280.29 492.51 280.29 505.96 261.69 519.4 280.29" style="fill:#FFC727"></polygon><rect x="530" y="260.29" width="16.13" height="102.93" style="fill:#FFC727"></rect><rect x="530" y="366.33" width="16.13" height="10.36" style="fill:#FFC727"></rect><rect x="530" y="379.8" width="16.13" height="6.39" style="fill:#FFC727"></rect><rect x="530" y="389.3" width="16.13" height="3.17" style="fill:#FFC727"></rect><polygon points="551.5 260.29 524.62 260.29 538.06 241.69 551.5 260.29" style="fill:#FFC727"></polygon><rect x="562.1" y="240.29" width="16.13" height="122.93" style="fill:#FFC727"></rect><rect x="562.1" y="366.33" width="16.13" height="10.36" style="fill:#FFC727"></rect><rect x="562.1" y="379.8" width="16.13" height="6.39" style="fill:#FFC727"></rect><rect x="562.1" y="389.3" width="16.13" height="3.17" style="fill:#FFC727"></rect><polygon points="583.61 240.29 556.73 240.29 570.17 221.69 583.61 240.29" style="fill:#FFC727"></polygon></g><g id="freepik--Rocket--inject-98"><path d="M308.85,350.11a7.09,7.09,0,1,1-7.09-7.09A7.09,7.09,0,0,1,308.85,350.11Z" style="fill:#FFC727;opacity:0.6000000000000001"></path><path d="M317.48,336.56a3.46,3.46,0,1,1-3.45-3.45A3.45,3.45,0,0,1,317.48,336.56Z" style="fill:#FFC727;opacity:0.6000000000000001"></path><path d="M469.25,346.68a3.46,3.46,0,1,1-3.46-3.46A3.46,3.46,0,0,1,469.25,346.68Z" style="fill:#FFC727;opacity:0.6000000000000001"></path><path d="M538.48,378.24a3.46,3.46,0,1,1-3.46-3.45A3.46,3.46,0,0,1,538.48,378.24Z" style="fill:#FFC727;opacity:0.6000000000000001"></path><path d="M533.18,388.35a4.13,4.13,0,0,1-4.12,4.12H272a4.12,4.12,0,0,1,0-8.24,4.46,4.46,0,0,1,1,.11,8.13,8.13,0,0,1,13.94-5.68l.08,0c0-.5-.08-1-.08-1.52A15.36,15.36,0,0,1,309,363.33,11,11,0,0,1,330.18,360a15.34,15.34,0,0,1,13-7.17,15.76,15.76,0,0,1,2.94.28,20.11,20.11,0,0,1-.31-3.58,20.76,20.76,0,0,1,34.32-15.73,4.11,4.11,0,0,1,3.66-2.24,4.17,4.17,0,0,1,1.58.32l3.86-103.08h22.64l3.86,103.08A4.1,4.1,0,0,1,421,333.8a20.76,20.76,0,0,1,34.32,15.73,20.11,20.11,0,0,1-.31,3.58,15.73,15.73,0,0,1,2.93-.28,15.34,15.34,0,0,1,13,7.17A11,11,0,0,1,492,363.33a15.36,15.36,0,0,1,22.1,13.78c0,.51,0,1-.08,1.52l.08,0a8.13,8.13,0,0,1,13.94,5.68,4.46,4.46,0,0,1,1-.11A4.12,4.12,0,0,1,533.18,388.35Z" style="fill:#FFC727;opacity:0.6000000000000001"></path><polygon points="468.01 354.42 462.67 355.4 461.47 361.04 460.28 355.4 454.93 354.41 460.25 353.11 461.47 347.79 462.69 353.11 468.01 354.42" style="fill:#fcfcfc"></polygon><polygon points="416.02 309.23 410.67 310.22 409.48 315.85 408.29 310.22 402.94 309.23 408.26 307.93 409.48 302.6 410.7 307.93 416.02 309.23" style="fill:#fcfcfc"></polygon><polygon points="338.34 365.15 335.35 365.7 334.68 368.85 334.02 365.7 331.03 365.14 334 364.42 334.68 361.44 335.36 364.42 338.34 365.15" style="fill:#fcfcfc"></polygon><polygon points="499.09 374.54 496.1 375.09 495.44 378.24 494.77 375.09 491.78 374.54 494.75 373.81 495.44 370.84 496.12 373.81 499.09 374.54" style="fill:#fcfcfc"></polygon><polygon points="297.22 385.58 294.24 386.13 293.57 389.28 292.9 386.13 289.91 385.58 292.89 384.85 293.57 381.87 294.25 384.85 297.22 385.58" style="fill:#fcfcfc"></polygon><polygon points="427.18 382.96 424.19 383.51 423.52 386.66 422.86 383.51 419.87 382.96 422.84 382.23 423.52 379.25 424.2 382.23 427.18 382.96" style="fill:#fcfcfc"></polygon><polygon points="405.31 300.66 402.32 301.21 401.65 304.36 400.98 301.21 398 300.66 400.97 299.93 401.65 296.96 402.33 299.93 405.31 300.66" style="fill:#fcfcfc"></polygon><path d="M506.16,381.35a.87.87,0,0,0,0,1.73A.87.87,0,0,0,506.16,381.35Z" style="fill:#fcfcfc"></path><path d="M393.74,289.74a.87.87,0,0,0,0,1.73A.87.87,0,0,0,393.74,289.74Z" style="fill:#fcfcfc"></path><path d="M319.86,385.58a.87.87,0,0,0,0,1.73A.87.87,0,0,0,319.86,385.58Z" style="fill:#fcfcfc"></path><path d="M374.75,373.67a.87.87,0,0,0,0,1.74A.87.87,0,0,0,374.75,373.67Z" style="fill:#fcfcfc"></path><path d="M484.46,365.78a.61.61,0,0,0,0,1.22A.61.61,0,0,0,484.46,365.78Z" style="fill:#fcfcfc"></path><path d="M408.76,356.59a.62.62,0,0,0,0,1.23A.62.62,0,0,0,408.76,356.59Z" style="fill:#fcfcfc"></path><path d="M353.34,344.62a.61.61,0,0,0,0,1.22A.61.61,0,0,0,353.34,344.62Z" style="fill:#fcfcfc"></path><path d="M448.15,347.12a1.66,1.66,0,0,0,0,3.32A1.66,1.66,0,0,0,448.15,347.12Z" style="fill:#fcfcfc"></path><path d="M361.19,339a1.66,1.66,0,0,0,0,3.32A1.66,1.66,0,0,0,361.19,339Z" style="fill:#fcfcfc"></path><path d="M362,147.32c-.81,0-31,13.94-32.81,48.28-1.64,31.56,20.18,61.54,23,59.55,3.45-2.43-2.42-22.09,4.29-44.59,2.38-8,12.78-15.06,12.78-15.06Z" style="fill:#FFC727"></path><path d="M369.27,195.5A47.84,47.84,0,0,0,361,203c-4.49-10-12.87-28.75-18.29-40.89,8.85-10.23,18.83-14.74,19.29-14.74Z" style="opacity:0.1"></path><path d="M438.88,147.38c.81,0,31,14,32.74,48.32,1.6,31.57-20.27,61.51-23.09,59.52-3.44-2.43,2.45-22.09-4.22-44.6-2.37-8-12.76-15.07-12.76-15.07Z" style="fill:#FFC727"></path><path d="M458.26,162.27c-5.47,12.23-13.86,31-18.3,40.9a47.87,47.87,0,0,0-8.41-7.62l7.33-48.18C439.34,147.37,449.41,151.94,458.26,162.27Z" style="opacity:0.1"></path><path d="M423.28,226.31l-45.57,0s-21.47-38.39-18.93-84.16c1.28-22.85,7.25-45.86,14.44-64.89,9.89-26.29,22.12-44.94,27.42-44.93S418.14,51,428,77.26c7.14,19,13.08,42.06,14.33,64.91C444.81,187.94,423.28,226.31,423.28,226.31Z" style="fill:#ebebeb"></path><path d="M427.84,136.24a26.29,26.29,0,1,1-26.27-26.3A26.29,26.29,0,0,1,427.84,136.24Z" style="fill:#c7c7c7"></path><path d="M426.91,133.56a26.29,26.29,0,1,1-26.27-26.3A26.29,26.29,0,0,1,426.91,133.56Z" style="fill:#FFC727"></path><path d="M418.85,133.55a18.23,18.23,0,1,1-18.23-18.23A18.23,18.23,0,0,1,418.85,133.55Z" style="fill:#fff"></path><path d="M418.86,133.54a18.15,18.15,0,0,1-1.24,6.61l-10.39,10.39a18,18,0,0,1-6.6,1.23,17.86,17.86,0,0,1-4.88-.67l22.44-22.43A18.18,18.18,0,0,1,418.86,133.54Z" style="fill:#ebebeb"></path><path d="M403.3,115.52l-20.71,20.7a18,18,0,0,1-.2-2.67,18.22,18.22,0,0,1,20.91-18Z" style="fill:#ebebeb"></path><path d="M416.58,124.72,391.8,149.49a14.62,14.62,0,0,1-1.4-.86l25.32-25.31C416,123.77,416.3,124.24,416.58,124.72Z" style="fill:#ebebeb"></path><path d="M428,77.26l-54.79,0c9.89-26.29,22.12-44.94,27.42-44.93S418.14,51,428,77.26Z" style="fill:#FFC727"></path><path d="M382.65,71.57A1.53,1.53,0,1,1,381.12,70,1.53,1.53,0,0,1,382.65,71.57Z" style="fill:#fff"></path><path d="M392.4,71.57A1.54,1.54,0,1,1,390.87,70,1.54,1.54,0,0,1,392.4,71.57Z" style="fill:#fff"></path><path d="M402.15,71.58a1.54,1.54,0,1,1-1.53-1.53A1.53,1.53,0,0,1,402.15,71.58Z" style="fill:#fff"></path><path d="M411.9,71.59a1.54,1.54,0,1,1-1.54-1.54A1.53,1.53,0,0,1,411.9,71.59Z" style="fill:#fff"></path><path d="M421.64,71.59a1.54,1.54,0,1,1-1.53-1.53A1.54,1.54,0,0,1,421.64,71.59Z" style="fill:#fff"></path><path d="M382.59,219.27a1.54,1.54,0,1,1-1.53-1.54A1.54,1.54,0,0,1,382.59,219.27Z" style="fill:#c7c7c7"></path><path d="M392.34,219.27a1.54,1.54,0,1,1-1.54-1.53A1.54,1.54,0,0,1,392.34,219.27Z" style="fill:#c7c7c7"></path><path d="M402.09,219.28a1.54,1.54,0,1,1-1.54-1.54A1.54,1.54,0,0,1,402.09,219.28Z" style="fill:#c7c7c7"></path><path d="M411.83,219.29a1.54,1.54,0,1,1-1.53-1.54A1.54,1.54,0,0,1,411.83,219.29Z" style="fill:#c7c7c7"></path><path d="M421.58,219.29a1.54,1.54,0,1,1-1.53-1.53A1.54,1.54,0,0,1,421.58,219.29Z" style="fill:#c7c7c7"></path><polygon points="419.08 240.01 382.01 239.98 380.28 226.28 420.83 226.31 419.08 240.01" style="fill:#FFC727"></polygon><polygon points="420.83 226.31 419.97 232.98 380.94 231.52 380.29 226.28 420.83 226.31" style="opacity:0.1"></polygon></g><g id="freepik--Character--inject-98"><path d="M223.94,443.68c-2.14.73-63.5.94-65.85-.53-.89-.55-1.45-9.49-1.81-20.3-.08-2.34-.14-4.75-.2-7.2l-5-32.73,41-.26L196,415.39l-.15,7.2s23.53,10.43,25.92,12.32S226.08,443,223.94,443.68Z" style="fill:#d3766a"></path><path d="M223.94,443.68c-2.14.73-63.5.94-65.85-.53-1.08-.68-1.68-13.73-2-27.5l39.92-.26-.15,7.2s23.53,10.43,25.92,12.32S226.08,443,223.94,443.68Z" style="fill:#fff"></path><path d="M223.94,443.68c-2.14.73-63.5.94-65.85-.53-.89-.55-1.45-9.49-1.81-20.3l39.57-.26s23.53,10.43,25.92,12.32S226.08,443,223.94,443.68Z" style="fill:#FFC727"></path><path d="M223.05,441.23c-10.29-.22-51.8-.12-62,.45-.09,0-.09.06,0,.06,10.19.44,51.7,0,62-.34C223.27,441.39,223.27,441.23,223.05,441.23Z" style="fill:#263238"></path><path d="M199.84,423.6c-4.12,0-8.89,1.43-11.43,4.81-.1.13.08.27.21.2a57.06,57.06,0,0,1,11.29-4.5A.26.26,0,0,0,199.84,423.6Z" style="fill:#263238"></path><path d="M203,424.83c-4.12,0-8.88,1.43-11.43,4.8-.1.14.09.27.21.21a57.06,57.06,0,0,1,11.29-4.5A.26.26,0,0,0,203,424.83Z" style="fill:#263238"></path><path d="M206.2,426.06c-4.11,0-8.88,1.43-11.43,4.8-.1.13.09.27.21.21a56.55,56.55,0,0,1,11.3-4.5A.26.26,0,0,0,206.2,426.06Z" style="fill:#263238"></path><path d="M86.25,238.5s53.84,81,55.11,86.73c2,8.75,12.41,96.43,12.41,96.43l44.92-.89s-10.15-77.47-18.24-102.55c-5.83-18.07-47.87-78-47.87-78Z" style="fill:#37474f"></path><path d="M197.35,413.07c-7.12-.05-32.34-.33-41.82.55a.07.07,0,0,0,0,.14c3.26.47,34.71-.26,41.82-.49A.1.1,0,1,0,197.35,413.07Z" style="fill:#263238"></path><path d="M128.37,457.36c-2.26.15-63.14-15.9-65-17.91a.87.87,0,0,1-.14-.42c-.25-2,2.87-9.47,5-19,.14-.61,1.29-3.52,2.89-7.44,4.42-10.78,12.3-29.28,12.3-29.28l39.75,10.2-14.64,29.42-2,6.92s20.1,16.08,21.94,18.52S130.62,457.21,128.37,457.36Z" style="fill:#d3766a"></path><path d="M128.37,457.36c-2.26.15-63.14-15.9-65-17.91a.87.87,0,0,1-.14-.42c-.25-2,2.87-9.47,5-19,.14-.61,1.29-3.52,2.89-7.44l37.41,10.34-2,6.92s20.1,16.08,21.94,18.52S130.62,457.21,128.37,457.36Z" style="fill:#fff"></path><path d="M128.36,457.36c-2.25.16-63.13-15.9-65-17.92-.72-.76.86-9,4.91-19.45l38.32,9.83s20.1,16.07,21.94,18.51S130.62,457.2,128.36,457.36Z" style="fill:#FFC727"></path><path d="M128.13,454.76c-9.9-2.82-50.07-13.3-60.06-15.34-.08,0-.1,0,0,.06,9.75,3,50,13.17,60,15.45C128.3,455,128.34,454.82,128.13,454.76Z" style="fill:#263238"></path><path d="M110.17,431.81c-4-1.09-9-.88-12.28,1.73-.13.11,0,.29.15.26a56.3,56.3,0,0,1,12.07-1.48A.26.26,0,0,0,110.17,431.81Z" style="fill:#263238"></path><path d="M112.93,433.81c-4-1.09-9-.88-12.28,1.73-.13.1,0,.28.16.25a56.83,56.83,0,0,1,12.06-1.47A.26.26,0,0,0,112.93,433.81Z" style="fill:#263238"></path><path d="M115.7,435.8c-4-1.09-9-.88-12.28,1.74-.13.1,0,.28.15.25a56.94,56.94,0,0,1,12.07-1.48A.26.26,0,0,0,115.7,435.8Z" style="fill:#263238"></path><path d="M109.3,429.91,64.77,418.22S109.37,325.4,109,319.6c-.3-5.13-31.23-50.16-32.94-58.59-2.8-13.8,3.92-26.12,10.44-33.76l46.06,13s-3.67,8-10.41,13c0,0,29,48.33,29.69,64.24S109.3,429.91,109.3,429.91Z" style="fill:#37474f"></path><path d="M110,421.89c-6.46-1.85-4.58-1.41-11.06-3.19-3.17-.87-24-6.56-27.11-6.86-.07,0-.1.11,0,.14,2.84,1.27,23.78,6.61,27,7.41,6.52,1.66,4.66,1.11,11.19,2.69A.1.1,0,1,0,110,421.89Z" style="fill:#263238"></path><path d="M129.24,251.38a82.93,82.93,0,0,0-12.75,6,.14.14,0,1,0,.12.25c4.3-1.87,8.69-3.67,12.88-5.77A.28.28,0,0,0,129.24,251.38Z" style="fill:#263238"></path><path d="M123.83,250.25a19.46,19.46,0,0,0-.82,2.48,5.48,5.48,0,0,0-.32,2c0,.13.19.14.27,0a7.18,7.18,0,0,0,.86-2c.28-.77.57-1.54.83-2.31A.43.43,0,0,0,123.83,250.25Z" style="fill:#263238"></path><path d="M123.84,246.07c.18-.71.36-1.41.56-2.11s.46-1.45.6-2.19a.09.09,0,0,1,.18,0c-.18.71-.26,1.45-.38,2.17s-.27,1.44-.41,2.16a39.54,39.54,0,0,1-1,4,4.73,4.73,0,0,0,2-.63,3.8,3.8,0,0,0,1.26-2c.28-.81.54-1.62.84-2.42a16,16,0,0,0,.89-2.69c0-.11.21-.06.18.06a29,29,0,0,1-1.64,5.68c-.32.72-.55,1.46-1.26,1.81a6.15,6.15,0,0,1-2.47.49c-.1,0-.24,0-.22-.14A41.82,41.82,0,0,1,123.84,246.07Z" style="fill:#263238"></path><path d="M123.07,254.82c1.75,3.16,3.75,6.2,5.63,9.29s3.57,6.1,5.27,9.19q5.17,9.38,9.55,19.17c1.45,3.23,2.81,6.48,4.09,9.78a73.28,73.28,0,0,1,3.34,10.1,27.25,27.25,0,0,1,.45,10.49,71.68,71.68,0,0,1-2.71,10.48,187.94,187.94,0,0,1-8.7,23.11c-.11.25-.53.06-.44-.2,2.44-6.86,5-13.7,7.14-20.65,2.12-6.74,4.64-13.73,3.47-20.89a53.53,53.53,0,0,0-2.93-10.05q-1.86-5-4-9.9c-2.79-6.44-5.93-12.7-9.14-18.94-1.8-3.49-3.69-6.94-5.5-10.42s-3.62-7.09-5.68-10.48C122.85,254.81,123,254.72,123.07,254.82Z" style="fill:#263238"></path><path d="M89.52,248.06c.84-.14,2.06.15,5.67-.1a19.84,19.84,0,0,0,3-.48,6.64,6.64,0,0,0,2.76-1.12,14.54,14.54,0,0,0,3.14-4.33,22.09,22.09,0,0,0,2.19-5.33c0-.11.19-.06.17.05-.19,1.05-.29,2.11-.57,3.15a18.29,18.29,0,0,1-1.06,2.87,11.65,11.65,0,0,1-3.22,4.76c-1.63,1.23-3.9,1.46-5.88,1.59-1.14.08-5.61,0-6.22-.68C89.36,248.33,89.37,248.08,89.52,248.06Z" style="fill:#263238"></path><path d="M73.81,410.61c4.83-12.64,31-68.62,36.11-80.31,1.22-2.79,2.69-5.62,3.32-8.62.69-3.27-.31-6.22-1.69-9.15a157.87,157.87,0,0,0-8.6-15.61c-3.13-5.07-6.44-10-9.71-15a155.93,155.93,0,0,1-9.3-15.17c-2.53-5.05-3.94-10.44-3.21-16.11s3.15-10.91,5.77-15.88c.69-1.31,1.39-2.61,2.09-3.92,0-.1.2,0,.15.09-2.92,5.21-5.71,10.68-7.06,16.53a26.8,26.8,0,0,0-.65,8.83,28.25,28.25,0,0,0,2.5,8.63c2.42,5.32,5.8,10.22,9,15.1s6.58,9.94,9.75,15a172.15,172.15,0,0,1,8.87,15.64c1.18,2.4,2.47,4.9,2.75,7.6.32,2.95-.75,5.78-1.89,8.44-4.95,11.61-37.21,82.66-37.91,84.09C74,411,73.74,410.79,73.81,410.61Z" style="fill:#263238"></path><path d="M135.48,188.24c7.08,4,33.08,18.4,42.77,17.07,15.42-2.11,38.11-25,43.72-30.79,2.44-2.51-17-23.71-19.75-21.21-1.89,1.68-23.68,26-26.28,27s-24.56-1.92-37.78-4.54C125.57,173.28,120.47,179.76,135.48,188.24Z" style="fill:#d3766a"></path><path d="M229.34,165.73c-2.75,5.3-12.61,13.94-15.79,15.11s-18.42-15.11-17.87-18.55,11.19-20.56,16.76-23S232.19,160.24,229.34,165.73Z" style="fill:#d3766a"></path><path d="M204.63,144.78c.21,3.16,3.81,1.11,3.81,1.11s-4.47,4.2-3,7.37,5.69.43,6,.24c-.24.23-4.25,4.19-2.44,7.23s5.71-.22,6-.44c-.16.28-2.15,4-.25,6,3.26,3.42,8.61-6,12.34-6.91,0,0,2.19,6.15,2.29,6.32,0,0,5.28-8.9,3.82-13.86a3.29,3.29,0,0,0-3.35-2.42s2-2.68.67-5.12c-.7-1.24-3.31-1.24-3.31-1.24a4.16,4.16,0,0,0,.19-4.31c-1.06-1.67-3.52-1.41-3.52-1.41s.48-2.8-1.15-4.16C219.39,130.47,204.2,138,204.63,144.78Z" style="fill:#d3766a"></path><path d="M223.45,137.35a0,0,0,1,0,0-.08A29.33,29.33,0,0,0,208.24,146c-.13.14,0,.41.22.28A60.26,60.26,0,0,1,223.45,137.35Z" style="fill:#263238"></path><path d="M227.23,143c.06,0,0-.13,0-.11a27.51,27.51,0,0,0-16,10.53c-.13.19,0,.49.11.29C214.12,150.25,222.13,145,227.23,143Z" style="fill:#263238"></path><path d="M214.82,160.76c3.86-5.15,9-8.54,14.74-11.27.08,0,0-.14-.05-.13-3.18.57-6.67,2.69-9.25,4.58a17,17,0,0,0-5.62,6.69C214.59,160.74,214.74,160.87,214.82,160.76Z" style="fill:#263238"></path><path d="M208.44,145.89a19.31,19.31,0,0,0-2.09,2.85,6.48,6.48,0,0,0-1.06,3.21,2.16,2.16,0,0,0,.55,1.43,3.08,3.08,0,0,0,1.33.84,3.75,3.75,0,0,0,3-.57l2.19-1.39-1.57,2.06a10.49,10.49,0,0,0-1.64,3,3.75,3.75,0,0,0,.1,3.1,2.17,2.17,0,0,0,2.48,1.13,6.58,6.58,0,0,0,2.84-1.65l2.26-2.09-1.45,2.7a10,10,0,0,0-.9,2.37,4,4,0,0,0,0,2.37,1.92,1.92,0,0,0,1.62,1.27,4.27,4.27,0,0,0,2.29-.77,32.38,32.38,0,0,0,4.17-3.31c.68-.59,1.37-1.18,2.08-1.74a6.37,6.37,0,0,1,2.35-1.32,6.87,6.87,0,0,0-2.19,1.51c-.66.61-1.29,1.25-1.93,1.89a28.78,28.78,0,0,1-4.08,3.6,5.16,5.16,0,0,1-2.72,1,2.79,2.79,0,0,1-2.47-1.78,5,5,0,0,1-.13-2.94,10.64,10.64,0,0,1,1-2.66l.81.61a7.57,7.57,0,0,1-3.34,2,3.16,3.16,0,0,1-2.11-.21,3.52,3.52,0,0,1-1.51-1.47,4.78,4.78,0,0,1-.12-3.93,11.34,11.34,0,0,1,1.85-3.29l.62.67a4.51,4.51,0,0,1-3.78.52,3.74,3.74,0,0,1-1.58-1.13,2.73,2.73,0,0,1-.62-1.85,6.62,6.62,0,0,1,1.36-3.38A16.24,16.24,0,0,1,208.44,145.89Z" style="fill:#263238"></path><path d="M197,159.06s1.87-25.26,11.38-19.69c2.83,1.65,12.47,11.82,10.46,13.8-2.59,2.55-7.4-.95-10.08-3.62,0,0,.58,8.68-5.35,10.88A6.27,6.27,0,0,1,197,159.06Z" style="fill:#d3766a"></path><path d="M207.54,139a13.29,13.29,0,0,1,3.28,2.05,28.37,28.37,0,0,1,2.85,2.63,45.49,45.49,0,0,1,4.93,6,7.4,7.4,0,0,1,.9,1.85,2.66,2.66,0,0,1,.11,1.17,2.13,2.13,0,0,1-.19.63,2,2,0,0,1-.39.51,3.22,3.22,0,0,1-2.07.89,6.07,6.07,0,0,1-2.1-.29,11.73,11.73,0,0,1-3.51-1.92,25.82,25.82,0,0,1-2.92-2.6l.76-.36a15.4,15.4,0,0,1-.19,3,14.75,14.75,0,0,1-.74,2.85,10.47,10.47,0,0,1-1.44,2.57,7.84,7.84,0,0,1-2.18,1.92,8.69,8.69,0,0,0,1.92-2.1,10.41,10.41,0,0,0,1.16-2.57,13.73,13.73,0,0,0,.55-2.77,15.33,15.33,0,0,0,0-2.79l-.11-1.15.87.79a28.71,28.71,0,0,0,2.89,2.42,11.72,11.72,0,0,0,3.23,1.72,3.18,3.18,0,0,0,3.09-.33c.67-.57.09-1.85-.54-2.87a36,36,0,0,0-2.17-3.1c-.77-1-1.56-2-2.39-3A24.53,24.53,0,0,0,207.54,139Z" style="fill:#263238"></path><path d="M195.54,159.82l18.57,26.9s-19.94,16.14-35.92,19.95c-6.58,1.57-31.94-10.26-43-17.19S120.4,172.83,140,175.31s34,5.09,35.28,4.7S195.54,159.82,195.54,159.82Z" style="fill:#FFC727"></path><path d="M128.34,177.46c-.2.06-.4.08-.6.12a1.11,1.11,0,0,1-.67-.06,1,1,0,0,1-.43-.31,2.51,2.51,0,0,1,.31-.35,1,1,0,0,0,.29.31,1,1,0,0,0,.5.17C127.94,177.38,128.14,177.41,128.34,177.46Zm26.21,16.16a1.1,1.1,0,0,1,.51.15.93.93,0,0,1,.46.78,1.22,1.22,0,0,0,.75,1.14,1.12,1.12,0,0,0,.67.07c.2,0,.4-.07.6-.12-.2-.06-.4-.08-.6-.12a1.18,1.18,0,0,1-.5-.17,1,1,0,0,1-.43-.81,1.23,1.23,0,0,0-.79-1.12,1.29,1.29,0,0,0-.67,0c-.2,0-.4.07-.6.12C154.15,193.55,154.35,193.57,154.55,193.62Zm22,0a1.13,1.13,0,0,1,.51.15.9.9,0,0,1,.45.78,1.22,1.22,0,0,0,.75,1.14,1.13,1.13,0,0,0,.67.07c.2,0,.4-.07.6-.12-.2-.06-.4-.08-.6-.12a1.19,1.19,0,0,1-.49-.17.93.93,0,0,1-.43-.81,1.24,1.24,0,0,0-.79-1.12,1.3,1.3,0,0,0-.67,0c-.2,0-.4.07-.6.12C176.16,193.55,176.36,193.57,176.56,193.62Zm-34.08-17a1.05,1.05,0,0,1,.5.15.91.91,0,0,1,.46.78,1.24,1.24,0,0,0,.75,1.15,1.2,1.2,0,0,0,.67.06l.6-.12c-.2-.06-.4-.08-.6-.12a1.19,1.19,0,0,1-.49-.17.93.93,0,0,1-.43-.81,1.24,1.24,0,0,0-.79-1.12,1.31,1.31,0,0,0-.67-.05c-.2.05-.4.07-.6.13C142.08,176.59,142.28,176.62,142.48,176.66Zm6.42,10.43a1.11,1.11,0,0,1-.46.25.93.93,0,0,1-.88-.23,1.23,1.23,0,0,0-1.34-.27,1.16,1.16,0,0,0-.52.42c-.11.17-.24.33-.34.51.18-.1.34-.22.51-.33a1.11,1.11,0,0,1,.47-.24,1,1,0,0,1,.88.27,1.23,1.23,0,0,0,1.35.24,1.28,1.28,0,0,0,.5-.44c.11-.18.24-.33.34-.51C149.23,186.86,149.07,187,148.9,187.09Zm60.81.54a1.2,1.2,0,0,1-.47.25.91.91,0,0,1-.87-.23,1.23,1.23,0,0,0-1.34-.28,1.11,1.11,0,0,0-.52.43c-.11.17-.24.33-.34.51.18-.1.34-.23.51-.34a1,1,0,0,1,.47-.23.93.93,0,0,1,.87.27,1.25,1.25,0,0,0,1.36.23,1.27,1.27,0,0,0,.5-.44c.11-.17.24-.33.34-.51C210,187.39,209.88,187.52,209.71,187.63ZM136.23,185a1.09,1.09,0,0,1-.15.5.93.93,0,0,1-.78.46,1.22,1.22,0,0,0-1.14.75,1.12,1.12,0,0,0-.07.67c0,.2.07.4.12.6.06-.2.08-.4.12-.6a1.29,1.29,0,0,1,.17-.5,1,1,0,0,1,.81-.43,1.19,1.19,0,0,0,1.12-.79,1.26,1.26,0,0,0,0-.66c0-.2-.07-.4-.12-.6C136.3,184.62,136.28,184.82,136.23,185Zm22.66-5.31a1.09,1.09,0,0,1-.15.5.93.93,0,0,1-.78.46,1.24,1.24,0,0,0-1.15.75,1.2,1.2,0,0,0-.06.67c0,.2.07.4.12.6.06-.2.08-.4.12-.6a1.29,1.29,0,0,1,.17-.5,1,1,0,0,1,.81-.43,1.21,1.21,0,0,0,1.12-.79,1.16,1.16,0,0,0,0-.66c0-.2-.06-.4-.12-.6C159,179.31,158.93,179.51,158.89,179.71Zm8.69,20.8a1.13,1.13,0,0,1-.15.51.92.92,0,0,1-.78.45,1.24,1.24,0,0,0-1.15.75,1.21,1.21,0,0,0-.06.67c0,.2.06.4.12.6.06-.2.08-.4.12-.6a1.19,1.19,0,0,1,.17-.49.92.92,0,0,1,.81-.43,1.24,1.24,0,0,0,1.12-.79,1.2,1.2,0,0,0,0-.67c0-.2-.06-.4-.12-.6C167.65,200.11,167.62,200.31,167.58,200.51ZM178,204.68a1.4,1.4,0,0,1,.46-.25.93.93,0,0,1,.88.23,1.22,1.22,0,0,0,1.34.28,1.11,1.11,0,0,0,.52-.43c.11-.17.24-.33.34-.51-.18.1-.34.23-.51.34a1,1,0,0,1-.47.23,1,1,0,0,1-.88-.26,1.19,1.19,0,0,0-1.85.2c-.11.17-.24.33-.34.51C177.7,204.92,177.86,204.79,178,204.68ZM164.31,190a1.2,1.2,0,0,1,.47-.25.91.91,0,0,1,.87.23,1.24,1.24,0,0,0,1.34.28,1.11,1.11,0,0,0,.52-.43c.11-.17.24-.33.34-.51-.18.1-.34.23-.51.34a1.08,1.08,0,0,1-.47.23.93.93,0,0,1-.87-.27,1.25,1.25,0,0,0-1.36-.23,1.27,1.27,0,0,0-.5.44c-.11.17-.24.33-.34.51C164,190.26,164.14,190.13,164.31,190Zm19.32-17.16a1.4,1.4,0,0,1,.51.15,1,1,0,0,1,.46.79,1.22,1.22,0,0,0,.75,1.14,1.11,1.11,0,0,0,.67.06c.2,0,.4-.06.6-.12l-.6-.12a1,1,0,0,1-.93-1,1.23,1.23,0,0,0-.79-1.13,1.19,1.19,0,0,0-.67,0c-.2,0-.4.06-.6.12C183.23,172.8,183.43,172.82,183.63,172.86Zm12,16.81a1.1,1.1,0,0,1,.51.15,1,1,0,0,1,.46.78,1.24,1.24,0,0,0,.75,1.15,1.2,1.2,0,0,0,.67.06c.2,0,.4-.06.6-.12-.2-.06-.4-.08-.6-.12a1.06,1.06,0,0,1-.5-.17.91.91,0,0,1-.43-.8,1.23,1.23,0,0,0-.79-1.13,1.19,1.19,0,0,0-.67,0c-.2,0-.4.06-.6.12Zm9.58-11.84a1.09,1.09,0,0,1,.5.15.93.93,0,0,1,.46.78,1.24,1.24,0,0,0,.75,1.15,1.2,1.2,0,0,0,.67.06c.2,0,.4-.06.6-.12-.2-.06-.4-.08-.6-.12a1.14,1.14,0,0,1-.5-.17,1,1,0,0,1-.43-.8,1.22,1.22,0,0,0-.79-1.13,1.16,1.16,0,0,0-.66,0c-.2,0-.4.06-.6.12Zm-8.51-.1a1.09,1.09,0,0,1-.15.5.93.93,0,0,1-.78.46,1.24,1.24,0,0,0-1.15.75,1.2,1.2,0,0,0-.06.67c0,.2.07.4.12.6.06-.2.08-.4.12-.6a1.29,1.29,0,0,1,.17-.5,1,1,0,0,1,.81-.43,1.21,1.21,0,0,0,1.12-.79,1.26,1.26,0,0,0,.05-.66c-.05-.2-.07-.4-.13-.6C196.79,177.33,196.76,177.53,196.72,177.73Zm-21.55,3.47a1.13,1.13,0,0,1-.15.51.9.9,0,0,1-.78.45,1.25,1.25,0,0,0-1.15.75,1.21,1.21,0,0,0-.06.67c0,.2.06.4.12.6.06-.2.08-.4.12-.6a1.19,1.19,0,0,1,.17-.49.93.93,0,0,1,.81-.43,1.24,1.24,0,0,0,1.12-.79,1.2,1.2,0,0,0,0-.67c0-.2-.06-.4-.12-.6C175.24,180.8,175.21,181,175.17,181.2Zm15,16.41a1.05,1.05,0,0,1-.15.5.91.91,0,0,1-.78.46,1.24,1.24,0,0,0-1.15.75,1.2,1.2,0,0,0-.06.67c0,.2.06.4.12.6.06-.2.08-.4.12-.6a1.19,1.19,0,0,1,.17-.49.92.92,0,0,1,.81-.43,1.24,1.24,0,0,0,1.12-.79,1.2,1.2,0,0,0,0-.67c0-.2-.06-.4-.12-.6C190.22,197.21,190.19,197.41,190.15,197.61Zm4.11-31.08a1.11,1.11,0,0,1,.46-.25.93.93,0,0,1,.88.23,1.19,1.19,0,0,0,1.86-.15c.11-.17.24-.33.34-.51a5.65,5.65,0,0,0-.51.34,1.21,1.21,0,0,1-.47.23,1,1,0,0,1-.88-.27,1.2,1.2,0,0,0-1.85.21c-.11.17-.24.33-.34.51C193.93,166.77,194.09,166.64,194.26,166.53Zm-11,21.64a1.08,1.08,0,0,1,.47-.25.91.91,0,0,1,.87.23,1.26,1.26,0,0,0,1.34.28,1.24,1.24,0,0,0,.52-.43,5.65,5.65,0,0,0,.34-.51,5.65,5.65,0,0,0-.51.34,1.21,1.21,0,0,1-.47.23.93.93,0,0,1-.87-.27,1.23,1.23,0,0,0-1.36-.23,1.27,1.27,0,0,0-.5.44c-.11.17-.24.33-.34.51C182.94,188.4,183.1,188.28,183.27,188.17Z" style="fill:#fff"></path><path d="M192.25,166.58a64.3,64.3,0,0,0,3.26,5.63c1.16,1.93,2.38,3.81,3.59,5.7s6.3,9.29,7.57,11.14a.08.08,0,0,0,.13-.09c-1.16-1.92-5.74-9.56-6.94-11.41s-2.38-3.71-3.62-5.52a64.21,64.21,0,0,0-3.91-5.49S192.23,166.53,192.25,166.58Z" style="fill:#263238"></path><path d="M166.79,204.53a182.27,182.27,0,0,1-31.63-15.05c-7.07-4.43-11.13-10-8.06-12.78l.31-.21Z" style="fill:#263238"></path><path d="M137.9,249.68c-1.2.78-57.43-13.84-57.64-14.3-.58-1.25,29.8-57.09,46.29-64.46,3.54-1.59,12.14,2.32,13.83,4.89,1.06,1.62,2,10.72,2.49,18.12C143.8,208.75,138.94,249,137.9,249.68Z" style="fill:#FFC727"></path><path d="M113.44,193.8c.2-.06.4-.08.6-.13a1.26,1.26,0,0,1,.66.05,1.21,1.21,0,0,1,.79,1.12,1,1,0,0,0,.43.81,1.29,1.29,0,0,0,.5.17c.2,0,.4.06.6.12-.2.05-.4.08-.6.12a1.2,1.2,0,0,1-.67-.06,1.24,1.24,0,0,1-.75-1.15.93.93,0,0,0-.46-.78,1.09,1.09,0,0,0-.5-.15Zm11.68,39.76a1.28,1.28,0,0,1,.51.16.9.9,0,0,1,.45.78,1.24,1.24,0,0,0,.75,1.14,1.22,1.22,0,0,0,.67.07l.6-.12c-.2-.06-.4-.08-.6-.13a1.05,1.05,0,0,1-.49-.16.93.93,0,0,1-.43-.81,1.22,1.22,0,0,0-.79-1.12,1.3,1.3,0,0,0-.67-.05c-.2,0-.4.07-.6.12C124.72,233.5,124.92,233.52,125.12,233.56Zm13.8-37.5a1.05,1.05,0,0,1,.5.15,1,1,0,0,1,.46.78,1.24,1.24,0,0,0,.75,1.15,1.2,1.2,0,0,0,.67.06c.2,0,.4-.06.6-.12-.2-.06-.4-.08-.6-.12a1.14,1.14,0,0,1-.5-.17.93.93,0,0,1-.42-.8,1.24,1.24,0,0,0-.8-1.13,1.16,1.16,0,0,0-.66,0c-.2,0-.4.06-.6.12C138.52,196,138.72,196,138.92,196.06Zm-13.56-20.62a1.23,1.23,0,0,1,.5.15,1,1,0,0,1,.46.79,1.23,1.23,0,0,0,.75,1.14,1.11,1.11,0,0,0,.67.06c.2,0,.4-.06.6-.12-.2-.05-.4-.08-.6-.12a1,1,0,0,1-.5-.17,1,1,0,0,1-.43-.8,1.22,1.22,0,0,0-.79-1.13,1.16,1.16,0,0,0-.66,0c-.2,0-.4.06-.6.12C125,175.37,125.16,175.4,125.36,175.44Zm-27,35.07a1.09,1.09,0,0,1,.5.15.93.93,0,0,1,.46.78,1.22,1.22,0,0,0,.75,1.14,1.12,1.12,0,0,0,.67.07c.2,0,.4-.07.6-.12-.2-.06-.4-.08-.6-.12a1.29,1.29,0,0,1-.5-.17,1,1,0,0,1-.43-.81,1.2,1.2,0,0,0-.79-1.12,1.26,1.26,0,0,0-.66-.05l-.6.12C97.92,210.44,98.12,210.46,98.32,210.51Zm12,16.8a1.23,1.23,0,0,1,.51.16.93.93,0,0,1,.46.78,1.22,1.22,0,0,0,.75,1.14,1.2,1.2,0,0,0,.67.07l.6-.12c-.2-.06-.4-.09-.6-.13a1.06,1.06,0,0,1-.5-.16,1,1,0,0,1-.43-.81,1.21,1.21,0,0,0-.79-1.12,1.29,1.29,0,0,0-.67-.05c-.2,0-.4.07-.6.12C109.93,227.25,110.13,227.27,110.33,227.31Zm-21.56,3.55a1.27,1.27,0,0,1,.51.15.94.94,0,0,1,.45.79,1.23,1.23,0,0,0,.75,1.14,1.13,1.13,0,0,0,.67.06c.2,0,.4-.06.6-.12l-.6-.12a1,1,0,0,1-.49-.17.91.91,0,0,1-.43-.8,1.24,1.24,0,0,0-.79-1.13,1.2,1.2,0,0,0-.67,0c-.2,0-.4.06-.6.12C88.37,230.8,88.57,230.82,88.77,230.86ZM120.26,211a1.28,1.28,0,0,1,.51.16.9.9,0,0,1,.45.78,1.25,1.25,0,0,0,.75,1.14,1.22,1.22,0,0,0,.67.07l.61-.12c-.21-.06-.41-.08-.61-.13a1.05,1.05,0,0,1-.49-.16.93.93,0,0,1-.43-.81,1.21,1.21,0,0,0-.79-1.12,1.3,1.3,0,0,0-.67,0c-.2,0-.4.07-.6.12C119.86,210.92,120.06,210.94,120.26,211Zm16.63,10.42a1.13,1.13,0,0,1,.51.15.9.9,0,0,1,.45.78,1.25,1.25,0,0,0,.76,1.14,1.12,1.12,0,0,0,.67.07c.2,0,.4-.07.6-.12-.2-.06-.4-.08-.6-.12a1.18,1.18,0,0,1-.5-.17.93.93,0,0,1-.43-.81,1.21,1.21,0,0,0-.79-1.12,1.3,1.3,0,0,0-.67,0c-.2,0-.4.07-.6.12C136.49,221.33,136.69,221.35,136.89,221.4Zm-.09-10.71a1.08,1.08,0,0,1-.47.25.91.91,0,0,1-.87-.23,1.26,1.26,0,0,0-1.34-.28,1.24,1.24,0,0,0-.52.43c-.11.17-.24.33-.34.51a5.65,5.65,0,0,0,.51-.34,1.21,1.21,0,0,1,.47-.23.93.93,0,0,1,.87.27,1.23,1.23,0,0,0,1.36.23,1.2,1.2,0,0,0,.5-.44c.11-.17.24-.33.34-.51Zm-20.46-30.36a1.4,1.4,0,0,1-.15.51.93.93,0,0,1-.79.45,1.25,1.25,0,0,0-1.14.76,1.11,1.11,0,0,0-.06.67c0,.2.06.4.12.6.05-.2.08-.4.12-.6a1,1,0,0,1,.17-.5.91.91,0,0,1,.8-.43,1.23,1.23,0,0,0,1.13-.79,1.2,1.2,0,0,0,0-.67c0-.2-.06-.4-.12-.6C116.4,179.93,116.38,180.13,116.34,180.33Zm-4.93,35a1.28,1.28,0,0,1-.16.51.9.9,0,0,1-.78.45,1.24,1.24,0,0,0-1.14.75,1.13,1.13,0,0,0-.07.67c0,.2.07.4.12.6.06-.2.08-.4.12-.6a1.19,1.19,0,0,1,.17-.49.93.93,0,0,1,.81-.43,1.22,1.22,0,0,0,1.12-.79,1.3,1.3,0,0,0,.05-.67c0-.2-.07-.4-.12-.6C111.47,215,111.45,215.17,111.41,215.37ZM136.23,185a1.09,1.09,0,0,1-.15.5.93.93,0,0,1-.78.46,1.22,1.22,0,0,0-1.14.75,1.12,1.12,0,0,0-.07.67c0,.2.07.4.12.6.06-.2.08-.4.12-.6a1.29,1.29,0,0,1,.17-.5,1,1,0,0,1,.81-.43,1.19,1.19,0,0,0,1.12-.79,1.26,1.26,0,0,0,0-.66c0-.2-.07-.4-.12-.6C136.3,184.62,136.28,184.82,136.23,185Zm0,56.57a1.09,1.09,0,0,1-.15.5.93.93,0,0,1-.78.46,1.22,1.22,0,0,0-1.14.75,1.12,1.12,0,0,0-.07.67c0,.2.07.4.12.6.06-.2.08-.4.12-.6a1.29,1.29,0,0,1,.17-.5,1,1,0,0,1,.81-.43,1.19,1.19,0,0,0,1.12-.79,1.26,1.26,0,0,0,0-.66c0-.2-.07-.4-.12-.6C136.3,241.19,136.28,241.39,136.23,241.59ZM92,216.63a1.13,1.13,0,0,1-.15.51.9.9,0,0,1-.78.45,1.25,1.25,0,0,0-1.15.75,1.21,1.21,0,0,0-.06.67c0,.2.06.4.12.6.06-.2.08-.4.12-.6a1.19,1.19,0,0,1,.17-.49.93.93,0,0,1,.81-.43,1.24,1.24,0,0,0,1.12-.79,1.2,1.2,0,0,0,0-.67c0-.2-.06-.4-.12-.6C92.05,216.23,92,216.43,92,216.63Zm37.31-16.12a1.27,1.27,0,0,1-.15.51.94.94,0,0,1-.79.45,1.23,1.23,0,0,0-1.14.75,1.13,1.13,0,0,0-.06.67c0,.2.06.4.12.6,0-.2.08-.4.12-.6a1,1,0,0,1,.17-.49.91.91,0,0,1,.8-.43,1.24,1.24,0,0,0,1.13-.79,1.2,1.2,0,0,0,0-.67c0-.2-.06-.4-.12-.6C129.35,200.11,129.33,200.31,129.29,200.51Zm-25.69-3.46a1.23,1.23,0,0,1-.16.51.93.93,0,0,1-.78.46,1.22,1.22,0,0,0-1.14.75,1.2,1.2,0,0,0-.07.67c0,.2.07.4.12.6.06-.2.09-.4.13-.6a1.06,1.06,0,0,1,.16-.5.93.93,0,0,1,.81-.43,1.21,1.21,0,0,0,1.12-.79,1.3,1.3,0,0,0,0-.67c0-.2-.07-.4-.12-.6C103.66,196.65,103.64,196.85,103.6,197.05Zm0,39.14a1.18,1.18,0,0,1-.16.5.93.93,0,0,1-.78.46,1.22,1.22,0,0,0-1.14.75,1.2,1.2,0,0,0-.07.67c0,.2.07.4.12.6.06-.2.09-.4.13-.6a1.14,1.14,0,0,1,.16-.5,1,1,0,0,1,.81-.43,1.19,1.19,0,0,0,1.12-.79,1.26,1.26,0,0,0,0-.66c0-.2-.07-.4-.12-.6C103.66,235.79,103.64,236,103.6,236.19ZM123.46,189a1.08,1.08,0,0,1,.47-.25.91.91,0,0,1,.87.23,1.26,1.26,0,0,0,1.34.28,1.24,1.24,0,0,0,.52-.43c.11-.17.24-.33.34-.51a5.65,5.65,0,0,0-.51.34,1.21,1.21,0,0,1-.47.23.93.93,0,0,1-.87-.27,1.23,1.23,0,0,0-1.36-.23,1.27,1.27,0,0,0-.5.44c-.11.17-.24.33-.34.51C123.13,189.19,123.29,189.06,123.46,189Zm-14.52,15.22a1.35,1.35,0,0,1,.47-.25.93.93,0,0,1,.87.23,1.22,1.22,0,0,0,1.34.28,1.11,1.11,0,0,0,.52-.43c.11-.17.24-.33.34-.51-.18.1-.34.23-.51.34a1,1,0,0,1-.47.23.92.92,0,0,1-.87-.26,1.23,1.23,0,0,0-1.36-.24,1.27,1.27,0,0,0-.5.44c-.11.17-.24.33-.34.51A5.65,5.65,0,0,0,108.94,204.17ZM98,225.81a1.2,1.2,0,0,1,.47-.25.93.93,0,0,1,.88.23,1.22,1.22,0,0,0,1.34.28,1.14,1.14,0,0,0,.51-.43,5.65,5.65,0,0,0,.34-.51c-.18.1-.34.23-.51.34a1,1,0,0,1-.47.23.94.94,0,0,1-.87-.26,1.21,1.21,0,0,0-1.35-.24,1.23,1.23,0,0,0-.51.44c-.11.17-.23.33-.34.51C97.63,226.05,97.78,225.92,98,225.81Zm26-2.22a1.08,1.08,0,0,1,.47-.25.91.91,0,0,1,.87.23,1.26,1.26,0,0,0,1.34.28,1.24,1.24,0,0,0,.52-.43c.11-.17.24-.33.34-.51a5.65,5.65,0,0,0-.51.34,1.21,1.21,0,0,1-.47.23.93.93,0,0,1-.87-.27,1.23,1.23,0,0,0-1.36-.23,1.2,1.2,0,0,0-.5.44c-.11.17-.24.33-.34.51Zm-10,15.75a1.2,1.2,0,0,1,.47-.25.91.91,0,0,1,.87.23,1.23,1.23,0,0,0,1.34.28,1.11,1.11,0,0,0,.52-.43c.11-.17.24-.33.34-.51-.18.1-.34.23-.51.34a1,1,0,0,1-.47.23.92.92,0,0,1-.87-.26,1.23,1.23,0,0,0-1.36-.24,1.27,1.27,0,0,0-.5.44c-.11.17-.24.33-.34.51C113.65,239.58,113.81,239.45,114,239.34Zm26.57-7a1,1,0,0,1-.27-.19,1.21,1.21,0,0,0-1.35-.24,1.23,1.23,0,0,0-.51.44c-.11.17-.23.33-.34.51a4.52,4.52,0,0,0,.51-.34,1.35,1.35,0,0,1,.47-.25,1,1,0,0,1,.88.23,1.23,1.23,0,0,0,.56.33Z" style="fill:#fff"></path><path d="M138,182c-.39,5.62-.89,11.23-1.4,16.83s-1.11,11.21-1.66,16.81-1.23,11.19-1.9,16.78l-1,8.39c-.38,2.79-.72,5.58-1.13,8.37.18-2.81.43-5.62.65-8.43l.75-8.41c.51-5.6,1.11-11.2,1.66-16.81s1.22-11.19,1.9-16.78S137.19,187.56,138,182Z" style="fill:#263238"></path><path d="M140.31,199.61a1.05,1.05,0,1,1-1-1.15A1.05,1.05,0,0,1,140.31,199.61Z" style="fill:#263238"></path><path d="M139,210.4a1.06,1.06,0,1,1-1-1.14A1.05,1.05,0,0,1,139,210.4Z" style="fill:#263238"></path><path d="M137.59,221.19a1.06,1.06,0,1,1-1-1.14A1.06,1.06,0,0,1,137.59,221.19Z" style="fill:#263238"></path><path d="M136.22,232a1.05,1.05,0,1,1-1-1.14A1.05,1.05,0,0,1,136.22,232Z" style="fill:#263238"></path><path d="M134.86,242.77a1.05,1.05,0,1,1-1-1.14A1.05,1.05,0,0,1,134.86,242.77Z" style="fill:#263238"></path><path d="M135.09,183c-3.53-.26-7.59-7.08-8.53-11.86-.06-.33,1.3-3.14,2.79-6.63.9-2.12,1.85-4.51,2.56-6.74l13,7.85a37.57,37.57,0,0,0-4.07,8.17,4.74,4.74,0,0,0-.2.95,1.31,1.31,0,0,1,0,.15C140.3,176.71,138.51,183.23,135.09,183Z" style="fill:#d3766a"></path><path d="M132.52,158.12c-.45,2.93-1.49,13.62,6.58,16.38a10.54,10.54,0,0,0,1.46.38.55.55,0,0,0,0-.17,5.6,5.6,0,0,1,.19-.94,37.71,37.71,0,0,1,4.09-8.17Z" style="fill:#263238"></path><path d="M132.34,143.65c-2.16,5-1.09,20.31,2.23,24.07,4.81,5.44,13.52,6.88,18.35.9,4.69-5.79,2.94-25.69-.85-29.19C146.5,134.28,135.54,136.25,132.34,143.65Z" style="fill:#d3766a"></path><path d="M145.88,154.43s-.08,0-.07.09c.1,1,0,2.23-.87,2.63a0,0,0,0,0,0,.06C146.08,157,146.14,155.39,145.88,154.43Z" style="fill:#263238"></path><path d="M144.89,153.41c-1.66,0-1.58,3.32,0,3.33S146.29,153.43,144.89,153.41Z" style="fill:#263238"></path><path d="M151.6,154.31s.08,0,.08.08c0,1,.16,2.22,1.11,2.54a0,0,0,0,1,0,.06C151.64,156.86,151.43,155.28,151.6,154.31Z" style="fill:#263238"></path><path d="M152.49,153.2c1.66-.17,1.88,3.16.34,3.32S151.11,153.35,152.49,153.2Z" style="fill:#263238"></path><path d="M143.54,151.92a12.47,12.47,0,0,0,1.28-.49,2.19,2.19,0,0,0,1.2-.74.7.7,0,0,0-.13-.85,1.75,1.75,0,0,0-1.77-.14,2.6,2.6,0,0,0-1.45,1.15A.75.75,0,0,0,143.54,151.92Z" style="fill:#263238"></path><path d="M153.74,151.49a12.21,12.21,0,0,1-1.33-.31,2.21,2.21,0,0,1-1.3-.57.71.71,0,0,1,0-.86,1.77,1.77,0,0,1,1.74-.38,2.6,2.6,0,0,1,1.59.94A.75.75,0,0,1,153.74,151.49Z" style="fill:#263238"></path><path d="M144.87,164.05c.26.24.51.57.89.59a2.85,2.85,0,0,0,1.1-.29s.07,0,0,.05a1.39,1.39,0,0,1-1.3.59c-.47-.06-.71-.46-.84-.89C144.76,164,144.84,164,144.87,164.05Z" style="fill:#263238"></path><path d="M145.88,160.93a3.51,3.51,0,0,0,2.38,1.51,4.5,4.5,0,0,0,1.27,0,.93.93,0,0,0,.24,0l.23,0a.26.26,0,0,0,.2-.24h0s0-.06,0-.1h0v-.09c0-.79-.11-2-.11-2,.3.14,1.8.76,1.76.35a52.41,52.41,0,0,0-1.64-10.6.1.1,0,0,0-.19,0c.16,3.31.89,6.57,1.1,9.89a6.06,6.06,0,0,0-1.68-.46c-.11,0,.25,2.33.23,2.69v0a4.87,4.87,0,0,1-3.67-1C145.89,160.78,145.81,160.85,145.88,160.93Z" style="fill:#263238"></path><path d="M148.94,162.26a4.11,4.11,0,0,1-1.73,1.17,1.75,1.75,0,0,1-1.13,0c-.8-.26-.78-1-.59-1.64a4.74,4.74,0,0,1,.43-1A5.36,5.36,0,0,0,148.94,162.26Z" style="fill:#263238"></path><path d="M147.21,163.43a1.75,1.75,0,0,1-1.13,0c-.8-.26-.78-1-.59-1.64A1.92,1.92,0,0,1,147.21,163.43Z" style="fill:#f291b8"></path><path d="M154.66,145.43s0,0,0-.05l0,.07Z" style="fill:#263238"></path><path d="M154.69,145.46c-5,3.75-12.27-1.29-12.27-1.29a5.61,5.61,0,0,1-5.53,3.79s-.65,8.76-2.95,8.84c-3.5.12-5.08-11.72-4.08-14.1s3.95-3.11,3.95-3.11a5.69,5.69,0,0,1,2.24-3.56c2.31-1.93,10.67.18,10.67.18a7.65,7.65,0,0,1,2-2.94,2.17,2.17,0,0,1,3.13.15,5.12,5.12,0,0,0-.75,2.19c-.31,2.57,1.78,2.48,1.66.16a3.61,3.61,0,0,0-.91-2.35c1-1.55,2.62-2.12,3.68-1.35C157.43,133.46,158.85,142.35,154.69,145.46Z" style="fill:#263238"></path><path d="M135.2,155.84s-2.95-5.17-5.27-4.16-.4,8.29,2.1,9.49a2.65,2.65,0,0,0,3.66-1.1Z" style="fill:#d3766a"></path><path d="M130.53,153.76s-.05.05,0,.06c1.75.9,2.55,2.67,3.06,4.48a1.45,1.45,0,0,0-2.13-.6c-.05,0,0,.11,0,.11a1.62,1.62,0,0,1,1.73.72,8.46,8.46,0,0,1,.72,1.52c.07.17.37.11.32-.08v0C134.5,157.62,133,154.21,130.53,153.76Z" style="fill:#263238"></path><path d="M140.56,174.87l-3,6.7L127,169.73l-3.35,3.18s8.75,18.19,8.89,17.42l5.23-7,3.6,5.62.82-10.92Z" style="fill:#FFC727"></path><path d="M142.1,182.55c.06-2.14.19-2.29.15-4.42,0-.08-.11-.13-.14,0-.62,2-.82,8.19-1,10.13l0,0c-.19-.24-3.28-5-3.34-4.9-.87,1.1-5,6.22-5.2,6.69-1.38-2.89-6.73-13.43-8.43-16.19a.08.08,0,0,0-.14.06c1.18,3,8.24,17.19,8.37,17.17a67.92,67.92,0,0,0,5.44-7.45c.67,1,3.75,6.29,3.8,6A65.73,65.73,0,0,0,142.1,182.55Z" style="fill:#263238"></path><rect x="157.11" y="259.03" width="8.36" height="179.15" transform="translate(128.96 -34.14) rotate(20)" style="fill:#dbdbdb"></rect><polygon points="195.85 265.86 191.09 278.92 182.56 277.93 187.99 263 195.85 265.86" style="fill:#a6a6a6"></polygon><rect x="189.97" y="229" width="14.1" height="42.86" transform="translate(97.53 -52.28) rotate(20)" style="fill:#FFC727"></rect><polygon points="190.38 459.63 74.88 459.63 79.88 450.49 185.39 450.49 190.38 459.63" style="fill:#263238"></polygon><path d="M176.39,455.37H88.88s6.12-36.54,43.75-36.54S176.39,455.37,176.39,455.37Z" style="fill:#a6a6a6"></path><path d="M157.5,455.37H107.77s3.48-20.76,24.86-20.76S157.5,455.37,157.5,455.37Z" style="fill:#c7c7c7"></path><path d="M114.39,191c-.73,8.1.34,43.27,3.67,49,6,10.36,38.5,24.41,46.07,27.14,3.3,1.19,14.62-25.22,11.19-26.74-2.31-1-33.42-10.86-35.43-12.81s-10-26.14-13-39.26C123.94,175.81,115.93,173.83,114.39,191Z" style="fill:#d3766a"></path><path d="M205.77,249.14a4.31,4.31,0,0,1-2.38,4.29,6.34,6.34,0,0,1,1.47,4.07c-.12,2.62-4.28,3.58-4.28,3.58a7.8,7.8,0,0,1,.87,4.54c-.36,2.49-4.43,4.06-4.43,4.06a6.91,6.91,0,0,1-1.74,4.48c-3.08,3.18-9.68,1.77-13.89.92s-15.34-7.22-17.59-8.21L169,239.81s20-1.54,24.76.16C197.85,241.41,205.31,245.82,205.77,249.14Z" style="fill:#d3766a"></path><path d="M203.29,253c-3.94-2.56-8.42-3.82-12.82-5.33a.08.08,0,0,0-.05.15c4.39,1.45,8.44,3.76,12.77,5.38C203.31,253.2,203.39,253,203.29,253Z" style="fill:#263238"></path><path d="M200.56,260.71a11.74,11.74,0,0,0-3-1.1c-1.1-.31-2.19-.61-3.29-.89-2.2-.55-4.42-1.06-6.65-1.5-.1,0-.15.13-.05.16,2.2.55,4.38,1.14,6.55,1.79,1.09.33,2.17.66,3.25,1a15.15,15.15,0,0,0,3.09.82A.16.16,0,0,0,200.56,260.71Z" style="fill:#263238"></path><path d="M196.93,269.66a8.45,8.45,0,0,0-2.76-.85l-3-.71c-2-.49-4-1-6-1.53a.08.08,0,0,0,0,.15c2,.58,4,1.18,6.07,1.74l3,.8a7.79,7.79,0,0,0,2.77.5A.06.06,0,0,0,196.93,269.66Z" style="fill:#263238"></path><path d="M170,237.85l-7.54,30.83s-36.21-15-45.85-28.31c-4-5.48-5.22-37.72-3.07-50.62S122.77,171,128,190s10.51,35.78,11.74,36.32S170,237.85,170,237.85Z" style="fill:#FFC727"></path><path d="M113.44,193.8c.2-.06.4-.08.6-.13a1.26,1.26,0,0,1,.66.05,1.21,1.21,0,0,1,.79,1.12,1,1,0,0,0,.43.81,1.29,1.29,0,0,0,.5.17c.2,0,.4.06.6.12-.2.05-.4.08-.6.12a1.2,1.2,0,0,1-.67-.06,1.24,1.24,0,0,1-.75-1.15.93.93,0,0,0-.46-.78,1.09,1.09,0,0,0-.5-.15Zm11.68,39.76a1.28,1.28,0,0,1,.51.16.9.9,0,0,1,.45.78,1.24,1.24,0,0,0,.75,1.14,1.22,1.22,0,0,0,.67.07l.6-.12c-.2-.06-.4-.08-.6-.13a1.05,1.05,0,0,1-.49-.16.93.93,0,0,1-.43-.81,1.22,1.22,0,0,0-.79-1.12,1.3,1.3,0,0,0-.67-.05c-.2,0-.4.07-.6.12C124.72,233.5,124.92,233.52,125.12,233.56ZM156,263a1.23,1.23,0,0,1,.5.15,1,1,0,0,1,.46.79,1.23,1.23,0,0,0,.75,1.14,1.11,1.11,0,0,0,.67.06c.2,0,.4-.06.6-.12l-.6-.12a1,1,0,0,1-.5-.17,1,1,0,0,1-.43-.8,1.22,1.22,0,0,0-.79-1.13,1.16,1.16,0,0,0-.66,0c-.2,0-.4.06-.6.12C155.64,263,155.84,263,156,263Zm-35.78-52a1.28,1.28,0,0,1,.51.16.9.9,0,0,1,.45.78,1.25,1.25,0,0,0,.75,1.14,1.22,1.22,0,0,0,.67.07l.61-.12c-.21-.06-.41-.08-.61-.13a1.05,1.05,0,0,1-.49-.16.93.93,0,0,1-.43-.81,1.21,1.21,0,0,0-.79-1.12,1.3,1.3,0,0,0-.67,0c-.2,0-.4.07-.6.12C119.86,210.92,120.06,210.94,120.26,211Zm25,46.51a1.09,1.09,0,0,1,.5.15.93.93,0,0,1,.46.78,1.24,1.24,0,0,0,.75,1.15,1.2,1.2,0,0,0,.67.06c.2,0,.4-.06.6-.12-.2-.06-.4-.08-.6-.12a1.1,1.1,0,0,1-.5-.17,1,1,0,0,1-.43-.81,1.23,1.23,0,0,0-.79-1.12,1.16,1.16,0,0,0-.66,0,6,6,0,0,0-.61.12C144.83,257.42,145,257.45,145.24,257.49Zm6.81-18.67a1.23,1.23,0,0,1,.51.15,1,1,0,0,1,.46.79,1.23,1.23,0,0,0,.75,1.14,1.11,1.11,0,0,0,.67.06c.2,0,.4-.06.6-.12-.2-.05-.4-.08-.6-.12a1,1,0,0,1-.5-.17.91.91,0,0,1-.43-.8,1.23,1.23,0,0,0-.79-1.13,1.19,1.19,0,0,0-.67,0c-.2,0-.4.06-.6.12C151.65,238.76,151.85,238.78,152.05,238.82Zm-15.16-17.67c-.2,0-.4.07-.6.12.2.06.4.08.6.13a1.13,1.13,0,0,1,.51.15.65.65,0,0,1,.18.15c-.06-.17-.12-.36-.18-.54A1.47,1.47,0,0,0,136.89,221.15Zm1,1.29a1.27,1.27,0,0,0,.23.62C138,222.86,137.94,222.66,137.86,222.44Zm29.48,17.07a1.35,1.35,0,0,1-.47.25.94.94,0,0,1-.87-.23,1.22,1.22,0,0,0-1.34-.28,1.11,1.11,0,0,0-.52.43c-.11.17-.24.33-.34.51l.51-.34a1,1,0,0,1,.47-.23.92.92,0,0,1,.87.26,1.23,1.23,0,0,0,1.36.24,1.27,1.27,0,0,0,.5-.44c.11-.17.24-.33.34-.51A5.65,5.65,0,0,0,167.34,239.51Zm-30.11,13.1a1.2,1.2,0,0,1-.47.25.93.93,0,0,1-.88-.23,1.22,1.22,0,0,0-1.34-.28,1.14,1.14,0,0,0-.51.43,5.65,5.65,0,0,0-.34.51c.18-.1.34-.23.51-.34a1,1,0,0,1,.47-.23.94.94,0,0,1,.87.26,1.21,1.21,0,0,0,1.35.24,1.23,1.23,0,0,0,.51-.44c.11-.17.23-.33.34-.51C137.56,252.37,137.4,252.5,137.23,252.61Zm-3.31-42.07a1.21,1.21,0,0,0-.32.32c-.11.17-.24.33-.34.51a5.65,5.65,0,0,0,.51-.34,1.48,1.48,0,0,1,.25-.16C134,210.76,134,210.65,133.92,210.54Zm17.14,20.13a1.16,1.16,0,0,0-.32.44,1.21,1.21,0,0,0-.06.67c0,.2.06.4.12.6,0-.2.08-.4.12-.6a1.06,1.06,0,0,1,.17-.49.88.88,0,0,1,.55-.4Zm-14.83,10.92a1.09,1.09,0,0,1-.15.5.93.93,0,0,1-.78.46,1.22,1.22,0,0,0-1.14.75,1.12,1.12,0,0,0-.07.67c0,.2.07.4.12.6.06-.2.08-.4.12-.6a1.29,1.29,0,0,1,.17-.5,1,1,0,0,1,.81-.43,1.19,1.19,0,0,0,1.12-.79,1.26,1.26,0,0,0,0-.66c0-.2-.07-.4-.12-.6C136.3,241.19,136.28,241.39,136.23,241.59ZM158.89,252a1.13,1.13,0,0,1-.15.51.9.9,0,0,1-.78.45,1.27,1.27,0,0,0-1.15.75,1.21,1.21,0,0,0-.06.67c0,.2.07.4.12.61.06-.21.08-.41.12-.61a1.19,1.19,0,0,1,.17-.49.93.93,0,0,1,.81-.43,1.23,1.23,0,0,0,1.12-.79,1.2,1.2,0,0,0,0-.67c0-.2-.06-.4-.12-.6C159,251.57,158.93,251.77,158.89,252Zm-29.6-51.46a1.27,1.27,0,0,1-.15.51.94.94,0,0,1-.79.45,1.23,1.23,0,0,0-1.14.75,1.13,1.13,0,0,0-.06.67c0,.2.06.4.12.6,0-.2.08-.4.12-.6a1,1,0,0,1,.17-.49.91.91,0,0,1,.8-.43,1.24,1.24,0,0,0,1.13-.79,1.2,1.2,0,0,0,0-.67c0-.2-.06-.4-.12-.6C129.35,200.11,129.33,200.31,129.29,200.51ZM123.46,189a1.08,1.08,0,0,1,.47-.25.91.91,0,0,1,.87.23,1.26,1.26,0,0,0,1.34.28,1.24,1.24,0,0,0,.52-.43c.11-.17.24-.33.34-.51a5.65,5.65,0,0,0-.51.34,1.21,1.21,0,0,1-.47.23.93.93,0,0,1-.87-.27,1.23,1.23,0,0,0-1.36-.23,1.27,1.27,0,0,0-.5.44c-.11.17-.24.33-.34.51C123.13,189.19,123.29,189.06,123.46,189Zm.5,34.64a1.08,1.08,0,0,1,.47-.25.91.91,0,0,1,.87.23,1.26,1.26,0,0,0,1.34.28,1.24,1.24,0,0,0,.52-.43c.11-.17.24-.33.34-.51a5.65,5.65,0,0,0-.51.34,1.21,1.21,0,0,1-.47.23.93.93,0,0,1-.87-.27,1.23,1.23,0,0,0-1.36-.23,1.2,1.2,0,0,0-.5.44c-.11.17-.24.33-.34.51Zm14.63,8.95a1.35,1.35,0,0,1,.47-.25,1,1,0,0,1,.88.23,1.22,1.22,0,0,0,1.34.28,1.14,1.14,0,0,0,.51-.43,5.65,5.65,0,0,0,.34-.51c-.18.1-.34.23-.51.34a1,1,0,0,1-.47.23.94.94,0,0,1-.87-.26,1.21,1.21,0,0,0-1.35-.24,1.23,1.23,0,0,0-.51.44c-.11.17-.23.33-.34.51A4.52,4.52,0,0,0,138.59,232.54ZM117,239a1,1,0,0,1-.47.23.87.87,0,0,1-.62-.08c.08.19.16.37.25.54a1,1,0,0,0,.49-.09,1.11,1.11,0,0,0,.52-.43c.11-.17.24-.33.34-.51C117.34,238.76,117.18,238.89,117,239Zm28.72,9.3a1,1,0,0,1,.46-.25.93.93,0,0,1,.88.23,1.26,1.26,0,0,0,1.34.28,1.31,1.31,0,0,0,.52-.43c.11-.17.23-.33.33-.51a5.65,5.65,0,0,0-.51.34,1.24,1.24,0,0,1-.46.23,1,1,0,0,1-.88-.27,1.21,1.21,0,0,0-1.35-.23,1.17,1.17,0,0,0-.51.44c-.11.17-.23.32-.34.51C145.4,248.53,145.55,248.41,145.73,248.3Z" style="fill:#fff"></path><path d="M122.86,246.52c-2.49-1.86-5.19-4.15-6.69-6.83a12.22,12.22,0,0,1-1.29-4.52q-.45-2.76-.81-5.52a150,150,0,0,1-1.21-21.6c.06-4.08.28-8.16.69-12.22a.06.06,0,0,0-.11,0c-.52,3.28-.89,6.57-1.13,9.87,0-.48-.08-1-.11-1.44-.08-1.31-.11-2.63-.07-3.95,0-.06-.11-.06-.11,0a27.1,27.1,0,0,0,0,4c.06.74.15,1.47.26,2.2-.25,3.81-.33,7.63-.21,11.46s.36,7.5.82,11.23c.23,1.82.49,3.63.81,5.44a18.67,18.67,0,0,0,1.39,5.13c1.52,3.07,4.71,5.08,7.72,6.84C122.84,246.68,122.93,246.58,122.86,246.52Z" style="fill:#263238"></path><path d="M140.38,226.31c-1.15-.21-1.53-2-1.86-2.9l-1.29-3.56c-.84-2.35-1.59-4.72-2.34-7.1-.61-1.95-1.18-3.9-1.75-5.86-.18-1.24-.34-2.48-.55-3.72,0-.07-.14,0-.13,0,.1.87.23,1.73.36,2.59-.72-2.5-1.43-5-2.18-7.5,0-.06-.11,0-.1,0,.86,4.08,1.83,8.11,2.94,12.14a96.26,96.26,0,0,0,3.92,11.82,27.42,27.42,0,0,0,1.32,2.92,2.27,2.27,0,0,0,1.62,1.27C140.44,226.48,140.48,226.33,140.38,226.31Z" style="fill:#263238"></path><path d="M163.9,238.07a63.78,63.78,0,0,0-2,6.2c-.64,2.16-1.21,4.33-1.8,6.5s-2.62,10.91-3.13,13.09a.08.08,0,0,0,.15,0c.65-2.15,3.2-10.68,3.76-12.81s1.14-4.26,1.65-6.4a64.8,64.8,0,0,0,1.42-6.58C164,238.06,163.92,238,163.9,238.07Z" style="fill:#263238"></path></g></svg>