<svg xmlns="http://www.w3.org/2000/svg" viewBox="0 0 2247.29 734.4">
  <defs>
    <style>
      .cls-2{fill:#4d2a54;stroke-width:0}
    </style>
  </defs>
  <g id="TURN">
    <path fill="#e7c91c" stroke-width="0" d="M165.66 663.71 0 396.71l239.71-1.95-74.05 268.95z"/>
    <path fill="#bc9854" stroke-width="0" d="m182.83 676.01 72.75-264.21 249.84 322.6-322.59-58.39z"/>
    <path fill="#3a6b7d" stroke-width="0" d="M520.52 720.71 269.01 395.95l421.12 35.66-169.61 289.1z"/>
    <path fill="#2a515e" stroke-width="0" d="M685.32 406.74 281.2 372.52 619.66 98.79l65.66 307.95z"/>
    <path d="M599.04 83.85 254.23 362.7 261.77 0l337.27 83.85z" class="cls-2"/>
    <path fill="#321c38" stroke-width="0" d="m230.56 370.67 7.4-356.18L2.97 372.52l227.59-1.85z"/>
    <path fill="#231f20" stroke-width="0" d="M783.65 135.44v-20.62h115.41v20.62h-46.97v190.02h-21.48V135.44h-46.97Zm146.49-20.62h21.05v127.16c0 15.08.29 24.49.86 28.21 1.05 8.31 3.48 15.25 7.3 20.83 3.82 5.58 9.69 10.26 17.61 14.03 7.92 3.77 15.89 5.66 23.91 5.66 6.97 0 13.65-1.48 20.05-4.44a44.69 44.69 0 0 0 16.04-12.31c4.3-5.25 7.45-11.6 9.45-19.04 1.43-5.35 2.15-16.32 2.15-32.94V114.82h21.05v127.16c0 18.81-1.84 34.01-5.51 45.61-3.68 11.6-11.03 21.69-22.05 30.29s-24.37 12.89-40.02 12.89c-16.99 0-31.55-4.06-43.67-12.17-12.12-8.11-20.24-18.85-24.34-32.22-2.58-8.21-3.87-23-3.87-44.39V114.83Zm192.45 0h41.96c23.39 0 39.24.96 47.54 2.87 12.5 2.87 22.67 9.01 30.5 18.42 7.83 9.42 11.74 21.01 11.74 34.77 0 11.47-2.7 21.56-8.09 30.25-5.39 8.7-13.1 15.27-23.13 19.71-10.02 4.45-23.87 6.72-41.53 6.81l75.75 97.8h-26.04l-75.75-97.8h-11.9v97.8h-21.05V114.82Zm21.05 20.62v71.6l36.29.29c14.06 0 24.45-1.34 31.19-4.01 6.74-2.67 12-6.94 15.78-12.82 3.78-5.87 5.67-12.43 5.67-19.69s-1.91-13.48-5.74-19.26a32.05 32.05 0 0 0-15.06-12.39c-6.22-2.48-16.54-3.72-30.98-3.72h-37.15Zm155.94 190.02V114.82h4.58l140.19 161.46V114.82h20.76v210.64h-4.73l-139.04-159.5v159.5h-21.77Zm501.18-175.27-16.32 15.46c-11.74-11.55-24.61-20.31-38.59-26.28-13.99-5.96-27.61-8.95-40.88-8.95-16.52 0-32.24 4.06-47.18 12.17-14.94 8.12-26.52 19.12-34.72 33.01-8.21 13.89-12.31 28.57-12.31 44.03s4.25 30.91 12.74 45.18c8.5 14.27 20.24 25.49 35.23 33.65 14.99 8.16 31.41 12.24 49.26 12.24 21.67 0 40-6.11 54.99-18.33 14.99-12.22 23.86-28.07 26.63-47.54h-67.16V224.5h90.79c-.19 32.55-9.86 58.4-29 77.54-19.14 19.14-44.75 28.71-76.82 28.71-38.95 0-69.79-13.27-92.5-39.81-17.47-20.43-26.2-44.05-26.2-70.88 0-19.95 5.01-38.52 15.04-55.7a106.92 106.92 0 0 1 41.24-40.31c17.47-9.69 37.23-14.53 59.28-14.53 17.85 0 34.65 3.22 50.4 9.67 15.75 6.44 31.12 16.78 46.11 31Zm52.41-35.37h41.96c24.06 0 40.29 1.05 48.69 3.15 12.03 2.96 21.86 9.05 29.5 18.26 7.64 9.21 11.46 20.79 11.46 34.72s-3.72 25.61-11.17 34.72c-7.45 9.12-17.71 15.25-30.79 18.4-9.55 2.29-27.4 3.44-53.55 3.44h-15.04v97.94h-21.05V114.82Zm21.05 20.62v71.45l35.66.43c14.41 0 24.96-1.31 31.65-3.93a32.45 32.45 0 0 0 15.75-12.72c3.82-5.86 5.73-12.41 5.73-19.65s-1.91-13.5-5.73-19.36a31.66 31.66 0 0 0-15.11-12.51c-6.25-2.48-16.49-3.72-30.72-3.72h-37.23Zm130.88 150.79 17.9-10.74c12.6 23.2 27.16 34.8 43.67 34.8 7.06 0 13.7-1.65 19.9-4.94 6.2-3.29 10.93-7.71 14.18-13.25a34.35 34.35 0 0 0 4.87-17.61c0-7.06-2.39-13.98-7.16-20.76-6.59-9.35-18.62-20.62-36.08-33.79-17.57-13.27-28.5-22.86-32.79-28.78-7.45-9.93-11.17-20.67-11.17-32.22 0-9.16 2.19-17.52 6.59-25.06a47.02 47.02 0 0 1 18.54-17.83 53.47 53.47 0 0 1 25.99-6.51c9.93 0 19.21 2.46 27.85 7.37 8.64 4.92 17.78 13.96 27.42 27.14l-17.18 13.03c-7.93-10.5-14.68-17.42-20.26-20.76a34.91 34.91 0 0 0-18.26-5.01c-8.5 0-15.44 2.58-20.83 7.73a25.32 25.32 0 0 0-8.09 19.04c0 4.58.95 9.02 2.86 13.32 1.91 4.29 5.39 8.97 10.45 14.03 2.77 2.67 11.84 9.69 27.21 21.05 18.23 13.46 30.74 25.44 37.52 35.94 6.78 10.5 10.17 21.05 10.17 31.65 0 15.28-5.8 28.54-17.4 39.81-11.6 11.26-25.7 16.9-42.31 16.9-12.79 0-24.39-3.41-34.8-10.24-10.41-6.82-20-18.26-28.78-34.29Z"/>
    <path fill="#6d6e70" stroke-width="0" d="M808.31 403.87h10.24v11.38c3.05-4.49 6.28-7.84 9.67-10.06a19.06 19.06 0 0 1 10.6-3.33c2.77 0 5.73.88 8.88 2.65l-5.23 8.45a13.9 13.9 0 0 0-5.3-1.36c-3.34 0-6.56 1.37-9.67 4.12-3.1 2.75-5.47 7.01-7.09 12.78-1.24 4.44-1.86 13.41-1.86 26.92v26.35h-10.24v-77.9Zm114.38 52.05 8.45 4.44c-2.77 5.44-5.97 9.83-9.6 13.17a38.37 38.37 0 0 1-12.25 7.63 42.82 42.82 0 0 1-15.41 2.61c-12.71 0-22.65-4.16-29.81-12.49-7.17-8.33-10.75-17.74-10.75-28.25 0-9.88 3.03-18.69 9.1-26.42 7.69-9.83 17.99-14.75 30.89-14.75s23.89 5.04 31.82 15.11c5.64 7.11 8.5 15.99 8.6 26.63h-70.09c.19 9.05 3.08 16.46 8.67 22.25 5.59 5.79 12.5 8.68 20.72 8.68 3.97 0 7.82-.69 11.58-2.07a30.54 30.54 0 0 0 9.57-5.49c2.63-2.28 5.47-5.97 8.53-11.06Zm0-20.97c-1.34-5.35-3.29-9.62-5.84-12.82a27.7 27.7 0 0 0-10.14-7.73 31.05 31.05 0 0 0-13.26-2.94c-7.65 0-14.22 2.46-19.71 7.38-4.02 3.58-7.05 8.95-9.1 16.11h58.07Zm108.79-31.08v77.9h-9.88v-13.39c-4.2 5.11-8.91 8.95-14.14 11.53a38.21 38.21 0 0 1-17.15 3.87c-11.03 0-20.44-4-28.25-11.99-7.8-7.99-11.71-17.72-11.71-29.18s3.94-20.81 11.81-28.78c7.88-7.97 17.35-11.96 28.42-11.96 6.4 0 12.18 1.36 17.36 4.08 5.18 2.72 9.73 6.8 13.64 12.24v-14.32h9.88Zm-40.06 7.66a30.23 30.23 0 0 0-26.71 15.66 31.6 31.6 0 0 0 .04 31.46c2.81 5 6.59 8.9 11.33 11.69 4.74 2.79 9.83 4.18 15.27 4.18s10.68-1.38 15.59-4.15a29 29 0 0 0 11.33-11.23 32.02 32.02 0 0 0 3.97-15.95c0-9.01-2.97-16.54-8.9-22.6-5.94-6.05-13.24-9.08-21.92-9.08Zm62.57-37.73h10.02v107.97h-10.02V373.8Zm25.81 64.01h39.38v8.73h-39.38v-8.73Zm65.4-62.86h10.02v28.92h15.9v8.66h-15.9v69.23h-10.02v-69.23h-13.67v-8.66h13.67v-28.92Zm45.9-3.15c2.28 0 4.23.81 5.85 2.43a8 8 0 0 1 2.42 5.87c0 2.29-.81 4.18-2.42 5.8-1.62 1.62-3.56 2.43-5.85 2.43s-4.16-.81-5.77-2.43c-1.62-1.62-2.42-3.55-2.42-5.8s.81-4.25 2.42-5.87a7.88 7.88 0 0 1 5.77-2.43Zm-4.98 32.07h10.02v77.9h-10.02v-77.9Zm32.25 0h10.02v13.46c3.49-4.96 7.07-8.59 10.75-10.88a30.53 30.53 0 0 1 15.99-4.58c3.77 0 7.36.74 10.75 2.22a23.15 23.15 0 0 1 8.32 5.91c2.15 2.46 4.01 5.98 5.59 10.56 3.33-6.11 7.5-10.75 12.5-13.92a29.6 29.6 0 0 1 16.14-4.76c5.38 0 10.13 1.36 14.25 4.08a24.3 24.3 0 0 1 9.18 11.38c2 4.87 3 12.17 3 21.91v42.53h-10.24v-42.53c0-8.35-.6-14.09-1.78-17.22-1.19-3.12-3.22-5.64-6.1-7.55s-6.31-2.87-10.31-2.87a22.4 22.4 0 0 0-13.31 4.3 24.63 24.63 0 0 0-8.81 11.46c-1.85 4.77-2.78 12.74-2.78 23.91v30.5h-10.02V441.9c0-9.4-.58-15.79-1.75-19.15a16.03 16.03 0 0 0-6.12-8.09c-2.91-2.03-6.37-3.04-10.38-3.04a22.4 22.4 0 0 0-12.99 4.19 24.77 24.77 0 0 0-8.95 11.28c-1.93 4.73-2.9 11.96-2.9 21.69v33.01h-10.02v-77.9Zm204.66 52.05 8.45 4.44c-2.77 5.44-5.97 9.83-9.6 13.17a38.37 38.37 0 0 1-12.25 7.63 42.82 42.82 0 0 1-15.41 2.61c-12.71 0-22.65-4.16-29.81-12.49-7.17-8.33-10.75-17.74-10.75-28.25 0-9.88 3.03-18.69 9.1-26.42 7.69-9.83 17.99-14.75 30.89-14.75s23.89 5.04 31.82 15.11c5.64 7.11 8.5 15.99 8.6 26.63h-70.09c.19 9.05 3.08 16.46 8.67 22.25 5.59 5.79 12.5 8.68 20.72 8.68 3.97 0 7.82-.69 11.58-2.07a30.54 30.54 0 0 0 9.57-5.49c2.63-2.28 5.47-5.97 8.53-11.06Zm0-20.97c-1.34-5.35-3.29-9.62-5.84-12.82a27.7 27.7 0 0 0-10.14-7.73 31.05 31.05 0 0 0-13.26-2.94c-7.65 0-14.22 2.46-19.71 7.38-4.02 3.58-7.05 8.95-9.1 16.11h58.07Zm73.39-31.08h10.02v14.32c3.96-5.44 8.51-9.52 13.66-12.24a36.35 36.35 0 0 1 17.24-4.08c11.06 0 20.53 3.99 28.39 11.96 7.87 7.97 11.8 17.57 11.8 28.78s-3.9 21.18-11.7 29.18c-7.8 8-17.2 11.99-28.22 11.99-6.2 0-11.9-1.29-17.09-3.87-5.2-2.58-9.9-6.42-14.09-11.53v41.88h-10.02V403.87Zm40.09 7.66c-8.67 0-15.96 3.03-21.89 9.08-5.93 6.06-8.89 13.59-8.89 22.6 0 5.91 1.32 11.23 3.96 15.95a28.94 28.94 0 0 0 11.36 11.23c4.93 2.76 10.13 4.15 15.61 4.15s10.44-1.39 15.18-4.18a30.73 30.73 0 0 0 11.32-11.69c2.81-5.01 4.21-10.25 4.21-15.73s-1.39-10.77-4.18-15.73a30.18 30.18 0 0 0-26.68-15.66Zm57.46-7.66h10.24v11.38c3.05-4.49 6.28-7.84 9.67-10.06a19.06 19.06 0 0 1 10.6-3.33c2.77 0 5.73.88 8.88 2.65l-5.23 8.45a13.9 13.9 0 0 0-5.3-1.36c-3.34 0-6.56 1.37-9.67 4.12-3.1 2.75-5.47 7.01-7.09 12.78-1.24 4.44-1.86 13.41-1.86 26.92v26.35h-10.24v-77.9Zm114.37 52.05 8.45 4.44c-2.77 5.44-5.97 9.83-9.6 13.17a38.37 38.37 0 0 1-12.25 7.63 42.82 42.82 0 0 1-15.41 2.61c-12.71 0-22.64-4.16-29.81-12.49-7.17-8.33-10.75-17.74-10.75-28.25 0-9.88 3.03-18.69 9.1-26.42 7.69-9.83 17.99-14.75 30.89-14.75s23.89 5.04 31.82 15.11c5.64 7.11 8.5 15.99 8.6 26.63h-70.09c.19 9.05 3.08 16.46 8.67 22.25 5.59 5.79 12.5 8.68 20.72 8.68 3.97 0 7.82-.69 11.58-2.07a30.54 30.54 0 0 0 9.57-5.49c2.63-2.28 5.47-5.97 8.53-11.06Zm0-20.97c-1.34-5.35-3.29-9.62-5.84-12.82a27.7 27.7 0 0 0-10.14-7.73 31.05 31.05 0 0 0-13.26-2.94c-7.65 0-14.22 2.46-19.71 7.38-4.01 3.58-7.05 8.95-9.1 16.11h58.07Zm106.79-14.9-7.95 4.94c-6.87-9.12-16.23-13.67-28.1-13.67-9.49 0-17.37 3.05-23.64 9.15a29.87 29.87 0 0 0-9.4 22.24c0 5.67 1.44 11.02 4.33 16.02a30.3 30.3 0 0 0 11.87 11.66 34.58 34.58 0 0 0 16.91 4.15c11.44 0 20.79-4.56 28.03-13.67l7.95 5.23a37.46 37.46 0 0 1-15 13.05c-6.28 3.09-13.42 4.64-21.44 4.64-12.31 0-22.53-3.91-30.64-11.74-8.12-7.83-12.17-17.35-12.17-28.57 0-7.54 1.9-14.54 5.69-21.01a40.08 40.08 0 0 1 15.64-15.14c6.63-3.63 14.06-5.44 22.27-5.44 5.16 0 10.13.79 14.93 2.36a41.59 41.59 0 0 1 12.21 6.16 33.47 33.47 0 0 1 8.52 9.67Zm24.2-48.25c2.28 0 4.23.81 5.85 2.43a8 8 0 0 1 2.42 5.87c0 2.29-.81 4.18-2.42 5.8-1.62 1.62-3.56 2.43-5.85 2.43s-4.16-.81-5.77-2.43c-1.62-1.62-2.42-3.55-2.42-5.8s.81-4.25 2.42-5.87a7.88 7.88 0 0 1 5.77-2.43Zm-4.98 32.07h10.02v77.9h-10.02v-77.9Zm71.49 8.52-6.44 6.66c-5.36-5.2-10.6-7.8-15.72-7.8-3.26 0-6.04 1.07-8.36 3.22-2.32 2.15-3.48 4.65-3.48 7.52 0 2.53.96 4.94 2.87 7.23 1.91 2.34 5.93 5.08 12.05 8.23 7.46 3.87 12.53 7.59 15.21 11.17a20.36 20.36 0 0 1 3.95 12.24c0 6.4-2.25 11.81-6.74 16.25-4.49 4.44-10.11 6.66-16.85 6.66-4.5 0-8.79-.98-12.87-2.94a27.96 27.96 0 0 1-10.15-8.09l6.3-7.16c5.12 5.78 10.55 8.66 16.29 8.66 4.02 0 7.44-1.29 10.26-3.87 2.82-2.58 4.23-5.61 4.23-9.09 0-2.86-.93-5.42-2.8-7.66-1.87-2.19-6.08-4.96-12.63-8.31-7.03-3.63-11.82-7.21-14.35-10.74a20.18 20.18 0 0 1-3.8-12.1c0-5.92 2.02-10.83 6.06-14.75 4.04-3.91 9.14-5.87 15.31-5.87 7.17 0 14.39 3.51 21.66 10.52Zm22.69-40.59c2.28 0 4.23.81 5.84 2.43a8 8 0 0 1 2.42 5.87c0 2.29-.81 4.18-2.42 5.8-1.62 1.62-3.56 2.43-5.84 2.43s-4.16-.81-5.77-2.43c-1.62-1.62-2.42-3.55-2.42-5.8s.81-4.25 2.42-5.87a7.88 7.88 0 0 1 5.77-2.43Zm-4.97 32.07h10.02v77.9h-10.02v-77.9Zm69.19-2c12 0 21.95 4.34 29.84 13.03 7.17 7.92 10.76 17.3 10.76 28.14s-3.79 20.39-11.37 28.53c-7.58 8.14-17.32 12.21-29.23 12.21s-21.72-4.07-29.3-12.21c-7.58-8.14-11.37-17.65-11.37-28.53s3.59-20.14 10.76-28.07c7.89-8.73 17.86-13.1 29.91-13.1Zm-.03 9.81c-8.33 0-15.5 3.08-21.48 9.24-5.99 6.16-8.98 13.6-8.98 22.34 0 5.63 1.36 10.88 4.1 15.75a29.05 29.05 0 0 0 11.06 11.28c4.65 2.65 9.75 3.97 15.3 3.97s10.66-1.32 15.3-3.97a28.98 28.98 0 0 0 11.06-11.28 31.7 31.7 0 0 0 4.1-15.75c0-8.73-3.01-16.18-9.02-22.34s-13.16-9.24-21.45-9.24Zm60.64-7.81h10.02v13.96c4.01-5.34 8.45-9.34 13.32-11.99s10.17-3.97 15.9-3.97 10.99 1.48 15.5 4.44 7.84 6.94 9.99 11.96 3.22 12.82 3.22 23.41v40.09h-10.02v-37.16c0-8.97-.37-14.96-1.12-17.97-1.16-5.16-3.39-9.03-6.68-11.63-3.29-2.6-7.59-3.9-12.89-3.9-6.06 0-11.49 2-16.29 6.01a28.17 28.17 0 0 0-9.49 14.89c-.96 3.87-1.43 10.93-1.43 21.19v28.57h-10.02v-77.9Z"/>
    <path d="M821.55 528.75h10.4v30h16.48v8.98h-16.48v71.8h-10.4v-71.8h-14.18v-8.98h14.18v-30Zm45.7 30h10.39v37.72c0 9.21.5 15.54 1.49 19.01a21.23 21.23 0 0 0 8.51 11.73c4.19 2.87 9.18 4.31 14.98 4.31s10.72-1.4 14.76-4.19a21.49 21.49 0 0 0 8.37-11.03c1.04-3.12 1.56-9.73 1.56-19.82v-37.72h10.62v39.65c0 11.14-1.3 19.53-3.9 25.17a29.78 29.78 0 0 1-11.73 13.25c-5.22 3.19-11.77 4.79-19.64 4.79s-14.44-1.6-19.71-4.79a29.57 29.57 0 0 1-11.81-13.36c-2.6-5.72-3.9-14.32-3.9-25.8v-38.91Zm94.4 0h10.62v11.81c3.17-4.65 6.51-8.13 10.02-10.43a19.78 19.78 0 0 1 10.99-3.45c2.87 0 5.94.92 9.21 2.75l-5.42 8.76c-2.18-.94-4.01-1.41-5.49-1.41-3.47 0-6.81 1.42-10.02 4.27-3.22 2.85-5.67 7.26-7.35 13.25-1.29 4.6-1.93 13.91-1.93 27.92v27.32h-10.62v-80.78Zm57.43 0h10.4v14.48c4.16-5.54 8.76-9.69 13.81-12.44 5.05-2.75 10.54-4.12 16.48-4.12s11.4 1.54 16.08 4.6c4.68 3.07 8.13 7.2 10.36 12.4s3.34 13.29 3.34 24.28v41.58h-10.4v-38.54c0-9.3-.39-15.52-1.16-18.64-1.2-5.35-3.52-9.37-6.93-12.06-3.42-2.7-7.87-4.05-13.37-4.05a25.65 25.65 0 0 0-16.9 6.24 29.2 29.2 0 0 0-9.84 15.44c-.99 4.01-1.48 11.33-1.48 21.98v29.62h-10.4v-80.78Zm166.94 0h10.4v64.37c0 11.33-.99 19.62-2.97 24.87a32.35 32.35 0 0 1-14.18 17.15c-6.73 4.01-14.83 6.01-24.28 6.01-6.93 0-13.15-.98-18.67-2.94-5.52-1.96-10.01-4.59-13.48-7.89-3.47-3.3-6.66-8.13-9.58-14.48h11.29c3.07 5.35 7.04 9.31 11.89 11.88 4.86 2.57 10.88 3.86 18.06 3.86s13.07-1.32 17.95-3.96c4.88-2.64 8.36-5.96 10.44-9.95 2.08-4 3.12-10.45 3.12-19.35v-4.16a39.42 39.42 0 0 1-14.34 11.4 41.82 41.82 0 0 1-17.99 3.97 41.99 41.99 0 0 1-20.96-5.53 39.32 39.32 0 0 1-15.16-14.89c-3.57-6.24-5.35-13.09-5.35-20.57s1.86-14.44 5.57-20.9a40.97 40.97 0 0 1 15.42-15.33 41.19 41.19 0 0 1 20.77-5.64c6.04 0 11.68 1.25 16.91 3.75s10.27 6.62 15.12 12.36v-14.03Zm-30.66 7.94a32.83 32.83 0 0 0-16.41 4.27 30.96 30.96 0 0 0-11.88 11.8 32.34 32.34 0 0 0-4.31 16.3c0 8.86 2.97 16.19 8.91 21.98 5.94 5.79 13.64 8.69 23.09 8.69s17.24-2.87 23.05-8.61c5.82-5.74 8.72-13.29 8.72-22.65 0-6.09-1.34-11.52-4.01-16.3a29.16 29.16 0 0 0-11.36-11.32 31.61 31.61 0 0 0-15.81-4.16Zm68.04-7.94h10.4v14.85c4.1-5.64 8.83-9.88 14.17-12.7a37.7 37.7 0 0 1 17.88-4.23c11.47 0 21.29 4.13 29.45 12.4s12.24 18.22 12.24 29.85-4.04 21.96-12.13 30.26-17.84 12.44-29.26 12.44a39.39 39.39 0 0 1-17.73-4.01c-5.39-2.67-10.26-6.66-14.61-11.95v43.44h-10.4V558.77Zm41.58 7.94c-8.99 0-16.56 3.14-22.71 9.42-6.15 6.28-9.22 14.09-9.22 23.44a33.3 33.3 0 0 0 4.11 16.54 30.04 30.04 0 0 0 11.78 11.64c5.11 2.87 10.51 4.3 16.19 4.3s10.83-1.45 15.74-4.34a31.78 31.78 0 0 0 11.74-12.13c2.91-5.19 4.37-10.63 4.37-16.32s-1.45-11.17-4.33-16.32-6.78-9.13-11.67-11.98a31.29 31.29 0 0 0-16-4.26Zm107.17.89-6.68 6.91c-5.56-5.39-10.99-8.09-16.3-8.09-3.38 0-6.27 1.11-8.67 3.34-2.41 2.23-3.61 4.83-3.61 7.79 0 2.62.99 5.12 2.98 7.5 1.98 2.43 6.15 5.27 12.5 8.54 7.74 4.01 13 7.87 15.77 11.58a21.08 21.08 0 0 1 4.09 12.7c0 6.63-2.33 12.25-6.99 16.85-4.66 4.6-10.48 6.91-17.47 6.91-4.66 0-9.11-1.01-13.35-3.04a28.96 28.96 0 0 1-10.52-8.39l6.53-7.42c5.31 5.99 10.94 8.98 16.89 8.98 4.17 0 7.71-1.34 10.64-4.01 2.93-2.67 4.39-5.82 4.39-9.43 0-2.97-.97-5.62-2.9-7.95-1.93-2.28-6.3-5.15-13.1-8.61-7.29-3.76-12.25-7.47-14.88-11.14a20.95 20.95 0 0 1-3.94-12.55c0-6.14 2.09-11.24 6.28-15.3 4.19-4.06 9.48-6.09 15.88-6.09 7.44 0 14.92 3.64 22.46 10.91Zm34.41 55.62c2.52 0 4.68.89 6.46 2.67 1.78 1.78 2.67 3.96 2.67 6.53s-.89 4.69-2.67 6.5-3.94 2.71-6.46 2.71-4.68-.9-6.46-2.71c-1.78-1.81-2.67-3.97-2.67-6.5s.89-4.75 2.67-6.53a8.81 8.81 0 0 1 6.46-2.67Zm33.89-64.45h10.4v37.72c0 9.21.5 15.54 1.49 19.01a21.19 21.19 0 0 0 8.51 11.73c4.19 2.87 9.18 4.31 14.98 4.31s10.72-1.4 14.76-4.19a21.49 21.49 0 0 0 8.37-11.03c1.04-3.12 1.56-9.73 1.56-19.82v-37.72h10.62v39.65c0 11.14-1.3 19.53-3.9 25.17a29.78 29.78 0 0 1-11.73 13.25c-5.22 3.19-11.77 4.79-19.64 4.79s-14.44-1.6-19.71-4.79a29.57 29.57 0 0 1-11.81-13.36c-2.6-5.72-3.9-14.32-3.9-25.8v-38.91Zm107.4-30h10.39v30h16.48v8.98h-16.48v71.8h-10.39v-71.8h-14.18v-8.98h14.18v-30Zm127.52 30v80.78h-10.25v-13.88c-4.36 5.3-9.24 9.28-14.66 11.95a39.7 39.7 0 0 1-17.78 4.01c-11.43 0-21.2-4.15-29.29-12.44s-12.14-18.38-12.14-30.26 4.08-21.58 12.25-29.85c8.17-8.27 17.99-12.4 29.48-12.4 6.63 0 12.63 1.41 18.01 4.23 5.37 2.82 10.08 7.05 14.14 12.7v-14.85h10.25Zm-41.55 7.94a31.39 31.39 0 0 0-27.7 16.24 32.7 32.7 0 0 0 .04 32.64c2.92 5.19 6.84 9.23 11.75 12.13s10.2 4.34 15.83 4.34 11.07-1.43 16.17-4.3a30.1 30.1 0 0 0 11.75-11.64 33.27 33.27 0 0 0 4.12-16.54c0-9.34-3.08-17.16-9.23-23.44s-13.73-9.42-22.73-9.42Zm69.5-39.13h10.4v45.66c4.21-5.54 8.84-9.69 13.88-12.44 5.05-2.75 10.52-4.12 16.41-4.12s11.4 1.54 16.07 4.6a27.47 27.47 0 0 1 10.36 12.36c2.23 5.17 3.34 13.28 3.34 24.32v41.58h-10.39v-38.54c0-9.3-.37-15.52-1.11-18.64-1.29-5.35-3.63-9.37-7.02-12.06-3.39-2.7-7.83-4.05-13.33-4.05a25.6 25.6 0 0 0-16.89 6.24 29.32 29.32 0 0 0-9.84 15.44c-.99 3.96-1.48 11.29-1.48 21.98v29.62h-10.4V527.54Zm108.73 95.64c2.52 0 4.68.89 6.46 2.67 1.78 1.78 2.67 3.96 2.67 6.53s-.89 4.69-2.67 6.5-3.94 2.71-6.46 2.71-4.68-.9-6.46-2.71c-1.78-1.81-2.67-3.97-2.67-6.5s.89-4.75 2.67-6.53a8.81 8.81 0 0 1 6.46-2.67Zm104.87-64.45h10.39v64.37c0 11.33-.99 19.62-2.97 24.87a32.35 32.35 0 0 1-14.18 17.15c-6.73 4.01-14.83 6.01-24.28 6.01-6.93 0-13.15-.98-18.67-2.94-5.52-1.96-10.01-4.59-13.48-7.89-3.47-3.3-6.66-8.13-9.58-14.48h11.29c3.07 5.35 7.04 9.31 11.89 11.88 4.86 2.57 10.88 3.86 18.06 3.86s13.07-1.32 17.95-3.96c4.88-2.64 8.36-5.96 10.44-9.95 2.08-4 3.12-10.45 3.12-19.35v-4.16a39.37 39.37 0 0 1-14.35 11.4 41.82 41.82 0 0 1-17.99 3.97c-7.43 0-14.42-1.84-20.96-5.53s-11.59-8.65-15.16-14.89c-3.57-6.24-5.35-13.09-5.35-20.57s1.86-14.44 5.57-20.9a40.97 40.97 0 0 1 15.42-15.33 41.16 41.16 0 0 1 20.77-5.64c6.04 0 11.68 1.25 16.91 3.75s10.27 6.62 15.12 12.36v-14.03Zm-30.67 7.94a32.83 32.83 0 0 0-16.41 4.27 30.96 30.96 0 0 0-11.88 11.8 32.34 32.34 0 0 0-4.31 16.3c0 8.86 2.97 16.19 8.91 21.98 5.94 5.79 13.64 8.69 23.09 8.69s17.24-2.87 23.05-8.61c5.82-5.74 8.72-13.29 8.72-22.65 0-6.09-1.34-11.52-4.01-16.3a29.16 29.16 0 0 0-11.36-11.32 31.62 31.62 0 0 0-15.82-4.16Zm106.14-10.02c12.45 0 22.76 4.5 30.94 13.51 7.44 8.22 11.16 17.94 11.16 29.18s-3.93 21.15-11.79 29.59c-7.86 8.44-17.96 12.66-30.31 12.66s-22.53-4.22-30.38-12.66c-7.86-8.44-11.79-18.3-11.79-29.59s3.72-20.89 11.16-29.11c8.18-9.06 18.52-13.59 31.02-13.59Zm-.04 10.17c-8.64 0-16.07 3.19-22.28 9.58-6.21 6.39-9.31 14.11-9.31 23.17 0 5.84 1.42 11.29 4.25 16.33a30.02 30.02 0 0 0 11.48 11.69c4.82 2.75 10.11 4.12 15.87 4.12s11.05-1.37 15.87-4.12a30.22 30.22 0 0 0 11.48-11.69 32.86 32.86 0 0 0 4.25-16.33c0-9.06-3.12-16.78-9.35-23.17-6.23-6.38-13.65-9.58-22.24-9.58Zm58.28-8.09h11.06l27.12 58.89 26.79-58.89h11.14l-36.98 80.78h-1.93l-37.2-80.78Z" class="cls-2"/>
  </g>
</svg>
