<svg xmlns="http://www.w3.org/2000/svg" viewBox="0 0 500 500"><g id="freepik--Floor--inject-2"><polygon points="463.06 447.46 409.5 447.7 355.93 447.79 248.79 447.96 141.65 447.79 88.09 447.7 34.52 447.46 88.09 447.21 141.65 447.13 248.79 446.96 355.93 447.13 409.5 447.21 463.06 447.46" style="fill:#263238"></polygon></g><g id="freepik--Target--inject-2"><polygon points="437.89 447.46 443.62 447.46 403.49 235.4 389.22 235.4 437.89 447.46" style="fill:#455a64"></polygon><polygon points="389.22 235.4 396.42 266.76 409.42 266.76 403.5 235.43 403.49 235.4 389.22 235.4" style="fill:#37474f"></polygon><polygon points="379.35 447.46 385.08 447.46 383.8 235.4 369.54 235.4 379.35 447.46" style="fill:#455a64"></polygon><polygon points="369.54 235.4 370.99 266.76 383.99 266.76 383.8 235.43 383.8 235.4 369.54 235.4" style="fill:#37474f"></polygon><polygon points="326.54 447.46 320.82 447.46 352.41 235.4 366.68 235.4 326.54 447.46" style="fill:#455a64"></polygon><polygon points="347.74 266.76 360.74 266.76 366.68 235.4 352.41 235.4 352.4 235.43 347.74 266.76" style="fill:#37474f"></polygon><rect x="338.28" y="356.61" width="83.27" height="4.14" transform="translate(759.84 717.36) rotate(180)" style="fill:#455a64"></rect><ellipse cx="386.5" cy="153.1" rx="107.26" ry="76.18" transform="translate(214.52 531.57) rotate(-87.17)" style="fill:#FFC727"></ellipse><polygon points="375.19 44.91 393.07 46.02 379.45 260.13 361.56 259.02 375.19 44.91" style="fill:#FFC727"></polygon><g style="opacity:0.1"><polygon points="375.19 44.91 393.07 46.02 379.45 260.13 361.56 259.02 375.19 44.91"></polygon></g><ellipse cx="370.05" cy="152.07" rx="107.26" ry="76.18" transform="translate(199.9 514.17) rotate(-87.17)" style="fill:#FFC727"></ellipse><ellipse cx="370.05" cy="152.07" rx="83.67" ry="59.43" transform="translate(199.9 514.17) rotate(-87.17)" style="fill:#fff"></ellipse><ellipse cx="370.05" cy="152.07" rx="60.33" ry="42.84" transform="translate(199.9 514.17) rotate(-87.17)" style="fill:#FFC727"></ellipse><ellipse cx="370.05" cy="152.07" rx="36.73" ry="26.08" transform="translate(199.9 514.17) rotate(-87.17)" style="fill:#fff"></ellipse><path d="M381.62,150c.62,9-4.06,17.15-10.46,18.32s-12.07-5.12-12.68-14.07,4.06-17.15,10.45-18.33S381,141,381.62,150Z" style="fill:#FFC727"></path><ellipse cx="370.05" cy="152.07" rx="107.26" ry="76.18" transform="translate(199.9 514.17) rotate(-87.17)" style="fill:#fff;opacity:0.4"></ellipse></g><g id="freepik--Plant--inject-2"><path d="M298.24,388a246.47,246.47,0,0,0-.36-26.21,333.56,333.56,0,0,0-8.21-53.4c-2.29-9.88-5.11-19.6-8.05-29.3-.09-.3-.55-.21-.47.09,9.08,34.21,16.54,69.52,16,105.08-.14,10-1.29,19.73-2.24,29.62,0,.27.41.37.47.1C297.28,405.56,297.89,396.69,298.24,388Z" style="fill:#FFC727"></path><path d="M281.15,279.22s-13.77,34.94-10.69,43.15,9.44,10,9.44,10-8.42,12-2.54,23.3,19,10.75,19.83,23.53C297.19,379.16,297.92,325.7,281.15,279.22Z" style="fill:#FFC727"></path><path d="M295.7,357.09a.32.32,0,0,0,0-.19,320.13,320.13,0,0,0-13.35-70.28c0-.06-.13,0-.11,0q4.08,15.33,7.23,30.82a15.2,15.2,0,0,0-6.57-3.66c-.05,0-.07.05,0,.07a17.32,17.32,0,0,1,6.78,4.53c.41,2,.8,4,1.17,6.08-3.07-3.44-7.34-5.14-11.61-6.76-.06,0-.09.07,0,.09,4.45,1.81,8.87,4.14,11.89,8q1.57,8.7,2.76,17.45a16.65,16.65,0,0,0-8.21-4.7c-.09,0-.15.12-.05.15a17.31,17.31,0,0,1,8.32,5.33l.06,0c.27,2.05.53,4.11.77,6.16a21.31,21.31,0,0,0-5.75-3.47c-.05,0-.08.07,0,.09a19.68,19.68,0,0,1,5.76,3.82.12.12,0,0,0,.08,0c.22,2,.45,3.92.65,5.88a28,28,0,0,0-11.67-8.34.07.07,0,0,0-.05.14,30.48,30.48,0,0,1,11.5,8.86.27.27,0,0,0,.29.09c.3,3,.57,6,.79,9,0,0,.07.05.07,0C296.16,363.26,296,360.17,295.7,357.09Z" style="fill:#263238"></path><path d="M284.64,310.34a17.25,17.25,0,0,0-8.27-2.58.05.05,0,1,0,0,.1,33.21,33.21,0,0,1,8.18,2.67C284.65,310.58,284.74,310.41,284.64,310.34Z" style="fill:#263238"></path><path d="M286.31,347.33a17.37,17.37,0,0,0-6.21-2.13c-.08,0-.08.11,0,.12a23.34,23.34,0,0,1,6.14,2.15C286.32,347.51,286.39,347.37,286.31,347.33Z" style="fill:#263238"></path><path d="M334.42,322.94a93.86,93.86,0,0,0-15.93,13.92,57.29,57.29,0,0,0-11.17,18.95A141.61,141.61,0,0,0,299,401.13a109.58,109.58,0,0,0,2.45,25.48.24.24,0,0,0,.48-.09,142.48,142.48,0,0,1,.25-44.54c2.36-14.46,6.08-30.18,15.26-41.93,5-6.39,11.24-11.42,17.41-16.62C335.17,323.15,334.76,322.7,334.42,322.94Z" style="fill:#FFC727"></path><path d="M301,390.72a85.57,85.57,0,0,1,11.62-14.84c6.88-6.89,12.68-11.78,13.58-16.33s-6.9-7.91-6.9-7.91,9.53,1.71,12.13-2.29,3.87-27.16,3.87-27.16S318,334.57,309.91,351.92,301,390.72,301,390.72Z" style="fill:#FFC727"></path><path d="M329.32,328.13c-7.29,7.17-14.63,14.8-18.93,24.21a95.16,95.16,0,0,0-3.83,10v0c-.22.68-.45,1.37-.66,2.06a.2.2,0,0,0,0,.11,197.45,197.45,0,0,0-4.93,21.4s.07.07.08,0c.74-3.61,1.57-7.26,2.49-10.9l.1,0a15.24,15.24,0,0,1,4.55-1.16c.1,0,.09-.19,0-.18a16.77,16.77,0,0,0-4.5.82c.84-3.28,1.75-6.55,2.78-9.78a48.2,48.2,0,0,1,10.28-1.34s0-.05,0-.06a38.89,38.89,0,0,0-10.1.86c.17-.55.36-1.1.55-1.65a50.88,50.88,0,0,1,6.84-1.16,0,0,0,0,0,0-.08,33.63,33.63,0,0,0-6.7.82c.95-2.79,2-5.54,3.1-8.22a48.27,48.27,0,0,1,3.27-6.36,41.61,41.61,0,0,1,5.55-1c.05,0,.05-.09,0-.09A15.09,15.09,0,0,0,314,347q1.37-2.2,2.89-4.31h0c3.89-.86,7.83-1.66,11.81-.91.06,0,.09-.11,0-.12-3.78-1-7.54-.42-11.31.32q.61-.82,1.26-1.62a25.48,25.48,0,0,1,7.26-1.14c.05,0,.06-.08,0-.08a18.82,18.82,0,0,0-6.77.6c3.21-4,6.76-7.75,10.27-11.46C329.62,328.06,329.5,328,329.32,328.13Z" style="fill:#263238"></path><path d="M329.13,343.92a15.92,15.92,0,0,0-3.45-.12.13.13,0,0,0,0,.25c1.14,0,2.29-.06,3.43,0A.07.07,0,0,0,329.13,343.92Z" style="fill:#263238"></path><path d="M316.65,366.39a15.77,15.77,0,0,0-5.34,1.07s0,.09,0,.08c1.77-.42,3.55-.59,5.34-.89A.13.13,0,0,0,316.65,366.39Z" style="fill:#263238"></path><path d="M312.91,358.63a11.55,11.55,0,0,0-2.27.2c-.07,0-.07.14,0,.14a11.45,11.45,0,0,0,2.27-.11C313.05,358.84,313.05,358.63,312.91,358.63Z" style="fill:#263238"></path><path d="M250.21,347.52a78.51,78.51,0,0,1,16.11,7.59,48.08,48.08,0,0,1,13.42,12.75A119.27,119.27,0,0,1,297,402.61a93.14,93.14,0,0,1,3.91,21.19.21.21,0,0,1-.41,0,120.39,120.39,0,0,0-10.5-36c-5.26-11.15-11.89-23-22-30.4-5.53-4-11.74-6.65-17.93-9.43C249.65,347.86,249.88,347.41,250.21,347.52Z" style="fill:#FFC727"></path><path d="M292.91,394.65a72,72,0,0,0-12.83-9.32c-7.17-4-13-6.6-14.77-10.08s3.76-8,3.76-8-7.32,3.58-10.35.95-9.41-21.09-9.41-21.09,16.89,6,27.44,18.19S292.91,394.65,292.91,394.65Z" style="fill:#FFC727"></path><path d="M292,390.85c-8.45-15.86-19.72-30.2-35.17-39.67,0,0,0,0,0,0a77.6,77.6,0,0,1,11.3,8.85,17.91,17.91,0,0,0-9.08,1.91.06.06,0,0,0,.05.1,24.78,24.78,0,0,1,9.34-1.58.18.18,0,0,0,.1,0c.55.52,1.09,1.05,1.63,1.58a28.14,28.14,0,0,0-4.85.65,0,0,0,1,0,0,.06,25.17,25.17,0,0,1,5.12-.42,105.66,105.66,0,0,1,8,9.05,8.07,8.07,0,0,0-3.39.24.07.07,0,0,0,0,.13,17.53,17.53,0,0,1,3.62-.05c.47.59.93,1.17,1.39,1.77a32.48,32.48,0,0,0-10.25,1s0,.09,0,.08a40.87,40.87,0,0,1,10.53-.69c.43.57.84,1.16,1.26,1.74a22.08,22.08,0,0,0-6.1.7c-.08,0-.06.14,0,.12a23.52,23.52,0,0,1,6.32-.49c1.82,2.5,3.56,5.06,5.23,7.65a5.79,5.79,0,0,0-2.68.16,0,0,0,0,0,0,.07,12.14,12.14,0,0,1,2.89.14c1.51,2.34,3,4.71,4.36,7.09C291.81,391.21,292.14,391.06,292,390.85Z" style="fill:#263238"></path><path d="M278.89,377.7a12.77,12.77,0,0,0-4.91.6,0,0,0,1,0,0,.07,38.25,38.25,0,0,1,4.88-.5C279,377.86,279,377.71,278.89,377.7Z" style="fill:#263238"></path><path d="M264.15,358.37a9,9,0,0,0-2.26.13.07.07,0,0,0,0,.14c.74-.08,1.47-.05,2.22-.07A.1.1,0,0,0,264.15,358.37Z" style="fill:#263238"></path><polygon points="314.69 447.08 276.57 447.08 282 407.26 283.39 397.06 307.86 397.06 309.25 407.26 314.69 447.08" style="fill:#455a64"></polygon><polygon points="309.25 407.26 282 407.26 283.39 397.06 307.86 397.06 309.25 407.26" style="fill:#263238"></polygon><rect x="279.89" y="393.51" width="31.47" height="8.65" style="fill:#455a64"></rect></g><g id="freepik--Arrow--inject-2"><rect x="47.9" y="138.71" width="265.68" height="47.89" transform="translate(-9.22 10.88) rotate(-3.36)" style="fill:#FFC727"></rect><polygon points="311.18 117.9 315.52 191.84 369.25 151.59 311.18 117.9" style="fill:#FFC727"></polygon><g style="opacity:0.5"><polygon points="369.25 151.59 315.52 191.83 314.75 178.78 49.53 194.35 46.72 146.54 311.94 130.97 311.17 117.9 369.25 151.59" style="fill:#fff"></polygon><path d="M47.18,197l-3.1-52.8,265.21-15.57-.88-15.21,65.37,37.91-60.49,45.3-.89-15.2Zm2.18-48.1,2.52,42.82L317.1,176.13l.64,10.91,47-35.19L313.94,122.4l.64,10.92Z" style="fill:#FFC727"></path></g></g><g id="freepik--character-2--inject-2"><path d="M181.83,396.46s-1,39.61-1,39.64c0,7.32.18,13.74.57,17v.06a5.28,5.28,0,0,0,.55,2.26l0,0c2.19,1.47,60.71,3,62.77,2.36s.41-6.56-1.81-8.43S218.56,437,218.56,437l.64-39.59Z" style="fill:#eb9481"></path><path d="M180.76,428.24s.07,7.83.06,7.86c0,7.32.18,13.74.57,17v.06a10.52,10.52,0,0,0,.55,2.26l0,0c2.19,1.47,60.71,3,62.77,2.36s.41-6.56-1.81-8.43S218.56,437,218.56,437l0-8Z" style="fill:#fff"></path><path d="M222.14,437c-3.89-.64-8.63.06-11.54,2.89-.11.11.05.26.17.22a54.7,54.7,0,0,1,11.37-2.62A.25.25,0,0,0,222.14,437Z" style="fill:#263238"></path><path d="M225,438.62c-3.9-.64-8.63.06-11.54,2.88-.11.11.05.27.17.23A54.7,54.7,0,0,1,225,439.11.25.25,0,0,0,225,438.62Z" style="fill:#263238"></path><path d="M227.82,440.25c-3.9-.64-8.63.05-11.54,2.88-.11.11,0,.27.17.23a54.46,54.46,0,0,1,11.36-2.62A.25.25,0,0,0,227.82,440.25Z" style="fill:#263238"></path><path d="M244.75,457.87c-2.06.63-60.58-.89-62.77-2.36-.84-.54-1.12-9.08-1.15-19.41v-.33l37.76.56,0,.64s22.14,10.6,24.38,12.48S246.81,457.24,244.75,457.87Z" style="fill:#37474f"></path><path d="M180.82,435.77v.33c.05,10.33.32,18.87,1.16,19.41,1,.67,13.68,1.35,27.38,1.84,16.41.58,34.27.87,35.39.52,2.06-.63.4-6.56-1.81-8.43S218.56,437,218.56,437l0-.63L206,436.15Z" style="fill:#FFC727"></path><path d="M244.14,455.58c-9.85-.5-49.66-1.58-59.44-1.32-.08,0-.08.06,0,.06,9.76.71,49.57,1.47,59.44,1.42C244.35,455.74,244.35,455.59,244.14,455.58Z" style="fill:#263238"></path><path d="M206,436.15c.92,6.32,2.33,15.64,3.36,21.2,16.41.58,34.27.87,35.39.52,2.06-.63.4-6.56-1.81-8.43S218.56,437,218.56,437l0-.63Z" style="opacity:0.1"></path><path d="M177.42,436.31l42.35.41s2.4-69,2.58-91.94c.21-26.27-1.28-105-1.28-105H189.41s-8.49,17.37-3.64,36.9l1.34,70.29Z" style="fill:#263238"></path><path d="M180.56,428.9a31.45,31.45,0,0,1,3.37-.27c1.25-.09,2.5-.18,3.75-.23,2.41-.11,4.82-.15,7.23-.16,4.87,0,9.73,0,14.59.17,2.77.09,5.53.2,8.29.36.11,0,.1.17,0,.17-4.82.18-9.65.25-14.47.35s-9.64.18-14.45.09c-1.39,0-2.77,0-4.15-.12s-2.79,0-4.14-.2C180.5,429.05,180.46,428.92,180.56,428.9Z" style="fill:#37474f"></path><path d="M216.72,390.84c.49-11.4.86-22.81,1.17-34.21q.93-34.23.49-68.47c-.16-12.8-.5-25.6-.88-38.4,0-.15.21-.14.22,0,1.21,22.91,1.68,45.87,1.7,68.81S219,364.23,217.84,387c-.63,12.79-1.41,25.6-2.61,38.35,0,.11-.18.11-.18,0C215.57,413.86,216.22,402.36,216.72,390.84Z" style="fill:#37474f"></path><path d="M227.13,402.75s.32,38.29.32,38.32c0,7.32.17,13.74.56,17.05a.07.07,0,0,0,0,.05,4.94,4.94,0,0,0,.55,2.26.1.1,0,0,0,0,.05c2.18,1.47,60.7,3,62.76,2.35s.42-6.55-1.81-8.42-24.38-12.47-24.38-12.47l-.68-38.27Z" style="fill:#eb9481"></path><path d="M227.38,433.2s.07,7.84.07,7.87c0,7.32.17,13.74.56,17.05a.07.07,0,0,0,0,.05,9.74,9.74,0,0,0,.55,2.26.1.1,0,0,0,0,.05c2.18,1.47,60.7,3,62.76,2.35s.42-6.55-1.81-8.42-24.38-12.47-24.38-12.47l.05-8Z" style="fill:#fff"></path><path d="M268.77,442c-3.9-.64-8.63.05-11.54,2.88-.11.11,0,.27.17.23a54.46,54.46,0,0,1,11.36-2.62A.25.25,0,0,0,268.77,442Z" style="fill:#263238"></path><path d="M271.61,443.59c-3.9-.64-8.63.05-11.54,2.88-.11.11,0,.27.17.23a54.46,54.46,0,0,1,11.36-2.62A.25.25,0,0,0,271.61,443.59Z" style="fill:#263238"></path><path d="M274.45,445.22c-3.9-.64-8.64,0-11.54,2.88-.12.11,0,.27.17.23a54.46,54.46,0,0,1,11.36-2.62A.25.25,0,0,0,274.45,445.22Z" style="fill:#263238"></path><path d="M291.37,462.83c-2.06.64-60.57-.88-62.76-2.35-.84-.55-1.12-9.09-1.16-19.41,0-.11,0-.22,0-.33l37.76.56,0,.64s22.13,10.6,24.37,12.47S293.44,462.21,291.37,462.83Z" style="fill:#FFC727"></path><path d="M290.77,460.55c-9.86-.5-49.66-1.58-59.45-1.32-.07,0-.08,0,0,.06,9.76.71,49.58,1.46,59.45,1.42C291,460.71,291,460.56,290.77,460.55Z" style="fill:#263238"></path><path d="M207.78,280.26s17.37,54.76,17.69,64.82c.26,8.58-.83,96.62-.83,96.62l44,.26s-3.71-89.78-4.4-98.72c-1.28-16.72-15.93-62.62-26.4-103.51H190.4s.41,21.42,10.15,36.9C200.55,276.63,205,278.67,207.78,280.26Z" style="fill:#263238"></path><path d="M227,433.59c5.08-.15,10.35-.3,15.43-.17s10.1.2,15.13.5c2.85.17,5.7.27,8.55.55.09,0,.09.15,0,.15-5.08.3-10.18.24-15.26.19s-10.09-.1-15.13-.33c-2.86-.13-5.7-.27-8.55-.47C226.83,434,226.67,433.6,227,433.59Z" style="fill:#37474f"></path><path d="M232.61,248.92c1.57,5.23,21,77,23,87.42s4.71,78.84,4.52,89.81c0,1.36-.05,2.72-.1,4.08a.1.1,0,1,1-.2,0c-.3-10.9-3.21-82.7-5.08-93.39C253,326.34,233.64,255,232.29,249A.17.17,0,0,1,232.61,248.92Z" style="fill:#37474f"></path><path d="M218.66,281.32a39.64,39.64,0,0,1-6.53-.59A62.41,62.41,0,0,1,205.8,279a49.91,49.91,0,0,0-6.21-1,22,22,0,0,1-6.08-1.81c-.09,0-.16.09-.07.13a37.21,37.21,0,0,0,5.83,2.53c2.08.66,4.26.75,6.38,1.27a53.41,53.41,0,0,0,6.51,1.5,23.35,23.35,0,0,0,6.52-.12C218.77,281.45,218.74,281.32,218.66,281.32Z" style="fill:#37474f"></path><path d="M221.43,324.88c-.42-1.63-.81-3.25-1.25-4.87-.89-3.27-1.79-6.54-2.78-9.78-2-6.44-3.82-12.92-5.89-19.32-1.18-3.64-2.24-7.31-3.62-10.88a.07.07,0,0,0-.14.05c.7,3.32,1.68,6.57,2.56,9.84s1.82,6.53,2.77,9.79c1.87,6.46,3.71,12.94,5.76,19.36q.85,2.7,1.78,5.38c.63,1.82,1.13,3.7,1.89,5.47.05.1.18.06.16,0C222.38,328.19,221.86,326.54,221.43,324.88Z" style="fill:#37474f"></path><path d="M226.63,186.69c-3.18.42-8.66-5.33-10.37-9.4a64.44,64.44,0,0,1,1.25-6.38c.41-2,.81-4.33,1-6.44l12.91,4.58a34.08,34.08,0,0,0-2.11,8,6.31,6.31,0,0,0,0,.87s0,.09,0,.15C229.45,179.72,229.71,186.29,226.63,186.69Z" style="fill:#eb9481"></path><path d="M216.39,176.24c6.78,2.28,11.69-1.54,13.93-3.88.55-1.9,1.13-3.31,1.13-3.31l-12.91-4.58c-.22,2.11-.62,4.4-1,6.44C217.06,173.15,216.6,175.1,216.39,176.24Z" style="fill:#263238"></path><path d="M235.45,148.91c1.61,4.66-.38,18.38-3.63,21.54-4.7,4.59-12.65,5.3-16.61-.41-3.83-5.54-.92-23.37,2.73-26.27C223.31,139.5,233.07,142,235.45,148.91Z" style="fill:#eb9481"></path><path d="M221.94,157.64s.07.05.06.09c-.15.92-.16,2,.64,2.42,0,0,0,.06,0,0C221.62,159.93,221.65,158.49,221.94,157.64Z" style="fill:#263238"></path><path d="M222.89,156.78c1.51.07,1.24,3.08-.15,3S221.63,156.71,222.89,156.78Z" style="fill:#263238"></path><path d="M216.72,157.17s-.08,0-.08.07c0,.94-.27,2-1.14,2.23,0,0,0,.06,0,.06C216.54,159.47,216.82,158.06,216.72,157.17Z" style="fill:#263238"></path><path d="M216,156.12c-1.49-.24-1.86,2.75-.49,3S217.22,156.33,216,156.12Z" style="fill:#263238"></path><path d="M224.2,155.51c-.4-.14-.75-.34-1.13-.51s-.8-.32-1-.75a.64.64,0,0,1,.17-.76,1.6,1.6,0,0,1,1.6,0,2.31,2.31,0,0,1,1.24,1.12A.68.68,0,0,1,224.2,155.51Z" style="fill:#263238"></path><path d="M214.94,154.51c.42,0,.81-.13,1.22-.2a2.09,2.09,0,0,0,1.21-.45.65.65,0,0,0,0-.78,1.58,1.58,0,0,0-1.54-.43,2.34,2.34,0,0,0-1.5.76A.68.68,0,0,0,214.94,154.51Z" style="fill:#263238"></path><path d="M222.19,166.18c-.24.2-.49.48-.83.48a2.41,2.41,0,0,1-1-.32,0,0,0,0,0,0,0,1.25,1.25,0,0,0,1.14.61,1,1,0,0,0,.8-.76S222.22,166.15,222.19,166.18Z" style="fill:#263238"></path><path d="M221.45,163.31a3.14,3.14,0,0,1-2.23,1.22,4,4,0,0,1-1.15,0l-.21-.05-.21-.05a.23.23,0,0,1-.16-.22h0a.28.28,0,0,1,0-.09h0V164c.05-.72.21-1.8.21-1.8-.27.11-1.66.59-1.61.22a48.5,48.5,0,0,1,2.07-9.48.09.09,0,0,1,.17,0c-.32,3-1.16,5.88-1.53,8.87a5.41,5.41,0,0,1,1.53-.33c.1,0-.35,2.09-.35,2.41v0a4.43,4.43,0,0,0,3.37-.73C221.45,163.17,221.51,163.24,221.45,163.31Z" style="fill:#263238"></path><path d="M218.53,164.16a3.82,3.82,0,0,0,1.4,1.3,1.68,1.68,0,0,0,1,.15c.76-.13.84-.81.75-1.4a4.44,4.44,0,0,0-.25-.93A4.93,4.93,0,0,1,218.53,164.16Z" style="fill:#263238"></path><path d="M219.93,165.46a1.68,1.68,0,0,0,1,.15c.76-.13.84-.81.75-1.4A1.74,1.74,0,0,0,219.93,165.46Z" style="fill:#ff98b9"></path><path d="M231.87,158c-.75-2.85,1.17-7.4-.14-8.74-2.82-2.91-9.34,1.85-13.57,1.59s-5.29-3-4.32-6.27,3.95-5.31,8.6-5.68a17.31,17.31,0,0,1,11.26,3.5s-.92-1.73-.49-2.22,2.32,1.25,2.88,2a6.08,6.08,0,0,1,.87,2,6.53,6.53,0,0,1,1.88-.06,3.94,3.94,0,0,1,2.36,1.25c.06.26-1.45.34-2.5.32,0,0,1.77,2.73,1.58,4.94s-4.37,12.5-5.2,12.56C234,163.23,232.18,159.12,231.87,158Z" style="fill:#263238"></path><path d="M238.32,145.37s-.09,0-.06,0a7,7,0,0,1,2,3.29,8.66,8.66,0,0,1-.27,4.57,41.94,41.94,0,0,1-3.87,8,.07.07,0,0,0,.13.07,30.72,30.72,0,0,0,4.18-8.62C241.09,150.12,240.69,147,238.32,145.37Z" style="fill:#263238"></path><path d="M232,148.15a10.22,10.22,0,0,0-3.74,0,14.54,14.54,0,0,0-3.29,1.36,14.22,14.22,0,0,1-7.72,1.56s0,.05,0,.05a12.43,12.43,0,0,0,7.15-1,29.7,29.7,0,0,1,3.42-1.52,13.13,13.13,0,0,1,4.15-.2A.11.11,0,0,0,232,148.15Z" style="fill:#263238"></path><path d="M231.26,141a19.18,19.18,0,0,0-5.14-2.1,15.25,15.25,0,0,0-5.29-.55c-3.07.28-6,2-6.92,5.1a6.61,6.61,0,0,0,.29,4.77.09.09,0,0,0,.16-.07,6.85,6.85,0,0,1,2.11-7.94c2.64-2,6.14-1.92,9.22-1.21a28.46,28.46,0,0,1,5.56,2S231.27,141,231.26,141Z" style="fill:#263238"></path><path d="M232.78,160.12s3-4.46,5-3.39-.19,7.49-2.53,8.41a2.39,2.39,0,0,1-3.22-1.23Z" style="fill:#eb9481"></path><path d="M237.13,158.55a0,0,0,0,1,0,.07,6,6,0,0,0-3.06,3.83,1.31,1.31,0,0,1,2-.4s0,.1,0,.09a1.47,1.47,0,0,0-1.61.54,7.48,7.48,0,0,0-.75,1.32c-.08.15-.34.08-.29-.09v0C233.3,161.77,234.88,158.8,237.13,158.55Z" style="fill:#263238"></path><path d="M182.09,250.61c.13.17,61,5.68,61.62,5.1.85-.81-2.78-61.72-13.65-74.16-2.67-3.07-12.12-6.75-15.23-4.84-8.07,5-13.05,16.21-16.24,22.74-2.37,4.84-5.41,13.17-8.23,21.73C185.71,235.29,181.64,250,182.09,250.61Z" style="fill:#FFC727"></path><path d="M218.81,194.62a11.17,11.17,0,0,0,.92,3,11.59,11.59,0,0,0,1.66,2.66,10.79,10.79,0,0,0-.92-3A11.53,11.53,0,0,0,218.81,194.62Zm10.24,39.89a11.08,11.08,0,0,0,.93,3,10.81,10.81,0,0,0,1.66,2.67,12,12,0,0,0-2.59-5.66Zm-25.28-1.91a11,11,0,0,0,.93,3,10.33,10.33,0,0,0,1.67,2.66,10.75,10.75,0,0,0-.94-3A11.06,11.06,0,0,0,203.77,232.6Zm-17.32,12.58a12.14,12.14,0,0,0,5.65-2.6,12,12,0,0,0-5.65,2.6Zm41.23-31.56a11.17,11.17,0,0,0,3-.92,10.9,10.9,0,0,0,2.66-1.67,11.08,11.08,0,0,0-3,.93A10.75,10.75,0,0,0,227.68,213.62Zm-16.34-30.85a11.17,11.17,0,0,0,3-.92,11,11,0,0,0,2.67-1.67,12.35,12.35,0,0,0-5.66,2.59Zm17.39,4.54a11.16,11.16,0,0,0,1.46-2.77,13.28,13.28,0,0,0,.58-2.1l-.28-.38a11.93,11.93,0,0,0-1.06,2.19A10.75,10.75,0,0,0,228.73,187.31Zm-24.27,25a11.22,11.22,0,0,0,1.46-2.78,11,11,0,0,0,.7-3.05,11.32,11.32,0,0,0-1.46,2.77A11.1,11.1,0,0,0,204.46,212.33Zm-3.79,40,.57.05a7.92,7.92,0,0,0,.16-1.19A8.14,8.14,0,0,0,200.67,252.38Zm37.62,2.35a11.16,11.16,0,0,0,1.46-2.77,10.75,10.75,0,0,0,.7-3.06,12.18,12.18,0,0,0-2.16,5.83ZM189.7,223.19q.36.17.72.3a11.1,11.1,0,0,0,3.06.7,10.86,10.86,0,0,0-2.78-1.45l-.76-.26Zm25.66,24.18a12.08,12.08,0,0,0,5.83,2.16,11.12,11.12,0,0,0-2.77-1.45A10.84,10.84,0,0,0,215.36,247.37Zm-2-24a11.06,11.06,0,0,0,2.78,1.46,10.76,10.76,0,0,0,3,.7,12.08,12.08,0,0,0-5.83-2.16Zm21.79-26.65a8.89,8.89,0,0,0,1.64,1c-.06-.26-.13-.51-.19-.77A8.59,8.59,0,0,0,235.12,196.74Zm-32.76-4.87a9.85,9.85,0,0,0,2.71.58,9.86,9.86,0,0,0-2.33-1.28Z" style="fill:#fff"></path><path d="M224.72,191.13c15.61,3.71,39.91,7.38,47.91,2.32,4.09-2.59,13.59-25.27,16.24-38,.69-3.31-26.46-7.95-27.32-4.45-1.16,4.72-3.88,19.6-5.22,21.94-.77,1.34-18,3.34-31.88,5.54C208.17,181.08,212.05,188.12,224.72,191.13Z" style="fill:#eb9481"></path><path d="M266,122.29a4,4,0,0,1,3.14,2.11,5.59,5.59,0,0,1,3.22-2c2.27-.39,3.87,3,3.87,3a6.91,6.91,0,0,1,3.74-1.59c2.21-.15,4.32,3,4.32,3a4.73,4.73,0,0,1,4.17.67c4.21,3.53,2.89,22.8-.49,30.49l-25.71-3.88s-3.45-14.52-2.88-19C259.84,131.4,262,121.91,266,122.29Z" style="fill:#eb9481"></path><path d="M269,124.46a50.68,50.68,0,0,0-2.47,12.12c0,.09.13.11.14,0,.42-4,1.94-8.08,2.52-12.09C269.24,124.4,269.07,124.36,269,124.46Z" style="fill:#263238"></path><path d="M275.9,125.47a10.43,10.43,0,0,0-.38,2.79c-.07,1-.11,2-.15,3q-.09,3-.05,6c0,.09.14.11.15,0,.06-2,.16-4,.32-6,.07-1,.16-2,.25-3a12.61,12.61,0,0,0,.13-2.81A.14.14,0,0,0,275.9,125.47Z" style="fill:#263238"></path><path d="M284.26,126.92a7.58,7.58,0,0,0-.21,2.52c0,.91,0,1.82,0,2.73-.05,1.82-.09,3.64-.2,5.45,0,.1.14.11.14,0,.12-1.84.26-3.69.36-5.53.05-.91.1-1.82.14-2.72a7.12,7.12,0,0,0-.1-2.48S284.28,126.88,284.26,126.92Z" style="fill:#263238"></path><path d="M246.55,198.39l-1-24.45s-17.06,1.1-26.73,4.65-6.38,8.82,3,12.48S246.55,198.39,246.55,198.39Z" style="fill:#FFC727"></path><path d="M242.54,175.21a10.75,10.75,0,0,0-3.06-.7,11.06,11.06,0,0,0,2.78,1.46,10.76,10.76,0,0,0,3.05.7A10.67,10.67,0,0,0,242.54,175.21Zm-13.11,9a11.1,11.1,0,0,0-.7,3.06,11.22,11.22,0,0,0,1.46-2.78,11,11,0,0,0,.7-3A11.32,11.32,0,0,0,229.43,184.26Zm16.72,4.7a11.3,11.3,0,0,0-2.48.83,10.92,10.92,0,0,0-2.67,1.66,11.17,11.17,0,0,0,3-.92,11.52,11.52,0,0,0,2.17-1.27Zm-31.69-8a4.87,4.87,0,0,0-1.11,1.32c.33-.12.66-.25,1-.39a11,11,0,0,0,2.67-1.67A10,10,0,0,0,214.46,180.92Z" style="fill:#fff"></path><path d="M241.16,175.38a153.2,153.2,0,0,0,1.07,20.76s.16,0,.16,0c.05-5.68-.71-17-1-20.76C241.4,175.31,241.16,175.31,241.16,175.38Z" style="fill:#263238"></path><path d="M246.42,195.32c.16,1,.25,2,.38,3.06l0,.32-.35-.07c-2.14-.45-4.28-.88-6.4-1.4s-4.24-1.06-6.34-1.66-4.2-1.22-6.26-1.94-4.13-1.44-6.14-2.33l6.34,1.66c2.11.55,4.22,1.1,6.32,1.67l6.31,1.72c2.1.56,4.19,1.21,6.29,1.8l-.3.25C246.35,197.37,246.35,196.35,246.42,195.32Z" style="fill:#263238"></path><path d="M226.87,193.2a6.82,6.82,0,0,1-2.38.15,6,6,0,0,1-2.28-.68c.4,0,.79.05,1.18.08l1.15.1A21.52,21.52,0,0,1,226.87,193.2Z" style="fill:#263238"></path></g><g id="freepik--character-1--inject-2"><path d="M78.18,436.11c-3.44-1.86-8.1-2.73-11.73-1-.14.06,0,.26.08.26A53.53,53.53,0,0,1,78,436.57.25.25,0,0,0,78.18,436.11Z" style="fill:#263238"></path><path d="M80.31,438.55c-3.44-1.86-8.1-2.73-11.73-1-.14.06,0,.26.08.26A53.53,53.53,0,0,1,80.15,439,.25.25,0,0,0,80.31,438.55Z" style="fill:#263238"></path><path d="M82.44,441c-3.44-1.86-8.1-2.73-11.73-1-.14.06,0,.26.09.26a53.5,53.5,0,0,1,11.48,1.22A.25.25,0,0,0,82.44,441Z" style="fill:#263238"></path><path d="M84.58,443.43c-3.45-1.86-8.1-2.73-11.74-1-.14.06,0,.26.09.26a53.5,53.5,0,0,1,11.48,1.22A.25.25,0,0,0,84.58,443.43Z" style="fill:#263238"></path><path d="M87.66,429.81c-.8-2.44-3.77-2.41-5.71-1.62a20.58,20.58,0,0,0-8.33,6.58.1.1,0,0,0,0,.16c-.08.28.07.66.42.64,3.39-.15,7,.11,10.26-1.07C86.23,433.81,88.42,432.12,87.66,429.81Zm-8.49,4.49c-1.66.11-3.31.14-5,.32,1.63-1.28,3.19-2.62,5-3.74a21.56,21.56,0,0,1,2.61-1.47c1.41-.64,6.4-1.37,4.46,2.44C85.16,434,81.15,434.16,79.17,434.3Z" style="fill:#263238"></path><path d="M64.62,430.83c2.61,2.25,6.1,3.3,9.21,4.64a.47.47,0,0,0,.62-.45.1.1,0,0,0,.1-.13,20.5,20.5,0,0,0-5.45-9.1c-1.53-1.44-4.29-2.52-5.91-.52S63.1,429.51,64.62,430.83Zm-.81-3.14c-.46-4.25,4-1.8,5-.7a24.88,24.88,0,0,1,1.92,2.3c1.24,1.67,2.23,3.48,3.3,5.25-1.49-.75-3-1.37-4.54-2.06C67.73,431.65,64.06,430,63.81,427.69Z" style="fill:#263238"></path><path d="M39.6,430.87c-.22,1.33-.44,2.63-.64,3.89-1.32,8.09-2.1,14.33-1.49,14.9,1.86,1.77,57.69,13,59.78,12.72s1.48-6.22-.34-8.38c-1.11-1.31-8.74-6.95-14.55-11.16l0,0c-3.74-2.7-6.72-4.83-6.72-4.83l11.2-36.2L49.3,394.4S40,428.73,39.6,430.87Z" style="fill:#ffc4c0"></path><path d="M97.25,462.38c-2.09.25-57.92-10.95-59.78-12.72-.61-.58.17-6.81,1.49-14.9.2-1.25.41-2.56.64-3.89.13-.75,1.36-5.43,2.89-11.2,5.44,1.08,27.27,5.47,36.53,7.33l-3.4,11s3,2.12,6.72,4.83l0,0c5.81,4.21,13.44,9.84,14.54,11.16C98.72,456.16,99.33,462.11,97.25,462.38Z" style="fill:#ebebeb"></path><path d="M97.71,462.74c-1.38.16-25.59-4.65-43.14-8.59-4.06-.91-7.76-1.78-10.74-2.52-4.11-1-6.85-1.82-7.24-2.19-.68-.66,3.6-23.55,4.35-26.2l37.12,7.68-2.18,6.86s19.66,14.16,21.53,16.38S99.84,462.47,97.71,462.74Z" style="fill:#FFC727"></path><path d="M96.84,460.18C87.31,458,48.7,450,39.12,448.54c-.08,0-.09,0,0,.06C48.5,451,87.18,458.66,96.8,460.34,97,460.37,97,460.23,96.84,460.18Z" style="fill:#263238"></path><path d="M86.79,422.14c.4-.19,11.28-46.89,16.24-65.93,7.16-27.48,14.1-72.27,16.18-81.6a137.06,137.06,0,0,0,8.68-33.46s-45.14,0-45.14,0S70.92,263.78,77,279.78c.56,1.47-7.88,58-12.25,67.19-3.77,7.92-21,65.92-21,65.92Z" style="fill:#37474f"></path><path d="M86.55,412.57c-1.1-.4-2.28-.6-3.42-.9s-2.41-.61-3.62-.88c-2.42-.55-4.84-1.07-7.26-1.6-4.85-1.05-9.71-2-14.57-3q-2-.41-4-.78a23.06,23.06,0,0,0-4-.61.08.08,0,0,0,0,.14,20.78,20.78,0,0,0,3.39.95c1.2.3,2.41.58,3.62.85,2.38.54,4.76,1.09,7.15,1.61,4.8,1,9.61,2.11,14.43,3.09,1.37.27,2.73.55,4.11.78s2.74.59,4.12.69C86.62,412.9,86.75,412.64,86.55,412.57Z" style="fill:#263238"></path><path d="M107.4,272.54c-.87,4.7-1.59,9.43-2.37,14.14-.39,2.41-.92,4.79-1.32,7.19s-.77,4.72-1.15,7.08q-2.3,14.25-4.55,28.49-1.12,7.08-2.27,14.14a132.26,132.26,0,0,1-2.85,13.79c-1.24,4.54-2.7,9-4.09,13.51L84.55,384.7c-2.81,9.16-2.41,10.72-4.93,20-.31,1.15-.63,2.3-1,3.45a.11.11,0,0,0,.21.05c3.11-9.08,2.68-10.64,5.57-19.8S90.25,370.16,93,361a116.89,116.89,0,0,0,3.19-13.58c.8-4.72,1.5-9.45,2.26-14.18Q100.69,319,103,304.75c.74-4.66,1.56-9.33,2.14-14,.6-4.86,1.44-9.69,2.16-14.53.18-1.19.35-2.37.51-3.56C107.81,272.39,107.45,272.28,107.4,272.54Z" style="fill:#263238"></path><path d="M146.22,439.22c-3.85-.74-8.55-.18-11.51,2.54-.11.11,0,.27.17.23a53.73,53.73,0,0,1,11.32-2.28A.25.25,0,0,0,146.22,439.22Z" style="fill:#263238"></path><path d="M149,440.91c-3.84-.74-8.55-.18-11.5,2.54-.12.11,0,.27.16.23A53.86,53.86,0,0,1,149,441.4.25.25,0,0,0,149,440.91Z" style="fill:#263238"></path><path d="M151.74,442.6c-3.84-.74-8.54-.18-11.5,2.54-.11.11,0,.27.17.23a53.73,53.73,0,0,1,11.32-2.28A.25.25,0,0,0,151.74,442.6Z" style="fill:#263238"></path><path d="M154.51,444.29c-3.84-.74-8.55-.18-11.5,2.54-.12.11,0,.27.16.23a53.86,53.86,0,0,1,11.32-2.28A.25.25,0,0,0,154.51,444.29Z" style="fill:#263238"></path><path d="M153.37,430.38c-1.5-2.09-4.32-1.18-5.93.16a20.51,20.51,0,0,0-6,8.77.1.1,0,0,0,.08.14c0,.29.27.61.6.49,3.19-1.16,6.73-2,9.46-4.1C153.21,434.62,154.79,432.35,153.37,430.38Zm-6.75,6.82c-1.55.6-3.12,1.13-4.65,1.79,1.17-1.7,2.26-3.45,3.6-5a21.25,21.25,0,0,1,2.05-2.19c1.15-1,5.7-3.22,5,1C152.22,435.08,148.47,436.47,146.62,437.2Z" style="fill:#263238"></path><path d="M131.7,438.25c3.16,1.37,6.8,1.32,10.17,1.67a.48.48,0,0,0,.47-.61.11.11,0,0,0,0-.16,20.6,20.6,0,0,0-7.93-7.06c-1.89-.9-4.85-1.11-5.79,1.28S129.85,437.45,131.7,438.25ZM130,435.5c-1.71-3.92,3.23-2.9,4.6-2.18a21.58,21.58,0,0,1,2.52,1.62c1.69,1.22,3.17,2.65,4.72,4-1.64-.27-3.29-.4-4.95-.61C134.9,438.1,130.92,437.66,130,435.5Z" style="fill:#263238"></path><path d="M107.7,434.79c0,2.28,1,25.09,1.69,25.53,2.17,1.38,59.12,1.54,61.11.89s.25-6.39-2-8.15c-1.34-1.08-9.91-5.13-16.43-8.13l0,0c-4.19-1.93-7.53-3.43-7.53-3.43l.18-6.69.52-30.43H107.64S107.45,420,107.7,434.79Z" style="fill:#ffc4c0"></path><path d="M170.51,461.21c-2,.65-58.95.48-61.11-.89-.71-.45-1.67-23.25-1.7-25.52,0-1.51,0-3-.06-4.54h37.19l-.08,4.54-.19,6.67,7.53,3.44h0c6.51,3,15.08,7.07,16.43,8.14C170.75,454.82,172.49,460.55,170.51,461.21Z" style="fill:#ebebeb"></path><path d="M171.85,461.67c-1.32.44-26,.44-44,0-4.16-.1-8-.23-11-.37-4.23-.21-7.07-.45-7.53-.75-.8-.51-1.93-23.8-1.71-26.54l37.62.19.14,7.17s22.25,10.13,24.52,11.94S173.89,461,171.85,461.67Z" style="fill:#FFC727"></path><path d="M170.49,459.34c-9.77-.3-49.2-.59-58.88-.15-.07,0-.08.06,0,.06,9.68.51,49.11.48,58.88.25C170.7,459.49,170.7,459.34,170.49,459.34Z" style="fill:#263238"></path><path d="M101,281.53s6.43,63.1,6.53,64.58c0,.59-2.76,77.7-2.76,77.7H147.3s-1.52-72.26-2.17-81.17c-.07-1-2.82-65.18-15.2-101.49H82.69s.41,21.33,10.11,36.76A81.31,81.31,0,0,1,101,281.53Z" style="fill:#37474f"></path><path d="M144.61,415.84c-1.17-.17-2.36-.13-3.54-.19s-2.47-.12-3.71-.15c-2.48-.05-5-.07-7.44-.1-5-.06-9.92,0-14.88,0l-4.06,0a23.27,23.27,0,0,0-4.09.21c-.07,0-.06.13,0,.15a21.54,21.54,0,0,0,3.5.26c1.24.05,2.48.08,3.72.1,2.44.05,4.88.11,7.33.14,4.91.06,9.83.15,14.75.13,1.4,0,2.79,0,4.19-.05s2.8,0,4.18-.16C144.74,416.15,144.82,415.87,144.61,415.84Z" style="fill:#263238"></path><path d="M135,349.64c-1.12-22.73-3.51-45.36-6.52-67.9-1.64-12.35-3.57-24.68-6.91-36.7,0,0-.09,0-.08,0a291.76,291.76,0,0,1,5.88,33.36c1.4,11.1,2.74,22.22,3.87,33.36,2.29,22.6,3.31,45.28,3.45,68,.08,12.78-.26,18.8-.62,31.57,0,.12.18.11.19,0C136.11,388.61,136.08,372.4,135,349.64Z" style="fill:#263238"></path><path d="M132.69,249.94a.07.07,0,0,0-.14,0c.18,2.69.64,5.62-.56,8.16-1.05,2.23-3.06,3.49-4.91,5,0,.05,0,.14.08.12,2.45-.74,4.9-2.1,5.87-4.62C134.11,255.81,133.52,252.74,132.69,249.94Z" style="fill:#263238"></path><path d="M112.21,280.14a46.76,46.76,0,0,0-5.91.2,41.17,41.17,0,0,1-5.77-.1,23.07,23.07,0,0,1-2.86-.48c-1-.23-1.9-.59-2.87-.86a5.33,5.33,0,0,0-2.66.1c-1,.23-2,.39-3.09.53a30,30,0,0,1-7.15.18c-.09,0-.13.13,0,.15a29.7,29.7,0,0,0,6.09.63,23.48,23.48,0,0,0,3.13-.28,9.52,9.52,0,0,1,2.93-.38,25.21,25.21,0,0,1,2.86.95,20.42,20.42,0,0,0,2.9.59,29.28,29.28,0,0,0,5.92.18,26,26,0,0,0,6.58-1A.21.21,0,0,0,112.21,280.14Z" style="fill:#263238"></path><path d="M107.63,342.64a.07.07,0,0,0-.06,0,.06.06,0,0,0,0,0,.06.06,0,0,0,0,.06l0,.15,0,0,0,0a.08.08,0,0,0,.06,0l0-.15A.07.07,0,0,0,107.63,342.64Z" style="fill:#263238"></path><path d="M106.5,331.77q-.56-6.13-1.2-12.26c-.86-8.18-1.67-16.36-2.51-24.54-.48-4.64-.82-9.32-1.58-13.92,0-.12-.21-.12-.2,0,.06,4.1.5,8.2.85,12.29s.71,8.18,1.09,12.27c.77,8.18,1.5,16.37,2.46,24.54q.41,3.47.86,7c.31,2.32.72,4.63,1,6.95a.08.08,0,0,0,.16,0C107.07,340,106.88,335.86,106.5,331.77Z" style="fill:#263238"></path><path d="M106.83,189.86c.32.88,5.37,6.22,9.48,5.51,1.34-.23.4-7.6.4-7.6l.05-.56.77-7.83-9.67-4.64-1.39-.6s-.07,2.16-.12,4.84c0,.13,0,.25,0,.39s0,.29,0,.43l0,1.22c0,.32,0,.62,0,.94s0,.65,0,1A49,49,0,0,0,106.83,189.86Z" style="fill:#ffc4c0"></path><path d="M106.35,179a15.76,15.76,0,0,0,10.41,8.23l.77-7.83-9.67-4.64-1.39-.6S106.4,176.3,106.35,179Z" style="fill:#263238"></path><path d="M129.55,228.82l.38,12.33H82.75s5.56-36.55,18-50c6.22-6.76,12.83-5.49,17.49-.77,1.17,1.2,14.06,18,15.54,25.1C135.07,221.68,129.55,228.82,129.55,228.82Z" style="fill:#FFC727"></path><path d="M129.88,239.68H83c.06-.38.14-.82.23-1.32h46.62Zm-.15-5H83.92c-.09.46-.18.9-.26,1.32h46.11Zm-.11-3.69H84.69c-.1.45-.19.89-.28,1.32h45.25Zm-44.09-3.7c-.1.45-.21.89-.31,1.32h44.49c.19-.25.51-.71.89-1.32Zm.91-3.69-.33,1.32h45.82c.22-.42.42-.86.62-1.32Zm1-3.69-.36,1.32H133.4c.12-.43.23-.87.32-1.32Zm46.48-3.69H88.52c-.14.44-.27.88-.4,1.32H134A11.67,11.67,0,0,0,133.91,216.21Zm-1.1-3.69H89.7c-.15.44-.29.88-.44,1.32h44.06C133.18,213.42,133,213,132.81,212.52Zm-1.84-3.7H91c-.17.44-.33.88-.49,1.33h41.16C131.46,209.71,131.22,209.27,131,208.82Zm-2.17-3.69H92.47q-.28.66-.54,1.32h37.68Q129.22,205.79,128.8,205.13Zm-2.38-3.69H94.12c-.21.44-.42.88-.62,1.32h33.79Zm-2.54-3.69H96.05c-.25.43-.5.87-.73,1.32h29.47C124.49,198.62,124.18,198.18,123.88,197.75Zm-2.69-3.69H98.37c-.31.43-.6.87-.89,1.32h24.68Zm-2.91-3.69H101.44q-.34.34-.69.72t-.54.6h19.16C118.85,191,118.47,190.57,118.28,190.37Zm-6.12-3.7h-4.52a11.09,11.09,0,0,0-3.17,1.32h10.84A11.53,11.53,0,0,0,112.16,186.67Z" style="fill:#030402;opacity:0.1"></path><path d="M114.13,200.69c8.45,3.24,39.94,10.45,46.57,4.94,10.41-8.65,18.55-24.15,22.75-36.86,1.45-4.42-26.3-8.23-27.82-3.24-2,6.5-7,18.33-8.33,20.36s-20.16,2.37-32.86,3.56C103.84,190.44,103.41,196.59,114.13,200.69Z" style="fill:#ffc4c0"></path><path d="M158.93,136a3.92,3.92,0,0,1,4.3,1.25,5.83,5.83,0,0,1,3.32-2.14c2.36-.42,4.06,3.09,4.06,3.09a7.13,7.13,0,0,1,3.86-1.7c2.3-.18,4.52,3.12,4.52,3.12a6.28,6.28,0,0,1,4.34.64c3.45,2.1,3.53,8.26,3.63,12.18s-3.31,15.12-3.74,17.32l-24.12,2.33s-7.4-10.4-5.9-23.58C153.65,144.59,156.07,137.07,158.93,136Z" style="fill:#ffc4c0"></path><path d="M162.83,137.42c-1.48,4-1.69,8.26-2.14,12.48a.08.08,0,0,0,.15,0c.4-4.21,1.62-8.28,2.19-12.46C163.05,137.35,162.87,137.31,162.83,137.42Z" style="fill:#263238"></path><path d="M170.28,138.27a10.87,10.87,0,0,0-.36,2.9c-.06,1-.1,2.07-.13,3.1,0,2.07,0,4.15,0,6.22,0,.09.14.11.14,0q.08-3.1.27-6.2.1-1.55.24-3.09a13,13,0,0,0,.1-2.92A.15.15,0,0,0,170.28,138.27Z" style="fill:#263238"></path><path d="M179,139.68a8,8,0,0,0-.19,2.63c0,.95,0,1.89,0,2.84,0,1.89-.05,3.77-.14,5.66,0,.1.14.11.14,0,.11-1.92.24-3.84.32-5.75,0-1,.08-1.89.11-2.83a7.38,7.38,0,0,0-.12-2.57A.06.06,0,0,0,179,139.68Z" style="fill:#263238"></path><path d="M149.8,179l22.45,18.27s-8.54,9.65-13.18,10.64-29.75-.45-44-6.21-10.61-11.35-.2-12.57,29.7-3.51,30.33-3.89S149.8,179,149.8,179Z" style="fill:#FFC727"></path><path d="M117.16,202.49q-1.06-.37-2.07-.78c-.73-.3-1.42-.59-2.06-.88l-7.23-5.91a2.57,2.57,0,0,1,.09-1.65Zm-8.53-11.73a7.72,7.72,0,0,0-1.21.71l15.65,12.79c1,.25,2,.49,2.94.7Zm4.24-1.31c-.58.11-1.12.23-1.64.37L131,206q1.32.24,2.64.45Zm5-.66-1.83.21,22.07,18c.82.11,1.64.21,2.44.29Zm5.09-.6-1.81.22,23.67,19.34,2.29.18Zm5.09-.61-1.81.22,24.89,20.34,2.15.06Zm5.07-.63-1.81.23,25.65,21a14.34,14.34,0,0,0,1.86-.19Zm5-.64-1.8.24,25,20.41c.39-.22.78-.47,1.18-.74Zm5-.68-1.78.25,23.08,18.87c.35-.27.7-.56,1-.85Zm3.37-2c-.3.41-.57.77-.8,1l21.56,17.63,1-.92Zm2.15-3-.76,1.08,22,18,.91-1Z" style="fill:#030402;opacity:0.1"></path><path d="M167.13,199.53c-6-5.29-12.08-10.57-18.58-15.25a.06.06,0,0,0-.07.1c5.84,5.47,12.2,10.39,18.54,15.26C167.1,199.7,167.2,199.59,167.13,199.53Z" style="fill:#263238"></path><path d="M133.37,206.29c-4.58-.91-9.13-1.95-13.73-2.76a0,0,0,0,0,0,.08,55.45,55.45,0,0,0,5.65,1.53c-.75,0-1.5-.07-2.25-.06a.05.05,0,0,0,0,.1,11.07,11.07,0,0,0,2.07.19c.38,0,.75,0,1.13,0,2.36.48,4.74.83,7.14,1.1A.08.08,0,0,0,133.37,206.29Z" style="fill:#263238"></path><path d="M103.07,157.51a2.6,2.6,0,0,1-2.85.19c-1.26-.5-2.87-1.8-4.24-.89-1.54,1-1,3.23-.27,4.55a28.32,28.32,0,0,1,1.88,3.47,10.44,10.44,0,0,1,.66,3.62c0,2.49-1.36,4.79-1.2,7.27.21,3,3,5.16,5.38,6.52s5.28,1.91,8,2.86a14.57,14.57,0,0,1,9.06,10.66,18.88,18.88,0,0,1,.47,3.58c0,1.29-.09,2.59,0,3.88a4.59,4.59,0,0,0,2.13,3.63,11.11,11.11,0,0,0,3.79,1.19.23.23,0,0,1,.07.41,18.93,18.93,0,0,1-2.26,1.34,5.86,5.86,0,0,1-4.51.57c-1.7-.6-2.72-2.19-3.65-3.63a12,12,0,0,0-4.18-4.19,17.8,17.8,0,0,0-5.69-1.87c-3.85-.66-7.79-.46-11.62-1.27a14,14,0,0,1-9.19-6,13.47,13.47,0,0,1-2-5.26,19.72,19.72,0,0,1,.32-6.13,55.31,55.31,0,0,0,.85-13.1,57.92,57.92,0,0,0-.78-6.16,28.12,28.12,0,0,1-.57-5.78,9.57,9.57,0,0,1,5-8.18,9.84,9.84,0,0,1,9.63-.18C102.12,151.36,103.7,156.89,103.07,157.51Z" style="fill:#263238"></path><path d="M97.7,177.91s0,0,0,0a10.58,10.58,0,0,0,6,5.84c2.75,1,5.77,1.06,8.57,2a13.83,13.83,0,0,1,6.67,4.36,11.87,11.87,0,0,1,2.2,7.12c.1,2.88-.19,5.75.12,8.62,0,.05-.08.07-.09,0-1-5,.93-10.6-2.2-15.07a13.6,13.6,0,0,0-7.66-4.94c-2.65-.75-5.51-.82-8.06-1.91A10.54,10.54,0,0,1,97.7,177.91Z" style="fill:#263238"></path><path d="M82.36,191.74a13.83,13.83,0,0,1,.16-5.05c.37-2,.84-4,1.27-6,0,0,0,0,0,0-.35,1.71-.64,3.44-.94,5.17a17.91,17.91,0,0,0-.33,4.95,11,11,0,0,0,5.27,7.95c2.88,1.77,6.16,2.11,9.46,2.12a66,66,0,0,1,8.78.43,23.5,23.5,0,0,1,9.26,3.05s0,.1,0,.07c-5.72-3.35-12.28-3.18-18.68-3.17a16.64,16.64,0,0,1-9.06-2.18A11.21,11.21,0,0,1,82.36,191.74Z" style="fill:#263238"></path><path d="M101.07,160.72c.18,0,2.62-2.56,2.88-2.81s2.84-2.64,2.88-2.81a9.68,9.68,0,0,0-2.9-2c-.65-.14-2.59,1.48-2.91,1.78s-2,2.22-1.84,2.88A9.81,9.81,0,0,0,101.07,160.72Z" style="fill:#FFC727"></path><path d="M127.71,165.83c3.62,13.33-3.89,17.13-6.84,17.78-2.64.59-11.59,2.77-16.56-10.12s.08-18.78,6-20.71S124.1,152.49,127.71,165.83Z" style="fill:#ffc4c0"></path><path d="M126.27,163.13c-.32,0-.62,0-1,0a1.54,1.54,0,0,1-1-.2.49.49,0,0,1-.12-.58,1.24,1.24,0,0,1,1.13-.52,1.79,1.79,0,0,1,1.22.41A.53.53,0,0,1,126.27,163.13Z" style="fill:#263238"></path><path d="M117.62,165.33a8.41,8.41,0,0,0,.87-.37,1.55,1.55,0,0,0,.83-.56.48.48,0,0,0-.12-.58,1.2,1.2,0,0,0-1.23,0,1.73,1.73,0,0,0-1,.84A.52.52,0,0,0,117.62,165.33Z" style="fill:#263238"></path><path d="M120.27,168.27s-.06.06,0,.1c.23.91.34,2-.42,2.48,0,0,0,.06,0,.05C120.8,170.54,120.64,169.1,120.27,168.27Z" style="fill:#263238"></path><path d="M119.24,167.5c-1.5.21-1,3.2.43,3S120.5,167.31,119.24,167.5Z" style="fill:#263238"></path><path d="M118.68,167.76c-.23.22-.43.56-.74.65s-.69-.16-1-.42c0,0,0,0,0,0,.1.58.42,1.12,1,1.1s.89-.6.93-1.21C118.89,167.81,118.77,167.67,118.68,167.76Z" style="fill:#263238"></path><path d="M125.15,166.86s.08,0,.09.07c.13.93.44,2,1.33,2.14a0,0,0,0,1,0,.05C125.52,169.15,125.13,167.76,125.15,166.86Z" style="fill:#263238"></path><path d="M125.81,165.75c1.48-.38,2.11,2.59.75,2.94S124.58,166.06,125.81,165.75Z" style="fill:#263238"></path><path d="M126.48,165.81c.26.11.56.34.84.3s.5-.42.64-.77c0,0,0,0,.06,0,.13.57.07,1.2-.45,1.42s-.95-.2-1.2-.74C126.32,165.94,126.37,165.77,126.48,165.81Z" style="fill:#263238"></path><path d="M121.55,175.42c.25.19.52.46.86.44a2.3,2.3,0,0,0,1-.37,0,0,0,0,1,.05,0,1.27,1.27,0,0,1-1.12.66,1,1,0,0,1-.84-.72C121.44,175.42,121.51,175.39,121.55,175.42Z" style="fill:#263238"></path><path d="M124.77,171.34s.45,1.34.58,2c0,.06-.14.12-.36.18,0,0,0,0,0,0a3.16,3.16,0,0,1-3.23-.57.07.07,0,0,1,.08-.11,4.77,4.77,0,0,0,3,.26c0-.19-.86-2.27-.76-2.3a5.79,5.79,0,0,1,1.54.05c-.87-2.82-2.18-5.49-3-8.31a.09.09,0,0,1,.16-.08,48.18,48.18,0,0,1,3.63,8.82C126.48,171.63,125.05,171.4,124.77,171.34Z" style="fill:#263238"></path><path d="M124.84,173a3.89,3.89,0,0,1-1.11,1.6,1.77,1.77,0,0,1-1,.38c-.78,0-1-.62-1.06-1.23a4.15,4.15,0,0,1,0-1A5,5,0,0,0,124.84,173Z" style="fill:#263238"></path><path d="M123.73,174.62a1.77,1.77,0,0,1-1,.38c-.78,0-1-.62-1.06-1.23A1.79,1.79,0,0,1,123.73,174.62Z" style="fill:#ff98b9"></path><path d="M106.29,177.77c1.17-.21,0-7.57,0-7.57s4.58-2.45,4.79-9.41a10.49,10.49,0,0,1-1,5.91s8-2.49,10.07-10c0,0-.68,3.75-1.72,5.24a9.74,9.74,0,0,0,4.35-4.74s2.21,3.66,3.53,4.53c0,0-1.51-13.88-16.1-10.07a14.71,14.71,0,0,0-10.82,10.81c-1.05,4.47.44,9.78,2.28,12.76C102.82,177,106.29,177.77,106.29,177.77Z" style="fill:#263238"></path><path d="M110,171.31s-3.39-4-5.25-2.78,1,7.27,3.34,7.91a2.34,2.34,0,0,0,3-1.53Z" style="fill:#ffc4c0"></path><path d="M105.59,170.24a0,0,0,0,0,0,.06,5.93,5.93,0,0,1,3.38,3.4,1.3,1.3,0,0,0-2-.17s0,.09,0,.08a1.44,1.44,0,0,1,1.62.35,6.87,6.87,0,0,1,.87,1.21c.09.14.34,0,.27-.12v0C109.65,173,107.8,170.24,105.59,170.24Z" style="fill:#263238"></path></g></svg>