<svg xmlns="http://www.w3.org/2000/svg" viewBox="0 0 500 500"><g id="freepik--Floor--inject-102"><polygon points="40.29 368.18 92.72 367.93 145.14 367.84 250 367.68 354.86 367.84 407.28 367.93 459.71 368.18 407.28 368.42 354.86 368.51 250 368.67 145.14 368.51 92.72 368.42 40.29 368.18" style="fill:#263238"></polygon></g><g id="freepik--Shadow--inject-102"><ellipse cx="255.96" cy="434.75" rx="215.67" ry="24.6" style="fill:#ebebeb"></ellipse></g><g id="freepik--Shelf--inject-102"><rect x="140.84" y="56.31" width="29.04" height="311.73" style="fill:#263238"></rect><rect x="330.12" y="56.31" width="29.04" height="311.73" style="fill:#455a64"></rect><rect x="152.76" y="86.88" width="177.36" height="10.47" style="fill:#37474f"></rect><rect x="152.76" y="154.55" width="177.36" height="10.47" style="fill:#37474f"></rect><rect x="152.76" y="222.22" width="177.36" height="10.47" style="fill:#37474f"></rect><rect x="152.76" y="289.89" width="177.36" height="10.47" style="fill:#37474f"></rect><rect x="152.76" y="357.56" width="177.36" height="10.47" style="fill:#37474f"></rect><rect x="173.29" y="97.87" width="54.96" height="56.67" style="fill:#ebebeb"></rect><rect x="228.26" y="97.87" width="28.38" height="56.68" style="fill:#dbdbdb"></rect><polygon points="205.44 111.03 204.28 111.03 203.4 111.03 202.9 110.02 202.2 111.03 201.25 108.94 200.35 111.03 197.78 111.03 196.61 111.03 196.18 109.64 195.78 111.03 195.02 111.03 195.02 97.87 205.44 97.87 205.44 111.03" style="fill:#dbdbdb"></polygon><path d="M254.68,150.93q-3.15-6-6.25-12.13l-6.15-12.19-6.08-12.24q-3-6.14-6-12.3,3.15,6,6.25,12.13l6.16,12.19,6.08,12.24Q251.72,144.76,254.68,150.93Z" style="fill:#ebebeb"></path><path d="M254.68,102.07q-3,6.17-6,12.3l-6.08,12.24-6.16,12.2q-3.09,6.08-6.25,12.12,3-6.17,6-12.3l6.08-12.24,6.15-12.19Q251.54,108.11,254.68,102.07Z" style="fill:#ebebeb"></path><rect x="218.53" y="144.93" width="6.1" height="6.1" style="fill:#fff"></rect><rect x="207.91" y="186.97" width="54.96" height="35.25" style="fill:#dbdbdb"></rect><rect x="262.87" y="186.97" width="28.38" height="35.25" style="fill:#c7c7c7"></rect><polygon points="240.05 200.12 238.89 200.12 238.01 200.12 237.51 199.11 236.81 200.12 235.87 198.04 234.97 200.12 232.39 200.12 231.22 200.12 230.79 198.73 230.4 200.12 229.63 200.12 229.63 186.97 240.05 186.97 240.05 200.12" style="fill:#fff"></polygon><path d="M289.3,220.12q-3.17-3.84-6.25-7.7l-6.16-7.75-6.08-7.78q-3-3.9-6-7.82,3.17,3.84,6.25,7.7l6.16,7.75,6.08,7.78Q286.34,216.2,289.3,220.12Z" style="fill:#dbdbdb"></path><path d="M289.3,189.07q-3,3.92-6,7.82l-6.08,7.78-6.16,7.75q-3.09,3.86-6.25,7.7,3-3.92,6-7.82l6.08-7.78,6.16-7.74Q286.14,192.91,289.3,189.07Z" style="fill:#dbdbdb"></path></g><g id="freepik--character-2--inject-102"><path d="M458.6,427c-.25-2.35-27.26-60.54-29.69-62.1-.92-.61-9.63,2.83-20,7.29l-.33.14c-2.14.91-41.73,11.55-41.73,11.55L384.37,422l41.19-11.89.63-.31s20.3,17.65,23.16,19.08S458.87,429.39,458.6,427Z" style="fill:#c95f50"></path><path d="M401,374.58l18,37.39,6.48-1.87.64-.3s20.3,17.65,23.15,19.08,9.54.51,9.26-1.84-27.26-60.55-29.69-62.1c-.92-.61-9.63,2.82-20,7.29l-.31.14C408,372.6,405.1,373.44,401,374.58Z" style="fill:#ebebeb"></path><path d="M458.83,427.33c-.25-2.37-27.32-61.23-29.77-62.82-.92-.61-9.73,2.83-20.24,7.29l17.34,38s20.44,17.9,23.31,19.36S459.09,429.7,458.83,427.33Z" style="fill:#FFC727"></path><path d="M456.09,427.57C451.31,417.82,433,378,429,368c0-.08,0-.1.07,0,4.94,9.56,23,49.5,27.21,59.51C456.34,427.71,456.19,427.78,456.09,427.57Z" style="fill:#263238"></path><path d="M445.61,426.35a8.71,8.71,0,0,1-.3-7,8.39,8.39,0,0,1,4.25-4.63c.06,0,.11.08.06.12a10.08,10.08,0,0,0-3.88,11.46C445.77,426.37,445.65,426.43,445.61,426.35Z" style="fill:#263238"></path><path d="M428.9,413.18c-1.87-3.93-2.59-9.15-.48-13.09.08-.15.29,0,.29.11a60.5,60.5,0,0,0,.7,12.82A.27.27,0,0,1,428.9,413.18Z" style="fill:#263238"></path><path d="M431.49,415.68c-1.87-3.93-2.59-9.14-.48-13.08.08-.16.29,0,.29.11a60.4,60.4,0,0,0,.7,12.81A.27.27,0,0,1,431.49,415.68Z" style="fill:#263238"></path><path d="M434.08,418.18c-1.87-3.92-2.59-9.14-.48-13.08.08-.15.29,0,.29.11a60.53,60.53,0,0,0,.7,12.82A.27.27,0,0,1,434.08,418.18Z" style="fill:#263238"></path><path d="M436.67,420.68c-1.87-3.92-2.58-9.14-.48-13.08.08-.15.29,0,.29.11a60.5,60.5,0,0,0,.7,12.82A.27.27,0,0,1,436.67,420.68Z" style="fill:#263238"></path><path d="M420.76,374.84c-2-4.44,4.87-7.59,6.89-3.15S422.79,379.28,420.76,374.84Z" style="fill:#263238"></path><path d="M426,419.31c1.77-3.39,2-7.44,2.66-11.14a.52.52,0,0,0-.64-.56c0-.07-.09-.12-.17-.08a22.87,22.87,0,0,0-8.45,8.24c-1.15,2-1.62,5.28,1,6.52S424.93,421.3,426,419.31ZM422.78,421c-4.48,1.58-3-3.81-2-5.27a23.51,23.51,0,0,1,2-2.67,67.79,67.79,0,0,1,4.83-4.91c-.44,1.8-.71,3.62-1.07,5.44C426.05,415.75,425.25,420.13,422.78,421Z" style="fill:#263238"></path><path d="M418.84,394.67c-2.43,1.49-1.64,4.69-.28,6.59a22.85,22.85,0,0,0,9.25,7.32.12.12,0,0,0,.16-.09c.32,0,.69-.25.58-.63-1-3.62-1.68-7.61-3.79-10.81C423.53,395.18,421.15,393.25,418.84,394.67Zm7,8c.55,1.77,1,3.56,1.62,5.3-1.8-1.43-3.65-2.78-5.31-4.39a26.23,26.23,0,0,1-2.26-2.45c-1.05-1.36-3.12-6.57,1.5-5.45C424,396.31,425.21,400.59,425.87,402.69Z" style="fill:#263238"></path><path d="M314.87,259.68s.73,22.81,4.15,34.05c0,0,3.73,2,4.85,2.66,0,0-28.34,67.86-26.73,94,.53,8.56,10.23,22.63,20,28.72,17.32,10.78,101.89,1.32,101.89,1.32l-12.27-50.84s-53.47,3-54.82.08c-1.71-3.67,8.93-32.21,17.44-55.4.85-2.34,9.41-11,8.41-26.62a81,81,0,0,0-7.36-27.93Z" style="fill:#37474f"></path><path d="M397,375.2c-11.67-.22-21.17.77-32.84.78H351a13,13,0,0,1-3-.28,3.77,3.77,0,0,1-2.35-1.39c-.77-1.16-.36-2.63-.09-3.88q.88-4.11,2-8.18c2.94-11,6.78-21.78,10.39-32.59L363.43,313c.45-1.35.9-2.71,1.47-4a33.33,33.33,0,0,1,1.84-3.5,32.22,32.22,0,0,0,3.16-6.88c3.16-10.37.13-21.1-3.56-30.89-.5-1.31-1-2.62-1.55-3.92,0-.09-.18-.05-.14.05,3.36,10.33,7.37,21.08,5.11,32.1a26.51,26.51,0,0,1-2.69,7.42c-.65,1.18-1.36,2.33-2,3.52a29.85,29.85,0,0,0-1.63,3.76c-2,5.47-3.72,11-5.57,16.56-3.69,11-7.57,21.92-10.64,33.09-.76,2.78-1.47,5.58-2.1,8.39-.46,2.08-1.5,4.9.31,6.62,1.33,1.26,3.41,1.41,5.14,1.43,2.91,0,5.81,0,8.72,0,11.83,0,36.26-1,37.73-1.05A.21.21,0,0,0,397,375.2Z" style="fill:#263238"></path><path d="M410.07,418c-1.14-5.94-2.24-11.91-3.55-17.81s-2.74-11.82-4.27-17.69c-.44-1.66-.88-3.31-1.33-5-.21-.79-.42-1.57-.65-2.36a19.65,19.65,0,0,0-.73-2.37c0-.08-.15,0-.14.05a32.52,32.52,0,0,0,.81,4.56c.29,1.43.56,2.87.86,4.3q.92,4.42,1.87,8.83c1.29,5.89,2.75,11.73,4.25,17.57.86,3.31,1.71,6.63,2.58,9.94C409.82,418.27,410.11,418.23,410.07,418Z" style="fill:#263238"></path><path d="M306.85,342.81l60-21.74c.84-2.31,1.68-4.6,2.5-6.84s9.41-11,8.42-26.63a80.69,80.69,0,0,0-7.36-27.92H314.87s.72,22.81,4.15,34c0,0,3.73,2,4.85,2.67C323.87,296.39,314.51,318.79,306.85,342.81Z" style="fill:#263238"></path><path d="M215.59,429.77c2.26.68,66.38-1.44,68.77-3.07.92-.6,1.15-10,1.11-21.28v-.36c0-2.33-5.31-41.44-5.31-41.44L235.28,365l8.81,41,0,.7S220,418.46,217.51,420.53,213.32,429.1,215.59,429.77Z" style="fill:#c95f50"></path><path d="M215.59,429.78c2.26.68,66.38-1.45,68.77-3.08.92-.61,1.16-10,1.11-21.28v-.36c0-.64-.4-4-1-8.61l-42.1,1.64,1.68,7.88,0,.7s-24.19,11.79-26.63,13.86S213.32,429.1,215.59,429.78Z" style="fill:#ebebeb"></path><path d="M215.1,430.05c2.29.68,67-1.47,69.45-3.11.92-.62,1.16-10.07,1.12-21.49l-41.75,1.27s-24.42,11.91-26.88,14S212.81,429.37,215.1,430.05Z" style="fill:#FFC727"></path><path d="M215.94,427.43c10.85-.63,54.64-2.13,65.41-1.93.09,0,.09.06,0,.07-10.73.85-54.54,2-65.4,2C215.72,427.61,215.71,427.45,215.94,427.43Z" style="fill:#263238"></path><path d="M221.13,418.25a8.71,8.71,0,0,1,6.58,2.43,8.45,8.45,0,0,1,2.62,5.71c0,.07-.12.07-.13,0a10.08,10.08,0,0,0-9.07-8A.07.07,0,0,1,221.13,418.25Z" style="fill:#263238"></path><path d="M239.74,407.93c4.35-.2,9.43,1.17,12.25,4.63.11.13-.08.29-.21.22a60.87,60.87,0,0,0-12.09-4.31A.27.27,0,0,1,239.74,407.93Z" style="fill:#263238"></path><path d="M236.43,409.35c4.35-.2,9.43,1.16,12.25,4.63.11.13-.08.28-.21.22a60.24,60.24,0,0,0-12.09-4.31A.27.27,0,0,1,236.43,409.35Z" style="fill:#263238"></path><path d="M233.12,410.77c4.35-.2,9.43,1.16,12.25,4.63.11.13-.08.28-.21.22a60.24,60.24,0,0,0-12.09-4.31A.27.27,0,0,1,233.12,410.77Z" style="fill:#263238"></path><path d="M229.81,412.19c4.35-.2,9.43,1.16,12.25,4.63.11.13-.08.28-.21.22a60.24,60.24,0,0,0-12.09-4.31A.27.27,0,0,1,229.81,412.19Z" style="fill:#263238"></path><path d="M278.24,415.28c4.88-.15,5.12,7.43.23,7.58S273.36,415.43,278.24,415.28Z" style="fill:#263238"></path><path d="M235.22,402.85c2.45,2.95,6.08,4.74,9.25,6.77a.53.53,0,0,0,.77-.37c.07,0,.14,0,.13-.13a22.8,22.8,0,0,0-4.32-11c-1.42-1.85-4.25-3.54-6.39-1.64S233.8,401.13,235.22,402.85Zm-.32-3.59c.28-4.74,4.66-1.25,5.65.15a25.22,25.22,0,0,1,1.69,2.88c1.06,2,1.81,4.22,2.66,6.36-1.49-1.1-3.07-2.06-4.6-3.1C238.48,404.32,234.75,401.88,234.9,399.26Z" style="fill:#263238"></path><path d="M260.7,405.83c-.43-2.82-3.69-3.33-6-2.81a22.85,22.85,0,0,0-10.33,5.69.11.11,0,0,0,0,.18.53.53,0,0,0,.35.79c3.73.45,7.67,1.4,11.43.69C258.41,410,261.11,408.5,260.7,405.83Zm-10.12,3.37c-1.84-.17-3.66-.44-5.51-.55a66.84,66.84,0,0,1,6.11-3.19,22.94,22.94,0,0,1,3.13-1.14c1.66-.45,7.26-.34,4.45,3.49C257.2,409.92,252.78,409.42,250.58,409.2Z" style="fill:#263238"></path><path d="M240.43,402.84h50.21s-8.94-68.35-6-72.81c1.31-2,66.49,4.57,85.56-16.08,17.43-18.89-.31-54.27-.31-54.27h-53.5s-1.09,15.17-4,21.23c-1.23,2.6-61-1.11-70.36,16C229.59,319.7,240.43,402.84,240.43,402.84Z" style="fill:#37474f"></path><path d="M285.35,393.29c-5.67-.17-11.35-.39-17-.38s-11.37.12-17.06.34c-1.6.07-6.34.29-7.1.35a17.85,17.85,0,0,0-2.32.2c-.09,0-.07.14,0,.15,1.23.21,14.08.36,16.9.36,5.65,0,11.29-.15,16.94-.35q4.82-.16,9.63-.36C285.51,393.59,285.53,393.3,285.35,393.29Z" style="fill:#263238"></path><path d="M318.6,276.06c.23-1.61.44-3.22.63-4.82.43-3.67.81-7.37.92-11.06,0-.29-.4-.26-.43,0-.35,2.85-.61,5.71-.93,8.56s-.57,5.7-1.1,8.5c-.16.84-.52,2.25-1.59,2.27-1.45,0-1.73-1.94-1.85-3a48.33,48.33,0,0,1-.15-8c.16-3,.54-6.06.88-9.07,0-.11-.17-.13-.19,0-1.25,5.87-2.45,12-1.41,18a3.33,3.33,0,0,0,1.94,2.83h.06a1,1,0,0,0,0,.1c0,.17,0,.34,0,.51a3.09,3.09,0,0,0,0,.43c0,.3,0,.59,0,.89a.22.22,0,0,0,.44,0,.18.18,0,0,0,.15-.15,4.63,4.63,0,0,0,0-1.74,2.09,2.09,0,0,0,1.78-1A7.52,7.52,0,0,0,318.6,276.06Z" style="fill:#263238"></path><path d="M313.28,280.4a85.59,85.59,0,0,1,11.51,9.47.15.15,0,0,1-.19.24c-3.92-3-8-6-11.69-9.24A.3.3,0,0,1,313.28,280.4Z" style="fill:#263238"></path><path d="M357.26,283.31a22.21,22.21,0,0,1-3.46-.26,28.69,28.69,0,0,1-3-.77c-1.85-.54-4.11-1.19-5.46-2.66a19.52,19.52,0,0,1-3.1-5.34,21.49,21.49,0,0,1-1.82-6.38c0-.09-.17-.09-.16,0a32.85,32.85,0,0,0,1.14,6.75,21.8,21.8,0,0,0,1.26,3.19,11.46,11.46,0,0,0,1.79,2.86c1.5,1.61,3.94,2.4,6,2.82a19,19,0,0,0,6.81,0C357.45,283.54,357.4,283.32,357.26,283.31Z" style="fill:#263238"></path><path d="M279.26,326.79a2.93,2.93,0,0,1,2.46-2.33,24.19,24.19,0,0,1,4.34-.09c3.34,0,6.69.07,10,.08,13.18,0,26.47-.34,39.43-2.94A92.57,92.57,0,0,0,354,316c5-2.18,10.05-5.16,13.19-9.79,3.61-5.32,3.89-12.29,3.76-18.52a71,71,0,0,0-3.22-19.82c-.52-1.63-1.09-3.24-1.74-4.82,0-.1.11-.19.15-.09A68.77,68.77,0,0,1,371.32,282a65.1,65.1,0,0,1,.44,9.77,37.5,37.5,0,0,1-1.23,9.49c-3.42,11.66-16.48,16.47-27,19.43-12.72,3.57-26,4.56-39.13,4.75-6.6.1-13.22,0-19.83-.09-1.26,0-3.34-.37-4.09.95a7.35,7.35,0,0,0-.59,2.41c-.14.93-.25,1.86-.32,2.8a80.74,80.74,0,0,0,.14,10.55q.63,10.69,1.48,21.39c.57,7.16,1.37,14.31,1.89,21.48.13,1.76.3,3.51.47,5.26,0,.2-.33.24-.36,0-1.83-14.17-3.14-28.39-4.07-42.64-.23-3.52-.49-7.05-.59-10.57A38.05,38.05,0,0,1,279.26,326.79Z" style="fill:#263238"></path><path d="M311.41,329.41a109.25,109.25,0,0,0,13.33-1c4.17-.52,8.32-1.09,12.46-1.79,7.2-1.23,14.56-2.58,21.35-5.32a37.41,37.41,0,0,0,10.29-6c.08-.07.2.05.12.12-5.14,5-11.66,7.93-18.52,9.79a149.6,149.6,0,0,1-24,4.21,130.6,130.6,0,0,1-15.07.44A.26.26,0,0,1,311.41,329.41Z" style="fill:#263238"></path><path d="M327,199.32c.15,16.43-4.31,41.36-10.46,53.44-4.4,8.63-30.59,25.61-44.5,29.43-4.92,1.36-7.37-19.09-5-24.1,1.44-3,27.61-17.53,30.29-21.53,4.07-6.09,12.32-23.37,18.42-38.14C319,190.63,326.88,189.11,327,199.32Z" style="fill:#c95f50"></path><path d="M275.65,253.43s-7.71-.93-11.18-.59-16,6.37-14.82,9.14c1.49,3.58,9.38,1.52,13.12,0,0,0,3.42,8.28,9.41,8S275.65,253.43,275.65,253.43Z" style="fill:#c95f50"></path><path d="M276.58,280.46c-2.72,1.22-15.66,5.69-19.54,6.13s-15.14.9-15.78-2,2.64-3.33,2.64-3.33-4.78-.56-5.15-3.58,4.75-3.47,4.75-3.47-4.87-.93-5-4,5.08-2.63,5.08-2.63-4.49-.64-3.57-3.2c1.11-3.07,9.26-.94,13.51-1.75,1-.19,19.29-5.11,19.29-5.11Z" style="fill:#c95f50"></path><path d="M243.1,267.56c6,1.55,8.89,1.19,14.7-.68.12,0,.2.13.08.18-5.52,2.34-9.08,3.31-14.87.78C242.73,267.72,242.82,267.48,243.1,267.56Z" style="fill:#263238"></path><path d="M243,274c6.37,1.07,9.51.71,15.74-.8.09,0,.13.13,0,.16-6,2-9.56,2.87-15.78,1C242.74,274.29,242.74,274,243,274Z" style="fill:#263238"></path><path d="M244.22,281.13c6.24.59,9.7.34,15.56-1.9.14-.05.23.15.1.21-5.76,2.86-10.07,3.21-15.66,1.88C243.84,281.23,243.83,281.09,244.22,281.13Z" style="fill:#263238"></path><path d="M250.38,262.83c3.71,2.29,8.48,0,12.22-1.22a.36.36,0,0,1,.48.34c1.67,3.37,5,7.65,8.93,8.24a.09.09,0,1,1,0,.18c-4.3-.06-7.92-4-9.51-7.81-3.81,1.29-8.7,3.39-12.13.3C250.34,262.85,250.36,262.82,250.38,262.83Z" style="fill:#263238"></path><path d="M304.8,216.79l20.86,13.78s2.77-27.36,1.31-35.63c-1.64-9.31-6-6.44-11.26.88S304.8,216.79,304.8,216.79Z" style="fill:#FFC727"></path><path d="M304.8,216.79l20.86,13.78s2.77-27.36,1.31-35.63c-1.64-9.31-6-6.44-11.26.88S304.8,216.79,304.8,216.79Z" style="opacity:0.1"></path><path d="M308,213.51c2.9,1.39,11,6.79,12.33,7.67.71.47,3.46,2.44,4.17,2.9.09.06,0,.19-.1.13-1.36-.87-2.81-1.61-4.18-2.47s-9.8-6.06-12.28-8.13C307.9,213.57,308,213.47,308,213.51Z" style="fill:#263238"></path><path d="M327.25,206c0-.12.17-.09.17,0,0,2.34,0,4.67-.06,7a20.78,20.78,0,0,0,.61-3.61,0,0,0,0,1,.09,0,17,17,0,0,1-.72,4.17c0,1.63-.12,3.25-.2,4.88-.22,4.14-.39,8.29-.84,12.41a.29.29,0,0,1-.45.2c-.71-.51-1.41-1-2.08-1.57-.07-.06,0-.19.08-.15.65.32,1.27.67,1.9,1,.1-4,.41-8,.62-12S326.86,210.12,327.25,206Z" style="fill:#263238"></path><path d="M378.21,267.69s-67.3,9.34-67.3,9.35c.19,1.32-3.56-53.24,9.5-87.45.89-2.33,11.14-6.13,16.4-2.48C359.86,203.11,378.33,268.55,378.21,267.69Z" style="fill:#FFC727"></path><path d="M338.4,188.3,319.88,191a2,2,0,0,1,.12-.31l18.08-2.67A3.92,3.92,0,0,1,338.4,188.3Zm5.1,4.9L317.94,197a1.71,1.71,0,0,0-.09.3l25.88-3.8Zm4.26,5.32-31.48,4.64c0,.1,0,.2-.07.3L348,198.79Zm3.65,5.41-36.48,5.37-.06.31,36.7-5.41Zm3.24,5.47-40.82,6c0,.1,0,.2-.05.3l41-6Zm3,5.51-44.68,6.58c0,.1,0,.2,0,.3l44.86-6.6C357.71,215.1,357.66,215,357.61,214.91Zm2.74,5.54-48.14,7.09,0,.3,48.3-7.11Zm2.56,5.57-51.27,7.55,0,.3L363,226.3A2.39,2.39,0,0,1,362.91,226Zm2.41,5.59-54.12,8c0,.1,0,.2,0,.3l54.25-8C365.4,231.8,365.36,231.71,365.32,231.61Zm2.29,5.61-56.73,8.35c0,.1,0,.19,0,.29l56.86-8.37C367.68,237.4,367.64,237.31,367.61,237.22Zm2.17,5.63-59.11,8.7a2.81,2.81,0,0,0,0,.29l59.21-8.72Zm2.07,5.64-61.28,9a1.4,1.4,0,0,0,0,.29l61.38-9C371.91,248.67,371.88,248.58,371.85,248.49Zm2,5.65-63.27,9.32v.28l63.36-9.32Zm1.89,5.66-65.07,9.58c0,.1,0,.2,0,.3l65.15-9.59Zm1.8,5.69-66.67,9.81c0,.1,0,.2,0,.29l66.74-9.82C377.58,265.68,377.55,265.58,377.52,265.49Z" style="opacity:0.1"></path><path d="M326.41,210.9,337,209.4s2,10.87,2,11.17-5.09,4.43-5.55,4.26-5.47-1.56-5.63-1.87S326.41,210.9,326.41,210.9Z" style="opacity:0.1"></path><rect x="245.32" y="229.7" width="65.53" height="72.56" style="fill:#FFC727"></rect><rect x="245.32" y="229.7" width="65.53" height="72.56" style="opacity:0.1"></rect><rect x="211.49" y="229.7" width="33.83" height="72.56" transform="translate(456.81 531.96) rotate(180)" style="fill:#FFC727"></rect><polygon points="272.53 245.38 273.91 245.38 274.95 245.38 275.55 244.17 276.38 245.38 277.52 242.9 278.59 245.38 281.65 245.38 283.06 245.38 283.56 243.72 284.04 245.38 284.95 245.38 284.95 229.7 272.53 229.7 272.53 245.38" style="fill:#fff"></polygon><g style="opacity:0.1"><path d="M213.82,297.26q3.77-7.74,7.45-15.52l7.34-15.61,7.25-15.68q3.6-7.84,7.13-15.75-3.75,7.74-7.45,15.53l-7.34,15.6L221,281.51Q217.35,289.36,213.82,297.26Z"></path><path d="M213.82,234.7q3.54,7.91,7.14,15.75l7.24,15.68,7.34,15.61q3.69,7.78,7.45,15.52-3.53-7.89-7.13-15.75l-7.25-15.68-7.34-15.6Q217.58,242.43,213.82,234.7Z"></path></g><polygon points="321.73 245.39 256.21 245.39 245.33 229.69 310.85 229.69 321.73 245.39" style="fill:#FFC727"></polygon><g style="opacity:0.2"><polygon points="321.73 245.39 256.21 245.39 245.33 229.69 310.85 229.69 321.73 245.39"></polygon></g><polygon points="234.46 245.4 200.72 245.4 211.6 229.7 245.33 229.7 234.46 245.4" style="fill:#FFC727"></polygon><polygon points="234.46 245.4 200.72 245.4 211.6 229.7 245.33 229.7 234.46 245.4" style="opacity:0.1"></polygon><path d="M323.89,198.38c3.31.31,9.46-4.4,11.11-9.29.11-.34-.93-3.48-2-7.36-.65-2.36-1.32-5-1.75-7.45-.09-.5-14.71,6.48-14.71,6.48a40,40,0,0,1,3.16,9.15,6,6,0,0,1,.07,1,1,1,0,0,0,0,.17C319.79,193.07,320.35,198,323.89,198.38Z" style="fill:#c95f50"></path><path d="M319.75,190.93a1,1,0,0,0,0,.17,10.79,10.79,0,0,0,1.59-.2c9-1.81,9.38-13.56,9.33-16.51-2.66.87-14.16,6.37-14.16,6.37a40,40,0,0,1,3.16,9.15A6,6,0,0,1,319.75,190.93Z" style="fill:#263238"></path><path d="M330.68,154.69c2.47,5.24,1.88,21.49-1.5,25.58-4.91,5.94-14.09,7.78-19.42,1.62-5.18-6-4-27.14-.14-31C315.34,145.26,327,147,330.68,154.69Z" style="fill:#c95f50"></path><path d="M316.62,166.41s.08.06.08.1c-.07,1.1,0,2.36,1,2.76a0,0,0,0,1,0,.06C316.5,169.12,316.38,167.44,316.62,166.41Z" style="fill:#263238"></path><path d="M317.63,165.3c1.77-.08,1.79,3.46.16,3.53S316.15,165.37,317.63,165.3Z" style="fill:#263238"></path><path d="M310.28,166.64s-.09.05-.09.1c.05,1.09-.09,2.35-1.08,2.72,0,0,0,.07,0,.07C310.33,169.35,310.49,167.67,310.28,166.64Z" style="fill:#263238"></path><path d="M309.29,165.5c-1.76-.12-1.87,3.42-.24,3.53S310.77,165.6,309.29,165.5Z" style="fill:#263238"></path><path d="M319,163.67a11.67,11.67,0,0,1-1.37-.47,2.38,2.38,0,0,1-1.31-.75.74.74,0,0,1,.12-.9,1.82,1.82,0,0,1,1.86-.21,2.71,2.71,0,0,1,1.58,1.17A.79.79,0,0,1,319,163.67Z" style="fill:#263238"></path><path d="M307.91,163.73a13.09,13.09,0,0,0,1.4-.37,2.36,2.36,0,0,0,1.36-.66.75.75,0,0,0-.05-.91,1.84,1.84,0,0,0-1.85-.33,2.65,2.65,0,0,0-1.65,1A.79.79,0,0,0,307.91,163.73Z" style="fill:#263238"></path><path d="M317.71,176.57c-.26.26-.52.61-.92.65a2.72,2.72,0,0,1-1.18-.27s-.07,0-.05.06a1.49,1.49,0,0,0,1.4.59,1.17,1.17,0,0,0,.85-1C317.83,176.56,317.74,176.53,317.71,176.57Z" style="fill:#263238"></path><path d="M316.53,173.3a3.73,3.73,0,0,1-2.48,1.68,4.61,4.61,0,0,1-1.34.07,1,1,0,0,1-.25,0l-.24,0a.29.29,0,0,1-.23-.25h0a.49.49,0,0,0,0-.12h0v-.1c0-.84,0-2.13,0-2.13-.31.16-1.87.88-1.85.44a56.1,56.1,0,0,1,1.36-11.3c0-.12.21-.09.2,0,0,3.51-.71,7-.81,10.52a6.53,6.53,0,0,1,1.76-.54c.12,0-.18,2.47-.14,2.85a.1.1,0,0,0,0,0,5.15,5.15,0,0,0,3.85-1.23C316.51,173.14,316.6,173.21,316.53,173.3Z" style="fill:#263238"></path><path d="M313.21,174.62A4.42,4.42,0,0,0,315,176a2.06,2.06,0,0,0,1.21.07c.87-.24.89-1,.72-1.73a4.64,4.64,0,0,0-.4-1A5.71,5.71,0,0,1,313.21,174.62Z" style="fill:#263238"></path><path d="M315,176a2.06,2.06,0,0,0,1.21.07c.87-.24.89-1,.72-1.73A2.06,2.06,0,0,0,315,176Z" style="fill:#ff99ba"></path><path d="M307.32,156.3c.59-1.4,1.27-2.8,2.1-3.08s1.41,1.75,3.31,1.86c2.57.15,3.79-2.22,7.38-2.51,5.16-.4,7.47,3.89,7.66,11.21.17,6.54,4.13,7.12,4.13,7.12s2.27-14.44-1.84-19.18-13.46-6.77-19.68-2.15C308.11,151.25,307.32,156.3,307.32,156.3Z" style="fill:#263238"></path><path d="M328.58,168.35s2.95-5.58,5.44-4.59.72,8.77-1.89,10.13a2.8,2.8,0,0,1-3.91-1Z" style="fill:#c95f50"></path><path d="M333.45,166a0,0,0,0,1,0,.07c-1.82,1-2.61,2.92-3.09,4.85a1.55,1.55,0,0,1,2.25-.71.06.06,0,0,1,0,.11,1.72,1.72,0,0,0-1.81.84,8.47,8.47,0,0,0-.71,1.63c-.07.18-.39.13-.35-.07v0C329.39,170.21,330.86,166.55,333.45,166Z" style="fill:#263238"></path><path d="M345.75,199.71c6.7,14.92,21.52,45.5,17.71,57-5,15.1-31.17,31.75-37.94,36.42-2.95,2-17.63-16.79-16.73-20.51s28.41-25.51,29.89-28-4.74-27.25-5.79-41.1C331.55,186.09,340.07,187.08,345.75,199.71Z" style="fill:#c95f50"></path><path d="M302,282.71c.8-1.64-.06-2.07-3-.65s-13.28,9.52-15.8,5.67,12.26-15.07,17.31-17.06,13.9-3.45,13.9-3.45C312,270,306.73,277.24,302,282.71Z" style="fill:#c95f50"></path><path d="M332.68,287.29c-7.16,7.53-15.6,17.33-26.86,20.55a5.84,5.84,0,0,1-3.8-.11c-5,1.53-7.25-.38-7.25-.38-5.12,0-7.13-2.27-7.13-2.27s-5.92,1.74-7.56-1.66c-1.85-3.81,6.82-5.51,11-9.35,9.62-8.82,20.83-24,23.35-26.85Z" style="fill:#c95f50"></path><path d="M307.67,291.92a85.2,85.2,0,0,1-8.86,7.23,83.87,83.87,0,0,1-11.12,5.8c-.12.05-.05.22.08.19a44.38,44.38,0,0,0,20-13.1C307.91,291.9,307.81,291.79,307.67,291.92Z" style="fill:#263238"></path><path d="M313.83,297c-2.94,2.31-8.14,6.34-19.11,10.29,0,0,0,.07,0,.06a39.81,39.81,0,0,0,19.2-10.21C314.11,296.93,314,296.79,313.83,297Z" style="fill:#263238"></path><path d="M317.09,299.71c-5.15,3.75-8.87,5.46-15,8,0,0,0,.08,0,.07,7.32-2.13,9.74-3.74,15.19-7.89C317.43,299.73,317.29,299.57,317.09,299.71Z" style="fill:#263238"></path><path d="M334,222.6l25,1.2s-11.57-24.94-17-31.31c-6.16-7.18-8.48-2.46-9.24,6.5S334,222.6,334,222.6Z" style="fill:#FFC727"></path><path d="M334,222.6l25,1.2s-11.57-24.94-17-31.31c-6.16-7.18-8.48-2.46-9.24,6.5S334,222.6,334,222.6Z" style="opacity:0.1"></path><path d="M335.13,218.12c3.2-.28,12.91.25,14.52.32.84,0,4.22.33,5.06.36.11,0,.08.17,0,.17-1.62-.06-3.24.05-4.86,0s-11.51-.22-14.71-.73A.07.07,0,0,1,335.13,218.12Z" style="fill:#263238"></path><path d="M347.83,201.85c-.05-.1.11-.17.16-.07,1.22,2,2.39,4,3.52,6.07a20.36,20.36,0,0,0-1.31-3.43s.05-.08.08,0a16.68,16.68,0,0,1,1.5,4c.79,1.43,1.56,2.86,2.32,4.31,1.92,3.66,3.9,7.32,5.61,11.1a.29.29,0,0,1-.29.4c-.87-.07-1.73-.17-2.59-.29-.09,0-.1-.16,0-.17.72-.06,1.43-.07,2.15-.09-2-3.49-3.73-7.09-5.58-10.64S349.6,205.6,347.83,201.85Z" style="fill:#263238"></path><path d="M332.5,212c-.26-1.29-.53-2.58-.75-3.88,0,0,0,0,0,0,.23.94.44,1.89.65,2.84-.11-1.94-.18-3.87-.16-5.8a0,0,0,0,1,.05,0c.4,2.9.64,5.83,1,8.74s.61,5.72.88,8.58c.56.12,1.13.22,1.7.32a.09.09,0,0,1,0,.17c-.63,0-1.26,0-1.89,0a.28.28,0,0,1-.32-.23C333.14,219.17,332.74,215.58,332.5,212Z" style="fill:#263238"></path></g><g id="freepik--Boxes--inject-102"><rect x="138.32" y="352.62" width="94.57" height="78.13" style="fill:#FFC727"></rect><rect x="232.88" y="352.62" width="37.47" height="78.14" style="fill:#FFC727"></rect><rect x="232.88" y="352.62" width="37.47" height="78.14" style="opacity:0.1"></rect><path d="M267.77,425.38q-4.15-8.34-8.25-16.73l-8.13-16.8-8-16.88q-4-8.46-7.9-17,4.16,8.34,8.25,16.73l8.12,16.8,8,16.88Q263.86,416.87,267.77,425.38Z" style="fill:#FFC727"></path><path d="M267.77,358q-3.91,8.52-7.9,17l-8,16.88-8.12,16.8q-4.09,8.4-8.25,16.73,3.9-8.52,7.9-17l8-16.88,8.13-16.8Q263.62,366.33,267.77,358Z" style="fill:#FFC727"></path><polygon points="192.29 369.51 190.8 369.51 189.67 369.51 189.03 368.2 188.13 369.51 186.92 366.83 185.76 369.51 182.46 369.51 180.95 369.51 180.41 367.72 179.89 369.51 178.91 369.51 178.91 352.62 192.29 352.62 192.29 369.51" style="fill:#fff"></polygon><rect x="254.7" y="352.62" width="70.55" height="78.13" style="fill:#FFC727"></rect><rect x="325.25" y="352.62" width="36.43" height="78.13" style="fill:#FFC727"></rect><rect x="325.25" y="352.62" width="36.43" height="78.13" style="opacity:0.1"></rect><g style="opacity:0.1"><path d="M320.08,425.37q-7.77-8.33-15.4-16.72l-15.18-16.8-15-16.88q-7.47-8.46-14.76-17,7.77,8.34,15.4,16.72l15.18,16.81,15,16.88Q312.78,416.86,320.08,425.37Z"></path><path d="M320.08,358q-7.31,8.52-14.76,17l-15,16.88-15.18,16.8q-7.62,8.39-15.4,16.72,7.31-8.5,14.76-17l15-16.88,15.18-16.81Q312.3,366.34,320.08,358Z"></path></g><rect x="350.17" y="417.53" width="6.38" height="9.01" style="fill:#fff"></rect><rect x="154.08" y="302.09" width="80.55" height="50.52" style="fill:#FFC727"></rect><rect x="154.08" y="302.09" width="80.55" height="50.52" style="opacity:0.1"></rect><rect x="234.64" y="302.1" width="36.43" height="50.53" style="fill:#FFC727"></rect><rect x="234.64" y="302.1" width="36.43" height="50.53" style="opacity:0.2"></rect><path d="M268.56,349.64q-4.05-5.2-8-10.46l-7.91-10.52-7.8-10.56q-3.89-5.3-7.68-10.62,4,5.22,8,10.46l7.9,10.52,7.8,10.57Q264.76,344.31,268.56,349.64Z" style="fill:#FFC727"></path><path d="M268.56,307.48q-3.81,5.32-7.69,10.62l-7.8,10.56-7.9,10.52q-4,5.25-8,10.46,3.79-5.33,7.68-10.61l7.8-10.57,7.91-10.52Q264.5,312.69,268.56,307.48Z" style="fill:#FFC727"></path></g></svg>