<svg xmlns="http://www.w3.org/2000/svg" viewBox="0 0 750 500"><g id="freepik--Floor--inject-145"><path d="M43.4,463.77c212.44-.61,450.76-.62,663.2,0-212.44,.62-450.76,.61-663.2,0h0Z" style="fill:#263238;"></path></g><g id="freepik--Character_4--inject-145"><g><g><g><polygon points="611.43 339.01 608.77 354.97 590.74 463.56 587.83 463.56 600.95 354.97 602.88 339.01 611.43 339.01" style="fill:#dbdbdb;"></polygon><polygon points="602.88 339.01 611.43 339.01 608.77 354.97 600.95 354.97 602.88 339.01" style="fill:#a6a6a6;"></polygon></g><g><polygon points="668.06 463.56 665.15 463.56 647.12 354.97 644.46 339.01 653.01 339.01 654.94 354.97 668.06 463.56" style="fill:#dbdbdb;"></polygon><polygon points="653.01 339.01 654.94 354.97 647.12 354.97 644.46 339.01 653.01 339.01" style="fill:#a6a6a6;"></polygon></g><g><polygon points="702.75 463.56 699.84 463.56 681.81 354.97 679.15 339.01 687.7 339.01 689.64 354.97 702.75 463.56" style="fill:#dbdbdb;"></polygon><polygon points="689.64 354.97 681.81 354.97 679.15 339.01 687.7 339.01 689.64 354.97" style="fill:#a6a6a6;"></polygon></g><polygon points="698.14 346.51 585.41 346.51 585.41 332.59 634.87 332.59 651.49 235.87 693.1 235.87 698.14 346.51" style="fill:#dbdbdb;"></polygon><polygon points="698.14 346.51 690.94 346.51 686.25 235.87 693.1 235.87 698.14 346.51" style="fill:#a6a6a6;"></polygon></g><g><g><g><g><path d="M593.26,462.8c2.5-.34,65.52-31.79,67.12-34.43,.2-.31-2.52-6.06-6.38-13.89-8.71-17.72-26.14-47.68-26.14-47.68l-37.94,21.32,20.89,39.56s-7.01,8.49-12.7,15.69c0,.01-.01,.02-.01,.03-3.5,4.43-6.51,8.38-7.06,9.55-1.44,3.08-.28,10.2,2.22,9.85Z" style="fill:#d3766a;"></path><path d="M593.26,462.79c2.51-.34,65.52-31.78,67.12-34.43,.2-.31-2.52-6.06-6.37-13.9-3.06-6.21-7.19-13.93-11.25-21.33l-39.91,19.45,7.96,15.08s-7.01,8.49-12.7,15.68c0,.02-.01,.02-.01,.03-3.5,4.42-6.51,8.37-7.06,9.56-1.44,3.08-.28,10.19,2.22,9.84Z" style="fill:#ebebeb;"></path><g><path d="M592.54,464.4c2.6-.4,66.07-33.02,67.7-35.79,.76-1.28-5.62-15.07-12.65-29.47l-41.35,21.1,4.02,7.35s-18.71,23.36-20.18,26.59c-1.45,3.23-.14,10.61,2.46,10.21Z" style="fill:#FFC727;"></path><g><g><path d="M592.14,461.39c10.5-5.73,53.41-27.85,64.23-32.71,.09-.04,.12,.02,.03,.07-10.29,5.91-53.38,27.67-64.18,32.82-.23,.11-.31-.05-.09-.17Z" style="fill:#263238;"></path><path d="M607.54,426c3.79-2.93,9.24-4.92,13.97-3.58,.18,.05,.11,.31-.05,.34-4.8,.82-9.09,1.97-13.63,3.77-.32,.13-.56-.31-.29-.52Z" style="fill:#263238;"></path><path d="M605.46,429.37c3.78-2.93,9.24-4.92,13.97-3.58,.18,.05,.11,.31-.05,.34-4.8,.82-9.09,1.97-13.63,3.77-.32,.13-.56-.31-.29-.52Z" style="fill:#263238;"></path><path d="M603.37,432.75c3.78-2.93,9.24-4.92,13.97-3.58,.18,.05,.11,.31-.05,.34-4.8,.82-9.09,1.97-13.63,3.77-.32,.13-.56-.31-.29-.52Z" style="fill:#263238;"></path><path d="M601.28,436.12c3.79-2.93,9.24-4.92,13.97-3.58,.18,.05,.11,.31-.05,.34-4.8,.82-9.09,1.97-13.63,3.77-.32,.13-.56-.31-.29-.52Z" style="fill:#263238;"></path></g><g><path d="M599.77,425.29c4.14,.78,8.48-.26,12.6-.76,.43-.05,.54-.54,.39-.86,.06-.05,.09-.13,.02-.2-2.94-2.91-7.32-5.35-11.38-6.28-2.5-.57-6.09-.02-6.57,3.1-.45,2.94,2.52,4.54,4.94,5Zm-2.8-2.82c-3.1-4.21,3.07-4.34,4.9-3.84,1.17,.32,2.33,.78,3.45,1.26,2.34,.99,4.5,2.3,6.72,3.52-2.04,.12-4.04,.41-6.07,.61-2.42,.23-7.29,.78-9-1.54Z" style="fill:#263238;"></path><path d="M623.48,409.91c-2.35-2.09-5.47-.23-7.04,1.8-2.53,3.3-4.35,7.97-4.76,12.09,0,.1,.07,.14,.14,.14,.09,.35,.49,.65,.85,.42,3.49-2.24,7.49-4.21,10.19-7.45,1.57-1.89,2.85-5.02,.62-7Zm-6.21,9.97c-1.69,1.14-3.42,2.2-5.07,3.4,.94-2.36,1.76-4.74,2.94-7,.56-1.08,1.15-2.18,1.86-3.17,1.09-1.55,5.93-5.39,6.23-.16,.17,2.88-3.94,5.56-5.95,6.93Z" style="fill:#263238;"></path></g></g></g></g><g><path d="M601.31,420.71l45.76-23.11s-33.34-62.35-32.46-63.49c3.08-3.97,40.21-2.16,56.25-18.11,16.98-16.88,3.67-43.19,3.67-43.19h-44.37s.75,14.32-1.16,15.9c-1.26,1.05-66.49,7.34-69.05,24.56-4.42,29.8,41.36,107.44,41.36,107.44Z" style="fill:#455a64;"></path><g><path d="M599.51,413.57c5.29-3.2,10.7-6.14,16.14-9.07,5.43-2.93,10.9-5.79,16.44-8.53,3.12-1.54,6.3-2.94,9.43-4.48,.1-.05,.18,.1,.08,.15-2.74,1.47-5.4,3.08-8.13,4.57-2.69,1.46-5.39,2.92-8.09,4.35-5.45,2.89-10.94,5.72-16.41,8.58-3.08,1.61-6.21,3.14-9.35,4.63-.13,.06-.24-.13-.11-.2Z" style="fill:#263238;"></path><path d="M597.14,326.81c1.09-2.25,3.99-2.59,6.14-3.12,5.9-1.47,11.8-2.95,17.7-4.41,10.45-2.59,21.23-5.03,30.59-10.57,4.47-2.64,8.82-5.99,11.05-10.82,2.19-4.72,2.23-9.97,2.27-15.07,0-1.26-.07-2.52-.15-3.78,0-.11,.16-.11,.17,0,.33,5.02,.84,10.04-.28,15.01-.54,2.39-1.45,4.72-2.81,6.77-1.37,2.07-3.15,3.83-5.1,5.36-8.28,6.5-18.67,9.61-28.72,12.17-5.68,1.45-11.38,2.83-17.07,4.22-2.93,.72-5.86,1.44-8.79,2.15-1.23,.3-2.63,.55-3.61,1.43-.91,.81-1.17,2.01-1.09,3.19,.08,1.2,.47,2.38,.89,3.5,.53,1.38,1.08,2.75,1.64,4.11,1.08,2.67,2.2,5.33,3.34,7.97,2.3,5.33,4.69,10.63,7.16,15.88,4.93,10.47,10.2,20.79,15.58,31.04,.67,1.28,1.32,2.56,1.98,3.85,.04,.08-.08,.14-.12,.07-5.76-10.14-11.14-20.5-16.26-30.97-5.08-10.39-9.92-20.95-14.03-31.77-.73-1.91-1.42-4.26-.47-6.22Z" style="fill:#263238;"></path></g><path d="M576.33,372.43l44.4-25.08c-3.8-7.52-6.37-12.91-6.12-13.24,3.07-3.97,40.21-2.16,56.25-18.11,16.98-16.88,3.66-43.19,3.66-43.19h-44.37s.75,14.33-1.16,15.9c-1.26,1.06-66.5,7.34-69.05,24.56-2.03,13.68,6.52,37.45,16.38,59.16Z" style="fill:#263238;"></path></g></g><g><g><path d="M494.65,462.66c2.4,.79,72.83,.04,75.42-1.64,.31-.19,.33-15.28,.33-15.28,3.81-19.69,7.75-51.65,7.75-51.65l-47.03-.06-5.34,44.71s-10.02,4.57-18.28,8.56c-.01,.01-.02,0-.02,.02-5.09,2.45-9.51,4.69-10.53,5.51-2.64,2.14-4.71,9.05-2.3,9.83Z" style="fill:#d3766a;"></path><path d="M494.66,462.66c2.39,.79,72.82,.04,75.42-1.64,.31-.19,.33-15.28,.33-15.28,1.38-7.09,2.76-15.77,3.98-23.97h-46.57l-2.03,16.98s-10.01,4.57-18.28,8.56c-.01,.01-.02,.01-.02,.02-5.09,2.46-9.51,4.69-10.53,5.5-2.64,2.15-4.7,9.06-2.3,9.83Z" style="fill:#ebebeb;"></path><g><path d="M493.67,463.27c2.5,.82,73.86,.39,76.57-1.34,.84-.54,1.36-7.53,1.68-16.91,.16-4.61,1.51-9.81,1.59-15.09l-47.66,.14,.26,8.37s-27.25,12.38-30.02,14.61c-2.75,2.22-4.92,9.41-2.42,10.22Z" style="fill:#FFC727;"></path><g><g><path d="M494.68,460.41c11.96-.36,60.23-.71,72.08-.16,.1,0,.1,.07,0,.08-11.85,.62-60.12,.57-72.08,.28-.25,0-.25-.19,0-.2Z" style="fill:#263238;"></path><path d="M524.41,435.79c4.7-.91,10.46-.22,14.08,3.11,.14,.13-.05,.33-.2,.28-4.65-1.44-9-2.35-13.86-2.8-.34-.03-.36-.53-.02-.59Z" style="fill:#263238;"></path><path d="M521.02,437.86c4.7-.91,10.46-.22,14.08,3.11,.14,.13-.05,.33-.2,.28-4.65-1.44-8.99-2.35-13.86-2.8-.34-.03-.36-.53-.02-.59Z" style="fill:#263238;"></path><path d="M517.64,439.93c4.7-.91,10.46-.22,14.08,3.11,.14,.13-.05,.33-.2,.28-4.65-1.44-9-2.35-13.86-2.8-.34-.03-.36-.53-.02-.59Z" style="fill:#263238;"></path><path d="M514.25,442c4.7-.91,10.46-.22,14.08,3.11,.14,.13-.05,.33-.2,.28-4.65-1.44-8.99-2.35-13.86-2.8-.34-.03-.36-.53-.02-.59Z" style="fill:#263238;"></path></g><g><path d="M517.8,431.65c3.34,2.57,7.68,3.6,11.58,5.02,.4,.15,.72-.23,.73-.59,.08-.01,.14-.07,.11-.17-1.31-3.92-4.12-8.08-7.31-10.74-1.97-1.64-5.43-2.77-7.26-.21-1.74,2.42,.2,5.19,2.15,6.69Zm-1.22-3.78c-.86-5.16,4.7-2.48,6.11-1.21,.9,.81,1.73,1.75,2.51,2.68,1.64,1.95,2.98,4.09,4.41,6.18-1.87-.81-3.79-1.46-5.69-2.2-2.26-.89-6.86-2.6-7.33-5.44Z" style="fill:#263238;"></path><path d="M545.9,428.64c-1.16-2.93-4.78-2.68-7.09-1.57-3.75,1.8-7.49,5.15-9.71,8.63-.05,.09,0,.16,.07,.19-.08,.35,.14,.8,.57,.75,4.12-.42,8.58-.37,12.45-2.04,2.26-.98,4.81-3.2,3.72-5.97Zm-10.05,6.09c-2.02,.26-4.05,.42-6.06,.75,1.9-1.68,3.72-3.43,5.78-4.92,.99-.71,2.01-1.42,3.09-1.99,1.67-.89,7.72-2.13,5.63,2.67-1.15,2.64-6.03,3.18-8.44,3.49Z" style="fill:#263238;"></path></g></g></g></g><g><path d="M524.22,427.57l53.16-.39s10.24-78.57,14.56-83.19c2.18-2.34,72.35-2.65,89.55-19.04,17.34-16.52,0-52.13,0-52.13h-45.27s-1.12,13.97,2.34,22.52c0,0-63.3,1.02-80.56,14.58-23.14,18.19-33.78,117.64-33.78,117.64Z" style="fill:#455a64;"></path><g><path d="M528.55,419.09c6.16-.45,12.32-.61,18.5-.76,6.17-.15,12.34-.21,18.51-.14,3.48,.04,6.95,.24,10.43,.28,.11,0,.12,.17,0,.17-3.11,.07-6.21,.3-9.32,.38-3.06,.08-6.12,.16-9.18,.21-6.17,.1-12.34,.13-18.51,.2-3.48,.04-6.95-.02-10.43-.11-.15,0-.16-.22,0-.23Z" style="fill:#263238;"></path><path d="M658.43,279.42c.06,.21,.15,.41,.25,.61,.02,.05,0,.08-.03,.1,.6,1.85,.84,3.82,1.42,5.68,.62,2.02,1.69,3.69,3.44,4.91,3.51,2.44,7.73,3.54,11.82,4.55,.13,.03,.09,.22-.04,.23-2.32,.07-4.76-.4-6.97-1.07-2.05-.62-4.17-1.5-5.88-2.82-1.71-1.32-2.82-2.99-3.37-5.08-.28-1.07-.42-2.17-.59-3.26-.19-1.24-.42-2.56-.41-3.82,0-.2,.3-.23,.35-.04Z" style="fill:#263238;"></path><path d="M630.28,292.23c2.79,.68,5.51,1.97,8.14,3.11,.04,.02,.08,.04,.13,.06-.06-.16-.1-.33-.12-.49-.03-.2-.06-.39-.09-.59-.03-.2-.05-.41-.07-.62l-.03-.31v-.04c-.64-.03-1.28-.32-1.75-.9-.6-.73-.85-1.67-1.09-2.56-.31-1.16-.59-2.32-.84-3.49-.28-1.3-.52-2.61-.73-3.93-.2-1.28-.44-2.59-.45-3.9,0-.21,.31-.24,.36-.04,.3,1.2,.44,2.44,.67,3.65,.23,1.22,.49,2.43,.77,3.64,.28,1.21,.58,2.42,.91,3.61,.29,1.06,.6,2.61,1.83,2.96,2.54,.72,1.4-4.98,1.29-6.1-.26-2.58-.42-5.22-.87-7.78-.02-.11,.14-.15,.17-.04,.55,2.35,1.18,4.66,1.6,7.05,.2,1.17,.35,2.35,.48,3.52,.11,1,.24,2.1-.23,3.03-.37,.74-1,1.14-1.68,1.24,.03,.09,.05,.18,.08,.27,.06,.19,.12,.38,.17,.57,.05,.19,.09,.38,.14,.58,.05,.21,.15,.49,.08,.7-.02,.07-.07,.12-.13,.15,1.09,.47,2.17,.94,3.25,1.44,1.29,.6,2.72,1.11,3.9,1.9,.15,.07,.03,.27-.11,.24-1.4-.3-2.76-.97-4.09-1.48-1.36-.52-2.7-1.07-4.05-1.63-2.59-1.07-5.36-2.11-7.74-3.61-.13-.08-.04-.27,.1-.23Z" style="fill:#263238;"></path><path d="M682.45,294.08c-.48-4.46-1.42-8.87-2.76-13.16-.35-1.11-.72-2.21-1.1-3.31-.04-.11-.21-.06-.17,.05,1.43,4.3,2.43,8.75,3.02,13.24,.58,4.34,.94,8.8,.41,13.16-.48,4.01-1.78,7.82-4.18,11.11-2.15,2.97-4.99,5.42-8.1,7.37-7.33,4.59-16.04,6.25-24.42,7.88-9.22,1.79-18.47,3.4-27.75,4.85-10.43,1.63-30.91,2.75-31.81,4.6-1.74,3.55-4.5,20.1-6.27,30.24-1.77,10.09-2.98,18.08-4.07,28.26-.62,5.78-1.16,11.57-1.49,17.37-.02,.38,.55,.35,.58-.01,.98-10.26,1.78-18.36,3.22-28.57,1.42-10.1,3.14-20.16,5.17-30.16,1.13-5.56,3.25-15.39,3.92-16.31,1.05-1.43,18.59-2.69,27.98-4.14,9.5-1.46,18.96-3.1,28.4-4.9,8.62-1.65,17.6-3.13,25.36-7.45,6.69-3.73,12.14-9.58,13.78-17.17,.92-4.24,.75-8.65,.29-12.94Z" style="fill:#263238;"></path><path d="M617.45,341.11c-1.83-.05-23.05,1.92-26.67,2.64-.26,.05-6.7,35.97-7.33,42.59-.08,.87,.25,1.68,.51,0,.49-3.26,7.92-41.65,7.93-41.67,3.62-.41,23.81-2.99,25.6-3.31,.15-.03,.1-.25-.04-.25Z" style="fill:#263238;"></path><path d="M636.79,295.25c-11.96,.17-25.35,1.43-37.2,2.95-5.5,.71-11.01,1.51-16.46,2.51-4.86,.89-9.72,2-14.36,3.72-2.54,.94-5.02,2.05-7.35,3.44-2.34,1.4-4.42,3.15-6.42,4.99-.09,.08,.04,.19,.13,.12,3.69-3.09,8.31-5.3,12.79-7,4.55-1.73,9.3-2.9,14.07-3.82,5.33-1.02,10.72-1.76,16.1-2.5,5.82-.8,11.65-1.5,17.49-2.11,6.59-.69,14.62-1.25,21.21-1.91,.25-.02,.24-.39,0-.39Z" style="fill:#263238;"></path></g></g></g></g><g><path d="M651.9,178.32s9.96-4.76,18.28,.97c8.32,5.73,11.73,18.94,9.68,29.77-2.05,10.83,6.59,18.51,7.13,26.66,.55,8.15-5.05,11.62-7.08,15.77-2.33,4.76,5.06,22.49-16.29,25.38-26.7,3.62-35.97-12.94-32.57-26.05,1.66-6.42,5.61-10.84,5.82-16.09,.21-5.25-3.33-9.64-1.02-16.19,2.32-6.55,4.87-5.51,6.5-15.91,1.63-10.4,.1-23.01,9.56-24.29Z" style="fill:#263238;"></path><path d="M668.36,178.94c5.53,3.98,9.53,9.36,11.72,15.49,1.11,3.1,1.7,6.35,1.74,9.61,.05,4.28-.83,8.23,.56,12.45,2.23,6.76,7.09,12.56,6.45,19.92-.29,3.4-1.56,6.68-3.69,9.46-2.46,3.21-5.86,5.67-7.96,9.14-.09,.14-.31,0-.23-.14,1.76-3.09,4.48-5.37,6.78-8.1,2.75-3.26,4.42-7.22,4.52-11.39,.17-7.02-4.63-12.68-6.67-19.2-.92-2.95-.84-5.76-.59-8.78,.3-3.58,.1-7.11-.81-10.62-1.8-6.92-6.1-13.04-11.9-17.74-.05-.04,.02-.12,.08-.08Z" style="fill:#263238;"></path><path d="M675.27,259.17s.03,.05,0,.05c-.03,0-.03-.05,0-.05Z" style="fill:#263238;"></path><path d="M631.23,248.94c.83-3.1,2.65-5.85,3.47-8.94,1-3.72,.23-7.52-.3-11.25-.76-5.32-.38-10.29,2.24-15.13,1.7-3.13,3.71-6.03,5.03-9.35,1.42-3.59,2.31-7.39,2.62-11.22,0-.08,.14-.08,.14,0-.26,5.65-1.61,10.94-4.39,15.97-1.6,2.89-3.54,5.57-4.54,8.73-1.2,3.79-1.01,7.52-.53,11.42,.32,2.59,.73,5.23,.57,7.84-.17,2.72-1.16,5.09-2.27,7.58-2.88,6.45-3.19,13.2-.94,19.89,.04,.12-.17,.19-.21,.07-1.9-5.03-2.27-10.43-.88-15.61Z" style="fill:#263238;"></path><path d="M687.75,234.82c.07-5.79-3.8-9.93-6.02-15.06-1.67-3.88-2.73-7.99-1.89-12.12,.01-.07,.14-.04,.13,.02-.64,6.02,1.64,11.62,4.76,16.85,2.07,3.48,3.77,6.81,3.57,10.85-.19,3.96-1.97,7.21-4.43,10.37-1.76,2.25-3.48,4.34-4.31,7.07-.83,2.71-.83,5.6-.84,8.4,0,.15-.24,.13-.25-.01-.16-4.35,0-8.55,2.42-12.38,2.97-4.71,6.79-8.1,6.86-13.98Z" style="fill:#263238;"></path><path d="M630.43,244.79c.99-1.94,2.32-3.68,3.66-5.42,2.41-3.13,2.93-5.74,2.38-9.64-.01-.09,.13-.12,.15-.03,.91,3.23,1.02,5.89-1.04,8.71-2.88,3.94-5.69,7.52-6.5,12.37-1.43,8.6,3.1,16.93,10.9,21.73,.11,.07,0,.22-.11,.16-6.57-3.63-10.99-9.8-11.6-16.84-.33-3.78,.41-7.62,2.15-11.04Z" style="fill:#263238;"></path></g><g><g><path d="M634.3,267.44s-4.52,7.12-5.72,12.06c-.52,2.13-.86,6.39-.86,6.39,0,0,48.21,11.43,62.11,12.28,0,0,1.49-4.64,.79-11.01-1.82-16.44-9.54-47.34-18.68-60.34-6.34-9.02-13.71-9.44-19.99-4.55-1.59,1.24-18.17,21.02-21.05,29.23-2.52,7.25,3.41,15.93,3.41,15.93Z" style="fill:#FFC727;"></path><g><path d="M644.61,266.11c-1.43-.15-2.9-.17-4.34-.03-1.39,.14-2.93,.3-4.23,.85-.1,.04-.04,.17,.05,.16,.72-.03,1.45-.17,2.17-.27,.7-.09,1.39-.16,2.09-.22,1.42-.12,2.83-.21,4.26-.26,.13,0,.12-.22,0-.23Z" style="fill:#263238;"></path><path d="M656.68,271.23c-2.69-.86-5.4-1.69-8.16-2.29-1.4-.3-2.8-.57-4.21-.78-1.46-.22-2.92-.31-4.38-.49-.11-.01-.13,.15-.02,.17,1.42,.2,2.81,.54,4.22,.81,1.36,.26,2.72,.52,4.07,.8,2.82,.58,5.66,1.14,8.45,1.88,.06,.02,.1-.08,.04-.1Z" style="fill:#263238;"></path></g></g><g><g><path d="M665.05,222.88c-.24,1.12-5.45,8.42-10.54,8.26-1.66-.06-1.76-9.12-1.76-9.12l-.16-.67-2.24-9.34,10.91-7.23,1.58-.96s.44,2.6,.96,5.84c.02,.15,.05,.3,.07,.46,.03,.18,.07,.35,.09,.53,.08,.48,.17,.98,.24,1.47,.06,.38,.11,.74,.16,1.14,.06,.4,.1,.78,.16,1.18,.47,3.92,.62,7.98,.52,8.45Z" style="fill:#eb9481;"></path><path d="M663.8,209.65c-2.57,7.5-8.49,10.63-11.21,11.7l-2.24-9.34,10.91-7.23,1.58-.96s.44,2.6,.96,5.84Z" style="fill:#263238;"></path></g><g><path d="M639.31,194.08c-4.95,16.12,4.15,20.9,7.62,21.97,3.16,.97,14.03,3.85,20.61-11.67,6.59-15.52,.66-22.92-6.45-25.51-7.1-2.59-16.85-.91-21.79,15.21Z" style="fill:#eb9481;"></path><g><path d="M641.86,193.98c.4,.01,.77-.05,1.16-.08,.45-.03,.8-.02,1.17-.31,.2-.15,.23-.52,.1-.72-.31-.48-.86-.57-1.4-.55-.58,.02-1.03,.19-1.47,.57-.42,.37-.09,1.07,.44,1.09Z" style="fill:#263238;"></path><path d="M652.65,197.19c-.33-.23-.59-.49-.89-.75-.34-.29-.64-.49-.77-.93-.07-.24,.12-.56,.34-.65,.53-.21,1.03,.05,1.46,.38,.46,.36,.72,.76,.85,1.32,.12,.55-.56,.92-.99,.62Z" style="fill:#263238;"></path><g><g><path d="M649.76,199.08s.08,.07,.06,.12c-.28,1.11-.42,2.44,.51,3.03,.03,.02,.01,.07-.02,.06-1.2-.45-1-2.2-.55-3.21Z" style="fill:#263238;"></path><path d="M651.02,198.13c1.83,.26,1.17,3.91-.52,3.67-1.67-.24-1.01-3.89,.52-3.67Z" style="fill:#263238;"></path></g><path d="M651.71,198.46c.28,.26,.53,.68,.9,.79,.44,.12,.84-.2,1.2-.51,.04-.03,.06,0,.05,.05-.12,.7-.51,1.37-1.28,1.34-.7-.03-1.08-.74-1.13-1.47,0-.14,.14-.31,.25-.2Z" style="fill:#263238;"></path></g><g><g><path d="M643.48,197.47s-.1,.04-.1,.09c-.16,1.14-.53,2.41-1.62,2.61-.03,0-.04,.06,0,.06,1.28,.04,1.76-1.66,1.73-2.76Z" style="fill:#263238;"></path><path d="M642.67,196.12c-1.8-.45-2.57,3.17-.9,3.59,1.64,.41,2.41-3.21,.9-3.59Z" style="fill:#263238;"></path></g><path d="M641.87,196.2c-.33,.13-.68,.42-1.03,.37-.4-.06-.61-.51-.79-.94-.02-.04-.05-.02-.06,.03-.17,.69-.09,1.46,.55,1.73,.58,.25,1.15-.25,1.47-.9,.06-.12,0-.34-.13-.28Z" style="fill:#263238;"></path></g><path d="M648.34,207.83c-.31,.23-.63,.56-1.05,.54-.4-.02-.84-.26-1.18-.45-.03-.02-.08,.01-.06,.05,.24,.48,.82,.83,1.36,.81,.53-.02,.84-.43,1.03-.89,.03-.06-.06-.1-.1-.07Z" style="fill:#263238;"></path><path d="M644.42,202.85s-.56,1.64-.71,2.43c-.01,.07,.17,.15,.44,.21,.01,0,.02,.01,.03,0,1.36,.49,2.87,.28,3.94-.7,.07-.07-.02-.17-.1-.13-1.2,.57-2.39,.54-3.64,.32-.01-.23,1.05-2.77,.92-2.81-.43-.12-1.34,0-1.88,.06,1.06-3.45,2.67-6.7,3.67-10.15,.03-.12-.14-.2-.2-.09-1.92,3.29-3.23,7.23-4.42,10.76-.15,.44,1.6,.16,1.94,.08Z" style="fill:#263238;"></path></g><g><path d="M666.99,205.64c-3.4-2.29-2.96-6.27-2.96-6.27-4.25-2.63-6.17-6.63-6.37-7.03,.06,.37,.48,3.02,.73,4.37-10.23-3.47-12.23-12.22-12.23-12.22-3.95,3.04-4.97,5.2-5.63,6.25,0,0,.93-6.67,4.93-10.67,4.89-4.9,10.28-3.11,10.28-3.11,0,0,8.56-1.39,13.84,6.6,5.68,8.62-2.59,22.07-2.59,22.07Z" style="fill:#263238;"></path><path d="M650.66,193.82c1.53,1.2,3.3,2.12,5.09,2.78,.01,0,.02-.02,0-.02-2.84-1.27-5.26-3.24-7-5.87-.74-1.11-1.34-2.31-1.78-3.58-.46-1.33-.87-2.9-.77-4.33,0-.11-.16-.12-.16,0-.1,1.52-.19,2.91,.19,4.39,.36,1.4,.97,2.75,1.8,3.91,.74,1.04,1.64,1.95,2.63,2.73h0Z" style="fill:#263238;"></path></g><g><path d="M663.64,204.2s4.7-4.37,6.76-2.59c2.06,1.78-2.25,8.66-5.21,9.1-2.96,.43-3.41-2.3-3.41-2.3l1.86-4.21Z" style="fill:#eb9481;"></path><path d="M669.12,203.55s.04,.07,0,.08c-2.09,.37-3.48,1.93-4.59,3.63,.72-.59,1.59-.81,2.39,.07,.04,.05-.02,.11-.07,.09-.75-.34-1.35-.32-2.02,.19-.47,.37-.85,.88-1.23,1.33-.13,.15-.42,0-.31-.19l.03-.04c.48-2.46,3.12-5.48,5.8-5.16Z" style="fill:#263238;"></path></g></g></g></g><g><path d="M671.88,226.75c14.79,23.43,25.13,57.49,19.74,73.12-2.6,7.53-12.13,5.81-18.27-8.56-6.43-15.08-9.42-43.25-9.65-53.4-.45-19.68,4.51-16.96,8.17-11.16Z" style="fill:#FFC727;"></path><g><path d="M671.9,294.85c-.39-2.32-.81-4.63-1.16-6.96l-1.13-6.96c-.73-4.64-1.5-9.28-2.15-13.93-.75-4.64-1.38-9.29-2.01-13.95-.32-2.33-.7-3.67-.96-6-.3-2.33-.5-4.67-.71-7.02-.08,4.71,.36,8.43,.8,13.12,.45,4.69,1.1,9.35,1.76,14.02,.75,4.65,1.5,9.3,2.42,13.91,.92,4.62,1.9,9.23,3.15,13.77Z" style="fill:#263238;"></path><path d="M664.11,245.97c-.12-.86-.34-1.66-.55-2.46-.12-.4-.22-.8-.36-1.19-.13-.4-.25-.8-.42-1.2-.12,.86,0,1.73,.23,2.55,.24,.82,.57,1.61,1.1,2.31Z" style="fill:#263238;"></path></g></g><g><path d="M691.4,299.55c-5.29,5.13-15.1,6.02-44.32,6.12-4.04,.01-11.81-28.49-7.5-28.73,5.44-.3,26.6-.28,28.15-.08,13.05,1.66,27.26,19.21,23.67,22.69Z" style="fill:#eb9481;"></path><g><path d="M651.31,278.67s-11-3.62-17.37-3.73c-8.53-.15-15.95,3.23-18.97,4.84-6.31,3.35-19.27,15.82-16.33,20.17,2.66,3.94,15.26-9.47,15.26-9.47,0,0-15.1,11.55-11.02,15.71,4.08,4.16,17.81-12.24,17.81-12.24,0,0-15.25,12.22-10.36,15.84,3.69,2.74,16.97-11.41,16.97-11.41,0,0-13.03,10.59-9.36,13.57,4.06,3.29,17.13-9,17.13-9,10.61,6,18.24,4.29,23.46,2.6,1.26-.41-7.21-26.89-7.21-26.89Z" style="fill:#eb9481;"></path><g><path d="M618.86,286.15c-1.82,1.29-3.68,2.59-5.38,4.04-1.7,1.45-3.35,2.96-4.91,4.56-3.82,3.93-5.6,6.99-5.47,6.81,3.09-4.19,9.1-9.47,10.8-10.92,1.7-1.45,3.32-2.98,5.02-4.43,.04-.04-.01-.09-.06-.06Z" style="fill:#263238;"></path><path d="M624.21,292.2c-2.26,1.75-4.56,3.41-6.74,5.26-2.17,1.84-4.06,3.78-6.1,5.77-.16,.15-.02,.19,.14,.04,2.11-1.9,4.21-3.5,6.35-5.38,2.13-1.87,4.2-3.84,6.39-5.64,.03-.03-.01-.08-.05-.05Z" style="fill:#263238;"></path><path d="M629.74,296.56c-3.58,2.5-6.7,5.66-9.69,8.83-.15,.16,.03,.18,.19,.03,3.17-3,5.63-5.37,9.59-8.74,.06-.05-.01-.18-.09-.12Z" style="fill:#263238;"></path></g></g><g><path d="M649.09,275.65l12.58,32.81s6.73,2.89,13.37,1.65c8.07-1.51,15.76-7,16.94-10.51,2.14-6.39-11.72-20.5-21.17-22.81-3.94-.97-21.72-1.13-21.72-1.13Z" style="fill:#FFC727;"></path><path d="M649.51,276.74l-.36-1.11-.05,.08c3.04,.16,6.07,.29,9.1,.48,3.03,.16,6.06,.36,9.06,.7,1.5,.17,3.01,.33,4.44,.7,1.45,.37,2.85,.89,4.22,1.5,2.73,1.25,5.23,3.01,7.46,5.07-1.99-2.3-4.43-4.25-7.18-5.65-1.37-.72-2.82-1.26-4.31-1.67-1.51-.41-3.03-.59-4.55-.79-3.04-.32-6.09-.46-9.13-.55-3.04-.04-6.09-.04-9.13,.1h-.09l.03,.08,.47,1.07Z" style="fill:#263238;"></path><path d="M659.62,279.38c.45,1.7,1.05,3.37,1.6,5.04,.55,1.67,1.12,3.34,1.71,5,1.18,3.32,2.37,6.63,3.61,9.92,.34,.9,.68,1.8,1.03,2.7,.38,.96,.88,1.87,1.25,2.83,.03,.07,.14,.03,.12-.04-.27-.82-.43-1.68-.69-2.51-.27-.86-.55-1.71-.85-2.56-.57-1.66-1.15-3.33-1.74-4.99-1.17-3.32-2.36-6.63-3.64-9.91-.72-1.85-1.4-3.74-2.23-5.55-.05-.11-.2-.05-.17,.06Z" style="fill:#263238;"></path></g></g></g></g></g><g id="freepik--Character_3--inject-145"><g><g><g><polygon points="455.21 339.01 452.54 354.97 434.51 463.56 431.61 463.56 444.72 354.97 446.66 339.01 455.21 339.01" style="fill:#dbdbdb;"></polygon><polygon points="446.66 339.01 455.21 339.01 452.54 354.97 444.72 354.97 446.66 339.01" style="fill:#a6a6a6;"></polygon></g><g><polygon points="511.83 463.56 508.92 463.56 490.89 354.97 488.23 339.01 496.78 339.01 498.72 354.97 511.83 463.56" style="fill:#dbdbdb;"></polygon><polygon points="496.78 339.01 498.72 354.97 490.89 354.97 488.23 339.01 496.78 339.01" style="fill:#a6a6a6;"></polygon></g><g><polygon points="546.52 463.56 543.62 463.56 525.59 354.97 522.92 339.01 531.47 339.01 533.41 354.97 546.52 463.56" style="fill:#dbdbdb;"></polygon><polygon points="533.41 354.97 525.59 354.97 522.92 339.01 531.47 339.01 533.41 354.97" style="fill:#a6a6a6;"></polygon></g><polygon points="541.91 346.51 429.18 346.51 429.18 332.59 478.64 332.59 495.26 235.87 536.88 235.87 541.91 346.51" style="fill:#dbdbdb;"></polygon><polygon points="541.91 346.51 534.71 346.51 530.02 235.87 536.88 235.87 541.91 346.51" style="fill:#a6a6a6;"></polygon></g><g><g><g><g><path d="M411.81,462.65c2.52,.32,71.73-14.01,73.97-16.18,.27-.24-.89-6.53-2.62-15.1l-.03-.17c-1.08-5.44-19.8-49.71-19.8-49.71l-44.92,11.1,19.03,41.13s-8.56,5.8-15.92,11.34c0,.01-.02,.01-.02,.02-4.54,3.4-8.47,6.45-9.31,7.46-2.18,2.62-2.89,9.82-.38,10.12Z" style="fill:#ad6359;"></path><path d="M411.81,462.64c2.51,.32,71.73-14.01,73.97-16.17,.27-.24-.9-6.52-2.63-15.11l-.04-.16c-.4-2.03-3.26-9.46-6.68-17.98-7.39,1.75-33.88,8.07-43.51,10.74l4.51,9.75s-8.56,5.81-15.92,11.34c0,.01-.01,0-.01,.02-4.54,3.4-8.47,6.46-9.31,7.46-2.18,2.63-2.89,9.83-.37,10.12Z" style="fill:#ebebeb;"></path><g><path d="M411.57,462.97c2.59,.3,71.86-14.21,74.15-16.44,.87-.84-.33-11.74-3.75-23.35l-44.65,9.41s-23.17,17.25-25.42,19.96c-2.24,2.7-2.92,10.11-.33,10.42Z" style="fill:#FFC727;"></path><g><path d="M411.99,459.99c11.55-2.72,58.4-12.59,70.03-14.4,.09-.01,.11,.05,.02,.07-11.39,2.94-58.32,12.44-70,14.52-.25,.04-.28-.13-.04-.19Z" style="fill:#263238;"></path><path d="M433.93,434.52c4.63-1.04,10.37-.53,14.05,2.67,.14,.12-.04,.32-.19,.28-4.66-1.29-8.99-2.06-13.82-2.36-.34-.02-.37-.51-.04-.59Z" style="fill:#263238;"></path><path d="M430.64,436.67c4.63-1.04,10.37-.53,14.05,2.67,.14,.12-.04,.32-.19,.28-4.66-1.29-8.99-2.06-13.82-2.36-.34-.02-.37-.51-.04-.59Z" style="fill:#263238;"></path><path d="M427.34,438.82c4.63-1.04,10.37-.53,14.05,2.67,.14,.12-.04,.33-.19,.28-4.66-1.29-8.99-2.06-13.82-2.36-.34-.02-.37-.51-.04-.59Z" style="fill:#263238;"></path><path d="M424.05,440.97c4.63-1.04,10.37-.53,14.05,2.67,.14,.12-.04,.32-.19,.28-4.66-1.29-8.99-2.06-13.82-2.36-.34-.02-.37-.51-.04-.59Z" style="fill:#263238;"></path></g><path d="M411.58,462.96c.8,.09,8.09-1.25,17.81-3.22l-6.25-16.4c-5.28,4.08-10.24,8.02-11.23,9.21-2.23,2.7-2.92,10.1-.33,10.41Z" style="opacity:.1;"></path></g></g><g><path d="M435.65,434.81l47.68-11.26s-40.03-88.13-36.54-92.77c1.75-2.32,46.14-3,60.26-14.98,18.34-15.56,6.04-39.33,6.04-39.33l-49.58-1.47s.6,10.37-1.34,11.93c-1.28,1.04-60.35,6.01-66.83,25.95-7.95,24.44,40.31,121.94,40.31,121.94Z" style="fill:#263238;"></path><path d="M438.31,326.67c1-.85,2.49-.96,3.74-1.17,7.16-1.2,14.31-2.41,21.47-3.6,6.7-1.12,13.43-2.12,20.09-3.41,5.52-1.07,11.13-2.5,15.91-5.5,4.78-3,8.08-7.51,9.75-12.77,1.67-5.26,1.78-10.92,1.26-16.36-.13-1.33-.37-2.66-.62-3.98-.02-.1,.14-.13,.16-.03,1.82,10.17,1.98,21.97-5.64,30.07-3.71,3.95-8.81,6.27-14.01,7.77-5.87,1.7-12.01,2.5-18.03,3.51-7.16,1.2-14.31,2.4-21.47,3.59-3.44,.57-6.94,1.02-10.36,1.74-.66,.14-1.4,.33-1.87,.83-.65,.68-.47,1.66-.3,2.48,.34,1.69,.8,3.36,1.28,5.01,3.91,13.35,32,75.97,32.77,77.43,.08,.15-.16,.27-.25,.12-6.57-11.71-27.4-59.83-31.73-72.45-1.11-3.23-2.13-6.49-2.81-9.83-.25-1.2-.39-2.56,.66-3.45Z" style="fill:#37474f;"></path><path d="M433.45,423.25c1.3-.6,13.82-3.59,16.58-4.24,5.53-1.3,22.97-5.11,26.17-5.47,.08,0,.12,.13,.03,.16-2.71,.94-13.8,3.65-16.57,4.28-5.54,1.27-24.59,5.5-26.16,5.52-.14,0-.18-.19-.05-.25Z" style="fill:#37474f;"></path></g></g><g><g><path d="M341.86,463.71c2.4,.81,73.09,.55,75.71-1.13,.31-.18,.42-6.57,.44-15.32v-.17c.03-5.54,1.73-52.91,1.73-52.91l-44.24-.37-2.76,46.64s-9.55,3.98-17.86,7.94c-.01,.01-.02,.01-.02,.02-5.13,2.42-9.58,4.64-10.61,5.45-2.66,2.13-4.79,9.05-2.38,9.84Z" style="fill:#ad6359;"></path><path d="M341.86,463.71c2.4,.81,73.09,.55,75.71-1.13,.31-.17,.42-6.57,.43-15.32v-.17c0-.38,0-.78,.02-1.17,0-.28,0-.57,.02-.85,0-.42,.02-.84,.03-1.26,.09-3.68,.28-9.66,.5-16.21l-45.07-.29-.78,13.16s-9.54,3.98-17.86,7.94c-.01,0-.02,0-.02,.02-5.13,2.43-9.58,4.64-10.6,5.45-2.66,2.14-4.79,9.05-2.39,9.84Z" style="fill:#ebebeb;"></path><g><path d="M341.57,463.98c2.48,.81,73.25,.38,75.94-1.34,1.02-.65,2.02-11.57,.97-23.63l-45.63,.33s-26.14,12.29-28.89,14.49c-2.73,2.21-4.88,9.33-2.4,10.14Z" style="fill:#FFC727;"></path><g><path d="M342.57,461.14c11.86-.36,59.74-.71,71.49-.17,.1,0,.1,.07,0,.07-11.75,.62-59.63,.58-71.49,.29-.25,0-.25-.19,0-.19Z" style="fill:#263238;"></path><path d="M369.14,440.56c4.75-.09,10.26,1.55,13.24,5.41,.12,.15-.1,.31-.24,.24-4.31-2.19-8.4-3.81-13.08-5.07-.33-.09-.26-.58,.08-.59Z" style="fill:#263238;"></path><path d="M365.48,442.01c4.75-.09,10.26,1.55,13.24,5.41,.11,.15-.1,.31-.24,.24-4.31-2.19-8.4-3.81-13.08-5.07-.33-.09-.26-.58,.08-.59Z" style="fill:#263238;"></path><path d="M361.83,443.46c4.75-.09,10.26,1.55,13.24,5.41,.12,.15-.1,.31-.24,.24-4.31-2.19-8.4-3.81-13.08-5.07-.33-.09-.26-.58,.08-.58Z" style="fill:#263238;"></path><path d="M358.17,444.91c4.75-.09,10.26,1.55,13.24,5.41,.12,.15-.1,.31-.24,.24-4.31-2.19-8.4-3.81-13.08-5.07-.33-.09-.26-.58,.08-.59Z" style="fill:#263238;"></path></g></g></g><g><path d="M368.32,439.01l51.84-.46s-.62-82.06,3.29-87.07c5.21-6.67,78.16-6.51,93.81-28.26,14.05-19.53,2.19-47.16,2.19-47.16l-55.24-1.64s1.72,8.77,5.12,17.4c0,0-66.55,12.28-85.19,32.69-12.58,13.78-15.82,114.5-15.82,114.5Z" style="fill:#263238;"></path><g><path d="M459.61,288.03c1.6,.28,3.17,.93,4.68,1.5,1.59,.6,3.15,1.29,4.67,2.04,3.02,1.47,5.9,3.16,8.74,4.94,.09,.06,0,.18-.09,.13-2.99-1.55-6.07-2.95-9.17-4.28-1.49-.64-2.98-1.28-4.46-1.92-1.5-.65-3.09-1.2-4.51-2-.19-.11-.08-.45,.14-.41Z" style="fill:#37474f;"></path><path d="M462.92,274.4c.63,2.52,1.19,5.06,1.91,7.56,.33,1.15,.66,2.31,1.09,3.43,.37,.94,.92,2.01,2.01,2.22,1.25,.24,1.61-.83,1.51-1.86-.11-1.15-.41-2.31-.64-3.45-.26-1.31-.53-2.62-.77-3.93-.12-.66-.24-1.31-.35-1.97-.03-.17-.15-1.42-.24-1.78-.01,.03-.03,.06-.07,.05h-.04s-.07-.03-.08-.07c-.01-.1-.01-.12,.06-.19,.03-.03,.08-.03,.11,0,.24,.13,.26,.46,.33,.7,.2,.64,.41,1.28,.6,1.92,.35,1.2,.69,2.41,.99,3.63,.31,1.21,.6,2.43,.9,3.65,.22,.91,.49,1.87,.24,2.8-.27,1.02-1.08,1.53-1.98,1.61,.04,.08,.1,.16,.13,.25,.11,.25,.19,.51,.28,.77,.1,.26,.18,.52,.26,.79,.04,.13,.06,.26,.07,.39,.02,.15-.01,.29,0,.44,.03,.23-.28,.36-.39,.14-.07-.13-.16-.23-.24-.35-.08-.13-.13-.28-.18-.42-.09-.25-.16-.5-.22-.76-.06-.25-.14-.51-.19-.77-.03-.15-.03-.31-.05-.47-.51-.05-1.02-.23-1.45-.55-.75-.57-1.19-1.44-1.51-2.3-.38-1.05-.68-2.14-.97-3.21-.73-2.66-1.35-5.37-1.61-8.13-.03-.29,.38-.4,.46-.1Z" style="fill:#37474f;"></path><path d="M495.77,280.57c.23,1.25,.37,2.52,.66,3.76,.28,1.21,.61,2.43,1.01,3.61,.38,1.13,.85,2.27,1.54,3.25,.66,.95,1.54,1.77,2.45,2.49,1.78,1.41,3.79,2.53,5.92,3.3,1.08,.39,2.18,.71,3.29,.96,.58,.13,1.17,.23,1.76,.31,.49,.06,.98,.08,1.42,.33,.19,.11,.16,.4-.03,.49-.75,.37-1.81,.17-2.62,.08-.94-.1-1.88-.26-2.8-.49-1.85-.47-3.65-1.25-5.29-2.23-1.61-.96-3.23-2.16-4.42-3.62-1.23-1.52-1.92-3.3-2.36-5.18-.53-2.26-.89-4.72-.77-7.04,0-.14,.22-.16,.24-.02Z" style="fill:#37474f;"></path><path d="M415.57,354.81c.13-1.49,.42-2.99,.97-4.39,1.15-2.94,3.6-4.42,6.55-5.17,3.49-.88,7.1-1.41,10.65-1.99,3.63-.59,7.27-1.12,10.91-1.62,7.38-1.03,14.76-1.98,22.11-3.21,7.31-1.23,14.59-2.74,21.69-4.88,6.53-1.97,13.22-4.41,18.44-8.94,11.24-9.75,11.65-26.08,10.28-39.74-.19-1.93-.43-3.85-.66-5.78-.01-.1,.14-.13,.15-.03,.89,7.69,1.93,15.44,1.16,23.19-.63,6.34-2.48,12.7-6.15,17.96-3.8,5.46-9.44,8.99-15.53,11.45-6.65,2.69-13.68,4.5-20.69,5.96-14.58,3.05-29.45,4.35-44.12,6.86-1.81,.31-3.62,.64-5.42,.99-1.65,.32-3.34,.62-4.89,1.31-3.33,1.49-4.28,4.73-4.66,8.09-1.39,12.25-3.47,68-3.45,69.95,0,.17-.27,.16-.27-.01-.4-20.61,1.52-54.22,2.92-69.98Z" style="fill:#37474f;"></path><path d="M420.31,379.52c.07-5.39,.23-3.02,.35-8.41,.11-5.08,0-10.26,.99-15.27,.4-2.02,.76-4.7,2.93-5.63,1.12-.48,2.35-.74,3.53-1.05,1.28-.34,2.56-.66,3.85-.94,5.95-1.28,11.98-2.09,18.01-2.9,.11-.01,.16,.15,.04,.17-5.1,.98-10.21,1.99-15.27,3.14-2.53,.58-5.06,1.18-7.57,1.87-1.03,.28-2.43,.48-3.15,1.33-.75,.88-.97,2.32-1.23,3.41-1.16,4.92-1.08,10.05-1.21,15.07-.14,5.2-.27,2.65-.42,7.86-.17,5.84-.32,11.7-.72,17.53-.01,.16-.24,.15-.25,0-.11-5.39,.04-10.78,.11-16.17Z" style="fill:#37474f;"></path><path d="M373.24,428.44c1.4-.31,14.27-.49,17.11-.52,5.68-.06,23.53,.02,26.73,.36,.09,0,.08,.15,0,.16-2.84,.33-14.27,.55-17.1,.57-5.68,.03-25.19,.02-26.74-.31-.14-.03-.14-.22,0-.25Z" style="fill:#37474f;"></path></g><path d="M468.97,291.96c-10.18,1.11-20.29,3.4-30.14,6.19-9.93,2.81-19.67,6.3-29.08,10.53-5.28,2.38-10.4,5.03-15.48,7.82-.1,.06,0,.2,.09,.15,9.1-4.75,18.64-8.84,28.28-12.35,9.61-3.5,19.45-6.38,29.45-8.55,5.63-1.22,11.3-2.18,16.98-3.12,.38-.06,.27-.71-.11-.67Z" style="fill:#263238;"></path></g></g></g><g><g><path d="M524.43,293.98c-.17,.17-62.44-3.93-63.02-4.66-.21-.27,.26-5.59,.26-5.59,0,0-4-5.63-1.13-14.03,6.09-17.78,18.25-53.27,21.86-57.03,4.4-4.58,11.63-5.65,16.71-2.24,10.66,7.14,24.24,55.01,27.91,66.35,1.81,5.6-2.44,8.83-3.24,11.36,0,0,.85,5.63,.63,5.85Z" style="fill:#455a64;"></path><path d="M463.01,284.65c2.07,.04,17.37,1.21,21.41,1.46,8.09,.51,15.23,.95,23.32,1.42,2.26,.13,4.52,.25,6.78,.37,2.36,.12,4.7,.4,7.06,.54,.11,0,.11,.18,0,.18-2.07-.03-4.15,.07-6.22,0-1.98-.06-3.95-.13-5.93-.2-4.05-.15-7.15-.34-11.19-.55-8.09-.42-32.9-2.61-35.23-2.96-.16-.02-.17-.26,0-.26Z" style="fill:#263238;"></path></g><g><g><path d="M483.29,222.15c3.96,.72,11.21-6.14,13.61-11.12,.16-.34-.53-3.82-1.16-8.08-.38-2.59-.74-5.48-.87-8.14l-16.49,4.91s1.93,5.5,2.14,10.14c.01,.39,0,.75-.06,1.1,0,.05-.01,.11-.02,.18-.23,2.09-.98,10.31,2.85,11.02Z" style="fill:#ffc4c0;"></path><path d="M480.46,210.95s-.01,.1-.01,.17c.53,.05,1.1,.05,1.72,.01,9.65-.71,11.32-12.66,11.59-16.01l-4.12,1.23-11.26,3.36s1.93,5.5,2.13,10.14c.02,.39,0,.75-.05,1.1Z" style="fill:#263238;"></path></g><g><path d="M500.14,181.81c.25,6.19-7.12,21.97-12.17,24.59-7.32,3.81-17.13,1.78-19.82-6.52-2.61-8.04,7.36-28.43,12.79-30.6,8.01-3.19,18.82,3.37,19.19,12.52Z" style="fill:#ffc4c0;"></path><g><g><path d="M481.01,188.29s.06,.09,.04,.13c-.52,1.05-.95,2.34-.15,3.14,.02,.02,0,.08-.04,.06-1.1-.71-.52-2.41,.15-3.32Z" style="fill:#263238;"></path><path d="M482.47,187.62c1.77,.66,.32,4.16-1.32,3.55-1.62-.6-.17-4.1,1.32-3.55Z" style="fill:#263238;"></path></g><g><path d="M474.95,185.54s-.11,.02-.12,.06c-.41,1.1-1.07,2.28-2.2,2.24-.04,0-.05,.05-.02,.06,1.27,.33,2.13-1.26,2.34-2.36Z" style="fill:#263238;"></path><path d="M474.45,184.01c-1.69-.85-3.27,2.58-1.71,3.37,1.54,.78,3.12-2.66,1.71-3.37Z" style="fill:#263238;"></path></g><path d="M484.83,185.96c-.44-.3-.79-.66-1.19-1-.45-.39-.85-.65-1.01-1.26-.09-.32,.16-.74,.47-.86,.71-.27,1.38,.07,1.94,.52,.61,.49,.96,1.02,1.12,1.78,.16,.74-.75,1.22-1.33,.82Z" style="fill:#263238;"></path><path d="M474.32,180.51c.52,.12,1.02,.15,1.54,.22,.59,.08,1.05,.2,1.61-.08,.3-.15,.45-.62,.33-.92-.27-.71-.97-.98-1.68-1.1-.77-.13-1.39-.04-2.07,.35-.66,.37-.41,1.38,.27,1.54Z" style="fill:#263238;"></path><path d="M478.43,198.52c-.36,.15-.77,.39-1.17,.26-.39-.12-.76-.48-1.05-.76-.03-.03-.08,0-.07,.04,.11,.53,.59,1.04,1.13,1.16,.53,.12,.94-.21,1.25-.6,.04-.06-.03-.11-.08-.09Z" style="fill:#263238;"></path><path d="M478.64,194.81c-1,.69-2.1,.83-3.14,.62-.47-.09-.92-.27-1.35-.49-.09-.04-.17-.08-.24-.13-.08-.04-.14-.08-.22-.13-.12-.07-.15-.2-.12-.33h0s.03-.08,.06-.11h0l.04-.1c.32-.84,.93-2.08,.93-2.08-.37,.03-2.21,.08-2.01-.34,1.71-3.52,3.61-7.43,6.06-10.57,.08-.11,.25,0,.19,.11-1.51,3.45-3.62,6.6-5.19,10.04,.57,.02,1.53,0,1.96,.19,.1,.08-1.22,2.37-1.33,2.76,0,0,0,.02,0,.04,1.33,.76,2.56,.77,4.31,.4,.11-.03,.16,.08,.06,.14Z" style="fill:#263238;"></path></g><g><path d="M492.61,189.1c-.22-3.52,3.1-8.42,1.89-10.31-2.63-4.08-11.41-.02-16.32-1.32-4.76-1.26-5.51-4.75-3.61-8.37,1.91-3.62,5.89-5.32,11.43-4.66,5.74,.68,10.16,4.27,12.42,6.76,0,0-.68-2.25-.06-2.73,.61-.48,2.43,2.01,2.93,2.99,.5,1,.54,2.61,.54,2.61,0,0,.94-.02,2.23,.37,1.2,.36,2.46,1.72,2.47,2.03,0,.31-1.78,.06-3.01-.21,0,0,1.44,3.62,.69,6.17-.75,2.55-8.06,13.67-9.06,13.54-1.28-.17-2.46-5.42-2.54-6.86Z" style="fill:#263238;"></path><path d="M503.14,175.81s-.11,0-.08,.05c.88,1.31,1.5,2.73,1.58,4.33,.09,1.86-.53,3.68-1.39,5.31-1.67,3.17-4.15,5.78-6.43,8.5-.07,.08,.07,.19,.14,.12,2.6-2.73,5.3-5.73,6.94-9.16,1.39-2.92,1.64-6.66-.76-9.16Z" style="fill:#263238;"></path><path d="M495.02,177.6c-1.34-.57-2.93-.86-4.39-.89-1.44-.03-2.81,.5-4.19,.82-3.1,.73-6.37,1.06-9.43,.02-.04-.01-.06,.05-.02,.06,2.75,1.13,5.77,1.04,8.65,.47,1.45-.29,2.9-.87,4.38-.98,1.68-.13,3.32,.34,4.92,.75,.17,.04,.24-.19,.08-.25Z" style="fill:#263238;"></path><path d="M495.86,169.05c-1.64-1.5-3.55-2.7-5.55-3.67-1.92-.93-3.96-1.66-6.09-1.89-3.67-.38-7.52,.98-9.33,4.37-.92,1.72-1.27,3.78-.78,5.68,.03,.13,.22,.09,.2-.04-.59-3.56,1.03-7.24,4.35-8.84,3.57-1.72,7.67-.81,11.12,.75,2.17,.98,4.15,2.27,6.06,3.67,.01,0,.03,0,.02-.02Z" style="fill:#263238;"></path></g><g><path d="M493.06,194.38s5.24-4.27,7.28-2.26c2.04,2.01-2.95,8.94-6.09,9.2-3.14,.25-3.43-2.65-3.43-2.65l2.24-4.29Z" style="fill:#ffc4c0;"></path><path d="M498.86,194.08s.04,.08,0,.08c-2.22,.24-3.79,1.79-5.07,3.5,.8-.57,1.72-.74,2.51,.24,.04,.05-.03,.12-.08,.09-.77-.41-1.39-.43-2.13,.07-.52,.35-.95,.86-1.38,1.32-.14,.15-.44-.03-.31-.22l.03-.04c.67-2.55,3.65-5.54,6.44-5.03Z" style="fill:#263238;"></path></g></g><g><polygon points="480.15 213.55 481.91 221.28 496.66 206.28 497.91 210.63 483.43 227.93 481.66 222.19 478.04 225.74 478.38 217 480.15 213.55" style="fill:#ebebeb;"></polygon><path d="M497.91,210.63c-4.76,6.02-9.66,11.94-14.59,17.82l-.13-.44-1.74-5.75,.37,.09-3.66,3.52-.31,.3c.14-3.06,.34-6.11,.53-9.16-.05,2.92-.08,5.83-.17,8.75l-.29-.13,3.59-3.59,.26-.26,.11,.36,1.79,5.73-.43-.09c4.83-5.77,9.69-11.51,14.68-17.14h0Z" style="fill:#263238;"></path></g></g><g><g><path d="M503.85,225.46c.97,19.4-3,54.6-7.07,60.21-3.61,4.97-28.11,7.7-38.91,9.09-4.04,.52-7.22-27.12-2.89-27.59,5.2-.56,21.8-4.08,22.52-5.25,.8-1.28,8.24-24.09,14.38-38.23,5.57-12.82,11.6-5.57,11.97,1.77Z" style="fill:#ffc4c0;"></path><g><path d="M440.15,270.03c-7.85,2.81-9.44,4.73-17.32,3.59-5.17-.75-7.88,2.23-3.48,5.42,7.2,5.23,18.09,3.73,21.71,2.13l-.91-11.14Z" style="fill:#ffc4c0;"></path><path d="M463.27,266.91s-10.61-.27-19.27,1.9c-5.99,1.5-18.66,6.21-23.9,23.88-1.24,4.19-.04,11.05,4.48,4.94,3.21-4.34,3.93-8.06,6.26-10.24,0,0,2.56,8.54,6.81,9.62,1.9,.48,7.11,1.68,11.3,2.03,0,0,.32-.89,.57-2.08,0,0,4.06,.63,9.3-2.78l4.46-27.26Z" style="fill:#ffc4c0;"></path><g><path d="M438.51,271.15c-1.85,2.66-5.67,8.35-7.18,14.1-1.68,6.38-3.18,19.13,1.54,20.32,3.46,.87,4.47-3.95,4.47-3.95,0,0,.49,5.4,3.79,5.5,3.01,.09,3.56-3.68,3.56-3.68,0,0,.86,3.23,3.77,2.76,3.51-.56,1.13-7.23,4.19-10.87,.69-.82-14.14-24.19-14.14-24.19Z" style="fill:#ffc4c0;"></path><g><path d="M438.36,285.9c-1.33,2.78-2.73,9.88-1.13,15.64,.04,.13,.15,.17,.15,.05-.41-6.71,.5-13.01,1.04-15.67,0-.04-.05-.05-.06-.02Z" style="fill:#263238;"></path><path d="M444.76,287.77c-.9,2.52-2.01,9.9-.2,15.67,.04,.13,.16,.16,.15,.04-.72-6.99-.28-13.02,.11-15.7,0-.04-.05-.04-.06-.01Z" style="fill:#263238;"></path></g></g></g></g><g><path d="M461.65,298.92l-4.61-34.08,19.61-3.67c4.07-11.04,12.21-33.12,16.17-40.33,4.65-8.46,10.82-5.79,11.67,4.01,1.94,22.41-3.5,58.44-6.83,62.97-4.77,6.49-36,11.1-36,11.1Z" style="fill:#455a64;"></path><g><path d="M468.83,295.32c.08-2.32-1.16-11.81-1.5-14.17-.33-2.31-2-11.79-2.36-14.21-.02-.13-.21-.14-.2,0,.31,2.41,3.22,26.16,3.93,28.4,.02,.08,.12,.06,.12-.01Z" style="fill:#263238;"></path><g><path d="M475.37,297.94c3.07-1,6.11-2.09,9.12-3.26,4.35-1.87,9.2-3.42,12.7-6.67,2.51-4.04,2.92-9.15,3.82-13.77,1.9-12.77,2.88-25.66,3.87-38.53-.34,12.92-1.16,25.86-3.18,38.64-.95,4.73-1.41,9.83-4.16,13.96-3.61,3.32-8.52,4.76-12.98,6.56-3.04,1.11-6.1,2.13-9.2,3.06h0Z" style="fill:#263238;"></path><path d="M504.66,241.24c.16-1.2,.56-2.38,.84-3.55,.05,1.23-.36,2.43-.84,3.55h0Z" style="fill:#263238;"></path></g><g><path d="M485.76,237.59c-2.84,7.39-5.2,15.29-8.29,22.58-.25,.43-.36,1.08-.87,1.27-6.46,1.54-13.01,2.4-19.56,3.42,.02-.11,.14,.92,.13,.91l-.16-.92s11.12-2.12,11.13-2.14l5.55-1.07c.95-.21,1.97-.38,2.82-.68,.04-.08,.15-.23,.21-.36,3.32-7.53,5.7-15.47,9.04-23h0Z" style="fill:#263238;"></path><path d="M484.57,238.36c-.02,1.21-.28,2.44-.42,3.64-.19-1.22,.07-2.47,.42-3.64h0Z" style="fill:#263238;"></path></g></g></g></g></g></g></g></g><g id="freepik--Character_2--inject-145"><g><g><g><polygon points="298.96 339.01 296.3 354.97 278.27 463.56 275.36 463.56 288.48 354.97 290.41 339.01 298.96 339.01" style="fill:#dbdbdb;"></polygon><polygon points="290.41 339.01 298.96 339.01 296.3 354.97 288.48 354.97 290.41 339.01" style="fill:#a6a6a6;"></polygon></g><g><polygon points="355.59 463.56 352.68 463.56 334.65 354.97 331.99 339.01 340.54 339.01 342.47 354.97 355.59 463.56" style="fill:#dbdbdb;"></polygon><polygon points="340.54 339.01 342.47 354.97 334.65 354.97 331.99 339.01 340.54 339.01" style="fill:#a6a6a6;"></polygon></g><g><polygon points="390.28 463.56 387.37 463.56 369.34 354.97 366.68 339.01 375.23 339.01 377.17 354.97 390.28 463.56" style="fill:#dbdbdb;"></polygon><polygon points="377.17 354.97 369.34 354.97 366.68 339.01 375.23 339.01 377.17 354.97" style="fill:#a6a6a6;"></polygon></g><polygon points="385.67 346.51 272.94 346.51 272.94 332.59 322.4 332.59 339.02 235.87 380.63 235.87 385.67 346.51" style="fill:#dbdbdb;"></polygon><polygon points="385.67 346.51 378.47 346.51 373.77 235.87 380.63 235.87 385.67 346.51" style="fill:#a6a6a6;"></polygon></g><g><g><g><path d="M190.22,430.92c2.26,1.32,71.83,15.86,74.83,14.74,1.14-.42,3.85-10.43,6.78-22.61,.63-2.63,1.27-5.35,1.9-8.12,4.12-17.96,8.08-37.11,8.08-37.11l-46.51-9.86-6.8,37.39-1.5,8.21s-29.13,6.35-32.29,7.93c-3.15,1.59-6.76,8.13-4.5,9.45Z" style="fill:#d3766a;"></path><path d="M270.7,427.7c-2.48,9.99-4.66,17.6-5.65,17.97-3,1.12-72.57-13.43-74.83-14.75-2.26-1.32,1.35-7.85,4.49-9.45,1.95-.97,13.79-3.76,22.57-5.76-7.67,1.83-21.98,7.04,7.61,9.17,24.47,1.78,40.61,2.59,45.8,2.81Z" style="fill:#263238;"></path></g><g><g><path d="M253,466.5c2.52,.7,73.5-2.96,76.12-4.81,1-.7-.68-16.27-1.42-19.01-2.52-9.28-15.57-50.17-15.57-50.17l-47.49,2.31,19.5,45.5s-26.55,13.56-29.2,15.9c-2.64,2.34-4.46,9.58-1.94,10.28Z" style="fill:#d3766a;"></path><path d="M329.12,461.68c-2.62,1.85-73.59,5.52-76.12,4.82-2.52-.71-.7-7.95,1.94-10.29,1.24-1.09,7.66-4.6,14.16-8.05-8.16,4.59-21.08,14.84,59.28-3.43,.73,8.13,1.28,16.57,.74,16.94Z" style="fill:#263238;"></path></g><g><path d="M363.11,326.12c-14.15,15.76-61.68,3.31-64.52,9.58-2.5,5.53,29.93,94.35,29.93,94.35l-51.9,5.6s-44.8-98.09-28.79-126.43c8.65-15.31,46.77-9.2,69.77-12.01,6.94-.84,10.2-15.15,10.2-15.15h41.11s10.37,26.05-5.8,44.06Z" style="fill:#37474f;"></path><path d="M262.26,300.44l43.59,33.35c14.48-.31,46.16,4.71,57.26-7.67,16.17-18.01,5.8-44.06,5.8-44.06h-41.11s-3.26,14.31-10.2,15.15c-16.15,1.96-39.72-.46-55.35,3.22Z" style="fill:#263238;"></path><path d="M274.64,424.07c1.43-.45,14.89-1.95,17.86-2.27,5.94-.64,24.65-2.39,28.04-2.38,.09,0,.1,.14,.02,.16-2.94,.62-14.88,2.01-17.85,2.32-5.95,.61-26.39,2.59-28.04,2.43-.15-.01-.17-.21-.03-.25Z" style="fill:#263238;"></path><path d="M292.3,330.5c3.34-1.66,28.63-.84,46.79-2.54,5.92-.55,11.85-1.81,16.36-5.69,4.07-3.49,6.68-8.33,8.08-13.31,1.74-6.2,1.56-12.67,1.27-19.02-.07-1.56-.18-3.13-.28-4.69,0-.09,.16-.11,.17-.02,1.38,11.38,2.44,24.09-4.96,33.95-3.25,4.33-7.83,7.26-13.23,8.68-10.95,2.88-52.11,2.17-53.56,3.28-1.73,1.32,24.88,82.34,25.41,83.88,.1,.29-.41,.49-.53,.2-2.62-6.22-28.41-83.28-25.5-84.72Z" style="fill:#263238;"></path><path d="M245.97,311.96c2.45-6.21,8.03-10.08,16.24-11.56,.14-.02,.13,.18,0,.22-7.17,2.09-12.29,4.98-15.11,11.02-1.31,2.82-2,6.79-2.34,12.11-1.7,26.52,21.44,86.74,21.92,87.79,.04,.09-.09,.17-.14,.08-3.26-5.49-30.67-74.01-20.57-99.65Z" style="fill:#263238;"></path></g></g><g><path d="M227.21,402.96l39.3,8.36s-31.01-92.54-16.44-104.48c4.04-3.31,12.84-4.47,23.3,.05,15.61,6.74,33.69,20.5,50.73,25.53,15.96,4.71,34.9,.38,41.42-6.8,13.7-15.08,3.39-43.57,3.39-43.57l-48.03-.46s.84,.69-1.85,3.08c0,0-41.71-9.2-56.15-.38-26.04,15.91-35.67,118.67-35.67,118.67Z" style="fill:#37474f;"></path><g><path d="M344.49,285.35c.04-.11,.19-.08,.2,.03,.08,2.14-.01,4.23,.49,6.34,.48,2,1.39,3.8,2.84,5.27,3.1,3.13,7.54,4.2,11.61,5.48,.21,.07,.17,.45-.07,.41-4.51-.69-9.25-1.83-12.54-5.22-1.51-1.55-2.53-3.54-2.92-5.67-.39-2.14-.33-4.57,.39-6.64Z" style="fill:#263238;"></path><path d="M251.04,305.07c6.04-3.79,15.49-.91,20.01,.82,.1,.04,.05,.19-.05,.15-4.16-1.5-14.51-3.76-20.05,.16-12.79,9.06,4.33,71.02,15.55,105.11,.17,.53-.25,.39-.48-.12-1.85-4.04-16.32-47.13-20.09-75.63-.58-4.38-3.61-25.02,5.11-30.49Z" style="fill:#263238;"></path><path d="M231.69,392.51c1.19-.03,11.37,2.22,13.62,2.72,4.49,1.01,14.89,3.7,17.32,4.63,.06,.02,.03,.16-.05,.15-2.33-.22-7.75-1.41-9.99-1.93-4.48-1.04-19.85-4.73-20.97-5.33-.1-.05-.04-.24,.07-.24Z" style="fill:#263238;"></path><path d="M252.96,303.46c4.07-2.22,8.91-2.59,13.42-2.03,4.79,.59,9.34,2.29,13.71,4.29,9.19,4.2,17.95,9.34,27.16,13.52,9.15,4.16,18.92,7.41,29.01,7.72,8.62,.27,19.54-1.25,25.08-9.01,8.54-11.95,3.57-32.55,3.47-33.89,0-.1,.13-.1,.16,0,6.63,25.33-1.9,35.16-7.65,39.3-4.57,3.28-11.14,4.11-15.47,4.48-10.04,.85-20.09-1.61-29.39-5.31-9.53-3.8-18.47-8.91-27.6-13.58-8.76-4.48-18.52-9.1-28.52-6.53-1.13,.29-2.25,.69-3.33,1.14-.05,.02-.09-.07-.04-.1Z" style="fill:#263238;"></path></g></g></g><g><g><path d="M335.64,177.24c-6.78,1.18-10.15,9.71-11.69,17.13-1.54,7.43-.66,13.38-5.78,17.2,0,0,4.22,7.73,20.47,8.97,13.49,1.03,21.12-1.86,21.12-1.86,0,0,2.16-8.3,2.16-16.74,0-9.09-2.36-18.51-8.56-22.78-10.36-7.13-17.71-1.93-17.71-1.93Z" style="fill:#263238;"></path><path d="M335.64,177.24c-1.65,.34-3.15,1.16-4.43,2.19-1.31,1-2.4,2.26-3.28,3.65-1.78,2.76-2.79,5.96-3.62,9.18-.85,3.22-1.37,6.53-2.18,9.82-.41,1.64-.88,3.29-1.62,4.83-.76,1.52-1.88,2.94-3.39,3.72,1.39-.97,2.35-2.38,2.94-3.92,.63-1.53,1-3.15,1.32-4.79,.61-3.28,1.11-6.62,1.95-9.9,.85-3.25,1.92-6.58,3.95-9.38,1-1.39,2.22-2.64,3.63-3.61,1.43-.93,3.03-1.66,4.73-1.78Z" style="fill:#263238;"></path><path d="M349.01,176.78c3.6,1.25,6.66,3.96,8.89,7.19,2.25,3.26,3.56,7.14,4.24,11.05,.62,3.94,.56,7.97,.15,11.89-.4,3.93-.98,7.83-1.73,11.69l.53-5.88c.18-1.96,.35-3.92,.46-5.87,.25-3.91,.31-7.83-.37-11.66-.58-3.83-1.85-7.55-3.89-10.78-1.01-1.62-2.23-3.11-3.62-4.4-1.38-1.31-2.94-2.43-4.66-3.23Z" style="fill:#263238;"></path></g><g><path d="M303.15,268.22c-.18,3.58,3.49,7.85,8.61,9.7l21.31-21.11c-4.15-.52-8.49-1.23-10.86-1.43-10.5-.91-18.95,10.55-19.07,12.84Z" style="fill:#FFC727;"></path><path d="M303.15,268.22c-.18,3.58,3.49,7.85,8.61,9.7l21.31-21.11c-4.15-.52-8.49-1.23-10.86-1.43-10.5-.91-18.95,10.55-19.07,12.84Z" style="opacity:.1;"></path></g><path d="M311.18,286.51l6.71-22.85s-5.46-7.03-1.43-14.88c2.03-3.98,15.92-23.26,23.03-27.99,6.67-4.44,13.55-.89,16.4,3.32,8.2,12.11,7.83,26.52,15.42,61.57l-60.13,.83Z" style="fill:#FFC727;"></path><g><path d="M321.77,256.53s9.93,.09,15.13,1.75c6.96,2.22,12.06,7.01,14.08,9.14,4.21,4.46,11.3,18.14,7.71,20.87-3.24,2.47-9.78-11.88-9.78-11.88,0,0,9.08,13.53,4.63,15.79-4.45,2.26-11.1-14.83-11.1-14.83,0,0,9.02,14.11,4.06,15.71-3.75,1.21-10.64-13.93-10.64-13.93,0,0,7.67,12.18,3.87,13.59-4.2,1.56-11.44-12.02-11.44-12.02-10.27,1.96-15.99-1.53-19.76-4.34-.91-.68,13.25-19.85,13.25-19.85Z" style="fill:#d3766a;"></path><g><path d="M346.05,271.52c1.12,1.55,2.27,3.11,3.26,4.76,.98,1.65,1.91,3.33,2.73,5.06,2.02,4.24,2.63,7.21,2.57,7.04-1.36-4.25-4.78-10.19-5.76-11.84-.98-1.64-1.88-3.33-2.86-4.98-.02-.04,.04-.07,.06-.04Z" style="fill:#263238;"></path><path d="M340.05,274.96c1.35,2.04,2.76,4.02,4.03,6.12,1.25,2.09,2.26,4.19,3.37,6.36,.09,.17-.03,.16-.13,0-1.19-2.13-2.46-4-3.68-6.11-1.21-2.11-2.35-4.27-3.64-6.33-.02-.03,.03-.06,.05-.03Z" style="fill:#263238;"></path><path d="M334.36,276.99c2.22,3.02,3.89,6.44,5.44,9.83,.08,.17-.07,.14-.16-.03-1.75-3.3-3.09-5.91-5.38-9.73-.04-.06,.06-.14,.11-.08Z" style="fill:#263238;"></path></g></g><g><path d="M314.96,255.19c-.51,.89-9.98,11.49-10.32,15.86-.33,4.37,12.21-3.86,12.21-3.86l-1.9-12Z" style="fill:#FFC727;"></path><path d="M345.23,228.61c-15.62,10.88-40.59,37.06-40.87,43.79-.2,4.86,.12,9.62,2.2,11.98,4.24,4.81,12.47,3.72,15.26,1.72,12.22-8.73,24.88-27.09,32.62-45.89,6.79-16.49-4.11-15.15-9.21-11.6Z" style="fill:#FFC727;"></path><g><path d="M311.03,261.25c6.73-9.28,14.98-17.52,24-24.57l-3.05,3.03c-6.74,6.77-14.49,14.52-20.95,21.54h0Z" style="fill:#263238;"></path><path d="M352.15,245.44c-4.17,10.01-10.1,19.23-16.82,27.72-1.68,2.13-3.45,4.19-5.31,6.18-3.69,3.9-7.9,8.37-13.67,8.57-2.79,.13-5.57-.6-7.91-1.98,2.54,.93,5.23,1.4,7.84,1.12,5.48-.42,9.51-4.52,13.1-8.31,1.84-1.96,3.62-3.99,5.33-6.08,6.84-8.35,12.87-17.42,17.42-27.23h0Z" style="fill:#263238;"></path><path d="M349.49,251.06c.9-1.42,1.96-2.66,3.14-3.85-.61,1.58-1.75,2.9-3.14,3.85h0Z" style="fill:#263238;"></path></g><path d="M339.09,233.29c3.46-3.53,13.55-11.9,17.11-4.78,.84,2.17,.49,4.59,0,6.76-.7,2.89-1.78,5.64-3.17,8.22,1.31-3.98,4.85-12.93,1.11-16.11-4.24-2.56-11.6,3.43-15.05,5.91h0Z" style="opacity:.1;"></path></g><g><g><path d="M349.24,220.95c-.27,1.11-5.66,8.24-10.73,7.93-1.65-.1-1.5-9.13-1.5-9.13l-.14-.67-1.97-9.37,11.06-6.9,1.6-.91s.37,2.6,.8,5.84c.02,.15,.04,.3,.06,.46,.03,.18,.06,.36,.08,.53,.07,.48,.14,.98,.2,1.47,.05,.38,.09,.74,.13,1.14,.04,.4,.08,.78,.12,1.18,.36,3.92,.4,7.97,.29,8.44Z" style="fill:#d3766a;"></path><path d="M348.36,207.74c-2.77,7.4-8.75,10.36-11.49,11.34l-1.97-9.37,11.06-6.9,1.6-.91s.37,2.6,.8,5.84Z" style="fill:#263238;"></path></g><g><path d="M323.07,191.24c-5.72,15.8,3.09,21.01,6.5,22.24,3.09,1.12,13.77,4.53,21.09-10.59,7.32-15.12,1.79-22.77-5.15-25.7-6.94-2.93-16.72-1.74-22.44,14.06Z" style="fill:#d3766a;"></path><g><path d="M326.81,187.87c.39,.08,.76,.09,1.15,.14,.44,.05,.79,.13,1.2-.09,.22-.12,.32-.47,.23-.69-.22-.52-.74-.72-1.27-.8-.58-.09-1.04,0-1.54,.29-.48,.29-.28,1.03,.23,1.14Z" style="fill:#263238;"></path><path d="M337.21,192.97c-.36-.17-.66-.39-1-.59-.38-.23-.71-.38-.9-.8-.11-.23,.02-.57,.23-.69,.49-.29,1.02-.12,1.49,.14,.51,.28,.83,.63,1.05,1.17,.21,.52-.4,.99-.87,.77Z" style="fill:#263238;"></path><g><g><path d="M333.37,196.03s.07,.08,.05,.12c-.42,1.06-.73,2.35,.11,3.06,.03,.02,0,.07-.03,.06-1.13-.6-.7-2.31-.13-3.24Z" style="fill:#263238;"></path><path d="M334.74,195.25c1.78,.5,.65,4.01-1,3.55-1.62-.45-.49-3.97,1-3.55Z" style="fill:#263238;"></path></g><path d="M335.37,195.66c.24,.3,.43,.75,.79,.9,.42,.18,.86-.09,1.25-.35,.04-.03,.06,.01,.05,.06-.21,.68-.69,1.29-1.44,1.15-.69-.12-.97-.87-.92-1.6,0-.14,.18-.29,.27-.17Z" style="fill:#263238;"></path></g><g><g><path d="M327.39,193.86s-.1,.02-.11,.07c-.31,1.1-.84,2.31-1.94,2.37-.03,0-.05,.06-.01,.06,1.26,.21,1.95-1.41,2.07-2.5Z" style="fill:#263238;"></path><path d="M326.77,192.41c-1.72-.68-2.95,2.8-1.36,3.43,1.56,.62,2.8-2.86,1.36-3.43Z" style="fill:#263238;"></path></g><path d="M325.96,192.38c-.34,.09-.73,.33-1.07,.23-.39-.11-.54-.59-.65-1.03-.01-.05-.05-.03-.07,.02-.25,.66-.28,1.43,.31,1.78,.54,.32,1.17-.1,1.57-.7,.07-.11,.05-.33-.09-.3Z" style="fill:#263238;"></path></g><path d="M330.63,205.01c-.33,.19-.69,.47-1.1,.4-.39-.07-.8-.37-1.11-.6-.03-.02-.08,0-.06,.04,.17,.5,.7,.93,1.24,.98,.52,.05,.89-.32,1.13-.74,.03-.06-.04-.11-.09-.08Z" style="fill:#263238;"></path><path d="M327.4,199.57s-.76,1.55-1.02,2.31c-.02,.07,.15,.17,.4,.27,.01,0,.02,.02,.03,.01,1.28,.66,2.79,.65,3.98-.18,.08-.06,0-.17-.08-.14-1.25,.4-2.43,.22-3.64-.15,.02-.23,1.4-2.6,1.28-2.65-.41-.18-1.32-.16-1.87-.19,1.5-3.27,3.51-6.27,4.95-9.54,.05-.12-.11-.21-.18-.12-2.33,3-4.14,6.72-5.77,10.05-.21,.41,1.56,.36,1.91,.34Z" style="fill:#263238;"></path></g><path d="M349.04,203.68c-1.65-.78-4.18-7.23-1.01-15.46,0,0-2.33,7.59-2.22,8.89,.12,1.3-1.41-3.62,1.05-10.3,0,0-4.72,1.16-8.19,.78-3.47-.38-5.36-1.18-5.49-1.5-.13-.32,5.04,.09,6.85-.84,0,0-9.84,.51-13.78-.74-.46-.14,2.98-7.78,10.44-9.26,7.46-1.47,14.85,4.81,16.38,8.25,0,0,2.78,1.61,4.23,7.28,1.45,5.66-6.49,13.74-8.27,12.89Z" style="fill:#263238;"></path><g><g><path d="M348.58,208.72c-.3,.03-.56,.02-.8,0-.29-.02-.55-.09-.77-.18-.36-.13-.64-.33-.85-.55-.2-.2-.37-.42-.49-.64-.31-.56-.37-1.08-.37-1.08l2.06-4.1s4.9-4.12,6.86-2.24c1.97,1.88-2.66,8.51-5.62,8.79Z" style="fill:#d3766a;"></path><path d="M352.84,201.79s.04,.07,0,.08c-2.1,.26-3.56,1.75-4.75,3.38,.75-.55,1.62-.73,2.38,.19,.04,.05-.03,.11-.08,.09-.73-.37-1.33-.39-2.02,.09-.49,.34-.89,.83-1.29,1.27-.13,.15-.41-.03-.3-.2l.03-.04c.6-2.43,3.37-5.3,6.03-4.85Z" style="fill:#263238;"></path></g><path d="M348.54,207.98c-.19,.39-.66,.54-1.04,.35-.39-.19-.54-.66-.35-1.04,.19-.39,.66-.54,1.04-.35,.39,.19,.54,.66,.35,1.04Z" style="fill:#fff;"></path><path d="M350.38,207.25c-.13,.27-.46,.38-.74,.25-.27-.14-.38-.47-.25-.74s.47-.38,.74-.25c.27,.14,.38,.47,.25,.74Z" style="fill:#fff;"></path></g></g></g></g></g></g></g><g id="freepik--Character_1--inject-145"><g><g><g><path d="M112.74,110.77c14.78,22.05,32.25,42.74,37.94,44.55,8.81,2.81,44.37-3.25,55.39-7.99,3.61-1.55-3.25-29.02-7.3-30.12-4.05-1.1-42.88,10.25-45.44,10.02-1.37-.12-18.98-14.03-31.64-22.92-11.77-8.26-13.43-.23-8.94,6.46Z" style="fill:#ad6359;"></path><g><g><path d="M201.47,148.93c3.37-.58,18.56-4.59,22.54-6.66,3.98-2.06,15-8.83,13.73-12.04-1.27-3.21-4.65-1.48-4.65-1.48,0,0,4.2-3.59,2.63-6.71-1.57-3.11-6.75-.26-6.75-.26,0,0,4.04-4.01,2.25-7-1.79-2.99-6.52,.75-6.52,.75,0,0,3.87-3.49,1.36-5.33-3.02-2.22-9.43,5.02-13.99,6.97-1.04,.44-21.64,7.47-21.64,7.47l11.05,24.28Z" style="fill:#ad6359;"></path><g><path d="M225.11,115.23c-4.72,5.31-7.71,6.82-14.43,8.76-.13,.04-.1,.24,.04,.21,6.76-1.3,10.77-2.65,14.66-8.76,.19-.3-.04-.47-.27-.22Z" style="fill:#263238;"></path><path d="M229.32,121.36c-5.39,5.09-8.61,6.75-15.5,9.3-.1,.04-.05,.2,.05,.18,6.97-1.94,10.95-3.38,15.66-9.17,.21-.26,.03-.54-.21-.31Z" style="fill:#263238;"></path><path d="M232.72,128.87c-5.57,4.55-9.03,6.53-16.04,8.14-.17,.04-.13,.28,.04,.26,7.31-.95,11.64-3.39,16.11-8.22,.31-.33,.23-.47-.12-.18Z" style="fill:#263238;"></path></g></g><g><path d="M185.11,122.72s5.53-6.98,8.64-9.51c3.11-2.53,18.16-7.69,19.46-4.5,1.68,4.12-6.42,8.81-10.69,10.59,0,0,3.89,9.52-1.19,14.14-5.09,4.63-16.21-10.72-16.21-10.72Z" style="fill:#ad6359;"></path><path d="M213.3,109.99c-1.18,4.86-6.93,6.83-10.94,8.87-.3,.15-.29,.45-.12,.66,1.36,4.1,2.1,10.27-.63,13.93-.08,.11,.06,.23,.16,.14,3.46-3.52,3.23-9.65,1.45-14.04,4.15-2.02,9.83-4.26,10.14-9.55,0-.03-.04-.04-.05,0Z" style="fill:#263238;"></path></g></g></g><g><path d="M195.88,154.29l-10.97-35.98s-28.16,6.69-31.68,7.23c-1.49,.23-23.38-16.89-33.33-23.94-6.55-4.64-14.62-3.22-7.48,10.53,4.18,8.05,28.25,43.94,37.19,46.11,7.11,1.73,46.27-3.95,46.27-3.95Z" style="fill:#FFC727;"></path><path d="M186.46,152.13c-1.11-2.18-4.14-11.82-4.86-14.23-.71-2.36-3.32-12.17-4.06-14.65-.04-.13,.14-.23,.18-.1,.77,2.44,4.13,12.01,4.89,14.41,.75,2.41,3.66,12.05,3.98,14.51,.01,.09-.09,.11-.12,.04Z" style="fill:#263238;"></path><path d="M158.69,158.4c-4.15,.23-7.46,.22-9.09-.17-8.93-2.17-33-38.05-37.18-46.11-4.42-8.51-3.02-12.29,.24-12.85l46.03,59.14Z" style="fill:#020100; opacity:.1;"></path></g></g><g><g><g><path d="M196.99,463.76c-2.69,.87-79.25-.11-82.14-2-1.11-.7-1.62-11.86-1.85-25.37,0-.14,0-.28,0-.42-.05-2.78-.09-5.65-.09-8.56,0-.4,0-.8-.01-1.2l3.71-39.72,51.22,.5-5.05,39.35-.06,1.56-.31,8.14-.03,.84s29.14,13.48,32.1,15.89c2.94,2.4,5.2,10.13,2.51,10.98Z" style="fill:#ad6359;"></path><path d="M196.99,463.76c-2.69,.87-79.25-.11-82.14-2-1.11-.7-1.62-11.86-1.85-25.37,0-.14,0-.28,0-.42-.05-2.78-.09-5.65-.09-8.56,0-.4,0-.8-.01-1.2l49.88,.13-.06,1.56-.31,8.14-.03,.84s29.14,13.48,32.1,15.89c2.94,2.4,5.2,10.13,2.51,10.98Z" style="fill:#ebebeb;"></path><g><path d="M197,463.76c-1.38,.45-22.18,.4-42.51,0-4.09-.08-8.15-.17-12.03-.28-14.5-.4-26.48-.99-27.59-1.72-1.1-.69-1.61-11.55-1.83-24.81,0-.19-.01-.37-.01-.56,0-.14,0-.29-.01-.43h.06l49.34,.08-.02,.84s29.14,13.47,32.09,15.89c2.94,2.41,5.2,10.13,2.52,10.99Z" style="fill:#FFC727;"></path><path d="M197,463.76c-1.38,.45-22.18,.4-42.51,0-4.09-.08-8.15-.17-12.03-.28-14.5-.4-26.48-.99-27.59-1.72-1.1-.69-1.61-11.55-1.83-24.81,0-.19-.01-.37-.01-.56,0-.14,0-.29-.01-.43h.06l49.34,.08-.02,.84s29.14,13.47,32.09,15.89c2.94,2.41,5.2,10.13,2.52,10.99Z" style="opacity:.1;"></path><g><path d="M196.16,460.78c-12.9-.48-64.99-1.21-77.78-.7-.1,0-.1,.08,0,.08,12.78,.76,64.87,1.06,77.77,.83,.27,0,.27-.2,0-.21Z" style="fill:#263238;"></path><path d="M167.9,436.26c-5.07-1.01-11.29-.31-15.21,3.26-.15,.14,.05,.35,.21,.3,5.03-1.52,9.72-2.47,14.97-2.92,.37-.03,.39-.57,.03-.64Z" style="fill:#263238;"></path><path d="M171.54,438.52c-5.07-1.01-11.29-.31-15.21,3.26-.15,.14,.05,.35,.21,.3,5.03-1.52,9.72-2.47,14.97-2.92,.37-.03,.39-.57,.03-.64Z" style="fill:#263238;"></path><path d="M175.18,440.77c-5.07-1.01-11.29-.31-15.21,3.26-.15,.14,.05,.35,.21,.3,5.03-1.52,9.72-2.47,14.97-2.92,.37-.03,.39-.57,.03-.64Z" style="fill:#263238;"></path></g><path d="M154.48,463.76c-4.09-.08-8.15-.17-12.03-.28-14.5-.4-26.48-.99-27.59-1.72-1.1-.69-1.61-11.55-1.83-24.81,0-.19-.01-.37-.01-.56,0-.14,0-.29-.01-.43h.06c6.76,4.74,30.58,20.59,41.42,27.8Z" style="opacity:.1;"></path></g></g><g><path d="M165.36,436.22h-55.14s11.07-128.78,10.64-131.02c-.55-2.88-3.81-15.92-8.15-32.94-1.36-5.33-2.83-11.04-4.35-16.97-4.11-16.02-8.65-33.53-12.6-48.77-5.93-22.83-10.56-34.59-10.56-34.59h46.73s38.41,109.98,39.95,132.71c1.34,19.82-6.52,131.59-6.52,131.59Z" style="fill:#263238;"></path><g><path d="M162.91,426.81c-8.42-.17-6-.24-14.42-.32-4.12-.04-31.21-.27-35.06,.37-.09,.01-.09,.16,0,.17,3.85,.64,30.93,.39,35.06,.35,8.42-.08,6-.15,14.42-.33,.16,0,.16-.24,0-.25Z" style="fill:#37474f;"></path><path d="M131.23,297.32c-1.81-7.97-4.51-15.78-6.87-23.6-4.78-15.9-9.6-31.78-14.43-47.66-2.42-7.94-13.63-37.65-14.73-41.6-.45-1.61-.7-.72-.12,1.32,1.16,4.11,20.32,63.01,25.16,79.14,2.43,8.09,4.87,16.17,7.3,24.26,1.16,3.87,2.3,7.75,2.98,11.74,.71,4.16,.75,8.36,.49,12.56-.53,8.44-1.5,16.86-2.28,25.28-.78,8.43-1.56,16.87-2.34,25.3-1.55,16.79-3.1,33.57-4.61,50.36-.19,2.13-.38,4.26-.54,6.39-.05,.71,1.02,.66,1.1-.03,1.81-16.6,3.2-33.25,4.76-49.87,1.55-16.54,3.09-33.08,4.64-49.62,.39-4.15,.83-8.31,.83-12.49,0-3.87-.49-7.69-1.34-11.47Z" style="fill:#37474f;"></path></g><path d="M126.62,171.92c-3.24,25.1-9.41,66.19-13.91,100.33-10.55-41.36-27.51-100.32-27.51-100.32h41.43Z" style="fill:#37474f;"></path></g></g><g><g><path d="M139.97,464.51c-2.68,.88-79.25,.18-82.14-1.7-1.11-.7-1.66-11.86-1.94-25.36,0-.14,0-.28,0-.42-.06-2.78-.11-5.65-.13-8.55,0-.4,0-.8-.02-1.2-.18-19.49,1.22-39.72,1.22-39.72l50.05,.31-1.39,39.35-.05,1.56-.28,8.15-.03,.84s29.19,13.37,32.16,15.78c2.94,2.39,5.24,10.11,2.55,10.97Z" style="fill:#ad6359;"></path><path d="M139.97,464.51c-2.68,.88-79.25,.18-82.14-1.7-1.11-.7-1.66-11.86-1.94-25.36,0-.14,0-.28,0-.42-.06-2.78-.11-5.65-.13-8.55,0-.4,0-.8-.02-1.2l49.88-.05-.05,1.56-.28,8.15-.03,.84s29.19,13.37,32.16,15.78c2.94,2.39,5.24,10.11,2.55,10.97Z" style="fill:#ebebeb;"></path><g><path d="M139.97,464.51c-2.68,.88-79.25,.18-82.14-1.7-1.11-.7-1.66-11.86-1.94-25.36,0-.14,0-.28,0-.42l49.4-.1-.03,.84s29.19,13.37,32.16,15.78c2.94,2.39,5.24,10.11,2.55,10.97Z" style="fill:#FFC727;"></path><path d="M139.97,464.51c-2.68,.88-79.25,.18-82.14-1.7-1.11-.7-1.66-11.86-1.94-25.36,0-.14,0-.28,0-.42l49.4-.1-.03,.84s29.19,13.37,32.16,15.78c2.94,2.39,5.24,10.11,2.55,10.97Z" style="opacity:.1;"></path><g><path d="M139.13,461.54c-12.9-.43-64.99-.97-77.78-.42-.1,0-.1,.08,0,.08,12.78,.71,64.87,.82,77.78,.55,.27,0,.27-.2,0-.21Z" style="fill:#263238;"></path><path d="M110.78,437.12c-5.07-.99-11.29-.27-15.2,3.31-.15,.14,.05,.35,.21,.3,5.02-1.53,9.71-2.51,14.96-2.97,.37-.03,.39-.57,.03-.64Z" style="fill:#263238;"></path><path d="M114.43,439.36c-5.07-.99-11.29-.27-15.2,3.31-.15,.14,.05,.35,.21,.3,5.03-1.53,9.71-2.51,14.96-2.97,.37-.03,.39-.57,.03-.64Z" style="fill:#263238;"></path><path d="M118.07,441.6c-5.07-.99-11.29-.27-15.2,3.31-.15,.14,.05,.35,.21,.3,5.02-1.53,9.71-2.51,14.96-2.97,.37-.03,.39-.57,.03-.64Z" style="fill:#263238;"></path></g></g></g><g><path d="M131.61,171.92s-1.07,16.39-6.19,34.1c-.41,1.46-.85,2.9-1.33,4.29,0,0-4.13,1.93-12.27,6.92,0,0-.53,17.99-1.07,38.05-.59,22.43-1.21,47.45-1.08,52.75,.47,19.85-2.45,129.01-2.45,129.01l-55.13,.24s9.94-121.9,9.87-129.17c-.11-11.69,2.66-63.35,4.79-101.03,1.31-23.21,2.38-35.14,2.38-35.14h62.48Z" style="fill:#263238;"></path><g><path d="M105.33,427.23c-8.42-.14-6-.22-14.43-.26-4.12-.02-31.21-.14-35.05,.52-.09,.01-.08,.16,0,.17,3.85,.62,30.94,.26,35.06,.2,8.42-.12,6-.18,14.42-.39,.16,0,.16-.24,0-.25Z" style="fill:#37474f;"></path><path d="M73.76,179.92c-1.01,30.76-2.08,55.55-3.44,86.29-1.37,30.85-3.23,61.69-5.8,92.46-1.44,17.19-2.79,41.38-4.64,58.53-.01,.12,.16,.16,.18,.04,4.01-30.51,6.24-68.24,8.2-98.94,1.97-30.7,3.3-61.45,4.34-92.19,.59-17.39,1.04-28.82,1.55-46.21,0-.25-.38-.23-.38,.02Z" style="fill:#37474f;"></path><path d="M75.88,199.9c1.36-.35,2.81-.46,4.19-.68,1.12-.18,2.23-.37,3.34-.62,2.08-.46,4.19-1.15,5.89-2.48,2.75-2.15,5.9-13.04,6.29-13.73,.66-1.19,.86-.14,.86-.03,0,1.26-2.89,10.8-4.01,12.58-2.05,3.26-5.7,4.57-9.36,5.03-1.05,.13-2.1,.21-3.16,.27-1.31,.07-2.69,.19-3.99,.03-.2-.02-.25-.31-.04-.36Z" style="fill:#37474f;"></path><g><path d="M123.91,210.57c-5.38,1.85-10.57,4.48-15.53,7.23-.19,.11-.07,.41,.14,.32,5.23-2.25,10.56-4.4,15.66-6.93,.4-.2,.13-.77-.28-.62Z" style="fill:#37474f;"></path><path d="M125.49,174.74c-.01-.18-.33-.22-.33-.03,.04,6.21-.35,11.67-.88,17.48-.24,2.69-2.41,17.58-7.08,16.5-.78-.18-1.18-.95-1.3-2.13-.15-1.42,.39-3.16,.62-4.57,.52-3.12,.94-6.24,1.2-9.39,.5-5.88,.52-11.75-.19-17.61-.02-.19-.3-.18-.3,.02,0,8.14-.21,16.26-1.42,24.32-.58,3.87-2.54,9.7,1.51,10.3,4.13,.61,6.79-9.16,7.3-11.83,1.41-7.45,1.46-15.5,.87-23.05Z" style="fill:#37474f;"></path><path d="M117.32,209.09c-.42,1-.76,2.04-1.05,3.09-.22,.81-.53,1.69-.44,2.54,.02,.16,.24,.18,.32,.07,.55-.69,.78-1.64,1.09-2.47,.35-.95,.73-1.9,1.06-2.87,.22-.64-.72-.97-.98-.36Z" style="fill:#37474f;"></path></g></g></g></g></g><g><g><path d="M64.95,181.15c.15,.19,69.66-1.6,70.32-2.28,.24-.25-7.11-61.52-16.68-76.66-3.94-6.24-16.57-8.09-22.09,.07-24.67,36.45-31.75,78.64-31.55,78.88Z" style="fill:#ebebeb;"></path><path d="M116.26,99.21l7,24.91,7.25,67.04,9.71-7.92s-11.91-74.14-23.96-84.04Z" style="fill:#FFC727;"></path><path d="M102.23,97.75s8.61,31.46,8.36,34.34c-.26,2.88-2.93,62.35-2.93,62.35l-44.51-9.9s18.74-77.72,39.08-86.78Z" style="fill:#FFC727;"></path></g><g><path d="M88.15,113.24c-16.1,31.2-22.2,58.8-9.44,66.18,8.47,4.9,17.43-23.39,17.65-23.98,.75-2.03,6.55-19.16,7.62-39.92,1.18-22.84-8.63-16.22-15.83-2.28Z" style="fill:#ad6359;"></path><g><path d="M88.15,113.24c-16.1,31.2-22.2,58.8-9.44,66.18,8.47,4.9,19.18-17.67,19.39-18.26,.75-2.03,4.8-24.87,5.87-45.64,1.18-22.84-8.63-16.22-15.83-2.28Z" style="fill:#FFC727;"></path><g><path d="M103.81,118.14c-1.15,13.77-2.31,27.64-5.23,41.17,2.15-13,3.51-28.07,5.23-41.17h0Z" style="fill:#263238;"></path><path d="M104.86,120.33c-.29,1.92-.72,3.92-1.84,5.54,.82-1.78,1.21-3.69,1.84-5.54h0Z" style="fill:#263238;"></path></g></g><g><g><path d="M81.55,178.09c7.8,3.59,29.96-4.7,49.38-18.08,3.7-2.55-9.84-29.19-13.92-26.65-10.84,6.77-32.71,17.3-39.1,27.44-4.97,7.89-1.76,14.81,3.64,17.29Z" style="fill:#ad6359;"></path><g><path d="M135.08,133.37c-1.88-.19-1.8-1.17,1.04-2.98,2.86-1.84,15.58-6.57,13.55-10.87-2.03-4.33-19.92,2.66-24.41,6.04-4.5,3.36-10.56,10.4-10.56,10.4,3.75-.66,13.01-1.39,20.39-2.59Z" style="fill:#ad6359;"></path><path d="M122.54,162.89c10.5-2.24,23.72-4.39,32.65-12.59,1.75-1.61,1.95-3.41,1.95-3.41,4.07-3.6,3.59-6.6,3.59-6.6,2.76-4.51,1.85-7.52,1.85-7.52,0,0,4.73-4.28,2.62-7.57-2.36-3.69-8.54,3.04-14.2,4.66-12.98,3.72-32.46,5.38-36.31,6.08l7.85,26.94Z" style="fill:#ad6359;"></path><g><path d="M140.14,143.33c3.8-1.17,7.56-2.22,11.18-3.9,3.97-1.84,7.48-4.28,11.12-6.67,.11-.07,.23,.08,.13,.17-5.9,5.38-14.51,9.29-22.37,10.58-.19,.03-.24-.11-.05-.17Z" style="fill:#263238;"></path><path d="M141.25,151.49c3.63-1.34,10-3.75,19.41-11.29,.03-.02,.08,.02,.05,.05-5.46,5.71-11.85,9.32-19.39,11.41-.23,.07-.31-.08-.06-.17Z" style="fill:#263238;"></path><path d="M141.92,155.86c6.09-2.52,9.61-4.88,15.18-8.97,.03-.02,.08,.03,.05,.05-5.85,5.31-8.57,6.57-15.17,9.13-.23,.09-.3-.12-.06-.22Z" style="fill:#263238;"></path></g></g><path d="M116.22,168.93c3.99-2.45,8.36-4.74,12.29-7.29-3.81,2.87-8.07,5.1-12.29,7.29h0Z" style="fill:#263238;"></path></g><g><path d="M108.17,130.63l10.71,39.28s-32.76,14.41-38.7,9.88c-5.94-4.54-10.03-13.02,.35-27.66,2.6-3.66,27.65-21.5,27.65-21.5Z" style="fill:#FFC727;"></path><path d="M101.76,139.72c.56,1.87,.97,3.79,1.42,5.69,.45,1.9,.88,3.8,1.29,5.71,.81,3.82,1.61,7.64,2.35,11.47,.2,1.05,.4,2.1,.59,3.15,.2,1.13,.25,2.28,.46,3.4,.02,.09-.12,.11-.14,.03-.22-.93-.57-1.84-.8-2.77-.24-.96-.47-1.93-.68-2.9-.43-1.9-.84-3.81-1.25-5.72-.82-3.81-1.62-7.64-2.31-11.48-.39-2.17-.85-4.35-1.11-6.53-.02-.13,.16-.16,.2-.04Z" style="fill:#263238;"></path><path d="M110.04,137.48l-1.87-6.85c-4.9,4.36-22.58,16.71-26.18,20.47-2.53,2.64-4.41,5.85-6.08,9.14,1.25-3.48,3.09-6.79,5.41-9.7,4.1-4.63,24.37-18.52,27.09-20.46l1.63,7.4Z" style="fill:#263238;"></path><path d="M118.31,167.77s.59,2.14,.59,2.15c-7.05,3.2-14.27,6.05-21.7,8.29-6.92,1.77-16.74,5.48-21.85-1.6-3.46-4.9-3.73-11.1-3.7-16.86-.08-1.96,.37-3.89,.83-5.77,1.97-7.5,4.77-14.74,7.65-21.91-1.38,3.61-2.7,7.25-3.94,10.91-1.7,5.47-4.07,10.99-4.17,16.77,0,5.64,.33,11.85,3.73,16.56,2.28,3.24,6.21,4.45,10.05,3.92,7.68-.79,15.06-3.43,22.29-6.05,3.59-1.32,7.32-2.84,10.76-4.27l-.54-2.15h0Z" style="fill:#263238;"></path></g></g></g><g><g><path d="M116.87,110.45c-4.05,.77-11.51-6.19-14.01-11.27-.17-.35,.51-3.91,1.13-8.27,.37-2.65,.71-5.61,.83-8.33l16.9,4.9s-1.93,5.64-2.11,10.39c-.01,.4,.01,.77,.07,1.12,0,.05,.02,.11,.02,.19,.25,2.14,1.08,10.54-2.83,11.29Z" style="fill:#ad6359;"></path><path d="M119.68,98.98s.01,.11,.02,.18c-.54,.06-1.12,.06-1.76,.03-9.88-.66-11.67-12.86-11.98-16.28l4.22,1.22,11.54,3.34s-1.93,5.64-2.1,10.39c-.02,.4,0,.76,.06,1.12Z" style="fill:#263238;"></path></g><g><path d="M102.84,62.98c-1.94,6.03,.99,23.59,5.24,27.56,6.16,5.76,16.39,6.45,21.31-.99,4.77-7.21,.54-30.03-4.22-33.65-7.01-5.33-19.47-1.84-22.34,7.07Z" style="fill:#ad6359;"></path><g><g><path d="M119.45,73.79s-.08,.07-.08,.12c.2,1.18,.24,2.57-.78,3.12-.03,.02-.02,.08,.02,.06,1.29-.37,1.22-2.21,.84-3.3Z" style="fill:#263238;"></path><path d="M118.22,72.7c-1.93,.12-1.54,3.97,.25,3.86,1.76-.11,1.37-3.96-.25-3.86Z" style="fill:#263238;"></path></g><g><path d="M126.2,72.88s.1,.05,.1,.1c.08,1.2,.38,2.55,1.5,2.84,.04,0,.04,.07,0,.07-1.34-.05-1.71-1.86-1.6-3Z" style="fill:#263238;"></path><path d="M127.14,71.53c1.9-.34,2.44,3.49,.68,3.81-1.74,.31-2.27-3.52-.68-3.81Z" style="fill:#263238;"></path></g><path d="M116.79,72.23c.54-.06,1.03-.21,1.56-.33,.6-.13,1.08-.18,1.52-.64,.24-.25,.22-.75,0-1-.51-.59-1.28-.6-2-.47-.78,.14-1.35,.45-1.87,1.06-.5,.59,.08,1.47,.8,1.38Z" style="fill:#263238;"></path><path d="M128.46,68.16c-.54-.03-1.04-.15-1.57-.24-.6-.1-1.09-.12-1.55-.55-.25-.23-.26-.74-.05-1,.48-.61,1.24-.67,1.97-.58,.79,.1,1.38,.38,1.93,.95,.53,.56,0,1.47-.72,1.43Z" style="fill:#263238;"></path><path d="M118.96,84.57c.31,.25,.64,.61,1.07,.6,.42,0,.89-.24,1.25-.43,.04-.02,.08,.02,.06,.06-.26,.49-.89,.84-1.45,.8-.55-.04-.86-.48-1.04-.96-.03-.07,.06-.1,.11-.07Z" style="fill:#263238;"></path><path d="M119.85,80.87c.77,.97,1.81,1.44,2.89,1.53,.48,.05,.98,.01,1.47-.08,.1-.01,.19-.03,.28-.06,.09-.02,.16-.04,.26-.07,.14-.03,.2-.16,.21-.29h0c0-.05,0-.09-.02-.13h0v-.11c-.08-.92-.31-2.31-.31-2.31,.35,.13,2.14,.73,2.07,.25-.64-3.95-1.35-8.34-2.82-12.14-.04-.13-.24-.08-.21,.05,.46,3.82,1.59,7.53,2.12,11.36-.57-.15-1.5-.45-1.98-.39-.13,.05,.49,2.67,.49,3.09,0,0,0,.02,0,.04-1.52,.35-2.73,0-4.34-.88-.1-.06-.18,.03-.1,.12Z" style="fill:#263238;"></path><g><path d="M123.68,82.09s-.73,1.15-1.81,1.62c-.4,.17-.83,.26-1.3,.17-.96-.18-1.05-1.05-.92-1.8,.1-.62,.34-1.16,.34-1.16,0,0,1.47,1.19,3.69,1.17Z" style="fill:#263238;"></path><path d="M121.87,83.71c-.4,.17-.83,.26-1.3,.17-.96-.18-1.05-1.05-.92-1.8,1.02,.03,2.07,.65,2.22,1.63Z" style="fill:#ff98b9;"></path></g></g><path d="M128.9,62.81c-.77-1.53-2.12-3.37-3.08-3.62-.96-.25-.88,2.67-3.02,2.94-2.89,.37-4.87-3.26-9.42-2.17-2.75,.66-5.37,2.58-3.79,12.01,1.22,7.29-5.92,9.27-5.92,9.27,0,0-4.52-16.19-.26-21.86,4.26-5.67,14.18-8.64,21.56-3.94,2.69,1.72,3.93,7.37,3.93,7.37Z" style="fill:#263238;"></path><g><path d="M117.9,80.72c-2.24-.02-4.27-1.55-4.82-3.82-.66-2.68,.99-5.4,3.68-6.06,2.68-.66,5.4,.99,6.06,3.67h0c.66,2.68-.99,5.4-3.68,6.06-.41,.1-.83,.15-1.24,.14Zm.08-9.35c-.35,0-.71,.04-1.07,.12-2.32,.57-3.75,2.92-3.18,5.25,.57,2.32,2.93,3.76,5.25,3.18,2.33-.57,3.75-2.92,3.18-5.25-.48-1.97-2.24-3.29-4.18-3.31Z" style="fill:#FFC727;"></path><path d="M129.33,79.43c-1.92-.02-3.64-2-3.92-4.6-.14-1.31,.1-2.59,.68-3.6,.6-1.04,1.48-1.68,2.49-1.79,1.01-.11,2.01,.32,2.82,1.21,.78,.86,1.29,2.06,1.43,3.37,.3,2.75-1.12,5.16-3.17,5.38-.11,.01-.22,.02-.33,.02Zm-.42-9.33c-.08,0-.17,0-.25,.01-.79,.09-1.5,.6-1.99,1.45-.51,.89-.72,2.02-.59,3.19,.26,2.38,1.83,4.17,3.51,3.99,1.68-.18,2.83-2.27,2.58-4.64-.13-1.17-.57-2.23-1.26-2.99-.59-.65-1.29-1-2-1.01Z" style="fill:#FFC727;"></path><path d="M122.71,75.11l-.48-.46c.69-.72,2.34-1.76,3.7-.59l-.44,.51c-1.21-1.05-2.71,.48-2.78,.55Z" style="fill:#FFC727;"></path><path d="M100.65,78.8l-.62-.24c.11-.29,1.14-2.86,2.61-3.26,1.37-.37,10.38-.5,10.77-.51v.67c-2.58,.03-9.53,.19-10.59,.48-.97,.27-1.89,2.15-2.16,2.86Z" style="fill:#FFC727;"></path></g><g><path d="M108.09,78.7s-3.99-5.64-6.55-4.22c-2.56,1.42,.45,9.62,3.48,10.73,3.02,1.11,4.1-1.67,4.1-1.67l-1.03-4.84Z" style="fill:#ad6359;"></path><path d="M102.46,76.81s-.06,.06-.02,.08c2.12,.85,3.24,2.8,4.03,4.83-.63-.78-1.49-1.2-2.54-.45-.05,.04,0,.13,.06,.11,.87-.19,1.49-.04,2.08,.65,.42,.49,.7,1.11,1,1.68,.1,.19,.44,.09,.37-.13l-.02-.05c.04-2.7-2.07-6.46-4.97-6.72Z" style="fill:#263238;"></path></g></g><g><path d="M119.71,97.86l-4.3,10.15-12.46-13.18-3.68,4.08s12.04,20.8,12.14,19.87l4.38-8.74,5.97,6.25-.2-15.41-1.84-3.03Z" style="fill:#ebebeb;"></path><path d="M122.08,108.67c-.12-2.54-.17-5.11-.4-7.64,0-.09-.15-.13-.17-.03-.56,2.44-.05,12.16-.11,14.49l-.03-.03c-.25-.27-5.54-5.5-5.59-5.42-.94,1.38-4.16,7.74-4.38,8.32-1.9-3.3-9.21-15.32-11.48-18.45-.07-.09-.2-.02-.15,.09,1.67,3.48,11.34,19.66,11.49,19.62,.1,.08,4.1-7.75,4.58-9.24,.89,1.14,6.22,7.03,6.24,6.65,.17-2.55,.11-5.82,0-8.36Z" style="fill:#263238;"></path></g></g></g></g></g><g id="freepik--Podium--inject-145"><g><g><polygon points="226.68 184.74 141.94 184.74 100.45 215.45 100.45 464.08 226.68 464.08 226.68 184.74" style="fill:#FFC727;"></polygon><polygon points="226.68 184.74 141.94 184.74 100.45 215.45 100.45 464.08 226.68 464.08 226.68 184.74" style="opacity:.5;"></polygon></g><rect x="141.94" y="184.74" width="84.74" height="279.34" style="opacity:.1;"></rect><g><polygon points="231.31 177 231.31 184.75 141.91 184.75 96.1 218.67 96.1 209.03 139.35 177 231.31 177" style="fill:#FFC727;"></polygon><polygon points="231.31 177 231.31 184.75 141.91 184.75 96.1 218.67 96.1 209.03 139.35 177 231.31 177" style="opacity:.5;"></polygon></g><polygon points="100.45 215.45 141.91 184.75 141.91 190.65 100.45 217.15 100.45 215.45" style="opacity:.1;"></polygon><polygon points="141.91 190.65 141.91 184.75 226.68 184.74 226.68 186.92 141.91 190.65" style="opacity:.1;"></polygon><g><rect x="199.04" y="173.04" width="22.48" height="3.96" style="fill:#263238;"></rect><path d="M187.9,118.16c2.34-3.86,10.34,.56,7.81,4.74-2.53,4.17-9.9-1.29-7.81-4.74Z" style="fill:#263238;"></path><path d="M211.28,173.04h-2v-35.95c0-3.49-1.89-6.71-4.93-8.42l-11.15-6.25,.98-1.75,11.15,6.25c3.67,2.06,5.95,5.95,5.95,10.16v35.95Z" style="fill:#263238;"></path></g></g></g></svg>
