<svg xmlns="http://www.w3.org/2000/svg" viewBox="0 0 500 500"><g id="freepik--Shadow--inject-29"><ellipse cx="249.7" cy="462.65" rx="74.79" ry="9.04" style="fill:#ebebeb"></ellipse></g><g id="freepik--Arrow--inject-29"><path d="M39.18,438.85V401s284.67-21.69,399.7-304l11.44,2.63S373.94,389,39.18,438.85Z" style="fill:#FFC727"></path><polygon points="461 109.16 425.03 98.5 453.11 72.58 461 109.16" style="fill:#FFC727"></polygon></g><g id="freepik--Character--inject-29"><path d="M272.68,199.24C267.76,205.1,255.54,210,255.54,210s2.71-12.86,7.63-18.72S273.73,185,273.73,185l3.3,2.78S277.59,193.38,272.68,199.24Z" style="fill:#FFC727;opacity:0.6000000000000001"></path><path d="M273.45,195.54c-3.5,4.18-12.21,7.66-12.21,7.66s1.93-9.17,5.44-13.35a12,12,0,0,1,7.52-4.48l2.36,2A11.94,11.94,0,0,1,273.45,195.54Z" style="fill:#FFC727;opacity:0.8"></path><path d="M333.63,136l-41.77,49.73-18.58-15.6L315,120.34c5.8-6.9,8.69-11.29,17.68-13.64,7.82-2,9.79-1.53,10.45-1s1.51,2.41.85,10.47C343.25,125.44,339.42,129.05,333.63,136Z" style="fill:#dbdbdb"></path><path d="M344.25,112.05l-7.5-6.3c4.53-.89,5.89-.47,6.42,0S344.35,107.44,344.25,112.05Z" style="fill:#c7c7c7"></path><g style="opacity:0.2"><path d="M330.62,107.32c2.26,1.76,4.44,3.62,6.65,5.42s4.37,3.69,6.5,5.62c-2.26-1.76-4.44-3.62-6.66-5.43S332.74,109.24,330.62,107.32Z" style="fill:#020100"></path><path d="M319.05,115.58c3.17,2.52,6.25,5.14,9.38,7.71s6.18,5.22,9.21,7.9c-3.17-2.52-6.25-5.14-9.37-7.71S322.08,118.26,319.05,115.58Z" style="fill:#020100"></path><path d="M321.59,112.83c3.12,2.48,6.15,5.07,9.23,7.59s6.09,5.14,9.08,7.79c-3.13-2.48-6.16-5.07-9.24-7.59S324.57,115.48,321.59,112.83Z" style="fill:#020100"></path><path d="M309.75,126.66c3.17,2.52,6.25,5.14,9.38,7.71s6.18,5.21,9.21,7.9c-3.17-2.52-6.25-5.15-9.38-7.71S312.78,129.34,309.75,126.66Z" style="fill:#020100"></path><path d="M300.45,137.73c3.17,2.52,6.25,5.15,9.37,7.71s6.19,5.22,9.22,7.9c-3.17-2.52-6.25-5.14-9.38-7.71S303.48,140.42,300.45,137.73Z" style="fill:#020100"></path><path d="M291.15,148.81c3.16,2.52,6.24,5.14,9.37,7.71s6.19,5.21,9.21,7.9c-3.16-2.52-6.24-5.14-9.37-7.71S294.18,151.49,291.15,148.81Z" style="fill:#020100"></path><path d="M281.85,159.89c3.16,2.52,6.24,5.14,9.37,7.7s6.18,5.22,9.21,7.9c-3.17-2.51-6.25-5.14-9.37-7.7S284.87,162.57,281.85,159.89Z" style="fill:#020100"></path><path d="M330.73,108.62a.35.35,0,1,1-.53-.45.36.36,0,0,1,.54,0A.37.37,0,0,1,330.73,108.62Zm0,0a.23.23,0,0,0-.07-.36.21.21,0,0,0-.27.07.21.21,0,0,0,0,.27A.23.23,0,0,0,330.73,108.62Z" style="fill:#020100"></path><path d="M333.17,110.66a.36.36,0,0,1-.45.08.36.36,0,0,1-.09-.53.36.36,0,0,1,.54,0A.35.35,0,0,1,333.17,110.66Zm0,0a.23.23,0,0,0-.08-.35.22.22,0,0,0-.27.06.23.23,0,0,0,0,.28A.24.24,0,0,0,333.17,110.66Z" style="fill:#020100"></path><path d="M335.6,112.71a.35.35,0,1,1-.53-.45.36.36,0,0,1,.54,0A.36.36,0,0,1,335.6,112.71Zm0,0a.23.23,0,0,0-.07-.36.21.21,0,0,0-.27.07.21.21,0,0,0,0,.27A.23.23,0,0,0,335.6,112.71Z" style="fill:#020100"></path><path d="M338,114.75a.35.35,0,1,1,0-.45A.35.35,0,0,1,338,114.75Zm0,0a.23.23,0,0,0-.08-.35.22.22,0,0,0-.27.06.23.23,0,0,0,0,.28A.24.24,0,0,0,338,114.75Z" style="fill:#020100"></path><path d="M340.47,116.8a.34.34,0,0,1-.44.08.35.35,0,0,1-.09-.53.36.36,0,0,1,.54,0A.35.35,0,0,1,340.47,116.8Zm0,0a.24.24,0,0,0-.07-.36.23.23,0,0,0-.27.07.21.21,0,0,0,0,.27A.22.22,0,0,0,340.47,116.8Z" style="fill:#020100"></path><path d="M342.91,118.84a.34.34,0,0,1-.45.08.35.35,0,1,1,.45-.53A.35.35,0,0,1,342.91,118.84Zm0,0a.23.23,0,0,0-.08-.35.23.23,0,0,0-.29.34A.24.24,0,0,0,342.91,118.84Z" style="fill:#020100"></path><path d="M321.94,119.08a.34.34,0,0,1-.44.08.36.36,0,0,1-.09-.53.36.36,0,0,1,.54,0A.34.34,0,0,1,321.94,119.08Zm0,0a.24.24,0,0,0-.07-.36.23.23,0,0,0-.27.07.22.22,0,0,0,0,.28A.23.23,0,0,0,321.94,119.08Z" style="fill:#020100"></path><path d="M324.38,121.12a.34.34,0,0,1-.44.09.35.35,0,1,1,.44-.54A.35.35,0,0,1,324.38,121.12Zm0,0a.22.22,0,0,0-.08-.35.2.2,0,0,0-.26.07.21.21,0,0,0,0,.27A.23.23,0,0,0,324.38,121.12Z" style="fill:#020100"></path><path d="M319.51,117a.36.36,0,0,1-.45.09.37.37,0,0,1-.09-.54.36.36,0,0,1,.54,0A.35.35,0,0,1,319.51,117Zm0,0a.23.23,0,0,0-.08-.35.24.24,0,0,0-.29.34A.24.24,0,0,0,319.51,117Z" style="fill:#020100"></path><path d="M326.81,123.17a.34.34,0,0,1-.44.08.36.36,0,0,1-.09-.53.36.36,0,0,1,.54,0A.34.34,0,0,1,326.81,123.17Zm0,0a.24.24,0,0,0-.07-.36.23.23,0,0,0-.27.07.23.23,0,0,0,0,.28A.23.23,0,0,0,326.81,123.17Z" style="fill:#020100"></path><path d="M329.25,125.21a.34.34,0,0,1-.44.09.36.36,0,1,1,.44-.09Zm0,0a.22.22,0,0,0-.08-.35.2.2,0,0,0-.26.07.21.21,0,0,0,0,.27A.22.22,0,0,0,329.25,125.21Z" style="fill:#020100"></path><path d="M331.69,127.26a.36.36,0,0,1-.45.08.36.36,0,0,1-.09-.53.36.36,0,0,1,.54,0A.35.35,0,0,1,331.69,127.26Zm0,0a.25.25,0,0,0-.08-.36.24.24,0,0,0-.29.35A.24.24,0,0,0,331.69,127.26Z" style="fill:#020100"></path><path d="M334.12,129.31a.35.35,0,1,1-.53-.45.36.36,0,0,1,.54,0A.37.37,0,0,1,334.12,129.31Zm0,0A.23.23,0,0,0,334,129a.2.2,0,0,0-.26.07.21.21,0,0,0,0,.27A.23.23,0,0,0,334.12,129.31Z" style="fill:#020100"></path><path d="M336.56,131.35a.36.36,0,0,1-.45.08.36.36,0,0,1-.09-.53.36.36,0,0,1,.54,0A.35.35,0,0,1,336.56,131.35Zm0,0a.25.25,0,0,0-.08-.36.24.24,0,0,0-.29.35A.24.24,0,0,0,336.56,131.35Z" style="fill:#020100"></path><path d="M324.26,116.32a.34.34,0,0,1-.44.08.35.35,0,0,1-.09-.53.36.36,0,0,1,.54,0A.34.34,0,0,1,324.26,116.32Zm0,0a.24.24,0,0,0-.07-.36.23.23,0,0,0-.27.07.21.21,0,0,0,0,.27A.22.22,0,0,0,324.26,116.32Z" style="fill:#020100"></path><path d="M326.7,118.36a.36.36,0,0,1-.45.09.37.37,0,0,1-.09-.54.36.36,0,0,1,.54,0A.35.35,0,0,1,326.7,118.36Zm0,0a.23.23,0,0,0-.08-.35.23.23,0,0,0-.27.06.24.24,0,0,0,0,.28A.24.24,0,0,0,326.7,118.36Z" style="fill:#020100"></path><path d="M321.83,114.27a.34.34,0,0,1-.45.08.35.35,0,1,1,.45-.53A.35.35,0,0,1,321.83,114.27Zm0,0a.23.23,0,0,0-.08-.35.23.23,0,0,0-.27.06.24.24,0,0,0,0,.28A.24.24,0,0,0,321.83,114.27Z" style="fill:#020100"></path><path d="M329.13,120.41a.34.34,0,0,1-.44.08.36.36,0,0,1-.09-.53.36.36,0,0,1,.54,0A.34.34,0,0,1,329.13,120.41Zm0,0a.24.24,0,0,0-.07-.36.23.23,0,0,0-.27.07.22.22,0,0,0,0,.28A.23.23,0,0,0,329.13,120.41Z" style="fill:#020100"></path><path d="M331.57,122.45a.35.35,0,0,1-.44.09.37.37,0,0,1-.1-.54.36.36,0,0,1,.54,0A.35.35,0,0,1,331.57,122.45Zm0,0a.22.22,0,0,0-.08-.35.21.21,0,0,0-.26.06.22.22,0,0,0,0,.28A.23.23,0,0,0,331.57,122.45Z" style="fill:#020100"></path><path d="M334,124.5a.34.34,0,0,1-.44.08.36.36,0,0,1-.09-.53.36.36,0,0,1,.54,0A.34.34,0,0,1,334,124.5Zm0,0a.24.24,0,0,0-.07-.36.23.23,0,0,0-.27.07.23.23,0,0,0,0,.28A.23.23,0,0,0,334,124.5Z" style="fill:#020100"></path><path d="M336.44,126.54a.34.34,0,0,1-.44.09.35.35,0,0,1-.09-.53.34.34,0,0,1,.53,0A.35.35,0,0,1,336.44,126.54Zm0,0a.22.22,0,0,0-.08-.35.2.2,0,0,0-.26.07.21.21,0,0,0,0,.27A.23.23,0,0,0,336.44,126.54Z" style="fill:#020100"></path><path d="M338.88,128.59a.36.36,0,0,1-.45.08.36.36,0,0,1-.09-.53.36.36,0,0,1,.54,0A.35.35,0,0,1,338.88,128.59Zm0,0a.25.25,0,0,0-.08-.36.24.24,0,0,0-.29.35A.24.24,0,0,0,338.88,128.59Z" style="fill:#020100"></path><path d="M312.52,130.3a.35.35,0,1,1-.53-.45.35.35,0,1,1,.53.45Zm0,0a.24.24,0,0,0-.07-.36.23.23,0,0,0-.27.07.22.22,0,0,0,0,.28A.23.23,0,0,0,312.52,130.3Z" style="fill:#020100"></path><path d="M315,132.34a.35.35,0,0,1-.45.09.36.36,0,0,1-.09-.53.35.35,0,1,1,.54.44Zm0,0a.23.23,0,0,0-.08-.35.24.24,0,0,0-.29.34A.24.24,0,0,0,315,132.34Z" style="fill:#020100"></path><path d="M310.09,128.25a.36.36,0,0,1-.45.09.37.37,0,0,1-.09-.54.36.36,0,0,1,.54,0A.35.35,0,0,1,310.09,128.25Zm0,0a.23.23,0,0,0-.08-.35.24.24,0,0,0-.29.34A.24.24,0,0,0,310.09,128.25Z" style="fill:#020100"></path><path d="M317.39,134.39a.35.35,0,1,1-.53-.45.36.36,0,0,1,.54,0A.35.35,0,0,1,317.39,134.39Zm0,0a.24.24,0,0,0-.07-.36.23.23,0,0,0-.27.07.22.22,0,0,0,0,.28A.23.23,0,0,0,317.39,134.39Z" style="fill:#020100"></path><path d="M319.83,136.43a.35.35,0,0,1-.45.09.36.36,0,0,1-.09-.53.36.36,0,0,1,.54,0A.35.35,0,0,1,319.83,136.43Zm0,0a.23.23,0,0,0-.08-.35.24.24,0,0,0-.29.34A.24.24,0,0,0,319.83,136.43Z" style="fill:#020100"></path><path d="M322.26,138.48a.34.34,0,0,1-.44.08.35.35,0,0,1-.09-.53.36.36,0,0,1,.54,0A.34.34,0,0,1,322.26,138.48Zm0,0a.24.24,0,0,0-.07-.36.23.23,0,0,0-.27.07.22.22,0,0,0,0,.28A.23.23,0,0,0,322.26,138.48Z" style="fill:#020100"></path><path d="M324.7,140.53a.36.36,0,0,1-.45.08.36.36,0,1,1,.45-.08Zm0,0a.24.24,0,0,0-.08-.36.24.24,0,0,0-.29.34A.24.24,0,0,0,324.7,140.53Z" style="fill:#020100"></path><path d="M327.13,142.57a.34.34,0,0,1-.44.08.36.36,0,0,1-.09-.53.36.36,0,0,1,.54,0A.34.34,0,0,1,327.13,142.57Zm0,0a.24.24,0,0,0-.07-.36.23.23,0,0,0-.27.07.22.22,0,0,0,0,.28A.23.23,0,0,0,327.13,142.57Z" style="fill:#020100"></path><path d="M303.1,141.52a.36.36,0,0,1-.45.08.36.36,0,0,1-.09-.53.36.36,0,0,1,.54,0A.35.35,0,0,1,303.1,141.52Zm0,0a.24.24,0,0,0-.08-.36.24.24,0,0,0-.27.07.25.25,0,0,0,0,.28A.24.24,0,0,0,303.1,141.52Z" style="fill:#020100"></path><path d="M305.53,143.56a.33.33,0,0,1-.44.09.36.36,0,0,1-.09-.53.35.35,0,0,1,.54,0A.33.33,0,0,1,305.53,143.56Zm0,0a.23.23,0,0,0-.07-.35.22.22,0,0,0-.27.07.21.21,0,0,0,0,.27A.23.23,0,0,0,305.53,143.56Z" style="fill:#020100"></path><path d="M300.66,139.47a.34.34,0,0,1-.44.09.36.36,0,1,1,.45-.54A.33.33,0,0,1,300.66,139.47Zm0,0a.23.23,0,0,0-.07-.35.22.22,0,0,0-.27.07.21.21,0,0,0,0,.27A.23.23,0,0,0,300.66,139.47Z" style="fill:#020100"></path><path d="M308,145.61a.34.34,0,0,1-.44.08.35.35,0,1,1,.44-.53A.35.35,0,0,1,308,145.61Zm0,0a.23.23,0,0,0-.08-.36.22.22,0,0,0-.26.07.22.22,0,0,0,0,.28A.23.23,0,0,0,308,145.61Z" style="fill:#020100"></path><path d="M310.4,147.65a.33.33,0,0,1-.44.09.36.36,0,0,1-.09-.53.36.36,0,0,1,.54,0A.33.33,0,0,1,310.4,147.65Zm0,0a.23.23,0,0,0-.07-.35.24.24,0,0,0-.29.34A.23.23,0,0,0,310.4,147.65Z" style="fill:#020100"></path><path d="M312.84,149.7a.35.35,0,1,1,0-.45A.34.34,0,0,1,312.84,149.7Zm0,0a.23.23,0,0,0-.08-.36.22.22,0,0,0-.26.07.22.22,0,0,0,0,.28A.23.23,0,0,0,312.84,149.7Z" style="fill:#020100"></path><path d="M315.28,151.74a.35.35,0,0,1-.45.09.36.36,0,0,1-.09-.53.36.36,0,0,1,.54,0A.35.35,0,0,1,315.28,151.74Zm0,0a.23.23,0,0,0-.08-.35.24.24,0,0,0-.29.34A.23.23,0,0,0,315.28,151.74Z" style="fill:#020100"></path><path d="M317.71,153.79a.35.35,0,1,1-.53-.45.35.35,0,1,1,.53.45Zm0,0a.23.23,0,0,0-.08-.36.22.22,0,0,0-.26.07.22.22,0,0,0,0,.28A.23.23,0,0,0,317.71,153.79Z" style="fill:#020100"></path><path d="M293.68,152.74a.36.36,0,0,1-.45.08.36.36,0,0,1-.09-.53.36.36,0,0,1,.54,0A.35.35,0,0,1,293.68,152.74Zm0,0a.25.25,0,0,0-.08-.36.24.24,0,0,0-.29.35A.24.24,0,0,0,293.68,152.74Z" style="fill:#020100"></path><path d="M296.11,154.78a.35.35,0,0,1-.44.09.36.36,0,1,1,.44-.09Zm0,0a.23.23,0,0,0-.07-.35.21.21,0,0,0-.27.07.21.21,0,0,0,0,.27A.23.23,0,0,0,296.11,154.78Z" style="fill:#020100"></path><path d="M291.24,150.69a.35.35,0,0,1-.44.09.36.36,0,1,1,.44-.09Zm0,0a.22.22,0,0,0-.08-.35.21.21,0,0,0-.26.06.22.22,0,0,0,0,.28A.23.23,0,0,0,291.24,150.69Z" style="fill:#020100"></path><path d="M298.55,156.83a.36.36,0,0,1-.45.08.36.36,0,0,1-.09-.53.36.36,0,0,1,.54,0A.35.35,0,0,1,298.55,156.83Zm0,0a.24.24,0,0,0-.08-.36.24.24,0,0,0-.29.35A.24.24,0,0,0,298.55,156.83Z" style="fill:#020100"></path><path d="M301,158.87a.34.34,0,0,1-.44.09.35.35,0,0,1-.09-.53.36.36,0,0,1,.54,0A.35.35,0,0,1,301,158.87Zm0,0a.23.23,0,0,0-.07-.35.21.21,0,0,0-.27.07.21.21,0,0,0,0,.27A.23.23,0,0,0,301,158.87Z" style="fill:#020100"></path><path d="M303.42,160.92a.36.36,0,0,1-.45.08.36.36,0,0,1-.09-.53.36.36,0,0,1,.54,0A.35.35,0,0,1,303.42,160.92Zm0,0a.24.24,0,0,0-.08-.36.24.24,0,0,0-.29.35A.24.24,0,0,0,303.42,160.92Z" style="fill:#020100"></path><path d="M305.85,163a.33.33,0,0,1-.44.09.35.35,0,0,1-.09-.53.36.36,0,0,1,.54,0A.33.33,0,0,1,305.85,163Zm0,0a.23.23,0,0,0-.07-.35.22.22,0,0,0-.27.07.21.21,0,0,0,0,.27A.22.22,0,0,0,305.85,163Z" style="fill:#020100"></path><path d="M308.29,165a.36.36,0,0,1-.45.08.36.36,0,0,1-.09-.53.36.36,0,0,1,.54,0A.35.35,0,0,1,308.29,165Zm0,0a.24.24,0,0,0-.08-.36.24.24,0,0,0-.29.35A.24.24,0,0,0,308.29,165Z" style="fill:#020100"></path><path d="M284.25,164a.34.34,0,0,1-.44.08.35.35,0,1,1,.45-.53A.34.34,0,0,1,284.25,164Zm0,0a.24.24,0,0,0-.07-.36.23.23,0,0,0-.27.07.22.22,0,0,0,0,.28A.23.23,0,0,0,284.25,164Z" style="fill:#020100"></path><path d="M286.69,166a.36.36,0,0,1-.45.09.37.37,0,0,1-.09-.54.36.36,0,0,1,.54,0A.35.35,0,0,1,286.69,166Zm0,0a.23.23,0,0,0-.08-.35.22.22,0,0,0-.27.07.23.23,0,0,0,0,.27A.24.24,0,0,0,286.69,166Z" style="fill:#020100"></path><path d="M281.82,161.91a.36.36,0,0,1-.45.09.37.37,0,0,1-.09-.54.36.36,0,0,1,.54,0A.35.35,0,0,1,281.82,161.91Zm0,0a.23.23,0,0,0-.08-.35.23.23,0,0,0-.27.06.24.24,0,0,0,0,.28A.24.24,0,0,0,281.82,161.91Z" style="fill:#020100"></path><path d="M289.12,168.05a.34.34,0,0,1-.44.08.36.36,0,0,1-.09-.53.36.36,0,0,1,.54,0A.34.34,0,0,1,289.12,168.05Zm0,0a.24.24,0,0,0-.07-.36.23.23,0,0,0-.27.07.22.22,0,0,0,0,.28A.23.23,0,0,0,289.12,168.05Z" style="fill:#020100"></path><path d="M291.56,170.09a.34.34,0,0,1-.44.09.35.35,0,1,1,.44-.54A.35.35,0,0,1,291.56,170.09Zm0,0a.22.22,0,0,0-.08-.35.2.2,0,0,0-.26.07.21.21,0,0,0,0,.27A.23.23,0,0,0,291.56,170.09Z" style="fill:#020100"></path><path d="M294,172.14a.34.34,0,0,1-.44.08.36.36,0,0,1-.09-.53.36.36,0,0,1,.54,0A.34.34,0,0,1,294,172.14Zm0,0a.24.24,0,0,0-.07-.36.23.23,0,0,0-.27.07.23.23,0,0,0,0,.28A.23.23,0,0,0,294,172.14Z" style="fill:#020100"></path><path d="M296.43,174.18a.34.34,0,0,1-.44.09.36.36,0,1,1,.44-.09Zm0,0a.22.22,0,0,0-.08-.35.2.2,0,0,0-.26.07.21.21,0,0,0,0,.27A.22.22,0,0,0,296.43,174.18Z" style="fill:#020100"></path><path d="M298.87,176.23a.36.36,0,0,1-.45.08.36.36,0,0,1-.09-.53.36.36,0,0,1,.54,0A.35.35,0,0,1,298.87,176.23Zm0,0a.25.25,0,0,0-.08-.36.24.24,0,0,0-.29.35A.24.24,0,0,0,298.87,176.23Z" style="fill:#020100"></path><path d="M343.17,105.72c-7.75,1.53-15.25,5.75-19.71,12.48l-15.41,18.4-31,36.68,30.77-36.84,15.47-18.35c1.3-1.52,2.55-3.08,3.9-4.57a22.41,22.41,0,0,1,4.78-3.61,41.32,41.32,0,0,1,5.41-2.6c.94-.37,1.88-.71,2.83-1,.48-.15,1-.29,1.45-.41A3.7,3.7,0,0,1,343.17,105.72Z" style="fill:#020100"></path><path d="M343.13,105.69a3.68,3.68,0,0,1,.08,1.48q0,.75-.15,1.5c-.12,1-.3,2-.5,3a41.3,41.3,0,0,1-1.62,5.78,22.62,22.62,0,0,1-2.73,5.34c-1.24,1.59-2.56,3.09-3.83,4.63L319,145.78l-31,36.67,30.78-36.83,15.46-18.36C340.11,121.71,343,113.59,343.13,105.69Z" style="fill:#020100"></path></g><rect x="274.03" y="177.42" width="14.54" height="3.94" transform="translate(181.26 -138.89) rotate(40.02)" style="fill:#263238"></rect><rect x="273.08" y="180.67" width="12.65" height="1.97" transform="translate(182.27 -137.14) rotate(40.02)" style="fill:#37474f"></rect><rect x="272.96" y="182.23" width="10.63" height="1.54" transform="translate(182.86 -136.1) rotate(40.02)" style="fill:#263238"></rect><rect x="265.31" y="187.1" width="17.6" height="1.72" transform="translate(185.08 -132.26) rotate(40.02)" style="fill:#263238"></rect><path d="M280.71,192.38l-12.1-10.16a8.85,8.85,0,0,1,12.1,10.16Z" style="fill:#37474f"></path><path d="M261.14,190c-4.92,5.86-17.14,10.75-17.14,10.75s2.71-12.87,7.64-18.73,10.55-6.28,10.55-6.28l3.3,2.77S266.05,184.16,261.14,190Z" style="fill:#FFC727;opacity:0.6000000000000001"></path><path d="M261.92,186.31c-3.51,4.18-12.22,7.66-12.22,7.66s1.93-9.17,5.44-13.35a12,12,0,0,1,7.53-4.47l2.35,2A12,12,0,0,1,261.92,186.31Z" style="fill:#FFC727;opacity:0.8"></path><path d="M322.09,126.72l-41.77,49.74-18.58-15.61s36-42.84,41.77-49.73,8.68-11.3,17.67-13.65c7.82-2,9.79-1.53,10.45-1s1.51,2.41.85,10.47C331.71,116.21,327.88,119.82,322.09,126.72Z" style="fill:#ebebeb"></path><path d="M332.71,102.82l-7.49-6.3c4.52-.89,5.89-.47,6.41,0S332.81,98.21,332.71,102.82Z" style="fill:#dbdbdb"></path><g style="opacity:0.2"><path d="M319.08,98.09c2.26,1.76,4.44,3.62,6.66,5.42s4.37,3.7,6.49,5.62c-2.26-1.76-4.44-3.62-6.65-5.42S321.21,100,319.08,98.09Z" style="fill:#020100"></path><path d="M307.52,106.35c3.16,2.52,6.24,5.15,9.37,7.71s6.18,5.22,9.21,7.9c-3.17-2.52-6.25-5.14-9.37-7.71S310.54,109,307.52,106.35Z" style="fill:#020100"></path><path d="M310.05,103.6c3.12,2.49,6.15,5.07,9.23,7.6s6.09,5.14,9.08,7.78c-3.12-2.48-6.16-5.06-9.24-7.59S313,106.25,310.05,103.6Z" style="fill:#020100"></path><path d="M298.21,117.43c3.17,2.52,6.25,5.14,9.38,7.71s6.18,5.22,9.21,7.9c-3.17-2.52-6.25-5.14-9.37-7.71S301.24,120.11,298.21,117.43Z" style="fill:#020100"></path><path d="M288.91,128.51c3.17,2.52,6.25,5.14,9.37,7.71s6.19,5.21,9.22,7.9c-3.17-2.52-6.25-5.15-9.38-7.71S291.94,131.19,288.91,128.51Z" style="fill:#020100"></path><path d="M279.61,139.58c3.17,2.52,6.25,5.14,9.37,7.71s6.19,5.22,9.22,7.9c-3.17-2.52-6.25-5.14-9.38-7.71S282.64,142.27,279.61,139.58Z" style="fill:#020100"></path><path d="M270.31,150.66c3.16,2.52,6.24,5.14,9.37,7.71s6.18,5.21,9.21,7.9c-3.16-2.52-6.24-5.14-9.37-7.71S273.34,153.34,270.31,150.66Z" style="fill:#020100"></path><path d="M319.19,99.39a.35.35,0,1,1-.53-.45.36.36,0,0,1,.54,0A.35.35,0,0,1,319.19,99.39Zm0,0a.24.24,0,0,0-.07-.36.23.23,0,0,0-.27.07.22.22,0,0,0,0,.28A.23.23,0,0,0,319.19,99.39Z" style="fill:#020100"></path><path d="M321.63,101.43a.35.35,0,0,1-.45.09.36.36,0,0,1-.09-.53.35.35,0,1,1,.54.44Zm0,0a.23.23,0,0,0-.08-.35.24.24,0,0,0-.29.34A.24.24,0,0,0,321.63,101.43Z" style="fill:#020100"></path><path d="M324.06,103.48a.34.34,0,0,1-.44.08.35.35,0,1,1,.45-.53A.34.34,0,0,1,324.06,103.48Zm0,0a.24.24,0,0,0-.07-.36.23.23,0,0,0-.27.07.22.22,0,0,0,0,.28A.23.23,0,0,0,324.06,103.48Z" style="fill:#020100"></path><path d="M326.5,105.52a.35.35,0,0,1-.45.09.36.36,0,0,1-.09-.53.36.36,0,0,1,.54,0A.35.35,0,0,1,326.5,105.52Zm0,0a.23.23,0,0,0-.08-.35.22.22,0,0,0-.27.07.23.23,0,0,0,0,.27A.24.24,0,0,0,326.5,105.52Z" style="fill:#020100"></path><path d="M328.93,107.57a.34.34,0,0,1-.44.08.36.36,0,0,1-.09-.53.36.36,0,0,1,.54,0A.34.34,0,0,1,328.93,107.57Zm0,0a.24.24,0,0,0-.07-.36.23.23,0,0,0-.27.07.22.22,0,0,0,0,.28A.23.23,0,0,0,328.93,107.57Z" style="fill:#020100"></path><path d="M331.37,109.62a.34.34,0,0,1-.44.08.35.35,0,1,1,.44-.54A.36.36,0,0,1,331.37,109.62Zm0,0a.23.23,0,0,0-.08-.36.2.2,0,0,0-.26.07.21.21,0,0,0,0,.27A.23.23,0,0,0,331.37,109.62Z" style="fill:#020100"></path><path d="M310.4,109.85a.33.33,0,0,1-.44.08.35.35,0,1,1,.45-.53A.33.33,0,0,1,310.4,109.85Zm0,0a.23.23,0,0,0-.07-.35.23.23,0,0,0-.27.06.23.23,0,0,0,0,.28A.23.23,0,0,0,310.4,109.85Z" style="fill:#020100"></path><path d="M312.84,111.9a.35.35,0,1,1-.53-.45.35.35,0,1,1,.53.45Zm0,0a.23.23,0,0,0-.08-.36.22.22,0,0,0-.26.07.21.21,0,0,0,0,.27A.22.22,0,0,0,312.84,111.9Z" style="fill:#020100"></path><path d="M308,107.81a.34.34,0,0,1-.44.08.36.36,0,0,1-.1-.53.35.35,0,1,1,.54.45Zm0,0a.23.23,0,0,0-.08-.36.22.22,0,0,0-.26.07.21.21,0,0,0,0,.27A.22.22,0,0,0,308,107.81Z" style="fill:#020100"></path><path d="M315.28,113.94a.36.36,0,0,1-.45.09.37.37,0,0,1-.09-.54.36.36,0,0,1,.54,0A.35.35,0,0,1,315.28,113.94Zm0,0a.23.23,0,1,0-.37,0A.24.24,0,0,0,315.28,113.94Z" style="fill:#020100"></path><path d="M317.71,116a.35.35,0,1,1-.53-.45.36.36,0,0,1,.54,0A.35.35,0,0,1,317.71,116Zm0,0a.24.24,0,0,0-.07-.36.23.23,0,0,0-.27.07.22.22,0,0,0,0,.28A.23.23,0,0,0,317.71,116Z" style="fill:#020100"></path><path d="M320.15,118a.36.36,0,0,1-.45.09.37.37,0,0,1-.09-.54.36.36,0,0,1,.54,0A.35.35,0,0,1,320.15,118Zm0,0a.23.23,0,0,0-.08-.35.23.23,0,0,0-.27.06.24.24,0,0,0,0,.28A.24.24,0,0,0,320.15,118Z" style="fill:#020100"></path><path d="M322.58,120.08a.35.35,0,1,1-.53-.45.36.36,0,0,1,.54,0A.35.35,0,0,1,322.58,120.08Zm0,0a.24.24,0,0,0-.07-.36.23.23,0,0,0-.27.07.22.22,0,0,0,0,.28A.23.23,0,0,0,322.58,120.08Z" style="fill:#020100"></path><path d="M325,122.12a.36.36,0,0,1-.45.09.37.37,0,0,1-.09-.54.36.36,0,0,1,.54,0A.35.35,0,0,1,325,122.12Zm0,0a.23.23,0,0,0-.08-.35.24.24,0,0,0-.29.34A.24.24,0,0,0,325,122.12Z" style="fill:#020100"></path><path d="M312.72,107.09a.34.34,0,0,1-.44.08.36.36,0,0,1-.09-.53.36.36,0,0,1,.54,0A.34.34,0,0,1,312.72,107.09Zm0,0a.24.24,0,0,0-.07-.36.23.23,0,0,0-.27.07.22.22,0,0,0,0,.28A.23.23,0,0,0,312.72,107.09Z" style="fill:#020100"></path><path d="M315.16,109.14a.34.34,0,0,1-.44.08.36.36,0,0,1-.1-.53.35.35,0,1,1,.54.45Zm0,0a.23.23,0,0,0-.08-.36.2.2,0,0,0-.26.07.21.21,0,0,0,0,.27A.23.23,0,0,0,315.16,109.14Z" style="fill:#020100"></path><path d="M310.29,105.05a.36.36,0,0,1-.45.08.36.36,0,1,1,.45-.08Zm0,0a.23.23,0,0,0-.08-.36.2.2,0,0,0-.26.07.22.22,0,0,0,0,.27A.24.24,0,0,0,310.29,105.05Z" style="fill:#020100"></path><path d="M317.59,111.18a.34.34,0,0,1-.44.08.36.36,0,0,1-.09-.53.36.36,0,0,1,.54,0A.34.34,0,0,1,317.59,111.18Zm0,0a.23.23,0,0,0-.07-.35.22.22,0,0,0-.27.06.23.23,0,0,0,0,.28A.23.23,0,0,0,317.59,111.18Z" style="fill:#020100"></path><path d="M320,113.23a.35.35,0,1,1-.53-.45.36.36,0,0,1,.54,0A.37.37,0,0,1,320,113.23Zm0,0a.23.23,0,0,0-.08-.36.2.2,0,0,0-.26.07.21.21,0,0,0,0,.27A.23.23,0,0,0,320,113.23Z" style="fill:#020100"></path><path d="M322.47,115.27a.35.35,0,1,1,0-.45A.35.35,0,0,1,322.47,115.27Zm0,0a.23.23,0,1,0-.37,0A.24.24,0,0,0,322.47,115.27Z" style="fill:#020100"></path><path d="M324.9,117.32a.35.35,0,1,1-.53-.45.35.35,0,1,1,.53.45Zm0,0a.24.24,0,0,0-.07-.36.23.23,0,0,0-.27.07.21.21,0,0,0,0,.27A.22.22,0,0,0,324.9,117.32Z" style="fill:#020100"></path><path d="M327.34,119.36a.36.36,0,0,1-.45.09.37.37,0,0,1-.09-.54.36.36,0,0,1,.54,0A.35.35,0,0,1,327.34,119.36Zm0,0a.23.23,0,0,0-.08-.35.23.23,0,0,0-.27.06.24.24,0,0,0,0,.28A.24.24,0,0,0,327.34,119.36Z" style="fill:#020100"></path><path d="M301,121.07a.35.35,0,1,1-.53-.45.36.36,0,0,1,.54,0A.35.35,0,0,1,301,121.07Zm0,0a.22.22,0,1,0-.34-.29.22.22,0,0,0,0,.28A.23.23,0,0,0,301,121.07Z" style="fill:#020100"></path><path d="M303.42,123.12a.36.36,0,0,1-.45.08.36.36,0,0,1-.09-.53.36.36,0,0,1,.54,0A.35.35,0,0,1,303.42,123.12Zm0,0a.24.24,0,0,0-.08-.36.24.24,0,0,0-.27.07.22.22,0,0,0,0,.27A.23.23,0,0,0,303.42,123.12Z" style="fill:#020100"></path><path d="M298.55,119a.36.36,0,0,1-.45.08.36.36,0,1,1,.45-.08Zm0,0a.24.24,0,0,0-.08-.36.24.24,0,0,0-.27.07.22.22,0,0,0,0,.27A.23.23,0,0,0,298.55,119Z" style="fill:#020100"></path><path d="M305.85,125.16a.34.34,0,0,1-.44.09.36.36,0,0,1-.09-.54.36.36,0,0,1,.54,0A.33.33,0,0,1,305.85,125.16Zm0,0a.23.23,0,0,0-.07-.35.23.23,0,0,0-.27.06.22.22,0,0,0,0,.28A.23.23,0,0,0,305.85,125.16Z" style="fill:#020100"></path><path d="M308.29,127.21a.36.36,0,0,1-.45.08.36.36,0,0,1-.09-.53.36.36,0,0,1,.54,0A.35.35,0,0,1,308.29,127.21Zm0,0a.24.24,0,0,0-.08-.36.24.24,0,0,0-.27.07.25.25,0,0,0,0,.28A.24.24,0,0,0,308.29,127.21Z" style="fill:#020100"></path><path d="M310.72,129.25a.34.34,0,0,1-.44.09.37.37,0,0,1-.09-.54.36.36,0,0,1,.54,0A.33.33,0,0,1,310.72,129.25Zm0,0a.23.23,0,0,0-.07-.35.23.23,0,0,0-.27.06.22.22,0,0,0,0,.28A.23.23,0,0,0,310.72,129.25Z" style="fill:#020100"></path><path d="M313.16,131.3a.34.34,0,0,1-.44.08.35.35,0,1,1,.44-.53A.35.35,0,0,1,313.16,131.3Zm0,0a.23.23,0,0,0-.08-.36.22.22,0,0,0-.26.07.22.22,0,0,0,0,.28A.23.23,0,0,0,313.16,131.3Z" style="fill:#020100"></path><path d="M315.59,133.34a.34.34,0,0,1-.44.09.37.37,0,0,1-.09-.54.36.36,0,0,1,.54,0A.33.33,0,0,1,315.59,133.34Zm0,0a.23.23,0,0,0-.07-.35.24.24,0,0,0-.29.34A.23.23,0,0,0,315.59,133.34Z" style="fill:#020100"></path><path d="M291.56,132.29a.34.34,0,0,1-.44.08.35.35,0,1,1,.44-.53A.35.35,0,0,1,291.56,132.29Zm0,0a.22.22,0,0,0-.08-.35.21.21,0,0,0-.26.06.22.22,0,0,0,0,.28A.23.23,0,0,0,291.56,132.29Z" style="fill:#020100"></path><path d="M294,134.34a.34.34,0,0,1-.44.08.36.36,0,0,1-.09-.53.36.36,0,0,1,.54,0A.34.34,0,0,1,294,134.34Zm0,0a.22.22,0,1,0-.34-.29.22.22,0,0,0,0,.27A.22.22,0,0,0,294,134.34Z" style="fill:#020100"></path><path d="M289.12,130.25a.34.34,0,0,1-.44.08.36.36,0,1,1,.45-.54A.35.35,0,0,1,289.12,130.25Zm0,0a.24.24,0,0,0-.07-.36.22.22,0,0,0-.27.07.21.21,0,0,0,0,.27A.23.23,0,0,0,289.12,130.25Z" style="fill:#020100"></path><path d="M296.43,136.38a.35.35,0,0,1-.44.09.36.36,0,1,1,.44-.09Zm0,0a.22.22,0,0,0-.08-.35.21.21,0,0,0-.26.06.22.22,0,0,0,0,.28A.23.23,0,0,0,296.43,136.38Z" style="fill:#020100"></path><path d="M298.87,138.43a.36.36,0,0,1-.45.08.36.36,0,0,1-.09-.53.36.36,0,0,1,.54,0A.35.35,0,0,1,298.87,138.43Zm0,0a.25.25,0,0,0-.08-.36.24.24,0,0,0-.29.35A.24.24,0,0,0,298.87,138.43Z" style="fill:#020100"></path><path d="M301.3,140.47a.35.35,0,0,1-.44.09.36.36,0,1,1,.45-.54A.35.35,0,0,1,301.3,140.47Zm0,0a.22.22,0,1,0-.34-.29.22.22,0,0,0,0,.28A.23.23,0,0,0,301.3,140.47Z" style="fill:#020100"></path><path d="M303.74,142.52a.36.36,0,0,1-.45.08.36.36,0,0,1-.09-.53.36.36,0,0,1,.54,0A.35.35,0,0,1,303.74,142.52Zm0,0a.24.24,0,0,0-.08-.36.24.24,0,0,0-.29.35A.24.24,0,0,0,303.74,142.52Z" style="fill:#020100"></path><path d="M306.17,144.56a.35.35,0,0,1-.44.09.36.36,0,1,1,.45-.54A.35.35,0,0,1,306.17,144.56Zm0,0a.23.23,0,0,0-.07-.35.21.21,0,0,0-.27.07.21.21,0,0,0,0,.27A.23.23,0,0,0,306.17,144.56Z" style="fill:#020100"></path><path d="M282.14,143.51a.35.35,0,1,1,0-.45A.35.35,0,0,1,282.14,143.51Zm0,0a.23.23,0,0,0-.08-.35.22.22,0,0,0-.27.06.23.23,0,0,0,0,.28A.24.24,0,0,0,282.14,143.51Z" style="fill:#020100"></path><path d="M284.57,145.56a.35.35,0,1,1-.53-.45.36.36,0,0,1,.54,0A.35.35,0,0,1,284.57,145.56Zm0,0a.24.24,0,0,0-.07-.36.23.23,0,0,0-.27.07.21.21,0,0,0,0,.27A.22.22,0,0,0,284.57,145.56Z" style="fill:#020100"></path><path d="M279.7,141.47a.35.35,0,1,1-.53-.45.36.36,0,0,1,.54,0A.36.36,0,0,1,279.7,141.47Zm0,0a.24.24,0,0,0-.07-.36.21.21,0,0,0-.27.07.21.21,0,0,0,0,.27A.23.23,0,0,0,279.7,141.47Z" style="fill:#020100"></path><path d="M287,147.6a.34.34,0,0,1-.45.08.35.35,0,1,1,.45-.53A.35.35,0,0,1,287,147.6Zm0,0a.23.23,0,0,0-.08-.35.23.23,0,0,0-.27.06.24.24,0,0,0,0,.28A.24.24,0,0,0,287,147.6Z" style="fill:#020100"></path><path d="M289.44,149.65a.34.34,0,0,1-.44.08.35.35,0,1,1,.45-.53A.34.34,0,0,1,289.44,149.65Zm0,0a.24.24,0,0,0-.07-.36.23.23,0,0,0-.27.07.21.21,0,0,0,0,.27A.22.22,0,0,0,289.44,149.65Z" style="fill:#020100"></path><path d="M291.88,151.69a.36.36,0,0,1-.45.09.37.37,0,0,1-.09-.54.36.36,0,0,1,.54,0A.35.35,0,0,1,291.88,151.69Zm0,0a.22.22,0,0,0-.08-.35.23.23,0,0,0-.27.06.25.25,0,0,0,0,.28A.24.24,0,0,0,291.88,151.69Z" style="fill:#020100"></path><path d="M294.31,153.74a.34.34,0,0,1-.44.08.36.36,0,0,1-.09-.53.36.36,0,0,1,.54,0A.34.34,0,0,1,294.31,153.74Zm0,0a.24.24,0,0,0-.07-.36.23.23,0,0,0-.27.07.22.22,0,0,0,0,.28A.23.23,0,0,0,294.31,153.74Z" style="fill:#020100"></path><path d="M296.75,155.78a.35.35,0,0,1-.44.09.37.37,0,0,1-.1-.54.36.36,0,0,1,.54,0A.35.35,0,0,1,296.75,155.78Zm0,0a.22.22,0,0,0-.08-.35.2.2,0,0,0-.26.07.21.21,0,0,0,0,.27A.23.23,0,0,0,296.75,155.78Z" style="fill:#020100"></path><path d="M272.71,154.73a.34.34,0,0,1-.44.08.35.35,0,1,1,.45-.53A.34.34,0,0,1,272.71,154.73Zm0,0a.23.23,0,0,0-.07-.35.22.22,0,0,0-.27.06.23.23,0,0,0,0,.28A.23.23,0,0,0,272.71,154.73Z" style="fill:#020100"></path><path d="M275.15,156.78a.34.34,0,0,1-.44.08.35.35,0,1,1,.44-.53A.35.35,0,0,1,275.15,156.78Zm0,0a.23.23,0,0,0-.08-.36.22.22,0,0,0-.26.07.21.21,0,0,0,0,.27A.22.22,0,0,0,275.15,156.78Z" style="fill:#020100"></path><path d="M270.28,152.69a.36.36,0,0,1-.45.08.36.36,0,1,1,.45-.08Zm0,0a.23.23,0,0,0-.08-.36.2.2,0,0,0-.26.07.22.22,0,0,0,0,.27A.24.24,0,0,0,270.28,152.69Z" style="fill:#020100"></path><path d="M277.58,158.82a.33.33,0,0,1-.44.08.35.35,0,1,1,.45-.53A.33.33,0,0,1,277.58,158.82Zm0,0a.23.23,0,0,0-.07-.35.23.23,0,0,0-.27.06.24.24,0,0,0,0,.28A.23.23,0,0,0,277.58,158.82Z" style="fill:#020100"></path><path d="M280,160.87a.35.35,0,1,1-.53-.45.35.35,0,1,1,.53.45Zm0,0a.23.23,0,0,0-.08-.36.22.22,0,0,0-.26.07.21.21,0,0,0,0,.27A.22.22,0,0,0,280,160.87Z" style="fill:#020100"></path><path d="M282.46,162.91a.36.36,0,0,1-.45.09.37.37,0,0,1-.09-.54.36.36,0,0,1,.54,0A.35.35,0,0,1,282.46,162.91Zm0,0a.23.23,0,1,0-.37,0A.24.24,0,0,0,282.46,162.91Z" style="fill:#020100"></path><path d="M284.89,165a.35.35,0,1,1-.53-.45.36.36,0,0,1,.54,0A.35.35,0,0,1,284.89,165Zm0,0a.24.24,0,0,0-.07-.36.23.23,0,0,0-.27.07.22.22,0,0,0,0,.28A.23.23,0,0,0,284.89,165Z" style="fill:#020100"></path><path d="M287.33,167a.36.36,0,0,1-.45.09.37.37,0,0,1-.09-.54.36.36,0,0,1,.54,0A.35.35,0,0,1,287.33,167Zm0,0a.23.23,0,0,0-.08-.35.23.23,0,0,0-.27.06.24.24,0,0,0,0,.28A.24.24,0,0,0,287.33,167Z" style="fill:#020100"></path><path d="M331.63,96.49c-7.75,1.53-15.25,5.76-19.71,12.48l-15.41,18.41-31,36.67,30.77-36.84,15.47-18.35c1.3-1.52,2.55-3.07,3.9-4.56a22,22,0,0,1,4.79-3.62,41.37,41.37,0,0,1,5.41-2.6c.93-.36,1.87-.71,2.82-1,.48-.15,1-.29,1.45-.41A4.1,4.1,0,0,1,331.63,96.49Z" style="fill:#020100"></path><path d="M331.6,96.46a4.13,4.13,0,0,1,.08,1.49c0,.5-.09,1-.16,1.49-.12,1-.3,2-.5,3a40.34,40.34,0,0,1-1.62,5.78,23,23,0,0,1-2.73,5.34c-1.24,1.58-2.56,3.08-3.83,4.62l-15.4,18.41-31,36.68,30.78-36.84L322.71,118C328.57,112.48,331.43,104.37,331.6,96.46Z" style="fill:#020100"></path></g><rect x="262.49" y="168.19" width="14.54" height="3.94" transform="translate(172.62 -133.63) rotate(40.02)" style="fill:#263238"></rect><rect x="261.54" y="171.44" width="12.65" height="1.97" transform="translate(173.63 -131.88) rotate(40.02)" style="fill:#37474f"></rect><rect x="261.42" y="173" width="10.63" height="1.54" transform="translate(174.23 -130.84) rotate(40.02)" style="fill:#263238"></rect><rect x="253.77" y="177.87" width="17.6" height="1.72" transform="translate(176.44 -127) rotate(40.02)" style="fill:#263238"></rect><path d="M269.17,183.15,257.08,173a8.85,8.85,0,0,1,12.09,10.16Z" style="fill:#37474f"></path><path d="M203.2,302.62l-28.84,15.79c-7.62.48-14.3,1-17.73,1.66h0a5.29,5.29,0,0,0-2.32.72l0,0c-1.39,2.37.74,63.42,1.53,65.53s6.85,0,8.66-2.42,11.44-26.19,11.44-26.19l28.77-16.15Z" style="fill:#eb9481"></path><path d="M183.67,353.37l-7.83,4.39S166.21,381.49,164.4,384s-7.88,4.53-8.66,2.42-2.92-63.16-1.53-65.53a.1.1,0,0,1,0,0,5.44,5.44,0,0,1,2.32-.72h0c3.43-.62,10.11-1.18,17.74-1.66,0,0,1.8-1,4.52-2.46Z" style="fill:#ebebeb"></path><path d="M155.74,386.37c-.8-2.11-2.92-63.15-1.52-65.53.51-.91,9.39-1.74,20.14-2.43l.34,0,1.81,39.37h-.67S166.2,381.5,164.39,384,156.52,388.48,155.74,386.37Z" style="fill:#FFC727"></path><path d="M155.74,386.37c-.8-2.11-2.92-63.15-1.52-65.53.51-.91,9.39-1.74,20.14-2.43l.34,0,1.81,39.37h-.67S166.2,381.5,164.39,384,156.52,388.48,155.74,386.37Z" style="opacity:0.4"></path><path d="M158.08,385.59c-.11-10.29-1.5-51.83-2.39-62,0-.08-.06-.08-.07,0-.11,10.22,1.62,51.73,2.29,62C157.93,385.82,158.08,385.81,158.08,385.59Z" style="fill:#263238"></path><path d="M175.84,361.08c.61-4.08-.18-9-3.17-12-.12-.12-.28.05-.24.18a57,57,0,0,1,2.9,11.82A.26.26,0,0,0,175.84,361.08Z" style="fill:#263238"></path><path d="M174.18,364.06c.61-4.07-.18-9-3.17-12-.12-.11-.28.05-.24.18a57.28,57.28,0,0,1,2.9,11.83A.26.26,0,0,0,174.18,364.06Z" style="fill:#263238"></path><path d="M172.52,367.05c.61-4.08-.18-9-3.17-12-.12-.12-.28.05-.24.18a57,57,0,0,1,2.9,11.82A.26.26,0,0,0,172.52,367.05Z" style="fill:#263238"></path><path d="M172.87,313.5,189,353.06s85.31-35.65,103.43-53.82c16-16.06,49-110.4,49-110.4l-31.89-16.9S275.89,245.07,261.39,271C256.8,279.22,172.87,313.5,172.87,313.5Z" style="fill:#37474f"></path><path d="M335.13,185.52,268,258.63c16-31.21,41.08-85.7,41.53-86.68h0Z" style="fill:#263238"></path><path d="M313.64,178.76l-9.55,22.93-9.72,22.86c-6.53,15.22-23.8,50-26.65,53.32-3.72,4.26-71.33,33.37-78.77,36.51-.44.19-.29-.27-.29-.27s76-33.54,78.29-37c2.76-4.21,20.09-37.69,26.76-52.84Z" style="fill:#263238"></path><path d="M195.61,347.42c-2.15-6.09-1.45-4.37-3.67-10.44-1.09-3-8.28-22.49-9.8-25.07,0-.06-.13,0-.12,0,.57,2.95,8.1,22.33,9.25,25.28,2.35,6,1.74,4.27,4.16,10.26A.1.1,0,0,0,195.61,347.42Z" style="fill:#263238"></path><path d="M176.48,275.19S147.67,291,147.64,291c-7.62.49-14.3,1-17.73,1.67h0a5.34,5.34,0,0,0-2.32.71s0,0-.05.05c-1.39,2.37.74,63.42,1.53,65.52s6.85,0,8.66-2.42,11.44-26.18,11.44-26.18l28.77-16.16Z" style="fill:#eb9481"></path><path d="M157,325.93l-7.83,4.4s-9.63,23.73-11.44,26.18S129.8,361,129,358.93s-2.92-63.16-1.53-65.52a.12.12,0,0,1,.05-.05,5.59,5.59,0,0,1,2.32-.72h0c3.43-.61,10.11-1.17,17.74-1.66,0,0,1.8-1,4.52-2.46Z" style="fill:#ebebeb"></path><path d="M129,358.93c-.8-2.11-2.92-63.15-1.52-65.52.51-.92,9.39-1.74,20.14-2.44l.34,0,1.81,39.37h-.67s-9.64,23.73-11.45,26.18S129.8,361,129,358.93Z" style="fill:#FFC727"></path><path d="M129,358.93c-.8-2.11-2.92-63.15-1.52-65.52.51-.92,9.39-1.74,20.14-2.44l.34,0,1.81,39.37h-.67s-9.64,23.73-11.45,26.18S129.8,361,129,358.93Z" style="opacity:0.4"></path><path d="M131.36,358.16c-.11-10.3-1.5-51.83-2.39-62,0-.09-.06-.08-.07,0-.11,10.21,1.62,51.73,2.29,62C131.21,358.38,131.36,358.38,131.36,358.16Z" style="fill:#263238"></path><path d="M149.12,333.64c.61-4.07-.18-9-3.17-12-.12-.11-.28.05-.24.18a57.28,57.28,0,0,1,2.9,11.83A.26.26,0,0,0,149.12,333.64Z" style="fill:#263238"></path><path d="M147.46,336.63c.61-4.08-.18-9-3.17-12-.12-.12-.28.05-.24.18a57,57,0,0,1,2.9,11.82A.26.26,0,0,0,147.46,336.63Z" style="fill:#263238"></path><path d="M145.8,339.61c.61-4.07-.18-9-3.17-12-.12-.11-.28.05-.24.18a57.19,57.19,0,0,1,2.9,11.82A.26.26,0,0,0,145.8,339.61Z" style="fill:#263238"></path><path d="M338.14,187.09l0,0c-.49.59-8.2,9.75-15.22,17.41-5.12,5.6-9.88,10.39-11.18,10.46-1.48.07-8.24-.41-10.48-.62,0,0-35.27,48.14-50.1,62.62-15,14.69-86.88,51.57-86.88,51.57l-16.34-40s62.3-33.91,69.79-40.91c11.62-10.84,54.65-58.07,54.65-58.07S283,169.2,294.51,164Z" style="fill:#37474f"></path><path d="M171.31,323.26c-2.36-6.24-1.6-4.48-4-10.69-1.2-3-9.05-23-10.66-25.65a.07.07,0,0,0-.13.05c.68,3,8.88,22.85,10.13,25.86,2.55,6.17,1.89,4.37,4.51,10.5A.1.1,0,1,0,171.31,323.26Z" style="fill:#263238"></path><path d="M284.59,188.81c1.12.27,2.22.75,3.31,1.12.88.31,1.76.59,2.66.84a12.09,12.09,0,0,0,5.24.47,11.7,11.7,0,0,0,5.06-2.84c.89-.73,1.8-1.45,2.71-2.15l1.33-1a14.92,14.92,0,0,0,1.62-1.22c.07-.06.18.05.11.11a11.1,11.1,0,0,0-1,1l-1.13,1.15c-.68.67-1.35,1.35-2,2a22.07,22.07,0,0,1-4,3.33c-2.75,1.58-5.91,1.13-8.75,0-.81-.3-1.61-.66-2.4-1a18.71,18.71,0,0,1-2.91-1.52A.15.15,0,0,1,284.59,188.81Z" style="fill:#263238"></path><path d="M315.4,215.07a79.73,79.73,0,0,0-14.07-.72.14.14,0,1,0,0,.28c4.67.39,9.37.88,14.06,1A.28.28,0,0,0,315.4,215.07Z" style="fill:#263238"></path><path d="M330.35,189.63c.06-.14-.16-.29-.23-.15a142.73,142.73,0,0,1-7.37,12.37c-1.22,1.87-8.53,11.86-11.51,9.27-.5-.44-.49-1.15-.12-2.05a15,15,0,0,1,2.21-3.08c1.57-2.07,3.08-4.18,4.49-6.37a70.1,70.1,0,0,0,6.65-12.88.13.13,0,0,0-.23-.1,133.39,133.39,0,0,1-10.4,17.13c-1.92,2.59-5.58,6.07-2.87,8.07s8.47-4,9.87-5.79A73.66,73.66,0,0,0,330.35,189.63Z" style="fill:#263238"></path><path d="M311.18,211.46a19.93,19.93,0,0,0-1.95,1.84,5.67,5.67,0,0,0-1.3,1.67c-.05.13.1.22.21.18a7.45,7.45,0,0,0,1.74-1.38c.63-.56,1.27-1.1,1.87-1.68A.42.42,0,0,0,311.18,211.46Z" style="fill:#263238"></path><path d="M163.32,289.23c10.24-6.93,53.43-32,57.68-36.28q12.94-12.94,25.48-26.3t24.6-27.13c2-2.29,4.09-4.55,6-6.93a27.44,27.44,0,0,0,4.28-8.09,29.09,29.09,0,0,1,3.93-7.56,55.66,55.66,0,0,1,5.66-6.42c1.07-1.06,2.16-2.09,3.26-3.11.13-.12.31.06.19.18-4.24,4.26-8.56,8.56-11.07,14.11-1.21,2.68-1.88,5.58-3.3,8.16a41.74,41.74,0,0,1-5.36,6.94q-12.06,13.89-24.6,27.36c-8.35,9-19.25,20.49-27.89,29.2-4.2,4.23-57.45,35.19-58.78,36C163.31,289.42,163.24,289.29,163.32,289.23Z" style="fill:#263238"></path><path d="M176.47,322.35l18-10.13c6-3.38,12-6.74,17.95-10.2s11.9-6.91,17.78-10.46l4.4-2.69,4.34-2.79c1.45-.92,2.86-1.91,4.29-2.86s2.78-2,4.18-3a149.58,149.58,0,0,1-16.8,12c-5.82,3.7-11.74,7.21-17.7,10.68s-12,6.76-18.07,10S182.66,319.32,176.47,322.35Z" style="fill:#263238"></path><path d="M285.21,169.26c.09.2,54.84,28.18,54.84,28.18,1-.67,14-49.42,12.39-69.52-.67-8.35-8.6-17.22-15.45-14.52C313.37,122.71,284.86,168.55,285.21,169.26Z" style="fill:#FFC727"></path><polygon points="352.17 187.54 288.71 161.66 291.56 156.43 354.4 182.06 352.17 187.54" style="fill:#ebebeb"></polygon><rect x="343.91" y="166.51" width="24.87" height="5.91" transform="translate(64.85 435.41) rotate(-67.81)" style="fill:#ebebeb"></rect><rect x="348.54" y="154.12" width="24.87" height="8.02" transform="translate(78.22 432.64) rotate(-67.81)" style="fill:#455a64"></rect><path d="M327.5,118.18C315.71,126,293.59,144,293.87,154.61c.26,10.19,38.73,13.67,46.55,14.35,3.21.28,10.51-23.92,7.14-24.63-7.4-1.58-24.72-1.47-24.94-1.83s6.4-9.22,12.57-18.2C344.16,111.24,336,112.58,327.5,118.18Z" style="fill:#eb9481"></path><path d="M373,149.77c.22,3-2.84,3.15-2.84,3.15a5.51,5.51,0,0,1,1.66,3.39c.14,2.28-3.37,3.5-3.37,3.5a6.76,6.76,0,0,1,1.18,3.85c-.08,2.2-3.45,3.94-3.45,3.94a6,6,0,0,1-1.09,4c-2.36,3-8.22,2.48-11.94,2.1-5.53-.56-14-4.8-16-5.45l2-23.92s17.08-3,21.46-2.2S372.74,146.86,373,149.77Z" style="fill:#eb9481"></path><path d="M370,152.52c-3.66-1.85-7.65-2.51-11.61-3.4-.08,0-.11.12,0,.14,3.95.84,7.67,2.45,11.57,3.44C370,152.73,370.08,152.57,370,152.52Z" style="fill:#263238"></path><path d="M368.36,159.49a10.43,10.43,0,0,0-2.71-.66c-1-.17-1.95-.33-2.93-.46-2-.28-3.92-.51-5.9-.68-.08,0-.12.13,0,.14,2,.28,3.91.58,5.85.94l2.9.56a12.37,12.37,0,0,0,2.76.42A.14.14,0,0,0,368.36,159.49Z" style="fill:#263238"></path><path d="M366.06,167.58a7.62,7.62,0,0,0-2.47-.47c-.9-.1-1.79-.21-2.69-.33-1.78-.23-3.57-.46-5.35-.76a.07.07,0,0,0,0,.14c1.81.31,3.61.64,5.42.93.88.15,1.77.28,2.66.42a7,7,0,0,0,2.45.16A0,0,0,0,0,366.06,167.58Z" style="fill:#263238"></path><path d="M338.7,142.42l-3.23,27.93s-31.88-4.81-39.6-11.68,7.18-20.44,10.17-23.74c2.14-2.36,17.27-15.15,25.08-19.23s11-2.11,5.53,7-13.34,19.22-12.88,19.3S338.7,142.42,338.7,142.42Z" style="fill:#FFC727"></path><path d="M323.93,141.64a28.45,28.45,0,0,0-5.25,1.8,49.25,49.25,0,0,0-4.76,2.4s0,.09.07.07c1.62-.76,3.36-1.37,5-2.06s3.48-1.23,5.09-2C324.22,141.82,324.05,141.62,323.93,141.64Z" style="fill:#263238"></path><path d="M311.68,129.86c-2.39,2.18-4.73,4.41-7,6.75a72.74,72.74,0,0,0-6.29,7.32,31.57,31.57,0,0,0-2.51,4.07,15.89,15.89,0,0,0-1.63,4.41,6.17,6.17,0,0,0,.7,4.37,9.5,9.5,0,0,0,3.37,3.1,40.23,40.23,0,0,0,8.87,3.56c3.08.93,6.21,1.72,9.34,2.51s6.28,1.54,9.44,2.25,6.3,1.43,9.47,2.1l-.07,0,.27-1.83-.16,1.84v.06h-.06c-3.2-.52-6.38-1.08-9.56-1.69s-6.35-1.28-9.51-2-6.3-1.52-9.42-2.43a39.06,39.06,0,0,1-9.12-3.59,10.41,10.41,0,0,1-3.66-3.45,6.28,6.28,0,0,1-.85-2.45,7.79,7.79,0,0,1,.08-2.55,16.59,16.59,0,0,1,1.75-4.65,27.91,27.91,0,0,1,2.67-4.12A87,87,0,0,1,311.68,129.86Z" style="fill:#263238"></path><path d="M333.33,127.91c-.7,1.13-1.43,2.24-2.15,3.36l-2.2,3.32c-1.46,2.23-3,4.41-4.41,6.64l-.26.41-.12.21-.05.09,0,0h0v-.06a.34.34,0,0,0-.07-.22l0,0-.08,0,0,0s0,0,0,0H324l.24,0,.48,0c.66,0,1.33.08,2,.1l4,.19,4,.2,4,.25h0v0l-.1.59,0-.6,0,0c-1.34,0-2.67.07-4,.08h-4c-1.33,0-2.66,0-4-.07l-2-.08-.51,0-.26,0-.14,0h-.07l-.07,0-.13-.07a.33.33,0,0,1-.06-.06.41.41,0,0,1-.08-.24s0-.08,0-.07v0l0,0s0-.05,0-.06l0-.07.07-.13.13-.23.27-.43c1.47-2.24,3-4.41,4.57-6.55l2.37-3.22C331.7,130,332.5,128.94,333.33,127.91Z" style="fill:#263238"></path><path d="M330.26,158.14c.39-3.2.8-6.4,1.07-9.62.15-1.83.31-3.66.44-5.49,0-.07-.11-.09-.12,0-.52,3.2-1,6.41-1.4,9.63s-.76,6.41-1.08,9.63q-.29,2.73-.39,5.49s.06,0,.07,0C329.47,164.58,329.87,161.37,330.26,158.14Z" style="fill:#263238"></path><path d="M332.44,131.09a22.43,22.43,0,0,1-3.47,3.18,22.43,22.43,0,0,1,3.47-3.18Z" style="fill:#263238"></path><path d="M346.08,126.61c-2.77.26-7.89-6.39-8.48-11.07,0-.32,5.22-10.45,6-12.56.17-.43,12,8.45,12,8.45a36.31,36.31,0,0,0-4.48,7.61,5.55,5.55,0,0,0-.25.9l0,.15C350.49,121.85,349.15,126.33,346.08,126.61Z" style="fill:#eb9481"></path><path d="M355.64,111.42a36.83,36.83,0,0,0-4.31,7.22c-3.86-1.14-10.07-7.69-7.51-15.62C345.23,103.6,355.64,111.42,355.64,111.42Z" style="fill:#263238"></path><path d="M340.46,88.27c-1.21,5.18,2.45,19.69,6.28,22.72,5.56,4.4,14.17,4.28,17.79-2.28,3.5-6.37-1.61-25.19-5.84-27.9C352.45,76.82,342.26,80.6,340.46,88.27Z" style="fill:#eb9481"></path><path d="M356.22,96.73s-.06.06-.05.1c.27,1,.41,2.11-.39,2.64,0,0,0,.07,0,.06C356.84,99.12,356.63,97.6,356.22,96.73Z" style="fill:#263238"></path><path d="M355.11,95.93c-1.59.26-.94,3.41.53,3.17S356.44,95.71,355.11,95.93Z" style="fill:#263238"></path><path d="M361.6,95.56s.08,0,.09.07c.17,1,.53,2.09,1.48,2.23,0,0,0,.06,0,.06C362.06,98,361.6,96.52,361.6,95.56Z" style="fill:#263238"></path><path d="M362.26,94.36c1.55-.43,2.32,2.69.88,3.1S361,94.73,362.26,94.36Z" style="fill:#263238"></path><path d="M353.49,93.61c.42-.16.79-.37,1.2-.56a2.19,2.19,0,0,0,1.11-.8.66.66,0,0,0-.19-.81,1.69,1.69,0,0,0-1.71,0,2.5,2.5,0,0,0-1.32,1.2A.73.73,0,0,0,353.49,93.61Z" style="fill:#263238"></path><path d="M363.77,93.07a13.07,13.07,0,0,1-1.22.51,2.12,2.12,0,0,1-1.34.29.68.68,0,0,1-.47-.68,1.68,1.68,0,0,1,1.14-1.28,2.49,2.49,0,0,1,1.78-.16A.72.72,0,0,1,363.77,93.07Z" style="fill:#263238"></path><path d="M356.84,105.81c.29.18.58.45.94.41a2.61,2.61,0,0,0,1-.46,0,0,0,0,1,.06,0,1.34,1.34,0,0,1-1.14.78,1.06,1.06,0,0,1-.94-.71C356.73,105.82,356.8,105.78,356.84,105.81Z" style="fill:#263238"></path><path d="M357.28,102.67a3.38,3.38,0,0,0,2.52,1,4.54,4.54,0,0,0,1.21-.18l.22-.08.21-.07a.25.25,0,0,0,.15-.26h0a.54.54,0,0,0,0-.1h0l0-.09c-.13-.76-.44-1.89-.44-1.89.31.09,1.84.43,1.73,0a50.88,50.88,0,0,0-3.33-9.81c-.05-.1-.21,0-.18.06.7,3.13,1.95,6.1,2.7,9.23a5.86,5.86,0,0,0-1.67-.16c-.1.06.63,2.18.66,2.52,0,0,0,0,0,0a4.7,4.7,0,0,1-3.66-.37C357.27,102.53,357.2,102.61,357.28,102.67Z" style="fill:#263238"></path><path d="M360.49,103.22a4.09,4.09,0,0,1-1.33,1.55,1.87,1.87,0,0,1-1.07.29c-.82,0-1-.76-1-1.4a4.71,4.71,0,0,1,.16-1A5.24,5.24,0,0,0,360.49,103.22Z" style="fill:#263238"></path><path d="M359.16,104.77a1.87,1.87,0,0,1-1.07.29c-.82,0-1-.76-1-1.4A1.87,1.87,0,0,1,359.16,104.77Z" style="fill:#ff9cbd"></path><path d="M343.52,100.2c2.56-.46,1.56-6.72,1.56-6.72s3.84-1.17,5.11-6.79c0,0,5.43,2.57,9.57,1.29,6.5-2,5.28-10.6,2.59-12.06-3.82-2.07-9.66,2.31-9.66,2.31s-9.8-1.51-11.86,5.25a4.9,4.9,0,0,0-3.94,5.4C337.16,93.59,341.62,100.55,343.52,100.2Z" style="fill:#263238"></path><path d="M344.24,94.34A8.87,8.87,0,0,0,348.88,91a6.57,6.57,0,0,0,.81-6c0-.1.13-.16.17-.06a7.61,7.61,0,0,1-.3,6.43,6.13,6.13,0,0,1-5.28,3.11C344.18,94.52,344.13,94.37,344.24,94.34Z" style="fill:#263238"></path><path d="M336.22,86.18c1.11-1.81,3.07-2.31,5-2.47.12,0,.13.17,0,.17a5.52,5.52,0,0,0-4.59,3.25c-.81,1.68-.35,3.61.26,5.28a13.87,13.87,0,0,0,6.49,7.56c.05,0,0,.1,0,.08a13.93,13.93,0,0,1-7.26-8.25C335.6,90,335.2,87.86,336.22,86.18Z" style="fill:#263238"></path><path d="M352.47,78.57a6.55,6.55,0,0,1,3.31-3.23,7.83,7.83,0,0,1,5.58-.1,4.4,4.4,0,0,1,2.74,3.46A7.78,7.78,0,0,1,363,83.8s-.09,0-.07,0a7.77,7.77,0,0,0,.82-4.61,4.05,4.05,0,0,0-2.8-3.29c-2.86-.88-6.82-.2-8.27,2.78A.09.09,0,0,1,352.47,78.57Z" style="fill:#263238"></path><path d="M345.08,100s-3.73-4.45-5.77-3.08,1,8,3.64,8.74a2.57,2.57,0,0,0,3.32-1.68Z" style="fill:#eb9481"></path><path d="M340.24,98.81a0,0,0,0,0,0,.07,6.56,6.56,0,0,1,3.71,3.77,1.43,1.43,0,0,0-2.16-.2s0,.1.06.09a1.59,1.59,0,0,1,1.79.4,7.84,7.84,0,0,1,.95,1.33c.1.16.38,0,.3-.13l0,0C344.71,101.84,342.68,98.83,340.24,98.81Z" style="fill:#263238"></path><path d="M351.06,119.21l-5.51,7.34-7.43-13-3.76,2.56s5.59,19.09,5.85,18.37l5.24-6.17,3.58,6.2L351.89,122Z" style="fill:#fff"></path><path d="M350.79,128.4c.4-2.07.87-4.14,1.18-6.23,0-.07-.1-.13-.14,0-.92,1.85-2.43,9.77-2.93,11.63v0c-.15-.26-3.38-5.51-3.44-5.46-1,.93-4.86,5.41-5.15,5.84-.88-3-4.4-14.13-5.61-17.1a.07.07,0,0,0-.14,0c.66,3.13,5.25,18,5.39,18a81.63,81.63,0,0,0,5.5-6.52c.49,1.09,3.62,6.87,3.71,6.57A64.52,64.52,0,0,0,350.79,128.4Z" style="fill:#263238"></path></g></svg>