<?xml version="1.0" encoding="UTF-8"?>
<svg width="258px" height="84px" viewBox="0 0 258 84" version="1.1" xmlns="http://www.w3.org/2000/svg" xmlns:xlink="http://www.w3.org/1999/xlink">
    <!-- Generator: Sketch 45.2 (43514) - http://www.bohemiancoding.com/sketch -->
    <title>Page 1</title>
    <desc>Created with Sketch.</desc>
    <defs>
        <polygon id="path-1" points="27.999 0.6241 27.999 35.3475323 0.569 35.3475323 0.569 0.6241 27.999 0.6241"></polygon>
        <polygon id="path-3" points="0.4579 0.791 31.9549 0.791 31.9549 40.7928 0.4579 40.7928"></polygon>
        <polygon id="path-5" points="4.32325616e-16 32.4948 4.32325616e-16 0.9988 40.0013 0.9988 40.0013 32.4948"></polygon>
        <polygon id="path-7" points="31.7043 40.953 0.2073 40.953 0.2073 0.9989 31.7043 0.9989 31.7043 40.953"></polygon>
    </defs>
    <g id="001_home_v2" stroke="none" stroke-width="1" fill="none" fill-rule="evenodd">
        <g id="VD1a_home_desktopshd_v4" transform="translate(-375.000000, -23.000000)">
            <g id="Page-1" transform="translate(375.000000, 22.000000)">
                <g id="Group-25" transform="translate(0.000000, 0.208600)">
                    <path d="M113.9759,56.448 C115.2379,55.653 116.2659,54.625 117.0139,53.316 C117.7609,52.009 118.1349,50.606 118.1349,49.064 L118.1349,36.68 C118.1349,35.185 117.7609,33.737 117.0139,32.428 C116.2659,31.119 115.2379,30.045 113.9759,29.297 C112.7139,28.503 111.3589,28.129 109.8639,28.129 C108.4149,28.129 107.0129,28.503 105.7509,29.297 C104.4899,30.092 103.4619,31.119 102.7139,32.428 C101.9659,33.737 101.5929,35.138 101.5929,36.68 L101.5929,49.064 C101.5929,50.559 101.9659,52.009 102.7139,53.316 C103.4619,54.625 104.4899,55.7 105.7509,56.448 C107.0129,57.242 108.3689,57.616 109.8639,57.616 C111.3119,57.569 112.7139,57.195 113.9759,56.448 M102.1999,62.336 C99.8639,60.98 97.9949,59.111 96.6389,56.774 C95.2839,54.438 94.5829,51.868 94.5829,49.064 L94.5829,36.68 C94.5829,33.877 95.2839,31.306 96.6389,28.97 C97.9949,26.634 99.8639,24.764 102.1999,23.409 C104.5369,22.054 107.1069,21.353 109.8639,21.353 C112.6209,21.353 115.1909,22.054 117.5279,23.409 C119.8639,24.764 121.7329,26.634 123.0889,28.97 C124.4439,31.306 125.1449,33.877 125.1449,36.68 L125.1449,49.064 C125.1449,51.868 124.4439,54.438 123.0889,56.774 C121.7329,59.111 119.8639,60.98 117.5279,62.336 C115.1909,63.691 112.6209,64.391 109.8639,64.391 C107.1069,64.391 104.5369,63.691 102.1999,62.336" id="Fill-1" fill="#4CB05C"></path>
                    <path d="M136.3602,63.3172 C134.3502,62.6632 132.4812,61.6812 130.7532,60.5132 C130.5652,60.4202 130.4252,60.1862 130.3322,59.9062 C130.2382,59.6252 130.2852,59.3442 130.3792,59.1112 L132.3872,55.4662 C132.6222,54.9992 132.9962,54.7652 133.4632,54.7652 C133.7902,54.7652 134.0702,54.8592 134.3502,54.9992 C137.2482,56.8212 139.9122,57.7102 142.4352,57.7102 C144.4912,57.7102 146.0802,57.1952 147.2482,56.2132 C148.4172,55.2322 149.0242,53.9232 149.0242,52.3362 C149.0242,51.3072 148.7442,50.4202 148.1362,49.6712 C147.5752,48.9702 146.7812,48.3632 145.8462,47.8492 C144.8652,47.3352 143.4632,46.7272 141.6402,45.9802 L139.9592,45.2792 C137.3412,44.1572 135.1452,42.7092 133.3692,40.9802 C131.5932,39.2512 130.6592,36.6802 130.6592,33.3162 C130.6592,30.9322 131.1732,28.8762 132.2482,27.0542 C133.3222,25.2312 134.7712,23.8292 136.6872,22.8012 C138.5562,21.7732 140.7532,21.3062 143.2292,21.3062 C145.2862,21.3062 147.2952,21.6332 149.3042,22.3342 C151.3142,23.0352 153.1362,23.9692 154.7722,25.1382 C154.9592,25.2312 155.0992,25.4652 155.1922,25.7452 C155.2862,26.0252 155.2392,26.3062 155.1452,26.5402 L153.2302,30.1852 C152.9962,30.6522 152.6222,30.8862 152.1082,30.8862 C151.7812,30.8862 151.5012,30.7922 151.2202,30.6522 C149.7252,29.6712 148.2762,28.9702 146.9212,28.5492 C145.5662,28.1292 144.3512,27.8952 143.2762,27.8952 C141.5472,27.8952 140.1922,28.3622 139.1642,29.2972 C138.1822,30.2322 137.6692,31.4462 137.6692,32.9422 C137.6692,34.4372 138.2292,35.6992 139.3042,36.6802 C140.4252,37.6622 142.1552,38.6432 144.5852,39.6712 C144.9122,39.7652 146.2672,40.3252 148.5562,41.2602 C150.8462,42.1942 152.6692,43.5962 154.0242,45.4192 C155.3802,47.2422 156.0342,49.3912 156.0342,51.8682 C156.0342,54.2512 155.4722,56.4012 154.3512,58.2702 C153.2302,60.1392 151.6412,61.5882 149.5852,62.6632 C147.5292,63.7372 145.1922,64.2522 142.5282,64.2522 C140.4252,64.3452 138.3702,63.9712 136.3602,63.3172" id="Fill-3" fill="#4CB05C"></path>
                    <path d="M169.0711,62.3357 C166.7351,60.9807 164.9131,59.1107 163.5101,56.7737 C162.1551,54.4387 161.4551,51.8677 161.4551,49.0647 L161.4551,36.6807 C161.4551,33.8767 162.1551,31.3067 163.5101,28.9697 C164.8661,26.6337 166.7351,24.7637 169.0711,23.4087 C171.4081,22.0537 173.9311,21.3527 176.7351,21.3527 C179.1661,21.3527 181.4081,21.7727 183.5111,22.6617 C185.5671,23.5487 187.3431,24.8107 188.8391,26.4467 C189.0721,26.7267 189.1661,27.0537 189.1661,27.4277 C189.1661,27.8017 189.0251,28.2227 188.6981,28.5957 L186.1751,31.2597 C185.8471,31.5867 185.5671,31.7267 185.2401,31.7267 C184.8671,31.7267 184.4931,31.5407 184.2131,31.2127 C182.2971,29.1567 179.8191,28.1287 176.8291,28.1287 C175.3801,28.1287 173.9781,28.5027 172.7171,29.2967 C171.4551,30.0917 170.4261,31.1197 169.6791,32.4277 C168.9311,33.7367 168.5571,35.1387 168.5571,36.6807 L168.5571,49.0647 C168.5571,50.5597 168.9311,52.0087 169.6791,53.3157 C170.4261,54.6247 171.4551,55.6997 172.7171,56.4477 C173.9781,57.2417 175.3341,57.6157 176.8291,57.6157 C178.2771,57.6157 179.6791,57.2417 180.9411,56.4937 C182.2031,55.7467 183.2311,54.7657 183.9311,53.4567 C184.6791,52.1947 185.0071,50.7927 185.0071,49.2977 L185.0071,46.4467 L177.2501,46.4467 C176.9231,46.4467 176.5951,46.3537 176.3611,46.1197 C176.1281,45.8867 176.0341,45.6067 176.0341,45.2317 L176.0341,41.0727 C176.0341,40.7457 176.1281,40.4187 176.3611,40.1857 C176.5951,39.9517 176.8761,39.8577 177.2501,39.8577 L189.4461,39.8577 C190.1471,39.8577 190.7081,40.0917 191.2211,40.5597 C191.6891,41.0267 191.9231,41.6337 191.9231,42.3347 L191.9231,49.0647 C191.9231,51.8677 191.2211,54.4387 189.8671,56.7737 C188.5111,59.1107 186.6421,60.9807 184.3051,62.3357 C181.9691,63.6907 179.4461,64.3917 176.7351,64.3917 C173.9311,64.3917 171.4081,63.6907 169.0711,62.3357" id="Fill-5" fill="#003A40"></path>
                    <path d="M218.3729,43.5965 L218.3729,43.0825 C218.3729,41.1665 217.7189,39.5775 216.3629,38.2225 C215.0549,36.8675 213.4189,36.2135 211.5499,36.2135 C209.6809,36.2135 208.0449,36.8675 206.7359,38.2225 C205.4279,39.5775 204.7269,41.1665 204.7269,43.0825 L204.7269,43.5965 L218.3729,43.5965 Z M204.6809,61.7755 C202.5769,60.5605 200.8949,58.8305 199.6809,56.7285 C198.4649,54.6245 197.8109,52.2885 197.8109,49.7655 L197.8109,43.5035 C197.8109,40.9795 198.4189,38.6435 199.6809,36.5405 C200.8949,34.4375 202.5769,32.7085 204.6809,31.4935 C206.7829,30.2785 209.0729,29.6245 211.5969,29.6245 C214.1199,29.6245 216.4099,30.2315 218.5129,31.4935 C220.6149,32.7085 222.2979,34.4375 223.5129,36.5405 C224.7269,38.6895 225.3819,40.9795 225.3819,43.5035 L225.3819,47.3815 C225.3819,48.0825 225.1479,48.6435 224.6819,49.1585 C224.2139,49.6245 223.6059,49.8585 222.9049,49.8585 L204.8199,49.8585 L204.8199,50.1385 C204.8199,52.0545 205.4749,53.6435 206.8299,54.9985 C208.1849,56.3545 209.7739,57.0085 211.6439,57.0085 L220.8029,57.0085 C221.1299,57.0085 221.4569,57.1485 221.6899,57.3825 C221.9239,57.6165 222.0179,57.8965 222.0179,58.2705 L222.0179,62.4755 C222.0179,62.8025 221.9239,63.1295 221.6899,63.3645 C221.4569,63.5975 221.1769,63.6915 220.8029,63.6915 L211.6439,63.6915 C209.0729,63.6445 206.7359,62.9905 204.6809,61.7755 L204.6809,61.7755 Z" id="Fill-7" fill="#003A40"></path>
                    <g id="Group-11" transform="translate(230.000000, 29.000000)">
                        <mask id="mask-2" fill="white">
                            <use xlink:href="#path-1"></use>
                        </mask>
                        <g id="Clip-10"></g>
                        <path d="M19.074,26.6531 C20.383,25.2981 21.084,23.7091 21.084,21.7931 L21.084,14.1761 C21.084,12.2601 20.429,10.6711 19.074,9.3161 C17.766,7.9611 16.131,7.3061 14.262,7.3061 C12.392,7.3061 10.757,7.9611 9.448,9.3161 C8.139,10.6711 7.438,12.2601 7.438,14.1761 L7.438,21.7931 C7.438,23.7091 8.093,25.2981 9.448,26.6531 C10.757,28.0081 12.392,28.6631 14.262,28.6631 C16.178,28.6631 17.766,27.9621 19.074,26.6531 M7.391,33.5691 C5.289,32.3541 3.606,30.7181 2.391,28.6161 C1.177,26.5121 0.569,24.2701 0.569,21.8401 L0.569,14.1761 C0.569,11.7461 1.177,9.4561 2.391,7.4001 C3.606,5.2971 5.289,3.6611 7.391,2.4461 C9.495,1.2321 11.784,0.6241 14.307,0.6241 C16.832,0.6241 19.121,1.2321 21.224,2.4461 C23.327,3.6611 25.01,5.3441 26.224,7.4001 C27.439,9.5031 28.094,11.7461 28.094,14.1761 L28.094,21.7931 C28.094,24.2231 27.486,26.5121 26.224,28.5691 C25.01,30.6721 23.327,32.3071 21.224,33.5221 C19.121,34.7371 16.831,35.3451 14.307,35.3451 C11.784,35.3911 9.448,34.7841 7.391,33.5691" id="Fill-9" fill="#003A40" mask="url(#mask-2)"></path>
                    </g>
                    <g id="Group-14" transform="translate(8.000000, 0.000000)">
                        <mask id="mask-4" fill="white">
                            <use xlink:href="#path-3"></use>
                        </mask>
                        <g id="Clip-13"></g>
                        <path d="M31.9549,17.7078 L31.9549,9.2958 L31.9549,0.7908 L26.6739,10.0438 C12.2809,13.2688 1.3929,25.6518 0.4579,40.7928 L8.9159,40.7928 C9.9449,28.5028 19.7109,18.7358 31.9549,17.7078" id="Fill-12" fill="#4CB05C" mask="url(#mask-4)"></path>
                    </g>
                    <g id="Group-17" transform="translate(0.000000, 44.000000)">
                        <mask id="mask-6" fill="white">
                            <use xlink:href="#path-5"></use>
                        </mask>
                        <g id="Clip-16"></g>
                        <path d="M16.9163,0.9988 L8.5053,0.9988 L-0.0007,0.9988 L9.2523,6.2788 C12.4773,20.6728 24.8603,31.5608 40.0013,32.4948 L40.0013,24.0368 C27.7113,23.0088 17.9443,13.2418 16.9163,0.9988" id="Fill-15" fill="#003A40" mask="url(#mask-6)"></path>
                    </g>
                    <path d="M67.2454,40.7459 L75.7034,40.7459 L84.2084,40.7459 L74.9554,35.4659 C71.7314,21.0729 59.3484,10.1839 44.2074,9.2499 L44.2074,17.7079 C56.4504,18.7359 66.2174,28.5029 67.2454,40.7459" id="Fill-18" fill="#003A40"></path>
                    <g id="Group-22" transform="translate(44.000000, 44.000000)">
                        <mask id="mask-8" fill="white">
                            <use xlink:href="#path-7"></use>
                        </mask>
                        <g id="Clip-21"></g>
                        <path d="M0.2073,24.0369 L0.2073,32.4949 L0.2073,40.9999 L5.4873,31.7469 C19.8803,28.5229 30.7693,16.1399 31.7043,0.9989 L23.2453,0.9989 C22.2173,13.2419 12.4503,23.0089 0.2073,24.0369" id="Fill-20" fill="#4CB05C" mask="url(#mask-8)"></path>
                    </g>
                    <path d="M42.0574,44.6717 C41.0294,44.6717 40.2354,43.8307 40.2354,42.8487 C40.2354,41.8207 41.0764,41.0267 42.0574,41.0267 C43.0384,41.0267 43.8804,41.8677 43.8804,42.8487 C43.8804,43.8307 43.0854,44.6717 42.0574,44.6717 L42.0574,44.6717 Z M44.6744,40.2787 L29.0664,29.8577 L39.4874,45.4657 L55.0954,55.8867 L44.6744,40.2787 Z" id="Fill-23" fill="#003A40"></path>
                </g>
                <polygon id="Fill-26" fill="#4CB05C" points="39.4876 45.6742 35.9826 40.4412 20.0006 43.1042 35.9826 45.7212 29.0666 56.0952 39.3936 49.1792 42.0576 65.1612 44.7206 49.1792"></polygon>
                <polygon id="Fill-27" fill="#4CB05C" points="48.1795 40.4408 55.0955 30.0658 44.7215 36.9828 42.0575 21.0008 39.4405 36.9828 44.6745 40.4868 48.1795 45.7208 64.1615 43.0578"></polygon>
            </g>
        </g>
    </g>
</svg>