<?xml version="1.0" encoding="UTF-8"?>
<svg width="159px" height="159px" viewBox="0 0 159 159" version="1.1" xmlns="http://www.w3.org/2000/svg" xmlns:xlink="http://www.w3.org/1999/xlink">
    <title>Group 3</title>
    <g id="Page-1" stroke="none" stroke-width="1" fill="none" fill-rule="evenodd">
        <g id="charter-projects-copy-16" transform="translate(-487, -375)">
            <g id="Group-3" transform="translate(487, 375)">
                <circle id="Oval" fill="#2C75AA" cx="79.5" cy="79.5" r="79.5"></circle>
                <g id="osmus-logo-copy" transform="translate(26.1646, 24.1519)" fill-rule="nonzero">
                    <path d="M101.16306,61.0506329 C95.4617687,65.7655629 88.1409239,68.6040056 80.1606118,68.6040056 C77.7862394,68.6040056 75.474021,68.3419534 73.2410181,67.8652158 L70.9433183,70.6419487 C65.8366799,69.2844348 61.1824016,66.8695002 57.2327391,63.636321 L51.0577494,69.7755392 L51.8151722,74.309582 L28.8481013,97.1091638 L31.069114,97.9493671 L52.636449,89.7983835 L74.2037265,97.9493671 L95.7710576,89.7983835 L103.987342,68.4002759 L101.16306,61.0506329 L101.16306,61.0506329 Z" id="path33449" fill="#76C551"></path>
                    <path d="M9.39240506,4.02531646 L17.6238403,25.5171295 L9.39240506,47.0087785 L17.6238403,68.5003272 L9.39240506,89.9918998 L14.4469961,91.9113924 L41.9059817,64.6120792 L46.8316694,65.3668123 L52.8123251,59.4180969 C49.2838249,55.3515642 46.6421764,50.4997167 45.1988916,45.141054 L48.0027174,42.8513977 C47.5204408,40.6262499 47.256724,38.322164 47.256724,35.9560987 C47.256724,24.1367041 53.5941543,13.7511826 63.0632911,7.99088973 L52.6066651,4.02531646 L30.9995663,12.2128382 L9.39240506,4.02531646 Z" id="path33447" fill="#76C551"></path>
                    <path d="M101.159612,61.0506329 C95.450701,65.7655629 88.1200729,68.6040056 80.1290961,68.6040056 C77.7515507,68.6040056 75.4362424,68.3419534 73.2002553,67.8652158 L70.899485,70.6419487 L57.1490833,63.4621992 L50.9873418,69.7755392 L51.7457767,74.309582 L74.2110097,77.6627888 L74.1639242,97.9493671 L95.7600777,89.7983835 L103.987342,68.4002759 L101.159612,61.0506329 Z" id="path33451" fill="#59A336"></path>
                    <ellipse id="ellipse33453" fill="#FFFFFF" cx="80.8417722" cy="35.8924051" rx="28.5126582" ry="29.1835443"></ellipse>
                    <path d="M105.684624,46.9620253 C103.767175,15.253114 72.2226682,7.39832264 53,25.2262501 C63.0300331,11.6599992 75.9108877,3.35980537 90.4593339,9.36203543 C105.007794,15.3642432 110.387928,31.1983403 105.684624,46.9620253 Z" id="path33455" fill="#CCCCCC"></path>
                    <path d="M104.562174,10.1594577 C91.0163425,-3.3864859 69.0541126,-3.3864859 55.5082595,10.1594577 C46.9338824,18.7338674 43.8041647,30.6723845 46.0847807,41.7218289 L40.6953311,45.6268608 C43.1497836,52.1361762 46.4943604,56.0748935 48.77957,58.1967273 L43.8903349,63.0859653 L38.7266621,63.0859653 L0,101.812596 L12.9089575,114.721519 L51.6356004,75.9947498 L51.6356004,70.8311777 L56.5087028,65.958235 C58.689186,68.2299438 62.5793687,71.3986364 68.8206447,73.7520226 L72.58037,68.5398801 C83.7459189,70.9882275 95.8794712,67.8959972 104.562099,59.2132086 C118.108027,45.6677162 118.107933,23.705385 104.562174,10.1594577 L104.562174,10.1594577 Z M98.365857,16.3558685 C108.489598,26.4797203 108.489598,42.8934192 98.365857,53.0171419 C88.2421515,63.140879 71.8282796,63.140879 61.7045407,53.0171419 C51.5808544,42.8934192 51.5808544,26.4797203 61.7045407,16.3558685 C71.8283752,6.23201386 88.2421515,6.23201386 98.365857,16.3558685 Z" id="path33457" fill="#2F2F2F"></path>
                </g>
            </g>
        </g>
    </g>
</svg>