<?xml version="1.0" encoding="UTF-8"?><svg id="Layer_2" xmlns="http://www.w3.org/2000/svg" viewBox="0 0 448.31 161.64"><defs><style>.cls-1{fill:#ebb12e;}.cls-2{fill:#2eb57d;}.cls-3{fill:#df1e5a;}.cls-4{fill:#0d9dda;}.cls-5{fill:#36c4ef;}</style></defs><g id="Isolation_Mode"><g><g><path d="M156.2,130.3l-.69,2.22c-.78-.17-1.53-.24-2.26-.22-2.29,.02-3.43,1.28-3.43,3.76v1.53h4.67v2.37h-4.67v16.2h-3.1v-16.2h-3.25v-1.97l3.25-.4v-1.6c0-1.97,.52-3.48,1.57-4.54,1.05-1.06,2.6-1.6,4.67-1.62,1.19,0,2.27,.16,3.25,.47Z"/><path d="M157.88,141.75c0-1.36-.09-2.75-.26-4.16h2.96c.12,.83,.21,1.81,.25,2.95h.07c1.07-2.31,3.02-3.47,5.84-3.47,.19,0,.55,.04,1.06,.11l-.18,2.66c-.24-.05-.62-.07-1.13-.07-1.78,0-3.14,.6-4.09,1.79-.95,1.19-1.42,2.74-1.42,4.63v9.96h-3.1v-14.41Z"/><path d="M187.58,146.83c0,1.92-.37,3.63-1.11,5.13-.74,1.5-1.81,2.66-3.21,3.48-1.4,.83-3.07,1.24-5.02,1.24s-3.59-.42-5-1.26c-1.41-.84-2.48-2-3.21-3.48-.73-1.48-1.09-3.19-1.09-5.11,0-2.97,.81-5.33,2.44-7.09,1.63-1.76,3.91-2.64,6.86-2.64,1.97,0,3.65,.41,5.05,1.22,1.4,.82,2.46,1.95,3.19,3.41,.73,1.46,1.09,3.16,1.09,5.11Zm-15.43,0c0,2.21,.5,3.99,1.51,5.34,1.01,1.35,2.54,2.02,4.58,2.02s3.61-.68,4.63-2.02c1.02-1.35,1.53-3.13,1.53-5.34s-.51-3.98-1.53-5.29c-1.02-1.31-2.57-1.97-4.63-1.97s-3.6,.66-4.6,1.97c-1,1.31-1.5,3.08-1.5,5.29Z"/><path d="M191.59,141.75c0-1.36-.09-2.75-.26-4.16h2.96c.12,.66,.21,1.53,.25,2.63h.07c.58-.92,1.4-1.68,2.46-2.26,1.06-.58,2.28-.88,3.67-.88,1.58,0,2.87,.34,3.87,1,1,.67,1.73,1.59,2.19,2.75h.07c.63-1.17,1.49-2.08,2.59-2.75,1.09-.67,2.41-1,3.94-1s2.81,.34,3.83,1c1.02,.67,1.78,1.54,2.26,2.63,.49,1.08,.73,2.27,.73,3.56v11.89h-3.1v-11.45c0-1.43-.35-2.64-1.04-3.61-.69-.97-1.81-1.46-3.34-1.46-1.12,0-2.08,.29-2.88,.88s-1.41,1.36-1.82,2.33c-.41,.97-.62,2.02-.62,3.14v10.18h-3.1v-11.53c0-1.41-.35-2.6-1.06-3.56-.71-.96-1.81-1.44-3.32-1.44-1.61,0-2.88,.57-3.83,1.7s-1.42,2.52-1.42,4.18v10.65h-3.1v-14.41Z"/><path d="M281.43,153.76l1.64-2.04c1.05,.83,2.13,1.42,3.25,1.79,1.12,.36,2.38,.55,3.79,.55,1.75,0,3.17-.41,4.25-1.22,1.08-.81,1.62-2,1.62-3.56,0-1.09-.25-1.98-.77-2.66-.51-.68-1.22-1.23-2.12-1.64-.9-.41-2.09-.81-3.58-1.2-2.41-.63-4.21-1.49-5.4-2.57-1.19-1.08-1.79-2.6-1.79-4.54,0-2.16,.81-3.85,2.43-5.07,1.62-1.22,3.68-1.82,6.18-1.82,1.58,0,3.01,.21,4.29,.62,1.28,.41,2.46,1.02,3.56,1.82l-1.46,2.12c-1.02-.66-2.04-1.14-3.05-1.46-1.01-.32-2.12-.47-3.34-.47-1.63,0-2.94,.35-3.94,1.04-1,.69-1.49,1.7-1.49,3.01s.46,2.3,1.37,2.97c.91,.67,2.4,1.27,4.47,1.81,2.6,.68,4.57,1.6,5.91,2.77,1.34,1.17,2.01,2.89,2.01,5.18,0,1.65-.41,3.05-1.22,4.19-.81,1.14-1.91,2-3.3,2.57-1.39,.57-2.94,.86-4.67,.86-3.36,0-6.24-1.01-8.64-3.03Z"/><path d="M302.04,151.09c0-2.41,.87-4.08,2.61-5.02,1.74-.94,4.36-1.4,7.86-1.4,.85,0,1.49,.01,1.93,.04v-1.06c0-1.39-.38-2.42-1.13-3.1-.75-.68-1.91-1.02-3.46-1.02-1.97,0-3.83,.52-5.58,1.57l-1.09-2.08c2.09-1.29,4.38-1.93,6.86-1.93,2.6,0,4.5,.61,5.71,1.82,1.2,1.22,1.81,3.06,1.81,5.54v7.59c0,1.34,.08,2.71,.25,4.12h-2.85c-.17-1.07-.25-1.91-.25-2.52h-.11c-.68,1-1.54,1.75-2.57,2.26-1.03,.51-2.37,.77-3.99,.77-1.8,0-3.25-.48-4.34-1.44-1.09-.96-1.64-2.34-1.64-4.14Zm12.4-1.79v-2.41l-1.64-.04c-1.82,0-3.28,.12-4.36,.37-1.08,.24-1.88,.66-2.41,1.24-.52,.58-.78,1.4-.78,2.44s.32,1.89,.95,2.46c.63,.57,1.51,.86,2.63,.86s2.18-.25,3.03-.75c.85-.5,1.5-1.12,1.93-1.88,.44-.75,.66-1.52,.66-2.3Z"/><path d="M326.48,130.34v25.83h-3.1v-25.83h3.1Z"/><path d="M348.15,147.99h-13.79c.12,1.9,.69,3.4,1.71,4.52,1.02,1.12,2.48,1.68,4.38,1.68,1.12,0,2.12-.15,3.01-.46,.89-.3,1.78-.76,2.68-1.37l1.39,2.01c-1.05,.75-2.16,1.33-3.34,1.71-1.18,.39-2.49,.58-3.92,.58-2.85,0-5.06-.9-6.66-2.7-1.59-1.8-2.39-4.19-2.39-7.19,0-1.92,.34-3.61,1.02-5.07,.68-1.46,1.67-2.6,2.97-3.41,1.3-.81,2.86-1.22,4.69-1.22,2.7,0,4.76,.88,6.18,2.63,1.42,1.75,2.13,4.07,2.13,6.97,0,.58-.02,1.02-.07,1.31Zm-2.95-2.41c-.05-1.85-.52-3.33-1.42-4.45-.9-1.12-2.2-1.68-3.9-1.68s-3.06,.58-4.01,1.73c-.95,1.16-1.46,2.62-1.53,4.4h10.87Z"/><path d="M364.16,139.06l-1.39,1.93c-1.43-1-2.99-1.5-4.67-1.5-1.17,0-2.08,.22-2.73,.67-.66,.45-.99,1.09-.99,1.92,0,.61,.13,1.11,.4,1.5,.27,.39,.72,.72,1.35,.99,.63,.27,1.56,.55,2.77,.84,1.9,.46,3.3,1.14,4.21,2.02,.91,.89,1.37,2.05,1.37,3.48,0,1.82-.68,3.24-2.04,4.25-1.36,1.01-3.04,1.51-5.03,1.51-2.68,0-4.91-.72-6.71-2.15l1.42-1.93c.83,.56,1.64,.97,2.44,1.24,.8,.27,1.71,.4,2.74,.4,1.24,0,2.22-.27,2.94-.8,.72-.53,1.08-1.3,1.08-2.3,0-.66-.13-1.19-.4-1.59-.27-.4-.71-.74-1.33-1-.62-.27-1.55-.56-2.79-.88-1.92-.49-3.32-1.14-4.19-1.97-.88-.83-1.31-1.97-1.31-3.43,0-1.58,.61-2.84,1.84-3.78,1.23-.94,2.85-1.4,4.87-1.4,2.38,0,4.44,.66,6.16,1.97Z"/><path d="M379.7,130.3l-.69,2.22c-.78-.17-1.53-.24-2.26-.22-2.29,.02-3.43,1.28-3.43,3.76v1.53h4.67v2.37h-4.67v16.2h-3.1v-16.2h-3.25v-1.97l3.25-.4v-1.6c0-1.97,.52-3.48,1.57-4.54,1.05-1.06,2.6-1.6,4.67-1.62,1.19,0,2.27,.16,3.25,.47Z"/><path d="M398.71,146.83c0,1.92-.37,3.63-1.11,5.13-.74,1.5-1.81,2.66-3.21,3.48-1.4,.83-3.07,1.24-5.02,1.24s-3.59-.42-5-1.26c-1.41-.84-2.48-2-3.21-3.48-.73-1.48-1.09-3.19-1.09-5.11,0-2.97,.81-5.33,2.44-7.09,1.63-1.76,3.91-2.64,6.86-2.64,1.97,0,3.65,.41,5.05,1.22,1.4,.82,2.46,1.95,3.19,3.41,.73,1.46,1.09,3.16,1.09,5.11Zm-15.43,0c0,2.21,.5,3.99,1.51,5.34,1.01,1.35,2.54,2.02,4.58,2.02s3.61-.68,4.63-2.02c1.02-1.35,1.53-3.13,1.53-5.34s-.51-3.98-1.53-5.29c-1.02-1.31-2.57-1.97-4.63-1.97s-3.6,.66-4.6,1.97c-1,1.31-1.5,3.08-1.5,5.29Z"/><path d="M402.72,141.75c0-1.36-.09-2.75-.26-4.16h2.96c.12,.83,.21,1.81,.25,2.95h.07c1.07-2.31,3.02-3.47,5.84-3.47,.19,0,.55,.04,1.06,.11l-.18,2.66c-.24-.05-.62-.07-1.13-.07-1.78,0-3.14,.6-4.09,1.79-.95,1.19-1.42,2.74-1.42,4.63v9.96h-3.1v-14.41Z"/><path d="M422.96,137.09c1.17,0,2.28,.18,3.34,.53,1.06,.35,2,.85,2.83,1.48l-1.24,2.15c-1.41-1.05-3.05-1.57-4.92-1.57-1.99,0-3.5,.65-4.52,1.95-1.02,1.3-1.53,3.05-1.53,5.23s.51,3.87,1.53,5.2c1.02,1.33,2.52,1.99,4.49,1.99,1.68,0,3.34-.52,5-1.57l1.13,2.19c-1.85,1.34-3.96,2.01-6.35,2.01-2.09,0-3.81-.47-5.14-1.4-1.34-.94-2.3-2.15-2.9-3.63-.6-1.48-.89-3.08-.89-4.78,0-2.97,.81-5.34,2.44-7.11,1.63-1.78,3.88-2.66,6.75-2.66Z"/><path d="M448.24,147.99h-13.79c.12,1.9,.69,3.4,1.71,4.52,1.02,1.12,2.48,1.68,4.38,1.68,1.12,0,2.12-.15,3.01-.46,.89-.3,1.78-.76,2.68-1.37l1.39,2.01c-1.05,.75-2.16,1.33-3.34,1.71-1.18,.39-2.49,.58-3.92,.58-2.85,0-5.06-.9-6.66-2.7-1.59-1.8-2.39-4.19-2.39-7.19,0-1.92,.34-3.61,1.02-5.07,.68-1.46,1.67-2.6,2.97-3.41,1.3-.81,2.86-1.22,4.69-1.22,2.7,0,4.76,.88,6.18,2.63,1.42,1.75,2.13,4.07,2.13,6.97,0,.58-.02,1.02-.07,1.31Zm-2.95-2.41c-.05-1.85-.52-3.33-1.42-4.45-.9-1.12-2.2-1.68-3.9-1.68s-3.06,.58-4.01,1.73c-.95,1.16-1.46,2.62-1.53,4.4h10.87Z"/><path class="cls-4" d="M248.97,132.97c.74-.79,1.63-1.41,2.62-1.83,.98-.44,2.04-.66,3.12-.66,1.43,0,2.83,.4,4.06,1.14,1.23,.74,2.24,1.8,2.93,3.07,1.26-.56,2.62-.85,3.99-.86,2.62,0,5.14,1.05,6.99,2.93,1.85,1.88,2.9,4.42,2.9,7.08s-1.04,5.2-2.9,7.08c-1.85,1.88-4.37,2.93-6.99,2.93-.65,0-1.29-.07-1.92-.22-.88,1.62-2.35,2.83-4.09,3.38-1.75,.54-3.64,.4-5.3-.39-.63,1.53-1.72,2.83-3.12,3.7-1.38,.91-3,1.37-4.65,1.33-1.63-.02-3.22-.55-4.55-1.52-1.33-.96-2.34-2.31-2.9-3.87-.52,.11-1.05,.17-1.58,.16-1.34-.02-2.64-.4-3.79-1.09-1.15-.69-2.1-1.67-2.77-2.84-.66-1.17-1.01-2.5-1.02-3.86,0-1.35,.34-2.68,1-3.86,.67-1.17,1.63-2.14,2.79-2.82-.85-2-.95-4.24-.27-6.31,.68-2.05,2.07-3.79,3.92-4.89,1.86-1.11,4.06-1.48,6.17-1.05,2.13,.37,4.04,1.53,5.36,3.26h0Z"/></g><g><g><path d="M143.42,89.3l5.62-13.02c6.05,4.5,14.1,6.85,22.03,6.85,5.85,0,9.56-2.27,9.56-5.7-.08-9.56-35.13-2.07-35.41-26.09-.08-12.19,10.75-21.59,26.09-21.59,9.12,0,18.24,2.27,24.73,7.41l-5.26,13.26c-5.97-3.78-13.38-6.49-20.39-6.49-4.78,0-7.97,2.27-7.97,5.14,.08,9.4,35.41,4.26,35.77,27.2,0,12.47-10.55,21.23-25.73,21.23-11.07,0-21.27-2.59-29.04-8.2"/><path d="M358.26,71.61c-2.79,4.86-8.05,8.2-14.1,8.2-8.92,0-16.17-7.21-16.17-16.17s7.21-16.17,16.17-16.17c6.05,0,11.27,3.35,14.1,8.2l15.45-8.56c-5.78-10.32-16.89-17.33-29.55-17.33-18.68,0-33.85,15.17-33.85,33.85s15.17,33.85,33.85,33.85c12.75,0,23.74-6.97,29.55-17.33l-15.45-8.56Z"/><rect x="205.99" y="1.67" width="19.32" height="94.55"/><polygon points="381.32 1.67 381.32 96.27 400.64 96.27 400.64 67.91 423.58 96.27 448.31 96.27 419.16 62.57 446.16 31.15 422.5 31.15 400.64 57.23 400.64 1.67 381.32 1.67"/><path d="M282.78,71.77c-2.79,4.62-8.56,8.05-15.1,8.05-8.92,0-16.17-7.21-16.17-16.17s7.21-16.17,16.17-16.17c6.49,0,12.27,3.62,15.1,8.32v15.97Zm0-40.63v7.69c-3.15-5.34-11.03-9.04-19.24-9.04-16.97,0-30.35,14.98-30.35,33.77s13.38,33.97,30.35,33.97c8.2,0,16.09-3.7,19.24-9.04v7.69h19.32V31.15h-19.32Z"/></g><g><g><path class="cls-3" d="M23.94,71.69c0,6.61-5.34,11.91-11.91,11.91S.08,78.26,.08,71.69s5.34-11.91,11.91-11.91h11.91v11.91h.04Z"/><path class="cls-3" d="M29.87,71.69c0-6.61,5.34-11.91,11.91-11.91s11.91,5.34,11.91,11.91v29.79c0,6.61-5.34,11.91-11.91,11.91s-11.91-5.3-11.91-11.91v-29.79Z"/></g><g><path class="cls-5" d="M41.82,23.82c-6.61,0-11.91-5.34-11.91-11.91S35.25,0,41.82,0s11.91,5.34,11.91,11.91v11.91h-11.91Z"/><path class="cls-5" d="M41.82,29.87c6.61,0,11.91,5.34,11.91,11.91s-5.34,11.91-11.91,11.91H11.91c-6.61,0-11.91-5.34-11.91-11.91s5.34-11.91,11.91-11.91h29.91Z"/></g><g><path class="cls-2" d="M89.57,41.78c0-6.61,5.34-11.91,11.91-11.91s11.91,5.34,11.91,11.91-5.34,11.91-11.91,11.91h-11.91v-11.91Z"/><path class="cls-2" d="M83.64,41.78c0,6.61-5.34,11.91-11.91,11.91s-11.91-5.34-11.91-11.91V11.91c0-6.61,5.34-11.91,11.91-11.91s11.91,5.3,11.91,11.91v29.87Z"/></g><g><path class="cls-1" d="M71.69,89.57c6.61,0,11.91,5.34,11.91,11.91s-5.34,11.91-11.91,11.91-11.91-5.34-11.91-11.91v-11.91h11.91Z"/><path class="cls-1" d="M71.69,83.6c-6.61,0-11.91-5.34-11.91-11.91s5.34-11.91,11.91-11.91h29.91c6.61,0,11.91,5.34,11.91,11.91s-5.34,11.91-11.91,11.91h-29.91Z"/></g></g></g></g></g></svg>
