<?xml version="1.0" encoding="UTF-8"?><svg xmlns="http://www.w3.org/2000/svg" xmlns:xlink="http://www.w3.org/1999/xlink" viewBox="0 0 1992.64 605.32"><defs><style>.cls-1{mix-blend-mode:color-dodge;}.cls-1,.cls-2{isolation:isolate;}.cls-3{mask:url(#mask);}.cls-4{filter:url(#luminosity-invert);}.cls-5{opacity:.8;}.cls-5,.cls-6,.cls-7,.cls-8,.cls-9,.cls-10,.cls-11,.cls-12,.cls-13,.cls-14,.cls-15,.cls-16{stroke-width:0px;}.cls-5,.cls-15{fill:#fff;}.cls-17{stroke:#231528;stroke-width:80px;}.cls-17,.cls-18{fill:none;stroke-miterlimit:10;}.cls-18{stroke:#292b2a;stroke-width:2px;}.cls-19{opacity:.5;}.cls-6{fill:#f7ea99;}.cls-7{fill:#4d2a54;}.cls-8{fill:#2a515e;}.cls-9{fill:#2e1e35;}.cls-10{fill:#386b7d;}.cls-11{fill:#231528;}.cls-12{fill:#231f20;}.cls-13{fill:#bd9955;}.cls-14{fill:#331c38;}.cls-16{fill:#eaca00;}</style><filter id="luminosity-invert" x="21.36" y="36.52" width="532.13" height="532.13" color-interpolation-filters="sRGB" filterUnits="userSpaceOnUse"><feColorMatrix result="cm" values="-1 0 0 0 1 0 -1 0 0 1 0 0 -1 0 1 0 0 0 1 0"/></filter><mask id="mask" x="21.36" y="36.52" width="532.13" height="532.13" maskUnits="userSpaceOnUse"><g class="cls-4"><circle class="cls-12" cx="287.43" cy="302.59" r="266.07"/></g></mask></defs><g class="cls-2"><g id="api"><g class="cls-3"><g class="cls-1"><path class="cls-6" d="M464.12,356.88c-18.26,12.58-24.48,25.98-20.21,43.47,4.11,16.81,18.12,28.46,29.14,35.26,5.12,3.16,10.53,5.9,15.94,8.28v-100.65c-8.72,3.89-17.07,8.26-24.87,13.64Z"/><path class="cls-16" d="M460.36,456.16c-21.33-13.17-35.12-30.48-39.91-50.08-6.72-27.48,3.36-50.73,29.96-69.07,12.2-8.41,25.3-14.64,38.58-19.97v-31.28c-1.95.63-3.91,1.28-5.85,1.89-26.42,8.42-51.38,16.4-71.36,36.35-.16.17-.34.34-.51.52-3.09,3.12-5.9,6.62-8.39,10.39-11.69,17.82-16.19,42.68-12.35,68.2,1.47,9.68,4.09,19.02,7.83,27.74,1.89,4.42,4.1,8.73,6.54,12.76,22.82,37.93,65.73,51.88,84.09,56.28v-29.98c-9.48-3.55-19.37-8.04-28.63-13.75Z"/><path class="cls-13" d="M384.22,456.07c-3.01-4.98-5.71-10.27-8.05-15.71-4.55-10.6-7.74-21.93-9.51-33.65-4.72-31.32,1.12-62.32,16.04-85.03,3.34-5.1,7.17-9.83,11.37-14.1.2-.21.43-.42.65-.64,24.1-24.1,53.06-33.33,81.08-42.27,4.47-1.43,8.85-2.83,13.18-4.28v-76.36c-4.99,1.26-9.94,2.64-14.81,4.28-20.19,6.83-43.66,20.1-64.38,36.4-73.16,57.55-112.62,173.23-54.7,253.72,20.95,29.1,49.92,48.83,71.17,60.52h40.67c9.49,0,17.57-6.12,20.66-14.57-19.24-3.99-73.84-19.25-103.36-68.3Z"/><path class="cls-10" d="M488.99,123.99v35.18c-7.62,1.69-15.15,3.76-22.55,6.26-22.7,7.67-48.78,22.36-71.58,40.28-81.95,64.47-125.37,195.09-59.35,286.81,13.71,19.06,30.19,34.35,46.2,46.42h-74.83c-38.28-41.31-55.05-90.27-49.65-146.53,1.2-12.68,3.58-25.77,7.07-38.93,2.7-10.26,6.11-20.69,10.13-30.99,3.95-10.15,8.24-20.07,12.4-29.66,15.99-36.96,31.11-71.87,27.3-117.57-.89-10.67-2.44-21.14-4.61-31.14-1.5-6.91-3.32-13.75-5.42-20.33-9.29-29.16-25.87-59.37-54.5-85.11,20.7-2.46,42.1-2.44,63.72.03v41.17c0,12.13,9.93,22.05,22.07,22.05h131.54c1.88,0,3.71.24,5.46.69,5.94,1.52,10.93,5.48,13.84,10.73h.01c1.75,3.17,2.75,6.79,2.75,10.64Z"/><path class="cls-8" d="M273.48,538.94h-30.57c-27.57-41.11-54.8-97.15-59.44-162.45-2.63-37.09,7.5-74.01,17.31-109.73,5.41-19.71,11-40.09,14.43-60.38,1.43-8.45,2.99-21.44,2.29-35.29-1.82-37.03-24.87-65.01-61.67-74.84-6.09-1.62-12.57-2.82-19.27-3.55-2.93-.32-5.94-.55-9.01-.69,25.29-22.75,55.57-38.36,88.55-47.01,30.66,21.61,51.98,50.54,63.48,86.6,1.85,5.8,3.46,11.84,4.78,17.97,1.93,8.91,3.32,18.28,4.12,27.83,3.28,39.26-9.96,69.82-25.27,105.21-4.25,9.81-8.64,19.95-12.77,30.54-4.36,11.2-8.07,22.56-11.02,33.75-3.84,14.5-6.47,28.99-7.82,43.05-4.17,43.61,2.74,97.58,41.88,148.99Z"/><path class="cls-7" d="M157.8,378.31c-2.95-41.47,7.78-80.56,18.16-118.36,5.48-19.99,10.66-38.86,13.88-57.87,1.21-7.18,2.54-18.17,1.96-29.71-1.28-26.06-16.41-44.26-42.6-51.25-4.83-1.29-10.02-2.25-15.42-2.83-5.47-.59-11.35-.84-17.38-.71-21.08.42-42.53,4.87-64.41,10.18v55.94c31.68-2.74,76.14,1.14,91.31,40.41,3.23,8.34,4.85,17.91,4.81,28.43-.02,6.31-.64,13.1-1.83,20.15-3.59,21.31-10.53,41.36-17.23,60.76-8.23,23.82-16.01,46.32-17.87,70.53-.37,4.8-.6,9.52-.7,14.19-.2,9.94.21,20.07,1.22,30.1,3.61,35.86,14.51,66.67,26.09,90.68h74.21c-26.01-42.27-49.68-97.03-54.2-160.63Z"/><path class="cls-14" d="M86.1,450.82c-1.1-11.04-1.56-22.21-1.34-33.19.11-5.15.36-10.35.77-15.64,2.12-27.51,10.81-52.65,19.21-76.96,6.65-19.25,12.93-37.44,16.17-56.63.95-5.69,1.45-11.06,1.47-15.98.03-7.3-1-13.71-3.07-19.05-9.48-24.53-42.91-26.13-67.31-23.7v307.19c0,12.13,9.92,22.06,22.06,22.06h35.35c-10.59-24.4-19.87-54.09-23.31-88.12Z"/></g></g><circle id="center_block_out" class="cls-5" cx="288.49" cy="303.09" r="97.5"/><g id="circles"><g id="outer_path" class="cls-19"><path class="cls-15" d="M280.52,605.32c-22.07,0-44.3-2.49-66.38-7.52-77.29-17.61-143.36-64.35-186.05-131.6l70.93-45.02c30.73,48.42,78.25,82.06,133.79,94.71,55.4,12.63,112.26,2.87,160.07-27.48,47.82-30.35,80.84-77.64,93-133.15,12.19-55.65,1.97-112.96-28.76-161.38l70.93-45.02c42.69,67.25,56.86,146.94,39.9,224.37-16.99,77.57-63.17,143.66-130.05,186.11-47.81,30.35-102.06,45.98-157.39,45.98Z"/><path class="cls-15" d="M46.88,456.46C4.19,389.21-9.97,309.53,6.98,232.09,23.97,154.53,70.15,88.43,137.03,45.98,203.91,3.53,283.38-10.13,360.8,7.52c77.29,17.61,143.36,64.35,186.05,131.6l-70.93,45.02c-30.73-48.42-78.25-82.06-133.79-94.71-55.41-12.63-112.26-2.87-160.07,27.48-47.82,30.35-80.84,77.64-93,133.15-12.19,55.65-1.97,112.96,28.76,161.38l-70.93,45.02Z"/></g><g id="outer_stroke"><path class="cls-17" d="M501.14,167.85C428.86,53.98,279.02,19.83,166.11,91.5,53.21,163.16,20.33,313.29,92.61,427.15"/><path class="cls-17" d="M73.72,437.33c72.27,113.87,222.12,148.02,335.02,76.35,112.9-71.66,145.78-221.79,73.51-335.66"/></g><g id="inner"><path class="cls-17" d="M380.11,242.85c36.14,56.93,19.7,132-36.75,167.83-56.45,35.83-131.37,18.76-167.51-38.18"/><path class="cls-17" d="M399,232.68c-36.14-56.93-111.06-74.01-167.51-38.18-56.45,35.83-72.89,110.9-36.75,167.83"/></g></g><g id="state"><path class="cls-11" d="M253.32,255.12c.02.05,0,.07-.01.07-.03,0-.08-.04-.12-.07,0,0-3.59,94.02-3.16,94.25,0,0,75.75.41,75.7.41l-1.92-75.98s.02,0,.03,0c.08,0,.12-.05.11-.14l-28.44.41c.09-.08,0-18.41,0-18.41-.04,0-.08.01-.11.01-.11,0-.11-.05-.03-.15l-42.04-.41h0Z"/></g><path class="cls-7" d="M1401.48,576.17c-1.69,0-3.23-.38-4.63-1.13-1.4-.75-2.51-1.83-3.33-3.25-.82-1.42-1.24-3.13-1.24-5.14,0-1.8.42-3.34,1.25-4.61.83-1.28,1.93-2.35,3.3-3.2s2.84-1.53,4.44-2.03c1.6-.5,3.17-.86,4.73-1.09,1.55-.23,2.92-.37,4.11-.41-.08-1.82-.55-3.14-1.4-3.96-.85-.82-2.28-1.24-4.31-1.24-1.42,0-2.8.2-4.14.59-1.34.39-2.86,1-4.55,1.82l-.7-6.41c1.9-.93,3.81-1.63,5.73-2.09,1.91-.46,3.85-.7,5.82-.7,2.37,0,4.41.42,6.12,1.27,1.71.85,3.03,2.2,3.96,4.08.93,1.87,1.4,4.34,1.4,7.41v8.56c0,1.59.07,2.73.22,3.44.15.71.42,1.16.82,1.35.4.19.98.29,1.74.29h1.01l-.7,6.47h-2.85c-1.18,0-2.24-.15-3.16-.46-.92-.31-1.71-.73-2.36-1.28-.66-.55-1.18-1.19-1.59-1.94-1.04,1.16-2.44,2.07-4.2,2.71-1.77.64-3.6.97-5.5.97ZM1404.78,570.14c.7,0,1.56-.19,2.6-.56,1.04-.37,1.97-.95,2.79-1.73v-7.23c-1.48.06-2.96.31-4.44.73-1.48.42-2.72,1.05-3.71,1.87-.99.82-1.49,1.86-1.49,3.11s.34,2.25,1.02,2.87c.68.62,1.75.94,3.23.94Z"/><path class="cls-7" d="M1426.22,590.88v-47.07h6.34l1.52,5.27-2.35-.82c1.46-1.5,3.04-2.7,4.76-3.6,1.71-.9,3.81-1.35,6.28-1.35,3.11,0,5.72.75,7.83,2.25,2.11,1.5,3.72,3.5,4.81,5.99,1.09,2.5,1.63,5.22,1.63,8.18s-.54,5.69-1.63,8.18c-1.09,2.5-2.69,4.49-4.81,5.99-2.11,1.5-4.73,2.25-7.83,2.25-2.47,0-4.48-.34-6.03-1.01-1.54-.68-3.11-1.75-4.69-3.24l2.03-1.59v20.55h-7.87ZM1441.57,569.7c2.35,0,4.17-.92,5.47-2.77s1.95-4.24,1.95-7.18-.65-5.36-1.95-7.2c-1.3-1.84-3.12-2.76-5.47-2.76-1.82,0-3.31.42-4.47,1.27-1.16.85-2.02,2.01-2.57,3.5-.55,1.49-.82,3.22-.82,5.19s.27,3.7.82,5.19c.55,1.49,1.41,2.66,2.57,3.5,1.16.85,2.65,1.27,4.47,1.27Z"/><path class="cls-7" d="M1462.5,539v-7.87h7.87v7.87h-7.87ZM1462.5,575.53v-31.72h7.87v31.72h-7.87Z"/><path class="cls-7" d="M1476.96,575.53v-8.63h8.25v8.63h-8.25Z"/><path class="cls-7" d="M1491.8,575.53v-31.72h6.72l.51,4.63-1.14-1.4c1.21-.95,2.65-1.81,4.33-2.58,1.68-.77,3.64-1.16,5.88-1.16,1.69,0,3.19.25,4.49.75,1.3.5,2.42,1.21,3.35,2.12.93.92,1.68,2.01,2.25,3.28l-1.9-.44c1.02-1.82,2.5-3.22,4.46-4.22,1.96-.99,4.17-1.49,6.64-1.49,2.92,0,5.3.6,7.14,1.81,1.84,1.21,3.19,2.9,4.06,5.09.87,2.19,1.3,4.75,1.3,7.69v17.63h-7.87v-17.06c0-2.96-.46-5.15-1.38-6.56s-2.45-2.12-4.58-2.12c-1.06,0-1.98.19-2.77.55-.79.37-1.45.91-1.97,1.62-.52.71-.9,1.56-1.16,2.57-.25,1-.38,2.13-.38,3.38v17.63h-7.87v-17.06c0-1.97-.21-3.59-.62-4.88-.41-1.29-1.07-2.25-1.97-2.87-.9-.62-2.07-.94-3.5-.94-1.84,0-3.35.43-4.52,1.28-1.17.86-2.2,2.01-3.09,3.47l1.46-4.25v25.25h-7.87Z"/><path class="cls-7" d="M1553.78,576.17c-1.69,0-3.23-.38-4.63-1.13-1.4-.75-2.51-1.83-3.33-3.25-.82-1.42-1.24-3.13-1.24-5.14,0-1.8.42-3.34,1.25-4.61.83-1.28,1.93-2.35,3.3-3.2s2.84-1.53,4.44-2.03c1.6-.5,3.17-.86,4.73-1.09,1.55-.23,2.92-.37,4.11-.41-.08-1.82-.55-3.14-1.4-3.96-.85-.82-2.28-1.24-4.31-1.24-1.42,0-2.8.2-4.14.59-1.34.39-2.86,1-4.55,1.82l-.7-6.41c1.9-.93,3.81-1.63,5.73-2.09,1.91-.46,3.85-.7,5.82-.7,2.37,0,4.41.42,6.12,1.27,1.71.85,3.03,2.2,3.96,4.08.93,1.87,1.4,4.34,1.4,7.41v8.56c0,1.59.07,2.73.22,3.44.15.71.42,1.16.82,1.35.4.19.98.29,1.74.29h1.01l-.7,6.47h-2.85c-1.18,0-2.24-.15-3.16-.46-.92-.31-1.71-.73-2.36-1.28-.66-.55-1.18-1.19-1.59-1.94-1.04,1.16-2.44,2.07-4.2,2.71-1.77.64-3.6.97-5.5.97ZM1557.07,570.14c.7,0,1.56-.19,2.6-.56,1.04-.37,1.97-.95,2.79-1.73v-7.23c-1.48.06-2.96.31-4.44.73-1.48.42-2.72,1.05-3.71,1.87-.99.82-1.49,1.86-1.49,3.11s.34,2.25,1.02,2.87c.68.62,1.75.94,3.23.94Z"/><path class="cls-7" d="M1578.51,590.88v-47.07h6.34l1.52,5.27-2.35-.82c1.46-1.5,3.04-2.7,4.76-3.6,1.71-.9,3.81-1.35,6.28-1.35,3.11,0,5.72.75,7.83,2.25,2.11,1.5,3.72,3.5,4.81,5.99,1.09,2.5,1.63,5.22,1.63,8.18s-.54,5.69-1.63,8.18c-1.09,2.5-2.69,4.49-4.81,5.99-2.11,1.5-4.73,2.25-7.83,2.25-2.47,0-4.48-.34-6.03-1.01-1.54-.68-3.11-1.75-4.69-3.24l2.03-1.59v20.55h-7.87ZM1593.86,569.7c2.35,0,4.17-.92,5.47-2.77s1.95-4.24,1.95-7.18-.65-5.36-1.95-7.2c-1.3-1.84-3.12-2.76-5.47-2.76-1.82,0-3.31.42-4.47,1.27-1.16.85-2.02,2.01-2.57,3.5-.55,1.49-.82,3.22-.82,5.19s.27,3.7.82,5.19c.55,1.49,1.41,2.66,2.57,3.5,1.16.85,2.65,1.27,4.47,1.27Z"/><path class="cls-7" d="M1623.8,576.17c-2.09,0-3.98-.2-5.66-.6-1.68-.4-3.37-.98-5.06-1.74l.7-6.72c1.63.95,3.23,1.72,4.81,2.3,1.57.58,3.23.87,4.96.87,1.56,0,2.76-.25,3.58-.76.82-.51,1.24-1.31,1.24-2.41,0-.82-.22-1.5-.65-2.03-.43-.53-1.08-1-1.95-1.43-.87-.42-1.95-.88-3.23-1.36-1.95-.72-3.6-1.5-4.96-2.35-1.36-.85-2.4-1.87-3.11-3.06-.71-1.19-1.06-2.67-1.06-4.42s.48-3.43,1.43-4.82c.95-1.4,2.3-2.48,4.06-3.27,1.75-.78,3.84-1.17,6.25-1.17,2.01,0,3.81.22,5.41.67,1.6.44,3.07,1.05,4.42,1.81l-.7,6.72c-1.42-.99-2.84-1.81-4.28-2.46-1.44-.65-3.01-.97-4.73-.97-1.35,0-2.4.27-3.14.82s-1.11,1.33-1.11,2.35c0,1.23.52,2.15,1.55,2.76,1.04.61,2.7,1.36,4.98,2.25,1.48.57,2.76,1.16,3.85,1.78,1.09.61,1.99,1.29,2.71,2.03s1.25,1.58,1.6,2.52c.35.94.52,2.02.52,3.25,0,2.01-.48,3.72-1.44,5.12-.96,1.41-2.37,2.48-4.22,3.22-1.85.74-4.11,1.11-6.77,1.11Z"/><path class="cls-7" d="M1656.91,576.17c-3.83,0-7.01-.77-9.56-2.3-2.55-1.53-4.46-3.56-5.72-6.09s-1.9-5.29-1.9-8.29.6-5.57,1.79-8.02c1.19-2.45,2.94-4.42,5.25-5.92s5.12-2.24,8.44-2.24c3.04,0,5.58.62,7.61,1.87,2.03,1.25,3.55,2.91,4.57,5,1.02,2.08,1.52,4.38,1.52,6.9,0,.7-.04,1.4-.13,2.11s-.21,1.44-.38,2.2h-20.49c.3,1.97.91,3.56,1.86,4.77.94,1.22,2.09,2.11,3.46,2.68,1.36.57,2.83.86,4.39.86,1.84,0,3.55-.24,5.14-.71,1.59-.48,3.04-1.1,4.38-1.89l.38,6.66c-1.21.63-2.71,1.19-4.5,1.68-1.8.49-3.83.73-6.09.73ZM1648.1,556.06h12.81c0-.95-.18-1.91-.54-2.87-.36-.96-.96-1.77-1.79-2.43-.84-.66-1.96-.98-3.38-.98-2.03,0-3.63.59-4.79,1.78-1.16,1.18-1.93,2.69-2.31,4.5Z"/><path class="cls-7" d="M1674.29,575.53v-31.72h7.36l.19,3.36c.8-.89,1.93-1.78,3.39-2.66s3.06-1.33,4.79-1.33c.51,0,.97.04,1.4.13l-.57,7.74c-.47-.13-.93-.21-1.38-.25-.46-.04-.9-.06-1.35-.06-1.33,0-2.55.31-3.65.92-1.1.61-1.87,1.36-2.31,2.25v21.63h-7.87Z"/><path class="cls-7" d="M1703.92,575.53l-12.18-31.72h7.74l7.8,21.95,7.8-21.95h7.74l-12.18,31.72h-6.72Z"/><path class="cls-7" d="M1724.28,575.53v-8.63h8.25v8.63h-8.25Z"/><path class="cls-7" d="M1752.25,576.17c-3.3,0-5.93-.66-7.9-1.97-1.97-1.31-3.38-3.11-4.25-5.41-.87-2.29-1.3-4.93-1.3-7.91v-17.06h7.87v17.06c0,2.94.49,5.12,1.47,6.55.98,1.43,2.58,2.14,4.81,2.14,1.78,0,3.25-.42,4.42-1.27,1.17-.85,2.15-2.03,2.93-3.55l-1.4,4v-24.93h7.87v31.72h-7.36l-.38-5.52,1.71,2.22c-.76.97-1.96,1.87-3.6,2.7-1.64.82-3.27,1.24-4.9,1.24Z"/><path class="cls-7" d="M1784.47,576.17c-1.99,0-3.6-.41-4.85-1.22-1.25-.81-2.17-1.86-2.76-3.12-.59-1.27-.89-2.59-.89-3.96v-17.57h-4.5l.7-6.47h3.81v-6.98l7.87-.82v7.8h6.98v6.47h-6.98v14.34c0,1.61.1,2.76.29,3.47.19.71.62,1.15,1.3,1.33.68.18,1.75.27,3.23.27h2.16l-.7,6.47h-5.65Z"/><path class="cls-7" d="M1802.81,576.17c-1.69,0-3.23-.38-4.63-1.13-1.4-.75-2.51-1.83-3.33-3.25-.82-1.42-1.24-3.13-1.24-5.14,0-1.8.42-3.34,1.25-4.61.83-1.28,1.93-2.35,3.3-3.2s2.84-1.53,4.44-2.03c1.6-.5,3.17-.86,4.73-1.09,1.55-.23,2.92-.37,4.11-.41-.08-1.82-.55-3.14-1.4-3.96-.85-.82-2.28-1.24-4.31-1.24-1.42,0-2.8.2-4.14.59-1.34.39-2.86,1-4.55,1.82l-.7-6.41c1.9-.93,3.81-1.63,5.73-2.09,1.91-.46,3.85-.7,5.82-.7,2.37,0,4.41.42,6.12,1.27,1.71.85,3.03,2.2,3.96,4.08.93,1.87,1.4,4.34,1.4,7.41v8.56c0,1.59.07,2.73.22,3.44.15.71.42,1.16.82,1.35.4.19.98.29,1.74.29h1.01l-.7,6.47h-2.85c-1.18,0-2.24-.15-3.16-.46-.92-.31-1.71-.73-2.36-1.28-.66-.55-1.18-1.19-1.59-1.94-1.04,1.16-2.44,2.07-4.2,2.71-1.77.64-3.6.97-5.5.97ZM1806.1,570.14c.7,0,1.56-.19,2.6-.56,1.04-.37,1.97-.95,2.79-1.73v-7.23c-1.48.06-2.96.31-4.44.73-1.48.42-2.72,1.05-3.71,1.87-.99.82-1.49,1.86-1.49,3.11s.34,2.25,1.02,2.87c.68.62,1.75.94,3.23.94Z"/><path class="cls-7" d="M1827.48,575.53v-47.57h7.87v20.49l-1.78-1.4c1.33-.93,2.78-1.79,4.35-2.57,1.56-.78,3.44-1.17,5.61-1.17,2.79,0,5.06.62,6.82,1.86,1.75,1.24,3.04,2.95,3.87,5.14s1.24,4.72,1.24,7.6v17.63h-7.87v-17.06c0-2.96-.48-5.15-1.43-6.56-.95-1.42-2.51-2.12-4.66-2.12-1.84,0-3.35.43-4.52,1.28-1.17.86-2.2,2.01-3.09,3.47l1.46-4.25v25.25h-7.87Z"/><path class="cls-7" d="M1861.73,575.53v-8.63h8.25v8.63h-8.25Z"/><path class="cls-7" d="M1889.14,591.52c-2.96,0-5.55-.37-7.75-1.09s-3.92-1.77-5.14-3.12c-1.22-1.35-1.82-2.97-1.82-4.85,0-1.59.44-3,1.32-4.23s2.15-2.32,3.82-3.25c-.85-.51-1.52-1.14-2.03-1.9-.51-.76-.76-1.63-.76-2.6s.29-1.9.87-2.65c.58-.75,1.35-1.35,2.3-1.79-1.61-1.14-2.82-2.61-3.65-4.39-.82-1.79-1.24-3.73-1.24-5.82,0-2.28.5-4.38,1.49-6.3.99-1.91,2.45-3.45,4.36-4.6,1.91-1.15,4.25-1.73,7.03-1.73,1.44,0,2.76.18,3.98.54,1.22.36,2.3.86,3.25,1.49.63-.36,1.55-.68,2.76-.97,1.21-.29,2.55-.43,4.03-.43h2.03l-.51,4.95h-3.62c-.32,0-.66.02-1.02.06.63.97,1.11,2.06,1.43,3.27.32,1.21.48,2.44.48,3.71,0,2.28-.49,4.38-1.47,6.3s-2.43,3.45-4.33,4.6c-1.9,1.15-4.24,1.73-7.01,1.73-.59,0-1.16-.04-1.71-.13-.55-.08-1.1-.19-1.65-.32-.47.19-.7.53-.7,1.01,0,.57.35,1,1.05,1.3.7.3,1.79.56,3.27.79l5.46.7c3.4.44,6.07,1.41,8.01,2.89,1.93,1.48,2.9,3.58,2.9,6.31,0,2.11-.61,3.96-1.82,5.53-1.22,1.58-2.98,2.8-5.28,3.68-2.3.88-5.07,1.32-8.31,1.32ZM1889.45,585.56c2.66,0,4.68-.33,6.06-.98,1.37-.66,2.06-1.66,2.06-3.01,0-1.21-.48-2.09-1.44-2.66-.96-.57-2.49-1.01-4.58-1.33l-6.95-1.01c-1.04.4-1.9.96-2.6,1.67-.7.71-1.05,1.63-1.05,2.78,0,1.54.75,2.69,2.25,3.44,1.5.75,3.58,1.13,6.25,1.13ZM1887.93,562.59c1.88,0,3.3-.62,4.27-1.85.96-1.24,1.44-2.88,1.44-4.93s-.48-3.72-1.44-4.95c-.96-1.23-2.38-1.84-4.27-1.84s-3.34.61-4.31,1.84c-.97,1.23-1.46,2.88-1.46,4.95s.49,3.69,1.46,4.93c.97,1.24,2.41,1.85,4.31,1.85Z"/><path class="cls-7" d="M1922.5,576.17c-3.45,0-6.39-.75-8.82-2.25-2.43-1.5-4.29-3.5-5.57-5.99-1.28-2.49-1.92-5.22-1.92-8.18s.64-5.73,1.92-8.25c1.28-2.52,3.13-4.53,5.57-6.04,2.43-1.51,5.37-2.27,8.82-2.27s6.39.76,8.82,2.27c2.43,1.51,4.29,3.53,5.57,6.04,1.28,2.52,1.92,5.27,1.92,8.25s-.64,5.69-1.92,8.18c-1.28,2.5-3.13,4.49-5.57,5.99-2.43,1.5-5.37,2.25-8.82,2.25ZM1922.5,569.7c2.64,0,4.68-.92,6.11-2.77s2.14-4.24,2.14-7.18-.71-5.41-2.14-7.28c-1.43-1.87-3.46-2.81-6.11-2.81s-4.65.94-6.09,2.81c-1.44,1.87-2.16,4.3-2.16,7.28s.72,5.33,2.16,7.18c1.44,1.85,3.47,2.77,6.09,2.77Z"/><path class="cls-7" d="M1952.38,575.53l-12.18-31.72h7.74l7.8,21.95,7.8-21.95h7.74l-12.18,31.72h-6.72Z"/><path class="cls-9" d="M707.97,368.5c-21.17,0-38.65-4.19-52.45-12.57-13.81-8.38-24.09-20.14-30.86-35.29-6.77-15.15-10.15-32.93-10.15-53.34v-128.92h41.25v118.28c0,10.74.7,20.55,2.09,29.41,1.4,8.86,3.95,16.49,7.65,22.88,3.71,6.39,9,11.31,15.87,14.75,6.87,3.44,15.74,5.16,26.59,5.16s19.71-1.72,26.59-5.16c6.87-3.44,12.17-8.35,15.87-14.75,3.71-6.39,6.26-14.02,7.65-22.88,1.39-8.86,2.09-18.67,2.09-29.41v-118.28h41.25v128.92c0,20.41-3.38,38.19-10.15,53.34-6.77,15.15-17.06,26.91-30.86,35.29-13.81,8.38-31.29,12.57-52.45,12.57Z"/><path class="cls-9" d="M948.73,368.5c-23.85,0-44.26-4.86-61.24-14.58-16.98-9.72-29.97-23.39-39-41.01-9.02-17.62-13.54-38.3-13.54-62.04s5.02-44.07,15.07-61.64c10.04-17.56,23.93-31.18,41.66-40.85,17.73-9.67,38.14-14.5,61.24-14.5,11.92,0,23.34,1.24,34.24,3.71,10.9,2.47,20.22,5.64,27.96,9.51l-4.51,39.32c-8.06-3.76-16.95-6.85-26.67-9.27-9.72-2.42-20.06-3.63-31.02-3.63-16.76,0-30.51,3.36-41.25,10.07-10.74,6.72-18.69,15.85-23.85,27.4-5.16,11.55-7.74,24.63-7.74,39.24,0,15.36,2.6,28.95,7.82,40.77,5.21,11.82,13.03,21.09,23.45,27.8,10.42,6.72,23.42,10.07,39,10.07,4.73,0,9.69-.32,14.91-.97,5.21-.64,10.56-1.5,16.03-2.58v-40.29h-30.94v-34.16h72.2v100.56c-7.84,4.62-18.24,8.62-31.18,12.01-12.95,3.38-27.15,5.08-42.62,5.08Z"/><path class="cls-9" d="M1062.5,363.99v-225.61h82.51c15.58,0,29.19,2.47,40.85,7.41,11.66,4.94,20.71,12.46,27.15,22.56,6.45,10.1,9.67,22.88,9.67,38.35,0,16.55-3.52,29.68-10.56,39.4-7.04,9.72-16.3,17.43-27.8,23.12l50.92,94.76h-46.09l-43.51-83.8h-41.9v83.8h-41.25ZM1103.75,245.71h30.3c16.97,0,28.79-3.46,35.45-10.39,6.66-6.93,9.99-15.71,9.99-26.35,0-11.28-3.28-20.12-9.83-26.51-6.55-6.39-17.89-9.59-34-9.59h-31.91v72.84Z"/><path class="cls-9" d="M1366.42,368.5c-22.88,0-43.03-4.86-60.43-14.58-17.4-9.72-30.97-23.37-40.69-40.93-9.72-17.57-14.58-38.16-14.58-61.8s5.02-44.24,15.07-61.8c10.04-17.56,23.88-31.21,41.5-40.93,17.62-9.72,37.76-14.58,60.43-14.58,11.92,0,22.83,1.26,32.71,3.79,9.88,2.53,18.42,5.67,25.62,9.43l-4.51,39.32c-8.17-3.76-16.57-6.85-25.22-9.27-8.65-2.42-18.29-3.63-28.93-3.63-15.79,0-28.98,3.33-39.56,9.99-10.58,6.66-18.56,15.85-23.93,27.56-5.37,11.71-8.06,25.09-8.06,40.13s2.63,28.42,7.9,40.13c5.26,11.71,13.13,20.9,23.61,27.56,10.47,6.66,23.5,9.99,39.08,9.99,10.85,0,20.57-1.18,29.17-3.54,8.59-2.36,17.24-5.48,25.94-9.35l4.51,39.32c-8.49,3.98-17.81,7.17-27.96,9.59-10.15,2.42-20.71,3.63-31.67,3.63Z"/><path class="cls-9" d="M1603.63,178.67h10.64l-65.1,185.32h-39.97l80.25-225.61h39l80.25,225.61h-39.97l-65.1-185.32ZM1656.16,310.49h-94.43v-36.1h94.43v36.1Z"/><path class="cls-9" d="M1734.48,363.99v-225.61h80.25c17.3,0,31.91,2.58,43.83,7.73s20.97,13.11,27.15,23.85c6.18,10.74,9.27,24.5,9.27,41.25s-3.06,30.97-9.19,41.98c-6.12,11.01-15.1,19.18-26.91,24.49-11.82,5.32-26.21,7.98-43.19,7.98h-39.97v78.32h-41.25ZM1775.74,251.19h35.13c14.07,0,24.63-3.17,31.67-9.51,7.04-6.34,10.56-16.28,10.56-29.81s-3.57-23.42-10.72-29.65c-7.15-6.23-17.97-9.35-32.47-9.35h-34.16v78.32Z"/><path class="cls-9" d="M1926.57,363.99v-225.61h41.25v225.61h-41.25Z"/><path class="cls-7" d="M985.48,499.89v-67.27h12.3v56.32h27.68v10.96h-39.98Z"/><path class="cls-7" d="M1054.29,500.85c-5.8,0-10.63-1.16-14.49-3.48-3.86-2.32-6.75-5.4-8.67-9.23-1.92-3.83-2.88-8.02-2.88-12.57s.9-8.44,2.71-12.16c1.81-3.72,4.46-6.7,7.95-8.96,3.49-2.26,7.75-3.39,12.78-3.39,4.61,0,8.46.95,11.53,2.83,3.08,1.89,5.38,4.41,6.92,7.57,1.54,3.16,2.31,6.64,2.31,10.45,0,1.06-.06,2.12-.19,3.2-.13,1.07-.32,2.19-.58,3.34h-31.04c.45,2.98,1.39,5.39,2.81,7.23,1.43,1.84,3.17,3.2,5.24,4.06,2.07.86,4.28,1.3,6.65,1.3,2.79,0,5.38-.36,7.78-1.08,2.4-.72,4.61-1.67,6.63-2.86l.58,10.09c-1.83.96-4.1,1.81-6.82,2.55-2.72.74-5.8,1.1-9.23,1.1ZM1040.93,470.39h19.41c0-1.44-.27-2.89-.82-4.35-.54-1.46-1.45-2.68-2.71-3.68-1.27-.99-2.97-1.49-5.12-1.49-3.08,0-5.49.9-7.26,2.69-1.76,1.79-2.93,4.07-3.51,6.82Z"/><path class="cls-7" d="M1096.28,500.85c-3.01,0-5.46-.62-7.35-1.85-1.89-1.23-3.28-2.81-4.18-4.73-.9-1.92-1.35-3.92-1.35-6.01v-26.62h-6.82l1.06-9.8h5.77v-10.57l11.92-1.25v11.82h10.57v9.8h-10.57v21.72c0,2.44.14,4.19.43,5.26.29,1.07.94,1.75,1.97,2.02,1.02.27,2.66.41,4.9.41h3.27l-1.06,9.8h-8.55Z"/><path class="cls-7" d="M1154.71,500.85c-4.87,0-8.96-1.14-12.28-3.41-3.32-2.27-5.81-5.3-7.5-9.08-1.68-3.78-2.52-7.91-2.52-12.4s.84-8.62,2.52-12.4c1.68-3.78,4.18-6.81,7.5-9.08,3.32-2.27,7.41-3.41,12.28-3.41,3.52,0,6.5.58,8.94,1.75,2.43,1.17,4.58,2.67,6.44,4.49l-2.88,2.5v-32h11.92v72.08h-11.24l-.58-8.17,3.46,2.5c-2.24,2.05-4.56,3.67-6.97,4.85-2.4,1.18-5.43,1.78-9.08,1.78ZM1156.44,491.05c2.63,0,4.77-.64,6.44-1.92,1.67-1.28,2.9-3.05,3.7-5.31.8-2.26,1.2-4.88,1.2-7.86s-.4-5.6-1.2-7.86c-.8-2.26-2.03-4.03-3.7-5.31-1.67-1.28-3.81-1.92-6.44-1.92s-4.63.64-6.39,1.92c-1.76,1.28-3.11,3.05-4.04,5.31s-1.39,4.88-1.39,7.86.46,5.6,1.39,7.86c.93,2.26,2.27,4.03,4.04,5.31,1.76,1.28,3.89,1.92,6.39,1.92Z"/><path class="cls-7" d="M1200.55,500.85c-2.56,0-4.9-.57-7.02-1.71s-3.8-2.78-5.05-4.93c-1.25-2.15-1.87-4.74-1.87-7.78,0-2.72.63-5.05,1.9-6.99,1.27-1.94,2.93-3.56,5-4.85,2.07-1.3,4.31-2.32,6.73-3.08,2.42-.75,4.81-1.31,7.16-1.66,2.35-.35,4.43-.56,6.22-.62-.13-2.75-.83-4.76-2.11-6.01-1.28-1.25-3.46-1.87-6.54-1.87-2.15,0-4.24.3-6.27.89-2.03.59-4.33,1.51-6.9,2.76l-1.06-9.71c2.88-1.41,5.77-2.47,8.67-3.17,2.9-.7,5.84-1.06,8.82-1.06,3.59,0,6.68.64,9.27,1.92,2.59,1.28,4.6,3.34,6.01,6.17,1.41,2.83,2.11,6.58,2.11,11.22v12.97c0,2.4.11,4.14.34,5.21.22,1.07.64,1.75,1.25,2.04.61.29,1.49.43,2.64.43h1.54l-1.06,9.8h-4.32c-1.79,0-3.39-.23-4.78-.7-1.39-.46-2.59-1.11-3.58-1.95-.99-.83-1.79-1.81-2.4-2.93-1.57,1.76-3.69,3.13-6.37,4.11-2.68.98-5.45,1.47-8.34,1.47ZM1205.55,491.73c1.06,0,2.37-.28,3.94-.84,1.57-.56,2.98-1.43,4.23-2.62v-10.96c-2.24.1-4.49.46-6.73,1.1-2.24.64-4.12,1.59-5.62,2.83-1.51,1.25-2.26,2.82-2.26,4.71s.51,3.4,1.54,4.35c1.02.95,2.66,1.42,4.9,1.42Z"/><path class="cls-7" d="M1252.93,500.85c-3.01,0-5.46-.62-7.35-1.85-1.89-1.23-3.28-2.81-4.18-4.73-.9-1.92-1.35-3.92-1.35-6.01v-26.62h-6.82l1.06-9.8h5.77v-10.57l11.92-1.25v11.82h10.57v9.8h-10.57v21.72c0,2.44.14,4.19.43,5.26.29,1.07.94,1.75,1.97,2.02,1.02.27,2.66.41,4.9.41h3.27l-1.06,9.8h-8.55Z"/><path class="cls-7" d="M1280.7,500.85c-2.56,0-4.9-.57-7.02-1.71s-3.8-2.78-5.05-4.93c-1.25-2.15-1.87-4.74-1.87-7.78,0-2.72.63-5.05,1.9-6.99,1.27-1.94,2.93-3.56,5-4.85,2.07-1.3,4.31-2.32,6.73-3.08,2.42-.75,4.81-1.31,7.16-1.66,2.35-.35,4.43-.56,6.22-.62-.13-2.75-.83-4.76-2.11-6.01-1.28-1.25-3.46-1.87-6.54-1.87-2.15,0-4.24.3-6.27.89-2.03.59-4.33,1.51-6.9,2.76l-1.06-9.71c2.88-1.41,5.77-2.47,8.67-3.17,2.9-.7,5.84-1.06,8.82-1.06,3.59,0,6.68.64,9.27,1.92,2.59,1.28,4.6,3.34,6.01,6.17,1.41,2.83,2.11,6.58,2.11,11.22v12.97c0,2.4.11,4.14.34,5.21.22,1.07.64,1.75,1.25,2.04.61.29,1.49.43,2.64.43h1.54l-1.06,9.8h-4.32c-1.79,0-3.39-.23-4.78-.7-1.39-.46-2.59-1.11-3.58-1.95-.99-.83-1.79-1.81-2.4-2.93-1.57,1.76-3.69,3.13-6.37,4.11-2.68.98-5.45,1.47-8.34,1.47ZM1285.7,491.73c1.06,0,2.37-.28,3.94-.84,1.57-.56,2.98-1.43,4.23-2.62v-10.96c-2.24.1-4.49.46-6.73,1.1-2.24.64-4.12,1.59-5.62,2.83-1.51,1.25-2.26,2.82-2.26,4.71s.51,3.4,1.54,4.35c1.02.95,2.66,1.42,4.9,1.42Z"/><path class="cls-7" d="M1355.47,500.85c-3.01,0-5.46-.62-7.35-1.85-1.89-1.23-3.28-2.81-4.18-4.73-.9-1.92-1.35-3.92-1.35-6.01v-26.62h-6.82l1.06-9.8h5.77v-10.57l11.92-1.25v11.82h10.57v9.8h-10.57v21.72c0,2.44.14,4.19.43,5.26.29,1.07.94,1.75,1.97,2.02,1.02.27,2.66.41,4.9.41h3.27l-1.06,9.8h-8.55Z"/><path class="cls-7" d="M1383.24,500.85c-2.56,0-4.9-.57-7.02-1.71s-3.8-2.78-5.05-4.93c-1.25-2.15-1.87-4.74-1.87-7.78,0-2.72.63-5.05,1.9-6.99,1.27-1.94,2.93-3.56,5-4.85,2.07-1.3,4.31-2.32,6.73-3.08,2.42-.75,4.81-1.31,7.16-1.66,2.35-.35,4.43-.56,6.22-.62-.13-2.75-.83-4.76-2.11-6.01-1.28-1.25-3.46-1.87-6.54-1.87-2.15,0-4.24.3-6.27.89-2.03.59-4.33,1.51-6.9,2.76l-1.06-9.71c2.88-1.41,5.77-2.47,8.67-3.17,2.9-.7,5.84-1.06,8.82-1.06,3.59,0,6.68.64,9.27,1.92,2.59,1.28,4.6,3.34,6.01,6.17,1.41,2.83,2.11,6.58,2.11,11.22v12.97c0,2.4.11,4.14.34,5.21.22,1.07.64,1.75,1.25,2.04.61.29,1.49.43,2.64.43h1.54l-1.06,9.8h-4.32c-1.79,0-3.39-.23-4.78-.7-1.39-.46-2.59-1.11-3.58-1.95-.99-.83-1.79-1.81-2.4-2.93-1.57,1.76-3.69,3.13-6.37,4.11-2.68.98-5.45,1.47-8.34,1.47ZM1388.24,491.73c1.06,0,2.37-.28,3.94-.84,1.57-.56,2.98-1.43,4.23-2.62v-10.96c-2.24.1-4.49.46-6.73,1.1-2.24.64-4.12,1.59-5.62,2.83-1.51,1.25-2.26,2.82-2.26,4.71s.51,3.4,1.54,4.35c1.02.95,2.66,1.42,4.9,1.42Z"/><path class="cls-7" d="M1420.62,499.89v-72.08h11.92v43.73l14.9-19.7h13.45l-17.49,23.06,17.88,24.99h-13.45l-15.28-21.33v21.33h-11.92Z"/><path class="cls-7" d="M1488.47,500.85c-5.8,0-10.63-1.16-14.49-3.48-3.86-2.32-6.75-5.4-8.67-9.23-1.92-3.83-2.88-8.02-2.88-12.57s.9-8.44,2.71-12.16c1.81-3.72,4.46-6.7,7.95-8.96,3.49-2.26,7.75-3.39,12.78-3.39,4.61,0,8.46.95,11.53,2.83,3.08,1.89,5.38,4.41,6.92,7.57,1.54,3.16,2.31,6.64,2.31,10.45,0,1.06-.06,2.12-.19,3.2-.13,1.07-.32,2.19-.58,3.34h-31.04c.45,2.98,1.39,5.39,2.81,7.23,1.43,1.84,3.17,3.2,5.24,4.06,2.07.86,4.28,1.3,6.65,1.3,2.79,0,5.38-.36,7.78-1.08,2.4-.72,4.61-1.67,6.63-2.86l.58,10.09c-1.83.96-4.1,1.81-6.82,2.55-2.72.74-5.8,1.1-9.23,1.1ZM1475.11,470.39h19.41c0-1.44-.27-2.89-.82-4.35-.54-1.46-1.45-2.68-2.71-3.68-1.27-.99-2.97-1.49-5.12-1.49-3.08,0-5.49.9-7.26,2.69-1.76,1.79-2.93,4.07-3.51,6.82Z"/><path class="cls-7" d="M1540.27,523.15l10.67-26.43-19.99-44.88h13.26l12.3,30.95,12.49-30.95h13.26l-30.08,71.31h-11.92Z"/><path class="cls-7" d="M1608.79,500.85c-5.22,0-9.67-1.14-13.36-3.41-3.68-2.27-6.5-5.3-8.43-9.08-1.94-3.78-2.91-7.91-2.91-12.4s.97-8.68,2.91-12.49c1.94-3.81,4.75-6.86,8.43-9.15,3.68-2.29,8.14-3.44,13.36-3.44s9.67,1.15,13.36,3.44c3.68,2.29,6.49,5.34,8.43,9.15,1.94,3.81,2.91,7.98,2.91,12.49s-.97,8.62-2.91,12.4c-1.94,3.78-4.75,6.81-8.43,9.08-3.68,2.27-8.14,3.41-13.36,3.41ZM1608.79,491.05c4,0,7.09-1.4,9.25-4.2,2.16-2.8,3.24-6.43,3.24-10.88s-1.08-8.19-3.24-11.03c-2.16-2.83-5.25-4.25-9.25-4.25s-7.05,1.42-9.23,4.25c-2.18,2.83-3.27,6.51-3.27,11.03s1.09,8.08,3.27,10.88c2.18,2.8,5.25,4.2,9.23,4.2Z"/><path class="cls-7" d="M1661.64,500.85c-5,0-8.99-.99-11.96-2.98-2.98-1.99-5.13-4.72-6.44-8.19-1.31-3.48-1.97-7.47-1.97-11.99v-25.85h11.92v25.85c0,4.45.74,7.76,2.23,9.92,1.49,2.16,3.92,3.24,7.28,3.24,2.69,0,4.92-.64,6.7-1.92,1.78-1.28,3.26-3.08,4.44-5.38l-2.11,6.05v-37.77h11.92v48.05h-11.15l-.58-8.36,2.59,3.36c-1.15,1.47-2.97,2.83-5.45,4.08-2.48,1.25-4.96,1.87-7.42,1.87Z"/><path class="cls-7" d="M1716.42,523.15v-71.31h9.61l2.31,7.98-3.56-1.25c2.21-2.27,4.61-4.09,7.21-5.45,2.59-1.36,5.77-2.04,9.51-2.04,4.71,0,8.66,1.14,11.87,3.41,3.2,2.27,5.63,5.3,7.28,9.08,1.65,3.78,2.47,7.91,2.47,12.4s-.82,8.62-2.47,12.4c-1.65,3.78-4.08,6.81-7.28,9.08-3.2,2.27-7.16,3.41-11.87,3.41-3.75,0-6.79-.51-9.13-1.54-2.34-1.02-4.71-2.66-7.11-4.9l3.08-2.4v31.14h-11.92ZM1739.68,491.05c3.56,0,6.32-1.4,8.29-4.2,1.97-2.8,2.96-6.43,2.96-10.88s-.99-8.12-2.96-10.91c-1.97-2.79-4.73-4.18-8.29-4.18-2.76,0-5.01.64-6.77,1.92-1.76,1.28-3.06,3.05-3.89,5.31s-1.25,4.88-1.25,7.86.42,5.6,1.25,7.86c.83,2.26,2.13,4.03,3.89,5.31,1.76,1.28,4.02,1.92,6.77,1.92Z"/><path class="cls-7" d="M1783.69,500.85c-2.85,0-5.18-.57-6.99-1.71-1.81-1.14-3.15-2.66-4.01-4.56-.86-1.91-1.3-4.01-1.3-6.32v-60.45h11.92v55.55c0,2.56.15,4.38.46,5.45.3,1.07.87,1.71,1.71,1.92.83.21,2.03.31,3.6.31l-1.06,9.8h-4.32Z"/><path class="cls-7" d="M1807.04,500.85c-2.56,0-4.9-.57-7.02-1.71s-3.8-2.78-5.05-4.93c-1.25-2.15-1.87-4.74-1.87-7.78,0-2.72.63-5.05,1.9-6.99,1.27-1.94,2.93-3.56,5-4.85,2.07-1.3,4.31-2.32,6.73-3.08,2.42-.75,4.81-1.31,7.16-1.66,2.35-.35,4.43-.56,6.22-.62-.13-2.75-.83-4.76-2.11-6.01-1.28-1.25-3.46-1.87-6.54-1.87-2.15,0-4.24.3-6.27.89-2.03.59-4.33,1.51-6.9,2.76l-1.06-9.71c2.88-1.41,5.77-2.47,8.67-3.17,2.9-.7,5.84-1.06,8.82-1.06,3.59,0,6.68.64,9.27,1.92,2.59,1.28,4.6,3.34,6.01,6.17,1.41,2.83,2.11,6.58,2.11,11.22v12.97c0,2.4.11,4.14.34,5.21.22,1.07.64,1.75,1.25,2.04.61.29,1.49.43,2.64.43h1.54l-1.06,9.8h-4.32c-1.79,0-3.39-.23-4.78-.7-1.39-.46-2.59-1.11-3.58-1.95-.99-.83-1.79-1.81-2.4-2.93-1.57,1.76-3.69,3.13-6.37,4.11-2.68.98-5.45,1.47-8.34,1.47ZM1812.04,491.73c1.06,0,2.37-.28,3.94-.84,1.57-.56,2.98-1.43,4.23-2.62v-10.96c-2.24.1-4.49.46-6.73,1.1-2.24.64-4.12,1.59-5.62,2.83-1.51,1.25-2.26,2.82-2.26,4.71s.51,3.4,1.54,4.35c1.02.95,2.66,1.42,4.9,1.42Z"/><path class="cls-7" d="M1866.81,500.85c-5.51,0-10.13-1.13-13.86-3.39-3.73-2.26-6.55-5.27-8.46-9.03-1.91-3.76-2.86-7.92-2.86-12.47s.94-8.77,2.83-12.57c1.89-3.8,4.72-6.83,8.5-9.11,3.78-2.27,8.52-3.41,14.22-3.41,2.69,0,5.12.3,7.3.89,2.18.59,4.04,1.32,5.57,2.19l-.96,9.61c-1.47-.77-3.13-1.41-4.97-1.92-1.84-.51-3.77-.77-5.79-.77-4.61,0-8.19,1.39-10.72,4.18-2.53,2.79-3.8,6.42-3.8,10.91s1.3,7.84,3.89,10.74c2.59,2.9,6.1,4.35,10.52,4.35,1.89,0,3.76-.28,5.6-.84,1.84-.56,3.63-1.34,5.36-2.33l1.06,10.09c-1.67.86-3.68,1.56-6.03,2.09-2.35.53-4.83.79-7.42.79Z"/><path class="cls-7" d="M1911.02,500.85c-5.8,0-10.63-1.16-14.49-3.48-3.86-2.32-6.75-5.4-8.67-9.23-1.92-3.83-2.88-8.02-2.88-12.57s.9-8.44,2.71-12.16c1.81-3.72,4.46-6.7,7.95-8.96,3.49-2.26,7.75-3.39,12.78-3.39,4.61,0,8.46.95,11.53,2.83,3.08,1.89,5.38,4.41,6.92,7.57,1.54,3.16,2.31,6.64,2.31,10.45,0,1.06-.06,2.12-.19,3.2-.13,1.07-.32,2.19-.58,3.34h-31.04c.45,2.98,1.39,5.39,2.81,7.23,1.43,1.84,3.17,3.2,5.24,4.06,2.07.86,4.28,1.3,6.65,1.3,2.79,0,5.38-.36,7.78-1.08,2.4-.72,4.61-1.67,6.63-2.86l.58,10.09c-1.83.96-4.1,1.81-6.82,2.55-2.72.74-5.8,1.1-9.23,1.1ZM1897.66,470.39h19.41c0-1.44-.27-2.89-.82-4.35-.54-1.46-1.45-2.68-2.71-3.68-1.27-.99-2.97-1.49-5.12-1.49-3.08,0-5.49.9-7.26,2.69-1.76,1.79-2.93,4.07-3.51,6.82Z"/><path class="cls-7" d="M1951,500.85c-3.17,0-6.03-.3-8.58-.91-2.55-.61-5.1-1.49-7.66-2.64l1.06-10.19c2.47,1.44,4.89,2.6,7.28,3.48,2.39.88,4.89,1.32,7.52,1.32,2.37,0,4.18-.38,5.43-1.15,1.25-.77,1.87-1.99,1.87-3.65,0-1.25-.33-2.27-.98-3.08-.66-.8-1.64-1.52-2.96-2.16-1.31-.64-2.95-1.33-4.9-2.07-2.95-1.09-5.45-2.27-7.52-3.56-2.07-1.28-3.64-2.83-4.71-4.64-1.07-1.81-1.61-4.04-1.61-6.7s.72-5.19,2.16-7.3,3.49-3.76,6.15-4.95c2.66-1.18,5.81-1.78,9.47-1.78,3.04,0,5.77.34,8.19,1.01,2.42.67,4.65,1.59,6.7,2.74l-1.06,10.19c-2.15-1.51-4.31-2.75-6.49-3.72-2.18-.98-4.56-1.47-7.16-1.47-2.05,0-3.64.42-4.76,1.25-1.12.83-1.68,2.02-1.68,3.56,0,1.86.78,3.25,2.35,4.18,1.57.93,4.08,2.07,7.54,3.41,2.24.86,4.19,1.76,5.84,2.69,1.65.93,3.02,1.95,4.11,3.08,1.09,1.12,1.9,2.4,2.43,3.82.53,1.43.79,3.07.79,4.92,0,3.04-.73,5.63-2.19,7.76-1.46,2.13-3.59,3.76-6.39,4.88-2.8,1.12-6.22,1.68-10.26,1.68Z"/><rect class="cls-7" x="621.84" y="468.53" width="342.06" height="8.14"/></g><g id="SGID_30"><polygon id="Inside" class="cls-18" points="-1136.41 3313.38 -1174.68 3313.38 -1126.21 3229.44 -1160.33 3170.35 -1228.56 3170.35 -1262.68 3229.44 -1214.21 3313.38 -1252.48 3313.38 -1300.94 3229.44 -1247.69 3137.21 -1141.2 3137.21 -1087.95 3229.44 -1136.41 3313.38"/><polygon id="Middle" class="cls-18" points="-998.34 3229.44 -1096.39 3059.61 -1150.76 3059.61 -1150.76 3092.75 -1115.53 3092.75 -1036.6 3229.44 -1115.53 3366.13 -1273.37 3366.13 -1352.29 3229.44 -1273.37 3092.75 -1238.13 3092.75 -1238.13 3059.61 -1292.5 3059.61 -1390.55 3229.44 -1292.5 3399.27 -1096.39 3399.27 -998.34 3229.44"/><polygon id="Outside" class="cls-18" points="-908.74 3229.44 -1051.59 2982.01 -1337.3 2982.01 -1480.15 3229.44 -1337.3 3476.87 -1257.44 3476.87 -1257.44 3443.73 -1318.17 3443.73 -1441.89 3229.44 -1318.17 3015.14 -1070.72 3015.14 -947 3229.44 -1070.72 3443.73 -1142.07 3443.73 -1142.07 3476.87 -1051.59 3476.87 -908.74 3229.44"/></g></g></svg>