<svg xmlns="http://www.w3.org/2000/svg" viewBox="0 0 624.6 426.3"><g id="freepik--background-complete--inject-148"><g><path d="M601.59,340.7c-6.04,.1-21.29,.35-27.13,.41l-9.15,.04h-.45v-.46l-.04-11.4v-.5h.5l18.14,.07c4.52,.04,13.62,.13,18.14,.2h.24v.24l-.24,11.4h0Zm0,0l-.24-11.4,.24,.24c-4.53,.06-13.61,.16-18.14,.2l-18.14,.07,.5-.5-.04,11.4-.46-.46,8.99,.04c5.75,.06,21.34,.32,27.28,.41h0Z" style="fill:#ebebeb;"></path><path d="M581.36,355.08c-6.04,.1-21.29,.35-27.13,.41l-9.15,.04h-.45v-.46l-.04-11.4v-.5h.5l18.14,.07c4.52,.04,13.62,.13,18.14,.2h.24v.24l-.24,11.4h0Zm0,0l-.24-11.4,.24,.24c-4.53,.06-13.61,.16-18.14,.2l-18.14,.07,.5-.5-.04,11.4-.46-.46,8.99,.04c5.75,.06,21.34,.32,27.28,.41h0Z" style="fill:#ebebeb;"></path><path d="M60.01,340.7c-6.04,.1-21.29,.35-27.13,.41l-9.15,.04h-.45v-.46l-.05-11.4v-.5h.5l18.14,.07c4.52,.04,13.62,.13,18.14,.2h.24v.24l-.24,11.4h0Zm0,0l-.24-11.4,.24,.24c-4.53,.06-13.61,.16-18.14,.2l-18.14,.07,.5-.5-.04,11.4-.46-.46,8.99,.04c5.75,.06,21.34,.32,27.28,.41h0Z" style="fill:#ebebeb;"></path><rect x="3.5" y="343.67" width="36.27" height="11.4" style="fill:#ebebeb;"></rect><rect x="585.55" y="343.67" width="36.27" height="11.4" style="fill:#ebebeb;"></rect><path d="M298.5,116.42c-6.04,.1-21.29,.35-27.13,.41l-9.15,.04h-.45v-.46l-.05-11.4v-.5h.5l18.14,.07c4.52,.04,13.62,.13,18.14,.2h.24v.24l-.24,11.4h0Zm0,0l-.24-11.4,.24,.24c-4.53,.06-13.61,.16-18.14,.2l-18.14,.07,.5-.5-.04,11.4-.46-.46,8.99,.04c5.75,.06,21.34,.32,27.28,.41h0Z" style="fill:#ebebeb;"></path><rect x="241.99" y="119.4" width="36.27" height="11.4" style="fill:#ebebeb;"></rect><path d="M318.73,130.8c-6.04,.1-21.29,.35-27.13,.41l-9.15,.04h-.45v-.46l-.04-11.4v-.5h.5l18.14,.07c4.52,.04,13.62,.13,18.14,.2h.24v.24l-.24,11.4h0Zm0,0l-.24-11.4,.24,.24c-4.53,.06-13.61,.16-18.14,.2l-18.14,.07,.5-.5-.04,11.4-.46-.46,8.99,.04c5.75,.06,21.34,.32,27.28,.41h0Z" style="fill:#ebebeb;"></path><rect x="403.07" y="277.51" width="36.27" height="11.4" style="fill:#ebebeb;"></rect><path d="M600.99,21.2c-6.04,.1-21.29,.35-27.13,.41l-9.15,.04h-.45v-.46l-.04-11.4v-.5h.5l18.14,.07c4.52,.04,13.62,.13,18.14,.2h.24v.24l-.24,11.4h0Zm0,0l-.24-11.4,.24,.24c-4.53,.06-13.61,.16-18.14,.2l-18.14,.07,.5-.5-.04,11.4-.46-.46,8.99,.04c5.75,.06,21.34,.32,27.28,.41h0Z" style="fill:#ebebeb;"></path><rect x="584.95" y="24.17" width="36.27" height="11.4" style="fill:#ebebeb;"></rect><path d="M39.05,21.21c-6.04,.1-21.29,.35-27.13,.41l-9.15,.04h-.45v-.46l-.05-11.4v-.5h.5l18.14,.07c4.52,.04,13.62,.13,18.14,.2h.24v.24l-.24,11.4h0Zm0,0l-.24-11.4,.24,.24c-4.53,.06-13.61,.16-18.14,.2l-18.14,.07,.5-.5-.04,11.4-.46-.46,8.99,.04c5.75,.06,21.34,.32,27.28,.41h0Z" style="fill:#ebebeb;"></path></g><g><rect x="78.47" y="26.47" width="83.96" height="54.82" style="fill:#dbdbdb;"></rect><rect x="78.47" y="84.5" width="83.96" height="54.82" style="fill:#ebebeb;"></rect><g><rect x="86.78" y="95.04" width="8.16" height="8.16" style="fill:#fff;"></rect><rect x="96.64" y="95.04" width="8.16" height="8.16" style="fill:#c7c7c7;"></rect><rect x="106.51" y="95.04" width="8.16" height="8.16" style="fill:#fff;"></rect><rect x="116.37" y="95.04" width="8.16" height="8.16" style="fill:#fff;"></rect><rect x="126.24" y="95.04" width="8.16" height="8.16" style="fill:#fff;"></rect><rect x="136.1" y="95.04" width="8.16" height="8.16" style="fill:#fff;"></rect><rect x="145.96" y="95.04" width="8.16" height="8.16" style="fill:#fff;"></rect><rect x="86.78" y="104.97" width="8.16" height="8.16" style="fill:#fff;"></rect><rect x="96.64" y="104.97" width="8.16" height="8.16" style="fill:#fff;"></rect><rect x="106.51" y="104.97" width="8.16" height="8.16" style="fill:#fff;"></rect><rect x="116.37" y="104.97" width="8.16" height="8.16" style="fill:#fff;"></rect><rect x="126.24" y="104.97" width="8.16" height="8.16" style="fill:#c7c7c7;"></rect><rect x="136.1" y="104.97" width="8.16" height="8.16" style="fill:#fff;"></rect><rect x="145.96" y="104.97" width="8.16" height="8.16" style="fill:#fff;"></rect><rect x="86.78" y="114.91" width="8.16" height="8.16" style="fill:#fff;"></rect><rect x="96.64" y="114.91" width="8.16" height="8.16" style="fill:#fff;"></rect><rect x="106.51" y="114.91" width="8.16" height="8.16" style="fill:#fff;"></rect><rect x="116.37" y="114.91" width="8.16" height="8.16" style="fill:#fff;"></rect><rect x="126.24" y="114.91" width="8.16" height="8.16" style="fill:#fff;"></rect><rect x="136.1" y="114.91" width="8.16" height="8.16" style="fill:#fff;"></rect><rect x="145.96" y="114.91" width="8.16" height="8.16" style="fill:#fff;"></rect><rect x="86.78" y="124.84" width="8.16" height="8.16" style="fill:#fff;"></rect><rect x="96.64" y="124.84" width="8.16" height="8.16" style="fill:#fff;"></rect><rect x="106.51" y="124.84" width="8.16" height="8.16" style="fill:#c7c7c7;"></rect><rect x="116.37" y="124.84" width="8.16" height="8.16" style="fill:#fff;"></rect><rect x="126.24" y="124.84" width="8.16" height="8.16" style="fill:#fff;"></rect><rect x="136.1" y="124.84" width="8.16" height="8.16" style="fill:#fff;"></rect><rect x="145.96" y="124.84" width="8.16" height="8.16" style="fill:#fff;"></rect></g><g><rect x="81.76" y="78.68" width="3.19" height="8.43" style="fill:#c7c7c7;"></rect><rect x="89.18" y="78.68" width="3.19" height="8.43" style="fill:#c7c7c7;"></rect><rect x="96.6" y="78.68" width="3.19" height="8.43" style="fill:#c7c7c7;"></rect><rect x="104.02" y="78.68" width="3.19" height="8.43" style="fill:#c7c7c7;"></rect><rect x="111.44" y="78.68" width="3.19" height="8.43" style="fill:#c7c7c7;"></rect><rect x="118.86" y="78.68" width="3.19" height="8.43" style="fill:#c7c7c7;"></rect><rect x="126.28" y="78.68" width="3.19" height="8.43" style="fill:#c7c7c7;"></rect><rect x="133.7" y="78.68" width="3.19" height="8.43" style="fill:#c7c7c7;"></rect><rect x="141.12" y="78.68" width="3.19" height="8.43" style="fill:#c7c7c7;"></rect><rect x="148.54" y="78.68" width="3.19" height="8.43" style="fill:#c7c7c7;"></rect><rect x="155.96" y="78.68" width="3.19" height="8.43" style="fill:#c7c7c7;"></rect></g><path d="M121.8,32.08c0,.74-.6,1.34-1.34,1.34s-1.34-.6-1.34-1.34,.6-1.34,1.34-1.34,1.34,.6,1.34,1.34Z" style="fill:#263238;"></path></g><g><path d="M57.34,219.39v205.95h125.11V219.39H57.34Zm11.36,76.71h102.39v53.88H68.7v-53.88Zm0-66.71h102.39v53.88H68.7v-53.88Z" style="fill:#dbdbdb;"></path><rect x=".76" y="219.39" width="56.57" height="205.95" transform="translate(58.1 644.73) rotate(180)" style="fill:#ebebeb;"></rect><rect x="146.76" y="229.39" width="24.33" height="53.87" transform="translate(317.85 512.65) rotate(180)" style="fill:#ebebeb;"></rect><g><rect x="68.7" y="360.98" width="101.75" height="51.37" transform="translate(239.15 773.33) rotate(180)" style="fill: none; stroke: #ebebeb; stroke-miterlimit: 10; stroke-width: .5px;"></rect><rect x="109.47" y="375.43" width="20.21" height="7.39" transform="translate(239.15 758.25) rotate(180)" style="fill:#ebebeb;"></rect></g><rect x="146.76" y="296.1" width="24.33" height="53.87" transform="translate(317.85 646.08) rotate(180)" style="fill:#ebebeb;"></rect><g><rect x="66.43" y="316.58" width="49.67" height="17.12" transform="translate(416.4 233.88) rotate(90)" style="fill:#a6a6a6;"></rect><rect x="85.91" y="328.08" width="10.72" height="17.12" transform="translate(427.9 245.38) rotate(90)" style="fill:#dbdbdb;"></rect><rect x="88.08" y="310.92" width="6.36" height="17.12" transform="translate(410.74 228.21) rotate(90)" style="fill:#dbdbdb;"></rect></g><g><rect x="97.97" y="241.7" width="43.26" height="41.57" transform="translate(239.21 524.96) rotate(180)" style="fill:#ebebeb;"></rect><rect x="81.53" y="241.7" width="16.44" height="41.57" transform="translate(179.51 524.96) rotate(180)" style="fill:#c7c7c7;"></rect><polygon points="141.24 262.48 97.97 262.48 131.76 263.55 141.24 262.48" style="fill:#c7c7c7;"></polygon><polygon points="97.97 278.25 141.24 278.25 107.45 279.32 97.97 278.25" style="fill:#c7c7c7;"></polygon><polygon points="141.24 250.86 113.83 250.86 138.19 251.74 141.24 250.86" style="fill:#c7c7c7;"></polygon><polygon points="97.97 272.13 125.38 272.13 101.02 273 97.97 272.13" style="fill:#c7c7c7;"></polygon><polygon points="130.86 246.24 99.95 246.24 105.1 246.76 130.86 246.24" style="fill:#c7c7c7;"></polygon><polygon points="137.03 266.94 106.12 266.94 111.27 267.46 137.03 266.94" style="fill:#c7c7c7;"></polygon><polygon points="118.02 254.82 97.97 254.82 94.39 256.22 118.02 254.82" style="fill:#ebebeb;"></polygon><polygon points="146.76 254.82 126.71 254.82 123.13 256.22 146.76 254.82" style="fill:#ebebeb;"></polygon><polygon points="121.03 273.5 141.08 273.5 144.66 274.9 121.03 273.5" style="fill:#ebebeb;"></polygon><polygon points="97.97 268.76 81.88 268.76 78.29 270.16 97.97 268.76" style="fill:#c7c7c7;"></polygon><polygon points="92.36 262.48 79.87 262.48 81.53 261.34 92.36 262.48" style="fill:#c7c7c7;"></polygon></g><g><rect x="68.7" y="296.98" width="14.01" height="52.99" style="fill:#ebebeb;"></rect><g><path d="M75.7,307.44c1.61,0,2.92-1.31,2.92-2.92s-1.31-2.92-2.92-2.92-2.92,1.31-2.92,2.92,1.31,2.92,2.92,2.92Z" style="fill:#fff;"></path><path d="M75.7,306.19c.92,0,1.67-.75,1.67-1.67s-.75-1.67-1.67-1.67-1.67,.75-1.67,1.67,.75,1.67,1.67,1.67Z" style="fill:#a6a6a6;"></path></g><rect x="69.25" y="328.18" width="12.89" height="14.01" transform="translate(410.88 259.48) rotate(90)" style="fill:#fff;"></rect></g><g><rect x="99.82" y="339.04" width="52.99" height="11.02" style="fill:#c7c7c7;"></rect><g><path d="M110.28,344.54c0-1.61-1.31-2.92-2.92-2.92s-2.92,1.31-2.92,2.92,1.31,2.92,2.92,2.92,2.92-1.31,2.92-2.92Z" style="fill:#fff;"></path><path d="M109.03,344.54c0-.92-.75-1.67-1.67-1.67s-1.67,.75-1.67,1.67,.75,1.67,1.67,1.67,1.67-.75,1.67-1.67Z" style="fill:#a6a6a6;"></path></g><rect x="131.57" y="339.04" width="12.89" height="11.02" style="fill:#fff;"></rect></g></g><g><rect x="430.6" y="14.98" width="126.83" height="141.5" style="fill:#dbdbdb;"></rect><rect x="438.96" y="23.33" width="110.12" height="124.87" style="fill:#ebebeb;"></rect><g><g><rect x="448.91" y="45.41" width="38.82" height="45.99" style="fill:#fff;"></rect><path d="M469.71,48.54c0,.77-.62,1.4-1.4,1.4s-1.4-.62-1.4-1.4,.62-1.4,1.4-1.4,1.4,.62,1.4,1.4Z" style="fill:#455a64;"></path><path d="M456.3,54.63c3.92-.3,7.85-.32,11.77-.36,3.92,.04,7.85,.06,11.77,.36-3.92,.3-7.85,.32-11.77,.36-3.92-.04-7.85-.06-11.77-.36Z" style="fill:#ebebeb;"></path><path d="M456.3,58.26c2.13-.28,4.27-.35,6.4-.37,2.13,.01,4.27,.08,6.4,.37-2.13,.29-4.27,.35-6.4,.36-2.13-.01-4.27-.08-6.4-.36Z" style="fill:#ebebeb;"></path><path d="M456.3,61.9c2.73-.28,5.45-.35,8.18-.37,2.73,.01,5.45,.08,8.18,.37-2.73,.29-5.45,.35-8.18,.36-2.73-.01-5.45-.08-8.18-.36Z" style="fill:#ebebeb;"></path><path d="M456.3,65.53c3.41-.28,6.82-.35,10.23-.37,3.41,.01,6.82,.08,10.23,.37-3.41,.29-6.82,.35-10.23,.36-3.41-.01-6.82-.08-10.23-.36Z" style="fill:#ebebeb;"></path><path d="M456.3,69.17c2.96-.28,5.93-.35,8.89-.37,2.96,.01,5.93,.08,8.89,.37-2.96,.29-5.93,.35-8.89,.36-2.96-.01-5.93-.08-8.89-.36Z" style="fill:#ebebeb;"></path><path d="M456.3,72.8c3.79-.3,7.59-.32,11.38-.36,3.79,.04,7.59,.06,11.38,.36-3.79,.3-7.59,.32-11.38,.36-3.79-.04-7.59-.06-11.38-.36Z" style="fill:#ebebeb;"></path><path d="M456.3,76.44c2.45-.28,4.9-.35,7.35-.37,2.45,.01,4.9,.08,7.35,.37-2.45,.29-4.9,.35-7.35,.36-2.45-.01-4.9-.08-7.35-.36Z" style="fill:#ebebeb;"></path><path d="M456.3,80.07c3.92-.3,7.85-.32,11.77-.36,3.92,.04,7.85,.06,11.77,.36-3.92,.3-7.85,.32-11.77,.36-3.92-.04-7.85-.06-11.77-.36Z" style="fill:#ebebeb;"></path><path d="M456.3,83.71c3.92-.3,7.85-.32,11.77-.36,3.92,.04,7.85,.06,11.77,.36-3.92,.3-7.85,.32-11.77,.36-3.92-.04-7.85-.06-11.77-.36Z" style="fill:#ebebeb;"></path></g><g><rect x="493.63" y="74.09" width="45.93" height="54.42" style="fill:#fff;"></rect><path d="M517.99,81.43c0,.77-.62,1.4-1.4,1.4s-1.4-.62-1.4-1.4,.62-1.4,1.4-1.4,1.4,.62,1.4,1.4Z" style="fill:#455a64;"></path><g><path d="M500.06,87.67c1.7-.28,3.4-.35,5.09-.37,1.7,.01,3.4,.08,5.09,.37-1.7,.29-3.4,.35-5.09,.37-1.7-.01-3.4-.08-5.09-.37Z" style="fill:#ebebeb;"></path><path d="M500.06,91.77c2.2-.28,4.4-.35,6.59-.37,2.2,.01,4.4,.08,6.59,.37-2.2,.29-4.4,.35-6.59,.37-2.2-.01-4.4-.08-6.59-.37Z" style="fill:#ebebeb;"></path><path d="M500.06,95.88c2.04-.28,4.07-.35,6.11-.37,2.04,.01,4.07,.08,6.11,.37-2.04,.29-4.07,.35-6.11,.37-2.04-.01-4.07-.08-6.11-.37Z" style="fill:#ebebeb;"></path><path d="M500.06,99.98c2.04-.28,4.07-.35,6.11-.37,2.04,.01,4.07,.08,6.11,.37-2.04,.29-4.07,.35-6.11,.37-2.04-.01-4.07-.08-6.11-.37Z" style="fill:#ebebeb;"></path><path d="M500.06,104.08c1.77-.28,3.54-.35,5.31-.37,1.77,.01,3.54,.08,5.31,.37-1.77,.29-3.54,.35-5.31,.37-1.77-.01-3.54-.08-5.31-.37Z" style="fill:#ebebeb;"></path><path d="M500.06,108.19c2.26-.28,4.53-.35,6.79-.37,2.26,.01,4.53,.08,6.79,.37-2.26,.29-4.53,.35-6.79,.37-2.26-.01-4.53-.08-6.79-.37Z" style="fill:#ebebeb;"></path><path d="M500.06,112.29c1.87-.28,3.74-.35,5.61-.37,1.87,.01,3.74,.08,5.61,.37-1.87,.29-3.74,.35-5.61,.37-1.87-.01-3.74-.08-5.61-.37Z" style="fill:#ebebeb;"></path><path d="M500.06,116.39c2.34-.28,4.69-.35,7.03-.36,2.34,.01,4.69,.08,7.03,.36-2.34,.29-4.69,.35-7.03,.37-2.34-.01-4.69-.08-7.03-.37Z" style="fill:#ebebeb;"></path><path d="M500.06,120.5c2.34-.28,4.69-.35,7.03-.37,2.34,.01,4.69,.08,7.03,.37-2.34,.29-4.69,.35-7.03,.36-2.34-.01-4.69-.08-7.03-.36Z" style="fill:#ebebeb;"></path></g><g><path d="M520.13,87.67c2.22-.28,4.45-.35,6.67-.37,2.22,.01,4.45,.08,6.67,.37-2.22,.29-4.45,.35-6.67,.37-2.22-.01-4.45-.08-6.67-.37Z" style="fill:#ebebeb;"></path><path d="M520.13,91.77c1.46-.28,2.92-.35,4.39-.37,1.46,.01,2.92,.08,4.39,.37-1.46,.29-2.92,.35-4.39,.37-1.46-.01-2.92-.08-4.39-.37Z" style="fill:#ebebeb;"></path><path d="M520.13,95.88c2.09-.28,4.19-.35,6.28-.37,2.09,.01,4.19,.08,6.28,.37-2.09,.29-4.19,.35-6.28,.37-2.09-.01-4.19-.08-6.28-.37Z" style="fill:#ebebeb;"></path><path d="M520.13,99.98c2.04-.28,4.07-.35,6.11-.37,2.04,.01,4.07,.08,6.11,.37-2.04,.29-4.07,.35-6.11,.37-2.04-.01-4.07-.08-6.11-.37Z" style="fill:#ebebeb;"></path><path d="M520.13,104.08c2.22-.28,4.45-.35,6.67-.37,2.22,.01,4.45,.08,6.67,.37-2.22,.29-4.45,.35-6.67,.37-2.22-.01-4.45-.08-6.67-.37Z" style="fill:#ebebeb;"></path><path d="M520.13,108.19c1.77-.28,3.54-.35,5.31-.37,1.77,.01,3.54,.08,5.31,.37-1.77,.29-3.54,.35-5.31,.37-1.77-.01-3.54-.08-5.31-.37Z" style="fill:#ebebeb;"></path><path d="M520.13,112.29c2.09-.28,4.19-.35,6.28-.37,2.09,.01,4.19,.08,6.28,.37-2.09,.29-4.19,.35-6.28,.37-2.09-.01-4.19-.08-6.28-.37Z" style="fill:#ebebeb;"></path><path d="M520.13,116.39c1.62-.28,3.24-.35,4.86-.36,1.62,.01,3.24,.08,4.86,.36-1.62,.29-3.24,.35-4.86,.37-1.62-.01-3.24-.08-4.86-.37Z" style="fill:#ebebeb;"></path><path d="M520.13,120.5c1.55-.28,3.11-.35,4.66-.37,1.55,.01,3.11,.08,4.66,.37-1.55,.29-3.11,.35-4.66,.36-1.55-.01-3.11-.08-4.66-.36Z" style="fill:#ebebeb;"></path></g></g><g><rect x="484.16" y="32.77" width="23.35" height="23.35" style="fill:#c7c7c7;"></rect><path d="M497.23,35.14c0,.77-.62,1.4-1.4,1.4s-1.4-.62-1.4-1.4,.62-1.4,1.4-1.4,1.4,.62,1.4,1.4Z" style="fill:#455a64;"></path></g></g><rect x="545.82" y="23.33" width="3.15" height="125" style="fill:#c7c7c7;"></rect></g><g><g><g><polygon points="553.23 338.07 550.72 340.61 550.63 339.68 550.63 339.67 552.24 338.07 553.23 338.07" style="fill:#dbdbdb;"></polygon><polygon points="562.77 338.07 554.21 346.69 551.45 349.43 551.4 348.86 551.4 348.84 551.38 348.52 553.7 346.18 561.85 338.07 562.77 338.07" style="fill:#dbdbdb;"></polygon><polygon points="572.33 338.07 559 351.49 552.21 358.24 552.2 358.1 552.14 357.36 558.49 350.96 571.46 338.07 572.33 338.07" style="fill:#dbdbdb;"></polygon><polygon points="581.88 338.07 563.8 356.28 552.96 367.04 552.88 366.21 563.27 355.76 581.06 338.07 581.88 338.07" style="fill:#dbdbdb;"></polygon><path d="M591.39,338.07c-1.29,1.33-2.59,2.65-3.89,3.97l-18.92,19.04-14.88,14.79-.06-.79,14.43-14.53,19.02-18.9c1.2-1.2,2.41-2.39,3.63-3.57h.67Z" style="fill:#dbdbdb;"></path><path d="M600.9,338.07c-2.87,2.93-5.74,5.84-8.62,8.75l-18.9,19.04-18.93,18.8-.06-.73,18.47-18.58,19.04-18.92c2.82-2.79,5.65-5.57,8.49-8.35h.53Z" style="fill:#dbdbdb;"></path><path d="M610.36,338.07c-4.4,4.54-8.84,9.04-13.29,13.55l-18.9,19.02-19.04,18.92c-1.3,1.3-2.62,2.59-3.94,3.88l-.06-.61c1.19-1.23,2.4-2.44,3.6-3.66l18.92-19.04,19.02-18.9c4.45-4.4,8.93-8.79,13.4-13.15h.28Z" style="fill:#dbdbdb;"></path><path d="M619.68,338.18v.06c-5.91,6.09-11.84,12.14-17.81,18.17l-18.92,19.04-19.02,18.9c-2.66,2.62-5.33,5.24-7.99,7.86l-.04-.48c2.53-2.59,5.08-5.18,7.64-7.77l18.9-19.04,19.04-18.9c6.03-5.97,12.1-11.91,18.2-17.84Z" style="fill:#dbdbdb;"></path><path d="M618.81,348.49v.03l-.03,.32h0c-4.04,4.14-8.08,8.27-12.13,12.36l-18.9,19.02-19.04,18.92c-3.99,3.95-8,7.9-12.04,11.82v-.04l-.03-.29c3.88-3.98,7.77-7.94,11.68-11.9l18.9-19.02,19.04-18.92c4.17-4.11,8.35-8.22,12.55-12.31Z" style="fill:#dbdbdb;"></path><path d="M617.94,358.82l-.06,.64c-2.14,2.18-4.27,4.35-6.42,6.53l-18.92,19.04-19.02,18.9c-5.18,5.12-10.39,10.23-15.61,15.3h-.18c5.09-5.27,10.23-10.49,15.38-15.7l18.92-19.04,19.02-18.9c2.3-2.27,4.59-4.52,6.89-6.77Z" style="fill:#dbdbdb;"></path><path d="M617.06,369.18l-.07,.83c-.25,.25-.5,.51-.75,.76l-18.9,19.04-19.04,18.9c-3.56,3.53-7.13,7.02-10.7,10.52h-.42c3.57-3.64,7.14-7.29,10.72-10.92l18.9-19.02,19.04-18.92c.41-.39,.8-.8,1.21-1.2Z" style="fill:#dbdbdb;"></path><path d="M616.16,379.61l-.07,.92-13.97,14.06-19.04,18.92c-1.93,1.92-3.86,3.82-5.81,5.72h-.61c2-2.05,4.01-4.08,6.03-6.12l18.92-19.04,14.56-14.47Z" style="fill:#dbdbdb;"></path><path d="M615.29,390.03l-.09,1.01-8.3,8.35-19.02,18.9c-.32,.31-.63,.63-.95,.94h-.76c.44-.44,.88-.89,1.32-1.33l18.9-19.04,8.9-8.84Z" style="fill:#dbdbdb;"></path><polygon points="614.39 400.46 614.31 401.56 611.7 404.18 596.54 419.24 595.71 419.24 611.18 403.67 614.39 400.46" style="fill:#dbdbdb;"></polygon><polygon points="613.52 410.93 613.52 410.97 613.43 412.02 606.17 419.24 605.26 419.24 613.52 410.93" style="fill:#dbdbdb;"></polygon></g><g><polygon points="619.56 339.67 619.47 340.62 616.95 338.07 617.95 338.07 619.56 339.67" style="fill:#dbdbdb;"></polygon><polygon points="618.81 348.52 618.73 349.43 615.97 346.69 607.4 338.07 608.34 338.07 616.49 346.18 618.81 348.52" style="fill:#dbdbdb;"></polygon><polygon points="618.05 357.36 617.99 358.1 617.98 358.25 611.18 351.49 597.85 338.07 598.72 338.07 611.7 350.96 618.05 357.36" style="fill:#dbdbdb;"></polygon><polygon points="617.31 366.23 617.23 367.06 606.39 356.28 588.31 338.07 589.11 338.07 606.9 355.76 617.31 366.23" style="fill:#dbdbdb;"></polygon><path d="M616.56,375.09l-.07,.78-14.88-14.79-18.92-19.04c-1.3-1.32-2.6-2.63-3.89-3.97h.66c1.21,1.19,2.43,2.37,3.63,3.57l19.04,18.9,14.44,14.54Z" style="fill:#dbdbdb;"></path><path d="M615.8,383.93l-.06,.73-18.93-18.8-18.9-19.04c-2.88-2.91-5.75-5.82-8.62-8.75h.53c2.82,2.78,5.66,5.56,8.49,8.35l19.04,18.92,18.47,18.58Z" style="fill:#dbdbdb;"></path><path d="M615.05,392.83l-.06,.63c-1.32-1.3-2.63-2.59-3.95-3.89l-19.02-18.92-18.92-19.02c-4.43-4.51-8.87-9.01-13.27-13.55h.28c4.48,4.36,8.95,8.75,13.4,13.15l19.02,18.9,18.92,19.04c1.2,1.21,2.4,2.43,3.6,3.66Z" style="fill:#dbdbdb;"></path><path d="M614.29,401.72l-.03,.48c-2.68-2.59-5.34-5.22-8-7.86l-19.04-18.9-18.9-19.04c-5.97-6.03-11.9-12.09-17.81-18.17v-.06c6.1,5.93,12.17,11.87,18.2,17.84l19.04,18.9,18.9,19.04c2.56,2.59,5.11,5.18,7.64,7.77Z" style="fill:#dbdbdb;"></path><path d="M613.55,410.63l-.03,.34c-4.04-3.92-8.05-7.87-12.04-11.82l-19.04-18.92-18.9-19.02c-4.05-4.1-8.11-8.22-12.13-12.35h0l-.03-.37c4.2,4.08,8.38,8.19,12.55,12.31l19.02,18.92,18.92,19.02c3.91,3.95,7.8,7.92,11.68,11.9Z" style="fill:#dbdbdb;"></path><path d="M612.46,419.24h-.18c-5.22-5.08-10.43-10.18-15.61-15.3l-19.02-18.9-18.92-19.04c-2.15-2.18-4.29-4.35-6.42-6.53l-.06-.64c2.3,2.25,4.59,4.51,6.88,6.77l19.04,18.9,18.9,19.04c5.15,5.21,10.3,10.43,15.39,15.7Z" style="fill:#dbdbdb;"></path><path d="M603.01,419.24h-.42c-3.58-3.5-7.14-6.99-10.7-10.52l-19.04-18.9-18.9-19.04c-.25-.25-.5-.51-.75-.76l-.07-.82c.41,.38,.8,.79,1.21,1.19l19.04,18.92,18.9,19.02c3.58,3.63,7.15,7.27,10.72,10.92Z" style="fill:#dbdbdb;"></path><path d="M593.51,419.24h-.6c-1.95-1.9-3.89-3.8-5.82-5.72l-19.02-18.92-13.97-14.05-.07-.94,14.56,14.47,18.92,19.04c2,2.03,4.02,4.07,6.01,6.12Z" style="fill:#dbdbdb;"></path><path d="M584.02,419.24h-.76c-.32-.31-.63-.63-.95-.94l-19.04-18.9-8.28-8.34-.09-1.02,8.9,8.84,18.9,19.04c.44,.44,.88,.89,1.32,1.33Z" style="fill:#dbdbdb;"></path><polygon points="574.48 419.24 573.65 419.24 558.49 404.18 555.88 401.56 555.88 401.55 555.78 400.48 559 403.67 574.48 419.24" style="fill:#dbdbdb;"></polygon><polygon points="564.92 419.24 564.02 419.24 556.76 412.02 556.67 410.93 564.92 419.24" style="fill:#dbdbdb;"></polygon></g><rect x="553.47" y="338.07" width="1.46" height="81.34" transform="translate(-32.12 51.91) rotate(-5.21)" style="fill:#dbdbdb;"></rect><rect x="575.5" y="378" width="81.34" height="1.46" transform="translate(182.49 957.55) rotate(-84.74)" style="fill:#dbdbdb;"></rect></g><rect x="546.23" y="329.21" width="77.61" height="13.14" style="fill:#dbdbdb;"></rect><rect x="554.23" y="412.2" width="61.6" height="13.14" style="fill:#dbdbdb;"></rect></g></g><g id="freepik--Plant--inject-148"><g><g><g><path d="M333.61,347.68s-21.16-4.8-32.76-15.48c-11.6-10.69-18.08-29.83-18.08-29.83,0,0,12.46,2.28,23.73,6.23,1.89,2.03,5.5,6.2,7.18,10.15,0,0,.36-4.17,.06-7.26,3.02,1.39,5.64,2.93,7.54,4.57,9.62,8.41,12.33,31.61,12.33,31.61Z" style="fill:#FFC727;"></path><g><path d="M295.99,311.68c-2.88-2-5.82-3.92-8.69-5.94-.17-.12-.01-.39,.17-.28,5.45,3.26,10.83,6.74,16.03,10.38,1.81,1.27,3.59,2.59,5.35,3.94-.12-.21-.24-.42-.37-.63-.63-1.06-1.3-2.11-1.97-3.15-1.35-2.09-2.81-4.15-4.49-6-.06-.07,.04-.17,.1-.1,1.65,1.9,3.29,3.78,4.8,5.8,.72,.96,1.38,1.95,2.01,2.97,.33,.53,.65,1.06,.95,1.6,.1,.18,.21,.36,.32,.55,2.74,2.15,5.4,4.39,7.94,6.76,1.57,1.46,3.08,2.98,4.54,4.54-.82-2.56-1.53-5.15-2.48-7.67-.03-.09,.11-.12,.14-.03,.92,2.64,1.93,5.3,2.64,8.02,1.62,1.75,3.17,3.57,4.63,5.45-.02-.11-.05-.23-.08-.34-.24-1-.49-1.99-.76-2.98-.52-1.91-1.08-3.82-1.72-5.69-1.32-3.85-3.04-7.61-5.68-10.74-.06-.07,.04-.17,.1-.1,4.13,4.89,6.56,10.76,8.1,16.92,.23,.9,.44,1.81,.65,2.71,.11,.48,.24,.97,.32,1.46,.64,.86,1.27,1.74,1.87,2.63,3.67,5.47,6.54,11.44,8.95,17.56,2.72,6.89,4.83,14,6.78,21.14,.04,.14-.17,.19-.22,.05-4.14-12.38-8.36-24.94-15.45-36.01-1.5-2.34-3.11-4.59-4.83-6.76-3.48-.2-6.99-.95-10.29-2.05-3.65-1.21-7.09-2.9-10.31-4.98-1.86-1.2-3.56-2.6-5.29-3.99-.08-.06,0-.18,.09-.11,2.86,2.42,6.3,4.32,9.7,5.87,3.41,1.56,7.01,2.78,10.67,3.58,1.56,.34,3.15,.59,4.73,.81-1.96-2.41-4.04-4.71-6.24-6.91-.71-.71-1.45-1.4-2.19-2.08-2.43-1.77-5.12-3.18-7.82-4.48-3.47-1.68-6.88-3.45-10.31-5.2-1.94-.98-3.86-1.99-5.81-2.95-.08-.04,0-.16,.08-.12,3.48,1.68,7.01,3.25,10.52,4.86,3.3,1.51,6.65,3.03,9.82,4.81,.14,.08,.26,.16,.4,.24-2.87-2.5-5.83-4.87-8.87-7.17-2.81-2.12-5.65-4.19-8.54-6.19Z" style="fill:#263238;"></path><path d="M297.19,322.59c1.72,.75,3.47,1.42,5.18,2.22,1.75,.82,3.41,1.78,5.07,2.76,.07,.04,0,.15-.07,.11-1.69-.81-3.4-1.56-5.07-2.4-1.71-.86-3.4-1.78-5.16-2.55-.08-.04-.04-.18,.04-.14Z" style="fill:#263238;"></path></g></g><g><path d="M402.35,241.05s-5.94,6.8-6.32,17.57c-.07,1.9,.23,4.54,.45,7.65-7.89,4.21-13.81,11.8-13.81,11.8,4.48-2.69,10.63-3.78,13.95-3.34-.11,2.05-.35,4.17-.81,6.32-1.47-.08-4.3,.11-8.97,1.77,0,0,4.59-.12,8.09,1.61-3.77,12-14.98,24.33-45.94,29.56,0,0-5.97-21.02,5.48-43.57,9.28-18.25,47.88-29.39,47.88-29.39Z" style="fill:#FFC727;"></path><g><path d="M338.27,365.35c.54-5.13,1.21-10.24,2-15.33,1.58-10.19,3.64-20.33,6.24-30.31,1.23-4.71,2.7-9.32,4.47-13.81-.12-.81-.1-1.66-.11-2.48-.02-.99-.03-1.98-.01-2.97,.02-1.98,.12-3.96,.28-5.94,.33-3.9,.93-7.81,1.9-11.61,.57-2.21,1.22-4.38,1.87-6.56,.03-.09,.16-.05,.14,.04-1.09,3.77-1.72,7.7-2.29,11.59-.56,3.85-.9,7.73-1.04,11.62-.04,1.06-.06,2.13-.06,3.19,0,.45,.02,.91,.04,1.37,1.52-3.68,3.24-7.29,5.22-10.8,3.12-5.55,6.71-10.82,10.6-15.85-.04-.57,.14-1.18,.25-1.73,.15-.69,.3-1.38,.45-2.07,.32-1.41,.67-2.82,1.06-4.22,.77-2.81,1.79-5.52,2.66-8.29,.03-.09,.16-.05,.14,.04-.82,2.74-1.36,5.58-1.99,8.37-.31,1.38-.61,2.76-.92,4.14-.15,.69-.3,1.38-.44,2.07-.01,.05-.02,.1-.03,.15,1.25-1.58,2.53-3.14,3.83-4.67,5.91-6.93,12.39-13.33,18.92-19.68,.8-.78,1.62-1.54,2.44-2.31,.07-.06,.16,.04,.1,.1-6.23,6.5-12.37,13.08-18.19,19.97-1.38,1.64-2.74,3.29-4.08,4.97,.7-.48,1.41-.94,2.11-1.4,1.8-1.18,3.63-2.33,5.5-3.38,1.88-1.05,3.77-2.08,5.7-3.04,1.99-.98,4.11-1.78,6.02-2.9,.08-.05,.15,.09,.07,.13-1.98,.81-3.82,2.04-5.65,3.13-1.88,1.12-3.77,2.24-5.62,3.42-1.82,1.15-3.65,2.29-5.46,3.47-1.51,.98-2.99,2.05-4.55,2.95-3.57,4.63-6.93,9.42-9.92,14.44-1.89,3.16-3.59,6.41-5.13,9.72,.37-.16,.74-.32,1.11-.48,.94-.42,1.89-.84,2.83-1.26,1.82-.81,3.65-1.6,5.48-2.39,3.47-1.51,7-2.9,10.4-4.55,1.91-.93,3.79-1.91,5.56-3.09,.08-.05,.14,.07,.07,.13-6.35,4.38-13.46,7.46-20.49,10.57l-3.05,1.35c-.84,.37-1.68,.78-2.54,1.11-2.07,4.64-3.82,9.42-5.24,14.35-2.82,9.83-4.97,19.88-6.74,29.95-1.78,10.11-2.97,20.29-3.91,30.51-.12,1.28-.23,2.55-.38,3.82-.06,.51-.81,.51-.81-.02,.06-5.19,.59-10.39,1.13-15.55Z" style="fill:#263238;"></path><path d="M357.1,279.85c.57-3.15,1.41-6.23,2.25-9.31,.02-.09,.16-.05,.14,.04-.78,3.02-1.34,6.11-1.91,9.18-.58,3.13-1.09,6.27-1.53,9.42,0,.05-.09,.05-.09,0,.2-3.13,.58-6.24,1.14-9.33Z" style="fill:#263238;"></path><path d="M370.45,288.39c2.1-1.49,4.45-2.61,6.73-3.79,1.13-.58,2.27-1.14,3.41-1.69,1.18-.57,2.4-1.05,3.57-1.63,.08-.04,.15,.08,.07,.13-1.13,.57-2.21,1.26-3.32,1.86-1.15,.63-2.29,1.26-3.44,1.88-2.26,1.22-4.49,2.56-6.87,3.55-.21,.09-.35-.17-.17-.3Z" style="fill:#263238;"></path></g></g><g><path d="M333.23,311.03s-19.58-4.68-28.57-17.81c-8.59-12.54-11.36-33.93-11.58-35.81,.35,1.72,4.39,20.41,17.72,29.12,10.2,6.67,20.07,12.15,22.43,24.5Z" style="fill:#263238; opacity: .1;"></path><path d="M315.15,277.2c3.44,3.32,6.03,7.22,7.22,11.89,.01,.04-.05,.06-.06,.02-1.47-4.35-3.9-8.63-7.25-11.8-.07-.06,.03-.17,.1-.11Z" style="fill:#263238;"></path><g><path d="M333.23,311.03s-19.58-4.68-28.57-17.81c-8.59-12.54-11.36-33.93-11.58-35.81-.02-.09-.02-.13-.02-.13,0,0,9.39,13.35,19.26,16.75,9.87,3.4,23.74,15.18,20.91,37Z" style="fill:#FFC727;"></path><path d="M296.52,264.64c1.82,3.56,3.72,7.1,6.05,10.35,2.27,3.17,5.01,5.87,8.05,8.29,2.66,2.11,5.47,4.03,8.16,6.1-.02-.03-.04-.07-.06-.1-.51-.75-1.05-1.48-1.6-2.19-1.12-1.43-2.35-2.78-3.58-4.12-2.43-2.64-4.92-5.23-7.1-8.09-1.21-1.58-2.27-3.27-3.14-5.06-.04-.08,.1-.13,.14-.05,3.18,6.62,9.52,10.85,14.04,16.44,.64,.8,1.25,1.62,1.81,2.47,.39,.61,.87,1.28,1.13,1.99,2.46,2.02,4.74,4.22,6.68,6.75-.16-1.29-.44-2.57-.79-3.8-.49-1.75-1.12-3.4-2.08-4.96-.05-.08,.07-.16,.12-.08,.92,1.55,1.75,3.21,2.28,4.93,.43,1.4,.64,2.79,.71,4.23h.01c.98,1.32,1.84,2.71,2.65,4.13-.08-.42-.16-.84-.24-1.25-.39-1.95-.82-3.9-1.32-5.82-1.03-3.9-2.41-7.68-4.71-11.03-.05-.08,.07-.16,.12-.08,2.27,3.3,3.98,6.99,5.22,10.79,.62,1.92,1.12,3.88,1.56,5.85,.21,.96,.41,1.93,.59,2.9,.1,.5,.2,1.01,.29,1.53,2,4.23,3.41,8.77,4.52,13.27,2,8.11,3.24,16.46,4.18,24.76,.98,8.71,1.49,17.52,1.35,26.29-.02,1.1-.08,2.2-.14,3.3-.02,.28-.44,.32-.45,.03-.19-4.34-.3-8.69-.56-13.03-.26-4.35-.63-8.68-1.1-13.01-.91-8.49-2.23-16.97-4.08-25.31-1.59-7.16-3.65-14.36-7.56-20.64-1.96-3.14-4.31-5.93-7.06-8.4-2.75-2.46-5.75-4.62-8.64-6.91-2.88-2.27-5.65-4.74-7.93-7.62-2.46-3.11-4.4-6.6-6.23-10.11-.46-.89-.94-1.77-1.4-2.65-.04-.08,.08-.16,.12-.08Z" style="fill:#263238;"></path><path d="M299.9,267.51c1.26,2.65,2.77,5.17,4.36,7.63,.04,.06-.05,.12-.09,.06-1.71-2.41-3.13-4.99-4.41-7.64-.04-.08,.1-.13,.14-.05Z" style="fill:#263238;"></path></g></g><g><path d="M405.08,302.37s.31,27.82-16.33,35.86c-16.64,8.04-25.56,1.34-36.86,4.03,0,0,.01,0,.02-.01,.44-.66,8.51-12.26,21.34-15.45,13.2-3.29,27.83-12.83,31.83-24.42Z" style="fill:#FFC727;"></path><path d="M405.08,302.37s.31,27.82-16.33,35.86c-16.64,8.04-25.56,1.34-36.86,4.03,0,0,.01,0,.02-.01,.47-.23,8.72-4.36,18.92-5.58,10.49-1.26,30.53-8.1,34.25-34.3Z" style="opacity: .1;"></path><g><path d="M350.79,342.76c1.98-1.79,4.21-3.33,6.62-4.48,.36-.17,.72-.31,1.09-.46,.18-.22,.36-.43,.56-.64,.5-.52,1.02-1.02,1.57-1.49,1.05-.9,2.16-1.72,3.35-2.41,2.76-1.62,5.78-2.75,8.59-4.26,.08-.04,.15,.08,.07,.13-1.39,.72-2.74,1.52-4.1,2.31-1.32,.77-2.67,1.5-3.95,2.33-1.15,.74-2.26,1.57-3.29,2.47-.29,.26-.57,.53-.85,.82,1.83-.63,3.72-1.11,5.62-1.49,3.05-.62,6.13-1.05,9.17-1.7,1.49-.32,2.97-.72,4.41-1.19,1.38-1.11,2.76-2.22,4.07-3.42,1.58-1.46,3.03-3.04,4.3-4.77,.05-.07,.18,0,.12,.08-2.05,2.65-4.25,5.32-6.82,7.53,.72-.27,1.43-.56,2.13-.88,5.65-2.57,10.68-6.65,14.18-11.79,.05-.08,.18,0,.12,.08-3.05,4.41-6.91,8.18-11.47,11.01-2.29,1.42-4.7,2.58-7.25,3.43-2.93,.98-5.97,1.56-9,2.13-2.97,.56-5.95,1.12-8.82,2.1-2.65,.9-5.15,2.21-7.39,3.89-4.28,3.21-7.59,7.6-9.97,12.36-3.15,6.32-4.65,13.38-5.49,20.34-.04,.3-.5,.3-.48-.01,.78-11.7,3.91-23.87,12.92-31.99Z" style="fill:#263238;"></path><path d="M370.1,333.68c.83-1.33,2.08-2.32,3.42-3.1,1.57-.91,2.98-1.89,4.07-3.37,.06-.07,.18,0,.12,.08-1,1.29-2.21,2.35-3.59,3.22-1.45,.91-2.92,1.8-3.91,3.24-.04,.06-.15,0-.1-.06Z" style="fill:#263238;"></path></g></g></g><g><g><polygon points="361.27 363.29 360.52 378.59 358.2 425.34 323.29 425.34 320.97 378.59 320.22 363.29 361.27 363.29" style="fill:#37474f;"></polygon><polygon points="361.27 363.29 360.73 374.21 320.83 375.66 320.22 363.29 361.27 363.29" style="fill:#263238;"></polygon></g><rect x="317.77" y="356.91" width="45.95" height="14.6" style="fill:#37474f;"></rect></g></g></g><g id="freepik--character-2--inject-148"><g><g><g><polygon points="500.59 269.08 497.25 289.1 474.64 425.27 471 425.27 487.44 289.1 489.87 269.08 500.59 269.08" style="fill:#455a64;"></polygon><polygon points="489.87 269.08 500.59 269.08 497.25 289.1 487.44 289.1 489.87 269.08" style="opacity: .1;"></polygon></g><g><polygon points="571.6 425.27 567.95 425.27 545.34 289.1 542 269.08 552.73 269.08 555.16 289.1 571.6 425.27" style="fill:#455a64;"></polygon><polygon points="552.73 269.08 555.16 289.1 545.34 289.1 542 269.08 552.73 269.08" style="opacity: .1;"></polygon></g><g><polygon points="615.11 425.27 611.46 425.27 588.85 289.1 585.51 269.08 596.24 269.08 598.67 289.1 615.11 425.27" style="fill:#455a64;"></polygon><polygon points="598.67 289.1 588.85 289.1 585.51 269.08 596.24 269.08 598.67 289.1" style="opacity: .1;"></polygon></g><polygon points="609.33 278.48 467.95 278.48 467.95 261.03 529.98 261.03 550.82 139.74 603.01 139.74 609.33 278.48" style="fill:#455a64;"></polygon><polygon points="609.33 278.48 600.3 278.48 594.41 139.74 603.01 139.74 609.33 278.48" style="opacity: .1;"></polygon></g><g><g><g><path d="M364.22,384.34c2.83,1.66,90.08,19.89,93.84,18.49,1.43-.53,4.83-13.08,8.5-28.36,.79-3.3,1.59-6.71,2.39-10.18,5.17-22.52,10.13-46.54,10.13-46.54l-58.32-12.37-8.53,46.88-1.88,10.29s-36.52,7.96-40.49,9.94c-3.95,1.99-8.48,10.19-5.64,11.85Z" style="fill:#eb9481;"></path><path d="M465.15,380.3c-3.11,12.53-5.84,22.07-7.09,22.53-3.76,1.41-91.01-16.84-93.84-18.5-2.83-1.66,1.7-9.85,5.64-11.85,2.45-1.22,17.29-4.72,28.3-7.22-9.62,2.3-27.56,8.82,9.55,11.5,30.68,2.23,50.93,3.24,57.44,3.53Z" style="fill:#263238;"></path></g><g><g><path d="M442.96,426.14c3.16,.88,92.17-3.72,95.45-6.04,1.25-.87-.85-20.4-1.78-23.84-3.16-11.64-19.52-62.91-19.52-62.91l-59.55,2.9,24.46,57.06s-33.29,17-36.62,19.93c-3.31,2.93-5.6,12.02-2.44,12.9Z" style="fill:#eb9481;"></path><path d="M538.41,420.1c-3.28,2.33-92.28,6.92-95.46,6.05-3.16-.89-.88-9.97,2.44-12.9,1.56-1.37,9.6-5.77,17.76-10.1-10.23,5.76-26.43,18.6,74.34-4.3,.92,10.19,1.6,20.78,.93,21.24Z" style="fill:#263238;"></path></g><g><path d="M581.04,252.92c-17.74,19.76-77.35,4.15-80.91,12.02-3.14,6.93,37.54,118.32,37.54,118.32l-65.09,7.02s-56.19-123.01-36.1-158.55c10.85-19.2,58.65-11.54,87.5-15.06,8.7-1.06,12.79-19,12.79-19h51.55s13.01,32.67-7.27,55.26Z" style="fill:#263238;"></path><path d="M454.57,220.71l54.66,41.83c18.15-.38,57.88,5.9,71.81-9.62,20.28-22.59,7.28-55.25,7.28-55.25h-51.55s-4.09,17.94-12.79,19c-20.25,2.46-49.81-.57-69.41,4.04Z" style="fill:#37474f;"></path><path d="M470.09,375.75c1.8-.56,18.67-2.44,22.4-2.85,7.45-.8,30.91-3,35.16-2.99,.11,0,.13,.18,.02,.2-3.69,.77-18.66,2.52-22.38,2.9-7.46,.77-33.09,3.25-35.16,3.05-.18-.02-.21-.26-.03-.32Z" style="fill:#37474f;"></path><path d="M492.24,258.41c4.19-2.08,35.91-1.05,58.67-3.18,7.42-.69,14.86-2.28,20.52-7.14,5.1-4.38,8.38-10.44,10.13-16.69,2.19-7.78,1.96-15.89,1.59-23.86-.09-1.96-.23-3.92-.35-5.88,0-.11,.2-.14,.21-.02,1.73,14.27,3.06,30.21-6.23,42.58-4.08,5.44-9.82,9.1-16.59,10.88-13.73,3.61-65.35,2.72-67.17,4.11-2.17,1.66,31.2,103.25,31.86,105.19,.12,.36-.51,.61-.67,.25-3.29-7.8-35.62-104.44-31.98-106.25Z" style="fill:#37474f;"></path><path d="M434.14,235.16c3.07-7.79,10.07-12.64,20.37-14.5,.17-.03,.16,.22,0,.27-8.99,2.63-15.41,6.24-18.94,13.83-1.65,3.54-2.5,8.52-2.93,15.19-2.13,33.26,26.89,108.77,27.48,110.09,.05,.12-.11,.21-.18,.1-4.09-6.89-38.46-92.81-25.79-124.97Z" style="fill:#37474f;"></path></g></g><g><path d="M410.61,349.27l49.29,10.48s-38.88-116.05-20.62-131.02c5.06-4.15,16.1-5.6,29.21,.06,19.58,8.46,42.25,25.7,63.62,32.01,20.01,5.91,43.77,.47,51.95-8.53,17.18-18.91,4.26-54.64,4.26-54.64l-60.23-.57s1.06,.86-2.32,3.86c0,0-52.31-6.84-70.41,4.22-32.65,19.95-44.73,144.12-44.73,144.12Z" style="fill:#263238;"></path><g><path d="M557.69,201.79c.05-.14,.24-.1,.25,.04,.1,2.68-.02,5.31,.61,7.95,.6,2.51,1.74,4.76,3.57,6.6,3.89,3.93,9.46,5.27,14.55,6.87,.27,.08,.22,.56-.08,.51-5.65-.87-11.6-2.3-15.73-6.54-1.9-1.95-3.17-4.44-3.66-7.11-.49-2.68-.41-5.73,.48-8.32Z" style="fill:#37474f;"></path><path d="M440.49,226.52c7.58-4.76,19.42-1.14,25.09,1.03,.12,.05,.06,.24-.06,.19-5.22-1.88-18.2-4.72-25.14,.2-16.04,11.36,5.43,89.06,19.5,131.82,.22,.67-.31,.49-.61-.15-2.32-5.07-20.46-59.1-25.2-94.85-.73-5.5-4.52-31.38,6.4-38.24Z" style="fill:#37474f;"></path><path d="M416.23,336.17c1.49-.04,14.26,2.78,17.08,3.41,5.63,1.27,18.67,4.65,21.72,5.81,.08,.03,.03,.2-.06,.19-2.92-.28-9.72-1.77-12.53-2.42-5.62-1.31-24.89-5.93-26.3-6.68-.12-.07-.06-.3,.09-.31Z" style="fill:#37474f;"></path><path d="M442.91,224.5c5.1-2.79,11.17-3.24,16.83-2.55,6,.74,11.71,2.87,17.2,5.38,11.53,5.27,22.51,11.71,34.06,16.96,11.48,5.21,23.73,9.29,36.38,9.68,10.81,.33,24.5-1.57,31.45-11.3,10.71-14.99,4.47-40.82,4.35-42.49,0-.13,.16-.12,.2,0,8.31,31.76-2.38,44.09-9.6,49.28-5.73,4.12-13.96,5.16-19.4,5.62-12.58,1.06-25.2-2.02-36.86-6.66-11.95-4.76-23.16-11.17-34.62-17.03-10.98-5.62-23.22-11.41-35.76-8.19-1.42,.36-2.82,.86-4.17,1.43-.07,.03-.11-.09-.05-.12Z" style="fill:#37474f;"></path></g></g></g><g><g><path d="M567.9,154.59l-4.56-.2c-.13-1.28-.42-2.51-.87-3.6-1.82-4.48-5.47-8.05-8.32-11.66,0-.02-.03,0-.02,.03,2.65,3.53,5.17,7.91,6.58,12.34,.3,.94,.46,1.88,.53,2.8l-2.84-.12c-.16-2.8-.84-5.49-2.25-7.93-.04-.07-.15,.02-.12,.1,1.14,2.45,1.4,5.09,1.34,7.79l-24.67-1.07c-.38-2.26-.61-4.58-.62-6.95,0-.27-.37-.23-.36,.03,0,2.33,.09,4.63,.35,6.9l-2.06-.1c-.26-3.88-.18-7.75,.56-11.94,.03-.13-.16-.17-.18-.04-.84,3.84-1.42,7.92-1.43,11.93l-17.08-.73c1.08-2.52,1.86-5.22,2.5-7.81,.06-.22-.25-.29-.31-.07-.77,2.87-1.91,5.38-3.18,7.82l-2.53-.1c2.01-4.43,3.53-9.05,3.94-13.87,.01-.2-.28-.22-.31-.02-.69,5.2-3.24,9.5-5.76,13.78l-6.43-.27c2.29-4.01,6.21-7.65,6.82-12.38,.66-5.31-4.04-7.85-5.41-12.32-2.3-7.49,1.46-13.04,6.15-18.16,4.31-4.73,3.93-10.15,5.05-16.18,.81-4.44,2.1-9.36,4.43-13.22,7.16-11.93,19.68-10.24,19.69-10.07,3.03,.08,5.77,.95,8.17,2.54,.01,0,.03,0,.04,.02,.17,.1,.32,.22,.49,.35,2.58,1.85,4.76,4.56,6.46,8.05l.02,.04c.49,.99,.93,2.05,1.34,3.17,.7,1.96,.82,4.67,1.39,7.79,0,.06,.01,.13,.03,.18,.84,4.39,2.63,9.5,8.31,14.11,6.77,5.46,4.83,14.25-.77,23.05-2.37,3.73-2.47,6.14-1.56,8.2t0,.03c.13,.28,.26,.52,.41,.79,1.32,2.27,3.72,4.25,5.36,7.36,1.52,2.86,1.85,6.21,1.7,9.58Z" style="fill:#263238;"></path><path d="M526.08,71.11c-5.18,2.74-9.17,7.34-11.09,13.35-1.47,4.59-1.63,9.58-3.57,14.02-1.83,4.19-5.05,7.35-7.63,10.97-3.42,4.78-5.6,10.65-2.78,16.13,1.75,3.4,5.63,6.78,5.43,11.1-.24,5.05-4.62,9.91-6.97,14.08-.11,.2,.17,.42,.3,.23,3.2-4.71,8.79-10.9,6.9-17.09-.87-2.84-2.75-5-4.24-7.41-2.9-4.69-2.29-9.71,.56-14.51,3.86-6.51,8.98-10.69,10.69-18.52,.98-4.48,1.4-9.08,3.66-13.14,2.14-3.85,5.22-6.87,8.87-8.89,.15-.09,.03-.38-.13-.29Z" style="fill:#263238;"></path><path d="M564.2,143.78c-1.86-2.65-4.16-4.59-3.15-8.61,.7-2.79,2.59-5.18,3.89-7.66,3.24-6.18,5.09-13.95,1.92-20.29-1.79-3.57-4.84-4.44-7.42-7.05-3.12-3.16-4.27-8.05-5.28-12.55-1.51-6.75-3.42-14.43-10.24-15.96-.06-.01-.08,.09-.02,.11,8.69,2.52,8.64,13.93,11.14,21.82,.85,2.68,2.06,5.26,3.94,7.16,2.98,3.02,6.59,4.02,8.13,8.71,1.44,4.39,.82,9.27-.78,13.68-1.39,3.83-3.96,7.03-5.28,10.84-.79,2.28-.98,4.64,.12,6.71,.87,1.62,2.34,2.7,3.26,4.27,1.24,2.11,1.72,4.57,1.65,7.14,0,.26,.35,.22,.36-.04,.12-3.12-.55-5.9-2.24-8.29Z" style="fill:#263238;"></path></g><g><g><path d="M544.08,128.11c-2.94,12.21-21.75,64.93-49.13,69.55-9.29,1.57-25.14-31.21-15.8-71.54,.28-1.19,27.47-.89,28.79,5.76,.14,.71-.48,19.19-1.25,18.89-.95-.38,11.69-13.95,27.65-27,7.55-6.17,11.49-2.94,9.74,4.35Z" style="fill:#eb9481;"></path><path d="M544.08,128.11c-2.94,12.21-21.75,64.93-49.13,69.55-9.29,1.57-24.98-28.72-18.65-64.53l32.87,4.66c.14,.71-.96,10.42-.96,10.42,0,0,10.17-11.39,26.13-24.44,7.55-6.17,11.49-2.94,9.74,4.35Z" style="fill:#FFC727;"></path><path d="M508.17,148.3c-.59,9.45-1.38,18.89-2.41,28.3-.29,2.62-.55,5.25-.83,7.87,0,.09,.14,.1,.16,.02,1.02-4.63,1.76-9.31,2.29-14.02,.52-4.66,.95-9.39,1.01-14.08,.04-2.7,.03-5.4-.04-8.09,0-.12-.17-.11-.18,0Z" style="fill:#263238;"></path><g><path d="M478.27,131.33s1.22-12.96,6.39-21.32c3.57-5.78,8.35-14.83,28.63-14.41,4.81,.1,14.14,5.56,12.08,8.94-1.96,3.22-10.02-2.87-16.75-1.75,0,0,8,5.17,7.72,9.98-.13,2.15-.62,8.02-1.65,12.53,0,0-1.04,.04-2.37-.1,0,0-.41,4.5-5.74,8.85l-28.31-2.73Z" style="fill:#eb9481;"></path><path d="M488.95,105.04c3.4-1.05,10.65-3.16,17.18-2.82,7.25,.38,21.12,3.06,20.79,8.41-.24,3.92-5.63,3.37-5.63,3.37,0,0,5.5,2.32,4.5,5.81-.91,3.19-5.05,2.5-5.05,2.5,0,0,3.09,1.98,1.63,4.88-1.76,3.49-9.95-2.06-14.79-.07-1.09,.45-18.63-22.08-18.63-22.08Z" style="fill:#eb9481;"></path><path d="M504.45,109.82c3.36-.46,11.27,.44,16.77,4.04,.12,.08,.13,.22,0,.17-6.9-2.68-13.81-3.83-16.77-4.14-.04,0-.03-.06,0-.07Z" style="fill:#263238;"></path><path d="M505.58,101.66c3.36-.46,11.27,.44,16.77,4.04,.12,.08,.13,.22,0,.17-6.9-2.68-13.81-3.83-16.77-4.14-.04,0-.03-.06,0-.07Z" style="fill:#263238;"></path><path d="M504.28,117.15c2.94-.1,11.05,1.2,16.5,5.04,.12,.09,.12,.22,0,.17-7.09-3.09-13.56-4.65-16.5-5.14-.04,0-.03-.07,0-.07Z" style="fill:#263238;"></path><path d="M512.24,126.75c-.5-.37-4.64-1.23-8.47,.04-.09,.03-.07,.17,.03,.17,2.39-.13,4.37-.14,4.41-.14-1.89,4.26-6.55,7.12-8.6,8.14-.13,.06-.03,.26,.1,.22,4-1.09,7.89-4.2,8.81-8.35,.54,.03,3.36,.14,3.69,.03,.05-.02,.07-.09,.03-.12Z" style="fill:#263238;"></path></g></g><path d="M544.08,128.11c-2.94,12.21-21.75,64.93-49.13,69.55-1.49,.25-3.15-.32-4.86-1.61l52.5-75.21c1.79,.89,2.38,3.55,1.49,7.27Z" style="opacity: .1;"></path></g><g><path d="M520.26,202.24l2.1-25.52s-7.59-8.19-3.42-18.43c2.11-5.19,12.04-27.19,20.01-36.12,6.69-7.5,16.83-2.6,20.86,2.36,11.57,14.24,17.67,31.83,30.98,74.8l-70.53,2.92Z" style="fill:#FFC727;"></path><g><path d="M541.06,172.13c-2.87,.25-5.77,.65-8.62,1.54-1.42,.44-2.82,.98-4.22,1.57-.7,.29-1.4,.55-2.1,.8-.72,.26-1.49,.49-2.23,.48-.07,0-.08,.15-.01,.16,.71,.08,1.39,.15,2.1,.08,.68-.06,1.37-.24,2.04-.44,1.44-.43,2.87-.96,4.31-1.41,2.9-.91,5.8-1.82,8.73-2.42,.13-.03,.13-.37,0-.36Z" style="fill:#263238;"></path><path d="M547.8,176.45c-2.31-.52-4.67-.88-7.02-1-1.18-.06-2.36-.01-3.55,.08-.57,.04-1.13,.1-1.7,.18-.62,.08-1.25,.28-1.87,.35-.06,0-.08,.16-.01,.16,.59-.03,1.18,.08,1.76,.1,.59,.02,1.18,.03,1.77,.05,1.18,.04,2.36,.09,3.54,.11,2.36,.04,4.72,.11,7.07,.28,.13,0,.14-.27,.02-.3Z" style="fill:#263238;"></path></g></g><g><path d="M562.69,131.15c12.59,26.77,21.7,76.2,14.12,83.05-8.44,7.63-25.91-29.83-25.23-31.42,.51-1.2,.67-28.93-.1-49.95-.77-21,8.1-8.3,11.22-1.68Z" style="fill:#dd6a57;"></path><g><path d="M551.38,182.75c.12-3.01-.33-40.04-.33-51.94,0-10.68,3.13-13.96,8.95-5.29,10.71,15.96,23.22,58.41,22.5,77.48-.7,18.36-11.15,14.76-19.7,3.17-7-9.49-11.41-23.42-11.41-23.42Z" style="fill:#FFC727;"></path><g><path d="M551.52,187.66c-1.03-14.18-1.37-28.48-1.04-42.7,1.03,14.18,1.37,28.49,1.04,42.7h0Z" style="fill:#263238;"></path><path d="M550.54,153.23c-.79-1.72-1.3-3.57-1.3-5.46,.68,1.77,1.17,3.56,1.3,5.46h0Z" style="fill:#263238;"></path></g></g></g><g><g><path d="M574.68,213.85c-7.38,3.48-19.06-1.73-49.7-12.09-4.24-1.43-2.17-34.08,2.43-32.78,5.8,1.64,27.97,9.24,29.52,10,13.08,6.42,22.76,32.51,17.75,34.87Z" style="fill:#eb9481;"></path><g><path d="M532.46,170.41s-10.31-5.1-16.98-7.15c-8.93-2.75-17.77-1.44-21.45-.68-7.67,1.61-25.09,10.79-23.32,16.27,1.6,4.96,18.94-5.33,18.94-5.33,0,0-19.41,7.57-16.38,13.19,3.03,5.62,22.47-7.47,22.47-7.47,0,0-19.77,8.23-15.73,13.53,3.05,4.01,21.33-6.86,21.33-6.86,0,0-16.94,7.19-13.98,11.45,3.27,4.7,20.77-4.27,20.77-4.27,9.35,9.55,17.66,11.19,23.67,11l6.29,2.17-3.43-35-2.21-.85Z" style="fill:#eb9481;"></path><g><path d="M496.2,170.48c-2.31,.81-4.66,1.61-6.89,2.62-2.23,1.01-4.43,2.1-6.56,3.31-5.22,2.98-8.02,5.66-7.83,5.51,4.52-3.47,12.46-7.21,14.69-8.22,2.23-1.01,4.4-2.13,6.63-3.14,.06-.03,.01-.1-.04-.08Z" style="fill:#263238;"></path><path d="M500,178.47c-2.91,1.16-5.84,2.2-8.69,3.49-2.84,1.28-5.43,2.75-8.18,4.22-.21,.11-.08,.19,.14,.08,2.8-1.36,5.5-2.41,8.32-3.74,2.81-1.32,5.59-2.77,8.44-3.99,.04-.02,.01-.08-.03-.07Z" style="fill:#263238;"></path><path d="M504.49,184.75c-4.53,1.54-8.78,3.92-12.88,6.35-.2,.12-.02,.2,.19,.09,4.24-2.19,7.56-3.94,12.75-6.28,.08-.04,.04-.19-.05-.16Z" style="fill:#263238;"></path></g></g></g><g><path d="M534.77,166.38l5.3,47.14s32.04,6.02,38.17,1.43c4.38-3.28-6.18-28.87-20.3-36.69l-23.16-11.88Z" style="fill:#FFC727;"></path><path d="M571.31,193.39c-.94-3.04-5.28-10.52-13.37-15.16-.07-.04-.15,.06-.08,.11,5.69,4.04,12.19,12.25,13.34,15.1,.03,.07,.14,.02,.12-.05Z" style="fill:#263238;"></path><path d="M548.98,209.08c-.24-4.58-.73-9.14-1.22-13.7-.5-4.56-.99-9.13-1.6-13.68-.35-2.57-.68-5.14-1.11-7.7-.01-.07-.13-.06-.12,0,.24,4.57,.71,9.14,1.17,13.69,.47,4.57,.98,9.13,1.54,13.69,.32,2.57,.68,5.14,1.11,7.7,.02,.13,.24,.12,.23-.01Z" style="fill:#263238;"></path><path d="M534.47,165.7c1.69,.57,20.14,9.79,25.3,13.69,.06,.04-.44,.1-.5,.05-2.36-1.99-22.66-11.76-24.19-12.75-.01,.14,.33,4.54,.3,4.68-.02,.09-.16,.13-.2,.02-.09-.26-.93-5.78-.71-5.71Z" style="fill:#263238;"></path><path d="M540.07,213.52c10.23,1.8,20.64,3.53,31.05,2.87,8.53-.62,9.95-3.65,10.64-11.68,.73-16.62-3.14-33.27-7.63-49.2,2.78,7.89,4.89,16.01,6.47,24.24,1.33,7.72,5.89,32.75-3.17,36.2-4.03,1.55-8.35,1.5-12.57,1.36-8.39-.44-16.67-1.87-24.8-3.78h0Z" style="fill:#263238;"></path></g></g><g><g><path d="M552.11,120.85c.07,1.43-9.41,11.99-15.6,13.45-2.02,.47,.49-10.48,.49-10.48l-.41-.75-5.74-10.54,10.81-12.27,1.59-1.67s1.38,2.99,3.06,6.73c.08,.17,.16,.35,.24,.53,.1,.21,.2,.41,.28,.6,.26,.56,.52,1.12,.77,1.69,.19,.43,.38,.86,.56,1.32,.2,.46,.38,.91,.57,1.37,1.84,4.57,3.34,9.43,3.38,10.03Z" style="fill:#eb9481;"></path><path d="M546.31,105.31c-.66,9.89-6.78,15.59-9.72,17.76l-5.74-10.54,10.81-12.27,1.59-1.67s1.38,2.99,3.06,6.73Z" style="fill:#263238;"></path></g><g><path d="M510.12,96.35c.58,21.06,13.26,23.09,17.8,22.96,4.12-.12,18.15-1.04,19.75-22.05,1.6-21.01-8.37-27.4-17.82-27.63-9.44-.23-20.31,5.65-19.73,26.71Z" style="fill:#eb9481;"></path><g><path d="M512.23,92.89c.49-.08,.93-.24,1.41-.37,.54-.15,.98-.21,1.36-.65,.2-.24,.16-.69-.05-.91-.49-.51-1.2-.49-1.85-.34-.71,.16-1.22,.47-1.66,1.05-.43,.56,.14,1.34,.79,1.23Z" style="fill:#263238;"></path><path d="M526.7,92.74c-.5-.03-.95-.15-1.44-.23-.55-.09-1-.11-1.42-.51-.23-.22-.23-.67-.04-.91,.44-.56,1.14-.61,1.81-.52,.72,.09,1.26,.35,1.76,.88,.49,.51-.01,1.35-.67,1.3Z" style="fill:#263238;"></path><g><g><path d="M523.62,97.27c0-.06,.11,.06,.11,.12,0,1.43,.22,3.08,1.53,3.52,.04,.01,.04,.09-.01,.08-1.59-.18-1.88-2.37-1.64-3.73Z" style="fill:#263238;"></path><path d="M524.86,95.74c2.3-.24,2.6,4.39,.47,4.6-2.1,.21-2.4-4.41-.47-4.6Z" style="fill:#263238;"></path></g><path d="M525.78,95.93c.42,.24,.85,.67,1.34,.69,.57,.02,.96-.49,1.3-.98,.04-.05,.08-.01,.08,.05,.07,.88-.21,1.82-1.15,2.01-.86,.18-1.53-.57-1.81-1.44-.05-.16,.08-.42,.24-.32Z" style="fill:#263238;"></path></g><g><g><path d="M515.64,97.49c-.01-.05-.11,.08-.1,.13,.15,1.43,.08,3.09-1.18,3.66-.04,.02-.03,.09,.02,.08,1.56-.34,1.63-2.54,1.26-3.87Z" style="fill:#263238;"></path><path d="M514.25,96.09c-2.31,0-2.16,4.62-.01,4.63,2.11,0,1.95-4.62,.01-4.63Z" style="fill:#263238;"></path></g><path d="M513.3,96.43c-.36,.26-.7,.72-1.14,.76-.51,.05-.9-.44-1.24-.91-.04-.05-.07,0-.07,.05,0,.89,.33,1.8,1.18,1.94,.78,.13,1.32-.65,1.51-1.54,.03-.16-.1-.41-.24-.31Z" style="fill:#263238;"></path></g><path d="M525.71,108.33c-.25,.41-.47,.94-.96,1.11-.47,.16-1.1,.09-1.58,.03-.05,0-.08,.05-.04,.09,.5,.44,1.34,.58,1.96,.3,.6-.27,.77-.89,.78-1.51,0-.09-.11-.09-.15-.03Z" style="fill:#263238;"></path><path d="M518.83,104.39s.12,2.16,.31,3.15c.02,.09,.27,.09,.61,.04,.02,0,.03,0,.04,0,1.81-.07,3.45-1.02,4.24-2.66,.05-.11-.1-.19-.17-.11-1.12,1.22-2.52,1.75-4.06,2.08-.12-.26-.08-3.71-.24-3.69-.55,.06-1.55,.64-2.15,.95-.38-4.49-.04-9.01-.49-13.47-.02-.16-.25-.16-.27-.01-.69,4.71-.37,9.89-.09,14.53,.03,.58,1.93-.56,2.29-.81Z" style="fill:#263238;"></path></g><g><path d="M547.39,99.99c-4.9-1.57-5.74-6.38-5.74-6.38-6.06-1.7-9.75-5.76-10.13-6.18,.2,.41,1.61,3.39,2.39,4.89-13.59-.74-19.02-10.35-19.02-10.35-3.74,4.85-4.24,7.71-4.68,9.16,0,0-1.16-8.12,2.31-14.12,4.25-7.34,11.4-6.99,11.4-6.99,0,0,9.9-4.42,19.04,3.24,9.84,8.26,4.43,26.73,4.43,26.73Z" style="fill:#263238;"></path><path d="M523.54,91.44c2.27,.91,4.72,1.41,7.13,1.61,.02,0,.02-.03,0-.03-3.88-.57-7.49-2.09-10.5-4.61-1.28-1.07-2.41-2.28-3.39-3.62-1.02-1.41-2.05-3.11-2.42-4.83-.03-.13-.23-.09-.2,.04,.39,1.81,.77,3.48,1.74,5.09,.91,1.53,2.12,2.91,3.52,4,1.25,.98,2.65,1.75,4.13,2.35" style="fill:#263238;"></path></g><g><g><path d="M545.61,105.38c-.33,.17-.64,.29-.94,.36-.35,.11-.68,.14-.98,.14-.48,0-.9-.09-1.25-.25-.33-.13-.62-.32-.86-.52-.62-.51-.93-1.08-.93-1.08l.52-5.72s3.83-7.06,6.97-5.76c3.16,1.29,.81,11.15-2.52,12.85Z" style="fill:#eb9481;"></path><path d="M547.39,95.34c.06-.01,.08,.07,.03,.09-2.33,1.27-3.35,3.68-3.98,6.13,.62-.99,1.55-1.59,2.86-.87,.07,.04,.02,.14-.05,.14-1.02-.1-1.73,.16-2.31,1.03-.41,.62-.66,1.38-.93,2.07-.09,.23-.5,.16-.44-.1,0-.02,0-.04,.01-.06-.42-3.1,1.5-7.74,4.81-8.43Z" style="fill:#263238;"></path></g><path d="M545.22,104.53c-.05,.54-.52,.94-1.06,.89-.54-.05-.94-.52-.89-1.06,.05-.54,.52-.93,1.06-.89,.54,.05,.94,.52,.89,1.06Z" style="fill:#fff;"></path><path d="M547.04,102.84c-.03,.38-.37,.66-.75,.63-.38-.03-.66-.37-.63-.75,.03-.38,.37-.66,.75-.63,.38,.03,.66,.37,.63,.75Z" style="fill:#fff;"></path></g><path d="M510.09,95.05c.23,8.85,3.3,19.15,12.05,22.96,1.18,.59,2.45,.93,3.72,1.3-11.59-1.3-16.78-13.82-15.77-24.26h0Z" style="fill:#263238;"></path></g></g></g></g></g></g><g id="freepik--character-1--inject-148"><g><g><g><polygon points="124.01 269.08 127.35 289.1 149.96 425.27 153.61 425.27 137.16 289.1 134.73 269.08 124.01 269.08" style="fill:#455a64;"></polygon><polygon points="134.73 269.08 124.01 269.08 127.35 289.1 137.16 289.1 134.73 269.08" style="opacity: .1;"></polygon></g><g><polygon points="53 425.27 56.65 425.27 79.26 289.1 82.6 269.08 71.88 269.08 69.45 289.1 53 425.27" style="fill:#455a64;"></polygon><polygon points="71.88 269.08 69.45 289.1 79.26 289.1 82.6 269.08 71.88 269.08" style="opacity: .1;"></polygon></g><g><polygon points="9.49 425.27 13.14 425.27 35.75 289.1 39.09 269.08 28.37 269.08 25.94 289.1 9.49 425.27" style="fill:#455a64;"></polygon><polygon points="25.94 289.1 35.75 289.1 39.09 269.08 28.37 269.08 25.94 289.1" style="opacity: .1;"></polygon></g><polygon points="15.28 278.48 156.65 278.48 156.65 261.03 94.63 261.03 73.78 139.74 21.59 139.74 15.28 278.48" style="fill:#455a64;"></polygon><polygon points="15.28 278.48 24.31 278.48 30.19 139.74 21.59 139.74 15.28 278.48" style="opacity: .1;"></polygon></g><g><g><g><g><path d="M178.43,424.13c-3.16,.4-89.96-17.57-92.76-20.29-.34-.3,1.12-8.18,3.29-18.94l.04-.21c1.35-6.82,24.83-62.34,24.83-62.34l56.33,13.92-23.87,51.58s10.74,7.28,19.97,14.22c0,.01,.02,.02,.02,.03,5.7,4.26,10.62,8.09,11.67,9.35,2.74,3.28,3.62,12.32,.47,12.69Z" style="fill:#ad6359;"></path><path d="M178.43,424.12c-3.15,.4-89.95-17.57-92.76-20.28-.34-.31,1.13-8.18,3.3-18.95l.04-.2c.5-2.54,4.09-11.86,8.38-22.55,9.27,2.2,42.49,10.12,54.57,13.47l-5.65,12.22s10.74,7.28,19.97,14.22c0,.01,.01,.01,.01,.02,5.7,4.26,10.62,8.1,11.67,9.35,2.74,3.29,3.63,12.33,.47,12.69Z" style="fill:#ebebeb;"></path><g><path d="M178.73,424.53c-3.25,.38-90.11-17.82-92.99-20.61-1.1-1.05,.41-14.72,4.7-29.28l55.99,11.8s29.06,21.63,31.88,25.03c2.81,3.39,3.66,12.68,.42,13.06Z" style="fill:#FFC727;"></path><g><path d="M178.21,420.79c-14.49-3.41-73.24-15.79-87.82-18.06-.12-.02-.14,.06-.02,.09,14.28,3.69,73.13,15.6,87.79,18.21,.31,.06,.36-.17,.05-.24Z" style="fill:#263238;"></path><path d="M150.69,388.86c-5.81-1.3-13-.66-17.62,3.35-.18,.16,.04,.41,.24,.35,5.84-1.61,11.27-2.59,17.33-2.96,.43-.03,.47-.65,.05-.74Z" style="fill:#263238;"></path><path d="M154.82,391.55c-5.81-1.3-13-.66-17.62,3.35-.18,.16,.04,.41,.24,.35,5.84-1.61,11.27-2.59,17.33-2.96,.43-.03,.47-.65,.05-.74Z" style="fill:#263238;"></path><path d="M158.95,394.25c-5.81-1.3-13-.66-17.62,3.35-.18,.16,.04,.41,.24,.35,5.84-1.61,11.27-2.59,17.33-2.96,.43-.03,.47-.65,.05-.74Z" style="fill:#263238;"></path><path d="M163.09,396.95c-5.81-1.3-13-.66-17.62,3.35-.18,.16,.04,.41,.24,.35,5.84-1.61,11.27-2.59,17.33-2.96,.43-.03,.47-.65,.05-.74Z" style="fill:#263238;"></path></g><path d="M178.73,424.53c-1.01,.11-10.14-1.56-22.33-4.03l7.84-20.57c6.62,5.11,12.84,10.06,14.08,11.55,2.8,3.38,3.66,12.67,.41,13.06Z" style="opacity: .1;"></path></g></g><g><path d="M148.54,389.22l-59.79-14.12s50.2-110.52,45.82-116.34c-2.19-2.91-57.86-3.77-75.57-18.79-23-19.51-7.57-49.33-7.57-49.33l62.17-1.85s-.75,13,1.68,14.96c1.6,1.31,75.68,7.54,83.81,32.54,9.98,30.65-50.55,152.92-50.55,152.92Z" style="fill:#263238;"></path><path d="M145.2,253.61c-1.25-1.07-3.13-1.2-4.69-1.46-8.97-1.5-17.95-3.02-26.92-4.52-8.4-1.41-16.84-2.66-25.2-4.28-6.92-1.34-13.96-3.14-19.95-6.9-5.99-3.76-10.14-9.41-12.23-16.01-2.09-6.6-2.24-13.69-1.58-20.52,.16-1.67,.47-3.34,.78-4.99,.02-.13-.18-.17-.2-.04-2.28,12.75-2.48,27.55,7.07,37.71,4.65,4.95,11.05,7.86,17.57,9.75,7.36,2.13,15.06,3.13,22.61,4.4,8.97,1.5,17.95,3.01,26.93,4.5,4.32,.72,8.7,1.28,12.99,2.18,.82,.17,1.75,.41,2.34,1.03,.81,.86,.59,2.08,.38,3.11-.43,2.12-1,4.21-1.61,6.28-4.9,16.74-40.13,95.26-41.1,97.1-.1,.19,.2,.34,.31,.15,8.23-14.68,34.36-75.02,39.79-90.86,1.39-4.04,2.67-8.14,3.53-12.32,.31-1.51,.49-3.21-.82-4.33Z" style="fill:#37474f;"></path><path d="M151.3,374.72c-1.63-.76-17.33-4.5-20.79-5.31-6.93-1.63-28.8-6.4-32.81-6.86-.11-.01-.14,.16-.04,.2,3.39,1.18,17.31,4.57,20.77,5.37,6.95,1.59,30.83,6.9,32.81,6.93,.17,0,.23-.24,.07-.31Z" style="fill:#37474f;"></path></g></g><g><g><path d="M266.15,425.47c-3.01,1.02-91.65,.69-94.94-1.41-.39-.23-.53-8.24-.55-19.22v-.22c-.03-6.95-2.17-66.35-2.17-66.35l55.48-.46,3.46,58.49s11.97,4.99,22.4,9.96c.01,.01,.03,.01,.03,.03,6.43,3.04,12.02,5.82,13.3,6.84,3.34,2.67,6,11.35,2.99,12.34Z" style="fill:#ad6359;"></path><path d="M266.15,425.46c-3.02,1.01-91.66,.69-94.94-1.41-.39-.22-.53-8.24-.55-19.21v-.22c0-.48,0-.98-.02-1.47,0-.36,0-.71-.02-1.07,0-.52-.02-1.05-.04-1.59-.12-4.62-.35-12.12-.62-20.33l56.51-.37,.97,16.5s11.97,5,22.4,9.96c.01,.01,.03,.01,.03,.02,6.43,3.04,12.02,5.82,13.3,6.84,3.33,2.68,6.01,11.35,2.99,12.34Z" style="fill:#ebebeb;"></path><g><path d="M266.52,425.8c-3.11,1.02-91.86,.48-95.23-1.68-1.28-.81-2.53-14.5-1.22-29.63l57.22,.42s32.78,15.41,36.23,18.18c3.43,2.77,6.11,11.7,3.01,12.72Z" style="fill:#FFC727;"></path><g><path d="M265.27,422.24c-14.87-.46-74.92-.89-89.65-.21-.12,0-.12,.09,0,.09,14.73,.77,74.78,.72,89.65,.36,.31,0,.31-.23,0-.24Z" style="fill:#263238;"></path><path d="M231.94,396.43c-5.95-.12-12.87,1.94-16.6,6.79-.14,.19,.12,.39,.3,.3,5.4-2.74,10.53-4.78,16.4-6.36,.41-.11,.33-.72-.1-.73Z" style="fill:#263238;"></path><path d="M236.53,398.25c-5.95-.12-12.87,1.94-16.6,6.79-.14,.19,.12,.39,.3,.3,5.4-2.74,10.53-4.78,16.4-6.35,.41-.11,.33-.73-.1-.73Z" style="fill:#263238;"></path><path d="M241.11,400.07c-5.95-.12-12.87,1.94-16.6,6.79-.14,.19,.12,.39,.3,.3,5.4-2.74,10.53-4.78,16.4-6.35,.41-.11,.33-.73-.1-.73Z" style="fill:#263238;"></path><path d="M245.7,401.89c-5.95-.12-12.87,1.94-16.6,6.79-.14,.19,.12,.39,.3,.3,5.4-2.74,10.53-4.78,16.4-6.36,.41-.11,.33-.72-.1-.73Z" style="fill:#263238;"></path></g></g></g><g><path d="M232.98,394.49l-65.01-.58s.78-102.91-4.13-109.18c-6.54-8.36-98.01-8.17-117.64-35.44-17.62-24.49-2.75-59.15-2.75-59.15l69.28-2.06s-2.16,11-6.42,21.82c0,0,83.45,15.4,106.83,41,15.78,17.28,19.83,143.59,19.83,143.59Z" style="fill:#263238;"></path><g><path d="M118.49,205.15c-2,.35-3.98,1.16-5.87,1.88-1.99,.76-3.95,1.62-5.86,2.55-3.79,1.85-7.4,3.96-10.96,6.2-.11,.07,0,.22,.11,.17,3.75-1.95,7.62-3.7,11.5-5.37,1.87-.8,3.73-1.61,5.6-2.41,1.88-.81,3.88-1.5,5.66-2.5,.23-.13,.11-.57-.17-.52Z" style="fill:#37474f;"></path><path d="M114.34,188.05c-.79,3.16-1.49,6.35-2.39,9.48-.41,1.44-.82,2.9-1.37,4.3-.46,1.18-1.15,2.52-2.52,2.78-1.57,.3-2.02-1.04-1.89-2.34,.14-1.45,.51-2.9,.8-4.32,.33-1.64,.66-3.28,.96-4.93,.15-.82,.3-1.65,.44-2.47,.04-.21,.19-1.79,.3-2.24,.01,.04,.04,.07,.09,.07h.05s.09-.04,.1-.09c.02-.12,.01-.15-.08-.24-.04-.04-.1-.04-.14-.01-.3,.16-.32,.58-.42,.88-.26,.8-.52,1.6-.75,2.41-.44,1.51-.86,3.02-1.25,4.55-.38,1.52-.76,3.05-1.13,4.57-.28,1.14-.61,2.34-.31,3.51,.34,1.28,1.36,1.92,2.48,2.02-.05,.1-.12,.2-.17,.31-.14,.31-.24,.64-.36,.96-.12,.33-.23,.65-.32,.99-.04,.16-.07,.32-.09,.49-.02,.18,.02,.36,0,.55-.04,.28,.35,.46,.49,.18,.08-.16,.2-.29,.3-.44,.1-.16,.17-.35,.23-.53,.11-.32,.2-.63,.28-.96,.08-.32,.18-.64,.24-.96,.04-.19,.04-.39,.06-.58,.64-.06,1.28-.29,1.82-.69,.94-.71,1.49-1.8,1.89-2.89,.48-1.32,.85-2.68,1.22-4.03,.92-3.34,1.7-6.74,2.02-10.19,.03-.37-.48-.5-.57-.12Z" style="fill:#37474f;"></path><path d="M73.14,195.79c-.29,1.57-.47,3.15-.83,4.71-.35,1.52-.77,3.04-1.27,4.53-.48,1.42-1.07,2.84-1.93,4.08-.83,1.19-1.93,2.23-3.07,3.13-2.23,1.77-4.75,3.18-7.43,4.14-1.35,.48-2.73,.9-4.13,1.21-.73,.16-1.47,.29-2.21,.39-.62,.08-1.23,.1-1.78,.41-.24,.13-.2,.5,.03,.62,.95,.46,2.28,.21,3.28,.1,1.18-.12,2.36-.32,3.51-.62,2.32-.59,4.57-1.57,6.63-2.8,2.02-1.2,4.05-2.7,5.54-4.54,1.55-1.9,2.41-4.13,2.96-6.5,.66-2.83,1.12-5.91,.97-8.83,0-.17-.27-.2-.3-.02Z" style="fill:#37474f;"></path><path d="M173.71,288.9c-.17-1.87-.53-3.75-1.22-5.51-1.44-3.69-4.51-5.55-8.22-6.49-4.38-1.11-8.9-1.77-13.36-2.49-4.55-.74-9.12-1.4-13.68-2.03-9.25-1.29-18.52-2.48-27.73-4.03-9.17-1.54-18.3-3.44-27.2-6.13-8.18-2.47-16.58-5.53-23.13-11.21-14.1-12.22-14.61-32.7-12.89-49.84,.24-2.42,.54-4.83,.83-7.25,.02-.13-.18-.17-.19-.04-1.12,9.65-2.41,19.36-1.45,29.08,.78,7.94,3.11,15.92,7.71,22.52,4.77,6.85,11.84,11.27,19.47,14.36,8.34,3.37,17.16,5.64,25.95,7.48,18.28,3.83,36.93,5.45,55.33,8.6,2.27,.39,4.53,.8,6.79,1.24,2.07,.4,4.19,.78,6.13,1.64,4.18,1.87,5.37,5.93,5.85,10.14,1.75,15.36,4.35,85.27,4.33,87.72,0,.22,.33,.2,.34-.02,.5-25.85-1.91-68-3.66-87.75Z" style="fill:#37474f;"></path><path d="M167.78,319.88c-.09-6.76-.29-3.79-.44-10.54-.14-6.37,0-12.86-1.24-19.15-.5-2.54-.96-5.89-3.68-7.06-1.4-.6-2.95-.92-4.42-1.31-1.6-.42-3.21-.83-4.83-1.18-7.47-1.61-15.02-2.62-22.59-3.64-.14-.02-.2,.18-.05,.21,6.4,1.23,12.8,2.49,19.15,3.93,3.18,.72,6.35,1.48,9.49,2.34,1.29,.35,3.04,.6,3.95,1.67,.94,1.11,1.22,2.91,1.54,4.27,1.46,6.17,1.35,12.61,1.52,18.9,.17,6.53,.33,3.33,.52,9.86,.21,7.32,.4,14.67,.91,21.98,.01,.19,.31,.19,.31,0,.14-6.76-.04-13.52-.14-20.28Z" style="fill:#37474f;"></path><path d="M226.8,381.23c-1.76-.38-17.89-.62-21.45-.66-7.12-.08-29.51,.02-33.52,.45-.11,.01-.11,.19,0,.2,3.57,.41,17.89,.69,21.44,.71,7.13,.04,31.59,.02,33.53-.38,.17-.04,.17-.28,0-.32Z" style="fill:#37474f;"></path></g><path d="M106.74,210.08c12.76,1.4,25.45,4.27,37.79,7.76,12.45,3.52,24.67,7.9,36.47,13.2,6.63,2.98,13.04,6.31,19.41,9.81,.13,.07,0,.25-.12,.19-11.42-5.95-23.37-11.08-35.46-15.48-12.05-4.39-24.39-8-36.93-10.72-7.06-1.54-14.17-2.73-21.29-3.92-.47-.08-.34-.89,.13-.84Z" style="fill:#37474f;"></path></g></g></g><g><g><path d="M36.02,210.61c.2,.22,81.44-5.73,81.44-5.73l-.58-5.2s3.87-4.05,.88-14.78c-6.32-22.71-18.94-68.02-23.19-73-5.17-6.05-14.15-7.92-20.76-4.03-13.87,8.16-34.38,67.09-39.8,81.02-2.67,6.87,2.41,11.23,3.22,14.46,0,0-1.47,6.99-1.22,7.27Z" style="fill:#FFC727;"></path><path d="M113.52,199.33c-33.8,1.42-70.53,4.03-73.48,4.18-.14,0-.14,.23,0,.22,35.44-.49,70.56-3.67,73.48-4.08,.2-.03,.21-.33,0-.32Z" style="fill:#263238;"></path></g><g><g><path d="M90.22,126.58c-4.97-.88-10.5-12.11-11.16-19.01-.04-.47,2.28-4.26,4.89-9,1.57-2.88,3.25-6.12,4.57-9.19l17.25,12.96s-4.66,5.62-6.93,10.99c-.19,.45-.32,.89-.41,1.32-.02,.06-.03,.14-.06,.22-.64,2.56-3.34,12.55-8.15,11.71Z" style="fill:#ffc4c0;"></path><path d="M98.43,114.65c-.02,.06-.03,.13-.06,.21-.64-.16-1.31-.42-2.03-.73-11.04-5.05-7.79-19.82-6.65-23.87l4.31,3.24,11.77,8.85s-4.67,5.62-6.93,10.99c-.19,.45-.33,.88-.42,1.31Z" style="fill:#263238;"></path></g><g><path d="M119.09,68.27s5.83,4.16,5.5,10.98c-.33,6.82-3.41,13.34-4.05,13.54-.64,.2-1.45-24.52-1.45-24.52Z" style="fill:#263238;"></path><path d="M88.71,69.83c-3.38,7-2.78,28.82,1.72,34.36,6.52,8.03,18.82,10.6,26.05,2.4,7.01-7.95,5.73-36.38,.55-41.58-7.62-7.66-23.34-5.52-28.33,4.82Z" style="fill:#ffc4c0;"></path><g><g><path d="M107.48,86.83c-.01-.06-.11,.07-.11,.13,.08,1.47-.08,3.17-1.4,3.68-.04,.02-.04,.09,.01,.08,1.62-.26,1.8-2.52,1.49-3.9Z" style="fill:#263238;"></path><path d="M106.13,85.33c-2.37-.13-2.45,4.62-.25,4.74,2.16,.11,2.24-4.63,.25-4.74Z" style="fill:#263238;"></path></g><g><path d="M115.99,87.18c.01-.06,.11,.07,.11,.13-.07,1.47,.1,3.16,1.42,3.67,.04,.02,.04,.09-.01,.08-1.62-.26-1.82-2.51-1.52-3.89Z" style="fill:#263238;"></path><path d="M117.32,85.67c2.37-.14,2.48,4.61,.28,4.74-2.16,.13-2.27-4.62-.28-4.74Z" style="fill:#263238;"></path></g><path d="M104.25,82.25c.65-.13,1.23-.37,1.87-.56,.71-.22,1.3-.33,1.79-.94,.26-.33,.19-.94-.11-1.22-.68-.66-1.62-.6-2.49-.37-.94,.25-1.61,.69-2.18,1.49-.55,.77,.26,1.78,1.12,1.61Z" style="fill:#263238;"></path><path d="M119.11,81.66c-.66-.12-1.24-.34-1.88-.52-.72-.21-1.31-.3-1.81-.9-.27-.32-.21-.93,.08-1.22,.67-.68,1.61-.64,2.49-.43,.95,.23,1.62,.65,2.21,1.43,.57,.75-.22,1.79-1.08,1.63Z" style="fill:#263238;"></path><path d="M104.85,99.59c.33,.37,.64,.87,1.17,.95,.51,.08,1.12-.11,1.6-.26,.05-.01,.09,.04,.06,.08-.42,.54-1.25,.83-1.92,.67-.66-.16-.94-.76-1.06-1.38-.02-.09,.1-.11,.15-.06Z" style="fill:#263238;"></path><path d="M106.7,95.3c.73,1.33,1.89,2.11,3.18,2.46,.57,.16,1.19,.22,1.79,.21,.12,0,.24,0,.35-.02,.11,0,.21-.01,.32-.03,.17-.01,.28-.15,.32-.31h0c0-.06,0-.11,0-.16h0v-.14c.12-1.13,.13-2.85,.13-2.85,.4,.24,2.44,1.33,2.44,.74,.05-4.91,.11-10.36-.88-15.25-.02-.16-.27-.14-.27,.02-.24,4.71,.36,9.43,.2,14.17-.65-.3-1.72-.85-2.31-.88-.16,.03,.04,3.33-.05,3.84,0,0,0,.02-.01,.05-1.91,.11-3.3-.56-5.06-1.97-.1-.09-.23,0-.15,.12Z" style="fill:#263238;"></path><g><path d="M111.02,97.35s-1.08,1.25-2.45,1.62c-.51,.14-1.04,.17-1.59-.02-1.12-.39-1.08-1.44-.8-2.32,.22-.73,.61-1.34,.61-1.34,0,0,1.56,1.69,4.23,2.06Z" style="fill:#263238;"></path><path d="M108.57,98.97c-.51,.14-1.04,.17-1.59-.02-1.12-.39-1.08-1.44-.8-2.32,1.22,.22,2.38,1.14,2.39,2.34Z" style="fill:#ff9abb;"></path></g></g><g><path d="M88.7,89.45c2.37,.78,5.27-6.32,6.1-9.06,.74-2.41,1.7-10.1,1.82-10.62,.13-.52,10.24,7.05,16.29,5.42,6.05-1.62,10.18-6.93,10.32-9.44,.14-2.51-7.18-9.07-13.63-9.54-6.45-.47-15.37,7.54-15.37,7.54,0,0,3.05-3.48,2.95-3.77-.09-.29-4.3,1.28-5.13,4.23,0,0,.91-3.71,.59-3.79-.31-.08-3.63,3.05-2.95,5.48,0,0-3.82,3.16-4.25,6.72-.43,3.55,.46,15.9,3.24,16.82Z" style="fill:#263238;"></path><path d="M117.21,74.03c-1.85,.8-3.7,1.68-5.72,1.9-2.19,.24-4.44-.36-6.45-1.18-2.06-.84-3.92-2.04-5.61-3.49-1.47-1.27-2.77-2.79-4.35-3.93-.39-.28-.87,.28-.63,.66,2.36,3.71,6.6,6.86,10.72,8.27,4.34,1.48,8.47,.6,12.07-2.18,.02-.02,0-.06-.02-.05Z" style="fill:#263238;"></path></g><g><path d="M92.4,87.87s-3.34-7.79-6.78-6.73c-3.44,1.05-1.91,11.65,1.43,13.76,3.34,2.1,5.35-.96,5.35-.96v-6.07Z" style="fill:#ffc4c0;"></path><path d="M86.13,84.16c-.06-.02-.09,.06-.04,.09,2.33,1.56,3.17,4.19,3.6,6.83-.56-1.1-1.48-1.83-2.93-1.19-.08,.03-.03,.15,.04,.15,1.09,0,1.8,.33,2.33,1.31,.37,.69,.56,1.51,.78,2.27,.07,.25,.51,.22,.47-.06,0-.02,0-.04,0-.06,.74-3.22-.84-8.28-4.25-9.33Z" style="fill:#263238;"></path></g></g><g><polygon points="97.66 117.84 92.22 126.16 81.41 102.1 78.04 106.66 87.54 133.32 92.11 127.34 94.83 133.1 98.23 122.67 97.66 117.84" style="fill:#ebebeb;"></polygon><path d="M78.04,106.66c2.98,9.16,6.15,18.25,9.39,27.31l.35-.46,4.55-6-.48-.05,2.77,5.73,.24,.49c1.16-3.65,2.26-7.33,3.36-11.01-1.21,3.45-2.44,6.9-3.61,10.36l.4-.02-2.65-5.79-.19-.42-.29,.37-4.6,5.96,.55,.09c-3.16-8.89-6.38-17.76-9.79-26.55h0Z" style="fill:#263238;"></path></g></g><g><g><path d="M70.51,123.54c5.73,23.68,23.03,64.59,29.93,69.89,6.11,4.69,36.54-.75,50.03-2.92,5.05-.81-.96-35.18-6.34-34.2-6.45,1.17-27.66,2.85-28.95,1.71-1.42-1.26-18.48-26.04-30.9-40.86-11.25-13.43-15.93-2.57-13.77,6.38Z" style="fill:#ffc4c0;"></path><g><path d="M162.97,154.47c10.44,.58,13.03,2.34,22.1-1.85,5.95-2.75,10.26-.13,6.11,5.28-6.79,8.85-20.42,10.92-25.35,10.28l-2.86-13.72Z" style="fill:#ffc4c0;"></path><path d="M134.06,158.94s12.67-4.09,23.85-4.57c7.74-.33,24.65,.82,37.23,20.21,2.99,4.6,3.98,13.27-3.63,7.53-5.4-4.08-7.59-8.29-11.17-10.09,0,0-.05,11.18-4.77,13.99-2.11,1.26-7.95,4.55-12.87,6.47,0,0-.7-.96-1.43-2.3,0,0-4.66,2.21-12.18-.03l-15.06-31.2Z" style="fill:#ffc4c0;"></path><g><path d="M165.34,155.23c3.17,2.54,9.8,8.02,13.65,14.4,4.29,7.08,10.64,21.87,5.38,24.98-3.86,2.28-6.78-3.15-6.78-3.15,0,0,1.34,6.67-2.6,7.97-3.58,1.18-5.59-3.16-5.59-3.16,0,0,.11,4.18-3.56,4.66-4.42,.57-3.93-8.29-8.91-11.58-1.12-.74,8.4-34.12,8.4-34.12Z" style="fill:#ffc4c0;"></path><g><path d="M170.76,172.91c2.59,2.87,6.8,10.91,6.92,18.4,0,.17-.12,.26-.16,.11-1.89-8.22-5.23-15.47-6.83-18.47-.02-.04,.04-.07,.07-.04Z" style="fill:#263238;"></path><path d="M163.74,177.44c1.98,2.71,5.94,11.18,5.81,18.78,0,.17-.14,.25-.17,.1-1.62-8.67-4.3-15.76-5.72-18.84-.02-.04,.04-.07,.07-.04Z" style="fill:#263238;"></path></g></g></g></g><g><path d="M147.4,196.85l-6.58-42.62-24.88,2.56c-8.82-11.83-26.47-35.48-33.8-42.75-8.6-8.52-15.08-3.11-12.61,8.98,5.64,27.64,25.01,69.03,30.63,73.29,8.05,6.11,47.25,.54,47.25,.54Z" style="fill:#FFC727;"></path><g><path d="M137.47,195.08c-.92-2.76-2.8-14.61-3.24-17.57-.43-2.9-1.78-14.89-2.22-17.93-.02-.17,.21-.25,.23-.08,.48,3,5.43,32.61,5.38,35.55,0,.1-.12,.12-.15,.03Z" style="fill:#263238;"></path><g><path d="M117.26,199.17c-3.49,.1-7-.02-10.48-.46-2.16-.31-4.44-.67-6.37-1.83-1.12-.77-1.97-1.85-2.79-2.9-7.88-11.55-12.7-25.02-17.82-37.95-2.44-6.55-4.79-13.13-6.9-19.8,2.28,5.83,5.32,13.81,7.63,19.51,5.34,12.82,10.12,26.1,17.67,37.81,1.03,1.38,2.06,2.81,3.66,3.41,1.57,.67,3.29,1.01,4.99,1.31,3.43,.57,6.93,.79,10.41,.89h0Z" style="fill:#263238;"></path><path d="M75.16,142.8c-.95-1.2-1.86-2.49-2.28-3.97,.71,1.33,1.63,2.61,2.28,3.97h0Z" style="fill:#263238;"></path></g><g><path d="M96.58,131.69c6.73,7.83,12.42,16.53,19.1,24.4,.1,.13,.26,.24,.35,.34,1.11,.05,2.4-.1,3.61-.19l7.05-.68,14.12-1.38h.04v.03l.13,1.17-.2-1.16,.04,.03c-7.61,1.11-15.23,2.15-22.9,2.82-.72,.04-1.38,.15-2.12,.04-.29-.13-.45-.33-.65-.52-6.65-7.79-12.36-16.78-18.57-24.91h0Z" style="fill:#263238;"></path><path d="M98.29,132.19c.8,1.3,1.56,2.7,1.8,4.22-.55-1.41-1.31-2.79-1.8-4.22h0Z" style="fill:#263238;"></path></g></g></g></g></g></g></g></g><g id="freepik--Floor--inject-148"><path d="M.76,425.34c199.59-.61,423.48-.62,623.08,0-199.59,.62-423.48,.61-623.08,0H.76Z" style="fill:#263238;"></path></g><g id="freepik--Clock--inject-148"><g><circle cx="312.3" cy="42.87" r="42.87" transform="translate(96.4 272.56) rotate(-54.59)" style="fill:#FFC727;"></circle><circle cx="314.26" cy="43.82" r="40.9" transform="translate(251.1 354.77) rotate(-86.46)" style="opacity: .1;"></circle><circle cx="314.26" cy="43.82" r="38.32" transform="translate(232.55 350.42) rotate(-83.01)" style="fill:#fff;"></circle><path d="M351.72,35.69c-17.45,10.57-46.13,27.92-62.16,37.42-4.5-3.8-8.11-8.61-10.47-14.08l53.01-49.13c9.87,5.2,17.19,14.58,19.61,25.79Z" style="fill:#ebebeb; opacity: .5;"></path><path d="M352.56,45.16c-.15,4.38-1.03,8.57-2.53,12.45l-47.79,22.6c-2.1-.69-4.12-1.56-6.04-2.59,14.44-8.34,40.82-23.52,56.36-32.46Z" style="fill:#ebebeb; opacity: .5;"></path><g><rect x="313.89" y="8.28" width=".74" height="5.81" style="fill:#263238;"></rect><rect x="297.58" y="12.65" width=".74" height="5.81" transform="translate(32.13 151.05) rotate(-30)" style="fill:#263238;"></rect><rect x="285.63" y="24.6" width=".74" height="5.81" transform="translate(119.17 261.43) rotate(-60)" style="fill:#263238;"></rect><rect x="278.73" y="43.45" width="5.81" height=".74" style="fill:#263238;"></rect><rect x="283.1" y="59.77" width="5.81" height=".74" transform="translate(8.25 151.06) rotate(-30)" style="fill:#263238;"></rect><rect x="295.04" y="71.71" width="5.81" height=".74" transform="translate(86.66 294.18) rotate(-60.03)" style="fill:#263238;"></rect><rect x="313.89" y="73.55" width=".74" height="5.81" style="fill:#263238;"></rect><rect x="330.21" y="69.18" width=".74" height="5.81" transform="translate(8.25 174.95) rotate(-30)" style="fill:#263238;"></rect><rect x="342.16" y="57.23" width=".74" height="5.81" transform="translate(119.17 326.69) rotate(-60)" style="fill:#263238;"></rect><rect x="343.99" y="43.45" width="5.81" height=".74" style="fill:#263238;"></rect><rect x="339.62" y="27.13" width="5.81" height=".74" transform="translate(32.13 174.93) rotate(-30)" style="fill:#263238;"></rect><rect x="327.68" y="15.19" width="5.81" height=".74" transform="translate(151.97 294.17) rotate(-60.03)" style="fill:#263238;"></rect></g><g><polygon points="314.82 10.91 316.08 46.41 312.45 46.36 313.83 10.9 314.82 10.91" style="fill:#455a64;"></polygon><polygon points="336.93 31.44 313.05 46.68 311.31 43.49 336.46 30.57 336.93 31.44" style="fill:#263238;"></polygon><path d="M315.51,43.82c0,.69-.56,1.24-1.24,1.24s-1.24-.56-1.24-1.24,.56-1.24,1.24-1.24,1.24,.56,1.24,1.24Z" style="fill:#FFC727;"></path></g></g></g><g id="freepik--Tables--inject-148"><g><g><rect x="104.49" y="196.82" width="186.82" height="5.78" style="fill:#455a64;"></rect><rect x="109.38" y="333.28" width="177.03" height="5.78" style="fill:#455a64;"></rect><rect x="114.93" y="202.61" width="165.93" height="12.05" style="fill:#37474f;"></rect><g><polygon points="97.64 425.27 93.38 425.27 123.38 214.66 135.18 214.66 97.64 425.27" style="fill:#455a64;"></polygon><polygon points="298.16 425.27 302.42 425.27 272.42 214.66 260.62 214.66 298.16 425.27" style="fill:#455a64;"></polygon></g></g><g><rect x="333.3" y="196.82" width="186.82" height="5.78" transform="translate(853.41 399.43) rotate(180)" style="fill:#455a64;"></rect><rect x="338.19" y="333.28" width="177.03" height="5.78" transform="translate(853.41 672.34) rotate(180)" style="fill:#455a64;"></rect><rect x="343.74" y="202.61" width="165.93" height="12.05" transform="translate(853.41 417.26) rotate(180)" style="fill:#37474f;"></rect><g><polygon points="526.97 425.27 531.23 425.27 501.23 214.66 489.43 214.66 526.97 425.27" style="fill:#455a64;"></polygon><polygon points="326.44 425.27 322.18 425.27 352.18 214.66 363.98 214.66 326.44 425.27" style="fill:#455a64;"></polygon></g></g></g></g><g id="freepik--Devices--inject-148"><g><g><polygon points="259.55 196.82 203.67 196.82 203.67 193.23 251.58 190.77 235.28 132.28 228.42 132.28 228.42 126.23 239.88 126.23 259.55 196.82" style="fill:#dbdbdb;"></polygon><polygon points="234.41 126.23 232.25 132.29 228.43 132.29 228.43 126.23 234.41 126.23" style="fill:#c7c7c7;"></polygon></g><g><rect x="214.12" y="63.87" width="6.24" height="118.6" transform="translate(25.47 -36.79) rotate(10.28)" style="fill:#c7c7c7;"></rect><polygon points="237.31 94.53 225.98 157 209.72 182.08 230.89 65.38 237.31 94.53" style="fill:#dbdbdb;"></polygon></g><polygon points="192.13 196.82 192.13 190.47 136.25 193.23 136.25 196.82 192.13 196.82" style="fill:#dbdbdb;"></polygon></g><g><g><polygon points="365.05 196.82 420.94 196.82 420.94 193.23 373.02 190.77 389.32 132.28 396.18 132.28 396.18 126.23 384.73 126.23 365.05 196.82" style="fill:#dbdbdb;"></polygon><polygon points="390.19 126.23 392.35 132.29 396.18 132.29 396.18 126.23 390.19 126.23" style="fill:#c7c7c7;"></polygon></g><g><rect x="404.25" y="63.87" width="6.24" height="118.6" transform="translate(830.18 171.68) rotate(169.72)" style="fill:#c7c7c7;"></rect><polygon points="387.3 94.53 398.63 157 414.88 182.08 393.72 65.38 387.3 94.53" style="fill:#dbdbdb;"></polygon></g><polygon points="432.47 196.82 432.47 190.47 488.35 193.23 488.35 196.82 432.47 196.82" style="fill:#dbdbdb;"></polygon></g></g><g id="freepik--Books--inject-148"><g><g><rect x="364.39" y="188.76" width="35.54" height="8.13" transform="translate(764.32 385.65) rotate(180)" style="fill:#263238;"></rect><rect x="345.01" y="188.76" width="19.38" height="8.13" transform="translate(709.4 385.65) rotate(180)" style="fill:#263238;"></rect><rect x="364.39" y="189.6" width="35.54" height="6.44" transform="translate(764.32 385.65) rotate(180)" style="fill:#fff;"></rect><path d="M397.63,194.72c-2.77,.03-5.54,.06-8.31,.07l-8.31,.02-8.31-.02c-2.77-.01-5.54-.04-8.31-.07,2.77-.03,5.54-.06,8.31-.07l8.31-.02,8.31,.02c2.77,.01,5.54,.04,8.31,.07Z" style="fill:#dbdbdb;"></path><path d="M397.63,193.46c-2.77,.03-5.54,.06-8.31,.07l-8.31,.02-8.31-.02c-2.77-.01-5.54-.04-8.31-.07,2.77-.03,5.54-.06,8.31-.07l8.31-.02,8.31,.02c2.77,.01,5.54,.04,8.31,.07Z" style="fill:#dbdbdb;"></path><path d="M397.63,192.19c-2.77,.03-5.54,.06-8.31,.07l-8.31,.02-8.31-.02c-2.77-.01-5.54-.04-8.31-.07,2.77-.03,5.54-.06,8.31-.07l8.31-.02,8.31,.02c2.77,.01,5.54,.04,8.31,.07Z" style="fill:#dbdbdb;"></path><path d="M397.63,190.93c-2.77,.03-5.54,.06-8.31,.07l-8.31,.02-8.31-.02c-2.77-.01-5.54-.04-8.31-.07,2.77-.03,5.54-.06,8.31-.07l8.31-.02,8.31,.02c2.77,.01,5.54,.04,8.31,.07Z" style="fill:#dbdbdb;"></path><path d="M393.9,191.71v5.42l-3.23-2.7-3.23,2.7v-5.42c0-.46-.37-.83-.83-.83h6.47c.46,0,.83,.37,.83,.83Z" style="fill:#FFC727;"></path></g><g><rect x="341.01" y="182.94" width="59.1" height="5.83" style="fill:#37474f;"></rect><rect x="388.33" y="182.94" width="5.51" height="5.83" style="fill:#455a64;"></rect><rect x="382.58" y="182.94" width="2.14" height="5.83" style="fill:#455a64;"></rect></g><g><rect x="370.88" y="173.93" width="36.78" height="9" transform="translate(778.53 356.87) rotate(180)" style="fill:#FFC727;"></rect><rect x="342.78" y="173.93" width="28.09" height="9" transform="translate(713.66 356.87) rotate(180)" style="fill:#FFC727;"></rect><rect x="342.78" y="173.93" width="28.09" height="9" transform="translate(713.66 356.87) rotate(180)" style="opacity: .2;"></rect><rect x="372.08" y="174.87" width="35.57" height="7.13" transform="translate(779.74 356.87) rotate(180)" style="fill:#fff;"></rect><path d="M405.35,180.53c-2.77,.05-5.54,.09-8.32,.11l-8.32,.03-8.32-.03c-2.77-.02-5.54-.05-8.32-.11,2.77-.05,5.54-.09,8.32-.11l8.32-.03,8.32,.03c2.77,.02,5.54,.05,8.32,.11Z" style="fill:#dbdbdb;"></path><path d="M405.35,179.13c-2.77,.05-5.54,.09-8.32,.11l-8.32,.03-8.32-.03c-2.77-.02-5.54-.05-8.32-.11,2.77-.05,5.54-.09,8.32-.11l8.32-.03,8.32,.03c2.77,.02,5.54,.05,8.32,.11Z" style="fill:#dbdbdb;"></path><path d="M405.35,177.73c-2.77,.05-5.54,.09-8.32,.11l-8.32,.03-8.32-.03c-2.77-.02-5.54-.05-8.32-.11,2.77-.05,5.54-.09,8.32-.11l8.32-.03,8.32,.03c2.77,.02,5.54,.05,8.32,.11Z" style="fill:#dbdbdb;"></path><path d="M405.35,176.33c-2.77,.05-5.54,.09-8.32,.11l-8.32,.03-8.32-.03c-2.77-.02-5.54-.06-8.32-.11,2.77-.05,5.54-.09,8.32-.11l8.32-.03,8.32,.03c2.77,.02,5.54,.05,8.32,.11Z" style="fill:#dbdbdb;"></path></g><g><rect x="346.55" y="164.93" width="32.28" height="9" style="fill:#455a64;"></rect><rect x="378.82" y="164.93" width="18.3" height="9" style="fill:#455a64;"></rect><rect x="346.55" y="165.86" width="32.28" height="7.13" style="fill:#fff;"></rect><path d="M348.64,167.33c2.52-.05,5.03-.09,7.55-.11l7.55-.03,7.55,.03c2.52,.02,5.03,.05,7.55,.11-2.52,.05-5.03,.09-7.55,.11l-7.55,.03-7.55-.03c-2.52-.02-5.03-.05-7.55-.11Z" style="fill:#dbdbdb;"></path><path d="M348.64,168.73c2.52-.05,5.03-.09,7.55-.11l7.55-.03,7.55,.03c2.52,.02,5.03,.05,7.55,.11-2.52,.05-5.03,.09-7.55,.11l-7.55,.03-7.55-.03c-2.52-.02-5.03-.05-7.55-.11Z" style="fill:#dbdbdb;"></path><path d="M348.64,170.13c2.52-.05,5.03-.09,7.55-.11l7.55-.03,7.55,.03c2.52,.02,5.03,.05,7.55,.11-2.52,.05-5.03,.09-7.55,.11l-7.55,.03-7.55-.03c-2.52-.02-5.03-.05-7.55-.11Z" style="fill:#dbdbdb;"></path><path d="M348.64,171.53c2.52-.05,5.03-.09,7.55-.11l7.55-.03,7.55,.03c2.52,.02,5.03,.06,7.55,.11-2.52,.05-5.03,.09-7.55,.11l-7.55,.03-7.55-.03c-2.52-.02-5.03-.05-7.55-.11Z" style="fill:#dbdbdb;"></path><path d="M353.18,168.16v8.06l3.23-2.7,3.23,2.7v-8.06c0-.46,.37-.83,.83-.83h-6.47c-.46,0-.83,.37-.83,.83Z" style="fill:#263238;"></path></g></g></g><g id="freepik--speech-bubble--inject-148"><g><g><polygon points="198.54 89.67 151.54 89.67 135.73 89.67 135.73 97.48 127.41 97.48 135.73 105.8 135.73 126.34 198.54 126.34 198.54 121.25 198.54 89.67" style="fill:#fff;"></polygon><path d="M198.54,89.67c-.02-.13-63.86,.65-62.56,0l.07,7.81v.32h-.33l-8.32,.05,.26-.63,8.36,8.28,.12,.12v.18l.05,20.55-.48-.48c15.65-.02,47.17,.04,62.81,.08l-.39,.39c.04-9.14,.27-27.54,.39-36.68h0Zm0,0c.12,9.34,.35,27.72,.4,37.07-15.87,.04-47.35,.1-63.21,.09h-.48v-.48l.05-20.55,.12,.3-8.28-8.36-.63-.64h.9l8.32,.05-.33,.33,.07-7.81v-.26c.16-.08,62.87,.31,63.07,.26h0Z" style="fill:#263238;"></path></g><g><path d="M177.68,108c0,1.54,1.25,2.78,2.78,2.78s2.78-1.25,2.78-2.78-1.25-2.78-2.78-2.78-2.78,1.25-2.78,2.78Z" style="fill:#263238;"></path><path d="M163.79,108c0,1.54,1.25,2.78,2.78,2.78s2.78-1.25,2.78-2.78-1.25-2.78-2.78-2.78-2.78,1.25-2.78,2.78Z" style="fill:#263238;"></path><path d="M149.89,108c0,1.54,1.25,2.78,2.78,2.78s2.78-1.25,2.78-2.78-1.25-2.78-2.78-2.78-2.78,1.25-2.78,2.78Z" style="fill:#263238;"></path></g></g></g></svg>
