<svg xmlns="http://www.w3.org/2000/svg" viewBox="0 0 750 500"><g id="freepik--Shadow--inject-46"><ellipse cx="503.82" cy="426.02" rx="167.82" ry="22.99" style="fill:#ebebeb"></ellipse><ellipse cx="116.34" cy="428" rx="51.54" ry="11.57" style="fill:#ebebeb"></ellipse></g><g id="freepik--Server--inject-46"><rect x="230.44" y="169.49" width="59.67" height="224.99" transform="translate(520.55 563.97) rotate(180)" style="fill:#263238"></rect><rect x="120.63" y="169.49" width="109.81" height="224.99" transform="translate(351.06 563.97) rotate(180)" style="fill:#455a64"></rect><rect x="127.49" y="365.3" width="94.72" height="21.87" transform="translate(349.69 752.47) rotate(180)" style="fill:#37474f"></rect><rect x="164.3" y="368.91" width="53.91" height="1.85" transform="translate(382.52 739.67) rotate(180)" style="fill:#455a64"></rect><rect x="164.3" y="372.11" width="53.91" height="1.85" transform="translate(382.52 746.07) rotate(180)" style="fill:#455a64"></rect><rect x="164.3" y="375.31" width="53.91" height="1.85" transform="translate(382.52 752.47) rotate(180)" style="fill:#455a64"></rect><rect x="164.3" y="378.51" width="53.91" height="1.85" transform="translate(382.52 758.87) rotate(180)" style="fill:#455a64"></rect><rect x="164.3" y="381.71" width="53.91" height="1.85" transform="translate(382.52 765.27) rotate(180)" style="fill:#455a64"></rect><path d="M154.48,370.74a1.83,1.83,0,1,0,1.83-1.83A1.82,1.82,0,0,0,154.48,370.74Z" style="fill:#FFC727"></path><path d="M148.44,370.74a1.83,1.83,0,1,0,1.83-1.83A1.83,1.83,0,0,0,148.44,370.74Z" style="fill:#ebebeb"></path><path d="M142.4,370.74a1.84,1.84,0,1,0,1.83-1.83A1.83,1.83,0,0,0,142.4,370.74Z" style="fill:#FFC727"></path><path d="M136.37,370.74a1.83,1.83,0,1,0,1.83-1.83A1.83,1.83,0,0,0,136.37,370.74Z" style="fill:#FFC727"></path><path d="M130.33,370.74a1.83,1.83,0,1,0,1.83-1.83A1.83,1.83,0,0,0,130.33,370.74Z" style="fill:#ebebeb"></path><path d="M154.48,376.23a1.83,1.83,0,1,0,1.83-1.83A1.83,1.83,0,0,0,154.48,376.23Z" style="fill:#ebebeb"></path><path d="M148.44,376.23a1.83,1.83,0,1,0,1.83-1.83A1.83,1.83,0,0,0,148.44,376.23Z" style="fill:#FFC727"></path><path d="M142.4,376.23a1.84,1.84,0,1,0,1.83-1.83A1.83,1.83,0,0,0,142.4,376.23Z" style="fill:#ebebeb"></path><path d="M136.37,376.23a1.83,1.83,0,1,0,1.83-1.83A1.83,1.83,0,0,0,136.37,376.23Z" style="fill:#FFC727"></path><path d="M130.33,376.23a1.83,1.83,0,1,0,1.83-1.83A1.83,1.83,0,0,0,130.33,376.23Z" style="fill:#ebebeb"></path><path d="M154.48,381.73a1.83,1.83,0,1,0,1.83-1.83A1.82,1.82,0,0,0,154.48,381.73Z" style="fill:#ebebeb"></path><path d="M148.44,381.73a1.83,1.83,0,1,0,1.83-1.83A1.83,1.83,0,0,0,148.44,381.73Z" style="fill:#FFC727"></path><path d="M142.4,381.73a1.84,1.84,0,1,0,1.83-1.83A1.83,1.83,0,0,0,142.4,381.73Z" style="fill:#FFC727"></path><path d="M136.37,381.73a1.83,1.83,0,1,0,1.83-1.83A1.83,1.83,0,0,0,136.37,381.73Z" style="fill:#FFC727"></path><path d="M130.33,381.73a1.83,1.83,0,1,0,1.83-1.83A1.83,1.83,0,0,0,130.33,381.73Z" style="fill:#FFC727"></path><rect x="160.56" y="368.91" width="1.05" height="14.65" transform="translate(322.17 752.47) rotate(180)" style="fill:#263238"></rect><rect x="127.49" y="338.93" width="94.72" height="21.87" transform="translate(349.69 699.74) rotate(180)" style="fill:#37474f"></rect><rect x="164.3" y="342.55" width="53.91" height="1.85" transform="translate(382.52 686.94) rotate(180)" style="fill:#455a64"></rect><rect x="164.3" y="345.75" width="53.91" height="1.85" transform="translate(382.52 693.34) rotate(180)" style="fill:#455a64"></rect><rect x="164.3" y="348.95" width="53.91" height="1.85" transform="translate(382.52 699.74) rotate(180)" style="fill:#455a64"></rect><rect x="164.3" y="352.15" width="53.91" height="1.85" transform="translate(382.52 706.14) rotate(180)" style="fill:#455a64"></rect><rect x="164.3" y="355.35" width="53.91" height="1.85" transform="translate(382.52 712.54) rotate(180)" style="fill:#455a64"></rect><circle cx="156.31" cy="344.38" r="1.83" style="fill:#ebebeb"></circle><circle cx="150.27" cy="344.38" r="1.83" style="fill:#FFC727"></circle><circle cx="144.23" cy="344.38" r="1.83" style="fill:#FFC727"></circle><path d="M136.37,344.38a1.83,1.83,0,1,0,1.83-1.83A1.83,1.83,0,0,0,136.37,344.38Z" style="fill:#FFC727"></path><path d="M130.33,344.38a1.83,1.83,0,1,0,1.83-1.83A1.83,1.83,0,0,0,130.33,344.38Z" style="fill:#ebebeb"></path><circle cx="156.31" cy="349.87" r="1.83" style="fill:#FFC727"></circle><circle cx="150.27" cy="349.87" r="1.83" style="fill:#ebebeb"></circle><circle cx="144.23" cy="349.87" r="1.83" style="fill:#ebebeb"></circle><path d="M136.37,349.87A1.83,1.83,0,1,0,138.2,348,1.83,1.83,0,0,0,136.37,349.87Z" style="fill:#ebebeb"></path><path d="M130.33,349.87a1.83,1.83,0,1,0,1.83-1.83A1.83,1.83,0,0,0,130.33,349.87Z" style="fill:#FFC727"></path><circle cx="156.31" cy="355.36" r="1.83" style="fill:#FFC727"></circle><circle cx="150.27" cy="355.36" r="1.83" style="fill:#FFC727"></circle><circle cx="144.23" cy="355.36" r="1.83" style="fill:#ebebeb"></circle><path d="M136.37,355.36a1.83,1.83,0,1,0,1.83-1.83A1.83,1.83,0,0,0,136.37,355.36Z" style="fill:#FFC727"></path><path d="M130.33,355.36a1.83,1.83,0,1,0,1.83-1.83A1.83,1.83,0,0,0,130.33,355.36Z" style="fill:#FFC727"></path><rect x="160.56" y="342.55" width="1.05" height="14.65" transform="translate(322.17 699.74) rotate(180)" style="fill:#263238"></rect><rect x="127.49" y="312.57" width="94.72" height="21.87" transform="translate(349.69 647.02) rotate(180)" style="fill:#37474f"></rect><rect x="164.3" y="316.18" width="53.91" height="1.85" transform="translate(382.52 634.21) rotate(180)" style="fill:#455a64"></rect><rect x="164.3" y="319.38" width="53.91" height="1.85" transform="translate(382.52 640.62) rotate(180)" style="fill:#455a64"></rect><rect x="164.3" y="322.59" width="53.91" height="1.85" transform="translate(382.52 647.02) rotate(180)" style="fill:#455a64"></rect><rect x="164.3" y="325.79" width="53.91" height="1.85" transform="translate(382.52 653.42) rotate(180)" style="fill:#455a64"></rect><rect x="164.3" y="328.99" width="53.91" height="1.85" transform="translate(382.52 659.82) rotate(180)" style="fill:#455a64"></rect><path d="M154.48,318a1.83,1.83,0,1,0,1.83-1.84A1.82,1.82,0,0,0,154.48,318Z" style="fill:#ebebeb"></path><path d="M148.44,318a1.83,1.83,0,1,0,1.83-1.84A1.83,1.83,0,0,0,148.44,318Z" style="fill:#FFC727"></path><path d="M142.4,318a1.84,1.84,0,1,0,1.83-1.84A1.83,1.83,0,0,0,142.4,318Z" style="fill:#FFC727"></path><path d="M136.37,318a1.83,1.83,0,1,0,1.83-1.84A1.83,1.83,0,0,0,136.37,318Z" style="fill:#FFC727"></path><path d="M130.33,318a1.83,1.83,0,1,0,1.83-1.84A1.83,1.83,0,0,0,130.33,318Z" style="fill:#ebebeb"></path><path d="M154.48,323.51a1.83,1.83,0,1,0,1.83-1.83A1.82,1.82,0,0,0,154.48,323.51Z" style="fill:#FFC727"></path><path d="M148.44,323.51a1.83,1.83,0,1,0,1.83-1.83A1.83,1.83,0,0,0,148.44,323.51Z" style="fill:#FFC727"></path><path d="M142.4,323.51a1.84,1.84,0,1,0,1.83-1.83A1.83,1.83,0,0,0,142.4,323.51Z" style="fill:#ebebeb"></path><path d="M136.37,323.51a1.83,1.83,0,1,0,1.83-1.83A1.83,1.83,0,0,0,136.37,323.51Z" style="fill:#ebebeb"></path><path d="M130.33,323.51a1.83,1.83,0,1,0,1.83-1.83A1.83,1.83,0,0,0,130.33,323.51Z" style="fill:#FFC727"></path><path d="M154.48,329a1.83,1.83,0,1,0,1.83-1.83A1.82,1.82,0,0,0,154.48,329Z" style="fill:#ebebeb"></path><path d="M148.44,329a1.83,1.83,0,1,0,1.83-1.83A1.83,1.83,0,0,0,148.44,329Z" style="fill:#FFC727"></path><path d="M142.4,329a1.84,1.84,0,1,0,1.83-1.83A1.83,1.83,0,0,0,142.4,329Z" style="fill:#FFC727"></path><path d="M136.37,329a1.83,1.83,0,1,0,1.83-1.83A1.83,1.83,0,0,0,136.37,329Z" style="fill:#FFC727"></path><path d="M130.33,329a1.83,1.83,0,1,0,1.83-1.83A1.83,1.83,0,0,0,130.33,329Z" style="fill:#ebebeb"></path><rect x="160.56" y="316.18" width="1.05" height="14.65" transform="translate(322.17 647.02) rotate(180)" style="fill:#263238"></rect><rect x="127.49" y="286.21" width="94.72" height="21.87" transform="translate(349.69 594.29) rotate(180)" style="fill:#37474f"></rect><rect x="164.3" y="289.82" width="53.91" height="1.85" transform="translate(382.52 581.49) rotate(180)" style="fill:#455a64"></rect><rect x="164.3" y="293.02" width="53.91" height="1.85" transform="translate(382.52 587.89) rotate(180)" style="fill:#455a64"></rect><rect x="164.3" y="296.22" width="53.91" height="1.85" transform="translate(382.52 594.29) rotate(180)" style="fill:#455a64"></rect><rect x="164.3" y="299.42" width="53.91" height="1.85" transform="translate(382.52 600.69) rotate(180)" style="fill:#455a64"></rect><rect x="164.3" y="302.62" width="53.91" height="1.85" transform="translate(382.52 607.09) rotate(180)" style="fill:#455a64"></rect><path d="M154.48,291.65a1.83,1.83,0,1,0,1.83-1.83A1.82,1.82,0,0,0,154.48,291.65Z" style="fill:#FFC727"></path><path d="M148.44,291.65a1.83,1.83,0,1,0,1.83-1.83A1.83,1.83,0,0,0,148.44,291.65Z" style="fill:#ebebeb"></path><path d="M142.4,291.65a1.84,1.84,0,1,0,1.83-1.83A1.83,1.83,0,0,0,142.4,291.65Z" style="fill:#FFC727"></path><path d="M136.37,291.65a1.83,1.83,0,1,0,1.83-1.83A1.83,1.83,0,0,0,136.37,291.65Z" style="fill:#FFC727"></path><path d="M130.33,291.65a1.83,1.83,0,1,0,1.83-1.83A1.83,1.83,0,0,0,130.33,291.65Z" style="fill:#ebebeb"></path><path d="M154.48,297.15a1.83,1.83,0,1,0,1.83-1.84A1.82,1.82,0,0,0,154.48,297.15Z" style="fill:#FFC727"></path><path d="M148.44,297.15a1.83,1.83,0,1,0,1.83-1.84A1.83,1.83,0,0,0,148.44,297.15Z" style="fill:#FFC727"></path><path d="M142.4,297.15a1.84,1.84,0,1,0,1.83-1.84A1.83,1.83,0,0,0,142.4,297.15Z" style="fill:#ebebeb"></path><path d="M136.37,297.15a1.83,1.83,0,1,0,1.83-1.84A1.83,1.83,0,0,0,136.37,297.15Z" style="fill:#ebebeb"></path><path d="M130.33,297.15a1.83,1.83,0,1,0,1.83-1.84A1.83,1.83,0,0,0,130.33,297.15Z" style="fill:#FFC727"></path><path d="M154.48,302.64a1.83,1.83,0,1,0,1.83-1.83A1.82,1.82,0,0,0,154.48,302.64Z" style="fill:#ebebeb"></path><path d="M148.44,302.64a1.83,1.83,0,1,0,1.83-1.83A1.83,1.83,0,0,0,148.44,302.64Z" style="fill:#FFC727"></path><path d="M142.4,302.64a1.84,1.84,0,1,0,1.83-1.83A1.83,1.83,0,0,0,142.4,302.64Z" style="fill:#FFC727"></path><path d="M136.37,302.64a1.83,1.83,0,1,0,1.83-1.83A1.83,1.83,0,0,0,136.37,302.64Z" style="fill:#ebebeb"></path><path d="M130.33,302.64a1.83,1.83,0,1,0,1.83-1.83A1.83,1.83,0,0,0,130.33,302.64Z" style="fill:#FFC727"></path><rect x="160.56" y="289.82" width="1.05" height="14.65" transform="translate(322.17 594.29) rotate(180)" style="fill:#263238"></rect><rect x="127.49" y="259.85" width="94.72" height="21.87" transform="translate(349.69 541.56) rotate(180)" style="fill:#37474f"></rect><rect x="164.3" y="263.46" width="53.91" height="1.85" transform="translate(382.52 528.76) rotate(180)" style="fill:#455a64"></rect><rect x="164.3" y="266.66" width="53.91" height="1.85" transform="translate(382.52 535.16) rotate(180)" style="fill:#455a64"></rect><rect x="164.3" y="269.86" width="53.91" height="1.85" transform="translate(382.52 541.56) rotate(180)" style="fill:#455a64"></rect><rect x="164.3" y="273.06" width="53.91" height="1.85" transform="translate(382.52 547.97) rotate(180)" style="fill:#455a64"></rect><rect x="164.3" y="276.26" width="53.91" height="1.85" transform="translate(382.52 554.37) rotate(180)" style="fill:#455a64"></rect><path d="M154.48,265.29a1.83,1.83,0,1,0,1.83-1.83A1.82,1.82,0,0,0,154.48,265.29Z" style="fill:#FFC727"></path><path d="M148.44,265.29a1.83,1.83,0,1,0,1.83-1.83A1.83,1.83,0,0,0,148.44,265.29Z" style="fill:#FFC727"></path><path d="M142.4,265.29a1.84,1.84,0,1,0,1.83-1.83A1.83,1.83,0,0,0,142.4,265.29Z" style="fill:#FFC727"></path><path d="M136.37,265.29a1.83,1.83,0,1,0,1.83-1.83A1.83,1.83,0,0,0,136.37,265.29Z" style="fill:#ebebeb"></path><path d="M130.33,265.29a1.83,1.83,0,1,0,1.83-1.83A1.83,1.83,0,0,0,130.33,265.29Z" style="fill:#FFC727"></path><path d="M154.48,270.78a1.83,1.83,0,1,0,1.83-1.83A1.82,1.82,0,0,0,154.48,270.78Z" style="fill:#ebebeb"></path><path d="M148.44,270.78a1.83,1.83,0,1,0,1.83-1.83A1.83,1.83,0,0,0,148.44,270.78Z" style="fill:#FFC727"></path><path d="M142.4,270.78a1.84,1.84,0,1,0,1.83-1.83A1.83,1.83,0,0,0,142.4,270.78Z" style="fill:#ebebeb"></path><path d="M136.37,270.78A1.83,1.83,0,1,0,138.2,269,1.83,1.83,0,0,0,136.37,270.78Z" style="fill:#FFC727"></path><path d="M130.33,270.78a1.83,1.83,0,1,0,1.83-1.83A1.83,1.83,0,0,0,130.33,270.78Z" style="fill:#FFC727"></path><path d="M154.48,276.27a1.83,1.83,0,1,0,1.83-1.83A1.83,1.83,0,0,0,154.48,276.27Z" style="fill:#FFC727"></path><path d="M148.44,276.27a1.83,1.83,0,1,0,1.83-1.83A1.83,1.83,0,0,0,148.44,276.27Z" style="fill:#ebebeb"></path><path d="M142.4,276.27a1.84,1.84,0,1,0,1.83-1.83A1.83,1.83,0,0,0,142.4,276.27Z" style="fill:#FFC727"></path><path d="M136.37,276.27a1.83,1.83,0,1,0,1.83-1.83A1.83,1.83,0,0,0,136.37,276.27Z" style="fill:#FFC727"></path><path d="M130.33,276.27a1.83,1.83,0,1,0,1.83-1.83A1.83,1.83,0,0,0,130.33,276.27Z" style="fill:#ebebeb"></path><rect x="160.56" y="263.46" width="1.05" height="14.65" transform="translate(322.17 541.56) rotate(180)" style="fill:#263238"></rect><rect x="127.49" y="233.48" width="94.72" height="21.87" transform="translate(349.69 488.84) rotate(180)" style="fill:#37474f"></rect><rect x="164.3" y="237.1" width="53.91" height="1.85" transform="translate(382.52 476.04) rotate(180)" style="fill:#455a64"></rect><rect x="164.3" y="240.3" width="53.91" height="1.85" transform="translate(382.52 482.44) rotate(180)" style="fill:#455a64"></rect><rect x="164.3" y="243.5" width="53.91" height="1.85" transform="translate(382.52 488.84) rotate(180)" style="fill:#455a64"></rect><rect x="164.3" y="246.7" width="53.91" height="1.85" transform="translate(382.52 495.24) rotate(180)" style="fill:#455a64"></rect><rect x="164.3" y="249.9" width="53.91" height="1.85" transform="translate(382.52 501.64) rotate(180)" style="fill:#455a64"></rect><path d="M154.48,238.93a1.83,1.83,0,1,0,1.83-1.83A1.82,1.82,0,0,0,154.48,238.93Z" style="fill:#ebebeb"></path><path d="M148.44,238.93a1.83,1.83,0,1,0,1.83-1.83A1.83,1.83,0,0,0,148.44,238.93Z" style="fill:#ebebeb"></path><path d="M142.4,238.93a1.84,1.84,0,1,0,1.83-1.83A1.83,1.83,0,0,0,142.4,238.93Z" style="fill:#FFC727"></path><path d="M136.37,238.93a1.83,1.83,0,1,0,1.83-1.83A1.83,1.83,0,0,0,136.37,238.93Z" style="fill:#ebebeb"></path><path d="M130.33,238.93a1.83,1.83,0,1,0,1.83-1.83A1.83,1.83,0,0,0,130.33,238.93Z" style="fill:#FFC727"></path><path d="M154.48,244.42a1.83,1.83,0,1,0,1.83-1.83A1.82,1.82,0,0,0,154.48,244.42Z" style="fill:#FFC727"></path><path d="M148.44,244.42a1.83,1.83,0,1,0,1.83-1.83A1.83,1.83,0,0,0,148.44,244.42Z" style="fill:#FFC727"></path><path d="M142.4,244.42a1.84,1.84,0,1,0,1.83-1.83A1.83,1.83,0,0,0,142.4,244.42Z" style="fill:#ebebeb"></path><path d="M136.37,244.42a1.83,1.83,0,1,0,1.83-1.83A1.83,1.83,0,0,0,136.37,244.42Z" style="fill:#FFC727"></path><path d="M130.33,244.42a1.83,1.83,0,1,0,1.83-1.83A1.83,1.83,0,0,0,130.33,244.42Z" style="fill:#ebebeb"></path><path d="M154.48,249.91a1.83,1.83,0,1,0,1.83-1.83A1.82,1.82,0,0,0,154.48,249.91Z" style="fill:#FFC727"></path><path d="M148.44,249.91a1.83,1.83,0,1,0,1.83-1.83A1.83,1.83,0,0,0,148.44,249.91Z" style="fill:#ebebeb"></path><path d="M142.4,249.91a1.84,1.84,0,1,0,1.83-1.83A1.83,1.83,0,0,0,142.4,249.91Z" style="fill:#FFC727"></path><path d="M136.37,249.91a1.83,1.83,0,1,0,1.83-1.83A1.83,1.83,0,0,0,136.37,249.91Z" style="fill:#FFC727"></path><path d="M130.33,249.91a1.83,1.83,0,1,0,1.83-1.83A1.83,1.83,0,0,0,130.33,249.91Z" style="fill:#FFC727"></path><rect x="160.56" y="237.1" width="1.05" height="14.65" transform="translate(322.17 488.84) rotate(180)" style="fill:#263238"></rect><rect x="127.49" y="207.12" width="94.72" height="21.87" transform="translate(349.69 436.11) rotate(180)" style="fill:#37474f"></rect><rect x="164.3" y="210.73" width="53.91" height="1.85" transform="translate(382.52 423.31) rotate(180)" style="fill:#455a64"></rect><rect x="164.3" y="213.93" width="53.91" height="1.85" transform="translate(382.52 429.71) rotate(180)" style="fill:#455a64"></rect><rect x="164.3" y="217.13" width="53.91" height="1.85" transform="translate(382.52 436.11) rotate(180)" style="fill:#455a64"></rect><rect x="164.3" y="220.33" width="53.91" height="1.85" transform="translate(382.52 442.51) rotate(180)" style="fill:#455a64"></rect><rect x="164.3" y="223.53" width="53.91" height="1.85" transform="translate(382.52 448.91) rotate(180)" style="fill:#455a64"></rect><circle cx="156.31" cy="212.56" r="1.83" style="fill:#FFC727"></circle><circle cx="150.27" cy="212.56" r="1.83" style="fill:#FFC727"></circle><circle cx="144.23" cy="212.56" r="1.83" style="fill:#FFC727"></circle><path d="M136.37,212.56a1.83,1.83,0,1,0,1.83-1.83A1.83,1.83,0,0,0,136.37,212.56Z" style="fill:#ebebeb"></path><path d="M130.33,212.56a1.83,1.83,0,1,0,1.83-1.83A1.83,1.83,0,0,0,130.33,212.56Z" style="fill:#FFC727"></path><circle cx="156.31" cy="218.06" r="1.83" style="fill:#FFC727"></circle><circle cx="150.27" cy="218.06" r="1.83" style="fill:#FFC727"></circle><circle cx="144.23" cy="218.06" r="1.83" style="fill:#ebebeb"></circle><path d="M136.37,218.06a1.83,1.83,0,1,0,1.83-1.83A1.83,1.83,0,0,0,136.37,218.06Z" style="fill:#FFC727"></path><path d="M130.33,218.06a1.83,1.83,0,1,0,1.83-1.83A1.83,1.83,0,0,0,130.33,218.06Z" style="fill:#FFC727"></path><path d="M154.48,223.55a1.83,1.83,0,1,0,1.83-1.83A1.82,1.82,0,0,0,154.48,223.55Z" style="fill:#FFC727"></path><path d="M148.44,223.55a1.83,1.83,0,1,0,1.83-1.83A1.83,1.83,0,0,0,148.44,223.55Z" style="fill:#FFC727"></path><path d="M142.4,223.55a1.84,1.84,0,1,0,1.83-1.83A1.83,1.83,0,0,0,142.4,223.55Z" style="fill:#FFC727"></path><path d="M136.37,223.55a1.83,1.83,0,1,0,1.83-1.83A1.83,1.83,0,0,0,136.37,223.55Z" style="fill:#ebebeb"></path><path d="M130.33,223.55a1.83,1.83,0,1,0,1.83-1.83A1.83,1.83,0,0,0,130.33,223.55Z" style="fill:#FFC727"></path><rect x="160.56" y="210.73" width="1.05" height="14.65" transform="translate(322.17 436.11) rotate(180)" style="fill:#263238"></rect><rect x="127.49" y="180.76" width="94.72" height="21.87" transform="translate(349.69 383.39) rotate(180)" style="fill:#37474f"></rect><rect x="164.3" y="184.37" width="53.91" height="1.85" transform="translate(382.52 370.58) rotate(180)" style="fill:#455a64"></rect><rect x="164.3" y="187.57" width="53.91" height="1.85" transform="translate(382.52 376.99) rotate(180)" style="fill:#455a64"></rect><rect x="164.3" y="190.77" width="53.91" height="1.85" transform="translate(382.52 383.39) rotate(180)" style="fill:#455a64"></rect><rect x="164.3" y="193.97" width="53.91" height="1.85" transform="translate(382.52 389.79) rotate(180)" style="fill:#455a64"></rect><rect x="164.3" y="197.17" width="53.91" height="1.85" transform="translate(382.52 396.19) rotate(180)" style="fill:#455a64"></rect><circle cx="156.31" cy="186.2" r="1.83" style="fill:#FFC727"></circle><circle cx="150.27" cy="186.2" r="1.83" style="fill:#FFC727"></circle><circle cx="144.23" cy="186.2" r="1.83" style="fill:#ebebeb"></circle><path d="M136.37,186.2a1.83,1.83,0,1,0,1.83-1.83A1.83,1.83,0,0,0,136.37,186.2Z" style="fill:#FFC727"></path><path d="M130.33,186.2a1.83,1.83,0,1,0,1.83-1.83A1.83,1.83,0,0,0,130.33,186.2Z" style="fill:#FFC727"></path><path d="M154.48,191.69a1.83,1.83,0,1,0,1.83-1.83A1.82,1.82,0,0,0,154.48,191.69Z" style="fill:#ebebeb"></path><path d="M148.44,191.69a1.83,1.83,0,1,0,1.83-1.83A1.83,1.83,0,0,0,148.44,191.69Z" style="fill:#FFC727"></path><path d="M142.4,191.69a1.84,1.84,0,1,0,1.83-1.83A1.83,1.83,0,0,0,142.4,191.69Z" style="fill:#ebebeb"></path><path d="M136.37,191.69a1.83,1.83,0,1,0,1.83-1.83A1.83,1.83,0,0,0,136.37,191.69Z" style="fill:#FFC727"></path><path d="M130.33,191.69a1.83,1.83,0,1,0,1.83-1.83A1.83,1.83,0,0,0,130.33,191.69Z" style="fill:#ebebeb"></path><path d="M154.48,197.19a1.83,1.83,0,1,0,1.83-1.84A1.82,1.82,0,0,0,154.48,197.19Z" style="fill:#FFC727"></path><path d="M148.44,197.19a1.83,1.83,0,1,0,1.83-1.84A1.83,1.83,0,0,0,148.44,197.19Z" style="fill:#ebebeb"></path><path d="M142.4,197.19a1.84,1.84,0,1,0,1.83-1.84A1.83,1.83,0,0,0,142.4,197.19Z" style="fill:#FFC727"></path><path d="M136.37,197.19a1.83,1.83,0,1,0,1.83-1.84A1.83,1.83,0,0,0,136.37,197.19Z" style="fill:#FFC727"></path><path d="M130.33,197.19a1.83,1.83,0,1,0,1.83-1.84A1.83,1.83,0,0,0,130.33,197.19Z" style="fill:#FFC727"></path><rect x="160.56" y="184.37" width="1.05" height="14.65" transform="translate(322.17 383.39) rotate(180)" style="fill:#263238"></rect><rect x="142.94" y="162.55" width="124.85" height="6.94" transform="translate(410.73 332.04) rotate(180)" style="fill:#37474f"></rect><rect x="514.01" y="169.49" width="59.67" height="224.99" transform="translate(1087.7 563.97) rotate(180)" style="fill:#263238"></rect><rect x="404.2" y="169.49" width="109.81" height="224.99" transform="translate(918.22 563.97) rotate(180)" style="fill:#455a64"></rect><rect x="411.06" y="365.3" width="94.72" height="21.87" transform="translate(916.85 752.47) rotate(180)" style="fill:#37474f"></rect><rect x="447.88" y="368.91" width="53.91" height="1.85" transform="translate(949.67 739.67) rotate(180)" style="fill:#455a64"></rect><rect x="447.88" y="372.11" width="53.91" height="1.85" transform="translate(949.67 746.07) rotate(180)" style="fill:#455a64"></rect><rect x="447.88" y="375.31" width="53.91" height="1.85" transform="translate(949.67 752.47) rotate(180)" style="fill:#455a64"></rect><rect x="447.88" y="378.51" width="53.91" height="1.85" transform="translate(949.67 758.87) rotate(180)" style="fill:#455a64"></rect><rect x="447.88" y="381.71" width="53.91" height="1.85" transform="translate(949.67 765.27) rotate(180)" style="fill:#455a64"></rect><path d="M438.05,370.74a1.83,1.83,0,1,0,1.83-1.83A1.83,1.83,0,0,0,438.05,370.74Z" style="fill:#FFC727"></path><path d="M432,370.74a1.83,1.83,0,1,0,1.83-1.83A1.83,1.83,0,0,0,432,370.74Z" style="fill:#FFC727"></path><path d="M426,370.74a1.83,1.83,0,1,0,1.83-1.83A1.83,1.83,0,0,0,426,370.74Z" style="fill:#FFC727"></path><path d="M419.94,370.74a1.84,1.84,0,1,0,1.83-1.83A1.83,1.83,0,0,0,419.94,370.74Z" style="fill:#ebebeb"></path><path d="M413.91,370.74a1.83,1.83,0,1,0,1.83-1.83A1.83,1.83,0,0,0,413.91,370.74Z" style="fill:#FFC727"></path><path d="M438.05,376.23a1.83,1.83,0,1,0,1.83-1.83A1.83,1.83,0,0,0,438.05,376.23Z" style="fill:#ebebeb"></path><path d="M432,376.23a1.83,1.83,0,1,0,1.83-1.83A1.83,1.83,0,0,0,432,376.23Z" style="fill:#FFC727"></path><path d="M426,376.23a1.83,1.83,0,1,0,1.83-1.83A1.83,1.83,0,0,0,426,376.23Z" style="fill:#FFC727"></path><path d="M419.94,376.23a1.84,1.84,0,1,0,1.83-1.83A1.83,1.83,0,0,0,419.94,376.23Z" style="fill:#ebebeb"></path><path d="M413.91,376.23a1.83,1.83,0,1,0,1.83-1.83A1.83,1.83,0,0,0,413.91,376.23Z" style="fill:#ebebeb"></path><path d="M438.05,381.73a1.83,1.83,0,1,0,1.83-1.83A1.83,1.83,0,0,0,438.05,381.73Z" style="fill:#FFC727"></path><path d="M432,381.73a1.83,1.83,0,1,0,1.83-1.83A1.83,1.83,0,0,0,432,381.73Z" style="fill:#ebebeb"></path><path d="M426,381.73a1.83,1.83,0,1,0,1.83-1.83A1.83,1.83,0,0,0,426,381.73Z" style="fill:#FFC727"></path><path d="M419.94,381.73a1.84,1.84,0,1,0,1.83-1.83A1.83,1.83,0,0,0,419.94,381.73Z" style="fill:#FFC727"></path><path d="M413.91,381.73a1.83,1.83,0,1,0,1.83-1.83A1.83,1.83,0,0,0,413.91,381.73Z" style="fill:#FFC727"></path><rect x="444.13" y="368.91" width="1.05" height="14.65" transform="translate(889.32 752.47) rotate(180)" style="fill:#263238"></rect><rect x="411.06" y="338.93" width="94.72" height="21.87" transform="translate(916.85 699.74) rotate(180)" style="fill:#37474f"></rect><rect x="447.88" y="342.55" width="53.91" height="1.85" transform="translate(949.67 686.94) rotate(180)" style="fill:#455a64"></rect><rect x="447.88" y="345.75" width="53.91" height="1.85" transform="translate(949.67 693.34) rotate(180)" style="fill:#455a64"></rect><rect x="447.88" y="348.95" width="53.91" height="1.85" transform="translate(949.67 699.74) rotate(180)" style="fill:#455a64"></rect><rect x="447.88" y="352.15" width="53.91" height="1.85" transform="translate(949.67 706.14) rotate(180)" style="fill:#455a64"></rect><rect x="447.88" y="355.35" width="53.91" height="1.85" transform="translate(949.67 712.54) rotate(180)" style="fill:#455a64"></rect><path d="M438.05,344.38a1.83,1.83,0,1,0,1.83-1.83A1.83,1.83,0,0,0,438.05,344.38Z" style="fill:#ebebeb"></path><circle cx="433.85" cy="344.38" r="1.83" style="fill:#FFC727"></circle><circle cx="427.81" cy="344.38" r="1.83" style="fill:#FFC727"></circle><path d="M419.94,344.38a1.84,1.84,0,1,0,1.83-1.83A1.83,1.83,0,0,0,419.94,344.38Z" style="fill:#ebebeb"></path><path d="M413.91,344.38a1.83,1.83,0,1,0,1.83-1.83A1.83,1.83,0,0,0,413.91,344.38Z" style="fill:#FFC727"></path><path d="M438.05,349.87a1.83,1.83,0,1,0,1.83-1.83A1.83,1.83,0,0,0,438.05,349.87Z" style="fill:#FFC727"></path><circle cx="433.85" cy="349.87" r="1.83" style="fill:#FFC727"></circle><circle cx="427.81" cy="349.87" r="1.83" style="fill:#ebebeb"></circle><path d="M419.94,349.87a1.84,1.84,0,1,0,1.83-1.83A1.83,1.83,0,0,0,419.94,349.87Z" style="fill:#ebebeb"></path><path d="M413.91,349.87a1.83,1.83,0,1,0,1.83-1.83A1.83,1.83,0,0,0,413.91,349.87Z" style="fill:#FFC727"></path><path d="M438.05,355.36a1.83,1.83,0,1,0,1.83-1.83A1.83,1.83,0,0,0,438.05,355.36Z" style="fill:#FFC727"></path><circle cx="433.85" cy="355.36" r="1.83" style="fill:#ebebeb"></circle><circle cx="427.81" cy="355.36" r="1.83" style="fill:#FFC727"></circle><path d="M419.94,355.36a1.84,1.84,0,1,0,1.83-1.83A1.83,1.83,0,0,0,419.94,355.36Z" style="fill:#FFC727"></path><path d="M413.91,355.36a1.83,1.83,0,1,0,1.83-1.83A1.83,1.83,0,0,0,413.91,355.36Z" style="fill:#ebebeb"></path><rect x="444.13" y="342.55" width="1.05" height="14.65" transform="translate(889.32 699.74) rotate(180)" style="fill:#263238"></rect><rect x="411.06" y="312.57" width="94.72" height="21.87" transform="translate(916.85 647.02) rotate(180)" style="fill:#37474f"></rect><rect x="447.88" y="316.18" width="53.91" height="1.85" transform="translate(949.67 634.21) rotate(180)" style="fill:#455a64"></rect><rect x="447.88" y="319.38" width="53.91" height="1.85" transform="translate(949.67 640.62) rotate(180)" style="fill:#455a64"></rect><rect x="447.88" y="322.59" width="53.91" height="1.85" transform="translate(949.67 647.02) rotate(180)" style="fill:#455a64"></rect><rect x="447.88" y="325.79" width="53.91" height="1.85" transform="translate(949.67 653.42) rotate(180)" style="fill:#455a64"></rect><rect x="447.88" y="328.99" width="53.91" height="1.85" transform="translate(949.67 659.82) rotate(180)" style="fill:#455a64"></rect><path d="M438.05,318a1.83,1.83,0,1,0,1.83-1.84A1.83,1.83,0,0,0,438.05,318Z" style="fill:#ebebeb"></path><path d="M432,318a1.83,1.83,0,1,0,1.83-1.84A1.83,1.83,0,0,0,432,318Z" style="fill:#FFC727"></path><path d="M426,318a1.83,1.83,0,1,0,1.83-1.84A1.83,1.83,0,0,0,426,318Z" style="fill:#ebebeb"></path><path d="M419.94,318a1.84,1.84,0,1,0,1.83-1.84A1.83,1.83,0,0,0,419.94,318Z" style="fill:#FFC727"></path><path d="M413.91,318a1.83,1.83,0,1,0,1.83-1.84A1.83,1.83,0,0,0,413.91,318Z" style="fill:#FFC727"></path><path d="M438.05,323.51a1.83,1.83,0,1,0,1.83-1.83A1.83,1.83,0,0,0,438.05,323.51Z" style="fill:#FFC727"></path><path d="M432,323.51a1.83,1.83,0,1,0,1.83-1.83A1.83,1.83,0,0,0,432,323.51Z" style="fill:#ebebeb"></path><path d="M426,323.51a1.83,1.83,0,1,0,1.83-1.83A1.83,1.83,0,0,0,426,323.51Z" style="fill:#ebebeb"></path><path d="M419.94,323.51a1.84,1.84,0,1,0,1.83-1.83A1.83,1.83,0,0,0,419.94,323.51Z" style="fill:#FFC727"></path><path d="M413.91,323.51a1.83,1.83,0,1,0,1.83-1.83A1.83,1.83,0,0,0,413.91,323.51Z" style="fill:#ebebeb"></path><path d="M438.05,329a1.83,1.83,0,1,0,1.83-1.83A1.83,1.83,0,0,0,438.05,329Z" style="fill:#ebebeb"></path><path d="M432,329a1.83,1.83,0,1,0,1.83-1.83A1.83,1.83,0,0,0,432,329Z" style="fill:#FFC727"></path><path d="M426,329a1.83,1.83,0,1,0,1.83-1.83A1.83,1.83,0,0,0,426,329Z" style="fill:#FFC727"></path><path d="M419.94,329a1.84,1.84,0,1,0,1.83-1.83A1.83,1.83,0,0,0,419.94,329Z" style="fill:#ebebeb"></path><path d="M413.91,329a1.83,1.83,0,1,0,1.83-1.83A1.83,1.83,0,0,0,413.91,329Z" style="fill:#FFC727"></path><rect x="444.13" y="316.18" width="1.05" height="14.65" transform="translate(889.32 647.02) rotate(180)" style="fill:#263238"></rect><rect x="411.06" y="286.21" width="94.72" height="21.87" transform="translate(916.85 594.29) rotate(180)" style="fill:#37474f"></rect><rect x="447.88" y="289.82" width="53.91" height="1.85" transform="translate(949.67 581.49) rotate(180)" style="fill:#455a64"></rect><rect x="447.88" y="293.02" width="53.91" height="1.85" transform="translate(949.67 587.89) rotate(180)" style="fill:#455a64"></rect><rect x="447.88" y="296.22" width="53.91" height="1.85" transform="translate(949.67 594.29) rotate(180)" style="fill:#455a64"></rect><rect x="447.88" y="299.42" width="53.91" height="1.85" transform="translate(949.67 600.69) rotate(180)" style="fill:#455a64"></rect><rect x="447.88" y="302.62" width="53.91" height="1.85" transform="translate(949.67 607.09) rotate(180)" style="fill:#455a64"></rect><path d="M438.05,291.65a1.83,1.83,0,1,0,1.83-1.83A1.83,1.83,0,0,0,438.05,291.65Z" style="fill:#FFC727"></path><path d="M432,291.65a1.83,1.83,0,1,0,1.83-1.83A1.83,1.83,0,0,0,432,291.65Z" style="fill:#FFC727"></path><path d="M426,291.65a1.83,1.83,0,1,0,1.83-1.83A1.83,1.83,0,0,0,426,291.65Z" style="fill:#FFC727"></path><path d="M419.94,291.65a1.84,1.84,0,1,0,1.83-1.83A1.83,1.83,0,0,0,419.94,291.65Z" style="fill:#FFC727"></path><path d="M413.91,291.65a1.83,1.83,0,1,0,1.83-1.83A1.83,1.83,0,0,0,413.91,291.65Z" style="fill:#ebebeb"></path><path d="M438.05,297.15a1.83,1.83,0,1,0,1.83-1.84A1.83,1.83,0,0,0,438.05,297.15Z" style="fill:#ebebeb"></path><path d="M432,297.15a1.83,1.83,0,1,0,1.83-1.84A1.83,1.83,0,0,0,432,297.15Z" style="fill:#ebebeb"></path><path d="M426,297.15a1.83,1.83,0,1,0,1.83-1.84A1.83,1.83,0,0,0,426,297.15Z" style="fill:#FFC727"></path><path d="M419.94,297.15a1.84,1.84,0,1,0,1.83-1.84A1.83,1.83,0,0,0,419.94,297.15Z" style="fill:#ebebeb"></path><path d="M413.91,297.15a1.83,1.83,0,1,0,1.83-1.84A1.83,1.83,0,0,0,413.91,297.15Z" style="fill:#FFC727"></path><path d="M438.05,302.64a1.83,1.83,0,1,0,1.83-1.83A1.83,1.83,0,0,0,438.05,302.64Z" style="fill:#FFC727"></path><path d="M432,302.64a1.83,1.83,0,1,0,1.83-1.83A1.83,1.83,0,0,0,432,302.64Z" style="fill:#FFC727"></path><path d="M426,302.64a1.83,1.83,0,1,0,1.83-1.83A1.83,1.83,0,0,0,426,302.64Z" style="fill:#ebebeb"></path><path d="M419.94,302.64a1.84,1.84,0,1,0,1.83-1.83A1.83,1.83,0,0,0,419.94,302.64Z" style="fill:#FFC727"></path><path d="M413.91,302.64a1.83,1.83,0,1,0,1.83-1.83A1.83,1.83,0,0,0,413.91,302.64Z" style="fill:#ebebeb"></path><rect x="444.13" y="289.82" width="1.05" height="14.65" transform="translate(889.32 594.29) rotate(180)" style="fill:#263238"></rect><rect x="411.06" y="259.85" width="94.72" height="21.87" transform="translate(916.85 541.56) rotate(180)" style="fill:#37474f"></rect><rect x="447.88" y="263.46" width="53.91" height="1.85" transform="translate(949.67 528.76) rotate(180)" style="fill:#455a64"></rect><rect x="447.88" y="266.66" width="53.91" height="1.85" transform="translate(949.67 535.16) rotate(180)" style="fill:#455a64"></rect><rect x="447.88" y="269.86" width="53.91" height="1.85" transform="translate(949.67 541.56) rotate(180)" style="fill:#455a64"></rect><rect x="447.88" y="273.06" width="53.91" height="1.85" transform="translate(949.67 547.97) rotate(180)" style="fill:#455a64"></rect><rect x="447.88" y="276.26" width="53.91" height="1.85" transform="translate(949.67 554.37) rotate(180)" style="fill:#455a64"></rect><path d="M438.05,265.29a1.83,1.83,0,1,0,1.83-1.83A1.83,1.83,0,0,0,438.05,265.29Z" style="fill:#FFC727"></path><path d="M432,265.29a1.83,1.83,0,1,0,1.83-1.83A1.83,1.83,0,0,0,432,265.29Z" style="fill:#FFC727"></path><path d="M426,265.29a1.83,1.83,0,1,0,1.83-1.83A1.83,1.83,0,0,0,426,265.29Z" style="fill:#FFC727"></path><path d="M419.94,265.29a1.84,1.84,0,1,0,1.83-1.83A1.83,1.83,0,0,0,419.94,265.29Z" style="fill:#FFC727"></path><path d="M413.91,265.29a1.83,1.83,0,1,0,1.83-1.83A1.83,1.83,0,0,0,413.91,265.29Z" style="fill:#ebebeb"></path><path d="M438.05,270.78a1.83,1.83,0,1,0,1.83-1.83A1.83,1.83,0,0,0,438.05,270.78Z" style="fill:#ebebeb"></path><path d="M432,270.78a1.83,1.83,0,1,0,1.83-1.83A1.83,1.83,0,0,0,432,270.78Z" style="fill:#FFC727"></path><path d="M426,270.78a1.83,1.83,0,1,0,1.83-1.83A1.83,1.83,0,0,0,426,270.78Z" style="fill:#FFC727"></path><path d="M419.94,270.78a1.84,1.84,0,1,0,1.83-1.83A1.83,1.83,0,0,0,419.94,270.78Z" style="fill:#ebebeb"></path><path d="M413.91,270.78a1.83,1.83,0,1,0,1.83-1.83A1.83,1.83,0,0,0,413.91,270.78Z" style="fill:#FFC727"></path><path d="M438.05,276.27a1.83,1.83,0,1,0,1.83-1.83A1.83,1.83,0,0,0,438.05,276.27Z" style="fill:#ebebeb"></path><path d="M432,276.27a1.83,1.83,0,1,0,1.83-1.83A1.83,1.83,0,0,0,432,276.27Z" style="fill:#ebebeb"></path><path d="M426,276.27a1.83,1.83,0,1,0,1.83-1.83A1.83,1.83,0,0,0,426,276.27Z" style="fill:#FFC727"></path><path d="M419.94,276.27a1.84,1.84,0,1,0,1.83-1.83A1.83,1.83,0,0,0,419.94,276.27Z" style="fill:#FFC727"></path><path d="M413.91,276.27a1.83,1.83,0,1,0,1.83-1.83A1.83,1.83,0,0,0,413.91,276.27Z" style="fill:#ebebeb"></path><rect x="444.13" y="263.46" width="1.05" height="14.65" transform="translate(889.32 541.56) rotate(180)" style="fill:#263238"></rect><rect x="411.06" y="233.48" width="94.72" height="21.87" transform="translate(916.85 488.84) rotate(180)" style="fill:#37474f"></rect><rect x="447.88" y="237.1" width="53.91" height="1.85" transform="translate(949.67 476.04) rotate(180)" style="fill:#455a64"></rect><rect x="447.88" y="240.3" width="53.91" height="1.85" transform="translate(949.67 482.44) rotate(180)" style="fill:#455a64"></rect><rect x="447.88" y="243.5" width="53.91" height="1.85" transform="translate(949.67 488.84) rotate(180)" style="fill:#455a64"></rect><rect x="447.88" y="246.7" width="53.91" height="1.85" transform="translate(949.67 495.24) rotate(180)" style="fill:#455a64"></rect><rect x="447.88" y="249.9" width="53.91" height="1.85" transform="translate(949.67 501.64) rotate(180)" style="fill:#455a64"></rect><path d="M438.05,238.93a1.83,1.83,0,1,0,1.83-1.83A1.83,1.83,0,0,0,438.05,238.93Z" style="fill:#ebebeb"></path><path d="M432,238.93a1.83,1.83,0,1,0,1.83-1.83A1.83,1.83,0,0,0,432,238.93Z" style="fill:#FFC727"></path><path d="M426,238.93a1.83,1.83,0,1,0,1.83-1.83A1.83,1.83,0,0,0,426,238.93Z" style="fill:#FFC727"></path><path d="M419.94,238.93a1.84,1.84,0,1,0,1.83-1.83A1.83,1.83,0,0,0,419.94,238.93Z" style="fill:#ebebeb"></path><path d="M413.91,238.93a1.83,1.83,0,1,0,1.83-1.83A1.83,1.83,0,0,0,413.91,238.93Z" style="fill:#FFC727"></path><path d="M438.05,244.42a1.83,1.83,0,1,0,1.83-1.83A1.83,1.83,0,0,0,438.05,244.42Z" style="fill:#FFC727"></path><path d="M432,244.42a1.83,1.83,0,1,0,1.83-1.83A1.83,1.83,0,0,0,432,244.42Z" style="fill:#ebebeb"></path><path d="M426,244.42a1.83,1.83,0,1,0,1.83-1.83A1.83,1.83,0,0,0,426,244.42Z" style="fill:#FFC727"></path><path d="M419.94,244.42a1.84,1.84,0,1,0,1.83-1.83A1.83,1.83,0,0,0,419.94,244.42Z" style="fill:#FFC727"></path><path d="M413.91,244.42a1.83,1.83,0,1,0,1.83-1.83A1.83,1.83,0,0,0,413.91,244.42Z" style="fill:#ebebeb"></path><path d="M438.05,249.91a1.83,1.83,0,1,0,1.83-1.83A1.83,1.83,0,0,0,438.05,249.91Z" style="fill:#FFC727"></path><path d="M432,249.91a1.83,1.83,0,1,0,1.83-1.83A1.83,1.83,0,0,0,432,249.91Z" style="fill:#FFC727"></path><path d="M426,249.91a1.83,1.83,0,1,0,1.83-1.83A1.83,1.83,0,0,0,426,249.91Z" style="fill:#ebebeb"></path><path d="M419.94,249.91a1.84,1.84,0,1,0,1.83-1.83A1.83,1.83,0,0,0,419.94,249.91Z" style="fill:#ebebeb"></path><path d="M413.91,249.91a1.83,1.83,0,1,0,1.83-1.83A1.83,1.83,0,0,0,413.91,249.91Z" style="fill:#FFC727"></path><rect x="444.13" y="237.1" width="1.05" height="14.65" transform="translate(889.32 488.84) rotate(180)" style="fill:#263238"></rect><rect x="389.92" y="207.12" width="94.72" height="21.87" transform="translate(874.55 436.11) rotate(180)" style="fill:#37474f"></rect><rect x="426.73" y="210.73" width="53.91" height="1.85" transform="translate(907.38 423.31) rotate(180)" style="fill:#455a64"></rect><rect x="426.73" y="213.93" width="53.91" height="1.85" transform="translate(907.38 429.71) rotate(180)" style="fill:#455a64"></rect><rect x="426.73" y="217.13" width="53.91" height="1.85" transform="translate(907.38 436.11) rotate(180)" style="fill:#455a64"></rect><rect x="426.73" y="220.33" width="53.91" height="1.85" transform="translate(907.38 442.51) rotate(180)" style="fill:#455a64"></rect><rect x="426.73" y="223.53" width="53.91" height="1.85" transform="translate(907.38 448.91) rotate(180)" style="fill:#455a64"></rect><circle cx="418.74" cy="212.56" r="1.83" style="fill:#FFC727"></circle><circle cx="412.7" cy="212.56" r="1.83" style="fill:#FFC727"></circle><circle cx="406.66" cy="212.56" r="1.83" style="fill:#FFC727"></circle><path d="M398.8,212.56a1.83,1.83,0,1,0,1.83-1.83A1.83,1.83,0,0,0,398.8,212.56Z" style="fill:#FFC727"></path><path d="M392.76,212.56a1.83,1.83,0,1,0,1.83-1.83A1.83,1.83,0,0,0,392.76,212.56Z" style="fill:#ebebeb"></path><circle cx="418.74" cy="218.06" r="1.83" style="fill:#FFC727"></circle><circle cx="412.7" cy="218.06" r="1.83" style="fill:#ebebeb"></circle><circle cx="406.66" cy="218.06" r="1.83" style="fill:#FFC727"></circle><path d="M398.8,218.06a1.83,1.83,0,1,0,1.83-1.83A1.83,1.83,0,0,0,398.8,218.06Z" style="fill:#FFC727"></path><path d="M392.76,218.06a1.83,1.83,0,1,0,1.83-1.83A1.83,1.83,0,0,0,392.76,218.06Z" style="fill:#ebebeb"></path><path d="M416.9,223.55a1.84,1.84,0,1,0,1.84-1.83A1.83,1.83,0,0,0,416.9,223.55Z" style="fill:#FFC727"></path><path d="M410.87,223.55a1.83,1.83,0,1,0,1.83-1.83A1.83,1.83,0,0,0,410.87,223.55Z" style="fill:#FFC727"></path><path d="M404.83,223.55a1.83,1.83,0,1,0,1.83-1.83A1.83,1.83,0,0,0,404.83,223.55Z" style="fill:#FFC727"></path><path d="M398.8,223.55a1.83,1.83,0,1,0,1.83-1.83A1.83,1.83,0,0,0,398.8,223.55Z" style="fill:#ebebeb"></path><path d="M392.76,223.55a1.83,1.83,0,1,0,1.83-1.83A1.83,1.83,0,0,0,392.76,223.55Z" style="fill:#FFC727"></path><rect x="422.98" y="210.73" width="1.05" height="14.65" transform="translate(847.02 436.11) rotate(180)" style="fill:#263238"></rect><rect x="484.63" y="207.12" width="21.15" height="21.87" transform="translate(990.41 436.11) rotate(180)" style="fill:#263238"></rect><rect x="411.06" y="180.76" width="94.72" height="21.87" transform="translate(916.85 383.39) rotate(180)" style="fill:#37474f"></rect><rect x="447.88" y="184.37" width="53.91" height="1.85" transform="translate(949.67 370.58) rotate(180)" style="fill:#455a64"></rect><rect x="447.88" y="187.57" width="53.91" height="1.85" transform="translate(949.67 376.99) rotate(180)" style="fill:#455a64"></rect><rect x="447.88" y="190.77" width="53.91" height="1.85" transform="translate(949.67 383.39) rotate(180)" style="fill:#455a64"></rect><rect x="447.88" y="193.97" width="53.91" height="1.85" transform="translate(949.67 389.79) rotate(180)" style="fill:#455a64"></rect><rect x="447.88" y="197.17" width="53.91" height="1.85" transform="translate(949.67 396.19) rotate(180)" style="fill:#455a64"></rect><path d="M438.05,186.2a1.83,1.83,0,1,0,1.83-1.83A1.83,1.83,0,0,0,438.05,186.2Z" style="fill:#FFC727"></path><circle cx="433.85" cy="186.2" r="1.83" style="fill:#ebebeb"></circle><circle cx="427.81" cy="186.2" r="1.83" style="fill:#FFC727"></circle><path d="M419.94,186.2a1.84,1.84,0,1,0,1.83-1.83A1.83,1.83,0,0,0,419.94,186.2Z" style="fill:#ebebeb"></path><path d="M413.91,186.2a1.83,1.83,0,1,0,1.83-1.83A1.83,1.83,0,0,0,413.91,186.2Z" style="fill:#FFC727"></path><path d="M438.05,191.69a1.83,1.83,0,1,0,1.83-1.83A1.83,1.83,0,0,0,438.05,191.69Z" style="fill:#FFC727"></path><path d="M432,191.69a1.83,1.83,0,1,0,1.83-1.83A1.83,1.83,0,0,0,432,191.69Z" style="fill:#FFC727"></path><path d="M426,191.69a1.83,1.83,0,1,0,1.83-1.83A1.83,1.83,0,0,0,426,191.69Z" style="fill:#FFC727"></path><path d="M419.94,191.69a1.84,1.84,0,1,0,1.83-1.83A1.83,1.83,0,0,0,419.94,191.69Z" style="fill:#FFC727"></path><path d="M413.91,191.69a1.83,1.83,0,1,0,1.83-1.83A1.83,1.83,0,0,0,413.91,191.69Z" style="fill:#ebebeb"></path><path d="M438.05,197.19a1.83,1.83,0,1,0,1.83-1.84A1.83,1.83,0,0,0,438.05,197.19Z" style="fill:#FFC727"></path><path d="M432,197.19a1.83,1.83,0,1,0,1.83-1.84A1.83,1.83,0,0,0,432,197.19Z" style="fill:#ebebeb"></path><path d="M426,197.19a1.83,1.83,0,1,0,1.83-1.84A1.83,1.83,0,0,0,426,197.19Z" style="fill:#FFC727"></path><path d="M419.94,197.19a1.84,1.84,0,1,0,1.83-1.84A1.83,1.83,0,0,0,419.94,197.19Z" style="fill:#FFC727"></path><path d="M413.91,197.19a1.83,1.83,0,1,0,1.83-1.84A1.83,1.83,0,0,0,413.91,197.19Z" style="fill:#FFC727"></path><rect x="444.13" y="184.37" width="1.05" height="14.65" transform="translate(889.32 383.39) rotate(180)" style="fill:#263238"></rect><rect x="426.52" y="162.55" width="124.85" height="6.94" transform="translate(977.89 332.04) rotate(180)" style="fill:#37474f"></rect><rect x="290.81" y="253.43" width="90.37" height="135.46" style="fill:#263238"></rect><rect x="275.89" y="372.47" width="105.29" height="21.87" transform="translate(657.08 766.82) rotate(180)" style="fill:#37474f"></rect><rect x="312.71" y="376.09" width="64.49" height="1.85" transform="translate(689.9 754.02) rotate(180)" style="fill:#455a64"></rect><rect x="312.71" y="379.29" width="64.49" height="1.85" transform="translate(689.9 760.42) rotate(180)" style="fill:#455a64"></rect><rect x="312.71" y="382.49" width="64.49" height="1.85" transform="translate(689.9 766.82) rotate(180)" style="fill:#455a64"></rect><rect x="312.71" y="385.69" width="64.49" height="1.85" transform="translate(689.9 773.22) rotate(180)" style="fill:#455a64"></rect><rect x="312.71" y="388.89" width="64.49" height="1.85" transform="translate(689.9 779.62) rotate(180)" style="fill:#455a64"></rect><path d="M302.88,377.92a1.83,1.83,0,1,0,1.83-1.83A1.83,1.83,0,0,0,302.88,377.92Z" style="fill:#fff"></path><path d="M296.84,377.92a1.84,1.84,0,1,0,1.84-1.83A1.83,1.83,0,0,0,296.84,377.92Z" style="fill:#263238"></path><path d="M290.81,377.92a1.83,1.83,0,1,0,1.83-1.83A1.83,1.83,0,0,0,290.81,377.92Z" style="fill:#fff"></path><path d="M284.77,377.92a1.83,1.83,0,1,0,1.83-1.83A1.83,1.83,0,0,0,284.77,377.92Z" style="fill:#fff"></path><path d="M278.74,377.92a1.83,1.83,0,1,0,1.83-1.83A1.83,1.83,0,0,0,278.74,377.92Z" style="fill:#263238"></path><path d="M302.88,383.41a1.83,1.83,0,1,0,1.83-1.83A1.83,1.83,0,0,0,302.88,383.41Z" style="fill:#263238"></path><path d="M296.84,383.41a1.84,1.84,0,1,0,1.84-1.83A1.83,1.83,0,0,0,296.84,383.41Z" style="fill:#fff"></path><path d="M290.81,383.41a1.83,1.83,0,1,0,1.83-1.83A1.83,1.83,0,0,0,290.81,383.41Z" style="fill:#263238"></path><path d="M284.77,383.41a1.83,1.83,0,1,0,1.83-1.83A1.83,1.83,0,0,0,284.77,383.41Z" style="fill:#fff"></path><path d="M278.74,383.41a1.83,1.83,0,1,0,1.83-1.83A1.83,1.83,0,0,0,278.74,383.41Z" style="fill:#263238"></path><path d="M302.88,388.9a1.83,1.83,0,1,0,1.83-1.83A1.83,1.83,0,0,0,302.88,388.9Z" style="fill:#263238"></path><path d="M296.84,388.9a1.84,1.84,0,1,0,1.84-1.83A1.83,1.83,0,0,0,296.84,388.9Z" style="fill:#fff"></path><path d="M290.81,388.9a1.83,1.83,0,1,0,1.83-1.83A1.83,1.83,0,0,0,290.81,388.9Z" style="fill:#fff"></path><path d="M284.77,388.9a1.83,1.83,0,1,0,1.83-1.83A1.83,1.83,0,0,0,284.77,388.9Z" style="fill:#fff"></path><path d="M278.74,388.9a1.83,1.83,0,1,0,1.83-1.83A1.83,1.83,0,0,0,278.74,388.9Z" style="fill:#fff"></path><rect x="308.96" y="376.09" width="1.05" height="14.65" transform="translate(618.98 766.82) rotate(180)" style="fill:#263238"></rect><rect x="381.18" y="372.47" width="19.14" height="21.87" style="fill:#263238"></rect><rect x="275.89" y="347.17" width="105.29" height="21.87" transform="translate(657.08 716.21) rotate(180)" style="fill:#37474f"></rect><rect x="312.71" y="350.78" width="64.49" height="1.85" transform="translate(689.9 703.41) rotate(180)" style="fill:#455a64"></rect><rect x="312.71" y="353.98" width="64.49" height="1.85" transform="translate(689.9 709.81) rotate(180)" style="fill:#455a64"></rect><rect x="312.71" y="357.18" width="64.49" height="1.85" transform="translate(689.9 716.21) rotate(180)" style="fill:#455a64"></rect><rect x="312.71" y="360.38" width="64.49" height="1.85" transform="translate(689.9 722.61) rotate(180)" style="fill:#455a64"></rect><rect x="312.71" y="363.58" width="64.49" height="1.85" transform="translate(689.9 729.01) rotate(180)" style="fill:#455a64"></rect><path d="M302.88,352.61a1.83,1.83,0,1,0,1.83-1.83A1.83,1.83,0,0,0,302.88,352.61Z" style="fill:#263238"></path><circle cx="298.68" cy="352.61" r="1.83" style="fill:#fff"></circle><circle cx="292.64" cy="352.61" r="1.83" style="fill:#fff"></circle><path d="M284.77,352.61a1.83,1.83,0,1,0,1.83-1.83A1.83,1.83,0,0,0,284.77,352.61Z" style="fill:#fff"></path><path d="M278.74,352.61a1.83,1.83,0,1,0,1.83-1.83A1.83,1.83,0,0,0,278.74,352.61Z" style="fill:#263238"></path><path d="M302.88,358.1a1.83,1.83,0,1,0,1.83-1.83A1.83,1.83,0,0,0,302.88,358.1Z" style="fill:#fff"></path><path d="M296.84,358.1a1.84,1.84,0,1,0,1.84-1.83A1.83,1.83,0,0,0,296.84,358.1Z" style="fill:#263238"></path><path d="M290.81,358.1a1.83,1.83,0,1,0,1.83-1.83A1.83,1.83,0,0,0,290.81,358.1Z" style="fill:#263238"></path><path d="M284.77,358.1a1.83,1.83,0,1,0,1.83-1.83A1.83,1.83,0,0,0,284.77,358.1Z" style="fill:#263238"></path><path d="M278.74,358.1a1.83,1.83,0,1,0,1.83-1.83A1.83,1.83,0,0,0,278.74,358.1Z" style="fill:#fff"></path><path d="M302.88,363.6a1.83,1.83,0,1,0,1.83-1.83A1.83,1.83,0,0,0,302.88,363.6Z" style="fill:#fff"></path><circle cx="298.68" cy="363.6" r="1.83" style="fill:#fff"></circle><circle cx="292.64" cy="363.6" r="1.83" style="fill:#263238"></circle><path d="M284.77,363.6a1.83,1.83,0,1,0,1.83-1.83A1.83,1.83,0,0,0,284.77,363.6Z" style="fill:#fff"></path><path d="M278.74,363.6a1.83,1.83,0,1,0,1.83-1.83A1.83,1.83,0,0,0,278.74,363.6Z" style="fill:#fff"></path><rect x="308.96" y="350.78" width="1.05" height="14.65" transform="translate(618.98 716.21) rotate(180)" style="fill:#263238"></rect><rect x="381.18" y="347.17" width="19.14" height="21.87" style="fill:#263238"></rect><rect x="275.89" y="320.8" width="105.29" height="21.87" transform="translate(657.08 663.48) rotate(180)" style="fill:#37474f"></rect><rect x="312.71" y="324.42" width="64.49" height="1.85" transform="translate(689.9 650.68) rotate(180)" style="fill:#455a64"></rect><rect x="312.71" y="327.62" width="64.49" height="1.85" transform="translate(689.9 657.08) rotate(180)" style="fill:#455a64"></rect><rect x="312.71" y="330.82" width="64.49" height="1.85" transform="translate(689.9 663.48) rotate(180)" style="fill:#455a64"></rect><rect x="312.71" y="334.02" width="64.49" height="1.85" transform="translate(689.9 669.88) rotate(180)" style="fill:#455a64"></rect><rect x="312.71" y="337.22" width="64.49" height="1.85" transform="translate(689.9 676.28) rotate(180)" style="fill:#455a64"></rect><path d="M302.88,326.25a1.83,1.83,0,1,0,1.83-1.83A1.83,1.83,0,0,0,302.88,326.25Z" style="fill:#263238"></path><path d="M296.84,326.25a1.84,1.84,0,1,0,1.84-1.83A1.83,1.83,0,0,0,296.84,326.25Z" style="fill:#fff"></path><path d="M290.81,326.25a1.83,1.83,0,1,0,1.83-1.83A1.83,1.83,0,0,0,290.81,326.25Z" style="fill:#fff"></path><path d="M284.77,326.25a1.83,1.83,0,1,0,1.83-1.83A1.83,1.83,0,0,0,284.77,326.25Z" style="fill:#fff"></path><path d="M278.74,326.25a1.83,1.83,0,1,0,1.83-1.83A1.83,1.83,0,0,0,278.74,326.25Z" style="fill:#263238"></path><path d="M302.88,331.74a1.83,1.83,0,1,0,1.83-1.83A1.83,1.83,0,0,0,302.88,331.74Z" style="fill:#fff"></path><path d="M296.84,331.74a1.84,1.84,0,1,0,1.84-1.83A1.83,1.83,0,0,0,296.84,331.74Z" style="fill:#fff"></path><path d="M290.81,331.74a1.83,1.83,0,1,0,1.83-1.83A1.83,1.83,0,0,0,290.81,331.74Z" style="fill:#263238"></path><path d="M284.77,331.74a1.83,1.83,0,1,0,1.83-1.83A1.83,1.83,0,0,0,284.77,331.74Z" style="fill:#263238"></path><path d="M278.74,331.74a1.83,1.83,0,1,0,1.83-1.83A1.83,1.83,0,0,0,278.74,331.74Z" style="fill:#fff"></path><path d="M302.88,337.23a1.83,1.83,0,1,0,1.83-1.83A1.83,1.83,0,0,0,302.88,337.23Z" style="fill:#263238"></path><path d="M296.84,337.23a1.84,1.84,0,1,0,1.84-1.83A1.83,1.83,0,0,0,296.84,337.23Z" style="fill:#fff"></path><path d="M290.81,337.23a1.83,1.83,0,1,0,1.83-1.83A1.83,1.83,0,0,0,290.81,337.23Z" style="fill:#fff"></path><path d="M284.77,337.23a1.83,1.83,0,1,0,1.83-1.83A1.83,1.83,0,0,0,284.77,337.23Z" style="fill:#fff"></path><path d="M278.74,337.23a1.83,1.83,0,1,0,1.83-1.83A1.83,1.83,0,0,0,278.74,337.23Z" style="fill:#263238"></path><rect x="308.96" y="324.42" width="1.05" height="14.65" transform="translate(618.98 663.48) rotate(180)" style="fill:#263238"></rect><rect x="381.18" y="320.8" width="19.14" height="21.87" style="fill:#263238"></rect><rect x="275.89" y="294.44" width="105.29" height="21.87" transform="translate(657.08 610.76) rotate(180)" style="fill:#37474f"></rect><rect x="312.71" y="298.05" width="64.49" height="1.85" transform="translate(689.9 597.95) rotate(180)" style="fill:#455a64"></rect><rect x="312.71" y="301.25" width="64.49" height="1.85" transform="translate(689.9 604.35) rotate(180)" style="fill:#455a64"></rect><rect x="312.71" y="304.45" width="64.49" height="1.85" transform="translate(689.9 610.76) rotate(180)" style="fill:#455a64"></rect><rect x="312.71" y="307.65" width="64.49" height="1.85" transform="translate(689.9 617.16) rotate(180)" style="fill:#455a64"></rect><rect x="312.71" y="310.86" width="64.49" height="1.85" transform="translate(689.9 623.56) rotate(180)" style="fill:#455a64"></rect><path d="M302.88,299.88a1.83,1.83,0,1,0,1.83-1.83A1.83,1.83,0,0,0,302.88,299.88Z" style="fill:#fff"></path><path d="M296.84,299.88a1.84,1.84,0,1,0,1.84-1.83A1.84,1.84,0,0,0,296.84,299.88Z" style="fill:#263238"></path><path d="M290.81,299.88a1.83,1.83,0,1,0,1.83-1.83A1.83,1.83,0,0,0,290.81,299.88Z" style="fill:#fff"></path><path d="M284.77,299.88a1.83,1.83,0,1,0,1.83-1.83A1.83,1.83,0,0,0,284.77,299.88Z" style="fill:#fff"></path><path d="M278.74,299.88a1.83,1.83,0,1,0,1.83-1.83A1.83,1.83,0,0,0,278.74,299.88Z" style="fill:#263238"></path><path d="M302.88,305.38a1.83,1.83,0,1,0,1.83-1.83A1.83,1.83,0,0,0,302.88,305.38Z" style="fill:#fff"></path><path d="M296.84,305.38a1.84,1.84,0,1,0,1.84-1.83A1.83,1.83,0,0,0,296.84,305.38Z" style="fill:#fff"></path><path d="M290.81,305.38a1.83,1.83,0,1,0,1.83-1.83A1.83,1.83,0,0,0,290.81,305.38Z" style="fill:#263238"></path><path d="M284.77,305.38a1.83,1.83,0,1,0,1.83-1.83A1.83,1.83,0,0,0,284.77,305.38Z" style="fill:#263238"></path><path d="M278.74,305.38a1.83,1.83,0,1,0,1.83-1.83A1.83,1.83,0,0,0,278.74,305.38Z" style="fill:#fff"></path><path d="M302.88,310.87a1.83,1.83,0,1,0,1.83-1.83A1.83,1.83,0,0,0,302.88,310.87Z" style="fill:#263238"></path><path d="M296.84,310.87a1.84,1.84,0,1,0,1.84-1.83A1.83,1.83,0,0,0,296.84,310.87Z" style="fill:#fff"></path><path d="M290.81,310.87a1.83,1.83,0,1,0,1.83-1.83A1.83,1.83,0,0,0,290.81,310.87Z" style="fill:#fff"></path><path d="M284.77,310.87A1.83,1.83,0,1,0,286.6,309,1.83,1.83,0,0,0,284.77,310.87Z" style="fill:#263238"></path><path d="M278.74,310.87a1.83,1.83,0,1,0,1.83-1.83A1.83,1.83,0,0,0,278.74,310.87Z" style="fill:#fff"></path><rect x="308.96" y="298.05" width="1.05" height="14.65" transform="translate(618.98 610.76) rotate(180)" style="fill:#263238"></rect><rect x="381.18" y="294.44" width="19.14" height="21.87" style="fill:#263238"></rect><rect x="275.89" y="268.08" width="105.29" height="21.87" transform="translate(657.08 558.03) rotate(180)" style="fill:#37474f"></rect><rect x="312.71" y="271.69" width="64.49" height="1.85" transform="translate(689.9 545.23) rotate(180)" style="fill:#455a64"></rect><rect x="312.71" y="274.89" width="64.49" height="1.85" transform="translate(689.9 551.63) rotate(180)" style="fill:#455a64"></rect><rect x="312.71" y="278.09" width="64.49" height="1.85" transform="translate(689.9 558.03) rotate(180)" style="fill:#455a64"></rect><rect x="312.71" y="281.29" width="64.49" height="1.85" transform="translate(689.9 564.43) rotate(180)" style="fill:#455a64"></rect><rect x="312.71" y="284.49" width="64.49" height="1.85" transform="translate(689.9 570.83) rotate(180)" style="fill:#455a64"></rect><path d="M302.88,273.52a1.83,1.83,0,1,0,1.83-1.83A1.83,1.83,0,0,0,302.88,273.52Z" style="fill:#fff"></path><path d="M296.84,273.52a1.84,1.84,0,1,0,1.84-1.83A1.83,1.83,0,0,0,296.84,273.52Z" style="fill:#fff"></path><path d="M290.81,273.52a1.83,1.83,0,1,0,1.83-1.83A1.83,1.83,0,0,0,290.81,273.52Z" style="fill:#fff"></path><path d="M284.77,273.52a1.83,1.83,0,1,0,1.83-1.83A1.83,1.83,0,0,0,284.77,273.52Z" style="fill:#263238"></path><path d="M278.74,273.52a1.83,1.83,0,1,0,1.83-1.83A1.83,1.83,0,0,0,278.74,273.52Z" style="fill:#fff"></path><path d="M302.88,279a1.83,1.83,0,1,0,1.83-1.83A1.83,1.83,0,0,0,302.88,279Z" style="fill:#263238"></path><path d="M296.84,279a1.84,1.84,0,1,0,1.84-1.83A1.84,1.84,0,0,0,296.84,279Z" style="fill:#fff"></path><path d="M290.81,279a1.83,1.83,0,1,0,1.83-1.83A1.83,1.83,0,0,0,290.81,279Z" style="fill:#263238"></path><path d="M284.77,279a1.83,1.83,0,1,0,1.83-1.83A1.83,1.83,0,0,0,284.77,279Z" style="fill:#fff"></path><path d="M278.74,279a1.83,1.83,0,1,0,1.83-1.83A1.83,1.83,0,0,0,278.74,279Z" style="fill:#fff"></path><path d="M302.88,284.51a1.83,1.83,0,1,0,1.83-1.83A1.83,1.83,0,0,0,302.88,284.51Z" style="fill:#fff"></path><path d="M296.84,284.51a1.84,1.84,0,1,0,1.84-1.83A1.83,1.83,0,0,0,296.84,284.51Z" style="fill:#263238"></path><path d="M290.81,284.51a1.83,1.83,0,1,0,1.83-1.83A1.83,1.83,0,0,0,290.81,284.51Z" style="fill:#fff"></path><path d="M284.77,284.51a1.83,1.83,0,1,0,1.83-1.83A1.83,1.83,0,0,0,284.77,284.51Z" style="fill:#fff"></path><path d="M278.74,284.51a1.83,1.83,0,1,0,1.83-1.83A1.83,1.83,0,0,0,278.74,284.51Z" style="fill:#263238"></path><rect x="308.96" y="271.69" width="1.05" height="14.65" transform="translate(618.98 558.03) rotate(180)" style="fill:#263238"></rect><rect x="381.18" y="268.08" width="19.14" height="21.87" style="fill:#263238"></rect><rect x="275.89" y="241.71" width="105.29" height="21.87" transform="translate(657.08 505.3) rotate(180)" style="fill:#37474f"></rect><rect x="312.71" y="245.33" width="64.49" height="1.85" transform="translate(689.9 492.5) rotate(180)" style="fill:#455a64"></rect><rect x="312.71" y="248.53" width="64.49" height="1.85" transform="translate(689.9 498.9) rotate(180)" style="fill:#455a64"></rect><rect x="312.71" y="251.73" width="64.49" height="1.85" transform="translate(689.9 505.3) rotate(180)" style="fill:#455a64"></rect><rect x="312.71" y="254.93" width="64.49" height="1.85" transform="translate(689.9 511.7) rotate(180)" style="fill:#455a64"></rect><rect x="312.71" y="258.13" width="64.49" height="1.85" transform="translate(689.9 518.1) rotate(180)" style="fill:#455a64"></rect><path d="M302.88,247.16a1.83,1.83,0,1,0,1.83-1.83A1.83,1.83,0,0,0,302.88,247.16Z" style="fill:#263238"></path><path d="M296.84,247.16a1.84,1.84,0,1,0,1.84-1.83A1.83,1.83,0,0,0,296.84,247.16Z" style="fill:#263238"></path><path d="M290.81,247.16a1.83,1.83,0,1,0,1.83-1.83A1.83,1.83,0,0,0,290.81,247.16Z" style="fill:#fff"></path><path d="M284.77,247.16a1.83,1.83,0,1,0,1.83-1.83A1.83,1.83,0,0,0,284.77,247.16Z" style="fill:#263238"></path><path d="M278.74,247.16a1.83,1.83,0,1,0,1.83-1.83A1.83,1.83,0,0,0,278.74,247.16Z" style="fill:#fff"></path><path d="M302.88,252.65a1.83,1.83,0,1,0,1.83-1.83A1.83,1.83,0,0,0,302.88,252.65Z" style="fill:#fff"></path><path d="M296.84,252.65a1.84,1.84,0,1,0,1.84-1.83A1.83,1.83,0,0,0,296.84,252.65Z" style="fill:#fff"></path><path d="M290.81,252.65a1.83,1.83,0,1,0,1.83-1.83A1.83,1.83,0,0,0,290.81,252.65Z" style="fill:#263238"></path><path d="M284.77,252.65a1.83,1.83,0,1,0,1.83-1.83A1.83,1.83,0,0,0,284.77,252.65Z" style="fill:#fff"></path><path d="M278.74,252.65a1.83,1.83,0,1,0,1.83-1.83A1.83,1.83,0,0,0,278.74,252.65Z" style="fill:#263238"></path><path d="M302.88,258.14a1.83,1.83,0,1,0,1.83-1.83A1.83,1.83,0,0,0,302.88,258.14Z" style="fill:#fff"></path><path d="M296.84,258.14a1.84,1.84,0,1,0,1.84-1.83A1.84,1.84,0,0,0,296.84,258.14Z" style="fill:#263238"></path><path d="M290.81,258.14a1.83,1.83,0,1,0,1.83-1.83A1.83,1.83,0,0,0,290.81,258.14Z" style="fill:#fff"></path><path d="M284.77,258.14a1.83,1.83,0,1,0,1.83-1.83A1.83,1.83,0,0,0,284.77,258.14Z" style="fill:#fff"></path><path d="M278.74,258.14a1.83,1.83,0,1,0,1.83-1.83A1.83,1.83,0,0,0,278.74,258.14Z" style="fill:#fff"></path><rect x="308.96" y="245.33" width="1.05" height="14.65" transform="translate(618.98 505.3) rotate(180)" style="fill:#263238"></rect><rect x="381.18" y="241.71" width="19.14" height="21.87" style="fill:#263238"></rect></g><g id="freepik--Floor--inject-46"><polygon points="44.48 394.48 127.11 394.24 209.74 394.15 375 393.98 540.26 394.15 622.89 394.23 705.51 394.48 622.89 394.72 540.26 394.81 375 394.98 209.74 394.81 127.11 394.72 44.48 394.48" style="fill:#263238"></polygon></g><g id="freepik--Character--inject-46"><path d="M384,428.59c2.57,1,77,2.34,79.93.68.32-.19.23-3.48,1.33-12,.05-.4,1.75-2,4.4-4.2,10-8.35,33.36-25.94,33.36-25.94L465.9,354.87l-36,35.39-9.37,9.2s-30.42,16.43-33.43,18.6S381.48,427.61,384,428.59Z" style="fill:#ad6359"></path><path d="M384.05,428.59c2.56,1,77,2.34,79.92.68.32-.19.23-3.47,1.33-12,.05-.4,1.75-2,4.4-4.21,3.47-2.9,5.11-4.22,10.26-8.23l-47.23-17.37-2.84,2.78-9.36,9.21s-30.42,16.42-33.43,18.59S381.48,427.61,384.05,428.59Z" style="fill:#ebebeb"></path><path d="M378.91,429.62c2.59.9,81.92,1.77,84.77,0,.67-.41,1.29-5,1.78-11.33.06-.79,8.1-7.22,9.2-8.41l-48.61-16.37-6.14,5.78s-35.77,16.64-38.7,18.91S376.33,428.72,378.91,429.62Z" style="fill:#FFC727"></path><path d="M380,426.66c12.46-.16,67.74.37,80.07,1.16.1,0,.1.07,0,.07-12.35.43-67.63-.5-80.08-1C379.75,426.85,379.75,426.66,380,426.66Z" style="fill:#263238"></path><path d="M415.94,399.82c4.92-.86,10.91,0,14.61,3.5.14.14-.05.34-.21.29A69.32,69.32,0,0,0,416,400.44.31.31,0,0,1,415.94,399.82Z" style="fill:#263238"></path><path d="M412.38,401.91c4.91-.85,10.9,0,14.61,3.51.14.13-.06.33-.21.28a69.27,69.27,0,0,0-14.39-3.17A.31.31,0,0,1,412.38,401.91Z" style="fill:#263238"></path><path d="M408.82,404c4.91-.86,10.9,0,14.6,3.5.15.13-.05.34-.21.28a69.18,69.18,0,0,0-14.38-3.17A.31.31,0,0,1,408.82,404Z" style="fill:#263238"></path><path d="M405.25,406.1c4.92-.86,10.9,0,14.61,3.5.14.14-.05.34-.21.29a68,68,0,0,0-14.39-3.17A.31.31,0,0,1,405.25,406.1Z" style="fill:#263238"></path><path d="M409.14,395.39c3.43,2.73,7.93,3.89,12,5.43a.61.61,0,0,0,.78-.6.13.13,0,0,0,.12-.17,26.14,26.14,0,0,0-7.42-11.32c-2-1.75-5.6-3-7.56-.35S407.13,393.79,409.14,395.39Zm-1.21-4c-.8-5.39,4.95-2.5,6.39-1.16a28.66,28.66,0,0,1,2.56,2.84,76,76,0,0,1,4.48,6.52c-1.93-.88-3.92-1.59-5.89-2.4C413.13,396.27,408.38,394.4,407.93,391.43Z" style="fill:#263238"></path><path d="M438.45,392.77c-1.15-3.07-4.92-2.88-7.35-1.77a26.08,26.08,0,0,0-10.27,8.81.14.14,0,0,0,.06.21.6.6,0,0,0,.58.79c4.3-.37,8.94-.22,13-1.9C436.85,397.93,439.54,395.67,438.45,392.77Zm-10.57,6.15c-2.12.23-4.23.36-6.33.67,2-1.71,3.93-3.51,6.11-5a28,28,0,0,1,3.26-2c1.76-.89,8.08-2.07,5.81,2.88C435.48,398.17,430.39,398.65,427.88,398.92Z" style="fill:#263238"></path><path d="M429.38,388.29l45.93,23.79s47.84-43.31,52.23-43.63,68.75,43.36,101.15,43.49c33.57.14,35.26-35,35.26-35l-49-11.24c-35.29-17.4-72-48.64-96.09-45.72C492.78,323.12,429.38,388.29,429.38,388.29Z" style="fill:#455a64"></path><path d="M440.6,382.22c7.75,3.84,5.58,2.63,13.29,6.55,3.78,1.91,22.77,11.49,26,13.87.07.05,0,.17-.08.15-3.79-1.27-22.57-11.26-26.31-13.25-7.64-4.05-5.4-3-13-7.1A.12.12,0,0,1,440.6,382.22Z" style="fill:#263238"></path><path d="M483.44,401.11c9-7.92,38.4-33.69,39.6-34.65a16.18,16.18,0,0,1,3.06-2.29,3.22,3.22,0,0,1,2.83.23c1.36.63,2.69,1.33,4,2l8,3.89c10.29,5,20.52,10.18,30.89,15,10,4.67,17.09,9.07,27.5,12.66a156.66,156.66,0,0,0,31.95,7.62c1.34.16,2.69.3,4,.43.1,0,.1.16,0,.15a128.48,128.48,0,0,1-31.44-5.85c-10.32-3.17-17.32-7.29-27.12-11.8-10.15-4.67-20.16-9.67-30.17-14.64-5.29-2.63-10.56-5.28-15.86-7.88-1.2-.58-2.91-1.86-4.28-1.23a7.58,7.58,0,0,0-1.59,1.17l-1.76,1.47c-2.27,1.89-38.33,33-39.51,33.84C483.48,401.31,483.36,401.19,483.44,401.11Z" style="fill:#263238"></path><path d="M664.05,376.92s5.49,31.75-10.39,44.23-132.19,11-149.84,5.26-18.2-34.18,1.09-40.78c18.35-6.28,96.42-9.33,98.35-10.1.48-.19-6.92-4.63-6.89-4.9l17.76-5.43Z" style="fill:#455a64"></path><path d="M640,376.12c0-.14.23-.09.23,0a15.72,15.72,0,0,0,3.67,10.08c2.71,3.12,6.69,4.87,10.3,6.7.35.17.09.72-.27.61a31.84,31.84,0,0,1-6.38-2.75,15.41,15.41,0,0,1-4.8-4A13.69,13.69,0,0,1,640,376.12Z" style="fill:#263238"></path><path d="M604.54,372.18c.81-1,1.68-2,2.52-3,2-2.37,4-4.75,6.07-7,.2-.22.59.09.41.33-1.41,1.83-2.89,3.61-4.35,5.4-.75.91-1.5,1.83-2.26,2.74a17.44,17.44,0,0,0-2.11,2.67c-.54,1,.17,1.89,1.23,2a3.7,3.7,0,0,0,2.54-.93,34.18,34.18,0,0,0,4.3-4.61c.84-.94,1.68-1.88,2.53-2.81s1.86-1.93,2.77-2.92c0-.06.17,0,.11.1-.78,1.08-1.51,2.21-2.3,3.29s-1.59,2.16-2.4,3.22-1.57,2-2.39,2.95a9.86,9.86,0,0,1-2.43,2.17c-1.51.89-4.13,1.08-4.93-.87A2.76,2.76,0,0,1,604.54,372.18Z" style="fill:#263238"></path><path d="M506.23,426.52c6.08.11,12.15.47,18.23.6s12.06.16,18.09.1q18.16-.17,36.29-1.41c12.21-.84,25.38-2.06,37.5-3.74,5.81-.8,11.69-1.47,17.42-2.71a27.51,27.51,0,0,0,13.74-7c7.85-7.62,10.91-18.82,12.16-29.52q.26-2.16.42-4.32c0-.09.16-.09.15,0-.71,11-2.41,22.41-9.31,31.23a27.57,27.57,0,0,1-11.24,8.73c-5.43,2.17-11.46,2.68-17.2,3.46-12.17,1.65-25.39,2.93-37.63,3.88s-24.68,1.55-37,1.73-24.72,0-37.06-.6c-1.51-.07-3-.16-4.52-.29C506.15,426.65,506.15,426.52,506.23,426.52Z" style="fill:#263238"></path><path d="M544.55,379.84c3.82-.56,7.64-1.11,11.49-1.51s7.77-.75,11.66-1.08c7.7-.65,15.41-1.24,23.13-1.6,4.38-.2,8.76-.22,13.15-.17.14,0,.13.2,0,.22-7.71.69-15.43,1.18-23.16,1.69s-15.41,1.19-23.1,1.93c-4.37.41-8.73.73-13.1,1.09C544.29,380.44,544.23,379.89,544.55,379.84Z" style="fill:#263238"></path><path d="M595.46,370.24a59.33,59.33,0,0,1,8.86,4.74,71.61,71.61,0,0,1,8.19,5.74c.08.06,0,.15-.09.12-3-1.39-5.9-3.13-8.76-4.8a81.79,81.79,0,0,1-8.38-5.39C595.09,370.51,595.21,370.14,595.46,370.24Z" style="fill:#263238"></path><path d="M626.74,308.51c-4.62,20.36-14.24,44.77-18.36,48.74-5.21,5-39.74,14.28-41.46,14.47-4.27.44-12.89-30.26-8.35-30.93,6.92-1,32.07-2.44,33.57-4s12.15-15,23-30.19C622.68,296.14,629.61,295.88,626.74,308.51Z" style="fill:#ad6359"></path><path d="M570.34,370.05a94,94,0,0,1-12.18,5.22c-3.33,1-13,3.51-14.42,0-1-2.43,4.52-4.59,8.38-6.21,2-.85,4.53-3,3.93-4.29-1-2.29-6.28,0-9.72,2-6.65,3.88-15.5,10.87-19.58,7.5-1.54-1.27.24-3.6,2.85-5.89-4.23,2.67-8.75,4.86-10.51,3.51-1-.77-1.06-1.82-.5-3a3,3,0,0,1-3.28-.5c-1.38-1.44-.71-3.57.79-5.75a1.65,1.65,0,0,1-1.25-.82c-2.93-4.44,11.64-17.25,16.69-18.45,14.84-3.57,30.49-2.95,30.49-2.95C567.88,345,570.35,370,570.34,370.05Z" style="fill:#ad6359"></path><path d="M548.47,356.43a25.18,25.18,0,0,0-9.9,3.84c-3.76,2.49-6.25,5.41-9.4,8.35-.09.07,0,.2.11.13,1.51-1.4,7.73-6.65,9.34-7.84a24,24,0,0,1,9.86-4.42S548.51,356.43,548.47,356.43Z" style="fill:#263238"></path><path d="M545.68,350.14a59.27,59.27,0,0,0-11.51,4c-4,2-7.06,5.33-10.1,8.51q-2.75,2.85-5.36,5.84c-.07.08,0,.21.12.13,3.09-3.28,6.27-6.48,9.56-9.56a31.67,31.67,0,0,1,10.49-6.65c2.24-.86,4.53-1.54,6.82-2.23C545.74,350.19,545.73,350.12,545.68,350.14Z" style="fill:#263238"></path><path d="M541.5,344.63c-3.79.79-7.1,1.47-10.45,3.51-4.44,2.7-8.72,7.24-10.23,8.85-1.65,1.78-3.25,3.61-4.82,5.47-.07.08.06.19.13.12a125.14,125.14,0,0,1,11.54-11.49,25.25,25.25,0,0,1,6.46-4.22,45.08,45.08,0,0,1,7.38-2.21S541.52,344.63,541.5,344.63Z" style="fill:#263238"></path><path d="M564.42,339.12l10.71,33.64s28.75-8.28,34-14,14.88-35,17.7-49.17-4.35-13.83-10.92-4.87S593,335.43,592,335.91,564.42,339.12,564.42,339.12Z" style="fill:#FFC727"></path><path d="M577.85,357.8c-1.29-4-2.62-7.93-3.77-11.94-.65-2.28-1.32-4.56-2-6.85,0-.08.12-.14.15-.05,1.46,3.93,2.91,7.87,4.19,11.87s2.58,7.94,3.8,11.93c.7,2.27,1.32,4.55,1.88,6.86,0,.05-.07.07-.08,0C580.47,365.77,579.16,361.79,577.85,357.8Z" style="fill:#263238"></path><path d="M589.63,368.1l1.27-.45c2.4-.86,4.84-1.79,7.14-2.73l.87-.37c.46-.19.93-.39,1.37-.59l.67-.29.24-.11.69-.32c.91-.42,1.78-.84,2.58-1.27a6,6,0,0,0,.56-.3,20.37,20.37,0,0,0,3.55-2.34l.29-.27a3.25,3.25,0,0,0,.26-.27c5.25-5.68,14.88-35,17.7-49.18,0-.16.07-.32.1-.48s0-.07,0-.11c.19-1.08.36-2.41.49-3.86v0c.39-7.06-3-8.2-7.08-5.09C610.06,322.18,594.38,358.71,589.63,368.1Z" style="fill:#263238"></path><path d="M597.93,371.61l68.3,7.89c0-1.41-7.87-42.78-14.73-58.18-8.79-19.75-13.61-21.48-16.49-22.63-3.68-1.47-10.34-1-12-.34-1.81.77-7.85,10.51-10.14,17.73C608.32,330.57,597,370.69,597.93,371.61Z" style="fill:#FFC727"></path><path d="M645.14,305.87c12.69,9.77,46.14,49.24,39.15,58.6s-54.92,6.25-68.9,2.22c-4.16-1.2,6.52-27.66,11-29,3.7-1.1,24.45,4.53,24.82,3.33.42-1.36-4.17-10.11-11.58-26.09C631,296.52,639.53,301.56,645.14,305.87Z" style="fill:#ad6359"></path><path d="M605.91,333.13c-9.59.24-12,1.78-20.22-2.31-5.38-2.69-9.4-.4-5.74,4.67,6,8.3,18.41,10.58,22.95,10.13Z" style="fill:#ad6359"></path><path d="M632.29,338s-11.5-4.11-21.74-4.86c-7.08-.51-22.62.08-34.69,17.5-2.86,4.13-4,12.05,3.11,7,5.07-3.59,7.19-7.39,10.52-8.94,0,0-.27,10.25,4,12.95A93.94,93.94,0,0,0,605.09,368a20.11,20.11,0,0,0,1.37-2.07s4.21,2.15,11.16.31Z" style="fill:#ad6359"></path><path d="M603.71,333.76c-3,2.24-9.2,7.08-12.91,12.82-4.13,6.37-10.36,19.75-5.63,22.75,3.48,2.2,6.3-2.7,6.3-2.7s-1.41,6.07,2.16,7.37c3.26,1.19,5.22-2.74,5.22-2.74s-.22,3.83,3.13,4.37c4,.65,3.84-7.49,8.49-10.37C611.51,364.62,603.71,333.76,603.71,333.76Z" style="fill:#ad6359"></path><path d="M598.25,349.81a30.28,30.28,0,0,0-6.85,16.68c0,.15.11.24.14.1a74.47,74.47,0,0,1,6.77-16.74S598.28,349.79,598.25,349.81Z" style="fill:#263238"></path><path d="M604.56,354.17c-1.88,2.42-5.75,10.08-5.84,17.05,0,.16.11.24.14.09a79.68,79.68,0,0,1,5.77-17.11S604.59,354.14,604.56,354.17Z" style="fill:#263238"></path><path d="M589.48,348.67c-2.91,1.4-4.65,3.23-6.93,5.44a42.08,42.08,0,0,1-3.52,3.15c-1.13.87-2.8,2.2-4.3,1.36a2.53,2.53,0,0,1-1-2.4,12.35,12.35,0,0,1,1.1-3.75,0,0,0,0,0-.08,0,18,18,0,0,0-1.32,3.4,4.07,4.07,0,0,0,.12,2.42c.73,1.61,2.75,1.51,4.08.81a13.57,13.57,0,0,0,2.21-1.56c.67-.55,1.31-1.13,1.94-1.72,1.29-1.22,2.51-2.52,3.78-3.75a39.84,39.84,0,0,1,3.95-3.27C589.59,348.72,589.53,348.64,589.48,348.67Z" style="fill:#263238"></path><path d="M584.86,360.47a96.66,96.66,0,0,1,4.69-11.74c0-.05,0-.1-.07-.05-2,2.65-4.84,9.28-5.41,11.34a16.93,16.93,0,0,0-.84,6.75c.53,3.2,2.75,3.45,3.56,3.48a4.18,4.18,0,0,0,2.64-.9,8.54,8.54,0,0,0,2.08-2.72c0-.05,0-.1-.08-.05-.89,1.44-2.53,3-4.3,3.05a3,3,0,0,1-2.15-.74,3.82,3.82,0,0,1-.93-2.49A17.82,17.82,0,0,1,584.86,360.47Z" style="fill:#263238"></path><path d="M632.29,338l-9.63,33.51s59.92,3.42,63.24-7.46-25.63-46.53-37.64-56.32c-13.91-11.34-14.66-6.58-10.13,4.77,4.74,11.88,12.91,28.84,12.91,28.84Z" style="fill:#FFC727"></path><path d="M670,346.74a69.38,69.38,0,0,0-9.24-3.56,67.65,67.65,0,0,0-9.56-2.11c-1.84-.29-3.69-.49-5.54-.7a0,0,0,0,0,0,.09,85.83,85.83,0,0,1,9.63,2c3.16.82,6.29,1.7,9.42,2.64,1.76.53,3.51,1.14,5.25,1.73A.07.07,0,0,0,670,346.74Z" style="fill:#263238"></path><path d="M632.43,337.91c.3,0,17,2.63,17.52,2.79-.1-.23-4.33-8.16-5-9.32l-.18-.35c-.38-.5-.76-1-1.12-1.52l-1.37-2s0,0,0,0l1.46,1.93c.22.29.43.6.64.9-.42-.82-.83-1.65-1.24-2.48-.66-1.32-1.27-2.66-1.88-4,0,0,0-.07.07,0,1.24,2.31,2.56,4.58,3.81,6.89s6,10.79,6,10.78-18.41-3.26-18.77-3.34A.12.12,0,0,1,632.43,337.91Z" style="fill:#263238"></path><path d="M634.72,358.36c1-3.74,2.07-7.49,3.26-11.18.68-2.11,1.34-4.21,2-6.31,0-.08.17,0,.15,0-.91,3.79-1.83,7.59-2.91,11.34s-2.12,7.48-3.24,11.19q-1,3.18-2.11,6.28s-.09,0-.08,0C632.61,365.87,633.66,362.12,634.72,358.36Z" style="fill:#263238"></path><path d="M622,372.15c.42-1,.92-2.55,1.38-3.58.13-.28.32-.26.24,0-.3.94-.5,2-.79,2.94.84,0,1.67,0,2.51.08l2.91.12c1.9.08,3.79.13,5.69.17q5.77.11,11.54,0a222.59,222.59,0,0,0,23.08-1.63q3.21-.4,6.4-1c2.15-.39,4.48-.82,6.23-1.34.06,0,.08.08,0,.1a34.65,34.65,0,0,1-5.35,1.61q-2.86.63-5.76,1.07c-3.85.59-7.73,1-11.61,1.26q-11.55.84-23.14.7-3.24,0-6.48-.14c-1.09,0-2.19-.08-3.28-.14S621.92,372.33,622,372.15Z" style="fill:#263238"></path><path d="M622.91,312.34c4,.49,10-6.17,12.12-11.27.15-.35-.74-3.77-1.62-8-.52-2.56-1-5.42-1.33-8.06-.05-.55-16.14,5.83-16.14,5.83a42.29,42.29,0,0,1,2.7,10,5.8,5.8,0,0,1,0,1.1c0,.05,0,.11,0,.18C618.53,304.21,619.05,311.85,622.91,312.34Z" style="fill:#ad6359"></path><path d="M631.07,285.21c-.28,4.55-1.89,15.65-10.72,16.81a10.16,10.16,0,0,1-1.7.09,1.07,1.07,0,0,1,0-.18,6.61,6.61,0,0,0,0-1.09,42.75,42.75,0,0,0-2.71-10S627.55,286.26,631.07,285.21Z" style="fill:#263238"></path><path d="M628.14,262.89c3.61,5,6.15,22.21,3.39,27.16-4,7.19-13.29,10.9-20.08,5.47-6.6-5.26-9.5-27.71-6.17-32.5C610.2,256,622.81,255.48,628.14,262.89Z" style="fill:#ad6359"></path><path d="M615.66,278.15s.09.05.1.1c.09,1.16.4,2.48,1.5,2.75,0,0,0,.07,0,.07C616,281,615.56,279.27,615.66,278.15Z" style="fill:#263238"></path><path d="M616.56,276.82c1.85-.35,2.42,3.38.71,3.71S615,277.12,616.56,276.82Z" style="fill:#263238"></path><path d="M609.19,279.18s-.08.07-.07.12c.21,1.15.26,2.5-.72,3.05,0,0,0,.07,0,.06C609.66,282,609.58,280.24,609.19,279.18Z" style="fill:#263238"></path><path d="M608,278.14c-1.88.14-1.45,3.89.29,3.76S609.55,278,608,278.14Z" style="fill:#263238"></path><path d="M617.82,273.61c-.53,0-1,0-1.55,0a2.48,2.48,0,0,1-1.58-.32.79.79,0,0,1-.19-.95,2,2,0,0,1,1.82-.84,2.89,2.89,0,0,1,2,.65A.86.86,0,0,1,617.82,273.61Z" style="fill:#263238"></path><path d="M605.84,275.67a12.64,12.64,0,0,0,1.42-.61,2.51,2.51,0,0,0,1.34-.9.8.8,0,0,0-.2-1,2,2,0,0,0-2-.06,2.92,2.92,0,0,0-1.59,1.36A.85.85,0,0,0,605.84,275.67Z" style="fill:#263238"></path><path d="M619.24,288.6c-.24.31-.45.73-.87.83a3,3,0,0,1-1.29-.1s-.07,0,0,.07a1.6,1.6,0,0,0,1.57.4,1.24,1.24,0,0,0,.75-1.16C619.37,288.57,619.27,288.56,619.24,288.6Z" style="fill:#263238"></path><path d="M617.49,285.33a4,4,0,0,1-2.36,2.15,4.41,4.41,0,0,1-1.4.28,1.37,1.37,0,0,1-.28,0h-.26a.29.29,0,0,1-.27-.23h0a.45.45,0,0,1,0-.12h0v-.11c-.16-.88-.29-2.25-.29-2.25-.3.21-1.84,1.21-1.88.74a59.29,59.29,0,0,1-.31-12.14.11.11,0,0,1,.22,0c.49,3.72.33,7.51.77,11.25a7,7,0,0,1,1.77-.85c.13,0,.19,2.65.29,3l0,0a5.53,5.53,0,0,0,3.88-1.89C617.44,285.16,617.55,285.22,617.49,285.33Z" style="fill:#263238"></path><path d="M614.18,287.23a4.69,4.69,0,0,0,2.1,1.16,2,2,0,0,0,1.28-.11c.89-.39.78-1.24.5-1.94a5.27,5.27,0,0,0-.58-1A6.12,6.12,0,0,1,614.18,287.23Z" style="fill:#263238"></path><path d="M616.28,288.39a2,2,0,0,0,1.28-.11c.89-.39.78-1.24.5-1.94A2.2,2.2,0,0,0,616.28,288.39Z" style="fill:#ff98b9"></path><path d="M626.29,273.85c-2.24-2.88-2.26-9-4.4-9.91-4.63-1.95-9.76,6.64-14.71,8.39s-7.49-.84-8-5.05,1.93-8,7-10.65c5.3-2.77,11.17-2.28,14.56-1.46,0,0-1.89-1.53-1.65-2.3s3.25.3,4.25.85a7.75,7.75,0,0,1,2,1.91,8.5,8.5,0,0,1,2.12-1,4.81,4.81,0,0,1,3.29.3c.19.25-1.49,1.08-2.69,1.57,0,0,3.34,2.25,4.19,4.87s1.08,16.38.15,16.85C631.27,278.83,627.2,275,626.29,273.85Z" style="fill:#263238"></path><path d="M627.53,256.36s-.09.07,0,.09a8.77,8.77,0,0,1,3.87,2.78,10.88,10.88,0,0,1,1.91,5.34c.42,3.68-.18,7.36-.54,11,0,.11.17.13.19,0,.63-3.85,1.19-8,.59-11.87C633,260.43,631,257.09,627.53,256.36Z" style="fill:#263238"></path><path d="M621.64,262.61a12.58,12.58,0,0,0-4.27,1.8,17.45,17.45,0,0,0-3.1,3.15,17.69,17.69,0,0,1-8,5.52,0,0,0,1,0,0,.06,15.47,15.47,0,0,0,7.67-4.64,39.11,39.11,0,0,1,3.17-3.39,16.17,16.17,0,0,1,4.64-2.23A.14.14,0,0,0,621.64,262.61Z" style="fill:#263238"></path><path d="M617.38,254.83a24.4,24.4,0,0,0-6.88.09,19.12,19.12,0,0,0-6.31,1.94c-3.36,1.81-5.85,5.22-5.42,9.17a8.28,8.28,0,0,0,2.65,5.31c.1.09.24-.06.14-.16a8.52,8.52,0,0,1-1.44-10.09c2-3.55,6.09-5.16,9.94-5.84a35.07,35.07,0,0,1,7.31-.4S617.39,254.83,617.38,254.83Z" style="fill:#263238"></path><path d="M629.16,277.25s2-6.43,4.82-5.88,2.46,9.07,0,11a3,3,0,0,1-4.31-.32Z" style="fill:#ad6359"></path><path d="M633.82,273.81s.07,0,0,.07c-1.71,1.42-2.17,3.57-2.29,5.7a1.64,1.64,0,0,1,2.22-1.18c.06,0,0,.11,0,.12a1.85,1.85,0,0,0-1.74,1.22,9,9,0,0,0-.43,1.86c0,.21-.38.21-.38,0v0C630.37,279.05,631.2,274.92,633.82,273.81Z" style="fill:#263238"></path><path d="M618.67,301.84,624,311l10.34-14,4,3.46s-9,21.22-9.25,20.35L623.83,313l-5,6.65-1.6-14.7Z" style="fill:#ebebeb"></path><path d="M617.67,312.42c-.19-2.44-.44-4.89-.51-7.33,0-.09.13-.15.16,0,.81,2.27,1.47,11.59,1.79,13.8l0,0c.21-.29,4.64-5.89,4.7-5.82,1.06,1.21,4.86,6.9,5.14,7.42,1.43-3.37,7.63-16.73,9.43-20a.08.08,0,0,1,.15.07c-1.18,3.51-9.15,21.11-9.3,21.09a93.31,93.31,0,0,1-5.44-8.27c-.72,1.19-5.11,7.42-5.18,7.07A76.34,76.34,0,0,1,617.67,312.42Z" style="fill:#263238"></path><path d="M453.1,404.76a29.36,29.36,0,0,1-4.19-.31c-15.37-2.2-25.59-25-30.38-67.68-3.83-34.23-3.15-71.51-2.82-89.42.09-4.87.14-8.08.07-9.12-.75-10-5.09-14.09-15-14.09v-1c10.4,0,15.18,4.49,16,15,.09,1.09,0,4.32-.06,9.21-1.83,100.24,9.05,152.76,32.35,156.1,15.16,2.18,23.16-8.13,30.9-18.09,5.7-7.34,11.6-14.93,20.26-17.09a40.64,40.64,0,0,1,13.78-.79c.66.06,1.18.11,1.51.11v1c-.38,0-.92-.05-1.6-.11a39.55,39.55,0,0,0-13.45.76c-8.32,2.08-13.85,9.2-19.71,16.74C473.57,395.23,466.17,404.76,453.1,404.76Z" style="fill:#ebebeb"></path><rect x="400.18" y="222.91" width="4.61" height="1.75" style="fill:#263238"></rect><path d="M453.75,402.1a23.25,23.25,0,0,1-17.61-8c-24.86-27-17.68-114.62-15-147.61.48-5.9.83-10.17.75-11.33-.8-10.62-6.05-16.24-15.19-16.24v-1c9.61,0,15.35,6.1,16.18,17.17.1,1.24-.24,5.31-.74,11.49-2.7,32.87-9.85,120.18,14.71,146.84a22.3,22.3,0,0,0,16.88,7.66c13.21,0,19.78-7.55,27.38-16.3,4.78-5.49,9.71-11.17,16.8-15.48,3.91-2.39,9.93-2.11,15.24-1.86,1.46.07,2.83.14,4,.14v1c-1.24,0-2.62-.07-4.08-.14-4.92-.23-11-.51-14.68,1.71-6.95,4.24-11.84,9.85-16.56,15.29C474.45,394,467.42,402.1,453.75,402.1Z" style="fill:#FFC727"></path><rect x="406.09" y="217.57" width="4.61" height="1.75" style="fill:#263238"></rect><rect x="541.05" y="380.31" width="70.75" height="3.17" style="fill:#c7c7c7"></rect><polygon points="541.05 380.31 541.05 383.48 589.14 383.48 586.72 380.31 541.05 380.31" style="fill:#a6a6a6"></polygon><polygon points="583.66 383.48 514.71 383.48 508.97 336.64 577.92 336.64 583.66 383.48" style="fill:#c7c7c7"></polygon><path d="M550.51,360.06a4.11,4.11,0,0,1-4.12,4.2,4.29,4.29,0,0,1-4.27-4.2,4.11,4.11,0,0,1,4.12-4.2A4.29,4.29,0,0,1,550.51,360.06Z" style="fill:#fff"></path></g><g id="freepik--Plant--inject-46"><path d="M118.27,370.78a248.29,248.29,0,0,0-.36-26.59A338.44,338.44,0,0,0,109.58,290c-2.32-10-5.18-19.88-8.16-29.72-.09-.3-.57-.22-.49.09,9.22,34.71,16.78,70.53,16.26,106.6-.14,10.1-1.31,20-2.27,30,0,.27.42.37.48.1C117.3,388.54,117.92,379.55,118.27,370.78Z" style="fill:#FFC727"></path><path d="M100.93,260.38S87,295.82,90.1,304.15s9.57,10.11,9.57,10.11-8.54,12.2-2.57,23.64,19.23,10.9,20.11,23.87C117.21,361.77,118,307.53,100.93,260.38Z" style="fill:#FFC727"></path><path d="M115.69,339.37a.23.23,0,0,0,0-.18,325.07,325.07,0,0,0-13.54-71.3c0-.07-.14,0-.12,0q4.16,15.54,7.33,31.27a15.41,15.41,0,0,0-6.66-3.72,0,0,0,0,0,0,.07,17.65,17.65,0,0,1,6.88,4.6q.61,3.08,1.19,6.17c-3.12-3.49-7.45-5.22-11.78-6.87-.06,0-.09.08,0,.1,4.51,1.84,9,4.2,12.06,8.09q1.59,8.82,2.8,17.7a16.93,16.93,0,0,0-8.33-4.77c-.09,0-.15.12,0,.15a17.57,17.57,0,0,1,8.45,5.41s0,0,.05,0q.42,3.12.79,6.25a21.45,21.45,0,0,0-5.84-3.52,0,0,0,1,0,0,.09,20,20,0,0,1,5.84,3.87l.08,0c.23,2,.46,4,.66,6a28.39,28.39,0,0,0-11.84-8.46.07.07,0,0,0,0,.14,30.91,30.91,0,0,1,11.67,9,.28.28,0,0,0,.3.09c.3,3,.57,6.1.79,9.16,0,0,.07.05.07,0Q116.09,344.06,115.69,339.37Z" style="fill:#263238"></path><path d="M104.47,292a17.35,17.35,0,0,0-8.38-2.62.06.06,0,0,0,0,.11,33.14,33.14,0,0,1,8.29,2.71A.11.11,0,0,0,104.47,292Z" style="fill:#263238"></path><path d="M106.17,329.47a17.59,17.59,0,0,0-6.3-2.15c-.07,0-.08.1,0,.12a23.31,23.31,0,0,1,6.23,2.18C106.18,329.66,106.25,329.52,106.17,329.47Z" style="fill:#263238"></path><path d="M155,304.73a95.4,95.4,0,0,0-16.16,14.13,57.93,57.93,0,0,0-11.33,19.22,143.64,143.64,0,0,0-8.45,46,111.62,111.62,0,0,0,2.49,25.85.24.24,0,0,0,.48-.09,145.11,145.11,0,0,1,.26-45.19c2.4-14.66,6.16-30.61,15.48-42.52,5.08-6.49,11.41-11.6,17.66-16.87C155.74,305,155.32,304.49,155,304.73Z" style="fill:#FFC727"></path><path d="M121.1,373.49a86.59,86.59,0,0,1,11.78-15.05c7-7,12.87-11.95,13.77-16.57s-7-8-7-8,9.66,1.74,12.31-2.32S155.89,304,155.89,304s-17.59,12.55-25.78,30.15S121.1,373.49,121.1,373.49Z" style="fill:#FFC727"></path><path d="M149.81,310c-7.4,7.27-14.85,15-19.21,24.56a94.94,94.94,0,0,0-3.88,10.13h0c-.22.7-.45,1.39-.66,2.09a.36.36,0,0,0,0,.11,200.75,200.75,0,0,0-5,21.71c0,.05.06.07.07,0,.76-3.66,1.59-7.36,2.53-11.05a.19.19,0,0,0,.1,0,15.7,15.7,0,0,1,4.62-1.17c.1,0,.09-.19,0-.18a16.9,16.9,0,0,0-4.57.83c.85-3.33,1.78-6.65,2.82-9.92A49,49,0,0,1,137,345.75s0-.06,0-.06a39.68,39.68,0,0,0-10.26.87c.18-.56.37-1.12.56-1.68a52.36,52.36,0,0,1,6.94-1.17,0,0,0,0,0,0-.08,33.71,33.71,0,0,0-6.79.83c1-2.83,2-5.62,3.14-8.34a49.66,49.66,0,0,1,3.32-6.45,41.22,41.22,0,0,1,5.63-1s0-.09,0-.1a15.31,15.31,0,0,0-5.26.52q1.38-2.23,2.93-4.37h0c3.94-.87,7.94-1.69,12-.93.07,0,.09-.1,0-.12-3.84-1-7.66-.43-11.48.33.42-.56.85-1.1,1.28-1.65a26.26,26.26,0,0,1,7.37-1.16c.05,0,.06-.07,0-.08a19.4,19.4,0,0,0-6.87.61c3.26-4.05,6.86-7.85,10.42-11.61C150.11,309.93,150,309.83,149.81,310Z" style="fill:#263238"></path><path d="M149.61,326a15.2,15.2,0,0,0-3.5-.12.12.12,0,0,0,0,.24c1.16,0,2.32-.05,3.48,0A.07.07,0,0,0,149.61,326Z" style="fill:#263238"></path><path d="M137,348.81a15.77,15.77,0,0,0-5.42,1.09s0,.09,0,.08c1.79-.43,3.6-.6,5.41-.9C137.11,349.05,137.11,348.81,137,348.81Z" style="fill:#263238"></path><path d="M133.16,340.94a11.85,11.85,0,0,0-2.3.2c-.08,0-.07.14,0,.14a11.89,11.89,0,0,0,2.31-.11C133.3,341.15,133.3,340.94,133.16,340.94Z" style="fill:#263238"></path><path d="M69.55,329.67a79.42,79.42,0,0,1,16.34,7.69A49,49,0,0,1,99.51,350.3,121.2,121.2,0,0,1,117,385.55a94.11,94.11,0,0,1,4,21.5.21.21,0,0,1-.42,0,121.72,121.72,0,0,0-10.65-36.52c-5.33-11.31-12.06-23.34-22.36-30.83-5.6-4.08-11.9-6.75-18.19-9.57C69,330,69.22,329.55,69.55,329.67Z" style="fill:#FFC727"></path><path d="M112.86,377.48a73.6,73.6,0,0,0-13-9.46c-7.27-4-13.18-6.69-15-10.22s3.81-8.11,3.81-8.11-7.42,3.64-10.5,1-9.54-21.39-9.54-21.39,17.13,6.09,27.83,18.44S112.86,377.48,112.86,377.48Z" style="fill:#FFC727"></path><path d="M112,373.62C103.4,357.54,92,343,76.3,333.38h0a78.16,78.16,0,0,1,11.47,9,18.11,18.11,0,0,0-9.21,1.94.05.05,0,0,0,0,.1,25.19,25.19,0,0,1,9.48-1.6.28.28,0,0,0,.11,0c.56.52,1.1,1.06,1.65,1.6a29,29,0,0,0-4.92.65,0,0,0,1,0,0,.07,25.9,25.9,0,0,1,5.2-.43,108.67,108.67,0,0,1,8.08,9.18,8.13,8.13,0,0,0-3.44.25.07.07,0,0,0,0,.13,18.12,18.12,0,0,1,3.68-.05c.47.59.94,1.19,1.4,1.79a33.45,33.45,0,0,0-10.4,1s0,.09,0,.08a42,42,0,0,1,10.68-.69c.43.58.85,1.18,1.28,1.76a22.69,22.69,0,0,0-6.19.71c-.08,0-.06.14,0,.12a23.38,23.38,0,0,1,6.41-.49q2.76,3.81,5.3,7.76a5.78,5.78,0,0,0-2.71.16s0,.08,0,.08a11.57,11.57,0,0,1,2.94.14c1.53,2.37,3,4.77,4.42,7.18A.18.18,0,0,0,112,373.62Z" style="fill:#263238"></path><path d="M98.64,360.28a13.36,13.36,0,0,0-5,.61,0,0,0,0,0,0,.07,39,39,0,0,1,4.95-.5C98.74,360.45,98.76,360.29,98.64,360.28Z" style="fill:#263238"></path><path d="M83.7,340.68a8.45,8.45,0,0,0-2.3.13.07.07,0,0,0,0,.14c.75-.08,1.49-.05,2.25-.08C83.8,340.87,83.82,340.69,83.7,340.68Z" style="fill:#263238"></path><polygon points="134.96 430.67 96.29 430.67 101.8 390.28 103.21 379.92 128.04 379.92 129.45 390.28 134.96 430.67" style="fill:#455a64"></polygon><polygon points="129.45 390.28 101.8 390.28 103.21 379.92 128.04 379.92 129.45 390.28" style="fill:#263238"></polygon><rect x="99.66" y="376.33" width="31.93" height="8.77" style="fill:#455a64"></rect></g></svg>