<svg xmlns="http://www.w3.org/2000/svg" xml:space="preserve" viewBox="0 0 70 70">
  <path fill="#EBE4D9" d="M23.4 11.2a.95.95 0 0 0-.96.92l-1.31 45.79a.9.9 0 0 0 .9.92h40.7a.9.9 0 0 0 .9-.92l-1.45-37.99a.97.97 0 0 0-.96-.92H49.6c-.52 0-1-.41-1.07-.92l-.9-6.08a1.1 1.1 0 0 0-1.07-.9l-23.16.1z"/>
  <path fill="#48391C" d="M31.06 32.73h-4.1l.21-.84V26.2l-.21-.84h4.1l1.48 1.47v4.42l-1.48 1.47zm-.2-5.31-.27-.53-.53-.26h-1.15l-.1.1v4.47l.15.16h1.1l.53-.26.26-.53v-3.15zm9-1.81v7.93H38.2l-2.75-5.5-.25-.64.06.64v4.48l.26 1.02h-2.17l.25-1.02v-6.91l-.32-1.02h2.49l2.24 4.48.26.63-.07-.63v-3.46l-.25-1.02h2.17zm4.64 7.12L43.6 30l-.21-.11h-.8l-.1.1v1.9l.21.84h-2l.22-.84V26.2l-.21-.84H45l1.27 1.26v1.79l-1.16 1.16.79 2.15.58 1h-2zm.1-5.42-.21-.42-.53-.26H42.6l-.1.1v1.8l.1.1h1.26l.53-.27.2-.42v-.63z"/>
  <path fill="#DD5623" d="M39.77 18.78v2.78h.71v-1.22h1.06v1.23h.72v-2.8h-.72v1.03H40.5v-1.02h-.73zM38.23 21l.19.56h.74l-1.03-2.78h-.83l-1.03 2.78H37l.2-.56h1.03zm-.52-1.5.34 1h-.68l.34-1zm-7.28-.72v1.78c0 .34.1.6.31.79.21.18.52.27.93.27.4 0 .72-.09.93-.27.2-.19.31-.45.31-.8v-1.77h-.72v1.74c0 .2-.04.34-.13.43s-.21.14-.39.14c-.18 0-.32-.05-.4-.14-.08-.1-.12-.24-.12-.44v-1.74h-.72zm4.66 2.79v-2.25h.87v-.54H33.5v.54h.87v2.25h.72zM23.83 39.6s6.27-1.55 7.32-.94l4.45 3.36-1.11-2.04 3.06-1.32 3.08.46-2.43-1.28-5.27 1.39-1.72-2.52-1.17.36-6.21 2.53zM60.5 20.48H47.39l-1.46-7.8-21.01 1.25 18.67.48 3.03 7.98 11.72.06-.98 8.59-.86-.9-3.56 3.04 3.14-1.59 1.14.67-.6 5.23c.44.3 1.4.98 2.22 1.79.56.36-.03.5-.43.36-.4-.13-1.27-.9-1.89-1.26l-.25 2.18c.75.24 1.75.59 2.36.9l-.06.1c-.56-.18-1.48-.48-2.34-.65a9.54 9.54 0 0 0-1.04-.14c-1.15-.07-3.55.82-3.55.82-.98-.06-2.52.43-2.52.43-.12.15-1.17.3-1.17.3-.37-.15-1.4-.08-1.4-.08-.36.08-.3-.14-.3-.14 1.04-.93 1.01-1.2 1.01-1.2s-.71-.33-2.87.23l-.02-.01c-.29-.03-.12-.22-.12-.22.3-.32 1.54-.66 1.54-.66a5.46 5.46 0 0 0 3.18-1.5c.22-.24.47-.04.47-.04.68.48 2.13 1 2.13 1 .44 0 .14-.22.14-.22a8.8 8.8 0 0 1-1.73-1.03c-.4-.24.04-.32.04-.32.3-.1 1.03-.6 1.03-.6.32-.28 1.27-.4 1.27-.4l2.16.03c.1.17 1.56.78 1.56.78.49.12 2.23 1.49 2.23 1.49.58.34.41.02.41.02-2-2.03-4.1-2.86-4.1-2.86-.18-.15-.05-.47-.05-.47.68-.7.7-1.58.7-1.58l-.22-1.16c0-.2-.17-.02-.17-.02a9.63 9.63 0 0 1-.18 1.67c-.65 1.65-2.23 1.4-2.23 1.4-.45 0-.48-.2-.48-.2.15-.33.12-2.57.12-2.57-.12-1-.74-2.05-.74-2.05-.21-.12-.39-.68-.39-.68-.03-.36-.24-.42-.24-.42-.03.5.24 1.1.24 1.1 0 .36.48 1.52.48 1.52.09.92-.15 1.66-.15 1.66-.2 2.03-1.75 2.8-1.75 2.8-.66.48-.33-.42-.33-.42a7.56 7.56 0 0 0 1.63-1.51c.36-.66.15-.78.15-.78-1.34 2-2.53 2.11-2.53 2.11l.12-1.6.36-1.73c.09-.35 0-.5 0-.5a8.85 8.85 0 0 0-.83 2.08l-.06 1.87-1.16-.06c-.5-.06-.06-.9-.06-.9.8-.94 1.3-3.44 1.3-3.44.13-.83.4-1.49.4-1.49.23-.95-.13-.44-.13-.44-.44.95-1.07 3.18-1.07 3.18a11.33 11.33 0 0 1-2.85 4.46c-.03-.1-.03-.44-.03-.44.18-.28.18-.72.18-.72.12-.44 0-.39 0-.39l-.24.72a2.47 2.47 0 0 0-.33 1.03c-.5-.02-.86-.83-.86-.83-.39-.5.39-2.29.39-2.29.2-.35.77-1.6.77-1.6.2-.5-.12-.33-.12-.33-.24.77-.65 1.4-.65 1.4-.39.41-.9 1.9-.9 1.9l-.08.48c0 .92.8 1.72.8 1.72v.24c-.1.42-.36.24-.36.24-.03-.42-.77-1.52-.77-1.52-.06-.39.12-1.58.12-1.58.09-.35 0-.41 0-.41-.3.2-.36.86-.36.86l-.06 1.04c.03.8.6 1.49.6 1.49.23.47-.18.18-.18.18-.15-.3-.6-.63-.6-.63-.38-.06-.71-.95-.71-.95.03-.15-.06-.48-.06-.48-.18-.3-.06-.6-.06-.6.18-.23.15-.8.15-.8.12-.26.03-.2.03-.2-.48.41-.42 1.6-.42 1.6-.06.39-.12.3-.12.3-.15-.18.03-1.04.03-1.04 0-.54-.12-.4-.12-.4l-.12.87c-.33.91.63 1.6.63 1.6.62.41 1.2 1.55 1.2 1.55-.1.03-.14.33-.14.33-.37-.04-.63.26-.63.26-.36-.19-1.13.03-1.13.03l-2.97.63c-.37.33-.19.8-.19.8.11.4.96.78.96.78-.19.22-.74.36-.74.36 0 .59.37.84.37.84l1.36.15c.36.59 1.06.77 1.06.77.44.85 1.54 1 1.54 1 .85 1.07 2.68 1.72 2.68 1.72.25.36.56.64.92.85h-.01c.5.31 2 1.13 3.68.87.12-.05.3-.08.48-.04l.27.14.06.05c.24.24 1.23.5 1.5.68.03.02.06.03.07.05.1.17-1.96-.7-2.41-.53-.99.38-1.63.55-4.36-1.04L27.8 53.14l-4.27 3.7 38.34-.01-1.36-36.35zM44.84 38.84c.3-.15 1.33-1.2 1.33-1.2.18-.26.8-.14.8-.14.22.18 1.29.24 1.29.24l-.03.56c-.48.92-3 1.4-3 1.4.02-.21-.4-.48-.4-.48-.14-.12 0-.38 0-.38"/>
</svg>
