<svg xmlns="http://www.w3.org/2000/svg" viewBox="0 0 500 500"><g id="freepik--background-complete--inject-187"><polygon points="399.27 50.31 417.52 50.31 416.29 117.56 400.5 117.56 399.27 50.31" style="fill:#ebebeb"></polygon><rect x="400.51" y="125.98" width="15.78" height="15.78" style="fill:#ebebeb"></rect><polygon points="441.65 105.43 456.49 109.75 439.58 164.14 426.74 160.4 441.65 105.43" style="fill:#ebebeb"></polygon><rect x="422.62" y="168.85" width="13.36" height="13.36" transform="translate(66.16 -112.98) rotate(16.23)" style="fill:#ebebeb"></rect><polygon points="262.69 83.15 274.51 77.56 294.29 121.52 284.06 126.36 262.69 83.15" style="fill:#ebebeb"></polygon><rect x="288.51" y="128.86" width="11.31" height="11.31" transform="translate(-29.27 138.46) rotate(-25.27)" style="fill:#ebebeb"></rect><path d="M443.46,358.83H350.18s9.25-25.26,23.49-25.26S392.36,351,392.36,351s9.6-9.47,17.49-9.47,14.75,12.52,14.75,12.52S435.74,347.32,443.46,358.83Z" style="fill:#ebebeb"></path><path d="M324.18,320.3H275s11-15.93,19.65-15.93S305.85,315,305.85,315s6.12-4.95,11.78-4.07S324.18,320.3,324.18,320.3Z" style="fill:#ebebeb"></path><path d="M154.14,189.49H58.32s13.12-29.29,27.16-31.13,20.75,21.77,20.75,21.77,9-8.34,16.17-8.34,12.62,11,12.62,11S149.26,175.25,154.14,189.49Z" style="fill:#ebebeb"></path><path d="M245.21,105.24H180.48S191.6,84,203.66,83.7s18.41,16.07,18.41,16.07S240.83,84.71,245.21,105.24Z" style="fill:#ebebeb"></path></g><g id="freepik--Sign--inject-187"><rect x="343.84" y="116.85" width="11.92" height="324.06" style="fill:#dbdbdb"></rect><polygon points="349.8 61.41 256.14 223.63 443.46 223.63 349.8 61.41" style="fill:#FFC727"></polygon><polygon points="349.8 84.91 276.5 211.88 423.11 211.88 349.8 84.91" style="fill:#fff"></polygon><polygon points="342.38 121.65 357.23 121.65 356.23 176.39 343.38 176.39 342.38 121.65" style="fill:#FFC727"></polygon><rect x="343.38" y="183.25" width="12.84" height="12.84" style="fill:#FFC727"></rect><rect x="256.14" y="233.07" width="187.32" height="62.67" style="fill:#FFC727"></rect><path d="M439.25,291.56H260.35V237.25h178.9Zm-177.9-1h176.9V238.25H261.35Z" style="fill:#fff"></path><path d="M284.79,246.48h3.71l2.34,6.87,2.33-6.87h3.75l-3.54,9.44,2.63,6.64,5.88-16.14h4.38l-8.45,20.75h-3.39l-3.59-8.71-3.6,8.71h-3.39l-8.39-20.75h4.33l5.9,16.14,2.57-6.64Z" style="fill:#263238"></path><path d="M312.52,246.42h3.57L324,267.17h-4.15L317.9,262h-7.25l-1.9,5.17H304.6Zm4.65,12.74L314.31,251l-3,8.15Z" style="fill:#263238"></path><path d="M326.26,267.17V246.42h9.18a5.85,5.85,0,0,1,2.64.6,6.83,6.83,0,0,1,2.09,1.58,7.27,7.27,0,0,1,1.38,2.22,6.7,6.7,0,0,1,.49,2.5,6.93,6.93,0,0,1-1,3.67,5.86,5.86,0,0,1-2.74,2.38l4.74,7.8h-4.53l-4.24-6.95h-4v6.95Zm4-10.49h5.06a2.2,2.2,0,0,0,1-.26,2.72,2.72,0,0,0,.83-.72,3.74,3.74,0,0,0,.56-1.07,4.28,4.28,0,0,0,.2-1.31,3.9,3.9,0,0,0-.23-1.35,3.72,3.72,0,0,0-.63-1.06,2.78,2.78,0,0,0-.91-.7,2.28,2.28,0,0,0-1-.25h-4.88Z" style="fill:#263238"></path><path d="M349.73,253.87v13.3h-4V246.42h3.12L359.64,260V246.45h4v20.72H360.4Z" style="fill:#263238"></path><path d="M368,267.17V246.42h4v20.75Z" style="fill:#263238"></path><path d="M380.39,253.87v13.3h-4V246.42h3.12L390.3,260V246.45h4v20.72h-3.27Z" style="fill:#263238"></path><path d="M413.06,264.83a7.9,7.9,0,0,1-5.78,2.49,9.12,9.12,0,0,1-3.85-.82,9.59,9.59,0,0,1-3.12-2.25,10.69,10.69,0,0,1-2.11-3.38,11.11,11.11,0,0,1-.77-4.19,10.46,10.46,0,0,1,2.91-7.32,10,10,0,0,1,3.2-2.25,9.49,9.49,0,0,1,4-.84,9.69,9.69,0,0,1,5,1.23,7.88,7.88,0,0,1,3.14,3.31l-3,2.22a5.5,5.5,0,0,0-2.2-2.37,6.06,6.06,0,0,0-3.09-.82,5.28,5.28,0,0,0-2.41.56,5.6,5.6,0,0,0-1.87,1.52,7.41,7.41,0,0,0-1.2,2.22,8.28,8.28,0,0,0-.42,2.66,7.91,7.91,0,0,0,.47,2.73,7.08,7.08,0,0,0,1.28,2.21,6.12,6.12,0,0,0,1.95,1.47,5.55,5.55,0,0,0,2.44.54,7.06,7.06,0,0,0,5.43-2.83v-1.46h-4.18v-3h7.52v10.67h-3.34Z" style="fill:#263238"></path><path d="M420.22,259.37V246.22h3.92v13.15Zm0,7.8v-4.41h3.92v4.41Z" style="fill:#263238"></path><path d="M281.25,273.25h1.89l4.18,11h-2.2l-1-2.74h-3.84l-1,2.74h-2.2Zm2.46,6.74-1.51-4.31L280.62,280Z" style="fill:#fff"></path><path d="M295.65,275.12h-3.51v9.11H290v-9.11h-3.51v-1.87h9.14Z" style="fill:#fff"></path><path d="M305.22,275.12h-3.51v9.11h-2.12v-9.11h-3.51v-1.87h9.14Z" style="fill:#fff"></path><path d="M314.2,282.36v1.87h-7.62v-11h7.48v1.87h-5.35v2.65h4.63v1.73h-4.63v2.86Z" style="fill:#fff"></path><path d="M318,277.19v7h-2.14v-11h1.66l5.72,7.21v-7.19h2.13v11h-1.73Z" style="fill:#fff"></path><path d="M335.88,275.12h-3.51v9.11h-2.12v-9.11h-3.51v-1.87h9.14Z" style="fill:#fff"></path><path d="M337.24,284.23v-11h2.14v11Z" style="fill:#fff"></path><path d="M346.35,284.31a5,5,0,0,1-2.19-.48,5.24,5.24,0,0,1-1.68-1.25,5.51,5.51,0,0,1-1.09-1.78,5.66,5.66,0,0,1-.39-2.06,5.57,5.57,0,0,1,.41-2.1,5.68,5.68,0,0,1,1.13-1.78,5.27,5.27,0,0,1,1.71-1.23,5.12,5.12,0,0,1,2.15-.46,4.9,4.9,0,0,1,2.17.49,5.44,5.44,0,0,1,1.68,1.28,5.9,5.9,0,0,1,1.08,1.79,5.67,5.67,0,0,1-1.13,5.9,5.24,5.24,0,0,1-1.7,1.22A5.15,5.15,0,0,1,346.35,284.31Zm-3.19-5.57a4.63,4.63,0,0,0,.22,1.38,3.67,3.67,0,0,0,.63,1.17,3.19,3.19,0,0,0,1,.82,3.09,3.09,0,0,0,2.72,0,3.05,3.05,0,0,0,1-.84,3.8,3.8,0,0,0,.62-1.18,4.41,4.41,0,0,0,.21-1.34,4.34,4.34,0,0,0-.23-1.38,3.87,3.87,0,0,0-.63-1.17,3.07,3.07,0,0,0-1-.81,3.07,3.07,0,0,0-2.71,0,3.05,3.05,0,0,0-1,.84,3.83,3.83,0,0,0-.61,1.17A4.41,4.41,0,0,0,343.16,278.74Z" style="fill:#fff"></path><path d="M355.49,277.19v7h-2.14v-11H355l5.72,7.21v-7.19h2.13v11h-1.73Z" style="fill:#fff"></path><path d="M368.86,284.23v-11h4.66a3.16,3.16,0,0,1,1.4.32,3.75,3.75,0,0,1,1.1.83,4.09,4.09,0,0,1,.73,1.18,3.65,3.65,0,0,1,.26,1.32,3.71,3.71,0,0,1-.25,1.35,3.62,3.62,0,0,1-.69,1.17,3.51,3.51,0,0,1-1.08.82,3.12,3.12,0,0,1-1.4.31H371v3.68Zm2.14-5.55h2.47a1.22,1.22,0,0,0,1-.48,1.94,1.94,0,0,0,.4-1.3,2,2,0,0,0-.13-.75,1.79,1.79,0,0,0-.32-.56,1.21,1.21,0,0,0-.47-.35,1.37,1.37,0,0,0-.55-.12H371Z" style="fill:#fff"></path><path d="M378.5,284.23v-11h2.13v9.11h5.6v1.87Z" style="fill:#fff"></path><path d="M395.15,282.36v1.87h-7.62v-11H395v1.87h-5.35v2.65h4.62v1.73h-4.62v2.86Z" style="fill:#fff"></path><path d="M399.94,273.25h1.89l4.17,11h-2.19l-1-2.74H399l-1,2.74h-2.2ZM402.4,280l-1.52-4.31L399.31,280Z" style="fill:#fff"></path><path d="M413.58,276.13a2.33,2.33,0,0,0-.39-.3,5.63,5.63,0,0,0-.7-.36,5.46,5.46,0,0,0-.89-.3,4,4,0,0,0-1-.13,2.17,2.17,0,0,0-1.32.33,1.07,1.07,0,0,0-.43.91.94.94,0,0,0,.16.57,1.42,1.42,0,0,0,.47.39,4.22,4.22,0,0,0,.78.31l1.09.29c.54.15,1,.3,1.47.47a4,4,0,0,1,1.11.62,2.49,2.49,0,0,1,.7.88,2.92,2.92,0,0,1,.25,1.28,3.21,3.21,0,0,1-.33,1.51,2.74,2.74,0,0,1-.9,1,3.93,3.93,0,0,1-1.3.57,7,7,0,0,1-1.54.17,8.16,8.16,0,0,1-2.44-.37,7.61,7.61,0,0,1-2.16-1.05l.94-1.84a3.14,3.14,0,0,0,.5.36,7.51,7.51,0,0,0,.86.45,6.45,6.45,0,0,0,1.1.38,5.06,5.06,0,0,0,1.23.16c1.18,0,1.77-.38,1.77-1.13a1,1,0,0,0-.2-.61,1.79,1.79,0,0,0-.58-.43,5.2,5.2,0,0,0-.89-.34l-1.18-.34a9.89,9.89,0,0,1-1.37-.47,3.58,3.58,0,0,1-1-.6,2.29,2.29,0,0,1-.58-.81,2.75,2.75,0,0,1-.2-1.09,3.46,3.46,0,0,1,.31-1.48,3.09,3.09,0,0,1,.86-1.09,4.06,4.06,0,0,1,1.28-.65,5.2,5.2,0,0,1,1.56-.23,6.11,6.11,0,0,1,2.13.37,7.72,7.72,0,0,1,1.7.86Z" style="fill:#fff"></path><path d="M424.14,282.36v1.87h-7.62v-11H424v1.87h-5.35v2.65h4.62v1.73h-4.62v2.86Z" style="fill:#fff"></path></g><g id="freepik--Character--inject-187"><path d="M219.5,440.88H132.92c-.72-2.79-1.41-5.53-2.1-8.23-.79-3.11-1.57-6.14-2.31-9.09-.17-.66-.34-1.32-.51-2-.57-2.26-1.13-4.47-1.68-6.61-.33-1.3-.66-2.59-1-3.86s-.66-2.57-1-3.81c-.09-.33-.16-.66-.25-1s-.18-.72-.27-1.07-.22-.85-.33-1.28h0c-.12-.45-.23-.89-.34-1.33l-.62-2.46c-.31-1.18-.6-2.35-.89-3.48-.12-.49-.25-1-.37-1.47q-.31-1.19-.6-2.31c-.13-.51-.25-1-.37-1.48-.51-2-1-3.86-1.42-5.6-.13-.46-.23-.91-.36-1.35-.18-.76-.37-1.48-.54-2.18q-.18-.66-.33-1.29c-.39-1.49-.74-2.85-1-4.05-.09-.31-.17-.62-.25-.92-.19-.79-.38-1.49-.53-2.12-.07-.25-.12-.49-.19-.71s-.12-.48-.18-.69-.07-.31-.11-.44-.11-.42-.15-.59a1.38,1.38,0,0,0-.07-.26c-.13-.52-.19-.78-.19-.78h84.28s2.77,9.56,7.22,25c.9,3.14,1.87,6.53,2.92,10.13C212.35,415.88,215.79,427.88,219.5,440.88Z" style="fill:#37474f"></path><path d="M147.09,440.88h-2.16q-4.8-19.9-9.31-39.87c-.73-3.23-1.44-6.47-2.15-9.72-.07-.31-.14-.6-.2-.91,0-.16.21-.23.25-.07l.09.3q1.47,5.22,2.91,10.46Q142,420.92,147.09,440.88Z" style="fill:#263238"></path><path d="M196.52,370.48l-3.71,18.62-3.06,15.27-5.19,26-.53,2.66-.89,4.45-.67,3.37H132.91l-2.09-8.23c-.79-3.11-1.57-6.14-2.31-9.09-.17-.66-.34-1.32-.51-2-.57-2.26-1.13-4.47-1.68-6.61-.33-1.3-.66-2.59-1-3.86s-.66-2.57-1-3.81c-.09-.33-.16-.66-.25-1s-.18-.72-.27-1.07-.22-.85-.33-1.28h0c-.12-.45-.23-.89-.34-1.33l-.62-2.46c-.31-1.18-.6-2.35-.89-3.48-.13-.5-.25-1-.37-1.47q-.31-1.19-.6-2.31c-.13-.51-.25-1-.37-1.48-.51-2-1-3.86-1.42-5.6-.13-.46-.23-.91-.36-1.35-.18-.76-.37-1.48-.54-2.18q-.18-.66-.33-1.29c-.39-1.49-.74-2.85-1-4.05-.09-.31-.17-.62-.25-.92-.19-.79-.38-1.49-.53-2.12-.07-.25-.12-.49-.19-.71s-.12-.48-.18-.69-.07-.31-.11-.44-.11-.42-.15-.59a1.38,1.38,0,0,0-.07-.26c-.13-.52-.19-.78-.19-.78Z" style="fill:#263238"></path><path d="M196.54,370.44v0c0,.46-.36,5.48-1.17,13.15-.23,2.24-.5,4.7-.82,7.33-.49,4.16-1.11,8.75-1.87,13.6-1.29,8.46-3,17.68-5.17,26.7-.78,3.25-1.64,6.47-2.55,9.62l-108.79,0c1.28-16.58,2.46-31.58,3.39-43.4,1.3-16.63,2.14-27,2.14-27l98.68,0Z" style="fill:#37474f"></path><path d="M196.31,380.44c-.13,3.89-.29,7.78-.54,11.65-.27,4.2-.65,8.4-1.2,12.59,0,.15,0,.31,0,.46-.52,3.93-1.1,7.84-1.77,11.75-.63,3.64-1.09,7.57-2.7,10.94a10.68,10.68,0,0,1-2.54,3.43,7.51,7.51,0,0,1-3.48,1.8,3.53,3.53,0,0,1-.65.11h-.19a.25.25,0,0,1,.12.23c0,1.31,0,2.64-.15,3.93,0,.06,0,.11,0,.17-.13,1.13-.34,2.25-.55,3.37h-1.87a.36.36,0,0,0,0-.07c.33-1.23.6-2.47.91-3.71s.74-2.5,1-3.78a.19.19,0,0,1,.09-.12,5.81,5.81,0,0,1-5.62-3.53,10.05,10.05,0,0,1-.09-5.11c.34-2.23.67-4.45,1-6.68.64-4.1,1.46-8.14,2.18-12.21l.33-1.86c1.46-8.28,3-16.57,4.82-24.77.07-.35.14-.69.22-1s.42-.16.4.06c-.06.55-.11,1.11-.18,1.66-.32,3.15-.69,6.28-1.13,9.41-.53,3.68-.89,7.37-1.41,11.05-.17,1.25-.35,2.5-.53,3.75-.85,6.05-1.73,12.09-2.76,18.12-.48,2.8-2.22,7.81,1.8,8.68a4.13,4.13,0,0,0,2.73-.34,8.6,8.6,0,0,0,3.75-4.73,64,64,0,0,0,2.14-10.07q1-5.53,1.75-11.08h0c.66-4.62,1.34-9.22,2.06-13.83l1.11-7.05c.18-1.08.35-2.17.53-3.26C195.94,380.14,196.31,380.21,196.31,380.44Z" style="fill:#263238"></path><path d="M100,409.36a55.26,55.26,0,0,0,13.42-1.8c2-.52,4-1.17,6-1.82a15.59,15.59,0,0,0,5.41-2.72c3-2.63,4.47-6.77,5.8-10.45a100,100,0,0,0,3.52-12.7c0-.21.35-.14.36.06a49.07,49.07,0,0,1-1.83,14.41c-1.09,4-2.56,8.42-5.78,11.21-3.38,2.93-8,4-12.3,4.5a56.35,56.35,0,0,1-14.62-.21A.24.24,0,0,1,100,409.36Z" style="fill:#263238"></path><path d="M92.49,380q-.36,9.13-.76,18.28-.95,21.3-2.06,42.6h-2q1.41-21.36,3-42.66Q91.27,389.1,92,380C92,379.65,92.51,379.67,92.49,380Z" style="fill:#263238"></path><path d="M179.72,245.09c14.93,18.08,68.28,84.65,60.77,103.19-7.61,18.78-25.42,31.69-34.69,18.61-7.65-10.79-36.45-85.48-40.57-104.77C161.31,243.76,165,227.32,179.72,245.09Z" style="fill:#d3766a"></path><path d="M175.43,310.17l55.47-11s-39.05-48.41-54.55-59.41c-17.45-12.37-20-.74-16.72,19.33S175.43,310.17,175.43,310.17Z" style="fill:#FFC727"></path><path d="M230.9,299.14l-55.47,11s-12.56-31-15.8-51.11-.73-31.7,16.72-19.33c.88.63,1.84,1.38,2.87,2.23l1.26,1.07s0,0,0,0c5.63,4.89,12.9,12.51,20.16,20.56l.4.44c5.72,6.37,11.43,13,16.3,18.74l2,2.43C226.19,293.3,230.9,299.14,230.9,299.14Z" style="fill:#FFC727"></path><path d="M191.75,293.86a17.81,17.81,0,0,0-1.19,5,18.46,18.46,0,0,0,2.42-4.49,17.76,17.76,0,0,0,1.2-4.95A18.1,18.1,0,0,0,191.75,293.86Zm-20.7-24.3a17.76,17.76,0,0,0-5-1.2,17.7,17.7,0,0,0,4.47,2.43,17.93,17.93,0,0,0,5,1.2A17.7,17.7,0,0,0,171.05,269.56Zm10.69-24.12a24.69,24.69,0,0,0-1.25-2.39s0,0,0,0L179.22,242a20.36,20.36,0,0,0,1.32,4,17.32,17.32,0,0,0,2.65,4.35A17.85,17.85,0,0,0,181.74,245.44Zm38.11,40.73c-.15-.32-.3-.64-.46-.95l-2-2.43a19.34,19.34,0,0,0,1.28,3.92,18,18,0,0,0,2.66,4.35A17.83,17.83,0,0,0,219.85,286.17Zm-19.2-22.56c-.28.2-.56.42-.83.65a12.13,12.13,0,0,0,1.23-.21Z" style="fill:#fff"></path><path d="M221.14,290.84c-2,.08-19.32,3.25-23.07,4s-19.13,3.77-22.94,4.89a.14.14,0,0,0,0,.27c3.94-.38,19.45-3.36,23.29-4.06s20.93-4.22,22.75-4.87C221.37,291,221.28,290.84,221.14,290.84Z" style="fill:#263238"></path><path d="M207.4,303.81l-32,6.35s-12.56-31-15.8-51.1c-2.39-14.81-1.65-25,5.91-24.39Z" style="fill:#263238"></path><path d="M214,401.56,73.27,409s11.92-119.91,64-170.9c6.43-6.3,23.53-9.21,32.27-2.39,4.66,3.64,13.11,19.92,17.59,36.54S214.38,401,214,401.56Z" style="fill:#FFC727"></path><path d="M153.12,249.31a18.19,18.19,0,0,0-1.19,4.95,17.75,17.75,0,0,0,2.43-4.48,18.11,18.11,0,0,0,1.2-4.95A18.29,18.29,0,0,0,153.12,249.31Zm-16.19,64.18a17.48,17.48,0,0,0-1.2,5,19.57,19.57,0,0,0,3.62-9.43A18.16,18.16,0,0,0,136.93,313.49Zm-10.29,68.09a17.77,17.77,0,0,0-1.2,4.94,19.57,19.57,0,0,0,3.62-9.43A17.92,17.92,0,0,0,126.64,381.58Zm65.29-88.16-.18.44a17.81,17.81,0,0,0-1.19,5,15.87,15.87,0,0,0,1.86-3.16h0C192.25,294.89,192.09,294.15,191.93,293.42Zm-26.69,81.11a17.86,17.86,0,0,0-1.21,5,17.73,17.73,0,0,0,2.44-4.47,18.1,18.1,0,0,0,1.19-4.95A18.16,18.16,0,0,0,165.24,374.53Zm-57.05-85.9a17.66,17.66,0,0,0-1.19,4.95,18,18,0,0,0,2.42-4.48,17.76,17.76,0,0,0,1.2-5A17.75,17.75,0,0,0,108.19,288.63Zm62.86-19.07a17.76,17.76,0,0,0-5-1.2,17.7,17.7,0,0,0,4.47,2.43,17.93,17.93,0,0,0,5,1.2A17.7,17.7,0,0,0,171.05,269.56Zm14.07,53.63a17.85,17.85,0,0,0-4.94-1.19,17.35,17.35,0,0,0,4.47,2.42,18.13,18.13,0,0,0,4.95,1.21A17.62,17.62,0,0,0,185.12,323.19ZM192.49,387a17.76,17.76,0,0,0-5-1.2,19.63,19.63,0,0,0,9.42,3.63A18,18,0,0,0,192.49,387ZM87.17,383.51a17.76,17.76,0,0,0-5-1.2,19.71,19.71,0,0,0,9.43,3.63A17.93,17.93,0,0,0,87.17,383.51Zm37.5-42.86a17.68,17.68,0,0,0-5-1.21,17.79,17.79,0,0,0,4.48,2.44,18.1,18.1,0,0,0,5,1.19A18,18,0,0,0,124.67,340.65Zm13.47-60.75a18,18,0,0,0-2.66-4.35,19.53,19.53,0,0,0,4.11,9.23A18.24,18.24,0,0,0,138.14,279.9Zm24.33,54a18.24,18.24,0,0,0-2.65-4.35,17.78,17.78,0,0,0,1.45,4.88,18,18,0,0,0,2.65,4.35A18,18,0,0,0,162.47,333.89Zm-57.29,29.35a17.78,17.78,0,0,0-2.66-4.34,18.24,18.24,0,0,0,1.45,4.88,17.6,17.6,0,0,0,2.66,4.34A17.88,17.88,0,0,0,105.18,363.24ZM114.7,406a17.92,17.92,0,0,0-2.65-4.35,17.34,17.34,0,0,0,1.45,4.88c.06.14.13.27.19.41l1.37-.07Zm74.62-51.38a17.76,17.76,0,0,0-4.35,2.64,19.62,19.62,0,0,0,9.23-4.09A17,17,0,0,0,189.32,354.57ZM147.7,398a18,18,0,0,0-4.35,2.65,18,18,0,0,0,4.88-1.45,17.65,17.65,0,0,0,4.35-2.66A17.46,17.46,0,0,0,147.7,398Zm-68,9.9c-.6.28-1.2.57-1.78.89l3.31-.17a15.52,15.52,0,0,0,3.35-2.18A18,18,0,0,0,79.67,407.9Zm26.13-91.21a18.18,18.18,0,0,0-4.35,2.65,19.74,19.74,0,0,0,9.24-4.1A17.85,17.85,0,0,0,105.8,316.69Zm38.25,42.48a18.15,18.15,0,0,0-4.35,2.66,17.51,17.51,0,0,0,4.89-1.45,17.91,17.91,0,0,0,4.35-2.66A18.2,18.2,0,0,0,144.05,359.17Zm17-65.47a18,18,0,0,0-4.35,2.65,19.74,19.74,0,0,0,9.24-4.1A17.85,17.85,0,0,0,161,293.7Zm-37.65-38.25c-.35.16-.69.32-1,.5-.39.56-.78,1.13-1.16,1.7a23.41,23.41,0,0,0,2.73-1,18.31,18.31,0,0,0,4.35-2.65A17.85,17.85,0,0,0,123.39,255.45Z" style="fill:#fff"></path><path d="M118.32,255.32C78.77,301.93,51.74,375.59,65.78,386.41c15.93,12.29,74.78,22.4,98.16,24.43,7.25.63,8.35-59.44.57-59.26-9.43.22-44.69-6.94-45.63-6.95-2,0,17.19-61,22.74-84.88C149.35,226.46,133.17,237.82,118.32,255.32Z" style="fill:#d3766a"></path><path d="M241.1,361c1.68,6-3.73,9.54-3.73,9.54a13.3,13.3,0,0,1,4.2,8c.49,5.46-7.86,8.62-7.86,8.62a16.41,16.41,0,0,1,3.08,9.16c-.06,5.27-8,9.66-8,9.66a14.38,14.38,0,0,1-2.36,9.76c-5.48,7.45-19.56,6.39-28.51,5.8s-36.2-11.74-41.13-13.18L162.41,352s40.9-8.8,51.33-6.62C222.53,347.24,239.21,354.28,241.1,361Z" style="fill:#d3766a"></path><path d="M237.2,370.29c-8.87-4.19-18.5-5.54-28-7.43-.21,0-.27.3-.06.34,9.51,1.76,18.54,5.39,28,7.54A.24.24,0,0,0,237.2,370.29Z" style="fill:#263238"></path><path d="M233.57,386.44A25.56,25.56,0,0,0,227,385c-2.35-.34-4.7-.65-7.06-.91q-7.08-.81-14.19-1.25c-.21,0-.28.31-.06.33,4.7.54,9.4,1.15,14.07,1.89q3.51.56,7,1.16a30.49,30.49,0,0,0,6.64.84A.34.34,0,0,0,233.57,386.44Z" style="fill:#263238"></path><path d="M228.56,406c-1.74-.85-4.06-.79-5.95-1-2.16-.2-4.31-.41-6.47-.63-4.3-.44-8.6-.89-12.89-1.48-.21,0-.28.3-.06.33,4.35.62,8.69,1.31,13.05,1.89q3.21.44,6.42.83c1.83.23,4.08.72,5.89.25A.12.12,0,0,0,228.56,406Z" style="fill:#263238"></path><path d="M132.32,313.54l-56-8.15s36.5-50.36,51.41-62.14c16.78-13.26,19.89-1.78,17.7,18.43S132.32,313.54,132.32,313.54Z" style="fill:#FFC727"></path><path d="M123.39,255.45A17.68,17.68,0,0,0,119,258.1a19.74,19.74,0,0,0,9.24-4.1A17.85,17.85,0,0,0,123.39,255.45Zm14.75,24.45a18,18,0,0,0-2.66-4.35,19.53,19.53,0,0,0,4.11,9.23A18.24,18.24,0,0,0,138.14,279.9Zm-55.4,16.84h0c-.27.37-.54.74-.81,1.09l.07,0a18.13,18.13,0,0,0,5,1.21A17.37,17.37,0,0,0,82.74,296.74Zm25.45-8.11a17.66,17.66,0,0,0-1.19,4.95,18,18,0,0,0,2.42-4.48,17.76,17.76,0,0,0,1.2-5A17.75,17.75,0,0,0,108.19,288.63Z" style="fill:#fff"></path><path d="M85.68,296.19c2,0,19.46,2.25,23.24,2.83s19.3,2.77,23.17,3.69a.14.14,0,0,1,0,.28c-3.95-.18-19.6-2.35-23.47-2.86s-21.12-3.13-23-3.68C85.46,296.4,85.54,296.19,85.68,296.19Z" style="fill:#263238"></path><path d="M127.89,312.46c1.7.12,4.35.41,4.35.41,1.67-7.72,4.17-15.33,6.18-23s4.33-15.47,6.47-23.22a.09.09,0,0,1,.18.05q-1.4,6.69-2.86,13.35l.66-1.6c.78-1.89,1.61-3.76,2.33-5.68a.13.13,0,0,1,.26.07,50.51,50.51,0,0,1-2,5.87c-.57,1.34-1.23,2.63-1.9,3.92-.58,2.54-1.15,5.09-1.8,7.62-2,7.77-3.6,16.54-6.18,24.13,0,0-3.91-.91-5.83-1.58A.19.19,0,0,1,127.89,312.46Z" style="fill:#263238"></path><path d="M169.4,259.77c-7.56,2.57-22-8-28.16-17.07-.41-.63-.07-7.65-.06-16.21,0-5.19-.14-11-.65-16.24-.11-1.08,33.81,4.86,33.81,4.86s-2.19,11.35-1.26,20.53a11.75,11.75,0,0,0,.44,2.14c0,.09.06.21.08.35C174.66,242.17,176.72,257.28,169.4,259.77Z" style="fill:#d3766a"></path><path d="M170.22,238.63a20.14,20.14,0,0,0,3.37-.5,2.78,2.78,0,0,0-.08-.36,12.28,12.28,0,0,1-.43-2.14c-.93-9.17,1.25-20.52,1.25-20.52s-27.52-4.83-32.9-5C143,216.11,150.7,240.07,170.22,238.63Z" style="fill:#263238"></path><path d="M131.18,169.06c-2.65,12,6.23,45.41,15.17,52.31,13,10,32.85,9.47,41-5.8,7.91-14.81-4.43-58.13-14.3-64.26C158.53,142.29,135.1,151.32,131.18,169.06Z" style="fill:#d3766a"></path><path d="M189.74,196.83s-.08,0-.08,0c.65,8.41-.65,16.87-6.15,23.54a18.11,18.11,0,0,1-4.92,4.31.09.09,0,0,0,.09.15,23.6,23.6,0,0,0,4.73-3.39,21,21,0,0,0,3.6-4.63,25.94,25.94,0,0,0,3.52-12.43A37.76,37.76,0,0,0,189.74,196.83Z" style="fill:#263238"></path><path d="M166.1,187.24c0-.09-.15.15-.12.24.61,2.23,1,4.9-.91,6.14-.06,0,0,.15.05.12C167.52,192.79,167.05,189.25,166.1,187.24Z" style="fill:#263238"></path><path d="M163.52,185.37c-3.7.61-2.21,7.95,1.21,7.38S166.61,184.86,163.52,185.37Z" style="fill:#263238"></path><path d="M179.18,184.4c0-.09.2.07.22.16.37,2.29,1.18,4.85,3.39,5.2.07,0,.08.13,0,.14C180.21,190,179.17,186.62,179.18,184.4Z" style="fill:#263238"></path><path d="M180.75,181.62c3.6-1,5.33,6.29,2,7.21S177.73,182.45,180.75,181.62Z" style="fill:#263238"></path><path d="M165.58,181.65a30.54,30.54,0,0,1-2.65,1.55,5,5,0,0,1-3,1.06,1.59,1.59,0,0,1-1.3-1.44c0-1.5,1-2.52,2.26-3.27a5.76,5.76,0,0,1,4.05-.92A1.69,1.69,0,0,1,165.58,181.65Z" style="fill:#263238"></path><path d="M182.47,174.8a28.43,28.43,0,0,1-3.07-.17,5,5,0,0,1-3.1-.77A1.57,1.57,0,0,1,176,172c.79-1.27,2.26-1.53,3.68-1.5a5.79,5.79,0,0,1,3.89,1.46A1.7,1.7,0,0,1,182.47,174.8Z" style="fill:#263238"></path><path d="M169.42,205.38c2.64-1.74,6.41-2.15,8.81-2.35.26-.09.39-.65.38-.91v0c0-.08-1.14-4.76-1.14-4.76.69.18,4.21,1,4,.06-2-7.37-4.24-15.57-7.8-22.48a.21.21,0,0,0-.4.14c1.66,7.17,4.55,14,6.33,21.16a13.43,13.43,0,0,0-3.84-.34c-.23.12,1.48,5,1.56,5.77,0,0-4.87-.41-8.11,2.75C168.33,205.22,168.16,206.21,169.42,205.38Z" style="fill:#263238"></path><path d="M164.91,211.69c.65.4,1.35,1,2.18.91a6,6,0,0,0,2.29-1.09.08.08,0,0,1,.12.1,3.11,3.11,0,0,1-2.59,1.83,2.45,2.45,0,0,1-2.19-1.61C164.66,211.71,164.82,211.63,164.91,211.69Z" style="fill:#263238"></path><path d="M174.17,201.89c-2.13.42-8.89,3.16-7.21,6.3.73,1.38,3,.56,4.74-1.45A14.83,14.83,0,0,0,174.17,201.89Z" style="fill:#263238"></path><path d="M170.83,207.63c-1.54,1.33-3.26,1.71-3.88.56a2.21,2.21,0,0,1,.25-2.43C168.5,205.54,171.27,205.32,170.83,207.63Z" style="fill:#ff9abb"></path><path d="M182.71,162.62c-10.19,11.18-29.77,2.49-29.77,2.49a13.56,13.56,0,0,1-11.43,11.51s2.44,21.13-3,22.36c-8.28,1.89-17.42-25.55-16.11-31.67s8-9.18,8-9.18-.49-4.39,3.7-9.49c4.62-5.65,25.46-4.41,25.46-4.41a18.52,18.52,0,0,1,3.4-7.9,5.24,5.24,0,0,1,7.51-1.05,12.44,12.44,0,0,0-.79,5.53c.44,6.25,5.36,5.09,4-.36a8.73,8.73,0,0,0-3.24-5.17c1.59-4.14,5.28-6.24,8.13-4.89C183.78,132.83,191.19,153.33,182.71,162.62Z" style="fill:#263238"></path><path d="M140.73,196.82s-9.61-9.35-14-5.72,4.29,18.19,10.45,19.23a6,6,0,0,0,7.24-4.64Z" style="fill:#d3766a"></path><path d="M129.32,195.21c-.09,0-.08.14,0,.16,4.35.86,7.19,4.2,9.41,7.79-1.48-1.27-3.27-1.77-5,0-.09.09,0,.24.15.19a3.66,3.66,0,0,1,4.2.5,17.85,17.85,0,0,1,2.51,2.84c.26.33.87,0,.66-.38a.41.41,0,0,1-.05-.09C140.31,201.1,134.94,194.67,129.32,195.21Z" style="fill:#263238"></path><path d="M137.05,245.35a46.53,46.53,0,0,0,17.52,16.18,24.42,24.42,0,0,0,11.31,3.06,10.21,10.21,0,0,0,5.85-1.62,11.8,11.8,0,0,0,3.57-4.87,23.14,23.14,0,0,0,1.72-6.74,55.83,55.83,0,0,0,.34-7.87c0-.1.15-.09.15,0,.07,2.49.35,5,.24,7.46a25.22,25.22,0,0,1-1,6.49,14.73,14.73,0,0,1-3,5.46,9.17,9.17,0,0,1-5.6,2.83,21.7,21.7,0,0,1-12.19-2.14,40.08,40.08,0,0,1-10.33-6.91,43.92,43.92,0,0,1-8.76-11.23C136.75,245.31,137,245.21,137.05,245.35Z" style="fill:#263238"></path><path d="M206.88,364.4c7.43,14.44,26.82,3.92,31-6.61,9.89-24.73,12.93-76.73,10.23-100.66-.87-7.7-50.07-.54-51.92,7.53C194.29,273.11,191.81,335.09,206.88,364.4Z" style="fill:#d3766a"></path><path d="M247.69,260.8s2-15.59,3.17-29.3c.64-7.65-1-23.25-3.11-29.08-3.14-8.73-21.85-43.23-30.31-38.87-7.66,3.94,12.18,31.54,12.18,31.54s-17.56-29.62-25.91-23.17,18.21,34.64,18.21,34.64-18.72-30-26.28-22c-5.71,6.05,16.91,33,16.91,33s-16.27-25.7-22.42-19.73c-6.78,6.6,12.53,32.74,12.53,32.74-13,17.8-15.67,28.93-5.29,39.59C199.05,271.81,247.69,260.8,247.69,260.8Z" style="fill:#d3766a"></path><path d="M236.34,204.94c-1.93-3.55-3.87-7.16-6.11-10.53s-4.61-6.66-7.16-9.81c-6.26-7.71-11.38-11.56-11.09-11.29,6.87,6.44,15.1,18.38,17.34,21.75s4.65,6.61,6.9,10C236.28,205.12,236.39,205,236.34,204.94Z" style="fill:#263238"></path><path d="M224.33,213.27c-2.67-4.43-5.16-8.92-8-13.24s-5.93-8.11-9.07-12.2c-.24-.31-.33-.08-.1.25,3,4.2,5.4,8.32,8.32,12.56s6,8.37,8.78,12.7C224.27,213.41,224.37,213.34,224.33,213.27Z" style="fill:#263238"></path><path d="M215.3,222.27a119.46,119.46,0,0,0-13.79-19.77c-.25-.3-.33,0-.09.34,4.71,6.33,8.42,11.73,13.64,19.57C215.14,222.53,215.38,222.42,215.3,222.27Z" style="fill:#263238"></path><path d="M202.79,180.23a14.5,14.5,0,0,1-.85-4.46,5.94,5.94,0,0,1,1.5-3.78c.06-.07.17,0,.1.1-1.19,1-1.21,2.94-1,4.35a23.51,23.51,0,0,0,1.09,4.05,33.44,33.44,0,0,0,1.75,4,40.57,40.57,0,0,0,2.1,3.76h0a.06.06,0,0,1,0,.07h0a.07.07,0,0,1-.1,0,15.25,15.25,0,0,0-5.25-4,6.48,6.48,0,0,0-3-.81,4,4,0,0,0-3.75,3.73,8,8,0,0,0,.55,2.85,59.83,59.83,0,0,0,2.42,6.2c.51,1.12,1,2.22,1.63,3.3s1.26,2.12,1.77,3.23c0,.07-.22.13-.27.09-.68-.57-5.46-5.2-8.33-5.44a3.55,3.55,0,0,0-3.66,1.93A7.17,7.17,0,0,0,189,204a54.75,54.75,0,0,0,2.37,7.8c0,.08-.1.12-.13,0-.75-1.85-2.38-5.82-2.89-7.75a7.06,7.06,0,0,1,.25-4.9,4.38,4.38,0,0,1,3.56-2.56,7.36,7.36,0,0,1,4.37,1.63,47.94,47.94,0,0,1,4.37,3.82c-.47-.68-2.52-4.25-3.06-5.34a50.37,50.37,0,0,1-2.82-6.75c-.69-2-.87-4.23.75-5.9a5,5,0,0,1,5.63-.86,13,13,0,0,1,4,2.67c-.29-.41-.57-.84-.82-1.28A24.47,24.47,0,0,1,202.79,180.23Z" style="fill:#263238"></path><path d="M199.57,343.29c.91,2.66,1.77,5.32,2.76,7.94s1.94,5.24,3,7.8a37.72,37.72,0,0,0,3.84,7.2,6.57,6.57,0,0,0,.6.75l.64.64a13.18,13.18,0,0,0,1.61,1.12,12.71,12.71,0,0,0,3.59,1.45,13.22,13.22,0,0,0,3.87.3,16.05,16.05,0,0,0,3.85-.83,25.86,25.86,0,0,0,7.08-3.9c1.12-.79,2.14-1.74,3.18-2.63a17,17,0,0,0,2.63-3.09,27.13,27.13,0,0,0,3.55-7.51,24.53,24.53,0,0,1-2.71,8,18,18,0,0,1-2.55,3.5A39.31,39.31,0,0,1,231.4,367a25.47,25.47,0,0,1-7.42,4.46,17.08,17.08,0,0,1-4.32,1,15.43,15.43,0,0,1-4.49-.3,14.77,14.77,0,0,1-4.14-1.73,14.55,14.55,0,0,1-1.83-1.31l-.84-.84a8.08,8.08,0,0,1-.69-.91,34.62,34.62,0,0,1-3.76-7.75A101.13,101.13,0,0,1,199.57,343.29Z" style="fill:#263238"></path></g><g id="freepik--Lines--inject-187"><polygon points="200.99 132.74 213 115.52 218.91 121.54 229.75 108.56 235.94 115.05 218.37 126.36 213.66 120.49 200.99 132.74" style="fill:#455a64"></polygon><polygon points="197.16 142.32 213.73 138.62 213.74 143.91 225.78 144.72 225.9 150.38 209.74 147.46 211.01 142.28 197.16 142.32" style="fill:#455a64"></polygon><polygon points="191.6 132.74 190.38 116.79 196.06 117.48 195.94 104.48 202.27 103.8 198.68 120.64 193.63 119.69 191.6 132.74" style="fill:#455a64"></polygon></g><g id="freepik--Table--inject-187"><polygon points="51.69 441.31 101.26 441.06 150.84 440.98 250 440.81 349.16 440.98 398.74 441.06 448.31 441.31 398.74 441.55 349.16 441.64 250 441.81 150.84 441.64 101.26 441.55 51.69 441.31" style="fill:#263238"></polygon></g><g id="freepik--speech-bubble--inject-187"><path d="M50.69,113a35.47,35.47,0,0,0,56.63,28.5l17.39,4.44-7.24-16.19A35.49,35.49,0,1,0,50.69,113Z" style="fill:#fff"></path><path d="M50.69,113A35.67,35.67,0,0,0,56,131.54a41.12,41.12,0,0,0,2.83,4,41.71,41.71,0,0,0,3.4,3.51,23.17,23.17,0,0,0,1.85,1.59l2,1.46c.66.48,1.39.85,2.08,1.29l1,.62c.35.2.73.36,1.09.54l2.21,1,2.3.82a15.68,15.68,0,0,0,2.34.68c.79.18,1.57.44,2.37.55a35.82,35.82,0,0,0,4.84.53,30.32,30.32,0,0,0,4.86-.07,35.56,35.56,0,0,0,9.44-2.21,36,36,0,0,0,8.46-4.71l.13-.1.17,0,17.41,4.36-.51.61L117,129.9l-.1-.21.12-.21a35.16,35.16,0,0,0,1.16-30.7,36.49,36.49,0,0,0-9.42-12.67,35,35,0,0,0-14.05-7.27,35.58,35.58,0,0,0-15.87-.43,36.06,36.06,0,0,0-14.46,6.66A35.58,35.58,0,0,0,50.69,113Zm0,0A35.63,35.63,0,0,1,64.32,85a35.32,35.32,0,0,1,30.55-6.64,35.71,35.71,0,0,1,14.4,7.23,35.86,35.86,0,0,1,12.85,28.77,35.08,35.08,0,0,1-4.23,15.63l0-.43,7.2,16.21.37.83-.88-.23-17.37-4.52.3-.06a35.58,35.58,0,0,1-18.28,6.82,31.08,31.08,0,0,1-4.92,0,34.77,34.77,0,0,1-4.88-.59c-.82-.12-1.6-.39-2.39-.58a17.38,17.38,0,0,1-2.36-.72l-2.3-.86c-.74-.34-1.47-.71-2.21-1.07-.37-.19-.74-.35-1.1-.55l-1-.65c-.68-.44-1.41-.83-2.07-1.32l-2-1.48a21.76,21.76,0,0,1-1.85-1.61,39.24,39.24,0,0,1-3.4-3.54,38.45,38.45,0,0,1-2.81-4A35.7,35.7,0,0,1,50.69,113Z" style="fill:#263238"></path><polygon points="81.44 91.57 89.74 91.57 89.18 122.17 82 122.17 81.44 91.57" style="fill:#FFC727"></polygon><rect x="82" y="126" width="7.18" height="7.18" style="fill:#FFC727"></rect></g></svg>