<?xml version="1.0" encoding="UTF-8"?><svg xmlns="http://www.w3.org/2000/svg" viewBox="0 0 1128.15 977.01"><defs><style>.cls-1{fill:none;stroke:#292b2a;stroke-miterlimit:10;stroke-width:2px;}.cls-2{fill:#2a2b2a;stroke-width:0px;}</style></defs><g id="SGID_30"><polygon id="Inside" class="cls-1" points="351.73 3313.38 313.47 3313.38 361.94 3229.44 327.82 3170.35 259.58 3170.35 225.47 3229.44 273.93 3313.38 235.67 3313.38 187.21 3229.44 240.45 3137.21 346.95 3137.21 400.2 3229.44 351.73 3313.38"/><polygon id="Middle" class="cls-1" points="489.81 3229.44 391.75 3059.61 337.39 3059.61 337.39 3092.75 372.62 3092.75 451.54 3229.44 372.62 3366.13 214.78 3366.13 135.86 3229.44 214.78 3092.75 250.02 3092.75 250.02 3059.61 195.65 3059.61 97.6 3229.44 195.65 3399.27 391.75 3399.27 489.81 3229.44"/><polygon id="Outside" class="cls-1" points="579.41 3229.44 436.56 2982.01 150.85 2982.01 8 3229.44 150.85 3476.87 230.71 3476.87 230.71 3443.73 169.98 3443.73 46.26 3229.44 169.98 3015.14 417.43 3015.14 541.15 3229.44 417.43 3443.73 346.08 3443.73 346.08 3476.87 436.56 3476.87 579.41 3229.44"/></g><g id="SGID"><polygon class="cls-2" points="757.66 823.8 370.49 823.8 176.91 488.5 370.49 153.21 477.83 153.21 477.83 218.63 408.26 218.63 252.45 488.5 408.26 758.38 719.89 758.38 875.7 488.5 719.89 218.63 650.32 218.63 650.32 153.21 757.66 153.21 951.24 488.5 757.66 823.8"/><polygon class="cls-2" points="678.64 654.24 603.1 654.24 698.79 488.5 631.43 371.84 496.71 371.84 429.36 488.5 525.04 654.24 449.5 654.24 353.82 488.5 458.94 306.42 669.2 306.42 774.33 488.5 678.64 654.24"/><polygon class="cls-2" points="846.11 977.01 650.32 977.01 650.32 911.59 808.34 911.59 1052.61 488.5 808.34 65.42 319.8 65.42 75.54 488.5 319.8 911.59 477.83 911.59 477.83 977.01 282.03 977.01 0 488.5 282.03 0 846.11 0 1128.15 488.5 846.11 977.01"/></g></svg>