<svg xmlns="http://www.w3.org/2000/svg" viewBox="0 0 750 500"><g id="freepik--background-complete--inject-33"><path d="M657.88,299.06l8.29-13.37-4.12-2.55a3.74,3.74,0,0,1-1.71-3.52,22,22,0,0,0,.08-2.3,3.76,3.76,0,0,1,2-3.43l4.24-2.28-7.44-13.87L654.93,260a3.69,3.69,0,0,1-3.84-.21,23.52,23.52,0,0,0-2.13-1.32,3.69,3.69,0,0,1-1.91-3.36l.16-4.81-15.73-.49-.15,4.83a3.68,3.68,0,0,1-2.13,3.23c-.37.17-.73.36-1.09.55s-.72.39-1.06.6a3.68,3.68,0,0,1-3.86,0l-4.12-2.55-8.29,13.37,4.13,2.56a3.71,3.71,0,0,1,1.7,3.51c-.06.76-.09,1.53-.08,2.29a3.77,3.77,0,0,1-1.95,3.44l-4.24,2.27,7.44,13.87,4.24-2.27a3.76,3.76,0,0,1,3.94.27,19.63,19.63,0,0,0,1.95,1.2,3.73,3.73,0,0,1,2,3.36l-.15,4.86,15.72.49.15-4.82a3.74,3.74,0,0,1,2.18-3.25c.36-.16.7-.34,1.05-.52s.68-.38,1-.58a3.74,3.74,0,0,1,3.92,0ZM646,288.24a12.89,12.89,0,1,1,4.54-15A12.88,12.88,0,0,1,646,288.24Z" style="fill:#ebebeb"></path><path d="M609,249.83l9.54-5.51-1.68-2.92a2.62,2.62,0,0,1,.09-2.75,15.38,15.38,0,0,0,.82-1.42,2.61,2.61,0,0,1,2.33-1.45h3.38v-11h-3.38a2.63,2.63,0,0,1-2.33-1.45,15.55,15.55,0,0,0-.82-1.43,2.6,2.6,0,0,1-.09-2.74l1.68-2.92L609,210.7l-1.69,2.93a2.63,2.63,0,0,1-2.43,1.29c-.27,0-.54,0-.82,0s-.54,0-.81,0a2.62,2.62,0,0,1-2.42-1.28l-1.7-2.94-9.55,5.51,1.69,2.93a2.6,2.6,0,0,1-.09,2.74,15.48,15.48,0,0,0-.83,1.42,2.58,2.58,0,0,1-2.32,1.45h-3.38v11H588a2.59,2.59,0,0,1,2.32,1.44,14.25,14.25,0,0,0,.83,1.42,2.62,2.62,0,0,1,.09,2.75l-1.69,2.93,9.55,5.51,1.69-2.93a2.63,2.63,0,0,1,2.43-1.28l.81,0,.82,0a2.63,2.63,0,0,1,2.43,1.28ZM604,239.29a9,9,0,1,1,9-9A9,9,0,0,1,604,239.29Z" style="fill:#ebebeb"></path><path d="M86.31,92.85a2.62,2.62,0,0,1,1.29,2.43c0,.27,0,.54,0,.81s0,.55,0,.82a2.62,2.62,0,0,1-1.28,2.42L83.39,101l5.51,9.55,2.92-1.69a2.62,2.62,0,0,1,2.75.1,15.38,15.38,0,0,0,1.42.82,2.63,2.63,0,0,1,1.45,2.33v3.37h11v-3.37a2.62,2.62,0,0,1,1.44-2.33,14.17,14.17,0,0,0,1.42-.82,2.62,2.62,0,0,1,2.75-.1l2.93,1.69,5.51-9.55-2.94-1.7a2.6,2.6,0,0,1-1.28-2.42c0-.27,0-.54,0-.81s0-.54,0-.81a2.62,2.62,0,0,1,1.28-2.43l2.94-1.69L117,81.61l-2.92,1.69a2.62,2.62,0,0,1-2.75-.09,15.48,15.48,0,0,0-1.42-.83,2.61,2.61,0,0,1-1.45-2.33V76.68h-11v3.37A2.63,2.63,0,0,1,96,82.38a15.64,15.64,0,0,0-1.43.83,2.6,2.6,0,0,1-2.74.09L88.9,81.61l-5.51,9.55ZM103,87.06a9,9,0,1,1-9,9A9,9,0,0,1,103,87.06Z" style="fill:#ebebeb"></path><g id="freepik--aiZGp2--inject-33"><path d="M564.84,94.23a71.48,71.48,0,0,0-4.82,22l-.28,0h-19l-.24,0v-.54c0-.5.11-1,.16-1.5a54.28,54.28,0,0,1,1.29-7.7,59.81,59.81,0,0,1,4.34-12,.45.45,0,0,1,.47-.29h18.1Z" style="fill:#ebebeb"></path><path d="M564.25,143.5H546.31a.41.41,0,0,1-.44-.28,55.52,55.52,0,0,1-4.46-13.57,56.59,56.59,0,0,1-.88-6.87,1,1,0,0,0,0-.23V122c.1,0,.2,0,.3,0h18.9c.35,0,.33,0,.36.36.12,1.57.22,3.14.37,4.7a61.49,61.49,0,0,0,1.2,7.39,66.94,66.94,0,0,0,2.55,8.79A2.34,2.34,0,0,1,564.25,143.5Z" style="fill:#ebebeb"></path><path d="M639.74,149.18l-.16.27a52.37,52.37,0,0,1-5.09,6.59,49,49,0,0,1-7.45,6.87,53.25,53.25,0,0,1-17.46,8.76,54.68,54.68,0,0,1-7.48,1.59l-.73.12h-.44l-.41-.26.47-.34a57.55,57.55,0,0,0,14.16-13.73,65.28,65.28,0,0,0,5.78-9.59.41.41,0,0,1,.44-.28h18.37Z" style="fill:#ebebeb"></path><path d="M621.78,116.27H596.57v-22h19.68a.37.37,0,0,1,.4.27,61.84,61.84,0,0,1,4,12.9,66.35,66.35,0,0,1,1,7C621.68,115,621.73,115.62,621.78,116.27Z" style="fill:#ebebeb"></path><path d="M621.63,122.15c0,.52,0,1-.08,1.55-.11,1.23-.19,2.46-.36,3.68-.24,1.69-.5,3.38-.84,5.05a59.27,59.27,0,0,1-3.27,10.75.42.42,0,0,1-.46.33h-20.2V122.15Z" style="fill:#ebebeb"></path><path d="M590.88,94.37v22.06H566.27c0-.56.05-1.1.1-1.65.13-1.23.23-2.47.43-3.69.3-1.87.62-3.74,1-5.6a57.65,57.65,0,0,1,3.56-10.85.38.38,0,0,1,.42-.27h19.08Z" style="fill:#ebebeb"></path><path d="M590.91,122.44q0,10.38,0,20.74v.32H571.23a.4.4,0,0,1-.43-.29,56,56,0,0,1-3.35-11.11c-.37-2-.65-3.94-.9-5.92-.16-1.29-.2-2.6-.29-3.9,0,0,0-.07,0-.14H590.6C590.85,122.12,590.91,122.2,590.91,122.44Z" style="fill:#ebebeb"></path><path d="M648.51,116.43H627.85A71.65,71.65,0,0,0,623,94.23h19.25a.43.43,0,0,1,.45.27,54.15,54.15,0,0,1,4.77,13.82,59.37,59.37,0,0,1,1,7.74C648.52,116.17,648.51,116.29,648.51,116.43Z" style="fill:#ebebeb"></path><path d="M648.53,122c0,.5,0,1-.07,1.45a53.05,53.05,0,0,1-4.48,18c-.28.64-.58,1.27-.87,1.91a.29.29,0,0,1-.31.19h-19l-.2,0c.23-.66.46-1.3.68-1.94a67.39,67.39,0,0,0,2.55-10.06,65.28,65.28,0,0,0,.89-7.5c0-.59.07-1.18.1-1.78,0-.15,0-.23.21-.22h20.48Z" style="fill:#ebebeb"></path><path d="M639.17,88.61s0,0,0,.08H620.8a.42.42,0,0,1-.44-.25,61.93,61.93,0,0,0-9-13.29,49.79,49.79,0,0,0-6.88-6.34c-1.23-1-2.51-1.84-3.77-2.75l-.21-.16.25-.17c0-.12-.07-.24-.12-.39a54,54,0,0,1,38.51,23.27Z" style="fill:#ebebeb"></path><path d="M587.39,173.13a2.08,2.08,0,0,1-.53.09,49,49,0,0,1-5.89-1.15,52.46,52.46,0,0,1-10.49-3.88,53.64,53.64,0,0,1-10.68-7,50.73,50.73,0,0,1-6.43-6.43,53.19,53.19,0,0,1-4-5.55l-.08-.17H566.4a.4.4,0,0,1,.42.27A65,65,0,0,0,573,159.37a63.27,63.27,0,0,0,7.24,8,55.3,55.3,0,0,0,7,5.61Z" style="fill:#ebebeb"></path><path d="M587.16,65.87c-.77.57-1.67,1.2-2.55,1.88a62.84,62.84,0,0,0-8.15,7.58,56.92,56.92,0,0,0-8.55,12.21c-.15.28-.28.56-.44.83a.39.39,0,0,1-.26.17c-.3,0-.61,0-.92,0H549.84C559,75.61,571.31,67.83,587,65.45l-.1.21Z" style="fill:#ebebeb"></path><path d="M614.26,149.2a59.24,59.24,0,0,1-8.33,11.26,52.16,52.16,0,0,1-9.51,8.07V149.2Z" style="fill:#ebebeb"></path><path d="M590.88,149.21v18.95a54.75,54.75,0,0,1-17.11-18.95Z" style="fill:#ebebeb"></path><path d="M613.69,88.53H596.57V70.46a52.3,52.3,0,0,1,9.61,8.05A60.1,60.1,0,0,1,613.69,88.53Z" style="fill:#ebebeb"></path><path d="M590.88,71V88.67H574.45A52.09,52.09,0,0,1,590.88,71Z" style="fill:#ebebeb"></path></g><rect x="139.83" y="57.62" width="130.11" height="87.68" style="fill:#fff"></rect><path d="M270.44,145.8H139.33V57.12H270.44Zm-130.11-1H269.44V58.12H140.33Z" style="fill:#ebebeb"></path><path d="M152.4,64.26a3,3,0,1,1-3-3A3,3,0,0,1,152.4,64.26Z" style="fill:#37474f"></path><path d="M164.64,64.26a3,3,0,1,1-3-3A3,3,0,0,1,164.64,64.26Z" style="fill:#ebebeb"></path><path d="M176.87,64.26a3,3,0,1,1-3-3A3,3,0,0,1,176.87,64.26Z" style="fill:#FFC727"></path><rect x="139.83" y="70.33" width="130.11" height="1" style="fill:#ebebeb"></rect></g><g id="freepik--Shadow--inject-33"><ellipse cx="375" cy="412.54" rx="328.77" ry="41.32" style="fill:#ebebeb"></ellipse></g><g id="freepik--Floor--inject-33"><polygon points="50.72 358.19 131.79 357.95 212.86 357.86 375 357.69 537.14 357.86 618.21 357.95 699.28 358.19 618.21 358.44 537.14 358.52 375 358.69 212.86 358.52 131.79 358.43 50.72 358.19" style="fill:#263238"></polygon></g><g id="freepik--Device--inject-33"><rect x="178.55" y="97.16" width="391.21" height="261.69" style="fill:#dbdbdb"></rect><rect x="181.4" y="100.35" width="385.53" height="255.31" style="fill:#263238"></rect><rect x="127.6" y="378.47" width="493.12" height="17.96" style="fill:#c7c7c7"></rect><polygon points="127.6 378.47 178.55 358.85 569.77 358.85 620.72 378.47 127.6 378.47" style="fill:#dbdbdb"></polygon><polygon points="183.1 371.51 215.98 358.85 532.33 358.85 565.22 371.51 183.1 371.51" style="fill:#263238"></polygon><rect x="203.18" y="119.75" width="341.95" height="216.51" style="fill:#fff"></rect><rect x="202.89" y="119.75" width="342.24" height="8.33" style="fill:#455a64"></rect><path d="M209.52,123.91a2.07,2.07,0,1,1-2.07-2.06A2.07,2.07,0,0,1,209.52,123.91Z" style="fill:#c7c7c7"></path><path d="M218,123.91a2.07,2.07,0,1,1-2.06-2.06A2.07,2.07,0,0,1,218,123.91Z" style="fill:#fff"></path><path d="M226.39,123.91a2.07,2.07,0,1,1-2.07-2.06A2.07,2.07,0,0,1,226.39,123.91Z" style="fill:#FFC727"></path></g><g id="freepik--Plant--inject-33"><path d="M628.15,310a45.62,45.62,0,0,0,.88,17.57,48.61,48.61,0,0,0,2.7,7.77c1.39,3.21,2.86,6.35,2.5,9.87-.34.22.83.19.87-.16,9.4-5.35,21.45-6.33,28.68-15.08,3.43-4.14,5.16-9.39,6-14.65.89-5.72,1.14-12.05-.34-17.69-1.24-4.76-4-9.36-8.51-11.7s-10.68-2.2-15.55-.69C634.85,288.51,629.63,299.85,628.15,310Z" style="fill:#FFC727"></path><path d="M623.32,379.59c1.28-4.28,2.56-8.55,3.88-12.82,2.58-8.35,5.26-16.67,8.23-24.9q2.67-7.39,5.63-14.64a87.6,87.6,0,0,0-1.13-9.08c-.78-3.65-1.92-7.17-3-10.74-.06-.21.29-.33.38-.12,2.11,4.91,4.87,11.2,4.94,17q3.43-8.21,7.38-16.17a69,69,0,0,0-.41-13.47.16.16,0,0,1,.32-.06,48.13,48.13,0,0,1,.92,11.89q3-6,6.41-11.82c.21-.34.69,0,.51.36q-5.29,10.2-9.88,20.78a45.16,45.16,0,0,1,14.73-8.53c.24-.09.41.25.18.35a53.53,53.53,0,0,0-15.94,10.55q-3.32,7.74-6.32,15.59c5.88-5.77,13.93-9.56,21.71-11.6.27-.07.34.34.08.42-9,2.71-16,7.82-22.86,13.95-.79,2.12-1.58,4.24-2.34,6.36q-4.35,12.09-8.29,24.32-1.9,5.85-3.74,11.73c-1.31,4.22-2.34,8.67-4.05,12.74-.16.39-.86.3-.77-.17A122,122,0,0,1,623.32,379.59Z" style="fill:#263238"></path><path d="M638.91,301.78a23.32,23.32,0,0,1,3.39,8.44c0,.07-.11.12-.14,0a71.88,71.88,0,0,0-3.67-8.28C638.35,301.71,638.75,301.54,638.91,301.78Z" style="fill:#263238"></path><path d="M655.68,321.36a24.93,24.93,0,0,1,8.44-2.84c.07,0,.12.11,0,.14-1.35.56-2.78.95-4.15,1.48s-2.72,1.17-4.12,1.66A.24.24,0,0,1,655.68,321.36Z" style="fill:#263238"></path><path d="M660.41,297.8a16.46,16.46,0,0,1,2.71-1.67.14.14,0,0,1,.15.24,17,17,0,0,1-2.67,1.73C660.43,298.21,660.24,297.92,660.41,297.8Z" style="fill:#263238"></path><path d="M596.46,341.93c6.77,2,13.57,3.87,20.34,5.86.59.17,12-21.76,7.9-33.05-3.83-10.46-12.58-18.29-23-21.84-4.84-1.64-10.78-3-15.89-1.89-4.54,1-7.74,4.72-9.22,9-2,5.8-1.34,12.72-.25,18.65A32.7,32.7,0,0,0,583,333.87C586.59,338.14,591.18,340.37,596.46,341.93Z" style="fill:#FFC727"></path><path d="M586.64,321.09a90.89,90.89,0,0,0,13.28,5.23,56.28,56.28,0,0,1,8.86,3.2c-2.86-6.37-6-12.61-9.33-18.79-4.37-1.27-9-3.24-12.27-6.34a.18.18,0,0,1,.24-.28c3.61,2.54,7.59,4.08,11.58,5.8q-1.35-2.51-2.73-5c-.26-.46.37-.92.68-.47a142.82,142.82,0,0,1,9.62,16.16,73.9,73.9,0,0,0,.7-14.8.1.1,0,0,1,.2,0,49.63,49.63,0,0,1-.17,16.27c2.37,4.74,4.54,9.59,6.48,14.51.77-3,1.78-5.86,2.45-8.84a40.83,40.83,0,0,0,1-13c0-.13.17-.14.19,0a45.87,45.87,0,0,1-2.84,23.93c1.14,2.95,2.22,5.92,3.2,8.9a177.49,177.49,0,0,1,9,47,.29.29,0,0,1-.57,0,233.17,233.17,0,0,0-10.09-46.42c-2-5.9-4.23-11.63-6.71-17.25-4-1.18-8-2.79-11.9-4.15s-7.76-2.86-11-5.38A.14.14,0,0,1,586.64,321.09Z" style="fill:#263238"></path><path d="M580.33,314.72c4.14,1.47,8.06,3.53,12.2,5,.19.07.08.37-.11.33-4.38-.9-8.72-2.25-12.25-5.12C580,314.85,580.19,314.67,580.33,314.72Z" style="fill:#263238"></path><path d="M614.14,305.79c0-.22.27-.35.33-.12,1.14,3.81,1.92,7.86.82,11.76a.15.15,0,0,1-.29,0C614.8,313.49,615,309.66,614.14,305.79Z" style="fill:#263238"></path><path d="M597,297a10.1,10.1,0,0,1,1.8,6.49c0,.15-.24.23-.28.06-.51-2.18-1.35-4.17-2-6.3A.28.28,0,0,1,597,297Z" style="fill:#263238"></path><path d="M677,351.61c-2,6.29-6.7,15-14.17,15.07-4.84.05-9.71-.53-14.57-.59-5.19-.09-10.4-.07-15.59.24-.42,0,.62-15.57,13.12-23.16,3.49-2.12,7.77-2.8,11.74-3.66a54.62,54.62,0,0,1,13.89-1.44c2.86.11,5.25.72,6.27,3.66S677.94,348.61,677,351.61Z" style="fill:#FFC727"></path><path d="M671.61,343.72c-3,.78-6.1,1.68-9.14,2.65a30.69,30.69,0,0,1,2.51-2.46c1.31-1.09,2.75-2,4.15-2.91.12-.08,0-.3-.1-.24a17.15,17.15,0,0,0-7.37,5.86c-3.79,1.22-7.55,2.58-11.17,4.06a42.31,42.31,0,0,0-7.16,3.77,30.09,30.09,0,0,1,2.59-4.51c1.66-2.14,3.9-3.34,6.07-4.87a.19.19,0,0,0-.19-.33,17.74,17.74,0,0,0-9.74,10.56,41.27,41.27,0,0,0-7.09,6.44c-8.26,9.38-14.77,21.87-14.8,34.62,0,.3.49.39.55.07a70.55,70.55,0,0,1,15.76-33.85c.59-.69,1.2-1.35,1.82-2a55.45,55.45,0,0,1,6.82-.51c2.66,0,5.3.39,8,.61,4.36.35,9.18.4,13.12-1.79.17-.1,0-.4-.14-.33-8.77,3.19-18-.86-26.76,1.05a41,41,0,0,1,13-8.36l.81-.33c5.63.68,11.57,2.15,17.05.32.16-.06.1-.31-.07-.26-5.3,1.32-10.38-.34-15.6-.61,5.69-2.21,11.49-4,17.2-6.18C672.12,344,672.13,343.59,671.61,343.72Z" style="fill:#263238"></path><path d="M674.09,349.26a72.45,72.45,0,0,1-8.19.62.06.06,0,0,0,0,.12,17,17,0,0,0,8.26-.53C674.29,349.43,674.23,349.24,674.09,349.26Z" style="fill:#263238"></path><path d="M655.59,343.86a13.43,13.43,0,0,0-4.05,2.82c-.14.13.05.38.2.27.69-.5,1.4-1,2.11-1.44a21.2,21.2,0,0,0,2-1.24A.25.25,0,0,0,655.59,343.86Z" style="fill:#263238"></path><path d="M611.49,364.14c.09.21-.21.4-.32.19,0,0,0,0,0,0a.27.27,0,0,1-.19.13,125.86,125.86,0,0,1-15.26,2.66c-4.13.37-8.89.6-12.51-1.8-4.89-3.25-8.12-11.93-5.47-17.45,3.13-6.55,12.58-3,17.31-.67A34.79,34.79,0,0,1,611.49,364.14Z" style="fill:#FFC727"></path><path d="M615.15,367.17a48.51,48.51,0,0,0-9.11-6.93,31,31,0,0,0-9.24-9.42c-.18-.13-.33.16-.17.28a42,42,0,0,1,7.79,8.2A85.36,85.36,0,0,0,593,354.1a15.24,15.24,0,0,0-6.14-6.16c-.05,0-.12.05-.07.09a24.9,24.9,0,0,1,5.55,5.82c-2.33-.87-4.67-1.68-7-2.45-.21-.07-.29.25-.09.32,4.18,1.63,8.44,3.35,12.58,5.34a48.33,48.33,0,0,1-15.23-.05c-.14,0-.2.18-.06.22a30.06,30.06,0,0,0,16.16.24,76.27,76.27,0,0,1,7.66,4.29,19.45,19.45,0,0,0-6.19.51,47,47,0,0,1-10.89,1.23c-.14,0-.17.23,0,.25,6.31,1.09,12.29-1.78,18.55-1a46.57,46.57,0,0,1,16,18.74c2.64,5.36,4.07,11.05,6.2,16.59a.2.2,0,0,0,.38-.11C628.55,387,623.11,375,615.15,367.17Z" style="fill:#263238"></path><path d="M596.1,352.19a7.06,7.06,0,0,0-1.61-2,6.37,6.37,0,0,0-1.87-1.4c-.06,0-.1.06-.06.11.52.58,1.24,1,1.8,1.58s1,1.23,1.6,1.78A.09.09,0,0,0,596.1,352.19Z" style="fill:#263238"></path><path d="M585.69,355.58c-.94-.23-1.93-.22-2.88-.41a26.4,26.4,0,0,1-2.79-.84.12.12,0,0,0-.09.21,9.23,9.23,0,0,0,5.76,1.33A.15.15,0,0,0,585.69,355.58Z" style="fill:#263238"></path><polygon points="641.17 384.47 640.34 393.88 637.53 425.67 612.64 425.67 609.12 393.88 608.09 384.47 641.17 384.47" style="fill:#455a64"></polygon><polygon points="641.17 384.47 640.34 393.88 609.12 393.88 608.09 384.47 641.17 384.47" style="fill:#263238"></polygon><rect x="605.62" y="381.9" width="38.02" height="7.64" style="fill:#455a64"></rect></g><g id="freepik--searh-engine--inject-33"><rect x="151.75" y="159.98" width="446.5" height="60.92" style="fill:#fff"></rect><path d="M598.75,221.4H151.25V159.48h447.5Zm-446.5-1h445.5V160.48H152.25Z" style="fill:#c7c7c7"></path><rect x="537.33" y="159.98" width="60.92" height="60.92" style="fill:#FFC727"></rect><path d="M587.1,207.52l-5.63,4.26L571.05,198l-3.81-5a8.76,8.76,0,0,0,2.18-1.23,9.19,9.19,0,0,0,2.89-3.75l4.05,5.34Z" style="fill:#fff"></path><path d="M576,175.11a15.36,15.36,0,1,0-5,22.91,15.59,15.59,0,0,0,5.31-4.68A15.36,15.36,0,0,0,576,175.11Zm-6.6,16.64a8.76,8.76,0,0,1-2.18,1.23,9.11,9.11,0,1,1,2.18-1.23Z" style="fill:#fff"></path><rect x="164.49" y="171.96" width="3.27" height="36.97" style="fill:#263238"></rect></g><g id="freepik--Pointer--inject-33"><polygon points="382.8 244.53 389.07 259.67 382.81 262.26 376.51 247.02 366.17 255.04 366.17 212.41 396.01 242.56 382.8 244.53" style="fill:#263238"></polygon><path d="M366.53,206.74a7.59,7.59,0,0,1-.5-2.83,7.38,7.38,0,0,1,.5-2.82,7.19,7.19,0,0,1,.5,2.82A7.39,7.39,0,0,1,366.53,206.74Z" style="fill:#263238"></path><path d="M361.66,208.76a7.49,7.49,0,0,1-2.35-1.65,7.27,7.27,0,0,1-1.65-2.35,8.22,8.22,0,0,1,4,4Z" style="fill:#263238"></path><path d="M359.64,213.63a7.57,7.57,0,0,1-2.82.5,7.39,7.39,0,0,1-2.83-.5,7.21,7.21,0,0,1,2.83-.5A7.38,7.38,0,0,1,359.64,213.63Z" style="fill:#263238"></path><path d="M361.66,218.5a7.63,7.63,0,0,1-1.64,2.35,7.42,7.42,0,0,1-2.36,1.65,7.42,7.42,0,0,1,1.65-2.36A7.63,7.63,0,0,1,361.66,218.5Z" style="fill:#263238"></path><path d="M373.42,213.63a7.39,7.39,0,0,1,2.83-.5,7.19,7.19,0,0,1,2.82.5,7.38,7.38,0,0,1-2.82.5A7.59,7.59,0,0,1,373.42,213.63Z" style="fill:#263238"></path><path d="M371.4,208.76a8.33,8.33,0,0,1,4-4,8.33,8.33,0,0,1-4,4Z" style="fill:#263238"></path></g><g id="freepik--Character--inject-33"><path d="M229.29,429.57c-2.35.79-69.68,1-72.25-.59-1-.6-1.59-10.41-2-22.28-.08-2.56-.16-5.21-.21-7.9l-5.46-35.91,45-.29,4.25,35.92-.17,7.91s25.82,11.44,28.45,13.51S231.64,428.77,229.29,429.57Z" style="fill:#f7a9a0"></path><path d="M229.29,429.57c-2.35.79-69.68,1-72.25-.59-1.19-.74-1.84-15.06-2.2-30.18l43.8-.28-.17,7.91s25.82,11.44,28.45,13.51S231.64,428.77,229.29,429.57Z" style="fill:#fff"></path><path d="M229.29,429.57c-2.35.79-69.68,1-72.25-.59-1-.6-1.59-10.41-2-22.28l43.42-.27s25.82,11.44,28.45,13.51S231.64,428.77,229.29,429.57Z" style="fill:#FFC727"></path><path d="M228.32,426.88c-11.29-.24-56.84-.13-68,.49-.09,0-.09.06,0,.07,11.19.48,56.74,0,68-.38C228.56,427.05,228.56,426.88,228.32,426.88Z" style="fill:#263238"></path><path d="M222.58,417.53a9,9,0,0,0-6.74,2.78,8.78,8.78,0,0,0-2.5,6c0,.06.12.07.13,0a10.49,10.49,0,0,1,9.11-8.68A.07.07,0,0,0,222.58,417.53Z" style="fill:#263238"></path><path d="M202.85,407.53c-4.52,0-9.75,1.57-12.55,5.27-.1.15.1.3.23.23a62.64,62.64,0,0,1,12.4-4.94A.29.29,0,0,0,202.85,407.53Z" style="fill:#263238"></path><path d="M206.34,408.88c-4.52-.05-9.75,1.57-12.54,5.27-.11.14.09.3.23.23a61.72,61.72,0,0,1,12.39-4.94A.29.29,0,0,0,206.34,408.88Z" style="fill:#263238"></path><path d="M209.83,410.23c-4.52-.05-9.75,1.56-12.54,5.27-.11.14.1.29.23.22a62.56,62.56,0,0,1,12.39-4.94A.28.28,0,0,0,209.83,410.23Z" style="fill:#263238"></path><path d="M213.33,411.57c-4.52,0-9.75,1.57-12.55,5.28-.11.14.1.29.23.22a62.64,62.64,0,0,1,12.4-4.94A.29.29,0,0,0,213.33,411.57Z" style="fill:#263238"></path><path d="M163.14,416.64c-5.07,0-5,7.91.05,7.87S168.22,416.6,163.14,416.64Z" style="fill:#263238"></path><path d="M207.69,395.46c-2.3-1.89-5.17,0-6.57,2A23.65,23.65,0,0,0,197.05,409a.12.12,0,0,0,.14.12.56.56,0,0,0,.82.37c3.21-2.24,6.91-4.23,9.34-7.39C208.77,400.24,209.86,397.25,207.69,395.46Zm-5.51,9.62c-1.55,1.14-3.15,2.19-4.66,3.39.8-2.25,1.5-4.53,2.52-6.7a26.4,26.4,0,0,1,1.64-3.06c1-1.49,5.4-5.28,5.87-.37C207.8,401.05,204,403.72,202.18,405.08Z" style="fill:#263238"></path><path d="M185.83,410.69c3.94.59,8-.54,11.86-1.16a.54.54,0,0,0,.33-.82c.06,0,.09-.13,0-.19A23.72,23.72,0,0,0,187.09,403c-2.38-.45-5.75.2-6.09,3.15C180.67,408.94,183.54,410.35,185.83,410.69Zm-2.73-2.56c-3.07-3.87,2.74-4.2,4.48-3.8a25.4,25.4,0,0,1,3.3,1.07,69.64,69.64,0,0,1,6.47,3.08c-1.92.18-3.8.53-5.71.79C189.37,409.57,184.79,410.26,183.1,408.13Z" style="fill:#263238"></path><path d="M83.23,196.88s52.27,88.93,53.67,95.17c2.15,9.59,17.56,104.27,17.56,104.27l43.82-.79s-5.88-82.74-14.76-110.26c-6.39-19.83-49.45-86.49-49.45-86.49Z" style="fill:#f7a9a0"></path><path d="M129.44,437c-2.47.17-69.28-17.45-71.36-19.66a.85.85,0,0,1-.16-.46c-.27-2.18,3.15-10.39,5.55-20.89.15-.67,1.41-3.86,3.17-8.16,4.84-11.83,13.49-32.13,13.49-32.13l43,11-15.48,32.43-2.17,7.6s22.06,17.64,24.07,20.32S131.91,436.87,129.44,437Z" style="fill:#f7a9a0"></path><path d="M129.44,437c-2.47.17-69.28-17.45-71.36-19.66a.85.85,0,0,1-.16-.46c-.27-2.18,3.15-10.39,5.55-20.89.15-.67,1.41-3.86,3.17-8.16l41.05,11.34-2.17,7.6s22.06,17.64,24.07,20.32S131.91,436.87,129.44,437Z" style="fill:#fff"></path><path d="M129.44,437c-2.48.17-69.28-17.45-71.36-19.66-.79-.84.94-9.88,5.38-21.35l42.06,10.78s22.06,17.64,24.07,20.31S131.91,436.87,129.44,437Z" style="fill:#FFC727"></path><path d="M129.18,434.19c-10.86-3.1-54.93-14.6-65.9-16.84-.09,0-.11,0,0,.07,10.69,3.31,54.86,14.44,65.88,16.95C129.37,434.42,129.41,434.25,129.18,434.19Z" style="fill:#263238"></path><path d="M126,423.69a9.09,9.09,0,0,0-7.23,1,8.8,8.8,0,0,0-4,5.2c0,.07.1.1.13,0a10.46,10.46,0,0,1,11-6.07A.07.07,0,0,0,126,423.69Z" style="fill:#263238"></path><path d="M109.47,409c-4.35-1.2-9.82-1-13.47,1.9-.14.11,0,.31.17.28a62.68,62.68,0,0,1,13.24-1.62A.29.29,0,0,0,109.47,409Z" style="fill:#263238"></path><path d="M112.51,411.19c-4.36-1.19-9.83-1-13.48,1.91-.14.11,0,.31.17.27a62.68,62.68,0,0,1,13.24-1.62A.29.29,0,0,0,112.51,411.19Z" style="fill:#263238"></path><path d="M115.54,413.38c-4.36-1.19-9.83-1-13.47,1.91-.14.11,0,.31.16.27a62.86,62.86,0,0,1,13.25-1.62A.29.29,0,0,0,115.54,413.38Z" style="fill:#263238"></path><path d="M118.58,415.58c-4.36-1.2-9.83-1-13.48,1.9-.14.11,0,.31.17.28a62,62,0,0,1,13.24-1.63A.28.28,0,0,0,118.58,415.58Z" style="fill:#263238"></path><path d="M68.75,407.7c-4.91-1.26-6.87,6.37-2,7.63S73.67,409,68.75,407.7Z" style="fill:#263238"></path><path d="M117.23,398.56c-1.74-2.41-5-1.34-6.85.21a23.57,23.57,0,0,0-6.88,10.15.12.12,0,0,0,.1.16c0,.34.32.7.7.56,3.67-1.35,7.76-2.33,10.91-4.76C117.05,403.46,118.87,400.84,117.23,398.56Zm-7.78,7.9c-1.79.7-3.6,1.32-5.37,2.09a70.13,70.13,0,0,1,4.15-5.84,25.8,25.8,0,0,1,2.36-2.54c1.33-1.19,6.57-3.73,5.77,1.14C115.92,404,111.58,405.62,109.45,406.46Z" style="fill:#263238"></path><path d="M92.22,407.72c3.65,1.58,7.86,1.51,11.75,1.9a.55.55,0,0,0,.54-.71.12.12,0,0,0,.06-.18,23.72,23.72,0,0,0-9.19-8.13c-2.18-1-5.6-1.26-6.69,1.5S90.08,406.8,92.22,407.72Zm-2-3.17c-2-4.52,3.72-3.36,5.3-2.53a24.11,24.11,0,0,1,2.92,1.87,67.1,67.1,0,0,1,5.47,4.62c-1.9-.31-3.81-.45-5.72-.69C95.92,407.54,91.32,407,90.22,404.55Z" style="fill:#263238"></path><path d="M108.88,396.67,67.49,385.8s39-93.06,38.64-99.42c-.34-5.64-30.93-50.44-34.06-64.81-3.29-15.09,4.3-28.66,11.45-37l50.55,14.25s-4,8.74-11.42,14.27c0,0,31.76,53,32.58,70.49S108.88,396.67,108.88,396.67Z" style="fill:#f7a9a0"></path><path d="M193.83,347c-12.65,4.83-29.22,10-45.51,11.85-1.91-11.57-4-24.22-5.89-35.41-4.87,11.71-10.5,24.32-15.74,35.71A249.26,249.26,0,0,1,81.47,352c11.16-27.32,24.89-61.81,24.66-65.6-.34-5.63-30.93-50.44-34.06-64.8-3.29-15.1,4.3-28.67,11.45-37.05l50.55,14.25s43.06,66.67,49.45,86.49C187.73,298.33,191.27,323.83,193.83,347Z" style="fill:#263238"></path><path d="M83.52,184.53l54.35,15S177.1,267.83,182.5,279c6.94,14.3,11.57,56.53,11.57,56.53C168.28,354.15,84.7,350.09,80.85,348c0,0,23.72-57.4,23.83-61.18.21-6.89-35.88-49.38-34.8-74.57C70.63,194.74,83.52,184.53,83.52,184.53Z" style="fill:#37474f"></path><path d="M134.2,241.93c-.29-5.12-.65-10.25-1.16-15.36a.24.24,0,0,0-.47,0c.19,5.13.53,10.26.94,15.37s.94,10.23,1.31,15.36c0,.1.17.1.16,0C134.65,252.19,134.5,247.06,134.2,241.93Z" style="fill:#263238"></path><path d="M149.1,271.53c-.68-1.47-1.43-2.92-2.17-4.36s-1.43-2.95-2.16-4.42q-2.29-4.63-4.54-9.28c-.08-.18-.39,0-.31.14q3.59,8.14,7,16.37c2.1,5,4.26,10.27,4.45,15.8.21,5.77-1.78,11.32-3.66,16.68-2,5.63-3.92,11.27-5.71,17-1,3.22-2.19,6.42-3.09,9.69-.44,1.59-1,3.15-1.49,4.73s-1,3.32-1.56,5c0,.1.11.14.15,0,.52-1.45,1.09-2.87,1.65-4.31s1.07-3,1.68-4.46c1.16-2.79,2.19-5.64,3.25-8.46,2.14-5.67,4.19-11.37,6.21-17.08,1.94-5.46,4-11.06,4.25-16.91C153.28,282,151.4,276.59,149.1,271.53Z" style="fill:#263238"></path><path d="M124.54,87.21c-8,5-12.27,15.29-12.27,15.29s-8.68,9.36-8.24,15.58a10.93,10.93,0,0,0,5.16,8.73l.1-3.37s1.17,4.62,7.8,7.87,16.39,3.18,21.76,1.82a18.93,18.93,0,0,0,8.49-4.64l-2.86,4.29a14.24,14.24,0,0,0,12.52-5c5.67-6.33-3.6-19.35-4.08-21.81s1.94-19.07-15.87-20.12C137.05,85.82,130,83.75,124.54,87.21Z" style="fill:#263238"></path><path d="M106.8,125.83a14.25,14.25,0,0,1-3.47-5.78,10.21,10.21,0,0,1,.36-6.68,22.77,22.77,0,0,1,4.86-6.52c1.92-2,4-3.94,5.9-6,.1-.12-.07-.27-.19-.19a62.92,62.92,0,0,0-5.53,4.67,29.56,29.56,0,0,0-4.67,5,11.12,11.12,0,0,0-2.14,5.83,10.84,10.84,0,0,0,1.13,5,18,18,0,0,0,3.62,4.78A.09.09,0,1,0,106.8,125.83Z" style="fill:#263238"></path><path d="M160.13,120.62c-.71-6.47-5.26-11.5-7.37-17.48-1.14-3.24-1.81-6.69-3.58-9.68-.05-.08-.18,0-.14.09,1.4,2.64,1.9,5.56,2.71,8.41a45.57,45.57,0,0,0,3.51,8.23c2.49,4.85,5.48,10.6,3.41,16.14-.95,2.55-3.16,5.12-6,5.34-.11,0-.09.19,0,.17a8.69,8.69,0,0,0,5.79-3.67A11.14,11.14,0,0,0,160.13,120.62Z" style="fill:#263238"></path><path d="M160,122.3a11.31,11.31,0,0,0,0-6.86,15.9,15.9,0,0,0-3.88-5.68c-1.83-1.92-3.78-3.78-4.64-6.35a.09.09,0,0,0-.16.06c1.32,4.23,5.05,6.9,7.13,10.67,2.37,4.31,1.2,9.54-1.91,13.16a18.54,18.54,0,0,1-7.15,5s0,.09,0,.07C154.05,130.57,158.55,127.28,160,122.3Z" style="fill:#263238"></path><path d="M131.7,139.23c4.59,10.12,27.85,24.07,38.75,25.58,7.84,1.08,31.66,1.47,39.82.23,9.57-1.45,2.28-27.28-3.38-26.62-15.54,1.8-28.73,3.81-32.88,3.81-5.06,0-32.47-8.82-35.77-10.06C130.16,129.13,129.09,133.49,131.7,139.23Z" style="fill:#f7a9a0"></path><path d="M204,138.7c9.46-1.23,21.16-3.35,31.07.87a5.29,5.29,0,0,1,2.64,2.27c4.47,1.81,5,4.47,5,4.47,3.65,3,3.78,5.74,3.78,5.74s5.22,2.18,4.43,5.56c-.88,3.79-8,0-13.27.3-12,.73-28.77,5.12-32.2,5.67Z" style="fill:#f7a9a0"></path><path d="M224.57,149.87a77,77,0,0,1,10.52-.05,77.52,77.52,0,0,1,11.28,2.3.09.09,0,0,0,.06-.18,40.79,40.79,0,0,0-21.87-2.23C224.4,149.74,224.4,149.87,224.57,149.87Z" style="fill:#263238"></path><path d="M223.08,142.71c3.44,0,9.48.17,19.59,3.71,0,0,.07,0,0-.06a36.55,36.55,0,0,0-19.61-3.82C222.87,142.56,222.86,142.7,223.08,142.71Z" style="fill:#263238"></path><path d="M222.36,138.85c5.84.3,9.48,1.24,15.36,3,0,0,.06-.05,0-.06-6.46-2.72-9.12-3-15.4-3.16C222.12,138.64,222.13,138.83,222.36,138.85Z" style="fill:#263238"></path><path d="M223.29,159.71c-1.52.71-1.16,1.51,1.75,2.19s15,.88,14.56,5.09-17.47,3.67-22.23,2.17-11.92-5.58-11.92-5.58C208.79,163,216.75,160.89,223.29,159.71Z" style="fill:#f7a9a0"></path><path d="M130.33,140.33c5.29,8.33,23.27,22.2,23.27,22.2l2.7-5.57,9-18.42s-16.71-5.79-27.73-8.47a25.81,25.81,0,0,0-3.95-.68C126.51,128.81,125.77,133.17,130.33,140.33Z" style="fill:#FFC727"></path><path d="M151.32,135.1a10.12,10.12,0,0,1,.2,2.38,10,10,0,0,1-.3,2.36,10,10,0,0,1-.2-2.37A10.69,10.69,0,0,1,151.32,135.1Z" style="fill:#fff"></path><path d="M153.38,144.75a11.41,11.41,0,0,1,4.75.1,10.12,10.12,0,0,1-2.38.2A10.69,10.69,0,0,1,153.38,144.75Z" style="fill:#fff"></path><path d="M129.67,131a10,10,0,0,1,2.37-.2,10.13,10.13,0,0,1,2.37.3,10.12,10.12,0,0,1-2.38.2A10.52,10.52,0,0,1,129.67,131Z" style="fill:#fff"></path><path d="M142.55,140.88A10.44,10.44,0,0,1,141,142.7a10,10,0,0,1-1.89,1.46,11.34,11.34,0,0,1,3.43-3.28Z" style="fill:#fff"></path><path d="M151.42,152.39a11.46,11.46,0,0,1-3.42,3.28,10,10,0,0,1,1.54-1.82A10.75,10.75,0,0,1,151.42,152.39Z" style="fill:#fff"></path><path d="M130.33,140.33c5.29,8.33,23.27,22.2,23.27,22.2l2.7-5.57c-6.62-8.14-16.84-20.48-22.72-27.57C126.51,128.81,125.77,133.17,130.33,140.33Z" style="fill:#263238"></path><path d="M150.39,158.67c1.5-3.39,8.12-17,9.75-19.91.11-.2.26-.18.17,0a207.39,207.39,0,0,1-9.78,19.92C150.49,158.8,150.36,158.75,150.39,158.67Z" style="fill:#263238"></path><path d="M145,153.32c.17,1.71.24,3.47.24,5.23a1.46,1.46,0,0,1,0-.2c.2-.94.4-1.91.68-2.83,0-.05.1-.05.1,0a15.85,15.85,0,0,1-.48,2.89q-.17.68-.36,1.35c0,.78,0,1.56-.09,2.33-.1,1.47-.6,7.73-.77,8.8,0,.22-.29.21-.31,0-.08-1.13.17-7.61.19-9.08a77.48,77.48,0,0,1,.64-8.48C144.86,153.24,145,153.26,145,153.32Z" style="fill:#263238"></path><path d="M141.42,204.19s-23.51.1-64.89-13.35c0,0,28.75-48.87,45.34-60,7.56-5.06,13.24-2.7,17.29,2.63,1,1.33,11.94,24.6,11.66,31.77-.25,6.33-6.73,11.91-6.73,11.91Z" style="fill:#FFC727"></path><path d="M131.85,150.37a10.61,10.61,0,0,1,.25,2.37,10.05,10.05,0,0,1-.25,2.37,10.05,10.05,0,0,1-.25-2.37A10.61,10.61,0,0,1,131.85,150.37Z" style="fill:#fff"></path><path d="M125.4,177.61a10.61,10.61,0,0,1,.25,2.37,10.05,10.05,0,0,1-.25,2.37,10.05,10.05,0,0,1-.25-2.37A10.61,10.61,0,0,1,125.4,177.61Z" style="fill:#fff"></path><path d="M105.64,160.76a11.36,11.36,0,0,1,0,4.74,10.05,10.05,0,0,1-.25-2.37A10.61,10.61,0,0,1,105.64,160.76Z" style="fill:#fff"></path><path d="M141.85,174a11.36,11.36,0,0,1,0,4.74,10.05,10.05,0,0,1-.25-2.37A10.61,10.61,0,0,1,141.85,174Z" style="fill:#fff"></path><path d="M117,155.82a10.05,10.05,0,0,1,2.37-.25,9.56,9.56,0,0,1,2.37.25,11.36,11.36,0,0,1-4.74,0Z" style="fill:#fff"></path><path d="M100.13,176.9a11.41,11.41,0,0,1,4.75,0,11.41,11.41,0,0,1-4.75,0Z" style="fill:#fff"></path><path d="M125.71,193.62a11.36,11.36,0,0,1,4.74,0,11.36,11.36,0,0,1-4.74,0Z" style="fill:#fff"></path><path d="M95.92,190.4a11.41,11.41,0,0,1,4.75,0,11.41,11.41,0,0,1-4.75,0Z" style="fill:#fff"></path><path d="M129.27,132.9a11.36,11.36,0,0,1,4.74,0,11.36,11.36,0,0,1-4.74,0Z" style="fill:#fff"></path><path d="M121,136a11.34,11.34,0,0,1-3.36,3.35,10,10,0,0,1,1.5-1.85A10.45,10.45,0,0,1,121,136Z" style="fill:#fff"></path><path d="M96.3,162.43a10.74,10.74,0,0,1-1.5,1.85,10.37,10.37,0,0,1-1.85,1.5,9.64,9.64,0,0,1,1.5-1.85A10,10,0,0,1,96.3,162.43Z" style="fill:#fff"></path><path d="M135.82,165.26a10.8,10.8,0,0,1-1.51,1.85,10,10,0,0,1-1.85,1.5,11.34,11.34,0,0,1,3.36-3.35Z" style="fill:#fff"></path><path d="M113.14,184.37a10.74,10.74,0,0,1-1.5,1.85,10.37,10.37,0,0,1-1.85,1.5,11.46,11.46,0,0,1,3.35-3.35Z" style="fill:#fff"></path><path d="M142.36,142.54A11.34,11.34,0,0,1,139,145.9a11.34,11.34,0,0,1,3.35-3.36Z" style="fill:#fff"></path><path d="M144.37,160.76a10.91,10.91,0,0,1-1.86-1.5,10.45,10.45,0,0,1-1.5-1.86,11.21,11.21,0,0,1,3.36,3.36Z" style="fill:#fff"></path><path d="M90.71,181a11.46,11.46,0,0,1-3.35-3.35,9.64,9.64,0,0,1,1.85,1.5A10,10,0,0,1,90.71,181Z" style="fill:#fff"></path><path d="M141.44,189.06a11.23,11.23,0,0,1-1.85-1.5,10.45,10.45,0,0,1-1.5-1.86,11.34,11.34,0,0,1,3.35,3.36Z" style="fill:#fff"></path><path d="M111.16,150.08a11.21,11.21,0,0,1-3.36-3.36,11.21,11.21,0,0,1,3.36,3.36Z" style="fill:#fff"></path><path d="M118.67,200.85a10.45,10.45,0,0,1-1.86-1.5,10,10,0,0,1-1.5-1.85,10.45,10.45,0,0,1,1.86,1.5A11.23,11.23,0,0,1,118.67,200.85Z" style="fill:#fff"></path><path d="M118.64,170.29a11.21,11.21,0,0,1-3.36-3.36,11.21,11.21,0,0,1,3.36,3.36Z" style="fill:#fff"></path><path d="M116.28,141.62c-3.9,10.91,1.67,50.92,8.26,59.36,9.81,12.55,29.15,24.1,36.55,27.7,3.22,1.57,17.72-21.59,14.56-23.76-6.77-4.65-28.4-15.74-30.23-17.95s-11.69-23.38-15.64-35.29C124.48,135.7,118.24,136.1,116.28,141.62Z" style="fill:#f7a9a0"></path><path d="M161.11,228.75c10.26,5.85,30.67,5,33.45,4.15,2.38-.72,3.6-1.11,3.6-1.11,4.28-1.2,5.44-3.58,5.44-3.58s5.36.07,5.94-3.16c.66-3.63-7-3-11.42-5.25-10.13-5.13-23.09-15.26-25.86-17Z" style="fill:#f7a9a0"></path><path d="M183.73,221.88a73.85,73.85,0,0,0,9.12,4,73.3,73.3,0,0,0,10.67,2.24.09.09,0,0,1,0,.18,38.7,38.7,0,0,1-19.91-6.16C183.46,222,183.58,221.8,183.73,221.88Z" style="fill:#263238"></path><path d="M179.74,227.54c3,1.25,8.31,3.41,18.42,4.14,0,0,0,.06,0,.06a34.76,34.76,0,0,1-18.54-3.89C179.45,227.75,179.54,227.46,179.74,227.54Z" style="fill:#263238"></path><path d="M186.31,212.84c-1.06-1.19-.44-1.75,2.34-1.24s13.36,4.86,14.57,1-13.8-9.75-18.5-10.24-12.71.37-12.71.37C174.7,204.51,181.07,209.36,186.31,212.84Z" style="fill:#f7a9a0"></path><path d="M127.18,144.37C120.34,130,114.1,133.78,113.5,148c-.56,13.31,1.32,29.61,1.32,29.61l24.8-7.11Z" style="fill:#FFC727"></path><path d="M131.85,150.37a10.61,10.61,0,0,1,.25,2.37,10.05,10.05,0,0,1-.25,2.37,10.05,10.05,0,0,1-.25-2.37A10.61,10.61,0,0,1,131.85,150.37Z" style="fill:#fff"></path><path d="M117,155.82a10.05,10.05,0,0,1,2.37-.25,9.56,9.56,0,0,1,2.37.25,11.36,11.36,0,0,1-4.74,0Z" style="fill:#fff"></path><path d="M121,136a11.34,11.34,0,0,1-3.36,3.35,10,10,0,0,1,1.5-1.85A10.45,10.45,0,0,1,121,136Z" style="fill:#fff"></path><path d="M135.82,165.26a10.8,10.8,0,0,1-1.51,1.85,10,10,0,0,1-1.85,1.5,11.34,11.34,0,0,1,3.36-3.35Z" style="fill:#fff"></path><path d="M118.64,170.29a11.21,11.21,0,0,1-3.36-3.36,11.21,11.21,0,0,1,3.36,3.36Z" style="fill:#fff"></path><path d="M129.56,148.75c.92,1.89,1.9,3.75,2.87,5.61-.17-.88-.3-1.77-.4-2.67,0-.05.05-.05.06,0,.14.7.31,1.4.44,2.1.06.34.13.68.19,1,0,.07,0,.14.05.22.75,1.45,1.5,2.9,2.22,4.38.85,1.76,1.66,3.54,2.47,5.31s1.58,3.95,2.49,5.75a13.86,13.86,0,0,1-2.42.72c-.22.08-.32-.14-.1-.17s2.08-.77,2.1-.79c-.81-1.79-1.82-3.49-2.68-5.25s-1.74-3.51-2.56-5.28c-1.68-3.6-3.15-7.29-4.81-10.91C129.46,148.74,129.53,148.71,129.56,148.75Z" style="fill:#263238"></path><path d="M112.47,157.32c.23.74.49,1.47.67,2.22.08.31.16.63.23.93q-.14-3.84-.25-7.7s0,0,0,0c.35,4.2.72,8.4,1,12.61a119.74,119.74,0,0,1,.55,12.12,14.7,14.7,0,0,1,2.28-.36,10.12,10.12,0,0,1-2.56.74,124.61,124.61,0,0,1-.87-12.67c-.06-1.15-.09-2.31-.14-3.46-.14-.72-.34-1.42-.53-2.13s-.34-1.51-.5-2.27C112.38,157.3,112.45,157.28,112.47,157.32Z" style="fill:#263238"></path><path d="M115.84,173.86c3.49-1.24,18-5.81,21.16-6.59.22-.05.31.07.09.16A206.52,206.52,0,0,1,115.9,174C115.81,174,115.75,173.9,115.84,173.86Z" style="fill:#263238"></path><path d="M129.73,127.37c3.13.45,6.75,2.82,9.53,6.92,2.45,3.62,4.61,8.71,2.79,9.66-2.1,1.11-6-3.57-6-3.57s.74,7.38-3.15,6.85c-4.55-.62-8.45-7.13-9-11.47C123.25,131.14,124.26,126.59,129.73,127.37Z" style="fill:#fff"></path><path d="M125.08,131.07c.27,1.09,5.53,8.07,10.49,7.77,1.62-.1,1.47-8.93,1.47-8.93l.14-.66,1.93-9.16-10.82-6.76-1.56-.89s-.36,2.54-.79,5.71l-.06.45c0,.18,0,.35-.07.52-.07.47-.14.95-.2,1.44s-.09.72-.12,1.11-.08.76-.13,1.15A59.62,59.62,0,0,0,125.08,131.07Z" style="fill:#f7a9a0"></path><path d="M125.94,118.15a18.78,18.78,0,0,0,11.24,11.1l1.93-9.16-10.82-6.76-1.56-.89S126.37,115,125.94,118.15Z" style="fill:#263238"></path><path d="M153.35,107.35c.16,16.44-9.67,18.39-13.22,18.42-3.21,0-14.17-.29-16-16.62s5.74-21.61,13.09-22.06S153.19,90.91,153.35,107.35Z" style="fill:#f7a9a0"></path><path d="M150.65,104.88c-.38-.07-.72-.2-1.09-.3a1.87,1.87,0,0,1-1.06-.52.59.59,0,0,1,0-.71,1.46,1.46,0,0,1,1.45-.26,2.14,2.14,0,0,1,1.29.84A.62.62,0,0,1,150.65,104.88Z" style="fill:#263238"></path><path d="M140,104.54a10.41,10.41,0,0,0,1.12-.16,1.88,1.88,0,0,0,1.12-.39.62.62,0,0,0,0-.72,1.46,1.46,0,0,0-1.41-.42,2.16,2.16,0,0,0-1.38.67A.62.62,0,0,0,140,104.54Z" style="fill:#263238"></path><path d="M141.91,108.81s-.08,0-.08.1c0,1.12-.21,2.4-1.23,2.73,0,0,0,.07,0,.07C141.85,111.58,142.09,109.88,141.91,108.81Z" style="fill:#263238"></path><path d="M141,107.61c-1.79-.2-2.07,3.4-.41,3.59S142.46,107.78,141,107.61Z" style="fill:#263238"></path><path d="M140.24,107.75c-.33.18-.67.51-1.05.52s-.75-.39-1-.78c0,0-.07,0-.07,0-.06.69.15,1.42.88,1.58s1.2-.43,1.43-1.11C140.47,107.87,140.37,107.67,140.24,107.75Z" style="fill:#263238"></path><path d="M148.24,108.84s.08.06.08.1c-.13,1.12-.09,2.41.89,2.87,0,0,0,.07,0,.06C148,111.59,147.94,109.87,148.24,108.84Z" style="fill:#263238"></path><path d="M149.33,107.76c1.81,0,1.65,3.62,0,3.61S147.82,107.74,149.33,107.76Z" style="fill:#263238"></path><path d="M150.08,108c.27.2.54.56.88.6s.7-.33,1-.7c0,0,.06,0,.06,0,0,.7-.28,1.4-1,1.51s-1-.52-1.16-1.22C149.86,108.14,150,108,150.08,108Z" style="fill:#263238"></path><path d="M141.11,117.42c.23.29.45.68.85.76a3,3,0,0,0,1.23-.13s.07,0,0,.06a1.49,1.49,0,0,1-1.48.43,1.19,1.19,0,0,1-.76-1.08C141,117.39,141.07,117.38,141.11,117.42Z" style="fill:#263238"></path><path d="M146,113.68s.12,1.68.07,2.47c0,.07-.2.1-.47.1h0a3.74,3.74,0,0,1-3.54-1.63c0-.08.06-.15.12-.1a5.67,5.67,0,0,0,3.36,1.2c.07-.21-.31-2.87-.18-2.88a6.93,6.93,0,0,1,1.76.52c-.16-3.51-.88-7-1-10.47a.11.11,0,0,1,.21,0,56.59,56.59,0,0,1,1.53,11.24C147.93,114.53,146.34,113.83,146,113.68Z" style="fill:#263238"></path><path d="M145.55,115.94a4.48,4.48,0,0,1-1.88,1.37,2,2,0,0,1-1.25,0c-.9-.27-.9-1.1-.71-1.81a4.66,4.66,0,0,1,.44-1.07A5.93,5.93,0,0,0,145.55,115.94Z" style="fill:#263238"></path><path d="M143.67,117.31a2,2,0,0,1-1.25,0c-.9-.27-.9-1.1-.71-1.81A2.13,2.13,0,0,1,143.67,117.31Z" style="fill:#ff99ba"></path><path d="M125.53,110c4,.15,6.13-12.14,6.37-13.65-.1,1-.62,6-.25,6.28a4.2,4.2,0,0,0,1.29-.15h0a10.91,10.91,0,0,1,.28-1.81,7.66,7.66,0,0,1,.13,1.73l.76-.15a14.71,14.71,0,0,1,.67-3.84c.16-.48.12,1.7.44,3.63A48.66,48.66,0,0,1,145.91,101c1,0,1.88.12,2.64.21.12-1.5.07-3.12.15-2.77a14.34,14.34,0,0,1,.42,2.85c.41,0,.8.11,1.14.17.26-2.12-.5-5.59-.2-5a15,15,0,0,1,1.67,5.38c1.43.39,1.81.71,1.87.33A17.73,17.73,0,0,0,149,90.72c-4.68-5.12-14.63-7.06-20.84-.18,0,0-4.89,2.7-6,7.55S123.2,109.91,125.53,110Z" style="fill:#263238"></path><path d="M127.8,110.07s-3.18-5.39-5.6-4.29-.3,8.72,2.35,9.94a2.77,2.77,0,0,0,3.82-1.2Z" style="fill:#f7a9a0"></path><path d="M122.86,108s-.06,0,0,.07c1.85.92,2.72,2.77,3.28,4.66a1.53,1.53,0,0,0-2.25-.59c-.05,0,0,.11,0,.11a1.71,1.71,0,0,1,1.83.73,8.68,8.68,0,0,1,.78,1.59c.08.18.4.11.35-.09l0-.05C127.09,112,125.46,108.4,122.86,108Z" style="fill:#263238"></path></g></svg>