<?xml version="1.0" encoding="UTF-8"?><svg xmlns="http://www.w3.org/2000/svg" xmlns:xlink="http://www.w3.org/1999/xlink" viewBox="0 0 2195.68 734.4"><defs><clipPath id="v"><path id="w" d="M497.51,487.96h-55.06l69.74-120.79-49.09-85.03h-98.19l-49.09,85.03,69.74,120.79h-55.06l-69.74-120.79,76.62-132.71h153.24l76.62,132.71-69.74,120.79ZM696.19,367.17l-141.09-244.38h-78.23v47.68h50.7l113.56,196.69-113.56,196.69h-227.12l-113.56-196.69,113.56-196.69h50.7v-47.68h-78.23l-141.09,244.38,141.09,244.38h282.18l141.09-244.38ZM825.12,367.17L619.57,11.13H208.44L2.89,367.17l205.56,356.04h140.73v-47.68h-113.2L57.94,367.17,235.97,58.81h356.06l178.03,308.36-178.03,308.36h-117.87v47.68h145.4l205.56-356.04Z" style="fill:none; stroke-width:0px;"/></clipPath></defs><g id="q"><polygon id="r" points="1834.91 -1299.47 1796.65 -1299.47 1845.12 -1383.41 1811 -1442.5 1742.77 -1442.5 1708.65 -1383.41 1757.11 -1299.47 1718.85 -1299.47 1670.39 -1383.41 1723.63 -1475.64 1830.13 -1475.64 1883.38 -1383.41 1834.91 -1299.47" style="fill:none; stroke:#292b2a; stroke-miterlimit:10; stroke-width:2px;"/><polygon id="s" points="1972.99 -1383.41 1874.93 -1553.24 1820.57 -1553.24 1820.57 -1520.1 1855.8 -1520.1 1934.72 -1383.41 1855.8 -1246.72 1697.96 -1246.72 1619.04 -1383.41 1697.96 -1520.1 1733.2 -1520.1 1733.2 -1553.24 1678.83 -1553.24 1580.78 -1383.41 1678.83 -1213.58 1874.93 -1213.58 1972.99 -1383.41" style="fill:none; stroke:#292b2a; stroke-miterlimit:10; stroke-width:2px;"/><polygon id="t" points="2062.59 -1383.41 1919.74 -1630.84 1634.03 -1630.84 1491.18 -1383.41 1634.03 -1135.98 1713.89 -1135.98 1713.89 -1169.12 1653.16 -1169.12 1529.44 -1383.41 1653.16 -1597.7 1900.61 -1597.7 2024.33 -1383.41 1900.61 -1169.12 1829.26 -1169.12 1829.26 -1135.98 1919.74 -1135.98 2062.59 -1383.41" style="fill:none; stroke:#292b2a; stroke-miterlimit:10; stroke-width:2px;"/></g><g id="u"><g style="clip-path:url(#v);"><g id="x"><path d="M767.58,346.54c-82.45,56.79-110.56,117.34-91.28,196.29,18.54,75.93,81.81,128.51,131.61,159.23,23.13,14.29,47.56,26.62,71.99,37.37v-454.5c-39.36,17.55-77.08,37.28-112.32,61.61Z" style="fill:#f6e997; stroke-width:0px;"/><path d="M829.03,709.61c-75.93-37.48-125.04-86.73-142.11-142.48-23.93-78.18,11.97-144.33,106.68-196.52,43.43-23.93,90.07-41.64,137.37-56.81v-89c-6.95,1.8-13.93,3.63-20.84,5.39-94.08,23.96-182.95,46.65-254.07,103.43-.58.49-1.23.97-1.81,1.47-11.01,8.89-21.02,18.84-29.87,29.57-41.63,50.69-57.65,121.42-43.98,194.02,5.22,27.55,14.57,54.12,27.89,78.91,6.74,12.56,14.6,24.83,23.27,36.32,81.27,107.91,234.06,147.6,299.4,160.13v-85.3c-33.74-10.11-68.96-22.86-101.94-39.13Z" style="fill:#e7c91c; stroke-width:0px;"/><path d="M671.36,695.85c-11.22-12.51-21.28-25.8-30-39.46-16.94-26.63-28.85-55.07-35.43-84.51-17.58-78.65,4.17-156.49,59.79-213.54,12.46-12.81,26.73-24.7,42.37-35.42.75-.53,1.59-1.06,2.42-1.62,89.8-60.52,197.72-83.71,302.14-106.16,16.65-3.59,32.97-7.11,49.12-10.75V12.64c-18.6,3.15-37.06,6.62-55.21,10.76-75.24,17.16-162.69,50.48-239.92,91.42-272.63,144.52-419.69,435.03-203.83,637.15,78.06,73.07,186.03,122.62,265.21,151.98h151.54c35.37,0,65.46-15.37,76.97-36.6-71.7-10.01-275.15-48.34-385.18-171.5Z" style="fill:#bc9854; stroke-width:0px;"/><path d="M475.42-158.16c10.06,17.12,18.79,34.93,25.96,52.91,10.38,26,17.82,53.27,22.07,81.02,18.29,118.9-54.16,209.72-130.82,305.92-19.92,24.94-40.47,50.74-59.43,77.16-19.24,26.8-35.56,53.93-48.52,80.62-16.72,34.26-28.13,68.3-33.89,101.3-25.85,146.39,54.5,273.78,237.94,381.27h358.61c-76.76-31.4-155.72-71.19-221.43-120.77-316.35-238.66-108.29-578.51,284.42-746.26,109.29-46.63,234.27-84.85,343.01-104.82,35.47-6.51,71.55-11.89,108.08-16.29v-91.52c0-31.57-47.54-57.4-105.71-57.4h-630.37c-58.17,0-105.73-25.82-105.73-57.39v-231.7c0-31.57-47.54-57.4-105.71-57.4H-627.02c-22.69,0-43.61,4.01-60.88,10.66C79.77-525.66,371.91-334.49,475.42-158.16Z" style="fill:#3a6b7d; stroke-width:0px;"/><path d="M386.93,505.55c5.05-31.01,14.91-62.95,29.35-94.93,11.07-24.67,25.01-49.7,41.39-74.39,15.51-23.36,31.98-45.72,47.94-67.35,57.5-78.03,107.2-145.41,94.87-231.95-3-21.06-8.19-41.72-15.45-61.37-4.96-13.51-11-26.82-17.95-39.62-98.82-182.02-391.14-281.55-854.56-294.19v227.43c78.32-10.79,159.59-19.92,239.88-20.86,26.91-.32,53.01.3,77.66,1.87,25.16,1.61,49.51,4.24,72.37,7.83,138.17,21.67,224.71,83.35,231.56,165,2.62,30.54-3.23,59.17-8.59,77.8-12.9,44.74-33.89,89.68-54.19,133.12-36.82,78.76-74.86,160.17-64.99,241.94,17.41,143.96,119.66,267.52,223.17,358.16h114.81c-146.97-113.34-172.93-232.34-157.25-328.48Z" style="fill:#2a515e; stroke-width:0px;"/><path d="M126.04,555.37c-5.87-26.06-8.27-52.45-7.12-78.37.57-12.16,1.93-24.45,4.07-36.92,11.26-64.97,57.44-124.34,102.11-181.73,35.34-45.46,68.74-88.4,85.97-133.72,5.06-13.43,7.72-26.12,7.83-37.73.14-17.23-5.34-32.38-16.34-44.98C252.16-16.01,74.47-19.77-55.26-14.04v725.4c0,28.65,52.74,52.09,117.27,52.09h187.92c-56.31-57.62-105.62-127.73-123.89-208.08Z" style="fill:#321c38; stroke-width:0px;"/><path d="M248.02,427.2c-8.59-86.82,22.69-168.64,52.94-247.77,15.97-41.84,31.07-81.34,40.45-121.15,3.53-15.04,7.4-38.03,5.71-62.19-3.73-54.56-47.83-92.66-124.18-107.29-14.08-2.71-29.2-4.71-44.94-5.93-15.95-1.24-33.09-1.76-50.68-1.48-61.46.88-123.98,10.19-187.76,21.3V19.81c92.36-5.73,221.96,2.39,266.2,84.59,9.42,17.46,14.15,37.49,14.01,59.52-.05,13.22-1.85,27.42-5.33,42.18-10.47,44.6-30.69,86.59-50.22,127.18-23.99,49.86-46.67,96.96-52.09,147.64-1.09,10.04-1.75,19.93-2.04,29.7-.59,20.82.61,42.02,3.54,63,10.53,75.07,42.29,139.57,76.06,189.83h216.33c-75.83-88.48-144.83-203.12-158-336.25Z" style="fill:#4d2a54; stroke-width:0px;"/></g></g></g><g id="y"><path d="M1161.22,70.68c26.99,18.98,43.96,45.23,50.89,78.76l-88.64,18.24c-3.28-16.58-10.94-29.38-22.98-38.41s-25.72-13.54-41.04-13.54-26.45,3.59-35.57,10.78c-9.12,7.19-13.68,16.12-13.68,26.81,0,16.21,9.85,26.53,29.55,30.95l76.05,17.13c67.12,15.11,100.68,51.03,100.68,107.77,0,37.95-14.41,67.43-43.23,88.43-28.82,21-64.75,31.5-107.79,31.5s-78.88-9.86-108.61-29.57c-29.73-19.71-46.96-47.26-51.71-82.63l93.02-18.24c8.76,36.48,32.83,54.72,72.23,54.72,16.78,0,30-3.5,39.67-10.5s14.5-16.21,14.5-27.63c0-8.84-2.46-15.84-7.39-21-4.93-5.16-13.77-9.03-26.54-11.61l-76.6-16.58c-65.66-15.11-98.49-50.85-98.49-107.22,0-35.74,13.31-64.11,39.94-85.11s61.65-31.5,105.05-31.5c40.13,0,73.69,9.49,100.68,28.46Z" style="fill:#321c38; stroke-width:0px;"/><path d="M1638.89,202.49c1.46,11.79,2.19,23.03,2.19,33.71,0,56.01-17.87,102.16-53.62,138.45-35.75,36.29-81.16,54.44-136.24,54.44s-102.23-18.61-140.35-55.82c-38.12-37.21-57.18-83.09-57.18-137.62s18.88-99.94,56.63-137.34c37.76-37.4,84.17-56.1,139.25-56.1,41.95,0,79.16,9.67,111.62,29.02,32.46,19.34,54.9,46.7,67.3,82.07l-87,25.42c-17.88-35.37-48.52-53.06-91.92-53.06-29.91,0-54.9,10.5-74.96,31.5-20.06,21-30.09,47.16-30.09,78.48s10.3,57.57,30.91,78.76c20.61,21.19,46.24,31.78,76.88,31.78,23.71,0,44.05-5.9,61.01-17.69,16.96-11.79,28.91-28,35.84-48.64h-112.17v-77.38h201.9Z" style="fill:#321c38; stroke-width:0px;"/><path d="M1691.96,420.81V50.51h90.28v370.3h-90.28Z" style="fill:#321c38; stroke-width:0px;"/><path d="M1990.71,50.51c60.19,0,108.7,17.04,145.54,51.12,36.84,34.08,55.26,78.76,55.26,134.03s-18.42,99.95-55.26,134.03-85.36,51.12-145.54,51.12h-145V50.51h145ZM1987.43,341.77c34.29,0,61.74-9.67,82.35-29.02,20.61-19.34,30.92-45.04,30.92-77.1s-10.31-57.76-30.92-77.1-48.06-29.02-82.35-29.02h-51.43v212.23h51.43Z" style="fill:#321c38; stroke-width:0px;"/><line x1="1875.73" y1="538.57" x2="2181.63" y2="538.57" style="fill:#321c38; stroke:#321c38; stroke-miterlimit:10; stroke-width:9px;"/><path d="M981.73,518.97c3.92,2.81,6.39,6.71,7.4,11.68l-12.88,2.71c-.48-2.46-1.59-4.36-3.34-5.7s-3.74-2.01-5.96-2.01-3.85.53-5.17,1.6c-1.32,1.07-1.99,2.39-1.99,3.98,0,2.41,1.43,3.94,4.29,4.59l11.06,2.54c9.76,2.24,14.64,7.57,14.64,15.99,0,5.63-2.09,10-6.28,13.12s-9.41,4.67-15.67,4.67-11.47-1.46-15.79-4.39c-4.32-2.92-6.83-7.01-7.52-12.26l13.52-2.71c1.27,5.41,4.77,8.12,10.5,8.12,2.44,0,4.36-.52,5.77-1.56,1.4-1.04,2.11-2.41,2.11-4.1,0-1.31-.36-2.35-1.07-3.12-.71-.76-2-1.34-3.86-1.72l-11.14-2.46c-9.54-2.24-14.32-7.54-14.32-15.91,0-5.3,1.94-9.51,5.81-12.63,3.87-3.12,8.96-4.67,15.27-4.67,5.83,0,10.71,1.41,14.64,4.22Z" style="fill:#321c38; stroke-width:0px;"/><path d="M1029.45,527.78v43.13h-13.04v-43.13h-17.26v-11.81h47.57v11.81h-17.26Z" style="fill:#321c38; stroke-width:0px;"/><path d="M1092.61,570.92l-3.74-10h-22.43l-3.74,10h-14.08l22.27-54.94h13.44l22.27,54.94h-14ZM1077.65,531.23l-6.76,18.04h13.6l-6.84-18.04Z" style="fill:#321c38; stroke-width:0px;"/><path d="M1138.82,527.78v43.13h-13.04v-43.13h-17.26v-11.81h47.57v11.81h-17.26Z" style="fill:#321c38; stroke-width:0px;"/><path d="M1209.69,570.92h-41.52v-54.94h41.28v11.64h-28.16v10.33h25.85v10.99h-25.85v10.33h28.4v11.64Z" style="fill:#321c38; stroke-width:0px;"/><path d="M1302.27,538.52c.21,1.75.32,3.42.32,5,0,8.31-2.6,15.16-7.8,20.54-5.2,5.38-11.8,8.08-19.81,8.08s-14.86-2.76-20.4-8.28-8.31-12.33-8.31-20.42,2.74-14.83,8.23-20.38c5.49-5.55,12.24-8.32,20.24-8.32,6.1,0,11.51,1.43,16.23,4.31,4.72,2.87,7.98,6.93,9.78,12.18l-12.65,3.77c-2.6-5.25-7.05-7.87-13.36-7.87-4.35,0-7.98,1.56-10.9,4.67-2.92,3.12-4.38,7-4.38,11.64s1.5,8.54,4.49,11.69c3,3.14,6.72,4.71,11.18,4.71,3.45,0,6.4-.88,8.87-2.62,2.46-1.75,4.2-4.15,5.21-7.21h-16.31v-11.48h29.35Z" style="fill:#321c38; stroke-width:0px;"/><path d="M1357.4,570.92h-41.52v-54.94h41.28v11.64h-28.16v10.33h25.85v10.99h-25.85v10.33h28.4v11.64Z" style="fill:#321c38; stroke-width:0px;"/><path d="M1417.41,523.11c5.49,5.58,8.23,12.38,8.23,20.42s-2.74,14.75-8.23,20.29-12.21,8.32-20.16,8.32-14.68-2.77-20.16-8.32-8.23-12.31-8.23-20.29,2.74-14.84,8.23-20.42,12.21-8.36,20.16-8.36,14.68,2.79,20.16,8.36ZM1408.14,555.13c2.92-3.09,4.38-6.96,4.38-11.6s-1.46-8.61-4.38-11.73c-2.92-3.12-6.55-4.67-10.9-4.67s-7.98,1.56-10.9,4.67c-2.92,3.12-4.38,7.03-4.38,11.73s1.46,8.51,4.38,11.6c2.92,3.09,6.55,4.63,10.9,4.63s7.98-1.54,10.9-4.63Z" style="fill:#321c38; stroke-width:0px;"/><path d="M1493.09,538.52c.21,1.75.32,3.42.32,5,0,8.31-2.6,15.16-7.8,20.54-5.2,5.38-11.8,8.08-19.81,8.08s-14.86-2.76-20.4-8.28-8.31-12.33-8.31-20.42,2.74-14.83,8.23-20.38c5.49-5.55,12.24-8.32,20.24-8.32,6.1,0,11.51,1.43,16.23,4.31,4.72,2.87,7.98,6.93,9.78,12.18l-12.65,3.77c-2.6-5.25-7.05-7.87-13.36-7.87-4.35,0-7.98,1.56-10.9,4.67-2.92,3.12-4.38,7-4.38,11.64s1.5,8.54,4.49,11.69c3,3.14,6.72,4.71,11.18,4.71,3.45,0,6.4-.88,8.87-2.62,2.46-1.75,4.2-4.15,5.21-7.21h-16.31v-11.48h29.35Z" style="fill:#321c38; stroke-width:0px;"/><path d="M1539.7,570.92l-16.07-18.86h-3.82v18.86h-13.12v-54.94h26.97c5.78,0,10.42,1.65,13.92,4.96,3.5,3.31,5.25,7.64,5.25,13,0,4.48-1.25,8.27-3.74,11.36-2.49,3.09-5.91,5.12-10.26,6.11l16.71,19.52h-15.83ZM1532.22,540.74c2.33,0,4.2-.6,5.61-1.8,1.4-1.2,2.11-2.82,2.11-4.84s-.7-3.55-2.11-4.76c-1.41-1.2-3.28-1.8-5.61-1.8h-12.41v13.2h12.41Z" style="fill:#321c38; stroke-width:0px;"/><path d="M1606.51,570.92l-3.74-10h-22.43l-3.74,10h-14.08l22.27-54.94h13.44l22.27,54.94h-14ZM1591.56,531.23l-6.76,18.04h13.6l-6.84-18.04Z" style="fill:#321c38; stroke-width:0px;"/><path d="M1657.26,515.97c5.99,0,10.75,1.74,14.28,5.21,3.53,3.47,5.29,8.05,5.29,13.74s-1.82,10.44-5.45,13.94-8.52,5.25-14.68,5.25h-12.57v16.81h-13.12v-54.94h26.25ZM1655.74,542.79c2.55,0,4.55-.7,6.01-2.09,1.46-1.39,2.19-3.27,2.19-5.62s-.74-4.06-2.23-5.45-3.47-2.09-5.97-2.09h-11.61v15.25h11.61Z" style="fill:#321c38; stroke-width:0px;"/><path d="M1738.31,570.92h-13.04v-21.73h-22.43v21.73h-13.12v-54.94h13.12v21.4h22.43v-21.4h13.04v54.94Z" style="fill:#321c38; stroke-width:0px;"/><path d="M1753.5,570.92v-54.94h13.12v54.94h-13.12Z" style="fill:#321c38; stroke-width:0px;"/><path d="M1835.11,550.33c-1.22,6.78-4.27,12.11-9.15,15.99-4.88,3.88-10.79,5.82-17.74,5.82-7.9,0-14.6-2.76-20.09-8.28-5.49-5.52-8.23-12.33-8.23-20.42s2.74-14.83,8.23-20.38c5.49-5.55,12.18-8.32,20.09-8.32,6.68,0,12.5,1.91,17.46,5.74,4.96,3.83,8.07,8.94,9.35,15.33l-12.89,3.12c-.79-3.88-2.43-6.82-4.89-8.82-2.46-2-5.47-2.99-9.03-2.99-4.24,0-7.84,1.56-10.78,4.67-2.94,3.12-4.41,7-4.41,11.64s1.47,8.54,4.41,11.69c2.94,3.14,6.54,4.71,10.78,4.71,3.5,0,6.48-1.03,8.95-3.08,2.46-2.05,4.15-5.07,5.05-9.06l12.88,2.62Z" style="fill:#321c38; stroke-width:0px;"/><path d="M946.17,681.92v-54.94h13.12v54.94h-13.12Z" style="fill:#321c38; stroke-width:0px;"/><path d="M1025.32,681.92h-10.82l-26.96-31.82v31.82h-13.12v-54.94h10.9l26.97,32.8v-32.8h13.04v54.94Z" style="fill:#321c38; stroke-width:0px;"/><path d="M1053.63,650.43h24.98v11.81h-24.98v19.68h-13.12v-54.94h41.21v11.89h-28.08v11.56Z" style="fill:#321c38; stroke-width:0px;"/><path d="M1140.69,634.11c5.49,5.58,8.23,12.38,8.23,20.42s-2.74,14.75-8.23,20.29-12.21,8.32-20.16,8.32-14.68-2.77-20.17-8.32c-5.49-5.55-8.23-12.31-8.23-20.29s2.74-14.84,8.23-20.42c5.49-5.58,12.21-8.36,20.17-8.36s14.68,2.79,20.16,8.36ZM1131.42,666.13c2.92-3.09,4.38-6.96,4.38-11.6s-1.46-8.61-4.38-11.73c-2.92-3.12-6.55-4.67-10.9-4.67s-7.98,1.56-10.9,4.67c-2.92,3.12-4.38,7.03-4.38,11.73s1.46,8.51,4.38,11.6c2.92,3.09,6.55,4.63,10.9,4.63s7.98-1.54,10.9-4.63Z" style="fill:#321c38; stroke-width:0px;"/><path d="M1195.21,681.92l-16.07-18.86h-3.82v18.86h-13.12v-54.94h26.97c5.78,0,10.42,1.65,13.92,4.96,3.5,3.31,5.25,7.64,5.25,13,0,4.48-1.25,8.27-3.74,11.36-2.49,3.09-5.91,5.12-10.26,6.11l16.71,19.52h-15.83ZM1187.74,651.74c2.33,0,4.2-.6,5.61-1.8,1.4-1.2,2.11-2.82,2.11-4.84s-.7-3.55-2.11-4.76c-1.41-1.2-3.28-1.8-5.61-1.8h-12.41v13.2h12.41Z" style="fill:#321c38; stroke-width:0px;"/><path d="M1283.58,681.92h-12.73v-27.39l-13.92,27.39h-8.11l-14-27.55v27.55h-12.73v-54.94h12.89l17.9,34.03,17.9-34.03h12.81v54.94Z" style="fill:#321c38; stroke-width:0px;"/><path d="M1338.06,681.92l-3.74-10h-22.43l-3.74,10h-14.08l22.27-54.94h13.44l22.27,54.94h-14ZM1323.11,642.23l-6.76,18.04h13.6l-6.84-18.04Z" style="fill:#321c38; stroke-width:0px;"/><path d="M1384.28,638.78v43.13h-13.05v-43.13h-17.26v-11.81h47.57v11.81h-17.26Z" style="fill:#321c38; stroke-width:0px;"/><path d="M1413.62,681.92v-54.94h13.12v54.94h-13.12Z" style="fill:#321c38; stroke-width:0px;"/><path d="M1488.59,634.11c5.49,5.58,8.23,12.38,8.23,20.42s-2.74,14.75-8.23,20.29-12.21,8.32-20.16,8.32-14.68-2.77-20.16-8.32-8.23-12.31-8.23-20.29,2.74-14.84,8.23-20.42,12.21-8.36,20.16-8.36,14.68,2.79,20.16,8.36ZM1479.32,666.13c2.92-3.09,4.38-6.96,4.38-11.6s-1.46-8.61-4.38-11.73c-2.92-3.12-6.55-4.67-10.9-4.67s-7.98,1.56-10.9,4.67c-2.92,3.12-4.38,7.03-4.38,11.73s1.46,8.51,4.38,11.6c2.92,3.09,6.55,4.63,10.9,4.63s7.98-1.54,10.9-4.63Z" style="fill:#321c38; stroke-width:0px;"/><path d="M1561.01,681.92h-10.82l-26.96-31.82v31.82h-13.12v-54.94h10.9l26.97,32.8v-32.8h13.04v54.94Z" style="fill:#321c38; stroke-width:0px;"/><path d="M1621.62,626.97c8.75,0,15.8,2.53,21.16,7.59,5.36,5.06,8.03,11.68,8.03,19.88s-2.68,14.83-8.03,19.88c-5.36,5.06-12.41,7.59-21.16,7.59h-21.08v-54.94h21.08ZM1621.14,670.19c4.98,0,8.97-1.44,11.97-4.3,3-2.87,4.49-6.68,4.49-11.44s-1.5-8.57-4.49-11.44c-3-2.87-6.99-4.3-11.97-4.3h-7.48v31.49h7.48Z" style="fill:#321c38; stroke-width:0px;"/><path d="M1701.4,681.92l-3.74-10h-22.43l-3.74,10h-14.08l22.27-54.94h13.44l22.27,54.94h-14ZM1686.44,642.23l-6.76,18.04h13.6l-6.84-18.04Z" style="fill:#321c38; stroke-width:0px;"/><path d="M1747.61,638.78v43.13h-13.05v-43.13h-17.26v-11.81h47.57v11.81h-17.26Z" style="fill:#321c38; stroke-width:0px;"/><path d="M1810.77,681.92l-3.74-10h-22.43l-3.74,10h-14.08l22.27-54.94h13.44l22.27,54.94h-14ZM1795.81,642.23l-6.76,18.04h13.6l-6.84-18.04Z" style="fill:#321c38; stroke-width:0px;"/><path d="M1869.47,629.97c3.92,2.81,6.39,6.71,7.4,11.68l-12.88,2.71c-.48-2.46-1.59-4.36-3.34-5.7s-3.74-2.01-5.96-2.01-3.85.53-5.17,1.6c-1.32,1.07-1.99,2.39-1.99,3.98,0,2.41,1.43,3.94,4.29,4.59l11.06,2.54c9.76,2.24,14.64,7.57,14.64,15.99,0,5.63-2.09,10-6.28,13.12s-9.41,4.67-15.67,4.67-11.47-1.46-15.79-4.39c-4.32-2.92-6.83-7.01-7.52-12.26l13.52-2.71c1.27,5.41,4.77,8.12,10.5,8.12,2.44,0,4.36-.52,5.77-1.56,1.4-1.04,2.11-2.41,2.11-4.1,0-1.31-.36-2.35-1.07-3.12-.71-.76-2-1.34-3.86-1.72l-11.14-2.46c-9.54-2.24-14.32-7.54-14.32-15.91,0-5.3,1.94-9.51,5.81-12.63,3.87-3.12,8.96-4.67,15.27-4.67,5.83,0,10.71,1.41,14.64,4.22Z" style="fill:#321c38; stroke-width:0px;"/><path d="M1937.35,634.11c5.49,5.58,8.23,12.38,8.23,20.42s-2.74,14.75-8.23,20.29-12.21,8.32-20.16,8.32-14.68-2.77-20.17-8.32c-5.49-5.55-8.23-12.31-8.23-20.29s2.74-14.84,8.23-20.42c5.49-5.58,12.21-8.36,20.17-8.36s14.68,2.79,20.16,8.36ZM1928.09,666.13c2.92-3.09,4.38-6.96,4.38-11.6s-1.46-8.61-4.38-11.73c-2.92-3.12-6.55-4.67-10.9-4.67s-7.98,1.56-10.9,4.67c-2.92,3.12-4.38,7.03-4.38,11.73s1.46,8.51,4.38,11.6c2.92,3.09,6.55,4.63,10.9,4.63s7.98-1.54,10.9-4.63Z" style="fill:#321c38; stroke-width:0px;"/><path d="M2006.51,657.15c0,7.87-2.16,14.17-6.48,18.9-4.32,4.73-10.04,7.09-17.14,7.09s-13.11-2.36-17.54-7.09c-4.43-4.73-6.64-11.03-6.64-18.9v-30.18h13.12v30.18c0,4.16,1.01,7.45,3.02,9.88,2.02,2.43,4.69,3.65,8.04,3.65s5.73-1.22,7.64-3.65c1.91-2.43,2.86-5.73,2.86-9.88v-30.18h13.12v30.18Z" style="fill:#321c38; stroke-width:0px;"/><path d="M2054.48,681.92l-16.07-18.86h-3.82v18.86h-13.12v-54.94h26.97c5.78,0,10.42,1.65,13.92,4.96,3.5,3.31,5.25,7.64,5.25,13,0,4.48-1.25,8.27-3.74,11.36-2.49,3.09-5.91,5.12-10.26,6.11l16.71,19.52h-15.83ZM2047,651.74c2.33,0,4.2-.6,5.61-1.8,1.4-1.2,2.11-2.82,2.11-4.84s-.7-3.55-2.11-4.76c-1.41-1.2-3.28-1.8-5.61-1.8h-12.41v13.2h12.41Z" style="fill:#321c38; stroke-width:0px;"/><path d="M2133.94,661.33c-1.22,6.78-4.27,12.11-9.15,15.99-4.88,3.88-10.79,5.82-17.74,5.82-7.9,0-14.6-2.76-20.08-8.28s-8.23-12.33-8.23-20.42,2.74-14.83,8.23-20.38,12.18-8.32,20.08-8.32c6.68,0,12.5,1.91,17.46,5.74,4.96,3.83,8.07,8.94,9.35,15.33l-12.89,3.12c-.79-3.88-2.43-6.82-4.89-8.82-2.47-2-5.48-2.99-9.03-2.99-4.24,0-7.83,1.56-10.78,4.67-2.94,3.12-4.41,7-4.41,11.64s1.47,8.54,4.41,11.69c2.94,3.14,6.54,4.71,10.78,4.71,3.5,0,6.48-1.03,8.95-3.08,2.47-2.05,4.15-5.07,5.05-9.06l12.89,2.62Z" style="fill:#321c38; stroke-width:0px;"/><path d="M2188.74,681.92h-41.52v-54.94h41.28v11.64h-28.16v10.33h25.85v10.99h-25.85v10.33h28.4v11.64Z" style="fill:#321c38; stroke-width:0px;"/></g></svg>